<?xml version="1.0" encoding="UTF-8" standalone="no"?>
<!DOCTYPE svg PUBLIC "-//W3C//DTD SVG 1.1//EN"
 "http://www.w3.org/Graphics/SVG/1.1/DTD/svg11.dtd">
<!-- Generated by graphviz version 2.36.0 (20140111.2315)
 -->
<!-- Title: authoring.view.wizards.LevelWizard Pages: 1 -->
<svg width="796pt" height="242pt"
 viewBox="0.00 0.00 796.00 242.00" xmlns="http://www.w3.org/2000/svg" xmlns:xlink="http://www.w3.org/1999/xlink">
<g id="graph0" class="graph" transform="scale(1 1) rotate(0) translate(4 238)">
<title>authoring.view.wizards.LevelWizard</title>
<polygon fill="white" stroke="none" points="-4,4 -4,-238 792,-238 792,4 -4,4"/>
<!-- Node1 -->
<g id="node1" class="node"><title>Node1</title>
<polygon fill="#bfbfbf" stroke="black" points="636.5,-90 636.5,-120 787.5,-120 787.5,-90 636.5,-90"/>
<text text-anchor="start" x="644.5" y="-108" font-family="Helvetica,sans-Serif" font-size="10.00">authoring.view.wizards.Level</text>
<text text-anchor="middle" x="712" y="-97" font-family="Helvetica,sans-Serif" font-size="10.00">Wizard</text>
</g>
<!-- Node2 -->
<g id="node2" class="node"><title>Node2</title>
<g id="a_node2"><a xlink:href="../../d6/d32/classauthoring_1_1view_1_1wizards_1_1_wizard.html" target="_top" xlink:title="authoring.view.wizards.Wizard">
<polygon fill="white" stroke="black" points="409,-132.5 409,-151.5 567,-151.5 567,-132.5 409,-132.5"/>
<text text-anchor="middle" x="488" y="-139.5" font-family="Helvetica,sans-Serif" font-size="10.00">authoring.view.wizards.Wizard</text>
</a>
</g>
</g>
<!-- Node2&#45;&gt;Node1 -->
<g id="edge1" class="edge"><title>Node2&#45;&gt;Node1</title>
<path fill="none" stroke="midnightblue" d="M556.06,-130.823C581.416,-126.597 610.421,-121.763 636.426,-117.429"/>
<polygon fill="midnightblue" stroke="midnightblue" points="555.459,-127.375 546.171,-132.472 556.61,-134.28 555.459,-127.375"/>
</g>
<!-- Node3 -->
<g id="node3" class="node"><title>Node3</title>
<polygon fill="white" stroke="#bfbfbf" points="170.5,-214.5 170.5,-233.5 215.5,-233.5 215.5,-214.5 170.5,-214.5"/>
<text text-anchor="middle" x="193" y="-221.5" font-family="Helvetica,sans-Serif" font-size="10.00">Stage</text>
</g>
<!-- Node3&#45;&gt;Node2 -->
<g id="edge2" class="edge"><title>Node3&#45;&gt;Node2</title>
<path fill="none" stroke="midnightblue" d="M225.634,-219.585C248.168,-216.21 279.102,-211.105 306,-205 343.864,-196.407 353.271,-193.592 390,-181 416.097,-172.052 445.4,-159.981 464.902,-151.65"/>
<polygon fill="midnightblue" stroke="midnightblue" points="224.996,-216.142 215.61,-221.056 226.012,-223.067 224.996,-216.142"/>
</g>
<!-- Node4 -->
<g id="node4" class="node"><title>Node4</title>
<polygon fill="white" stroke="#bfbfbf" points="172.5,-176.5 172.5,-195.5 213.5,-195.5 213.5,-176.5 172.5,-176.5"/>
<text text-anchor="middle" x="193" y="-183.5" font-family="Helvetica,sans-Serif" font-size="10.00">VBox</text>
</g>
<!-- Node4&#45;&gt;Node2 -->
<g id="edge3" class="edge"><title>Node4&#45;&gt;Node2</title>
<path fill="none" stroke="#9a32cd" stroke-dasharray="5,2" d="M223.751,-181.66C262.166,-176.041 331.088,-165.913 390,-157 401.626,-155.241 414.031,-153.341 425.951,-151.503"/>
<polygon fill="#9a32cd" stroke="#9a32cd" points="223.148,-178.211 213.759,-183.12 224.16,-185.137 223.148,-178.211"/>
<text text-anchor="middle" x="357" y="-169" font-family="Helvetica,sans-Serif" font-size="10.00"> myWindow</text>
</g>
<!-- Node5 -->
<g id="node5" class="node"><title>Node5</title>
<polygon fill="white" stroke="#bfbfbf" points="80.5,-127 80.5,-157 305.5,-157 305.5,-127 80.5,-127"/>
<text text-anchor="start" x="88.5" y="-145" font-family="Helvetica,sans-Serif" font-size="10.00">Map&lt; String, authoring.view.propertiesview.</text>
<text text-anchor="middle" x="193" y="-134" font-family="Helvetica,sans-Serif" font-size="10.00">PropertyTextField &gt;</text>
</g>
<!-- Node5&#45;&gt;Node2 -->
<g id="edge4" class="edge"><title>Node5&#45;&gt;Node2</title>
<path fill="none" stroke="#9a32cd" stroke-dasharray="5,2" d="M315.769,-142C347.263,-142 380.326,-142 408.91,-142"/>
<polygon fill="#9a32cd" stroke="#9a32cd" points="315.607,-138.5 305.607,-142 315.607,-145.5 315.607,-138.5"/>
<text text-anchor="middle" x="357" y="-145" font-family="Helvetica,sans-Serif" font-size="10.00"> myMap</text>
</g>
<!-- Node6 -->
<g id="node6" class="node"><title>Node6</title>
<polygon fill="white" stroke="#bfbfbf" points="170,-88.5 170,-107.5 216,-107.5 216,-88.5 170,-88.5"/>
<text text-anchor="middle" x="193" y="-95.5" font-family="Helvetica,sans-Serif" font-size="10.00">Group</text>
</g>
<!-- Node6&#45;&gt;Node2 -->
<g id="edge5" class="edge"><title>Node6&#45;&gt;Node2</title>
<path fill="none" stroke="#9a32cd" stroke-dasharray="5,2" d="M226.224,-102.702C265.071,-108.386 332.331,-118.275 390,-127 401.626,-128.759 414.031,-130.659 425.951,-132.497"/>
<polygon fill="#9a32cd" stroke="#9a32cd" points="226.454,-99.1984 216.052,-101.215 225.441,-106.125 226.454,-99.1984"/>
<text text-anchor="middle" x="357" y="-130" font-family="Helvetica,sans-Serif" font-size="10.00"> myRoot</text>
</g>
<!-- Node7 -->
<g id="node7" class="node"><title>Node7</title>
<g id="a_node7"><a xlink:href="../../d5/d4e/classauthoring_1_1view_1_1propertiesview_1_1_boolean_field.html" target="_top" xlink:title="authoring.view.propertiesview.\lBooleanField">
<polygon fill="white" stroke="black" points="408.5,-39 408.5,-69 567.5,-69 567.5,-39 408.5,-39"/>
<text text-anchor="start" x="416.5" y="-57" font-family="Helvetica,sans-Serif" font-size="10.00">authoring.view.propertiesview.</text>
<text text-anchor="middle" x="488" y="-46" font-family="Helvetica,sans-Serif" font-size="10.00">BooleanField</text>
</a>
</g>
</g>
<!-- Node7&#45;&gt;Node1 -->
<g id="edge6" class="edge"><title>Node7&#45;&gt;Node1</title>
<path fill="none" stroke="#9a32cd" stroke-dasharray="5,2" d="M564.363,-71.313C590.761,-77.3776 620.169,-84.1334 645.678,-89.9935"/>
<polygon fill="#9a32cd" stroke="#9a32cd" points="564.936,-67.8537 554.407,-69.0258 563.369,-74.676 564.936,-67.8537"/>
<text text-anchor="middle" x="602" y="-86" font-family="Helvetica,sans-Serif" font-size="10.00"> isFirst</text>
</g>
<!-- Node8 -->
<g id="node8" class="node"><title>Node8</title>
<g id="a_node8"><a xlink:href="../../d5/d98/classauthoring_1_1view_1_1propertiesview_1_1_property_field.html" target="_top" xlink:title="authoring.view.propertiesview.\lPropertyField">
<polygon fill="white" stroke="black" points="113.5,-39 113.5,-69 272.5,-69 272.5,-39 113.5,-39"/>
<text text-anchor="start" x="121.5" y="-57" font-family="Helvetica,sans-Serif" font-size="10.00">authoring.view.propertiesview.</text>
<text text-anchor="middle" x="193" y="-46" font-family="Helvetica,sans-Serif" font-size="10.00">PropertyField</text>
</a>
</g>
</g>
<!-- Node8&#45;&gt;Node7 -->
<g id="edge7" class="edge"><title>Node8&#45;&gt;Node7</title>
<path fill="none" stroke="midnightblue" d="M282.538,-54C322.567,-54 369.48,-54 408.265,-54"/>
<polygon fill="midnightblue" stroke="midnightblue" points="282.519,-50.5001 272.519,-54 282.519,-57.5001 282.519,-50.5001"/>
</g>
<!-- Node9 -->
<g id="node9" class="node"><title>Node9</title>
<polygon fill="white" stroke="#bfbfbf" points="0,-44.5 0,-63.5 42,-63.5 42,-44.5 0,-44.5"/>
<text text-anchor="middle" x="21" y="-51.5" font-family="Helvetica,sans-Serif" font-size="10.00">HBox</text>
</g>
<!-- Node9&#45;&gt;Node8 -->
<g id="edge8" class="edge"><title>Node9&#45;&gt;Node8</title>
<path fill="none" stroke="midnightblue" d="M52.5884,-54C69.6372,-54 91.7243,-54 113.271,-54"/>
<polygon fill="midnightblue" stroke="midnightblue" points="52.1688,-50.5001 42.1688,-54 52.1688,-57.5001 52.1688,-50.5001"/>
</g>
<!-- Node10 -->
<g id="node10" class="node"><title>Node10</title>
<polygon fill="white" stroke="#bfbfbf" points="161,-0.5 161,-19.5 225,-19.5 225,-0.5 161,-0.5"/>
<text text-anchor="middle" x="193" y="-7.5" font-family="Helvetica,sans-Serif" font-size="10.00">CheckBox</text>
</g>
<!-- Node10&#45;&gt;Node7 -->
<g id="edge9" class="edge"><title>Node10&#45;&gt;Node7</title>
<path fill="none" stroke="#9a32cd" stroke-dasharray="5,2" d="M235.329,-16.035C275.003,-21.8473 336.612,-30.9225 390,-39 395.981,-39.905 402.169,-40.8474 408.391,-41.7995"/>
<polygon fill="#9a32cd" stroke="#9a32cd" points="235.641,-12.5435 225.24,-14.558 234.627,-19.4697 235.641,-12.5435"/>
<text text-anchor="middle" x="357" y="-42" font-family="Helvetica,sans-Serif" font-size="10.00"> myCheckBox</text>
</g>
</g>
</svg>
