<?xml version="1.0" encoding="UTF-8" standalone="no"?>
<!DOCTYPE svg PUBLIC "-//W3C//DTD SVG 1.1//EN"
 "http://www.w3.org/Graphics/SVG/1.1/DTD/svg11.dtd">
<!-- Generated by graphviz version 2.36.0 (20140111.2315)
 -->
<!-- Title: authoring.eventhandlers.SaveGameDataHandler Pages: 1 -->
<svg width="1190pt" height="283pt"
 viewBox="0.00 0.00 1190.00 283.00" xmlns="http://www.w3.org/2000/svg" xmlns:xlink="http://www.w3.org/1999/xlink">
<g id="graph0" class="graph" transform="scale(1 1) rotate(0) translate(4 279)">
<title>authoring.eventhandlers.SaveGameDataHandler</title>
<polygon fill="white" stroke="none" points="-4,4 -4,-279 1186,-279 1186,4 -4,4"/>
<!-- Node1 -->
<g id="node1" class="node"><title>Node1</title>
<polygon fill="#bfbfbf" stroke="black" points="1044.5,-151 1044.5,-181 1181.5,-181 1181.5,-151 1044.5,-151"/>
<text text-anchor="start" x="1052.5" y="-169" font-family="Helvetica,sans-Serif" font-size="10.00">authoring.eventhandlers.</text>
<text text-anchor="middle" x="1113" y="-158" font-family="Helvetica,sans-Serif" font-size="10.00">SaveGameDataHandler</text>
</g>
<!-- Node2 -->
<g id="node2" class="node"><title>Node2</title>
<g id="a_node2"><a xlink:href="../../d3/d6a/interfaceauthoring_1_1eventhandlers_1_1_game_handler.html" target="_top" xlink:title="authoring.eventhandlers.\lGameHandler\&lt; T extends\l Event \&gt;">
<polygon fill="white" stroke="black" points="822.5,-169.5 822.5,-210.5 963.5,-210.5 963.5,-169.5 822.5,-169.5"/>
<text text-anchor="start" x="830.5" y="-198.5" font-family="Helvetica,sans-Serif" font-size="10.00">authoring.eventhandlers.</text>
<text text-anchor="start" x="830.5" y="-187.5" font-family="Helvetica,sans-Serif" font-size="10.00">GameHandler&lt; T extends</text>
<text text-anchor="middle" x="893" y="-176.5" font-family="Helvetica,sans-Serif" font-size="10.00"> Event &gt;</text>
</a>
</g>
</g>
<!-- Node2&#45;&gt;Node1 -->
<g id="edge1" class="edge"><title>Node2&#45;&gt;Node1</title>
<path fill="none" stroke="midnightblue" d="M973.706,-181.225C996.838,-178.678 1021.87,-175.922 1044.2,-173.464"/>
<polygon fill="midnightblue" stroke="midnightblue" points="973.133,-177.767 963.576,-182.34 973.899,-184.725 973.133,-177.767"/>
</g>
<!-- Node3 -->
<g id="node3" class="node"><title>Node3</title>
<polygon fill="white" stroke="#bfbfbf" points="560,-180.5 560,-199.5 736,-199.5 736,-180.5 560,-180.5"/>
<text text-anchor="middle" x="648" y="-187.5" font-family="Helvetica,sans-Serif" font-size="10.00">javafx::event::EventHandler&lt; T &gt;</text>
</g>
<!-- Node3&#45;&gt;Node2 -->
<g id="edge2" class="edge"><title>Node3&#45;&gt;Node2</title>
<path fill="none" stroke="midnightblue" d="M746.102,-190C771.589,-190 798.57,-190 822.305,-190"/>
<polygon fill="midnightblue" stroke="midnightblue" points="746.042,-186.5 736.042,-190 746.042,-193.5 746.042,-186.5"/>
</g>
<!-- Node4 -->
<g id="node4" class="node"><title>Node4</title>
<g id="a_node4"><a xlink:href="../../d4/d68/classauthoring_1_1model_1_1_authoring_model.html" target="_top" xlink:title="authoring.model.Authoring\lModel">
<polygon fill="white" stroke="black" points="820.5,-121 820.5,-151 965.5,-151 965.5,-121 820.5,-121"/>
<text text-anchor="start" x="828.5" y="-139" font-family="Helvetica,sans-Serif" font-size="10.00">authoring.model.Authoring</text>
<text text-anchor="middle" x="893" y="-128" font-family="Helvetica,sans-Serif" font-size="10.00">Model</text>
</a>
</g>
</g>
<!-- Node4&#45;&gt;Node1 -->
<g id="edge3" class="edge"><title>Node4&#45;&gt;Node1</title>
<path fill="none" stroke="#9a32cd" stroke-dasharray="5,2" d="M975.612,-147.231C998.257,-150.347 1022.59,-153.696 1044.34,-156.689"/>
<polygon fill="#9a32cd" stroke="#9a32cd" points="976.067,-143.761 965.683,-145.865 975.113,-150.695 976.067,-143.761"/>
<text text-anchor="middle" x="1005" y="-156" font-family="Helvetica,sans-Serif" font-size="10.00"> myData</text>
</g>
<!-- Node5 -->
<g id="node5" class="node"><title>Node5</title>
<g id="a_node5"><a xlink:href="../../d7/dbf/classauthoring_1_1model_1_1_game_data.html" target="_top" xlink:title="authoring.model.GameData">
<polygon fill="white" stroke="black" points="572.5,-126.5 572.5,-145.5 723.5,-145.5 723.5,-126.5 572.5,-126.5"/>
<text text-anchor="middle" x="648" y="-133.5" font-family="Helvetica,sans-Serif" font-size="10.00">authoring.model.GameData</text>
</a>
</g>
</g>
<!-- Node5&#45;&gt;Node4 -->
<g id="edge4" class="edge"><title>Node5&#45;&gt;Node4</title>
<path fill="none" stroke="#9a32cd" stroke-dasharray="5,2" d="M733.834,-136C762.118,-136 793.327,-136 820.495,-136"/>
<polygon fill="#9a32cd" stroke="#9a32cd" points="733.559,-132.5 723.559,-136 733.559,-139.5 733.559,-132.5"/>
<text text-anchor="middle" x="778" y="-139" font-family="Helvetica,sans-Serif" font-size="10.00"> myGame</text>
</g>
<!-- Node6 -->
<g id="node6" class="node"><title>Node6</title>
<g id="a_node6"><a xlink:href="../../df/de5/classauthoring_1_1model_1_1collections_1_1_levels_collection.html" target="_top" xlink:title="authoring.model.collections.\lLevelsCollection">
<polygon fill="white" stroke="black" points="255,-245 255,-275 407,-275 407,-245 255,-245"/>
<text text-anchor="start" x="263" y="-263" font-family="Helvetica,sans-Serif" font-size="10.00">authoring.model.collections.</text>
<text text-anchor="middle" x="331" y="-252" font-family="Helvetica,sans-Serif" font-size="10.00">LevelsCollection</text>
</a>
</g>
</g>
<!-- Node6&#45;&gt;Node5 -->
<g id="edge5" class="edge"><title>Node6&#45;&gt;Node5</title>
<path fill="none" stroke="#9a32cd" stroke-dasharray="5,2" d="M411.894,-242.567C421.407,-240.178 430.949,-237.636 440,-235 486.157,-221.558 504.3,-228.83 542,-199 553.602,-189.82 548.599,-180.428 560,-171 574.177,-159.276 592.79,-151.082 609.16,-145.587"/>
<polygon fill="#9a32cd" stroke="#9a32cd" points="410.887,-239.21 402.012,-244.997 412.559,-246.007 410.887,-239.21"/>
<text text-anchor="middle" x="500" y="-232" font-family="Helvetica,sans-Serif" font-size="10.00"> myLevels</text>
</g>
<!-- Node7 -->
<g id="node7" class="node"><title>Node7</title>
<g id="a_node7"><a xlink:href="../../d4/d3b/classauthoring_1_1model_1_1collections_1_1_general_collection.html" target="_top" xlink:title="authoring.model.collections.\lGeneralCollection\&lt; Level \&gt;">
<polygon fill="white" stroke="black" points="16,-245 16,-275 168,-275 168,-245 16,-245"/>
<text text-anchor="start" x="24" y="-263" font-family="Helvetica,sans-Serif" font-size="10.00">authoring.model.collections.</text>
<text text-anchor="middle" x="92" y="-252" font-family="Helvetica,sans-Serif" font-size="10.00">GeneralCollection&lt; Level &gt;</text>
</a>
</g>
</g>
<!-- Node7&#45;&gt;Node6 -->
<g id="edge6" class="edge"><title>Node7&#45;&gt;Node6</title>
<path fill="none" stroke="midnightblue" d="M178.506,-260C203.487,-260 230.595,-260 254.882,-260"/>
<polygon fill="midnightblue" stroke="midnightblue" points="178.314,-256.5 168.314,-260 178.314,-263.5 178.314,-256.5"/>
</g>
<!-- Node8 -->
<g id="node8" class="node"><title>Node8</title>
<polygon fill="white" stroke="#bfbfbf" points="222,-196 222,-226 440,-226 440,-196 222,-196"/>
<text text-anchor="start" x="230" y="-214" font-family="Helvetica,sans-Serif" font-size="10.00">Map&lt; String, authoring.model.collections.</text>
<text text-anchor="middle" x="331" y="-203" font-family="Helvetica,sans-Serif" font-size="10.00">GeneralCollection &gt;</text>
</g>
<!-- Node8&#45;&gt;Node5 -->
<g id="edge7" class="edge"><title>Node8&#45;&gt;Node5</title>
<path fill="none" stroke="#9a32cd" stroke-dasharray="5,2" d="M418.134,-193.905C456.23,-185.993 501.487,-176.116 542,-166 566.832,-159.8 594.673,-151.796 615.445,-145.615"/>
<polygon fill="#9a32cd" stroke="#9a32cd" points="417.186,-190.527 408.101,-195.977 418.602,-197.382 417.186,-190.527"/>
<text text-anchor="middle" x="500" y="-187" font-family="Helvetica,sans-Serif" font-size="10.00"> myCollections</text>
</g>
<!-- Node9 -->
<g id="node9" class="node"><title>Node9</title>
<g id="a_node9"><a xlink:href="../../d9/d07/classauthoring_1_1model_1_1collections_1_1_sounds_collection.html" target="_top" xlink:title="authoring.model.collections.\lSoundsCollection">
<polygon fill="white" stroke="black" points="255,-147 255,-177 407,-177 407,-147 255,-147"/>
<text text-anchor="start" x="263" y="-165" font-family="Helvetica,sans-Serif" font-size="10.00">authoring.model.collections.</text>
<text text-anchor="middle" x="331" y="-154" font-family="Helvetica,sans-Serif" font-size="10.00">SoundsCollection</text>
</a>
</g>
</g>
<!-- Node9&#45;&gt;Node5 -->
<g id="edge8" class="edge"><title>Node9&#45;&gt;Node5</title>
<path fill="none" stroke="#9a32cd" stroke-dasharray="5,2" d="M417.196,-154.968C465.614,-150.972 525.676,-146.014 572.252,-142.17"/>
<polygon fill="#9a32cd" stroke="#9a32cd" points="416.728,-151.495 407.05,-155.805 417.304,-158.471 416.728,-151.495"/>
<text text-anchor="middle" x="500" y="-154" font-family="Helvetica,sans-Serif" font-size="10.00"> mySounds</text>
</g>
<!-- Node10 -->
<g id="node10" class="node"><title>Node10</title>
<g id="a_node10"><a xlink:href="../../d4/d3b/classauthoring_1_1model_1_1collections_1_1_general_collection.html" target="_top" xlink:title="authoring.model.collections.\lGeneralCollection\&lt; String \&gt;">
<polygon fill="white" stroke="black" points="16,-117 16,-147 168,-147 168,-117 16,-117"/>
<text text-anchor="start" x="24" y="-135" font-family="Helvetica,sans-Serif" font-size="10.00">authoring.model.collections.</text>
<text text-anchor="middle" x="92" y="-124" font-family="Helvetica,sans-Serif" font-size="10.00">GeneralCollection&lt; String &gt;</text>
</a>
</g>
</g>
<!-- Node10&#45;&gt;Node9 -->
<g id="edge9" class="edge"><title>Node10&#45;&gt;Node9</title>
<path fill="none" stroke="midnightblue" d="M178.506,-142.824C203.487,-145.986 230.595,-149.417 254.882,-152.491"/>
<polygon fill="midnightblue" stroke="midnightblue" points="178.674,-139.317 168.314,-141.533 177.795,-146.262 178.674,-139.317"/>
</g>
<!-- Node13 -->
<g id="node13" class="node"><title>Node13</title>
<g id="a_node13"><a xlink:href="../../d5/d60/classauthoring_1_1model_1_1collections_1_1_images_collection.html" target="_top" xlink:title="authoring.model.collections.\lImagesCollection">
<polygon fill="white" stroke="black" points="255,-98 255,-128 407,-128 407,-98 255,-98"/>
<text text-anchor="start" x="263" y="-116" font-family="Helvetica,sans-Serif" font-size="10.00">authoring.model.collections.</text>
<text text-anchor="middle" x="331" y="-105" font-family="Helvetica,sans-Serif" font-size="10.00">ImagesCollection</text>
</a>
</g>
</g>
<!-- Node10&#45;&gt;Node13 -->
<g id="edge13" class="edge"><title>Node10&#45;&gt;Node13</title>
<path fill="none" stroke="midnightblue" d="M178.506,-125.145C203.487,-123.142 230.595,-120.969 254.882,-119.022"/>
<polygon fill="midnightblue" stroke="midnightblue" points="178.002,-121.674 168.314,-125.962 178.562,-128.652 178.002,-121.674"/>
</g>
<!-- Node11 -->
<g id="node11" class="node"><title>Node11</title>
<g id="a_node11"><a xlink:href="../../d1/d32/classauthoring_1_1model_1_1collections_1_1_game_objects_collection.html" target="_top" xlink:title="authoring.model.collections.\lGameObjectsCollection">
<polygon fill="white" stroke="black" points="255,-49 255,-79 407,-79 407,-49 255,-49"/>
<text text-anchor="start" x="263" y="-67" font-family="Helvetica,sans-Serif" font-size="10.00">authoring.model.collections.</text>
<text text-anchor="middle" x="331" y="-56" font-family="Helvetica,sans-Serif" font-size="10.00">GameObjectsCollection</text>
</a>
</g>
</g>
<!-- Node11&#45;&gt;Node5 -->
<g id="edge10" class="edge"><title>Node11&#45;&gt;Node5</title>
<path fill="none" stroke="#9a32cd" stroke-dasharray="5,2" d="M417.504,-76.1369C455.852,-82.3291 501.48,-90.7367 542,-101 569.754,-108.03 600.771,-118.733 621.85,-126.452"/>
<polygon fill="#9a32cd" stroke="#9a32cd" points="417.833,-72.6452 407.407,-74.5302 416.733,-79.5582 417.833,-72.6452"/>
<text text-anchor="middle" x="500" y="-104" font-family="Helvetica,sans-Serif" font-size="10.00"> myGameObjects</text>
</g>
<!-- Node12 -->
<g id="node12" class="node"><title>Node12</title>
<g id="a_node12"><a xlink:href="../../d4/d3b/classauthoring_1_1model_1_1collections_1_1_general_collection.html" target="_top" xlink:title="authoring.model.collections.\lGeneralCollection\&lt; GameObject \&gt;">
<polygon fill="white" stroke="black" points="0.5,-49 0.5,-79 183.5,-79 183.5,-49 0.5,-49"/>
<text text-anchor="start" x="8.5" y="-67" font-family="Helvetica,sans-Serif" font-size="10.00">authoring.model.collections.</text>
<text text-anchor="middle" x="92" y="-56" font-family="Helvetica,sans-Serif" font-size="10.00">GeneralCollection&lt; GameObject &gt;</text>
</a>
</g>
</g>
<!-- Node12&#45;&gt;Node11 -->
<g id="edge11" class="edge"><title>Node12&#45;&gt;Node11</title>
<path fill="none" stroke="midnightblue" d="M193.618,-64C214.14,-64 235.394,-64 254.841,-64"/>
<polygon fill="midnightblue" stroke="midnightblue" points="193.614,-60.5001 183.614,-64 193.614,-67.5001 193.614,-60.5001"/>
</g>
<!-- Node13&#45;&gt;Node5 -->
<g id="edge12" class="edge"><title>Node13&#45;&gt;Node5</title>
<path fill="none" stroke="#9a32cd" stroke-dasharray="5,2" d="M417.479,-114.926C455.637,-116.233 501.122,-118.406 542,-122 555.19,-123.16 569.267,-124.774 582.687,-126.497"/>
<polygon fill="#9a32cd" stroke="#9a32cd" points="417.543,-111.426 407.434,-114.596 417.313,-118.422 417.543,-111.426"/>
<text text-anchor="middle" x="500" y="-125" font-family="Helvetica,sans-Serif" font-size="10.00"> myImages</text>
</g>
<!-- Node14 -->
<g id="node14" class="node"><title>Node14</title>
<g id="a_node14"><a xlink:href="../../db/d2a/classauthoring_1_1model_1_1collections_1_1_conditions_collection.html" target="_top" xlink:title="authoring.model.collections.\lConditionsCollection">
<polygon fill="white" stroke="black" points="255,-0 255,-30 407,-30 407,-0 255,-0"/>
<text text-anchor="start" x="263" y="-18" font-family="Helvetica,sans-Serif" font-size="10.00">authoring.model.collections.</text>
<text text-anchor="middle" x="331" y="-7" font-family="Helvetica,sans-Serif" font-size="10.00">ConditionsCollection</text>
</a>
</g>
</g>
<!-- Node14&#45;&gt;Node5 -->
<g id="edge14" class="edge"><title>Node14&#45;&gt;Node5</title>
<path fill="none" stroke="#9a32cd" stroke-dasharray="5,2" d="M417.757,-29.5862C456.729,-37.98 502.784,-50.4258 542,-68 578.07,-84.1646 615.924,-111.715 634.794,-126.291"/>
<polygon fill="#9a32cd" stroke="#9a32cd" points="417.995,-26.0599 407.489,-27.4322 416.558,-32.9108 417.995,-26.0599"/>
<text text-anchor="middle" x="500" y="-71" font-family="Helvetica,sans-Serif" font-size="10.00"> myConditions</text>
</g>
<!-- Node15 -->
<g id="node15" class="node"><title>Node15</title>
<g id="a_node15"><a xlink:href="../../d4/d3b/classauthoring_1_1model_1_1collections_1_1_general_collection.html" target="_top" xlink:title="authoring.model.collections.\lGeneralCollection\&lt; Condition \&gt;">
<polygon fill="white" stroke="black" points="8,-0 8,-30 176,-30 176,-0 8,-0"/>
<text text-anchor="start" x="16" y="-18" font-family="Helvetica,sans-Serif" font-size="10.00">authoring.model.collections.</text>
<text text-anchor="middle" x="92" y="-7" font-family="Helvetica,sans-Serif" font-size="10.00">GeneralCollection&lt; Condition &gt;</text>
</a>
</g>
</g>
<!-- Node15&#45;&gt;Node14 -->
<g id="edge15" class="edge"><title>Node15&#45;&gt;Node14</title>
<path fill="none" stroke="midnightblue" d="M186.236,-15C209.008,-15 233.086,-15 254.89,-15"/>
<polygon fill="midnightblue" stroke="midnightblue" points="186.224,-11.5001 176.224,-15 186.224,-18.5001 186.224,-11.5001"/>
</g>
</g>
</svg>
