<?xml version="1.0" encoding="UTF-8" standalone="no"?>
<!DOCTYPE svg PUBLIC "-//W3C//DTD SVG 1.1//EN"
 "http://www.w3.org/Graphics/SVG/1.1/DTD/svg11.dtd">
<!-- Generated by graphviz version 2.36.0 (20140111.2315)
 -->
<!-- Title: authoring.view.icons.LevelIcon Pages: 1 -->
<!--zoomable 300 -->
<svg id="main" version="1.1" xmlns="http://www.w3.org/2000/svg" xmlns:xlink="http://www.w3.org/1999/xlink" xml:space="preserve" onload="init(evt)">
<style type="text/css"><![CDATA[
.edge:hover path { stroke: red; }
.edge:hover polygon { stroke: red; fill: red; }
]]></style>
<script type="text/javascript"><![CDATA[
var edges = document.getElementsByTagName('g');
if (edges && edges.length) {
  for (var i=0;i<edges.length;i++) {
    if (edges[i].id.substr(0,4)=='edge') {
      edges[i].setAttribute('class','edge');
    }
  }
}
]]></script>
        <defs>
                <circle id="rim" cx="0" cy="0" r="7"/>
                <circle id="rim2" cx="0" cy="0" r="3.5"/>
                <g id="zoomPlus">
                        <use xlink:href="#rim" fill="#404040">
                                <set attributeName="fill" to="#808080" begin="zoomplus.mouseover" end="zoomplus.mouseout"/>
                        </use>
                        <path d="M-4,0h8M0,-4v8" fill="none" stroke="white" stroke-width="1.5" pointer-events="none"/>
                </g>
                <g id="zoomMin">
                        <use xlink:href="#rim" fill="#404040">
                                <set attributeName="fill" to="#808080" begin="zoomminus.mouseover" end="zoomminus.mouseout"/>
                        </use>
                        <path d="M-4,0h8" fill="none" stroke="white" stroke-width="1.5" pointer-events="none"/>
                </g>
                <g id="dirArrow">
                        <path fill="none" stroke="white" stroke-width="1.5" d="M0,-3.0v7 M-2.5,-0.5L0,-3.0L2.5,-0.5"/>
                </g>
               <g id="resetDef">
                       <use xlink:href="#rim2" fill="#404040">
                               <set attributeName="fill" to="#808080" begin="reset.mouseover" end="reset.mouseout"/>
                       </use>
               </g>
        </defs>

<script type="text/javascript">
var viewWidth = 970;
var viewHeight = 300;
var sectionId = 'dynsection-1';
</script>
<script xlink:href="../../svgpan.js"/>
<svg id="graph" class="graph">
<g id="viewport">
<title>authoring.view.icons.LevelIcon</title>
<polygon fill="white" stroke="none" points="-4,4 -4,-296 966,-296 966,4 -4,4"/>
<!-- Node1 -->
<g id="node1" class="node"><title>Node1</title>
<polygon fill="#bfbfbf" stroke="black" points="802,-203.5 802,-222.5 962,-222.5 962,-203.5 802,-203.5"/>
<text text-anchor="middle" x="882" y="-210.5" font-family="Helvetica,sans-Serif" font-size="10.00">authoring.view.icons.LevelIcon</text>
</g>
<!-- Node2 -->
<g id="node2" class="node"><title>Node2</title>
<g id="a_node2"><a xlink:href="../../dd/db4/classauthoring_1_1view_1_1icons_1_1_base_icon.html" target="_top" xlink:title="authoring.view.icons.BaseIcon">
<polygon fill="white" stroke="black" points="562.5,-242.5 562.5,-261.5 721.5,-261.5 721.5,-242.5 562.5,-242.5"/>
<text text-anchor="middle" x="642" y="-249.5" font-family="Helvetica,sans-Serif" font-size="10.00">authoring.view.icons.BaseIcon</text>
</a>
</g>
</g>
<!-- Node2&#45;&gt;Node1 -->
<g id="edge1" class="edge"><title>Node2&#45;&gt;Node1</title>
<path fill="none" stroke="midnightblue" d="M711.443,-240.785C746.733,-235.002 789.308,-228.025 822.968,-222.509"/>
<polygon fill="midnightblue" stroke="midnightblue" points="710.524,-237.388 701.221,-242.46 711.656,-244.296 710.524,-237.388"/>
</g>
<!-- Node3 -->
<g id="node3" class="node"><title>Node3</title>
<polygon fill="white" stroke="#bfbfbf" points="304.5,-272.5 304.5,-291.5 345.5,-291.5 345.5,-272.5 304.5,-272.5"/>
<text text-anchor="middle" x="325" y="-279.5" font-family="Helvetica,sans-Serif" font-size="10.00">VBox</text>
</g>
<!-- Node3&#45;&gt;Node2 -->
<g id="edge2" class="edge"><title>Node3&#45;&gt;Node2</title>
<path fill="none" stroke="midnightblue" d="M355.802,-279.162C402.718,-274.694 495.345,-265.872 562.334,-259.492"/>
<polygon fill="midnightblue" stroke="midnightblue" points="355.328,-275.691 345.705,-280.123 355.991,-282.659 355.328,-275.691"/>
</g>
<!-- Node4 -->
<g id="node4" class="node"><title>Node4</title>
<g id="a_node4"><a xlink:href="../../d3/d6a/interfaceauthoring_1_1eventhandlers_1_1_game_handler.html" target="_top" xlink:title="authoring.eventhandlers.\lGameHandler\&lt; T extends\l Event \&gt;">
<polygon fill="white" stroke="black" points="254.5,-212.5 254.5,-253.5 395.5,-253.5 395.5,-212.5 254.5,-212.5"/>
<text text-anchor="start" x="262.5" y="-241.5" font-family="Helvetica,sans-Serif" font-size="10.00">authoring.eventhandlers.</text>
<text text-anchor="start" x="262.5" y="-230.5" font-family="Helvetica,sans-Serif" font-size="10.00">GameHandler&lt; T extends</text>
<text text-anchor="middle" x="325" y="-219.5" font-family="Helvetica,sans-Serif" font-size="10.00"> Event &gt;</text>
</a>
</g>
</g>
<!-- Node4&#45;&gt;Node1 -->
<g id="edge13" class="edge"><title>Node4&#45;&gt;Node1</title>
<path fill="none" stroke="#9a32cd" stroke-dasharray="5,2" d="M405.835,-228.914C451.547,-226.666 509.985,-223.946 562,-222 643.664,-218.945 737.123,-216.423 801.674,-214.833"/>
<polygon fill="#9a32cd" stroke="#9a32cd" points="405.505,-225.426 395.69,-229.415 405.85,-232.417 405.505,-225.426"/>
<text text-anchor="middle" x="642" y="-225" font-family="Helvetica,sans-Serif" font-size="10.00"> myLevelEvents</text>
</g>
<!-- Node4&#45;&gt;Node2 -->
<g id="edge3" class="edge"><title>Node4&#45;&gt;Node2</title>
<path fill="none" stroke="#9a32cd" stroke-dasharray="5,2" d="M405.55,-237.798C453.525,-240.692 514.403,-244.364 562.236,-247.249"/>
<polygon fill="#9a32cd" stroke="#9a32cd" points="405.711,-234.302 395.518,-237.193 405.289,-241.289 405.711,-234.302"/>
<text text-anchor="middle" x="485" y="-248" font-family="Helvetica,sans-Serif" font-size="10.00"> myOnClick</text>
</g>
<!-- Node5 -->
<g id="node5" class="node"><title>Node5</title>
<polygon fill="white" stroke="#bfbfbf" points="4,-223.5 4,-242.5 180,-242.5 180,-223.5 4,-223.5"/>
<text text-anchor="middle" x="92" y="-230.5" font-family="Helvetica,sans-Serif" font-size="10.00">javafx::event::EventHandler&lt; T &gt;</text>
</g>
<!-- Node5&#45;&gt;Node4 -->
<g id="edge4" class="edge"><title>Node5&#45;&gt;Node4</title>
<path fill="none" stroke="midnightblue" d="M190.164,-233C211.717,-233 234.145,-233 254.34,-233"/>
<polygon fill="midnightblue" stroke="midnightblue" points="190.002,-229.5 180.002,-233 190.002,-236.5 190.002,-229.5"/>
</g>
<!-- Node6 -->
<g id="node6" class="node"><title>Node6</title>
<g id="a_node6"><a xlink:href="../../df/d84/classengine_1_1level_1_1_level.html" target="_top" xlink:title="engine.level.Level">
<polygon fill="white" stroke="black" points="591.5,-118.5 591.5,-137.5 692.5,-137.5 692.5,-118.5 591.5,-118.5"/>
<text text-anchor="middle" x="642" y="-125.5" font-family="Helvetica,sans-Serif" font-size="10.00">engine.level.Level</text>
</a>
</g>
</g>
<!-- Node6&#45;&gt;Node1 -->
<g id="edge5" class="edge"><title>Node6&#45;&gt;Node1</title>
<path fill="none" stroke="#9a32cd" stroke-dasharray="5,2" d="M679.261,-140.95C727.44,-158.157 811.445,-188.159 854.259,-203.45"/>
<polygon fill="#9a32cd" stroke="#9a32cd" points="680.434,-137.653 669.839,-137.585 678.079,-144.245 680.434,-137.653"/>
<text text-anchor="middle" x="762" y="-182" font-family="Helvetica,sans-Serif" font-size="10.00"> myLevel</text>
</g>
<!-- Node7 -->
<g id="node7" class="node"><title>Node7</title>
<g id="a_node7"><a xlink:href="../../d3/d8d/classdata_1_1_observable.html" target="_top" xlink:title="data.Observable">
<polygon fill="white" stroke="black" points="277.5,-174.5 277.5,-193.5 372.5,-193.5 372.5,-174.5 277.5,-174.5"/>
<text text-anchor="middle" x="325" y="-181.5" font-family="Helvetica,sans-Serif" font-size="10.00">data.Observable</text>
</a>
</g>
</g>
<!-- Node7&#45;&gt;Node6 -->
<g id="edge6" class="edge"><title>Node7&#45;&gt;Node6</title>
<path fill="none" stroke="midnightblue" d="M382.507,-176.75C426.645,-170.773 489.44,-161.579 544,-151 563.879,-147.145 585.849,-142.01 603.845,-137.57"/>
<polygon fill="midnightblue" stroke="midnightblue" points="381.99,-173.288 372.545,-178.088 382.921,-180.226 381.99,-173.288"/>
</g>
<!-- Node8 -->
<g id="node8" class="node"><title>Node8</title>
<polygon fill="white" stroke="#bfbfbf" points="23,-174.5 23,-193.5 161,-193.5 161,-174.5 23,-174.5"/>
<text text-anchor="middle" x="92" y="-181.5" font-family="Helvetica,sans-Serif" font-size="10.00">Vector&lt; data.Observer &gt;</text>
</g>
<!-- Node8&#45;&gt;Node7 -->
<g id="edge7" class="edge"><title>Node8&#45;&gt;Node7</title>
<path fill="none" stroke="#9a32cd" stroke-dasharray="5,2" d="M171.318,-184C206.521,-184 246.882,-184 277.262,-184"/>
<polygon fill="#9a32cd" stroke="#9a32cd" points="171.058,-180.5 161.058,-184 171.058,-187.5 171.058,-180.5"/>
<text text-anchor="middle" x="213" y="-187" font-family="Helvetica,sans-Serif" font-size="10.00"> obs</text>
</g>
<!-- Node9 -->
<g id="node9" class="node"><title>Node9</title>
<g id="a_node9"><a xlink:href="../../dc/df6/interfaceengine_1_1game_object_1_1_identifiable.html" target="_top" xlink:title="engine.gameObject.Identifiable">
<polygon fill="white" stroke="black" points="242.5,-136.5 242.5,-155.5 407.5,-155.5 407.5,-136.5 242.5,-136.5"/>
<text text-anchor="middle" x="325" y="-143.5" font-family="Helvetica,sans-Serif" font-size="10.00">engine.gameObject.Identifiable</text>
</a>
</g>
</g>
<!-- Node9&#45;&gt;Node6 -->
<g id="edge8" class="edge"><title>Node9&#45;&gt;Node6</title>
<path fill="none" stroke="midnightblue" d="M417.578,-140.767C474.24,-137.529 544.791,-133.498 591.275,-130.841"/>
<polygon fill="midnightblue" stroke="midnightblue" points="417.314,-137.276 407.53,-141.341 417.713,-144.265 417.314,-137.276"/>
</g>
<!-- Node10 -->
<g id="node10" class="node"><title>Node10</title>
<g id="a_node10"><a xlink:href="../../d4/dac/classengine_1_1game_object_1_1_identifier.html" target="_top" xlink:title="engine.gameObject.Identifier">
<polygon fill="white" stroke="black" points="247.5,-98.5 247.5,-117.5 402.5,-117.5 402.5,-98.5 247.5,-98.5"/>
<text text-anchor="middle" x="325" y="-105.5" font-family="Helvetica,sans-Serif" font-size="10.00">engine.gameObject.Identifier</text>
</a>
</g>
</g>
<!-- Node10&#45;&gt;Node6 -->
<g id="edge9" class="edge"><title>Node10&#45;&gt;Node6</title>
<path fill="none" stroke="#9a32cd" stroke-dasharray="5,2" d="M412.964,-111.548C452.907,-113.393 500.883,-115.913 544,-119 559.351,-120.099 576.045,-121.554 591.188,-122.973"/>
<polygon fill="#9a32cd" stroke="#9a32cd" points="412.873,-108.04 402.724,-111.081 412.554,-115.033 412.873,-108.04"/>
<text text-anchor="middle" x="485" y="-122" font-family="Helvetica,sans-Serif" font-size="10.00"> myId</text>
</g>
<!-- Node11 -->
<g id="node11" class="node"><title>Node11</title>
<g id="a_node11"><a xlink:href="../../d1/d32/classauthoring_1_1model_1_1collections_1_1_game_objects_collection.html" target="_top" xlink:title="authoring.model.collections.\lGameObjectsCollection">
<polygon fill="white" stroke="black" points="249,-49 249,-79 401,-79 401,-49 249,-49"/>
<text text-anchor="start" x="257" y="-67" font-family="Helvetica,sans-Serif" font-size="10.00">authoring.model.collections.</text>
<text text-anchor="middle" x="325" y="-56" font-family="Helvetica,sans-Serif" font-size="10.00">GameObjectsCollection</text>
</a>
</g>
</g>
<!-- Node11&#45;&gt;Node6 -->
<g id="edge10" class="edge"><title>Node11&#45;&gt;Node6</title>
<path fill="none" stroke="#9a32cd" stroke-dasharray="5,2" d="M411.284,-67.1691C451.967,-70.1531 501.026,-75.912 544,-87 572.679,-94.3997 603.905,-108.853 622.97,-118.469"/>
<polygon fill="#9a32cd" stroke="#9a32cd" points="411.347,-63.6653 401.13,-66.4687 410.865,-70.6487 411.347,-63.6653"/>
<text text-anchor="middle" x="485" y="-101" font-family="Helvetica,sans-Serif" font-size="10.00"> myDefaultGameObjects</text>
<text text-anchor="middle" x="485" y="-90" font-family="Helvetica,sans-Serif" font-size="10.00">myWorkingGameObjects</text>
</g>
<!-- Node12 -->
<g id="node12" class="node"><title>Node12</title>
<g id="a_node12"><a xlink:href="../../d4/d3b/classauthoring_1_1model_1_1collections_1_1_general_collection.html" target="_top" xlink:title="authoring.model.collections.\lGeneralCollection\&lt; GameObject \&gt;">
<polygon fill="white" stroke="black" points="0.5,-49 0.5,-79 183.5,-79 183.5,-49 0.5,-49"/>
<text text-anchor="start" x="8.5" y="-67" font-family="Helvetica,sans-Serif" font-size="10.00">authoring.model.collections.</text>
<text text-anchor="middle" x="92" y="-56" font-family="Helvetica,sans-Serif" font-size="10.00">GeneralCollection&lt; GameObject &gt;</text>
</a>
</g>
</g>
<!-- Node12&#45;&gt;Node11 -->
<g id="edge11" class="edge"><title>Node12&#45;&gt;Node11</title>
<path fill="none" stroke="midnightblue" d="M193.843,-64C212.335,-64 231.337,-64 248.91,-64"/>
<polygon fill="midnightblue" stroke="midnightblue" points="193.634,-60.5001 183.634,-64 193.634,-67.5001 193.634,-60.5001"/>
</g>
<!-- Node13 -->
<g id="node13" class="node"><title>Node13</title>
<polygon fill="white" stroke="#bfbfbf" points="254.5,-0 254.5,-30 395.5,-30 395.5,-0 254.5,-0"/>
<text text-anchor="start" x="262.5" y="-18" font-family="Helvetica,sans-Serif" font-size="10.00">List&lt; engine.gameObject.</text>
<text text-anchor="middle" x="325" y="-7" font-family="Helvetica,sans-Serif" font-size="10.00">Identifier &gt;</text>
</g>
<!-- Node13&#45;&gt;Node6 -->
<g id="edge12" class="edge"><title>Node13&#45;&gt;Node6</title>
<path fill="none" stroke="#9a32cd" stroke-dasharray="5,2" d="M405.648,-14.1387C448.326,-16.3653 500.848,-23.5402 544,-43 583.394,-60.7652 618.522,-100.056 633.425,-118.318"/>
<polygon fill="#9a32cd" stroke="#9a32cd" points="405.728,-10.6389 395.583,-13.6948 405.419,-17.6321 405.728,-10.6389"/>
<text text-anchor="middle" x="485" y="-57" font-family="Helvetica,sans-Serif" font-size="10.00"> myConditionIdList</text>
<text text-anchor="middle" x="485" y="-46" font-family="Helvetica,sans-Serif" font-size="10.00">myGameObjectIdList</text>
</g>
</g>
</svg>
        <g id="navigator" transform="translate(0 0)" fill="#404254">
                <rect fill="#f2f5e9" fill-opacity="0.5" stroke="#606060" stroke-width=".5" x="0" y="0" width="60" height="60"/>
                <use id="zoomplus" xlink:href="#zoomPlus" x="17" y="9" onmousedown="handleZoom(evt,'in')"/>
                <use id="zoomminus" xlink:href="#zoomMin" x="42" y="9" onmousedown="handleZoom(evt,'out')"/>
                <use id="reset" xlink:href="#resetDef" x="30" y="36" onmousedown="handleReset()"/>
                <g id="arrowUp" xlink:href="#dirArrow" transform="translate(30 24)" onmousedown="handlePan(0,-1)">
                  <use xlink:href="#rim" fill="#404040">
                        <set attributeName="fill" to="#808080" begin="arrowUp.mouseover" end="arrowUp.mouseout"/>
                  </use>
                  <path fill="none" stroke="white" stroke-width="1.5" d="M0,-3.0v7 M-2.5,-0.5L0,-3.0L2.5,-0.5"/>
                </g>
                <g id="arrowRight" xlink:href="#dirArrow" transform="rotate(90) translate(36 -43)" onmousedown="handlePan(1,0)">
                  <use xlink:href="#rim" fill="#404040">
                        <set attributeName="fill" to="#808080" begin="arrowRight.mouseover" end="arrowRight.mouseout"/>
                  </use>
                  <path fill="none" stroke="white" stroke-width="1.5" d="M0,-3.0v7 M-2.5,-0.5L0,-3.0L2.5,-0.5"/>
                </g>
                <g id="arrowDown" xlink:href="#dirArrow" transform="rotate(180) translate(-30 -48)" onmousedown="handlePan(0,1)">
                  <use xlink:href="#rim" fill="#404040">
                        <set attributeName="fill" to="#808080" begin="arrowDown.mouseover" end="arrowDown.mouseout"/>
                  </use>
                  <path fill="none" stroke="white" stroke-width="1.5" d="M0,-3.0v7 M-2.5,-0.5L0,-3.0L2.5,-0.5"/>
                </g>
                <g id="arrowLeft" xlink:href="#dirArrow" transform="rotate(270) translate(-36 17)" onmousedown="handlePan(-1,0)">
                  <use xlink:href="#rim" fill="#404040">
                        <set attributeName="fill" to="#808080" begin="arrowLeft.mouseover" end="arrowLeft.mouseout"/>
                  </use>
                  <path fill="none" stroke="white" stroke-width="1.5" d="M0,-3.0v7 M-2.5,-0.5L0,-3.0L2.5,-0.5"/>
                </g>
        </g>
        <svg viewBox="0 0 15 15" width="100%" height="30px" preserveAspectRatio="xMaxYMin meet">
         <g id="arrow_out" transform="scale(0.3 0.3)">
          <a xlink:href="classauthoring_1_1view_1_1icons_1_1_level_icon__coll__graph_org.svg" target="_base">
           <rect id="button" ry="5" rx="5" y="6" x="6" height="38" width="38"
                fill="#f2f5e9" fill-opacity="0.5" stroke="#606060" stroke-width="1.0"/>
           <path id="arrow"
             d="M 11.500037,31.436501 C 11.940474,20.09759 22.043105,11.32322 32.158766,21.979434 L 37.068811,17.246167 C 37.068811,17.246167 37.088388,32 37.088388,32 L 22.160133,31.978069 C 22.160133,31.978069 26.997745,27.140456 26.997745,27.140456 C 18.528582,18.264221 13.291696,25.230495 11.500037,31.436501 z"
             style="fill:#404040;"/>
          </a>
         </g>
        </svg>
</svg>
