<?xml version="1.0" encoding="UTF-8" standalone="no"?>
<!DOCTYPE svg PUBLIC "-//W3C//DTD SVG 1.1//EN"
 "http://www.w3.org/Graphics/SVG/1.1/DTD/svg11.dtd">
<!-- Generated by graphviz version 2.36.0 (20140111.2315)
 -->
<!-- Title: engine.GameManager Pages: 1 -->
<!--zoomable 578 -->
<svg id="main" version="1.1" xmlns="http://www.w3.org/2000/svg" xmlns:xlink="http://www.w3.org/1999/xlink" xml:space="preserve" onload="init(evt)">
<style type="text/css"><![CDATA[
.edge:hover path { stroke: red; }
.edge:hover polygon { stroke: red; fill: red; }
]]></style>
<script type="text/javascript"><![CDATA[
var edges = document.getElementsByTagName('g');
if (edges && edges.length) {
  for (var i=0;i<edges.length;i++) {
    if (edges[i].id.substr(0,4)=='edge') {
      edges[i].setAttribute('class','edge');
    }
  }
}
]]></script>
        <defs>
                <circle id="rim" cx="0" cy="0" r="7"/>
                <circle id="rim2" cx="0" cy="0" r="3.5"/>
                <g id="zoomPlus">
                        <use xlink:href="#rim" fill="#404040">
                                <set attributeName="fill" to="#808080" begin="zoomplus.mouseover" end="zoomplus.mouseout"/>
                        </use>
                        <path d="M-4,0h8M0,-4v8" fill="none" stroke="white" stroke-width="1.5" pointer-events="none"/>
                </g>
                <g id="zoomMin">
                        <use xlink:href="#rim" fill="#404040">
                                <set attributeName="fill" to="#808080" begin="zoomminus.mouseover" end="zoomminus.mouseout"/>
                        </use>
                        <path d="M-4,0h8" fill="none" stroke="white" stroke-width="1.5" pointer-events="none"/>
                </g>
                <g id="dirArrow">
                        <path fill="none" stroke="white" stroke-width="1.5" d="M0,-3.0v7 M-2.5,-0.5L0,-3.0L2.5,-0.5"/>
                </g>
               <g id="resetDef">
                       <use xlink:href="#rim2" fill="#404040">
                               <set attributeName="fill" to="#808080" begin="reset.mouseover" end="reset.mouseout"/>
                       </use>
               </g>
        </defs>

<script type="text/javascript">
var viewWidth = 1548;
var viewHeight = 578;
var sectionId = 'dynsection-0';
</script>
<script xlink:href="../../svgpan.js"/>
<svg id="graph" class="graph">
<g id="viewport">
<title>engine.GameManager</title>
<polygon fill="white" stroke="none" points="-4,4 -4,-574.098 1544,-574.098 1544,4 -4,4"/>
<!-- Node1 -->
<g id="node1" class="node"><title>Node1</title>
<polygon fill="#bfbfbf" stroke="black" points="1416.5,-279.598 1416.5,-298.598 1539.5,-298.598 1539.5,-279.598 1416.5,-279.598"/>
<text text-anchor="middle" x="1478" y="-286.598" font-family="Helvetica,sans-Serif" font-size="10.00">engine.GameManager</text>
</g>
<!-- Node2 -->
<g id="node2" class="node"><title>Node2</title>
<g id="a_node2"><a xlink:href="../../df/de5/classauthoring_1_1model_1_1collections_1_1_levels_collection.html" target="_top" xlink:title="authoring.model.collections.\lLevelsCollection">
<polygon fill="white" stroke="black" points="570,-141.098 570,-171.098 722,-171.098 722,-141.098 570,-141.098"/>
<text text-anchor="start" x="578" y="-159.098" font-family="Helvetica,sans-Serif" font-size="10.00">authoring.model.collections.</text>
<text text-anchor="middle" x="646" y="-148.098" font-family="Helvetica,sans-Serif" font-size="10.00">LevelsCollection</text>
</a>
</g>
</g>
<!-- Node2&#45;&gt;Node1 -->
<g id="edge1" class="edge"><title>Node2&#45;&gt;Node1</title>
<path fill="none" stroke="#9a32cd" stroke-dasharray="5,2" d="M709.066,-137.984C716.152,-135.744 723.25,-133.423 730,-131.098 738.116,-128.302 739.564,-125.68 748,-124.098 790.809,-116.067 802.623,-120.161 846,-124.098 1047.59,-142.395 1098.46,-153.782 1294,-206.098 1341.39,-218.777 1353.5,-222.443 1398,-243.098 1421.32,-253.922 1446.76,-269.467 1462.3,-279.424"/>
<polygon fill="#9a32cd" stroke="#9a32cd" points="707.952,-134.665 699.445,-140.981 710.034,-141.349 707.952,-134.665"/>
<text text-anchor="middle" x="1074" y="-164.098" font-family="Helvetica,sans-Serif" font-size="10.00"> myLevels</text>
</g>
<!-- Node4 -->
<g id="node4" class="node"><title>Node4</title>
<g id="a_node4"><a xlink:href="../../df/d67/classengine_1_1level_1_1_level_manager.html" target="_top" xlink:title="engine.level.LevelManager">
<polygon fill="white" stroke="black" points="1141.5,-328.598 1141.5,-347.598 1284.5,-347.598 1284.5,-328.598 1141.5,-328.598"/>
<text text-anchor="middle" x="1213" y="-335.598" font-family="Helvetica,sans-Serif" font-size="10.00">engine.level.LevelManager</text>
</a>
</g>
</g>
<!-- Node2&#45;&gt;Node4 -->
<g id="edge5" class="edge"><title>Node2&#45;&gt;Node4</title>
<path fill="none" stroke="#9a32cd" stroke-dasharray="5,2" d="M725.296,-176.96C726.938,-178.257 728.51,-179.635 730,-181.098 748.656,-199.412 727.553,-220.808 748,-237.098 794.752,-274.343 957.977,-245.736 1016,-260.098 1070.33,-273.545 1079.9,-288.665 1132,-309.098 1149.33,-315.893 1168.98,-323.025 1184.47,-328.515"/>
<polygon fill="#9a32cd" stroke="#9a32cd" points="726.832,-173.776 716.576,-171.118 722.936,-179.591 726.832,-173.776"/>
<text text-anchor="middle" x="940" y="-263.098" font-family="Helvetica,sans-Serif" font-size="10.00"> myLevels</text>
</g>
<!-- Node19 -->
<g id="node19" class="node"><title>Node19</title>
<g id="a_node19"><a xlink:href="../../da/d90/classengine_1_1sound_1_1_sound_utility.html" target="_top" xlink:title="engine.sound.SoundUtility">
<polygon fill="white" stroke="black" points="869,-182.598 869,-201.598 1011,-201.598 1011,-182.598 869,-182.598"/>
<text text-anchor="middle" x="940" y="-189.598" font-family="Helvetica,sans-Serif" font-size="10.00">engine.sound.SoundUtility</text>
</a>
</g>
</g>
<!-- Node2&#45;&gt;Node19 -->
<g id="edge22" class="edge"><title>Node2&#45;&gt;Node19</title>
<path fill="none" stroke="#9a32cd" stroke-dasharray="5,2" d="M732.483,-164.082C767.692,-167.64 808.86,-172.147 846,-177.098 857.996,-178.697 870.828,-180.625 883.01,-182.558"/>
<polygon fill="#9a32cd" stroke="#9a32cd" points="732.539,-160.57 722.24,-163.056 731.842,-167.535 732.539,-160.57"/>
<text text-anchor="middle" x="797" y="-180.098" font-family="Helvetica,sans-Serif" font-size="10.00"> myLevels</text>
</g>
<!-- Node3 -->
<g id="node3" class="node"><title>Node3</title>
<g id="a_node3"><a xlink:href="../../d4/d3b/classauthoring_1_1model_1_1collections_1_1_general_collection.html" target="_top" xlink:title="authoring.model.collections.\lGeneralCollection\&lt; Level \&gt;">
<polygon fill="white" stroke="black" points="249,-141.098 249,-171.098 401,-171.098 401,-141.098 249,-141.098"/>
<text text-anchor="start" x="257" y="-159.098" font-family="Helvetica,sans-Serif" font-size="10.00">authoring.model.collections.</text>
<text text-anchor="middle" x="325" y="-148.098" font-family="Helvetica,sans-Serif" font-size="10.00">GeneralCollection&lt; Level &gt;</text>
</a>
</g>
</g>
<!-- Node3&#45;&gt;Node2 -->
<g id="edge2" class="edge"><title>Node3&#45;&gt;Node2</title>
<path fill="none" stroke="midnightblue" d="M411.216,-156.098C460.588,-156.098 522.186,-156.098 569.758,-156.098"/>
<polygon fill="midnightblue" stroke="midnightblue" points="411.195,-152.598 401.195,-156.098 411.195,-159.598 411.195,-152.598"/>
</g>
<!-- Node4&#45;&gt;Node1 -->
<g id="edge3" class="edge"><title>Node4&#45;&gt;Node1</title>
<path fill="none" stroke="#9a32cd" stroke-dasharray="5,2" d="M1275.09,-326.715C1320.78,-318.204 1382.53,-306.698 1425.67,-298.66"/>
<polygon fill="#9a32cd" stroke="#9a32cd" points="1274.21,-323.319 1265.02,-328.592 1275.49,-330.201 1274.21,-323.319"/>
<text text-anchor="middle" x="1355" y="-323.098" font-family="Helvetica,sans-Serif" font-size="10.00"> myLevelManager</text>
</g>
<!-- Node5 -->
<g id="node5" class="node"><title>Node5</title>
<polygon fill="white" stroke="#bfbfbf" points="890,-465.598 890,-484.598 990,-484.598 990,-465.598 890,-465.598"/>
<text text-anchor="middle" x="940" y="-472.598" font-family="Helvetica,sans-Serif" font-size="10.00">Iterable&lt; Level &gt;</text>
</g>
<!-- Node5&#45;&gt;Node4 -->
<g id="edge4" class="edge"><title>Node5&#45;&gt;Node4</title>
<path fill="none" stroke="midnightblue" d="M1000.32,-471.457C1035.19,-467.258 1079.14,-458.272 1114,-439.098 1156.39,-415.785 1191.83,-368.115 1205.72,-347.712"/>
<polygon fill="midnightblue" stroke="midnightblue" points="999.831,-467.99 990.276,-472.566 1000.6,-474.948 999.831,-467.99"/>
</g>
<!-- Node6 -->
<g id="node6" class="node"><title>Node6</title>
<g id="a_node6"><a xlink:href="../../df/de5/classengine_1_1render_1_1_game_object_renderer.html" target="_top" xlink:title="engine.render.GameObject\lRenderer">
<polygon fill="white" stroke="black" points="867,-378.098 867,-408.098 1013,-408.098 1013,-378.098 867,-378.098"/>
<text text-anchor="start" x="875" y="-396.098" font-family="Helvetica,sans-Serif" font-size="10.00">engine.render.GameObject</text>
<text text-anchor="middle" x="940" y="-385.098" font-family="Helvetica,sans-Serif" font-size="10.00">Renderer</text>
</a>
</g>
</g>
<!-- Node6&#45;&gt;Node1 -->
<g id="edge29" class="edge"><title>Node6&#45;&gt;Node1</title>
<path fill="none" stroke="#9a32cd" stroke-dasharray="5,2" d="M1023.14,-395.744C1051.94,-395.846 1084.46,-395.029 1114,-392.098 1242.11,-379.384 1277.87,-381.397 1398,-335.098 1422.58,-325.623 1448.5,-309.094 1463.69,-298.643"/>
<polygon fill="#9a32cd" stroke="#9a32cd" points="1023.15,-392.244 1013.12,-395.672 1023.1,-399.244 1023.15,-392.244"/>
<text text-anchor="middle" x="1213" y="-394.098" font-family="Helvetica,sans-Serif" font-size="10.00"> myGameObjectRenderer</text>
</g>
<!-- Node6&#45;&gt;Node4 -->
<g id="edge6" class="edge"><title>Node6&#45;&gt;Node4</title>
<path fill="none" stroke="#9a32cd" stroke-dasharray="5,2" d="M1023.18,-379.46C1051.98,-374.393 1084.49,-368.348 1114,-362.098 1134.39,-357.778 1157,-352.288 1175.36,-347.65"/>
<polygon fill="#9a32cd" stroke="#9a32cd" points="1022.41,-376.041 1013.16,-381.21 1023.62,-382.937 1022.41,-376.041"/>
<text text-anchor="middle" x="1074" y="-380.098" font-family="Helvetica,sans-Serif" font-size="10.00"> myRenderer</text>
</g>
<!-- Node7 -->
<g id="node7" class="node"><title>Node7</title>
<polygon fill="white" stroke="#bfbfbf" points="564,-383.098 564,-413.098 728,-413.098 728,-383.098 564,-383.098"/>
<text text-anchor="start" x="572" y="-401.098" font-family="Helvetica,sans-Serif" font-size="10.00">Map&lt; Identifier, engine.render.</text>
<text text-anchor="middle" x="646" y="-390.098" font-family="Helvetica,sans-Serif" font-size="10.00">RenderedNode &gt;</text>
</g>
<!-- Node7&#45;&gt;Node6 -->
<g id="edge7" class="edge"><title>Node7&#45;&gt;Node6</title>
<path fill="none" stroke="#9a32cd" stroke-dasharray="5,2" d="M738.406,-396.532C779.704,-395.825 827.81,-395.002 866.559,-394.338"/>
<polygon fill="#9a32cd" stroke="#9a32cd" points="738.277,-393.034 728.338,-396.705 738.397,-400.033 738.277,-393.034"/>
<text text-anchor="middle" x="797" y="-400.098" font-family="Helvetica,sans-Serif" font-size="10.00"> myRenderedNodes</text>
</g>
<!-- Node8 -->
<g id="node8" class="node"><title>Node8</title>
<g id="a_node8"><a xlink:href="../../df/d84/classengine_1_1level_1_1_level.html" target="_top" xlink:title="engine.level.Level">
<polygon fill="white" stroke="black" points="595.5,-344.598 595.5,-363.598 696.5,-363.598 696.5,-344.598 595.5,-344.598"/>
<text text-anchor="middle" x="646" y="-351.598" font-family="Helvetica,sans-Serif" font-size="10.00">engine.level.Level</text>
</a>
</g>
</g>
<!-- Node8&#45;&gt;Node4 -->
<g id="edge20" class="edge"><title>Node8&#45;&gt;Node4</title>
<path fill="none" stroke="#9a32cd" stroke-dasharray="5,2" d="M706.758,-352.405C811.805,-349.431 1029.05,-343.279 1141.35,-340.098"/>
<polygon fill="#9a32cd" stroke="#9a32cd" points="706.542,-348.91 696.645,-352.692 706.74,-355.907 706.542,-348.91"/>
<text text-anchor="middle" x="940" y="-351.098" font-family="Helvetica,sans-Serif" font-size="10.00"> myCurrentLevel</text>
</g>
<!-- Node8&#45;&gt;Node6 -->
<g id="edge8" class="edge"><title>Node8&#45;&gt;Node6</title>
<path fill="none" stroke="#9a32cd" stroke-dasharray="5,2" d="M706.905,-361.782C746.417,-366.886 799.308,-373.784 846,-380.098 852.785,-381.015 859.848,-381.981 866.913,-382.956"/>
<polygon fill="#9a32cd" stroke="#9a32cd" points="707.269,-358.3 696.904,-360.492 706.374,-365.243 707.269,-358.3"/>
<text text-anchor="middle" x="797" y="-383.098" font-family="Helvetica,sans-Serif" font-size="10.00"> myCurrentLevel</text>
</g>
<!-- Node9 -->
<g id="node9" class="node"><title>Node9</title>
<g id="a_node9"><a xlink:href="../../d3/d8d/classdata_1_1_observable.html" target="_top" xlink:title="data.Observable">
<polygon fill="white" stroke="black" points="277.5,-344.598 277.5,-363.598 372.5,-363.598 372.5,-344.598 277.5,-344.598"/>
<text text-anchor="middle" x="325" y="-351.598" font-family="Helvetica,sans-Serif" font-size="10.00">data.Observable</text>
</a>
</g>
</g>
<!-- Node9&#45;&gt;Node8 -->
<g id="edge9" class="edge"><title>Node9&#45;&gt;Node8</title>
<path fill="none" stroke="midnightblue" d="M382.85,-354.098C443.23,-354.098 537.733,-354.098 595.257,-354.098"/>
<polygon fill="midnightblue" stroke="midnightblue" points="382.727,-350.598 372.727,-354.098 382.727,-357.598 382.727,-350.598"/>
</g>
<!-- Node10 -->
<g id="node10" class="node"><title>Node10</title>
<polygon fill="white" stroke="#bfbfbf" points="23,-344.598 23,-363.598 161,-363.598 161,-344.598 23,-344.598"/>
<text text-anchor="middle" x="92" y="-351.598" font-family="Helvetica,sans-Serif" font-size="10.00">Vector&lt; data.Observer &gt;</text>
</g>
<!-- Node10&#45;&gt;Node9 -->
<g id="edge10" class="edge"><title>Node10&#45;&gt;Node9</title>
<path fill="none" stroke="#9a32cd" stroke-dasharray="5,2" d="M171.318,-354.098C206.521,-354.098 246.882,-354.098 277.262,-354.098"/>
<polygon fill="#9a32cd" stroke="#9a32cd" points="171.058,-350.598 161.058,-354.098 171.058,-357.598 171.058,-350.598"/>
<text text-anchor="middle" x="213" y="-357.098" font-family="Helvetica,sans-Serif" font-size="10.00"> obs</text>
</g>
<!-- Node11 -->
<g id="node11" class="node"><title>Node11</title>
<g id="a_node11"><a xlink:href="../../dc/df6/interfaceengine_1_1game_object_1_1_identifiable.html" target="_top" xlink:title="engine.gameObject.Identifiable">
<polygon fill="white" stroke="black" points="242.5,-306.598 242.5,-325.598 407.5,-325.598 407.5,-306.598 242.5,-306.598"/>
<text text-anchor="middle" x="325" y="-313.598" font-family="Helvetica,sans-Serif" font-size="10.00">engine.gameObject.Identifiable</text>
</a>
</g>
</g>
<!-- Node11&#45;&gt;Node8 -->
<g id="edge11" class="edge"><title>Node11&#45;&gt;Node8</title>
<path fill="none" stroke="midnightblue" d="M416.365,-326.862C474.391,-333.774 547.553,-342.49 595.267,-348.173"/>
<polygon fill="midnightblue" stroke="midnightblue" points="416.429,-323.345 406.085,-325.638 415.601,-330.296 416.429,-323.345"/>
</g>
<!-- Node12 -->
<g id="node12" class="node"><title>Node12</title>
<g id="a_node12"><a xlink:href="../../d4/dac/classengine_1_1game_object_1_1_identifier.html" target="_top" xlink:title="engine.gameObject.Identifier">
<polygon fill="white" stroke="black" points="247.5,-268.598 247.5,-287.598 402.5,-287.598 402.5,-268.598 247.5,-268.598"/>
<text text-anchor="middle" x="325" y="-275.598" font-family="Helvetica,sans-Serif" font-size="10.00">engine.gameObject.Identifier</text>
</a>
</g>
</g>
<!-- Node12&#45;&gt;Node8 -->
<g id="edge12" class="edge"><title>Node12&#45;&gt;Node8</title>
<path fill="none" stroke="#9a32cd" stroke-dasharray="5,2" d="M412.613,-288.072C452.983,-293.819 501.402,-302.291 544,-314.098 572.716,-322.057 604.459,-335.428 624.553,-344.499"/>
<polygon fill="#9a32cd" stroke="#9a32cd" points="412.919,-284.581 402.532,-286.67 411.954,-291.514 412.919,-284.581"/>
<text text-anchor="middle" x="485" y="-317.098" font-family="Helvetica,sans-Serif" font-size="10.00"> myId</text>
</g>
<!-- Node13 -->
<g id="node13" class="node"><title>Node13</title>
<polygon fill="white" stroke="#bfbfbf" points="64,-268.598 64,-287.598 120,-287.598 120,-268.598 64,-268.598"/>
<text text-anchor="middle" x="92" y="-275.598" font-family="Helvetica,sans-Serif" font-size="10.00">Random</text>
</g>
<!-- Node13&#45;&gt;Node12 -->
<g id="edge13" class="edge"><title>Node13&#45;&gt;Node12</title>
<path fill="none" stroke="#9a32cd" stroke-dasharray="5,2" d="M130.511,-278.098C162.046,-278.098 208.136,-278.098 247.423,-278.098"/>
<polygon fill="#9a32cd" stroke="#9a32cd" points="130.406,-274.598 120.406,-278.098 130.406,-281.598 130.406,-274.598"/>
<text text-anchor="middle" x="213" y="-281.098" font-family="Helvetica,sans-Serif" font-size="10.00"> r</text>
</g>
<!-- Node14 -->
<g id="node14" class="node"><title>Node14</title>
<g id="a_node14"><a xlink:href="../../d1/d32/classauthoring_1_1model_1_1collections_1_1_game_objects_collection.html" target="_top" xlink:title="authoring.model.collections.\lGameObjectsCollection">
<polygon fill="white" stroke="black" points="249,-465.098 249,-495.098 401,-495.098 401,-465.098 249,-465.098"/>
<text text-anchor="start" x="257" y="-483.098" font-family="Helvetica,sans-Serif" font-size="10.00">authoring.model.collections.</text>
<text text-anchor="middle" x="325" y="-472.098" font-family="Helvetica,sans-Serif" font-size="10.00">GameObjectsCollection</text>
</a>
</g>
</g>
<!-- Node14&#45;&gt;Node1 -->
<g id="edge30" class="edge"><title>Node14&#45;&gt;Node1</title>
<path fill="none" stroke="#9a32cd" stroke-dasharray="5,2" d="M371.474,-498.767C432.579,-522.126 545.079,-559.098 645,-559.098 645,-559.098 645,-559.098 1214,-559.098 1362.54,-559.098 1454.44,-346.805 1473.36,-298.707"/>
<polygon fill="#9a32cd" stroke="#9a32cd" points="372.707,-495.491 362.118,-495.143 370.178,-502.019 372.707,-495.491"/>
<text text-anchor="middle" x="940" y="-562.098" font-family="Helvetica,sans-Serif" font-size="10.00"> myGameObjects</text>
</g>
<!-- Node14&#45;&gt;Node4 -->
<g id="edge19" class="edge"><title>Node14&#45;&gt;Node4</title>
<path fill="none" stroke="#9a32cd" stroke-dasharray="5,2" d="M411.01,-478.707C492.897,-476.752 620.174,-472.097 730,-461.098 857.966,-448.281 889.988,-442.801 1016,-417.098 1060.04,-408.114 1077.32,-418.079 1114,-392.098 1125.77,-383.761 1120.55,-373.873 1132,-365.098 1142.12,-357.338 1154.6,-351.734 1166.67,-347.717"/>
<polygon fill="#9a32cd" stroke="#9a32cd" points="410.922,-475.208 401.005,-478.938 411.083,-482.206 410.922,-475.208"/>
<text text-anchor="middle" x="797" y="-473.098" font-family="Helvetica,sans-Serif" font-size="10.00"> myTemplateObjects</text>
<text text-anchor="middle" x="797" y="-462.098" font-family="Helvetica,sans-Serif" font-size="10.00">myGameObjects</text>
</g>
<!-- Node14&#45;&gt;Node8 -->
<g id="edge14" class="edge"><title>Node14&#45;&gt;Node8</title>
<path fill="none" stroke="#9a32cd" stroke-dasharray="5,2" d="M375.844,-461.433C391.793,-455.655 409.572,-449.415 426,-444.098 477.926,-427.29 502.231,-445.228 544,-410.098 557.995,-398.327 547.684,-384.476 562,-373.098 571.49,-365.556 583.416,-360.896 595.244,-358.046"/>
<polygon fill="#9a32cd" stroke="#9a32cd" points="374.375,-458.244 366.18,-464.959 376.773,-464.82 374.375,-458.244"/>
<text text-anchor="middle" x="485" y="-458.098" font-family="Helvetica,sans-Serif" font-size="10.00"> myDefaultGameObjects</text>
<text text-anchor="middle" x="485" y="-447.098" font-family="Helvetica,sans-Serif" font-size="10.00">myWorkingGameObjects</text>
</g>
<!-- Node15 -->
<g id="node15" class="node"><title>Node15</title>
<g id="a_node15"><a xlink:href="../../d4/d3b/classauthoring_1_1model_1_1collections_1_1_general_collection.html" target="_top" xlink:title="authoring.model.collections.\lGeneralCollection\&lt; GameObject \&gt;">
<polygon fill="white" stroke="black" points="0.5,-465.098 0.5,-495.098 183.5,-495.098 183.5,-465.098 0.5,-465.098"/>
<text text-anchor="start" x="8.5" y="-483.098" font-family="Helvetica,sans-Serif" font-size="10.00">authoring.model.collections.</text>
<text text-anchor="middle" x="92" y="-472.098" font-family="Helvetica,sans-Serif" font-size="10.00">GeneralCollection&lt; GameObject &gt;</text>
</a>
</g>
</g>
<!-- Node15&#45;&gt;Node14 -->
<g id="edge15" class="edge"><title>Node15&#45;&gt;Node14</title>
<path fill="none" stroke="midnightblue" d="M193.843,-480.098C212.335,-480.098 231.337,-480.098 248.91,-480.098"/>
<polygon fill="midnightblue" stroke="midnightblue" points="193.634,-476.598 183.634,-480.098 193.634,-483.598 193.634,-476.598"/>
</g>
<!-- Node16 -->
<g id="node16" class="node"><title>Node16</title>
<polygon fill="white" stroke="#bfbfbf" points="254.5,-383.098 254.5,-413.098 395.5,-413.098 395.5,-383.098 254.5,-383.098"/>
<text text-anchor="start" x="262.5" y="-401.098" font-family="Helvetica,sans-Serif" font-size="10.00">List&lt; engine.gameObject.</text>
<text text-anchor="middle" x="325" y="-390.098" font-family="Helvetica,sans-Serif" font-size="10.00">Identifier &gt;</text>
</g>
<!-- Node16&#45;&gt;Node8 -->
<g id="edge16" class="edge"><title>Node16&#45;&gt;Node8</title>
<path fill="none" stroke="#9a32cd" stroke-dasharray="5,2" d="M405.707,-387.148C446.983,-381.473 498.2,-374.423 544,-368.098 560.747,-365.785 579.054,-363.249 595.428,-360.979"/>
<polygon fill="#9a32cd" stroke="#9a32cd" points="405.139,-383.693 395.709,-388.522 406.092,-390.628 405.139,-383.693"/>
<text text-anchor="middle" x="485" y="-398.098" font-family="Helvetica,sans-Serif" font-size="10.00"> myConditionIdList</text>
<text text-anchor="middle" x="485" y="-387.098" font-family="Helvetica,sans-Serif" font-size="10.00">myGameObjectIdList</text>
</g>
<!-- Node17 -->
<g id="node17" class="node"><title>Node17</title>
<polygon fill="white" stroke="#bfbfbf" points="623,-432.598 623,-451.598 669,-451.598 669,-432.598 623,-432.598"/>
<text text-anchor="middle" x="646" y="-439.598" font-family="Helvetica,sans-Serif" font-size="10.00">Group</text>
</g>
<!-- Node17&#45;&gt;Node1 -->
<g id="edge32" class="edge"><title>Node17&#45;&gt;Node1</title>
<path fill="none" stroke="#9a32cd" stroke-dasharray="5,2" d="M673.695,-456.3C693.594,-466.175 721.751,-478.675 748,-485.098 863.763,-513.423 897.897,-510.069 1016,-494.098 1193.72,-470.063 1247.17,-461.12 1398,-364.098 1427.27,-345.272 1455.27,-314.763 1468.71,-299.091"/>
<polygon fill="#9a32cd" stroke="#9a32cd" points="675.136,-453.107 664.635,-451.702 671.968,-459.349 675.136,-453.107"/>
<text text-anchor="middle" x="1074" y="-495.098" font-family="Helvetica,sans-Serif" font-size="10.00"> myRootGroup</text>
</g>
<!-- Node17&#45;&gt;Node6 -->
<g id="edge17" class="edge"><title>Node17&#45;&gt;Node6</title>
<path fill="none" stroke="#9a32cd" stroke-dasharray="5,2" d="M679.221,-437.764C718.646,-432.342 787.387,-422.496 846,-412.098 852.977,-410.86 860.234,-409.502 867.481,-408.099"/>
<polygon fill="#9a32cd" stroke="#9a32cd" points="678.581,-434.319 669.147,-439.141 679.529,-441.255 678.581,-434.319"/>
<text text-anchor="middle" x="797" y="-431.098" font-family="Helvetica,sans-Serif" font-size="10.00"> myCanvas</text>
</g>
<!-- Node18 -->
<g id="node18" class="node"><title>Node18</title>
<g id="a_node18"><a xlink:href="../../d9/db5/classengine_1_1_file_path_utility.html" target="_top" xlink:title="engine.FilePathUtility">
<polygon fill="white" stroke="black" points="588.5,-228.598 588.5,-247.598 703.5,-247.598 703.5,-228.598 588.5,-228.598"/>
<text text-anchor="middle" x="646" y="-235.598" font-family="Helvetica,sans-Serif" font-size="10.00">engine.FilePathUtility</text>
</a>
</g>
</g>
<!-- Node18&#45;&gt;Node6 -->
<g id="edge18" class="edge"><title>Node18&#45;&gt;Node6</title>
<path fill="none" stroke="#9a32cd" stroke-dasharray="5,2" d="M713.29,-250.431C719.057,-252.351 724.706,-254.559 730,-257.098 798.471,-289.932 798.286,-325.045 864,-363.098 873.709,-368.72 884.674,-373.758 895.162,-378.027"/>
<polygon fill="#9a32cd" stroke="#9a32cd" points="714.101,-247.02 703.515,-247.467 712.069,-253.718 714.101,-247.02"/>
<text text-anchor="middle" x="797" y="-353.098" font-family="Helvetica,sans-Serif" font-size="10.00"> myFilePathUtility</text>
</g>
<!-- Node18&#45;&gt;Node19 -->
<g id="edge25" class="edge"><title>Node18&#45;&gt;Node19</title>
<path fill="none" stroke="#9a32cd" stroke-dasharray="5,2" d="M713.638,-227.6C763.245,-219.785 830.412,-209.204 878.487,-201.63"/>
<polygon fill="#9a32cd" stroke="#9a32cd" points="712.98,-224.16 703.647,-229.174 714.07,-231.075 712.98,-224.16"/>
<text text-anchor="middle" x="797" y="-225.098" font-family="Helvetica,sans-Serif" font-size="10.00"> myFilePathUtility</text>
</g>
<!-- Node19&#45;&gt;Node1 -->
<g id="edge33" class="edge"><title>Node19&#45;&gt;Node1</title>
<path fill="none" stroke="#9a32cd" stroke-dasharray="5,2" d="M1021.31,-196.181C1050.59,-198.305 1083.9,-201.463 1114,-206.098 1236.36,-224.937 1378.78,-262.035 1442.78,-279.534"/>
<polygon fill="#9a32cd" stroke="#9a32cd" points="1021.35,-192.676 1011.13,-195.472 1020.87,-199.659 1021.35,-192.676"/>
<text text-anchor="middle" x="1213" y="-245.098" font-family="Helvetica,sans-Serif" font-size="10.00"> mySoundUtility</text>
</g>
<!-- Node19&#45;&gt;Node4 -->
<g id="edge21" class="edge"><title>Node19&#45;&gt;Node4</title>
<path fill="none" stroke="#9a32cd" stroke-dasharray="5,2" d="M1017.24,-203.18C1060.19,-210.102 1106.68,-219.013 1114,-226.098 1139.57,-250.84 1109.14,-276.837 1132,-304.098 1141.7,-315.661 1156.03,-323.378 1169.89,-328.49"/>
<polygon fill="#9a32cd" stroke="#9a32cd" points="1017.72,-199.712 1007.29,-201.6 1016.62,-206.625 1017.72,-199.712"/>
<text text-anchor="middle" x="1074" y="-229.098" font-family="Helvetica,sans-Serif" font-size="10.00"> mySoundPlayer</text>
</g>
<!-- Node20 -->
<g id="node20" class="node"><title>Node20</title>
<polygon fill="white" stroke="#bfbfbf" points="570,-102.598 570,-121.598 722,-121.598 722,-102.598 570,-102.598"/>
<text text-anchor="middle" x="646" y="-109.598" font-family="Helvetica,sans-Serif" font-size="10.00">Map&lt; String, MediaPlayer &gt;</text>
</g>
<!-- Node20&#45;&gt;Node19 -->
<g id="edge23" class="edge"><title>Node20&#45;&gt;Node19</title>
<path fill="none" stroke="#9a32cd" stroke-dasharray="5,2" d="M725.412,-123.336C762.461,-129.69 807.01,-138.849 846,-151.098 872.766,-159.506 902.159,-173.286 920.591,-182.521"/>
<polygon fill="#9a32cd" stroke="#9a32cd" points="725.613,-119.821 715.172,-121.619 724.455,-126.725 725.613,-119.821"/>
<text text-anchor="middle" x="797" y="-154.098" font-family="Helvetica,sans-Serif" font-size="10.00"> myMediaPlayerMap</text>
</g>
<!-- Node21 -->
<g id="node21" class="node"><title>Node21</title>
<polygon fill="white" stroke="#bfbfbf" points="577,-190.598 577,-209.598 715,-209.598 715,-190.598 577,-190.598"/>
<text text-anchor="middle" x="646" y="-197.598" font-family="Helvetica,sans-Serif" font-size="10.00">Map&lt; String, AudioClip &gt;</text>
</g>
<!-- Node21&#45;&gt;Node19 -->
<g id="edge24" class="edge"><title>Node21&#45;&gt;Node19</title>
<path fill="none" stroke="#9a32cd" stroke-dasharray="5,2" d="M725.235,-194.179C732.924,-193.746 740.611,-193.373 748,-193.098 787.93,-191.611 832.588,-191.302 868.676,-191.392"/>
<polygon fill="#9a32cd" stroke="#9a32cd" points="724.926,-190.691 715.151,-194.778 725.341,-197.679 724.926,-190.691"/>
<text text-anchor="middle" x="797" y="-196.098" font-family="Helvetica,sans-Serif" font-size="10.00"> myAudioClipMap</text>
</g>
<!-- Node22 -->
<g id="node22" class="node"><title>Node22</title>
<g id="a_node22"><a xlink:href="../../db/d2a/classauthoring_1_1model_1_1collections_1_1_conditions_collection.html" target="_top" xlink:title="authoring.model.collections.\lConditionsCollection">
<polygon fill="white" stroke="black" points="864,-281.098 864,-311.098 1016,-311.098 1016,-281.098 864,-281.098"/>
<text text-anchor="start" x="872" y="-299.098" font-family="Helvetica,sans-Serif" font-size="10.00">authoring.model.collections.</text>
<text text-anchor="middle" x="940" y="-288.098" font-family="Helvetica,sans-Serif" font-size="10.00">ConditionsCollection</text>
</a>
</g>
</g>
<!-- Node22&#45;&gt;Node1 -->
<g id="edge34" class="edge"><title>Node22&#45;&gt;Node1</title>
<path fill="none" stroke="#9a32cd" stroke-dasharray="5,2" d="M1026.38,-294.983C1135.18,-293.562 1320.57,-291.14 1416.11,-289.893"/>
<polygon fill="#9a32cd" stroke="#9a32cd" points="1026.05,-291.487 1016.09,-295.117 1026.14,-298.486 1026.05,-291.487"/>
<text text-anchor="middle" x="1213" y="-297.098" font-family="Helvetica,sans-Serif" font-size="10.00"> myGameConditions</text>
</g>
<!-- Node22&#45;&gt;Node4 -->
<g id="edge26" class="edge"><title>Node22&#45;&gt;Node4</title>
<path fill="none" stroke="#9a32cd" stroke-dasharray="5,2" d="M1026.21,-309.304C1066.5,-315.547 1113.69,-322.862 1150.44,-328.556"/>
<polygon fill="#9a32cd" stroke="#9a32cd" points="1026.55,-305.814 1016.13,-307.741 1025.47,-312.732 1026.55,-305.814"/>
<text text-anchor="middle" x="1074" y="-325.098" font-family="Helvetica,sans-Serif" font-size="10.00"> myConditions</text>
</g>
<!-- Node23 -->
<g id="node23" class="node"><title>Node23</title>
<g id="a_node23"><a xlink:href="../../d4/d3b/classauthoring_1_1model_1_1collections_1_1_general_collection.html" target="_top" xlink:title="authoring.model.collections.\lGeneralCollection\&lt; Condition \&gt;">
<polygon fill="white" stroke="black" points="562,-267.098 562,-297.098 730,-297.098 730,-267.098 562,-267.098"/>
<text text-anchor="start" x="570" y="-285.098" font-family="Helvetica,sans-Serif" font-size="10.00">authoring.model.collections.</text>
<text text-anchor="middle" x="646" y="-274.098" font-family="Helvetica,sans-Serif" font-size="10.00">GeneralCollection&lt; Condition &gt;</text>
</a>
</g>
</g>
<!-- Node23&#45;&gt;Node22 -->
<g id="edge27" class="edge"><title>Node23&#45;&gt;Node22</title>
<path fill="none" stroke="midnightblue" d="M740.523,-286.582C780.286,-288.488 826.039,-290.682 863.588,-292.482"/>
<polygon fill="midnightblue" stroke="midnightblue" points="740.441,-283.074 730.285,-286.091 740.106,-290.066 740.441,-283.074"/>
</g>
<!-- Node24 -->
<g id="node24" class="node"><title>Node24</title>
<polygon fill="white" stroke="#bfbfbf" points="1185,-43.5976 1185,-62.5976 1241,-62.5976 1241,-43.5976 1185,-43.5976"/>
<text text-anchor="middle" x="1213" y="-50.5976" font-family="Helvetica,sans-Serif" font-size="10.00">Timeline</text>
</g>
<!-- Node24&#45;&gt;Node1 -->
<g id="edge28" class="edge"><title>Node24&#45;&gt;Node1</title>
<path fill="none" stroke="#9a32cd" stroke-dasharray="5,2" d="M1251.19,-44.7444C1291.57,-37.9558 1355.92,-34.0771 1398,-66.0976 1469.26,-120.316 1476.44,-243.904 1477,-279.4"/>
<polygon fill="#9a32cd" stroke="#9a32cd" points="1250.43,-41.3251 1241.22,-46.5616 1251.68,-48.2117 1250.43,-41.3251"/>
<text text-anchor="middle" x="1355" y="-69.0976" font-family="Helvetica,sans-Serif" font-size="10.00"> myAnimation</text>
</g>
<!-- Node25 -->
<g id="node25" class="node"><title>Node25</title>
<polygon fill="white" stroke="#bfbfbf" points="1132.5,-5.59762 1132.5,-24.5976 1293.5,-24.5976 1293.5,-5.59762 1132.5,-5.59762"/>
<text text-anchor="middle" x="1213" y="-12.5976" font-family="Helvetica,sans-Serif" font-size="10.00">EventHandler&lt; ActionEvent &gt;</text>
</g>
<!-- Node25&#45;&gt;Node1 -->
<g id="edge31" class="edge"><title>Node25&#45;&gt;Node1</title>
<path fill="none" stroke="#9a32cd" stroke-dasharray="5,2" d="M1262.94,-3.90735C1303.45,2.33919 1360.29,3.73941 1398,-26.0976 1439.87,-59.2287 1468.95,-235.74 1475.57,-279.35"/>
<polygon fill="#9a32cd" stroke="#9a32cd" points="1262.29,-0.467447 1253.01,-5.5838 1263.45,-7.36972 1262.29,-0.467447"/>
<text text-anchor="middle" x="1355" y="-29.0976" font-family="Helvetica,sans-Serif" font-size="10.00"> oneFrame</text>
</g>
</g>
</svg>
        <g id="navigator" transform="translate(0 0)" fill="#404254">
                <rect fill="#f2f5e9" fill-opacity="0.5" stroke="#606060" stroke-width=".5" x="0" y="0" width="60" height="60"/>
                <use id="zoomplus" xlink:href="#zoomPlus" x="17" y="9" onmousedown="handleZoom(evt,'in')"/>
                <use id="zoomminus" xlink:href="#zoomMin" x="42" y="9" onmousedown="handleZoom(evt,'out')"/>
                <use id="reset" xlink:href="#resetDef" x="30" y="36" onmousedown="handleReset()"/>
                <g id="arrowUp" xlink:href="#dirArrow" transform="translate(30 24)" onmousedown="handlePan(0,-1)">
                  <use xlink:href="#rim" fill="#404040">
                        <set attributeName="fill" to="#808080" begin="arrowUp.mouseover" end="arrowUp.mouseout"/>
                  </use>
                  <path fill="none" stroke="white" stroke-width="1.5" d="M0,-3.0v7 M-2.5,-0.5L0,-3.0L2.5,-0.5"/>
                </g>
                <g id="arrowRight" xlink:href="#dirArrow" transform="rotate(90) translate(36 -43)" onmousedown="handlePan(1,0)">
                  <use xlink:href="#rim" fill="#404040">
                        <set attributeName="fill" to="#808080" begin="arrowRight.mouseover" end="arrowRight.mouseout"/>
                  </use>
                  <path fill="none" stroke="white" stroke-width="1.5" d="M0,-3.0v7 M-2.5,-0.5L0,-3.0L2.5,-0.5"/>
                </g>
                <g id="arrowDown" xlink:href="#dirArrow" transform="rotate(180) translate(-30 -48)" onmousedown="handlePan(0,1)">
                  <use xlink:href="#rim" fill="#404040">
                        <set attributeName="fill" to="#808080" begin="arrowDown.mouseover" end="arrowDown.mouseout"/>
                  </use>
                  <path fill="none" stroke="white" stroke-width="1.5" d="M0,-3.0v7 M-2.5,-0.5L0,-3.0L2.5,-0.5"/>
                </g>
                <g id="arrowLeft" xlink:href="#dirArrow" transform="rotate(270) translate(-36 17)" onmousedown="handlePan(-1,0)">
                  <use xlink:href="#rim" fill="#404040">
                        <set attributeName="fill" to="#808080" begin="arrowLeft.mouseover" end="arrowLeft.mouseout"/>
                  </use>
                  <path fill="none" stroke="white" stroke-width="1.5" d="M0,-3.0v7 M-2.5,-0.5L0,-3.0L2.5,-0.5"/>
                </g>
        </g>
        <svg viewBox="0 0 15 15" width="100%" height="30px" preserveAspectRatio="xMaxYMin meet">
         <g id="arrow_out" transform="scale(0.3 0.3)">
          <a xlink:href="classengine_1_1_game_manager__coll__graph_org.svg" target="_base">
           <rect id="button" ry="5" rx="5" y="6" x="6" height="38" width="38"
                fill="#f2f5e9" fill-opacity="0.5" stroke="#606060" stroke-width="1.0"/>
           <path id="arrow"
             d="M 11.500037,31.436501 C 11.940474,20.09759 22.043105,11.32322 32.158766,21.979434 L 37.068811,17.246167 C 37.068811,17.246167 37.088388,32 37.088388,32 L 22.160133,31.978069 C 22.160133,31.978069 26.997745,27.140456 26.997745,27.140456 C 18.528582,18.264221 13.291696,25.230495 11.500037,31.436501 z"
             style="fill:#404040;"/>
          </a>
         </g>
        </svg>
</svg>
