<?xml version="1.0" encoding="UTF-8" standalone="no"?>
<!DOCTYPE svg PUBLIC "-//W3C//DTD SVG 1.1//EN"
 "http://www.w3.org/Graphics/SVG/1.1/DTD/svg11.dtd">
<!-- Generated by graphviz version 2.36.0 (20140111.2315)
 -->
<!-- Title: engine.actions.PlayAudioClipAction Pages: 1 -->
<svg width="1046pt" height="192pt"
 viewBox="0.00 0.00 1046.00 192.00" xmlns="http://www.w3.org/2000/svg" xmlns:xlink="http://www.w3.org/1999/xlink">
<g id="graph0" class="graph" transform="scale(1 1) rotate(0) translate(4 188)">
<title>engine.actions.PlayAudioClipAction</title>
<polygon fill="white" stroke="none" points="-4,4 -4,-188 1042,-188 1042,4 -4,4"/>
<!-- Node1 -->
<g id="node1" class="node"><title>Node1</title>
<polygon fill="#bfbfbf" stroke="black" points="902,-121 902,-151 1038,-151 1038,-121 902,-121"/>
<text text-anchor="start" x="910" y="-139" font-family="Helvetica,sans-Serif" font-size="10.00">engine.actions.PlayAudio</text>
<text text-anchor="middle" x="970" y="-128" font-family="Helvetica,sans-Serif" font-size="10.00">ClipAction</text>
</g>
<!-- Node2 -->
<g id="node2" class="node"><title>Node2</title>
<g id="a_node2"><a xlink:href="../../d0/d34/classengine_1_1actions_1_1_audio_clip_action.html" target="_top" xlink:title="engine.actions.AudioClip\lAction">
<polygon fill="white" stroke="black" points="730,-121 730,-151 864,-151 864,-121 730,-121"/>
<text text-anchor="start" x="738" y="-139" font-family="Helvetica,sans-Serif" font-size="10.00">engine.actions.AudioClip</text>
<text text-anchor="middle" x="797" y="-128" font-family="Helvetica,sans-Serif" font-size="10.00">Action</text>
</a>
</g>
</g>
<!-- Node2&#45;&gt;Node1 -->
<g id="edge1" class="edge"><title>Node2&#45;&gt;Node1</title>
<path fill="none" stroke="midnightblue" d="M874.396,-136C883.577,-136 892.899,-136 901.934,-136"/>
<polygon fill="midnightblue" stroke="midnightblue" points="874.113,-132.5 864.113,-136 874.113,-139.5 874.113,-132.5"/>
</g>
<!-- Node3 -->
<g id="node3" class="node"><title>Node3</title>
<g id="a_node3"><a xlink:href="../../d9/dd2/interfaceengine_1_1actions_1_1_action.html" target="_top" xlink:title="engine.actions.Action">
<polygon fill="white" stroke="black" points="487.5,-126.5 487.5,-145.5 606.5,-145.5 606.5,-126.5 487.5,-126.5"/>
<text text-anchor="middle" x="547" y="-133.5" font-family="Helvetica,sans-Serif" font-size="10.00">engine.actions.Action</text>
</a>
</g>
</g>
<!-- Node3&#45;&gt;Node2 -->
<g id="edge2" class="edge"><title>Node3&#45;&gt;Node2</title>
<path fill="none" stroke="midnightblue" d="M616.98,-136C652.233,-136 694.928,-136 729.78,-136"/>
<polygon fill="midnightblue" stroke="midnightblue" points="616.773,-132.5 606.773,-136 616.773,-139.5 616.773,-132.5"/>
</g>
<!-- Node4 -->
<g id="node4" class="node"><title>Node4</title>
<g id="a_node4"><a xlink:href="../../d2/d15/interfaceengine_1_1actions_1_1_initializable.html" target="_top" xlink:title="engine.actions.Initializable">
<polygon fill="white" stroke="black" points="195,-164.5 195,-183.5 337,-183.5 337,-164.5 195,-164.5"/>
<text text-anchor="middle" x="266" y="-171.5" font-family="Helvetica,sans-Serif" font-size="10.00">engine.actions.Initializable</text>
</a>
</g>
</g>
<!-- Node4&#45;&gt;Node2 -->
<g id="edge4" class="edge"><title>Node4&#45;&gt;Node2</title>
<path fill="none" stroke="midnightblue" d="M347.39,-172.353C436.68,-169.899 585.001,-163.964 712,-150 717.731,-149.37 723.666,-148.607 729.609,-147.766"/>
<polygon fill="midnightblue" stroke="midnightblue" points="347.237,-168.856 337.334,-172.622 347.424,-175.854 347.237,-168.856"/>
</g>
<!-- Node4&#45;&gt;Node3 -->
<g id="edge3" class="edge"><title>Node4&#45;&gt;Node3</title>
<path fill="none" stroke="midnightblue" d="M347.008,-163.103C391.734,-157.011 446.499,-149.552 487.246,-144.002"/>
<polygon fill="midnightblue" stroke="midnightblue" points="346.48,-159.642 337.043,-164.46 347.424,-166.578 346.48,-159.642"/>
</g>
<!-- Node5 -->
<g id="node5" class="node"><title>Node5</title>
<g id="a_node5"><a xlink:href="../../da/d90/classengine_1_1sound_1_1_sound_utility.html" target="_top" xlink:title="engine.sound.SoundUtility">
<polygon fill="white" stroke="black" points="476,-76.5 476,-95.5 618,-95.5 618,-76.5 476,-76.5"/>
<text text-anchor="middle" x="547" y="-83.5" font-family="Helvetica,sans-Serif" font-size="10.00">engine.sound.SoundUtility</text>
</a>
</g>
</g>
<!-- Node5&#45;&gt;Node2 -->
<g id="edge5" class="edge"><title>Node5&#45;&gt;Node2</title>
<path fill="none" stroke="#9a32cd" stroke-dasharray="5,2" d="M605.385,-97.5696C642.514,-105.055 690.976,-114.826 729.743,-122.642"/>
<polygon fill="#9a32cd" stroke="#9a32cd" points="605.725,-94.0678 595.231,-95.5223 604.342,-100.93 605.725,-94.0678"/>
<text text-anchor="middle" x="674" y="-122" font-family="Helvetica,sans-Serif" font-size="10.00"> mySoundUtility</text>
</g>
<!-- Node6 -->
<g id="node6" class="node"><title>Node6</title>
<g id="a_node6"><a xlink:href="../../df/de5/classauthoring_1_1model_1_1collections_1_1_levels_collection.html" target="_top" xlink:title="authoring.model.collections.\lLevelsCollection">
<polygon fill="white" stroke="black" points="190,-115 190,-145 342,-145 342,-115 190,-115"/>
<text text-anchor="start" x="198" y="-133" font-family="Helvetica,sans-Serif" font-size="10.00">authoring.model.collections.</text>
<text text-anchor="middle" x="266" y="-122" font-family="Helvetica,sans-Serif" font-size="10.00">LevelsCollection</text>
</a>
</g>
</g>
<!-- Node6&#45;&gt;Node5 -->
<g id="edge6" class="edge"><title>Node6&#45;&gt;Node5</title>
<path fill="none" stroke="#9a32cd" stroke-dasharray="5,2" d="M352.066,-116.585C395.253,-109.774 446.696,-101.661 485.744,-95.5028"/>
<polygon fill="#9a32cd" stroke="#9a32cd" points="351.467,-113.136 342.134,-118.151 352.557,-120.05 351.467,-113.136"/>
<text text-anchor="middle" x="409" y="-118" font-family="Helvetica,sans-Serif" font-size="10.00"> myLevels</text>
</g>
<!-- Node7 -->
<g id="node7" class="node"><title>Node7</title>
<g id="a_node7"><a xlink:href="../../d4/d3b/classauthoring_1_1model_1_1collections_1_1_general_collection.html" target="_top" xlink:title="authoring.model.collections.\lGeneralCollection\&lt; Level \&gt;">
<polygon fill="white" stroke="black" points="0,-115 0,-145 152,-145 152,-115 0,-115"/>
<text text-anchor="start" x="8" y="-133" font-family="Helvetica,sans-Serif" font-size="10.00">authoring.model.collections.</text>
<text text-anchor="middle" x="76" y="-122" font-family="Helvetica,sans-Serif" font-size="10.00">GeneralCollection&lt; Level &gt;</text>
</a>
</g>
</g>
<!-- Node7&#45;&gt;Node6 -->
<g id="edge7" class="edge"><title>Node7&#45;&gt;Node6</title>
<path fill="none" stroke="midnightblue" d="M162.348,-130C171.472,-130 180.705,-130 189.699,-130"/>
<polygon fill="midnightblue" stroke="midnightblue" points="162.113,-126.5 152.113,-130 162.113,-133.5 162.113,-126.5"/>
</g>
<!-- Node8 -->
<g id="node8" class="node"><title>Node8</title>
<polygon fill="white" stroke="#bfbfbf" points="190,-76.5 190,-95.5 342,-95.5 342,-76.5 190,-76.5"/>
<text text-anchor="middle" x="266" y="-83.5" font-family="Helvetica,sans-Serif" font-size="10.00">Map&lt; String, MediaPlayer &gt;</text>
</g>
<!-- Node8&#45;&gt;Node5 -->
<g id="edge8" class="edge"><title>Node8&#45;&gt;Node5</title>
<path fill="none" stroke="#9a32cd" stroke-dasharray="5,2" d="M352.275,-86C391.746,-86 438.077,-86 475.531,-86"/>
<polygon fill="#9a32cd" stroke="#9a32cd" points="352.134,-82.5001 342.134,-86 352.134,-89.5001 352.134,-82.5001"/>
<text text-anchor="middle" x="409" y="-89" font-family="Helvetica,sans-Serif" font-size="10.00"> myMediaPlayerMap</text>
</g>
<!-- Node9 -->
<g id="node9" class="node"><title>Node9</title>
<polygon fill="white" stroke="#bfbfbf" points="197,-38.5 197,-57.5 335,-57.5 335,-38.5 197,-38.5"/>
<text text-anchor="middle" x="266" y="-45.5" font-family="Helvetica,sans-Serif" font-size="10.00">Map&lt; String, AudioClip &gt;</text>
</g>
<!-- Node9&#45;&gt;Node5 -->
<g id="edge9" class="edge"><title>Node9&#45;&gt;Node5</title>
<path fill="none" stroke="#9a32cd" stroke-dasharray="5,2" d="M345.222,-56.5432C379.833,-60.5492 420.999,-65.6219 458,-71 469.196,-72.6273 481.162,-74.5463 492.549,-76.4582"/>
<polygon fill="#9a32cd" stroke="#9a32cd" points="345.508,-53.0531 335.174,-55.3888 344.709,-60.0074 345.508,-53.0531"/>
<text text-anchor="middle" x="409" y="-74" font-family="Helvetica,sans-Serif" font-size="10.00"> myAudioClipMap</text>
</g>
<!-- Node10 -->
<g id="node10" class="node"><title>Node10</title>
<g id="a_node10"><a xlink:href="../../d9/db5/classengine_1_1_file_path_utility.html" target="_top" xlink:title="engine.FilePathUtility">
<polygon fill="white" stroke="black" points="208.5,-0.5 208.5,-19.5 323.5,-19.5 323.5,-0.5 208.5,-0.5"/>
<text text-anchor="middle" x="266" y="-7.5" font-family="Helvetica,sans-Serif" font-size="10.00">engine.FilePathUtility</text>
</a>
</g>
</g>
<!-- Node10&#45;&gt;Node5 -->
<g id="edge10" class="edge"><title>Node10&#45;&gt;Node5</title>
<path fill="none" stroke="#9a32cd" stroke-dasharray="5,2" d="M333.76,-17.3995C370.929,-22.6275 417.696,-31.0569 458,-44 483.95,-52.3334 512.066,-66.7969 529.359,-76.384"/>
<polygon fill="#9a32cd" stroke="#9a32cd" points="333.925,-13.8898 323.544,-16.0088 332.981,-20.8258 333.925,-13.8898"/>
<text text-anchor="middle" x="409" y="-47" font-family="Helvetica,sans-Serif" font-size="10.00"> myFilePathUtility</text>
</g>
</g>
</svg>
