<?xml version="1.0" encoding="UTF-8" standalone="no"?>
<!DOCTYPE svg PUBLIC "-//W3C//DTD SVG 1.1//EN"
 "http://www.w3.org/Graphics/SVG/1.1/DTD/svg11.dtd">
<!-- Generated by graphviz version 2.36.0 (20140111.2315)
 -->
<!-- Title: engine.conditions.ButtonPressCondition.executeActions Pages: 1 -->
<svg width="596pt" height="136pt"
 viewBox="0.00 0.00 596.00 136.00" xmlns="http://www.w3.org/2000/svg" xmlns:xlink="http://www.w3.org/1999/xlink">
<g id="graph0" class="graph" transform="scale(1 1) rotate(0) translate(4 132)">
<title>engine.conditions.ButtonPressCondition.executeActions</title>
<polygon fill="white" stroke="none" points="-4,4 -4,-132 592,-132 592,4 -4,4"/>
<!-- Node1 -->
<g id="node1" class="node"><title>Node1</title>
<polygon fill="#bfbfbf" stroke="black" points="0,-49 0,-79 164,-79 164,-49 0,-49"/>
<text text-anchor="start" x="8" y="-67" font-family="Helvetica,sans-Serif" font-size="10.00">engine.conditions.Button</text>
<text text-anchor="middle" x="82" y="-56" font-family="Helvetica,sans-Serif" font-size="10.00">PressCondition.executeActions</text>
</g>
<!-- Node2 -->
<g id="node2" class="node"><title>Node2</title>
<g id="a_node2"><a xlink:href="../../d1/d3b/classengine_1_1conditions_1_1_condition.html#a208317469c4d800311a582c46b581290" target="_top" xlink:title="engine.conditions.Condition.get\lActions">
<polygon fill="white" stroke="black" points="200.5,-98 200.5,-128 367.5,-128 367.5,-98 200.5,-98"/>
<text text-anchor="start" x="208.5" y="-116" font-family="Helvetica,sans-Serif" font-size="10.00">engine.conditions.Condition.get</text>
<text text-anchor="middle" x="284" y="-105" font-family="Helvetica,sans-Serif" font-size="10.00">Actions</text>
</a>
</g>
</g>
<!-- Node1&#45;&gt;Node2 -->
<g id="edge1" class="edge"><title>Node1&#45;&gt;Node2</title>
<path fill="none" stroke="midnightblue" d="M144.366,-79.0346C165.675,-84.2554 189.75,-90.1537 211.786,-95.5526"/>
<polygon fill="midnightblue" stroke="midnightblue" points="211.205,-99.0136 221.75,-97.9938 212.87,-92.2147 211.205,-99.0136"/>
</g>
<!-- Node3 -->
<g id="node3" class="node"><title>Node3</title>
<g id="a_node3"><a xlink:href="../../d9/d10/classengine_1_1conditions_1_1_button_condition_manager.html#acf0bbdb37a1c9d9cdfa827f114a50766" target="_top" xlink:title="engine.conditions.Button\lConditionManager.getInstance">
<polygon fill="white" stroke="black" points="203,-49 203,-79 365,-79 365,-49 203,-49"/>
<text text-anchor="start" x="211" y="-67" font-family="Helvetica,sans-Serif" font-size="10.00">engine.conditions.Button</text>
<text text-anchor="middle" x="284" y="-56" font-family="Helvetica,sans-Serif" font-size="10.00">ConditionManager.getInstance</text>
</a>
</g>
</g>
<!-- Node1&#45;&gt;Node3 -->
<g id="edge2" class="edge"><title>Node1&#45;&gt;Node3</title>
<path fill="none" stroke="midnightblue" d="M164.059,-64C173.442,-64 183.057,-64 192.555,-64"/>
<polygon fill="midnightblue" stroke="midnightblue" points="192.799,-67.5001 202.799,-64 192.799,-60.5001 192.799,-67.5001"/>
</g>
<!-- Node5 -->
<g id="node5" class="node"><title>Node5</title>
<g id="a_node5"><a xlink:href="../../d9/d10/classengine_1_1conditions_1_1_button_condition_manager.html#a9db10a2cda8e6fe1ae31252c98f9f6e2" target="_top" xlink:title="engine.conditions.Button\lConditionManager.keyIsActive">
<polygon fill="white" stroke="black" points="204.5,-0 204.5,-30 363.5,-30 363.5,-0 204.5,-0"/>
<text text-anchor="start" x="212.5" y="-18" font-family="Helvetica,sans-Serif" font-size="10.00">engine.conditions.Button</text>
<text text-anchor="middle" x="284" y="-7" font-family="Helvetica,sans-Serif" font-size="10.00">ConditionManager.keyIsActive</text>
</a>
</g>
</g>
<!-- Node1&#45;&gt;Node5 -->
<g id="edge4" class="edge"><title>Node1&#45;&gt;Node5</title>
<path fill="none" stroke="midnightblue" d="M144.366,-48.9654C165.675,-43.7446 189.75,-37.8463 211.786,-32.4474"/>
<polygon fill="midnightblue" stroke="midnightblue" points="212.87,-35.7853 221.75,-30.0062 211.205,-28.9864 212.87,-35.7853"/>
</g>
<!-- Node4 -->
<g id="node4" class="node"><title>Node4</title>
<g id="a_node4"><a xlink:href="../../d9/d10/classengine_1_1conditions_1_1_button_condition_manager.html#ae9501a9a4b3fbc32cd49920845a49bef" target="_top" xlink:title="engine.conditions.Button\lConditionManager.ButtonCondition\lManager">
<polygon fill="white" stroke="black" points="404.5,-43.5 404.5,-84.5 587.5,-84.5 587.5,-43.5 404.5,-43.5"/>
<text text-anchor="start" x="412.5" y="-72.5" font-family="Helvetica,sans-Serif" font-size="10.00">engine.conditions.Button</text>
<text text-anchor="start" x="412.5" y="-61.5" font-family="Helvetica,sans-Serif" font-size="10.00">ConditionManager.ButtonCondition</text>
<text text-anchor="middle" x="496" y="-50.5" font-family="Helvetica,sans-Serif" font-size="10.00">Manager</text>
</a>
</g>
</g>
<!-- Node3&#45;&gt;Node4 -->
<g id="edge3" class="edge"><title>Node3&#45;&gt;Node4</title>
<path fill="none" stroke="midnightblue" d="M365.291,-64C374.744,-64 384.48,-64 394.169,-64"/>
<polygon fill="midnightblue" stroke="midnightblue" points="394.235,-67.5001 404.235,-64 394.235,-60.5001 394.235,-67.5001"/>
</g>
</g>
</svg>
