<?xml version="1.0" encoding="UTF-8" standalone="no"?>
<!DOCTYPE svg PUBLIC "-//W3C//DTD SVG 1.1//EN"
 "http://www.w3.org/Graphics/SVG/1.1/DTD/svg11.dtd">
<!-- Generated by graphviz version 2.36.0 (20140111.2315)
 -->
<!-- Title: engine.conditions.ButtonPressCondition.getKeyIdentifier Pages: 1 -->
<svg width="862pt" height="98pt"
 viewBox="0.00 0.00 862.00 98.00" xmlns="http://www.w3.org/2000/svg" xmlns:xlink="http://www.w3.org/1999/xlink">
<g id="graph0" class="graph" transform="scale(1 1) rotate(0) translate(4 94)">
<title>engine.conditions.ButtonPressCondition.getKeyIdentifier</title>
<polygon fill="white" stroke="none" points="-4,4 -4,-94 858,-94 858,4 -4,4"/>
<!-- Node1 -->
<g id="node1" class="node"><title>Node1</title>
<polygon fill="#bfbfbf" stroke="black" points="0,-27 0,-57 164,-57 164,-27 0,-27"/>
<text text-anchor="start" x="8" y="-45" font-family="Helvetica,sans-Serif" font-size="10.00">engine.conditions.Button</text>
<text text-anchor="middle" x="82" y="-34" font-family="Helvetica,sans-Serif" font-size="10.00">PressCondition.getKeyIdentifier</text>
</g>
<!-- Node2 -->
<g id="node2" class="node"><title>Node2</title>
<g id="a_node2"><a xlink:href="../../dc/d81/classgame_player_1_1view_1_1keyboard_utility_1_1_keyboard_view.html#ab1da0d92c8f96358ab19fe79774070d3" target="_top" xlink:title="gamePlayer.view.keyboard\lUtility.KeyboardView.comboBox\lForButton">
<polygon fill="white" stroke="black" points="201,-48.5 201,-89.5 365,-89.5 365,-48.5 201,-48.5"/>
<text text-anchor="start" x="209" y="-77.5" font-family="Helvetica,sans-Serif" font-size="10.00">gamePlayer.view.keyboard</text>
<text text-anchor="start" x="209" y="-66.5" font-family="Helvetica,sans-Serif" font-size="10.00">Utility.KeyboardView.comboBox</text>
<text text-anchor="middle" x="283" y="-55.5" font-family="Helvetica,sans-Serif" font-size="10.00">ForButton</text>
</a>
</g>
</g>
<!-- Node1&#45;&gt;Node2 -->
<g id="edge1" class="edge"><title>Node1&#45;&gt;Node2</title>
<path fill="none" stroke="midnightblue" d="M174.17,-54.3698C183.022,-55.5708 191.963,-56.7839 200.709,-57.9706"/>
<polygon fill="midnightblue" stroke="midnightblue" points="174.608,-50.8972 164.228,-53.0209 173.667,-57.8337 174.608,-50.8972"/>
</g>
<!-- Node5 -->
<g id="node5" class="node"><title>Node5</title>
<g id="a_node5"><a xlink:href="../../dc/d81/classgame_player_1_1view_1_1keyboard_utility_1_1_keyboard_view.html#a0025b931b099cd0911ebf9d4579b3a8c" target="_top" xlink:title="gamePlayer.view.keyboard\lUtility.KeyboardView.setNewKey">
<polygon fill="white" stroke="black" points="200.5,-0 200.5,-30 365.5,-30 365.5,-0 200.5,-0"/>
<text text-anchor="start" x="208.5" y="-18" font-family="Helvetica,sans-Serif" font-size="10.00">gamePlayer.view.keyboard</text>
<text text-anchor="middle" x="283" y="-7" font-family="Helvetica,sans-Serif" font-size="10.00">Utility.KeyboardView.setNewKey</text>
</a>
</g>
</g>
<!-- Node1&#45;&gt;Node5 -->
<g id="edge4" class="edge"><title>Node1&#45;&gt;Node5</title>
<path fill="none" stroke="midnightblue" d="M174.364,-29.6039C183.044,-28.4262 191.807,-27.2373 200.387,-26.0732"/>
<polygon fill="midnightblue" stroke="midnightblue" points="173.667,-26.1664 164.228,-30.9791 174.608,-33.1028 173.667,-26.1664"/>
</g>
<!-- Node3 -->
<g id="node3" class="node"><title>Node3</title>
<g id="a_node3"><a xlink:href="../../dc/d81/classgame_player_1_1view_1_1keyboard_utility_1_1_keyboard_view.html#a2b8970ff772d04703468c56065a05394" target="_top" xlink:title="gamePlayer.view.keyboard\lUtility.KeyboardView.createKeyboardView">
<polygon fill="white" stroke="black" points="402,-54 402,-84 612,-84 612,-54 402,-54"/>
<text text-anchor="start" x="410" y="-72" font-family="Helvetica,sans-Serif" font-size="10.00">gamePlayer.view.keyboard</text>
<text text-anchor="middle" x="507" y="-61" font-family="Helvetica,sans-Serif" font-size="10.00">Utility.KeyboardView.createKeyboardView</text>
</a>
</g>
</g>
<!-- Node2&#45;&gt;Node3 -->
<g id="edge2" class="edge"><title>Node2&#45;&gt;Node3</title>
<path fill="none" stroke="midnightblue" d="M375.226,-69C383.938,-69 392.819,-69 401.643,-69"/>
<polygon fill="midnightblue" stroke="midnightblue" points="375.089,-65.5001 365.089,-69 375.089,-72.5001 375.089,-65.5001"/>
</g>
<!-- Node4 -->
<g id="node4" class="node"><title>Node4</title>
<g id="a_node4"><a xlink:href="../../d9/dff/classgame_player_1_1view_1_1_menu_bar_controller.html#a7fe521fbb038790ea4cc4e27bc02f1fe" target="_top" xlink:title="gamePlayer.view.MenuBarController.key\lCombos">
<polygon fill="white" stroke="black" points="648,-54 648,-84 854,-84 854,-54 648,-54"/>
<text text-anchor="start" x="656" y="-72" font-family="Helvetica,sans-Serif" font-size="10.00">gamePlayer.view.MenuBarController.key</text>
<text text-anchor="middle" x="751" y="-61" font-family="Helvetica,sans-Serif" font-size="10.00">Combos</text>
</a>
</g>
</g>
<!-- Node3&#45;&gt;Node4 -->
<g id="edge3" class="edge"><title>Node3&#45;&gt;Node4</title>
<path fill="none" stroke="midnightblue" d="M622.129,-69C630.756,-69 639.429,-69 647.973,-69"/>
<polygon fill="midnightblue" stroke="midnightblue" points="622.034,-65.5001 612.034,-69 622.034,-72.5001 622.034,-65.5001"/>
</g>
</g>
</svg>
