<?xml version="1.0" encoding="UTF-8" standalone="no"?>
<!DOCTYPE svg PUBLIC "-//W3C//DTD SVG 1.1//EN"
 "http://www.w3.org/Graphics/SVG/1.1/DTD/svg11.dtd">
<!-- Generated by graphviz version 2.36.0 (20140111.2315)
 -->
<!-- Title: engine.conditions.ButtonPressCondition.executeActions Pages: 1 -->
<svg width="378pt" height="48pt"
 viewBox="0.00 0.00 378.00 48.00" xmlns="http://www.w3.org/2000/svg" xmlns:xlink="http://www.w3.org/1999/xlink">
<g id="graph0" class="graph" transform="scale(1 1) rotate(0) translate(4 44)">
<title>engine.conditions.ButtonPressCondition.executeActions</title>
<polygon fill="white" stroke="none" points="-4,4 -4,-44 374,-44 374,4 -4,4"/>
<!-- Node1 -->
<g id="node1" class="node"><title>Node1</title>
<polygon fill="#bfbfbf" stroke="black" points="0,-5 0,-35 164,-35 164,-5 0,-5"/>
<text text-anchor="start" x="8" y="-23" font-family="Helvetica,sans-Serif" font-size="10.00">engine.conditions.Button</text>
<text text-anchor="middle" x="82" y="-12" font-family="Helvetica,sans-Serif" font-size="10.00">PressCondition.executeActions</text>
</g>
<!-- Node2 -->
<g id="node2" class="node"><title>Node2</title>
<g id="a_node2"><a xlink:href="../../d5/dcb/classengine_1_1conditions_1_1_button_press_condition.html#ac645ef1c30b99ff755128decd0e36f4d" target="_top" xlink:title="engine.conditions.Button\lPressCondition.respondToFrame\lElapsed">
<polygon fill="white" stroke="black" points="200,0.5 200,-40.5 370,-40.5 370,0.5 200,0.5"/>
<text text-anchor="start" x="208" y="-28.5" font-family="Helvetica,sans-Serif" font-size="10.00">engine.conditions.Button</text>
<text text-anchor="start" x="208" y="-17.5" font-family="Helvetica,sans-Serif" font-size="10.00">PressCondition.respondToFrame</text>
<text text-anchor="middle" x="285" y="-6.5" font-family="Helvetica,sans-Serif" font-size="10.00">Elapsed</text>
</a>
</g>
</g>
<!-- Node1&#45;&gt;Node2 -->
<g id="edge1" class="edge"><title>Node1&#45;&gt;Node2</title>
<path fill="none" stroke="midnightblue" d="M174.176,-20C182.743,-20 191.402,-20 199.9,-20"/>
<polygon fill="midnightblue" stroke="midnightblue" points="174.175,-16.5001 164.175,-20 174.175,-23.5001 174.175,-16.5001"/>
</g>
</g>
</svg>
