<?xml version="1.0" encoding="UTF-8" standalone="no"?>
<!DOCTYPE svg PUBLIC "-//W3C//DTD SVG 1.1//EN"
 "http://www.w3.org/Graphics/SVG/1.1/DTD/svg11.dtd">
<!-- Generated by graphviz version 2.36.0 (20140111.2315)
 -->
<!-- Title: authoring.view.propertiesview.PropertiesView Pages: 1 -->
<!--zoomable 851 -->
<svg id="main" version="1.1" xmlns="http://www.w3.org/2000/svg" xmlns:xlink="http://www.w3.org/1999/xlink" xml:space="preserve" onload="init(evt)">
<style type="text/css"><![CDATA[
.edge:hover path { stroke: red; }
.edge:hover polygon { stroke: red; fill: red; }
]]></style>
<script type="text/javascript"><![CDATA[
var edges = document.getElementsByTagName('g');
if (edges && edges.length) {
  for (var i=0;i<edges.length;i++) {
    if (edges[i].id.substr(0,4)=='edge') {
      edges[i].setAttribute('class','edge');
    }
  }
}
]]></script>
        <defs>
                <circle id="rim" cx="0" cy="0" r="7"/>
                <circle id="rim2" cx="0" cy="0" r="3.5"/>
                <g id="zoomPlus">
                        <use xlink:href="#rim" fill="#404040">
                                <set attributeName="fill" to="#808080" begin="zoomplus.mouseover" end="zoomplus.mouseout"/>
                        </use>
                        <path d="M-4,0h8M0,-4v8" fill="none" stroke="white" stroke-width="1.5" pointer-events="none"/>
                </g>
                <g id="zoomMin">
                        <use xlink:href="#rim" fill="#404040">
                                <set attributeName="fill" to="#808080" begin="zoomminus.mouseover" end="zoomminus.mouseout"/>
                        </use>
                        <path d="M-4,0h8" fill="none" stroke="white" stroke-width="1.5" pointer-events="none"/>
                </g>
                <g id="dirArrow">
                        <path fill="none" stroke="white" stroke-width="1.5" d="M0,-3.0v7 M-2.5,-0.5L0,-3.0L2.5,-0.5"/>
                </g>
               <g id="resetDef">
                       <use xlink:href="#rim2" fill="#404040">
                               <set attributeName="fill" to="#808080" begin="reset.mouseover" end="reset.mouseout"/>
                       </use>
               </g>
        </defs>

<script type="text/javascript">
var viewWidth = 1482;
var viewHeight = 851;
var sectionId = 'dynsection-1';
</script>
<script xlink:href="../../svgpan.js"/>
<svg id="graph" class="graph">
<g id="viewport">
<title>authoring.view.propertiesview.PropertiesView</title>
<polygon fill="white" stroke="none" points="-4,4 -4,-847 1478,-847 1478,4 -4,4"/>
<!-- Node1 -->
<g id="node1" class="node"><title>Node1</title>
<polygon fill="#bfbfbf" stroke="black" points="1314.5,-631 1314.5,-661 1473.5,-661 1473.5,-631 1314.5,-631"/>
<text text-anchor="start" x="1322.5" y="-649" font-family="Helvetica,sans-Serif" font-size="10.00">authoring.view.propertiesview.</text>
<text text-anchor="middle" x="1394" y="-638" font-family="Helvetica,sans-Serif" font-size="10.00">PropertiesView</text>
</g>
<!-- Node2 -->
<g id="node2" class="node"><title>Node2</title>
<g id="a_node2"><a xlink:href="../../de/d93/classauthoring_1_1view_1_1baseclasses_1_1_collection_view.html" target="_top" xlink:title="authoring.view.baseclasses.\lCollectionView">
<polygon fill="white" stroke="black" points="982.5,-769 982.5,-799 1131.5,-799 1131.5,-769 982.5,-769"/>
<text text-anchor="start" x="990.5" y="-787" font-family="Helvetica,sans-Serif" font-size="10.00">authoring.view.baseclasses.</text>
<text text-anchor="middle" x="1057" y="-776" font-family="Helvetica,sans-Serif" font-size="10.00">CollectionView</text>
</a>
</g>
</g>
<!-- Node2&#45;&gt;Node1 -->
<g id="edge1" class="edge"><title>Node2&#45;&gt;Node1</title>
<path fill="none" stroke="midnightblue" d="M1141.89,-781.448C1189.36,-777.08 1248.52,-766.563 1296,-742 1333.88,-722.403 1366.45,-682.903 1382.44,-661.178"/>
<polygon fill="midnightblue" stroke="midnightblue" points="1141.31,-777.984 1131.64,-782.313 1141.9,-784.959 1141.31,-777.984"/>
</g>
<!-- Node3 -->
<g id="node3" class="node"><title>Node3</title>
<polygon fill="white" stroke="#bfbfbf" points="678,-823.5 678,-842.5 744,-842.5 744,-823.5 678,-823.5"/>
<text text-anchor="middle" x="711" y="-830.5" font-family="Helvetica,sans-Serif" font-size="10.00">ScrollPane</text>
</g>
<!-- Node3&#45;&gt;Node2 -->
<g id="edge2" class="edge"><title>Node3&#45;&gt;Node2</title>
<path fill="none" stroke="midnightblue" d="M754.374,-829.131C802.443,-824.493 883.105,-815.955 952,-805 962.915,-803.264 974.426,-801.189 985.655,-799.028"/>
<polygon fill="midnightblue" stroke="midnightblue" points="753.959,-825.655 744.337,-830.088 754.624,-832.623 753.959,-825.655"/>
</g>
<!-- Node4 -->
<g id="node4" class="node"><title>Node4</title>
<polygon fill="white" stroke="#bfbfbf" points="664.5,-785.5 664.5,-804.5 757.5,-804.5 757.5,-785.5 664.5,-785.5"/>
<text text-anchor="middle" x="711" y="-792.5" font-family="Helvetica,sans-Serif" font-size="10.00">ResourceBundle</text>
</g>
<!-- Node4&#45;&gt;Node2 -->
<g id="edge3" class="edge"><title>Node4&#45;&gt;Node2</title>
<path fill="none" stroke="#9a32cd" stroke-dasharray="5,2" d="M767.821,-793.215C826.206,-791.348 918.128,-788.409 982.411,-786.353"/>
<polygon fill="#9a32cd" stroke="#9a32cd" points="767.564,-789.721 757.681,-793.539 767.787,-796.718 767.564,-789.721"/>
<text text-anchor="middle" x="897" y="-793" font-family="Helvetica,sans-Serif" font-size="10.00"> myLanguage</text>
</g>
<!-- Node5 -->
<g id="node5" class="node"><title>Node5</title>
<g id="a_node5"><a xlink:href="../../d3/d6a/interfaceauthoring_1_1eventhandlers_1_1_game_handler.html" target="_top" xlink:title="authoring.eventhandlers.\lGameHandler\&lt; T extends\l Event \&gt;">
<polygon fill="white" stroke="black" points="640.5,-707.5 640.5,-748.5 781.5,-748.5 781.5,-707.5 640.5,-707.5"/>
<text text-anchor="start" x="648.5" y="-736.5" font-family="Helvetica,sans-Serif" font-size="10.00">authoring.eventhandlers.</text>
<text text-anchor="start" x="648.5" y="-725.5" font-family="Helvetica,sans-Serif" font-size="10.00">GameHandler&lt; T extends</text>
<text text-anchor="middle" x="711" y="-714.5" font-family="Helvetica,sans-Serif" font-size="10.00"> Event &gt;</text>
</a>
</g>
</g>
<!-- Node5&#45;&gt;Node1 -->
<g id="edge37" class="edge"><title>Node5&#45;&gt;Node1</title>
<path fill="none" stroke="#9a32cd" stroke-dasharray="5,2" d="M791.79,-725.241C838.561,-723.151 898.735,-719.647 952,-714 1079.49,-700.483 1226.45,-676.023 1314.43,-660.418"/>
<polygon fill="#9a32cd" stroke="#9a32cd" points="791.558,-721.747 781.72,-725.678 791.862,-728.741 791.558,-721.747"/>
<text text-anchor="middle" x="1057" y="-714" font-family="Helvetica,sans-Serif" font-size="10.00"> myButtonBehaviors</text>
</g>
<!-- Node5&#45;&gt;Node2 -->
<g id="edge4" class="edge"><title>Node5&#45;&gt;Node2</title>
<path fill="none" stroke="#9a32cd" stroke-dasharray="5,2" d="M791.75,-740.983C849.247,-750.343 926.277,-762.882 982.329,-772.007"/>
<polygon fill="#9a32cd" stroke="#9a32cd" points="792.046,-737.485 781.614,-739.332 790.921,-744.394 792.046,-737.485"/>
<text text-anchor="middle" x="897" y="-768" font-family="Helvetica,sans-Serif" font-size="10.00"> myIconEvents</text>
</g>
<!-- Node8 -->
<g id="node8" class="node"><title>Node8</title>
<g id="a_node8"><a xlink:href="../../da/d8d/classauthoring_1_1view_1_1propertiesview_1_1_game_object_properties.html" target="_top" xlink:title="authoring.view.propertiesview.\lGameObjectProperties">
<polygon fill="white" stroke="black" points="977.5,-575 977.5,-605 1136.5,-605 1136.5,-575 977.5,-575"/>
<text text-anchor="start" x="985.5" y="-593" font-family="Helvetica,sans-Serif" font-size="10.00">authoring.view.propertiesview.</text>
<text text-anchor="middle" x="1057" y="-582" font-family="Helvetica,sans-Serif" font-size="10.00">GameObjectProperties</text>
</a>
</g>
</g>
<!-- Node5&#45;&gt;Node8 -->
<g id="edge15" class="edge"><title>Node5&#45;&gt;Node8</title>
<path fill="none" stroke="#9a32cd" stroke-dasharray="5,2" d="M773.007,-703.938C794.588,-695.963 819.174,-687.478 842,-681 890.049,-667.364 905.854,-677.109 952,-658 984.488,-644.547 1017.77,-620.658 1037.66,-605.076"/>
<polygon fill="#9a32cd" stroke="#9a32cd" points="771.783,-700.659 763.64,-707.436 774.232,-707.216 771.783,-700.659"/>
<text text-anchor="middle" x="897" y="-706" font-family="Helvetica,sans-Serif" font-size="10.00"> myDeleteHandler</text>
<text text-anchor="middle" x="897" y="-695" font-family="Helvetica,sans-Serif" font-size="10.00">mySaveAsNewHandler</text>
<text text-anchor="middle" x="897" y="-684" font-family="Helvetica,sans-Serif" font-size="10.00">myEditHandler</text>
</g>
<!-- Node6 -->
<g id="node6" class="node"><title>Node6</title>
<polygon fill="white" stroke="#bfbfbf" points="245,-718.5 245,-737.5 421,-737.5 421,-718.5 245,-718.5"/>
<text text-anchor="middle" x="333" y="-725.5" font-family="Helvetica,sans-Serif" font-size="10.00">javafx::event::EventHandler&lt; T &gt;</text>
</g>
<!-- Node6&#45;&gt;Node5 -->
<g id="edge5" class="edge"><title>Node6&#45;&gt;Node5</title>
<path fill="none" stroke="midnightblue" d="M431.532,-728C496.932,-728 581.511,-728 640.213,-728"/>
<polygon fill="midnightblue" stroke="midnightblue" points="431.207,-724.5 421.207,-728 431.207,-731.5 431.207,-724.5"/>
</g>
<!-- Node7 -->
<g id="node7" class="node"><title>Node7</title>
<polygon fill="white" stroke="#bfbfbf" points="312.5,-633.5 312.5,-652.5 353.5,-652.5 353.5,-633.5 312.5,-633.5"/>
<text text-anchor="middle" x="333" y="-640.5" font-family="Helvetica,sans-Serif" font-size="10.00">VBox</text>
</g>
<!-- Node7&#45;&gt;Node1 -->
<g id="edge6" class="edge"><title>Node7&#45;&gt;Node1</title>
<path fill="none" stroke="#9a32cd" stroke-dasharray="5,2" d="M364.159,-643.085C504.826,-643.484 1098.69,-645.166 1314.33,-645.777"/>
<polygon fill="#9a32cd" stroke="#9a32cd" points="363.754,-639.584 353.745,-643.056 363.735,-646.584 363.754,-639.584"/>
<text text-anchor="middle" x="897" y="-647" font-family="Helvetica,sans-Serif" font-size="10.00"> myContents</text>
</g>
<!-- Node9 -->
<g id="node9" class="node"><title>Node9</title>
<g id="a_node9"><a xlink:href="../../de/d73/classauthoring_1_1view_1_1propertiesview_1_1_properties.html" target="_top" xlink:title="authoring.view.propertiesview.\lProperties">
<polygon fill="white" stroke="black" points="631.5,-587 631.5,-617 790.5,-617 790.5,-587 631.5,-587"/>
<text text-anchor="start" x="639.5" y="-605" font-family="Helvetica,sans-Serif" font-size="10.00">authoring.view.propertiesview.</text>
<text text-anchor="middle" x="711" y="-594" font-family="Helvetica,sans-Serif" font-size="10.00">Properties</text>
</a>
</g>
</g>
<!-- Node7&#45;&gt;Node9 -->
<g id="edge9" class="edge"><title>Node7&#45;&gt;Node9</title>
<path fill="none" stroke="midnightblue" d="M363.866,-639.743C421.167,-633.495 548.224,-619.64 631.423,-610.568"/>
<polygon fill="midnightblue" stroke="midnightblue" points="363.248,-636.29 353.686,-640.853 364.007,-643.249 363.248,-636.29"/>
</g>
<!-- Node8&#45;&gt;Node1 -->
<g id="edge7" class="edge"><title>Node8&#45;&gt;Node1</title>
<path fill="none" stroke="#9a32cd" stroke-dasharray="5,2" d="M1146.65,-598.928C1191.61,-604.118 1246.93,-611.519 1296,-621 1310.26,-623.755 1325.53,-627.373 1339.65,-630.997"/>
<polygon fill="#9a32cd" stroke="#9a32cd" points="1146.97,-595.442 1136.64,-597.789 1146.18,-602.397 1146.97,-595.442"/>
<text text-anchor="middle" x="1229" y="-624" font-family="Helvetica,sans-Serif" font-size="10.00"> myGameObjectsProperties</text>
</g>
<!-- Node9&#45;&gt;Node8 -->
<g id="edge8" class="edge"><title>Node9&#45;&gt;Node8</title>
<path fill="none" stroke="midnightblue" d="M800.939,-598.897C855.551,-596.992 924.864,-594.575 977.447,-592.74"/>
<polygon fill="midnightblue" stroke="midnightblue" points="800.792,-595.4 790.921,-599.247 801.037,-602.396 800.792,-595.4"/>
</g>
<!-- Node10 -->
<g id="node10" class="node"><title>Node10</title>
<polygon fill="white" stroke="#bfbfbf" points="220.5,-580 220.5,-610 445.5,-610 445.5,-580 220.5,-580"/>
<text text-anchor="start" x="228.5" y="-598" font-family="Helvetica,sans-Serif" font-size="10.00">Map&lt; String, authoring.view.propertiesview.</text>
<text text-anchor="middle" x="333" y="-587" font-family="Helvetica,sans-Serif" font-size="10.00">PropertyField &gt;</text>
</g>
<!-- Node10&#45;&gt;Node9 -->
<g id="edge10" class="edge"><title>Node10&#45;&gt;Node9</title>
<path fill="none" stroke="#9a32cd" stroke-dasharray="5,2" d="M455.985,-594.483C495.552,-594.586 539.644,-594.987 580,-596 596.601,-596.417 614.385,-597.089 631.305,-597.835"/>
<polygon fill="#9a32cd" stroke="#9a32cd" points="455.767,-590.982 445.76,-594.462 455.753,-597.982 455.767,-590.982"/>
<text text-anchor="middle" x="522" y="-599" font-family="Helvetica,sans-Serif" font-size="10.00"> myMap</text>
</g>
<!-- Node11 -->
<g id="node11" class="node"><title>Node11</title>
<polygon fill="white" stroke="#bfbfbf" points="640.5,-548.5 640.5,-567.5 781.5,-567.5 781.5,-548.5 640.5,-548.5"/>
<text text-anchor="middle" x="711" y="-555.5" font-family="Helvetica,sans-Serif" font-size="10.00">Map&lt; String, CheckBox &gt;</text>
</g>
<!-- Node11&#45;&gt;Node8 -->
<g id="edge11" class="edge"><title>Node11&#45;&gt;Node8</title>
<path fill="none" stroke="#9a32cd" stroke-dasharray="5,2" d="M791.669,-564.607C838.398,-568.574 898.572,-573.837 952,-579 960.223,-579.795 968.808,-580.654 977.367,-581.531"/>
<polygon fill="#9a32cd" stroke="#9a32cd" points="791.867,-561.112 781.607,-563.756 791.277,-568.087 791.867,-561.112"/>
<text text-anchor="middle" x="897" y="-582" font-family="Helvetica,sans-Serif" font-size="10.00"> booleanProperties</text>
</g>
<!-- Node12 -->
<g id="node12" class="node"><title>Node12</title>
<polygon fill="white" stroke="#bfbfbf" points="598.5,-497 598.5,-527 823.5,-527 823.5,-497 598.5,-497"/>
<text text-anchor="start" x="606.5" y="-515" font-family="Helvetica,sans-Serif" font-size="10.00">Map&lt; String, authoring.view.propertiesview.</text>
<text text-anchor="middle" x="711" y="-504" font-family="Helvetica,sans-Serif" font-size="10.00">PropertyTextField &gt;</text>
</g>
<!-- Node12&#45;&gt;Node8 -->
<g id="edge12" class="edge"><title>Node12&#45;&gt;Node8</title>
<path fill="none" stroke="#9a32cd" stroke-dasharray="5,2" d="M834.014,-504.567C872.522,-505.513 914.727,-510.046 952,-522 986.1,-532.936 1019.71,-558.282 1039.12,-574.751"/>
<polygon fill="#9a32cd" stroke="#9a32cd" points="833.841,-501.064 823.785,-504.397 833.725,-508.063 833.841,-501.064"/>
<text text-anchor="middle" x="897" y="-558" font-family="Helvetica,sans-Serif" font-size="10.00"> physicsProperties</text>
<text text-anchor="middle" x="897" y="-547" font-family="Helvetica,sans-Serif" font-size="10.00">wizardProperties</text>
<text text-anchor="middle" x="897" y="-536" font-family="Helvetica,sans-Serif" font-size="10.00">concreteTextProperties</text>
<text text-anchor="middle" x="897" y="-525" font-family="Helvetica,sans-Serif" font-size="10.00">inherentTextProperties</text>
</g>
<!-- Node13 -->
<g id="node13" class="node"><title>Node13</title>
<g id="a_node13"><a xlink:href="../../dd/db2/classauthoring_1_1view_1_1baseclasses_1_1_accordion_container.html" target="_top" xlink:title="authoring.view.baseclasses.\lAccordionContainer">
<polygon fill="white" stroke="black" points="636.5,-448 636.5,-478 785.5,-478 785.5,-448 636.5,-448"/>
<text text-anchor="start" x="644.5" y="-466" font-family="Helvetica,sans-Serif" font-size="10.00">authoring.view.baseclasses.</text>
<text text-anchor="middle" x="711" y="-455" font-family="Helvetica,sans-Serif" font-size="10.00">AccordionContainer</text>
</a>
</g>
</g>
<!-- Node13&#45;&gt;Node8 -->
<g id="edge13" class="edge"><title>Node13&#45;&gt;Node8</title>
<path fill="none" stroke="#9a32cd" stroke-dasharray="5,2" d="M795.673,-459.397C843.509,-460.453 903.454,-467.21 952,-490 993.493,-509.479 1028.81,-552.209 1045.57,-574.995"/>
<polygon fill="#9a32cd" stroke="#9a32cd" points="795.706,-455.897 785.657,-459.254 795.606,-462.897 795.706,-455.897"/>
<text text-anchor="middle" x="897" y="-493" font-family="Helvetica,sans-Serif" font-size="10.00"> myAccordion</text>
</g>
<!-- Node14 -->
<g id="node14" class="node"><title>Node14</title>
<polygon fill="white" stroke="#bfbfbf" points="301,-488.5 301,-507.5 365,-507.5 365,-488.5 301,-488.5"/>
<text text-anchor="middle" x="333" y="-495.5" font-family="Helvetica,sans-Serif" font-size="10.00">Accordion</text>
</g>
<!-- Node14&#45;&gt;Node13 -->
<g id="edge14" class="edge"><title>Node14&#45;&gt;Node13</title>
<path fill="none" stroke="midnightblue" d="M375.39,-494.147C438.172,-488.303 558.396,-477.112 636.34,-469.857"/>
<polygon fill="midnightblue" stroke="midnightblue" points="374.722,-490.694 365.09,-495.106 375.371,-497.664 374.722,-490.694"/>
</g>
<!-- Node15 -->
<g id="node15" class="node"><title>Node15</title>
<g id="a_node15"><a xlink:href="../../d0/d7f/classengine_1_1game_object_1_1_game_object.html" target="_top" xlink:title="engine.gameObject.GameObject">
<polygon fill="white" stroke="black" points="970.5,-217.5 970.5,-236.5 1143.5,-236.5 1143.5,-217.5 970.5,-217.5"/>
<text text-anchor="middle" x="1057" y="-224.5" font-family="Helvetica,sans-Serif" font-size="10.00">engine.gameObject.GameObject</text>
</a>
</g>
</g>
<!-- Node15&#45;&gt;Node1 -->
<g id="edge16" class="edge"><title>Node15&#45;&gt;Node1</title>
<path fill="none" stroke="#9a32cd" stroke-dasharray="5,2" d="M1072.19,-244.747C1127.68,-314.155 1329.49,-566.567 1380.98,-630.964"/>
<polygon fill="#9a32cd" stroke="#9a32cd" points="1074.6,-242.164 1065.63,-236.539 1069.14,-246.535 1074.6,-242.164"/>
<text text-anchor="middle" x="1229" y="-526" font-family="Helvetica,sans-Serif" font-size="10.00"> myCurrentGameObject</text>
</g>
<!-- Node16 -->
<g id="node16" class="node"><title>Node16</title>
<g id="a_node16"><a xlink:href="../../d7/de6/interfaceengine_1_1game_object_1_1_i_enabled.html" target="_top" xlink:title="engine.gameObject.IEnabled">
<polygon fill="white" stroke="black" points="634,-236.5 634,-255.5 788,-255.5 788,-236.5 634,-236.5"/>
<text text-anchor="middle" x="711" y="-243.5" font-family="Helvetica,sans-Serif" font-size="10.00">engine.gameObject.IEnabled</text>
</a>
</g>
</g>
<!-- Node16&#45;&gt;Node15 -->
<g id="edge17" class="edge"><title>Node16&#45;&gt;Node15</title>
<path fill="none" stroke="midnightblue" d="M798.646,-241.214C851.142,-238.315 917.848,-234.63 970.192,-231.739"/>
<polygon fill="midnightblue" stroke="midnightblue" points="798.136,-237.737 788.345,-241.783 798.523,-244.726 798.136,-237.737"/>
</g>
<!-- Node17 -->
<g id="node17" class="node"><title>Node17</title>
<polygon fill="white" stroke="#bfbfbf" points="645.5,-198.5 645.5,-217.5 776.5,-217.5 776.5,-198.5 645.5,-198.5"/>
<text text-anchor="middle" x="711" y="-205.5" font-family="Helvetica,sans-Serif" font-size="10.00">Iterable&lt; Component &gt;</text>
</g>
<!-- Node17&#45;&gt;Node15 -->
<g id="edge18" class="edge"><title>Node17&#45;&gt;Node15</title>
<path fill="none" stroke="midnightblue" d="M786.912,-212.138C840.984,-215.124 914.094,-219.162 970.46,-222.275"/>
<polygon fill="midnightblue" stroke="midnightblue" points="786.882,-208.631 776.704,-211.574 786.495,-215.62 786.882,-208.631"/>
</g>
<!-- Node18 -->
<g id="node18" class="node"><title>Node18</title>
<g id="a_node18"><a xlink:href="../../dc/df6/interfaceengine_1_1game_object_1_1_identifiable.html" target="_top" xlink:title="engine.gameObject.Identifiable">
<polygon fill="white" stroke="black" points="628.5,-160.5 628.5,-179.5 793.5,-179.5 793.5,-160.5 628.5,-160.5"/>
<text text-anchor="middle" x="711" y="-167.5" font-family="Helvetica,sans-Serif" font-size="10.00">engine.gameObject.Identifiable</text>
</a>
</g>
</g>
<!-- Node18&#45;&gt;Node15 -->
<g id="edge19" class="edge"><title>Node18&#45;&gt;Node15</title>
<path fill="none" stroke="midnightblue" d="M779.552,-181.193C843.413,-191.775 938.192,-207.48 998.521,-217.476"/>
<polygon fill="midnightblue" stroke="midnightblue" points="780.016,-177.722 769.578,-179.541 778.871,-184.628 780.016,-177.722"/>
</g>
<!-- Node19 -->
<g id="node19" class="node"><title>Node19</title>
<g id="a_node19"><a xlink:href="../../d4/dac/classengine_1_1game_object_1_1_identifier.html" target="_top" xlink:title="engine.gameObject.Identifier">
<polygon fill="white" stroke="black" points="633.5,-122.5 633.5,-141.5 788.5,-141.5 788.5,-122.5 633.5,-122.5"/>
<text text-anchor="middle" x="711" y="-129.5" font-family="Helvetica,sans-Serif" font-size="10.00">engine.gameObject.Identifier</text>
</a>
</g>
</g>
<!-- Node19&#45;&gt;Node15 -->
<g id="edge20" class="edge"><title>Node19&#45;&gt;Node15</title>
<path fill="none" stroke="#9a32cd" stroke-dasharray="5,2" d="M798.507,-142.29C844.827,-149.27 902.397,-160.326 952,-177 984.093,-187.788 1019.14,-206.122 1039.25,-217.339"/>
<polygon fill="#9a32cd" stroke="#9a32cd" points="798.903,-138.81 788.501,-140.818 797.885,-145.736 798.903,-138.81"/>
<text text-anchor="middle" x="897" y="-180" font-family="Helvetica,sans-Serif" font-size="10.00"> myId</text>
</g>
<!-- Node20 -->
<g id="node20" class="node"><title>Node20</title>
<g id="a_node20"><a xlink:href="../../da/d35/classengine_1_1scrolling_1_1_scrolling_utility.html" target="_top" xlink:title="engine.scrolling.Scrolling\lUtility">
<polygon fill="white" stroke="black" points="644,-10 644,-40 778,-40 778,-10 644,-10"/>
<text text-anchor="start" x="652" y="-28" font-family="Helvetica,sans-Serif" font-size="10.00">engine.scrolling.Scrolling</text>
<text text-anchor="middle" x="711" y="-17" font-family="Helvetica,sans-Serif" font-size="10.00">Utility</text>
</a>
</g>
</g>
<!-- Node20&#45;&gt;Node15 -->
<g id="edge21" class="edge"><title>Node20&#45;&gt;Node15</title>
<path fill="none" stroke="#9a32cd" stroke-dasharray="5,2" d="M788.365,-31.5009C838.406,-38.7874 903.317,-54.2384 952,-87 1004,-121.992 1039.9,-191.931 1051.74,-217.422"/>
<polygon fill="#9a32cd" stroke="#9a32cd" points="788.629,-28.0043 778.245,-30.1082 787.674,-34.9389 788.629,-28.0043"/>
<text text-anchor="middle" x="897" y="-90" font-family="Helvetica,sans-Serif" font-size="10.00"> myScrollingUtility</text>
</g>
<!-- Node21 -->
<g id="node21" class="node"><title>Node21</title>
<polygon fill="white" stroke="#bfbfbf" points="305.5,-0.5 305.5,-19.5 360.5,-19.5 360.5,-0.5 305.5,-0.5"/>
<text text-anchor="middle" x="333" y="-7.5" font-family="Helvetica,sans-Serif" font-size="10.00">Camera</text>
</g>
<!-- Node21&#45;&gt;Node20 -->
<g id="edge22" class="edge"><title>Node21&#45;&gt;Node20</title>
<path fill="none" stroke="#9a32cd" stroke-dasharray="5,2" d="M371.047,-11.4779C434.427,-14.0064 564.484,-19.1948 643.786,-22.3585"/>
<polygon fill="#9a32cd" stroke="#9a32cd" points="370.871,-7.96823 360.74,-11.0667 370.592,-14.9627 370.871,-7.96823"/>
<text text-anchor="middle" x="522" y="-23" font-family="Helvetica,sans-Serif" font-size="10.00"> myCamera</text>
</g>
<!-- Node22 -->
<g id="node22" class="node"><title>Node22</title>
<polygon fill="white" stroke="#bfbfbf" points="231,-282 231,-312 435,-312 435,-282 231,-282"/>
<text text-anchor="start" x="239" y="-300" font-family="Helvetica,sans-Serif" font-size="10.00">List&lt; engine.gameObject.components.</text>
<text text-anchor="middle" x="333" y="-289" font-family="Helvetica,sans-Serif" font-size="10.00">Component &gt;</text>
</g>
<!-- Node22&#45;&gt;Node15 -->
<g id="edge23" class="edge"><title>Node22&#45;&gt;Node15</title>
<path fill="none" stroke="#9a32cd" stroke-dasharray="5,2" d="M445.319,-294.638C569.625,-290.588 776.43,-279.623 952,-250 973.699,-246.339 997.697,-241.112 1017.17,-236.565"/>
<polygon fill="#9a32cd" stroke="#9a32cd" points="444.918,-291.149 435.034,-294.963 445.139,-298.145 444.918,-291.149"/>
<text text-anchor="middle" x="711" y="-291" font-family="Helvetica,sans-Serif" font-size="10.00"> myComponents</text>
</g>
<!-- Node34 -->
<g id="node34" class="node"><title>Node34</title>
<g id="a_node34"><a xlink:href="../../d6/d66/classengine_1_1game_object_1_1_default_data.html" target="_top" xlink:title="engine.gameObject.DefaultData">
<polygon fill="white" stroke="black" points="625.5,-321.5 625.5,-340.5 796.5,-340.5 796.5,-321.5 625.5,-321.5"/>
<text text-anchor="middle" x="711" y="-328.5" font-family="Helvetica,sans-Serif" font-size="10.00">engine.gameObject.DefaultData</text>
</a>
</g>
</g>
<!-- Node22&#45;&gt;Node34 -->
<g id="edge36" class="edge"><title>Node22&#45;&gt;Node34</title>
<path fill="none" stroke="#9a32cd" stroke-dasharray="5,2" d="M445.501,-307.083C503.108,-312.292 572.267,-318.545 625.417,-323.352"/>
<polygon fill="#9a32cd" stroke="#9a32cd" points="445.53,-303.571 435.256,-306.156 444.9,-310.543 445.53,-303.571"/>
<text text-anchor="middle" x="522" y="-323" font-family="Helvetica,sans-Serif" font-size="10.00"> myComponents</text>
</g>
<!-- Node23 -->
<g id="node23" class="node"><title>Node23</title>
<g id="a_node23"><a xlink:href="../../d2/d82/classengine_1_1render_1_1_rendered_node.html" target="_top" xlink:title="engine.render.RenderedNode">
<polygon fill="white" stroke="black" points="633,-374.5 633,-393.5 789,-393.5 789,-374.5 633,-374.5"/>
<text text-anchor="middle" x="711" y="-381.5" font-family="Helvetica,sans-Serif" font-size="10.00">engine.render.RenderedNode</text>
</a>
</g>
</g>
<!-- Node23&#45;&gt;Node15 -->
<g id="edge24" class="edge"><title>Node23&#45;&gt;Node15</title>
<path fill="none" stroke="#9a32cd" stroke-dasharray="5,2" d="M799.046,-384.427C846.794,-381.284 905.549,-371.666 952,-346 1000.75,-319.063 1037.58,-260.019 1050.74,-236.726"/>
<polygon fill="#9a32cd" stroke="#9a32cd" points="798.815,-380.935 789.032,-385.003 799.217,-387.923 798.815,-380.935"/>
<text text-anchor="middle" x="897" y="-383" font-family="Helvetica,sans-Serif" font-size="10.00"> myRenderedNode</text>
</g>
<!-- Node24 -->
<g id="node24" class="node"><title>Node24</title>
<polygon fill="white" stroke="#bfbfbf" points="310,-336.5 310,-355.5 356,-355.5 356,-336.5 310,-336.5"/>
<text text-anchor="middle" x="333" y="-343.5" font-family="Helvetica,sans-Serif" font-size="10.00">Group</text>
</g>
<!-- Node24&#45;&gt;Node23 -->
<g id="edge25" class="edge"><title>Node24&#45;&gt;Node23</title>
<path fill="none" stroke="midnightblue" d="M366.275,-349.262C424.996,-355.196 550.8,-367.911 632.827,-376.201"/>
<polygon fill="midnightblue" stroke="midnightblue" points="366.418,-345.759 356.117,-348.235 365.714,-352.723 366.418,-345.759"/>
</g>
<!-- Node25 -->
<g id="node25" class="node"><title>Node25</title>
<polygon fill="white" stroke="#bfbfbf" points="312,-450.5 312,-469.5 354,-469.5 354,-450.5 312,-450.5"/>
<text text-anchor="middle" x="333" y="-457.5" font-family="Helvetica,sans-Serif" font-size="10.00">Label</text>
</g>
<!-- Node25&#45;&gt;Node23 -->
<g id="edge26" class="edge"><title>Node25&#45;&gt;Node23</title>
<path fill="none" stroke="#9a32cd" stroke-dasharray="5,2" d="M364.376,-457.527C411.139,-453.334 503.382,-443.529 580,-426 617.224,-417.484 659.045,-403.067 684.958,-393.54"/>
<polygon fill="#9a32cd" stroke="#9a32cd" points="363.964,-454.05 354.306,-458.406 364.572,-461.023 363.964,-454.05"/>
<text text-anchor="middle" x="522" y="-450" font-family="Helvetica,sans-Serif" font-size="10.00"> myLabel</text>
</g>
<!-- Node26 -->
<g id="node26" class="node"><title>Node26</title>
<polygon fill="white" stroke="#bfbfbf" points="299,-412.5 299,-431.5 367,-431.5 367,-412.5 299,-412.5"/>
<text text-anchor="middle" x="333" y="-419.5" font-family="Helvetica,sans-Serif" font-size="10.00">ImageView</text>
</g>
<!-- Node26&#45;&gt;Node23 -->
<g id="edge27" class="edge"><title>Node26&#45;&gt;Node23</title>
<path fill="none" stroke="#9a32cd" stroke-dasharray="5,2" d="M377.312,-418.236C426.473,-413.898 509.053,-406.409 580,-399 597.06,-397.218 615.365,-395.183 632.696,-393.198"/>
<polygon fill="#9a32cd" stroke="#9a32cd" points="376.703,-414.776 367.048,-419.139 377.316,-421.749 376.703,-414.776"/>
<text text-anchor="middle" x="522" y="-414" font-family="Helvetica,sans-Serif" font-size="10.00"> myImageView</text>
</g>
<!-- Node27 -->
<g id="node27" class="node"><title>Node27</title>
<polygon fill="white" stroke="#bfbfbf" points="312,-374.5 312,-393.5 354,-393.5 354,-374.5 312,-374.5"/>
<text text-anchor="middle" x="333" y="-381.5" font-family="Helvetica,sans-Serif" font-size="10.00">Node</text>
</g>
<!-- Node27&#45;&gt;Node23 -->
<g id="edge28" class="edge"><title>Node27&#45;&gt;Node23</title>
<path fill="none" stroke="#9a32cd" stroke-dasharray="5,2" d="M364.523,-384C422.48,-384 550.061,-384 632.911,-384"/>
<polygon fill="#9a32cd" stroke="#9a32cd" points="364.215,-380.5 354.215,-384 364.215,-387.5 364.215,-380.5"/>
<text text-anchor="middle" x="522" y="-387" font-family="Helvetica,sans-Serif" font-size="10.00"> myCollisionBody</text>
</g>
<!-- Node28 -->
<g id="node28" class="node"><title>Node28</title>
<g id="a_node28"><a xlink:href="../../d9/d9d/classengine_1_1game_object_1_1components_1_1_physics_body.html" target="_top" xlink:title="engine.gameObject.components.\lPhysicsBody">
<polygon fill="white" stroke="black" points="623,-73 623,-103 799,-103 799,-73 623,-73"/>
<text text-anchor="start" x="631" y="-91" font-family="Helvetica,sans-Serif" font-size="10.00">engine.gameObject.components.</text>
<text text-anchor="middle" x="711" y="-80" font-family="Helvetica,sans-Serif" font-size="10.00">PhysicsBody</text>
</a>
</g>
</g>
<!-- Node28&#45;&gt;Node15 -->
<g id="edge29" class="edge"><title>Node28&#45;&gt;Node15</title>
<path fill="none" stroke="#9a32cd" stroke-dasharray="5,2" d="M809.186,-95.8103C854.39,-102.306 907.8,-114.205 952,-136 993.96,-156.69 1032.34,-198.66 1048.25,-217.486"/>
<polygon fill="#9a32cd" stroke="#9a32cd" points="809.461,-92.3153 799.079,-94.4271 808.512,-99.2506 809.461,-92.3153"/>
<text text-anchor="middle" x="897" y="-139" font-family="Helvetica,sans-Serif" font-size="10.00"> myPhysicsBody</text>
</g>
<!-- Node29 -->
<g id="node29" class="node"><title>Node29</title>
<polygon fill="white" stroke="#bfbfbf" points="255,-39 255,-69 411,-69 411,-39 255,-39"/>
<text text-anchor="start" x="263" y="-57" font-family="Helvetica,sans-Serif" font-size="10.00">Map&lt; String, engine.physics.</text>
<text text-anchor="middle" x="333" y="-46" font-family="Helvetica,sans-Serif" font-size="10.00">Scalar &gt;</text>
</g>
<!-- Node29&#45;&gt;Node28 -->
<g id="edge30" class="edge"><title>Node29&#45;&gt;Node28</title>
<path fill="none" stroke="#9a32cd" stroke-dasharray="5,2" d="M421.25,-59.3308C468.32,-62.4721 527.391,-66.841 580,-72 593.805,-73.3538 608.412,-74.9708 622.655,-76.6488"/>
<polygon fill="#9a32cd" stroke="#9a32cd" points="421.299,-55.8265 411.09,-58.6593 420.838,-62.8113 421.299,-55.8265"/>
<text text-anchor="middle" x="522" y="-75" font-family="Helvetica,sans-Serif" font-size="10.00"> myConstants</text>
</g>
<!-- Node30 -->
<g id="node30" class="node"><title>Node30</title>
<polygon fill="white" stroke="#bfbfbf" points="255,-173 255,-203 411,-203 411,-173 255,-173"/>
<text text-anchor="start" x="263" y="-191" font-family="Helvetica,sans-Serif" font-size="10.00">Map&lt; String, engine.physics.</text>
<text text-anchor="middle" x="333" y="-180" font-family="Helvetica,sans-Serif" font-size="10.00">Force &gt;</text>
</g>
<!-- Node30&#45;&gt;Node28 -->
<g id="edge31" class="edge"><title>Node30&#45;&gt;Node28</title>
<path fill="none" stroke="#9a32cd" stroke-dasharray="5,2" d="M421.195,-197.59C472.313,-198.565 535.397,-191.184 580,-157 596.77,-144.147 581.854,-126.628 598,-113 605.308,-106.832 613.813,-102.098 622.809,-98.4767"/>
<polygon fill="#9a32cd" stroke="#9a32cd" points="421.241,-194.09 411.14,-197.289 421.031,-201.087 421.241,-194.09"/>
<text text-anchor="middle" x="522" y="-199" font-family="Helvetica,sans-Serif" font-size="10.00"> myActiveForces</text>
</g>
<!-- Node31 -->
<g id="node31" class="node"><title>Node31</title>
<polygon fill="white" stroke="#bfbfbf" points="249.5,-134.5 249.5,-153.5 416.5,-153.5 416.5,-134.5 249.5,-134.5"/>
<text text-anchor="middle" x="333" y="-141.5" font-family="Helvetica,sans-Serif" font-size="10.00">List&lt; engine.physics.Impulse &gt;</text>
</g>
<!-- Node31&#45;&gt;Node28 -->
<g id="edge32" class="edge"><title>Node31&#45;&gt;Node28</title>
<path fill="none" stroke="#9a32cd" stroke-dasharray="5,2" d="M426.664,-143.857C473.401,-141.749 530.52,-136.037 580,-122 588.605,-119.559 589.573,-115.997 598,-113 608.606,-109.229 619.986,-105.904 631.282,-103.014"/>
<polygon fill="#9a32cd" stroke="#9a32cd" points="426.402,-140.365 416.551,-144.265 426.684,-147.359 426.402,-140.365"/>
<text text-anchor="middle" x="522" y="-145" font-family="Helvetica,sans-Serif" font-size="10.00"> myImpulses</text>
</g>
<!-- Node32 -->
<g id="node32" class="node"><title>Node32</title>
<g id="a_node32"><a xlink:href="../../d5/d1f/classengine_1_1physics_1_1_vector.html" target="_top" xlink:title="engine.physics.Vector">
<polygon fill="white" stroke="black" points="272.5,-88.5 272.5,-107.5 393.5,-107.5 393.5,-88.5 272.5,-88.5"/>
<text text-anchor="middle" x="333" y="-95.5" font-family="Helvetica,sans-Serif" font-size="10.00">engine.physics.Vector</text>
</a>
</g>
</g>
<!-- Node32&#45;&gt;Node28 -->
<g id="edge33" class="edge"><title>Node32&#45;&gt;Node28</title>
<path fill="none" stroke="#9a32cd" stroke-dasharray="5,2" d="M403.829,-92.3267C423.294,-90.9737 444.459,-89.7154 464,-89 516.71,-87.0703 575.815,-86.7698 622.877,-86.9756"/>
<polygon fill="#9a32cd" stroke="#9a32cd" points="403.548,-88.8377 393.823,-93.0405 404.046,-95.82 403.548,-88.8377"/>
<text text-anchor="middle" x="522" y="-114" font-family="Helvetica,sans-Serif" font-size="10.00"> myBalancedForcesMag</text>
<text text-anchor="middle" x="522" y="-103" font-family="Helvetica,sans-Serif" font-size="10.00">myVelocity</text>
<text text-anchor="middle" x="522" y="-92" font-family="Helvetica,sans-Serif" font-size="10.00">myAcceleration</text>
</g>
<!-- Node33 -->
<g id="node33" class="node"><title>Node33</title>
<g id="a_node33"><a xlink:href="../../dc/db5/classengine_1_1physics_1_1_physics_component.html" target="_top" xlink:title="engine.physics.PhysicsComponent">
<polygon fill="white" stroke="black" points="0,-88.5 0,-107.5 182,-107.5 182,-88.5 0,-88.5"/>
<text text-anchor="middle" x="91" y="-95.5" font-family="Helvetica,sans-Serif" font-size="10.00">engine.physics.PhysicsComponent</text>
</a>
</g>
</g>
<!-- Node33&#45;&gt;Node32 -->
<g id="edge34" class="edge"><title>Node33&#45;&gt;Node32</title>
<path fill="none" stroke="midnightblue" d="M192.403,-98C219.624,-98 248.228,-98 272.406,-98"/>
<polygon fill="midnightblue" stroke="midnightblue" points="192.05,-94.5001 182.05,-98 192.05,-101.5 192.05,-94.5001"/>
</g>
<!-- Node34&#45;&gt;Node15 -->
<g id="edge35" class="edge"><title>Node34&#45;&gt;Node15</title>
<path fill="none" stroke="#9a32cd" stroke-dasharray="5,2" d="M806.688,-332.859C852.031,-330.845 906.278,-324.088 952,-306 992.271,-290.069 1030.34,-253.934 1047.08,-236.612"/>
<polygon fill="#9a32cd" stroke="#9a32cd" points="806.422,-329.366 796.56,-333.237 806.684,-336.361 806.422,-329.366"/>
<text text-anchor="middle" x="897" y="-334" font-family="Helvetica,sans-Serif" font-size="10.00"> myDefaultData</text>
</g>
</g>
</svg>
        <g id="navigator" transform="translate(0 0)" fill="#404254">
                <rect fill="#f2f5e9" fill-opacity="0.5" stroke="#606060" stroke-width=".5" x="0" y="0" width="60" height="60"/>
                <use id="zoomplus" xlink:href="#zoomPlus" x="17" y="9" onmousedown="handleZoom(evt,'in')"/>
                <use id="zoomminus" xlink:href="#zoomMin" x="42" y="9" onmousedown="handleZoom(evt,'out')"/>
                <use id="reset" xlink:href="#resetDef" x="30" y="36" onmousedown="handleReset()"/>
                <g id="arrowUp" xlink:href="#dirArrow" transform="translate(30 24)" onmousedown="handlePan(0,-1)">
                  <use xlink:href="#rim" fill="#404040">
                        <set attributeName="fill" to="#808080" begin="arrowUp.mouseover" end="arrowUp.mouseout"/>
                  </use>
                  <path fill="none" stroke="white" stroke-width="1.5" d="M0,-3.0v7 M-2.5,-0.5L0,-3.0L2.5,-0.5"/>
                </g>
                <g id="arrowRight" xlink:href="#dirArrow" transform="rotate(90) translate(36 -43)" onmousedown="handlePan(1,0)">
                  <use xlink:href="#rim" fill="#404040">
                        <set attributeName="fill" to="#808080" begin="arrowRight.mouseover" end="arrowRight.mouseout"/>
                  </use>
                  <path fill="none" stroke="white" stroke-width="1.5" d="M0,-3.0v7 M-2.5,-0.5L0,-3.0L2.5,-0.5"/>
                </g>
                <g id="arrowDown" xlink:href="#dirArrow" transform="rotate(180) translate(-30 -48)" onmousedown="handlePan(0,1)">
                  <use xlink:href="#rim" fill="#404040">
                        <set attributeName="fill" to="#808080" begin="arrowDown.mouseover" end="arrowDown.mouseout"/>
                  </use>
                  <path fill="none" stroke="white" stroke-width="1.5" d="M0,-3.0v7 M-2.5,-0.5L0,-3.0L2.5,-0.5"/>
                </g>
                <g id="arrowLeft" xlink:href="#dirArrow" transform="rotate(270) translate(-36 17)" onmousedown="handlePan(-1,0)">
                  <use xlink:href="#rim" fill="#404040">
                        <set attributeName="fill" to="#808080" begin="arrowLeft.mouseover" end="arrowLeft.mouseout"/>
                  </use>
                  <path fill="none" stroke="white" stroke-width="1.5" d="M0,-3.0v7 M-2.5,-0.5L0,-3.0L2.5,-0.5"/>
                </g>
        </g>
        <svg viewBox="0 0 15 15" width="100%" height="30px" preserveAspectRatio="xMaxYMin meet">
         <g id="arrow_out" transform="scale(0.3 0.3)">
          <a xlink:href="classauthoring_1_1view_1_1propertiesview_1_1_properties_view__coll__graph_org.svg" target="_base">
           <rect id="button" ry="5" rx="5" y="6" x="6" height="38" width="38"
                fill="#f2f5e9" fill-opacity="0.5" stroke="#606060" stroke-width="1.0"/>
           <path id="arrow"
             d="M 11.500037,31.436501 C 11.940474,20.09759 22.043105,11.32322 32.158766,21.979434 L 37.068811,17.246167 C 37.068811,17.246167 37.088388,32 37.088388,32 L 22.160133,31.978069 C 22.160133,31.978069 26.997745,27.140456 26.997745,27.140456 C 18.528582,18.264221 13.291696,25.230495 11.500037,31.436501 z"
             style="fill:#404040;"/>
          </a>
         </g>
        </svg>
</svg>
