<?xml version="1.0" encoding="UTF-8" standalone="no"?>
<!DOCTYPE svg PUBLIC "-//W3C//DTD SVG 1.1//EN"
 "http://www.w3.org/Graphics/SVG/1.1/DTD/svg11.dtd">
<!-- Generated by graphviz version 2.36.0 (20140111.2315)
 -->
<!-- Title: data.DataManager.readGameFile Pages: 1 -->
<!--zoomable 115 -->
<svg id="main" version="1.1" xmlns="http://www.w3.org/2000/svg" xmlns:xlink="http://www.w3.org/1999/xlink" xml:space="preserve" onload="init(evt)">
<style type="text/css"><![CDATA[
.edge:hover path { stroke: red; }
.edge:hover polygon { stroke: red; fill: red; }
]]></style>
<script type="text/javascript"><![CDATA[
var edges = document.getElementsByTagName('g');
if (edges && edges.length) {
  for (var i=0;i<edges.length;i++) {
    if (edges[i].id.substr(0,4)=='edge') {
      edges[i].setAttribute('class','edge');
    }
  }
}
]]></script>
        <defs>
                <circle id="rim" cx="0" cy="0" r="7"/>
                <circle id="rim2" cx="0" cy="0" r="3.5"/>
                <g id="zoomPlus">
                        <use xlink:href="#rim" fill="#404040">
                                <set attributeName="fill" to="#808080" begin="zoomplus.mouseover" end="zoomplus.mouseout"/>
                        </use>
                        <path d="M-4,0h8M0,-4v8" fill="none" stroke="white" stroke-width="1.5" pointer-events="none"/>
                </g>
                <g id="zoomMin">
                        <use xlink:href="#rim" fill="#404040">
                                <set attributeName="fill" to="#808080" begin="zoomminus.mouseover" end="zoomminus.mouseout"/>
                        </use>
                        <path d="M-4,0h8" fill="none" stroke="white" stroke-width="1.5" pointer-events="none"/>
                </g>
                <g id="dirArrow">
                        <path fill="none" stroke="white" stroke-width="1.5" d="M0,-3.0v7 M-2.5,-0.5L0,-3.0L2.5,-0.5"/>
                </g>
               <g id="resetDef">
                       <use xlink:href="#rim2" fill="#404040">
                               <set attributeName="fill" to="#808080" begin="reset.mouseover" end="reset.mouseout"/>
                       </use>
               </g>
        </defs>

<script type="text/javascript">
var viewWidth = 1056;
var viewHeight = 115;
var sectionId = 'dynsection-6';
</script>
<script xlink:href="../../svgpan.js"/>
<svg id="graph" class="graph">
<g id="viewport">
<title>data.DataManager.readGameFile</title>
<polygon fill="white" stroke="none" points="-4,4 -4,-111 1052,-111 1052,4 -4,4"/>
<!-- Node1 -->
<g id="node1" class="node"><title>Node1</title>
<polygon fill="#bfbfbf" stroke="black" points="0.5,-49.5 0.5,-68.5 175.5,-68.5 175.5,-49.5 0.5,-49.5"/>
<text text-anchor="middle" x="88" y="-56.5" font-family="Helvetica,sans-Serif" font-size="10.00">data.DataManager.readGameFile</text>
</g>
<!-- Node2 -->
<g id="node2" class="node"><title>Node2</title>
<g id="a_node2"><a xlink:href="../../d1/d37/classengine_1_1actions_1_1_load_action.html#af92860bc56b712c077bb2d726a17a8aa" target="_top" xlink:title="engine.actions.LoadAction.execute">
<polygon fill="white" stroke="black" points="221,-87.5 221,-106.5 405,-106.5 405,-87.5 221,-87.5"/>
<text text-anchor="middle" x="313" y="-94.5" font-family="Helvetica,sans-Serif" font-size="10.00">engine.actions.LoadAction.execute</text>
</a>
</g>
</g>
<!-- Node1&#45;&gt;Node2 -->
<g id="edge1" class="edge"><title>Node1&#45;&gt;Node2</title>
<path fill="none" stroke="midnightblue" d="M155.172,-70.2759C187.254,-75.7429 225.371,-82.2381 255.992,-87.4561"/>
<polygon fill="midnightblue" stroke="midnightblue" points="155.43,-66.7696 144.984,-68.54 154.254,-73.6701 155.43,-66.7696"/>
</g>
<!-- Node3 -->
<g id="node3" class="node"><title>Node3</title>
<g id="a_node3"><a xlink:href="../../d3/df3/classauthoring_1_1view_1_1_program_menu.html#a10ecf01e628d3fa377f151a965424e50" target="_top" xlink:title="authoring.view.ProgramMenu.loadData">
<polygon fill="white" stroke="black" points="212,-49.5 212,-68.5 414,-68.5 414,-49.5 212,-49.5"/>
<text text-anchor="middle" x="313" y="-56.5" font-family="Helvetica,sans-Serif" font-size="10.00">authoring.view.ProgramMenu.loadData</text>
</a>
</g>
</g>
<!-- Node1&#45;&gt;Node3 -->
<g id="edge2" class="edge"><title>Node1&#45;&gt;Node3</title>
<path fill="none" stroke="midnightblue" d="M185.639,-59C194.302,-59 203.088,-59 211.781,-59"/>
<polygon fill="midnightblue" stroke="midnightblue" points="185.537,-55.5001 175.537,-59 185.537,-62.5001 185.537,-55.5001"/>
</g>
<!-- Node7 -->
<g id="node7" class="node"><title>Node7</title>
<g id="a_node7"><a xlink:href="../../d2/dc9/classgame_player_1_1model_1_1_player_model.html#a810c0b28ae81f5a27c5df5f83f907088" target="_top" xlink:title="gamePlayer.model.PlayerModel.load\lGameFile">
<polygon fill="white" stroke="black" points="218,-0 218,-30 408,-30 408,-0 218,-0"/>
<text text-anchor="start" x="226" y="-18" font-family="Helvetica,sans-Serif" font-size="10.00">gamePlayer.model.PlayerModel.load</text>
<text text-anchor="middle" x="313" y="-7" font-family="Helvetica,sans-Serif" font-size="10.00">GameFile</text>
</a>
</g>
</g>
<!-- Node1&#45;&gt;Node7 -->
<g id="edge6" class="edge"><title>Node1&#45;&gt;Node7</title>
<path fill="none" stroke="midnightblue" d="M147.441,-47.4691C174.409,-42.148 206.778,-35.7613 235.646,-30.0654"/>
<polygon fill="midnightblue" stroke="midnightblue" points="146.521,-44.083 137.388,-49.4527 147.876,-50.9506 146.521,-44.083"/>
</g>
<!-- Node4 -->
<g id="node4" class="node"><title>Node4</title>
<g id="a_node4"><a xlink:href="../../d3/df3/classauthoring_1_1view_1_1_program_menu.html#aa73ae8b737adefd919b8dd9c770afe5e" target="_top" xlink:title="authoring.view.ProgramMenu.loadFile">
<polygon fill="white" stroke="black" points="458,-49.5 458,-68.5 652,-68.5 652,-49.5 458,-49.5"/>
<text text-anchor="middle" x="555" y="-56.5" font-family="Helvetica,sans-Serif" font-size="10.00">authoring.view.ProgramMenu.loadFile</text>
</a>
</g>
</g>
<!-- Node3&#45;&gt;Node4 -->
<g id="edge3" class="edge"><title>Node3&#45;&gt;Node4</title>
<path fill="none" stroke="midnightblue" d="M424.318,-59C435.552,-59 446.901,-59 457.966,-59"/>
<polygon fill="midnightblue" stroke="midnightblue" points="424.044,-55.5001 414.044,-59 424.044,-62.5001 424.044,-55.5001"/>
</g>
<!-- Node5 -->
<g id="node5" class="node"><title>Node5</title>
<g id="a_node5"><a xlink:href="../../d3/df3/classauthoring_1_1view_1_1_program_menu.html#a4f80944f8d70afac9f86de8caa8439b5" target="_top" xlink:title="authoring.view.ProgramMenu.\lFileMenu">
<polygon fill="white" stroke="black" points="696,-44 696,-74 854,-74 854,-44 696,-44"/>
<text text-anchor="start" x="704" y="-62" font-family="Helvetica,sans-Serif" font-size="10.00">authoring.view.ProgramMenu.</text>
<text text-anchor="middle" x="775" y="-51" font-family="Helvetica,sans-Serif" font-size="10.00">FileMenu</text>
</a>
</g>
</g>
<!-- Node4&#45;&gt;Node5 -->
<g id="edge4" class="edge"><title>Node4&#45;&gt;Node5</title>
<path fill="none" stroke="midnightblue" d="M662.555,-59C673.799,-59 685.078,-59 695.913,-59"/>
<polygon fill="midnightblue" stroke="midnightblue" points="662.253,-55.5001 652.253,-59 662.253,-62.5001 662.253,-55.5001"/>
</g>
<!-- Node6 -->
<g id="node6" class="node"><title>Node6</title>
<g id="a_node6"><a xlink:href="../../d3/df3/classauthoring_1_1view_1_1_program_menu.html#a1979060c566560f24eee51c819341adc" target="_top" xlink:title="authoring.view.ProgramMenu.\lProgramMenu">
<polygon fill="white" stroke="black" points="890,-44 890,-74 1048,-74 1048,-44 890,-44"/>
<text text-anchor="start" x="898" y="-62" font-family="Helvetica,sans-Serif" font-size="10.00">authoring.view.ProgramMenu.</text>
<text text-anchor="middle" x="969" y="-51" font-family="Helvetica,sans-Serif" font-size="10.00">ProgramMenu</text>
</a>
</g>
</g>
<!-- Node5&#45;&gt;Node6 -->
<g id="edge5" class="edge"><title>Node5&#45;&gt;Node6</title>
<path fill="none" stroke="midnightblue" d="M864.153,-59C872.769,-59 881.47,-59 889.975,-59"/>
<polygon fill="midnightblue" stroke="midnightblue" points="864.094,-55.5001 854.094,-59 864.094,-62.5001 864.094,-55.5001"/>
</g>
<!-- Node8 -->
<g id="node8" class="node"><title>Node8</title>
<g id="a_node8"><a xlink:href="../../d9/dff/classgame_player_1_1view_1_1_menu_bar_controller.html#af1f1b493dce9b79a0f464c4f1a6dfd09" target="_top" xlink:title="gamePlayer.view.MenuBarController.load\lGameFile">
<polygon fill="white" stroke="black" points="450,-0 450,-30 660,-30 660,-0 450,-0"/>
<text text-anchor="start" x="458" y="-18" font-family="Helvetica,sans-Serif" font-size="10.00">gamePlayer.view.MenuBarController.load</text>
<text text-anchor="middle" x="555" y="-7" font-family="Helvetica,sans-Serif" font-size="10.00">GameFile</text>
</a>
</g>
</g>
<!-- Node7&#45;&gt;Node8 -->
<g id="edge7" class="edge"><title>Node7&#45;&gt;Node8</title>
<path fill="none" stroke="midnightblue" d="M418.485,-15C428.868,-15 439.41,-15 449.79,-15"/>
<polygon fill="midnightblue" stroke="midnightblue" points="418.166,-11.5001 408.166,-15 418.165,-18.5001 418.166,-11.5001"/>
</g>
</g>
</svg>
        <g id="navigator" transform="translate(0 0)" fill="#404254">
                <rect fill="#f2f5e9" fill-opacity="0.5" stroke="#606060" stroke-width=".5" x="0" y="0" width="60" height="60"/>
                <use id="zoomplus" xlink:href="#zoomPlus" x="17" y="9" onmousedown="handleZoom(evt,'in')"/>
                <use id="zoomminus" xlink:href="#zoomMin" x="42" y="9" onmousedown="handleZoom(evt,'out')"/>
                <use id="reset" xlink:href="#resetDef" x="30" y="36" onmousedown="handleReset()"/>
                <g id="arrowUp" xlink:href="#dirArrow" transform="translate(30 24)" onmousedown="handlePan(0,-1)">
                  <use xlink:href="#rim" fill="#404040">
                        <set attributeName="fill" to="#808080" begin="arrowUp.mouseover" end="arrowUp.mouseout"/>
                  </use>
                  <path fill="none" stroke="white" stroke-width="1.5" d="M0,-3.0v7 M-2.5,-0.5L0,-3.0L2.5,-0.5"/>
                </g>
                <g id="arrowRight" xlink:href="#dirArrow" transform="rotate(90) translate(36 -43)" onmousedown="handlePan(1,0)">
                  <use xlink:href="#rim" fill="#404040">
                        <set attributeName="fill" to="#808080" begin="arrowRight.mouseover" end="arrowRight.mouseout"/>
                  </use>
                  <path fill="none" stroke="white" stroke-width="1.5" d="M0,-3.0v7 M-2.5,-0.5L0,-3.0L2.5,-0.5"/>
                </g>
                <g id="arrowDown" xlink:href="#dirArrow" transform="rotate(180) translate(-30 -48)" onmousedown="handlePan(0,1)">
                  <use xlink:href="#rim" fill="#404040">
                        <set attributeName="fill" to="#808080" begin="arrowDown.mouseover" end="arrowDown.mouseout"/>
                  </use>
                  <path fill="none" stroke="white" stroke-width="1.5" d="M0,-3.0v7 M-2.5,-0.5L0,-3.0L2.5,-0.5"/>
                </g>
                <g id="arrowLeft" xlink:href="#dirArrow" transform="rotate(270) translate(-36 17)" onmousedown="handlePan(-1,0)">
                  <use xlink:href="#rim" fill="#404040">
                        <set attributeName="fill" to="#808080" begin="arrowLeft.mouseover" end="arrowLeft.mouseout"/>
                  </use>
                  <path fill="none" stroke="white" stroke-width="1.5" d="M0,-3.0v7 M-2.5,-0.5L0,-3.0L2.5,-0.5"/>
                </g>
        </g>
        <svg viewBox="0 0 15 15" width="100%" height="30px" preserveAspectRatio="xMaxYMin meet">
         <g id="arrow_out" transform="scale(0.3 0.3)">
          <a xlink:href="classdata_1_1_data_manager_a01c83f361a872beb20614f8607434d03_icgraph_org.svg" target="_base">
           <rect id="button" ry="5" rx="5" y="6" x="6" height="38" width="38"
                fill="#f2f5e9" fill-opacity="0.5" stroke="#606060" stroke-width="1.0"/>
           <path id="arrow"
             d="M 11.500037,31.436501 C 11.940474,20.09759 22.043105,11.32322 32.158766,21.979434 L 37.068811,17.246167 C 37.068811,17.246167 37.088388,32 37.088388,32 L 22.160133,31.978069 C 22.160133,31.978069 26.997745,27.140456 26.997745,27.140456 C 18.528582,18.264221 13.291696,25.230495 11.500037,31.436501 z"
             style="fill:#404040;"/>
          </a>
         </g>
        </svg>
</svg>
