<?xml version="1.0" encoding="UTF-8" standalone="no"?>
<!DOCTYPE svg PUBLIC "-//W3C//DTD SVG 1.1//EN"
 "http://www.w3.org/Graphics/SVG/1.1/DTD/svg11.dtd">
<!-- Generated by graphviz version 2.36.0 (20140111.2315)
 -->
<!-- Title: data.DataManager.writeProgressFile Pages: 1 -->
<svg width="1262pt" height="136pt"
 viewBox="0.00 0.00 1262.00 136.00" xmlns="http://www.w3.org/2000/svg" xmlns:xlink="http://www.w3.org/1999/xlink">
<g id="graph0" class="graph" transform="scale(1 1) rotate(0) translate(4 132)">
<title>data.DataManager.writeProgressFile</title>
<polygon fill="white" stroke="none" points="-4,4 -4,-132 1258,-132 1258,4 -4,4"/>
<!-- Node1 -->
<g id="node1" class="node"><title>Node1</title>
<polygon fill="#bfbfbf" stroke="black" points="0,-54.5 0,-73.5 188,-73.5 188,-54.5 0,-54.5"/>
<text text-anchor="middle" x="94" y="-61.5" font-family="Helvetica,sans-Serif" font-size="10.00">data.DataManager.writeProgressFile</text>
</g>
<!-- Node2 -->
<g id="node2" class="node"><title>Node2</title>
<g id="a_node2"><a xlink:href="../../d9/dbd/classgame_player_1_1view_1_1_progress_selector.html#a6a664023c1828d7dc03d05507c2049ed" target="_top" xlink:title="gamePlayer.view.Progress\lSelector.overwriteProgressEvent">
<polygon fill="white" stroke="black" points="224.5,-98 224.5,-128 395.5,-128 395.5,-98 224.5,-98"/>
<text text-anchor="start" x="232.5" y="-116" font-family="Helvetica,sans-Serif" font-size="10.00">gamePlayer.view.Progress</text>
<text text-anchor="middle" x="310" y="-105" font-family="Helvetica,sans-Serif" font-size="10.00">Selector.overwriteProgressEvent</text>
</a>
</g>
</g>
<!-- Node1&#45;&gt;Node2 -->
<g id="edge1" class="edge"><title>Node1&#45;&gt;Node2</title>
<path fill="none" stroke="midnightblue" d="M146.449,-75.7804C175.484,-82.4286 212.071,-90.806 243.178,-97.9287"/>
<polygon fill="midnightblue" stroke="midnightblue" points="147.044,-72.3261 136.515,-73.5058 145.482,-79.1495 147.044,-72.3261"/>
</g>
<!-- Node7 -->
<g id="node7" class="node"><title>Node7</title>
<g id="a_node7"><a xlink:href="../../d4/d68/classauthoring_1_1model_1_1_authoring_model.html#a1cdb75c271642f158391ccecc24a539c" target="_top" xlink:title="authoring.model.Authoring\lModel.save">
<polygon fill="white" stroke="black" points="237.5,-0 237.5,-30 382.5,-30 382.5,-0 237.5,-0"/>
<text text-anchor="start" x="245.5" y="-18" font-family="Helvetica,sans-Serif" font-size="10.00">authoring.model.Authoring</text>
<text text-anchor="middle" x="310" y="-7" font-family="Helvetica,sans-Serif" font-size="10.00">Model.save</text>
</a>
</g>
</g>
<!-- Node1&#45;&gt;Node7 -->
<g id="edge6" class="edge"><title>Node1&#45;&gt;Node7</title>
<path fill="none" stroke="midnightblue" d="M146.449,-52.2196C175.484,-45.5714 212.071,-37.194 243.178,-30.0713"/>
<polygon fill="midnightblue" stroke="midnightblue" points="145.482,-48.8505 136.515,-54.4942 147.044,-55.6739 145.482,-48.8505"/>
</g>
<!-- Node9 -->
<g id="node9" class="node"><title>Node9</title>
<g id="a_node9"><a xlink:href="../../d9/dbd/classgame_player_1_1view_1_1_progress_selector.html#ad6c70f114f81a6e1739a019d500fab9f" target="_top" xlink:title="gamePlayer.view.Progress\lSelector.saveProgressEvent">
<polygon fill="white" stroke="black" points="235,-49 235,-79 385,-79 385,-49 235,-49"/>
<text text-anchor="start" x="243" y="-67" font-family="Helvetica,sans-Serif" font-size="10.00">gamePlayer.view.Progress</text>
<text text-anchor="middle" x="310" y="-56" font-family="Helvetica,sans-Serif" font-size="10.00">Selector.saveProgressEvent</text>
</a>
</g>
</g>
<!-- Node1&#45;&gt;Node9 -->
<g id="edge8" class="edge"><title>Node1&#45;&gt;Node9</title>
<path fill="none" stroke="midnightblue" d="M198.484,-64C210.712,-64 223.001,-64 234.712,-64"/>
<polygon fill="midnightblue" stroke="midnightblue" points="198.241,-60.5001 188.241,-64 198.241,-67.5001 198.241,-60.5001"/>
</g>
<!-- Node3 -->
<g id="node3" class="node"><title>Node3</title>
<g id="a_node3"><a xlink:href="../../d9/dbd/classgame_player_1_1view_1_1_progress_selector.html#abf378d2a28ee207f92264da056c28a13" target="_top" xlink:title="gamePlayer.view.Progress\lSelector.buildSaveWindow">
<polygon fill="white" stroke="black" points="442,-73 442,-103 582,-103 582,-73 442,-73"/>
<text text-anchor="start" x="450" y="-91" font-family="Helvetica,sans-Serif" font-size="10.00">gamePlayer.view.Progress</text>
<text text-anchor="middle" x="512" y="-80" font-family="Helvetica,sans-Serif" font-size="10.00">Selector.buildSaveWindow</text>
</a>
</g>
</g>
<!-- Node2&#45;&gt;Node3 -->
<g id="edge2" class="edge"><title>Node2&#45;&gt;Node3</title>
<path fill="none" stroke="midnightblue" d="M405.729,-101.159C417.922,-99.6347 430.22,-98.0976 441.894,-96.6382"/>
<polygon fill="midnightblue" stroke="midnightblue" points="405.017,-97.7206 395.528,-102.434 405.885,-104.667 405.017,-97.7206"/>
</g>
<!-- Node4 -->
<g id="node4" class="node"><title>Node4</title>
<g id="a_node4"><a xlink:href="../../d9/dbd/classgame_player_1_1view_1_1_progress_selector.html#ae3ab91c2aa658dfafc8fe6bc02191f43" target="_top" xlink:title="gamePlayer.view.Progress\lSelector.saveProgressState">
<polygon fill="white" stroke="black" points="628.5,-73 628.5,-103 777.5,-103 777.5,-73 628.5,-73"/>
<text text-anchor="start" x="636.5" y="-91" font-family="Helvetica,sans-Serif" font-size="10.00">gamePlayer.view.Progress</text>
<text text-anchor="middle" x="703" y="-80" font-family="Helvetica,sans-Serif" font-size="10.00">Selector.saveProgressState</text>
</a>
</g>
</g>
<!-- Node3&#45;&gt;Node4 -->
<g id="edge3" class="edge"><title>Node3&#45;&gt;Node4</title>
<path fill="none" stroke="midnightblue" d="M592.048,-88C604.085,-88 616.465,-88 628.38,-88"/>
<polygon fill="midnightblue" stroke="midnightblue" points="592.036,-84.5001 582.036,-88 592.036,-91.5001 592.036,-84.5001"/>
</g>
<!-- Node5 -->
<g id="node5" class="node"><title>Node5</title>
<g id="a_node5"><a xlink:href="../../d2/dc9/classgame_player_1_1model_1_1_player_model.html#a245d6c46b8a79a80def826b969b195e6" target="_top" xlink:title="gamePlayer.model.PlayerModel.save\lGameProgress">
<polygon fill="white" stroke="black" points="814,-73 814,-103 1006,-103 1006,-73 814,-73"/>
<text text-anchor="start" x="822" y="-91" font-family="Helvetica,sans-Serif" font-size="10.00">gamePlayer.model.PlayerModel.save</text>
<text text-anchor="middle" x="910" y="-80" font-family="Helvetica,sans-Serif" font-size="10.00">GameProgress</text>
</a>
</g>
</g>
<!-- Node4&#45;&gt;Node5 -->
<g id="edge4" class="edge"><title>Node4&#45;&gt;Node5</title>
<path fill="none" stroke="midnightblue" d="M787.994,-88C796.501,-88 805.185,-88 813.799,-88"/>
<polygon fill="midnightblue" stroke="midnightblue" points="787.72,-84.5001 777.72,-88 787.72,-91.5001 787.72,-84.5001"/>
</g>
<!-- Node6 -->
<g id="node6" class="node"><title>Node6</title>
<g id="a_node6"><a xlink:href="../../d9/dff/classgame_player_1_1view_1_1_menu_bar_controller.html#a3e80307e5f56598e5c990f40869895e1" target="_top" xlink:title="gamePlayer.view.MenuBarController.save\lGameProgress">
<polygon fill="white" stroke="black" points="1042,-73 1042,-103 1254,-103 1254,-73 1042,-73"/>
<text text-anchor="start" x="1050" y="-91" font-family="Helvetica,sans-Serif" font-size="10.00">gamePlayer.view.MenuBarController.save</text>
<text text-anchor="middle" x="1148" y="-80" font-family="Helvetica,sans-Serif" font-size="10.00">GameProgress</text>
</a>
</g>
</g>
<!-- Node5&#45;&gt;Node6 -->
<g id="edge5" class="edge"><title>Node5&#45;&gt;Node6</title>
<path fill="none" stroke="midnightblue" d="M1016.47,-88C1024.84,-88 1033.3,-88 1041.68,-88"/>
<polygon fill="midnightblue" stroke="midnightblue" points="1016.31,-84.5001 1006.31,-88 1016.31,-91.5001 1016.31,-84.5001"/>
</g>
<!-- Node8 -->
<g id="node8" class="node"><title>Node8</title>
<g id="a_node8"><a xlink:href="../../de/d41/classauthoring_1_1controller_1_1_authoring_controller.html#adbe015f9624bd3077b0eba208ece1966" target="_top" xlink:title="authoring.controller.Authoring\lController.saveData">
<polygon fill="white" stroke="black" points="432.5,-0 432.5,-30 591.5,-30 591.5,-0 432.5,-0"/>
<text text-anchor="start" x="440.5" y="-18" font-family="Helvetica,sans-Serif" font-size="10.00">authoring.controller.Authoring</text>
<text text-anchor="middle" x="512" y="-7" font-family="Helvetica,sans-Serif" font-size="10.00">Controller.saveData</text>
</a>
</g>
</g>
<!-- Node7&#45;&gt;Node8 -->
<g id="edge7" class="edge"><title>Node7&#45;&gt;Node8</title>
<path fill="none" stroke="midnightblue" d="M392.979,-15C406.007,-15 419.456,-15 432.403,-15"/>
<polygon fill="midnightblue" stroke="midnightblue" points="392.64,-11.5001 382.64,-15 392.64,-18.5001 392.64,-11.5001"/>
</g>
<!-- Node9&#45;&gt;Node3 -->
<g id="edge9" class="edge"><title>Node9&#45;&gt;Node3</title>
<path fill="none" stroke="midnightblue" d="M395.303,-74.1164C410.834,-75.98 426.882,-77.9058 441.9,-79.7079"/>
<polygon fill="midnightblue" stroke="midnightblue" points="395.534,-70.6191 385.188,-72.9026 394.7,-77.5692 395.534,-70.6191"/>
</g>
</g>
</svg>
