<?xml version="1.0" encoding="UTF-8" standalone="no"?>
<!DOCTYPE svg PUBLIC "-//W3C//DTD SVG 1.1//EN"
 "http://www.w3.org/Graphics/SVG/1.1/DTD/svg11.dtd">
<!-- Generated by graphviz version 2.36.0 (20140111.2315)
 -->
<!-- Title: data.DataManager.writeProgressFile Pages: 1 -->
<svg width="1242pt" height="87pt"
 viewBox="0.00 0.00 1242.00 87.00" xmlns="http://www.w3.org/2000/svg" xmlns:xlink="http://www.w3.org/1999/xlink">
<g id="graph0" class="graph" transform="scale(1 1) rotate(0) translate(4 83)">
<title>data.DataManager.writeProgressFile</title>
<polygon fill="white" stroke="none" points="-4,4 -4,-83 1238,-83 1238,4 -4,4"/>
<!-- Node1 -->
<g id="node1" class="node"><title>Node1</title>
<polygon fill="#bfbfbf" stroke="black" points="0,-29.5 0,-48.5 188,-48.5 188,-29.5 0,-29.5"/>
<text text-anchor="middle" x="94" y="-36.5" font-family="Helvetica,sans-Serif" font-size="10.00">data.DataManager.writeProgressFile</text>
</g>
<!-- Node2 -->
<g id="node2" class="node"><title>Node2</title>
<g id="a_node2"><a xlink:href="../../d9/dbd/classgame_player_1_1view_1_1_progress_selector.html#a6a664023c1828d7dc03d05507c2049ed" target="_top" xlink:title="gamePlayer.view.Progress\lSelector.overwriteProgressEvent">
<polygon fill="white" stroke="black" points="224.5,-49 224.5,-79 395.5,-79 395.5,-49 224.5,-49"/>
<text text-anchor="start" x="232.5" y="-67" font-family="Helvetica,sans-Serif" font-size="10.00">gamePlayer.view.Progress</text>
<text text-anchor="middle" x="310" y="-56" font-family="Helvetica,sans-Serif" font-size="10.00">Selector.overwriteProgressEvent</text>
</a>
</g>
</g>
<!-- Node1&#45;&gt;Node2 -->
<g id="edge1" class="edge"><title>Node1&#45;&gt;Node2</title>
<path fill="none" stroke="midnightblue" d="M186.47,-49.6858C198.978,-51.1469 211.775,-52.6419 224.157,-54.0885"/>
<polygon fill="midnightblue" stroke="midnightblue" points="186.853,-46.2068 176.515,-48.5227 186.041,-53.1595 186.853,-46.2068"/>
</g>
<!-- Node7 -->
<g id="node7" class="node"><title>Node7</title>
<g id="a_node7"><a xlink:href="../../d9/dbd/classgame_player_1_1view_1_1_progress_selector.html#ad6c70f114f81a6e1739a019d500fab9f" target="_top" xlink:title="gamePlayer.view.Progress\lSelector.saveProgressEvent">
<polygon fill="white" stroke="black" points="235,-0 235,-30 385,-30 385,-0 235,-0"/>
<text text-anchor="start" x="243" y="-18" font-family="Helvetica,sans-Serif" font-size="10.00">gamePlayer.view.Progress</text>
<text text-anchor="middle" x="310" y="-7" font-family="Helvetica,sans-Serif" font-size="10.00">Selector.saveProgressEvent</text>
</a>
</g>
</g>
<!-- Node1&#45;&gt;Node7 -->
<g id="edge6" class="edge"><title>Node1&#45;&gt;Node7</title>
<path fill="none" stroke="midnightblue" d="M190.205,-28.3228C205.204,-26.6406 220.517,-24.9234 234.944,-23.3054"/>
<polygon fill="midnightblue" stroke="midnightblue" points="189.433,-24.8873 179.886,-29.4801 190.214,-31.8437 189.433,-24.8873"/>
</g>
<!-- Node3 -->
<g id="node3" class="node"><title>Node3</title>
<g id="a_node3"><a xlink:href="../../d9/dbd/classgame_player_1_1view_1_1_progress_selector.html#abf378d2a28ee207f92264da056c28a13" target="_top" xlink:title="gamePlayer.view.Progress\lSelector.buildSaveWindow">
<polygon fill="white" stroke="black" points="432,-24 432,-54 572,-54 572,-24 432,-24"/>
<text text-anchor="start" x="440" y="-42" font-family="Helvetica,sans-Serif" font-size="10.00">gamePlayer.view.Progress</text>
<text text-anchor="middle" x="502" y="-31" font-family="Helvetica,sans-Serif" font-size="10.00">Selector.buildSaveWindow</text>
</a>
</g>
</g>
<!-- Node2&#45;&gt;Node3 -->
<g id="edge2" class="edge"><title>Node2&#45;&gt;Node3</title>
<path fill="none" stroke="midnightblue" d="M405.658,-51.545C414.475,-50.3848 423.297,-49.2241 431.819,-48.1028"/>
<polygon fill="midnightblue" stroke="midnightblue" points="405.178,-48.0779 395.72,-52.8526 406.091,-55.0181 405.178,-48.0779"/>
</g>
<!-- Node4 -->
<g id="node4" class="node"><title>Node4</title>
<g id="a_node4"><a xlink:href="../../d9/dbd/classgame_player_1_1view_1_1_progress_selector.html#ae3ab91c2aa658dfafc8fe6bc02191f43" target="_top" xlink:title="gamePlayer.view.Progress\lSelector.saveProgressState">
<polygon fill="white" stroke="black" points="608.5,-24 608.5,-54 757.5,-54 757.5,-24 608.5,-24"/>
<text text-anchor="start" x="616.5" y="-42" font-family="Helvetica,sans-Serif" font-size="10.00">gamePlayer.view.Progress</text>
<text text-anchor="middle" x="683" y="-31" font-family="Helvetica,sans-Serif" font-size="10.00">Selector.saveProgressState</text>
</a>
</g>
</g>
<!-- Node3&#45;&gt;Node4 -->
<g id="edge3" class="edge"><title>Node3&#45;&gt;Node4</title>
<path fill="none" stroke="midnightblue" d="M582.265,-39C590.902,-39 599.667,-39 608.233,-39"/>
<polygon fill="midnightblue" stroke="midnightblue" points="582.206,-35.5001 572.206,-39 582.206,-42.5001 582.206,-35.5001"/>
</g>
<!-- Node5 -->
<g id="node5" class="node"><title>Node5</title>
<g id="a_node5"><a xlink:href="../../d2/dc9/classgame_player_1_1model_1_1_player_model.html#a245d6c46b8a79a80def826b969b195e6" target="_top" xlink:title="gamePlayer.model.PlayerModel.save\lGameProgress">
<polygon fill="white" stroke="black" points="794,-24 794,-54 986,-54 986,-24 794,-24"/>
<text text-anchor="start" x="802" y="-42" font-family="Helvetica,sans-Serif" font-size="10.00">gamePlayer.model.PlayerModel.save</text>
<text text-anchor="middle" x="890" y="-31" font-family="Helvetica,sans-Serif" font-size="10.00">GameProgress</text>
</a>
</g>
</g>
<!-- Node4&#45;&gt;Node5 -->
<g id="edge4" class="edge"><title>Node4&#45;&gt;Node5</title>
<path fill="none" stroke="midnightblue" d="M767.994,-39C776.501,-39 785.185,-39 793.799,-39"/>
<polygon fill="midnightblue" stroke="midnightblue" points="767.72,-35.5001 757.72,-39 767.72,-42.5001 767.72,-35.5001"/>
</g>
<!-- Node6 -->
<g id="node6" class="node"><title>Node6</title>
<g id="a_node6"><a xlink:href="../../d9/dff/classgame_player_1_1view_1_1_menu_bar_controller.html#a3e80307e5f56598e5c990f40869895e1" target="_top" xlink:title="gamePlayer.view.MenuBarController.save\lGameProgress">
<polygon fill="white" stroke="black" points="1022,-24 1022,-54 1234,-54 1234,-24 1022,-24"/>
<text text-anchor="start" x="1030" y="-42" font-family="Helvetica,sans-Serif" font-size="10.00">gamePlayer.view.MenuBarController.save</text>
<text text-anchor="middle" x="1128" y="-31" font-family="Helvetica,sans-Serif" font-size="10.00">GameProgress</text>
</a>
</g>
</g>
<!-- Node5&#45;&gt;Node6 -->
<g id="edge5" class="edge"><title>Node5&#45;&gt;Node6</title>
<path fill="none" stroke="midnightblue" d="M996.47,-39C1004.84,-39 1013.3,-39 1021.68,-39"/>
<polygon fill="midnightblue" stroke="midnightblue" points="996.31,-35.5001 986.31,-39 996.31,-42.5001 996.31,-35.5001"/>
</g>
<!-- Node7&#45;&gt;Node3 -->
<g id="edge7" class="edge"><title>Node7&#45;&gt;Node3</title>
<path fill="none" stroke="midnightblue" d="M395.216,-25.6379C407.465,-27.185 419.956,-28.7628 431.86,-30.2665"/>
<polygon fill="midnightblue" stroke="midnightblue" points="395.363,-22.1286 385.003,-24.3477 394.486,-29.0734 395.363,-22.1286"/>
</g>
</g>
</svg>
