<?xml version="1.0" encoding="UTF-8" standalone="no"?>
<!DOCTYPE svg PUBLIC "-//W3C//DTD SVG 1.1//EN"
 "http://www.w3.org/Graphics/SVG/1.1/DTD/svg11.dtd">
<!-- Generated by graphviz version 2.36.0 (20140111.2315)
 -->
<!-- Title: data.DataManager.writeProgressFile Pages: 1 -->
<!--zoomable 87 -->
<svg id="main" version="1.1" xmlns="http://www.w3.org/2000/svg" xmlns:xlink="http://www.w3.org/1999/xlink" xml:space="preserve" onload="init(evt)">
<style type="text/css"><![CDATA[
.edge:hover path { stroke: red; }
.edge:hover polygon { stroke: red; fill: red; }
]]></style>
<script type="text/javascript"><![CDATA[
var edges = document.getElementsByTagName('g');
if (edges && edges.length) {
  for (var i=0;i<edges.length;i++) {
    if (edges[i].id.substr(0,4)=='edge') {
      edges[i].setAttribute('class','edge');
    }
  }
}
]]></script>
        <defs>
                <circle id="rim" cx="0" cy="0" r="7"/>
                <circle id="rim2" cx="0" cy="0" r="3.5"/>
                <g id="zoomPlus">
                        <use xlink:href="#rim" fill="#404040">
                                <set attributeName="fill" to="#808080" begin="zoomplus.mouseover" end="zoomplus.mouseout"/>
                        </use>
                        <path d="M-4,0h8M0,-4v8" fill="none" stroke="white" stroke-width="1.5" pointer-events="none"/>
                </g>
                <g id="zoomMin">
                        <use xlink:href="#rim" fill="#404040">
                                <set attributeName="fill" to="#808080" begin="zoomminus.mouseover" end="zoomminus.mouseout"/>
                        </use>
                        <path d="M-4,0h8" fill="none" stroke="white" stroke-width="1.5" pointer-events="none"/>
                </g>
                <g id="dirArrow">
                        <path fill="none" stroke="white" stroke-width="1.5" d="M0,-3.0v7 M-2.5,-0.5L0,-3.0L2.5,-0.5"/>
                </g>
               <g id="resetDef">
                       <use xlink:href="#rim2" fill="#404040">
                               <set attributeName="fill" to="#808080" begin="reset.mouseover" end="reset.mouseout"/>
                       </use>
               </g>
        </defs>

<script type="text/javascript">
var viewWidth = 1242;
var viewHeight = 87;
var sectionId = 'dynsection-10';
</script>
<script xlink:href="../../svgpan.js"/>
<svg id="graph" class="graph">
<g id="viewport">
<title>data.DataManager.writeProgressFile</title>
<polygon fill="white" stroke="none" points="-4,4 -4,-83 1238,-83 1238,4 -4,4"/>
<!-- Node1 -->
<g id="node1" class="node"><title>Node1</title>
<polygon fill="#bfbfbf" stroke="black" points="0,-29.5 0,-48.5 188,-48.5 188,-29.5 0,-29.5"/>
<text text-anchor="middle" x="94" y="-36.5" font-family="Helvetica,sans-Serif" font-size="10.00">data.DataManager.writeProgressFile</text>
</g>
<!-- Node2 -->
<g id="node2" class="node"><title>Node2</title>
<g id="a_node2"><a xlink:href="../../d9/dbd/classgame_player_1_1view_1_1_progress_selector.html#a6a664023c1828d7dc03d05507c2049ed" target="_top" xlink:title="gamePlayer.view.Progress\lSelector.overwriteProgressEvent">
<polygon fill="white" stroke="black" points="224.5,-49 224.5,-79 395.5,-79 395.5,-49 224.5,-49"/>
<text text-anchor="start" x="232.5" y="-67" font-family="Helvetica,sans-Serif" font-size="10.00">gamePlayer.view.Progress</text>
<text text-anchor="middle" x="310" y="-56" font-family="Helvetica,sans-Serif" font-size="10.00">Selector.overwriteProgressEvent</text>
</a>
</g>
</g>
<!-- Node1&#45;&gt;Node2 -->
<g id="edge1" class="edge"><title>Node1&#45;&gt;Node2</title>
<path fill="none" stroke="midnightblue" d="M186.47,-49.6858C198.978,-51.1469 211.775,-52.6419 224.157,-54.0885"/>
<polygon fill="midnightblue" stroke="midnightblue" points="186.853,-46.2068 176.515,-48.5227 186.041,-53.1595 186.853,-46.2068"/>
</g>
<!-- Node7 -->
<g id="node7" class="node"><title>Node7</title>
<g id="a_node7"><a xlink:href="../../d9/dbd/classgame_player_1_1view_1_1_progress_selector.html#ad6c70f114f81a6e1739a019d500fab9f" target="_top" xlink:title="gamePlayer.view.Progress\lSelector.saveProgressEvent">
<polygon fill="white" stroke="black" points="235,-0 235,-30 385,-30 385,-0 235,-0"/>
<text text-anchor="start" x="243" y="-18" font-family="Helvetica,sans-Serif" font-size="10.00">gamePlayer.view.Progress</text>
<text text-anchor="middle" x="310" y="-7" font-family="Helvetica,sans-Serif" font-size="10.00">Selector.saveProgressEvent</text>
</a>
</g>
</g>
<!-- Node1&#45;&gt;Node7 -->
<g id="edge6" class="edge"><title>Node1&#45;&gt;Node7</title>
<path fill="none" stroke="midnightblue" d="M190.205,-28.3228C205.204,-26.6406 220.517,-24.9234 234.944,-23.3054"/>
<polygon fill="midnightblue" stroke="midnightblue" points="189.433,-24.8873 179.886,-29.4801 190.214,-31.8437 189.433,-24.8873"/>
</g>
<!-- Node3 -->
<g id="node3" class="node"><title>Node3</title>
<g id="a_node3"><a xlink:href="../../d9/dbd/classgame_player_1_1view_1_1_progress_selector.html#abf378d2a28ee207f92264da056c28a13" target="_top" xlink:title="gamePlayer.view.Progress\lSelector.buildSaveWindow">
<polygon fill="white" stroke="black" points="432,-24 432,-54 572,-54 572,-24 432,-24"/>
<text text-anchor="start" x="440" y="-42" font-family="Helvetica,sans-Serif" font-size="10.00">gamePlayer.view.Progress</text>
<text text-anchor="middle" x="502" y="-31" font-family="Helvetica,sans-Serif" font-size="10.00">Selector.buildSaveWindow</text>
</a>
</g>
</g>
<!-- Node2&#45;&gt;Node3 -->
<g id="edge2" class="edge"><title>Node2&#45;&gt;Node3</title>
<path fill="none" stroke="midnightblue" d="M405.658,-51.545C414.475,-50.3848 423.297,-49.2241 431.819,-48.1028"/>
<polygon fill="midnightblue" stroke="midnightblue" points="405.178,-48.0779 395.72,-52.8526 406.091,-55.0181 405.178,-48.0779"/>
</g>
<!-- Node4 -->
<g id="node4" class="node"><title>Node4</title>
<g id="a_node4"><a xlink:href="../../d9/dbd/classgame_player_1_1view_1_1_progress_selector.html#ae3ab91c2aa658dfafc8fe6bc02191f43" target="_top" xlink:title="gamePlayer.view.Progress\lSelector.saveProgressState">
<polygon fill="white" stroke="black" points="608.5,-24 608.5,-54 757.5,-54 757.5,-24 608.5,-24"/>
<text text-anchor="start" x="616.5" y="-42" font-family="Helvetica,sans-Serif" font-size="10.00">gamePlayer.view.Progress</text>
<text text-anchor="middle" x="683" y="-31" font-family="Helvetica,sans-Serif" font-size="10.00">Selector.saveProgressState</text>
</a>
</g>
</g>
<!-- Node3&#45;&gt;Node4 -->
<g id="edge3" class="edge"><title>Node3&#45;&gt;Node4</title>
<path fill="none" stroke="midnightblue" d="M582.265,-39C590.902,-39 599.667,-39 608.233,-39"/>
<polygon fill="midnightblue" stroke="midnightblue" points="582.206,-35.5001 572.206,-39 582.206,-42.5001 582.206,-35.5001"/>
</g>
<!-- Node5 -->
<g id="node5" class="node"><title>Node5</title>
<g id="a_node5"><a xlink:href="../../d2/dc9/classgame_player_1_1model_1_1_player_model.html#a245d6c46b8a79a80def826b969b195e6" target="_top" xlink:title="gamePlayer.model.PlayerModel.save\lGameProgress">
<polygon fill="white" stroke="black" points="794,-24 794,-54 986,-54 986,-24 794,-24"/>
<text text-anchor="start" x="802" y="-42" font-family="Helvetica,sans-Serif" font-size="10.00">gamePlayer.model.PlayerModel.save</text>
<text text-anchor="middle" x="890" y="-31" font-family="Helvetica,sans-Serif" font-size="10.00">GameProgress</text>
</a>
</g>
</g>
<!-- Node4&#45;&gt;Node5 -->
<g id="edge4" class="edge"><title>Node4&#45;&gt;Node5</title>
<path fill="none" stroke="midnightblue" d="M767.994,-39C776.501,-39 785.185,-39 793.799,-39"/>
<polygon fill="midnightblue" stroke="midnightblue" points="767.72,-35.5001 757.72,-39 767.72,-42.5001 767.72,-35.5001"/>
</g>
<!-- Node6 -->
<g id="node6" class="node"><title>Node6</title>
<g id="a_node6"><a xlink:href="../../d9/dff/classgame_player_1_1view_1_1_menu_bar_controller.html#a3e80307e5f56598e5c990f40869895e1" target="_top" xlink:title="gamePlayer.view.MenuBarController.save\lGameProgress">
<polygon fill="white" stroke="black" points="1022,-24 1022,-54 1234,-54 1234,-24 1022,-24"/>
<text text-anchor="start" x="1030" y="-42" font-family="Helvetica,sans-Serif" font-size="10.00">gamePlayer.view.MenuBarController.save</text>
<text text-anchor="middle" x="1128" y="-31" font-family="Helvetica,sans-Serif" font-size="10.00">GameProgress</text>
</a>
</g>
</g>
<!-- Node5&#45;&gt;Node6 -->
<g id="edge5" class="edge"><title>Node5&#45;&gt;Node6</title>
<path fill="none" stroke="midnightblue" d="M996.47,-39C1004.84,-39 1013.3,-39 1021.68,-39"/>
<polygon fill="midnightblue" stroke="midnightblue" points="996.31,-35.5001 986.31,-39 996.31,-42.5001 996.31,-35.5001"/>
</g>
<!-- Node7&#45;&gt;Node3 -->
<g id="edge7" class="edge"><title>Node7&#45;&gt;Node3</title>
<path fill="none" stroke="midnightblue" d="M395.216,-25.6379C407.465,-27.185 419.956,-28.7628 431.86,-30.2665"/>
<polygon fill="midnightblue" stroke="midnightblue" points="395.363,-22.1286 385.003,-24.3477 394.486,-29.0734 395.363,-22.1286"/>
</g>
</g>
</svg>
        <g id="navigator" transform="translate(0 0)" fill="#404254">
                <rect fill="#f2f5e9" fill-opacity="0.5" stroke="#606060" stroke-width=".5" x="0" y="0" width="60" height="60"/>
                <use id="zoomplus" xlink:href="#zoomPlus" x="17" y="9" onmousedown="handleZoom(evt,'in')"/>
                <use id="zoomminus" xlink:href="#zoomMin" x="42" y="9" onmousedown="handleZoom(evt,'out')"/>
                <use id="reset" xlink:href="#resetDef" x="30" y="36" onmousedown="handleReset()"/>
                <g id="arrowUp" xlink:href="#dirArrow" transform="translate(30 24)" onmousedown="handlePan(0,-1)">
                  <use xlink:href="#rim" fill="#404040">
                        <set attributeName="fill" to="#808080" begin="arrowUp.mouseover" end="arrowUp.mouseout"/>
                  </use>
                  <path fill="none" stroke="white" stroke-width="1.5" d="M0,-3.0v7 M-2.5,-0.5L0,-3.0L2.5,-0.5"/>
                </g>
                <g id="arrowRight" xlink:href="#dirArrow" transform="rotate(90) translate(36 -43)" onmousedown="handlePan(1,0)">
                  <use xlink:href="#rim" fill="#404040">
                        <set attributeName="fill" to="#808080" begin="arrowRight.mouseover" end="arrowRight.mouseout"/>
                  </use>
                  <path fill="none" stroke="white" stroke-width="1.5" d="M0,-3.0v7 M-2.5,-0.5L0,-3.0L2.5,-0.5"/>
                </g>
                <g id="arrowDown" xlink:href="#dirArrow" transform="rotate(180) translate(-30 -48)" onmousedown="handlePan(0,1)">
                  <use xlink:href="#rim" fill="#404040">
                        <set attributeName="fill" to="#808080" begin="arrowDown.mouseover" end="arrowDown.mouseout"/>
                  </use>
                  <path fill="none" stroke="white" stroke-width="1.5" d="M0,-3.0v7 M-2.5,-0.5L0,-3.0L2.5,-0.5"/>
                </g>
                <g id="arrowLeft" xlink:href="#dirArrow" transform="rotate(270) translate(-36 17)" onmousedown="handlePan(-1,0)">
                  <use xlink:href="#rim" fill="#404040">
                        <set attributeName="fill" to="#808080" begin="arrowLeft.mouseover" end="arrowLeft.mouseout"/>
                  </use>
                  <path fill="none" stroke="white" stroke-width="1.5" d="M0,-3.0v7 M-2.5,-0.5L0,-3.0L2.5,-0.5"/>
                </g>
        </g>
        <svg viewBox="0 0 15 15" width="100%" height="30px" preserveAspectRatio="xMaxYMin meet">
         <g id="arrow_out" transform="scale(0.3 0.3)">
          <a xlink:href="classdata_1_1_data_manager_a635a83b3bf3ae9c504c420c3794c47cc_icgraph_org.svg" target="_base">
           <rect id="button" ry="5" rx="5" y="6" x="6" height="38" width="38"
                fill="#f2f5e9" fill-opacity="0.5" stroke="#606060" stroke-width="1.0"/>
           <path id="arrow"
             d="M 11.500037,31.436501 C 11.940474,20.09759 22.043105,11.32322 32.158766,21.979434 L 37.068811,17.246167 C 37.068811,17.246167 37.088388,32 37.088388,32 L 22.160133,31.978069 C 22.160133,31.978069 26.997745,27.140456 26.997745,27.140456 C 18.528582,18.264221 13.291696,25.230495 11.500037,31.436501 z"
             style="fill:#404040;"/>
          </a>
         </g>
        </svg>
</svg>
