<?xml version="1.0" encoding="UTF-8" standalone="no"?>
<!DOCTYPE svg PUBLIC "-//W3C//DTD SVG 1.1//EN"
 "http://www.w3.org/Graphics/SVG/1.1/DTD/svg11.dtd">
<!-- Generated by graphviz version 2.36.0 (20140111.2315)
 -->
<!-- Title: engine.collision.objects.CollisionComposition.fixedCollision Pages: 1 -->
<!--zoomable 616 -->
<svg id="main" version="1.1" xmlns="http://www.w3.org/2000/svg" xmlns:xlink="http://www.w3.org/1999/xlink" xml:space="preserve" onload="init(evt)">
<style type="text/css"><![CDATA[
.edge:hover path { stroke: red; }
.edge:hover polygon { stroke: red; fill: red; }
]]></style>
<script type="text/javascript"><![CDATA[
var edges = document.getElementsByTagName('g');
if (edges && edges.length) {
  for (var i=0;i<edges.length;i++) {
    if (edges[i].id.substr(0,4)=='edge') {
      edges[i].setAttribute('class','edge');
    }
  }
}
]]></script>
        <defs>
                <circle id="rim" cx="0" cy="0" r="7"/>
                <circle id="rim2" cx="0" cy="0" r="3.5"/>
                <g id="zoomPlus">
                        <use xlink:href="#rim" fill="#404040">
                                <set attributeName="fill" to="#808080" begin="zoomplus.mouseover" end="zoomplus.mouseout"/>
                        </use>
                        <path d="M-4,0h8M0,-4v8" fill="none" stroke="white" stroke-width="1.5" pointer-events="none"/>
                </g>
                <g id="zoomMin">
                        <use xlink:href="#rim" fill="#404040">
                                <set attributeName="fill" to="#808080" begin="zoomminus.mouseover" end="zoomminus.mouseout"/>
                        </use>
                        <path d="M-4,0h8" fill="none" stroke="white" stroke-width="1.5" pointer-events="none"/>
                </g>
                <g id="dirArrow">
                        <path fill="none" stroke="white" stroke-width="1.5" d="M0,-3.0v7 M-2.5,-0.5L0,-3.0L2.5,-0.5"/>
                </g>
               <g id="resetDef">
                       <use xlink:href="#rim2" fill="#404040">
                               <set attributeName="fill" to="#808080" begin="reset.mouseover" end="reset.mouseout"/>
                       </use>
               </g>
        </defs>

<script type="text/javascript">
var viewWidth = 660;
var viewHeight = 616;
var sectionId = 'dynsection-0';
</script>
<script xlink:href="../../svgpan.js"/>
<svg id="graph" class="graph">
<g id="viewport">
<title>engine.collision.objects.CollisionComposition.fixedCollision</title>
<polygon fill="white" stroke="none" points="-4,4 -4,-612 656,-612 656,4 -4,4"/>
<!-- Node1 -->
<g id="node1" class="node"><title>Node1</title>
<polygon fill="#bfbfbf" stroke="black" points="0,-267 0,-297 180,-297 180,-267 0,-267"/>
<text text-anchor="start" x="8" y="-285" font-family="Helvetica,sans-Serif" font-size="10.00">engine.collision.objects.</text>
<text text-anchor="middle" x="90" y="-274" font-family="Helvetica,sans-Serif" font-size="10.00">CollisionComposition.fixedCollision</text>
</g>
<!-- Node2 -->
<g id="node2" class="node"><title>Node2</title>
<g id="a_node2"><a xlink:href="../../d9/d9d/classengine_1_1game_object_1_1components_1_1_physics_body.html#aba2ed3bce8ee8e404907c88b144626fc" target="_top" xlink:title="engine.gameObject.components.\lPhysicsBody.getCollisionBodyHeight">
<polygon fill="white" stroke="black" points="219,-540 219,-570 407,-570 407,-540 219,-540"/>
<text text-anchor="start" x="227" y="-558" font-family="Helvetica,sans-Serif" font-size="10.00">engine.gameObject.components.</text>
<text text-anchor="middle" x="313" y="-547" font-family="Helvetica,sans-Serif" font-size="10.00">PhysicsBody.getCollisionBodyHeight</text>
</a>
</g>
</g>
<!-- Node1&#45;&gt;Node2 -->
<g id="edge1" class="edge"><title>Node1&#45;&gt;Node2</title>
<path fill="none" stroke="midnightblue" d="M94.0959,-297.293C103.737,-340.856 137.415,-466.536 216,-530 218.261,-531.826 220.641,-533.52 223.115,-535.091"/>
<polygon fill="midnightblue" stroke="midnightblue" points="221.412,-538.149 231.848,-539.975 224.828,-532.039 221.412,-538.149"/>
</g>
<!-- Node3 -->
<g id="node3" class="node"><title>Node3</title>
<g id="a_node3"><a xlink:href="../../d9/d9d/classengine_1_1game_object_1_1components_1_1_physics_body.html#ae64e43632570392c3118b3d00af853fc" target="_top" xlink:title="engine.gameObject.components.\lPhysicsBody.getCollisionBodyWidth">
<polygon fill="white" stroke="black" points="222,-491 222,-521 404,-521 404,-491 222,-491"/>
<text text-anchor="start" x="230" y="-509" font-family="Helvetica,sans-Serif" font-size="10.00">engine.gameObject.components.</text>
<text text-anchor="middle" x="313" y="-498" font-family="Helvetica,sans-Serif" font-size="10.00">PhysicsBody.getCollisionBodyWidth</text>
</a>
</g>
</g>
<!-- Node1&#45;&gt;Node3 -->
<g id="edge2" class="edge"><title>Node1&#45;&gt;Node3</title>
<path fill="none" stroke="midnightblue" d="M96.533,-297.168C110.603,-333.614 151.282,-426.735 216,-476 221.414,-480.122 227.405,-483.683 233.67,-486.761"/>
<polygon fill="midnightblue" stroke="midnightblue" points="232.454,-490.05 243.012,-490.931 235.307,-483.658 232.454,-490.05"/>
</g>
<!-- Node4 -->
<g id="node4" class="node"><title>Node4</title>
<g id="a_node4"><a xlink:href="../../d0/d7f/classengine_1_1game_object_1_1_game_object.html#a60c5b6933aac9969491a3562a963c043" target="_top" xlink:title="engine.gameObject.GameObject.get\lPhysicsBody">
<polygon fill="white" stroke="black" points="453,-578 453,-608 645,-608 645,-578 453,-578"/>
<text text-anchor="start" x="461" y="-596" font-family="Helvetica,sans-Serif" font-size="10.00">engine.gameObject.GameObject.get</text>
<text text-anchor="middle" x="549" y="-585" font-family="Helvetica,sans-Serif" font-size="10.00">PhysicsBody</text>
</a>
</g>
</g>
<!-- Node1&#45;&gt;Node4 -->
<g id="edge3" class="edge"><title>Node1&#45;&gt;Node4</title>
<path fill="none" stroke="midnightblue" d="M98.6227,-297.26C115.263,-328.903 158.043,-401.732 216,-438 290.947,-484.9 342.304,-425.132 410,-482 441.727,-508.652 414.505,-541.074 446,-568 447.802,-569.54 449.683,-570.989 451.632,-572.35"/>
<polygon fill="midnightblue" stroke="midnightblue" points="450.205,-575.579 460.569,-577.782 453.842,-569.597 450.205,-575.579"/>
</g>
<!-- Node5 -->
<g id="node5" class="node"><title>Node5</title>
<g id="a_node5"><a xlink:href="../../d9/d9d/classengine_1_1game_object_1_1components_1_1_physics_body.html#ae282c9fc52683cc7b976cf4a57129573" target="_top" xlink:title="engine.gameObject.components.\lPhysicsBody.getScalar">
<polygon fill="white" stroke="black" points="461,-529 461,-559 637,-559 637,-529 461,-529"/>
<text text-anchor="start" x="469" y="-547" font-family="Helvetica,sans-Serif" font-size="10.00">engine.gameObject.components.</text>
<text text-anchor="middle" x="549" y="-536" font-family="Helvetica,sans-Serif" font-size="10.00">PhysicsBody.getScalar</text>
</a>
</g>
</g>
<!-- Node1&#45;&gt;Node5 -->
<g id="edge4" class="edge"><title>Node1&#45;&gt;Node5</title>
<path fill="none" stroke="midnightblue" d="M102.305,-297.02C122.314,-322.495 166.545,-374.031 216,-401 293.888,-443.475 340.441,-392.935 410,-448 437.74,-469.96 418.289,-497.003 446,-519 448.124,-520.686 450.346,-522.261 452.647,-523.731"/>
<polygon fill="midnightblue" stroke="midnightblue" points="451.439,-527.066 461.873,-528.901 454.86,-520.959 451.439,-527.066"/>
</g>
<!-- Node6 -->
<g id="node6" class="node"><title>Node6</title>
<g id="a_node6"><a xlink:href="../../d0/d7f/classengine_1_1game_object_1_1_game_object.html#ac7639843418dea4d3ac30a8f2d3a3a9b" target="_top" xlink:title="engine.gameObject.GameObject.get\lTranslateX">
<polygon fill="white" stroke="black" points="453,-480 453,-510 645,-510 645,-480 453,-480"/>
<text text-anchor="start" x="461" y="-498" font-family="Helvetica,sans-Serif" font-size="10.00">engine.gameObject.GameObject.get</text>
<text text-anchor="middle" x="549" y="-487" font-family="Helvetica,sans-Serif" font-size="10.00">TranslateX</text>
</a>
</g>
</g>
<!-- Node1&#45;&gt;Node6 -->
<g id="edge5" class="edge"><title>Node1&#45;&gt;Node6</title>
<path fill="none" stroke="midnightblue" d="M109.709,-297.311C133.159,-315.755 175.239,-346.444 216,-364 297.385,-399.053 338.482,-357.68 410,-410 435.099,-428.362 420.97,-451.544 446,-470 448.641,-471.948 451.416,-473.745 454.291,-475.404"/>
<polygon fill="midnightblue" stroke="midnightblue" points="452.694,-478.518 463.188,-479.975 455.893,-472.292 452.694,-478.518"/>
</g>
<!-- Node7 -->
<g id="node7" class="node"><title>Node7</title>
<g id="a_node7"><a xlink:href="../../d0/d7f/classengine_1_1game_object_1_1_game_object.html#a3a4561bfee95913ae91cc635fdf1167d" target="_top" xlink:title="engine.gameObject.GameObject.get\lTranslateY">
<polygon fill="white" stroke="black" points="453,-431 453,-461 645,-461 645,-431 453,-431"/>
<text text-anchor="start" x="461" y="-449" font-family="Helvetica,sans-Serif" font-size="10.00">engine.gameObject.GameObject.get</text>
<text text-anchor="middle" x="549" y="-438" font-family="Helvetica,sans-Serif" font-size="10.00">TranslateY</text>
</a>
</g>
</g>
<!-- Node1&#45;&gt;Node7 -->
<g id="edge6" class="edge"><title>Node1&#45;&gt;Node7</title>
<path fill="none" stroke="midnightblue" d="M128.043,-297.069C152.697,-306.74 185.956,-319.105 216,-328 300.775,-353.097 336.051,-323.541 410,-372 432.603,-386.812 423.526,-405.993 446,-421 449.101,-423.071 452.358,-424.97 455.726,-426.713"/>
<polygon fill="midnightblue" stroke="midnightblue" points="454.325,-429.922 464.868,-430.968 457.279,-423.575 454.325,-429.922"/>
</g>
<!-- Node8 -->
<g id="node8" class="node"><title>Node8</title>
<g id="a_node8"><a xlink:href="../../d9/d9d/classengine_1_1game_object_1_1components_1_1_physics_body.html#a65baef953a922146f81d923aff4ae8cf" target="_top" xlink:title="engine.gameObject.components.\lPhysicsBody.getVelocity">
<polygon fill="white" stroke="black" points="461,-245 461,-275 637,-275 637,-245 461,-245"/>
<text text-anchor="start" x="469" y="-263" font-family="Helvetica,sans-Serif" font-size="10.00">engine.gameObject.components.</text>
<text text-anchor="middle" x="549" y="-252" font-family="Helvetica,sans-Serif" font-size="10.00">PhysicsBody.getVelocity</text>
</a>
</g>
</g>
<!-- Node1&#45;&gt;Node8 -->
<g id="edge7" class="edge"><title>Node1&#45;&gt;Node8</title>
<path fill="none" stroke="midnightblue" d="M180.199,-277.706C258.044,-273.959 370.768,-268.532 450.871,-264.676"/>
<polygon fill="midnightblue" stroke="midnightblue" points="451.145,-268.167 460.965,-264.19 450.808,-261.175 451.145,-268.167"/>
</g>
<!-- Node9 -->
<g id="node9" class="node"><title>Node9</title>
<g id="a_node9"><a xlink:href="../../d5/d1f/classengine_1_1physics_1_1_vector.html#a1bc7c00d836a738d45eb584223973dec" target="_top" xlink:title="engine.physics.Vector.getX">
<polygon fill="white" stroke="black" points="476.5,-206.5 476.5,-225.5 621.5,-225.5 621.5,-206.5 476.5,-206.5"/>
<text text-anchor="middle" x="549" y="-213.5" font-family="Helvetica,sans-Serif" font-size="10.00">engine.physics.Vector.getX</text>
</a>
</g>
</g>
<!-- Node1&#45;&gt;Node9 -->
<g id="edge8" class="edge"><title>Node1&#45;&gt;Node9</title>
<path fill="none" stroke="midnightblue" d="M180.199,-269.118C265.143,-256.85 391.619,-238.585 471.922,-226.987"/>
<polygon fill="midnightblue" stroke="midnightblue" points="472.569,-230.43 481.966,-225.537 471.568,-223.502 472.569,-230.43"/>
</g>
<!-- Node10 -->
<g id="node10" class="node"><title>Node10</title>
<g id="a_node10"><a xlink:href="../../d5/d1f/classengine_1_1physics_1_1_vector.html#a6f71261863fa29e27f1b3f1051529321" target="_top" xlink:title="engine.physics.Vector.getY">
<polygon fill="white" stroke="black" points="477,-168.5 477,-187.5 621,-187.5 621,-168.5 477,-168.5"/>
<text text-anchor="middle" x="549" y="-175.5" font-family="Helvetica,sans-Serif" font-size="10.00">engine.physics.Vector.getY</text>
</a>
</g>
</g>
<!-- Node1&#45;&gt;Node10 -->
<g id="edge9" class="edge"><title>Node1&#45;&gt;Node10</title>
<path fill="none" stroke="midnightblue" d="M124.607,-266.989C149.428,-256.424 184.271,-242.674 216,-234 300.066,-211.017 398.825,-195.81 466.647,-187.117"/>
<polygon fill="midnightblue" stroke="midnightblue" points="467.358,-190.555 476.841,-185.829 466.481,-183.61 467.358,-190.555"/>
</g>
<!-- Node11 -->
<g id="node11" class="node"><title>Node11</title>
<g id="a_node11"><a xlink:href="../../da/d1b/classengine_1_1collision_1_1objects_1_1_collision_composition.html#a16ad6d1ec6082599cf72870f5cd3dd03" target="_top" xlink:title="engine.collision.objects.\lCollisionComposition.isOnXAxis">
<polygon fill="white" stroke="black" points="230.5,-289 230.5,-319 395.5,-319 395.5,-289 230.5,-289"/>
<text text-anchor="start" x="238.5" y="-307" font-family="Helvetica,sans-Serif" font-size="10.00">engine.collision.objects.</text>
<text text-anchor="middle" x="313" y="-296" font-family="Helvetica,sans-Serif" font-size="10.00">CollisionComposition.isOnXAxis</text>
</a>
</g>
</g>
<!-- Node1&#45;&gt;Node11 -->
<g id="edge10" class="edge"><title>Node1&#45;&gt;Node11</title>
<path fill="none" stroke="midnightblue" d="M180.252,-290.885C193.426,-292.196 207.019,-293.549 220.242,-294.866"/>
<polygon fill="midnightblue" stroke="midnightblue" points="219.972,-298.356 230.269,-295.864 220.665,-291.39 219.972,-298.356"/>
</g>
<!-- Node13 -->
<g id="node13" class="node"><title>Node13</title>
<g id="a_node13"><a xlink:href="../../d0/d7f/classengine_1_1game_object_1_1_game_object.html#ac1d82901c7db3b23772dfe3931e9a53d" target="_top" xlink:title="engine.gameObject.GameObject.set\lTranslateX">
<polygon fill="white" stroke="black" points="453.5,-119 453.5,-149 644.5,-149 644.5,-119 453.5,-119"/>
<text text-anchor="start" x="461.5" y="-137" font-family="Helvetica,sans-Serif" font-size="10.00">engine.gameObject.GameObject.set</text>
<text text-anchor="middle" x="549" y="-126" font-family="Helvetica,sans-Serif" font-size="10.00">TranslateX</text>
</a>
</g>
</g>
<!-- Node1&#45;&gt;Node13 -->
<g id="edge23" class="edge"><title>Node1&#45;&gt;Node13</title>
<path fill="none" stroke="midnightblue" d="M106.902,-266.825C129.321,-246.359 172.377,-210.366 216,-192 288.325,-161.55 375.99,-147.087 443.071,-140.216"/>
<polygon fill="midnightblue" stroke="midnightblue" points="443.625,-143.679 453.235,-139.217 442.94,-136.712 443.625,-143.679"/>
</g>
<!-- Node16 -->
<g id="node16" class="node"><title>Node16</title>
<g id="a_node16"><a xlink:href="../../d0/d7f/classengine_1_1game_object_1_1_game_object.html#a80eaf3afeb78a2502bb3c6affd73bdd7" target="_top" xlink:title="engine.gameObject.GameObject.set\lTranslateY">
<polygon fill="white" stroke="black" points="453.5,-70 453.5,-100 644.5,-100 644.5,-70 453.5,-70"/>
<text text-anchor="start" x="461.5" y="-88" font-family="Helvetica,sans-Serif" font-size="10.00">engine.gameObject.GameObject.set</text>
<text text-anchor="middle" x="549" y="-77" font-family="Helvetica,sans-Serif" font-size="10.00">TranslateY</text>
</a>
</g>
</g>
<!-- Node1&#45;&gt;Node16 -->
<g id="edge24" class="edge"><title>Node1&#45;&gt;Node16</title>
<path fill="none" stroke="midnightblue" d="M99.6777,-266.61C117.331,-236.881 160.497,-171.776 216,-141 254.216,-119.809 361.038,-104.269 443.294,-95.0078"/>
<polygon fill="midnightblue" stroke="midnightblue" points="443.898,-98.4624 453.451,-93.8817 443.127,-91.505 443.898,-98.4624"/>
</g>
<!-- Node17 -->
<g id="node17" class="node"><title>Node17</title>
<g id="a_node17"><a xlink:href="../../d9/d9d/classengine_1_1game_object_1_1components_1_1_physics_body.html#a5f54f878a7fef4a77a58bbee39e8c9d3" target="_top" xlink:title="engine.gameObject.components.\lPhysicsBody.setVelocity">
<polygon fill="white" stroke="black" points="225,-49 225,-79 401,-79 401,-49 225,-49"/>
<text text-anchor="start" x="233" y="-67" font-family="Helvetica,sans-Serif" font-size="10.00">engine.gameObject.components.</text>
<text text-anchor="middle" x="313" y="-56" font-family="Helvetica,sans-Serif" font-size="10.00">PhysicsBody.setVelocity</text>
</a>
</g>
</g>
<!-- Node1&#45;&gt;Node17 -->
<g id="edge25" class="edge"><title>Node1&#45;&gt;Node17</title>
<path fill="none" stroke="midnightblue" d="M96.884,-266.775C111.45,-231.092 152.659,-141.501 216,-94 221.444,-89.9175 227.455,-86.3828 233.734,-83.3237"/>
<polygon fill="midnightblue" stroke="midnightblue" points="235.369,-86.4274 243.091,-79.1735 232.531,-80.0286 235.369,-86.4274"/>
</g>
<!-- Node18 -->
<g id="node18" class="node"><title>Node18</title>
<g id="a_node18"><a xlink:href="../../dc/db5/classengine_1_1physics_1_1_physics_component.html#aabe6f17a9d86eaf42e9df5769182dfa5" target="_top" xlink:title="engine.physics.PhysicsComponent.to\lString">
<polygon fill="white" stroke="black" points="216,-0 216,-30 410,-30 410,-0 216,-0"/>
<text text-anchor="start" x="224" y="-18" font-family="Helvetica,sans-Serif" font-size="10.00">engine.physics.PhysicsComponent.to</text>
<text text-anchor="middle" x="313" y="-7" font-family="Helvetica,sans-Serif" font-size="10.00">String</text>
</a>
</g>
</g>
<!-- Node1&#45;&gt;Node18 -->
<g id="edge26" class="edge"><title>Node1&#45;&gt;Node18</title>
<path fill="none" stroke="midnightblue" d="M94.1653,-266.972C103.992,-224.171 138.116,-100.746 216,-39 217.615,-37.7193 219.29,-36.5059 221.016,-35.3563"/>
<polygon fill="midnightblue" stroke="midnightblue" points="223.132,-38.1747 230.02,-30.1242 219.615,-32.1223 223.132,-38.1747"/>
</g>
<!-- Node11&#45;&gt;Node4 -->
<g id="edge11" class="edge"><title>Node11&#45;&gt;Node4</title>
<path fill="none" stroke="midnightblue" d="M326.272,-319.069C346.312,-344.328 386.21,-397.431 410,-448 433.703,-498.384 405.634,-529.646 446,-568 447.487,-569.413 449.04,-570.75 450.651,-572.015"/>
<polygon fill="midnightblue" stroke="midnightblue" points="448.901,-575.056 459.145,-577.758 452.822,-569.257 448.901,-575.056"/>
</g>
<!-- Node11&#45;&gt;Node5 -->
<g id="edge12" class="edge"><title>Node11&#45;&gt;Node5</title>
<path fill="none" stroke="midnightblue" d="M331.655,-319.164C352.975,-338.343 388.63,-373.314 410,-410 435.68,-454.084 408.534,-484.371 446,-519 447.933,-520.787 449.972,-522.451 452.1,-524.002"/>
<polygon fill="midnightblue" stroke="midnightblue" points="450.382,-527.056 460.706,-529.436 454.119,-521.138 450.382,-527.056"/>
</g>
<!-- Node11&#45;&gt;Node6 -->
<g id="edge17" class="edge"><title>Node11&#45;&gt;Node6</title>
<path fill="none" stroke="midnightblue" d="M344.565,-319.246C365.539,-331.085 392.621,-349.294 410,-372 438.202,-408.847 411.409,-439.072 446,-470 447.712,-471.53 449.502,-472.971 451.359,-474.326"/>
<polygon fill="midnightblue" stroke="midnightblue" points="449.571,-477.337 459.889,-479.741 453.322,-471.427 449.571,-477.337"/>
</g>
<!-- Node11&#45;&gt;Node7 -->
<g id="edge18" class="edge"><title>Node11&#45;&gt;Node7</title>
<path fill="none" stroke="midnightblue" d="M386.96,-319.117C395.359,-322.997 403.299,-327.873 410,-334 440.883,-362.237 414.249,-393.742 446,-421 447.798,-422.544 449.677,-423.996 451.624,-425.36"/>
<polygon fill="midnightblue" stroke="midnightblue" points="450.191,-428.586 460.551,-430.803 453.835,-422.609 450.191,-428.586"/>
</g>
<!-- Node11&#45;&gt;Node8 -->
<g id="edge14" class="edge"><title>Node11&#45;&gt;Node8</title>
<path fill="none" stroke="midnightblue" d="M393.875,-288.981C414.563,-285.091 436.978,-280.876 458.14,-276.897"/>
<polygon fill="midnightblue" stroke="midnightblue" points="458.907,-280.314 468.088,-275.026 457.613,-273.435 458.907,-280.314"/>
</g>
<!-- Node11&#45;&gt;Node9 -->
<g id="edge15" class="edge"><title>Node11&#45;&gt;Node9</title>
<path fill="none" stroke="midnightblue" d="M337.833,-288.751C363.543,-272.981 406.165,-248.774 446,-235 453.953,-232.25 462.401,-229.871 470.897,-227.819"/>
<polygon fill="midnightblue" stroke="midnightblue" points="471.889,-231.183 480.867,-225.558 470.341,-224.356 471.889,-231.183"/>
</g>
<!-- Node11&#45;&gt;Node10 -->
<g id="edge16" class="edge"><title>Node11&#45;&gt;Node10</title>
<path fill="none" stroke="midnightblue" d="M327.757,-288.77C350.09,-265.079 396.722,-219.759 446,-197 452.633,-193.936 459.725,-191.367 466.964,-189.211"/>
<polygon fill="midnightblue" stroke="midnightblue" points="468.159,-192.514 476.897,-186.521 466.329,-185.757 468.159,-192.514"/>
</g>
<!-- Node12 -->
<g id="node12" class="node"><title>Node12</title>
<g id="a_node12"><a xlink:href="../../d0/de5/classengine_1_1physics_1_1_scalar.html#a676fb6b37fae2e642fcdec1109b4b233" target="_top" xlink:title="engine.physics.Scalar.get\lValue">
<polygon fill="white" stroke="black" points="480,-382 480,-412 618,-412 618,-382 480,-382"/>
<text text-anchor="start" x="488" y="-400" font-family="Helvetica,sans-Serif" font-size="10.00">engine.physics.Scalar.get</text>
<text text-anchor="middle" x="549" y="-389" font-family="Helvetica,sans-Serif" font-size="10.00">Value</text>
</a>
</g>
</g>
<!-- Node11&#45;&gt;Node12 -->
<g id="edge13" class="edge"><title>Node11&#45;&gt;Node12</title>
<path fill="none" stroke="midnightblue" d="M378.241,-319.058C389.272,-323.028 400.295,-327.947 410,-334 429.74,-346.311 425.885,-360.312 446,-372 453.502,-376.359 461.74,-379.962 470.181,-382.938"/>
<polygon fill="midnightblue" stroke="midnightblue" points="469.177,-386.292 479.768,-386.04 471.331,-379.632 469.177,-386.292"/>
</g>
<!-- Node11&#45;&gt;Node13 -->
<g id="edge19" class="edge"><title>Node11&#45;&gt;Node13</title>
<path fill="none" stroke="midnightblue" d="M323.488,-288.543C342.697,-258.616 389.231,-192.746 446,-159 449.659,-156.825 453.498,-154.839 457.455,-153.025"/>
<polygon fill="midnightblue" stroke="midnightblue" points="458.989,-156.178 466.871,-149.099 456.294,-149.717 458.989,-156.178"/>
</g>
<!-- Node14 -->
<g id="node14" class="node"><title>Node14</title>
<g id="a_node14"><a xlink:href="../../d0/d7f/classengine_1_1game_object_1_1_game_object.html#a901e42e4b26176a748b42879941eb4f4" target="_top" xlink:title="engine.gameObject.GameObject.get\lRenderedNode">
<polygon fill="white" stroke="black" points="453,-333 453,-363 645,-363 645,-333 453,-333"/>
<text text-anchor="start" x="461" y="-351" font-family="Helvetica,sans-Serif" font-size="10.00">engine.gameObject.GameObject.get</text>
<text text-anchor="middle" x="549" y="-340" font-family="Helvetica,sans-Serif" font-size="10.00">RenderedNode</text>
</a>
</g>
</g>
<!-- Node11&#45;&gt;Node14 -->
<g id="edge20" class="edge"><title>Node11&#45;&gt;Node14</title>
<path fill="none" stroke="midnightblue" d="M393.875,-319.019C414.563,-322.909 436.978,-327.124 458.14,-331.103"/>
<polygon fill="midnightblue" stroke="midnightblue" points="457.613,-334.565 468.088,-332.974 458.907,-327.686 457.613,-334.565"/>
</g>
<!-- Node15 -->
<g id="node15" class="node"><title>Node15</title>
<g id="a_node15"><a xlink:href="../../d2/d82/classengine_1_1render_1_1_rendered_node.html#ac199ac1cb9b6509d685d2aca157e5a3d" target="_top" xlink:title="engine.render.RenderedNode.intersects">
<polygon fill="white" stroke="black" points="446,-294.5 446,-313.5 652,-313.5 652,-294.5 446,-294.5"/>
<text text-anchor="middle" x="549" y="-301.5" font-family="Helvetica,sans-Serif" font-size="10.00">engine.render.RenderedNode.intersects</text>
</a>
</g>
</g>
<!-- Node11&#45;&gt;Node15 -->
<g id="edge21" class="edge"><title>Node11&#45;&gt;Node15</title>
<path fill="none" stroke="midnightblue" d="M395.513,-304C408.441,-304 422.008,-304 435.495,-304"/>
<polygon fill="midnightblue" stroke="midnightblue" points="435.781,-307.5 445.781,-304 435.781,-300.5 435.781,-307.5"/>
</g>
<!-- Node11&#45;&gt;Node16 -->
<g id="edge22" class="edge"><title>Node11&#45;&gt;Node16</title>
<path fill="none" stroke="midnightblue" d="M319.626,-288.989C334.281,-252.052 377.33,-156.324 446,-109 448.274,-107.433 450.637,-105.967 453.07,-104.597"/>
<polygon fill="midnightblue" stroke="midnightblue" points="454.787,-107.651 462.155,-100.038 451.647,-101.395 454.787,-107.651"/>
</g>
</g>
</svg>
        <g id="navigator" transform="translate(0 0)" fill="#404254">
                <rect fill="#f2f5e9" fill-opacity="0.5" stroke="#606060" stroke-width=".5" x="0" y="0" width="60" height="60"/>
                <use id="zoomplus" xlink:href="#zoomPlus" x="17" y="9" onmousedown="handleZoom(evt,'in')"/>
                <use id="zoomminus" xlink:href="#zoomMin" x="42" y="9" onmousedown="handleZoom(evt,'out')"/>
                <use id="reset" xlink:href="#resetDef" x="30" y="36" onmousedown="handleReset()"/>
                <g id="arrowUp" xlink:href="#dirArrow" transform="translate(30 24)" onmousedown="handlePan(0,-1)">
                  <use xlink:href="#rim" fill="#404040">
                        <set attributeName="fill" to="#808080" begin="arrowUp.mouseover" end="arrowUp.mouseout"/>
                  </use>
                  <path fill="none" stroke="white" stroke-width="1.5" d="M0,-3.0v7 M-2.5,-0.5L0,-3.0L2.5,-0.5"/>
                </g>
                <g id="arrowRight" xlink:href="#dirArrow" transform="rotate(90) translate(36 -43)" onmousedown="handlePan(1,0)">
                  <use xlink:href="#rim" fill="#404040">
                        <set attributeName="fill" to="#808080" begin="arrowRight.mouseover" end="arrowRight.mouseout"/>
                  </use>
                  <path fill="none" stroke="white" stroke-width="1.5" d="M0,-3.0v7 M-2.5,-0.5L0,-3.0L2.5,-0.5"/>
                </g>
                <g id="arrowDown" xlink:href="#dirArrow" transform="rotate(180) translate(-30 -48)" onmousedown="handlePan(0,1)">
                  <use xlink:href="#rim" fill="#404040">
                        <set attributeName="fill" to="#808080" begin="arrowDown.mouseover" end="arrowDown.mouseout"/>
                  </use>
                  <path fill="none" stroke="white" stroke-width="1.5" d="M0,-3.0v7 M-2.5,-0.5L0,-3.0L2.5,-0.5"/>
                </g>
                <g id="arrowLeft" xlink:href="#dirArrow" transform="rotate(270) translate(-36 17)" onmousedown="handlePan(-1,0)">
                  <use xlink:href="#rim" fill="#404040">
                        <set attributeName="fill" to="#808080" begin="arrowLeft.mouseover" end="arrowLeft.mouseout"/>
                  </use>
                  <path fill="none" stroke="white" stroke-width="1.5" d="M0,-3.0v7 M-2.5,-0.5L0,-3.0L2.5,-0.5"/>
                </g>
        </g>
        <svg viewBox="0 0 15 15" width="100%" height="30px" preserveAspectRatio="xMaxYMin meet">
         <g id="arrow_out" transform="scale(0.3 0.3)">
          <a xlink:href="classengine_1_1collision_1_1objects_1_1_collision_composition_a7ec4687ad9367279088b965c0e009cd0_cgraph_org.svg" target="_base">
           <rect id="button" ry="5" rx="5" y="6" x="6" height="38" width="38"
                fill="#f2f5e9" fill-opacity="0.5" stroke="#606060" stroke-width="1.0"/>
           <path id="arrow"
             d="M 11.500037,31.436501 C 11.940474,20.09759 22.043105,11.32322 32.158766,21.979434 L 37.068811,17.246167 C 37.068811,17.246167 37.088388,32 37.088388,32 L 22.160133,31.978069 C 22.160133,31.978069 26.997745,27.140456 26.997745,27.140456 C 18.528582,18.264221 13.291696,25.230495 11.500037,31.436501 z"
             style="fill:#404040;"/>
          </a>
         </g>
        </svg>
</svg>
