<?xml version="1.0" encoding="UTF-8" standalone="no"?>
<!DOCTYPE svg PUBLIC "-//W3C//DTD SVG 1.1//EN"
 "http://www.w3.org/Graphics/SVG/1.1/DTD/svg11.dtd">
<!-- Generated by graphviz version 2.36.0 (20140111.2315)
 -->
<!-- Title: engine.collision.objects.CollisionComposition.fixedCollision Pages: 1 -->
<svg width="654pt" height="589pt"
 viewBox="0.00 0.00 654.00 589.00" xmlns="http://www.w3.org/2000/svg" xmlns:xlink="http://www.w3.org/1999/xlink">
<g id="graph0" class="graph" transform="scale(1 1) rotate(0) translate(4 585)">
<title>engine.collision.objects.CollisionComposition.fixedCollision</title>
<polygon fill="white" stroke="none" points="-4,4 -4,-585 650,-585 650,4 -4,4"/>
<!-- Node1 -->
<g id="node1" class="node"><title>Node1</title>
<polygon fill="#bfbfbf" stroke="black" points="0,-262 0,-292 180,-292 180,-262 0,-262"/>
<text text-anchor="start" x="8" y="-280" font-family="Helvetica,sans-Serif" font-size="10.00">engine.collision.objects.</text>
<text text-anchor="middle" x="90" y="-269" font-family="Helvetica,sans-Serif" font-size="10.00">CollisionComposition.fixedCollision</text>
</g>
<!-- Node2 -->
<g id="node2" class="node"><title>Node2</title>
<g id="a_node2"><a xlink:href="../../da/d1b/classengine_1_1collision_1_1objects_1_1_collision_composition.html#a06a8879c59fabdea91484f5d6d492fe7" target="_top" xlink:title="engine.collision.objects.\lCollisionComposition.collision\lHelper">
<polygon fill="white" stroke="black" points="232,-539.5 232,-580.5 388,-580.5 388,-539.5 232,-539.5"/>
<text text-anchor="start" x="240" y="-568.5" font-family="Helvetica,sans-Serif" font-size="10.00">engine.collision.objects.</text>
<text text-anchor="start" x="240" y="-557.5" font-family="Helvetica,sans-Serif" font-size="10.00">CollisionComposition.collision</text>
<text text-anchor="middle" x="310" y="-546.5" font-family="Helvetica,sans-Serif" font-size="10.00">Helper</text>
</a>
</g>
</g>
<!-- Node1&#45;&gt;Node2 -->
<g id="edge1" class="edge"><title>Node1&#45;&gt;Node2</title>
<path fill="none" stroke="midnightblue" d="M94.1127,-292.06C103.894,-335.597 138.109,-462.783 216,-530 218.228,-531.922 220.58,-533.722 223.031,-535.407"/>
<polygon fill="midnightblue" stroke="midnightblue" points="221.342,-538.476 231.7,-540.703 224.991,-532.503 221.342,-538.476"/>
</g>
<!-- Node3 -->
<g id="node3" class="node"><title>Node3</title>
<g id="a_node3"><a xlink:href="../../d9/d9d/classengine_1_1game_object_1_1components_1_1_physics_body.html#aba2ed3bce8ee8e404907c88b144626fc" target="_top" xlink:title="engine.gameObject.components.\lPhysicsBody.getCollisionBodyHeight">
<polygon fill="white" stroke="black" points="216,-491 216,-521 404,-521 404,-491 216,-491"/>
<text text-anchor="start" x="224" y="-509" font-family="Helvetica,sans-Serif" font-size="10.00">engine.gameObject.components.</text>
<text text-anchor="middle" x="310" y="-498" font-family="Helvetica,sans-Serif" font-size="10.00">PhysicsBody.getCollisionBodyHeight</text>
</a>
</g>
</g>
<!-- Node1&#45;&gt;Node3 -->
<g id="edge2" class="edge"><title>Node1&#45;&gt;Node3</title>
<path fill="none" stroke="midnightblue" d="M95.8803,-292.272C108.859,-330.362 147.961,-430.148 216,-481 218.53,-482.891 221.193,-484.639 223.955,-486.254"/>
<polygon fill="midnightblue" stroke="midnightblue" points="222.586,-489.487 233.076,-490.978 225.806,-483.271 222.586,-489.487"/>
</g>
<!-- Node4 -->
<g id="node4" class="node"><title>Node4</title>
<g id="a_node4"><a xlink:href="../../d9/d9d/classengine_1_1game_object_1_1components_1_1_physics_body.html#ae64e43632570392c3118b3d00af853fc" target="_top" xlink:title="engine.gameObject.components.\lPhysicsBody.getCollisionBodyWidth">
<polygon fill="white" stroke="black" points="219,-442 219,-472 401,-472 401,-442 219,-442"/>
<text text-anchor="start" x="227" y="-460" font-family="Helvetica,sans-Serif" font-size="10.00">engine.gameObject.components.</text>
<text text-anchor="middle" x="310" y="-449" font-family="Helvetica,sans-Serif" font-size="10.00">PhysicsBody.getCollisionBodyWidth</text>
</a>
</g>
</g>
<!-- Node1&#45;&gt;Node4 -->
<g id="edge3" class="edge"><title>Node1&#45;&gt;Node4</title>
<path fill="none" stroke="midnightblue" d="M99.5789,-292.189C117.368,-322.335 161.222,-390.001 216,-427 222.186,-431.178 228.993,-434.806 236.024,-437.95"/>
<polygon fill="midnightblue" stroke="midnightblue" points="235.135,-441.369 245.715,-441.943 237.802,-434.897 235.135,-441.369"/>
</g>
<!-- Node5 -->
<g id="node5" class="node"><title>Node5</title>
<g id="a_node5"><a xlink:href="../../d0/d7f/classengine_1_1game_object_1_1_game_object.html#a60c5b6933aac9969491a3562a963c043" target="_top" xlink:title="engine.gameObject.GameObject.get\lPhysicsBody">
<polygon fill="white" stroke="black" points="447,-529 447,-559 639,-559 639,-529 447,-529"/>
<text text-anchor="start" x="455" y="-547" font-family="Helvetica,sans-Serif" font-size="10.00">engine.gameObject.GameObject.get</text>
<text text-anchor="middle" x="543" y="-536" font-family="Helvetica,sans-Serif" font-size="10.00">PhysicsBody</text>
</a>
</g>
</g>
<!-- Node1&#45;&gt;Node5 -->
<g id="edge4" class="edge"><title>Node1&#45;&gt;Node5</title>
<path fill="none" stroke="midnightblue" d="M103.056,-292.255C123.508,-317.035 167.533,-365.792 216,-391 291.956,-430.505 338.357,-378.037 404,-433 435.77,-459.601 408.505,-492.074 440,-519 441.802,-520.54 443.683,-521.989 445.632,-523.35"/>
<polygon fill="midnightblue" stroke="midnightblue" points="444.205,-526.579 454.569,-528.782 447.842,-520.597 444.205,-526.579"/>
</g>
<!-- Node6 -->
<g id="node6" class="node"><title>Node6</title>
<g id="a_node6"><a xlink:href="../../d9/d9d/classengine_1_1game_object_1_1components_1_1_physics_body.html#ae282c9fc52683cc7b976cf4a57129573" target="_top" xlink:title="engine.gameObject.components.\lPhysicsBody.getScalar">
<polygon fill="white" stroke="black" points="455,-480 455,-510 631,-510 631,-480 455,-480"/>
<text text-anchor="start" x="463" y="-498" font-family="Helvetica,sans-Serif" font-size="10.00">engine.gameObject.components.</text>
<text text-anchor="middle" x="543" y="-487" font-family="Helvetica,sans-Serif" font-size="10.00">PhysicsBody.getScalar</text>
</a>
</g>
</g>
<!-- Node1&#45;&gt;Node6 -->
<g id="edge5" class="edge"><title>Node1&#45;&gt;Node6</title>
<path fill="none" stroke="midnightblue" d="M111.138,-292.22C134.978,-309.551 176.453,-337.581 216,-354 295.349,-386.944 336.563,-345.766 404,-399 431.77,-420.922 412.289,-448.003 440,-470 442.124,-471.686 444.346,-473.261 446.647,-474.731"/>
<polygon fill="midnightblue" stroke="midnightblue" points="445.439,-478.066 455.873,-479.901 448.86,-471.959 445.439,-478.066"/>
</g>
<!-- Node7 -->
<g id="node7" class="node"><title>Node7</title>
<g id="a_node7"><a xlink:href="../../d0/d7f/classengine_1_1game_object_1_1_game_object.html#ac7639843418dea4d3ac30a8f2d3a3a9b" target="_top" xlink:title="engine.gameObject.GameObject.get\lTranslateX">
<polygon fill="white" stroke="black" points="447,-431 447,-461 639,-461 639,-431 447,-431"/>
<text text-anchor="start" x="455" y="-449" font-family="Helvetica,sans-Serif" font-size="10.00">engine.gameObject.GameObject.get</text>
<text text-anchor="middle" x="543" y="-438" font-family="Helvetica,sans-Serif" font-size="10.00">TranslateX</text>
</a>
</g>
</g>
<!-- Node1&#45;&gt;Node7 -->
<g id="edge6" class="edge"><title>Node1&#45;&gt;Node7</title>
<path fill="none" stroke="midnightblue" d="M132.33,-292.096C156.523,-300.628 187.773,-311.128 216,-319 298.468,-341.999 334.573,-310.901 404,-361 429.218,-379.198 414.97,-402.544 440,-421 442.641,-422.948 445.416,-424.745 448.291,-426.404"/>
<polygon fill="midnightblue" stroke="midnightblue" points="446.694,-429.518 457.188,-430.975 449.893,-423.292 446.694,-429.518"/>
</g>
<!-- Node8 -->
<g id="node8" class="node"><title>Node8</title>
<g id="a_node8"><a xlink:href="../../d0/d7f/classengine_1_1game_object_1_1_game_object.html#a3a4561bfee95913ae91cc635fdf1167d" target="_top" xlink:title="engine.gameObject.GameObject.get\lTranslateY">
<polygon fill="white" stroke="black" points="447,-382 447,-412 639,-412 639,-382 447,-382"/>
<text text-anchor="start" x="455" y="-400" font-family="Helvetica,sans-Serif" font-size="10.00">engine.gameObject.GameObject.get</text>
<text text-anchor="middle" x="543" y="-389" font-family="Helvetica,sans-Serif" font-size="10.00">TranslateY</text>
</a>
</g>
</g>
<!-- Node1&#45;&gt;Node8 -->
<g id="edge7" class="edge"><title>Node1&#45;&gt;Node8</title>
<path fill="none" stroke="midnightblue" d="M180.163,-282.465C259.091,-288.666 367.289,-300.917 404,-323 427.157,-336.929 417.526,-356.993 440,-372 443.101,-374.071 446.358,-375.97 449.726,-377.713"/>
<polygon fill="midnightblue" stroke="midnightblue" points="448.325,-380.922 458.868,-381.968 451.279,-374.575 448.325,-380.922"/>
</g>
<!-- Node9 -->
<g id="node9" class="node"><title>Node9</title>
<g id="a_node9"><a xlink:href="../../d0/de5/classengine_1_1physics_1_1_scalar.html#a676fb6b37fae2e642fcdec1109b4b233" target="_top" xlink:title="engine.physics.Scalar.get\lValue">
<polygon fill="white" stroke="black" points="474,-196 474,-226 612,-226 612,-196 474,-196"/>
<text text-anchor="start" x="482" y="-214" font-family="Helvetica,sans-Serif" font-size="10.00">engine.physics.Scalar.get</text>
<text text-anchor="middle" x="543" y="-203" font-family="Helvetica,sans-Serif" font-size="10.00">Value</text>
</a>
</g>
</g>
<!-- Node1&#45;&gt;Node9 -->
<g id="edge8" class="edge"><title>Node1&#45;&gt;Node9</title>
<path fill="none" stroke="midnightblue" d="M122.831,-261.973C147.625,-251.028 183.227,-236.949 216,-230 299.349,-212.328 397.187,-208.857 463.778,-209.003"/>
<polygon fill="midnightblue" stroke="midnightblue" points="463.762,-212.503 473.78,-209.053 463.797,-205.503 463.762,-212.503"/>
</g>
<!-- Node10 -->
<g id="node10" class="node"><title>Node10</title>
<g id="a_node10"><a xlink:href="../../d9/d9d/classengine_1_1game_object_1_1components_1_1_physics_body.html#a65baef953a922146f81d923aff4ae8cf" target="_top" xlink:title="engine.gameObject.components.\lPhysicsBody.getVelocity">
<polygon fill="white" stroke="black" points="455,-147 455,-177 631,-177 631,-147 455,-147"/>
<text text-anchor="start" x="463" y="-165" font-family="Helvetica,sans-Serif" font-size="10.00">engine.gameObject.components.</text>
<text text-anchor="middle" x="543" y="-154" font-family="Helvetica,sans-Serif" font-size="10.00">PhysicsBody.getVelocity</text>
</a>
</g>
</g>
<!-- Node1&#45;&gt;Node10 -->
<g id="edge9" class="edge"><title>Node1&#45;&gt;Node10</title>
<path fill="none" stroke="midnightblue" d="M111.972,-261.999C135.919,-245.671 176.858,-220.138 216,-207 290.446,-182.013 378.923,-170.885 444.906,-165.937"/>
<polygon fill="midnightblue" stroke="midnightblue" points="445.161,-169.428 454.885,-165.223 444.661,-162.446 445.161,-169.428"/>
</g>
<!-- Node11 -->
<g id="node11" class="node"><title>Node11</title>
<g id="a_node11"><a xlink:href="../../d5/d1f/classengine_1_1physics_1_1_vector.html#a1bc7c00d836a738d45eb584223973dec" target="_top" xlink:title="engine.physics.Vector.getX">
<polygon fill="white" stroke="black" points="470.5,-108.5 470.5,-127.5 615.5,-127.5 615.5,-108.5 470.5,-108.5"/>
<text text-anchor="middle" x="543" y="-115.5" font-family="Helvetica,sans-Serif" font-size="10.00">engine.physics.Vector.getX</text>
</a>
</g>
</g>
<!-- Node1&#45;&gt;Node11 -->
<g id="edge10" class="edge"><title>Node1&#45;&gt;Node11</title>
<path fill="none" stroke="midnightblue" d="M102.992,-261.911C123.353,-237.471 167.249,-189.679 216,-167 293.617,-130.893 391.821,-120.251 460.06,-117.643"/>
<polygon fill="midnightblue" stroke="midnightblue" points="460.447,-121.132 470.326,-117.303 460.215,-114.136 460.447,-121.132"/>
</g>
<!-- Node12 -->
<g id="node12" class="node"><title>Node12</title>
<g id="a_node12"><a xlink:href="../../d5/d1f/classengine_1_1physics_1_1_vector.html#a6f71261863fa29e27f1b3f1051529321" target="_top" xlink:title="engine.physics.Vector.getY">
<polygon fill="white" stroke="black" points="471,-70.5 471,-89.5 615,-89.5 615,-70.5 471,-70.5"/>
<text text-anchor="middle" x="543" y="-77.5" font-family="Helvetica,sans-Serif" font-size="10.00">engine.physics.Vector.getY</text>
</a>
</g>
</g>
<!-- Node1&#45;&gt;Node12 -->
<g id="edge11" class="edge"><title>Node1&#45;&gt;Node12</title>
<path fill="none" stroke="midnightblue" d="M98.0355,-261.553C113.841,-228.843 155.568,-152.825 216,-119 291.26,-76.8755 391.44,-70.9221 460.791,-73.0977"/>
<polygon fill="midnightblue" stroke="midnightblue" points="460.668,-76.5955 470.792,-73.4743 460.931,-69.6004 460.668,-76.5955"/>
</g>
<!-- Node13 -->
<g id="node13" class="node"><title>Node13</title>
<g id="a_node13"><a xlink:href="../../da/d1b/classengine_1_1collision_1_1objects_1_1_collision_composition.html#a16ad6d1ec6082599cf72870f5cd3dd03" target="_top" xlink:title="engine.collision.objects.\lCollisionComposition.isOnXAxis">
<polygon fill="white" stroke="black" points="227.5,-240 227.5,-270 392.5,-270 392.5,-240 227.5,-240"/>
<text text-anchor="start" x="235.5" y="-258" font-family="Helvetica,sans-Serif" font-size="10.00">engine.collision.objects.</text>
<text text-anchor="middle" x="310" y="-247" font-family="Helvetica,sans-Serif" font-size="10.00">CollisionComposition.isOnXAxis</text>
</a>
</g>
</g>
<!-- Node1&#45;&gt;Node13 -->
<g id="edge12" class="edge"><title>Node1&#45;&gt;Node13</title>
<path fill="none" stroke="midnightblue" d="M180.298,-267.988C192.424,-266.765 204.886,-265.507 217.058,-264.279"/>
<polygon fill="midnightblue" stroke="midnightblue" points="217.602,-267.742 227.2,-263.255 216.899,-260.777 217.602,-267.742"/>
</g>
<!-- Node17 -->
<g id="node17" class="node"><title>Node17</title>
<g id="a_node17"><a xlink:href="../../d0/d7f/classengine_1_1game_object_1_1_game_object.html#a80eaf3afeb78a2502bb3c6affd73bdd7" target="_top" xlink:title="engine.gameObject.GameObject.set\lTranslateY">
<polygon fill="white" stroke="black" points="447.5,-21 447.5,-51 638.5,-51 638.5,-21 447.5,-21"/>
<text text-anchor="start" x="455.5" y="-39" font-family="Helvetica,sans-Serif" font-size="10.00">engine.gameObject.GameObject.set</text>
<text text-anchor="middle" x="543" y="-28" font-family="Helvetica,sans-Serif" font-size="10.00">TranslateY</text>
</a>
</g>
</g>
<!-- Node1&#45;&gt;Node17 -->
<g id="edge25" class="edge"><title>Node1&#45;&gt;Node17</title>
<path fill="none" stroke="midnightblue" d="M95.1828,-261.954C106.867,-223.048 143.826,-118.96 216,-73 251.708,-50.2611 355.856,-41.4541 436.929,-38.0665"/>
<polygon fill="midnightblue" stroke="midnightblue" points="437.343,-41.5529 447.197,-37.6609 437.067,-34.5584 437.343,-41.5529"/>
</g>
<!-- Node18 -->
<g id="node18" class="node"><title>Node18</title>
<g id="a_node18"><a xlink:href="../../d9/d9d/classengine_1_1game_object_1_1components_1_1_physics_body.html#a5f54f878a7fef4a77a58bbee39e8c9d3" target="_top" xlink:title="engine.gameObject.components.\lPhysicsBody.setVelocity">
<polygon fill="white" stroke="black" points="222,-0 222,-30 398,-30 398,-0 222,-0"/>
<text text-anchor="start" x="230" y="-18" font-family="Helvetica,sans-Serif" font-size="10.00">engine.gameObject.components.</text>
<text text-anchor="middle" x="310" y="-7" font-family="Helvetica,sans-Serif" font-size="10.00">PhysicsBody.setVelocity</text>
</a>
</g>
</g>
<!-- Node1&#45;&gt;Node18 -->
<g id="edge26" class="edge"><title>Node1&#45;&gt;Node18</title>
<path fill="none" stroke="midnightblue" d="M94.9039,-261.715C106.233,-220.438 143.043,-105.746 216,-45 220.791,-41.0107 226.123,-37.5485 231.743,-34.5443"/>
<polygon fill="midnightblue" stroke="midnightblue" points="233.285,-37.6864 240.772,-30.1904 230.244,-31.381 233.285,-37.6864"/>
</g>
<!-- Node13&#45;&gt;Node5 -->
<g id="edge13" class="edge"><title>Node13&#45;&gt;Node5</title>
<path fill="none" stroke="midnightblue" d="M322.854,-270.139C342.219,-295.498 380.801,-348.741 404,-399 427.336,-449.556 399.634,-480.646 440,-519 441.487,-520.413 443.04,-521.75 444.651,-523.015"/>
<polygon fill="midnightblue" stroke="midnightblue" points="442.901,-526.056 453.145,-528.758 446.822,-520.257 442.901,-526.056"/>
</g>
<!-- Node13&#45;&gt;Node6 -->
<g id="edge14" class="edge"><title>Node13&#45;&gt;Node6</title>
<path fill="none" stroke="midnightblue" d="M328.075,-270.279C348.702,-289.573 383.214,-324.661 404,-361 429.331,-405.285 402.534,-435.371 440,-470 441.933,-471.787 443.972,-473.451 446.1,-475.002"/>
<polygon fill="midnightblue" stroke="midnightblue" points="444.382,-478.056 454.706,-480.436 448.119,-472.138 444.382,-478.056"/>
</g>
<!-- Node13&#45;&gt;Node7 -->
<g id="edge19" class="edge"><title>Node13&#45;&gt;Node7</title>
<path fill="none" stroke="midnightblue" d="M340.166,-270.202C360.539,-282.135 387.028,-300.476 404,-323 431.924,-360.059 405.409,-390.072 440,-421 441.712,-422.53 443.502,-423.971 445.359,-425.326"/>
<polygon fill="midnightblue" stroke="midnightblue" points="443.571,-428.337 453.889,-430.741 447.322,-422.427 443.571,-428.337"/>
</g>
<!-- Node13&#45;&gt;Node8 -->
<g id="edge20" class="edge"><title>Node13&#45;&gt;Node8</title>
<path fill="none" stroke="midnightblue" d="M381.227,-270.172C389.534,-274.044 397.392,-278.902 404,-285 434.754,-313.378 408.249,-344.742 440,-372 441.798,-373.544 443.677,-374.996 445.624,-376.36"/>
<polygon fill="midnightblue" stroke="midnightblue" points="444.191,-379.586 454.551,-381.803 447.835,-373.609 444.191,-379.586"/>
</g>
<!-- Node13&#45;&gt;Node9 -->
<g id="edge15" class="edge"><title>Node13&#45;&gt;Node9</title>
<path fill="none" stroke="midnightblue" d="M389.851,-239.981C413.753,-235.428 439.991,-230.43 463.847,-225.886"/>
<polygon fill="midnightblue" stroke="midnightblue" points="464.743,-229.279 473.911,-223.969 463.433,-222.402 464.743,-229.279"/>
</g>
<!-- Node13&#45;&gt;Node10 -->
<g id="edge16" class="edge"><title>Node13&#45;&gt;Node10</title>
<path fill="none" stroke="midnightblue" d="M334.836,-239.803C360.075,-224.307 401.509,-200.538 440,-186 445.808,-183.807 451.879,-181.771 458.042,-179.891"/>
<polygon fill="midnightblue" stroke="midnightblue" points="459.148,-183.215 467.775,-177.064 457.195,-176.493 459.148,-183.215"/>
</g>
<!-- Node13&#45;&gt;Node11 -->
<g id="edge17" class="edge"><title>Node13&#45;&gt;Node11</title>
<path fill="none" stroke="midnightblue" d="M322.661,-239.835C343.3,-214.165 388.934,-162.462 440,-137 446.483,-133.767 453.447,-131.082 460.58,-128.85"/>
<polygon fill="midnightblue" stroke="midnightblue" points="461.711,-132.168 470.383,-126.081 459.808,-125.432 461.711,-132.168"/>
</g>
<!-- Node13&#45;&gt;Node12 -->
<g id="edge18" class="edge"><title>Node13&#45;&gt;Node12</title>
<path fill="none" stroke="midnightblue" d="M318.89,-239.557C336.107,-207.568 380.336,-134.12 440,-99 446.457,-95.1994 453.508,-92.1323 460.79,-89.6606"/>
<polygon fill="midnightblue" stroke="midnightblue" points="462.258,-92.8742 470.829,-86.6462 460.245,-86.1699 462.258,-92.8742"/>
</g>
<!-- Node14 -->
<g id="node14" class="node"><title>Node14</title>
<g id="a_node14"><a xlink:href="../../d0/d7f/classengine_1_1game_object_1_1_game_object.html#ac1d82901c7db3b23772dfe3931e9a53d" target="_top" xlink:title="engine.gameObject.GameObject.set\lTranslateX">
<polygon fill="white" stroke="black" points="447.5,-333 447.5,-363 638.5,-363 638.5,-333 447.5,-333"/>
<text text-anchor="start" x="455.5" y="-351" font-family="Helvetica,sans-Serif" font-size="10.00">engine.gameObject.GameObject.set</text>
<text text-anchor="middle" x="543" y="-340" font-family="Helvetica,sans-Serif" font-size="10.00">TranslateX</text>
</a>
</g>
</g>
<!-- Node13&#45;&gt;Node14 -->
<g id="edge21" class="edge"><title>Node13&#45;&gt;Node14</title>
<path fill="none" stroke="midnightblue" d="M372.498,-270.003C383.43,-273.998 394.383,-278.941 404,-285 423.683,-297.402 419.885,-311.312 440,-323 443.873,-325.251 447.943,-327.3 452.135,-329.165"/>
<polygon fill="midnightblue" stroke="midnightblue" points="450.898,-332.44 461.48,-332.962 453.533,-325.955 450.898,-332.44"/>
</g>
<!-- Node15 -->
<g id="node15" class="node"><title>Node15</title>
<g id="a_node15"><a xlink:href="../../d0/d7f/classengine_1_1game_object_1_1_game_object.html#a901e42e4b26176a748b42879941eb4f4" target="_top" xlink:title="engine.gameObject.GameObject.get\lRenderedNode">
<polygon fill="white" stroke="black" points="447,-284 447,-314 639,-314 639,-284 447,-284"/>
<text text-anchor="start" x="455" y="-302" font-family="Helvetica,sans-Serif" font-size="10.00">engine.gameObject.GameObject.get</text>
<text text-anchor="middle" x="543" y="-291" font-family="Helvetica,sans-Serif" font-size="10.00">RenderedNode</text>
</a>
</g>
</g>
<!-- Node13&#45;&gt;Node15 -->
<g id="edge22" class="edge"><title>Node13&#45;&gt;Node15</title>
<path fill="none" stroke="midnightblue" d="M389.851,-270.019C410.181,-273.892 432.201,-278.086 453.008,-282.049"/>
<polygon fill="midnightblue" stroke="midnightblue" points="452.634,-285.541 463.112,-283.974 453.944,-278.664 452.634,-285.541"/>
</g>
<!-- Node16 -->
<g id="node16" class="node"><title>Node16</title>
<g id="a_node16"><a xlink:href="../../d2/d82/classengine_1_1render_1_1_rendered_node.html#ac199ac1cb9b6509d685d2aca157e5a3d" target="_top" xlink:title="engine.render.RenderedNode.intersects">
<polygon fill="white" stroke="black" points="440,-245.5 440,-264.5 646,-264.5 646,-245.5 440,-245.5"/>
<text text-anchor="middle" x="543" y="-252.5" font-family="Helvetica,sans-Serif" font-size="10.00">engine.render.RenderedNode.intersects</text>
</a>
</g>
</g>
<!-- Node13&#45;&gt;Node16 -->
<g id="edge23" class="edge"><title>Node13&#45;&gt;Node16</title>
<path fill="none" stroke="midnightblue" d="M392.767,-255C404.63,-255 417.014,-255 429.355,-255"/>
<polygon fill="midnightblue" stroke="midnightblue" points="429.698,-258.5 439.698,-255 429.698,-251.5 429.698,-258.5"/>
</g>
<!-- Node13&#45;&gt;Node17 -->
<g id="edge24" class="edge"><title>Node13&#45;&gt;Node17</title>
<path fill="none" stroke="midnightblue" d="M316.552,-239.837C330.856,-202.989 372.638,-108.299 440,-61 442.76,-59.0617 445.655,-57.273 448.649,-55.6224"/>
<polygon fill="midnightblue" stroke="midnightblue" points="450.469,-58.6277 457.897,-51.0733 447.379,-52.3464 450.469,-58.6277"/>
</g>
</g>
</svg>
