<?xml version="1.0" encoding="UTF-8" standalone="no"?>
<!DOCTYPE svg PUBLIC "-//W3C//DTD SVG 1.1//EN"
 "http://www.w3.org/Graphics/SVG/1.1/DTD/svg11.dtd">
<!-- Generated by graphviz version 2.36.0 (20140111.2315)
 -->
<!-- Title: engine.collision.objects.CollisionComposition.isOnXAxis Pages: 1 -->
<!--zoomable 545 -->
<svg id="main" version="1.1" xmlns="http://www.w3.org/2000/svg" xmlns:xlink="http://www.w3.org/1999/xlink" xml:space="preserve" onload="init(evt)">
<style type="text/css"><![CDATA[
.edge:hover path { stroke: red; }
.edge:hover polygon { stroke: red; fill: red; }
]]></style>
<script type="text/javascript"><![CDATA[
var edges = document.getElementsByTagName('g');
if (edges && edges.length) {
  for (var i=0;i<edges.length;i++) {
    if (edges[i].id.substr(0,4)=='edge') {
      edges[i].setAttribute('class','edge');
    }
  }
}
]]></script>
        <defs>
                <circle id="rim" cx="0" cy="0" r="7"/>
                <circle id="rim2" cx="0" cy="0" r="3.5"/>
                <g id="zoomPlus">
                        <use xlink:href="#rim" fill="#404040">
                                <set attributeName="fill" to="#808080" begin="zoomplus.mouseover" end="zoomplus.mouseout"/>
                        </use>
                        <path d="M-4,0h8M0,-4v8" fill="none" stroke="white" stroke-width="1.5" pointer-events="none"/>
                </g>
                <g id="zoomMin">
                        <use xlink:href="#rim" fill="#404040">
                                <set attributeName="fill" to="#808080" begin="zoomminus.mouseover" end="zoomminus.mouseout"/>
                        </use>
                        <path d="M-4,0h8" fill="none" stroke="white" stroke-width="1.5" pointer-events="none"/>
                </g>
                <g id="dirArrow">
                        <path fill="none" stroke="white" stroke-width="1.5" d="M0,-3.0v7 M-2.5,-0.5L0,-3.0L2.5,-0.5"/>
                </g>
               <g id="resetDef">
                       <use xlink:href="#rim2" fill="#404040">
                               <set attributeName="fill" to="#808080" begin="reset.mouseover" end="reset.mouseout"/>
                       </use>
               </g>
        </defs>

<script type="text/javascript">
var viewWidth = 416;
var viewHeight = 545;
var sectionId = 'dynsection-3';
</script>
<script xlink:href="../../svgpan.js"/>
<svg id="graph" class="graph">
<g id="viewport">
<title>engine.collision.objects.CollisionComposition.isOnXAxis</title>
<polygon fill="white" stroke="none" points="-4,4 -4,-541 412,-541 412,4 -4,4"/>
<!-- Node1 -->
<g id="node1" class="node"><title>Node1</title>
<polygon fill="#bfbfbf" stroke="black" points="0.5,-237 0.5,-267 165.5,-267 165.5,-237 0.5,-237"/>
<text text-anchor="start" x="8.5" y="-255" font-family="Helvetica,sans-Serif" font-size="10.00">engine.collision.objects.</text>
<text text-anchor="middle" x="83" y="-244" font-family="Helvetica,sans-Serif" font-size="10.00">CollisionComposition.isOnXAxis</text>
</g>
<!-- Node2 -->
<g id="node2" class="node"><title>Node2</title>
<g id="a_node2"><a xlink:href="../../d0/d7f/classengine_1_1game_object_1_1_game_object.html#a60c5b6933aac9969491a3562a963c043" target="_top" xlink:title="engine.gameObject.GameObject.get\lPhysicsBody">
<polygon fill="white" stroke="black" points="209,-507 209,-537 401,-537 401,-507 209,-507"/>
<text text-anchor="start" x="217" y="-525" font-family="Helvetica,sans-Serif" font-size="10.00">engine.gameObject.GameObject.get</text>
<text text-anchor="middle" x="305" y="-514" font-family="Helvetica,sans-Serif" font-size="10.00">PhysicsBody</text>
</a>
</g>
</g>
<!-- Node1&#45;&gt;Node2 -->
<g id="edge1" class="edge"><title>Node1&#45;&gt;Node2</title>
<path fill="none" stroke="midnightblue" d="M86.6601,-267.149C95.061,-310.295 125.164,-434.719 202,-497 204.045,-498.658 206.184,-500.208 208.399,-501.657"/>
<polygon fill="midnightblue" stroke="midnightblue" points="206.873,-504.817 217.288,-506.764 210.36,-498.747 206.873,-504.817"/>
</g>
<!-- Node3 -->
<g id="node3" class="node"><title>Node3</title>
<g id="a_node3"><a xlink:href="../../d0/d7f/classengine_1_1game_object_1_1_game_object.html#a901e42e4b26176a748b42879941eb4f4" target="_top" xlink:title="engine.gameObject.GameObject.get\lRenderedNode">
<polygon fill="white" stroke="black" points="209,-458 209,-488 401,-488 401,-458 209,-458"/>
<text text-anchor="start" x="217" y="-476" font-family="Helvetica,sans-Serif" font-size="10.00">engine.gameObject.GameObject.get</text>
<text text-anchor="middle" x="305" y="-465" font-family="Helvetica,sans-Serif" font-size="10.00">RenderedNode</text>
</a>
</g>
</g>
<!-- Node1&#45;&gt;Node3 -->
<g id="edge2" class="edge"><title>Node1&#45;&gt;Node3</title>
<path fill="none" stroke="midnightblue" d="M88.5515,-267.029C100.561,-304.023 136.75,-399.962 202,-448 204.643,-449.946 207.418,-451.741 210.295,-453.399"/>
<polygon fill="midnightblue" stroke="midnightblue" points="208.7,-456.514 219.195,-457.966 211.896,-450.286 208.7,-456.514"/>
</g>
<!-- Node4 -->
<g id="node4" class="node"><title>Node4</title>
<g id="a_node4"><a xlink:href="../../d9/d9d/classengine_1_1game_object_1_1components_1_1_physics_body.html#ae282c9fc52683cc7b976cf4a57129573" target="_top" xlink:title="engine.gameObject.components.\lPhysicsBody.getScalar">
<polygon fill="white" stroke="black" points="217,-409 217,-439 393,-439 393,-409 217,-409"/>
<text text-anchor="start" x="225" y="-427" font-family="Helvetica,sans-Serif" font-size="10.00">engine.gameObject.components.</text>
<text text-anchor="middle" x="305" y="-416" font-family="Helvetica,sans-Serif" font-size="10.00">PhysicsBody.getScalar</text>
</a>
</g>
</g>
<!-- Node1&#45;&gt;Node4 -->
<g id="edge3" class="edge"><title>Node1&#45;&gt;Node4</title>
<path fill="none" stroke="midnightblue" d="M91.7397,-267.22C107.888,-297.364 148.183,-364.704 202,-399 205.321,-401.117 208.809,-403.054 212.41,-404.827"/>
<polygon fill="midnightblue" stroke="midnightblue" points="211.008,-408.035 221.567,-408.906 213.856,-401.64 211.008,-408.035"/>
</g>
<!-- Node5 -->
<g id="node5" class="node"><title>Node5</title>
<g id="a_node5"><a xlink:href="../../d0/d7f/classengine_1_1game_object_1_1_game_object.html#ac7639843418dea4d3ac30a8f2d3a3a9b" target="_top" xlink:title="engine.gameObject.GameObject.get\lTranslateX">
<polygon fill="white" stroke="black" points="209,-360 209,-390 401,-390 401,-360 209,-360"/>
<text text-anchor="start" x="217" y="-378" font-family="Helvetica,sans-Serif" font-size="10.00">engine.gameObject.GameObject.get</text>
<text text-anchor="middle" x="305" y="-367" font-family="Helvetica,sans-Serif" font-size="10.00">TranslateX</text>
</a>
</g>
</g>
<!-- Node1&#45;&gt;Node5 -->
<g id="edge4" class="edge"><title>Node1&#45;&gt;Node5</title>
<path fill="none" stroke="midnightblue" d="M97.7063,-267.081C118.246,-288.744 159.193,-328.432 202,-350 206.663,-352.35 211.56,-354.486 216.579,-356.429"/>
<polygon fill="midnightblue" stroke="midnightblue" points="215.759,-359.853 226.354,-359.928 218.119,-353.262 215.759,-359.853"/>
</g>
<!-- Node6 -->
<g id="node6" class="node"><title>Node6</title>
<g id="a_node6"><a xlink:href="../../d0/d7f/classengine_1_1game_object_1_1_game_object.html#a3a4561bfee95913ae91cc635fdf1167d" target="_top" xlink:title="engine.gameObject.GameObject.get\lTranslateY">
<polygon fill="white" stroke="black" points="209,-311 209,-341 401,-341 401,-311 209,-311"/>
<text text-anchor="start" x="217" y="-329" font-family="Helvetica,sans-Serif" font-size="10.00">engine.gameObject.GameObject.get</text>
<text text-anchor="middle" x="305" y="-318" font-family="Helvetica,sans-Serif" font-size="10.00">TranslateY</text>
</a>
</g>
</g>
<!-- Node1&#45;&gt;Node6 -->
<g id="edge5" class="edge"><title>Node1&#45;&gt;Node6</title>
<path fill="none" stroke="midnightblue" d="M116.551,-267.102C139.968,-277.573 172.492,-291.32 202,-301 209.907,-303.594 218.236,-306.057 226.587,-308.355"/>
<polygon fill="midnightblue" stroke="midnightblue" points="225.81,-311.77 236.375,-310.973 227.619,-305.007 225.81,-311.77"/>
</g>
<!-- Node7 -->
<g id="node7" class="node"><title>Node7</title>
<g id="a_node7"><a xlink:href="../../d0/de5/classengine_1_1physics_1_1_scalar.html#a676fb6b37fae2e642fcdec1109b4b233" target="_top" xlink:title="engine.physics.Scalar.get\lValue">
<polygon fill="white" stroke="black" points="236,-262 236,-292 374,-292 374,-262 236,-262"/>
<text text-anchor="start" x="244" y="-280" font-family="Helvetica,sans-Serif" font-size="10.00">engine.physics.Scalar.get</text>
<text text-anchor="middle" x="305" y="-269" font-family="Helvetica,sans-Serif" font-size="10.00">Value</text>
</a>
</g>
</g>
<!-- Node1&#45;&gt;Node7 -->
<g id="edge6" class="edge"><title>Node1&#45;&gt;Node7</title>
<path fill="none" stroke="midnightblue" d="M165.607,-261.274C185.288,-263.51 206.271,-265.894 225.793,-268.113"/>
<polygon fill="midnightblue" stroke="midnightblue" points="225.522,-271.604 235.853,-269.256 226.312,-264.649 225.522,-271.604"/>
</g>
<!-- Node8 -->
<g id="node8" class="node"><title>Node8</title>
<g id="a_node8"><a xlink:href="../../d9/d9d/classengine_1_1game_object_1_1components_1_1_physics_body.html#a65baef953a922146f81d923aff4ae8cf" target="_top" xlink:title="engine.gameObject.components.\lPhysicsBody.getVelocity">
<polygon fill="white" stroke="black" points="217,-213 217,-243 393,-243 393,-213 217,-213"/>
<text text-anchor="start" x="225" y="-231" font-family="Helvetica,sans-Serif" font-size="10.00">engine.gameObject.components.</text>
<text text-anchor="middle" x="305" y="-220" font-family="Helvetica,sans-Serif" font-size="10.00">PhysicsBody.getVelocity</text>
</a>
</g>
</g>
<!-- Node1&#45;&gt;Node8 -->
<g id="edge7" class="edge"><title>Node1&#45;&gt;Node8</title>
<path fill="none" stroke="midnightblue" d="M165.607,-243.097C179.088,-241.627 193.18,-240.089 206.994,-238.582"/>
<polygon fill="midnightblue" stroke="midnightblue" points="207.43,-242.056 216.992,-237.492 206.671,-235.097 207.43,-242.056"/>
</g>
<!-- Node9 -->
<g id="node9" class="node"><title>Node9</title>
<g id="a_node9"><a xlink:href="../../d5/d1f/classengine_1_1physics_1_1_vector.html#a1bc7c00d836a738d45eb584223973dec" target="_top" xlink:title="engine.physics.Vector.getX">
<polygon fill="white" stroke="black" points="232.5,-174.5 232.5,-193.5 377.5,-193.5 377.5,-174.5 232.5,-174.5"/>
<text text-anchor="middle" x="305" y="-181.5" font-family="Helvetica,sans-Serif" font-size="10.00">engine.physics.Vector.getX</text>
</a>
</g>
</g>
<!-- Node1&#45;&gt;Node9 -->
<g id="edge8" class="edge"><title>Node1&#45;&gt;Node9</title>
<path fill="none" stroke="midnightblue" d="M116.452,-236.818C139.821,-226.379 172.33,-212.853 202,-204 212.7,-200.807 224.186,-197.99 235.453,-195.552"/>
<polygon fill="midnightblue" stroke="midnightblue" points="236.196,-198.973 245.273,-193.508 234.77,-192.119 236.196,-198.973"/>
</g>
<!-- Node10 -->
<g id="node10" class="node"><title>Node10</title>
<g id="a_node10"><a xlink:href="../../d5/d1f/classengine_1_1physics_1_1_vector.html#a6f71261863fa29e27f1b3f1051529321" target="_top" xlink:title="engine.physics.Vector.getY">
<polygon fill="white" stroke="black" points="233,-136.5 233,-155.5 377,-155.5 377,-136.5 233,-136.5"/>
<text text-anchor="middle" x="305" y="-143.5" font-family="Helvetica,sans-Serif" font-size="10.00">engine.physics.Vector.getY</text>
</a>
</g>
</g>
<!-- Node1&#45;&gt;Node10 -->
<g id="edge9" class="edge"><title>Node1&#45;&gt;Node10</title>
<path fill="none" stroke="midnightblue" d="M99.6942,-236.711C121.005,-216.884 161.146,-182.744 202,-165 208.645,-162.114 215.719,-159.666 222.925,-157.589"/>
<polygon fill="midnightblue" stroke="midnightblue" points="224.027,-160.918 232.803,-154.981 222.241,-154.15 224.027,-160.918"/>
</g>
<!-- Node11 -->
<g id="node11" class="node"><title>Node11</title>
<g id="a_node11"><a xlink:href="../../d2/d82/classengine_1_1render_1_1_rendered_node.html#ac199ac1cb9b6509d685d2aca157e5a3d" target="_top" xlink:title="engine.render.RenderedNode.intersects">
<polygon fill="white" stroke="black" points="202,-98.5 202,-117.5 408,-117.5 408,-98.5 202,-98.5"/>
<text text-anchor="middle" x="305" y="-105.5" font-family="Helvetica,sans-Serif" font-size="10.00">engine.render.RenderedNode.intersects</text>
</a>
</g>
</g>
<!-- Node1&#45;&gt;Node11 -->
<g id="edge10" class="edge"><title>Node1&#45;&gt;Node11</title>
<path fill="none" stroke="midnightblue" d="M93.5584,-236.771C111.331,-209.851 152.217,-154.144 202,-127 206.226,-124.696 210.68,-122.666 215.27,-120.878"/>
<polygon fill="midnightblue" stroke="midnightblue" points="216.561,-124.135 224.851,-117.537 214.256,-117.525 216.561,-124.135"/>
</g>
<!-- Node12 -->
<g id="node12" class="node"><title>Node12</title>
<g id="a_node12"><a xlink:href="../../d0/d7f/classengine_1_1game_object_1_1_game_object.html#ac1d82901c7db3b23772dfe3931e9a53d" target="_top" xlink:title="engine.gameObject.GameObject.set\lTranslateX">
<polygon fill="white" stroke="black" points="209.5,-49 209.5,-79 400.5,-79 400.5,-49 209.5,-49"/>
<text text-anchor="start" x="217.5" y="-67" font-family="Helvetica,sans-Serif" font-size="10.00">engine.gameObject.GameObject.set</text>
<text text-anchor="middle" x="305" y="-56" font-family="Helvetica,sans-Serif" font-size="10.00">TranslateX</text>
</a>
</g>
</g>
<!-- Node1&#45;&gt;Node12 -->
<g id="edge11" class="edge"><title>Node1&#45;&gt;Node12</title>
<path fill="none" stroke="midnightblue" d="M90.5888,-236.637C105.407,-204.005 144.61,-127.616 202,-89 204.964,-87.0057 208.072,-85.1702 211.284,-83.4809"/>
<polygon fill="midnightblue" stroke="midnightblue" points="213.029,-86.5279 220.58,-79.0968 210.043,-80.1966 213.029,-86.5279"/>
</g>
<!-- Node13 -->
<g id="node13" class="node"><title>Node13</title>
<g id="a_node13"><a xlink:href="../../d0/d7f/classengine_1_1game_object_1_1_game_object.html#a80eaf3afeb78a2502bb3c6affd73bdd7" target="_top" xlink:title="engine.gameObject.GameObject.set\lTranslateY">
<polygon fill="white" stroke="black" points="209.5,-0 209.5,-30 400.5,-30 400.5,-0 209.5,-0"/>
<text text-anchor="start" x="217.5" y="-18" font-family="Helvetica,sans-Serif" font-size="10.00">engine.gameObject.GameObject.set</text>
<text text-anchor="middle" x="305" y="-7" font-family="Helvetica,sans-Serif" font-size="10.00">TranslateY</text>
</a>
</g>
</g>
<!-- Node1&#45;&gt;Node13 -->
<g id="edge12" class="edge"><title>Node1&#45;&gt;Node13</title>
<path fill="none" stroke="midnightblue" d="M87.8501,-236.92C98.642,-197.832 133.007,-92.6262 202,-40 204.458,-38.1254 207.037,-36.3894 209.711,-34.7819"/>
<polygon fill="midnightblue" stroke="midnightblue" points="211.365,-37.8667 218.542,-30.0731 208.072,-31.6899 211.365,-37.8667"/>
</g>
</g>
</svg>
        <g id="navigator" transform="translate(0 0)" fill="#404254">
                <rect fill="#f2f5e9" fill-opacity="0.5" stroke="#606060" stroke-width=".5" x="0" y="0" width="60" height="60"/>
                <use id="zoomplus" xlink:href="#zoomPlus" x="17" y="9" onmousedown="handleZoom(evt,'in')"/>
                <use id="zoomminus" xlink:href="#zoomMin" x="42" y="9" onmousedown="handleZoom(evt,'out')"/>
                <use id="reset" xlink:href="#resetDef" x="30" y="36" onmousedown="handleReset()"/>
                <g id="arrowUp" xlink:href="#dirArrow" transform="translate(30 24)" onmousedown="handlePan(0,-1)">
                  <use xlink:href="#rim" fill="#404040">
                        <set attributeName="fill" to="#808080" begin="arrowUp.mouseover" end="arrowUp.mouseout"/>
                  </use>
                  <path fill="none" stroke="white" stroke-width="1.5" d="M0,-3.0v7 M-2.5,-0.5L0,-3.0L2.5,-0.5"/>
                </g>
                <g id="arrowRight" xlink:href="#dirArrow" transform="rotate(90) translate(36 -43)" onmousedown="handlePan(1,0)">
                  <use xlink:href="#rim" fill="#404040">
                        <set attributeName="fill" to="#808080" begin="arrowRight.mouseover" end="arrowRight.mouseout"/>
                  </use>
                  <path fill="none" stroke="white" stroke-width="1.5" d="M0,-3.0v7 M-2.5,-0.5L0,-3.0L2.5,-0.5"/>
                </g>
                <g id="arrowDown" xlink:href="#dirArrow" transform="rotate(180) translate(-30 -48)" onmousedown="handlePan(0,1)">
                  <use xlink:href="#rim" fill="#404040">
                        <set attributeName="fill" to="#808080" begin="arrowDown.mouseover" end="arrowDown.mouseout"/>
                  </use>
                  <path fill="none" stroke="white" stroke-width="1.5" d="M0,-3.0v7 M-2.5,-0.5L0,-3.0L2.5,-0.5"/>
                </g>
                <g id="arrowLeft" xlink:href="#dirArrow" transform="rotate(270) translate(-36 17)" onmousedown="handlePan(-1,0)">
                  <use xlink:href="#rim" fill="#404040">
                        <set attributeName="fill" to="#808080" begin="arrowLeft.mouseover" end="arrowLeft.mouseout"/>
                  </use>
                  <path fill="none" stroke="white" stroke-width="1.5" d="M0,-3.0v7 M-2.5,-0.5L0,-3.0L2.5,-0.5"/>
                </g>
        </g>
        <svg viewBox="0 0 15 15" width="100%" height="30px" preserveAspectRatio="xMaxYMin meet">
         <g id="arrow_out" transform="scale(0.3 0.3)">
          <a xlink:href="classengine_1_1collision_1_1objects_1_1_collision_composition_a16ad6d1ec6082599cf72870f5cd3dd03_cgraph_org.svg" target="_base">
           <rect id="button" ry="5" rx="5" y="6" x="6" height="38" width="38"
                fill="#f2f5e9" fill-opacity="0.5" stroke="#606060" stroke-width="1.0"/>
           <path id="arrow"
             d="M 11.500037,31.436501 C 11.940474,20.09759 22.043105,11.32322 32.158766,21.979434 L 37.068811,17.246167 C 37.068811,17.246167 37.088388,32 37.088388,32 L 22.160133,31.978069 C 22.160133,31.978069 26.997745,27.140456 26.997745,27.140456 C 18.528582,18.264221 13.291696,25.230495 11.500037,31.436501 z"
             style="fill:#404040;"/>
          </a>
         </g>
        </svg>
</svg>
