<?xml version="1.0" encoding="UTF-8" standalone="no"?>
<!DOCTYPE svg PUBLIC "-//W3C//DTD SVG 1.1//EN"
 "http://www.w3.org/Graphics/SVG/1.1/DTD/svg11.dtd">
<!-- Generated by graphviz version 2.36.0 (20140111.2315)
 -->
<!-- Title: engine.gameObject.components.NullComponent Pages: 1 -->
<svg width="728pt" height="104pt"
 viewBox="0.00 0.00 728.00 104.00" xmlns="http://www.w3.org/2000/svg" xmlns:xlink="http://www.w3.org/1999/xlink">
<g id="graph0" class="graph" transform="scale(1 1) rotate(0) translate(4 100)">
<title>engine.gameObject.components.NullComponent</title>
<polygon fill="white" stroke="none" points="-4,4 -4,-100 724,-100 724,4 -4,4"/>
<!-- Node1 -->
<g id="node1" class="node"><title>Node1</title>
<polygon fill="#bfbfbf" stroke="black" points="544,-33 544,-63 720,-63 720,-33 544,-33"/>
<text text-anchor="start" x="552" y="-51" font-family="Helvetica,sans-Serif" font-size="10.00">engine.gameObject.components.</text>
<text text-anchor="middle" x="632" y="-40" font-family="Helvetica,sans-Serif" font-size="10.00">NullComponent</text>
</g>
<!-- Node2 -->
<g id="node2" class="node"><title>Node2</title>
<g id="a_node2"><a xlink:href="../../de/d27/classengine_1_1game_object_1_1components_1_1_component.html" target="_top" xlink:title="engine.gameObject.components.\lComponent">
<polygon fill="white" stroke="black" points="330,-33 330,-63 506,-63 506,-33 330,-33"/>
<text text-anchor="start" x="338" y="-51" font-family="Helvetica,sans-Serif" font-size="10.00">engine.gameObject.components.</text>
<text text-anchor="middle" x="418" y="-40" font-family="Helvetica,sans-Serif" font-size="10.00">Component</text>
</a>
</g>
</g>
<!-- Node2&#45;&gt;Node1 -->
<g id="edge1" class="edge"><title>Node2&#45;&gt;Node1</title>
<path fill="none" stroke="midnightblue" d="M516.423,-48C525.571,-48 534.805,-48 543.85,-48"/>
<polygon fill="midnightblue" stroke="midnightblue" points="516.146,-44.5001 506.146,-48 516.146,-51.5001 516.146,-44.5001"/>
</g>
<!-- Node3 -->
<g id="node3" class="node"><title>Node3</title>
<g id="a_node3"><a xlink:href="../../d7/de6/interfaceengine_1_1game_object_1_1_i_enabled.html" target="_top" xlink:title="engine.gameObject.IEnabled">
<polygon fill="white" stroke="black" points="106,-76.5 106,-95.5 260,-95.5 260,-76.5 106,-76.5"/>
<text text-anchor="middle" x="183" y="-83.5" font-family="Helvetica,sans-Serif" font-size="10.00">engine.gameObject.IEnabled</text>
</a>
</g>
</g>
<!-- Node3&#45;&gt;Node2 -->
<g id="edge2" class="edge"><title>Node3&#45;&gt;Node2</title>
<path fill="none" stroke="midnightblue" d="M252.638,-74.8058C276.817,-70.8625 304.325,-66.3762 329.828,-62.2169"/>
<polygon fill="midnightblue" stroke="midnightblue" points="251.801,-71.396 242.495,-76.46 252.928,-78.3047 251.801,-71.396"/>
</g>
<!-- Node4 -->
<g id="node4" class="node"><title>Node4</title>
<g id="a_node4"><a xlink:href="../../dc/df6/interfaceengine_1_1game_object_1_1_identifiable.html" target="_top" xlink:title="engine.gameObject.Identifiable">
<polygon fill="white" stroke="black" points="100.5,-38.5 100.5,-57.5 265.5,-57.5 265.5,-38.5 100.5,-38.5"/>
<text text-anchor="middle" x="183" y="-45.5" font-family="Helvetica,sans-Serif" font-size="10.00">engine.gameObject.Identifiable</text>
</a>
</g>
</g>
<!-- Node4&#45;&gt;Node2 -->
<g id="edge3" class="edge"><title>Node4&#45;&gt;Node2</title>
<path fill="none" stroke="midnightblue" d="M276.133,-48C293.827,-48 312.306,-48 329.837,-48"/>
<polygon fill="midnightblue" stroke="midnightblue" points="275.819,-44.5001 265.819,-48 275.819,-51.5001 275.819,-44.5001"/>
</g>
<!-- Node5 -->
<g id="node5" class="node"><title>Node5</title>
<g id="a_node5"><a xlink:href="../../d4/dac/classengine_1_1game_object_1_1_identifier.html" target="_top" xlink:title="engine.gameObject.Identifier">
<polygon fill="white" stroke="black" points="105.5,-0.5 105.5,-19.5 260.5,-19.5 260.5,-0.5 105.5,-0.5"/>
<text text-anchor="middle" x="183" y="-7.5" font-family="Helvetica,sans-Serif" font-size="10.00">engine.gameObject.Identifier</text>
</a>
</g>
</g>
<!-- Node5&#45;&gt;Node2 -->
<g id="edge4" class="edge"><title>Node5&#45;&gt;Node2</title>
<path fill="none" stroke="#9a32cd" stroke-dasharray="5,2" d="M252.638,-21.1942C276.817,-25.1375 304.325,-29.6238 329.828,-33.7831"/>
<polygon fill="#9a32cd" stroke="#9a32cd" points="252.928,-17.6953 242.495,-19.54 251.801,-24.604 252.928,-17.6953"/>
<text text-anchor="middle" x="298" y="-33" font-family="Helvetica,sans-Serif" font-size="10.00"> myID</text>
</g>
<!-- Node6 -->
<g id="node6" class="node"><title>Node6</title>
<polygon fill="white" stroke="#bfbfbf" points="0,-0.5 0,-19.5 56,-19.5 56,-0.5 0,-0.5"/>
<text text-anchor="middle" x="28" y="-7.5" font-family="Helvetica,sans-Serif" font-size="10.00">Random</text>
</g>
<!-- Node6&#45;&gt;Node5 -->
<g id="edge5" class="edge"><title>Node6&#45;&gt;Node5</title>
<path fill="none" stroke="#9a32cd" stroke-dasharray="5,2" d="M66.3533,-10C78.2043,-10 91.7709,-10 105.344,-10"/>
<polygon fill="#9a32cd" stroke="#9a32cd" points="66.0012,-6.5001 56.0011,-10 66.0011,-13.5001 66.0012,-6.5001"/>
<text text-anchor="middle" x="78" y="-13" font-family="Helvetica,sans-Serif" font-size="10.00"> r</text>
</g>
</g>
</svg>
