<?xml version="1.0" encoding="UTF-8" standalone="no"?>
<!DOCTYPE svg PUBLIC "-//W3C//DTD SVG 1.1//EN"
 "http://www.w3.org/Graphics/SVG/1.1/DTD/svg11.dtd">
<!-- Generated by graphviz version 2.36.0 (20140111.2315)
 -->
<!-- Title: authoring.view.ProgramMenu.FileMenu Pages: 1 -->
<!--zoomable 165 -->
<svg id="main" version="1.1" xmlns="http://www.w3.org/2000/svg" xmlns:xlink="http://www.w3.org/1999/xlink" xml:space="preserve" onload="init(evt)">
<style type="text/css"><![CDATA[
.edge:hover path { stroke: red; }
.edge:hover polygon { stroke: red; fill: red; }
]]></style>
<script type="text/javascript"><![CDATA[
var edges = document.getElementsByTagName('g');
if (edges && edges.length) {
  for (var i=0;i<edges.length;i++) {
    if (edges[i].id.substr(0,4)=='edge') {
      edges[i].setAttribute('class','edge');
    }
  }
}
]]></script>
        <defs>
                <circle id="rim" cx="0" cy="0" r="7"/>
                <circle id="rim2" cx="0" cy="0" r="3.5"/>
                <g id="zoomPlus">
                        <use xlink:href="#rim" fill="#404040">
                                <set attributeName="fill" to="#808080" begin="zoomplus.mouseover" end="zoomplus.mouseout"/>
                        </use>
                        <path d="M-4,0h8M0,-4v8" fill="none" stroke="white" stroke-width="1.5" pointer-events="none"/>
                </g>
                <g id="zoomMin">
                        <use xlink:href="#rim" fill="#404040">
                                <set attributeName="fill" to="#808080" begin="zoomminus.mouseover" end="zoomminus.mouseout"/>
                        </use>
                        <path d="M-4,0h8" fill="none" stroke="white" stroke-width="1.5" pointer-events="none"/>
                </g>
                <g id="dirArrow">
                        <path fill="none" stroke="white" stroke-width="1.5" d="M0,-3.0v7 M-2.5,-0.5L0,-3.0L2.5,-0.5"/>
                </g>
               <g id="resetDef">
                       <use xlink:href="#rim2" fill="#404040">
                               <set attributeName="fill" to="#808080" begin="reset.mouseover" end="reset.mouseout"/>
                       </use>
               </g>
        </defs>

<script type="text/javascript">
var viewWidth = 1072;
var viewHeight = 165;
var sectionId = 'dynsection-5';
</script>
<script xlink:href="../../svgpan.js"/>
<svg id="graph" class="graph">
<g id="viewport">
<title>authoring.view.ProgramMenu.FileMenu</title>
<polygon fill="white" stroke="none" points="-4,4 -4,-161 1068,-161 1068,4 -4,4"/>
<!-- Node1 -->
<g id="node1" class="node"><title>Node1</title>
<polygon fill="#bfbfbf" stroke="black" points="0,-44 0,-74 158,-74 158,-44 0,-44"/>
<text text-anchor="start" x="8" y="-62" font-family="Helvetica,sans-Serif" font-size="10.00">authoring.view.ProgramMenu.</text>
<text text-anchor="middle" x="79" y="-51" font-family="Helvetica,sans-Serif" font-size="10.00">FileMenu</text>
</g>
<!-- Node2 -->
<g id="node2" class="node"><title>Node2</title>
<g id="a_node2"><a xlink:href="../../d3/df3/classauthoring_1_1view_1_1_program_menu.html#aa73ae8b737adefd919b8dd9c770afe5e" target="_top" xlink:title="authoring.view.ProgramMenu.loadFile">
<polygon fill="white" stroke="black" points="195,-87.5 195,-106.5 389,-106.5 389,-87.5 195,-87.5"/>
<text text-anchor="middle" x="292" y="-94.5" font-family="Helvetica,sans-Serif" font-size="10.00">authoring.view.ProgramMenu.loadFile</text>
</a>
</g>
</g>
<!-- Node1&#45;&gt;Node2 -->
<g id="edge1" class="edge"><title>Node1&#45;&gt;Node2</title>
<path fill="none" stroke="midnightblue" d="M158.269,-73.0958C181.356,-77.2537 206.311,-81.7479 228.284,-85.7052"/>
<polygon fill="midnightblue" stroke="midnightblue" points="227.691,-89.1546 238.153,-87.4825 228.932,-82.2654 227.691,-89.1546"/>
</g>
<!-- Node10 -->
<g id="node10" class="node"><title>Node10</title>
<g id="a_node10"><a xlink:href="../../d3/df3/classauthoring_1_1view_1_1_program_menu.html#a070bc1672ff24943b56065a223b2ef91" target="_top" xlink:title="authoring.view.ProgramMenu.newFile">
<polygon fill="white" stroke="black" points="196,-49.5 196,-68.5 388,-68.5 388,-49.5 196,-49.5"/>
<text text-anchor="middle" x="292" y="-56.5" font-family="Helvetica,sans-Serif" font-size="10.00">authoring.view.ProgramMenu.newFile</text>
</a>
</g>
</g>
<!-- Node1&#45;&gt;Node10 -->
<g id="edge9" class="edge"><title>Node1&#45;&gt;Node10</title>
<path fill="none" stroke="midnightblue" d="M158.269,-59C167.226,-59 176.465,-59 185.701,-59"/>
<polygon fill="midnightblue" stroke="midnightblue" points="185.71,-62.5001 195.71,-59 185.71,-55.5001 185.71,-62.5001"/>
</g>
<!-- Node13 -->
<g id="node13" class="node"><title>Node13</title>
<g id="a_node13"><a xlink:href="../../d3/df3/classauthoring_1_1view_1_1_program_menu.html#a827ad0690ad7dc9f87b64ffa1979a323" target="_top" xlink:title="authoring.view.ProgramMenu.saveFile">
<polygon fill="white" stroke="black" points="194,-11.5 194,-30.5 390,-30.5 390,-11.5 194,-11.5"/>
<text text-anchor="middle" x="292" y="-18.5" font-family="Helvetica,sans-Serif" font-size="10.00">authoring.view.ProgramMenu.saveFile</text>
</a>
</g>
</g>
<!-- Node1&#45;&gt;Node13 -->
<g id="edge13" class="edge"><title>Node1&#45;&gt;Node13</title>
<path fill="none" stroke="midnightblue" d="M158.269,-44.9042C181.356,-40.7463 206.311,-36.2521 228.284,-32.2948"/>
<polygon fill="midnightblue" stroke="midnightblue" points="228.932,-35.7346 238.153,-30.5175 227.691,-28.8454 228.932,-35.7346"/>
</g>
<!-- Node3 -->
<g id="node3" class="node"><title>Node3</title>
<g id="a_node3"><a xlink:href="../../d3/df3/classauthoring_1_1view_1_1_program_menu.html#a10ecf01e628d3fa377f151a965424e50" target="_top" xlink:title="authoring.view.ProgramMenu.loadData">
<polygon fill="white" stroke="black" points="427,-87.5 427,-106.5 629,-106.5 629,-87.5 427,-87.5"/>
<text text-anchor="middle" x="528" y="-94.5" font-family="Helvetica,sans-Serif" font-size="10.00">authoring.view.ProgramMenu.loadData</text>
</a>
</g>
</g>
<!-- Node2&#45;&gt;Node3 -->
<g id="edge2" class="edge"><title>Node2&#45;&gt;Node3</title>
<path fill="none" stroke="midnightblue" d="M389.19,-97C398.165,-97 407.31,-97 416.402,-97"/>
<polygon fill="midnightblue" stroke="midnightblue" points="416.635,-100.5 426.634,-97 416.634,-93.5001 416.635,-100.5"/>
</g>
<!-- Node4 -->
<g id="node4" class="node"><title>Node4</title>
<g id="a_node4"><a xlink:href="../../d3/df3/classauthoring_1_1view_1_1_program_menu.html#a64b6179ade9bc9185ddb677a3bdc883b" target="_top" xlink:title="authoring.view.ProgramMenu.setupGame">
<polygon fill="white" stroke="black" points="666.5,-49.5 666.5,-68.5 881.5,-68.5 881.5,-49.5 666.5,-49.5"/>
<text text-anchor="middle" x="774" y="-56.5" font-family="Helvetica,sans-Serif" font-size="10.00">authoring.view.ProgramMenu.setupGame</text>
</a>
</g>
</g>
<!-- Node3&#45;&gt;Node4 -->
<g id="edge3" class="edge"><title>Node3&#45;&gt;Node4</title>
<path fill="none" stroke="midnightblue" d="M590.257,-87.46C624.048,-82.1975 666.186,-75.6349 701.481,-70.1382"/>
<polygon fill="midnightblue" stroke="midnightblue" points="702.376,-73.5411 711.718,-68.5439 701.299,-66.6245 702.376,-73.5411"/>
</g>
<!-- Node5 -->
<g id="node5" class="node"><title>Node5</title>
<g id="a_node5"><a xlink:href="../../d1/d95/classdata_1_1_data_manager.html#adf2d2f38be8e2b2934f3ec7e944e2c3a" target="_top" xlink:title="data.DataManager.readGameFile">
<polygon fill="white" stroke="black" points="686.5,-137.5 686.5,-156.5 861.5,-156.5 861.5,-137.5 686.5,-137.5"/>
<text text-anchor="middle" x="774" y="-144.5" font-family="Helvetica,sans-Serif" font-size="10.00">data.DataManager.readGameFile</text>
</a>
</g>
</g>
<!-- Node3&#45;&gt;Node5 -->
<g id="edge4" class="edge"><title>Node3&#45;&gt;Node5</title>
<path fill="none" stroke="midnightblue" d="M570.901,-106.526C597.987,-112.597 634.025,-120.512 666,-127 680.296,-129.901 695.698,-132.87 710.24,-135.604"/>
<polygon fill="midnightblue" stroke="midnightblue" points="709.674,-139.058 720.146,-137.454 710.959,-132.177 709.674,-139.058"/>
</g>
<!-- Node7 -->
<g id="node7" class="node"><title>Node7</title>
<g id="a_node7"><a xlink:href="../../de/d50/classerrors_and_exceptions_1_1_error_pop_up.html#a879c9fa857c162edfab75ecf1558c944" target="_top" xlink:title="errorsAndExceptions.Error\lPopUp.display">
<polygon fill="white" stroke="black" points="703,-88 703,-118 845,-118 845,-88 703,-88"/>
<text text-anchor="start" x="711" y="-106" font-family="Helvetica,sans-Serif" font-size="10.00">errorsAndExceptions.Error</text>
<text text-anchor="middle" x="774" y="-95" font-family="Helvetica,sans-Serif" font-size="10.00">PopUp.display</text>
</a>
</g>
</g>
<!-- Node3&#45;&gt;Node7 -->
<g id="edge6" class="edge"><title>Node3&#45;&gt;Node7</title>
<path fill="none" stroke="midnightblue" d="M629.3,-99.4664C650.44,-99.9862 672.478,-100.528 692.764,-101.027"/>
<polygon fill="midnightblue" stroke="midnightblue" points="692.8,-104.529 702.883,-101.276 692.972,-97.5309 692.8,-104.529"/>
</g>
<!-- Node6 -->
<g id="node6" class="node"><title>Node6</title>
<g id="a_node6"><a xlink:href="../../d1/d95/classdata_1_1_data_manager.html#aec1d7a9fb10c2bd1ce23e7aff5eba74c" target="_top" xlink:title="data.DataManager.readFile">
<polygon fill="white" stroke="black" points="918,-137.5 918,-156.5 1064,-156.5 1064,-137.5 918,-137.5"/>
<text text-anchor="middle" x="991" y="-144.5" font-family="Helvetica,sans-Serif" font-size="10.00">data.DataManager.readFile</text>
</a>
</g>
</g>
<!-- Node5&#45;&gt;Node6 -->
<g id="edge5" class="edge"><title>Node5&#45;&gt;Node6</title>
<path fill="none" stroke="midnightblue" d="M861.519,-147C876.688,-147 892.437,-147 907.494,-147"/>
<polygon fill="midnightblue" stroke="midnightblue" points="907.791,-150.5 917.791,-147 907.791,-143.5 907.791,-150.5"/>
</g>
<!-- Node8 -->
<g id="node8" class="node"><title>Node8</title>
<g id="a_node8"><a xlink:href="../../de/d50/classerrors_and_exceptions_1_1_error_pop_up.html#adecc4a2ab81e607673649e10e6d7da52" target="_top" xlink:title="errorsAndExceptions.Error\lPopUp.createButton">
<polygon fill="white" stroke="black" points="920,-88 920,-118 1062,-118 1062,-88 920,-88"/>
<text text-anchor="start" x="928" y="-106" font-family="Helvetica,sans-Serif" font-size="10.00">errorsAndExceptions.Error</text>
<text text-anchor="middle" x="991" y="-95" font-family="Helvetica,sans-Serif" font-size="10.00">PopUp.createButton</text>
</a>
</g>
</g>
<!-- Node7&#45;&gt;Node8 -->
<g id="edge7" class="edge"><title>Node7&#45;&gt;Node8</title>
<path fill="none" stroke="midnightblue" d="M845.102,-103C865.742,-103 888.484,-103 909.711,-103"/>
<polygon fill="midnightblue" stroke="midnightblue" points="909.994,-106.5 919.994,-103 909.994,-99.5001 909.994,-106.5"/>
</g>
<!-- Node9 -->
<g id="node9" class="node"><title>Node9</title>
<g id="a_node9"><a xlink:href="../../de/d50/classerrors_and_exceptions_1_1_error_pop_up.html#a98549e423869b27d7ee3c87270786f60" target="_top" xlink:title="errorsAndExceptions.Error\lPopUp.chooseStageWidth">
<polygon fill="white" stroke="black" points="920,-39 920,-69 1062,-69 1062,-39 920,-39"/>
<text text-anchor="start" x="928" y="-57" font-family="Helvetica,sans-Serif" font-size="10.00">errorsAndExceptions.Error</text>
<text text-anchor="middle" x="991" y="-46" font-family="Helvetica,sans-Serif" font-size="10.00">PopUp.chooseStageWidth</text>
</a>
</g>
</g>
<!-- Node7&#45;&gt;Node9 -->
<g id="edge8" class="edge"><title>Node7&#45;&gt;Node9</title>
<path fill="none" stroke="midnightblue" d="M840.968,-87.9654C864.185,-82.6741 890.456,-76.6867 914.404,-71.2288"/>
<polygon fill="midnightblue" stroke="midnightblue" points="915.184,-74.6409 924.157,-69.0062 913.629,-67.8159 915.184,-74.6409"/>
</g>
<!-- Node11 -->
<g id="node11" class="node"><title>Node11</title>
<g id="a_node11"><a xlink:href="../../d3/df3/classauthoring_1_1view_1_1_program_menu.html#aa2afa7ec1c018b777d601e527cbe23c2" target="_top" xlink:title="authoring.view.ProgramMenu.addNew">
<polygon fill="white" stroke="black" points="429.5,-49.5 429.5,-68.5 626.5,-68.5 626.5,-49.5 429.5,-49.5"/>
<text text-anchor="middle" x="528" y="-56.5" font-family="Helvetica,sans-Serif" font-size="10.00">authoring.view.ProgramMenu.addNew</text>
</a>
</g>
</g>
<!-- Node10&#45;&gt;Node11 -->
<g id="edge10" class="edge"><title>Node10&#45;&gt;Node11</title>
<path fill="none" stroke="midnightblue" d="M388.177,-59C398.331,-59 408.712,-59 419.001,-59"/>
<polygon fill="midnightblue" stroke="midnightblue" points="419.246,-62.5001 429.246,-59 419.246,-55.5001 419.246,-62.5001"/>
</g>
<!-- Node11&#45;&gt;Node4 -->
<g id="edge12" class="edge"><title>Node11&#45;&gt;Node4</title>
<path fill="none" stroke="midnightblue" d="M626.838,-59C636.482,-59 646.335,-59 656.144,-59"/>
<polygon fill="midnightblue" stroke="midnightblue" points="656.339,-62.5001 666.339,-59 656.339,-55.5001 656.339,-62.5001"/>
</g>
<!-- Node12 -->
<g id="node12" class="node"><title>Node12</title>
<g id="a_node12"><a xlink:href="../../d3/df3/classauthoring_1_1view_1_1_program_menu.html#acaa62dc220ec4e45a79361815a0a6bc4" target="_top" xlink:title="authoring.view.ProgramMenu.make\lFolders">
<polygon fill="white" stroke="black" points="681.5,-0 681.5,-30 866.5,-30 866.5,-0 681.5,-0"/>
<text text-anchor="start" x="689.5" y="-18" font-family="Helvetica,sans-Serif" font-size="10.00">authoring.view.ProgramMenu.make</text>
<text text-anchor="middle" x="774" y="-7" font-family="Helvetica,sans-Serif" font-size="10.00">Folders</text>
</a>
</g>
</g>
<!-- Node11&#45;&gt;Node12 -->
<g id="edge11" class="edge"><title>Node11&#45;&gt;Node12</title>
<path fill="none" stroke="midnightblue" d="M581.944,-49.4527C610.397,-44.3218 646.322,-37.8437 679.32,-31.8931"/>
<polygon fill="midnightblue" stroke="midnightblue" points="680.236,-35.2845 689.456,-30.0654 678.993,-28.3957 680.236,-35.2845"/>
</g>
<!-- Node14 -->
<g id="node14" class="node"><title>Node14</title>
<g id="a_node14"><a xlink:href="../../d3/df3/classauthoring_1_1view_1_1_program_menu.html#a6e7ed5f0b0f21040bbe8ffd139e24373" target="_top" xlink:title="authoring.view.ProgramMenu.saveData">
<polygon fill="white" stroke="black" points="426,-11.5 426,-30.5 630,-30.5 630,-11.5 426,-11.5"/>
<text text-anchor="middle" x="528" y="-18.5" font-family="Helvetica,sans-Serif" font-size="10.00">authoring.view.ProgramMenu.saveData</text>
</a>
</g>
</g>
<!-- Node13&#45;&gt;Node14 -->
<g id="edge14" class="edge"><title>Node13&#45;&gt;Node14</title>
<path fill="none" stroke="midnightblue" d="M390.204,-21C398.688,-21 407.315,-21 415.899,-21"/>
<polygon fill="midnightblue" stroke="midnightblue" points="415.946,-24.5001 425.946,-21 415.946,-17.5001 415.946,-24.5001"/>
</g>
</g>
</svg>
        <g id="navigator" transform="translate(0 0)" fill="#404254">
                <rect fill="#f2f5e9" fill-opacity="0.5" stroke="#606060" stroke-width=".5" x="0" y="0" width="60" height="60"/>
                <use id="zoomplus" xlink:href="#zoomPlus" x="17" y="9" onmousedown="handleZoom(evt,'in')"/>
                <use id="zoomminus" xlink:href="#zoomMin" x="42" y="9" onmousedown="handleZoom(evt,'out')"/>
                <use id="reset" xlink:href="#resetDef" x="30" y="36" onmousedown="handleReset()"/>
                <g id="arrowUp" xlink:href="#dirArrow" transform="translate(30 24)" onmousedown="handlePan(0,-1)">
                  <use xlink:href="#rim" fill="#404040">
                        <set attributeName="fill" to="#808080" begin="arrowUp.mouseover" end="arrowUp.mouseout"/>
                  </use>
                  <path fill="none" stroke="white" stroke-width="1.5" d="M0,-3.0v7 M-2.5,-0.5L0,-3.0L2.5,-0.5"/>
                </g>
                <g id="arrowRight" xlink:href="#dirArrow" transform="rotate(90) translate(36 -43)" onmousedown="handlePan(1,0)">
                  <use xlink:href="#rim" fill="#404040">
                        <set attributeName="fill" to="#808080" begin="arrowRight.mouseover" end="arrowRight.mouseout"/>
                  </use>
                  <path fill="none" stroke="white" stroke-width="1.5" d="M0,-3.0v7 M-2.5,-0.5L0,-3.0L2.5,-0.5"/>
                </g>
                <g id="arrowDown" xlink:href="#dirArrow" transform="rotate(180) translate(-30 -48)" onmousedown="handlePan(0,1)">
                  <use xlink:href="#rim" fill="#404040">
                        <set attributeName="fill" to="#808080" begin="arrowDown.mouseover" end="arrowDown.mouseout"/>
                  </use>
                  <path fill="none" stroke="white" stroke-width="1.5" d="M0,-3.0v7 M-2.5,-0.5L0,-3.0L2.5,-0.5"/>
                </g>
                <g id="arrowLeft" xlink:href="#dirArrow" transform="rotate(270) translate(-36 17)" onmousedown="handlePan(-1,0)">
                  <use xlink:href="#rim" fill="#404040">
                        <set attributeName="fill" to="#808080" begin="arrowLeft.mouseover" end="arrowLeft.mouseout"/>
                  </use>
                  <path fill="none" stroke="white" stroke-width="1.5" d="M0,-3.0v7 M-2.5,-0.5L0,-3.0L2.5,-0.5"/>
                </g>
        </g>
        <svg viewBox="0 0 15 15" width="100%" height="30px" preserveAspectRatio="xMaxYMin meet">
         <g id="arrow_out" transform="scale(0.3 0.3)">
          <a xlink:href="classauthoring_1_1view_1_1_program_menu_a4f80944f8d70afac9f86de8caa8439b5_cgraph_org.svg" target="_base">
           <rect id="button" ry="5" rx="5" y="6" x="6" height="38" width="38"
                fill="#f2f5e9" fill-opacity="0.5" stroke="#606060" stroke-width="1.0"/>
           <path id="arrow"
             d="M 11.500037,31.436501 C 11.940474,20.09759 22.043105,11.32322 32.158766,21.979434 L 37.068811,17.246167 C 37.068811,17.246167 37.088388,32 37.088388,32 L 22.160133,31.978069 C 22.160133,31.978069 26.997745,27.140456 26.997745,27.140456 C 18.528582,18.264221 13.291696,25.230495 11.500037,31.436501 z"
             style="fill:#404040;"/>
          </a>
         </g>
        </svg>
</svg>
