<?xml version="1.0" encoding="UTF-8" standalone="no"?>
<!DOCTYPE svg PUBLIC "-//W3C//DTD SVG 1.1//EN"
 "http://www.w3.org/Graphics/SVG/1.1/DTD/svg11.dtd">
<!-- Generated by graphviz version 2.36.0 (20140111.2315)
 -->
<!-- Title: authoring.view.ProgramMenu.loadFile Pages: 1 -->
<svg width="1058pt" height="104pt"
 viewBox="0.00 0.00 1058.00 104.00" xmlns="http://www.w3.org/2000/svg" xmlns:xlink="http://www.w3.org/1999/xlink">
<g id="graph0" class="graph" transform="scale(1 1) rotate(0) translate(4 100)">
<title>authoring.view.ProgramMenu.loadFile</title>
<polygon fill="white" stroke="none" points="-4,4 -4,-100 1054,-100 1054,4 -4,4"/>
<!-- Node1 -->
<g id="node1" class="node"><title>Node1</title>
<polygon fill="#bfbfbf" stroke="black" points="0,-49.5 0,-68.5 194,-68.5 194,-49.5 0,-49.5"/>
<text text-anchor="middle" x="97" y="-56.5" font-family="Helvetica,sans-Serif" font-size="10.00">authoring.view.ProgramMenu.loadFile</text>
</g>
<!-- Node2 -->
<g id="node2" class="node"><title>Node2</title>
<g id="a_node2"><a xlink:href="../../d3/df3/classauthoring_1_1view_1_1_program_menu.html#a10ecf01e628d3fa377f151a965424e50" target="_top" xlink:title="authoring.view.ProgramMenu.loadData">
<polygon fill="white" stroke="black" points="230,-49.5 230,-68.5 432,-68.5 432,-49.5 230,-49.5"/>
<text text-anchor="middle" x="331" y="-56.5" font-family="Helvetica,sans-Serif" font-size="10.00">authoring.view.ProgramMenu.loadData</text>
</a>
</g>
</g>
<!-- Node1&#45;&gt;Node2 -->
<g id="edge1" class="edge"><title>Node1&#45;&gt;Node2</title>
<path fill="none" stroke="midnightblue" d="M194.038,-59C202.55,-59 211.209,-59 219.826,-59"/>
<polygon fill="midnightblue" stroke="midnightblue" points="219.91,-62.5001 229.91,-59 219.91,-55.5001 219.91,-62.5001"/>
</g>
<!-- Node3 -->
<g id="node3" class="node"><title>Node3</title>
<g id="a_node3"><a xlink:href="../../d3/df3/classauthoring_1_1view_1_1_program_menu.html#aac59d524c9952da64460ec1126974ff9" target="_top" xlink:title="authoring.view.ProgramMenu.make\lFolders">
<polygon fill="white" stroke="black" points="468.5,-66 468.5,-96 653.5,-96 653.5,-66 468.5,-66"/>
<text text-anchor="start" x="476.5" y="-84" font-family="Helvetica,sans-Serif" font-size="10.00">authoring.view.ProgramMenu.make</text>
<text text-anchor="middle" x="561" y="-73" font-family="Helvetica,sans-Serif" font-size="10.00">Folders</text>
</a>
</g>
</g>
<!-- Node2&#45;&gt;Node3 -->
<g id="edge2" class="edge"><title>Node2&#45;&gt;Node3</title>
<path fill="none" stroke="midnightblue" d="M430.678,-68.5216C439.772,-69.3991 448.999,-70.2893 458.12,-71.1695"/>
<polygon fill="midnightblue" stroke="midnightblue" points="458.072,-74.681 468.362,-72.1577 458.744,-67.7134 458.072,-74.681"/>
</g>
<!-- Node4 -->
<g id="node4" class="node"><title>Node4</title>
<g id="a_node4"><a xlink:href="../../d1/d95/classdata_1_1_data_manager.html#a01c83f361a872beb20614f8607434d03" target="_top" xlink:title="data.DataManager.readGameFile">
<polygon fill="white" stroke="black" points="473.5,-27.5 473.5,-46.5 648.5,-46.5 648.5,-27.5 473.5,-27.5"/>
<text text-anchor="middle" x="561" y="-34.5" font-family="Helvetica,sans-Serif" font-size="10.00">data.DataManager.readGameFile</text>
</a>
</g>
</g>
<!-- Node2&#45;&gt;Node4 -->
<g id="edge3" class="edge"><title>Node2&#45;&gt;Node4</title>
<path fill="none" stroke="midnightblue" d="M430.678,-49.4784C441.44,-48.44 452.388,-47.3837 463.128,-46.3473"/>
<polygon fill="midnightblue" stroke="midnightblue" points="463.731,-49.8055 473.348,-45.3611 463.058,-42.8379 463.731,-49.8055"/>
</g>
<!-- Node5 -->
<g id="node5" class="node"><title>Node5</title>
<g id="a_node5"><a xlink:href="../../d1/d95/classdata_1_1_data_manager.html#aafa87bd5e8fd9aa07c7cd71a392460af" target="_top" xlink:title="data.DataManager.readFile">
<polygon fill="white" stroke="black" points="690,-27.5 690,-46.5 836,-46.5 836,-27.5 690,-27.5"/>
<text text-anchor="middle" x="763" y="-34.5" font-family="Helvetica,sans-Serif" font-size="10.00">data.DataManager.readFile</text>
</a>
</g>
</g>
<!-- Node4&#45;&gt;Node5 -->
<g id="edge4" class="edge"><title>Node4&#45;&gt;Node5</title>
<path fill="none" stroke="midnightblue" d="M648.56,-37C658.853,-37 669.34,-37 679.573,-37"/>
<polygon fill="midnightblue" stroke="midnightblue" points="679.705,-40.5001 689.705,-37 679.705,-33.5001 679.705,-40.5001"/>
</g>
<!-- Node6 -->
<g id="node6" class="node"><title>Node6</title>
<g id="a_node6"><a xlink:href="../../d1/d95/classdata_1_1_data_manager.html#ae2b9bbc41a318b6009f75999180c9c2a" target="_top" xlink:title="data.DataManager.hasValidName">
<polygon fill="white" stroke="black" points="872,-49.5 872,-68.5 1050,-68.5 1050,-49.5 872,-49.5"/>
<text text-anchor="middle" x="961" y="-56.5" font-family="Helvetica,sans-Serif" font-size="10.00">data.DataManager.hasValidName</text>
</a>
</g>
</g>
<!-- Node5&#45;&gt;Node6 -->
<g id="edge5" class="edge"><title>Node5&#45;&gt;Node6</title>
<path fill="none" stroke="midnightblue" d="M836.148,-45.0983C845.545,-46.1531 855.284,-47.2462 864.984,-48.335"/>
<polygon fill="midnightblue" stroke="midnightblue" points="864.734,-51.8288 875.062,-49.4662 865.515,-44.8725 864.734,-51.8288"/>
</g>
<!-- Node7 -->
<g id="node7" class="node"><title>Node7</title>
<g id="a_node7"><a xlink:href="../../d1/d95/classdata_1_1_data_manager.html#aae0df3600a2db2777609fe47c05244e8" target="_top" xlink:title="data.DataManager.checkFor\lExtension">
<polygon fill="white" stroke="black" points="885,-0 885,-30 1037,-30 1037,-0 885,-0"/>
<text text-anchor="start" x="893" y="-18" font-family="Helvetica,sans-Serif" font-size="10.00">data.DataManager.checkFor</text>
<text text-anchor="middle" x="961" y="-7" font-family="Helvetica,sans-Serif" font-size="10.00">Extension</text>
</a>
</g>
</g>
<!-- Node5&#45;&gt;Node7 -->
<g id="edge6" class="edge"><title>Node5&#45;&gt;Node7</title>
<path fill="none" stroke="midnightblue" d="M836.148,-28.9017C848.637,-27.5 861.729,-26.0305 874.53,-24.5935"/>
<polygon fill="midnightblue" stroke="midnightblue" points="875.171,-28.0437 884.718,-23.45 874.39,-21.0874 875.171,-28.0437"/>
</g>
</g>
</svg>
