<?xml version="1.0" encoding="UTF-8" standalone="no"?>
<!DOCTYPE svg PUBLIC "-//W3C//DTD SVG 1.1//EN"
 "http://www.w3.org/Graphics/SVG/1.1/DTD/svg11.dtd">
<!-- Generated by graphviz version 2.36.0 (20140111.2315)
 -->
<!-- Title: authoring.view.ProgramMenu.newFile Pages: 1 -->
<svg width="656pt" height="38pt"
 viewBox="0.00 0.00 656.00 38.00" xmlns="http://www.w3.org/2000/svg" xmlns:xlink="http://www.w3.org/1999/xlink">
<g id="graph0" class="graph" transform="scale(1 1) rotate(0) translate(4 34)">
<title>authoring.view.ProgramMenu.newFile</title>
<polygon fill="white" stroke="none" points="-4,4 -4,-34 652,-34 652,4 -4,4"/>
<!-- Node1 -->
<g id="node1" class="node"><title>Node1</title>
<polygon fill="#bfbfbf" stroke="black" points="0,-5.5 0,-24.5 192,-24.5 192,-5.5 0,-5.5"/>
<text text-anchor="middle" x="96" y="-12.5" font-family="Helvetica,sans-Serif" font-size="10.00">authoring.view.ProgramMenu.newFile</text>
</g>
<!-- Node2 -->
<g id="node2" class="node"><title>Node2</title>
<g id="a_node2"><a xlink:href="../../d3/df3/classauthoring_1_1view_1_1_program_menu.html#aa2afa7ec1c018b777d601e527cbe23c2" target="_top" xlink:title="authoring.view.ProgramMenu.addNew">
<polygon fill="white" stroke="black" points="228.5,-5.5 228.5,-24.5 425.5,-24.5 425.5,-5.5 228.5,-5.5"/>
<text text-anchor="middle" x="327" y="-12.5" font-family="Helvetica,sans-Serif" font-size="10.00">authoring.view.ProgramMenu.addNew</text>
</a>
</g>
</g>
<!-- Node1&#45;&gt;Node2 -->
<g id="edge1" class="edge"><title>Node1&#45;&gt;Node2</title>
<path fill="none" stroke="midnightblue" d="M192.127,-15C200.695,-15 209.411,-15 218.077,-15"/>
<polygon fill="midnightblue" stroke="midnightblue" points="218.215,-18.5001 228.215,-15 218.215,-11.5001 218.215,-18.5001"/>
</g>
<!-- Node3 -->
<g id="node3" class="node"><title>Node3</title>
<g id="a_node3"><a xlink:href="../../d3/df3/classauthoring_1_1view_1_1_program_menu.html#aac59d524c9952da64460ec1126974ff9" target="_top" xlink:title="authoring.view.ProgramMenu.make\lFolders">
<polygon fill="white" stroke="black" points="462.5,-0 462.5,-30 647.5,-30 647.5,-0 462.5,-0"/>
<text text-anchor="start" x="470.5" y="-18" font-family="Helvetica,sans-Serif" font-size="10.00">authoring.view.ProgramMenu.make</text>
<text text-anchor="middle" x="555" y="-7" font-family="Helvetica,sans-Serif" font-size="10.00">Folders</text>
</a>
</g>
</g>
<!-- Node2&#45;&gt;Node3 -->
<g id="edge2" class="edge"><title>Node2&#45;&gt;Node3</title>
<path fill="none" stroke="midnightblue" d="M425.812,-15C434.558,-15 443.428,-15 452.206,-15"/>
<polygon fill="midnightblue" stroke="midnightblue" points="452.456,-18.5001 462.456,-15 452.456,-11.5001 452.456,-18.5001"/>
</g>
</g>
</svg>
