<?xml version="1.0" encoding="UTF-8" standalone="no"?>
<!DOCTYPE svg PUBLIC "-//W3C//DTD SVG 1.1//EN"
 "http://www.w3.org/Graphics/SVG/1.1/DTD/svg11.dtd">
<!-- Generated by graphviz version 2.36.0 (20140111.2315)
 -->
<!-- Title: authoring.view.ProgramMenu.FileMenu Pages: 1 -->
<!--zoomable 132 -->
<svg id="main" version="1.1" xmlns="http://www.w3.org/2000/svg" xmlns:xlink="http://www.w3.org/1999/xlink" xml:space="preserve" onload="init(evt)">
<style type="text/css"><![CDATA[
.edge:hover path { stroke: red; }
.edge:hover polygon { stroke: red; fill: red; }
]]></style>
<script type="text/javascript"><![CDATA[
var edges = document.getElementsByTagName('g');
if (edges && edges.length) {
  for (var i=0;i<edges.length;i++) {
    if (edges[i].id.substr(0,4)=='edge') {
      edges[i].setAttribute('class','edge');
    }
  }
}
]]></script>
        <defs>
                <circle id="rim" cx="0" cy="0" r="7"/>
                <circle id="rim2" cx="0" cy="0" r="3.5"/>
                <g id="zoomPlus">
                        <use xlink:href="#rim" fill="#404040">
                                <set attributeName="fill" to="#808080" begin="zoomplus.mouseover" end="zoomplus.mouseout"/>
                        </use>
                        <path d="M-4,0h8M0,-4v8" fill="none" stroke="white" stroke-width="1.5" pointer-events="none"/>
                </g>
                <g id="zoomMin">
                        <use xlink:href="#rim" fill="#404040">
                                <set attributeName="fill" to="#808080" begin="zoomminus.mouseover" end="zoomminus.mouseout"/>
                        </use>
                        <path d="M-4,0h8" fill="none" stroke="white" stroke-width="1.5" pointer-events="none"/>
                </g>
                <g id="dirArrow">
                        <path fill="none" stroke="white" stroke-width="1.5" d="M0,-3.0v7 M-2.5,-0.5L0,-3.0L2.5,-0.5"/>
                </g>
               <g id="resetDef">
                       <use xlink:href="#rim2" fill="#404040">
                               <set attributeName="fill" to="#808080" begin="reset.mouseover" end="reset.mouseout"/>
                       </use>
               </g>
        </defs>

<script type="text/javascript">
var viewWidth = 1256;
var viewHeight = 132;
var sectionId = 'dynsection-5';
</script>
<script xlink:href="../../svgpan.js"/>
<svg id="graph" class="graph">
<g id="viewport">
<title>authoring.view.ProgramMenu.FileMenu</title>
<polygon fill="white" stroke="none" points="-4,4 -4,-128 1252,-128 1252,4 -4,4"/>
<!-- Node1 -->
<g id="node1" class="node"><title>Node1</title>
<polygon fill="#bfbfbf" stroke="black" points="0,-33 0,-63 158,-63 158,-33 0,-33"/>
<text text-anchor="start" x="8" y="-51" font-family="Helvetica,sans-Serif" font-size="10.00">authoring.view.ProgramMenu.</text>
<text text-anchor="middle" x="79" y="-40" font-family="Helvetica,sans-Serif" font-size="10.00">FileMenu</text>
</g>
<!-- Node2 -->
<g id="node2" class="node"><title>Node2</title>
<g id="a_node2"><a xlink:href="../../d3/df3/classauthoring_1_1view_1_1_program_menu.html#aa73ae8b737adefd919b8dd9c770afe5e" target="_top" xlink:title="authoring.view.ProgramMenu.loadFile">
<polygon fill="white" stroke="black" points="195,-76.5 195,-95.5 389,-95.5 389,-76.5 195,-76.5"/>
<text text-anchor="middle" x="292" y="-83.5" font-family="Helvetica,sans-Serif" font-size="10.00">authoring.view.ProgramMenu.loadFile</text>
</a>
</g>
</g>
<!-- Node1&#45;&gt;Node2 -->
<g id="edge1" class="edge"><title>Node1&#45;&gt;Node2</title>
<path fill="none" stroke="midnightblue" d="M158.269,-62.0958C181.356,-66.2537 206.311,-70.7479 228.284,-74.7052"/>
<polygon fill="midnightblue" stroke="midnightblue" points="227.691,-78.1546 238.153,-76.4825 228.932,-71.2654 227.691,-78.1546"/>
</g>
<!-- Node9 -->
<g id="node9" class="node"><title>Node9</title>
<g id="a_node9"><a xlink:href="../../d3/df3/classauthoring_1_1view_1_1_program_menu.html#a070bc1672ff24943b56065a223b2ef91" target="_top" xlink:title="authoring.view.ProgramMenu.newFile">
<polygon fill="white" stroke="black" points="196,-38.5 196,-57.5 388,-57.5 388,-38.5 196,-38.5"/>
<text text-anchor="middle" x="292" y="-45.5" font-family="Helvetica,sans-Serif" font-size="10.00">authoring.view.ProgramMenu.newFile</text>
</a>
</g>
</g>
<!-- Node1&#45;&gt;Node9 -->
<g id="edge8" class="edge"><title>Node1&#45;&gt;Node9</title>
<path fill="none" stroke="midnightblue" d="M158.269,-48C167.226,-48 176.465,-48 185.701,-48"/>
<polygon fill="midnightblue" stroke="midnightblue" points="185.71,-51.5001 195.71,-48 185.71,-44.5001 185.71,-51.5001"/>
</g>
<!-- Node11 -->
<g id="node11" class="node"><title>Node11</title>
<g id="a_node11"><a xlink:href="../../d3/df3/classauthoring_1_1view_1_1_program_menu.html#a827ad0690ad7dc9f87b64ffa1979a323" target="_top" xlink:title="authoring.view.ProgramMenu.saveFile">
<polygon fill="white" stroke="black" points="194,-0.5 194,-19.5 390,-19.5 390,-0.5 194,-0.5"/>
<text text-anchor="middle" x="292" y="-7.5" font-family="Helvetica,sans-Serif" font-size="10.00">authoring.view.ProgramMenu.saveFile</text>
</a>
</g>
</g>
<!-- Node1&#45;&gt;Node11 -->
<g id="edge11" class="edge"><title>Node1&#45;&gt;Node11</title>
<path fill="none" stroke="midnightblue" d="M158.269,-33.9042C181.356,-29.7463 206.311,-25.2521 228.284,-21.2948"/>
<polygon fill="midnightblue" stroke="midnightblue" points="228.932,-24.7346 238.153,-19.5175 227.691,-17.8454 228.932,-24.7346"/>
</g>
<!-- Node3 -->
<g id="node3" class="node"><title>Node3</title>
<g id="a_node3"><a xlink:href="../../d3/df3/classauthoring_1_1view_1_1_program_menu.html#a10ecf01e628d3fa377f151a965424e50" target="_top" xlink:title="authoring.view.ProgramMenu.loadData">
<polygon fill="white" stroke="black" points="427,-76.5 427,-95.5 629,-95.5 629,-76.5 427,-76.5"/>
<text text-anchor="middle" x="528" y="-83.5" font-family="Helvetica,sans-Serif" font-size="10.00">authoring.view.ProgramMenu.loadData</text>
</a>
</g>
</g>
<!-- Node2&#45;&gt;Node3 -->
<g id="edge2" class="edge"><title>Node2&#45;&gt;Node3</title>
<path fill="none" stroke="midnightblue" d="M389.19,-86C398.165,-86 407.31,-86 416.402,-86"/>
<polygon fill="midnightblue" stroke="midnightblue" points="416.635,-89.5001 426.634,-86 416.634,-82.5001 416.635,-89.5001"/>
</g>
<!-- Node4 -->
<g id="node4" class="node"><title>Node4</title>
<g id="a_node4"><a xlink:href="../../d3/df3/classauthoring_1_1view_1_1_program_menu.html#aac59d524c9952da64460ec1126974ff9" target="_top" xlink:title="authoring.view.ProgramMenu.make\lFolders">
<polygon fill="white" stroke="black" points="666.5,-33 666.5,-63 851.5,-63 851.5,-33 666.5,-33"/>
<text text-anchor="start" x="674.5" y="-51" font-family="Helvetica,sans-Serif" font-size="10.00">authoring.view.ProgramMenu.make</text>
<text text-anchor="middle" x="759" y="-40" font-family="Helvetica,sans-Serif" font-size="10.00">Folders</text>
</a>
</g>
</g>
<!-- Node3&#45;&gt;Node4 -->
<g id="edge3" class="edge"><title>Node3&#45;&gt;Node4</title>
<path fill="none" stroke="midnightblue" d="M586.491,-76.46C608.033,-72.8853 633.19,-68.7108 657.493,-64.678"/>
<polygon fill="midnightblue" stroke="midnightblue" points="658.186,-68.1109 667.478,-63.0211 657.04,-61.2054 658.186,-68.1109"/>
</g>
<!-- Node5 -->
<g id="node5" class="node"><title>Node5</title>
<g id="a_node5"><a xlink:href="../../d1/d95/classdata_1_1_data_manager.html#a01c83f361a872beb20614f8607434d03" target="_top" xlink:title="data.DataManager.readGameFile">
<polygon fill="white" stroke="black" points="671.5,-82.5 671.5,-101.5 846.5,-101.5 846.5,-82.5 671.5,-82.5"/>
<text text-anchor="middle" x="759" y="-89.5" font-family="Helvetica,sans-Serif" font-size="10.00">data.DataManager.readGameFile</text>
</a>
</g>
</g>
<!-- Node3&#45;&gt;Node5 -->
<g id="edge4" class="edge"><title>Node3&#45;&gt;Node5</title>
<path fill="none" stroke="midnightblue" d="M629.11,-88.623C639.781,-88.9025 650.621,-89.1866 661.252,-89.4651"/>
<polygon fill="midnightblue" stroke="midnightblue" points="661.28,-92.967 671.368,-89.7302 661.463,-85.9694 661.28,-92.967"/>
</g>
<!-- Node6 -->
<g id="node6" class="node"><title>Node6</title>
<g id="a_node6"><a xlink:href="../../d1/d95/classdata_1_1_data_manager.html#aafa87bd5e8fd9aa07c7cd71a392460af" target="_top" xlink:title="data.DataManager.readFile">
<polygon fill="white" stroke="black" points="888,-82.5 888,-101.5 1034,-101.5 1034,-82.5 888,-82.5"/>
<text text-anchor="middle" x="961" y="-89.5" font-family="Helvetica,sans-Serif" font-size="10.00">data.DataManager.readFile</text>
</a>
</g>
</g>
<!-- Node5&#45;&gt;Node6 -->
<g id="edge5" class="edge"><title>Node5&#45;&gt;Node6</title>
<path fill="none" stroke="midnightblue" d="M846.56,-92C856.853,-92 867.34,-92 877.573,-92"/>
<polygon fill="midnightblue" stroke="midnightblue" points="877.705,-95.5001 887.705,-92 877.705,-88.5001 877.705,-95.5001"/>
</g>
<!-- Node7 -->
<g id="node7" class="node"><title>Node7</title>
<g id="a_node7"><a xlink:href="../../d1/d95/classdata_1_1_data_manager.html#ae2b9bbc41a318b6009f75999180c9c2a" target="_top" xlink:title="data.DataManager.hasValidName">
<polygon fill="white" stroke="black" points="1070,-104.5 1070,-123.5 1248,-123.5 1248,-104.5 1070,-104.5"/>
<text text-anchor="middle" x="1159" y="-111.5" font-family="Helvetica,sans-Serif" font-size="10.00">data.DataManager.hasValidName</text>
</a>
</g>
</g>
<!-- Node6&#45;&gt;Node7 -->
<g id="edge6" class="edge"><title>Node6&#45;&gt;Node7</title>
<path fill="none" stroke="midnightblue" d="M1034.15,-100.098C1043.55,-101.153 1053.28,-102.246 1062.98,-103.335"/>
<polygon fill="midnightblue" stroke="midnightblue" points="1062.73,-106.829 1073.06,-104.466 1063.52,-99.8725 1062.73,-106.829"/>
</g>
<!-- Node8 -->
<g id="node8" class="node"><title>Node8</title>
<g id="a_node8"><a xlink:href="../../d1/d95/classdata_1_1_data_manager.html#aae0df3600a2db2777609fe47c05244e8" target="_top" xlink:title="data.DataManager.checkFor\lExtension">
<polygon fill="white" stroke="black" points="1083,-55 1083,-85 1235,-85 1235,-55 1083,-55"/>
<text text-anchor="start" x="1091" y="-73" font-family="Helvetica,sans-Serif" font-size="10.00">data.DataManager.checkFor</text>
<text text-anchor="middle" x="1159" y="-62" font-family="Helvetica,sans-Serif" font-size="10.00">Extension</text>
</a>
</g>
</g>
<!-- Node6&#45;&gt;Node8 -->
<g id="edge7" class="edge"><title>Node6&#45;&gt;Node8</title>
<path fill="none" stroke="midnightblue" d="M1034.15,-83.9017C1046.64,-82.5 1059.73,-81.0305 1072.53,-79.5935"/>
<polygon fill="midnightblue" stroke="midnightblue" points="1073.17,-83.0437 1082.72,-78.45 1072.39,-76.0874 1073.17,-83.0437"/>
</g>
<!-- Node10 -->
<g id="node10" class="node"><title>Node10</title>
<g id="a_node10"><a xlink:href="../../d3/df3/classauthoring_1_1view_1_1_program_menu.html#aa2afa7ec1c018b777d601e527cbe23c2" target="_top" xlink:title="authoring.view.ProgramMenu.addNew">
<polygon fill="white" stroke="black" points="429.5,-38.5 429.5,-57.5 626.5,-57.5 626.5,-38.5 429.5,-38.5"/>
<text text-anchor="middle" x="528" y="-45.5" font-family="Helvetica,sans-Serif" font-size="10.00">authoring.view.ProgramMenu.addNew</text>
</a>
</g>
</g>
<!-- Node9&#45;&gt;Node10 -->
<g id="edge9" class="edge"><title>Node9&#45;&gt;Node10</title>
<path fill="none" stroke="midnightblue" d="M388.177,-48C398.331,-48 408.712,-48 419.001,-48"/>
<polygon fill="midnightblue" stroke="midnightblue" points="419.246,-51.5001 429.246,-48 419.246,-44.5001 419.246,-51.5001"/>
</g>
<!-- Node10&#45;&gt;Node4 -->
<g id="edge10" class="edge"><title>Node10&#45;&gt;Node4</title>
<path fill="none" stroke="midnightblue" d="M626.781,-48C636.525,-48 646.434,-48 656.218,-48"/>
<polygon fill="midnightblue" stroke="midnightblue" points="656.357,-51.5001 666.357,-48 656.357,-44.5001 656.357,-51.5001"/>
</g>
<!-- Node12 -->
<g id="node12" class="node"><title>Node12</title>
<g id="a_node12"><a xlink:href="../../d3/df3/classauthoring_1_1view_1_1_program_menu.html#a6e7ed5f0b0f21040bbe8ffd139e24373" target="_top" xlink:title="authoring.view.ProgramMenu.saveData">
<polygon fill="white" stroke="black" points="426,-0.5 426,-19.5 630,-19.5 630,-0.5 426,-0.5"/>
<text text-anchor="middle" x="528" y="-7.5" font-family="Helvetica,sans-Serif" font-size="10.00">authoring.view.ProgramMenu.saveData</text>
</a>
</g>
</g>
<!-- Node11&#45;&gt;Node12 -->
<g id="edge12" class="edge"><title>Node11&#45;&gt;Node12</title>
<path fill="none" stroke="midnightblue" d="M390.204,-10C398.688,-10 407.315,-10 415.899,-10"/>
<polygon fill="midnightblue" stroke="midnightblue" points="415.946,-13.5001 425.946,-10 415.946,-6.5001 415.946,-13.5001"/>
</g>
</g>
</svg>
        <g id="navigator" transform="translate(0 0)" fill="#404254">
                <rect fill="#f2f5e9" fill-opacity="0.5" stroke="#606060" stroke-width=".5" x="0" y="0" width="60" height="60"/>
                <use id="zoomplus" xlink:href="#zoomPlus" x="17" y="9" onmousedown="handleZoom(evt,'in')"/>
                <use id="zoomminus" xlink:href="#zoomMin" x="42" y="9" onmousedown="handleZoom(evt,'out')"/>
                <use id="reset" xlink:href="#resetDef" x="30" y="36" onmousedown="handleReset()"/>
                <g id="arrowUp" xlink:href="#dirArrow" transform="translate(30 24)" onmousedown="handlePan(0,-1)">
                  <use xlink:href="#rim" fill="#404040">
                        <set attributeName="fill" to="#808080" begin="arrowUp.mouseover" end="arrowUp.mouseout"/>
                  </use>
                  <path fill="none" stroke="white" stroke-width="1.5" d="M0,-3.0v7 M-2.5,-0.5L0,-3.0L2.5,-0.5"/>
                </g>
                <g id="arrowRight" xlink:href="#dirArrow" transform="rotate(90) translate(36 -43)" onmousedown="handlePan(1,0)">
                  <use xlink:href="#rim" fill="#404040">
                        <set attributeName="fill" to="#808080" begin="arrowRight.mouseover" end="arrowRight.mouseout"/>
                  </use>
                  <path fill="none" stroke="white" stroke-width="1.5" d="M0,-3.0v7 M-2.5,-0.5L0,-3.0L2.5,-0.5"/>
                </g>
                <g id="arrowDown" xlink:href="#dirArrow" transform="rotate(180) translate(-30 -48)" onmousedown="handlePan(0,1)">
                  <use xlink:href="#rim" fill="#404040">
                        <set attributeName="fill" to="#808080" begin="arrowDown.mouseover" end="arrowDown.mouseout"/>
                  </use>
                  <path fill="none" stroke="white" stroke-width="1.5" d="M0,-3.0v7 M-2.5,-0.5L0,-3.0L2.5,-0.5"/>
                </g>
                <g id="arrowLeft" xlink:href="#dirArrow" transform="rotate(270) translate(-36 17)" onmousedown="handlePan(-1,0)">
                  <use xlink:href="#rim" fill="#404040">
                        <set attributeName="fill" to="#808080" begin="arrowLeft.mouseover" end="arrowLeft.mouseout"/>
                  </use>
                  <path fill="none" stroke="white" stroke-width="1.5" d="M0,-3.0v7 M-2.5,-0.5L0,-3.0L2.5,-0.5"/>
                </g>
        </g>
        <svg viewBox="0 0 15 15" width="100%" height="30px" preserveAspectRatio="xMaxYMin meet">
         <g id="arrow_out" transform="scale(0.3 0.3)">
          <a xlink:href="classauthoring_1_1view_1_1_program_menu_a4f80944f8d70afac9f86de8caa8439b5_cgraph_org.svg" target="_base">
           <rect id="button" ry="5" rx="5" y="6" x="6" height="38" width="38"
                fill="#f2f5e9" fill-opacity="0.5" stroke="#606060" stroke-width="1.0"/>
           <path id="arrow"
             d="M 11.500037,31.436501 C 11.940474,20.09759 22.043105,11.32322 32.158766,21.979434 L 37.068811,17.246167 C 37.068811,17.246167 37.088388,32 37.088388,32 L 22.160133,31.978069 C 22.160133,31.978069 26.997745,27.140456 26.997745,27.140456 C 18.528582,18.264221 13.291696,25.230495 11.500037,31.436501 z"
             style="fill:#404040;"/>
          </a>
         </g>
        </svg>
</svg>
