<?xml version="1.0" encoding="UTF-8" standalone="no"?>
<!DOCTYPE svg PUBLIC "-//W3C//DTD SVG 1.1//EN"
 "http://www.w3.org/Graphics/SVG/1.1/DTD/svg11.dtd">
<!-- Generated by graphviz version 2.36.0 (20140111.2315)
 -->
<!-- Title: authoring.view.ProgramMenu.setupGame Pages: 1 -->
<svg width="1080pt" height="66pt"
 viewBox="0.00 0.00 1080.00 66.00" xmlns="http://www.w3.org/2000/svg" xmlns:xlink="http://www.w3.org/1999/xlink">
<g id="graph0" class="graph" transform="scale(1 1) rotate(0) translate(4 62)">
<title>authoring.view.ProgramMenu.setupGame</title>
<polygon fill="white" stroke="none" points="-4,4 -4,-62 1076,-62 1076,4 -4,4"/>
<!-- Node1 -->
<g id="node1" class="node"><title>Node1</title>
<polygon fill="#bfbfbf" stroke="black" points="0.5,-19.5 0.5,-38.5 215.5,-38.5 215.5,-19.5 0.5,-19.5"/>
<text text-anchor="middle" x="108" y="-26.5" font-family="Helvetica,sans-Serif" font-size="10.00">authoring.view.ProgramMenu.setupGame</text>
</g>
<!-- Node2 -->
<g id="node2" class="node"><title>Node2</title>
<g id="a_node2"><a xlink:href="../../d3/df3/classauthoring_1_1view_1_1_program_menu.html#aa2afa7ec1c018b777d601e527cbe23c2" target="_top" xlink:title="authoring.view.ProgramMenu.addNew">
<polygon fill="white" stroke="black" points="254.5,-38.5 254.5,-57.5 451.5,-57.5 451.5,-38.5 254.5,-38.5"/>
<text text-anchor="middle" x="353" y="-45.5" font-family="Helvetica,sans-Serif" font-size="10.00">authoring.view.ProgramMenu.addNew</text>
</a>
</g>
</g>
<!-- Node1&#45;&gt;Node2 -->
<g id="edge1" class="edge"><title>Node1&#45;&gt;Node2</title>
<path fill="none" stroke="midnightblue" d="M225.58,-38.1153C235.197,-38.8673 244.855,-39.6224 254.313,-40.3619"/>
<polygon fill="midnightblue" stroke="midnightblue" points="225.826,-34.6239 215.583,-37.3337 225.28,-41.6026 225.826,-34.6239"/>
</g>
<!-- Node6 -->
<g id="node6" class="node"><title>Node6</title>
<g id="a_node6"><a xlink:href="../../d3/df3/classauthoring_1_1view_1_1_program_menu.html#a10ecf01e628d3fa377f151a965424e50" target="_top" xlink:title="authoring.view.ProgramMenu.loadData">
<polygon fill="white" stroke="black" points="252,-0.5 252,-19.5 454,-19.5 454,-0.5 252,-0.5"/>
<text text-anchor="middle" x="353" y="-7.5" font-family="Helvetica,sans-Serif" font-size="10.00">authoring.view.ProgramMenu.loadData</text>
</a>
</g>
</g>
<!-- Node1&#45;&gt;Node6 -->
<g id="edge5" class="edge"><title>Node1&#45;&gt;Node6</title>
<path fill="none" stroke="midnightblue" d="M225.733,-19.8727C234.402,-19.1949 243.102,-18.5147 251.658,-17.8457"/>
<polygon fill="midnightblue" stroke="midnightblue" points="225.28,-16.3974 215.583,-20.6663 225.826,-23.3761 225.28,-16.3974"/>
</g>
<!-- Node3 -->
<g id="node3" class="node"><title>Node3</title>
<g id="a_node3"><a xlink:href="../../d3/df3/classauthoring_1_1view_1_1_program_menu.html#a070bc1672ff24943b56065a223b2ef91" target="_top" xlink:title="authoring.view.ProgramMenu.newFile">
<polygon fill="white" stroke="black" points="491,-38.5 491,-57.5 683,-57.5 683,-38.5 491,-38.5"/>
<text text-anchor="middle" x="587" y="-45.5" font-family="Helvetica,sans-Serif" font-size="10.00">authoring.view.ProgramMenu.newFile</text>
</a>
</g>
</g>
<!-- Node2&#45;&gt;Node3 -->
<g id="edge2" class="edge"><title>Node2&#45;&gt;Node3</title>
<path fill="none" stroke="midnightblue" d="M461.824,-48C471.562,-48 481.377,-48 490.992,-48"/>
<polygon fill="midnightblue" stroke="midnightblue" points="461.717,-44.5001 451.716,-48 461.716,-51.5001 461.717,-44.5001"/>
</g>
<!-- Node4 -->
<g id="node4" class="node"><title>Node4</title>
<g id="a_node4"><a xlink:href="../../d3/df3/classauthoring_1_1view_1_1_program_menu.html#a4f80944f8d70afac9f86de8caa8439b5" target="_top" xlink:title="authoring.view.ProgramMenu.\lFileMenu">
<polygon fill="white" stroke="black" points="720,-14 720,-44 878,-44 878,-14 720,-14"/>
<text text-anchor="start" x="728" y="-32" font-family="Helvetica,sans-Serif" font-size="10.00">authoring.view.ProgramMenu.</text>
<text text-anchor="middle" x="799" y="-21" font-family="Helvetica,sans-Serif" font-size="10.00">FileMenu</text>
</a>
</g>
</g>
<!-- Node3&#45;&gt;Node4 -->
<g id="edge3" class="edge"><title>Node3&#45;&gt;Node4</title>
<path fill="none" stroke="midnightblue" d="M693.255,-38.4769C702.2,-37.6676 711.142,-36.8586 719.822,-36.0732"/>
<polygon fill="midnightblue" stroke="midnightblue" points="692.813,-35.0025 683.169,-39.3895 693.444,-41.9741 692.813,-35.0025"/>
</g>
<!-- Node5 -->
<g id="node5" class="node"><title>Node5</title>
<g id="a_node5"><a xlink:href="../../d3/df3/classauthoring_1_1view_1_1_program_menu.html#a1979060c566560f24eee51c819341adc" target="_top" xlink:title="authoring.view.ProgramMenu.\lProgramMenu">
<polygon fill="white" stroke="black" points="914,-14 914,-44 1072,-44 1072,-14 914,-14"/>
<text text-anchor="start" x="922" y="-32" font-family="Helvetica,sans-Serif" font-size="10.00">authoring.view.ProgramMenu.</text>
<text text-anchor="middle" x="993" y="-21" font-family="Helvetica,sans-Serif" font-size="10.00">ProgramMenu</text>
</a>
</g>
</g>
<!-- Node4&#45;&gt;Node5 -->
<g id="edge4" class="edge"><title>Node4&#45;&gt;Node5</title>
<path fill="none" stroke="midnightblue" d="M888.153,-29C896.769,-29 905.47,-29 913.975,-29"/>
<polygon fill="midnightblue" stroke="midnightblue" points="888.094,-25.5001 878.094,-29 888.094,-32.5001 888.094,-25.5001"/>
</g>
<!-- Node7 -->
<g id="node7" class="node"><title>Node7</title>
<g id="a_node7"><a xlink:href="../../d3/df3/classauthoring_1_1view_1_1_program_menu.html#aa73ae8b737adefd919b8dd9c770afe5e" target="_top" xlink:title="authoring.view.ProgramMenu.loadFile">
<polygon fill="white" stroke="black" points="490,-0.5 490,-19.5 684,-19.5 684,-0.5 490,-0.5"/>
<text text-anchor="middle" x="587" y="-7.5" font-family="Helvetica,sans-Serif" font-size="10.00">authoring.view.ProgramMenu.loadFile</text>
</a>
</g>
</g>
<!-- Node6&#45;&gt;Node7 -->
<g id="edge6" class="edge"><title>Node6&#45;&gt;Node7</title>
<path fill="none" stroke="midnightblue" d="M464.152,-10C472.765,-10 481.421,-10 489.93,-10"/>
<polygon fill="midnightblue" stroke="midnightblue" points="464.072,-6.5001 454.072,-10 464.072,-13.5001 464.072,-6.5001"/>
</g>
<!-- Node7&#45;&gt;Node4 -->
<g id="edge7" class="edge"><title>Node7&#45;&gt;Node4</title>
<path fill="none" stroke="midnightblue" d="M694.226,-19.611C702.87,-20.393 711.502,-21.174 719.889,-21.9329"/>
<polygon fill="midnightblue" stroke="midnightblue" points="694.363,-16.1091 684.089,-18.6937 693.733,-23.0807 694.363,-16.1091"/>
</g>
</g>
</svg>
