<?xml version="1.0" encoding="UTF-8" standalone="no"?>
<!DOCTYPE svg PUBLIC "-//W3C//DTD SVG 1.1//EN"
 "http://www.w3.org/Graphics/SVG/1.1/DTD/svg11.dtd">
<!-- Generated by graphviz version 2.36.0 (20140111.2315)
 -->
<!-- Title: authoring.view.ProgramMenu.FileMenu Pages: 1 -->
<!--zoomable 123 -->
<svg id="main" version="1.1" xmlns="http://www.w3.org/2000/svg" xmlns:xlink="http://www.w3.org/1999/xlink" xml:space="preserve" onload="init(evt)">
<style type="text/css"><![CDATA[
.edge:hover path { stroke: red; }
.edge:hover polygon { stroke: red; fill: red; }
]]></style>
<script type="text/javascript"><![CDATA[
var edges = document.getElementsByTagName('g');
if (edges && edges.length) {
  for (var i=0;i<edges.length;i++) {
    if (edges[i].id.substr(0,4)=='edge') {
      edges[i].setAttribute('class','edge');
    }
  }
}
]]></script>
        <defs>
                <circle id="rim" cx="0" cy="0" r="7"/>
                <circle id="rim2" cx="0" cy="0" r="3.5"/>
                <g id="zoomPlus">
                        <use xlink:href="#rim" fill="#404040">
                                <set attributeName="fill" to="#808080" begin="zoomplus.mouseover" end="zoomplus.mouseout"/>
                        </use>
                        <path d="M-4,0h8M0,-4v8" fill="none" stroke="white" stroke-width="1.5" pointer-events="none"/>
                </g>
                <g id="zoomMin">
                        <use xlink:href="#rim" fill="#404040">
                                <set attributeName="fill" to="#808080" begin="zoomminus.mouseover" end="zoomminus.mouseout"/>
                        </use>
                        <path d="M-4,0h8" fill="none" stroke="white" stroke-width="1.5" pointer-events="none"/>
                </g>
                <g id="dirArrow">
                        <path fill="none" stroke="white" stroke-width="1.5" d="M0,-3.0v7 M-2.5,-0.5L0,-3.0L2.5,-0.5"/>
                </g>
               <g id="resetDef">
                       <use xlink:href="#rim2" fill="#404040">
                               <set attributeName="fill" to="#808080" begin="reset.mouseover" end="reset.mouseout"/>
                       </use>
               </g>
        </defs>

<script type="text/javascript">
var viewWidth = 1072;
var viewHeight = 123;
var sectionId = 'dynsection-5';
</script>
<script xlink:href="../../svgpan.js"/>
<svg id="graph" class="graph">
<g id="viewport">
<title>authoring.view.ProgramMenu.FileMenu</title>
<polygon fill="white" stroke="none" points="-4,4 -4,-119 1068,-119 1068,4 -4,4"/>
<!-- Node1 -->
<g id="node1" class="node"><title>Node1</title>
<polygon fill="#bfbfbf" stroke="black" points="0,-33 0,-63 158,-63 158,-33 0,-33"/>
<text text-anchor="start" x="8" y="-51" font-family="Helvetica,sans-Serif" font-size="10.00">authoring.view.ProgramMenu.</text>
<text text-anchor="middle" x="79" y="-40" font-family="Helvetica,sans-Serif" font-size="10.00">FileMenu</text>
</g>
<!-- Node2 -->
<g id="node2" class="node"><title>Node2</title>
<g id="a_node2"><a xlink:href="../../d3/df3/classauthoring_1_1view_1_1_program_menu.html#aa73ae8b737adefd919b8dd9c770afe5e" target="_top" xlink:title="authoring.view.ProgramMenu.loadFile">
<polygon fill="white" stroke="black" points="195,-76.5 195,-95.5 389,-95.5 389,-76.5 195,-76.5"/>
<text text-anchor="middle" x="292" y="-83.5" font-family="Helvetica,sans-Serif" font-size="10.00">authoring.view.ProgramMenu.loadFile</text>
</a>
</g>
</g>
<!-- Node1&#45;&gt;Node2 -->
<g id="edge1" class="edge"><title>Node1&#45;&gt;Node2</title>
<path fill="none" stroke="midnightblue" d="M158.269,-62.0958C181.356,-66.2537 206.311,-70.7479 228.284,-74.7052"/>
<polygon fill="midnightblue" stroke="midnightblue" points="227.691,-78.1546 238.153,-76.4825 228.932,-71.2654 227.691,-78.1546"/>
</g>
<!-- Node7 -->
<g id="node7" class="node"><title>Node7</title>
<g id="a_node7"><a xlink:href="../../d3/df3/classauthoring_1_1view_1_1_program_menu.html#a070bc1672ff24943b56065a223b2ef91" target="_top" xlink:title="authoring.view.ProgramMenu.newFile">
<polygon fill="white" stroke="black" points="196,-38.5 196,-57.5 388,-57.5 388,-38.5 196,-38.5"/>
<text text-anchor="middle" x="292" y="-45.5" font-family="Helvetica,sans-Serif" font-size="10.00">authoring.view.ProgramMenu.newFile</text>
</a>
</g>
</g>
<!-- Node1&#45;&gt;Node7 -->
<g id="edge6" class="edge"><title>Node1&#45;&gt;Node7</title>
<path fill="none" stroke="midnightblue" d="M158.269,-48C167.226,-48 176.465,-48 185.701,-48"/>
<polygon fill="midnightblue" stroke="midnightblue" points="185.71,-51.5001 195.71,-48 185.71,-44.5001 185.71,-51.5001"/>
</g>
<!-- Node10 -->
<g id="node10" class="node"><title>Node10</title>
<g id="a_node10"><a xlink:href="../../d3/df3/classauthoring_1_1view_1_1_program_menu.html#a827ad0690ad7dc9f87b64ffa1979a323" target="_top" xlink:title="authoring.view.ProgramMenu.saveFile">
<polygon fill="white" stroke="black" points="194,-0.5 194,-19.5 390,-19.5 390,-0.5 194,-0.5"/>
<text text-anchor="middle" x="292" y="-7.5" font-family="Helvetica,sans-Serif" font-size="10.00">authoring.view.ProgramMenu.saveFile</text>
</a>
</g>
</g>
<!-- Node1&#45;&gt;Node10 -->
<g id="edge10" class="edge"><title>Node1&#45;&gt;Node10</title>
<path fill="none" stroke="midnightblue" d="M158.269,-33.9042C181.356,-29.7463 206.311,-25.2521 228.284,-21.2948"/>
<polygon fill="midnightblue" stroke="midnightblue" points="228.932,-24.7346 238.153,-19.5175 227.691,-17.8454 228.932,-24.7346"/>
</g>
<!-- Node3 -->
<g id="node3" class="node"><title>Node3</title>
<g id="a_node3"><a xlink:href="../../d3/df3/classauthoring_1_1view_1_1_program_menu.html#a10ecf01e628d3fa377f151a965424e50" target="_top" xlink:title="authoring.view.ProgramMenu.loadData">
<polygon fill="white" stroke="black" points="427,-76.5 427,-95.5 629,-95.5 629,-76.5 427,-76.5"/>
<text text-anchor="middle" x="528" y="-83.5" font-family="Helvetica,sans-Serif" font-size="10.00">authoring.view.ProgramMenu.loadData</text>
</a>
</g>
</g>
<!-- Node2&#45;&gt;Node3 -->
<g id="edge2" class="edge"><title>Node2&#45;&gt;Node3</title>
<path fill="none" stroke="midnightblue" d="M389.19,-86C398.165,-86 407.31,-86 416.402,-86"/>
<polygon fill="midnightblue" stroke="midnightblue" points="416.635,-89.5001 426.634,-86 416.634,-82.5001 416.635,-89.5001"/>
</g>
<!-- Node4 -->
<g id="node4" class="node"><title>Node4</title>
<g id="a_node4"><a xlink:href="../../d3/df3/classauthoring_1_1view_1_1_program_menu.html#a64b6179ade9bc9185ddb677a3bdc883b" target="_top" xlink:title="authoring.view.ProgramMenu.setupGame">
<polygon fill="white" stroke="black" points="666.5,-57.5 666.5,-76.5 881.5,-76.5 881.5,-57.5 666.5,-57.5"/>
<text text-anchor="middle" x="774" y="-64.5" font-family="Helvetica,sans-Serif" font-size="10.00">authoring.view.ProgramMenu.setupGame</text>
</a>
</g>
</g>
<!-- Node3&#45;&gt;Node4 -->
<g id="edge3" class="edge"><title>Node3&#45;&gt;Node4</title>
<path fill="none" stroke="midnightblue" d="M629.3,-78.1897C638.182,-77.4981 647.222,-76.7942 656.224,-76.0932"/>
<polygon fill="midnightblue" stroke="midnightblue" points="656.663,-79.5697 666.361,-75.3038 656.12,-72.5908 656.663,-79.5697"/>
</g>
<!-- Node5 -->
<g id="node5" class="node"><title>Node5</title>
<g id="a_node5"><a xlink:href="../../d1/d95/classdata_1_1_data_manager.html#adf2d2f38be8e2b2934f3ec7e944e2c3a" target="_top" xlink:title="data.DataManager.readGameFile">
<polygon fill="white" stroke="black" points="686.5,-95.5 686.5,-114.5 861.5,-114.5 861.5,-95.5 686.5,-95.5"/>
<text text-anchor="middle" x="774" y="-102.5" font-family="Helvetica,sans-Serif" font-size="10.00">data.DataManager.readGameFile</text>
</a>
</g>
</g>
<!-- Node3&#45;&gt;Node5 -->
<g id="edge4" class="edge"><title>Node3&#45;&gt;Node5</title>
<path fill="none" stroke="midnightblue" d="M629.3,-93.8103C644.827,-95.0193 660.838,-96.2661 676.284,-97.4688"/>
<polygon fill="midnightblue" stroke="midnightblue" points="676.1,-100.965 686.341,-98.252 676.643,-93.9861 676.1,-100.965"/>
</g>
<!-- Node6 -->
<g id="node6" class="node"><title>Node6</title>
<g id="a_node6"><a xlink:href="../../d1/d95/classdata_1_1_data_manager.html#aec1d7a9fb10c2bd1ce23e7aff5eba74c" target="_top" xlink:title="data.DataManager.readFile">
<polygon fill="white" stroke="black" points="918,-95.5 918,-114.5 1064,-114.5 1064,-95.5 918,-95.5"/>
<text text-anchor="middle" x="991" y="-102.5" font-family="Helvetica,sans-Serif" font-size="10.00">data.DataManager.readFile</text>
</a>
</g>
</g>
<!-- Node5&#45;&gt;Node6 -->
<g id="edge5" class="edge"><title>Node5&#45;&gt;Node6</title>
<path fill="none" stroke="midnightblue" d="M861.519,-105C876.688,-105 892.437,-105 907.494,-105"/>
<polygon fill="midnightblue" stroke="midnightblue" points="907.791,-108.5 917.791,-105 907.791,-101.5 907.791,-108.5"/>
</g>
<!-- Node8 -->
<g id="node8" class="node"><title>Node8</title>
<g id="a_node8"><a xlink:href="../../d3/df3/classauthoring_1_1view_1_1_program_menu.html#aa2afa7ec1c018b777d601e527cbe23c2" target="_top" xlink:title="authoring.view.ProgramMenu.addNew">
<polygon fill="white" stroke="black" points="429.5,-38.5 429.5,-57.5 626.5,-57.5 626.5,-38.5 429.5,-38.5"/>
<text text-anchor="middle" x="528" y="-45.5" font-family="Helvetica,sans-Serif" font-size="10.00">authoring.view.ProgramMenu.addNew</text>
</a>
</g>
</g>
<!-- Node7&#45;&gt;Node8 -->
<g id="edge7" class="edge"><title>Node7&#45;&gt;Node8</title>
<path fill="none" stroke="midnightblue" d="M388.177,-48C398.331,-48 408.712,-48 419.001,-48"/>
<polygon fill="midnightblue" stroke="midnightblue" points="419.246,-51.5001 429.246,-48 419.246,-44.5001 419.246,-51.5001"/>
</g>
<!-- Node8&#45;&gt;Node4 -->
<g id="edge9" class="edge"><title>Node8&#45;&gt;Node4</title>
<path fill="none" stroke="midnightblue" d="M626.838,-55.6185C636.482,-56.3695 646.335,-57.1367 656.144,-57.9005"/>
<polygon fill="midnightblue" stroke="midnightblue" points="656.097,-61.4074 666.339,-58.6944 656.64,-54.4285 656.097,-61.4074"/>
</g>
<!-- Node9 -->
<g id="node9" class="node"><title>Node9</title>
<g id="a_node9"><a xlink:href="../../d3/df3/classauthoring_1_1view_1_1_program_menu.html#acaa62dc220ec4e45a79361815a0a6bc4" target="_top" xlink:title="authoring.view.ProgramMenu.make\lFolders">
<polygon fill="white" stroke="black" points="681.5,-8 681.5,-38 866.5,-38 866.5,-8 681.5,-8"/>
<text text-anchor="start" x="689.5" y="-26" font-family="Helvetica,sans-Serif" font-size="10.00">authoring.view.ProgramMenu.make</text>
<text text-anchor="middle" x="774" y="-15" font-family="Helvetica,sans-Serif" font-size="10.00">Folders</text>
</a>
</g>
</g>
<!-- Node8&#45;&gt;Node9 -->
<g id="edge8" class="edge"><title>Node8&#45;&gt;Node9</title>
<path fill="none" stroke="midnightblue" d="M621.942,-38.4773C638.002,-36.8317 654.776,-35.1132 671.059,-33.4448"/>
<polygon fill="midnightblue" stroke="midnightblue" points="671.532,-36.9147 681.123,-32.4136 670.819,-29.9511 671.532,-36.9147"/>
</g>
<!-- Node11 -->
<g id="node11" class="node"><title>Node11</title>
<g id="a_node11"><a xlink:href="../../d3/df3/classauthoring_1_1view_1_1_program_menu.html#a6e7ed5f0b0f21040bbe8ffd139e24373" target="_top" xlink:title="authoring.view.ProgramMenu.saveData">
<polygon fill="white" stroke="black" points="426,-0.5 426,-19.5 630,-19.5 630,-0.5 426,-0.5"/>
<text text-anchor="middle" x="528" y="-7.5" font-family="Helvetica,sans-Serif" font-size="10.00">authoring.view.ProgramMenu.saveData</text>
</a>
</g>
</g>
<!-- Node10&#45;&gt;Node11 -->
<g id="edge11" class="edge"><title>Node10&#45;&gt;Node11</title>
<path fill="none" stroke="midnightblue" d="M390.204,-10C398.688,-10 407.315,-10 415.899,-10"/>
<polygon fill="midnightblue" stroke="midnightblue" points="415.946,-13.5001 425.946,-10 415.946,-6.5001 415.946,-13.5001"/>
</g>
</g>
</svg>
        <g id="navigator" transform="translate(0 0)" fill="#404254">
                <rect fill="#f2f5e9" fill-opacity="0.5" stroke="#606060" stroke-width=".5" x="0" y="0" width="60" height="60"/>
                <use id="zoomplus" xlink:href="#zoomPlus" x="17" y="9" onmousedown="handleZoom(evt,'in')"/>
                <use id="zoomminus" xlink:href="#zoomMin" x="42" y="9" onmousedown="handleZoom(evt,'out')"/>
                <use id="reset" xlink:href="#resetDef" x="30" y="36" onmousedown="handleReset()"/>
                <g id="arrowUp" xlink:href="#dirArrow" transform="translate(30 24)" onmousedown="handlePan(0,-1)">
                  <use xlink:href="#rim" fill="#404040">
                        <set attributeName="fill" to="#808080" begin="arrowUp.mouseover" end="arrowUp.mouseout"/>
                  </use>
                  <path fill="none" stroke="white" stroke-width="1.5" d="M0,-3.0v7 M-2.5,-0.5L0,-3.0L2.5,-0.5"/>
                </g>
                <g id="arrowRight" xlink:href="#dirArrow" transform="rotate(90) translate(36 -43)" onmousedown="handlePan(1,0)">
                  <use xlink:href="#rim" fill="#404040">
                        <set attributeName="fill" to="#808080" begin="arrowRight.mouseover" end="arrowRight.mouseout"/>
                  </use>
                  <path fill="none" stroke="white" stroke-width="1.5" d="M0,-3.0v7 M-2.5,-0.5L0,-3.0L2.5,-0.5"/>
                </g>
                <g id="arrowDown" xlink:href="#dirArrow" transform="rotate(180) translate(-30 -48)" onmousedown="handlePan(0,1)">
                  <use xlink:href="#rim" fill="#404040">
                        <set attributeName="fill" to="#808080" begin="arrowDown.mouseover" end="arrowDown.mouseout"/>
                  </use>
                  <path fill="none" stroke="white" stroke-width="1.5" d="M0,-3.0v7 M-2.5,-0.5L0,-3.0L2.5,-0.5"/>
                </g>
                <g id="arrowLeft" xlink:href="#dirArrow" transform="rotate(270) translate(-36 17)" onmousedown="handlePan(-1,0)">
                  <use xlink:href="#rim" fill="#404040">
                        <set attributeName="fill" to="#808080" begin="arrowLeft.mouseover" end="arrowLeft.mouseout"/>
                  </use>
                  <path fill="none" stroke="white" stroke-width="1.5" d="M0,-3.0v7 M-2.5,-0.5L0,-3.0L2.5,-0.5"/>
                </g>
        </g>
        <svg viewBox="0 0 15 15" width="100%" height="30px" preserveAspectRatio="xMaxYMin meet">
         <g id="arrow_out" transform="scale(0.3 0.3)">
          <a xlink:href="classauthoring_1_1view_1_1_program_menu_a4f80944f8d70afac9f86de8caa8439b5_cgraph_org.svg" target="_base">
           <rect id="button" ry="5" rx="5" y="6" x="6" height="38" width="38"
                fill="#f2f5e9" fill-opacity="0.5" stroke="#606060" stroke-width="1.0"/>
           <path id="arrow"
             d="M 11.500037,31.436501 C 11.940474,20.09759 22.043105,11.32322 32.158766,21.979434 L 37.068811,17.246167 C 37.068811,17.246167 37.088388,32 37.088388,32 L 22.160133,31.978069 C 22.160133,31.978069 26.997745,27.140456 26.997745,27.140456 C 18.528582,18.264221 13.291696,25.230495 11.500037,31.436501 z"
             style="fill:#404040;"/>
          </a>
         </g>
        </svg>
</svg>
