<?xml version="1.0" encoding="UTF-8" standalone="no"?>
<!DOCTYPE svg PUBLIC "-//W3C//DTD SVG 1.1//EN"
 "http://www.w3.org/Graphics/SVG/1.1/DTD/svg11.dtd">
<!-- Generated by graphviz version 2.36.0 (20140111.2315)
 -->
<!-- Title: authoring.view.ProgramMenu.addNew Pages: 1 -->
<svg width="822pt" height="38pt"
 viewBox="0.00 0.00 822.00 38.00" xmlns="http://www.w3.org/2000/svg" xmlns:xlink="http://www.w3.org/1999/xlink">
<g id="graph0" class="graph" transform="scale(1 1) rotate(0) translate(4 34)">
<title>authoring.view.ProgramMenu.addNew</title>
<polygon fill="white" stroke="none" points="-4,4 -4,-34 818,-34 818,4 -4,4"/>
<!-- Node1 -->
<g id="node1" class="node"><title>Node1</title>
<polygon fill="#bfbfbf" stroke="black" points="0.5,-5.5 0.5,-24.5 197.5,-24.5 197.5,-5.5 0.5,-5.5"/>
<text text-anchor="middle" x="99" y="-12.5" font-family="Helvetica,sans-Serif" font-size="10.00">authoring.view.ProgramMenu.addNew</text>
</g>
<!-- Node2 -->
<g id="node2" class="node"><title>Node2</title>
<g id="a_node2"><a xlink:href="../../d3/df3/classauthoring_1_1view_1_1_program_menu.html#a070bc1672ff24943b56065a223b2ef91" target="_top" xlink:title="authoring.view.ProgramMenu.newFile">
<polygon fill="white" stroke="black" points="234,-5.5 234,-24.5 426,-24.5 426,-5.5 234,-5.5"/>
<text text-anchor="middle" x="330" y="-12.5" font-family="Helvetica,sans-Serif" font-size="10.00">authoring.view.ProgramMenu.newFile</text>
</a>
</g>
</g>
<!-- Node1&#45;&gt;Node2 -->
<g id="edge1" class="edge"><title>Node1&#45;&gt;Node2</title>
<path fill="none" stroke="midnightblue" d="M207.88,-15C216.512,-15 225.195,-15 233.731,-15"/>
<polygon fill="midnightblue" stroke="midnightblue" points="207.781,-11.5001 197.781,-15 207.781,-18.5001 207.781,-11.5001"/>
</g>
<!-- Node3 -->
<g id="node3" class="node"><title>Node3</title>
<g id="a_node3"><a xlink:href="../../d3/df3/classauthoring_1_1view_1_1_program_menu.html#a4f80944f8d70afac9f86de8caa8439b5" target="_top" xlink:title="authoring.view.ProgramMenu.\lFileMenu">
<polygon fill="white" stroke="black" points="462,-0 462,-30 620,-30 620,-0 462,-0"/>
<text text-anchor="start" x="470" y="-18" font-family="Helvetica,sans-Serif" font-size="10.00">authoring.view.ProgramMenu.</text>
<text text-anchor="middle" x="541" y="-7" font-family="Helvetica,sans-Serif" font-size="10.00">FileMenu</text>
</a>
</g>
</g>
<!-- Node2&#45;&gt;Node3 -->
<g id="edge2" class="edge"><title>Node2&#45;&gt;Node3</title>
<path fill="none" stroke="midnightblue" d="M436.146,-15C444.78,-15 453.409,-15 461.796,-15"/>
<polygon fill="midnightblue" stroke="midnightblue" points="436.021,-11.5001 426.021,-15 436.021,-18.5001 436.021,-11.5001"/>
</g>
<!-- Node4 -->
<g id="node4" class="node"><title>Node4</title>
<g id="a_node4"><a xlink:href="../../d3/df3/classauthoring_1_1view_1_1_program_menu.html#a1979060c566560f24eee51c819341adc" target="_top" xlink:title="authoring.view.ProgramMenu.\lProgramMenu">
<polygon fill="white" stroke="black" points="656,-0 656,-30 814,-30 814,-0 656,-0"/>
<text text-anchor="start" x="664" y="-18" font-family="Helvetica,sans-Serif" font-size="10.00">authoring.view.ProgramMenu.</text>
<text text-anchor="middle" x="735" y="-7" font-family="Helvetica,sans-Serif" font-size="10.00">ProgramMenu</text>
</a>
</g>
</g>
<!-- Node3&#45;&gt;Node4 -->
<g id="edge3" class="edge"><title>Node3&#45;&gt;Node4</title>
<path fill="none" stroke="midnightblue" d="M630.153,-15C638.769,-15 647.47,-15 655.975,-15"/>
<polygon fill="midnightblue" stroke="midnightblue" points="630.094,-11.5001 620.094,-15 630.094,-18.5001 630.094,-11.5001"/>
</g>
</g>
</svg>
