<?xml version="1.0" encoding="UTF-8" standalone="no"?>
<!DOCTYPE svg PUBLIC "-//W3C//DTD SVG 1.1//EN"
 "http://www.w3.org/Graphics/SVG/1.1/DTD/svg11.dtd">
<!-- Generated by graphviz version 2.36.0 (20140111.2315)
 -->
<!-- Title: engine.conditions.ButtonConditionManager.beginListeningToScene Pages: 1 -->
<svg width="1490pt" height="115pt"
 viewBox="0.00 0.00 1490.00 115.00" xmlns="http://www.w3.org/2000/svg" xmlns:xlink="http://www.w3.org/1999/xlink">
<g id="graph0" class="graph" transform="scale(1 1) rotate(0) translate(4 111)">
<title>engine.conditions.ButtonConditionManager.beginListeningToScene</title>
<polygon fill="white" stroke="none" points="-4,4 -4,-111 1486,-111 1486,4 -4,4"/>
<!-- Node1 -->
<g id="node1" class="node"><title>Node1</title>
<polygon fill="#bfbfbf" stroke="black" points="0.5,-27.5 0.5,-68.5 175.5,-68.5 175.5,-27.5 0.5,-27.5"/>
<text text-anchor="start" x="8.5" y="-56.5" font-family="Helvetica,sans-Serif" font-size="10.00">engine.conditions.Button</text>
<text text-anchor="start" x="8.5" y="-45.5" font-family="Helvetica,sans-Serif" font-size="10.00">ConditionManager.beginListening</text>
<text text-anchor="middle" x="88" y="-34.5" font-family="Helvetica,sans-Serif" font-size="10.00">ToScene</text>
</g>
<!-- Node2 -->
<g id="node2" class="node"><title>Node2</title>
<g id="a_node2"><a xlink:href="../../d7/d3c/classgame_player_1_1view_1_1_player_view.html#a1819e3a1d44b1db95bdf3a4bc6df7ebc" target="_top" xlink:title="gamePlayer.view.PlayerView.initialize\lGUIComponents">
<polygon fill="white" stroke="black" points="212,-77 212,-107 402,-107 402,-77 212,-77"/>
<text text-anchor="start" x="220" y="-95" font-family="Helvetica,sans-Serif" font-size="10.00">gamePlayer.view.PlayerView.initialize</text>
<text text-anchor="middle" x="307" y="-84" font-family="Helvetica,sans-Serif" font-size="10.00">GUIComponents</text>
</a>
</g>
</g>
<!-- Node1&#45;&gt;Node2 -->
<g id="edge1" class="edge"><title>Node1&#45;&gt;Node2</title>
<path fill="none" stroke="midnightblue" d="M185.828,-67.6333C201.331,-70.7768 217.156,-73.9856 232.017,-76.9988"/>
<polygon fill="midnightblue" stroke="midnightblue" points="186.196,-64.1367 175.7,-65.5797 184.805,-70.9971 186.196,-64.1367"/>
</g>
<!-- Node8 -->
<g id="node8" class="node"><title>Node8</title>
<g id="a_node8"><a xlink:href="../../d7/d00/classengine_1_1tests_1_1_main_engine_tests.html#ad1e78dcd3453ebdeb09141cba734c133" target="_top" xlink:title="engine.tests.MainEngineTests.start">
<polygon fill="white" stroke="black" points="215.5,-38.5 215.5,-57.5 398.5,-57.5 398.5,-38.5 215.5,-38.5"/>
<text text-anchor="middle" x="307" y="-45.5" font-family="Helvetica,sans-Serif" font-size="10.00">engine.tests.MainEngineTests.start</text>
</a>
</g>
</g>
<!-- Node1&#45;&gt;Node8 -->
<g id="edge7" class="edge"><title>Node1&#45;&gt;Node8</title>
<path fill="none" stroke="midnightblue" d="M185.817,-48C195.582,-48 205.475,-48 215.175,-48"/>
<polygon fill="midnightblue" stroke="midnightblue" points="185.7,-44.5001 175.7,-48 185.7,-51.5001 185.7,-44.5001"/>
</g>
<!-- Node9 -->
<g id="node9" class="node"><title>Node9</title>
<g id="a_node9"><a xlink:href="../../dc/d21/classgames_1_1_mario_game_test.html#a8b7c287ffdfcacefeb373e7430a608c8" target="_top" xlink:title="games.MarioGameTest.start">
<polygon fill="white" stroke="black" points="231,-0.5 231,-19.5 383,-19.5 383,-0.5 231,-0.5"/>
<text text-anchor="middle" x="307" y="-7.5" font-family="Helvetica,sans-Serif" font-size="10.00">games.MarioGameTest.start</text>
</a>
</g>
</g>
<!-- Node1&#45;&gt;Node9 -->
<g id="edge8" class="edge"><title>Node1&#45;&gt;Node9</title>
<path fill="none" stroke="midnightblue" d="M185.678,-31.0702C208.285,-27.1113 231.586,-23.031 251.59,-19.528"/>
<polygon fill="midnightblue" stroke="midnightblue" points="184.946,-27.645 175.7,-32.8176 186.154,-34.5401 184.946,-27.645"/>
</g>
<!-- Node3 -->
<g id="node3" class="node"><title>Node3</title>
<g id="a_node3"><a xlink:href="../../d7/d3c/classgame_player_1_1view_1_1_player_view.html#ab5225b160ab16323a5485bd1c3f62303" target="_top" xlink:title="gamePlayer.view.PlayerView.initialize">
<polygon fill="white" stroke="black" points="438,-82.5 438,-101.5 628,-101.5 628,-82.5 438,-82.5"/>
<text text-anchor="middle" x="533" y="-89.5" font-family="Helvetica,sans-Serif" font-size="10.00">gamePlayer.view.PlayerView.initialize</text>
</a>
</g>
</g>
<!-- Node2&#45;&gt;Node3 -->
<g id="edge2" class="edge"><title>Node2&#45;&gt;Node3</title>
<path fill="none" stroke="midnightblue" d="M412.077,-92C420.676,-92 429.338,-92 437.859,-92"/>
<polygon fill="midnightblue" stroke="midnightblue" points="412.023,-88.5001 402.023,-92 412.023,-95.5001 412.023,-88.5001"/>
</g>
<!-- Node4 -->
<g id="node4" class="node"><title>Node4</title>
<g id="a_node4"><a xlink:href="../../d2/dc9/classgame_player_1_1model_1_1_player_model.html#af8fd7a780ad8f9eebd18f451e188717e" target="_top" xlink:title="gamePlayer.model.PlayerModel.initializeView">
<polygon fill="white" stroke="black" points="664,-82.5 664,-101.5 894,-101.5 894,-82.5 664,-82.5"/>
<text text-anchor="middle" x="779" y="-89.5" font-family="Helvetica,sans-Serif" font-size="10.00">gamePlayer.model.PlayerModel.initializeView</text>
</a>
</g>
</g>
<!-- Node3&#45;&gt;Node4 -->
<g id="edge3" class="edge"><title>Node3&#45;&gt;Node4</title>
<path fill="none" stroke="midnightblue" d="M638.533,-92C646.946,-92 655.473,-92 663.949,-92"/>
<polygon fill="midnightblue" stroke="midnightblue" points="638.337,-88.5001 628.337,-92 638.337,-95.5001 638.337,-88.5001"/>
</g>
<!-- Node5 -->
<g id="node5" class="node"><title>Node5</title>
<g id="a_node5"><a xlink:href="../../d6/d99/classapplication_1_1_splash_screen.html#af35ff913e798fa504502185f76703a74" target="_top" xlink:title="application.SplashScreen.play">
<polygon fill="white" stroke="black" points="930,-82.5 930,-101.5 1090,-101.5 1090,-82.5 930,-82.5"/>
<text text-anchor="middle" x="1010" y="-89.5" font-family="Helvetica,sans-Serif" font-size="10.00">application.SplashScreen.play</text>
</a>
</g>
</g>
<!-- Node4&#45;&gt;Node5 -->
<g id="edge4" class="edge"><title>Node4&#45;&gt;Node5</title>
<path fill="none" stroke="midnightblue" d="M904.363,-92C913.031,-92 921.623,-92 929.938,-92"/>
<polygon fill="midnightblue" stroke="midnightblue" points="904.165,-88.5001 894.165,-92 904.165,-95.5001 904.165,-88.5001"/>
</g>
<!-- Node6 -->
<g id="node6" class="node"><title>Node6</title>
<g id="a_node6"><a xlink:href="../../d6/d99/classapplication_1_1_splash_screen.html#abad5bc7bafefe1a4e59b0d121dc895e9" target="_top" xlink:title="application.SplashScreen.initialize\lGUIElements">
<polygon fill="white" stroke="black" points="1126.5,-77 1126.5,-107 1305.5,-107 1305.5,-77 1126.5,-77"/>
<text text-anchor="start" x="1134.5" y="-95" font-family="Helvetica,sans-Serif" font-size="10.00">application.SplashScreen.initialize</text>
<text text-anchor="middle" x="1216" y="-84" font-family="Helvetica,sans-Serif" font-size="10.00">GUIElements</text>
</a>
</g>
</g>
<!-- Node5&#45;&gt;Node6 -->
<g id="edge5" class="edge"><title>Node5&#45;&gt;Node6</title>
<path fill="none" stroke="midnightblue" d="M1100.27,-92C1108.94,-92 1117.73,-92 1126.4,-92"/>
<polygon fill="midnightblue" stroke="midnightblue" points="1100.16,-88.5001 1090.16,-92 1100.16,-95.5001 1100.16,-88.5001"/>
</g>
<!-- Node7 -->
<g id="node7" class="node"><title>Node7</title>
<g id="a_node7"><a xlink:href="../../d6/d99/classapplication_1_1_splash_screen.html#a512cfd783d4871bae304c03a9a32cba9" target="_top" xlink:title="application.SplashScreen.\lSplashScreen">
<polygon fill="white" stroke="black" points="1342,-77 1342,-107 1482,-107 1482,-77 1342,-77"/>
<text text-anchor="start" x="1350" y="-95" font-family="Helvetica,sans-Serif" font-size="10.00">application.SplashScreen.</text>
<text text-anchor="middle" x="1412" y="-84" font-family="Helvetica,sans-Serif" font-size="10.00">SplashScreen</text>
</a>
</g>
</g>
<!-- Node6&#45;&gt;Node7 -->
<g id="edge6" class="edge"><title>Node6&#45;&gt;Node7</title>
<path fill="none" stroke="midnightblue" d="M1315.98,-92C1324.68,-92 1333.36,-92 1341.74,-92"/>
<polygon fill="midnightblue" stroke="midnightblue" points="1315.77,-88.5001 1305.77,-92 1315.77,-95.5001 1315.77,-88.5001"/>
</g>
</g>
</svg>
