<?xml version="1.0" encoding="UTF-8" standalone="no"?>
<!DOCTYPE svg PUBLIC "-//W3C//DTD SVG 1.1//EN"
 "http://www.w3.org/Graphics/SVG/1.1/DTD/svg11.dtd">
<!-- Generated by graphviz version 2.36.0 (20140111.2315)
 -->
<!-- Title: engine.conditions.ButtonConditionManager.ButtonConditionManager Pages: 1 -->
<!--zoomable 228 -->
<svg id="main" version="1.1" xmlns="http://www.w3.org/2000/svg" xmlns:xlink="http://www.w3.org/1999/xlink" xml:space="preserve" onload="init(evt)">
<style type="text/css"><![CDATA[
.edge:hover path { stroke: red; }
.edge:hover polygon { stroke: red; fill: red; }
]]></style>
<script type="text/javascript"><![CDATA[
var edges = document.getElementsByTagName('g');
if (edges && edges.length) {
  for (var i=0;i<edges.length;i++) {
    if (edges[i].id.substr(0,4)=='edge') {
      edges[i].setAttribute('class','edge');
    }
  }
}
]]></script>
        <defs>
                <circle id="rim" cx="0" cy="0" r="7"/>
                <circle id="rim2" cx="0" cy="0" r="3.5"/>
                <g id="zoomPlus">
                        <use xlink:href="#rim" fill="#404040">
                                <set attributeName="fill" to="#808080" begin="zoomplus.mouseover" end="zoomplus.mouseout"/>
                        </use>
                        <path d="M-4,0h8M0,-4v8" fill="none" stroke="white" stroke-width="1.5" pointer-events="none"/>
                </g>
                <g id="zoomMin">
                        <use xlink:href="#rim" fill="#404040">
                                <set attributeName="fill" to="#808080" begin="zoomminus.mouseover" end="zoomminus.mouseout"/>
                        </use>
                        <path d="M-4,0h8" fill="none" stroke="white" stroke-width="1.5" pointer-events="none"/>
                </g>
                <g id="dirArrow">
                        <path fill="none" stroke="white" stroke-width="1.5" d="M0,-3.0v7 M-2.5,-0.5L0,-3.0L2.5,-0.5"/>
                </g>
               <g id="resetDef">
                       <use xlink:href="#rim2" fill="#404040">
                               <set attributeName="fill" to="#808080" begin="reset.mouseover" end="reset.mouseout"/>
                       </use>
               </g>
        </defs>

<script type="text/javascript">
var viewWidth = 1696;
var viewHeight = 228;
var sectionId = 'dynsection-1';
</script>
<script xlink:href="../../svgpan.js"/>
<svg id="graph" class="graph">
<g id="viewport">
<title>engine.conditions.ButtonConditionManager.ButtonConditionManager</title>
<polygon fill="white" stroke="none" points="-4,4 -4,-224 1692,-224 1692,4 -4,4"/>
<!-- Node1 -->
<g id="node1" class="node"><title>Node1</title>
<polygon fill="#bfbfbf" stroke="black" points="0.5,-77.5 0.5,-118.5 183.5,-118.5 183.5,-77.5 0.5,-77.5"/>
<text text-anchor="start" x="8.5" y="-106.5" font-family="Helvetica,sans-Serif" font-size="10.00">engine.conditions.Button</text>
<text text-anchor="start" x="8.5" y="-95.5" font-family="Helvetica,sans-Serif" font-size="10.00">ConditionManager.ButtonCondition</text>
<text text-anchor="middle" x="92" y="-84.5" font-family="Helvetica,sans-Serif" font-size="10.00">Manager</text>
</g>
<!-- Node2 -->
<g id="node2" class="node"><title>Node2</title>
<g id="a_node2"><a xlink:href="../../d9/d10/classengine_1_1conditions_1_1_button_condition_manager.html#acf0bbdb37a1c9d9cdfa827f114a50766" target="_top" xlink:title="engine.conditions.Button\lConditionManager.getInstance">
<polygon fill="white" stroke="black" points="220,-83 220,-113 382,-113 382,-83 220,-83"/>
<text text-anchor="start" x="228" y="-101" font-family="Helvetica,sans-Serif" font-size="10.00">engine.conditions.Button</text>
<text text-anchor="middle" x="301" y="-90" font-family="Helvetica,sans-Serif" font-size="10.00">ConditionManager.getInstance</text>
</a>
</g>
</g>
<!-- Node1&#45;&gt;Node2 -->
<g id="edge1" class="edge"><title>Node1&#45;&gt;Node2</title>
<path fill="none" stroke="midnightblue" d="M194.008,-98C202.731,-98 211.477,-98 220,-98"/>
<polygon fill="midnightblue" stroke="midnightblue" points="193.793,-94.5001 183.793,-98 193.793,-101.5 193.793,-94.5001"/>
</g>
<!-- Node3 -->
<g id="node3" class="node"><title>Node3</title>
<g id="a_node3"><a xlink:href="../../d5/dcb/classengine_1_1conditions_1_1_button_press_condition.html#ad6cac85b5b1e5062062d62505ab1555a" target="_top" xlink:title="engine.conditions.Button\lPressCondition.executeActions">
<polygon fill="white" stroke="black" points="431,-179 431,-209 595,-209 595,-179 431,-179"/>
<text text-anchor="start" x="439" y="-197" font-family="Helvetica,sans-Serif" font-size="10.00">engine.conditions.Button</text>
<text text-anchor="middle" x="513" y="-186" font-family="Helvetica,sans-Serif" font-size="10.00">PressCondition.executeActions</text>
</a>
</g>
</g>
<!-- Node2&#45;&gt;Node3 -->
<g id="edge2" class="edge"><title>Node2&#45;&gt;Node3</title>
<path fill="none" stroke="midnightblue" d="M332.797,-118.82C355.573,-133.519 387.757,-152.861 418,-166 429.245,-170.885 441.6,-175.238 453.551,-178.97"/>
<polygon fill="midnightblue" stroke="midnightblue" points="334.537,-115.776 324.251,-113.237 330.709,-121.636 334.537,-115.776"/>
</g>
<!-- Node5 -->
<g id="node5" class="node"><title>Node5</title>
<g id="a_node5"><a xlink:href="../../d5/df0/classengine_1_1conditions_1_1_button_release_condition.html#a87b7f59ff63237d1382841cdc50bd8d0" target="_top" xlink:title="engine.conditions.Button\lReleaseCondition.executeActions">
<polygon fill="white" stroke="black" points="425.5,-127 425.5,-157 600.5,-157 600.5,-127 425.5,-127"/>
<text text-anchor="start" x="433.5" y="-145" font-family="Helvetica,sans-Serif" font-size="10.00">engine.conditions.Button</text>
<text text-anchor="middle" x="513" y="-134" font-family="Helvetica,sans-Serif" font-size="10.00">ReleaseCondition.executeActions</text>
</a>
</g>
</g>
<!-- Node2&#45;&gt;Node5 -->
<g id="edge4" class="edge"><title>Node2&#45;&gt;Node5</title>
<path fill="none" stroke="midnightblue" d="M383.642,-115.106C402.327,-119.021 422.052,-123.154 440.284,-126.974"/>
<polygon fill="midnightblue" stroke="midnightblue" points="384.188,-111.644 373.683,-113.019 382.752,-118.496 384.188,-111.644"/>
</g>
<!-- Node7 -->
<g id="node7" class="node"><title>Node7</title>
<g id="a_node7"><a xlink:href="../../d7/d00/classengine_1_1tests_1_1_main_engine_tests.html#ad1e78dcd3453ebdeb09141cba734c133" target="_top" xlink:title="engine.tests.MainEngineTests.start">
<polygon fill="white" stroke="black" points="421.5,-88.5 421.5,-107.5 604.5,-107.5 604.5,-88.5 421.5,-88.5"/>
<text text-anchor="middle" x="513" y="-95.5" font-family="Helvetica,sans-Serif" font-size="10.00">engine.tests.MainEngineTests.start</text>
</a>
</g>
</g>
<!-- Node2&#45;&gt;Node7 -->
<g id="edge6" class="edge"><title>Node2&#45;&gt;Node7</title>
<path fill="none" stroke="midnightblue" d="M392.534,-98C402.046,-98 411.72,-98 421.235,-98"/>
<polygon fill="midnightblue" stroke="midnightblue" points="392.291,-94.5001 382.291,-98 392.291,-101.5 392.291,-94.5001"/>
</g>
<!-- Node8 -->
<g id="node8" class="node"><title>Node8</title>
<g id="a_node8"><a xlink:href="../../d7/d3c/classgame_player_1_1view_1_1_player_view.html#a1819e3a1d44b1db95bdf3a4bc6df7ebc" target="_top" xlink:title="gamePlayer.view.PlayerView.initialize\lGUIComponents">
<polygon fill="white" stroke="black" points="418,-39 418,-69 608,-69 608,-39 418,-39"/>
<text text-anchor="start" x="426" y="-57" font-family="Helvetica,sans-Serif" font-size="10.00">gamePlayer.view.PlayerView.initialize</text>
<text text-anchor="middle" x="513" y="-46" font-family="Helvetica,sans-Serif" font-size="10.00">GUIComponents</text>
</a>
</g>
</g>
<!-- Node2&#45;&gt;Node8 -->
<g id="edge7" class="edge"><title>Node2&#45;&gt;Node8</title>
<path fill="none" stroke="midnightblue" d="M383.642,-80.8941C402.327,-76.979 422.052,-72.8462 440.284,-69.0262"/>
<polygon fill="midnightblue" stroke="midnightblue" points="382.752,-77.5044 373.683,-82.9808 384.188,-84.3556 382.752,-77.5044"/>
</g>
<!-- Node14 -->
<g id="node14" class="node"><title>Node14</title>
<g id="a_node14"><a xlink:href="../../dc/d21/classgames_1_1_mario_game_test.html#a8b7c287ffdfcacefeb373e7430a608c8" target="_top" xlink:title="games.MarioGameTest.start">
<polygon fill="white" stroke="black" points="437,-0.5 437,-19.5 589,-19.5 589,-0.5 437,-0.5"/>
<text text-anchor="middle" x="513" y="-7.5" font-family="Helvetica,sans-Serif" font-size="10.00">games.MarioGameTest.start</text>
</a>
</g>
</g>
<!-- Node2&#45;&gt;Node14 -->
<g id="edge13" class="edge"><title>Node2&#45;&gt;Node14</title>
<path fill="none" stroke="midnightblue" d="M331.151,-76.8732C353.795,-61.4256 386.539,-41.1311 418,-29 428.02,-25.1364 438.958,-22.0136 449.715,-19.5035"/>
<polygon fill="midnightblue" stroke="midnightblue" points="328.917,-74.1633 322.694,-82.7382 332.906,-79.9154 328.917,-74.1633"/>
</g>
<!-- Node4 -->
<g id="node4" class="node"><title>Node4</title>
<g id="a_node4"><a xlink:href="../../d5/dcb/classengine_1_1conditions_1_1_button_press_condition.html#ac645ef1c30b99ff755128decd0e36f4d" target="_top" xlink:title="engine.conditions.Button\lPressCondition.respondToFrame\lElapsed">
<polygon fill="white" stroke="black" points="654,-178.5 654,-219.5 824,-219.5 824,-178.5 654,-178.5"/>
<text text-anchor="start" x="662" y="-207.5" font-family="Helvetica,sans-Serif" font-size="10.00">engine.conditions.Button</text>
<text text-anchor="start" x="662" y="-196.5" font-family="Helvetica,sans-Serif" font-size="10.00">PressCondition.respondToFrame</text>
<text text-anchor="middle" x="739" y="-185.5" font-family="Helvetica,sans-Serif" font-size="10.00">Elapsed</text>
</a>
</g>
</g>
<!-- Node3&#45;&gt;Node4 -->
<g id="edge3" class="edge"><title>Node3&#45;&gt;Node4</title>
<path fill="none" stroke="midnightblue" d="M605.555,-196.044C621.482,-196.399 637.979,-196.767 653.699,-197.118"/>
<polygon fill="midnightblue" stroke="midnightblue" points="605.261,-192.536 595.186,-195.812 605.105,-199.535 605.261,-192.536"/>
</g>
<!-- Node6 -->
<g id="node6" class="node"><title>Node6</title>
<g id="a_node6"><a xlink:href="../../d5/df0/classengine_1_1conditions_1_1_button_release_condition.html#a2c544569a8e298732c41318cdf4ce6c2" target="_top" xlink:title="engine.conditions.Button\lReleaseCondition.respondToFrame\lElapsed">
<polygon fill="white" stroke="black" points="649,-118.5 649,-159.5 829,-159.5 829,-118.5 649,-118.5"/>
<text text-anchor="start" x="657" y="-147.5" font-family="Helvetica,sans-Serif" font-size="10.00">engine.conditions.Button</text>
<text text-anchor="start" x="657" y="-136.5" font-family="Helvetica,sans-Serif" font-size="10.00">ReleaseCondition.respondToFrame</text>
<text text-anchor="middle" x="739" y="-125.5" font-family="Helvetica,sans-Serif" font-size="10.00">Elapsed</text>
</a>
</g>
</g>
<!-- Node5&#45;&gt;Node6 -->
<g id="edge5" class="edge"><title>Node5&#45;&gt;Node6</title>
<path fill="none" stroke="midnightblue" d="M610.658,-140.705C623.281,-140.536 636.169,-140.364 648.665,-140.196"/>
<polygon fill="midnightblue" stroke="midnightblue" points="610.556,-137.206 600.604,-140.84 610.65,-144.206 610.556,-137.206"/>
</g>
<!-- Node9 -->
<g id="node9" class="node"><title>Node9</title>
<g id="a_node9"><a xlink:href="../../d7/d3c/classgame_player_1_1view_1_1_player_view.html#ab5225b160ab16323a5485bd1c3f62303" target="_top" xlink:title="gamePlayer.view.PlayerView.initialize">
<polygon fill="white" stroke="black" points="644,-44.5 644,-63.5 834,-63.5 834,-44.5 644,-44.5"/>
<text text-anchor="middle" x="739" y="-51.5" font-family="Helvetica,sans-Serif" font-size="10.00">gamePlayer.view.PlayerView.initialize</text>
</a>
</g>
</g>
<!-- Node8&#45;&gt;Node9 -->
<g id="edge8" class="edge"><title>Node8&#45;&gt;Node9</title>
<path fill="none" stroke="midnightblue" d="M618.077,-54C626.676,-54 635.338,-54 643.859,-54"/>
<polygon fill="midnightblue" stroke="midnightblue" points="618.023,-50.5001 608.023,-54 618.023,-57.5001 618.023,-50.5001"/>
</g>
<!-- Node10 -->
<g id="node10" class="node"><title>Node10</title>
<g id="a_node10"><a xlink:href="../../d2/dc9/classgame_player_1_1model_1_1_player_model.html#af8fd7a780ad8f9eebd18f451e188717e" target="_top" xlink:title="gamePlayer.model.PlayerModel.initializeView">
<polygon fill="white" stroke="black" points="870,-44.5 870,-63.5 1100,-63.5 1100,-44.5 870,-44.5"/>
<text text-anchor="middle" x="985" y="-51.5" font-family="Helvetica,sans-Serif" font-size="10.00">gamePlayer.model.PlayerModel.initializeView</text>
</a>
</g>
</g>
<!-- Node9&#45;&gt;Node10 -->
<g id="edge9" class="edge"><title>Node9&#45;&gt;Node10</title>
<path fill="none" stroke="midnightblue" d="M844.533,-54C852.946,-54 861.473,-54 869.949,-54"/>
<polygon fill="midnightblue" stroke="midnightblue" points="844.337,-50.5001 834.337,-54 844.337,-57.5001 844.337,-50.5001"/>
</g>
<!-- Node11 -->
<g id="node11" class="node"><title>Node11</title>
<g id="a_node11"><a xlink:href="../../d6/d99/classapplication_1_1_splash_screen.html#af35ff913e798fa504502185f76703a74" target="_top" xlink:title="application.SplashScreen.play">
<polygon fill="white" stroke="black" points="1136,-44.5 1136,-63.5 1296,-63.5 1296,-44.5 1136,-44.5"/>
<text text-anchor="middle" x="1216" y="-51.5" font-family="Helvetica,sans-Serif" font-size="10.00">application.SplashScreen.play</text>
</a>
</g>
</g>
<!-- Node10&#45;&gt;Node11 -->
<g id="edge10" class="edge"><title>Node10&#45;&gt;Node11</title>
<path fill="none" stroke="midnightblue" d="M1110.36,-54C1119.03,-54 1127.62,-54 1135.94,-54"/>
<polygon fill="midnightblue" stroke="midnightblue" points="1110.16,-50.5001 1100.16,-54 1110.16,-57.5001 1110.16,-50.5001"/>
</g>
<!-- Node12 -->
<g id="node12" class="node"><title>Node12</title>
<g id="a_node12"><a xlink:href="../../d6/d99/classapplication_1_1_splash_screen.html#abad5bc7bafefe1a4e59b0d121dc895e9" target="_top" xlink:title="application.SplashScreen.initialize\lGUIElements">
<polygon fill="white" stroke="black" points="1332.5,-39 1332.5,-69 1511.5,-69 1511.5,-39 1332.5,-39"/>
<text text-anchor="start" x="1340.5" y="-57" font-family="Helvetica,sans-Serif" font-size="10.00">application.SplashScreen.initialize</text>
<text text-anchor="middle" x="1422" y="-46" font-family="Helvetica,sans-Serif" font-size="10.00">GUIElements</text>
</a>
</g>
</g>
<!-- Node11&#45;&gt;Node12 -->
<g id="edge11" class="edge"><title>Node11&#45;&gt;Node12</title>
<path fill="none" stroke="midnightblue" d="M1306.27,-54C1314.94,-54 1323.73,-54 1332.4,-54"/>
<polygon fill="midnightblue" stroke="midnightblue" points="1306.16,-50.5001 1296.16,-54 1306.16,-57.5001 1306.16,-50.5001"/>
</g>
<!-- Node13 -->
<g id="node13" class="node"><title>Node13</title>
<g id="a_node13"><a xlink:href="../../d6/d99/classapplication_1_1_splash_screen.html#a512cfd783d4871bae304c03a9a32cba9" target="_top" xlink:title="application.SplashScreen.\lSplashScreen">
<polygon fill="white" stroke="black" points="1548,-39 1548,-69 1688,-69 1688,-39 1548,-39"/>
<text text-anchor="start" x="1556" y="-57" font-family="Helvetica,sans-Serif" font-size="10.00">application.SplashScreen.</text>
<text text-anchor="middle" x="1618" y="-46" font-family="Helvetica,sans-Serif" font-size="10.00">SplashScreen</text>
</a>
</g>
</g>
<!-- Node12&#45;&gt;Node13 -->
<g id="edge12" class="edge"><title>Node12&#45;&gt;Node13</title>
<path fill="none" stroke="midnightblue" d="M1521.98,-54C1530.68,-54 1539.36,-54 1547.74,-54"/>
<polygon fill="midnightblue" stroke="midnightblue" points="1521.77,-50.5001 1511.77,-54 1521.77,-57.5001 1521.77,-50.5001"/>
</g>
</g>
</svg>
        <g id="navigator" transform="translate(0 0)" fill="#404254">
                <rect fill="#f2f5e9" fill-opacity="0.5" stroke="#606060" stroke-width=".5" x="0" y="0" width="60" height="60"/>
                <use id="zoomplus" xlink:href="#zoomPlus" x="17" y="9" onmousedown="handleZoom(evt,'in')"/>
                <use id="zoomminus" xlink:href="#zoomMin" x="42" y="9" onmousedown="handleZoom(evt,'out')"/>
                <use id="reset" xlink:href="#resetDef" x="30" y="36" onmousedown="handleReset()"/>
                <g id="arrowUp" xlink:href="#dirArrow" transform="translate(30 24)" onmousedown="handlePan(0,-1)">
                  <use xlink:href="#rim" fill="#404040">
                        <set attributeName="fill" to="#808080" begin="arrowUp.mouseover" end="arrowUp.mouseout"/>
                  </use>
                  <path fill="none" stroke="white" stroke-width="1.5" d="M0,-3.0v7 M-2.5,-0.5L0,-3.0L2.5,-0.5"/>
                </g>
                <g id="arrowRight" xlink:href="#dirArrow" transform="rotate(90) translate(36 -43)" onmousedown="handlePan(1,0)">
                  <use xlink:href="#rim" fill="#404040">
                        <set attributeName="fill" to="#808080" begin="arrowRight.mouseover" end="arrowRight.mouseout"/>
                  </use>
                  <path fill="none" stroke="white" stroke-width="1.5" d="M0,-3.0v7 M-2.5,-0.5L0,-3.0L2.5,-0.5"/>
                </g>
                <g id="arrowDown" xlink:href="#dirArrow" transform="rotate(180) translate(-30 -48)" onmousedown="handlePan(0,1)">
                  <use xlink:href="#rim" fill="#404040">
                        <set attributeName="fill" to="#808080" begin="arrowDown.mouseover" end="arrowDown.mouseout"/>
                  </use>
                  <path fill="none" stroke="white" stroke-width="1.5" d="M0,-3.0v7 M-2.5,-0.5L0,-3.0L2.5,-0.5"/>
                </g>
                <g id="arrowLeft" xlink:href="#dirArrow" transform="rotate(270) translate(-36 17)" onmousedown="handlePan(-1,0)">
                  <use xlink:href="#rim" fill="#404040">
                        <set attributeName="fill" to="#808080" begin="arrowLeft.mouseover" end="arrowLeft.mouseout"/>
                  </use>
                  <path fill="none" stroke="white" stroke-width="1.5" d="M0,-3.0v7 M-2.5,-0.5L0,-3.0L2.5,-0.5"/>
                </g>
        </g>
        <svg viewBox="0 0 15 15" width="100%" height="30px" preserveAspectRatio="xMaxYMin meet">
         <g id="arrow_out" transform="scale(0.3 0.3)">
          <a xlink:href="classengine_1_1conditions_1_1_button_condition_manager_ae9501a9a4b3fbc32cd49920845a49bef_icgraph_org.svg" target="_base">
           <rect id="button" ry="5" rx="5" y="6" x="6" height="38" width="38"
                fill="#f2f5e9" fill-opacity="0.5" stroke="#606060" stroke-width="1.0"/>
           <path id="arrow"
             d="M 11.500037,31.436501 C 11.940474,20.09759 22.043105,11.32322 32.158766,21.979434 L 37.068811,17.246167 C 37.068811,17.246167 37.088388,32 37.088388,32 L 22.160133,31.978069 C 22.160133,31.978069 26.997745,27.140456 26.997745,27.140456 C 18.528582,18.264221 13.291696,25.230495 11.500037,31.436501 z"
             style="fill:#404040;"/>
          </a>
         </g>
        </svg>
</svg>
