<?xml version="1.0" encoding="UTF-8" standalone="no"?>
<!DOCTYPE svg PUBLIC "-//W3C//DTD SVG 1.1//EN"
 "http://www.w3.org/Graphics/SVG/1.1/DTD/svg11.dtd">
<!-- Generated by graphviz version 2.36.0 (20140111.2315)
 -->
<!-- Title: engine.conditions.ButtonConditionManager.keyPressed Pages: 1 -->
<svg width="1688pt" height="115pt"
 viewBox="0.00 0.00 1688.00 115.00" xmlns="http://www.w3.org/2000/svg" xmlns:xlink="http://www.w3.org/1999/xlink">
<g id="graph0" class="graph" transform="scale(1 1) rotate(0) translate(4 111)">
<title>engine.conditions.ButtonConditionManager.keyPressed</title>
<polygon fill="white" stroke="none" points="-4,4 -4,-111 1684,-111 1684,4 -4,4"/>
<!-- Node1 -->
<g id="node1" class="node"><title>Node1</title>
<polygon fill="#bfbfbf" stroke="black" points="0.5,-33 0.5,-63 161.5,-63 161.5,-33 0.5,-33"/>
<text text-anchor="start" x="8.5" y="-51" font-family="Helvetica,sans-Serif" font-size="10.00">engine.conditions.Button</text>
<text text-anchor="middle" x="81" y="-40" font-family="Helvetica,sans-Serif" font-size="10.00">ConditionManager.keyPressed</text>
</g>
<!-- Node2 -->
<g id="node2" class="node"><title>Node2</title>
<g id="a_node2"><a xlink:href="../../d9/d10/classengine_1_1conditions_1_1_button_condition_manager.html#af8a4f0078c3bd2347bb067ea1ca6f789" target="_top" xlink:title="engine.conditions.Button\lConditionManager.beginListening\lToScene">
<polygon fill="white" stroke="black" points="198.5,-27.5 198.5,-68.5 373.5,-68.5 373.5,-27.5 198.5,-27.5"/>
<text text-anchor="start" x="206.5" y="-56.5" font-family="Helvetica,sans-Serif" font-size="10.00">engine.conditions.Button</text>
<text text-anchor="start" x="206.5" y="-45.5" font-family="Helvetica,sans-Serif" font-size="10.00">ConditionManager.beginListening</text>
<text text-anchor="middle" x="286" y="-34.5" font-family="Helvetica,sans-Serif" font-size="10.00">ToScene</text>
</a>
</g>
</g>
<!-- Node1&#45;&gt;Node2 -->
<g id="edge1" class="edge"><title>Node1&#45;&gt;Node2</title>
<path fill="none" stroke="midnightblue" d="M171.856,-48C180.61,-48 189.482,-48 198.206,-48"/>
<polygon fill="midnightblue" stroke="midnightblue" points="171.648,-44.5001 161.648,-48 171.648,-51.5001 171.648,-44.5001"/>
</g>
<!-- Node3 -->
<g id="node3" class="node"><title>Node3</title>
<g id="a_node3"><a xlink:href="../../d7/d3c/classgame_player_1_1view_1_1_player_view.html#a1819e3a1d44b1db95bdf3a4bc6df7ebc" target="_top" xlink:title="gamePlayer.view.PlayerView.initialize\lGUIComponents">
<polygon fill="white" stroke="black" points="410,-77 410,-107 600,-107 600,-77 410,-77"/>
<text text-anchor="start" x="418" y="-95" font-family="Helvetica,sans-Serif" font-size="10.00">gamePlayer.view.PlayerView.initialize</text>
<text text-anchor="middle" x="505" y="-84" font-family="Helvetica,sans-Serif" font-size="10.00">GUIComponents</text>
</a>
</g>
</g>
<!-- Node2&#45;&gt;Node3 -->
<g id="edge2" class="edge"><title>Node2&#45;&gt;Node3</title>
<path fill="none" stroke="midnightblue" d="M383.828,-67.6333C399.331,-70.7768 415.156,-73.9856 430.017,-76.9988"/>
<polygon fill="midnightblue" stroke="midnightblue" points="384.196,-64.1367 373.7,-65.5797 382.805,-70.9971 384.196,-64.1367"/>
</g>
<!-- Node9 -->
<g id="node9" class="node"><title>Node9</title>
<g id="a_node9"><a xlink:href="../../d7/d00/classengine_1_1tests_1_1_main_engine_tests.html#ad1e78dcd3453ebdeb09141cba734c133" target="_top" xlink:title="engine.tests.MainEngineTests.start">
<polygon fill="white" stroke="black" points="413.5,-38.5 413.5,-57.5 596.5,-57.5 596.5,-38.5 413.5,-38.5"/>
<text text-anchor="middle" x="505" y="-45.5" font-family="Helvetica,sans-Serif" font-size="10.00">engine.tests.MainEngineTests.start</text>
</a>
</g>
</g>
<!-- Node2&#45;&gt;Node9 -->
<g id="edge8" class="edge"><title>Node2&#45;&gt;Node9</title>
<path fill="none" stroke="midnightblue" d="M383.817,-48C393.582,-48 403.475,-48 413.175,-48"/>
<polygon fill="midnightblue" stroke="midnightblue" points="383.7,-44.5001 373.7,-48 383.7,-51.5001 383.7,-44.5001"/>
</g>
<!-- Node10 -->
<g id="node10" class="node"><title>Node10</title>
<g id="a_node10"><a xlink:href="../../dc/d21/classgames_1_1_mario_game_test.html#a8b7c287ffdfcacefeb373e7430a608c8" target="_top" xlink:title="games.MarioGameTest.start">
<polygon fill="white" stroke="black" points="429,-0.5 429,-19.5 581,-19.5 581,-0.5 429,-0.5"/>
<text text-anchor="middle" x="505" y="-7.5" font-family="Helvetica,sans-Serif" font-size="10.00">games.MarioGameTest.start</text>
</a>
</g>
</g>
<!-- Node2&#45;&gt;Node10 -->
<g id="edge9" class="edge"><title>Node2&#45;&gt;Node10</title>
<path fill="none" stroke="midnightblue" d="M383.678,-31.0702C406.285,-27.1113 429.586,-23.031 449.59,-19.528"/>
<polygon fill="midnightblue" stroke="midnightblue" points="382.946,-27.645 373.7,-32.8176 384.154,-34.5401 382.946,-27.645"/>
</g>
<!-- Node4 -->
<g id="node4" class="node"><title>Node4</title>
<g id="a_node4"><a xlink:href="../../d7/d3c/classgame_player_1_1view_1_1_player_view.html#ab5225b160ab16323a5485bd1c3f62303" target="_top" xlink:title="gamePlayer.view.PlayerView.initialize">
<polygon fill="white" stroke="black" points="636,-82.5 636,-101.5 826,-101.5 826,-82.5 636,-82.5"/>
<text text-anchor="middle" x="731" y="-89.5" font-family="Helvetica,sans-Serif" font-size="10.00">gamePlayer.view.PlayerView.initialize</text>
</a>
</g>
</g>
<!-- Node3&#45;&gt;Node4 -->
<g id="edge3" class="edge"><title>Node3&#45;&gt;Node4</title>
<path fill="none" stroke="midnightblue" d="M610.077,-92C618.676,-92 627.338,-92 635.859,-92"/>
<polygon fill="midnightblue" stroke="midnightblue" points="610.023,-88.5001 600.023,-92 610.023,-95.5001 610.023,-88.5001"/>
</g>
<!-- Node5 -->
<g id="node5" class="node"><title>Node5</title>
<g id="a_node5"><a xlink:href="../../d2/dc9/classgame_player_1_1model_1_1_player_model.html#af8fd7a780ad8f9eebd18f451e188717e" target="_top" xlink:title="gamePlayer.model.PlayerModel.initializeView">
<polygon fill="white" stroke="black" points="862,-82.5 862,-101.5 1092,-101.5 1092,-82.5 862,-82.5"/>
<text text-anchor="middle" x="977" y="-89.5" font-family="Helvetica,sans-Serif" font-size="10.00">gamePlayer.model.PlayerModel.initializeView</text>
</a>
</g>
</g>
<!-- Node4&#45;&gt;Node5 -->
<g id="edge4" class="edge"><title>Node4&#45;&gt;Node5</title>
<path fill="none" stroke="midnightblue" d="M836.533,-92C844.946,-92 853.473,-92 861.949,-92"/>
<polygon fill="midnightblue" stroke="midnightblue" points="836.337,-88.5001 826.337,-92 836.337,-95.5001 836.337,-88.5001"/>
</g>
<!-- Node6 -->
<g id="node6" class="node"><title>Node6</title>
<g id="a_node6"><a xlink:href="../../d6/d99/classapplication_1_1_splash_screen.html#af35ff913e798fa504502185f76703a74" target="_top" xlink:title="application.SplashScreen.play">
<polygon fill="white" stroke="black" points="1128,-82.5 1128,-101.5 1288,-101.5 1288,-82.5 1128,-82.5"/>
<text text-anchor="middle" x="1208" y="-89.5" font-family="Helvetica,sans-Serif" font-size="10.00">application.SplashScreen.play</text>
</a>
</g>
</g>
<!-- Node5&#45;&gt;Node6 -->
<g id="edge5" class="edge"><title>Node5&#45;&gt;Node6</title>
<path fill="none" stroke="midnightblue" d="M1102.36,-92C1111.03,-92 1119.62,-92 1127.94,-92"/>
<polygon fill="midnightblue" stroke="midnightblue" points="1102.16,-88.5001 1092.16,-92 1102.16,-95.5001 1102.16,-88.5001"/>
</g>
<!-- Node7 -->
<g id="node7" class="node"><title>Node7</title>
<g id="a_node7"><a xlink:href="../../d6/d99/classapplication_1_1_splash_screen.html#abad5bc7bafefe1a4e59b0d121dc895e9" target="_top" xlink:title="application.SplashScreen.initialize\lGUIElements">
<polygon fill="white" stroke="black" points="1324.5,-77 1324.5,-107 1503.5,-107 1503.5,-77 1324.5,-77"/>
<text text-anchor="start" x="1332.5" y="-95" font-family="Helvetica,sans-Serif" font-size="10.00">application.SplashScreen.initialize</text>
<text text-anchor="middle" x="1414" y="-84" font-family="Helvetica,sans-Serif" font-size="10.00">GUIElements</text>
</a>
</g>
</g>
<!-- Node6&#45;&gt;Node7 -->
<g id="edge6" class="edge"><title>Node6&#45;&gt;Node7</title>
<path fill="none" stroke="midnightblue" d="M1298.27,-92C1306.94,-92 1315.73,-92 1324.4,-92"/>
<polygon fill="midnightblue" stroke="midnightblue" points="1298.16,-88.5001 1288.16,-92 1298.16,-95.5001 1298.16,-88.5001"/>
</g>
<!-- Node8 -->
<g id="node8" class="node"><title>Node8</title>
<g id="a_node8"><a xlink:href="../../d6/d99/classapplication_1_1_splash_screen.html#a512cfd783d4871bae304c03a9a32cba9" target="_top" xlink:title="application.SplashScreen.\lSplashScreen">
<polygon fill="white" stroke="black" points="1540,-77 1540,-107 1680,-107 1680,-77 1540,-77"/>
<text text-anchor="start" x="1548" y="-95" font-family="Helvetica,sans-Serif" font-size="10.00">application.SplashScreen.</text>
<text text-anchor="middle" x="1610" y="-84" font-family="Helvetica,sans-Serif" font-size="10.00">SplashScreen</text>
</a>
</g>
</g>
<!-- Node7&#45;&gt;Node8 -->
<g id="edge7" class="edge"><title>Node7&#45;&gt;Node8</title>
<path fill="none" stroke="midnightblue" d="M1513.98,-92C1522.68,-92 1531.36,-92 1539.74,-92"/>
<polygon fill="midnightblue" stroke="midnightblue" points="1513.77,-88.5001 1503.77,-92 1513.77,-95.5001 1513.77,-88.5001"/>
</g>
</g>
</svg>
