<?xml version="1.0" encoding="UTF-8" standalone="no"?>
<!DOCTYPE svg PUBLIC "-//W3C//DTD SVG 1.1//EN"
 "http://www.w3.org/Graphics/SVG/1.1/DTD/svg11.dtd">
<!-- Generated by graphviz version 2.36.0 (20140111.2315)
 -->
<!-- Title: engine.conditions.ButtonConditionManager.getInstance Pages: 1 -->
<svg width="1476pt" height="192pt"
 viewBox="0.00 0.00 1476.00 192.00" xmlns="http://www.w3.org/2000/svg" xmlns:xlink="http://www.w3.org/1999/xlink">
<g id="graph0" class="graph" transform="scale(1 1) rotate(0) translate(4 188)">
<title>engine.conditions.ButtonConditionManager.getInstance</title>
<polygon fill="white" stroke="none" points="-4,4 -4,-188 1472,-188 1472,4 -4,4"/>
<!-- Node1 -->
<g id="node1" class="node"><title>Node1</title>
<polygon fill="#bfbfbf" stroke="black" points="0,-63 0,-93 162,-93 162,-63 0,-63"/>
<text text-anchor="start" x="8" y="-81" font-family="Helvetica,sans-Serif" font-size="10.00">engine.conditions.Button</text>
<text text-anchor="middle" x="81" y="-70" font-family="Helvetica,sans-Serif" font-size="10.00">ConditionManager.getInstance</text>
</g>
<!-- Node2 -->
<g id="node2" class="node"><title>Node2</title>
<g id="a_node2"><a xlink:href="../../d5/df0/classengine_1_1conditions_1_1_button_release_condition.html#a87b7f59ff63237d1382841cdc50bd8d0" target="_top" xlink:title="engine.conditions.Button\lReleaseCondition.executeActions">
<polygon fill="white" stroke="black" points="205.5,-142 205.5,-172 380.5,-172 380.5,-142 205.5,-142"/>
<text text-anchor="start" x="213.5" y="-160" font-family="Helvetica,sans-Serif" font-size="10.00">engine.conditions.Button</text>
<text text-anchor="middle" x="293" y="-149" font-family="Helvetica,sans-Serif" font-size="10.00">ReleaseCondition.executeActions</text>
</a>
</g>
</g>
<!-- Node1&#45;&gt;Node2 -->
<g id="edge1" class="edge"><title>Node1&#45;&gt;Node2</title>
<path fill="none" stroke="midnightblue" d="M124.72,-97.1409C146.47,-106.605 173.441,-117.915 198,-127 212.138,-132.23 227.664,-137.409 241.953,-141.955"/>
<polygon fill="midnightblue" stroke="midnightblue" points="125.996,-93.8789 115.432,-93.0737 123.189,-100.291 125.996,-93.8789"/>
</g>
<!-- Node4 -->
<g id="node4" class="node"><title>Node4</title>
<g id="a_node4"><a xlink:href="../../d5/dcb/classengine_1_1conditions_1_1_button_press_condition.html#ad6cac85b5b1e5062062d62505ab1555a" target="_top" xlink:title="engine.conditions.Button\lPressCondition.executeActions">
<polygon fill="white" stroke="black" points="211,-88 211,-118 375,-118 375,-88 211,-88"/>
<text text-anchor="start" x="219" y="-106" font-family="Helvetica,sans-Serif" font-size="10.00">engine.conditions.Button</text>
<text text-anchor="middle" x="293" y="-95" font-family="Helvetica,sans-Serif" font-size="10.00">PressCondition.executeActions</text>
</a>
</g>
</g>
<!-- Node1&#45;&gt;Node4 -->
<g id="edge3" class="edge"><title>Node1&#45;&gt;Node4</title>
<path fill="none" stroke="midnightblue" d="M172.421,-88.7644C185.149,-90.2796 198.168,-91.8295 210.71,-93.3227"/>
<polygon fill="midnightblue" stroke="midnightblue" points="172.635,-85.2652 162.291,-87.5584 171.807,-92.2161 172.635,-85.2652"/>
</g>
<!-- Node6 -->
<g id="node6" class="node"><title>Node6</title>
<g id="a_node6"><a xlink:href="../../d7/d3c/classgame_player_1_1view_1_1_player_view.html#a1819e3a1d44b1db95bdf3a4bc6df7ebc" target="_top" xlink:title="gamePlayer.view.PlayerView.initialize\lGUIComponents">
<polygon fill="white" stroke="black" points="198,-39 198,-69 388,-69 388,-39 198,-39"/>
<text text-anchor="start" x="206" y="-57" font-family="Helvetica,sans-Serif" font-size="10.00">gamePlayer.view.PlayerView.initialize</text>
<text text-anchor="middle" x="293" y="-46" font-family="Helvetica,sans-Serif" font-size="10.00">GUIComponents</text>
</a>
</g>
</g>
<!-- Node1&#45;&gt;Node6 -->
<g id="edge5" class="edge"><title>Node1&#45;&gt;Node6</title>
<path fill="none" stroke="midnightblue" d="M172.424,-67.6659C180.794,-66.7092 189.291,-65.7382 197.695,-64.7777"/>
<polygon fill="midnightblue" stroke="midnightblue" points="171.829,-64.211 162.291,-68.8239 172.624,-71.1657 171.829,-64.211"/>
</g>
<!-- Node12 -->
<g id="node12" class="node"><title>Node12</title>
<g id="a_node12"><a xlink:href="../../d7/d00/classengine_1_1tests_1_1_main_engine_tests.html#ad1e78dcd3453ebdeb09141cba734c133" target="_top" xlink:title="engine.tests.MainEngineTests.start">
<polygon fill="white" stroke="black" points="201.5,-0.5 201.5,-19.5 384.5,-19.5 384.5,-0.5 201.5,-0.5"/>
<text text-anchor="middle" x="293" y="-7.5" font-family="Helvetica,sans-Serif" font-size="10.00">engine.tests.MainEngineTests.start</text>
</a>
</g>
</g>
<!-- Node1&#45;&gt;Node12 -->
<g id="edge11" class="edge"><title>Node1&#45;&gt;Node12</title>
<path fill="none" stroke="midnightblue" d="M122.221,-58.659C144.211,-48.6884 172.162,-36.9801 198,-29 209.931,-25.3151 222.939,-22.1585 235.37,-19.537"/>
<polygon fill="midnightblue" stroke="midnightblue" points="120.501,-55.5973 112.876,-62.9535 123.424,-61.9578 120.501,-55.5973"/>
</g>
<!-- Node3 -->
<g id="node3" class="node"><title>Node3</title>
<g id="a_node3"><a xlink:href="../../d5/df0/classengine_1_1conditions_1_1_button_release_condition.html#a2c544569a8e298732c41318cdf4ce6c2" target="_top" xlink:title="engine.conditions.Button\lReleaseCondition.respondToFrame\lElapsed">
<polygon fill="white" stroke="black" points="429,-142.5 429,-183.5 609,-183.5 609,-142.5 429,-142.5"/>
<text text-anchor="start" x="437" y="-171.5" font-family="Helvetica,sans-Serif" font-size="10.00">engine.conditions.Button</text>
<text text-anchor="start" x="437" y="-160.5" font-family="Helvetica,sans-Serif" font-size="10.00">ReleaseCondition.respondToFrame</text>
<text text-anchor="middle" x="519" y="-149.5" font-family="Helvetica,sans-Serif" font-size="10.00">Elapsed</text>
</a>
</g>
</g>
<!-- Node2&#45;&gt;Node3 -->
<g id="edge2" class="edge"><title>Node2&#45;&gt;Node3</title>
<path fill="none" stroke="midnightblue" d="M390.658,-159.589C403.281,-159.927 416.169,-160.272 428.665,-160.607"/>
<polygon fill="midnightblue" stroke="midnightblue" points="390.694,-156.089 380.604,-159.32 390.507,-163.086 390.694,-156.089"/>
</g>
<!-- Node5 -->
<g id="node5" class="node"><title>Node5</title>
<g id="a_node5"><a xlink:href="../../d5/dcb/classengine_1_1conditions_1_1_button_press_condition.html#ac645ef1c30b99ff755128decd0e36f4d" target="_top" xlink:title="engine.conditions.Button\lPressCondition.respondToFrame\lElapsed">
<polygon fill="white" stroke="black" points="434,-82.5 434,-123.5 604,-123.5 604,-82.5 434,-82.5"/>
<text text-anchor="start" x="442" y="-111.5" font-family="Helvetica,sans-Serif" font-size="10.00">engine.conditions.Button</text>
<text text-anchor="start" x="442" y="-100.5" font-family="Helvetica,sans-Serif" font-size="10.00">PressCondition.respondToFrame</text>
<text text-anchor="middle" x="519" y="-89.5" font-family="Helvetica,sans-Serif" font-size="10.00">Elapsed</text>
</a>
</g>
</g>
<!-- Node4&#45;&gt;Node5 -->
<g id="edge4" class="edge"><title>Node4&#45;&gt;Node5</title>
<path fill="none" stroke="midnightblue" d="M385.555,-103C401.482,-103 417.979,-103 433.699,-103"/>
<polygon fill="midnightblue" stroke="midnightblue" points="385.186,-99.5001 375.186,-103 385.186,-106.5 385.186,-99.5001"/>
</g>
<!-- Node7 -->
<g id="node7" class="node"><title>Node7</title>
<g id="a_node7"><a xlink:href="../../d7/d3c/classgame_player_1_1view_1_1_player_view.html#ab5225b160ab16323a5485bd1c3f62303" target="_top" xlink:title="gamePlayer.view.PlayerView.initialize">
<polygon fill="white" stroke="black" points="424,-44.5 424,-63.5 614,-63.5 614,-44.5 424,-44.5"/>
<text text-anchor="middle" x="519" y="-51.5" font-family="Helvetica,sans-Serif" font-size="10.00">gamePlayer.view.PlayerView.initialize</text>
</a>
</g>
</g>
<!-- Node6&#45;&gt;Node7 -->
<g id="edge6" class="edge"><title>Node6&#45;&gt;Node7</title>
<path fill="none" stroke="midnightblue" d="M398.077,-54C406.676,-54 415.338,-54 423.859,-54"/>
<polygon fill="midnightblue" stroke="midnightblue" points="398.023,-50.5001 388.023,-54 398.023,-57.5001 398.023,-50.5001"/>
</g>
<!-- Node8 -->
<g id="node8" class="node"><title>Node8</title>
<g id="a_node8"><a xlink:href="../../d2/dc9/classgame_player_1_1model_1_1_player_model.html#af8fd7a780ad8f9eebd18f451e188717e" target="_top" xlink:title="gamePlayer.model.PlayerModel.initializeView">
<polygon fill="white" stroke="black" points="650,-44.5 650,-63.5 880,-63.5 880,-44.5 650,-44.5"/>
<text text-anchor="middle" x="765" y="-51.5" font-family="Helvetica,sans-Serif" font-size="10.00">gamePlayer.model.PlayerModel.initializeView</text>
</a>
</g>
</g>
<!-- Node7&#45;&gt;Node8 -->
<g id="edge7" class="edge"><title>Node7&#45;&gt;Node8</title>
<path fill="none" stroke="midnightblue" d="M624.533,-54C632.946,-54 641.473,-54 649.949,-54"/>
<polygon fill="midnightblue" stroke="midnightblue" points="624.337,-50.5001 614.337,-54 624.337,-57.5001 624.337,-50.5001"/>
</g>
<!-- Node9 -->
<g id="node9" class="node"><title>Node9</title>
<g id="a_node9"><a xlink:href="../../d6/d99/classapplication_1_1_splash_screen.html#af35ff913e798fa504502185f76703a74" target="_top" xlink:title="application.SplashScreen.play">
<polygon fill="white" stroke="black" points="916,-44.5 916,-63.5 1076,-63.5 1076,-44.5 916,-44.5"/>
<text text-anchor="middle" x="996" y="-51.5" font-family="Helvetica,sans-Serif" font-size="10.00">application.SplashScreen.play</text>
</a>
</g>
</g>
<!-- Node8&#45;&gt;Node9 -->
<g id="edge8" class="edge"><title>Node8&#45;&gt;Node9</title>
<path fill="none" stroke="midnightblue" d="M890.363,-54C899.031,-54 907.623,-54 915.938,-54"/>
<polygon fill="midnightblue" stroke="midnightblue" points="890.165,-50.5001 880.165,-54 890.165,-57.5001 890.165,-50.5001"/>
</g>
<!-- Node10 -->
<g id="node10" class="node"><title>Node10</title>
<g id="a_node10"><a xlink:href="../../d6/d99/classapplication_1_1_splash_screen.html#abad5bc7bafefe1a4e59b0d121dc895e9" target="_top" xlink:title="application.SplashScreen.initialize\lGUIElements">
<polygon fill="white" stroke="black" points="1112.5,-39 1112.5,-69 1291.5,-69 1291.5,-39 1112.5,-39"/>
<text text-anchor="start" x="1120.5" y="-57" font-family="Helvetica,sans-Serif" font-size="10.00">application.SplashScreen.initialize</text>
<text text-anchor="middle" x="1202" y="-46" font-family="Helvetica,sans-Serif" font-size="10.00">GUIElements</text>
</a>
</g>
</g>
<!-- Node9&#45;&gt;Node10 -->
<g id="edge9" class="edge"><title>Node9&#45;&gt;Node10</title>
<path fill="none" stroke="midnightblue" d="M1086.27,-54C1094.94,-54 1103.73,-54 1112.4,-54"/>
<polygon fill="midnightblue" stroke="midnightblue" points="1086.16,-50.5001 1076.16,-54 1086.16,-57.5001 1086.16,-50.5001"/>
</g>
<!-- Node11 -->
<g id="node11" class="node"><title>Node11</title>
<g id="a_node11"><a xlink:href="../../d6/d99/classapplication_1_1_splash_screen.html#a512cfd783d4871bae304c03a9a32cba9" target="_top" xlink:title="application.SplashScreen.\lSplashScreen">
<polygon fill="white" stroke="black" points="1328,-39 1328,-69 1468,-69 1468,-39 1328,-39"/>
<text text-anchor="start" x="1336" y="-57" font-family="Helvetica,sans-Serif" font-size="10.00">application.SplashScreen.</text>
<text text-anchor="middle" x="1398" y="-46" font-family="Helvetica,sans-Serif" font-size="10.00">SplashScreen</text>
</a>
</g>
</g>
<!-- Node10&#45;&gt;Node11 -->
<g id="edge10" class="edge"><title>Node10&#45;&gt;Node11</title>
<path fill="none" stroke="midnightblue" d="M1301.98,-54C1310.68,-54 1319.36,-54 1327.74,-54"/>
<polygon fill="midnightblue" stroke="midnightblue" points="1301.77,-50.5001 1291.77,-54 1301.77,-57.5001 1301.77,-50.5001"/>
</g>
</g>
</svg>
