<?xml version="1.0" encoding="UTF-8" standalone="no"?>
<!DOCTYPE svg PUBLIC "-//W3C//DTD SVG 1.1//EN"
 "http://www.w3.org/Graphics/SVG/1.1/DTD/svg11.dtd">
<!-- Generated by graphviz version 2.36.0 (20140111.2315)
 -->
<!-- Title: engine.conditions.ButtonConditionManager.keyReleased Pages: 1 -->
<svg width="1692pt" height="77pt"
 viewBox="0.00 0.00 1692.00 77.00" xmlns="http://www.w3.org/2000/svg" xmlns:xlink="http://www.w3.org/1999/xlink">
<g id="graph0" class="graph" transform="scale(1 1) rotate(0) translate(4 73)">
<title>engine.conditions.ButtonConditionManager.keyReleased</title>
<polygon fill="white" stroke="none" points="-4,4 -4,-73 1688,-73 1688,4 -4,4"/>
<!-- Node1 -->
<g id="node1" class="node"><title>Node1</title>
<polygon fill="#bfbfbf" stroke="black" points="0.5,-17 0.5,-47 165.5,-47 165.5,-17 0.5,-17"/>
<text text-anchor="start" x="8.5" y="-35" font-family="Helvetica,sans-Serif" font-size="10.00">engine.conditions.Button</text>
<text text-anchor="middle" x="83" y="-24" font-family="Helvetica,sans-Serif" font-size="10.00">ConditionManager.keyReleased</text>
</g>
<!-- Node2 -->
<g id="node2" class="node"><title>Node2</title>
<g id="a_node2"><a xlink:href="../../d9/d10/classengine_1_1conditions_1_1_button_condition_manager.html#af8a4f0078c3bd2347bb067ea1ca6f789" target="_top" xlink:title="engine.conditions.Button\lConditionManager.beginListening\lToScene">
<polygon fill="white" stroke="black" points="202.5,-11.5 202.5,-52.5 377.5,-52.5 377.5,-11.5 202.5,-11.5"/>
<text text-anchor="start" x="210.5" y="-40.5" font-family="Helvetica,sans-Serif" font-size="10.00">engine.conditions.Button</text>
<text text-anchor="start" x="210.5" y="-29.5" font-family="Helvetica,sans-Serif" font-size="10.00">ConditionManager.beginListening</text>
<text text-anchor="middle" x="290" y="-18.5" font-family="Helvetica,sans-Serif" font-size="10.00">ToScene</text>
</a>
</g>
</g>
<!-- Node1&#45;&gt;Node2 -->
<g id="edge1" class="edge"><title>Node1&#45;&gt;Node2</title>
<path fill="none" stroke="midnightblue" d="M175.865,-32C184.655,-32 193.55,-32 202.289,-32"/>
<polygon fill="midnightblue" stroke="midnightblue" points="175.61,-28.5001 165.61,-32 175.61,-35.5001 175.61,-28.5001"/>
</g>
<!-- Node3 -->
<g id="node3" class="node"><title>Node3</title>
<g id="a_node3"><a xlink:href="../../d7/d3c/classgame_player_1_1view_1_1_player_view.html#a1819e3a1d44b1db95bdf3a4bc6df7ebc" target="_top" xlink:title="gamePlayer.view.PlayerView.initialize\lGUIComponents">
<polygon fill="white" stroke="black" points="414,-39 414,-69 604,-69 604,-39 414,-39"/>
<text text-anchor="start" x="422" y="-57" font-family="Helvetica,sans-Serif" font-size="10.00">gamePlayer.view.PlayerView.initialize</text>
<text text-anchor="middle" x="509" y="-46" font-family="Helvetica,sans-Serif" font-size="10.00">GUIComponents</text>
</a>
</g>
</g>
<!-- Node2&#45;&gt;Node3 -->
<g id="edge2" class="edge"><title>Node2&#45;&gt;Node3</title>
<path fill="none" stroke="midnightblue" d="M387.833,-41.8172C396.517,-42.6976 405.301,-43.5881 413.96,-44.466"/>
<polygon fill="midnightblue" stroke="midnightblue" points="388.002,-38.3164 377.7,-40.7898 387.296,-45.2807 388.002,-38.3164"/>
</g>
<!-- Node9 -->
<g id="node9" class="node"><title>Node9</title>
<g id="a_node9"><a xlink:href="../../d7/d00/classengine_1_1tests_1_1_main_engine_tests.html#ad1e78dcd3453ebdeb09141cba734c133" target="_top" xlink:title="engine.tests.MainEngineTests.start">
<polygon fill="white" stroke="black" points="417.5,-0.5 417.5,-19.5 600.5,-19.5 600.5,-0.5 417.5,-0.5"/>
<text text-anchor="middle" x="509" y="-7.5" font-family="Helvetica,sans-Serif" font-size="10.00">engine.tests.MainEngineTests.start</text>
</a>
</g>
</g>
<!-- Node2&#45;&gt;Node9 -->
<g id="edge8" class="edge"><title>Node2&#45;&gt;Node9</title>
<path fill="none" stroke="midnightblue" d="M387.817,-22.1845C397.582,-21.1945 407.475,-20.1915 417.175,-19.2081"/>
<polygon fill="midnightblue" stroke="midnightblue" points="387.296,-18.7193 377.7,-23.2102 388.002,-25.6836 387.296,-18.7193"/>
</g>
<!-- Node4 -->
<g id="node4" class="node"><title>Node4</title>
<g id="a_node4"><a xlink:href="../../d7/d3c/classgame_player_1_1view_1_1_player_view.html#ab5225b160ab16323a5485bd1c3f62303" target="_top" xlink:title="gamePlayer.view.PlayerView.initialize">
<polygon fill="white" stroke="black" points="640,-44.5 640,-63.5 830,-63.5 830,-44.5 640,-44.5"/>
<text text-anchor="middle" x="735" y="-51.5" font-family="Helvetica,sans-Serif" font-size="10.00">gamePlayer.view.PlayerView.initialize</text>
</a>
</g>
</g>
<!-- Node3&#45;&gt;Node4 -->
<g id="edge3" class="edge"><title>Node3&#45;&gt;Node4</title>
<path fill="none" stroke="midnightblue" d="M614.077,-54C622.676,-54 631.338,-54 639.859,-54"/>
<polygon fill="midnightblue" stroke="midnightblue" points="614.023,-50.5001 604.023,-54 614.023,-57.5001 614.023,-50.5001"/>
</g>
<!-- Node5 -->
<g id="node5" class="node"><title>Node5</title>
<g id="a_node5"><a xlink:href="../../d2/dc9/classgame_player_1_1model_1_1_player_model.html#af8fd7a780ad8f9eebd18f451e188717e" target="_top" xlink:title="gamePlayer.model.PlayerModel.initializeView">
<polygon fill="white" stroke="black" points="866,-44.5 866,-63.5 1096,-63.5 1096,-44.5 866,-44.5"/>
<text text-anchor="middle" x="981" y="-51.5" font-family="Helvetica,sans-Serif" font-size="10.00">gamePlayer.model.PlayerModel.initializeView</text>
</a>
</g>
</g>
<!-- Node4&#45;&gt;Node5 -->
<g id="edge4" class="edge"><title>Node4&#45;&gt;Node5</title>
<path fill="none" stroke="midnightblue" d="M840.533,-54C848.946,-54 857.473,-54 865.949,-54"/>
<polygon fill="midnightblue" stroke="midnightblue" points="840.337,-50.5001 830.337,-54 840.337,-57.5001 840.337,-50.5001"/>
</g>
<!-- Node6 -->
<g id="node6" class="node"><title>Node6</title>
<g id="a_node6"><a xlink:href="../../d6/d99/classapplication_1_1_splash_screen.html#af35ff913e798fa504502185f76703a74" target="_top" xlink:title="application.SplashScreen.play">
<polygon fill="white" stroke="black" points="1132,-44.5 1132,-63.5 1292,-63.5 1292,-44.5 1132,-44.5"/>
<text text-anchor="middle" x="1212" y="-51.5" font-family="Helvetica,sans-Serif" font-size="10.00">application.SplashScreen.play</text>
</a>
</g>
</g>
<!-- Node5&#45;&gt;Node6 -->
<g id="edge5" class="edge"><title>Node5&#45;&gt;Node6</title>
<path fill="none" stroke="midnightblue" d="M1106.36,-54C1115.03,-54 1123.62,-54 1131.94,-54"/>
<polygon fill="midnightblue" stroke="midnightblue" points="1106.16,-50.5001 1096.16,-54 1106.16,-57.5001 1106.16,-50.5001"/>
</g>
<!-- Node7 -->
<g id="node7" class="node"><title>Node7</title>
<g id="a_node7"><a xlink:href="../../d6/d99/classapplication_1_1_splash_screen.html#abad5bc7bafefe1a4e59b0d121dc895e9" target="_top" xlink:title="application.SplashScreen.initialize\lGUIElements">
<polygon fill="white" stroke="black" points="1328.5,-39 1328.5,-69 1507.5,-69 1507.5,-39 1328.5,-39"/>
<text text-anchor="start" x="1336.5" y="-57" font-family="Helvetica,sans-Serif" font-size="10.00">application.SplashScreen.initialize</text>
<text text-anchor="middle" x="1418" y="-46" font-family="Helvetica,sans-Serif" font-size="10.00">GUIElements</text>
</a>
</g>
</g>
<!-- Node6&#45;&gt;Node7 -->
<g id="edge6" class="edge"><title>Node6&#45;&gt;Node7</title>
<path fill="none" stroke="midnightblue" d="M1302.27,-54C1310.94,-54 1319.73,-54 1328.4,-54"/>
<polygon fill="midnightblue" stroke="midnightblue" points="1302.16,-50.5001 1292.16,-54 1302.16,-57.5001 1302.16,-50.5001"/>
</g>
<!-- Node8 -->
<g id="node8" class="node"><title>Node8</title>
<g id="a_node8"><a xlink:href="../../d6/d99/classapplication_1_1_splash_screen.html#a512cfd783d4871bae304c03a9a32cba9" target="_top" xlink:title="application.SplashScreen.\lSplashScreen">
<polygon fill="white" stroke="black" points="1544,-39 1544,-69 1684,-69 1684,-39 1544,-39"/>
<text text-anchor="start" x="1552" y="-57" font-family="Helvetica,sans-Serif" font-size="10.00">application.SplashScreen.</text>
<text text-anchor="middle" x="1614" y="-46" font-family="Helvetica,sans-Serif" font-size="10.00">SplashScreen</text>
</a>
</g>
</g>
<!-- Node7&#45;&gt;Node8 -->
<g id="edge7" class="edge"><title>Node7&#45;&gt;Node8</title>
<path fill="none" stroke="midnightblue" d="M1517.98,-54C1526.68,-54 1535.36,-54 1543.74,-54"/>
<polygon fill="midnightblue" stroke="midnightblue" points="1517.77,-50.5001 1507.77,-54 1517.77,-57.5001 1517.77,-50.5001"/>
</g>
</g>
</svg>
