<?xml version="1.0" encoding="UTF-8" standalone="no"?>
<!DOCTYPE svg PUBLIC "-//W3C//DTD SVG 1.1//EN"
 "http://www.w3.org/Graphics/SVG/1.1/DTD/svg11.dtd">
<!-- Generated by graphviz version 2.36.0 (20140111.2315)
 -->
<!-- Title: engine.conditions.ButtonConditionManager.keyPressed Pages: 1 -->
<!--zoomable 120 -->
<svg id="main" version="1.1" xmlns="http://www.w3.org/2000/svg" xmlns:xlink="http://www.w3.org/1999/xlink" xml:space="preserve" onload="init(evt)">
<style type="text/css"><![CDATA[
.edge:hover path { stroke: red; }
.edge:hover polygon { stroke: red; fill: red; }
]]></style>
<script type="text/javascript"><![CDATA[
var edges = document.getElementsByTagName('g');
if (edges && edges.length) {
  for (var i=0;i<edges.length;i++) {
    if (edges[i].id.substr(0,4)=='edge') {
      edges[i].setAttribute('class','edge');
    }
  }
}
]]></script>
        <defs>
                <circle id="rim" cx="0" cy="0" r="7"/>
                <circle id="rim2" cx="0" cy="0" r="3.5"/>
                <g id="zoomPlus">
                        <use xlink:href="#rim" fill="#404040">
                                <set attributeName="fill" to="#808080" begin="zoomplus.mouseover" end="zoomplus.mouseout"/>
                        </use>
                        <path d="M-4,0h8M0,-4v8" fill="none" stroke="white" stroke-width="1.5" pointer-events="none"/>
                </g>
                <g id="zoomMin">
                        <use xlink:href="#rim" fill="#404040">
                                <set attributeName="fill" to="#808080" begin="zoomminus.mouseover" end="zoomminus.mouseout"/>
                        </use>
                        <path d="M-4,0h8" fill="none" stroke="white" stroke-width="1.5" pointer-events="none"/>
                </g>
                <g id="dirArrow">
                        <path fill="none" stroke="white" stroke-width="1.5" d="M0,-3.0v7 M-2.5,-0.5L0,-3.0L2.5,-0.5"/>
                </g>
               <g id="resetDef">
                       <use xlink:href="#rim2" fill="#404040">
                               <set attributeName="fill" to="#808080" begin="reset.mouseover" end="reset.mouseout"/>
                       </use>
               </g>
        </defs>

<script type="text/javascript">
var viewWidth = 1688;
var viewHeight = 120;
var sectionId = 'dynsection-7';
</script>
<script xlink:href="../../svgpan.js"/>
<svg id="graph" class="graph">
<g id="viewport">
<title>engine.conditions.ButtonConditionManager.keyPressed</title>
<polygon fill="white" stroke="none" points="-4,4 -4,-116 1684,-116 1684,4 -4,4"/>
<!-- Node1 -->
<g id="node1" class="node"><title>Node1</title>
<polygon fill="#bfbfbf" stroke="black" points="0.5,-38 0.5,-68 161.5,-68 161.5,-38 0.5,-38"/>
<text text-anchor="start" x="8.5" y="-56" font-family="Helvetica,sans-Serif" font-size="10.00">engine.conditions.Button</text>
<text text-anchor="middle" x="81" y="-45" font-family="Helvetica,sans-Serif" font-size="10.00">ConditionManager.keyPressed</text>
</g>
<!-- Node2 -->
<g id="node2" class="node"><title>Node2</title>
<g id="a_node2"><a xlink:href="../../d9/d10/classengine_1_1conditions_1_1_button_condition_manager.html#af8a4f0078c3bd2347bb067ea1ca6f789" target="_top" xlink:title="engine.conditions.Button\lConditionManager.beginListening\lToScene">
<polygon fill="white" stroke="black" points="198.5,-32.5 198.5,-73.5 373.5,-73.5 373.5,-32.5 198.5,-32.5"/>
<text text-anchor="start" x="206.5" y="-61.5" font-family="Helvetica,sans-Serif" font-size="10.00">engine.conditions.Button</text>
<text text-anchor="start" x="206.5" y="-50.5" font-family="Helvetica,sans-Serif" font-size="10.00">ConditionManager.beginListening</text>
<text text-anchor="middle" x="286" y="-39.5" font-family="Helvetica,sans-Serif" font-size="10.00">ToScene</text>
</a>
</g>
</g>
<!-- Node1&#45;&gt;Node2 -->
<g id="edge1" class="edge"><title>Node1&#45;&gt;Node2</title>
<path fill="none" stroke="midnightblue" d="M171.856,-53C180.61,-53 189.482,-53 198.206,-53"/>
<polygon fill="midnightblue" stroke="midnightblue" points="171.648,-49.5001 161.648,-53 171.648,-56.5001 171.648,-49.5001"/>
</g>
<!-- Node3 -->
<g id="node3" class="node"><title>Node3</title>
<g id="a_node3"><a xlink:href="../../d7/d3c/classgame_player_1_1view_1_1_player_view.html#a1819e3a1d44b1db95bdf3a4bc6df7ebc" target="_top" xlink:title="gamePlayer.view.PlayerView.initialize\lGUIComponents">
<polygon fill="white" stroke="black" points="410,-82 410,-112 600,-112 600,-82 410,-82"/>
<text text-anchor="start" x="418" y="-100" font-family="Helvetica,sans-Serif" font-size="10.00">gamePlayer.view.PlayerView.initialize</text>
<text text-anchor="middle" x="505" y="-89" font-family="Helvetica,sans-Serif" font-size="10.00">GUIComponents</text>
</a>
</g>
</g>
<!-- Node2&#45;&gt;Node3 -->
<g id="edge2" class="edge"><title>Node2&#45;&gt;Node3</title>
<path fill="none" stroke="midnightblue" d="M383.828,-72.6333C399.331,-75.7768 415.156,-78.9856 430.017,-81.9988"/>
<polygon fill="midnightblue" stroke="midnightblue" points="384.196,-69.1367 373.7,-70.5797 382.805,-75.9971 384.196,-69.1367"/>
</g>
<!-- Node9 -->
<g id="node9" class="node"><title>Node9</title>
<g id="a_node9"><a xlink:href="../../d7/d00/classengine_1_1tests_1_1_main_engine_tests.html#ad1e78dcd3453ebdeb09141cba734c133" target="_top" xlink:title="engine.tests.MainEngineTests.start">
<polygon fill="white" stroke="black" points="413.5,-43.5 413.5,-62.5 596.5,-62.5 596.5,-43.5 413.5,-43.5"/>
<text text-anchor="middle" x="505" y="-50.5" font-family="Helvetica,sans-Serif" font-size="10.00">engine.tests.MainEngineTests.start</text>
</a>
</g>
</g>
<!-- Node2&#45;&gt;Node9 -->
<g id="edge8" class="edge"><title>Node2&#45;&gt;Node9</title>
<path fill="none" stroke="midnightblue" d="M383.817,-53C393.582,-53 403.475,-53 413.175,-53"/>
<polygon fill="midnightblue" stroke="midnightblue" points="383.7,-49.5001 373.7,-53 383.7,-56.5001 383.7,-49.5001"/>
</g>
<!-- Node10 -->
<g id="node10" class="node"><title>Node10</title>
<g id="a_node10"><a xlink:href="../../dc/d21/classgames_1_1_mario_game_test.html#a8b7c287ffdfcacefeb373e7430a608c8" target="_top" xlink:title="games.MarioGameTest.start">
<polygon fill="white" stroke="black" points="429,-5.5 429,-24.5 581,-24.5 581,-5.5 429,-5.5"/>
<text text-anchor="middle" x="505" y="-12.5" font-family="Helvetica,sans-Serif" font-size="10.00">games.MarioGameTest.start</text>
</a>
</g>
</g>
<!-- Node2&#45;&gt;Node10 -->
<g id="edge9" class="edge"><title>Node2&#45;&gt;Node10</title>
<path fill="none" stroke="midnightblue" d="M383.678,-36.0702C406.285,-32.1113 429.586,-28.031 449.59,-24.528"/>
<polygon fill="midnightblue" stroke="midnightblue" points="382.946,-32.645 373.7,-37.8176 384.154,-39.5401 382.946,-32.645"/>
</g>
<!-- Node4 -->
<g id="node4" class="node"><title>Node4</title>
<g id="a_node4"><a xlink:href="../../d7/d3c/classgame_player_1_1view_1_1_player_view.html#ab5225b160ab16323a5485bd1c3f62303" target="_top" xlink:title="gamePlayer.view.PlayerView.initialize">
<polygon fill="white" stroke="black" points="636,-87.5 636,-106.5 826,-106.5 826,-87.5 636,-87.5"/>
<text text-anchor="middle" x="731" y="-94.5" font-family="Helvetica,sans-Serif" font-size="10.00">gamePlayer.view.PlayerView.initialize</text>
</a>
</g>
</g>
<!-- Node3&#45;&gt;Node4 -->
<g id="edge3" class="edge"><title>Node3&#45;&gt;Node4</title>
<path fill="none" stroke="midnightblue" d="M610.077,-97C618.676,-97 627.338,-97 635.859,-97"/>
<polygon fill="midnightblue" stroke="midnightblue" points="610.023,-93.5001 600.023,-97 610.023,-100.5 610.023,-93.5001"/>
</g>
<!-- Node5 -->
<g id="node5" class="node"><title>Node5</title>
<g id="a_node5"><a xlink:href="../../d2/dc9/classgame_player_1_1model_1_1_player_model.html#af8fd7a780ad8f9eebd18f451e188717e" target="_top" xlink:title="gamePlayer.model.PlayerModel.initializeView">
<polygon fill="white" stroke="black" points="862,-87.5 862,-106.5 1092,-106.5 1092,-87.5 862,-87.5"/>
<text text-anchor="middle" x="977" y="-94.5" font-family="Helvetica,sans-Serif" font-size="10.00">gamePlayer.model.PlayerModel.initializeView</text>
</a>
</g>
</g>
<!-- Node4&#45;&gt;Node5 -->
<g id="edge4" class="edge"><title>Node4&#45;&gt;Node5</title>
<path fill="none" stroke="midnightblue" d="M836.533,-97C844.946,-97 853.473,-97 861.949,-97"/>
<polygon fill="midnightblue" stroke="midnightblue" points="836.337,-93.5001 826.337,-97 836.337,-100.5 836.337,-93.5001"/>
</g>
<!-- Node6 -->
<g id="node6" class="node"><title>Node6</title>
<g id="a_node6"><a xlink:href="../../d6/d99/classapplication_1_1_splash_screen.html#af35ff913e798fa504502185f76703a74" target="_top" xlink:title="application.SplashScreen.play">
<polygon fill="white" stroke="black" points="1128,-87.5 1128,-106.5 1288,-106.5 1288,-87.5 1128,-87.5"/>
<text text-anchor="middle" x="1208" y="-94.5" font-family="Helvetica,sans-Serif" font-size="10.00">application.SplashScreen.play</text>
</a>
</g>
</g>
<!-- Node5&#45;&gt;Node6 -->
<g id="edge5" class="edge"><title>Node5&#45;&gt;Node6</title>
<path fill="none" stroke="midnightblue" d="M1102.36,-97C1111.03,-97 1119.62,-97 1127.94,-97"/>
<polygon fill="midnightblue" stroke="midnightblue" points="1102.16,-93.5001 1092.16,-97 1102.16,-100.5 1102.16,-93.5001"/>
</g>
<!-- Node7 -->
<g id="node7" class="node"><title>Node7</title>
<g id="a_node7"><a xlink:href="../../d6/d99/classapplication_1_1_splash_screen.html#abad5bc7bafefe1a4e59b0d121dc895e9" target="_top" xlink:title="application.SplashScreen.initialize\lGUIElements">
<polygon fill="white" stroke="black" points="1324.5,-82 1324.5,-112 1503.5,-112 1503.5,-82 1324.5,-82"/>
<text text-anchor="start" x="1332.5" y="-100" font-family="Helvetica,sans-Serif" font-size="10.00">application.SplashScreen.initialize</text>
<text text-anchor="middle" x="1414" y="-89" font-family="Helvetica,sans-Serif" font-size="10.00">GUIElements</text>
</a>
</g>
</g>
<!-- Node6&#45;&gt;Node7 -->
<g id="edge6" class="edge"><title>Node6&#45;&gt;Node7</title>
<path fill="none" stroke="midnightblue" d="M1298.27,-97C1306.94,-97 1315.73,-97 1324.4,-97"/>
<polygon fill="midnightblue" stroke="midnightblue" points="1298.16,-93.5001 1288.16,-97 1298.16,-100.5 1298.16,-93.5001"/>
</g>
<!-- Node8 -->
<g id="node8" class="node"><title>Node8</title>
<g id="a_node8"><a xlink:href="../../d6/d99/classapplication_1_1_splash_screen.html#a512cfd783d4871bae304c03a9a32cba9" target="_top" xlink:title="application.SplashScreen.\lSplashScreen">
<polygon fill="white" stroke="black" points="1540,-82 1540,-112 1680,-112 1680,-82 1540,-82"/>
<text text-anchor="start" x="1548" y="-100" font-family="Helvetica,sans-Serif" font-size="10.00">application.SplashScreen.</text>
<text text-anchor="middle" x="1610" y="-89" font-family="Helvetica,sans-Serif" font-size="10.00">SplashScreen</text>
</a>
</g>
</g>
<!-- Node7&#45;&gt;Node8 -->
<g id="edge7" class="edge"><title>Node7&#45;&gt;Node8</title>
<path fill="none" stroke="midnightblue" d="M1513.98,-97C1522.68,-97 1531.36,-97 1539.74,-97"/>
<polygon fill="midnightblue" stroke="midnightblue" points="1513.77,-93.5001 1503.77,-97 1513.77,-100.5 1513.77,-93.5001"/>
</g>
<!-- Node11 -->
<g id="node11" class="node"><title>Node11</title>
<g id="a_node11"><a xlink:href="../../dc/d21/classgames_1_1_mario_game_test.html#aab9eed35cd4d8ae1d108ae914b6a73ff" target="_top" xlink:title="games.MarioGameTest.create\lGameObject">
<polygon fill="white" stroke="black" points="650.5,-0 650.5,-30 811.5,-30 811.5,-0 650.5,-0"/>
<text text-anchor="start" x="658.5" y="-18" font-family="Helvetica,sans-Serif" font-size="10.00">games.MarioGameTest.create</text>
<text text-anchor="middle" x="731" y="-7" font-family="Helvetica,sans-Serif" font-size="10.00">GameObject</text>
</a>
</g>
</g>
<!-- Node10&#45;&gt;Node11 -->
<g id="edge10" class="edge"><title>Node10&#45;&gt;Node11</title>
<path fill="none" stroke="midnightblue" d="M591.247,-8.42415C610.662,-8.16693 631.215,-8.19465 650.384,-8.50731"/>
<polygon fill="midnightblue" stroke="midnightblue" points="591.155,-4.92509 581.212,-8.58464 591.267,-11.9242 591.155,-4.92509"/>
</g>
<!-- Node11&#45;&gt;Node10 -->
<g id="edge11" class="edge"><title>Node11&#45;&gt;Node10</title>
<path fill="none" stroke="midnightblue" d="M640.247,-21.6302C620.672,-21.8435 600.153,-21.7719 581.212,-21.4154"/>
<polygon fill="midnightblue" stroke="midnightblue" points="640.433,-25.1281 650.384,-21.4927 640.338,-18.1288 640.433,-25.1281"/>
</g>
</g>
</svg>
        <g id="navigator" transform="translate(0 0)" fill="#404254">
                <rect fill="#f2f5e9" fill-opacity="0.5" stroke="#606060" stroke-width=".5" x="0" y="0" width="60" height="60"/>
                <use id="zoomplus" xlink:href="#zoomPlus" x="17" y="9" onmousedown="handleZoom(evt,'in')"/>
                <use id="zoomminus" xlink:href="#zoomMin" x="42" y="9" onmousedown="handleZoom(evt,'out')"/>
                <use id="reset" xlink:href="#resetDef" x="30" y="36" onmousedown="handleReset()"/>
                <g id="arrowUp" xlink:href="#dirArrow" transform="translate(30 24)" onmousedown="handlePan(0,-1)">
                  <use xlink:href="#rim" fill="#404040">
                        <set attributeName="fill" to="#808080" begin="arrowUp.mouseover" end="arrowUp.mouseout"/>
                  </use>
                  <path fill="none" stroke="white" stroke-width="1.5" d="M0,-3.0v7 M-2.5,-0.5L0,-3.0L2.5,-0.5"/>
                </g>
                <g id="arrowRight" xlink:href="#dirArrow" transform="rotate(90) translate(36 -43)" onmousedown="handlePan(1,0)">
                  <use xlink:href="#rim" fill="#404040">
                        <set attributeName="fill" to="#808080" begin="arrowRight.mouseover" end="arrowRight.mouseout"/>
                  </use>
                  <path fill="none" stroke="white" stroke-width="1.5" d="M0,-3.0v7 M-2.5,-0.5L0,-3.0L2.5,-0.5"/>
                </g>
                <g id="arrowDown" xlink:href="#dirArrow" transform="rotate(180) translate(-30 -48)" onmousedown="handlePan(0,1)">
                  <use xlink:href="#rim" fill="#404040">
                        <set attributeName="fill" to="#808080" begin="arrowDown.mouseover" end="arrowDown.mouseout"/>
                  </use>
                  <path fill="none" stroke="white" stroke-width="1.5" d="M0,-3.0v7 M-2.5,-0.5L0,-3.0L2.5,-0.5"/>
                </g>
                <g id="arrowLeft" xlink:href="#dirArrow" transform="rotate(270) translate(-36 17)" onmousedown="handlePan(-1,0)">
                  <use xlink:href="#rim" fill="#404040">
                        <set attributeName="fill" to="#808080" begin="arrowLeft.mouseover" end="arrowLeft.mouseout"/>
                  </use>
                  <path fill="none" stroke="white" stroke-width="1.5" d="M0,-3.0v7 M-2.5,-0.5L0,-3.0L2.5,-0.5"/>
                </g>
        </g>
        <svg viewBox="0 0 15 15" width="100%" height="30px" preserveAspectRatio="xMaxYMin meet">
         <g id="arrow_out" transform="scale(0.3 0.3)">
          <a xlink:href="classengine_1_1conditions_1_1_button_condition_manager_a7250e158819df1055783c7c5792df2b8_icgraph_org.svg" target="_base">
           <rect id="button" ry="5" rx="5" y="6" x="6" height="38" width="38"
                fill="#f2f5e9" fill-opacity="0.5" stroke="#606060" stroke-width="1.0"/>
           <path id="arrow"
             d="M 11.500037,31.436501 C 11.940474,20.09759 22.043105,11.32322 32.158766,21.979434 L 37.068811,17.246167 C 37.068811,17.246167 37.088388,32 37.088388,32 L 22.160133,31.978069 C 22.160133,31.978069 26.997745,27.140456 26.997745,27.140456 C 18.528582,18.264221 13.291696,25.230495 11.500037,31.436501 z"
             style="fill:#404040;"/>
          </a>
         </g>
        </svg>
</svg>
