<?xml version="1.0" encoding="UTF-8" standalone="no"?>
<!DOCTYPE svg PUBLIC "-//W3C//DTD SVG 1.1//EN"
 "http://www.w3.org/Graphics/SVG/1.1/DTD/svg11.dtd">
<!-- Generated by graphviz version 2.36.0 (20140111.2315)
 -->
<!-- Title: engine.conditions.ButtonConditionManager.getInstance Pages: 1 -->
<svg width="390pt" height="48pt"
 viewBox="0.00 0.00 390.00 48.00" xmlns="http://www.w3.org/2000/svg" xmlns:xlink="http://www.w3.org/1999/xlink">
<g id="graph0" class="graph" transform="scale(1 1) rotate(0) translate(4 44)">
<title>engine.conditions.ButtonConditionManager.getInstance</title>
<polygon fill="white" stroke="none" points="-4,4 -4,-44 386,-44 386,4 -4,4"/>
<!-- Node1 -->
<g id="node1" class="node"><title>Node1</title>
<polygon fill="#bfbfbf" stroke="black" points="0,-5 0,-35 162,-35 162,-5 0,-5"/>
<text text-anchor="start" x="8" y="-23" font-family="Helvetica,sans-Serif" font-size="10.00">engine.conditions.Button</text>
<text text-anchor="middle" x="81" y="-12" font-family="Helvetica,sans-Serif" font-size="10.00">ConditionManager.getInstance</text>
</g>
<!-- Node2 -->
<g id="node2" class="node"><title>Node2</title>
<g id="a_node2"><a xlink:href="../../d9/d10/classengine_1_1conditions_1_1_button_condition_manager.html#ae9501a9a4b3fbc32cd49920845a49bef" target="_top" xlink:title="engine.conditions.Button\lConditionManager.ButtonCondition\lManager">
<polygon fill="white" stroke="black" points="198.5,0.5 198.5,-40.5 381.5,-40.5 381.5,0.5 198.5,0.5"/>
<text text-anchor="start" x="206.5" y="-28.5" font-family="Helvetica,sans-Serif" font-size="10.00">engine.conditions.Button</text>
<text text-anchor="start" x="206.5" y="-17.5" font-family="Helvetica,sans-Serif" font-size="10.00">ConditionManager.ButtonCondition</text>
<text text-anchor="middle" x="290" y="-6.5" font-family="Helvetica,sans-Serif" font-size="10.00">Manager</text>
</a>
</g>
</g>
<!-- Node1&#45;&gt;Node2 -->
<g id="edge1" class="edge"><title>Node1&#45;&gt;Node2</title>
<path fill="none" stroke="midnightblue" d="M162.032,-20C170.536,-20 179.263,-20 187.967,-20"/>
<polygon fill="midnightblue" stroke="midnightblue" points="188.16,-23.5001 198.16,-20 188.16,-16.5001 188.16,-23.5001"/>
</g>
</g>
</svg>
