<?xml version="1.0" encoding="UTF-8" standalone="no"?>
<!DOCTYPE svg PUBLIC "-//W3C//DTD SVG 1.1//EN"
 "http://www.w3.org/Graphics/SVG/1.1/DTD/svg11.dtd">
<!-- Generated by graphviz version 2.36.0 (20140111.2315)
 -->
<!-- Title: authoring.view.wizards.ConditionSelectionWizard.enableFinalize Pages: 1 -->
<svg width="812pt" height="48pt"
 viewBox="0.00 0.00 812.00 48.00" xmlns="http://www.w3.org/2000/svg" xmlns:xlink="http://www.w3.org/1999/xlink">
<g id="graph0" class="graph" transform="scale(1 1) rotate(0) translate(4 44)">
<title>authoring.view.wizards.ConditionSelectionWizard.enableFinalize</title>
<polygon fill="white" stroke="none" points="-4,4 -4,-44 808,-44 808,4 -4,4"/>
<!-- Node1 -->
<g id="node1" class="node"><title>Node1</title>
<polygon fill="#bfbfbf" stroke="black" points="0.5,-5 0.5,-35 171.5,-35 171.5,-5 0.5,-5"/>
<text text-anchor="start" x="8.5" y="-23" font-family="Helvetica,sans-Serif" font-size="10.00">authoring.view.wizards.Condition</text>
<text text-anchor="middle" x="86" y="-12" font-family="Helvetica,sans-Serif" font-size="10.00">SelectionWizard.enableFinalize</text>
</g>
<!-- Node2 -->
<g id="node2" class="node"><title>Node2</title>
<g id="a_node2"><a xlink:href="../../d0/d9b/classauthoring_1_1eventhandlers_1_1_add_condition_handler.html#a7215c52c01d70a711bdf49d7c4b37d70" target="_top" xlink:title="authoring.eventhandlers.\lAddConditionHandler.fillCondition\lParameters">
<polygon fill="white" stroke="black" points="208.5,0.5 208.5,-40.5 383.5,-40.5 383.5,0.5 208.5,0.5"/>
<text text-anchor="start" x="216.5" y="-28.5" font-family="Helvetica,sans-Serif" font-size="10.00">authoring.eventhandlers.</text>
<text text-anchor="start" x="216.5" y="-17.5" font-family="Helvetica,sans-Serif" font-size="10.00">AddConditionHandler.fillCondition</text>
<text text-anchor="middle" x="296" y="-6.5" font-family="Helvetica,sans-Serif" font-size="10.00">Parameters</text>
</a>
</g>
</g>
<!-- Node1&#45;&gt;Node2 -->
<g id="edge1" class="edge"><title>Node1&#45;&gt;Node2</title>
<path fill="none" stroke="midnightblue" d="M181.634,-20C190.567,-20 199.593,-20 208.446,-20"/>
<polygon fill="midnightblue" stroke="midnightblue" points="181.602,-16.5001 171.602,-20 181.602,-23.5001 181.602,-16.5001"/>
</g>
<!-- Node3 -->
<g id="node3" class="node"><title>Node3</title>
<g id="a_node3"><a xlink:href="../../d0/d9b/classauthoring_1_1eventhandlers_1_1_add_condition_handler.html#a88d3a7413e2434fe0bcfc0e6e436573f" target="_top" xlink:title="authoring.eventhandlers.\lAddConditionHandler.createCondition">
<polygon fill="white" stroke="black" points="420,-5 420,-35 616,-35 616,-5 420,-5"/>
<text text-anchor="start" x="428" y="-23" font-family="Helvetica,sans-Serif" font-size="10.00">authoring.eventhandlers.</text>
<text text-anchor="middle" x="518" y="-12" font-family="Helvetica,sans-Serif" font-size="10.00">AddConditionHandler.createCondition</text>
</a>
</g>
</g>
<!-- Node2&#45;&gt;Node3 -->
<g id="edge2" class="edge"><title>Node2&#45;&gt;Node3</title>
<path fill="none" stroke="midnightblue" d="M393.756,-20C402.433,-20 411.221,-20 419.901,-20"/>
<polygon fill="midnightblue" stroke="midnightblue" points="393.634,-16.5001 383.634,-20 393.634,-23.5001 393.634,-16.5001"/>
</g>
<!-- Node4 -->
<g id="node4" class="node"><title>Node4</title>
<g id="a_node4"><a xlink:href="../../d0/d9b/classauthoring_1_1eventhandlers_1_1_add_condition_handler.html#abc328df9b2c2be7df5170384e59f06d4" target="_top" xlink:title="authoring.eventhandlers.\lAddConditionHandler.handle">
<polygon fill="white" stroke="black" points="652,-5 652,-35 804,-35 804,-5 652,-5"/>
<text text-anchor="start" x="660" y="-23" font-family="Helvetica,sans-Serif" font-size="10.00">authoring.eventhandlers.</text>
<text text-anchor="middle" x="728" y="-12" font-family="Helvetica,sans-Serif" font-size="10.00">AddConditionHandler.handle</text>
</a>
</g>
</g>
<!-- Node3&#45;&gt;Node4 -->
<g id="edge3" class="edge"><title>Node3&#45;&gt;Node4</title>
<path fill="none" stroke="midnightblue" d="M626.396,-20C634.995,-20 643.563,-20 651.865,-20"/>
<polygon fill="midnightblue" stroke="midnightblue" points="626.301,-16.5001 616.301,-20 626.301,-23.5001 626.301,-16.5001"/>
</g>
</g>
</svg>
