<?xml version="1.0" encoding="UTF-8" standalone="no"?>
<!DOCTYPE svg PUBLIC "-//W3C//DTD SVG 1.1//EN"
 "http://www.w3.org/Graphics/SVG/1.1/DTD/svg11.dtd">
<!-- Generated by graphviz version 2.36.0 (20140111.2315)
 -->
<!-- Title: authoring.view.wizards.ConditionSelectionWizard.getSelectedCondition Pages: 1 -->
<svg width="626pt" height="38pt"
 viewBox="0.00 0.00 626.00 38.00" xmlns="http://www.w3.org/2000/svg" xmlns:xlink="http://www.w3.org/1999/xlink">
<g id="graph0" class="graph" transform="scale(1 1) rotate(0) translate(4 34)">
<title>authoring.view.wizards.ConditionSelectionWizard.getSelectedCondition</title>
<polygon fill="white" stroke="none" points="-4,4 -4,-34 622,-34 622,4 -4,4"/>
<!-- Node1 -->
<g id="node1" class="node"><title>Node1</title>
<polygon fill="#bfbfbf" stroke="black" points="0,-0 0,-30 198,-30 198,-0 0,-0"/>
<text text-anchor="start" x="8" y="-18" font-family="Helvetica,sans-Serif" font-size="10.00">authoring.view.wizards.Condition</text>
<text text-anchor="middle" x="99" y="-7" font-family="Helvetica,sans-Serif" font-size="10.00">SelectionWizard.getSelectedCondition</text>
</g>
<!-- Node2 -->
<g id="node2" class="node"><title>Node2</title>
<g id="a_node2"><a xlink:href="../../d0/d9b/classauthoring_1_1eventhandlers_1_1_add_condition_handler.html#a88d3a7413e2434fe0bcfc0e6e436573f" target="_top" xlink:title="authoring.eventhandlers.\lAddConditionHandler.createCondition">
<polygon fill="white" stroke="black" points="234,-0 234,-30 430,-30 430,-0 234,-0"/>
<text text-anchor="start" x="242" y="-18" font-family="Helvetica,sans-Serif" font-size="10.00">authoring.eventhandlers.</text>
<text text-anchor="middle" x="332" y="-7" font-family="Helvetica,sans-Serif" font-size="10.00">AddConditionHandler.createCondition</text>
</a>
</g>
</g>
<!-- Node1&#45;&gt;Node2 -->
<g id="edge1" class="edge"><title>Node1&#45;&gt;Node2</title>
<path fill="none" stroke="midnightblue" d="M208.572,-15C217.023,-15 225.524,-15 233.893,-15"/>
<polygon fill="midnightblue" stroke="midnightblue" points="208.3,-11.5001 198.3,-15 208.3,-18.5001 208.3,-11.5001"/>
</g>
<!-- Node3 -->
<g id="node3" class="node"><title>Node3</title>
<g id="a_node3"><a xlink:href="../../d0/d9b/classauthoring_1_1eventhandlers_1_1_add_condition_handler.html#abc328df9b2c2be7df5170384e59f06d4" target="_top" xlink:title="authoring.eventhandlers.\lAddConditionHandler.handle">
<polygon fill="white" stroke="black" points="466,-0 466,-30 618,-30 618,-0 466,-0"/>
<text text-anchor="start" x="474" y="-18" font-family="Helvetica,sans-Serif" font-size="10.00">authoring.eventhandlers.</text>
<text text-anchor="middle" x="542" y="-7" font-family="Helvetica,sans-Serif" font-size="10.00">AddConditionHandler.handle</text>
</a>
</g>
</g>
<!-- Node2&#45;&gt;Node3 -->
<g id="edge2" class="edge"><title>Node2&#45;&gt;Node3</title>
<path fill="none" stroke="midnightblue" d="M440.396,-15C448.995,-15 457.563,-15 465.865,-15"/>
<polygon fill="midnightblue" stroke="midnightblue" points="440.301,-11.5001 430.301,-15 440.301,-18.5001 440.301,-11.5001"/>
</g>
</g>
</svg>
