<?xml version="1.0" encoding="UTF-8" standalone="no"?>
<!DOCTYPE svg PUBLIC "-//W3C//DTD SVG 1.1//EN"
 "http://www.w3.org/Graphics/SVG/1.1/DTD/svg11.dtd">
<!-- Generated by graphviz version 2.36.0 (20140111.2315)
 -->
<!-- Title: engine.actions.MakeNewObjectFromObjectAction.execute Pages: 1 -->
<!--zoomable 654 -->
<svg id="main" version="1.1" xmlns="http://www.w3.org/2000/svg" xmlns:xlink="http://www.w3.org/1999/xlink" xml:space="preserve" onload="init(evt)">
<style type="text/css"><![CDATA[
.edge:hover path { stroke: red; }
.edge:hover polygon { stroke: red; fill: red; }
]]></style>
<script type="text/javascript"><![CDATA[
var edges = document.getElementsByTagName('g');
if (edges && edges.length) {
  for (var i=0;i<edges.length;i++) {
    if (edges[i].id.substr(0,4)=='edge') {
      edges[i].setAttribute('class','edge');
    }
  }
}
]]></script>
        <defs>
                <circle id="rim" cx="0" cy="0" r="7"/>
                <circle id="rim2" cx="0" cy="0" r="3.5"/>
                <g id="zoomPlus">
                        <use xlink:href="#rim" fill="#404040">
                                <set attributeName="fill" to="#808080" begin="zoomplus.mouseover" end="zoomplus.mouseout"/>
                        </use>
                        <path d="M-4,0h8M0,-4v8" fill="none" stroke="white" stroke-width="1.5" pointer-events="none"/>
                </g>
                <g id="zoomMin">
                        <use xlink:href="#rim" fill="#404040">
                                <set attributeName="fill" to="#808080" begin="zoomminus.mouseover" end="zoomminus.mouseout"/>
                        </use>
                        <path d="M-4,0h8" fill="none" stroke="white" stroke-width="1.5" pointer-events="none"/>
                </g>
                <g id="dirArrow">
                        <path fill="none" stroke="white" stroke-width="1.5" d="M0,-3.0v7 M-2.5,-0.5L0,-3.0L2.5,-0.5"/>
                </g>
               <g id="resetDef">
                       <use xlink:href="#rim2" fill="#404040">
                               <set attributeName="fill" to="#808080" begin="reset.mouseover" end="reset.mouseout"/>
                       </use>
               </g>
        </defs>

<script type="text/javascript">
var viewWidth = 890;
var viewHeight = 654;
var sectionId = 'dynsection-2';
</script>
<script xlink:href="../../svgpan.js"/>
<svg id="graph" class="graph">
<g id="viewport">
<title>engine.actions.MakeNewObjectFromObjectAction.execute</title>
<polygon fill="white" stroke="none" points="-4,4 -4,-650 886,-650 886,4 -4,4"/>
<!-- Node1 -->
<g id="node1" class="node"><title>Node1</title>
<polygon fill="#bfbfbf" stroke="black" points="0,-171 0,-201 166,-201 166,-171 0,-171"/>
<text text-anchor="start" x="8" y="-189" font-family="Helvetica,sans-Serif" font-size="10.00">engine.actions.MakeNewObject</text>
<text text-anchor="middle" x="83" y="-178" font-family="Helvetica,sans-Serif" font-size="10.00">FromObjectAction.execute</text>
</g>
<!-- Node2 -->
<g id="node2" class="node"><title>Node2</title>
<g id="a_node2"><a xlink:href="../../df/d84/classengine_1_1level_1_1_level.html#a0e3c5bae8948f49ede9e5a87f197581b" target="_top" xlink:title="engine.level.Level.addGame\lObject">
<polygon fill="white" stroke="black" points="233,-553 233,-583 385,-583 385,-553 233,-553"/>
<text text-anchor="start" x="241" y="-571" font-family="Helvetica,sans-Serif" font-size="10.00">engine.level.Level.addGame</text>
<text text-anchor="middle" x="309" y="-560" font-family="Helvetica,sans-Serif" font-size="10.00">Object</text>
</a>
</g>
</g>
<!-- Node1&#45;&gt;Node2 -->
<g id="edge1" class="edge"><title>Node1&#45;&gt;Node2</title>
<path fill="none" stroke="midnightblue" d="M93.0585,-201.448C127.681,-260.492 251.81,-472.176 293.915,-543.979"/>
<polygon fill="midnightblue" stroke="midnightblue" points="290.997,-545.922 299.074,-552.778 297.035,-542.382 290.997,-545.922"/>
</g>
<!-- Node6 -->
<g id="node6" class="node"><title>Node6</title>
<g id="a_node6"><a xlink:href="../../df/de5/classengine_1_1render_1_1_game_object_renderer.html#a745cb65a5425a20a1b5063068ef1314a" target="_top" xlink:title="engine.render.GameObject\lRenderer.createAndAssignRenderedNode">
<polygon fill="white" stroke="black" points="202.5,-294 202.5,-324 415.5,-324 415.5,-294 202.5,-294"/>
<text text-anchor="start" x="210.5" y="-312" font-family="Helvetica,sans-Serif" font-size="10.00">engine.render.GameObject</text>
<text text-anchor="middle" x="309" y="-301" font-family="Helvetica,sans-Serif" font-size="10.00">Renderer.createAndAssignRenderedNode</text>
</a>
</g>
</g>
<!-- Node1&#45;&gt;Node6 -->
<g id="edge5" class="edge"><title>Node1&#45;&gt;Node6</title>
<path fill="none" stroke="midnightblue" d="M97.6815,-201.13C118.19,-222.855 159.099,-262.619 202,-284 206.865,-286.425 211.975,-288.62 217.212,-290.607"/>
<polygon fill="midnightblue" stroke="midnightblue" points="216.157,-293.946 226.752,-293.963 218.48,-287.343 216.157,-293.946"/>
</g>
<!-- Node25 -->
<g id="node25" class="node"><title>Node25</title>
<g id="a_node25"><a xlink:href="../../d0/d7f/classengine_1_1game_object_1_1_game_object.html#a033aa98dab8d3c9ef92e0c9996a79b91" target="_top" xlink:title="engine.gameObject.GameObject.get\lOrientation">
<polygon fill="white" stroke="black" points="213,-245 213,-275 405,-275 405,-245 213,-245"/>
<text text-anchor="start" x="221" y="-263" font-family="Helvetica,sans-Serif" font-size="10.00">engine.gameObject.GameObject.get</text>
<text text-anchor="middle" x="309" y="-252" font-family="Helvetica,sans-Serif" font-size="10.00">Orientation</text>
</a>
</g>
</g>
<!-- Node1&#45;&gt;Node25 -->
<g id="edge26" class="edge"><title>Node1&#45;&gt;Node25</title>
<path fill="none" stroke="midnightblue" d="M116.526,-201.182C139.93,-211.69 172.45,-225.449 202,-235 210.17,-237.64 218.777,-240.131 227.408,-242.441"/>
<polygon fill="midnightblue" stroke="midnightblue" points="226.583,-245.843 237.142,-244.972 228.344,-239.068 226.583,-245.843"/>
</g>
<!-- Node26 -->
<g id="node26" class="node"><title>Node26</title>
<g id="a_node26"><a xlink:href="../../d0/d7f/classengine_1_1game_object_1_1_game_object.html#ac7639843418dea4d3ac30a8f2d3a3a9b" target="_top" xlink:title="engine.gameObject.GameObject.get\lTranslateX">
<polygon fill="white" stroke="black" points="213,-196 213,-226 405,-226 405,-196 213,-196"/>
<text text-anchor="start" x="221" y="-214" font-family="Helvetica,sans-Serif" font-size="10.00">engine.gameObject.GameObject.get</text>
<text text-anchor="middle" x="309" y="-203" font-family="Helvetica,sans-Serif" font-size="10.00">TranslateX</text>
</a>
</g>
</g>
<!-- Node1&#45;&gt;Node26 -->
<g id="edge27" class="edge"><title>Node1&#45;&gt;Node26</title>
<path fill="none" stroke="midnightblue" d="M166.137,-195.167C178.038,-196.495 190.425,-197.878 202.703,-199.248"/>
<polygon fill="midnightblue" stroke="midnightblue" points="202.652,-202.764 212.978,-200.395 203.428,-195.807 202.652,-202.764"/>
</g>
<!-- Node27 -->
<g id="node27" class="node"><title>Node27</title>
<g id="a_node27"><a xlink:href="../../d0/d7f/classengine_1_1game_object_1_1_game_object.html#a3a4561bfee95913ae91cc635fdf1167d" target="_top" xlink:title="engine.gameObject.GameObject.get\lTranslateY">
<polygon fill="white" stroke="black" points="213,-147 213,-177 405,-177 405,-147 213,-147"/>
<text text-anchor="start" x="221" y="-165" font-family="Helvetica,sans-Serif" font-size="10.00">engine.gameObject.GameObject.get</text>
<text text-anchor="middle" x="309" y="-154" font-family="Helvetica,sans-Serif" font-size="10.00">TranslateY</text>
</a>
</g>
</g>
<!-- Node1&#45;&gt;Node27 -->
<g id="edge28" class="edge"><title>Node1&#45;&gt;Node27</title>
<path fill="none" stroke="midnightblue" d="M166.137,-177.2C178.038,-175.924 190.425,-174.597 202.703,-173.282"/>
<polygon fill="midnightblue" stroke="midnightblue" points="203.408,-176.726 212.978,-172.181 202.662,-169.766 203.408,-176.726"/>
</g>
<!-- Node28 -->
<g id="node28" class="node"><title>Node28</title>
<g id="a_node28"><a xlink:href="../../d0/d7f/classengine_1_1game_object_1_1_game_object.html#a9a4690b212ecad4060ce8f9abbcedba5" target="_top" xlink:title="engine.gameObject.GameObject.set\lIdentifier">
<polygon fill="white" stroke="black" points="213.5,-98 213.5,-128 404.5,-128 404.5,-98 213.5,-98"/>
<text text-anchor="start" x="221.5" y="-116" font-family="Helvetica,sans-Serif" font-size="10.00">engine.gameObject.GameObject.set</text>
<text text-anchor="middle" x="309" y="-105" font-family="Helvetica,sans-Serif" font-size="10.00">Identifier</text>
</a>
</g>
</g>
<!-- Node1&#45;&gt;Node28 -->
<g id="edge29" class="edge"><title>Node1&#45;&gt;Node28</title>
<path fill="none" stroke="midnightblue" d="M116,-170.962C139.427,-160.387 172.196,-146.485 202,-137 209.126,-134.732 216.586,-132.591 224.106,-130.592"/>
<polygon fill="midnightblue" stroke="midnightblue" points="225.19,-133.928 234.003,-128.048 223.447,-127.148 225.19,-133.928"/>
</g>
<!-- Node29 -->
<g id="node29" class="node"><title>Node29</title>
<g id="a_node29"><a xlink:href="../../d0/d7f/classengine_1_1game_object_1_1_game_object.html#a53d6d446f23ee6bb0c13763016fc2e2f" target="_top" xlink:title="engine.gameObject.GameObject.set\lOrientation">
<polygon fill="white" stroke="black" points="213.5,-49 213.5,-79 404.5,-79 404.5,-49 213.5,-49"/>
<text text-anchor="start" x="221.5" y="-67" font-family="Helvetica,sans-Serif" font-size="10.00">engine.gameObject.GameObject.set</text>
<text text-anchor="middle" x="309" y="-56" font-family="Helvetica,sans-Serif" font-size="10.00">Orientation</text>
</a>
</g>
</g>
<!-- Node1&#45;&gt;Node29 -->
<g id="edge30" class="edge"><title>Node1&#45;&gt;Node29</title>
<path fill="none" stroke="midnightblue" d="M97.6563,-170.819C118.133,-149.03 159.003,-109.188 202,-88 206.061,-85.9989 210.291,-84.1621 214.624,-82.4764"/>
<polygon fill="midnightblue" stroke="midnightblue" points="216.018,-85.6949 224.247,-79.0222 213.653,-79.1065 216.018,-85.6949"/>
</g>
<!-- Node30 -->
<g id="node30" class="node"><title>Node30</title>
<g id="a_node30"><a xlink:href="../../d0/d7f/classengine_1_1game_object_1_1_game_object.html#ab9b1029f6d5a8a7eb563d5e6e1dcf570" target="_top" xlink:title="engine.gameObject.GameObject.set\lPhysicsBody">
<polygon fill="white" stroke="black" points="213.5,-0 213.5,-30 404.5,-30 404.5,-0 213.5,-0"/>
<text text-anchor="start" x="221.5" y="-18" font-family="Helvetica,sans-Serif" font-size="10.00">engine.gameObject.GameObject.set</text>
<text text-anchor="middle" x="309" y="-7" font-family="Helvetica,sans-Serif" font-size="10.00">PhysicsBody</text>
</a>
</g>
</g>
<!-- Node1&#45;&gt;Node30 -->
<g id="edge31" class="edge"><title>Node1&#45;&gt;Node30</title>
<path fill="none" stroke="midnightblue" d="M91.6884,-170.699C107.744,-140.408 147.882,-72.8185 202,-39 204.674,-37.329 207.45,-35.774 210.305,-34.3268"/>
<polygon fill="midnightblue" stroke="midnightblue" points="212.009,-37.3964 219.655,-30.0621 209.104,-31.0276 212.009,-37.3964"/>
</g>
<!-- Node3 -->
<g id="node3" class="node"><title>Node3</title>
<g id="a_node3"><a xlink:href="../../d4/d3b/classauthoring_1_1model_1_1collections_1_1_general_collection.html#a1bdc1047736bbb23259d6a7fe4c6deeb" target="_top" xlink:title="authoring.model.collections.\lGeneralCollection.add">
<polygon fill="white" stroke="black" points="477,-616 477,-646 629,-646 629,-616 477,-616"/>
<text text-anchor="start" x="485" y="-634" font-family="Helvetica,sans-Serif" font-size="10.00">authoring.model.collections.</text>
<text text-anchor="middle" x="553" y="-623" font-family="Helvetica,sans-Serif" font-size="10.00">GeneralCollection.add</text>
</a>
</g>
</g>
<!-- Node2&#45;&gt;Node3 -->
<g id="edge2" class="edge"><title>Node2&#45;&gt;Node3</title>
<path fill="none" stroke="midnightblue" d="M365.241,-583.01C391.498,-590.086 423.341,-598.583 452,-606 461.485,-608.455 471.487,-611.003 481.351,-613.492"/>
<polygon fill="midnightblue" stroke="midnightblue" points="480.593,-616.911 491.145,-615.956 482.301,-610.122 480.593,-616.911"/>
</g>
<!-- Node4 -->
<g id="node4" class="node"><title>Node4</title>
<g id="a_node4"><a xlink:href="../../d3/d8d/classdata_1_1_observable.html#a6da70e44050d139f40cf07384484f51d" target="_top" xlink:title="data.Observable.setChanged">
<polygon fill="white" stroke="black" points="475,-577.5 475,-596.5 631,-596.5 631,-577.5 475,-577.5"/>
<text text-anchor="middle" x="553" y="-584.5" font-family="Helvetica,sans-Serif" font-size="10.00">data.Observable.setChanged</text>
</a>
</g>
</g>
<!-- Node2&#45;&gt;Node4 -->
<g id="edge3" class="edge"><title>Node2&#45;&gt;Node4</title>
<path fill="none" stroke="midnightblue" d="M385.244,-573.908C410.354,-575.879 438.548,-578.093 464.507,-580.131"/>
<polygon fill="midnightblue" stroke="midnightblue" points="464.472,-583.639 474.715,-580.932 465.02,-576.66 464.472,-583.639"/>
</g>
<!-- Node5 -->
<g id="node5" class="node"><title>Node5</title>
<g id="a_node5"><a xlink:href="../../d3/d8d/classdata_1_1_observable.html#a120384f9a41245899f05bb1a4c36ac4d" target="_top" xlink:title="data.Observable.notifyObservers">
<polygon fill="white" stroke="black" points="466.5,-539.5 466.5,-558.5 639.5,-558.5 639.5,-539.5 466.5,-539.5"/>
<text text-anchor="middle" x="553" y="-546.5" font-family="Helvetica,sans-Serif" font-size="10.00">data.Observable.notifyObservers</text>
</a>
</g>
</g>
<!-- Node2&#45;&gt;Node5 -->
<g id="edge4" class="edge"><title>Node2&#45;&gt;Node5</title>
<path fill="none" stroke="midnightblue" d="M385.244,-562.092C407.704,-560.329 432.631,-558.372 456.219,-556.52"/>
<polygon fill="midnightblue" stroke="midnightblue" points="456.54,-560.006 466.235,-555.734 455.992,-553.027 456.54,-560.006"/>
</g>
<!-- Node7 -->
<g id="node7" class="node"><title>Node7</title>
<g id="a_node7"><a xlink:href="../../d2/d82/classengine_1_1render_1_1_rendered_node.html#a520a8c03b505d10c69e010e603cadfdd" target="_top" xlink:title="engine.render.RenderedNode.set\lImageView">
<polygon fill="white" stroke="black" points="466,-81 466,-111 640,-111 640,-81 466,-81"/>
<text text-anchor="start" x="474" y="-99" font-family="Helvetica,sans-Serif" font-size="10.00">engine.render.RenderedNode.set</text>
<text text-anchor="middle" x="553" y="-88" font-family="Helvetica,sans-Serif" font-size="10.00">ImageView</text>
</a>
</g>
</g>
<!-- Node6&#45;&gt;Node7 -->
<g id="edge6" class="edge"><title>Node6&#45;&gt;Node7</title>
<path fill="none" stroke="midnightblue" d="M403.634,-293.809C408.116,-291.019 412.286,-287.772 416,-284 468.356,-230.824 399.749,-173.278 452,-120 453.676,-118.291 455.451,-116.695 457.309,-115.206"/>
<polygon fill="midnightblue" stroke="midnightblue" points="459.647,-117.848 465.948,-109.331 455.711,-112.06 459.647,-117.848"/>
</g>
<!-- Node8 -->
<g id="node8" class="node"><title>Node8</title>
<g id="a_node8"><a xlink:href="../../df/de5/classengine_1_1render_1_1_game_object_renderer.html#a72580570f971246ef79428f21b6d25e9" target="_top" xlink:title="engine.render.GameObject\lRenderer.createImageAndView">
<polygon fill="white" stroke="black" points="471.5,-490 471.5,-520 634.5,-520 634.5,-490 471.5,-490"/>
<text text-anchor="start" x="479.5" y="-508" font-family="Helvetica,sans-Serif" font-size="10.00">engine.render.GameObject</text>
<text text-anchor="middle" x="553" y="-497" font-family="Helvetica,sans-Serif" font-size="10.00">Renderer.createImageAndView</text>
</a>
</g>
</g>
<!-- Node6&#45;&gt;Node8 -->
<g id="edge7" class="edge"><title>Node6&#45;&gt;Node8</title>
<path fill="none" stroke="midnightblue" d="M318.033,-324.07C336.747,-357.655 386.667,-438.914 452,-480 455.397,-482.136 458.965,-484.09 462.65,-485.877"/>
<polygon fill="midnightblue" stroke="midnightblue" points="461.452,-489.173 472.016,-489.983 464.263,-482.762 461.452,-489.173"/>
</g>
<!-- Node13 -->
<g id="node13" class="node"><title>Node13</title>
<g id="a_node13"><a xlink:href="../../d2/d82/classengine_1_1render_1_1_rendered_node.html#ad73c81ad48b40faea3818c9a7bbfdcf0" target="_top" xlink:title="engine.render.RenderedNode.set\lCollisionBody">
<polygon fill="white" stroke="black" points="466,-392 466,-422 640,-422 640,-392 466,-392"/>
<text text-anchor="start" x="474" y="-410" font-family="Helvetica,sans-Serif" font-size="10.00">engine.render.RenderedNode.set</text>
<text text-anchor="middle" x="553" y="-399" font-family="Helvetica,sans-Serif" font-size="10.00">CollisionBody</text>
</a>
</g>
</g>
<!-- Node6&#45;&gt;Node13 -->
<g id="edge12" class="edge"><title>Node6&#45;&gt;Node13</title>
<path fill="none" stroke="midnightblue" d="M334.845,-324.008C362.577,-340.222 409.193,-365.892 452,-382 458.794,-384.557 465.945,-386.931 473.17,-389.116"/>
<polygon fill="midnightblue" stroke="midnightblue" points="472.463,-392.555 483.042,-391.978 474.412,-385.831 472.463,-392.555"/>
</g>
<!-- Node14 -->
<g id="node14" class="node"><title>Node14</title>
<g id="a_node14"><a xlink:href="../../df/de5/classengine_1_1render_1_1_game_object_renderer.html#a25493ea430dbd3c6094434ba60e98662" target="_top" xlink:title="engine.render.GameObject\lRenderer.createCollisionBody">
<polygon fill="white" stroke="black" points="475.5,-343 475.5,-373 630.5,-373 630.5,-343 475.5,-343"/>
<text text-anchor="start" x="483.5" y="-361" font-family="Helvetica,sans-Serif" font-size="10.00">engine.render.GameObject</text>
<text text-anchor="middle" x="553" y="-350" font-family="Helvetica,sans-Serif" font-size="10.00">Renderer.createCollisionBody</text>
</a>
</g>
</g>
<!-- Node6&#45;&gt;Node14 -->
<g id="edge13" class="edge"><title>Node6&#45;&gt;Node14</title>
<path fill="none" stroke="midnightblue" d="M384.253,-324.035C410.734,-329.396 440.744,-335.473 467.988,-340.989"/>
<polygon fill="midnightblue" stroke="midnightblue" points="467.392,-344.44 477.888,-342.994 468.781,-337.579 467.392,-344.44"/>
</g>
<!-- Node18 -->
<g id="node18" class="node"><title>Node18</title>
<g id="a_node18"><a xlink:href="../../d2/d82/classengine_1_1render_1_1_rendered_node.html#a312c663dd1144ff206ecfa1ea8c95a81" target="_top" xlink:title="engine.render.RenderedNode.set\lLabel">
<polygon fill="white" stroke="black" points="466,-294 466,-324 640,-324 640,-294 466,-294"/>
<text text-anchor="start" x="474" y="-312" font-family="Helvetica,sans-Serif" font-size="10.00">engine.render.RenderedNode.set</text>
<text text-anchor="middle" x="553" y="-301" font-family="Helvetica,sans-Serif" font-size="10.00">Label</text>
</a>
</g>
</g>
<!-- Node6&#45;&gt;Node18 -->
<g id="edge17" class="edge"><title>Node6&#45;&gt;Node18</title>
<path fill="none" stroke="midnightblue" d="M415.793,-309C428.939,-309 442.329,-309 455.329,-309"/>
<polygon fill="midnightblue" stroke="midnightblue" points="455.658,-312.5 465.658,-309 455.658,-305.5 455.658,-312.5"/>
</g>
<!-- Node19 -->
<g id="node19" class="node"><title>Node19</title>
<g id="a_node19"><a xlink:href="../../df/de5/classengine_1_1render_1_1_game_object_renderer.html#a1d5f0ad1a571faec3c1a364bccc4c038" target="_top" xlink:title="engine.render.GameObject\lRenderer.createLabel">
<polygon fill="white" stroke="black" points="480,-441 480,-471 626,-471 626,-441 480,-441"/>
<text text-anchor="start" x="488" y="-459" font-family="Helvetica,sans-Serif" font-size="10.00">engine.render.GameObject</text>
<text text-anchor="middle" x="553" y="-448" font-family="Helvetica,sans-Serif" font-size="10.00">Renderer.createLabel</text>
</a>
</g>
</g>
<!-- Node6&#45;&gt;Node19 -->
<g id="edge18" class="edge"><title>Node6&#45;&gt;Node19</title>
<path fill="none" stroke="midnightblue" d="M323.247,-324.308C346.586,-350.29 397.728,-402.926 452,-431 457.685,-433.941 463.733,-436.548 469.932,-438.857"/>
<polygon fill="midnightblue" stroke="midnightblue" points="469.173,-442.297 479.768,-442.245 471.453,-435.679 469.173,-442.297"/>
</g>
<!-- Node21 -->
<g id="node21" class="node"><title>Node21</title>
<g id="a_node21"><a xlink:href="../../d0/d7f/classengine_1_1game_object_1_1_game_object.html#a606c7293c2bfac0af1fb42143bf527f6" target="_top" xlink:title="engine.gameObject.GameObject.getX">
<polygon fill="white" stroke="black" points="454,-255.5 454,-274.5 652,-274.5 652,-255.5 454,-255.5"/>
<text text-anchor="middle" x="553" y="-262.5" font-family="Helvetica,sans-Serif" font-size="10.00">engine.gameObject.GameObject.getX</text>
</a>
</g>
</g>
<!-- Node6&#45;&gt;Node21 -->
<g id="edge22" class="edge"><title>Node6&#45;&gt;Node21</title>
<path fill="none" stroke="midnightblue" d="M392.606,-293.981C424.329,-288.213 459.98,-281.731 489.509,-276.362"/>
<polygon fill="midnightblue" stroke="midnightblue" points="490.469,-279.745 499.682,-274.512 489.217,-272.858 490.469,-279.745"/>
</g>
<!-- Node22 -->
<g id="node22" class="node"><title>Node22</title>
<g id="a_node22"><a xlink:href="../../d0/d7f/classengine_1_1game_object_1_1_game_object.html#a1988806ef560c9384f3844d0666a9450" target="_top" xlink:title="engine.gameObject.GameObject.getY">
<polygon fill="white" stroke="black" points="454.5,-217.5 454.5,-236.5 651.5,-236.5 651.5,-217.5 454.5,-217.5"/>
<text text-anchor="middle" x="553" y="-224.5" font-family="Helvetica,sans-Serif" font-size="10.00">engine.gameObject.GameObject.getY</text>
</a>
</g>
</g>
<!-- Node6&#45;&gt;Node22 -->
<g id="edge23" class="edge"><title>Node6&#45;&gt;Node22</title>
<path fill="none" stroke="midnightblue" d="M394.221,-293.999C401.816,-291.214 409.198,-287.913 416,-284 436.166,-272.4 431.585,-257.155 452,-246 456.236,-243.686 460.706,-241.649 465.312,-239.857"/>
<polygon fill="midnightblue" stroke="midnightblue" points="466.632,-243.103 474.927,-236.511 464.332,-236.492 466.632,-243.103"/>
</g>
<!-- Node23 -->
<g id="node23" class="node"><title>Node23</title>
<g id="a_node23"><a xlink:href="../../d0/d7f/classengine_1_1game_object_1_1_game_object.html#ae94fe532960bd29f64c2dc19ec0af798" target="_top" xlink:title="engine.gameObject.GameObject.getID">
<polygon fill="white" stroke="black" points="452,-179.5 452,-198.5 654,-198.5 654,-179.5 452,-179.5"/>
<text text-anchor="middle" x="553" y="-186.5" font-family="Helvetica,sans-Serif" font-size="10.00">engine.gameObject.GameObject.getID</text>
</a>
</g>
</g>
<!-- Node6&#45;&gt;Node23 -->
<g id="edge24" class="edge"><title>Node6&#45;&gt;Node23</title>
<path fill="none" stroke="midnightblue" d="M400.383,-293.942C405.949,-291.15 411.222,-287.864 416,-284 445.062,-260.498 422.43,-230.859 452,-208 454.141,-206.345 456.383,-204.82 458.708,-203.415"/>
<polygon fill="midnightblue" stroke="midnightblue" points="460.773,-206.287 468.037,-198.574 457.549,-200.074 460.773,-206.287"/>
</g>
<!-- Node24 -->
<g id="node24" class="node"><title>Node24</title>
<g id="a_node24"><a xlink:href="../../d0/d7f/classengine_1_1game_object_1_1_game_object.html#ab09d473d8c2afe8cefb2ce2481bc66fd" target="_top" xlink:title="engine.gameObject.GameObject.set\lRenderedNode">
<polygon fill="white" stroke="black" points="457.5,-130 457.5,-160 648.5,-160 648.5,-130 457.5,-130"/>
<text text-anchor="start" x="465.5" y="-148" font-family="Helvetica,sans-Serif" font-size="10.00">engine.gameObject.GameObject.set</text>
<text text-anchor="middle" x="553" y="-137" font-family="Helvetica,sans-Serif" font-size="10.00">RenderedNode</text>
</a>
</g>
</g>
<!-- Node6&#45;&gt;Node24 -->
<g id="edge25" class="edge"><title>Node6&#45;&gt;Node24</title>
<path fill="none" stroke="midnightblue" d="M402.255,-293.973C407.205,-291.157 411.843,-287.859 416,-284 454.94,-247.85 413.303,-206.409 452,-170 453.515,-168.574 455.099,-167.227 456.742,-165.953"/>
<polygon fill="midnightblue" stroke="midnightblue" points="459.026,-168.637 465.407,-160.179 455.145,-162.812 459.026,-168.637"/>
</g>
<!-- Node9 -->
<g id="node9" class="node"><title>Node9</title>
<g id="a_node9"><a xlink:href="../../d0/d7f/classengine_1_1game_object_1_1_game_object.html#ae8b88e1cf489e935426e2e252defbae0" target="_top" xlink:title="engine.gameObject.GameObject.get\lCurrentImageName">
<polygon fill="white" stroke="black" points="690,-539 690,-569 882,-569 882,-539 690,-539"/>
<text text-anchor="start" x="698" y="-557" font-family="Helvetica,sans-Serif" font-size="10.00">engine.gameObject.GameObject.get</text>
<text text-anchor="middle" x="786" y="-546" font-family="Helvetica,sans-Serif" font-size="10.00">CurrentImageName</text>
</a>
</g>
</g>
<!-- Node8&#45;&gt;Node9 -->
<g id="edge8" class="edge"><title>Node8&#45;&gt;Node9</title>
<path fill="none" stroke="midnightblue" d="M624.877,-520.035C650.044,-525.373 678.55,-531.42 704.464,-536.917"/>
<polygon fill="midnightblue" stroke="midnightblue" points="703.748,-540.343 714.257,-538.994 705.201,-533.495 703.748,-540.343"/>
</g>
<!-- Node10 -->
<g id="node10" class="node"><title>Node10</title>
<g id="a_node10"><a xlink:href="../../d9/db5/classengine_1_1_file_path_utility.html#ad8a72da93bd719a750bd549ed92a37d7" target="_top" xlink:title="engine.FilePathUtility.get\lFilePath">
<polygon fill="white" stroke="black" points="720,-588 720,-618 852,-618 852,-588 720,-588"/>
<text text-anchor="start" x="728" y="-606" font-family="Helvetica,sans-Serif" font-size="10.00">engine.FilePathUtility.get</text>
<text text-anchor="middle" x="786" y="-595" font-family="Helvetica,sans-Serif" font-size="10.00">FilePath</text>
</a>
</g>
</g>
<!-- Node8&#45;&gt;Node10 -->
<g id="edge9" class="edge"><title>Node8&#45;&gt;Node10</title>
<path fill="none" stroke="midnightblue" d="M634.703,-519.903C641.495,-522.708 648.037,-526.04 654,-530 676.216,-544.751 667.876,-563.113 690,-578 696.128,-582.124 702.903,-585.568 709.928,-588.444"/>
<polygon fill="midnightblue" stroke="midnightblue" points="709.035,-591.845 719.628,-592.025 711.459,-585.278 709.035,-591.845"/>
</g>
<!-- Node11 -->
<g id="node11" class="node"><title>Node11</title>
<g id="a_node11"><a xlink:href="../../d0/d7f/classengine_1_1game_object_1_1_game_object.html#aaeb5730a3b51fe9cb3d817ea7172cfc2" target="_top" xlink:title="engine.gameObject.GameObject.get\lHeight">
<polygon fill="white" stroke="black" points="690,-441 690,-471 882,-471 882,-441 690,-441"/>
<text text-anchor="start" x="698" y="-459" font-family="Helvetica,sans-Serif" font-size="10.00">engine.gameObject.GameObject.get</text>
<text text-anchor="middle" x="786" y="-448" font-family="Helvetica,sans-Serif" font-size="10.00">Height</text>
</a>
</g>
</g>
<!-- Node8&#45;&gt;Node11 -->
<g id="edge10" class="edge"><title>Node8&#45;&gt;Node11</title>
<path fill="none" stroke="midnightblue" d="M624.877,-489.965C650.044,-484.627 678.55,-478.58 704.464,-473.083"/>
<polygon fill="midnightblue" stroke="midnightblue" points="705.201,-476.505 714.257,-471.006 703.748,-469.657 705.201,-476.505"/>
</g>
<!-- Node12 -->
<g id="node12" class="node"><title>Node12</title>
<g id="a_node12"><a xlink:href="../../d0/d7f/classengine_1_1game_object_1_1_game_object.html#a31aa2c854220621b49fc5575b50b9342" target="_top" xlink:title="engine.gameObject.GameObject.get\lWidth">
<polygon fill="white" stroke="black" points="690,-490 690,-520 882,-520 882,-490 690,-490"/>
<text text-anchor="start" x="698" y="-508" font-family="Helvetica,sans-Serif" font-size="10.00">engine.gameObject.GameObject.get</text>
<text text-anchor="middle" x="786" y="-497" font-family="Helvetica,sans-Serif" font-size="10.00">Width</text>
</a>
</g>
</g>
<!-- Node8&#45;&gt;Node12 -->
<g id="edge11" class="edge"><title>Node8&#45;&gt;Node12</title>
<path fill="none" stroke="midnightblue" d="M634.793,-505C649.275,-505 664.56,-505 679.614,-505"/>
<polygon fill="midnightblue" stroke="midnightblue" points="679.986,-508.5 689.986,-505 679.986,-501.5 679.986,-508.5"/>
</g>
<!-- Node15 -->
<g id="node15" class="node"><title>Node15</title>
<g id="a_node15"><a xlink:href="../../d0/d7f/classengine_1_1game_object_1_1_game_object.html#a60c5b6933aac9969491a3562a963c043" target="_top" xlink:title="engine.gameObject.GameObject.get\lPhysicsBody">
<polygon fill="white" stroke="black" points="690,-294 690,-324 882,-324 882,-294 690,-294"/>
<text text-anchor="start" x="698" y="-312" font-family="Helvetica,sans-Serif" font-size="10.00">engine.gameObject.GameObject.get</text>
<text text-anchor="middle" x="786" y="-301" font-family="Helvetica,sans-Serif" font-size="10.00">PhysicsBody</text>
</a>
</g>
</g>
<!-- Node14&#45;&gt;Node15 -->
<g id="edge14" class="edge"><title>Node14&#45;&gt;Node15</title>
<path fill="none" stroke="midnightblue" d="M624.877,-342.965C650.044,-337.627 678.55,-331.58 704.464,-326.083"/>
<polygon fill="midnightblue" stroke="midnightblue" points="705.201,-329.505 714.257,-324.006 703.748,-322.657 705.201,-329.505"/>
</g>
<!-- Node16 -->
<g id="node16" class="node"><title>Node16</title>
<g id="a_node16"><a xlink:href="../../d9/d9d/classengine_1_1game_object_1_1components_1_1_physics_body.html#aba2ed3bce8ee8e404907c88b144626fc" target="_top" xlink:title="engine.gameObject.components.\lPhysicsBody.getCollisionBodyHeight">
<polygon fill="white" stroke="black" points="692,-245 692,-275 880,-275 880,-245 692,-245"/>
<text text-anchor="start" x="700" y="-263" font-family="Helvetica,sans-Serif" font-size="10.00">engine.gameObject.components.</text>
<text text-anchor="middle" x="786" y="-252" font-family="Helvetica,sans-Serif" font-size="10.00">PhysicsBody.getCollisionBodyHeight</text>
</a>
</g>
</g>
<!-- Node14&#45;&gt;Node16 -->
<g id="edge15" class="edge"><title>Node14&#45;&gt;Node16</title>
<path fill="none" stroke="midnightblue" d="M630.646,-344.787C638.894,-341.657 646.868,-337.787 654,-333 676.439,-317.941 667.58,-299.087 690,-284 692.302,-282.451 694.697,-281.002 697.163,-279.646"/>
<polygon fill="midnightblue" stroke="midnightblue" points="698.926,-282.679 706.365,-275.135 695.845,-276.394 698.926,-282.679"/>
</g>
<!-- Node17 -->
<g id="node17" class="node"><title>Node17</title>
<g id="a_node17"><a xlink:href="../../d9/d9d/classengine_1_1game_object_1_1components_1_1_physics_body.html#ae64e43632570392c3118b3d00af853fc" target="_top" xlink:title="engine.gameObject.components.\lPhysicsBody.getCollisionBodyWidth">
<polygon fill="white" stroke="black" points="695,-343 695,-373 877,-373 877,-343 695,-343"/>
<text text-anchor="start" x="703" y="-361" font-family="Helvetica,sans-Serif" font-size="10.00">engine.gameObject.components.</text>
<text text-anchor="middle" x="786" y="-350" font-family="Helvetica,sans-Serif" font-size="10.00">PhysicsBody.getCollisionBodyWidth</text>
</a>
</g>
</g>
<!-- Node14&#45;&gt;Node17 -->
<g id="edge16" class="edge"><title>Node14&#45;&gt;Node17</title>
<path fill="none" stroke="midnightblue" d="M630.599,-358C647.996,-358 666.727,-358 684.936,-358"/>
<polygon fill="midnightblue" stroke="midnightblue" points="684.987,-361.5 694.987,-358 684.987,-354.5 684.987,-361.5"/>
</g>
<!-- Node19&#45;&gt;Node11 -->
<g id="edge20" class="edge"><title>Node19&#45;&gt;Node11</title>
<path fill="none" stroke="midnightblue" d="M626.14,-456C643.117,-456 661.557,-456 679.661,-456"/>
<polygon fill="midnightblue" stroke="midnightblue" points="679.673,-459.5 689.673,-456 679.673,-452.5 679.673,-459.5"/>
</g>
<!-- Node19&#45;&gt;Node12 -->
<g id="edge21" class="edge"><title>Node19&#45;&gt;Node12</title>
<path fill="none" stroke="midnightblue" d="M624.877,-471.035C650.044,-476.373 678.55,-482.42 704.464,-487.917"/>
<polygon fill="midnightblue" stroke="midnightblue" points="703.748,-491.343 714.257,-489.994 705.201,-484.495 703.748,-491.343"/>
</g>
<!-- Node20 -->
<g id="node20" class="node"><title>Node20</title>
<g id="a_node20"><a xlink:href="../../d0/d7f/classengine_1_1game_object_1_1_game_object.html#a5c379828f3bb19a91935f965c48a91a5" target="_top" xlink:title="engine.gameObject.GameObject.get\lLabel">
<polygon fill="white" stroke="black" points="690,-392 690,-422 882,-422 882,-392 690,-392"/>
<text text-anchor="start" x="698" y="-410" font-family="Helvetica,sans-Serif" font-size="10.00">engine.gameObject.GameObject.get</text>
<text text-anchor="middle" x="786" y="-399" font-family="Helvetica,sans-Serif" font-size="10.00">Label</text>
</a>
</g>
</g>
<!-- Node19&#45;&gt;Node20 -->
<g id="edge19" class="edge"><title>Node19&#45;&gt;Node20</title>
<path fill="none" stroke="midnightblue" d="M624.877,-440.965C650.044,-435.627 678.55,-429.58 704.464,-424.083"/>
<polygon fill="midnightblue" stroke="midnightblue" points="705.201,-427.505 714.257,-422.006 703.748,-420.657 705.201,-427.505"/>
</g>
</g>
</svg>
        <g id="navigator" transform="translate(0 0)" fill="#404254">
                <rect fill="#f2f5e9" fill-opacity="0.5" stroke="#606060" stroke-width=".5" x="0" y="0" width="60" height="60"/>
                <use id="zoomplus" xlink:href="#zoomPlus" x="17" y="9" onmousedown="handleZoom(evt,'in')"/>
                <use id="zoomminus" xlink:href="#zoomMin" x="42" y="9" onmousedown="handleZoom(evt,'out')"/>
                <use id="reset" xlink:href="#resetDef" x="30" y="36" onmousedown="handleReset()"/>
                <g id="arrowUp" xlink:href="#dirArrow" transform="translate(30 24)" onmousedown="handlePan(0,-1)">
                  <use xlink:href="#rim" fill="#404040">
                        <set attributeName="fill" to="#808080" begin="arrowUp.mouseover" end="arrowUp.mouseout"/>
                  </use>
                  <path fill="none" stroke="white" stroke-width="1.5" d="M0,-3.0v7 M-2.5,-0.5L0,-3.0L2.5,-0.5"/>
                </g>
                <g id="arrowRight" xlink:href="#dirArrow" transform="rotate(90) translate(36 -43)" onmousedown="handlePan(1,0)">
                  <use xlink:href="#rim" fill="#404040">
                        <set attributeName="fill" to="#808080" begin="arrowRight.mouseover" end="arrowRight.mouseout"/>
                  </use>
                  <path fill="none" stroke="white" stroke-width="1.5" d="M0,-3.0v7 M-2.5,-0.5L0,-3.0L2.5,-0.5"/>
                </g>
                <g id="arrowDown" xlink:href="#dirArrow" transform="rotate(180) translate(-30 -48)" onmousedown="handlePan(0,1)">
                  <use xlink:href="#rim" fill="#404040">
                        <set attributeName="fill" to="#808080" begin="arrowDown.mouseover" end="arrowDown.mouseout"/>
                  </use>
                  <path fill="none" stroke="white" stroke-width="1.5" d="M0,-3.0v7 M-2.5,-0.5L0,-3.0L2.5,-0.5"/>
                </g>
                <g id="arrowLeft" xlink:href="#dirArrow" transform="rotate(270) translate(-36 17)" onmousedown="handlePan(-1,0)">
                  <use xlink:href="#rim" fill="#404040">
                        <set attributeName="fill" to="#808080" begin="arrowLeft.mouseover" end="arrowLeft.mouseout"/>
                  </use>
                  <path fill="none" stroke="white" stroke-width="1.5" d="M0,-3.0v7 M-2.5,-0.5L0,-3.0L2.5,-0.5"/>
                </g>
        </g>
        <svg viewBox="0 0 15 15" width="100%" height="30px" preserveAspectRatio="xMaxYMin meet">
         <g id="arrow_out" transform="scale(0.3 0.3)">
          <a xlink:href="classengine_1_1actions_1_1_make_new_object_from_object_action_a01ffb165d6169f7b0a22733e2b6c61a9_cgraph_org.svg" target="_base">
           <rect id="button" ry="5" rx="5" y="6" x="6" height="38" width="38"
                fill="#f2f5e9" fill-opacity="0.5" stroke="#606060" stroke-width="1.0"/>
           <path id="arrow"
             d="M 11.500037,31.436501 C 11.940474,20.09759 22.043105,11.32322 32.158766,21.979434 L 37.068811,17.246167 C 37.068811,17.246167 37.088388,32 37.088388,32 L 22.160133,31.978069 C 22.160133,31.978069 26.997745,27.140456 26.997745,27.140456 C 18.528582,18.264221 13.291696,25.230495 11.500037,31.436501 z"
             style="fill:#404040;"/>
          </a>
         </g>
        </svg>
</svg>
