<?xml version="1.0" encoding="UTF-8" standalone="no"?>
<!DOCTYPE svg PUBLIC "-//W3C//DTD SVG 1.1//EN"
 "http://www.w3.org/Graphics/SVG/1.1/DTD/svg11.dtd">
<!-- Generated by graphviz version 2.36.0 (20140111.2315)
 -->
<!-- Title: engine.actions.MakeNewObjectFromObjectAction Pages: 1 -->
<svg width="1670pt" height="850pt"
 viewBox="0.00 0.00 1670.00 850.00" xmlns="http://www.w3.org/2000/svg" xmlns:xlink="http://www.w3.org/1999/xlink">
<g id="graph0" class="graph" transform="scale(1 1) rotate(0) translate(4 846)">
<title>engine.actions.MakeNewObjectFromObjectAction</title>
<polygon fill="white" stroke="none" points="-4,4 -4,-846 1666,-846 1666,4 -4,4"/>
<!-- Node1 -->
<g id="node1" class="node"><title>Node1</title>
<polygon fill="#bfbfbf" stroke="black" points="1496,-424 1496,-454 1662,-454 1662,-424 1496,-424"/>
<text text-anchor="start" x="1504" y="-442" font-family="Helvetica,sans-Serif" font-size="10.00">engine.actions.MakeNewObject</text>
<text text-anchor="middle" x="1579" y="-431" font-family="Helvetica,sans-Serif" font-size="10.00">FromObjectAction</text>
</g>
<!-- Node2 -->
<g id="node2" class="node"><title>Node2</title>
<g id="a_node2"><a xlink:href="../../d2/dc5/classengine_1_1actions_1_1_make_new_object_action.html" target="_top" xlink:title="engine.actions.MakeNewObject\lAction">
<polygon fill="white" stroke="black" points="1240,-638 1240,-668 1406,-668 1406,-638 1240,-638"/>
<text text-anchor="start" x="1248" y="-656" font-family="Helvetica,sans-Serif" font-size="10.00">engine.actions.MakeNewObject</text>
<text text-anchor="middle" x="1323" y="-645" font-family="Helvetica,sans-Serif" font-size="10.00">Action</text>
</a>
</g>
</g>
<!-- Node2&#45;&gt;Node1 -->
<g id="edge1" class="edge"><title>Node2&#45;&gt;Node1</title>
<path fill="none" stroke="midnightblue" d="M1349.55,-631.472C1401,-588.13 1515.91,-491.311 1560.16,-454.031"/>
<polygon fill="midnightblue" stroke="midnightblue" points="1347.25,-628.832 1341.86,-637.952 1351.76,-634.185 1347.25,-628.832"/>
</g>
<!-- Node3 -->
<g id="node3" class="node"><title>Node3</title>
<g id="a_node3"><a xlink:href="../../d9/dd2/interfaceengine_1_1actions_1_1_action.html" target="_top" xlink:title="engine.actions.Action">
<polygon fill="white" stroke="black" points="962.5,-643.5 962.5,-662.5 1081.5,-662.5 1081.5,-643.5 962.5,-643.5"/>
<text text-anchor="middle" x="1022" y="-650.5" font-family="Helvetica,sans-Serif" font-size="10.00">engine.actions.Action</text>
</a>
</g>
</g>
<!-- Node3&#45;&gt;Node2 -->
<g id="edge2" class="edge"><title>Node3&#45;&gt;Node2</title>
<path fill="none" stroke="midnightblue" d="M1091.77,-653C1135.9,-653 1193.43,-653 1239.94,-653"/>
<polygon fill="midnightblue" stroke="midnightblue" points="1091.72,-649.5 1081.72,-653 1091.72,-656.5 1091.72,-649.5"/>
</g>
<!-- Node4 -->
<g id="node4" class="node"><title>Node4</title>
<g id="a_node4"><a xlink:href="../../d2/d15/interfaceengine_1_1actions_1_1_initializable.html" target="_top" xlink:title="engine.actions.Initializable">
<polygon fill="white" stroke="black" points="609,-612.5 609,-631.5 751,-631.5 751,-612.5 609,-612.5"/>
<text text-anchor="middle" x="680" y="-619.5" font-family="Helvetica,sans-Serif" font-size="10.00">engine.actions.Initializable</text>
</a>
</g>
</g>
<!-- Node4&#45;&gt;Node2 -->
<g id="edge4" class="edge"><title>Node4&#45;&gt;Node2</title>
<path fill="none" stroke="midnightblue" d="M761.524,-622.778C847.785,-623.956 988.672,-626.873 1110,-634 1152.88,-636.519 1200.54,-640.668 1239.78,-644.448"/>
<polygon fill="midnightblue" stroke="midnightblue" points="761.325,-619.275 751.28,-622.643 761.233,-626.275 761.325,-619.275"/>
</g>
<!-- Node4&#45;&gt;Node3 -->
<g id="edge3" class="edge"><title>Node4&#45;&gt;Node3</title>
<path fill="none" stroke="midnightblue" d="M761.132,-629.306C822.87,-634.935 906.802,-642.588 962.374,-647.655"/>
<polygon fill="midnightblue" stroke="midnightblue" points="761.312,-625.808 751.036,-628.386 760.677,-632.779 761.312,-625.808"/>
</g>
<!-- Node5 -->
<g id="node5" class="node"><title>Node5</title>
<g id="a_node5"><a xlink:href="../../df/de5/classengine_1_1render_1_1_game_object_renderer.html" target="_top" xlink:title="engine.render.GameObject\lRenderer">
<polygon fill="white" stroke="black" points="949,-682 949,-712 1095,-712 1095,-682 949,-682"/>
<text text-anchor="start" x="957" y="-700" font-family="Helvetica,sans-Serif" font-size="10.00">engine.render.GameObject</text>
<text text-anchor="middle" x="1022" y="-689" font-family="Helvetica,sans-Serif" font-size="10.00">Renderer</text>
</a>
</g>
</g>
<!-- Node5&#45;&gt;Node2 -->
<g id="edge5" class="edge"><title>Node5&#45;&gt;Node2</title>
<path fill="none" stroke="#9a32cd" stroke-dasharray="5,2" d="M1105.29,-684.891C1147.23,-678.718 1198.09,-671.234 1240,-665.067"/>
<polygon fill="#9a32cd" stroke="#9a32cd" points="1104.76,-681.43 1095.38,-686.349 1105.78,-688.356 1104.76,-681.43"/>
<text text-anchor="middle" x="1173" y="-685" font-family="Helvetica,sans-Serif" font-size="10.00"> myRenderer</text>
</g>
<!-- Node6 -->
<g id="node6" class="node"><title>Node6</title>
<polygon fill="white" stroke="#bfbfbf" points="598,-692 598,-722 762,-722 762,-692 598,-692"/>
<text text-anchor="start" x="606" y="-710" font-family="Helvetica,sans-Serif" font-size="10.00">Map&lt; Identifier, engine.render.</text>
<text text-anchor="middle" x="680" y="-699" font-family="Helvetica,sans-Serif" font-size="10.00">RenderedNode &gt;</text>
</g>
<!-- Node6&#45;&gt;Node5 -->
<g id="edge6" class="edge"><title>Node6&#45;&gt;Node5</title>
<path fill="none" stroke="#9a32cd" stroke-dasharray="5,2" d="M772.185,-704.318C827.63,-702.687 897.44,-700.634 948.993,-699.118"/>
<polygon fill="#9a32cd" stroke="#9a32cd" points="771.899,-700.825 762.007,-704.617 772.105,-707.822 771.899,-700.825"/>
<text text-anchor="middle" x="858" y="-707" font-family="Helvetica,sans-Serif" font-size="10.00"> myRenderedNodes</text>
</g>
<!-- Node7 -->
<g id="node7" class="node"><title>Node7</title>
<g id="a_node7"><a xlink:href="../../df/d84/classengine_1_1level_1_1_level.html" target="_top" xlink:title="engine.level.Level">
<polygon fill="white" stroke="black" points="629.5,-741.5 629.5,-760.5 730.5,-760.5 730.5,-741.5 629.5,-741.5"/>
<text text-anchor="middle" x="680" y="-748.5" font-family="Helvetica,sans-Serif" font-size="10.00">engine.level.Level</text>
</a>
</g>
</g>
<!-- Node7&#45;&gt;Node2 -->
<g id="edge20" class="edge"><title>Node7&#45;&gt;Node2</title>
<path fill="none" stroke="#9a32cd" stroke-dasharray="5,2" d="M740.522,-751.598C759.527,-751.763 780.648,-751.919 800,-752 851.555,-752.217 864.606,-756.08 916,-752 1052,-741.202 1088.05,-738.548 1218,-697 1243.02,-689 1270.34,-677.319 1290.7,-668.003"/>
<polygon fill="#9a32cd" stroke="#9a32cd" points="740.533,-748.098 730.502,-751.509 740.47,-755.098 740.533,-748.098"/>
<text text-anchor="middle" x="1022" y="-754" font-family="Helvetica,sans-Serif" font-size="10.00"> myCurrentLevel</text>
</g>
<!-- Node7&#45;&gt;Node5 -->
<g id="edge7" class="edge"><title>Node7&#45;&gt;Node5</title>
<path fill="none" stroke="#9a32cd" stroke-dasharray="5,2" d="M740.804,-744.049C788.406,-738.229 856.652,-729.245 916,-719 927.93,-716.941 940.571,-714.509 952.792,-712.026"/>
<polygon fill="#9a32cd" stroke="#9a32cd" points="740.177,-740.599 730.671,-745.278 741.02,-747.548 740.177,-740.599"/>
<text text-anchor="middle" x="858" y="-740" font-family="Helvetica,sans-Serif" font-size="10.00"> myCurrentLevel</text>
</g>
<!-- Node8 -->
<g id="node8" class="node"><title>Node8</title>
<g id="a_node8"><a xlink:href="../../d3/d8d/classdata_1_1_observable.html" target="_top" xlink:title="data.Observable">
<polygon fill="white" stroke="black" points="285.5,-821.5 285.5,-840.5 380.5,-840.5 380.5,-821.5 285.5,-821.5"/>
<text text-anchor="middle" x="333" y="-828.5" font-family="Helvetica,sans-Serif" font-size="10.00">data.Observable</text>
</a>
</g>
</g>
<!-- Node8&#45;&gt;Node7 -->
<g id="edge8" class="edge"><title>Node8&#45;&gt;Node7</title>
<path fill="none" stroke="midnightblue" d="M390.995,-825.492C437.1,-820.247 503.424,-810.904 560,-796 595.028,-786.772 634.014,-770.899 657.512,-760.683"/>
<polygon fill="midnightblue" stroke="midnightblue" points="390.447,-822.032 380.894,-826.613 391.219,-828.989 390.447,-822.032"/>
</g>
<!-- Node9 -->
<g id="node9" class="node"><title>Node9</title>
<polygon fill="white" stroke="#bfbfbf" points="23,-821.5 23,-840.5 161,-840.5 161,-821.5 23,-821.5"/>
<text text-anchor="middle" x="92" y="-828.5" font-family="Helvetica,sans-Serif" font-size="10.00">Vector&lt; data.Observer &gt;</text>
</g>
<!-- Node9&#45;&gt;Node8 -->
<g id="edge9" class="edge"><title>Node9&#45;&gt;Node8</title>
<path fill="none" stroke="#9a32cd" stroke-dasharray="5,2" d="M171.605,-831C209.239,-831 253.027,-831 285.333,-831"/>
<polygon fill="#9a32cd" stroke="#9a32cd" points="171.168,-827.5 161.168,-831 171.168,-834.5 171.168,-827.5"/>
<text text-anchor="middle" x="213" y="-834" font-family="Helvetica,sans-Serif" font-size="10.00"> obs</text>
</g>
<!-- Node10 -->
<g id="node10" class="node"><title>Node10</title>
<g id="a_node10"><a xlink:href="../../dc/df6/interfaceengine_1_1game_object_1_1_identifiable.html" target="_top" xlink:title="engine.gameObject.Identifiable">
<polygon fill="white" stroke="black" points="250.5,-484.5 250.5,-503.5 415.5,-503.5 415.5,-484.5 250.5,-484.5"/>
<text text-anchor="middle" x="333" y="-491.5" font-family="Helvetica,sans-Serif" font-size="10.00">engine.gameObject.Identifiable</text>
</a>
</g>
</g>
<!-- Node10&#45;&gt;Node7 -->
<g id="edge10" class="edge"><title>Node10&#45;&gt;Node7</title>
<path fill="none" stroke="midnightblue" d="M351.056,-510.628C406.203,-564.386 576.248,-730.081 578,-731 593.671,-739.222 612.326,-744.075 629.313,-746.936"/>
<polygon fill="midnightblue" stroke="midnightblue" points="353.39,-508.016 343.786,-503.542 348.504,-513.028 353.39,-508.016"/>
</g>
<!-- Node18 -->
<g id="node18" class="node"><title>Node18</title>
<g id="a_node18"><a xlink:href="../../d0/d7f/classengine_1_1game_object_1_1_game_object.html" target="_top" xlink:title="engine.gameObject.GameObject">
<polygon fill="white" stroke="black" points="1236.5,-279.5 1236.5,-298.5 1409.5,-298.5 1409.5,-279.5 1236.5,-279.5"/>
<text text-anchor="middle" x="1323" y="-286.5" font-family="Helvetica,sans-Serif" font-size="10.00">engine.gameObject.GameObject</text>
</a>
</g>
</g>
<!-- Node10&#45;&gt;Node18 -->
<g id="edge25" class="edge"><title>Node10&#45;&gt;Node18</title>
<path fill="none" stroke="midnightblue" d="M425.62,-496.111C603.087,-499.085 987.07,-499.771 1110,-454 1202.66,-419.499 1287.24,-328.985 1313.58,-298.89"/>
<polygon fill="midnightblue" stroke="midnightblue" points="425.581,-492.609 415.521,-495.935 425.459,-499.608 425.581,-492.609"/>
</g>
<!-- Node11 -->
<g id="node11" class="node"><title>Node11</title>
<g id="a_node11"><a xlink:href="../../d4/dac/classengine_1_1game_object_1_1_identifier.html" target="_top" xlink:title="engine.gameObject.Identifier">
<polygon fill="white" stroke="black" points="255.5,-436.5 255.5,-455.5 410.5,-455.5 410.5,-436.5 255.5,-436.5"/>
<text text-anchor="middle" x="333" y="-443.5" font-family="Helvetica,sans-Serif" font-size="10.00">engine.gameObject.Identifier</text>
</a>
</g>
</g>
<!-- Node11&#45;&gt;Node1 -->
<g id="edge21" class="edge"><title>Node11&#45;&gt;Node1</title>
<path fill="none" stroke="#9a32cd" stroke-dasharray="5,2" d="M421.198,-445.509C651.065,-444.216 1271.25,-440.726 1495.59,-439.464"/>
<polygon fill="#9a32cd" stroke="#9a32cd" points="420.859,-442.011 410.879,-445.567 420.899,-449.011 420.859,-442.011"/>
<text text-anchor="middle" x="1022" y="-446" font-family="Helvetica,sans-Serif" font-size="10.00"> objectID</text>
</g>
<!-- Node11&#45;&gt;Node7 -->
<g id="edge11" class="edge"><title>Node11&#45;&gt;Node7</title>
<path fill="none" stroke="#9a32cd" stroke-dasharray="5,2" d="M384.742,-458.546C397.955,-462.823 411.877,-468.269 424,-475 493.207,-513.423 522.194,-520.454 560,-590 590.172,-645.504 534.885,-684.824 578,-731 591.053,-744.98 610.839,-750.767 629.45,-752.769"/>
<polygon fill="#9a32cd" stroke="#9a32cd" points="385.405,-455.088 374.818,-455.502 383.352,-461.781 385.405,-455.088"/>
<text text-anchor="middle" x="501" y="-593" font-family="Helvetica,sans-Serif" font-size="10.00"> myId</text>
</g>
<!-- Node11&#45;&gt;Node18 -->
<g id="edge26" class="edge"><title>Node11&#45;&gt;Node18</title>
<path fill="none" stroke="#9a32cd" stroke-dasharray="5,2" d="M371.246,-433.325C391.863,-426.814 418.085,-419.354 442,-415 735.04,-361.648 815.279,-404.111 1110,-361 1158.56,-353.897 1171.49,-353.674 1218,-338 1249.78,-327.291 1284.63,-309.535 1304.85,-298.593"/>
<polygon fill="#9a32cd" stroke="#9a32cd" points="370.057,-430.031 361.61,-436.427 372.202,-436.694 370.057,-430.031"/>
<text text-anchor="middle" x="858" y="-387" font-family="Helvetica,sans-Serif" font-size="10.00"> myId</text>
</g>
<!-- Node12 -->
<g id="node12" class="node"><title>Node12</title>
<polygon fill="white" stroke="#bfbfbf" points="64,-499.5 64,-518.5 120,-518.5 120,-499.5 64,-499.5"/>
<text text-anchor="middle" x="92" y="-506.5" font-family="Helvetica,sans-Serif" font-size="10.00">Random</text>
</g>
<!-- Node12&#45;&gt;Node2 -->
<g id="edge19" class="edge"><title>Node12&#45;&gt;Node2</title>
<path fill="none" stroke="#9a32cd" stroke-dasharray="5,2" d="M130.55,-510.461C255.141,-515.415 654.194,-532.144 782,-548 977.84,-572.297 1024.39,-593.803 1218,-632 1227.67,-633.907 1237.84,-635.935 1247.88,-637.949"/>
<polygon fill="#9a32cd" stroke="#9a32cd" points="130.5,-506.957 120.369,-510.059 130.223,-513.951 130.5,-506.957"/>
<text text-anchor="middle" x="680" y="-551" font-family="Helvetica,sans-Serif" font-size="10.00"> r</text>
</g>
<!-- Node12&#45;&gt;Node11 -->
<g id="edge12" class="edge"><title>Node12&#45;&gt;Node11</title>
<path fill="none" stroke="#9a32cd" stroke-dasharray="5,2" d="M130.097,-499.221C175.187,-487.336 250.785,-467.408 295.571,-455.603"/>
<polygon fill="#9a32cd" stroke="#9a32cd" points="129.194,-495.84 120.416,-501.773 130.978,-502.609 129.194,-495.84"/>
<text text-anchor="middle" x="213" y="-483" font-family="Helvetica,sans-Serif" font-size="10.00"> r</text>
</g>
<!-- Node13 -->
<g id="node13" class="node"><title>Node13</title>
<g id="a_node13"><a xlink:href="../../d1/d32/classauthoring_1_1model_1_1collections_1_1_game_objects_collection.html" target="_top" xlink:title="authoring.model.collections.\lGameObjectsCollection">
<polygon fill="white" stroke="black" points="257,-765 257,-795 409,-795 409,-765 257,-765"/>
<text text-anchor="start" x="265" y="-783" font-family="Helvetica,sans-Serif" font-size="10.00">authoring.model.collections.</text>
<text text-anchor="middle" x="333" y="-772" font-family="Helvetica,sans-Serif" font-size="10.00">GameObjectsCollection</text>
</a>
</g>
</g>
<!-- Node13&#45;&gt;Node2 -->
<g id="edge18" class="edge"><title>Node13&#45;&gt;Node2</title>
<path fill="none" stroke="#9a32cd" stroke-dasharray="5,2" d="M419.241,-790.358C426.928,-791.024 434.6,-791.59 442,-792 494.364,-794.9 507.57,-793.239 560,-792 804.649,-786.221 870.611,-816.79 1110,-766 1160.38,-755.311 1172.44,-748.008 1218,-724 1249.33,-707.49 1282.66,-683.443 1302.9,-668.01"/>
<polygon fill="#9a32cd" stroke="#9a32cd" points="419.429,-786.86 409.15,-789.431 418.788,-793.831 419.429,-786.86"/>
<text text-anchor="middle" x="858" y="-798" font-family="Helvetica,sans-Serif" font-size="10.00"> myMasterList</text>
</g>
<!-- Node13&#45;&gt;Node7 -->
<g id="edge13" class="edge"><title>Node13&#45;&gt;Node7</title>
<path fill="none" stroke="#9a32cd" stroke-dasharray="5,2" d="M419.306,-772.003C426.979,-771.313 434.63,-770.637 442,-770 506.566,-764.423 581.077,-758.54 629.05,-754.825"/>
<polygon fill="#9a32cd" stroke="#9a32cd" points="418.873,-768.528 409.229,-772.914 419.503,-775.499 418.873,-768.528"/>
<text text-anchor="middle" x="501" y="-784" font-family="Helvetica,sans-Serif" font-size="10.00"> myDefaultGameObjects</text>
<text text-anchor="middle" x="501" y="-773" font-family="Helvetica,sans-Serif" font-size="10.00">myWorkingGameObjects</text>
</g>
<!-- Node14 -->
<g id="node14" class="node"><title>Node14</title>
<g id="a_node14"><a xlink:href="../../d4/d3b/classauthoring_1_1model_1_1collections_1_1_general_collection.html" target="_top" xlink:title="authoring.model.collections.\lGeneralCollection\&lt; GameObject \&gt;">
<polygon fill="white" stroke="black" points="0.5,-765 0.5,-795 183.5,-795 183.5,-765 0.5,-765"/>
<text text-anchor="start" x="8.5" y="-783" font-family="Helvetica,sans-Serif" font-size="10.00">authoring.model.collections.</text>
<text text-anchor="middle" x="92" y="-772" font-family="Helvetica,sans-Serif" font-size="10.00">GeneralCollection&lt; GameObject &gt;</text>
</a>
</g>
</g>
<!-- Node14&#45;&gt;Node13 -->
<g id="edge14" class="edge"><title>Node14&#45;&gt;Node13</title>
<path fill="none" stroke="midnightblue" d="M193.979,-780C215.077,-780 236.965,-780 256.925,-780"/>
<polygon fill="midnightblue" stroke="midnightblue" points="193.696,-776.5 183.696,-780 193.696,-783.5 193.696,-776.5"/>
</g>
<!-- Node15 -->
<g id="node15" class="node"><title>Node15</title>
<polygon fill="white" stroke="#bfbfbf" points="262.5,-709 262.5,-739 403.5,-739 403.5,-709 262.5,-709"/>
<text text-anchor="start" x="270.5" y="-727" font-family="Helvetica,sans-Serif" font-size="10.00">List&lt; engine.gameObject.</text>
<text text-anchor="middle" x="333" y="-716" font-family="Helvetica,sans-Serif" font-size="10.00">Identifier &gt;</text>
</g>
<!-- Node15&#45;&gt;Node7 -->
<g id="edge15" class="edge"><title>Node15&#45;&gt;Node7</title>
<path fill="none" stroke="#9a32cd" stroke-dasharray="5,2" d="M413.946,-718.225C457.42,-716.618 511.971,-717.097 560,-725 568.321,-726.369 569.848,-728.843 578,-731 594.59,-735.389 612.94,-739.298 629.398,-742.471"/>
<polygon fill="#9a32cd" stroke="#9a32cd" points="413.56,-714.738 403.713,-718.649 413.85,-721.732 413.56,-714.738"/>
<text text-anchor="middle" x="501" y="-739" font-family="Helvetica,sans-Serif" font-size="10.00"> myConditionIdList</text>
<text text-anchor="middle" x="501" y="-728" font-family="Helvetica,sans-Serif" font-size="10.00">myGameObjectIdList</text>
</g>
<!-- Node16 -->
<g id="node16" class="node"><title>Node16</title>
<polygon fill="white" stroke="#bfbfbf" points="657,-568.5 657,-587.5 703,-587.5 703,-568.5 657,-568.5"/>
<text text-anchor="middle" x="680" y="-575.5" font-family="Helvetica,sans-Serif" font-size="10.00">Group</text>
</g>
<!-- Node16&#45;&gt;Node5 -->
<g id="edge16" class="edge"><title>Node16&#45;&gt;Node5</title>
<path fill="none" stroke="#9a32cd" stroke-dasharray="5,2" d="M713.219,-584.597C733.241,-589.035 759.386,-595.445 782,-603 843.385,-623.507 859.052,-629.251 916,-660 924.46,-664.568 925.276,-667.958 934,-672 942.128,-675.766 950.949,-679.094 959.752,-681.993"/>
<polygon fill="#9a32cd" stroke="#9a32cd" points="713.872,-581.158 703.358,-582.461 712.39,-587.999 713.872,-581.158"/>
<text text-anchor="middle" x="858" y="-663" font-family="Helvetica,sans-Serif" font-size="10.00"> myCanvas</text>
</g>
<!-- Node24 -->
<g id="node24" class="node"><title>Node24</title>
<g id="a_node24"><a xlink:href="../../d2/d82/classengine_1_1render_1_1_rendered_node.html" target="_top" xlink:title="engine.render.RenderedNode">
<polygon fill="white" stroke="black" points="944,-260.5 944,-279.5 1100,-279.5 1100,-260.5 944,-260.5"/>
<text text-anchor="middle" x="1022" y="-267.5" font-family="Helvetica,sans-Serif" font-size="10.00">engine.render.RenderedNode</text>
</a>
</g>
</g>
<!-- Node16&#45;&gt;Node24 -->
<g id="edge31" class="edge"><title>Node16&#45;&gt;Node24</title>
<path fill="none" stroke="midnightblue" d="M713.197,-574.056C733.975,-570.425 760.952,-563.604 782,-551 856.725,-506.253 877.996,-486.37 916,-408 939.34,-359.87 897.423,-328.031 934,-289 937.489,-285.277 941.524,-282.199 945.906,-279.66"/>
<polygon fill="midnightblue" stroke="midnightblue" points="712.581,-570.61 703.254,-575.636 713.68,-577.524 712.581,-570.61"/>
</g>
<!-- Node17 -->
<g id="node17" class="node"><title>Node17</title>
<g id="a_node17"><a xlink:href="../../d9/db5/classengine_1_1_file_path_utility.html" target="_top" xlink:title="engine.FilePathUtility">
<polygon fill="white" stroke="black" points="622.5,-653.5 622.5,-672.5 737.5,-672.5 737.5,-653.5 622.5,-653.5"/>
<text text-anchor="middle" x="680" y="-660.5" font-family="Helvetica,sans-Serif" font-size="10.00">engine.FilePathUtility</text>
</a>
</g>
</g>
<!-- Node17&#45;&gt;Node5 -->
<g id="edge17" class="edge"><title>Node17&#45;&gt;Node5</title>
<path fill="none" stroke="#9a32cd" stroke-dasharray="5,2" d="M747.582,-669.395C794.64,-673.944 859.195,-680.245 916,-686 926.668,-687.081 937.943,-688.242 948.991,-689.391"/>
<polygon fill="#9a32cd" stroke="#9a32cd" points="747.806,-665.9 737.516,-668.422 747.133,-672.868 747.806,-665.9"/>
<text text-anchor="middle" x="858" y="-689" font-family="Helvetica,sans-Serif" font-size="10.00"> myFilePathUtility</text>
</g>
<!-- Node18&#45;&gt;Node1 -->
<g id="edge22" class="edge"><title>Node18&#45;&gt;Node1</title>
<path fill="none" stroke="#9a32cd" stroke-dasharray="5,2" d="M1349.18,-303.868C1397.68,-332.513 1503.59,-395.06 1552.42,-423.892"/>
<polygon fill="#9a32cd" stroke="#9a32cd" points="1350.67,-300.683 1340.28,-298.611 1347.11,-306.71 1350.67,-300.683"/>
<text text-anchor="middle" x="1453" y="-381" font-family="Helvetica,sans-Serif" font-size="10.00"> myObject</text>
</g>
<!-- Node19 -->
<g id="node19" class="node"><title>Node19</title>
<g id="a_node19"><a xlink:href="../../d7/de6/interfaceengine_1_1game_object_1_1_i_enabled.html" target="_top" xlink:title="engine.gameObject.IEnabled">
<polygon fill="white" stroke="black" points="945,-119.5 945,-138.5 1099,-138.5 1099,-119.5 945,-119.5"/>
<text text-anchor="middle" x="1022" y="-126.5" font-family="Helvetica,sans-Serif" font-size="10.00">engine.gameObject.IEnabled</text>
</a>
</g>
</g>
<!-- Node19&#45;&gt;Node18 -->
<g id="edge23" class="edge"><title>Node19&#45;&gt;Node18</title>
<path fill="none" stroke="midnightblue" d="M1088.84,-141.118C1096.07,-143.115 1103.26,-145.399 1110,-148 1195.78,-181.083 1282.12,-253.488 1311.48,-279.477"/>
<polygon fill="midnightblue" stroke="midnightblue" points="1089.53,-137.682 1078.98,-138.57 1087.78,-144.46 1089.53,-137.682"/>
</g>
<!-- Node20 -->
<g id="node20" class="node"><title>Node20</title>
<polygon fill="white" stroke="#bfbfbf" points="956.5,-81.5 956.5,-100.5 1087.5,-100.5 1087.5,-81.5 956.5,-81.5"/>
<text text-anchor="middle" x="1022" y="-88.5" font-family="Helvetica,sans-Serif" font-size="10.00">Iterable&lt; Component &gt;</text>
</g>
<!-- Node20&#45;&gt;Node18 -->
<g id="edge24" class="edge"><title>Node20&#45;&gt;Node18</title>
<path fill="none" stroke="midnightblue" d="M1098,-102.011C1136.78,-110.618 1183.16,-125.726 1218,-152 1266.87,-188.861 1304.16,-254.538 1317.08,-279.243"/>
<polygon fill="midnightblue" stroke="midnightblue" points="1098.3,-98.4984 1087.79,-99.8562 1096.85,-105.347 1098.3,-98.4984"/>
</g>
<!-- Node21 -->
<g id="node21" class="node"><title>Node21</title>
<g id="a_node21"><a xlink:href="../../da/d35/classengine_1_1scrolling_1_1_scrolling_utility.html" target="_top" xlink:title="engine.scrolling.Scrolling\lUtility">
<polygon fill="white" stroke="black" points="955,-15 955,-45 1089,-45 1089,-15 955,-15"/>
<text text-anchor="start" x="963" y="-33" font-family="Helvetica,sans-Serif" font-size="10.00">engine.scrolling.Scrolling</text>
<text text-anchor="middle" x="1022" y="-22" font-family="Helvetica,sans-Serif" font-size="10.00">Utility</text>
</a>
</g>
</g>
<!-- Node21&#45;&gt;Node18 -->
<g id="edge27" class="edge"><title>Node21&#45;&gt;Node18</title>
<path fill="none" stroke="#9a32cd" stroke-dasharray="5,2" d="M1098.96,-41.4849C1138.06,-50.5872 1184.42,-66.6996 1218,-95 1280.54,-147.698 1311.19,-247.857 1319.57,-279.303"/>
<polygon fill="#9a32cd" stroke="#9a32cd" points="1099.72,-38.0665 1089.19,-39.3186 1098.2,-44.9005 1099.72,-38.0665"/>
<text text-anchor="middle" x="1173" y="-98" font-family="Helvetica,sans-Serif" font-size="10.00"> myScrollingUtility</text>
</g>
<!-- Node22 -->
<g id="node22" class="node"><title>Node22</title>
<polygon fill="white" stroke="#bfbfbf" points="652.5,-0.5 652.5,-19.5 707.5,-19.5 707.5,-0.5 652.5,-0.5"/>
<text text-anchor="middle" x="680" y="-7.5" font-family="Helvetica,sans-Serif" font-size="10.00">Camera</text>
</g>
<!-- Node22&#45;&gt;Node21 -->
<g id="edge28" class="edge"><title>Node22&#45;&gt;Node21</title>
<path fill="none" stroke="#9a32cd" stroke-dasharray="5,2" d="M718.003,-9.41141C764.361,-8.99039 846.194,-9.2922 916,-15 928.572,-16.028 941.934,-17.5798 954.762,-19.3015"/>
<polygon fill="#9a32cd" stroke="#9a32cd" points="717.8,-5.91329 707.839,-9.52074 717.876,-12.9129 717.8,-5.91329"/>
<text text-anchor="middle" x="858" y="-18" font-family="Helvetica,sans-Serif" font-size="10.00"> myCamera</text>
</g>
<!-- Node23 -->
<g id="node23" class="node"><title>Node23</title>
<polygon fill="white" stroke="#bfbfbf" points="578,-332 578,-362 782,-362 782,-332 578,-332"/>
<text text-anchor="start" x="586" y="-350" font-family="Helvetica,sans-Serif" font-size="10.00">List&lt; engine.gameObject.components.</text>
<text text-anchor="middle" x="680" y="-339" font-family="Helvetica,sans-Serif" font-size="10.00">Component &gt;</text>
</g>
<!-- Node23&#45;&gt;Node18 -->
<g id="edge29" class="edge"><title>Node23&#45;&gt;Node18</title>
<path fill="none" stroke="#9a32cd" stroke-dasharray="5,2" d="M792.356,-348.641C901.605,-348.41 1072.51,-343.124 1218,-317 1243.21,-312.473 1271.23,-304.772 1291.82,-298.591"/>
<polygon fill="#9a32cd" stroke="#9a32cd" points="792.305,-345.141 782.308,-348.648 792.31,-352.141 792.305,-345.141"/>
<text text-anchor="middle" x="1022" y="-349" font-family="Helvetica,sans-Serif" font-size="10.00"> myComponents</text>
</g>
<!-- Node34 -->
<g id="node34" class="node"><title>Node34</title>
<g id="a_node34"><a xlink:href="../../d6/d66/classengine_1_1game_object_1_1_default_data.html" target="_top" xlink:title="engine.gameObject.DefaultData">
<polygon fill="white" stroke="black" points="936.5,-298.5 936.5,-317.5 1107.5,-317.5 1107.5,-298.5 936.5,-298.5"/>
<text text-anchor="middle" x="1022" y="-305.5" font-family="Helvetica,sans-Serif" font-size="10.00">engine.gameObject.DefaultData</text>
</a>
</g>
</g>
<!-- Node23&#45;&gt;Node34 -->
<g id="edge42" class="edge"><title>Node23&#45;&gt;Node34</title>
<path fill="none" stroke="#9a32cd" stroke-dasharray="5,2" d="M792.318,-332.908C794.903,-332.6 797.467,-332.297 800,-332 845.039,-326.716 895.291,-321.227 936.482,-316.834"/>
<polygon fill="#9a32cd" stroke="#9a32cd" points="791.772,-329.448 782.261,-334.116 792.607,-336.399 791.772,-329.448"/>
<text text-anchor="middle" x="858" y="-335" font-family="Helvetica,sans-Serif" font-size="10.00"> myComponents</text>
</g>
<!-- Node24&#45;&gt;Node18 -->
<g id="edge30" class="edge"><title>Node24&#45;&gt;Node18</title>
<path fill="none" stroke="#9a32cd" stroke-dasharray="5,2" d="M1110.71,-269.513C1144.31,-269.925 1182.98,-271.126 1218,-274 1233.27,-275.253 1249.72,-277.299 1264.93,-279.482"/>
<polygon fill="#9a32cd" stroke="#9a32cd" points="1110.49,-266.01 1100.45,-269.409 1110.42,-273.01 1110.49,-266.01"/>
<text text-anchor="middle" x="1173" y="-277" font-family="Helvetica,sans-Serif" font-size="10.00"> myRenderedNode</text>
</g>
<!-- Node25 -->
<g id="node25" class="node"><title>Node25</title>
<polygon fill="white" stroke="#bfbfbf" points="659,-215.5 659,-234.5 701,-234.5 701,-215.5 659,-215.5"/>
<text text-anchor="middle" x="680" y="-222.5" font-family="Helvetica,sans-Serif" font-size="10.00">Label</text>
</g>
<!-- Node25&#45;&gt;Node24 -->
<g id="edge32" class="edge"><title>Node25&#45;&gt;Node24</title>
<path fill="none" stroke="#9a32cd" stroke-dasharray="5,2" d="M711.443,-226.915C756.372,-229.982 843.004,-236.815 916,-248 937.356,-251.272 960.917,-256.096 980.3,-260.394"/>
<polygon fill="#9a32cd" stroke="#9a32cd" points="711.422,-223.406 701.211,-226.233 710.956,-230.391 711.422,-223.406"/>
<text text-anchor="middle" x="858" y="-251" font-family="Helvetica,sans-Serif" font-size="10.00"> myLabel</text>
</g>
<!-- Node26 -->
<g id="node26" class="node"><title>Node26</title>
<polygon fill="white" stroke="#bfbfbf" points="646,-291.5 646,-310.5 714,-310.5 714,-291.5 646,-291.5"/>
<text text-anchor="middle" x="680" y="-298.5" font-family="Helvetica,sans-Serif" font-size="10.00">ImageView</text>
</g>
<!-- Node26&#45;&gt;Node24 -->
<g id="edge33" class="edge"><title>Node26&#45;&gt;Node24</title>
<path fill="none" stroke="#9a32cd" stroke-dasharray="5,2" d="M724.36,-297.047C779.556,-292.014 875.88,-283.232 943.762,-277.042"/>
<polygon fill="#9a32cd" stroke="#9a32cd" points="723.861,-293.578 714.22,-297.971 724.496,-300.549 723.861,-293.578"/>
<text text-anchor="middle" x="858" y="-294" font-family="Helvetica,sans-Serif" font-size="10.00"> myImageView</text>
</g>
<!-- Node27 -->
<g id="node27" class="node"><title>Node27</title>
<polygon fill="white" stroke="#bfbfbf" points="659,-253.5 659,-272.5 701,-272.5 701,-253.5 659,-253.5"/>
<text text-anchor="middle" x="680" y="-260.5" font-family="Helvetica,sans-Serif" font-size="10.00">Node</text>
</g>
<!-- Node27&#45;&gt;Node24 -->
<g id="edge34" class="edge"><title>Node27&#45;&gt;Node24</title>
<path fill="none" stroke="#9a32cd" stroke-dasharray="5,2" d="M711.32,-262.618C756.096,-262.169 842.537,-261.746 916,-264 925.034,-264.277 934.5,-264.671 943.893,-265.127"/>
<polygon fill="#9a32cd" stroke="#9a32cd" points="711.086,-259.12 701.125,-262.728 711.162,-266.12 711.086,-259.12"/>
<text text-anchor="middle" x="858" y="-267" font-family="Helvetica,sans-Serif" font-size="10.00"> myCollisionBody</text>
</g>
<!-- Node28 -->
<g id="node28" class="node"><title>Node28</title>
<g id="a_node28"><a xlink:href="../../d9/d9d/classengine_1_1game_object_1_1components_1_1_physics_body.html" target="_top" xlink:title="engine.gameObject.components.\lPhysicsBody">
<polygon fill="white" stroke="black" points="934,-158 934,-188 1110,-188 1110,-158 934,-158"/>
<text text-anchor="start" x="942" y="-176" font-family="Helvetica,sans-Serif" font-size="10.00">engine.gameObject.components.</text>
<text text-anchor="middle" x="1022" y="-165" font-family="Helvetica,sans-Serif" font-size="10.00">PhysicsBody</text>
</a>
</g>
</g>
<!-- Node28&#45;&gt;Node18 -->
<g id="edge35" class="edge"><title>Node28&#45;&gt;Node18</title>
<path fill="none" stroke="#9a32cd" stroke-dasharray="5,2" d="M1071.33,-191.75C1135.85,-216.781 1247.73,-260.185 1297.22,-279.387"/>
<polygon fill="#9a32cd" stroke="#9a32cd" points="1072.37,-188.4 1061.78,-188.046 1069.84,-194.926 1072.37,-188.4"/>
<text text-anchor="middle" x="1173" y="-252" font-family="Helvetica,sans-Serif" font-size="10.00"> myPhysicsBody</text>
</g>
<!-- Node29 -->
<g id="node29" class="node"><title>Node29</title>
<polygon fill="white" stroke="#bfbfbf" points="602,-126 602,-156 758,-156 758,-126 602,-126"/>
<text text-anchor="start" x="610" y="-144" font-family="Helvetica,sans-Serif" font-size="10.00">Map&lt; String, engine.physics.</text>
<text text-anchor="middle" x="680" y="-133" font-family="Helvetica,sans-Serif" font-size="10.00">Scalar &gt;</text>
</g>
<!-- Node29&#45;&gt;Node28 -->
<g id="edge36" class="edge"><title>Node29&#45;&gt;Node28</title>
<path fill="none" stroke="#9a32cd" stroke-dasharray="5,2" d="M768.303,-145.21C812.621,-147.787 867.259,-151.637 916,-157 921.865,-157.645 927.905,-158.379 933.984,-159.17"/>
<polygon fill="#9a32cd" stroke="#9a32cd" points="768.325,-141.706 758.142,-144.631 767.926,-148.695 768.325,-141.706"/>
<text text-anchor="middle" x="858" y="-160" font-family="Helvetica,sans-Serif" font-size="10.00"> myConstants</text>
</g>
<!-- Node30 -->
<g id="node30" class="node"><title>Node30</title>
<polygon fill="white" stroke="#bfbfbf" points="602,-77 602,-107 758,-107 758,-77 602,-77"/>
<text text-anchor="start" x="610" y="-95" font-family="Helvetica,sans-Serif" font-size="10.00">Map&lt; String, engine.physics.</text>
<text text-anchor="middle" x="680" y="-84" font-family="Helvetica,sans-Serif" font-size="10.00">Force &gt;</text>
</g>
<!-- Node30&#45;&gt;Node28 -->
<g id="edge37" class="edge"><title>Node30&#45;&gt;Node28</title>
<path fill="none" stroke="#9a32cd" stroke-dasharray="5,2" d="M768.267,-96.3993C813.978,-101.338 869.882,-111.641 916,-133 925.449,-137.376 924.798,-143.124 934,-148 941.221,-151.826 949.098,-155.13 957.067,-157.965"/>
<polygon fill="#9a32cd" stroke="#9a32cd" points="768.38,-92.8931 758.079,-95.3684 767.676,-99.8575 768.38,-92.8931"/>
<text text-anchor="middle" x="858" y="-136" font-family="Helvetica,sans-Serif" font-size="10.00"> myActiveForces</text>
</g>
<!-- Node31 -->
<g id="node31" class="node"><title>Node31</title>
<polygon fill="white" stroke="#bfbfbf" points="596.5,-38.5 596.5,-57.5 763.5,-57.5 763.5,-38.5 596.5,-38.5"/>
<text text-anchor="middle" x="680" y="-45.5" font-family="Helvetica,sans-Serif" font-size="10.00">List&lt; engine.physics.Impulse &gt;</text>
</g>
<!-- Node31&#45;&gt;Node28 -->
<g id="edge38" class="edge"><title>Node31&#45;&gt;Node28</title>
<path fill="none" stroke="#9a32cd" stroke-dasharray="5,2" d="M773.714,-41.3263C821.522,-42.8628 877.679,-53.1071 916,-87 937.173,-105.727 913.941,-128.084 934,-148 937.903,-151.875 942.365,-155.159 947.161,-157.939"/>
<polygon fill="#9a32cd" stroke="#9a32cd" points="773.716,-37.8257 763.648,-41.1252 773.576,-44.8243 773.716,-37.8257"/>
<text text-anchor="middle" x="858" y="-90" font-family="Helvetica,sans-Serif" font-size="10.00"> myImpulses</text>
</g>
<!-- Node32 -->
<g id="node32" class="node"><title>Node32</title>
<g id="a_node32"><a xlink:href="../../d5/d1f/classengine_1_1physics_1_1_vector.html" target="_top" xlink:title="engine.physics.Vector">
<polygon fill="white" stroke="black" points="619.5,-175.5 619.5,-194.5 740.5,-194.5 740.5,-175.5 619.5,-175.5"/>
<text text-anchor="middle" x="680" y="-182.5" font-family="Helvetica,sans-Serif" font-size="10.00">engine.physics.Vector</text>
</a>
</g>
</g>
<!-- Node32&#45;&gt;Node28 -->
<g id="edge39" class="edge"><title>Node32&#45;&gt;Node28</title>
<path fill="none" stroke="#9a32cd" stroke-dasharray="5,2" d="M750.963,-177.502C767.053,-176.065 784.105,-174.769 800,-174 844.072,-171.867 893.145,-171.449 933.833,-171.635"/>
<polygon fill="#9a32cd" stroke="#9a32cd" points="750.187,-174.059 740.551,-178.464 750.831,-181.029 750.187,-174.059"/>
<text text-anchor="middle" x="858" y="-199" font-family="Helvetica,sans-Serif" font-size="10.00"> myBalancedForcesMag</text>
<text text-anchor="middle" x="858" y="-188" font-family="Helvetica,sans-Serif" font-size="10.00">myVelocity</text>
<text text-anchor="middle" x="858" y="-177" font-family="Helvetica,sans-Serif" font-size="10.00">myAcceleration</text>
</g>
<!-- Node33 -->
<g id="node33" class="node"><title>Node33</title>
<g id="a_node33"><a xlink:href="../../dc/db5/classengine_1_1physics_1_1_physics_component.html" target="_top" xlink:title="engine.physics.PhysicsComponent">
<polygon fill="white" stroke="black" points="242,-175.5 242,-194.5 424,-194.5 424,-175.5 242,-175.5"/>
<text text-anchor="middle" x="333" y="-182.5" font-family="Helvetica,sans-Serif" font-size="10.00">engine.physics.PhysicsComponent</text>
</a>
</g>
</g>
<!-- Node33&#45;&gt;Node32 -->
<g id="edge40" class="edge"><title>Node33&#45;&gt;Node32</title>
<path fill="none" stroke="midnightblue" d="M434.456,-185C494.444,-185 568.603,-185 619.429,-185"/>
<polygon fill="midnightblue" stroke="midnightblue" points="434.194,-181.5 424.194,-185 434.194,-188.5 434.194,-181.5"/>
</g>
<!-- Node34&#45;&gt;Node18 -->
<g id="edge41" class="edge"><title>Node34&#45;&gt;Node18</title>
<path fill="none" stroke="#9a32cd" stroke-dasharray="5,2" d="M1117.93,-301.968C1155.93,-299.553 1199.37,-296.792 1236.39,-294.44"/>
<polygon fill="#9a32cd" stroke="#9a32cd" points="1117.64,-298.479 1107.88,-302.606 1118.08,-305.465 1117.64,-298.479"/>
<text text-anchor="middle" x="1173" y="-305" font-family="Helvetica,sans-Serif" font-size="10.00"> myDefaultData</text>
</g>
</g>
</svg>
