<?xml version="1.0" encoding="UTF-8" standalone="no"?>
<!DOCTYPE svg PUBLIC "-//W3C//DTD SVG 1.1//EN"
 "http://www.w3.org/Graphics/SVG/1.1/DTD/svg11.dtd">
<!-- Generated by graphviz version 2.36.0 (20140111.2315)
 -->
<!-- Title: authoring.eventhandlers.EditGameObjectHandler.handle Pages: 1 -->
<!--zoomable 332 -->
<svg id="main" version="1.1" xmlns="http://www.w3.org/2000/svg" xmlns:xlink="http://www.w3.org/1999/xlink" xml:space="preserve" onload="init(evt)">
<style type="text/css"><![CDATA[
.edge:hover path { stroke: red; }
.edge:hover polygon { stroke: red; fill: red; }
]]></style>
<script type="text/javascript"><![CDATA[
var edges = document.getElementsByTagName('g');
if (edges && edges.length) {
  for (var i=0;i<edges.length;i++) {
    if (edges[i].id.substr(0,4)=='edge') {
      edges[i].setAttribute('class','edge');
    }
  }
}
]]></script>
        <defs>
                <circle id="rim" cx="0" cy="0" r="7"/>
                <circle id="rim2" cx="0" cy="0" r="3.5"/>
                <g id="zoomPlus">
                        <use xlink:href="#rim" fill="#404040">
                                <set attributeName="fill" to="#808080" begin="zoomplus.mouseover" end="zoomplus.mouseout"/>
                        </use>
                        <path d="M-4,0h8M0,-4v8" fill="none" stroke="white" stroke-width="1.5" pointer-events="none"/>
                </g>
                <g id="zoomMin">
                        <use xlink:href="#rim" fill="#404040">
                                <set attributeName="fill" to="#808080" begin="zoomminus.mouseover" end="zoomminus.mouseout"/>
                        </use>
                        <path d="M-4,0h8" fill="none" stroke="white" stroke-width="1.5" pointer-events="none"/>
                </g>
                <g id="dirArrow">
                        <path fill="none" stroke="white" stroke-width="1.5" d="M0,-3.0v7 M-2.5,-0.5L0,-3.0L2.5,-0.5"/>
                </g>
               <g id="resetDef">
                       <use xlink:href="#rim2" fill="#404040">
                               <set attributeName="fill" to="#808080" begin="reset.mouseover" end="reset.mouseout"/>
                       </use>
               </g>
        </defs>

<script type="text/javascript">
var viewWidth = 1468;
var viewHeight = 332;
var sectionId = 'dynsection-2';
</script>
<script xlink:href="../../svgpan.js"/>
<svg id="graph" class="graph">
<g id="viewport">
<title>authoring.eventhandlers.EditGameObjectHandler.handle</title>
<polygon fill="white" stroke="none" points="-4,4 -4,-328 1464,-328 1464,4 -4,4"/>
<!-- Node1 -->
<g id="node1" class="node"><title>Node1</title>
<polygon fill="#bfbfbf" stroke="black" points="0.5,-196 0.5,-226 167.5,-226 167.5,-196 0.5,-196"/>
<text text-anchor="start" x="8.5" y="-214" font-family="Helvetica,sans-Serif" font-size="10.00">authoring.eventhandlers.</text>
<text text-anchor="middle" x="84" y="-203" font-family="Helvetica,sans-Serif" font-size="10.00">EditGameObjectHandler.handle</text>
</g>
<!-- Node2 -->
<g id="node2" class="node"><title>Node2</title>
<g id="a_node2"><a xlink:href="../../d4/d9e/classauthoring_1_1view_1_1propertiesview_1_1_properties_view.html#aada4bb374276819c5187d5cb0bf9b3b3" target="_top" xlink:title="authoring.view.propertiesview.\lPropertiesView.displayProperties">
<polygon fill="white" stroke="black" points="219.5,-294 219.5,-324 390.5,-324 390.5,-294 219.5,-294"/>
<text text-anchor="start" x="227.5" y="-312" font-family="Helvetica,sans-Serif" font-size="10.00">authoring.view.propertiesview.</text>
<text text-anchor="middle" x="305" y="-301" font-family="Helvetica,sans-Serif" font-size="10.00">PropertiesView.displayProperties</text>
</a>
</g>
</g>
<!-- Node1&#45;&gt;Node2 -->
<g id="edge1" class="edge"><title>Node1&#45;&gt;Node2</title>
<path fill="none" stroke="midnightblue" d="M105.443,-226.244C128.352,-242.665 167.128,-268.515 204,-284 209.901,-286.478 216.105,-288.752 222.412,-290.83"/>
<polygon fill="midnightblue" stroke="midnightblue" points="221.792,-294.303 232.38,-293.936 223.874,-287.62 221.792,-294.303"/>
</g>
<!-- Node4 -->
<g id="node4" class="node"><title>Node4</title>
<g id="a_node4"><a xlink:href="../../d4/d9e/classauthoring_1_1view_1_1propertiesview_1_1_properties_view.html#a888e2a8b8e4f14aecd7589904fbef718" target="_top" xlink:title="authoring.view.propertiesview.\lPropertiesView.getCurrentGameObject">
<polygon fill="white" stroke="black" points="204.5,-245 204.5,-275 405.5,-275 405.5,-245 204.5,-245"/>
<text text-anchor="start" x="212.5" y="-263" font-family="Helvetica,sans-Serif" font-size="10.00">authoring.view.propertiesview.</text>
<text text-anchor="middle" x="305" y="-252" font-family="Helvetica,sans-Serif" font-size="10.00">PropertiesView.getCurrentGameObject</text>
</a>
</g>
</g>
<!-- Node1&#45;&gt;Node4 -->
<g id="edge3" class="edge"><title>Node1&#45;&gt;Node4</title>
<path fill="none" stroke="midnightblue" d="M152.196,-226.035C175.844,-231.326 202.604,-237.313 226.998,-242.771"/>
<polygon fill="midnightblue" stroke="midnightblue" points="226.409,-246.226 236.932,-244.994 227.937,-239.395 226.409,-246.226"/>
</g>
<!-- Node5 -->
<g id="node5" class="node"><title>Node5</title>
<g id="a_node5"><a xlink:href="../../d4/d04/classauthoring_1_1view_1_1levelview_1_1_levels_view.html#a077268144cda48745d9049eb96595e49" target="_top" xlink:title="authoring.view.levelview.\lLevelsView.getCurrentLevel">
<polygon fill="white" stroke="black" points="231.5,-196 231.5,-226 378.5,-226 378.5,-196 231.5,-196"/>
<text text-anchor="start" x="239.5" y="-214" font-family="Helvetica,sans-Serif" font-size="10.00">authoring.view.levelview.</text>
<text text-anchor="middle" x="305" y="-203" font-family="Helvetica,sans-Serif" font-size="10.00">LevelsView.getCurrentLevel</text>
</a>
</g>
</g>
<!-- Node1&#45;&gt;Node5 -->
<g id="edge4" class="edge"><title>Node1&#45;&gt;Node5</title>
<path fill="none" stroke="midnightblue" d="M167.795,-211C185.312,-211 203.8,-211 221.313,-211"/>
<polygon fill="midnightblue" stroke="midnightblue" points="221.497,-214.5 231.497,-211 221.497,-207.5 221.497,-214.5"/>
</g>
<!-- Node6 -->
<g id="node6" class="node"><title>Node6</title>
<g id="a_node6"><a xlink:href="../../d4/d9e/classauthoring_1_1view_1_1propertiesview_1_1_properties_view.html#aeed3bf20185eabcf870ee4c649bc1d4e" target="_top" xlink:title="authoring.view.propertiesview.\lPropertiesView.getEditedGameObject">
<polygon fill="white" stroke="black" points="207.5,-147 207.5,-177 402.5,-177 402.5,-147 207.5,-147"/>
<text text-anchor="start" x="215.5" y="-165" font-family="Helvetica,sans-Serif" font-size="10.00">authoring.view.propertiesview.</text>
<text text-anchor="middle" x="305" y="-154" font-family="Helvetica,sans-Serif" font-size="10.00">PropertiesView.getEditedGameObject</text>
</a>
</g>
</g>
<!-- Node1&#45;&gt;Node6 -->
<g id="edge5" class="edge"><title>Node1&#45;&gt;Node6</title>
<path fill="none" stroke="midnightblue" d="M152.196,-195.965C175.844,-190.674 202.604,-184.687 226.998,-179.229"/>
<polygon fill="midnightblue" stroke="midnightblue" points="227.937,-182.605 236.932,-177.006 226.409,-175.774 227.937,-182.605"/>
</g>
<!-- Node21 -->
<g id="node21" class="node"><title>Node21</title>
<g id="a_node21"><a xlink:href="../../d1/d00/classauthoring_1_1view_1_1levelview_1_1_single_level_view.html#a42ad723beb65c70be407b1d5ac5e9023" target="_top" xlink:title="authoring.view.levelview.\lSingleLevelView.getID">
<polygon fill="white" stroke="black" points="239,-98 239,-128 371,-128 371,-98 239,-98"/>
<text text-anchor="start" x="247" y="-116" font-family="Helvetica,sans-Serif" font-size="10.00">authoring.view.levelview.</text>
<text text-anchor="middle" x="305" y="-105" font-family="Helvetica,sans-Serif" font-size="10.00">SingleLevelView.getID</text>
</a>
</g>
</g>
<!-- Node1&#45;&gt;Node21 -->
<g id="edge21" class="edge"><title>Node1&#45;&gt;Node21</title>
<path fill="none" stroke="midnightblue" d="M105.443,-195.756C128.352,-179.335 167.128,-153.485 204,-138 211.972,-134.652 220.497,-131.677 229.082,-129.054"/>
<polygon fill="midnightblue" stroke="midnightblue" points="230.146,-132.39 238.774,-126.241 228.195,-125.667 230.146,-132.39"/>
</g>
<!-- Node3 -->
<g id="node3" class="node"><title>Node3</title>
<g id="a_node3"><a xlink:href="../../d7/d83/interfaceauthoring_1_1view_1_1icons_1_1_i_properties_maker.html#a745ed3e07a49b672d08c475c51d942e1" target="_top" xlink:title="authoring.view.icons.IProperties\lMaker.makeProperties">
<polygon fill="white" stroke="black" points="442.5,-294 442.5,-324 609.5,-324 609.5,-294 442.5,-294"/>
<text text-anchor="start" x="450.5" y="-312" font-family="Helvetica,sans-Serif" font-size="10.00">authoring.view.icons.IProperties</text>
<text text-anchor="middle" x="526" y="-301" font-family="Helvetica,sans-Serif" font-size="10.00">Maker.makeProperties</text>
</a>
</g>
</g>
<!-- Node2&#45;&gt;Node3 -->
<g id="edge2" class="edge"><title>Node2&#45;&gt;Node3</title>
<path fill="none" stroke="midnightblue" d="M390.671,-309C404.195,-309 418.253,-309 431.958,-309"/>
<polygon fill="midnightblue" stroke="midnightblue" points="432.355,-312.5 442.355,-309 432.355,-305.5 432.355,-312.5"/>
</g>
<!-- Node7 -->
<g id="node7" class="node"><title>Node7</title>
<g id="a_node7"><a xlink:href="../../da/d8d/classauthoring_1_1view_1_1propertiesview_1_1_game_object_properties.html#a6f1aeaddb6956053690488c8ddaa38ba" target="_top" xlink:title="authoring.view.propertiesview.\lGameObjectProperties.edit">
<polygon fill="white" stroke="black" points="446.5,-147 446.5,-177 605.5,-177 605.5,-147 446.5,-147"/>
<text text-anchor="start" x="454.5" y="-165" font-family="Helvetica,sans-Serif" font-size="10.00">authoring.view.propertiesview.</text>
<text text-anchor="middle" x="526" y="-154" font-family="Helvetica,sans-Serif" font-size="10.00">GameObjectProperties.edit</text>
</a>
</g>
</g>
<!-- Node6&#45;&gt;Node7 -->
<g id="edge6" class="edge"><title>Node6&#45;&gt;Node7</title>
<path fill="none" stroke="midnightblue" d="M402.694,-162C413.836,-162 425.156,-162 436.187,-162"/>
<polygon fill="midnightblue" stroke="midnightblue" points="436.221,-165.5 446.221,-162 436.221,-158.5 436.221,-165.5"/>
</g>
<!-- Node8 -->
<g id="node8" class="node"><title>Node8</title>
<g id="a_node8"><a xlink:href="../../d0/d7f/classengine_1_1game_object_1_1_game_object.html#aaa9e6a91ab34565c61a227deff620b5b" target="_top" xlink:title="engine.gameObject.GameObject.get\lComponents">
<polygon fill="white" stroke="black" points="651,-284 651,-314 843,-314 843,-284 651,-284"/>
<text text-anchor="start" x="659" y="-302" font-family="Helvetica,sans-Serif" font-size="10.00">engine.gameObject.GameObject.get</text>
<text text-anchor="middle" x="747" y="-291" font-family="Helvetica,sans-Serif" font-size="10.00">Components</text>
</a>
</g>
</g>
<!-- Node7&#45;&gt;Node8 -->
<g id="edge7" class="edge"><title>Node7&#45;&gt;Node8</title>
<path fill="none" stroke="midnightblue" d="M538.754,-177.259C558.305,-201.551 599.94,-248.835 646,-274 650.196,-276.293 654.605,-278.379 659.138,-280.277"/>
<polygon fill="midnightblue" stroke="midnightblue" points="657.996,-283.588 668.586,-283.915 660.511,-277.055 657.996,-283.588"/>
</g>
<!-- Node9 -->
<g id="node9" class="node"><title>Node9</title>
<g id="a_node9"><a xlink:href="../../d0/d7f/classengine_1_1game_object_1_1_game_object.html#ae94fe532960bd29f64c2dc19ec0af798" target="_top" xlink:title="engine.gameObject.GameObject.getID">
<polygon fill="white" stroke="black" points="646,-245.5 646,-264.5 848,-264.5 848,-245.5 646,-245.5"/>
<text text-anchor="middle" x="747" y="-252.5" font-family="Helvetica,sans-Serif" font-size="10.00">engine.gameObject.GameObject.getID</text>
</a>
</g>
</g>
<!-- Node7&#45;&gt;Node9 -->
<g id="edge8" class="edge"><title>Node7&#45;&gt;Node9</title>
<path fill="none" stroke="midnightblue" d="M546.894,-177.276C569.628,-193.975 608.545,-220.308 646,-235 654.023,-238.147 662.611,-240.821 671.259,-243.087"/>
<polygon fill="midnightblue" stroke="midnightblue" points="670.476,-246.499 681.021,-245.476 672.14,-239.699 670.476,-246.499"/>
</g>
<!-- Node10 -->
<g id="node10" class="node"><title>Node10</title>
<g id="a_node10"><a xlink:href="../../d0/d7f/classengine_1_1game_object_1_1_game_object.html#a9a4690b212ecad4060ce8f9abbcedba5" target="_top" xlink:title="engine.gameObject.GameObject.set\lIdentifier">
<polygon fill="white" stroke="black" points="651.5,-196 651.5,-226 842.5,-226 842.5,-196 651.5,-196"/>
<text text-anchor="start" x="659.5" y="-214" font-family="Helvetica,sans-Serif" font-size="10.00">engine.gameObject.GameObject.set</text>
<text text-anchor="middle" x="747" y="-203" font-family="Helvetica,sans-Serif" font-size="10.00">Identifier</text>
</a>
</g>
</g>
<!-- Node7&#45;&gt;Node10 -->
<g id="edge9" class="edge"><title>Node7&#45;&gt;Node10</title>
<path fill="none" stroke="midnightblue" d="M594.196,-177.035C617.844,-182.326 644.604,-188.313 668.998,-193.771"/>
<polygon fill="midnightblue" stroke="midnightblue" points="668.409,-197.226 678.932,-195.994 669.937,-190.395 668.409,-197.226"/>
</g>
<!-- Node11 -->
<g id="node11" class="node"><title>Node11</title>
<g id="a_node11"><a xlink:href="../../d0/d7f/classengine_1_1game_object_1_1_game_object.html#accd456b2eaab9c7056de825a28b066c8" target="_top" xlink:title="engine.gameObject.GameObject.get\lIdentifier">
<polygon fill="white" stroke="black" points="651,-147 651,-177 843,-177 843,-147 651,-147"/>
<text text-anchor="start" x="659" y="-165" font-family="Helvetica,sans-Serif" font-size="10.00">engine.gameObject.GameObject.get</text>
<text text-anchor="middle" x="747" y="-154" font-family="Helvetica,sans-Serif" font-size="10.00">Identifier</text>
</a>
</g>
</g>
<!-- Node7&#45;&gt;Node11 -->
<g id="edge10" class="edge"><title>Node7&#45;&gt;Node11</title>
<path fill="none" stroke="midnightblue" d="M605.755,-162C617.041,-162 628.802,-162 640.502,-162"/>
<polygon fill="midnightblue" stroke="midnightblue" points="640.754,-165.5 650.754,-162 640.754,-158.5 640.754,-165.5"/>
</g>
<!-- Node12 -->
<g id="node12" class="node"><title>Node12</title>
<g id="a_node12"><a xlink:href="../../d9/d9d/classengine_1_1game_object_1_1components_1_1_physics_body.html#a69d3fe175f40fdc40ca6e414cac727a5" target="_top" xlink:title="engine.gameObject.components.\lPhysicsBody.addScalar">
<polygon fill="white" stroke="black" points="659,-98 659,-128 835,-128 835,-98 659,-98"/>
<text text-anchor="start" x="667" y="-116" font-family="Helvetica,sans-Serif" font-size="10.00">engine.gameObject.components.</text>
<text text-anchor="middle" x="747" y="-105" font-family="Helvetica,sans-Serif" font-size="10.00">PhysicsBody.addScalar</text>
</a>
</g>
</g>
<!-- Node7&#45;&gt;Node12 -->
<g id="edge11" class="edge"><title>Node7&#45;&gt;Node12</title>
<path fill="none" stroke="midnightblue" d="M594.196,-146.965C617.844,-141.674 644.604,-135.687 668.998,-130.229"/>
<polygon fill="midnightblue" stroke="midnightblue" points="669.937,-133.605 678.932,-128.006 668.409,-126.774 669.937,-133.605"/>
</g>
<!-- Node19 -->
<g id="node19" class="node"><title>Node19</title>
<g id="a_node19"><a xlink:href="../../d9/d9d/classengine_1_1game_object_1_1components_1_1_physics_body.html#a5f54f878a7fef4a77a58bbee39e8c9d3" target="_top" xlink:title="engine.gameObject.components.\lPhysicsBody.setVelocity">
<polygon fill="white" stroke="black" points="659,-49 659,-79 835,-79 835,-49 659,-49"/>
<text text-anchor="start" x="667" y="-67" font-family="Helvetica,sans-Serif" font-size="10.00">engine.gameObject.components.</text>
<text text-anchor="middle" x="747" y="-56" font-family="Helvetica,sans-Serif" font-size="10.00">PhysicsBody.setVelocity</text>
</a>
</g>
</g>
<!-- Node7&#45;&gt;Node19 -->
<g id="edge19" class="edge"><title>Node7&#45;&gt;Node19</title>
<path fill="none" stroke="midnightblue" d="M547.443,-146.756C570.352,-130.335 609.128,-104.485 646,-89 651.901,-86.5216 658.105,-84.2478 664.412,-82.1697"/>
<polygon fill="midnightblue" stroke="midnightblue" points="665.874,-85.3804 674.38,-79.0641 663.792,-78.6973 665.874,-85.3804"/>
</g>
<!-- Node20 -->
<g id="node20" class="node"><title>Node20</title>
<g id="a_node20"><a xlink:href="../../d0/d7f/classengine_1_1game_object_1_1_game_object.html#ab9b1029f6d5a8a7eb563d5e6e1dcf570" target="_top" xlink:title="engine.gameObject.GameObject.set\lPhysicsBody">
<polygon fill="white" stroke="black" points="651.5,-0 651.5,-30 842.5,-30 842.5,-0 651.5,-0"/>
<text text-anchor="start" x="659.5" y="-18" font-family="Helvetica,sans-Serif" font-size="10.00">engine.gameObject.GameObject.set</text>
<text text-anchor="middle" x="747" y="-7" font-family="Helvetica,sans-Serif" font-size="10.00">PhysicsBody</text>
</a>
</g>
</g>
<!-- Node7&#45;&gt;Node20 -->
<g id="edge20" class="edge"><title>Node7&#45;&gt;Node20</title>
<path fill="none" stroke="midnightblue" d="M537.165,-146.856C555.611,-120.615 597.231,-66.8413 646,-39 649.213,-37.166 652.56,-35.4717 656,-33.9065"/>
<polygon fill="midnightblue" stroke="midnightblue" points="657.391,-37.1184 665.29,-30.0573 654.712,-30.6514 657.391,-37.1184"/>
</g>
<!-- Node13 -->
<g id="node13" class="node"><title>Node13</title>
<g id="a_node13"><a xlink:href="../../dc/db5/classengine_1_1physics_1_1_physics_component.html#aabe6f17a9d86eaf42e9df5769182dfa5" target="_top" xlink:title="engine.physics.PhysicsComponent.to\lString">
<polygon fill="white" stroke="black" points="884,-142 884,-172 1078,-172 1078,-142 884,-142"/>
<text text-anchor="start" x="892" y="-160" font-family="Helvetica,sans-Serif" font-size="10.00">engine.physics.PhysicsComponent.to</text>
<text text-anchor="middle" x="981" y="-149" font-family="Helvetica,sans-Serif" font-size="10.00">String</text>
</a>
</g>
</g>
<!-- Node12&#45;&gt;Node13 -->
<g id="edge12" class="edge"><title>Node12&#45;&gt;Node13</title>
<path fill="none" stroke="midnightblue" d="M827.192,-128.019C847.703,-131.909 869.927,-136.124 890.908,-140.103"/>
<polygon fill="midnightblue" stroke="midnightblue" points="890.294,-143.549 900.771,-141.974 891.598,-136.672 890.294,-143.549"/>
</g>
<!-- Node14 -->
<g id="node14" class="node"><title>Node14</title>
<g id="a_node14"><a xlink:href="../../d0/de5/classengine_1_1physics_1_1_scalar.html#afc6c4f29d09315850a328bb532d4bc35" target="_top" xlink:title="engine.physics.Scalar.iterator">
<polygon fill="white" stroke="black" points="902,-103.5 902,-122.5 1060,-122.5 1060,-103.5 902,-103.5"/>
<text text-anchor="middle" x="981" y="-110.5" font-family="Helvetica,sans-Serif" font-size="10.00">engine.physics.Scalar.iterator</text>
</a>
</g>
</g>
<!-- Node12&#45;&gt;Node14 -->
<g id="edge13" class="edge"><title>Node12&#45;&gt;Node14</title>
<path fill="none" stroke="midnightblue" d="M835.048,-113C853.491,-113 872.977,-113 891.473,-113"/>
<polygon fill="midnightblue" stroke="midnightblue" points="891.635,-116.5 901.635,-113 891.635,-109.5 891.635,-116.5"/>
</g>
<!-- Node15 -->
<g id="node15" class="node"><title>Node15</title>
<g id="a_node15"><a xlink:href="../../d9/d9d/classengine_1_1game_object_1_1components_1_1_physics_body.html#aec651bb9ed66c5c0db0bbbd0c2f445ae" target="_top" xlink:title="engine.gameObject.components.\lPhysicsBody.balanceForces">
<polygon fill="white" stroke="black" points="893,-54 893,-84 1069,-84 1069,-54 893,-54"/>
<text text-anchor="start" x="901" y="-72" font-family="Helvetica,sans-Serif" font-size="10.00">engine.gameObject.components.</text>
<text text-anchor="middle" x="981" y="-61" font-family="Helvetica,sans-Serif" font-size="10.00">PhysicsBody.balanceForces</text>
</a>
</g>
</g>
<!-- Node12&#45;&gt;Node15 -->
<g id="edge14" class="edge"><title>Node12&#45;&gt;Node15</title>
<path fill="none" stroke="midnightblue" d="M827.192,-97.9808C847.703,-94.0908 869.927,-89.8759 890.908,-85.8968"/>
<polygon fill="midnightblue" stroke="midnightblue" points="891.598,-89.3283 900.771,-84.0262 890.294,-82.4509 891.598,-89.3283"/>
</g>
<!-- Node16 -->
<g id="node16" class="node"><title>Node16</title>
<g id="a_node16"><a xlink:href="../../d5/d1f/classengine_1_1physics_1_1_vector.html#a0ad05574ba8b82b2f265ebfa5869d27b" target="_top" xlink:title="engine.physics.Vector.setX">
<polygon fill="white" stroke="black" points="1114,-78.5 1114,-97.5 1258,-97.5 1258,-78.5 1114,-78.5"/>
<text text-anchor="middle" x="1186" y="-85.5" font-family="Helvetica,sans-Serif" font-size="10.00">engine.physics.Vector.setX</text>
</a>
</g>
</g>
<!-- Node15&#45;&gt;Node16 -->
<g id="edge15" class="edge"><title>Node15&#45;&gt;Node16</title>
<path fill="none" stroke="midnightblue" d="M1069.27,-77.168C1080.62,-78.2307 1092.22,-79.316 1103.47,-80.3695"/>
<polygon fill="midnightblue" stroke="midnightblue" points="1103.41,-83.8792 1113.7,-81.3264 1104.07,-76.9096 1103.41,-83.8792"/>
</g>
<!-- Node18 -->
<g id="node18" class="node"><title>Node18</title>
<g id="a_node18"><a xlink:href="../../d5/d1f/classengine_1_1physics_1_1_vector.html#a4e646d4b9bf5a3904817560725776cec" target="_top" xlink:title="engine.physics.Vector.setY">
<polygon fill="white" stroke="black" points="1114.5,-40.5 1114.5,-59.5 1257.5,-59.5 1257.5,-40.5 1114.5,-40.5"/>
<text text-anchor="middle" x="1186" y="-47.5" font-family="Helvetica,sans-Serif" font-size="10.00">engine.physics.Vector.setY</text>
</a>
</g>
</g>
<!-- Node15&#45;&gt;Node18 -->
<g id="edge17" class="edge"><title>Node15&#45;&gt;Node18</title>
<path fill="none" stroke="midnightblue" d="M1069.27,-60.832C1080.9,-59.7429 1092.79,-58.63 1104.31,-57.5521"/>
<polygon fill="midnightblue" stroke="midnightblue" points="1104.69,-61.032 1114.32,-56.6153 1104.04,-54.0625 1104.69,-61.032"/>
</g>
<!-- Node17 -->
<g id="node17" class="node"><title>Node17</title>
<g id="a_node17"><a xlink:href="../../d5/d1f/classengine_1_1physics_1_1_vector.html#a33c635f15f2f2e16f9b57542c6c3182f" target="_top" xlink:title="engine.physics.Vector.calculate\lMagnitude">
<polygon fill="white" stroke="black" points="1294,-54 1294,-84 1460,-84 1460,-54 1294,-54"/>
<text text-anchor="start" x="1302" y="-72" font-family="Helvetica,sans-Serif" font-size="10.00">engine.physics.Vector.calculate</text>
<text text-anchor="middle" x="1377" y="-61" font-family="Helvetica,sans-Serif" font-size="10.00">Magnitude</text>
</a>
</g>
</g>
<!-- Node16&#45;&gt;Node17 -->
<g id="edge16" class="edge"><title>Node16&#45;&gt;Node17</title>
<path fill="none" stroke="midnightblue" d="M1258.18,-80.844C1266.53,-80.0047 1275.14,-79.1395 1283.72,-78.2766"/>
<polygon fill="midnightblue" stroke="midnightblue" points="1284.17,-81.7494 1293.77,-77.2666 1283.47,-74.7845 1284.17,-81.7494"/>
</g>
<!-- Node18&#45;&gt;Node17 -->
<g id="edge18" class="edge"><title>Node18&#45;&gt;Node17</title>
<path fill="none" stroke="midnightblue" d="M1257.65,-57.1019C1266.25,-57.9673 1275.14,-58.8611 1284.01,-59.7519"/>
<polygon fill="midnightblue" stroke="midnightblue" points="1283.68,-63.2369 1293.98,-60.7548 1284.38,-56.272 1283.68,-63.2369"/>
</g>
</g>
</svg>
        <g id="navigator" transform="translate(0 0)" fill="#404254">
                <rect fill="#f2f5e9" fill-opacity="0.5" stroke="#606060" stroke-width=".5" x="0" y="0" width="60" height="60"/>
                <use id="zoomplus" xlink:href="#zoomPlus" x="17" y="9" onmousedown="handleZoom(evt,'in')"/>
                <use id="zoomminus" xlink:href="#zoomMin" x="42" y="9" onmousedown="handleZoom(evt,'out')"/>
                <use id="reset" xlink:href="#resetDef" x="30" y="36" onmousedown="handleReset()"/>
                <g id="arrowUp" xlink:href="#dirArrow" transform="translate(30 24)" onmousedown="handlePan(0,-1)">
                  <use xlink:href="#rim" fill="#404040">
                        <set attributeName="fill" to="#808080" begin="arrowUp.mouseover" end="arrowUp.mouseout"/>
                  </use>
                  <path fill="none" stroke="white" stroke-width="1.5" d="M0,-3.0v7 M-2.5,-0.5L0,-3.0L2.5,-0.5"/>
                </g>
                <g id="arrowRight" xlink:href="#dirArrow" transform="rotate(90) translate(36 -43)" onmousedown="handlePan(1,0)">
                  <use xlink:href="#rim" fill="#404040">
                        <set attributeName="fill" to="#808080" begin="arrowRight.mouseover" end="arrowRight.mouseout"/>
                  </use>
                  <path fill="none" stroke="white" stroke-width="1.5" d="M0,-3.0v7 M-2.5,-0.5L0,-3.0L2.5,-0.5"/>
                </g>
                <g id="arrowDown" xlink:href="#dirArrow" transform="rotate(180) translate(-30 -48)" onmousedown="handlePan(0,1)">
                  <use xlink:href="#rim" fill="#404040">
                        <set attributeName="fill" to="#808080" begin="arrowDown.mouseover" end="arrowDown.mouseout"/>
                  </use>
                  <path fill="none" stroke="white" stroke-width="1.5" d="M0,-3.0v7 M-2.5,-0.5L0,-3.0L2.5,-0.5"/>
                </g>
                <g id="arrowLeft" xlink:href="#dirArrow" transform="rotate(270) translate(-36 17)" onmousedown="handlePan(-1,0)">
                  <use xlink:href="#rim" fill="#404040">
                        <set attributeName="fill" to="#808080" begin="arrowLeft.mouseover" end="arrowLeft.mouseout"/>
                  </use>
                  <path fill="none" stroke="white" stroke-width="1.5" d="M0,-3.0v7 M-2.5,-0.5L0,-3.0L2.5,-0.5"/>
                </g>
        </g>
        <svg viewBox="0 0 15 15" width="100%" height="30px" preserveAspectRatio="xMaxYMin meet">
         <g id="arrow_out" transform="scale(0.3 0.3)">
          <a xlink:href="classauthoring_1_1eventhandlers_1_1_edit_game_object_handler_ac0a03e6b751068903df50296d9f1fbd7_cgraph_org.svg" target="_base">
           <rect id="button" ry="5" rx="5" y="6" x="6" height="38" width="38"
                fill="#f2f5e9" fill-opacity="0.5" stroke="#606060" stroke-width="1.0"/>
           <path id="arrow"
             d="M 11.500037,31.436501 C 11.940474,20.09759 22.043105,11.32322 32.158766,21.979434 L 37.068811,17.246167 C 37.068811,17.246167 37.088388,32 37.088388,32 L 22.160133,31.978069 C 22.160133,31.978069 26.997745,27.140456 26.997745,27.140456 C 18.528582,18.264221 13.291696,25.230495 11.500037,31.436501 z"
             style="fill:#404040;"/>
          </a>
         </g>
        </svg>
</svg>
