<?xml version="1.0" encoding="UTF-8" standalone="no"?>
<!DOCTYPE svg PUBLIC "-//W3C//DTD SVG 1.1//EN"
 "http://www.w3.org/Graphics/SVG/1.1/DTD/svg11.dtd">
<!-- Generated by graphviz version 2.36.0 (20140111.2315)
 -->
<!-- Title: authoring.eventhandlers.EditGameObjectHandler.handle Pages: 1 -->
<!--zoomable 323 -->
<svg id="main" version="1.1" xmlns="http://www.w3.org/2000/svg" xmlns:xlink="http://www.w3.org/1999/xlink" xml:space="preserve" onload="init(evt)">
<style type="text/css"><![CDATA[
.edge:hover path { stroke: red; }
.edge:hover polygon { stroke: red; fill: red; }
]]></style>
<script type="text/javascript"><![CDATA[
var edges = document.getElementsByTagName('g');
if (edges && edges.length) {
  for (var i=0;i<edges.length;i++) {
    if (edges[i].id.substr(0,4)=='edge') {
      edges[i].setAttribute('class','edge');
    }
  }
}
]]></script>
        <defs>
                <circle id="rim" cx="0" cy="0" r="7"/>
                <circle id="rim2" cx="0" cy="0" r="3.5"/>
                <g id="zoomPlus">
                        <use xlink:href="#rim" fill="#404040">
                                <set attributeName="fill" to="#808080" begin="zoomplus.mouseover" end="zoomplus.mouseout"/>
                        </use>
                        <path d="M-4,0h8M0,-4v8" fill="none" stroke="white" stroke-width="1.5" pointer-events="none"/>
                </g>
                <g id="zoomMin">
                        <use xlink:href="#rim" fill="#404040">
                                <set attributeName="fill" to="#808080" begin="zoomminus.mouseover" end="zoomminus.mouseout"/>
                        </use>
                        <path d="M-4,0h8" fill="none" stroke="white" stroke-width="1.5" pointer-events="none"/>
                </g>
                <g id="dirArrow">
                        <path fill="none" stroke="white" stroke-width="1.5" d="M0,-3.0v7 M-2.5,-0.5L0,-3.0L2.5,-0.5"/>
                </g>
               <g id="resetDef">
                       <use xlink:href="#rim2" fill="#404040">
                               <set attributeName="fill" to="#808080" begin="reset.mouseover" end="reset.mouseout"/>
                       </use>
               </g>
        </defs>

<script type="text/javascript">
var viewWidth = 1460;
var viewHeight = 323;
var sectionId = 'dynsection-2';
</script>
<script xlink:href="../../svgpan.js"/>
<svg id="graph" class="graph">
<g id="viewport">
<title>authoring.eventhandlers.EditGameObjectHandler.handle</title>
<polygon fill="white" stroke="none" points="-4,4 -4,-319 1456,-319 1456,4 -4,4"/>
<!-- Node1 -->
<g id="node1" class="node"><title>Node1</title>
<polygon fill="#bfbfbf" stroke="black" points="0.5,-148 0.5,-178 167.5,-178 167.5,-148 0.5,-148"/>
<text text-anchor="start" x="8.5" y="-166" font-family="Helvetica,sans-Serif" font-size="10.00">authoring.eventhandlers.</text>
<text text-anchor="middle" x="84" y="-155" font-family="Helvetica,sans-Serif" font-size="10.00">EditGameObjectHandler.handle</text>
</g>
<!-- Node2 -->
<g id="node2" class="node"><title>Node2</title>
<g id="a_node2"><a xlink:href="../../d4/d9e/classauthoring_1_1view_1_1propertiesview_1_1_properties_view.html#a888e2a8b8e4f14aecd7589904fbef718" target="_top" xlink:title="authoring.view.propertiesview.\lPropertiesView.getCurrentGameObject">
<polygon fill="white" stroke="black" points="204.5,-246 204.5,-276 405.5,-276 405.5,-246 204.5,-246"/>
<text text-anchor="start" x="212.5" y="-264" font-family="Helvetica,sans-Serif" font-size="10.00">authoring.view.propertiesview.</text>
<text text-anchor="middle" x="305" y="-253" font-family="Helvetica,sans-Serif" font-size="10.00">PropertiesView.getCurrentGameObject</text>
</a>
</g>
</g>
<!-- Node1&#45;&gt;Node2 -->
<g id="edge1" class="edge"><title>Node1&#45;&gt;Node2</title>
<path fill="none" stroke="midnightblue" d="M105.443,-178.244C128.352,-194.665 167.128,-220.515 204,-236 209.901,-238.478 216.105,-240.752 222.412,-242.83"/>
<polygon fill="midnightblue" stroke="midnightblue" points="221.792,-246.303 232.38,-245.936 223.874,-239.62 221.792,-246.303"/>
</g>
<!-- Node3 -->
<g id="node3" class="node"><title>Node3</title>
<g id="a_node3"><a xlink:href="../../d4/d04/classauthoring_1_1view_1_1levelview_1_1_levels_view.html#a077268144cda48745d9049eb96595e49" target="_top" xlink:title="authoring.view.levelview.\lLevelsView.getCurrentLevel">
<polygon fill="white" stroke="black" points="231.5,-197 231.5,-227 378.5,-227 378.5,-197 231.5,-197"/>
<text text-anchor="start" x="239.5" y="-215" font-family="Helvetica,sans-Serif" font-size="10.00">authoring.view.levelview.</text>
<text text-anchor="middle" x="305" y="-204" font-family="Helvetica,sans-Serif" font-size="10.00">LevelsView.getCurrentLevel</text>
</a>
</g>
</g>
<!-- Node1&#45;&gt;Node3 -->
<g id="edge2" class="edge"><title>Node1&#45;&gt;Node3</title>
<path fill="none" stroke="midnightblue" d="M152.196,-178.035C175.844,-183.326 202.604,-189.313 226.998,-194.771"/>
<polygon fill="midnightblue" stroke="midnightblue" points="226.409,-198.226 236.932,-196.994 227.937,-191.395 226.409,-198.226"/>
</g>
<!-- Node4 -->
<g id="node4" class="node"><title>Node4</title>
<g id="a_node4"><a xlink:href="../../d4/d9e/classauthoring_1_1view_1_1propertiesview_1_1_properties_view.html#aeed3bf20185eabcf870ee4c649bc1d4e" target="_top" xlink:title="authoring.view.propertiesview.\lPropertiesView.getEditedGameObject">
<polygon fill="white" stroke="black" points="207.5,-148 207.5,-178 402.5,-178 402.5,-148 207.5,-148"/>
<text text-anchor="start" x="215.5" y="-166" font-family="Helvetica,sans-Serif" font-size="10.00">authoring.view.propertiesview.</text>
<text text-anchor="middle" x="305" y="-155" font-family="Helvetica,sans-Serif" font-size="10.00">PropertiesView.getEditedGameObject</text>
</a>
</g>
</g>
<!-- Node1&#45;&gt;Node4 -->
<g id="edge3" class="edge"><title>Node1&#45;&gt;Node4</title>
<path fill="none" stroke="midnightblue" d="M167.795,-163C177.414,-163 187.326,-163 197.208,-163"/>
<polygon fill="midnightblue" stroke="midnightblue" points="197.483,-166.5 207.483,-163 197.483,-159.5 197.483,-166.5"/>
</g>
<!-- Node19 -->
<g id="node19" class="node"><title>Node19</title>
<g id="a_node19"><a xlink:href="../../d1/d00/classauthoring_1_1view_1_1levelview_1_1_single_level_view.html#a42ad723beb65c70be407b1d5ac5e9023" target="_top" xlink:title="authoring.view.levelview.\lSingleLevelView.getID">
<polygon fill="white" stroke="black" points="239,-99 239,-129 371,-129 371,-99 239,-99"/>
<text text-anchor="start" x="247" y="-117" font-family="Helvetica,sans-Serif" font-size="10.00">authoring.view.levelview.</text>
<text text-anchor="middle" x="305" y="-106" font-family="Helvetica,sans-Serif" font-size="10.00">SingleLevelView.getID</text>
</a>
</g>
</g>
<!-- Node1&#45;&gt;Node19 -->
<g id="edge19" class="edge"><title>Node1&#45;&gt;Node19</title>
<path fill="none" stroke="midnightblue" d="M152.196,-147.965C176.505,-142.526 204.101,-136.352 229.035,-130.773"/>
<polygon fill="midnightblue" stroke="midnightblue" points="229.815,-134.185 238.81,-128.586 228.287,-127.354 229.815,-134.185"/>
</g>
<!-- Node20 -->
<g id="node20" class="node"><title>Node20</title>
<g id="a_node20"><a xlink:href="../../d4/d9e/classauthoring_1_1view_1_1propertiesview_1_1_properties_view.html#a0ed12b3aeb305f18623d1c370e06122f" target="_top" xlink:title="authoring.view.propertiesview.\lPropertiesView.makeProperties">
<polygon fill="white" stroke="black" points="222.5,-50 222.5,-80 387.5,-80 387.5,-50 222.5,-50"/>
<text text-anchor="start" x="230.5" y="-68" font-family="Helvetica,sans-Serif" font-size="10.00">authoring.view.propertiesview.</text>
<text text-anchor="middle" x="305" y="-57" font-family="Helvetica,sans-Serif" font-size="10.00">PropertiesView.makeProperties</text>
</a>
</g>
</g>
<!-- Node1&#45;&gt;Node20 -->
<g id="edge20" class="edge"><title>Node1&#45;&gt;Node20</title>
<path fill="none" stroke="midnightblue" d="M105.443,-147.756C128.352,-131.335 167.128,-105.485 204,-90 209.901,-87.5216 216.105,-85.2478 222.412,-83.1697"/>
<polygon fill="midnightblue" stroke="midnightblue" points="223.874,-86.3804 232.38,-80.0641 221.792,-79.6973 223.874,-86.3804"/>
</g>
<!-- Node5 -->
<g id="node5" class="node"><title>Node5</title>
<g id="a_node5"><a xlink:href="../../da/d8d/classauthoring_1_1view_1_1propertiesview_1_1_game_object_properties.html#a6f1aeaddb6956053690488c8ddaa38ba" target="_top" xlink:title="authoring.view.propertiesview.\lGameObjectProperties.edit">
<polygon fill="white" stroke="black" points="442.5,-148 442.5,-178 601.5,-178 601.5,-148 442.5,-148"/>
<text text-anchor="start" x="450.5" y="-166" font-family="Helvetica,sans-Serif" font-size="10.00">authoring.view.propertiesview.</text>
<text text-anchor="middle" x="522" y="-155" font-family="Helvetica,sans-Serif" font-size="10.00">GameObjectProperties.edit</text>
</a>
</g>
</g>
<!-- Node4&#45;&gt;Node5 -->
<g id="edge4" class="edge"><title>Node4&#45;&gt;Node5</title>
<path fill="none" stroke="midnightblue" d="M402.808,-163C412.652,-163 422.617,-163 432.368,-163"/>
<polygon fill="midnightblue" stroke="midnightblue" points="432.438,-166.5 442.438,-163 432.438,-159.5 432.438,-166.5"/>
</g>
<!-- Node6 -->
<g id="node6" class="node"><title>Node6</title>
<g id="a_node6"><a xlink:href="../../d0/d7f/classengine_1_1game_object_1_1_game_object.html#aaa9e6a91ab34565c61a227deff620b5b" target="_top" xlink:title="engine.gameObject.GameObject.get\lComponents">
<polygon fill="white" stroke="black" points="643,-285 643,-315 835,-315 835,-285 643,-285"/>
<text text-anchor="start" x="651" y="-303" font-family="Helvetica,sans-Serif" font-size="10.00">engine.gameObject.GameObject.get</text>
<text text-anchor="middle" x="739" y="-292" font-family="Helvetica,sans-Serif" font-size="10.00">Components</text>
</a>
</g>
</g>
<!-- Node5&#45;&gt;Node6 -->
<g id="edge5" class="edge"><title>Node5&#45;&gt;Node6</title>
<path fill="none" stroke="midnightblue" d="M534.239,-178.273C552.964,-202.584 592.967,-249.894 638,-275 642.13,-277.302 646.472,-279.396 650.94,-281.299"/>
<polygon fill="midnightblue" stroke="midnightblue" points="649.669,-284.56 660.257,-284.944 652.22,-278.041 649.669,-284.56"/>
</g>
<!-- Node7 -->
<g id="node7" class="node"><title>Node7</title>
<g id="a_node7"><a xlink:href="../../d0/d7f/classengine_1_1game_object_1_1_game_object.html#ae94fe532960bd29f64c2dc19ec0af798" target="_top" xlink:title="engine.gameObject.GameObject.getID">
<polygon fill="white" stroke="black" points="638,-246.5 638,-265.5 840,-265.5 840,-246.5 638,-246.5"/>
<text text-anchor="middle" x="739" y="-253.5" font-family="Helvetica,sans-Serif" font-size="10.00">engine.gameObject.GameObject.getID</text>
</a>
</g>
</g>
<!-- Node5&#45;&gt;Node7 -->
<g id="edge6" class="edge"><title>Node5&#45;&gt;Node7</title>
<path fill="none" stroke="midnightblue" d="M541.744,-178.003C563.576,-194.711 601.347,-221.297 638,-236 645.795,-239.127 654.135,-241.782 662.55,-244.032"/>
<polygon fill="midnightblue" stroke="midnightblue" points="661.886,-247.473 672.435,-246.492 663.576,-240.681 661.886,-247.473"/>
</g>
<!-- Node8 -->
<g id="node8" class="node"><title>Node8</title>
<g id="a_node8"><a xlink:href="../../d0/d7f/classengine_1_1game_object_1_1_game_object.html#a9a4690b212ecad4060ce8f9abbcedba5" target="_top" xlink:title="engine.gameObject.GameObject.set\lIdentifier">
<polygon fill="white" stroke="black" points="643.5,-197 643.5,-227 834.5,-227 834.5,-197 643.5,-197"/>
<text text-anchor="start" x="651.5" y="-215" font-family="Helvetica,sans-Serif" font-size="10.00">engine.gameObject.GameObject.set</text>
<text text-anchor="middle" x="739" y="-204" font-family="Helvetica,sans-Serif" font-size="10.00">Identifier</text>
</a>
</g>
</g>
<!-- Node5&#45;&gt;Node8 -->
<g id="edge7" class="edge"><title>Node5&#45;&gt;Node8</title>
<path fill="none" stroke="midnightblue" d="M588.968,-178.035C612.185,-183.326 638.456,-189.313 662.404,-194.771"/>
<polygon fill="midnightblue" stroke="midnightblue" points="661.629,-198.184 672.157,-196.994 663.184,-191.359 661.629,-198.184"/>
</g>
<!-- Node9 -->
<g id="node9" class="node"><title>Node9</title>
<g id="a_node9"><a xlink:href="../../d0/d7f/classengine_1_1game_object_1_1_game_object.html#accd456b2eaab9c7056de825a28b066c8" target="_top" xlink:title="engine.gameObject.GameObject.get\lIdentifier">
<polygon fill="white" stroke="black" points="643,-148 643,-178 835,-178 835,-148 643,-148"/>
<text text-anchor="start" x="651" y="-166" font-family="Helvetica,sans-Serif" font-size="10.00">engine.gameObject.GameObject.get</text>
<text text-anchor="middle" x="739" y="-155" font-family="Helvetica,sans-Serif" font-size="10.00">Identifier</text>
</a>
</g>
</g>
<!-- Node5&#45;&gt;Node9 -->
<g id="edge8" class="edge"><title>Node5&#45;&gt;Node9</title>
<path fill="none" stroke="midnightblue" d="M601.533,-163C611.714,-163 622.27,-163 632.796,-163"/>
<polygon fill="midnightblue" stroke="midnightblue" points="632.867,-166.5 642.867,-163 632.867,-159.5 632.867,-166.5"/>
</g>
<!-- Node10 -->
<g id="node10" class="node"><title>Node10</title>
<g id="a_node10"><a xlink:href="../../d9/d9d/classengine_1_1game_object_1_1components_1_1_physics_body.html#a69d3fe175f40fdc40ca6e414cac727a5" target="_top" xlink:title="engine.gameObject.components.\lPhysicsBody.addScalar">
<polygon fill="white" stroke="black" points="651,-99 651,-129 827,-129 827,-99 651,-99"/>
<text text-anchor="start" x="659" y="-117" font-family="Helvetica,sans-Serif" font-size="10.00">engine.gameObject.components.</text>
<text text-anchor="middle" x="739" y="-106" font-family="Helvetica,sans-Serif" font-size="10.00">PhysicsBody.addScalar</text>
</a>
</g>
</g>
<!-- Node5&#45;&gt;Node10 -->
<g id="edge9" class="edge"><title>Node5&#45;&gt;Node10</title>
<path fill="none" stroke="midnightblue" d="M588.968,-147.965C612.185,-142.674 638.456,-136.687 662.404,-131.229"/>
<polygon fill="midnightblue" stroke="midnightblue" points="663.184,-134.641 672.157,-129.006 661.629,-127.816 663.184,-134.641"/>
</g>
<!-- Node17 -->
<g id="node17" class="node"><title>Node17</title>
<g id="a_node17"><a xlink:href="../../d9/d9d/classengine_1_1game_object_1_1components_1_1_physics_body.html#a5f54f878a7fef4a77a58bbee39e8c9d3" target="_top" xlink:title="engine.gameObject.components.\lPhysicsBody.setVelocity">
<polygon fill="white" stroke="black" points="651,-50 651,-80 827,-80 827,-50 651,-50"/>
<text text-anchor="start" x="659" y="-68" font-family="Helvetica,sans-Serif" font-size="10.00">engine.gameObject.components.</text>
<text text-anchor="middle" x="739" y="-57" font-family="Helvetica,sans-Serif" font-size="10.00">PhysicsBody.setVelocity</text>
</a>
</g>
</g>
<!-- Node5&#45;&gt;Node17 -->
<g id="edge17" class="edge"><title>Node5&#45;&gt;Node17</title>
<path fill="none" stroke="midnightblue" d="M542.67,-147.717C564.734,-131.263 602.142,-105.385 638,-90 643.828,-87.4996 649.959,-85.2123 656.197,-83.1272"/>
<polygon fill="midnightblue" stroke="midnightblue" points="657.576,-86.3622 666.059,-80.0153 655.469,-79.6866 657.576,-86.3622"/>
</g>
<!-- Node18 -->
<g id="node18" class="node"><title>Node18</title>
<g id="a_node18"><a xlink:href="../../d0/d7f/classengine_1_1game_object_1_1_game_object.html#ab9b1029f6d5a8a7eb563d5e6e1dcf570" target="_top" xlink:title="engine.gameObject.GameObject.set\lPhysicsBody">
<polygon fill="white" stroke="black" points="643.5,-1 643.5,-31 834.5,-31 834.5,-1 643.5,-1"/>
<text text-anchor="start" x="651.5" y="-19" font-family="Helvetica,sans-Serif" font-size="10.00">engine.gameObject.GameObject.set</text>
<text text-anchor="middle" x="739" y="-8" font-family="Helvetica,sans-Serif" font-size="10.00">PhysicsBody</text>
</a>
</g>
</g>
<!-- Node5&#45;&gt;Node18 -->
<g id="edge18" class="edge"><title>Node5&#45;&gt;Node18</title>
<path fill="none" stroke="midnightblue" d="M533.037,-147.604C550.897,-121.49 590.785,-68.6613 638,-41 641.838,-38.7512 645.874,-36.7034 650.033,-34.8388"/>
<polygon fill="midnightblue" stroke="midnightblue" points="651.377,-38.0707 659.305,-31.0425 648.725,-31.5926 651.377,-38.0707"/>
</g>
<!-- Node11 -->
<g id="node11" class="node"><title>Node11</title>
<g id="a_node11"><a xlink:href="../../dc/db5/classengine_1_1physics_1_1_physics_component.html#aabe6f17a9d86eaf42e9df5769182dfa5" target="_top" xlink:title="engine.physics.PhysicsComponent.to\lString">
<polygon fill="white" stroke="black" points="876,-143 876,-173 1070,-173 1070,-143 876,-143"/>
<text text-anchor="start" x="884" y="-161" font-family="Helvetica,sans-Serif" font-size="10.00">engine.physics.PhysicsComponent.to</text>
<text text-anchor="middle" x="973" y="-150" font-family="Helvetica,sans-Serif" font-size="10.00">String</text>
</a>
</g>
</g>
<!-- Node10&#45;&gt;Node11 -->
<g id="edge10" class="edge"><title>Node10&#45;&gt;Node11</title>
<path fill="none" stroke="midnightblue" d="M819.192,-129.019C839.703,-132.909 861.927,-137.124 882.908,-141.103"/>
<polygon fill="midnightblue" stroke="midnightblue" points="882.294,-144.549 892.771,-142.974 883.598,-137.672 882.294,-144.549"/>
</g>
<!-- Node12 -->
<g id="node12" class="node"><title>Node12</title>
<g id="a_node12"><a xlink:href="../../d0/de5/classengine_1_1physics_1_1_scalar.html#afc6c4f29d09315850a328bb532d4bc35" target="_top" xlink:title="engine.physics.Scalar.iterator">
<polygon fill="white" stroke="black" points="894,-104.5 894,-123.5 1052,-123.5 1052,-104.5 894,-104.5"/>
<text text-anchor="middle" x="973" y="-111.5" font-family="Helvetica,sans-Serif" font-size="10.00">engine.physics.Scalar.iterator</text>
</a>
</g>
</g>
<!-- Node10&#45;&gt;Node12 -->
<g id="edge11" class="edge"><title>Node10&#45;&gt;Node12</title>
<path fill="none" stroke="midnightblue" d="M827.048,-114C845.491,-114 864.977,-114 883.473,-114"/>
<polygon fill="midnightblue" stroke="midnightblue" points="883.635,-117.5 893.635,-114 883.635,-110.5 883.635,-117.5"/>
</g>
<!-- Node13 -->
<g id="node13" class="node"><title>Node13</title>
<g id="a_node13"><a xlink:href="../../d9/d9d/classengine_1_1game_object_1_1components_1_1_physics_body.html#aec651bb9ed66c5c0db0bbbd0c2f445ae" target="_top" xlink:title="engine.gameObject.components.\lPhysicsBody.balanceForces">
<polygon fill="white" stroke="black" points="885,-55 885,-85 1061,-85 1061,-55 885,-55"/>
<text text-anchor="start" x="893" y="-73" font-family="Helvetica,sans-Serif" font-size="10.00">engine.gameObject.components.</text>
<text text-anchor="middle" x="973" y="-62" font-family="Helvetica,sans-Serif" font-size="10.00">PhysicsBody.balanceForces</text>
</a>
</g>
</g>
<!-- Node10&#45;&gt;Node13 -->
<g id="edge12" class="edge"><title>Node10&#45;&gt;Node13</title>
<path fill="none" stroke="midnightblue" d="M819.192,-98.9808C839.703,-95.0908 861.927,-90.8759 882.908,-86.8968"/>
<polygon fill="midnightblue" stroke="midnightblue" points="883.598,-90.3283 892.771,-85.0262 882.294,-83.4509 883.598,-90.3283"/>
</g>
<!-- Node14 -->
<g id="node14" class="node"><title>Node14</title>
<g id="a_node14"><a xlink:href="../../d5/d1f/classengine_1_1physics_1_1_vector.html#a0ad05574ba8b82b2f265ebfa5869d27b" target="_top" xlink:title="engine.physics.Vector.setX">
<polygon fill="white" stroke="black" points="1106,-79.5 1106,-98.5 1250,-98.5 1250,-79.5 1106,-79.5"/>
<text text-anchor="middle" x="1178" y="-86.5" font-family="Helvetica,sans-Serif" font-size="10.00">engine.physics.Vector.setX</text>
</a>
</g>
</g>
<!-- Node13&#45;&gt;Node14 -->
<g id="edge13" class="edge"><title>Node13&#45;&gt;Node14</title>
<path fill="none" stroke="midnightblue" d="M1061.27,-78.168C1072.62,-79.2307 1084.22,-80.316 1095.47,-81.3695"/>
<polygon fill="midnightblue" stroke="midnightblue" points="1095.41,-84.8792 1105.7,-82.3264 1096.07,-77.9096 1095.41,-84.8792"/>
</g>
<!-- Node16 -->
<g id="node16" class="node"><title>Node16</title>
<g id="a_node16"><a xlink:href="../../d5/d1f/classengine_1_1physics_1_1_vector.html#a4e646d4b9bf5a3904817560725776cec" target="_top" xlink:title="engine.physics.Vector.setY">
<polygon fill="white" stroke="black" points="1106.5,-41.5 1106.5,-60.5 1249.5,-60.5 1249.5,-41.5 1106.5,-41.5"/>
<text text-anchor="middle" x="1178" y="-48.5" font-family="Helvetica,sans-Serif" font-size="10.00">engine.physics.Vector.setY</text>
</a>
</g>
</g>
<!-- Node13&#45;&gt;Node16 -->
<g id="edge15" class="edge"><title>Node13&#45;&gt;Node16</title>
<path fill="none" stroke="midnightblue" d="M1061.27,-61.832C1072.9,-60.7429 1084.79,-59.63 1096.31,-58.5521"/>
<polygon fill="midnightblue" stroke="midnightblue" points="1096.69,-62.032 1106.32,-57.6153 1096.04,-55.0625 1096.69,-62.032"/>
</g>
<!-- Node15 -->
<g id="node15" class="node"><title>Node15</title>
<g id="a_node15"><a xlink:href="../../d5/d1f/classengine_1_1physics_1_1_vector.html#a33c635f15f2f2e16f9b57542c6c3182f" target="_top" xlink:title="engine.physics.Vector.calculate\lMagnitude">
<polygon fill="white" stroke="black" points="1286,-55 1286,-85 1452,-85 1452,-55 1286,-55"/>
<text text-anchor="start" x="1294" y="-73" font-family="Helvetica,sans-Serif" font-size="10.00">engine.physics.Vector.calculate</text>
<text text-anchor="middle" x="1369" y="-62" font-family="Helvetica,sans-Serif" font-size="10.00">Magnitude</text>
</a>
</g>
</g>
<!-- Node14&#45;&gt;Node15 -->
<g id="edge14" class="edge"><title>Node14&#45;&gt;Node15</title>
<path fill="none" stroke="midnightblue" d="M1250.18,-81.844C1258.53,-81.0047 1267.14,-80.1395 1275.72,-79.2766"/>
<polygon fill="midnightblue" stroke="midnightblue" points="1276.17,-82.7494 1285.77,-78.2666 1275.47,-75.7845 1276.17,-82.7494"/>
</g>
<!-- Node16&#45;&gt;Node15 -->
<g id="edge16" class="edge"><title>Node16&#45;&gt;Node15</title>
<path fill="none" stroke="midnightblue" d="M1249.65,-58.1019C1258.25,-58.9673 1267.14,-59.8611 1276.01,-60.7519"/>
<polygon fill="midnightblue" stroke="midnightblue" points="1275.68,-64.2369 1285.98,-61.7548 1276.38,-57.272 1275.68,-64.2369"/>
</g>
</g>
</svg>
        <g id="navigator" transform="translate(0 0)" fill="#404254">
                <rect fill="#f2f5e9" fill-opacity="0.5" stroke="#606060" stroke-width=".5" x="0" y="0" width="60" height="60"/>
                <use id="zoomplus" xlink:href="#zoomPlus" x="17" y="9" onmousedown="handleZoom(evt,'in')"/>
                <use id="zoomminus" xlink:href="#zoomMin" x="42" y="9" onmousedown="handleZoom(evt,'out')"/>
                <use id="reset" xlink:href="#resetDef" x="30" y="36" onmousedown="handleReset()"/>
                <g id="arrowUp" xlink:href="#dirArrow" transform="translate(30 24)" onmousedown="handlePan(0,-1)">
                  <use xlink:href="#rim" fill="#404040">
                        <set attributeName="fill" to="#808080" begin="arrowUp.mouseover" end="arrowUp.mouseout"/>
                  </use>
                  <path fill="none" stroke="white" stroke-width="1.5" d="M0,-3.0v7 M-2.5,-0.5L0,-3.0L2.5,-0.5"/>
                </g>
                <g id="arrowRight" xlink:href="#dirArrow" transform="rotate(90) translate(36 -43)" onmousedown="handlePan(1,0)">
                  <use xlink:href="#rim" fill="#404040">
                        <set attributeName="fill" to="#808080" begin="arrowRight.mouseover" end="arrowRight.mouseout"/>
                  </use>
                  <path fill="none" stroke="white" stroke-width="1.5" d="M0,-3.0v7 M-2.5,-0.5L0,-3.0L2.5,-0.5"/>
                </g>
                <g id="arrowDown" xlink:href="#dirArrow" transform="rotate(180) translate(-30 -48)" onmousedown="handlePan(0,1)">
                  <use xlink:href="#rim" fill="#404040">
                        <set attributeName="fill" to="#808080" begin="arrowDown.mouseover" end="arrowDown.mouseout"/>
                  </use>
                  <path fill="none" stroke="white" stroke-width="1.5" d="M0,-3.0v7 M-2.5,-0.5L0,-3.0L2.5,-0.5"/>
                </g>
                <g id="arrowLeft" xlink:href="#dirArrow" transform="rotate(270) translate(-36 17)" onmousedown="handlePan(-1,0)">
                  <use xlink:href="#rim" fill="#404040">
                        <set attributeName="fill" to="#808080" begin="arrowLeft.mouseover" end="arrowLeft.mouseout"/>
                  </use>
                  <path fill="none" stroke="white" stroke-width="1.5" d="M0,-3.0v7 M-2.5,-0.5L0,-3.0L2.5,-0.5"/>
                </g>
        </g>
        <svg viewBox="0 0 15 15" width="100%" height="30px" preserveAspectRatio="xMaxYMin meet">
         <g id="arrow_out" transform="scale(0.3 0.3)">
          <a xlink:href="classauthoring_1_1eventhandlers_1_1_edit_game_object_handler_ac0a03e6b751068903df50296d9f1fbd7_cgraph_org.svg" target="_base">
           <rect id="button" ry="5" rx="5" y="6" x="6" height="38" width="38"
                fill="#f2f5e9" fill-opacity="0.5" stroke="#606060" stroke-width="1.0"/>
           <path id="arrow"
             d="M 11.500037,31.436501 C 11.940474,20.09759 22.043105,11.32322 32.158766,21.979434 L 37.068811,17.246167 C 37.068811,17.246167 37.088388,32 37.088388,32 L 22.160133,31.978069 C 22.160133,31.978069 26.997745,27.140456 26.997745,27.140456 C 18.528582,18.264221 13.291696,25.230495 11.500037,31.436501 z"
             style="fill:#404040;"/>
          </a>
         </g>
        </svg>
</svg>
