<?xml version="1.0" encoding="UTF-8" standalone="no"?>
<!DOCTYPE svg PUBLIC "-//W3C//DTD SVG 1.1//EN"
 "http://www.w3.org/Graphics/SVG/1.1/DTD/svg11.dtd">
<!-- Generated by graphviz version 2.36.0 (20140111.2315)
 -->
<!-- Title: engine.conditions.GameObjectCondition.initialize Pages: 1 -->
<svg width="610pt" height="136pt"
 viewBox="0.00 0.00 610.00 136.00" xmlns="http://www.w3.org/2000/svg" xmlns:xlink="http://www.w3.org/1999/xlink">
<g id="graph0" class="graph" transform="scale(1 1) rotate(0) translate(4 132)">
<title>engine.conditions.GameObjectCondition.initialize</title>
<polygon fill="white" stroke="none" points="-4,4 -4,-132 606,-132 606,4 -4,4"/>
<!-- Node1 -->
<g id="node1" class="node"><title>Node1</title>
<polygon fill="#bfbfbf" stroke="black" points="0,-49 0,-79 164,-79 164,-49 0,-49"/>
<text text-anchor="start" x="8" y="-67" font-family="Helvetica,sans-Serif" font-size="10.00">engine.conditions.GameObject</text>
<text text-anchor="middle" x="82" y="-56" font-family="Helvetica,sans-Serif" font-size="10.00">Condition.initialize</text>
</g>
<!-- Node2 -->
<g id="node2" class="node"><title>Node2</title>
<g id="a_node2"><a xlink:href="../../d4/d3b/classauthoring_1_1model_1_1collections_1_1_general_collection.html#a1bdc1047736bbb23259d6a7fe4c6deeb" target="_top" xlink:title="authoring.model.collections.\lGeneralCollection.add">
<polygon fill="white" stroke="black" points="219,-98 219,-128 371,-128 371,-98 219,-98"/>
<text text-anchor="start" x="227" y="-116" font-family="Helvetica,sans-Serif" font-size="10.00">authoring.model.collections.</text>
<text text-anchor="middle" x="295" y="-105" font-family="Helvetica,sans-Serif" font-size="10.00">GeneralCollection.add</text>
</a>
</g>
</g>
<!-- Node1&#45;&gt;Node2 -->
<g id="edge1" class="edge"><title>Node1&#45;&gt;Node2</title>
<path fill="none" stroke="midnightblue" d="M147.741,-79.0346C170.425,-84.3024 196.079,-90.2601 219.497,-95.6984"/>
<polygon fill="midnightblue" stroke="midnightblue" points="218.849,-99.1409 229.382,-97.9938 220.432,-92.3224 218.849,-99.1409"/>
</g>
<!-- Node3 -->
<g id="node3" class="node"><title>Node3</title>
<g id="a_node3"><a xlink:href="../../d1/d3b/classengine_1_1conditions_1_1_condition.html#af76d495528a20a8dd66fbed133d158e4" target="_top" xlink:title="engine.conditions.Condition.initialize\lActions">
<polygon fill="white" stroke="black" points="200,-49 200,-79 390,-79 390,-49 200,-49"/>
<text text-anchor="start" x="208" y="-67" font-family="Helvetica,sans-Serif" font-size="10.00">engine.conditions.Condition.initialize</text>
<text text-anchor="middle" x="295" y="-56" font-family="Helvetica,sans-Serif" font-size="10.00">Actions</text>
</a>
</g>
</g>
<!-- Node1&#45;&gt;Node3 -->
<g id="edge2" class="edge"><title>Node1&#45;&gt;Node3</title>
<path fill="none" stroke="midnightblue" d="M164.276,-64C172.62,-64 181.178,-64 189.726,-64"/>
<polygon fill="midnightblue" stroke="midnightblue" points="189.741,-67.5001 199.741,-64 189.741,-60.5001 189.741,-67.5001"/>
</g>
<!-- Node4 -->
<g id="node4" class="node"><title>Node4</title>
<g id="a_node4"><a xlink:href="../../d6/d94/classengine_1_1_game_manager.html#a9af317a4a01084f259f64666d5552223" target="_top" xlink:title="engine.GameManager.object\lForIdentifier">
<polygon fill="white" stroke="black" points="217.5,-0 217.5,-30 372.5,-30 372.5,-0 217.5,-0"/>
<text text-anchor="start" x="225.5" y="-18" font-family="Helvetica,sans-Serif" font-size="10.00">engine.GameManager.object</text>
<text text-anchor="middle" x="295" y="-7" font-family="Helvetica,sans-Serif" font-size="10.00">ForIdentifier</text>
</a>
</g>
</g>
<!-- Node1&#45;&gt;Node4 -->
<g id="edge3" class="edge"><title>Node1&#45;&gt;Node4</title>
<path fill="none" stroke="midnightblue" d="M147.741,-48.9654C170.425,-43.6976 196.079,-37.7399 219.497,-32.3016"/>
<polygon fill="midnightblue" stroke="midnightblue" points="220.432,-35.6776 229.382,-30.0062 218.849,-28.8591 220.432,-35.6776"/>
</g>
<!-- Node5 -->
<g id="node5" class="node"><title>Node5</title>
<g id="a_node5"><a xlink:href="../../df/d67/classengine_1_1level_1_1_level_manager.html#a6e15411e375d875fa72058d499bec766" target="_top" xlink:title="engine.level.LevelManager.object\lForIdentifier">
<polygon fill="white" stroke="black" points="426.5,-0 426.5,-30 601.5,-30 601.5,-0 426.5,-0"/>
<text text-anchor="start" x="434.5" y="-18" font-family="Helvetica,sans-Serif" font-size="10.00">engine.level.LevelManager.object</text>
<text text-anchor="middle" x="514" y="-7" font-family="Helvetica,sans-Serif" font-size="10.00">ForIdentifier</text>
</a>
</g>
</g>
<!-- Node4&#45;&gt;Node5 -->
<g id="edge4" class="edge"><title>Node4&#45;&gt;Node5</title>
<path fill="none" stroke="midnightblue" d="M372.506,-15C386.684,-15 401.661,-15 416.346,-15"/>
<polygon fill="midnightblue" stroke="midnightblue" points="416.453,-18.5001 426.453,-15 416.453,-11.5001 416.453,-18.5001"/>
</g>
</g>
</svg>
