<?xml version="1.0" encoding="UTF-8" standalone="no"?>
<!DOCTYPE svg PUBLIC "-//W3C//DTD SVG 1.1//EN"
 "http://www.w3.org/Graphics/SVG/1.1/DTD/svg11.dtd">
<!-- Generated by graphviz version 2.36.0 (20140111.2315)
 -->
<!-- Title: engine.actions.TranslateTypeAction Pages: 1 -->
<svg width="290pt" height="220pt"
 viewBox="0.00 0.00 290.00 220.00" xmlns="http://www.w3.org/2000/svg" xmlns:xlink="http://www.w3.org/1999/xlink">
<g id="graph0" class="graph" transform="scale(1 1) rotate(0) translate(4 216)">
<title>engine.actions.TranslateTypeAction</title>
<polygon fill="white" stroke="none" points="-4,4 -4,-216 286,-216 286,4 -4,4"/>
<!-- Node1 -->
<g id="node1" class="node"><title>Node1</title>
<polygon fill="#bfbfbf" stroke="black" points="75,-69 75,-99 207,-99 207,-69 75,-69"/>
<text text-anchor="start" x="83" y="-87" font-family="Helvetica,sans-Serif" font-size="10.00">engine.actions.Translate</text>
<text text-anchor="middle" x="141" y="-76" font-family="Helvetica,sans-Serif" font-size="10.00">TypeAction</text>
</g>
<!-- Node4 -->
<g id="node4" class="node"><title>Node4</title>
<g id="a_node4"><a xlink:href="../../d0/d80/classengine_1_1actions_1_1_translate_x_type.html" target="_top" xlink:title="engine.actions.Translate\lXType">
<polygon fill="white" stroke="black" points="0,-1 0,-31 132,-31 132,-1 0,-1"/>
<text text-anchor="start" x="8" y="-19" font-family="Helvetica,sans-Serif" font-size="10.00">engine.actions.Translate</text>
<text text-anchor="middle" x="66" y="-8" font-family="Helvetica,sans-Serif" font-size="10.00">XType</text>
</a>
</g>
</g>
<!-- Node1&#45;&gt;Node4 -->
<g id="edge4" class="edge"><title>Node1&#45;&gt;Node4</title>
<path fill="none" stroke="midnightblue" d="M117.157,-62.0184C105.676,-51.9145 92.2155,-40.0696 81.9845,-31.0663"/>
<polygon fill="midnightblue" stroke="midnightblue" points="114.907,-64.7002 124.726,-68.679 119.531,-59.4452 114.907,-64.7002"/>
</g>
<!-- Node5 -->
<g id="node5" class="node"><title>Node5</title>
<g id="a_node5"><a xlink:href="../../d3/d17/classengine_1_1actions_1_1_translate_y_type.html" target="_top" xlink:title="engine.actions.Translate\lYType">
<polygon fill="white" stroke="black" points="150,-1 150,-31 282,-31 282,-1 150,-1"/>
<text text-anchor="start" x="158" y="-19" font-family="Helvetica,sans-Serif" font-size="10.00">engine.actions.Translate</text>
<text text-anchor="middle" x="216" y="-8" font-family="Helvetica,sans-Serif" font-size="10.00">YType</text>
</a>
</g>
</g>
<!-- Node1&#45;&gt;Node5 -->
<g id="edge5" class="edge"><title>Node1&#45;&gt;Node5</title>
<path fill="none" stroke="midnightblue" d="M164.843,-62.0184C176.324,-51.9145 189.785,-40.0696 200.016,-31.0663"/>
<polygon fill="midnightblue" stroke="midnightblue" points="162.469,-59.4452 157.274,-68.679 167.093,-64.7002 162.469,-59.4452"/>
</g>
<!-- Node2 -->
<g id="node2" class="node"><title>Node2</title>
<g id="a_node2"><a xlink:href="../../d9/dd2/interfaceengine_1_1actions_1_1_action.html" target="_top" xlink:title="engine.actions.Action">
<polygon fill="white" stroke="black" points="125.5,-136.5 125.5,-155.5 244.5,-155.5 244.5,-136.5 125.5,-136.5"/>
<text text-anchor="middle" x="185" y="-143.5" font-family="Helvetica,sans-Serif" font-size="10.00">engine.actions.Action</text>
</a>
</g>
</g>
<!-- Node2&#45;&gt;Node1 -->
<g id="edge1" class="edge"><title>Node2&#45;&gt;Node1</title>
<path fill="none" stroke="midnightblue" d="M172.611,-128.106C165.911,-118.97 157.73,-107.814 151.37,-99.1408"/>
<polygon fill="midnightblue" stroke="midnightblue" points="169.96,-130.409 178.696,-136.403 175.605,-126.27 169.96,-130.409"/>
</g>
<!-- Node3 -->
<g id="node3" class="node"><title>Node3</title>
<g id="a_node3"><a xlink:href="../../d2/d15/interfaceengine_1_1actions_1_1_initializable.html" target="_top" xlink:title="engine.actions.Initializable">
<polygon fill="white" stroke="black" points="70,-192.5 70,-211.5 212,-211.5 212,-192.5 70,-192.5"/>
<text text-anchor="middle" x="141" y="-199.5" font-family="Helvetica,sans-Serif" font-size="10.00">engine.actions.Initializable</text>
</a>
</g>
</g>
<!-- Node3&#45;&gt;Node1 -->
<g id="edge3" class="edge"><title>Node3&#45;&gt;Node1</title>
<path fill="none" stroke="midnightblue" d="M129.243,-183.769C124.437,-175.71 119.439,-165.755 117,-156 111.982,-135.929 122.456,-113.401 131.113,-99.211"/>
<polygon fill="midnightblue" stroke="midnightblue" points="126.309,-185.678 134.633,-192.232 132.213,-181.917 126.309,-185.678"/>
</g>
<!-- Node3&#45;&gt;Node2 -->
<g id="edge2" class="edge"><title>Node3&#45;&gt;Node2</title>
<path fill="none" stroke="midnightblue" d="M154.735,-184.144C162.401,-174.736 171.633,-163.405 177.869,-155.751"/>
<polygon fill="midnightblue" stroke="midnightblue" points="151.869,-182.12 148.266,-192.083 157.296,-186.541 151.869,-182.12"/>
</g>
</g>
</svg>
