<?xml version="1.0" encoding="UTF-8" standalone="no"?>
<!DOCTYPE svg PUBLIC "-//W3C//DTD SVG 1.1//EN"
 "http://www.w3.org/Graphics/SVG/1.1/DTD/svg11.dtd">
<!-- Generated by graphviz version 2.36.0 (20140111.2315)
 -->
<!-- Title: authoring.view.icons.GameObjectIcon Pages: 1 -->
<svg width="1588pt" height="570pt"
 viewBox="0.00 0.00 1588.00 569.85" xmlns="http://www.w3.org/2000/svg" xmlns:xlink="http://www.w3.org/1999/xlink">
<g id="graph0" class="graph" transform="scale(1 1) rotate(0) translate(4 565.854)">
<title>authoring.view.icons.GameObjectIcon</title>
<polygon fill="white" stroke="none" points="-4,4 -4,-565.854 1584,-565.854 1584,4 -4,4"/>
<!-- Node1 -->
<g id="node1" class="node"><title>Node1</title>
<polygon fill="#bfbfbf" stroke="black" points="1434.5,-346.854 1434.5,-376.854 1579.5,-376.854 1579.5,-346.854 1434.5,-346.854"/>
<text text-anchor="start" x="1442.5" y="-364.854" font-family="Helvetica,sans-Serif" font-size="10.00">authoring.view.icons.Game</text>
<text text-anchor="middle" x="1507" y="-353.854" font-family="Helvetica,sans-Serif" font-size="10.00">ObjectIcon</text>
</g>
<!-- Node2 -->
<g id="node2" class="node"><title>Node2</title>
<g id="a_node2"><a xlink:href="../../d5/d47/classauthoring_1_1view_1_1icons_1_1_image_based_icon.html" target="_top" xlink:title="authoring.view.icons.Image\lBasedIcon">
<polygon fill="white" stroke="black" points="1158,-468.854 1158,-498.854 1304,-498.854 1304,-468.854 1158,-468.854"/>
<text text-anchor="start" x="1166" y="-486.854" font-family="Helvetica,sans-Serif" font-size="10.00">authoring.view.icons.Image</text>
<text text-anchor="middle" x="1231" y="-475.854" font-family="Helvetica,sans-Serif" font-size="10.00">BasedIcon</text>
</a>
</g>
</g>
<!-- Node2&#45;&gt;Node1 -->
<g id="edge1" class="edge"><title>Node2&#45;&gt;Node1</title>
<path fill="none" stroke="midnightblue" d="M1275.27,-464.587C1329.85,-440.286 1422.54,-399.014 1472.2,-376.902"/>
<polygon fill="midnightblue" stroke="midnightblue" points="1273.58,-461.507 1265.87,-468.772 1276.43,-467.902 1273.58,-461.507"/>
</g>
<!-- Node3 -->
<g id="node3" class="node"><title>Node3</title>
<g id="a_node3"><a xlink:href="../../de/d21/classauthoring_1_1view_1_1icons_1_1_file_icon.html" target="_top" xlink:title="authoring.view.icons.FileIcon">
<polygon fill="white" stroke="black" points="855,-513.354 855,-532.354 1005,-532.354 1005,-513.354 855,-513.354"/>
<text text-anchor="middle" x="930" y="-520.354" font-family="Helvetica,sans-Serif" font-size="10.00">authoring.view.icons.FileIcon</text>
</a>
</g>
</g>
<!-- Node3&#45;&gt;Node2 -->
<g id="edge2" class="edge"><title>Node3&#45;&gt;Node2</title>
<path fill="none" stroke="midnightblue" d="M1015.1,-512.19C1049.49,-507.799 1089.66,-502.63 1126,-497.854 1136.3,-496.501 1147.16,-495.057 1157.84,-493.629"/>
<polygon fill="midnightblue" stroke="midnightblue" points="1014.57,-508.729 1005.09,-513.467 1015.45,-515.673 1014.57,-508.729"/>
</g>
<!-- Node4 -->
<g id="node4" class="node"><title>Node4</title>
<g id="a_node4"><a xlink:href="../../dd/db4/classauthoring_1_1view_1_1icons_1_1_base_icon.html" target="_top" xlink:title="authoring.view.icons.BaseIcon">
<polygon fill="white" stroke="black" points="508.5,-504.354 508.5,-523.354 667.5,-523.354 667.5,-504.354 508.5,-504.354"/>
<text text-anchor="middle" x="588" y="-511.354" font-family="Helvetica,sans-Serif" font-size="10.00">authoring.view.icons.BaseIcon</text>
</a>
</g>
</g>
<!-- Node4&#45;&gt;Node3 -->
<g id="edge3" class="edge"><title>Node4&#45;&gt;Node3</title>
<path fill="none" stroke="midnightblue" d="M677.959,-516.209C733.023,-517.667 802.896,-519.516 854.937,-520.894"/>
<polygon fill="midnightblue" stroke="midnightblue" points="677.947,-512.708 667.857,-515.942 677.761,-519.705 677.947,-512.708"/>
</g>
<!-- Node5 -->
<g id="node5" class="node"><title>Node5</title>
<polygon fill="white" stroke="#bfbfbf" points="284.5,-483.354 284.5,-502.354 325.5,-502.354 325.5,-483.354 284.5,-483.354"/>
<text text-anchor="middle" x="305" y="-490.354" font-family="Helvetica,sans-Serif" font-size="10.00">VBox</text>
</g>
<!-- Node5&#45;&gt;Node4 -->
<g id="edge4" class="edge"><title>Node5&#45;&gt;Node4</title>
<path fill="none" stroke="midnightblue" d="M335.833,-495.084C376.562,-498.128 451.053,-503.695 508.374,-507.978"/>
<polygon fill="midnightblue" stroke="midnightblue" points="335.992,-491.586 325.759,-494.331 335.471,-498.567 335.992,-491.586"/>
</g>
<!-- Node6 -->
<g id="node6" class="node"><title>Node6</title>
<g id="a_node6"><a xlink:href="../../d3/d6a/interfaceauthoring_1_1eventhandlers_1_1_game_handler.html" target="_top" xlink:title="authoring.eventhandlers.\lGameHandler\&lt; T extends\l Event \&gt;">
<polygon fill="white" stroke="black" points="234.5,-521.354 234.5,-562.354 375.5,-562.354 375.5,-521.354 234.5,-521.354"/>
<text text-anchor="start" x="242.5" y="-550.354" font-family="Helvetica,sans-Serif" font-size="10.00">authoring.eventhandlers.</text>
<text text-anchor="start" x="242.5" y="-539.354" font-family="Helvetica,sans-Serif" font-size="10.00">GameHandler&lt; T extends</text>
<text text-anchor="middle" x="305" y="-528.354" font-family="Helvetica,sans-Serif" font-size="10.00"> Event &gt;</text>
</a>
</g>
</g>
<!-- Node6&#45;&gt;Node4 -->
<g id="edge5" class="edge"><title>Node6&#45;&gt;Node4</title>
<path fill="none" stroke="#9a32cd" stroke-dasharray="5,2" d="M385.922,-533.891C424.305,-530.066 470.148,-525.498 508.363,-521.69"/>
<polygon fill="#9a32cd" stroke="#9a32cd" points="385.425,-530.423 375.822,-534.897 386.12,-537.388 385.425,-530.423"/>
<text text-anchor="middle" x="441" y="-533.854" font-family="Helvetica,sans-Serif" font-size="10.00"> myOnClick</text>
</g>
<!-- Node7 -->
<g id="node7" class="node"><title>Node7</title>
<polygon fill="white" stroke="#bfbfbf" points="0,-532.354 0,-551.354 176,-551.354 176,-532.354 0,-532.354"/>
<text text-anchor="middle" x="88" y="-539.354" font-family="Helvetica,sans-Serif" font-size="10.00">javafx::event::EventHandler&lt; T &gt;</text>
</g>
<!-- Node7&#45;&gt;Node6 -->
<g id="edge6" class="edge"><title>Node7&#45;&gt;Node6</title>
<path fill="none" stroke="midnightblue" d="M186.169,-541.854C202.366,-541.854 218.879,-541.854 234.218,-541.854"/>
<polygon fill="midnightblue" stroke="midnightblue" points="186.139,-538.354 176.139,-541.854 186.139,-545.354 186.139,-538.354"/>
</g>
<!-- Node8 -->
<g id="node8" class="node"><title>Node8</title>
<polygon fill="white" stroke="#bfbfbf" points="572,-542.354 572,-561.354 604,-561.354 604,-542.354 572,-542.354"/>
<text text-anchor="middle" x="588" y="-549.354" font-family="Helvetica,sans-Serif" font-size="10.00">File</text>
</g>
<!-- Node8&#45;&gt;Node3 -->
<g id="edge7" class="edge"><title>Node8&#45;&gt;Node3</title>
<path fill="none" stroke="#9a32cd" stroke-dasharray="5,2" d="M614.313,-549.695C664.578,-545.408 778.684,-535.675 854.781,-529.185"/>
<polygon fill="#9a32cd" stroke="#9a32cd" points="613.714,-546.234 604.048,-550.571 614.309,-553.208 613.714,-546.234"/>
<text text-anchor="middle" x="766" y="-543.854" font-family="Helvetica,sans-Serif" font-size="10.00"> myGameLocation</text>
</g>
<!-- Node9 -->
<g id="node9" class="node"><title>Node9</title>
<polygon fill="white" stroke="#bfbfbf" points="554,-463.354 554,-482.354 622,-482.354 622,-463.354 554,-463.354"/>
<text text-anchor="middle" x="588" y="-470.354" font-family="Helvetica,sans-Serif" font-size="10.00">ImageView</text>
</g>
<!-- Node9&#45;&gt;Node2 -->
<g id="edge8" class="edge"><title>Node9&#45;&gt;Node2</title>
<path fill="none" stroke="#9a32cd" stroke-dasharray="5,2" d="M632.336,-473.598C740.612,-475.456 1023.85,-480.317 1157.81,-482.615"/>
<polygon fill="#9a32cd" stroke="#9a32cd" points="632.172,-470.095 622.113,-473.423 632.052,-477.094 632.172,-470.095"/>
<text text-anchor="middle" x="930" y="-483.854" font-family="Helvetica,sans-Serif" font-size="10.00"> myImageView</text>
</g>
<!-- Node18 -->
<g id="node18" class="node"><title>Node18</title>
<g id="a_node18"><a xlink:href="../../d2/d82/classengine_1_1render_1_1_rendered_node.html" target="_top" xlink:title="engine.render.RenderedNode">
<polygon fill="white" stroke="black" points="852,-380.354 852,-399.354 1008,-399.354 1008,-380.354 852,-380.354"/>
<text text-anchor="middle" x="930" y="-387.354" font-family="Helvetica,sans-Serif" font-size="10.00">engine.render.RenderedNode</text>
</a>
</g>
</g>
<!-- Node9&#45;&gt;Node18 -->
<g id="edge20" class="edge"><title>Node9&#45;&gt;Node18</title>
<path fill="none" stroke="#9a32cd" stroke-dasharray="5,2" d="M632.073,-467.387C679.613,-460.796 758.129,-448.26 824,-429.854 853.496,-421.612 886.305,-408.435 907.27,-399.476"/>
<polygon fill="#9a32cd" stroke="#9a32cd" points="631.562,-463.924 622.126,-468.741 632.507,-470.86 631.562,-463.924"/>
<text text-anchor="middle" x="766" y="-458.854" font-family="Helvetica,sans-Serif" font-size="10.00"> myImageView</text>
</g>
<!-- Node10 -->
<g id="node10" class="node"><title>Node10</title>
<g id="a_node10"><a xlink:href="../../d0/d7f/classengine_1_1game_object_1_1_game_object.html" target="_top" xlink:title="engine.gameObject.GameObject">
<polygon fill="white" stroke="black" points="1144.5,-179.354 1144.5,-198.354 1317.5,-198.354 1317.5,-179.354 1144.5,-179.354"/>
<text text-anchor="middle" x="1231" y="-186.354" font-family="Helvetica,sans-Serif" font-size="10.00">engine.gameObject.GameObject</text>
</a>
</g>
</g>
<!-- Node10&#45;&gt;Node1 -->
<g id="edge9" class="edge"><title>Node10&#45;&gt;Node1</title>
<path fill="none" stroke="#9a32cd" stroke-dasharray="5,2" d="M1255.63,-203.775C1307.31,-236.403 1429.88,-313.796 1481.94,-346.666"/>
<polygon fill="#9a32cd" stroke="#9a32cd" points="1257.45,-200.781 1247.12,-198.402 1253.71,-206.7 1257.45,-200.781"/>
<text text-anchor="middle" x="1376" y="-304.854" font-family="Helvetica,sans-Serif" font-size="10.00"> myGameObject</text>
</g>
<!-- Node11 -->
<g id="node11" class="node"><title>Node11</title>
<g id="a_node11"><a xlink:href="../../d7/de6/interfaceengine_1_1game_object_1_1_i_enabled.html" target="_top" xlink:title="engine.gameObject.IEnabled">
<polygon fill="white" stroke="black" points="853,-236.354 853,-255.354 1007,-255.354 1007,-236.354 853,-236.354"/>
<text text-anchor="middle" x="930" y="-243.354" font-family="Helvetica,sans-Serif" font-size="10.00">engine.gameObject.IEnabled</text>
</a>
</g>
</g>
<!-- Node11&#45;&gt;Node10 -->
<g id="edge10" class="edge"><title>Node11&#45;&gt;Node10</title>
<path fill="none" stroke="midnightblue" d="M1003.24,-234.675C1040.07,-228.709 1085.53,-220.941 1126,-212.854 1147.62,-208.534 1171.62,-203.044 1191.1,-198.406"/>
<polygon fill="midnightblue" stroke="midnightblue" points="1002.4,-231.264 993.086,-236.308 1003.52,-238.175 1002.4,-231.264"/>
</g>
<!-- Node12 -->
<g id="node12" class="node"><title>Node12</title>
<polygon fill="white" stroke="#bfbfbf" points="864.5,-198.354 864.5,-217.354 995.5,-217.354 995.5,-198.354 864.5,-198.354"/>
<text text-anchor="middle" x="930" y="-205.354" font-family="Helvetica,sans-Serif" font-size="10.00">Iterable&lt; Component &gt;</text>
</g>
<!-- Node12&#45;&gt;Node10 -->
<g id="edge11" class="edge"><title>Node12&#45;&gt;Node10</title>
<path fill="none" stroke="midnightblue" d="M1005.69,-203.108C1047.79,-200.433 1100.55,-197.08 1144.32,-194.299"/>
<polygon fill="midnightblue" stroke="midnightblue" points="1005.27,-199.628 995.51,-203.755 1005.71,-206.614 1005.27,-199.628"/>
</g>
<!-- Node13 -->
<g id="node13" class="node"><title>Node13</title>
<g id="a_node13"><a xlink:href="../../dc/df6/interfaceengine_1_1game_object_1_1_identifiable.html" target="_top" xlink:title="engine.gameObject.Identifiable">
<polygon fill="white" stroke="black" points="847.5,-160.354 847.5,-179.354 1012.5,-179.354 1012.5,-160.354 847.5,-160.354"/>
<text text-anchor="middle" x="930" y="-167.354" font-family="Helvetica,sans-Serif" font-size="10.00">engine.gameObject.Identifiable</text>
</a>
</g>
</g>
<!-- Node13&#45;&gt;Node10 -->
<g id="edge12" class="edge"><title>Node13&#45;&gt;Node10</title>
<path fill="none" stroke="midnightblue" d="M1022.93,-175.696C1061.66,-178.157 1106.47,-181.005 1144.48,-183.42"/>
<polygon fill="midnightblue" stroke="midnightblue" points="1022.9,-172.187 1012.7,-175.046 1022.46,-179.173 1022.9,-172.187"/>
</g>
<!-- Node14 -->
<g id="node14" class="node"><title>Node14</title>
<g id="a_node14"><a xlink:href="../../d4/dac/classengine_1_1game_object_1_1_identifier.html" target="_top" xlink:title="engine.gameObject.Identifier">
<polygon fill="white" stroke="black" points="852.5,-122.354 852.5,-141.354 1007.5,-141.354 1007.5,-122.354 852.5,-122.354"/>
<text text-anchor="middle" x="930" y="-129.354" font-family="Helvetica,sans-Serif" font-size="10.00">engine.gameObject.Identifier</text>
</a>
</g>
</g>
<!-- Node14&#45;&gt;Node10 -->
<g id="edge13" class="edge"><title>Node14&#45;&gt;Node10</title>
<path fill="none" stroke="#9a32cd" stroke-dasharray="5,2" d="M1014.54,-142.808C1049.17,-147.841 1089.67,-154.363 1126,-161.854 1149.75,-166.751 1176.2,-173.637 1196.48,-179.23"/>
<polygon fill="#9a32cd" stroke="#9a32cd" points="1014.86,-139.319 1004.47,-141.362 1013.87,-146.248 1014.86,-139.319"/>
<text text-anchor="middle" x="1081" y="-164.854" font-family="Helvetica,sans-Serif" font-size="10.00"> myId</text>
</g>
<!-- Node15 -->
<g id="node15" class="node"><title>Node15</title>
<g id="a_node15"><a xlink:href="../../da/d35/classengine_1_1scrolling_1_1_scrolling_utility.html" target="_top" xlink:title="engine.scrolling.Scrolling\lUtility">
<polygon fill="white" stroke="black" points="863,-72.8543 863,-102.854 997,-102.854 997,-72.8543 863,-72.8543"/>
<text text-anchor="start" x="871" y="-90.8543" font-family="Helvetica,sans-Serif" font-size="10.00">engine.scrolling.Scrolling</text>
<text text-anchor="middle" x="930" y="-79.8543" font-family="Helvetica,sans-Serif" font-size="10.00">Utility</text>
</a>
</g>
</g>
<!-- Node15&#45;&gt;Node10 -->
<g id="edge14" class="edge"><title>Node15&#45;&gt;Node10</title>
<path fill="none" stroke="#9a32cd" stroke-dasharray="5,2" d="M1007.45,-99.9768C1044.03,-107.062 1088.02,-117.488 1126,-131.854 1159.7,-144.603 1195.93,-166.558 1215.48,-179.175"/>
<polygon fill="#9a32cd" stroke="#9a32cd" points="1007.81,-96.4842 997.338,-98.0663 1006.51,-103.362 1007.81,-96.4842"/>
<text text-anchor="middle" x="1081" y="-134.854" font-family="Helvetica,sans-Serif" font-size="10.00"> myScrollingUtility</text>
</g>
<!-- Node16 -->
<g id="node16" class="node"><title>Node16</title>
<polygon fill="white" stroke="#bfbfbf" points="560.5,-78.3543 560.5,-97.3543 615.5,-97.3543 615.5,-78.3543 560.5,-78.3543"/>
<text text-anchor="middle" x="588" y="-85.3543" font-family="Helvetica,sans-Serif" font-size="10.00">Camera</text>
</g>
<!-- Node16&#45;&gt;Node15 -->
<g id="edge15" class="edge"><title>Node16&#45;&gt;Node15</title>
<path fill="none" stroke="#9a32cd" stroke-dasharray="5,2" d="M625.967,-87.8543C682.691,-87.8543 792.038,-87.8543 862.701,-87.8543"/>
<polygon fill="#9a32cd" stroke="#9a32cd" points="625.679,-84.3544 615.679,-87.8543 625.679,-91.3544 625.679,-84.3544"/>
<text text-anchor="middle" x="766" y="-90.8543" font-family="Helvetica,sans-Serif" font-size="10.00"> myCamera</text>
</g>
<!-- Node17 -->
<g id="node17" class="node"><title>Node17</title>
<polygon fill="white" stroke="#bfbfbf" points="486,-6.85434 486,-36.8543 690,-36.8543 690,-6.85434 486,-6.85434"/>
<text text-anchor="start" x="494" y="-24.8543" font-family="Helvetica,sans-Serif" font-size="10.00">List&lt; engine.gameObject.components.</text>
<text text-anchor="middle" x="588" y="-13.8543" font-family="Helvetica,sans-Serif" font-size="10.00">Component &gt;</text>
</g>
<!-- Node17&#45;&gt;Node10 -->
<g id="edge16" class="edge"><title>Node17&#45;&gt;Node10</title>
<path fill="none" stroke="#9a32cd" stroke-dasharray="5,2" d="M700.261,-7.49747C787.474,0.814591 911.48,6.12893 1018,-13.8543 1068.62,-23.3505 1084.66,-25.138 1126,-55.8543 1174,-91.5171 1211.54,-154.799 1224.81,-179.035"/>
<polygon fill="#9a32cd" stroke="#9a32cd" points="699.688,-4.0368 690.078,-8.49751 700.372,-11.0033 699.688,-4.0368"/>
<text text-anchor="middle" x="930" y="-16.8543" font-family="Helvetica,sans-Serif" font-size="10.00"> myComponents</text>
</g>
<!-- Node28 -->
<g id="node28" class="node"><title>Node28</title>
<g id="a_node28"><a xlink:href="../../d6/d66/classengine_1_1game_object_1_1_default_data.html" target="_top" xlink:title="engine.gameObject.DefaultData">
<polygon fill="white" stroke="black" points="844.5,-34.3543 844.5,-53.3543 1015.5,-53.3543 1015.5,-34.3543 844.5,-34.3543"/>
<text text-anchor="middle" x="930" y="-41.3543" font-family="Helvetica,sans-Serif" font-size="10.00">engine.gameObject.DefaultData</text>
</a>
</g>
</g>
<!-- Node17&#45;&gt;Node28 -->
<g id="edge29" class="edge"><title>Node17&#45;&gt;Node28</title>
<path fill="none" stroke="#9a32cd" stroke-dasharray="5,2" d="M700.29,-29.0554C747.15,-32.0876 800.796,-35.5588 844.349,-38.3769"/>
<polygon fill="#9a32cd" stroke="#9a32cd" points="700.296,-25.5486 690.091,-28.3955 699.844,-32.534 700.296,-25.5486"/>
<text text-anchor="middle" x="766" y="-39.8543" font-family="Helvetica,sans-Serif" font-size="10.00"> myComponents</text>
</g>
<!-- Node18&#45;&gt;Node10 -->
<g id="edge17" class="edge"><title>Node18&#45;&gt;Node10</title>
<path fill="none" stroke="#9a32cd" stroke-dasharray="5,2" d="M959.774,-375.732C998.78,-356.09 1069.99,-318.452 1126,-278.854 1163.04,-252.663 1202.39,-215.774 1220.21,-198.493"/>
<polygon fill="#9a32cd" stroke="#9a32cd" points="957.96,-372.726 950.58,-380.328 961.09,-378.987 957.96,-372.726"/>
<text text-anchor="middle" x="1081" y="-337.854" font-family="Helvetica,sans-Serif" font-size="10.00"> myRenderedNode</text>
</g>
<!-- Node19 -->
<g id="node19" class="node"><title>Node19</title>
<polygon fill="white" stroke="#bfbfbf" points="565,-342.354 565,-361.354 611,-361.354 611,-342.354 565,-342.354"/>
<text text-anchor="middle" x="588" y="-349.354" font-family="Helvetica,sans-Serif" font-size="10.00">Group</text>
</g>
<!-- Node19&#45;&gt;Node18 -->
<g id="edge18" class="edge"><title>Node19&#45;&gt;Node18</title>
<path fill="none" stroke="midnightblue" d="M621.106,-355.443C673.568,-361.306 779.107,-373.102 851.879,-381.235"/>
<polygon fill="midnightblue" stroke="midnightblue" points="621.373,-351.951 611.046,-354.318 620.596,-358.908 621.373,-351.951"/>
</g>
<!-- Node20 -->
<g id="node20" class="node"><title>Node20</title>
<polygon fill="white" stroke="#bfbfbf" points="567,-418.354 567,-437.354 609,-437.354 609,-418.354 567,-418.354"/>
<text text-anchor="middle" x="588" y="-425.354" font-family="Helvetica,sans-Serif" font-size="10.00">Label</text>
</g>
<!-- Node20&#45;&gt;Node18 -->
<g id="edge19" class="edge"><title>Node20&#45;&gt;Node18</title>
<path fill="none" stroke="#9a32cd" stroke-dasharray="5,2" d="M619.315,-424.536C664.084,-419.627 750.518,-410.118 824,-401.854 833.025,-400.839 842.486,-399.768 851.876,-398.701"/>
<polygon fill="#9a32cd" stroke="#9a32cd" points="618.68,-421.084 609.121,-425.653 619.443,-428.042 618.68,-421.084"/>
<text text-anchor="middle" x="766" y="-417.854" font-family="Helvetica,sans-Serif" font-size="10.00"> myLabel</text>
</g>
<!-- Node21 -->
<g id="node21" class="node"><title>Node21</title>
<polygon fill="white" stroke="#bfbfbf" points="567,-380.354 567,-399.354 609,-399.354 609,-380.354 567,-380.354"/>
<text text-anchor="middle" x="588" y="-387.354" font-family="Helvetica,sans-Serif" font-size="10.00">Node</text>
</g>
<!-- Node21&#45;&gt;Node18 -->
<g id="edge21" class="edge"><title>Node21&#45;&gt;Node18</title>
<path fill="none" stroke="#9a32cd" stroke-dasharray="5,2" d="M619.45,-389.854C671.32,-389.854 778.332,-389.854 851.879,-389.854"/>
<polygon fill="#9a32cd" stroke="#9a32cd" points="619.25,-386.354 609.25,-389.854 619.25,-393.354 619.25,-386.354"/>
<text text-anchor="middle" x="766" y="-392.854" font-family="Helvetica,sans-Serif" font-size="10.00"> myCollisionBody</text>
</g>
<!-- Node22 -->
<g id="node22" class="node"><title>Node22</title>
<g id="a_node22"><a xlink:href="../../d9/d9d/classengine_1_1game_object_1_1components_1_1_physics_body.html" target="_top" xlink:title="engine.gameObject.components.\lPhysicsBody">
<polygon fill="white" stroke="black" points="842,-274.854 842,-304.854 1018,-304.854 1018,-274.854 842,-274.854"/>
<text text-anchor="start" x="850" y="-292.854" font-family="Helvetica,sans-Serif" font-size="10.00">engine.gameObject.components.</text>
<text text-anchor="middle" x="930" y="-281.854" font-family="Helvetica,sans-Serif" font-size="10.00">PhysicsBody</text>
</a>
</g>
</g>
<!-- Node22&#45;&gt;Node10 -->
<g id="edge22" class="edge"><title>Node22&#45;&gt;Node10</title>
<path fill="none" stroke="#9a32cd" stroke-dasharray="5,2" d="M1002.5,-272.285C1039.72,-262.488 1085.75,-249.351 1126,-234.854 1156.09,-224.017 1189.75,-208.475 1210.4,-198.522"/>
<polygon fill="#9a32cd" stroke="#9a32cd" points="1001.54,-268.919 992.745,-274.83 1003.3,-275.693 1001.54,-268.919"/>
<text text-anchor="middle" x="1081" y="-266.854" font-family="Helvetica,sans-Serif" font-size="10.00"> myPhysicsBody</text>
</g>
<!-- Node23 -->
<g id="node23" class="node"><title>Node23</title>
<polygon fill="white" stroke="#bfbfbf" points="510,-212.854 510,-242.854 666,-242.854 666,-212.854 510,-212.854"/>
<text text-anchor="start" x="518" y="-230.854" font-family="Helvetica,sans-Serif" font-size="10.00">Map&lt; String, engine.physics.</text>
<text text-anchor="middle" x="588" y="-219.854" font-family="Helvetica,sans-Serif" font-size="10.00">Scalar &gt;</text>
</g>
<!-- Node23&#45;&gt;Node22 -->
<g id="edge23" class="edge"><title>Node23&#45;&gt;Node22</title>
<path fill="none" stroke="#9a32cd" stroke-dasharray="5,2" d="M676.221,-218.079C722.423,-216.672 778.797,-221.172 824,-243.854 834.987,-249.368 831.657,-258.211 842,-264.854 847.95,-268.676 854.497,-271.927 861.246,-274.69"/>
<polygon fill="#9a32cd" stroke="#9a32cd" points="676.075,-214.582 666.223,-218.479 676.355,-221.576 676.075,-214.582"/>
<text text-anchor="middle" x="766" y="-246.854" font-family="Helvetica,sans-Serif" font-size="10.00"> myConstants</text>
</g>
<!-- Node24 -->
<g id="node24" class="node"><title>Node24</title>
<polygon fill="white" stroke="#bfbfbf" points="510,-163.854 510,-193.854 666,-193.854 666,-163.854 510,-163.854"/>
<text text-anchor="start" x="518" y="-181.854" font-family="Helvetica,sans-Serif" font-size="10.00">Map&lt; String, engine.physics.</text>
<text text-anchor="middle" x="588" y="-170.854" font-family="Helvetica,sans-Serif" font-size="10.00">Force &gt;</text>
</g>
<!-- Node24&#45;&gt;Node22 -->
<g id="edge24" class="edge"><title>Node24&#45;&gt;Node22</title>
<path fill="none" stroke="#9a32cd" stroke-dasharray="5,2" d="M676.358,-166.129C725.001,-163.986 783.692,-170.252 824,-203.854 845.712,-221.954 821.941,-244.938 842,-264.854 845.903,-268.73 850.365,-272.013 855.161,-274.793"/>
<polygon fill="#9a32cd" stroke="#9a32cd" points="675.927,-162.647 666.14,-166.707 676.322,-169.636 675.927,-162.647"/>
<text text-anchor="middle" x="766" y="-206.854" font-family="Helvetica,sans-Serif" font-size="10.00"> myActiveForces</text>
</g>
<!-- Node25 -->
<g id="node25" class="node"><title>Node25</title>
<polygon fill="white" stroke="#bfbfbf" points="504.5,-304.354 504.5,-323.354 671.5,-323.354 671.5,-304.354 504.5,-304.354"/>
<text text-anchor="middle" x="588" y="-311.354" font-family="Helvetica,sans-Serif" font-size="10.00">List&lt; engine.physics.Impulse &gt;</text>
</g>
<!-- Node25&#45;&gt;Node22 -->
<g id="edge25" class="edge"><title>Node25&#45;&gt;Node22</title>
<path fill="none" stroke="#9a32cd" stroke-dasharray="5,2" d="M681.872,-307.299C731.709,-303.781 792.77,-299.471 841.726,-296.015"/>
<polygon fill="#9a32cd" stroke="#9a32cd" points="681.467,-303.818 671.739,-308.014 681.96,-310.801 681.467,-303.818"/>
<text text-anchor="middle" x="766" y="-308.854" font-family="Helvetica,sans-Serif" font-size="10.00"> myImpulses</text>
</g>
<!-- Node26 -->
<g id="node26" class="node"><title>Node26</title>
<g id="a_node26"><a xlink:href="../../d5/d1f/classengine_1_1physics_1_1_vector.html" target="_top" xlink:title="engine.physics.Vector">
<polygon fill="white" stroke="black" points="527.5,-262.354 527.5,-281.354 648.5,-281.354 648.5,-262.354 527.5,-262.354"/>
<text text-anchor="middle" x="588" y="-269.354" font-family="Helvetica,sans-Serif" font-size="10.00">engine.physics.Vector</text>
</a>
</g>
</g>
<!-- Node26&#45;&gt;Node22 -->
<g id="edge26" class="edge"><title>Node26&#45;&gt;Node22</title>
<path fill="none" stroke="#9a32cd" stroke-dasharray="5,2" d="M658.685,-263.228C705.583,-258.882 768.716,-255.86 824,-262.854 842.953,-265.252 863.383,-269.993 881.14,-274.842"/>
<polygon fill="#9a32cd" stroke="#9a32cd" points="658.249,-259.754 648.633,-264.203 658.924,-266.721 658.249,-259.754"/>
<text text-anchor="middle" x="766" y="-287.854" font-family="Helvetica,sans-Serif" font-size="10.00"> myBalancedForcesMag</text>
<text text-anchor="middle" x="766" y="-276.854" font-family="Helvetica,sans-Serif" font-size="10.00">myVelocity</text>
<text text-anchor="middle" x="766" y="-265.854" font-family="Helvetica,sans-Serif" font-size="10.00">myAcceleration</text>
</g>
<!-- Node27 -->
<g id="node27" class="node"><title>Node27</title>
<g id="a_node27"><a xlink:href="../../dc/db5/classengine_1_1physics_1_1_physics_component.html" target="_top" xlink:title="engine.physics.PhysicsComponent">
<polygon fill="white" stroke="black" points="214,-262.354 214,-281.354 396,-281.354 396,-262.354 214,-262.354"/>
<text text-anchor="middle" x="305" y="-269.354" font-family="Helvetica,sans-Serif" font-size="10.00">engine.physics.PhysicsComponent</text>
</a>
</g>
</g>
<!-- Node27&#45;&gt;Node26 -->
<g id="edge27" class="edge"><title>Node27&#45;&gt;Node26</title>
<path fill="none" stroke="midnightblue" d="M406.238,-271.854C446.683,-271.854 491.99,-271.854 527.127,-271.854"/>
<polygon fill="midnightblue" stroke="midnightblue" points="406.07,-268.354 396.07,-271.854 406.07,-275.354 406.07,-268.354"/>
</g>
<!-- Node28&#45;&gt;Node10 -->
<g id="edge28" class="edge"><title>Node28&#45;&gt;Node10</title>
<path fill="none" stroke="#9a32cd" stroke-dasharray="5,2" d="M1019.63,-55.4188C1054.34,-62.5125 1093.53,-73.8447 1126,-91.8543 1168.32,-115.329 1206.8,-159.718 1222.51,-179.235"/>
<polygon fill="#9a32cd" stroke="#9a32cd" points="1019.97,-51.9207 1009.49,-53.4396 1018.63,-58.791 1019.97,-51.9207"/>
<text text-anchor="middle" x="1081" y="-94.8543" font-family="Helvetica,sans-Serif" font-size="10.00"> myDefaultData</text>
</g>
</g>
</svg>
