<?xml version="1.0" encoding="UTF-8" standalone="no"?>
<!DOCTYPE svg PUBLIC "-//W3C//DTD SVG 1.1//EN"
 "http://www.w3.org/Graphics/SVG/1.1/DTD/svg11.dtd">
<!-- Generated by graphviz version 2.36.0 (20140111.2315)
 -->
<!-- Title: authoring.view.icons.ImageIcon.ImageIcon Pages: 1 -->
<svg width="340pt" height="87pt"
 viewBox="0.00 0.00 340.00 87.00" xmlns="http://www.w3.org/2000/svg" xmlns:xlink="http://www.w3.org/1999/xlink">
<g id="graph0" class="graph" transform="scale(1 1) rotate(0) translate(4 83)">
<title>authoring.view.icons.ImageIcon.ImageIcon</title>
<polygon fill="white" stroke="none" points="-4,4 -4,-83 336,-83 336,4 -4,4"/>
<!-- Node1 -->
<g id="node1" class="node"><title>Node1</title>
<polygon fill="#bfbfbf" stroke="black" points="0,-24 0,-54 146,-54 146,-24 0,-24"/>
<text text-anchor="start" x="8" y="-42" font-family="Helvetica,sans-Serif" font-size="10.00">authoring.view.icons.Image</text>
<text text-anchor="middle" x="73" y="-31" font-family="Helvetica,sans-Serif" font-size="10.00">Icon.ImageIcon</text>
</g>
<!-- Node2 -->
<g id="node2" class="node"><title>Node2</title>
<g id="a_node2"><a xlink:href="../../dd/db4/classauthoring_1_1view_1_1icons_1_1_base_icon.html#af269fe209713ca951e9a37469d9b863d" target="_top" xlink:title="authoring.view.icons.Base\lIcon.addLabel">
<polygon fill="white" stroke="black" points="187,-49 187,-79 327,-79 327,-49 187,-49"/>
<text text-anchor="start" x="195" y="-67" font-family="Helvetica,sans-Serif" font-size="10.00">authoring.view.icons.Base</text>
<text text-anchor="middle" x="257" y="-56" font-family="Helvetica,sans-Serif" font-size="10.00">Icon.addLabel</text>
</a>
</g>
</g>
<!-- Node1&#45;&gt;Node2 -->
<g id="edge1" class="edge"><title>Node1&#45;&gt;Node2</title>
<path fill="none" stroke="midnightblue" d="M146.193,-48.9166C156.241,-50.2969 166.61,-51.7211 176.778,-53.1179"/>
<polygon fill="midnightblue" stroke="midnightblue" points="176.478,-56.6095 186.862,-54.503 177.431,-49.6746 176.478,-56.6095"/>
</g>
<!-- Node3 -->
<g id="node3" class="node"><title>Node3</title>
<g id="a_node3"><a xlink:href="../../d5/d47/classauthoring_1_1view_1_1icons_1_1_image_based_icon.html#acf88659c5501f5816643efe5b3063301" target="_top" xlink:title="authoring.view.icons.Image\lBasedIcon.scaleDimensions">
<polygon fill="white" stroke="black" points="182,-0 182,-30 332,-30 332,-0 182,-0"/>
<text text-anchor="start" x="190" y="-18" font-family="Helvetica,sans-Serif" font-size="10.00">authoring.view.icons.Image</text>
<text text-anchor="middle" x="257" y="-7" font-family="Helvetica,sans-Serif" font-size="10.00">BasedIcon.scaleDimensions</text>
</a>
</g>
</g>
<!-- Node1&#45;&gt;Node3 -->
<g id="edge2" class="edge"><title>Node1&#45;&gt;Node3</title>
<path fill="none" stroke="midnightblue" d="M146.193,-29.4801C154.61,-28.3701 163.251,-27.2306 171.812,-26.1017"/>
<polygon fill="midnightblue" stroke="midnightblue" points="172.35,-29.5612 181.807,-24.7838 171.435,-22.6212 172.35,-29.5612"/>
</g>
</g>
</svg>
