<?xml version="1.0" encoding="UTF-8" standalone="no"?>
<!DOCTYPE svg PUBLIC "-//W3C//DTD SVG 1.1//EN"
 "http://www.w3.org/Graphics/SVG/1.1/DTD/svg11.dtd">
<!-- Generated by graphviz version 2.36.0 (20140111.2315)
 -->
<!-- Title: authoring.eventhandlers.AddConditionHandler.createCondition Pages: 1 -->
<!--zoomable 305 -->
<svg id="main" version="1.1" xmlns="http://www.w3.org/2000/svg" xmlns:xlink="http://www.w3.org/1999/xlink" xml:space="preserve" onload="init(evt)">
<style type="text/css"><![CDATA[
.edge:hover path { stroke: red; }
.edge:hover polygon { stroke: red; fill: red; }
]]></style>
<script type="text/javascript"><![CDATA[
var edges = document.getElementsByTagName('g');
if (edges && edges.length) {
  for (var i=0;i<edges.length;i++) {
    if (edges[i].id.substr(0,4)=='edge') {
      edges[i].setAttribute('class','edge');
    }
  }
}
]]></script>
        <defs>
                <circle id="rim" cx="0" cy="0" r="7"/>
                <circle id="rim2" cx="0" cy="0" r="3.5"/>
                <g id="zoomPlus">
                        <use xlink:href="#rim" fill="#404040">
                                <set attributeName="fill" to="#808080" begin="zoomplus.mouseover" end="zoomplus.mouseout"/>
                        </use>
                        <path d="M-4,0h8M0,-4v8" fill="none" stroke="white" stroke-width="1.5" pointer-events="none"/>
                </g>
                <g id="zoomMin">
                        <use xlink:href="#rim" fill="#404040">
                                <set attributeName="fill" to="#808080" begin="zoomminus.mouseover" end="zoomminus.mouseout"/>
                        </use>
                        <path d="M-4,0h8" fill="none" stroke="white" stroke-width="1.5" pointer-events="none"/>
                </g>
                <g id="dirArrow">
                        <path fill="none" stroke="white" stroke-width="1.5" d="M0,-3.0v7 M-2.5,-0.5L0,-3.0L2.5,-0.5"/>
                </g>
               <g id="resetDef">
                       <use xlink:href="#rim2" fill="#404040">
                               <set attributeName="fill" to="#808080" begin="reset.mouseover" end="reset.mouseout"/>
                       </use>
               </g>
        </defs>

<script type="text/javascript">
var viewWidth = 1254;
var viewHeight = 305;
var sectionId = 'dynsection-4';
</script>
<script xlink:href="../../svgpan.js"/>
<svg id="graph" class="graph">
<g id="viewport">
<title>authoring.eventhandlers.AddConditionHandler.createCondition</title>
<polygon fill="white" stroke="none" points="-4,4 -4,-301.098 1250,-301.098 1250,4 -4,4"/>
<!-- Node1 -->
<g id="node1" class="node"><title>Node1</title>
<polygon fill="#bfbfbf" stroke="black" points="0,-170 0,-200 196,-200 196,-170 0,-170"/>
<text text-anchor="start" x="8" y="-188" font-family="Helvetica,sans-Serif" font-size="10.00">authoring.eventhandlers.</text>
<text text-anchor="middle" x="98" y="-177" font-family="Helvetica,sans-Serif" font-size="10.00">AddConditionHandler.createCondition</text>
</g>
<!-- Node2 -->
<g id="node2" class="node"><title>Node2</title>
<g id="a_node2"><a xlink:href="../../de/d50/classerrors_and_exceptions_1_1_error_pop_up.html#a879c9fa857c162edfab75ecf1558c944" target="_top" xlink:title="errorsAndExceptions.Error\lPopUp.display">
<polygon fill="white" stroke="black" points="926,-201 926,-231 1068,-231 1068,-201 926,-201"/>
<text text-anchor="start" x="934" y="-219" font-family="Helvetica,sans-Serif" font-size="10.00">errorsAndExceptions.Error</text>
<text text-anchor="middle" x="997" y="-208" font-family="Helvetica,sans-Serif" font-size="10.00">PopUp.display</text>
</a>
</g>
</g>
<!-- Node1&#45;&gt;Node2 -->
<g id="edge1" class="edge"><title>Node1&#45;&gt;Node2</title>
<path fill="none" stroke="midnightblue" d="M141.307,-200.085C260.793,-240.487 610.295,-343.435 890,-273 917.887,-265.977 946.427,-250.03 966.858,-236.785"/>
<polygon fill="midnightblue" stroke="midnightblue" points="968.982,-239.575 975.366,-231.12 965.103,-233.748 968.982,-239.575"/>
</g>
<!-- Node5 -->
<g id="node5" class="node"><title>Node5</title>
<g id="a_node5"><a xlink:href="../../d0/d9b/classauthoring_1_1eventhandlers_1_1_add_condition_handler.html#a7215c52c01d70a711bdf49d7c4b37d70" target="_top" xlink:title="authoring.eventhandlers.\lAddConditionHandler.fillCondition\lParameters">
<polygon fill="white" stroke="black" points="243.5,-164.5 243.5,-205.5 418.5,-205.5 418.5,-164.5 243.5,-164.5"/>
<text text-anchor="start" x="251.5" y="-193.5" font-family="Helvetica,sans-Serif" font-size="10.00">authoring.eventhandlers.</text>
<text text-anchor="start" x="251.5" y="-182.5" font-family="Helvetica,sans-Serif" font-size="10.00">AddConditionHandler.fillCondition</text>
<text text-anchor="middle" x="331" y="-171.5" font-family="Helvetica,sans-Serif" font-size="10.00">Parameters</text>
</a>
</g>
</g>
<!-- Node1&#45;&gt;Node5 -->
<g id="edge4" class="edge"><title>Node1&#45;&gt;Node5</title>
<path fill="none" stroke="midnightblue" d="M196.295,-185C208.529,-185 221.043,-185 233.268,-185"/>
<polygon fill="midnightblue" stroke="midnightblue" points="233.457,-188.5 243.457,-185 233.457,-181.5 233.457,-188.5"/>
</g>
<!-- Node14 -->
<g id="node14" class="node"><title>Node14</title>
<g id="a_node14"><a xlink:href="../../d3/d92/classauthoring_1_1view_1_1wizards_1_1_condition_selection_wizard.html#a54d83516860e13492c0a68393f59c966" target="_top" xlink:title="authoring.view.wizards.Condition\lSelectionWizard.getSelectedCondition">
<polygon fill="white" stroke="black" points="232,-94 232,-124 430,-124 430,-94 232,-94"/>
<text text-anchor="start" x="240" y="-112" font-family="Helvetica,sans-Serif" font-size="10.00">authoring.view.wizards.Condition</text>
<text text-anchor="middle" x="331" y="-101" font-family="Helvetica,sans-Serif" font-size="10.00">SelectionWizard.getSelectedCondition</text>
</a>
</g>
</g>
<!-- Node1&#45;&gt;Node14 -->
<g id="edge16" class="edge"><title>Node1&#45;&gt;Node14</title>
<path fill="none" stroke="midnightblue" d="M144.638,-169.985C181.929,-157.716 234.784,-140.326 274.517,-127.254"/>
<polygon fill="midnightblue" stroke="midnightblue" points="275.657,-130.564 284.062,-124.114 273.469,-123.914 275.657,-130.564"/>
</g>
<!-- Node3 -->
<g id="node3" class="node"><title>Node3</title>
<g id="a_node3"><a xlink:href="../../de/d50/classerrors_and_exceptions_1_1_error_pop_up.html#adecc4a2ab81e607673649e10e6d7da52" target="_top" xlink:title="errorsAndExceptions.Error\lPopUp.createButton">
<polygon fill="white" stroke="black" points="1104,-226 1104,-256 1246,-256 1246,-226 1104,-226"/>
<text text-anchor="start" x="1112" y="-244" font-family="Helvetica,sans-Serif" font-size="10.00">errorsAndExceptions.Error</text>
<text text-anchor="middle" x="1175" y="-233" font-family="Helvetica,sans-Serif" font-size="10.00">PopUp.createButton</text>
</a>
</g>
</g>
<!-- Node2&#45;&gt;Node3 -->
<g id="edge2" class="edge"><title>Node2&#45;&gt;Node3</title>
<path fill="none" stroke="midnightblue" d="M1068.07,-225.952C1076.54,-227.156 1085.25,-228.393 1093.85,-229.615"/>
<polygon fill="midnightblue" stroke="midnightblue" points="1093.5,-233.1 1103.89,-231.041 1094.48,-226.169 1093.5,-233.1"/>
</g>
<!-- Node4 -->
<g id="node4" class="node"><title>Node4</title>
<g id="a_node4"><a xlink:href="../../de/d50/classerrors_and_exceptions_1_1_error_pop_up.html#a98549e423869b27d7ee3c87270786f60" target="_top" xlink:title="errorsAndExceptions.Error\lPopUp.chooseStageWidth">
<polygon fill="white" stroke="black" points="1104,-177 1104,-207 1246,-207 1246,-177 1104,-177"/>
<text text-anchor="start" x="1112" y="-195" font-family="Helvetica,sans-Serif" font-size="10.00">errorsAndExceptions.Error</text>
<text text-anchor="middle" x="1175" y="-184" font-family="Helvetica,sans-Serif" font-size="10.00">PopUp.chooseStageWidth</text>
</a>
</g>
</g>
<!-- Node2&#45;&gt;Node4 -->
<g id="edge3" class="edge"><title>Node2&#45;&gt;Node4</title>
<path fill="none" stroke="midnightblue" d="M1068.07,-206.446C1076.54,-205.29 1085.25,-204.103 1093.85,-202.929"/>
<polygon fill="midnightblue" stroke="midnightblue" points="1094.45,-206.38 1103.89,-201.561 1093.51,-199.444 1094.45,-206.38"/>
</g>
<!-- Node6 -->
<g id="node6" class="node"><title>Node6</title>
<g id="a_node6"><a xlink:href="../../d6/d32/classauthoring_1_1view_1_1wizards_1_1_wizard.html#a0d419b2943c99507fca42fd769c24b0e" target="_top" xlink:title="authoring.view.wizards.Wizard.getMap">
<polygon fill="white" stroke="black" points="692.5,-244.5 692.5,-263.5 889.5,-263.5 889.5,-244.5 692.5,-244.5"/>
<text text-anchor="middle" x="791" y="-251.5" font-family="Helvetica,sans-Serif" font-size="10.00">authoring.view.wizards.Wizard.getMap</text>
</a>
</g>
</g>
<!-- Node5&#45;&gt;Node6 -->
<g id="edge5" class="edge"><title>Node5&#45;&gt;Node6</title>
<path fill="none" stroke="midnightblue" d="M377.852,-205.509C403.295,-215.927 435.813,-227.689 466,-234 537.083,-248.862 618.695,-253.83 682.227,-255.098"/>
<polygon fill="midnightblue" stroke="midnightblue" points="682.205,-258.598 692.264,-255.271 682.326,-251.599 682.205,-258.598"/>
</g>
<!-- Node7 -->
<g id="node7" class="node"><title>Node7</title>
<g id="a_node7"><a xlink:href="../../d3/d92/classauthoring_1_1view_1_1wizards_1_1_condition_selection_wizard.html#a55878f6e0abaa960b2fa52130dde8a6f" target="_top" xlink:title="authoring.view.wizards.Condition\lSelectionWizard.disableSelection">
<polygon fill="white" stroke="black" points="474.5,-195 474.5,-225 647.5,-225 647.5,-195 474.5,-195"/>
<text text-anchor="start" x="482.5" y="-213" font-family="Helvetica,sans-Serif" font-size="10.00">authoring.view.wizards.Condition</text>
<text text-anchor="middle" x="561" y="-202" font-family="Helvetica,sans-Serif" font-size="10.00">SelectionWizard.disableSelection</text>
</a>
</g>
</g>
<!-- Node5&#45;&gt;Node7 -->
<g id="edge6" class="edge"><title>Node5&#45;&gt;Node7</title>
<path fill="none" stroke="midnightblue" d="M418.522,-194.487C433.364,-196.114 448.866,-197.814 463.939,-199.467"/>
<polygon fill="midnightblue" stroke="midnightblue" points="463.97,-202.991 474.292,-200.602 464.733,-196.033 463.97,-202.991"/>
</g>
<!-- Node8 -->
<g id="node8" class="node"><title>Node8</title>
<g id="a_node8"><a xlink:href="../../d3/d92/classauthoring_1_1view_1_1wizards_1_1_condition_selection_wizard.html#a762ba9a1a888f879f35e3342742f31e8" target="_top" xlink:title="authoring.view.wizards.Condition\lSelectionWizard.enableFinalize">
<polygon fill="white" stroke="black" points="475.5,-146 475.5,-176 646.5,-176 646.5,-146 475.5,-146"/>
<text text-anchor="start" x="483.5" y="-164" font-family="Helvetica,sans-Serif" font-size="10.00">authoring.view.wizards.Condition</text>
<text text-anchor="middle" x="561" y="-153" font-family="Helvetica,sans-Serif" font-size="10.00">SelectionWizard.enableFinalize</text>
</a>
</g>
</g>
<!-- Node5&#45;&gt;Node8 -->
<g id="edge7" class="edge"><title>Node5&#45;&gt;Node8</title>
<path fill="none" stroke="midnightblue" d="M418.522,-175.892C433.816,-174.282 449.812,-172.599 465.317,-170.967"/>
<polygon fill="midnightblue" stroke="midnightblue" points="465.844,-174.431 475.423,-169.903 465.111,-167.469 465.844,-174.431"/>
</g>
<!-- Node9 -->
<g id="node9" class="node"><title>Node9</title>
<g id="a_node9"><a xlink:href="../../d0/d9b/classauthoring_1_1eventhandlers_1_1_add_condition_handler.html#a1dbd177bba812a645c78db0a93e6ee71" target="_top" xlink:title="authoring.eventhandlers.\lAddConditionHandler.finishCondition">
<polygon fill="white" stroke="black" points="466,-97 466,-127 656,-127 656,-97 466,-97"/>
<text text-anchor="start" x="474" y="-115" font-family="Helvetica,sans-Serif" font-size="10.00">authoring.eventhandlers.</text>
<text text-anchor="middle" x="561" y="-104" font-family="Helvetica,sans-Serif" font-size="10.00">AddConditionHandler.finishCondition</text>
</a>
</g>
</g>
<!-- Node5&#45;&gt;Node9 -->
<g id="edge8" class="edge"><title>Node5&#45;&gt;Node9</title>
<path fill="none" stroke="midnightblue" d="M384.407,-164.448C408.984,-155.169 438.789,-144.426 466,-136 472.969,-133.842 480.27,-131.728 487.592,-129.703"/>
<polygon fill="midnightblue" stroke="midnightblue" points="488.823,-132.996 497.56,-127.003 486.993,-126.24 488.823,-132.996"/>
</g>
<!-- Node9&#45;&gt;Node2 -->
<g id="edge15" class="edge"><title>Node9&#45;&gt;Node2</title>
<path fill="none" stroke="midnightblue" d="M641.105,-127.125C646.376,-129.644 651.407,-132.579 656,-136 680.941,-154.576 665.456,-179.797 692,-196 759.065,-236.937 850.663,-237.098 915.738,-230.022"/>
<polygon fill="midnightblue" stroke="midnightblue" points="916.42,-233.467 925.947,-228.83 915.608,-226.514 916.42,-233.467"/>
</g>
<!-- Node9&#45;&gt;Node6 -->
<g id="edge12" class="edge"><title>Node9&#45;&gt;Node6</title>
<path fill="none" stroke="midnightblue" d="M643.607,-127.232C648.046,-129.737 652.226,-132.64 656,-136 689.411,-165.751 658.444,-200.414 692,-230 696.545,-234.008 701.652,-237.37 707.084,-240.189"/>
<polygon fill="midnightblue" stroke="midnightblue" points="705.94,-243.513 716.494,-244.438 708.821,-237.133 705.94,-243.513"/>
</g>
<!-- Node10 -->
<g id="node10" class="node"><title>Node10</title>
<g id="a_node10"><a xlink:href="../../d0/d9b/classauthoring_1_1eventhandlers_1_1_add_condition_handler.html#ad09caf055d0f6cc1e01c4029caeefb5c" target="_top" xlink:title="authoring.eventhandlers.\lAddConditionHandler.convertInput\lParameters">
<polygon fill="white" stroke="black" points="701,-146.5 701,-187.5 881,-187.5 881,-146.5 701,-146.5"/>
<text text-anchor="start" x="709" y="-175.5" font-family="Helvetica,sans-Serif" font-size="10.00">authoring.eventhandlers.</text>
<text text-anchor="start" x="709" y="-164.5" font-family="Helvetica,sans-Serif" font-size="10.00">AddConditionHandler.convertInput</text>
<text text-anchor="middle" x="791" y="-153.5" font-family="Helvetica,sans-Serif" font-size="10.00">Parameters</text>
</a>
</g>
</g>
<!-- Node9&#45;&gt;Node10 -->
<g id="edge9" class="edge"><title>Node9&#45;&gt;Node10</title>
<path fill="none" stroke="midnightblue" d="M624.302,-127.029C646.088,-132.284 671.07,-138.311 694.916,-144.063"/>
<polygon fill="midnightblue" stroke="midnightblue" points="694.154,-147.48 704.696,-146.422 695.796,-140.675 694.154,-147.48"/>
</g>
<!-- Node11 -->
<g id="node11" class="node"><title>Node11</title>
<g id="a_node11"><a xlink:href="../../d1/d3b/classengine_1_1conditions_1_1_condition.html#a13aea023be9fc9c78c0fcf66b908054f" target="_top" xlink:title="engine.conditions.Condition.set\lIdentifier">
<polygon fill="white" stroke="black" points="707.5,-98 707.5,-128 874.5,-128 874.5,-98 707.5,-98"/>
<text text-anchor="start" x="715.5" y="-116" font-family="Helvetica,sans-Serif" font-size="10.00">engine.conditions.Condition.set</text>
<text text-anchor="middle" x="791" y="-105" font-family="Helvetica,sans-Serif" font-size="10.00">Identifier</text>
</a>
</g>
</g>
<!-- Node9&#45;&gt;Node11 -->
<g id="edge11" class="edge"><title>Node9&#45;&gt;Node11</title>
<path fill="none" stroke="midnightblue" d="M656.053,-112.413C669.64,-112.472 683.617,-112.533 697.18,-112.593"/>
<polygon fill="midnightblue" stroke="midnightblue" points="697.442,-116.094 707.458,-112.638 697.473,-109.094 697.442,-116.094"/>
</g>
<!-- Node12 -->
<g id="node12" class="node"><title>Node12</title>
<g id="a_node12"><a xlink:href="../../d1/d3b/classengine_1_1conditions_1_1_condition.html#a032794f008153a8a356234754ec662e4" target="_top" xlink:title="engine.conditions.Condition.set\lInputMap">
<polygon fill="white" stroke="black" points="707.5,-49 707.5,-79 874.5,-79 874.5,-49 707.5,-49"/>
<text text-anchor="start" x="715.5" y="-67" font-family="Helvetica,sans-Serif" font-size="10.00">engine.conditions.Condition.set</text>
<text text-anchor="middle" x="791" y="-56" font-family="Helvetica,sans-Serif" font-size="10.00">InputMap</text>
</a>
</g>
</g>
<!-- Node9&#45;&gt;Node12 -->
<g id="edge13" class="edge"><title>Node9&#45;&gt;Node12</title>
<path fill="none" stroke="midnightblue" d="M633.515,-96.9442C657.39,-91.918 684.165,-86.281 708.726,-81.1103"/>
<polygon fill="midnightblue" stroke="midnightblue" points="709.674,-84.4875 718.739,-79.0024 708.232,-77.6376 709.674,-84.4875"/>
</g>
<!-- Node13 -->
<g id="node13" class="node"><title>Node13</title>
<g id="a_node13"><a xlink:href="../../db/d2a/classauthoring_1_1model_1_1collections_1_1_conditions_collection.html#af4aa1e8459d542b7f0e78ffe3b004d77" target="_top" xlink:title="authoring.model.collections.\lConditionsCollection.add">
<polygon fill="white" stroke="black" points="715,-0 715,-30 867,-30 867,-0 715,-0"/>
<text text-anchor="start" x="723" y="-18" font-family="Helvetica,sans-Serif" font-size="10.00">authoring.model.collections.</text>
<text text-anchor="middle" x="791" y="-7" font-family="Helvetica,sans-Serif" font-size="10.00">ConditionsCollection.add</text>
</a>
</g>
</g>
<!-- Node9&#45;&gt;Node13 -->
<g id="edge14" class="edge"><title>Node9&#45;&gt;Node13</title>
<path fill="none" stroke="midnightblue" d="M637.395,-96.9132C643.949,-94.1463 650.261,-90.8728 656,-87 678.105,-72.0836 669.749,-53.6971 692,-39 696.275,-36.1762 700.853,-33.6843 705.608,-31.4854"/>
<polygon fill="midnightblue" stroke="midnightblue" points="707.047,-34.6775 714.938,-27.6076 704.361,-28.2135 707.047,-34.6775"/>
</g>
<!-- Node10&#45;&gt;Node2 -->
<g id="edge10" class="edge"><title>Node10&#45;&gt;Node2</title>
<path fill="none" stroke="midnightblue" d="M877.628,-187.567C892.866,-191.228 908.604,-195.008 923.434,-198.57"/>
<polygon fill="midnightblue" stroke="midnightblue" points="922.998,-202.065 933.539,-200.997 924.633,-195.258 922.998,-202.065"/>
</g>
<!-- Node15 -->
<g id="node15" class="node"><title>Node15</title>
<g id="a_node15"><a xlink:href="../../d2/d2f/classauthoring_1_1view_1_1wizards_1_1_condition_choices_v_box.html#a8153f64444a853bc423995a8f18c4c6f" target="_top" xlink:title="authoring.view.wizards.Condition\lChoicesVBox.getSelected">
<polygon fill="white" stroke="black" points="475.5,-48 475.5,-78 646.5,-78 646.5,-48 475.5,-48"/>
<text text-anchor="start" x="483.5" y="-66" font-family="Helvetica,sans-Serif" font-size="10.00">authoring.view.wizards.Condition</text>
<text text-anchor="middle" x="561" y="-55" font-family="Helvetica,sans-Serif" font-size="10.00">ChoicesVBox.getSelected</text>
</a>
</g>
</g>
<!-- Node14&#45;&gt;Node15 -->
<g id="edge17" class="edge"><title>Node14&#45;&gt;Node15</title>
<path fill="none" stroke="midnightblue" d="M406.656,-93.9379C428.716,-89.4871 453.017,-84.5843 475.644,-80.0192"/>
<polygon fill="midnightblue" stroke="midnightblue" points="476.456,-83.426 485.566,-78.0174 475.071,-76.5643 476.456,-83.426"/>
</g>
</g>
</svg>
        <g id="navigator" transform="translate(0 0)" fill="#404254">
                <rect fill="#f2f5e9" fill-opacity="0.5" stroke="#606060" stroke-width=".5" x="0" y="0" width="60" height="60"/>
                <use id="zoomplus" xlink:href="#zoomPlus" x="17" y="9" onmousedown="handleZoom(evt,'in')"/>
                <use id="zoomminus" xlink:href="#zoomMin" x="42" y="9" onmousedown="handleZoom(evt,'out')"/>
                <use id="reset" xlink:href="#resetDef" x="30" y="36" onmousedown="handleReset()"/>
                <g id="arrowUp" xlink:href="#dirArrow" transform="translate(30 24)" onmousedown="handlePan(0,-1)">
                  <use xlink:href="#rim" fill="#404040">
                        <set attributeName="fill" to="#808080" begin="arrowUp.mouseover" end="arrowUp.mouseout"/>
                  </use>
                  <path fill="none" stroke="white" stroke-width="1.5" d="M0,-3.0v7 M-2.5,-0.5L0,-3.0L2.5,-0.5"/>
                </g>
                <g id="arrowRight" xlink:href="#dirArrow" transform="rotate(90) translate(36 -43)" onmousedown="handlePan(1,0)">
                  <use xlink:href="#rim" fill="#404040">
                        <set attributeName="fill" to="#808080" begin="arrowRight.mouseover" end="arrowRight.mouseout"/>
                  </use>
                  <path fill="none" stroke="white" stroke-width="1.5" d="M0,-3.0v7 M-2.5,-0.5L0,-3.0L2.5,-0.5"/>
                </g>
                <g id="arrowDown" xlink:href="#dirArrow" transform="rotate(180) translate(-30 -48)" onmousedown="handlePan(0,1)">
                  <use xlink:href="#rim" fill="#404040">
                        <set attributeName="fill" to="#808080" begin="arrowDown.mouseover" end="arrowDown.mouseout"/>
                  </use>
                  <path fill="none" stroke="white" stroke-width="1.5" d="M0,-3.0v7 M-2.5,-0.5L0,-3.0L2.5,-0.5"/>
                </g>
                <g id="arrowLeft" xlink:href="#dirArrow" transform="rotate(270) translate(-36 17)" onmousedown="handlePan(-1,0)">
                  <use xlink:href="#rim" fill="#404040">
                        <set attributeName="fill" to="#808080" begin="arrowLeft.mouseover" end="arrowLeft.mouseout"/>
                  </use>
                  <path fill="none" stroke="white" stroke-width="1.5" d="M0,-3.0v7 M-2.5,-0.5L0,-3.0L2.5,-0.5"/>
                </g>
        </g>
        <svg viewBox="0 0 15 15" width="100%" height="30px" preserveAspectRatio="xMaxYMin meet">
         <g id="arrow_out" transform="scale(0.3 0.3)">
          <a xlink:href="classauthoring_1_1eventhandlers_1_1_add_condition_handler_a88d3a7413e2434fe0bcfc0e6e436573f_cgraph_org.svg" target="_base">
           <rect id="button" ry="5" rx="5" y="6" x="6" height="38" width="38"
                fill="#f2f5e9" fill-opacity="0.5" stroke="#606060" stroke-width="1.0"/>
           <path id="arrow"
             d="M 11.500037,31.436501 C 11.940474,20.09759 22.043105,11.32322 32.158766,21.979434 L 37.068811,17.246167 C 37.068811,17.246167 37.088388,32 37.088388,32 L 22.160133,31.978069 C 22.160133,31.978069 26.997745,27.140456 26.997745,27.140456 C 18.528582,18.264221 13.291696,25.230495 11.500037,31.436501 z"
             style="fill:#404040;"/>
          </a>
         </g>
        </svg>
</svg>
