<?xml version="1.0" encoding="UTF-8" standalone="no"?>
<!DOCTYPE svg PUBLIC "-//W3C//DTD SVG 1.1//EN"
 "http://www.w3.org/Graphics/SVG/1.1/DTD/svg11.dtd">
<!-- Generated by graphviz version 2.36.0 (20140111.2315)
 -->
<!-- Title: authoring.eventhandlers.AddConditionHandler.handle Pages: 1 -->
<!--zoomable 303 -->
<svg id="main" version="1.1" xmlns="http://www.w3.org/2000/svg" xmlns:xlink="http://www.w3.org/1999/xlink" xml:space="preserve" onload="init(evt)">
<style type="text/css"><![CDATA[
.edge:hover path { stroke: red; }
.edge:hover polygon { stroke: red; fill: red; }
]]></style>
<script type="text/javascript"><![CDATA[
var edges = document.getElementsByTagName('g');
if (edges && edges.length) {
  for (var i=0;i<edges.length;i++) {
    if (edges[i].id.substr(0,4)=='edge') {
      edges[i].setAttribute('class','edge');
    }
  }
}
]]></script>
        <defs>
                <circle id="rim" cx="0" cy="0" r="7"/>
                <circle id="rim2" cx="0" cy="0" r="3.5"/>
                <g id="zoomPlus">
                        <use xlink:href="#rim" fill="#404040">
                                <set attributeName="fill" to="#808080" begin="zoomplus.mouseover" end="zoomplus.mouseout"/>
                        </use>
                        <path d="M-4,0h8M0,-4v8" fill="none" stroke="white" stroke-width="1.5" pointer-events="none"/>
                </g>
                <g id="zoomMin">
                        <use xlink:href="#rim" fill="#404040">
                                <set attributeName="fill" to="#808080" begin="zoomminus.mouseover" end="zoomminus.mouseout"/>
                        </use>
                        <path d="M-4,0h8" fill="none" stroke="white" stroke-width="1.5" pointer-events="none"/>
                </g>
                <g id="dirArrow">
                        <path fill="none" stroke="white" stroke-width="1.5" d="M0,-3.0v7 M-2.5,-0.5L0,-3.0L2.5,-0.5"/>
                </g>
               <g id="resetDef">
                       <use xlink:href="#rim2" fill="#404040">
                               <set attributeName="fill" to="#808080" begin="reset.mouseover" end="reset.mouseout"/>
                       </use>
               </g>
        </defs>

<script type="text/javascript">
var viewWidth = 1442;
var viewHeight = 303;
var sectionId = 'dynsection-10';
</script>
<script xlink:href="../../svgpan.js"/>
<svg id="graph" class="graph">
<g id="viewport">
<title>authoring.eventhandlers.AddConditionHandler.handle</title>
<polygon fill="white" stroke="none" points="-4,4 -4,-299 1438,-299 1438,4 -4,4"/>
<!-- Node1 -->
<g id="node1" class="node"><title>Node1</title>
<polygon fill="#bfbfbf" stroke="black" points="0,-136 0,-166 152,-166 152,-136 0,-136"/>
<text text-anchor="start" x="8" y="-154" font-family="Helvetica,sans-Serif" font-size="10.00">authoring.eventhandlers.</text>
<text text-anchor="middle" x="76" y="-143" font-family="Helvetica,sans-Serif" font-size="10.00">AddConditionHandler.handle</text>
</g>
<!-- Node2 -->
<g id="node2" class="node"><title>Node2</title>
<g id="a_node2"><a xlink:href="../../d0/d9b/classauthoring_1_1eventhandlers_1_1_add_condition_handler.html#a88d3a7413e2434fe0bcfc0e6e436573f" target="_top" xlink:title="authoring.eventhandlers.\lAddConditionHandler.createCondition">
<polygon fill="white" stroke="black" points="188,-136 188,-166 384,-166 384,-136 188,-136"/>
<text text-anchor="start" x="196" y="-154" font-family="Helvetica,sans-Serif" font-size="10.00">authoring.eventhandlers.</text>
<text text-anchor="middle" x="286" y="-143" font-family="Helvetica,sans-Serif" font-size="10.00">AddConditionHandler.createCondition</text>
</a>
</g>
</g>
<!-- Node1&#45;&gt;Node2 -->
<g id="edge1" class="edge"><title>Node1&#45;&gt;Node2</title>
<path fill="none" stroke="midnightblue" d="M152.093,-151C160.457,-151 169.091,-151 177.756,-151"/>
<polygon fill="midnightblue" stroke="midnightblue" points="177.927,-154.5 187.927,-151 177.927,-147.5 177.927,-154.5"/>
</g>
<!-- Node3 -->
<g id="node3" class="node"><title>Node3</title>
<g id="a_node3"><a xlink:href="../../de/d50/classerrors_and_exceptions_1_1_error_pop_up.html#a879c9fa857c162edfab75ecf1558c944" target="_top" xlink:title="errorsAndExceptions.Error\lPopUp.display">
<polygon fill="white" stroke="black" points="1114,-240 1114,-270 1256,-270 1256,-240 1114,-240"/>
<text text-anchor="start" x="1122" y="-258" font-family="Helvetica,sans-Serif" font-size="10.00">errorsAndExceptions.Error</text>
<text text-anchor="middle" x="1185" y="-247" font-family="Helvetica,sans-Serif" font-size="10.00">PopUp.display</text>
</a>
</g>
</g>
<!-- Node2&#45;&gt;Node3 -->
<g id="edge2" class="edge"><title>Node2&#45;&gt;Node3</title>
<path fill="none" stroke="midnightblue" d="M333.359,-166.081C402.433,-187.932 536.82,-228.064 654,-249 753.305,-266.742 779.231,-265.328 880,-270 967.906,-274.075 990.217,-276.18 1078,-270 1086.33,-269.414 1095,-268.571 1103.63,-267.581"/>
<polygon fill="midnightblue" stroke="midnightblue" points="1104.22,-271.035 1113.73,-266.356 1103.38,-264.085 1104.22,-271.035"/>
</g>
<!-- Node6 -->
<g id="node6" class="node"><title>Node6</title>
<g id="a_node6"><a xlink:href="../../d0/d9b/classauthoring_1_1eventhandlers_1_1_add_condition_handler.html#a7215c52c01d70a711bdf49d7c4b37d70" target="_top" xlink:title="authoring.eventhandlers.\lAddConditionHandler.fillCondition\lParameters">
<polygon fill="white" stroke="black" points="431.5,-130.5 431.5,-171.5 606.5,-171.5 606.5,-130.5 431.5,-130.5"/>
<text text-anchor="start" x="439.5" y="-159.5" font-family="Helvetica,sans-Serif" font-size="10.00">authoring.eventhandlers.</text>
<text text-anchor="start" x="439.5" y="-148.5" font-family="Helvetica,sans-Serif" font-size="10.00">AddConditionHandler.fillCondition</text>
<text text-anchor="middle" x="519" y="-137.5" font-family="Helvetica,sans-Serif" font-size="10.00">Parameters</text>
</a>
</g>
</g>
<!-- Node2&#45;&gt;Node6 -->
<g id="edge5" class="edge"><title>Node2&#45;&gt;Node6</title>
<path fill="none" stroke="midnightblue" d="M384.295,-151C396.529,-151 409.043,-151 421.268,-151"/>
<polygon fill="midnightblue" stroke="midnightblue" points="421.457,-154.5 431.457,-151 421.457,-147.5 421.457,-154.5"/>
</g>
<!-- Node15 -->
<g id="node15" class="node"><title>Node15</title>
<g id="a_node15"><a xlink:href="../../d3/d92/classauthoring_1_1view_1_1wizards_1_1_condition_selection_wizard.html#a54d83516860e13492c0a68393f59c966" target="_top" xlink:title="authoring.view.wizards.Condition\lSelectionWizard.getSelectedCondition">
<polygon fill="white" stroke="black" points="420,-65 420,-95 618,-95 618,-65 420,-65"/>
<text text-anchor="start" x="428" y="-83" font-family="Helvetica,sans-Serif" font-size="10.00">authoring.view.wizards.Condition</text>
<text text-anchor="middle" x="519" y="-72" font-family="Helvetica,sans-Serif" font-size="10.00">SelectionWizard.getSelectedCondition</text>
</a>
</g>
</g>
<!-- Node2&#45;&gt;Node15 -->
<g id="edge17" class="edge"><title>Node2&#45;&gt;Node15</title>
<path fill="none" stroke="midnightblue" d="M335.989,-135.943C371.975,-124.882 421.027,-109.805 459.143,-98.0904"/>
<polygon fill="midnightblue" stroke="midnightblue" points="460.551,-101.319 469.081,-95.0356 458.494,-94.628 460.551,-101.319"/>
</g>
<!-- Node4 -->
<g id="node4" class="node"><title>Node4</title>
<g id="a_node4"><a xlink:href="../../de/d50/classerrors_and_exceptions_1_1_error_pop_up.html#adecc4a2ab81e607673649e10e6d7da52" target="_top" xlink:title="errorsAndExceptions.Error\lPopUp.createButton">
<polygon fill="white" stroke="black" points="1292,-265 1292,-295 1434,-295 1434,-265 1292,-265"/>
<text text-anchor="start" x="1300" y="-283" font-family="Helvetica,sans-Serif" font-size="10.00">errorsAndExceptions.Error</text>
<text text-anchor="middle" x="1363" y="-272" font-family="Helvetica,sans-Serif" font-size="10.00">PopUp.createButton</text>
</a>
</g>
</g>
<!-- Node3&#45;&gt;Node4 -->
<g id="edge3" class="edge"><title>Node3&#45;&gt;Node4</title>
<path fill="none" stroke="midnightblue" d="M1256.07,-264.952C1264.54,-266.156 1273.25,-267.393 1281.85,-268.615"/>
<polygon fill="midnightblue" stroke="midnightblue" points="1281.5,-272.1 1291.89,-270.041 1282.48,-265.169 1281.5,-272.1"/>
</g>
<!-- Node5 -->
<g id="node5" class="node"><title>Node5</title>
<g id="a_node5"><a xlink:href="../../de/d50/classerrors_and_exceptions_1_1_error_pop_up.html#a98549e423869b27d7ee3c87270786f60" target="_top" xlink:title="errorsAndExceptions.Error\lPopUp.chooseStageWidth">
<polygon fill="white" stroke="black" points="1292,-216 1292,-246 1434,-246 1434,-216 1292,-216"/>
<text text-anchor="start" x="1300" y="-234" font-family="Helvetica,sans-Serif" font-size="10.00">errorsAndExceptions.Error</text>
<text text-anchor="middle" x="1363" y="-223" font-family="Helvetica,sans-Serif" font-size="10.00">PopUp.chooseStageWidth</text>
</a>
</g>
</g>
<!-- Node3&#45;&gt;Node5 -->
<g id="edge4" class="edge"><title>Node3&#45;&gt;Node5</title>
<path fill="none" stroke="midnightblue" d="M1256.07,-245.446C1264.54,-244.29 1273.25,-243.103 1281.85,-241.929"/>
<polygon fill="midnightblue" stroke="midnightblue" points="1282.45,-245.38 1291.89,-240.561 1281.51,-238.444 1282.45,-245.38"/>
</g>
<!-- Node7 -->
<g id="node7" class="node"><title>Node7</title>
<g id="a_node7"><a xlink:href="../../d3/d92/classauthoring_1_1view_1_1wizards_1_1_condition_selection_wizard.html#a55878f6e0abaa960b2fa52130dde8a6f" target="_top" xlink:title="authoring.view.wizards.Condition\lSelectionWizard.disableSelection">
<polygon fill="white" stroke="black" points="662.5,-210 662.5,-240 835.5,-240 835.5,-210 662.5,-210"/>
<text text-anchor="start" x="670.5" y="-228" font-family="Helvetica,sans-Serif" font-size="10.00">authoring.view.wizards.Condition</text>
<text text-anchor="middle" x="749" y="-217" font-family="Helvetica,sans-Serif" font-size="10.00">SelectionWizard.disableSelection</text>
</a>
</g>
</g>
<!-- Node6&#45;&gt;Node7 -->
<g id="edge6" class="edge"><title>Node6&#45;&gt;Node7</title>
<path fill="none" stroke="midnightblue" d="M572.767,-171.549C597.29,-180.775 626.949,-191.476 654,-200 661.872,-202.48 670.164,-204.925 678.43,-207.257"/>
<polygon fill="midnightblue" stroke="midnightblue" points="677.521,-210.637 688.093,-209.938 679.393,-203.892 677.521,-210.637"/>
</g>
<!-- Node8 -->
<g id="node8" class="node"><title>Node8</title>
<g id="a_node8"><a xlink:href="../../d3/d92/classauthoring_1_1view_1_1wizards_1_1_condition_selection_wizard.html#a762ba9a1a888f879f35e3342742f31e8" target="_top" xlink:title="authoring.view.wizards.Condition\lSelectionWizard.enableFinalize">
<polygon fill="white" stroke="black" points="663.5,-161 663.5,-191 834.5,-191 834.5,-161 663.5,-161"/>
<text text-anchor="start" x="671.5" y="-179" font-family="Helvetica,sans-Serif" font-size="10.00">authoring.view.wizards.Condition</text>
<text text-anchor="middle" x="749" y="-168" font-family="Helvetica,sans-Serif" font-size="10.00">SelectionWizard.enableFinalize</text>
</a>
</g>
</g>
<!-- Node6&#45;&gt;Node8 -->
<g id="edge7" class="edge"><title>Node6&#45;&gt;Node8</title>
<path fill="none" stroke="midnightblue" d="M606.522,-160.487C621.816,-162.164 637.812,-163.918 653.317,-165.618"/>
<polygon fill="midnightblue" stroke="midnightblue" points="653.101,-169.115 663.423,-166.726 653.864,-162.157 653.101,-169.115"/>
</g>
<!-- Node9 -->
<g id="node9" class="node"><title>Node9</title>
<g id="a_node9"><a xlink:href="../../d0/d9b/classauthoring_1_1eventhandlers_1_1_add_condition_handler.html#a1dbd177bba812a645c78db0a93e6ee71" target="_top" xlink:title="authoring.eventhandlers.\lAddConditionHandler.finishCondition">
<polygon fill="white" stroke="black" points="654,-112 654,-142 844,-142 844,-112 654,-112"/>
<text text-anchor="start" x="662" y="-130" font-family="Helvetica,sans-Serif" font-size="10.00">authoring.eventhandlers.</text>
<text text-anchor="middle" x="749" y="-119" font-family="Helvetica,sans-Serif" font-size="10.00">AddConditionHandler.finishCondition</text>
</a>
</g>
</g>
<!-- Node6&#45;&gt;Node9 -->
<g id="edge8" class="edge"><title>Node6&#45;&gt;Node9</title>
<path fill="none" stroke="midnightblue" d="M606.522,-141.892C618.749,-140.605 631.424,-139.271 643.938,-137.954"/>
<polygon fill="midnightblue" stroke="midnightblue" points="644.349,-141.43 653.927,-136.902 643.616,-134.469 644.349,-141.43"/>
</g>
<!-- Node12 -->
<g id="node12" class="node"><title>Node12</title>
<g id="a_node12"><a xlink:href="../../d6/d32/classauthoring_1_1view_1_1wizards_1_1_wizard.html#a0d419b2943c99507fca42fd769c24b0e" target="_top" xlink:title="authoring.view.wizards.Wizard.getMap">
<polygon fill="white" stroke="black" points="880.5,-0.5 880.5,-19.5 1077.5,-19.5 1077.5,-0.5 880.5,-0.5"/>
<text text-anchor="middle" x="979" y="-7.5" font-family="Helvetica,sans-Serif" font-size="10.00">authoring.view.wizards.Wizard.getMap</text>
</a>
</g>
</g>
<!-- Node6&#45;&gt;Node12 -->
<g id="edge16" class="edge"><title>Node6&#45;&gt;Node12</title>
<path fill="none" stroke="midnightblue" d="M570.639,-130.469C595.474,-120.92 626,-109.946 654,-102 736.93,-78.4661 767.522,-102.78 844,-63 863.524,-52.8442 860.42,-39.0488 880,-29 884.604,-26.6372 889.467,-24.5671 894.466,-22.7535"/>
<polygon fill="midnightblue" stroke="midnightblue" points="895.795,-26.0018 904.216,-19.5727 893.623,-19.347 895.795,-26.0018"/>
</g>
<!-- Node9&#45;&gt;Node3 -->
<g id="edge12" class="edge"><title>Node9&#45;&gt;Node3</title>
<path fill="none" stroke="midnightblue" d="M831.006,-142.161C835.649,-144.68 840.033,-147.605 844,-151 874.857,-177.412 846.843,-211.539 880,-235 944.682,-280.768 1037.77,-279.819 1103.86,-271.156"/>
<polygon fill="midnightblue" stroke="midnightblue" points="1104.4,-274.615 1113.82,-269.767 1103.43,-267.682 1104.4,-274.615"/>
</g>
<!-- Node10 -->
<g id="node10" class="node"><title>Node10</title>
<g id="a_node10"><a xlink:href="../../db/d2a/classauthoring_1_1model_1_1collections_1_1_conditions_collection.html#af4aa1e8459d542b7f0e78ffe3b004d77" target="_top" xlink:title="authoring.model.collections.\lConditionsCollection.add">
<polygon fill="white" stroke="black" points="903,-196 903,-226 1055,-226 1055,-196 903,-196"/>
<text text-anchor="start" x="911" y="-214" font-family="Helvetica,sans-Serif" font-size="10.00">authoring.model.collections.</text>
<text text-anchor="middle" x="979" y="-203" font-family="Helvetica,sans-Serif" font-size="10.00">ConditionsCollection.add</text>
</a>
</g>
</g>
<!-- Node9&#45;&gt;Node10 -->
<g id="edge9" class="edge"><title>Node9&#45;&gt;Node10</title>
<path fill="none" stroke="midnightblue" d="M824.302,-142.026C831.152,-144.574 837.828,-147.543 844,-151 863.469,-161.906 860.53,-175.096 880,-186 884.23,-188.369 888.687,-190.518 893.273,-192.466"/>
<polygon fill="midnightblue" stroke="midnightblue" points="892.249,-195.823 902.838,-196.191 894.79,-189.3 892.249,-195.823"/>
</g>
<!-- Node11 -->
<g id="node11" class="node"><title>Node11</title>
<g id="a_node11"><a xlink:href="../../d0/d9b/classauthoring_1_1eventhandlers_1_1_add_condition_handler.html#ad09caf055d0f6cc1e01c4029caeefb5c" target="_top" xlink:title="authoring.eventhandlers.\lAddConditionHandler.convertInput\lParameters">
<polygon fill="white" stroke="black" points="889,-136.5 889,-177.5 1069,-177.5 1069,-136.5 889,-136.5"/>
<text text-anchor="start" x="897" y="-165.5" font-family="Helvetica,sans-Serif" font-size="10.00">authoring.eventhandlers.</text>
<text text-anchor="start" x="897" y="-154.5" font-family="Helvetica,sans-Serif" font-size="10.00">AddConditionHandler.convertInput</text>
<text text-anchor="middle" x="979" y="-143.5" font-family="Helvetica,sans-Serif" font-size="10.00">Parameters</text>
</a>
</g>
</g>
<!-- Node9&#45;&gt;Node11 -->
<g id="edge10" class="edge"><title>Node9&#45;&gt;Node11</title>
<path fill="none" stroke="midnightblue" d="M844.053,-139.375C855.533,-140.886 867.291,-142.433 878.842,-143.953"/>
<polygon fill="midnightblue" stroke="midnightblue" points="878.557,-147.446 888.928,-145.28 879.47,-140.505 878.557,-147.446"/>
</g>
<!-- Node9&#45;&gt;Node12 -->
<g id="edge13" class="edge"><title>Node9&#45;&gt;Node12</title>
<path fill="none" stroke="midnightblue" d="M818.999,-111.946C828.003,-108.051 836.641,-103.154 844,-97 870.234,-75.0641 852.524,-49.3587 880,-29 882.496,-27.1509 885.122,-25.4675 887.849,-23.9358"/>
<polygon fill="midnightblue" stroke="midnightblue" points="889.406,-27.0705 896.861,-19.5426 886.339,-20.7783 889.406,-27.0705"/>
</g>
<!-- Node13 -->
<g id="node13" class="node"><title>Node13</title>
<g id="a_node13"><a xlink:href="../../d1/d3b/classengine_1_1conditions_1_1_condition.html#a13aea023be9fc9c78c0fcf66b908054f" target="_top" xlink:title="engine.conditions.Condition.set\lIdentifier">
<polygon fill="white" stroke="black" points="895.5,-88 895.5,-118 1062.5,-118 1062.5,-88 895.5,-88"/>
<text text-anchor="start" x="903.5" y="-106" font-family="Helvetica,sans-Serif" font-size="10.00">engine.conditions.Condition.set</text>
<text text-anchor="middle" x="979" y="-95" font-family="Helvetica,sans-Serif" font-size="10.00">Identifier</text>
</a>
</g>
</g>
<!-- Node9&#45;&gt;Node13 -->
<g id="edge14" class="edge"><title>Node9&#45;&gt;Node13</title>
<path fill="none" stroke="midnightblue" d="M844.053,-117.1C857.64,-115.669 871.617,-114.198 885.18,-112.771"/>
<polygon fill="midnightblue" stroke="midnightblue" points="885.879,-116.216 895.458,-111.689 885.146,-109.255 885.879,-116.216"/>
</g>
<!-- Node14 -->
<g id="node14" class="node"><title>Node14</title>
<g id="a_node14"><a xlink:href="../../d1/d3b/classengine_1_1conditions_1_1_condition.html#a032794f008153a8a356234754ec662e4" target="_top" xlink:title="engine.conditions.Condition.set\lInputMap">
<polygon fill="white" stroke="black" points="895.5,-39 895.5,-69 1062.5,-69 1062.5,-39 895.5,-39"/>
<text text-anchor="start" x="903.5" y="-57" font-family="Helvetica,sans-Serif" font-size="10.00">engine.conditions.Condition.set</text>
<text text-anchor="middle" x="979" y="-46" font-family="Helvetica,sans-Serif" font-size="10.00">InputMap</text>
</a>
</g>
</g>
<!-- Node9&#45;&gt;Node14 -->
<g id="edge15" class="edge"><title>Node9&#45;&gt;Node14</title>
<path fill="none" stroke="midnightblue" d="M802.802,-111.953C816.399,-107.589 830.889,-102.501 844,-97 860.683,-90.0002 863.087,-84.4222 880,-78 885.749,-75.8169 891.765,-73.7811 897.866,-71.8934"/>
<polygon fill="midnightblue" stroke="midnightblue" points="898.898,-75.2382 907.497,-69.0489 896.915,-68.5249 898.898,-75.2382"/>
</g>
<!-- Node11&#45;&gt;Node3 -->
<g id="edge11" class="edge"><title>Node11&#45;&gt;Node3</title>
<path fill="none" stroke="midnightblue" d="M1057.29,-177.556C1064.39,-180.136 1071.39,-182.952 1078,-186 1106.26,-199.043 1135.72,-218.797 1156.39,-233.831"/>
<polygon fill="midnightblue" stroke="midnightblue" points="1154.56,-236.828 1164.68,-239.952 1158.72,-231.197 1154.56,-236.828"/>
</g>
<!-- Node16 -->
<g id="node16" class="node"><title>Node16</title>
<g id="a_node16"><a xlink:href="../../d2/d2f/classauthoring_1_1view_1_1wizards_1_1_condition_choices_v_box.html#a8153f64444a853bc423995a8f18c4c6f" target="_top" xlink:title="authoring.view.wizards.Condition\lChoicesVBox.getSelected">
<polygon fill="white" stroke="black" points="663.5,-24 663.5,-54 834.5,-54 834.5,-24 663.5,-24"/>
<text text-anchor="start" x="671.5" y="-42" font-family="Helvetica,sans-Serif" font-size="10.00">authoring.view.wizards.Condition</text>
<text text-anchor="middle" x="749" y="-31" font-family="Helvetica,sans-Serif" font-size="10.00">ChoicesVBox.getSelected</text>
</a>
</g>
</g>
<!-- Node15&#45;&gt;Node16 -->
<g id="edge18" class="edge"><title>Node15&#45;&gt;Node16</title>
<path fill="none" stroke="midnightblue" d="M603.604,-64.9659C620.178,-61.9856 637.676,-58.839 654.553,-55.8041"/>
<polygon fill="midnightblue" stroke="midnightblue" points="655.183,-59.2469 664.406,-54.0323 653.944,-52.3575 655.183,-59.2469"/>
</g>
</g>
</svg>
        <g id="navigator" transform="translate(0 0)" fill="#404254">
                <rect fill="#f2f5e9" fill-opacity="0.5" stroke="#606060" stroke-width=".5" x="0" y="0" width="60" height="60"/>
                <use id="zoomplus" xlink:href="#zoomPlus" x="17" y="9" onmousedown="handleZoom(evt,'in')"/>
                <use id="zoomminus" xlink:href="#zoomMin" x="42" y="9" onmousedown="handleZoom(evt,'out')"/>
                <use id="reset" xlink:href="#resetDef" x="30" y="36" onmousedown="handleReset()"/>
                <g id="arrowUp" xlink:href="#dirArrow" transform="translate(30 24)" onmousedown="handlePan(0,-1)">
                  <use xlink:href="#rim" fill="#404040">
                        <set attributeName="fill" to="#808080" begin="arrowUp.mouseover" end="arrowUp.mouseout"/>
                  </use>
                  <path fill="none" stroke="white" stroke-width="1.5" d="M0,-3.0v7 M-2.5,-0.5L0,-3.0L2.5,-0.5"/>
                </g>
                <g id="arrowRight" xlink:href="#dirArrow" transform="rotate(90) translate(36 -43)" onmousedown="handlePan(1,0)">
                  <use xlink:href="#rim" fill="#404040">
                        <set attributeName="fill" to="#808080" begin="arrowRight.mouseover" end="arrowRight.mouseout"/>
                  </use>
                  <path fill="none" stroke="white" stroke-width="1.5" d="M0,-3.0v7 M-2.5,-0.5L0,-3.0L2.5,-0.5"/>
                </g>
                <g id="arrowDown" xlink:href="#dirArrow" transform="rotate(180) translate(-30 -48)" onmousedown="handlePan(0,1)">
                  <use xlink:href="#rim" fill="#404040">
                        <set attributeName="fill" to="#808080" begin="arrowDown.mouseover" end="arrowDown.mouseout"/>
                  </use>
                  <path fill="none" stroke="white" stroke-width="1.5" d="M0,-3.0v7 M-2.5,-0.5L0,-3.0L2.5,-0.5"/>
                </g>
                <g id="arrowLeft" xlink:href="#dirArrow" transform="rotate(270) translate(-36 17)" onmousedown="handlePan(-1,0)">
                  <use xlink:href="#rim" fill="#404040">
                        <set attributeName="fill" to="#808080" begin="arrowLeft.mouseover" end="arrowLeft.mouseout"/>
                  </use>
                  <path fill="none" stroke="white" stroke-width="1.5" d="M0,-3.0v7 M-2.5,-0.5L0,-3.0L2.5,-0.5"/>
                </g>
        </g>
        <svg viewBox="0 0 15 15" width="100%" height="30px" preserveAspectRatio="xMaxYMin meet">
         <g id="arrow_out" transform="scale(0.3 0.3)">
          <a xlink:href="classauthoring_1_1eventhandlers_1_1_add_condition_handler_abc328df9b2c2be7df5170384e59f06d4_cgraph_org.svg" target="_base">
           <rect id="button" ry="5" rx="5" y="6" x="6" height="38" width="38"
                fill="#f2f5e9" fill-opacity="0.5" stroke="#606060" stroke-width="1.0"/>
           <path id="arrow"
             d="M 11.500037,31.436501 C 11.940474,20.09759 22.043105,11.32322 32.158766,21.979434 L 37.068811,17.246167 C 37.068811,17.246167 37.088388,32 37.088388,32 L 22.160133,31.978069 C 22.160133,31.978069 26.997745,27.140456 26.997745,27.140456 C 18.528582,18.264221 13.291696,25.230495 11.500037,31.436501 z"
             style="fill:#404040;"/>
          </a>
         </g>
        </svg>
</svg>
