<?xml version="1.0" encoding="UTF-8" standalone="no"?>
<!DOCTYPE svg PUBLIC "-//W3C//DTD SVG 1.1//EN"
 "http://www.w3.org/Graphics/SVG/1.1/DTD/svg11.dtd">
<!-- Generated by graphviz version 2.36.0 (20140111.2315)
 -->
<!-- Title: authoring.eventhandlers.AddConditionHandler.finishCondition Pages: 1 -->
<svg width="432pt" height="234pt"
 viewBox="0.00 0.00 432.00 234.00" xmlns="http://www.w3.org/2000/svg" xmlns:xlink="http://www.w3.org/1999/xlink">
<g id="graph0" class="graph" transform="scale(1 1) rotate(0) translate(4 230)">
<title>authoring.eventhandlers.AddConditionHandler.finishCondition</title>
<polygon fill="white" stroke="none" points="-4,4 -4,-230 428,-230 428,4 -4,4"/>
<!-- Node1 -->
<g id="node1" class="node"><title>Node1</title>
<polygon fill="#bfbfbf" stroke="black" points="0,-93 0,-123 190,-123 190,-93 0,-93"/>
<text text-anchor="start" x="8" y="-111" font-family="Helvetica,sans-Serif" font-size="10.00">authoring.eventhandlers.</text>
<text text-anchor="middle" x="95" y="-100" font-family="Helvetica,sans-Serif" font-size="10.00">AddConditionHandler.finishCondition</text>
</g>
<!-- Node2 -->
<g id="node2" class="node"><title>Node2</title>
<g id="a_node2"><a xlink:href="../../d4/d3b/classauthoring_1_1model_1_1collections_1_1_general_collection.html#a1bdc1047736bbb23259d6a7fe4c6deeb" target="_top" xlink:title="authoring.model.collections.\lGeneralCollection.add">
<polygon fill="white" stroke="black" points="249,-196 249,-226 401,-226 401,-196 249,-196"/>
<text text-anchor="start" x="257" y="-214" font-family="Helvetica,sans-Serif" font-size="10.00">authoring.model.collections.</text>
<text text-anchor="middle" x="325" y="-203" font-family="Helvetica,sans-Serif" font-size="10.00">GeneralCollection.add</text>
</a>
</g>
</g>
<!-- Node1&#45;&gt;Node2 -->
<g id="edge1" class="edge"><title>Node1&#45;&gt;Node2</title>
<path fill="none" stroke="midnightblue" d="M117.056,-123.281C141.956,-140.707 185.189,-168.981 226,-186 232.098,-188.543 238.52,-190.878 245.039,-193.012"/>
<polygon fill="midnightblue" stroke="midnightblue" points="244.046,-196.369 254.634,-195.995 246.124,-189.684 244.046,-196.369"/>
</g>
<!-- Node3 -->
<g id="node3" class="node"><title>Node3</title>
<g id="a_node3"><a xlink:href="../../d0/d9b/classauthoring_1_1eventhandlers_1_1_add_condition_handler.html#ad09caf055d0f6cc1e01c4029caeefb5c" target="_top" xlink:title="authoring.eventhandlers.\lAddConditionHandler.convertInput\lParameters">
<polygon fill="white" stroke="black" points="235,-136.5 235,-177.5 415,-177.5 415,-136.5 235,-136.5"/>
<text text-anchor="start" x="243" y="-165.5" font-family="Helvetica,sans-Serif" font-size="10.00">authoring.eventhandlers.</text>
<text text-anchor="start" x="243" y="-154.5" font-family="Helvetica,sans-Serif" font-size="10.00">AddConditionHandler.convertInput</text>
<text text-anchor="middle" x="325" y="-143.5" font-family="Helvetica,sans-Serif" font-size="10.00">Parameters</text>
</a>
</g>
</g>
<!-- Node1&#45;&gt;Node3 -->
<g id="edge2" class="edge"><title>Node1&#45;&gt;Node3</title>
<path fill="none" stroke="midnightblue" d="M165.957,-123.035C184.546,-127.03 204.981,-131.421 224.809,-135.683"/>
<polygon fill="midnightblue" stroke="midnightblue" points="224.282,-139.149 234.794,-137.829 225.753,-132.306 224.282,-139.149"/>
</g>
<!-- Node4 -->
<g id="node4" class="node"><title>Node4</title>
<g id="a_node4"><a xlink:href="../../d6/d32/classauthoring_1_1view_1_1wizards_1_1_wizard.html#a0d419b2943c99507fca42fd769c24b0e" target="_top" xlink:title="authoring.view.wizards.Wizard.getMap">
<polygon fill="white" stroke="black" points="226.5,-98.5 226.5,-117.5 423.5,-117.5 423.5,-98.5 226.5,-98.5"/>
<text text-anchor="middle" x="325" y="-105.5" font-family="Helvetica,sans-Serif" font-size="10.00">authoring.view.wizards.Wizard.getMap</text>
</a>
</g>
</g>
<!-- Node1&#45;&gt;Node4 -->
<g id="edge3" class="edge"><title>Node1&#45;&gt;Node4</title>
<path fill="none" stroke="midnightblue" d="M190.053,-108C198.693,-108 207.491,-108 216.24,-108"/>
<polygon fill="midnightblue" stroke="midnightblue" points="216.476,-111.5 226.476,-108 216.476,-104.5 216.476,-111.5"/>
</g>
<!-- Node5 -->
<g id="node5" class="node"><title>Node5</title>
<g id="a_node5"><a xlink:href="../../d1/d3b/classengine_1_1conditions_1_1_condition.html#a13aea023be9fc9c78c0fcf66b908054f" target="_top" xlink:title="engine.conditions.Condition.set\lIdentifier">
<polygon fill="white" stroke="black" points="241.5,-49 241.5,-79 408.5,-79 408.5,-49 241.5,-49"/>
<text text-anchor="start" x="249.5" y="-67" font-family="Helvetica,sans-Serif" font-size="10.00">engine.conditions.Condition.set</text>
<text text-anchor="middle" x="325" y="-56" font-family="Helvetica,sans-Serif" font-size="10.00">Identifier</text>
</a>
</g>
</g>
<!-- Node1&#45;&gt;Node5 -->
<g id="edge4" class="edge"><title>Node1&#45;&gt;Node5</title>
<path fill="none" stroke="midnightblue" d="M173.827,-92.9808C193.893,-89.1084 215.627,-84.914 236.164,-80.9508"/>
<polygon fill="midnightblue" stroke="midnightblue" points="236.981,-84.3577 246.137,-79.0262 235.655,-77.4846 236.981,-84.3577"/>
</g>
<!-- Node6 -->
<g id="node6" class="node"><title>Node6</title>
<g id="a_node6"><a xlink:href="../../d1/d3b/classengine_1_1conditions_1_1_condition.html#a032794f008153a8a356234754ec662e4" target="_top" xlink:title="engine.conditions.Condition.set\lInputMap">
<polygon fill="white" stroke="black" points="241.5,-0 241.5,-30 408.5,-30 408.5,-0 241.5,-0"/>
<text text-anchor="start" x="249.5" y="-18" font-family="Helvetica,sans-Serif" font-size="10.00">engine.conditions.Condition.set</text>
<text text-anchor="middle" x="325" y="-7" font-family="Helvetica,sans-Serif" font-size="10.00">InputMap</text>
</a>
</g>
</g>
<!-- Node1&#45;&gt;Node6 -->
<g id="edge5" class="edge"><title>Node1&#45;&gt;Node6</title>
<path fill="none" stroke="midnightblue" d="M120.6,-92.918C146.161,-77.7838 187.706,-54.6705 226,-40 232.651,-37.452 239.655,-35.0838 246.732,-32.9024"/>
<polygon fill="midnightblue" stroke="midnightblue" points="247.805,-36.2351 256.403,-30.0443 245.821,-29.5221 247.805,-36.2351"/>
</g>
</g>
</svg>
