<?xml version="1.0" encoding="UTF-8" standalone="no"?>
<!DOCTYPE svg PUBLIC "-//W3C//DTD SVG 1.1//EN"
 "http://www.w3.org/Graphics/SVG/1.1/DTD/svg11.dtd">
<!-- Generated by graphviz version 2.36.0 (20140111.2315)
 -->
<!-- Title: authoring.eventhandlers.AddConditionHandler.fillConditionParameters Pages: 1 -->
<!--zoomable 235 -->
<svg id="main" version="1.1" xmlns="http://www.w3.org/2000/svg" xmlns:xlink="http://www.w3.org/1999/xlink" xml:space="preserve" onload="init(evt)">
<style type="text/css"><![CDATA[
.edge:hover path { stroke: red; }
.edge:hover polygon { stroke: red; fill: red; }
]]></style>
<script type="text/javascript"><![CDATA[
var edges = document.getElementsByTagName('g');
if (edges && edges.length) {
  for (var i=0;i<edges.length;i++) {
    if (edges[i].id.substr(0,4)=='edge') {
      edges[i].setAttribute('class','edge');
    }
  }
}
]]></script>
        <defs>
                <circle id="rim" cx="0" cy="0" r="7"/>
                <circle id="rim2" cx="0" cy="0" r="3.5"/>
                <g id="zoomPlus">
                        <use xlink:href="#rim" fill="#404040">
                                <set attributeName="fill" to="#808080" begin="zoomplus.mouseover" end="zoomplus.mouseout"/>
                        </use>
                        <path d="M-4,0h8M0,-4v8" fill="none" stroke="white" stroke-width="1.5" pointer-events="none"/>
                </g>
                <g id="zoomMin">
                        <use xlink:href="#rim" fill="#404040">
                                <set attributeName="fill" to="#808080" begin="zoomminus.mouseover" end="zoomminus.mouseout"/>
                        </use>
                        <path d="M-4,0h8" fill="none" stroke="white" stroke-width="1.5" pointer-events="none"/>
                </g>
                <g id="dirArrow">
                        <path fill="none" stroke="white" stroke-width="1.5" d="M0,-3.0v7 M-2.5,-0.5L0,-3.0L2.5,-0.5"/>
                </g>
               <g id="resetDef">
                       <use xlink:href="#rim2" fill="#404040">
                               <set attributeName="fill" to="#808080" begin="reset.mouseover" end="reset.mouseout"/>
                       </use>
               </g>
        </defs>

<script type="text/javascript">
var viewWidth = 990;
var viewHeight = 235;
var sectionId = 'dynsection-6';
</script>
<script xlink:href="../../svgpan.js"/>
<svg id="graph" class="graph">
<g id="viewport">
<title>authoring.eventhandlers.AddConditionHandler.fillConditionParameters</title>
<polygon fill="white" stroke="none" points="-4,4 -4,-231 986,-231 986,4 -4,4"/>
<!-- Node1 -->
<g id="node1" class="node"><title>Node1</title>
<polygon fill="#bfbfbf" stroke="black" points="0.5,-116.5 0.5,-157.5 175.5,-157.5 175.5,-116.5 0.5,-116.5"/>
<text text-anchor="start" x="8.5" y="-145.5" font-family="Helvetica,sans-Serif" font-size="10.00">authoring.eventhandlers.</text>
<text text-anchor="start" x="8.5" y="-134.5" font-family="Helvetica,sans-Serif" font-size="10.00">AddConditionHandler.fillCondition</text>
<text text-anchor="middle" x="88" y="-123.5" font-family="Helvetica,sans-Serif" font-size="10.00">Parameters</text>
</g>
<!-- Node2 -->
<g id="node2" class="node"><title>Node2</title>
<g id="a_node2"><a xlink:href="../../d3/d92/classauthoring_1_1view_1_1wizards_1_1_condition_selection_wizard.html#a55878f6e0abaa960b2fa52130dde8a6f" target="_top" xlink:title="authoring.view.wizards.Condition\lSelectionWizard.disableSelection">
<polygon fill="white" stroke="black" points="224.5,-196 224.5,-226 397.5,-226 397.5,-196 224.5,-196"/>
<text text-anchor="start" x="232.5" y="-214" font-family="Helvetica,sans-Serif" font-size="10.00">authoring.view.wizards.Condition</text>
<text text-anchor="middle" x="311" y="-203" font-family="Helvetica,sans-Serif" font-size="10.00">SelectionWizard.disableSelection</text>
</a>
</g>
</g>
<!-- Node1&#45;&gt;Node2 -->
<g id="edge1" class="edge"><title>Node1&#45;&gt;Node2</title>
<path fill="none" stroke="midnightblue" d="M136.373,-157.536C159.011,-166.919 186.643,-177.753 212,-186 219.861,-188.557 228.145,-191.018 236.431,-193.334"/>
<polygon fill="midnightblue" stroke="midnightblue" points="235.564,-196.725 246.133,-195.981 237.407,-189.972 235.564,-196.725"/>
</g>
<!-- Node3 -->
<g id="node3" class="node"><title>Node3</title>
<g id="a_node3"><a xlink:href="../../d3/d92/classauthoring_1_1view_1_1wizards_1_1_condition_selection_wizard.html#a762ba9a1a888f879f35e3342742f31e8" target="_top" xlink:title="authoring.view.wizards.Condition\lSelectionWizard.enableFinalize">
<polygon fill="white" stroke="black" points="225.5,-147 225.5,-177 396.5,-177 396.5,-147 225.5,-147"/>
<text text-anchor="start" x="233.5" y="-165" font-family="Helvetica,sans-Serif" font-size="10.00">authoring.view.wizards.Condition</text>
<text text-anchor="middle" x="311" y="-154" font-family="Helvetica,sans-Serif" font-size="10.00">SelectionWizard.enableFinalize</text>
</a>
</g>
</g>
<!-- Node1&#45;&gt;Node3 -->
<g id="edge2" class="edge"><title>Node1&#45;&gt;Node3</title>
<path fill="none" stroke="midnightblue" d="M175.711,-146.809C188.72,-148.281 202.191,-149.804 215.355,-151.294"/>
<polygon fill="midnightblue" stroke="midnightblue" points="215.019,-154.778 225.349,-152.424 215.806,-147.822 215.019,-154.778"/>
</g>
<!-- Node4 -->
<g id="node4" class="node"><title>Node4</title>
<g id="a_node4"><a xlink:href="../../d0/d9b/classauthoring_1_1eventhandlers_1_1_add_condition_handler.html#a1dbd177bba812a645c78db0a93e6ee71" target="_top" xlink:title="authoring.eventhandlers.\lAddConditionHandler.finishCondition">
<polygon fill="white" stroke="black" points="216,-98 216,-128 406,-128 406,-98 216,-98"/>
<text text-anchor="start" x="224" y="-116" font-family="Helvetica,sans-Serif" font-size="10.00">authoring.eventhandlers.</text>
<text text-anchor="middle" x="311" y="-105" font-family="Helvetica,sans-Serif" font-size="10.00">AddConditionHandler.finishCondition</text>
</a>
</g>
</g>
<!-- Node1&#45;&gt;Node4 -->
<g id="edge3" class="edge"><title>Node1&#45;&gt;Node4</title>
<path fill="none" stroke="midnightblue" d="M175.711,-127.583C185.597,-126.51 195.749,-125.407 205.831,-124.312"/>
<polygon fill="midnightblue" stroke="midnightblue" points="206.313,-127.781 215.877,-123.222 205.557,-120.822 206.313,-127.781"/>
</g>
<!-- Node12 -->
<g id="node12" class="node"><title>Node12</title>
<g id="a_node12"><a xlink:href="../../d6/d32/classauthoring_1_1view_1_1wizards_1_1_wizard.html#a0d419b2943c99507fca42fd769c24b0e" target="_top" xlink:title="authoring.view.wizards.Wizard.getMap">
<polygon fill="white" stroke="black" points="212.5,-59.5 212.5,-78.5 409.5,-78.5 409.5,-59.5 212.5,-59.5"/>
<text text-anchor="middle" x="311" y="-66.5" font-family="Helvetica,sans-Serif" font-size="10.00">authoring.view.wizards.Wizard.getMap</text>
</a>
</g>
</g>
<!-- Node1&#45;&gt;Node12 -->
<g id="edge12" class="edge"><title>Node1&#45;&gt;Node12</title>
<path fill="none" stroke="midnightblue" d="M136.24,-116.381C158.849,-107.08 186.495,-96.5192 212,-89 222.521,-85.8984 233.816,-83.1098 244.862,-80.6685"/>
<polygon fill="midnightblue" stroke="midnightblue" points="245.859,-84.0348 254.908,-78.5252 244.398,-77.1889 245.859,-84.0348"/>
</g>
<!-- Node5 -->
<g id="node5" class="node"><title>Node5</title>
<g id="a_node5"><a xlink:href="../../d0/d9b/classauthoring_1_1eventhandlers_1_1_add_condition_handler.html#ad09caf055d0f6cc1e01c4029caeefb5c" target="_top" xlink:title="authoring.eventhandlers.\lAddConditionHandler.convertInput\lParameters">
<polygon fill="white" stroke="black" points="446,-185.5 446,-226.5 626,-226.5 626,-185.5 446,-185.5"/>
<text text-anchor="start" x="454" y="-214.5" font-family="Helvetica,sans-Serif" font-size="10.00">authoring.eventhandlers.</text>
<text text-anchor="start" x="454" y="-203.5" font-family="Helvetica,sans-Serif" font-size="10.00">AddConditionHandler.convertInput</text>
<text text-anchor="middle" x="536" y="-192.5" font-family="Helvetica,sans-Serif" font-size="10.00">Parameters</text>
</a>
</g>
</g>
<!-- Node4&#45;&gt;Node5 -->
<g id="edge4" class="edge"><title>Node4&#45;&gt;Node5</title>
<path fill="none" stroke="midnightblue" d="M387.046,-128.02C395.013,-130.817 402.819,-134.115 410,-138 429.091,-148.327 427.591,-159.502 446,-171 451.771,-174.605 457.976,-177.953 464.327,-181.033"/>
<polygon fill="midnightblue" stroke="midnightblue" points="463.157,-184.347 473.704,-185.354 466.086,-177.99 463.157,-184.347"/>
</g>
<!-- Node6 -->
<g id="node6" class="node"><title>Node6</title>
<g id="a_node6"><a xlink:href="../../de/d50/classerrors_and_exceptions_1_1_error_pop_up.html#a879c9fa857c162edfab75ecf1558c944" target="_top" xlink:title="errorsAndExceptions.Error\lPopUp.display">
<polygon fill="white" stroke="black" points="662,-166 662,-196 804,-196 804,-166 662,-166"/>
<text text-anchor="start" x="670" y="-184" font-family="Helvetica,sans-Serif" font-size="10.00">errorsAndExceptions.Error</text>
<text text-anchor="middle" x="733" y="-173" font-family="Helvetica,sans-Serif" font-size="10.00">PopUp.display</text>
</a>
</g>
</g>
<!-- Node4&#45;&gt;Node6 -->
<g id="edge11" class="edge"><title>Node4&#45;&gt;Node6</title>
<path fill="none" stroke="midnightblue" d="M394.149,-128.042C411.271,-131.085 429.214,-134.206 446,-137 515.421,-148.555 594.508,-160.64 651.894,-169.214"/>
<polygon fill="midnightblue" stroke="midnightblue" points="651.582,-172.706 661.989,-170.72 652.615,-165.783 651.582,-172.706"/>
</g>
<!-- Node9 -->
<g id="node9" class="node"><title>Node9</title>
<g id="a_node9"><a xlink:href="../../d1/d3b/classengine_1_1conditions_1_1_condition.html#a13aea023be9fc9c78c0fcf66b908054f" target="_top" xlink:title="engine.conditions.Condition.set\lIdentifier">
<polygon fill="white" stroke="black" points="452.5,-98 452.5,-128 619.5,-128 619.5,-98 452.5,-98"/>
<text text-anchor="start" x="460.5" y="-116" font-family="Helvetica,sans-Serif" font-size="10.00">engine.conditions.Condition.set</text>
<text text-anchor="middle" x="536" y="-105" font-family="Helvetica,sans-Serif" font-size="10.00">Identifier</text>
</a>
</g>
</g>
<!-- Node4&#45;&gt;Node9 -->
<g id="edge8" class="edge"><title>Node4&#45;&gt;Node9</title>
<path fill="none" stroke="midnightblue" d="M406.249,-113C418.109,-113 430.236,-113 442.075,-113"/>
<polygon fill="midnightblue" stroke="midnightblue" points="442.392,-116.5 452.392,-113 442.392,-109.5 442.392,-116.5"/>
</g>
<!-- Node10 -->
<g id="node10" class="node"><title>Node10</title>
<g id="a_node10"><a xlink:href="../../d1/d3b/classengine_1_1conditions_1_1_condition.html#a032794f008153a8a356234754ec662e4" target="_top" xlink:title="engine.conditions.Condition.set\lInputMap">
<polygon fill="white" stroke="black" points="452.5,-49 452.5,-79 619.5,-79 619.5,-49 452.5,-49"/>
<text text-anchor="start" x="460.5" y="-67" font-family="Helvetica,sans-Serif" font-size="10.00">engine.conditions.Condition.set</text>
<text text-anchor="middle" x="536" y="-56" font-family="Helvetica,sans-Serif" font-size="10.00">InputMap</text>
</a>
</g>
</g>
<!-- Node4&#45;&gt;Node10 -->
<g id="edge9" class="edge"><title>Node4&#45;&gt;Node10</title>
<path fill="none" stroke="midnightblue" d="M380.423,-97.9654C404.611,-92.6506 431.994,-86.6335 456.923,-81.156"/>
<polygon fill="midnightblue" stroke="midnightblue" points="457.691,-84.5708 466.707,-79.0062 456.188,-77.7339 457.691,-84.5708"/>
</g>
<!-- Node11 -->
<g id="node11" class="node"><title>Node11</title>
<g id="a_node11"><a xlink:href="../../db/d2a/classauthoring_1_1model_1_1collections_1_1_conditions_collection.html#af4aa1e8459d542b7f0e78ffe3b004d77" target="_top" xlink:title="authoring.model.collections.\lConditionsCollection.add">
<polygon fill="white" stroke="black" points="460,-0 460,-30 612,-30 612,-0 460,-0"/>
<text text-anchor="start" x="468" y="-18" font-family="Helvetica,sans-Serif" font-size="10.00">authoring.model.collections.</text>
<text text-anchor="middle" x="536" y="-7" font-family="Helvetica,sans-Serif" font-size="10.00">ConditionsCollection.add</text>
</a>
</g>
</g>
<!-- Node4&#45;&gt;Node11 -->
<g id="edge10" class="edge"><title>Node4&#45;&gt;Node11</title>
<path fill="none" stroke="midnightblue" d="M391.093,-97.9677C397.749,-95.19 404.158,-91.8991 410,-88 432.18,-73.1962 424,-55.0696 446,-40 448.936,-37.9891 452.031,-36.139 455.235,-34.4369"/>
<polygon fill="midnightblue" stroke="midnightblue" points="456.988,-37.4787 464.514,-30.0214 453.98,-31.1578 456.988,-37.4787"/>
</g>
<!-- Node5&#45;&gt;Node6 -->
<g id="edge5" class="edge"><title>Node5&#45;&gt;Node6</title>
<path fill="none" stroke="midnightblue" d="M626.225,-194.561C634.709,-193.473 643.278,-192.375 651.671,-191.299"/>
<polygon fill="midnightblue" stroke="midnightblue" points="652.331,-194.743 661.804,-189.999 651.441,-187.8 652.331,-194.743"/>
</g>
<!-- Node7 -->
<g id="node7" class="node"><title>Node7</title>
<g id="a_node7"><a xlink:href="../../de/d50/classerrors_and_exceptions_1_1_error_pop_up.html#adecc4a2ab81e607673649e10e6d7da52" target="_top" xlink:title="errorsAndExceptions.Error\lPopUp.createButton">
<polygon fill="white" stroke="black" points="840,-191 840,-221 982,-221 982,-191 840,-191"/>
<text text-anchor="start" x="848" y="-209" font-family="Helvetica,sans-Serif" font-size="10.00">errorsAndExceptions.Error</text>
<text text-anchor="middle" x="911" y="-198" font-family="Helvetica,sans-Serif" font-size="10.00">PopUp.createButton</text>
</a>
</g>
</g>
<!-- Node6&#45;&gt;Node7 -->
<g id="edge6" class="edge"><title>Node6&#45;&gt;Node7</title>
<path fill="none" stroke="midnightblue" d="M804.066,-190.952C812.54,-192.156 821.247,-193.393 829.852,-194.615"/>
<polygon fill="midnightblue" stroke="midnightblue" points="829.495,-198.1 839.888,-196.041 830.48,-191.169 829.495,-198.1"/>
</g>
<!-- Node8 -->
<g id="node8" class="node"><title>Node8</title>
<g id="a_node8"><a xlink:href="../../de/d50/classerrors_and_exceptions_1_1_error_pop_up.html#a98549e423869b27d7ee3c87270786f60" target="_top" xlink:title="errorsAndExceptions.Error\lPopUp.chooseStageWidth">
<polygon fill="white" stroke="black" points="840,-142 840,-172 982,-172 982,-142 840,-142"/>
<text text-anchor="start" x="848" y="-160" font-family="Helvetica,sans-Serif" font-size="10.00">errorsAndExceptions.Error</text>
<text text-anchor="middle" x="911" y="-149" font-family="Helvetica,sans-Serif" font-size="10.00">PopUp.chooseStageWidth</text>
</a>
</g>
</g>
<!-- Node6&#45;&gt;Node8 -->
<g id="edge7" class="edge"><title>Node6&#45;&gt;Node8</title>
<path fill="none" stroke="midnightblue" d="M804.066,-171.446C812.54,-170.29 821.247,-169.103 829.852,-167.929"/>
<polygon fill="midnightblue" stroke="midnightblue" points="830.453,-171.38 839.888,-166.561 829.507,-164.444 830.453,-171.38"/>
</g>
</g>
</svg>
        <g id="navigator" transform="translate(0 0)" fill="#404254">
                <rect fill="#f2f5e9" fill-opacity="0.5" stroke="#606060" stroke-width=".5" x="0" y="0" width="60" height="60"/>
                <use id="zoomplus" xlink:href="#zoomPlus" x="17" y="9" onmousedown="handleZoom(evt,'in')"/>
                <use id="zoomminus" xlink:href="#zoomMin" x="42" y="9" onmousedown="handleZoom(evt,'out')"/>
                <use id="reset" xlink:href="#resetDef" x="30" y="36" onmousedown="handleReset()"/>
                <g id="arrowUp" xlink:href="#dirArrow" transform="translate(30 24)" onmousedown="handlePan(0,-1)">
                  <use xlink:href="#rim" fill="#404040">
                        <set attributeName="fill" to="#808080" begin="arrowUp.mouseover" end="arrowUp.mouseout"/>
                  </use>
                  <path fill="none" stroke="white" stroke-width="1.5" d="M0,-3.0v7 M-2.5,-0.5L0,-3.0L2.5,-0.5"/>
                </g>
                <g id="arrowRight" xlink:href="#dirArrow" transform="rotate(90) translate(36 -43)" onmousedown="handlePan(1,0)">
                  <use xlink:href="#rim" fill="#404040">
                        <set attributeName="fill" to="#808080" begin="arrowRight.mouseover" end="arrowRight.mouseout"/>
                  </use>
                  <path fill="none" stroke="white" stroke-width="1.5" d="M0,-3.0v7 M-2.5,-0.5L0,-3.0L2.5,-0.5"/>
                </g>
                <g id="arrowDown" xlink:href="#dirArrow" transform="rotate(180) translate(-30 -48)" onmousedown="handlePan(0,1)">
                  <use xlink:href="#rim" fill="#404040">
                        <set attributeName="fill" to="#808080" begin="arrowDown.mouseover" end="arrowDown.mouseout"/>
                  </use>
                  <path fill="none" stroke="white" stroke-width="1.5" d="M0,-3.0v7 M-2.5,-0.5L0,-3.0L2.5,-0.5"/>
                </g>
                <g id="arrowLeft" xlink:href="#dirArrow" transform="rotate(270) translate(-36 17)" onmousedown="handlePan(-1,0)">
                  <use xlink:href="#rim" fill="#404040">
                        <set attributeName="fill" to="#808080" begin="arrowLeft.mouseover" end="arrowLeft.mouseout"/>
                  </use>
                  <path fill="none" stroke="white" stroke-width="1.5" d="M0,-3.0v7 M-2.5,-0.5L0,-3.0L2.5,-0.5"/>
                </g>
        </g>
        <svg viewBox="0 0 15 15" width="100%" height="30px" preserveAspectRatio="xMaxYMin meet">
         <g id="arrow_out" transform="scale(0.3 0.3)">
          <a xlink:href="classauthoring_1_1eventhandlers_1_1_add_condition_handler_a7215c52c01d70a711bdf49d7c4b37d70_cgraph_org.svg" target="_base">
           <rect id="button" ry="5" rx="5" y="6" x="6" height="38" width="38"
                fill="#f2f5e9" fill-opacity="0.5" stroke="#606060" stroke-width="1.0"/>
           <path id="arrow"
             d="M 11.500037,31.436501 C 11.940474,20.09759 22.043105,11.32322 32.158766,21.979434 L 37.068811,17.246167 C 37.068811,17.246167 37.088388,32 37.088388,32 L 22.160133,31.978069 C 22.160133,31.978069 26.997745,27.140456 26.997745,27.140456 C 18.528582,18.264221 13.291696,25.230495 11.500037,31.436501 z"
             style="fill:#404040;"/>
          </a>
         </g>
        </svg>
</svg>
