<?xml version="1.0" encoding="UTF-8" standalone="no"?>
<!DOCTYPE svg PUBLIC "-//W3C//DTD SVG 1.1//EN"
 "http://www.w3.org/Graphics/SVG/1.1/DTD/svg11.dtd">
<!-- Generated by graphviz version 2.36.0 (20140111.2315)
 -->
<!-- Title: authoring.eventhandlers.AddConditionHandler.createCondition Pages: 1 -->
<svg width="1244pt" height="268pt"
 viewBox="0.00 0.00 1244.00 268.04" xmlns="http://www.w3.org/2000/svg" xmlns:xlink="http://www.w3.org/1999/xlink">
<g id="graph0" class="graph" transform="scale(1 1) rotate(0) translate(4 264.041)">
<title>authoring.eventhandlers.AddConditionHandler.createCondition</title>
<polygon fill="white" stroke="none" points="-4,4 -4,-264.041 1240,-264.041 1240,4 -4,4"/>
<!-- Node1 -->
<g id="node1" class="node"><title>Node1</title>
<polygon fill="#bfbfbf" stroke="black" points="0,-151 0,-181 196,-181 196,-151 0,-151"/>
<text text-anchor="start" x="8" y="-169" font-family="Helvetica,sans-Serif" font-size="10.00">authoring.eventhandlers.</text>
<text text-anchor="middle" x="98" y="-158" font-family="Helvetica,sans-Serif" font-size="10.00">AddConditionHandler.createCondition</text>
</g>
<!-- Node2 -->
<g id="node2" class="node"><title>Node2</title>
<g id="a_node2"><a xlink:href="../../de/d50/classerrors_and_exceptions_1_1_error_pop_up.html#a879c9fa857c162edfab75ecf1558c944" target="_top" xlink:title="errorsAndExceptions.Error\lPopUp.display">
<polygon fill="white" stroke="black" points="916,-201 916,-231 1058,-231 1058,-201 916,-201"/>
<text text-anchor="start" x="924" y="-219" font-family="Helvetica,sans-Serif" font-size="10.00">errorsAndExceptions.Error</text>
<text text-anchor="middle" x="987" y="-208" font-family="Helvetica,sans-Serif" font-size="10.00">PopUp.display</text>
</a>
</g>
</g>
<!-- Node1&#45;&gt;Node2 -->
<g id="edge1" class="edge"><title>Node1&#45;&gt;Node2</title>
<path fill="none" stroke="midnightblue" d="M145.863,-181.002C215.019,-202.273 348.877,-240.154 466,-254 553.391,-264.331 576.135,-258.866 664,-254 746.693,-249.42 840.694,-237.553 905.69,-228.288"/>
<polygon fill="midnightblue" stroke="midnightblue" points="906.466,-231.712 915.866,-226.824 905.47,-224.783 906.466,-231.712"/>
</g>
<!-- Node5 -->
<g id="node5" class="node"><title>Node5</title>
<g id="a_node5"><a xlink:href="../../d0/d9b/classauthoring_1_1eventhandlers_1_1_add_condition_handler.html#a7215c52c01d70a711bdf49d7c4b37d70" target="_top" xlink:title="authoring.eventhandlers.\lAddConditionHandler.fillCondition\lParameters">
<polygon fill="white" stroke="black" points="243.5,-145.5 243.5,-186.5 418.5,-186.5 418.5,-145.5 243.5,-145.5"/>
<text text-anchor="start" x="251.5" y="-174.5" font-family="Helvetica,sans-Serif" font-size="10.00">authoring.eventhandlers.</text>
<text text-anchor="start" x="251.5" y="-163.5" font-family="Helvetica,sans-Serif" font-size="10.00">AddConditionHandler.fillCondition</text>
<text text-anchor="middle" x="331" y="-152.5" font-family="Helvetica,sans-Serif" font-size="10.00">Parameters</text>
</a>
</g>
</g>
<!-- Node1&#45;&gt;Node5 -->
<g id="edge4" class="edge"><title>Node1&#45;&gt;Node5</title>
<path fill="none" stroke="midnightblue" d="M196.295,-166C208.529,-166 221.043,-166 233.268,-166"/>
<polygon fill="midnightblue" stroke="midnightblue" points="233.457,-169.5 243.457,-166 233.457,-162.5 233.457,-169.5"/>
</g>
<!-- Node14 -->
<g id="node14" class="node"><title>Node14</title>
<g id="a_node14"><a xlink:href="../../d3/d92/classauthoring_1_1view_1_1wizards_1_1_condition_selection_wizard.html#a54d83516860e13492c0a68393f59c966" target="_top" xlink:title="authoring.view.wizards.Condition\lSelectionWizard.getSelectedCondition">
<polygon fill="white" stroke="black" points="232,-75 232,-105 430,-105 430,-75 232,-75"/>
<text text-anchor="start" x="240" y="-93" font-family="Helvetica,sans-Serif" font-size="10.00">authoring.view.wizards.Condition</text>
<text text-anchor="middle" x="331" y="-82" font-family="Helvetica,sans-Serif" font-size="10.00">SelectionWizard.getSelectedCondition</text>
</a>
</g>
</g>
<!-- Node1&#45;&gt;Node14 -->
<g id="edge15" class="edge"><title>Node1&#45;&gt;Node14</title>
<path fill="none" stroke="midnightblue" d="M144.638,-150.985C181.929,-138.716 234.784,-121.326 274.517,-108.254"/>
<polygon fill="midnightblue" stroke="midnightblue" points="275.657,-111.564 284.062,-105.114 273.469,-104.914 275.657,-111.564"/>
</g>
<!-- Node3 -->
<g id="node3" class="node"><title>Node3</title>
<g id="a_node3"><a xlink:href="../../de/d50/classerrors_and_exceptions_1_1_error_pop_up.html#adecc4a2ab81e607673649e10e6d7da52" target="_top" xlink:title="errorsAndExceptions.Error\lPopUp.createButton">
<polygon fill="white" stroke="black" points="1094,-226 1094,-256 1236,-256 1236,-226 1094,-226"/>
<text text-anchor="start" x="1102" y="-244" font-family="Helvetica,sans-Serif" font-size="10.00">errorsAndExceptions.Error</text>
<text text-anchor="middle" x="1165" y="-233" font-family="Helvetica,sans-Serif" font-size="10.00">PopUp.createButton</text>
</a>
</g>
</g>
<!-- Node2&#45;&gt;Node3 -->
<g id="edge2" class="edge"><title>Node2&#45;&gt;Node3</title>
<path fill="none" stroke="midnightblue" d="M1058.07,-225.952C1066.54,-227.156 1075.25,-228.393 1083.85,-229.615"/>
<polygon fill="midnightblue" stroke="midnightblue" points="1083.5,-233.1 1093.89,-231.041 1084.48,-226.169 1083.5,-233.1"/>
</g>
<!-- Node4 -->
<g id="node4" class="node"><title>Node4</title>
<g id="a_node4"><a xlink:href="../../de/d50/classerrors_and_exceptions_1_1_error_pop_up.html#a98549e423869b27d7ee3c87270786f60" target="_top" xlink:title="errorsAndExceptions.Error\lPopUp.chooseStageWidth">
<polygon fill="white" stroke="black" points="1094,-177 1094,-207 1236,-207 1236,-177 1094,-177"/>
<text text-anchor="start" x="1102" y="-195" font-family="Helvetica,sans-Serif" font-size="10.00">errorsAndExceptions.Error</text>
<text text-anchor="middle" x="1165" y="-184" font-family="Helvetica,sans-Serif" font-size="10.00">PopUp.chooseStageWidth</text>
</a>
</g>
</g>
<!-- Node2&#45;&gt;Node4 -->
<g id="edge3" class="edge"><title>Node2&#45;&gt;Node4</title>
<path fill="none" stroke="midnightblue" d="M1058.07,-206.446C1066.54,-205.29 1075.25,-204.103 1083.85,-202.929"/>
<polygon fill="midnightblue" stroke="midnightblue" points="1084.45,-206.38 1093.89,-201.561 1083.51,-199.444 1084.45,-206.38"/>
</g>
<!-- Node6 -->
<g id="node6" class="node"><title>Node6</title>
<g id="a_node6"><a xlink:href="../../d6/d32/classauthoring_1_1view_1_1wizards_1_1_wizard.html#a0d419b2943c99507fca42fd769c24b0e" target="_top" xlink:title="authoring.view.wizards.Wizard.getMap">
<polygon fill="white" stroke="black" points="466.5,-225.5 466.5,-244.5 663.5,-244.5 663.5,-225.5 466.5,-225.5"/>
<text text-anchor="middle" x="565" y="-232.5" font-family="Helvetica,sans-Serif" font-size="10.00">authoring.view.wizards.Wizard.getMap</text>
</a>
</g>
</g>
<!-- Node5&#45;&gt;Node6 -->
<g id="edge5" class="edge"><title>Node5&#45;&gt;Node6</title>
<path fill="none" stroke="midnightblue" d="M382.635,-186.545C407.469,-196.097 437.996,-207.07 466,-215 476.919,-218.092 488.651,-220.909 500.068,-223.389"/>
<polygon fill="midnightblue" stroke="midnightblue" points="499.484,-226.843 509.991,-225.481 500.928,-219.994 499.484,-226.843"/>
</g>
<!-- Node7 -->
<g id="node7" class="node"><title>Node7</title>
<g id="a_node7"><a xlink:href="../../d3/d92/classauthoring_1_1view_1_1wizards_1_1_condition_selection_wizard.html#a55878f6e0abaa960b2fa52130dde8a6f" target="_top" xlink:title="authoring.view.wizards.Condition\lSelectionWizard.disableSelection">
<polygon fill="white" stroke="black" points="478.5,-176 478.5,-206 651.5,-206 651.5,-176 478.5,-176"/>
<text text-anchor="start" x="486.5" y="-194" font-family="Helvetica,sans-Serif" font-size="10.00">authoring.view.wizards.Condition</text>
<text text-anchor="middle" x="565" y="-183" font-family="Helvetica,sans-Serif" font-size="10.00">SelectionWizard.disableSelection</text>
</a>
</g>
</g>
<!-- Node5&#45;&gt;Node7 -->
<g id="edge6" class="edge"><title>Node5&#45;&gt;Node7</title>
<path fill="none" stroke="midnightblue" d="M418.718,-175.345C434.812,-177.079 451.711,-178.9 468.061,-180.662"/>
<polygon fill="midnightblue" stroke="midnightblue" points="467.841,-184.158 478.158,-181.75 468.591,-177.198 467.841,-184.158"/>
</g>
<!-- Node8 -->
<g id="node8" class="node"><title>Node8</title>
<g id="a_node8"><a xlink:href="../../d3/d92/classauthoring_1_1view_1_1wizards_1_1_condition_selection_wizard.html#a762ba9a1a888f879f35e3342742f31e8" target="_top" xlink:title="authoring.view.wizards.Condition\lSelectionWizard.enableFinalize">
<polygon fill="white" stroke="black" points="479.5,-127 479.5,-157 650.5,-157 650.5,-127 479.5,-127"/>
<text text-anchor="start" x="487.5" y="-145" font-family="Helvetica,sans-Serif" font-size="10.00">authoring.view.wizards.Condition</text>
<text text-anchor="middle" x="565" y="-134" font-family="Helvetica,sans-Serif" font-size="10.00">SelectionWizard.enableFinalize</text>
</a>
</g>
</g>
<!-- Node5&#45;&gt;Node8 -->
<g id="edge7" class="edge"><title>Node5&#45;&gt;Node8</title>
<path fill="none" stroke="midnightblue" d="M418.718,-157.029C435.132,-155.331 452.383,-153.547 469.035,-151.824"/>
<polygon fill="midnightblue" stroke="midnightblue" points="469.726,-155.271 479.313,-150.761 469.006,-148.308 469.726,-155.271"/>
</g>
<!-- Node9 -->
<g id="node9" class="node"><title>Node9</title>
<g id="a_node9"><a xlink:href="../../d0/d9b/classauthoring_1_1eventhandlers_1_1_add_condition_handler.html#a1dbd177bba812a645c78db0a93e6ee71" target="_top" xlink:title="authoring.eventhandlers.\lAddConditionHandler.finishCondition">
<polygon fill="white" stroke="black" points="470,-78 470,-108 660,-108 660,-78 470,-78"/>
<text text-anchor="start" x="478" y="-96" font-family="Helvetica,sans-Serif" font-size="10.00">authoring.eventhandlers.</text>
<text text-anchor="middle" x="565" y="-85" font-family="Helvetica,sans-Serif" font-size="10.00">AddConditionHandler.finishCondition</text>
</a>
</g>
</g>
<!-- Node5&#45;&gt;Node9 -->
<g id="edge8" class="edge"><title>Node5&#45;&gt;Node9</title>
<path fill="none" stroke="midnightblue" d="M384.05,-145.448C408.68,-136.116 438.629,-125.328 466,-117 473.305,-114.777 480.965,-112.615 488.645,-110.558"/>
<polygon fill="midnightblue" stroke="midnightblue" points="489.575,-113.933 498.361,-108.012 487.8,-107.162 489.575,-113.933"/>
</g>
<!-- Node9&#45;&gt;Node2 -->
<g id="edge14" class="edge"><title>Node9&#45;&gt;Node2</title>
<path fill="none" stroke="midnightblue" d="M650.345,-108.003C655.212,-110.56 659.818,-113.536 664,-117 693.717,-141.611 668.297,-174.006 700,-196 759.659,-237.388 844.195,-238.101 905.884,-231.057"/>
<polygon fill="midnightblue" stroke="midnightblue" points="906.469,-234.511 915.966,-229.814 905.613,-227.564 906.469,-234.511"/>
</g>
<!-- Node10 -->
<g id="node10" class="node"><title>Node10</title>
<g id="a_node10"><a xlink:href="../../d0/d9b/classauthoring_1_1eventhandlers_1_1_add_condition_handler.html#ad09caf055d0f6cc1e01c4029caeefb5c" target="_top" xlink:title="authoring.eventhandlers.\lAddConditionHandler.convertInput\lParameters">
<polygon fill="white" stroke="black" points="700,-146.5 700,-187.5 880,-187.5 880,-146.5 700,-146.5"/>
<text text-anchor="start" x="708" y="-175.5" font-family="Helvetica,sans-Serif" font-size="10.00">authoring.eventhandlers.</text>
<text text-anchor="start" x="708" y="-164.5" font-family="Helvetica,sans-Serif" font-size="10.00">AddConditionHandler.convertInput</text>
<text text-anchor="middle" x="790" y="-153.5" font-family="Helvetica,sans-Serif" font-size="10.00">Parameters</text>
</a>
</g>
</g>
<!-- Node9&#45;&gt;Node10 -->
<g id="edge9" class="edge"><title>Node9&#45;&gt;Node10</title>
<path fill="none" stroke="midnightblue" d="M637.095,-108.023C646.267,-110.654 655.438,-113.643 664,-117 681.041,-123.681 683.258,-129.602 700,-137 704.428,-138.957 709.025,-140.863 713.694,-142.704"/>
<polygon fill="midnightblue" stroke="midnightblue" points="712.754,-146.092 723.345,-146.388 715.25,-139.552 712.754,-146.092"/>
</g>
<!-- Node11 -->
<g id="node11" class="node"><title>Node11</title>
<g id="a_node11"><a xlink:href="../../d1/d3b/classengine_1_1conditions_1_1_condition.html#a13aea023be9fc9c78c0fcf66b908054f" target="_top" xlink:title="engine.conditions.Condition.set\lIdentifier">
<polygon fill="white" stroke="black" points="706.5,-98 706.5,-128 873.5,-128 873.5,-98 706.5,-98"/>
<text text-anchor="start" x="714.5" y="-116" font-family="Helvetica,sans-Serif" font-size="10.00">engine.conditions.Condition.set</text>
<text text-anchor="middle" x="790" y="-105" font-family="Helvetica,sans-Serif" font-size="10.00">Identifier</text>
</a>
</g>
</g>
<!-- Node9&#45;&gt;Node11 -->
<g id="edge11" class="edge"><title>Node9&#45;&gt;Node11</title>
<path fill="none" stroke="midnightblue" d="M660.249,-101.453C672.109,-102.517 684.236,-103.604 696.075,-104.666"/>
<polygon fill="midnightblue" stroke="midnightblue" points="696.119,-108.184 706.392,-105.591 696.745,-101.212 696.119,-108.184"/>
</g>
<!-- Node12 -->
<g id="node12" class="node"><title>Node12</title>
<g id="a_node12"><a xlink:href="../../d1/d3b/classengine_1_1conditions_1_1_condition.html#a032794f008153a8a356234754ec662e4" target="_top" xlink:title="engine.conditions.Condition.set\lInputMap">
<polygon fill="white" stroke="black" points="706.5,-49 706.5,-79 873.5,-79 873.5,-49 706.5,-49"/>
<text text-anchor="start" x="714.5" y="-67" font-family="Helvetica,sans-Serif" font-size="10.00">engine.conditions.Condition.set</text>
<text text-anchor="middle" x="790" y="-56" font-family="Helvetica,sans-Serif" font-size="10.00">InputMap</text>
</a>
</g>
</g>
<!-- Node9&#45;&gt;Node12 -->
<g id="edge12" class="edge"><title>Node9&#45;&gt;Node12</title>
<path fill="none" stroke="midnightblue" d="M660.249,-80.7434C672.229,-79.1855 684.481,-77.5922 696.434,-76.0377"/>
<polygon fill="midnightblue" stroke="midnightblue" points="696.927,-79.5032 706.392,-74.7428 696.024,-72.5617 696.927,-79.5032"/>
</g>
<!-- Node13 -->
<g id="node13" class="node"><title>Node13</title>
<g id="a_node13"><a xlink:href="../../db/d2a/classauthoring_1_1model_1_1collections_1_1_conditions_collection.html#af4aa1e8459d542b7f0e78ffe3b004d77" target="_top" xlink:title="authoring.model.collections.\lConditionsCollection.add">
<polygon fill="white" stroke="black" points="714,-0 714,-30 866,-30 866,-0 714,-0"/>
<text text-anchor="start" x="722" y="-18" font-family="Helvetica,sans-Serif" font-size="10.00">authoring.model.collections.</text>
<text text-anchor="middle" x="790" y="-7" font-family="Helvetica,sans-Serif" font-size="10.00">ConditionsCollection.add</text>
</a>
</g>
</g>
<!-- Node9&#45;&gt;Node13 -->
<g id="edge13" class="edge"><title>Node9&#45;&gt;Node13</title>
<path fill="none" stroke="midnightblue" d="M639.511,-77.9488C647.966,-75.1421 656.306,-71.85 664,-68 682.374,-58.8062 681.689,-48.3187 700,-39 703.771,-37.081 707.712,-35.3025 711.748,-33.6557"/>
<polygon fill="midnightblue" stroke="midnightblue" points="713.183,-36.8552 721.302,-30.0487 710.71,-30.3063 713.183,-36.8552"/>
</g>
<!-- Node10&#45;&gt;Node2 -->
<g id="edge10" class="edge"><title>Node10&#45;&gt;Node2</title>
<path fill="none" stroke="midnightblue" d="M872.85,-187.567C887.276,-191.192 902.17,-194.935 916.227,-198.467"/>
<polygon fill="midnightblue" stroke="midnightblue" points="915.744,-201.955 926.295,-200.997 917.449,-195.166 915.744,-201.955"/>
</g>
<!-- Node15 -->
<g id="node15" class="node"><title>Node15</title>
<g id="a_node15"><a xlink:href="../../d2/d2f/classauthoring_1_1view_1_1wizards_1_1_condition_choices_v_box.html#a8153f64444a853bc423995a8f18c4c6f" target="_top" xlink:title="authoring.view.wizards.Condition\lChoicesVBox.getSelected">
<polygon fill="white" stroke="black" points="479.5,-29 479.5,-59 650.5,-59 650.5,-29 479.5,-29"/>
<text text-anchor="start" x="487.5" y="-47" font-family="Helvetica,sans-Serif" font-size="10.00">authoring.view.wizards.Condition</text>
<text text-anchor="middle" x="565" y="-36" font-family="Helvetica,sans-Serif" font-size="10.00">ChoicesVBox.getSelected</text>
</a>
</g>
</g>
<!-- Node14&#45;&gt;Node15 -->
<g id="edge16" class="edge"><title>Node14&#45;&gt;Node15</title>
<path fill="none" stroke="midnightblue" d="M407.965,-74.9379C430.413,-70.4871 455.14,-65.5843 478.164,-61.0192"/>
<polygon fill="midnightblue" stroke="midnightblue" points="479.132,-64.3955 488.26,-59.0174 477.77,-57.5292 479.132,-64.3955"/>
</g>
</g>
</svg>
