<?xml version="1.0" encoding="UTF-8" standalone="no"?>
<!DOCTYPE svg PUBLIC "-//W3C//DTD SVG 1.1//EN"
 "http://www.w3.org/Graphics/SVG/1.1/DTD/svg11.dtd">
<!-- Generated by graphviz version 2.36.0 (20140111.2315)
 -->
<!-- Title: authoring.model.collections.ConditionsCollection.getIdentifierList Pages: 1 -->
<svg width="646pt" height="87pt"
 viewBox="0.00 0.00 646.00 87.00" xmlns="http://www.w3.org/2000/svg" xmlns:xlink="http://www.w3.org/1999/xlink">
<g id="graph0" class="graph" transform="scale(1 1) rotate(0) translate(4 83)">
<title>authoring.model.collections.ConditionsCollection.getIdentifierList</title>
<polygon fill="white" stroke="none" points="-4,4 -4,-83 642,-83 642,4 -4,4"/>
<!-- Node1 -->
<g id="node1" class="node"><title>Node1</title>
<polygon fill="#bfbfbf" stroke="black" points="0,-24 0,-54 190,-54 190,-24 0,-24"/>
<text text-anchor="start" x="8" y="-42" font-family="Helvetica,sans-Serif" font-size="10.00">authoring.model.collections.</text>
<text text-anchor="middle" x="95" y="-31" font-family="Helvetica,sans-Serif" font-size="10.00">ConditionsCollection.getIdentifierList</text>
</g>
<!-- Node2 -->
<g id="node2" class="node"><title>Node2</title>
<g id="a_node2"><a xlink:href="../../d7/d00/classengine_1_1tests_1_1_main_engine_tests.html#ad06079aee97fd7ffd4f2b14a8f01b808" target="_top" xlink:title="engine.tests.MainEngineTests.create\lGameObject">
<polygon fill="white" stroke="black" points="226.5,-49 226.5,-79 417.5,-79 417.5,-49 226.5,-49"/>
<text text-anchor="start" x="234.5" y="-67" font-family="Helvetica,sans-Serif" font-size="10.00">engine.tests.MainEngineTests.create</text>
<text text-anchor="middle" x="322" y="-56" font-family="Helvetica,sans-Serif" font-size="10.00">GameObject</text>
</a>
</g>
</g>
<!-- Node1&#45;&gt;Node2 -->
<g id="edge1" class="edge"><title>Node1&#45;&gt;Node2</title>
<path fill="none" stroke="midnightblue" d="M200.23,-50.5812C208.882,-51.5424 217.599,-52.511 226.176,-53.464"/>
<polygon fill="midnightblue" stroke="midnightblue" points="200.442,-47.0832 190.117,-49.4574 199.669,-54.0404 200.442,-47.0832"/>
</g>
<!-- Node4 -->
<g id="node4" class="node"><title>Node4</title>
<g id="a_node4"><a xlink:href="../../dc/d21/classgames_1_1_mario_game_test.html#aab9eed35cd4d8ae1d108ae914b6a73ff" target="_top" xlink:title="games.MarioGameTest.create\lGameObject">
<polygon fill="white" stroke="black" points="241.5,-0 241.5,-30 402.5,-30 402.5,-0 241.5,-0"/>
<text text-anchor="start" x="249.5" y="-18" font-family="Helvetica,sans-Serif" font-size="10.00">games.MarioGameTest.create</text>
<text text-anchor="middle" x="322" y="-7" font-family="Helvetica,sans-Serif" font-size="10.00">GameObject</text>
</a>
</g>
</g>
<!-- Node1&#45;&gt;Node4 -->
<g id="edge3" class="edge"><title>Node1&#45;&gt;Node4</title>
<path fill="none" stroke="midnightblue" d="M200.119,-27.8939C213.914,-26.4225 227.877,-24.9331 241.174,-23.5148"/>
<polygon fill="midnightblue" stroke="midnightblue" points="199.689,-24.4199 190.117,-28.9609 200.431,-31.3804 199.689,-24.4199"/>
</g>
<!-- Node3 -->
<g id="node3" class="node"><title>Node3</title>
<g id="a_node3"><a xlink:href="../../d7/d00/classengine_1_1tests_1_1_main_engine_tests.html#ad1e78dcd3453ebdeb09141cba734c133" target="_top" xlink:title="engine.tests.MainEngineTests.start">
<polygon fill="white" stroke="black" points="454.5,-54.5 454.5,-73.5 637.5,-73.5 637.5,-54.5 454.5,-54.5"/>
<text text-anchor="middle" x="546" y="-61.5" font-family="Helvetica,sans-Serif" font-size="10.00">engine.tests.MainEngineTests.start</text>
</a>
</g>
</g>
<!-- Node2&#45;&gt;Node3 -->
<g id="edge2" class="edge"><title>Node2&#45;&gt;Node3</title>
<path fill="none" stroke="midnightblue" d="M427.796,-64C436.688,-64 445.633,-64 454.403,-64"/>
<polygon fill="midnightblue" stroke="midnightblue" points="427.792,-60.5001 417.792,-64 427.792,-67.5001 427.792,-60.5001"/>
</g>
<!-- Node5 -->
<g id="node5" class="node"><title>Node5</title>
<g id="a_node5"><a xlink:href="../../dc/d21/classgames_1_1_mario_game_test.html#a8b7c287ffdfcacefeb373e7430a608c8" target="_top" xlink:title="games.MarioGameTest.start">
<polygon fill="white" stroke="black" points="470,-5.5 470,-24.5 622,-24.5 622,-5.5 470,-5.5"/>
<text text-anchor="middle" x="546" y="-12.5" font-family="Helvetica,sans-Serif" font-size="10.00">games.MarioGameTest.start</text>
</a>
</g>
</g>
<!-- Node4&#45;&gt;Node5 -->
<g id="edge4" class="edge"><title>Node4&#45;&gt;Node5</title>
<path fill="none" stroke="midnightblue" d="M412.638,-15C431.585,-15 451.394,-15 469.744,-15"/>
<polygon fill="midnightblue" stroke="midnightblue" points="412.52,-11.5001 402.52,-15 412.52,-18.5001 412.52,-11.5001"/>
</g>
</g>
</svg>
