<?xml version="1.0" encoding="UTF-8" standalone="no"?>
<!DOCTYPE svg PUBLIC "-//W3C//DTD SVG 1.1//EN"
 "http://www.w3.org/Graphics/SVG/1.1/DTD/svg11.dtd">
<!-- Generated by graphviz version 2.36.0 (20140111.2315)
 -->
<!-- Title: engine.physics.Vector.delta Pages: 1 -->
<svg width="542pt" height="109pt"
 viewBox="0.00 0.00 542.00 109.00" xmlns="http://www.w3.org/2000/svg" xmlns:xlink="http://www.w3.org/1999/xlink">
<g id="graph0" class="graph" transform="scale(1 1) rotate(0) translate(4 105)">
<title>engine.physics.Vector.delta</title>
<polygon fill="white" stroke="none" points="-4,4 -4,-105 538,-105 538,4 -4,4"/>
<!-- Node1 -->
<g id="node1" class="node"><title>Node1</title>
<polygon fill="#bfbfbf" stroke="black" points="0.5,-38.5 0.5,-57.5 147.5,-57.5 147.5,-38.5 0.5,-38.5"/>
<text text-anchor="middle" x="74" y="-45.5" font-family="Helvetica,sans-Serif" font-size="10.00">engine.physics.Vector.delta</text>
</g>
<!-- Node2 -->
<g id="node2" class="node"><title>Node2</title>
<g id="a_node2"><a xlink:href="../../d5/d1f/classengine_1_1physics_1_1_vector.html#acb86cc2e6c015757803d38f16266a085" target="_top" xlink:title="engine.physics.Vector.delta">
<polygon fill="white" stroke="black" points="184.5,-76.5 184.5,-95.5 331.5,-95.5 331.5,-76.5 184.5,-76.5"/>
<text text-anchor="middle" x="258" y="-83.5" font-family="Helvetica,sans-Serif" font-size="10.00">engine.physics.Vector.delta</text>
</a>
</g>
</g>
<!-- Node1&#45;&gt;Node2 -->
<g id="edge1" class="edge"><title>Node1&#45;&gt;Node2</title>
<path fill="none" stroke="midnightblue" d="M120.926,-57.589C145.376,-62.6939 175.633,-69.0113 201.403,-74.3918"/>
<polygon fill="midnightblue" stroke="midnightblue" points="200.9,-77.8622 211.404,-76.4799 202.33,-71.0099 200.9,-77.8622"/>
</g>
<!-- Node4 -->
<g id="node4" class="node"><title>Node4</title>
<g id="a_node4"><a xlink:href="../../d5/d1f/classengine_1_1physics_1_1_vector.html#a1bc7c00d836a738d45eb584223973dec" target="_top" xlink:title="engine.physics.Vector.getX">
<polygon fill="white" stroke="black" points="185.5,-38.5 185.5,-57.5 330.5,-57.5 330.5,-38.5 185.5,-38.5"/>
<text text-anchor="middle" x="258" y="-45.5" font-family="Helvetica,sans-Serif" font-size="10.00">engine.physics.Vector.getX</text>
</a>
</g>
</g>
<!-- Node1&#45;&gt;Node4 -->
<g id="edge3" class="edge"><title>Node1&#45;&gt;Node4</title>
<path fill="none" stroke="midnightblue" d="M147.716,-48C156.708,-48 165.949,-48 175.067,-48"/>
<polygon fill="midnightblue" stroke="midnightblue" points="175.29,-51.5001 185.29,-48 175.29,-44.5001 175.29,-51.5001"/>
</g>
<!-- Node5 -->
<g id="node5" class="node"><title>Node5</title>
<g id="a_node5"><a xlink:href="../../d5/d1f/classengine_1_1physics_1_1_vector.html#a6f71261863fa29e27f1b3f1051529321" target="_top" xlink:title="engine.physics.Vector.getY">
<polygon fill="white" stroke="black" points="186,-0.5 186,-19.5 330,-19.5 330,-0.5 186,-0.5"/>
<text text-anchor="middle" x="258" y="-7.5" font-family="Helvetica,sans-Serif" font-size="10.00">engine.physics.Vector.getY</text>
</a>
</g>
</g>
<!-- Node1&#45;&gt;Node5 -->
<g id="edge4" class="edge"><title>Node1&#45;&gt;Node5</title>
<path fill="none" stroke="midnightblue" d="M120.926,-38.411C145.376,-33.3061 175.633,-26.9887 201.403,-21.6082"/>
<polygon fill="midnightblue" stroke="midnightblue" points="202.33,-24.9901 211.404,-19.5201 200.9,-18.1378 202.33,-24.9901"/>
</g>
<!-- Node3 -->
<g id="node3" class="node"><title>Node3</title>
<g id="a_node3"><a xlink:href="../../d5/d1f/classengine_1_1physics_1_1_vector.html#a33c635f15f2f2e16f9b57542c6c3182f" target="_top" xlink:title="engine.physics.Vector.calculate\lMagnitude">
<polygon fill="white" stroke="black" points="368,-71 368,-101 534,-101 534,-71 368,-71"/>
<text text-anchor="start" x="376" y="-89" font-family="Helvetica,sans-Serif" font-size="10.00">engine.physics.Vector.calculate</text>
<text text-anchor="middle" x="451" y="-78" font-family="Helvetica,sans-Serif" font-size="10.00">Magnitude</text>
</a>
</g>
</g>
<!-- Node2&#45;&gt;Node3 -->
<g id="edge2" class="edge"><title>Node2&#45;&gt;Node3</title>
<path fill="none" stroke="midnightblue" d="M331.754,-86C340.24,-86 348.981,-86 357.687,-86"/>
<polygon fill="midnightblue" stroke="midnightblue" points="357.873,-89.5001 367.873,-86 357.873,-82.5001 357.873,-89.5001"/>
</g>
</g>
</svg>
