<?xml version="1.0" encoding="UTF-8" standalone="no"?>
<!DOCTYPE svg PUBLIC "-//W3C//DTD SVG 1.1//EN"
 "http://www.w3.org/Graphics/SVG/1.1/DTD/svg11.dtd">
<!-- Generated by graphviz version 2.36.0 (20140111.2315)
 -->
<!-- Title: engine.physics.Vector.getY Pages: 1 -->
<svg width="924pt" height="785pt"
 viewBox="0.00 0.00 924.00 785.00" xmlns="http://www.w3.org/2000/svg" xmlns:xlink="http://www.w3.org/1999/xlink">
<g id="graph0" class="graph" transform="scale(1 1) rotate(0) translate(4 781)">
<title>engine.physics.Vector.getY</title>
<polygon fill="white" stroke="none" points="-4,4 -4,-781 920,-781 920,4 -4,4"/>
<!-- Node1 -->
<g id="node1" class="node"><title>Node1</title>
<polygon fill="#bfbfbf" stroke="black" points="0,-532.5 0,-551.5 144,-551.5 144,-532.5 0,-532.5"/>
<text text-anchor="middle" x="72" y="-539.5" font-family="Helvetica,sans-Serif" font-size="10.00">engine.physics.Vector.getY</text>
</g>
<!-- Node2 -->
<g id="node2" class="node"><title>Node2</title>
<g id="a_node2"><a xlink:href="../../d9/d9d/classengine_1_1game_object_1_1components_1_1_physics_body.html#ad4ee3b6b1e51b25857bc78b314258ed3" target="_top" xlink:title="engine.gameObject.components.\lPhysicsBody.changeAcceleration">
<polygon fill="white" stroke="black" points="200,-703 200,-733 376,-733 376,-703 200,-703"/>
<text text-anchor="start" x="208" y="-721" font-family="Helvetica,sans-Serif" font-size="10.00">engine.gameObject.components.</text>
<text text-anchor="middle" x="288" y="-710" font-family="Helvetica,sans-Serif" font-size="10.00">PhysicsBody.changeAcceleration</text>
</a>
</g>
</g>
<!-- Node1&#45;&gt;Node2 -->
<g id="edge1" class="edge"><title>Node1&#45;&gt;Node2</title>
<path fill="none" stroke="midnightblue" d="M81.6321,-560.871C96.9128,-592.141 131.726,-654.558 180,-688 188.881,-694.152 198.997,-699.049 209.382,-702.944"/>
<polygon fill="midnightblue" stroke="midnightblue" points="84.657,-559.081 77.2075,-551.548 78.3329,-562.083 84.657,-559.081"/>
</g>
<!-- Node3 -->
<g id="node3" class="node"><title>Node3</title>
<g id="a_node3"><a xlink:href="../../d9/d9d/classengine_1_1game_object_1_1components_1_1_physics_body.html#a322c2d4e1205c1fc9bafabe04f394cb6" target="_top" xlink:title="engine.gameObject.components.\lPhysicsBody.updatePhysicalCharacteristics">
<polygon fill="white" stroke="black" points="440.5,-681 440.5,-711 661.5,-711 661.5,-681 440.5,-681"/>
<text text-anchor="start" x="448.5" y="-699" font-family="Helvetica,sans-Serif" font-size="10.00">engine.gameObject.components.</text>
<text text-anchor="middle" x="551" y="-688" font-family="Helvetica,sans-Serif" font-size="10.00">PhysicsBody.updatePhysicalCharacteristics</text>
</a>
</g>
</g>
<!-- Node1&#45;&gt;Node3 -->
<g id="edge30" class="edge"><title>Node1&#45;&gt;Node3</title>
<path fill="none" stroke="midnightblue" d="M84.2541,-560.104C101.393,-585.902 136.662,-632.495 180,-654 224.374,-676.02 348.214,-686.727 440.477,-691.775"/>
<polygon fill="midnightblue" stroke="midnightblue" points="87.144,-558.127 78.779,-551.625 81.2634,-561.924 87.144,-558.127"/>
</g>
<!-- Node5 -->
<g id="node5" class="node"><title>Node5</title>
<g id="a_node5"><a xlink:href="../../d9/d9d/classengine_1_1game_object_1_1components_1_1_physics_body.html#a378b35e4343b358058e6a0917f3366b4" target="_top" xlink:title="engine.gameObject.components.\lPhysicsBody.changeVelocity">
<polygon fill="white" stroke="black" points="200,-615 200,-645 376,-645 376,-615 200,-615"/>
<text text-anchor="start" x="208" y="-633" font-family="Helvetica,sans-Serif" font-size="10.00">engine.gameObject.components.</text>
<text text-anchor="middle" x="288" y="-622" font-family="Helvetica,sans-Serif" font-size="10.00">PhysicsBody.changeVelocity</text>
</a>
</g>
</g>
<!-- Node1&#45;&gt;Node5 -->
<g id="edge4" class="edge"><title>Node1&#45;&gt;Node5</title>
<path fill="none" stroke="midnightblue" d="M94.614,-557.389C115.54,-571.629 148.621,-592.436 180,-605 189.475,-608.793 199.663,-612.093 209.852,-614.94"/>
<polygon fill="midnightblue" stroke="midnightblue" points="96.3828,-554.357 86.1673,-551.547 92.4008,-560.114 96.3828,-554.357"/>
</g>
<!-- Node6 -->
<g id="node6" class="node"><title>Node6</title>
<g id="a_node6"><a xlink:href="../../d5/d1f/classengine_1_1physics_1_1_vector.html#a0617c8eea76c73c65d7b78b6bcd0d140" target="_top" xlink:title="engine.physics.Vector.delta">
<polygon fill="white" stroke="black" points="214.5,-576.5 214.5,-595.5 361.5,-595.5 361.5,-576.5 214.5,-576.5"/>
<text text-anchor="middle" x="288" y="-583.5" font-family="Helvetica,sans-Serif" font-size="10.00">engine.physics.Vector.delta</text>
</a>
</g>
</g>
<!-- Node1&#45;&gt;Node6 -->
<g id="edge6" class="edge"><title>Node1&#45;&gt;Node6</title>
<path fill="none" stroke="midnightblue" d="M123.96,-553.822C141.671,-557.826 161.683,-562.235 180,-566 197.493,-569.595 216.652,-573.262 233.862,-576.457"/>
<polygon fill="midnightblue" stroke="midnightblue" points="124.355,-550.322 113.828,-551.519 122.803,-557.148 124.355,-550.322"/>
</g>
<!-- Node7 -->
<g id="node7" class="node"><title>Node7</title>
<g id="a_node7"><a xlink:href="../../da/d1b/classengine_1_1collision_1_1objects_1_1_collision_composition.html#a7ec4687ad9367279088b965c0e009cd0" target="_top" xlink:title="engine.collision.objects.\lCollisionComposition.fixedCollision">
<polygon fill="white" stroke="black" points="461,-436 461,-466 641,-466 641,-436 461,-436"/>
<text text-anchor="start" x="469" y="-454" font-family="Helvetica,sans-Serif" font-size="10.00">engine.collision.objects.</text>
<text text-anchor="middle" x="551" y="-443" font-family="Helvetica,sans-Serif" font-size="10.00">CollisionComposition.fixedCollision</text>
</a>
</g>
</g>
<!-- Node1&#45;&gt;Node7 -->
<g id="edge7" class="edge"><title>Node1&#45;&gt;Node7</title>
<path fill="none" stroke="midnightblue" d="M90.4282,-525.235C110.291,-507.337 144.609,-479.944 180,-468 272.001,-436.951 384.198,-436.615 460.758,-441.564"/>
<polygon fill="midnightblue" stroke="midnightblue" points="87.806,-522.893 82.8397,-532.252 92.5583,-528.033 87.806,-522.893"/>
</g>
<!-- Node17 -->
<g id="node17" class="node"><title>Node17</title>
<g id="a_node17"><a xlink:href="../../d9/d9d/classengine_1_1game_object_1_1components_1_1_physics_body.html#a6df6a3a8e4dde3aea1de4127f93935aa" target="_top" xlink:title="engine.gameObject.components.\lPhysicsBody.handleCollision">
<polygon fill="white" stroke="black" points="200,-478 200,-508 376,-508 376,-478 200,-478"/>
<text text-anchor="start" x="208" y="-496" font-family="Helvetica,sans-Serif" font-size="10.00">engine.gameObject.components.</text>
<text text-anchor="middle" x="288" y="-485" font-family="Helvetica,sans-Serif" font-size="10.00">PhysicsBody.handleCollision</text>
</a>
</g>
</g>
<!-- Node1&#45;&gt;Node17 -->
<g id="edge17" class="edge"><title>Node1&#45;&gt;Node17</title>
<path fill="none" stroke="midnightblue" d="M123.317,-530.147C141.205,-525.958 161.494,-521.237 180,-517 192.805,-514.068 206.48,-510.973 219.627,-508.016"/>
<polygon fill="midnightblue" stroke="midnightblue" points="122.311,-526.787 113.374,-532.478 123.909,-533.603 122.311,-526.787"/>
</g>
<!-- Node18 -->
<g id="node18" class="node"><title>Node18</title>
<g id="a_node18"><a xlink:href="../../da/d8d/classauthoring_1_1view_1_1propertiesview_1_1_game_object_properties.html#a296e97b9faeabc086f698730de09a5c9" target="_top" xlink:title="authoring.view.propertiesview.\lGameObjectProperties.initializeProperties">
<polygon fill="white" stroke="black" points="180.5,-527 180.5,-557 395.5,-557 395.5,-527 180.5,-527"/>
<text text-anchor="start" x="188.5" y="-545" font-family="Helvetica,sans-Serif" font-size="10.00">authoring.view.propertiesview.</text>
<text text-anchor="middle" x="288" y="-534" font-family="Helvetica,sans-Serif" font-size="10.00">GameObjectProperties.initializeProperties</text>
</a>
</g>
</g>
<!-- Node1&#45;&gt;Node18 -->
<g id="edge18" class="edge"><title>Node1&#45;&gt;Node18</title>
<path fill="none" stroke="midnightblue" d="M154.418,-542C162.85,-542 171.508,-542 180.164,-542"/>
<polygon fill="midnightblue" stroke="midnightblue" points="154.259,-538.5 144.259,-542 154.259,-545.5 154.259,-538.5"/>
</g>
<!-- Node20 -->
<g id="node20" class="node"><title>Node20</title>
<g id="a_node20"><a xlink:href="../../da/d1b/classengine_1_1collision_1_1objects_1_1_collision_composition.html#a16ad6d1ec6082599cf72870f5cd3dd03" target="_top" xlink:title="engine.collision.objects.\lCollisionComposition.isOnXAxis">
<polygon fill="white" stroke="black" points="205.5,-388 205.5,-418 370.5,-418 370.5,-388 205.5,-388"/>
<text text-anchor="start" x="213.5" y="-406" font-family="Helvetica,sans-Serif" font-size="10.00">engine.collision.objects.</text>
<text text-anchor="middle" x="288" y="-395" font-family="Helvetica,sans-Serif" font-size="10.00">CollisionComposition.isOnXAxis</text>
</a>
</g>
</g>
<!-- Node1&#45;&gt;Node20 -->
<g id="edge20" class="edge"><title>Node1&#45;&gt;Node20</title>
<path fill="none" stroke="midnightblue" d="M86.0413,-524.309C104.425,-500.599 140.192,-458.754 180,-435 191.738,-427.996 205.126,-422.422 218.365,-418.023"/>
<polygon fill="midnightblue" stroke="midnightblue" points="83.1331,-522.351 79.8746,-532.433 88.7087,-526.584 83.1331,-522.351"/>
</g>
<!-- Node27 -->
<g id="node27" class="node"><title>Node27</title>
<g id="a_node27"><a xlink:href="../../d9/d9d/classengine_1_1game_object_1_1components_1_1_physics_body.html#a7c386f4896156b36cb73670842806b71" target="_top" xlink:title="engine.gameObject.components.\lPhysicsBody.reverseVelocity">
<polygon fill="white" stroke="black" points="200,-262 200,-292 376,-292 376,-262 200,-262"/>
<text text-anchor="start" x="208" y="-280" font-family="Helvetica,sans-Serif" font-size="10.00">engine.gameObject.components.</text>
<text text-anchor="middle" x="288" y="-269" font-family="Helvetica,sans-Serif" font-size="10.00">PhysicsBody.reverseVelocity</text>
</a>
</g>
</g>
<!-- Node1&#45;&gt;Node27 -->
<g id="edge28" class="edge"><title>Node1&#45;&gt;Node27</title>
<path fill="none" stroke="midnightblue" d="M83.3055,-523.203C101.018,-491.654 139.279,-426.724 180,-378 207.848,-344.678 245.895,-311.073 268.315,-292.255"/>
<polygon fill="midnightblue" stroke="midnightblue" points="80.0982,-521.769 78.2996,-532.21 86.2167,-525.169 80.0982,-521.769"/>
</g>
<!-- Node2&#45;&gt;Node3 -->
<g id="edge2" class="edge"><title>Node2&#45;&gt;Node3</title>
<path fill="none" stroke="midnightblue" d="M386.456,-709.785C403.937,-708.312 422.264,-706.767 440.067,-705.266"/>
<polygon fill="midnightblue" stroke="midnightblue" points="385.943,-706.316 376.272,-710.644 386.531,-713.291 385.943,-706.316"/>
</g>
<!-- Node4 -->
<g id="node4" class="node"><title>Node4</title>
<g id="a_node4"><a xlink:href="../../d0/d7f/classengine_1_1game_object_1_1_game_object.html#ac7465f9b7adb414a894231d97e4ae91c" target="_top" xlink:title="engine.gameObject.GameObject.update">
<polygon fill="white" stroke="black" points="706,-757.5 706,-776.5 916,-776.5 916,-757.5 706,-757.5"/>
<text text-anchor="middle" x="811" y="-764.5" font-family="Helvetica,sans-Serif" font-size="10.00">engine.gameObject.GameObject.update</text>
</a>
</g>
</g>
<!-- Node3&#45;&gt;Node4 -->
<g id="edge3" class="edge"><title>Node3&#45;&gt;Node4</title>
<path fill="none" stroke="midnightblue" d="M602.504,-714.566C632.328,-725.065 670.985,-737.876 706,-747 721.212,-750.964 737.864,-754.511 753.297,-757.477"/>
<polygon fill="midnightblue" stroke="midnightblue" points="603.341,-711.149 592.746,-711.102 600.999,-717.746 603.341,-711.149"/>
</g>
<!-- Node5&#45;&gt;Node3 -->
<g id="edge5" class="edge"><title>Node5&#45;&gt;Node3</title>
<path fill="none" stroke="midnightblue" d="M358.484,-647.571C399.549,-657.955 451.017,-670.97 490.253,-680.892"/>
<polygon fill="midnightblue" stroke="midnightblue" points="359.104,-644.117 348.552,-645.059 357.388,-650.904 359.104,-644.117"/>
</g>
<!-- Node8 -->
<g id="node8" class="node"><title>Node8</title>
<g id="a_node8"><a xlink:href="../../db/dbb/classengine_1_1actions_1_1_fixed_collision_type_action.html#a4335f03e3a33ba714562e4e187cf0ae2" target="_top" xlink:title="engine.actions.FixedCollision\lTypeAction.applyPhysics">
<polygon fill="white" stroke="black" points="735,-409 735,-439 887,-439 887,-409 735,-409"/>
<text text-anchor="start" x="743" y="-427" font-family="Helvetica,sans-Serif" font-size="10.00">engine.actions.FixedCollision</text>
<text text-anchor="middle" x="811" y="-416" font-family="Helvetica,sans-Serif" font-size="10.00">TypeAction.applyPhysics</text>
</a>
</g>
</g>
<!-- Node7&#45;&gt;Node8 -->
<g id="edge8" class="edge"><title>Node7&#45;&gt;Node8</title>
<path fill="none" stroke="midnightblue" d="M651.295,-440.609C679.099,-437.699 708.849,-434.586 734.99,-431.85"/>
<polygon fill="midnightblue" stroke="midnightblue" points="650.732,-437.148 641.15,-441.67 651.46,-444.11 650.732,-437.148"/>
</g>
<!-- Node9 -->
<g id="node9" class="node"><title>Node9</title>
<g id="a_node9"><a xlink:href="../../d7/de2/classengine_1_1actions_1_1_fixed_collision_action.html#a9d8b1ea6e0e71b027fcaa18f52ba3908" target="_top" xlink:title="engine.actions.FixedCollision\lAction.applyPhysics">
<polygon fill="white" stroke="black" points="735,-360 735,-390 887,-390 887,-360 735,-360"/>
<text text-anchor="start" x="743" y="-378" font-family="Helvetica,sans-Serif" font-size="10.00">engine.actions.FixedCollision</text>
<text text-anchor="middle" x="811" y="-367" font-family="Helvetica,sans-Serif" font-size="10.00">Action.applyPhysics</text>
</a>
</g>
</g>
<!-- Node7&#45;&gt;Node9 -->
<g id="edge9" class="edge"><title>Node7&#45;&gt;Node9</title>
<path fill="none" stroke="midnightblue" d="M650.968,-433.419C657.513,-431.225 663.915,-428.763 670,-426 688.211,-417.733 687.864,-407.431 706,-399 715.074,-394.782 724.947,-391.275 734.879,-388.368"/>
<polygon fill="midnightblue" stroke="midnightblue" points="649.795,-430.118 641.296,-436.445 651.885,-436.799 649.795,-430.118"/>
</g>
<!-- Node10 -->
<g id="node10" class="node"><title>Node10</title>
<g id="a_node10"><a xlink:href="../../d4/daa/classengine_1_1collision_1_1objects_1_1_fixed_object_collision_object.html#a21a31d8fafaaa37c7ca7d92ed0b015f1" target="_top" xlink:title="engine.collision.objects.\lFixedObjectCollisionObject.handle\lEnemyCollisionObject">
<polygon fill="white" stroke="black" points="723,-300.5 723,-341.5 899,-341.5 899,-300.5 723,-300.5"/>
<text text-anchor="start" x="731" y="-329.5" font-family="Helvetica,sans-Serif" font-size="10.00">engine.collision.objects.</text>
<text text-anchor="start" x="731" y="-318.5" font-family="Helvetica,sans-Serif" font-size="10.00">FixedObjectCollisionObject.handle</text>
<text text-anchor="middle" x="811" y="-307.5" font-family="Helvetica,sans-Serif" font-size="10.00">EnemyCollisionObject</text>
</a>
</g>
</g>
<!-- Node7&#45;&gt;Node10 -->
<g id="edge10" class="edge"><title>Node7&#45;&gt;Node10</title>
<path fill="none" stroke="midnightblue" d="M650.694,-437.632C657.591,-434.473 664.126,-430.641 670,-426 699.328,-402.831 677.418,-374.083 706,-350 711.089,-345.712 716.766,-342.056 722.771,-338.939"/>
<polygon fill="midnightblue" stroke="midnightblue" points="649.04,-434.526 641.094,-441.535 651.676,-441.011 649.04,-434.526"/>
</g>
<!-- Node11 -->
<g id="node11" class="node"><title>Node11</title>
<g id="a_node11"><a xlink:href="../../d4/daa/classengine_1_1collision_1_1objects_1_1_fixed_object_collision_object.html#a2e8390b2a80569d4462e04c5706831cb" target="_top" xlink:title="engine.collision.objects.\lFixedObjectCollisionObject.handle\lFixedObjectCollisionObject">
<polygon fill="white" stroke="black" points="723,-240.5 723,-281.5 899,-281.5 899,-240.5 723,-240.5"/>
<text text-anchor="start" x="731" y="-269.5" font-family="Helvetica,sans-Serif" font-size="10.00">engine.collision.objects.</text>
<text text-anchor="start" x="731" y="-258.5" font-family="Helvetica,sans-Serif" font-size="10.00">FixedObjectCollisionObject.handle</text>
<text text-anchor="middle" x="811" y="-247.5" font-family="Helvetica,sans-Serif" font-size="10.00">FixedObjectCollisionObject</text>
</a>
</g>
</g>
<!-- Node7&#45;&gt;Node11 -->
<g id="edge11" class="edge"><title>Node7&#45;&gt;Node11</title>
<path fill="none" stroke="midnightblue" d="M650.436,-439.4C657.583,-435.875 664.234,-431.475 670,-426 715.032,-383.243 662.537,-335.351 706,-291 710.866,-286.034 716.499,-281.877 722.574,-278.398"/>
<polygon fill="midnightblue" stroke="midnightblue" points="648.94,-436.234 641.147,-443.411 651.715,-442.66 648.94,-436.234"/>
</g>
<!-- Node12 -->
<g id="node12" class="node"><title>Node12</title>
<g id="a_node12"><a xlink:href="../../dc/d87/classengine_1_1collision_1_1objects_1_1_hero_collision_object.html#a3dc5a68b37238352c99bca91dfc8f9a1" target="_top" xlink:title="engine.collision.objects.\lHeroCollisionObject.handleFixed\lObjectCollisionObject">
<polygon fill="white" stroke="black" points="726.5,-697.5 726.5,-738.5 895.5,-738.5 895.5,-697.5 726.5,-697.5"/>
<text text-anchor="start" x="734.5" y="-726.5" font-family="Helvetica,sans-Serif" font-size="10.00">engine.collision.objects.</text>
<text text-anchor="start" x="734.5" y="-715.5" font-family="Helvetica,sans-Serif" font-size="10.00">HeroCollisionObject.handleFixed</text>
<text text-anchor="middle" x="811" y="-704.5" font-family="Helvetica,sans-Serif" font-size="10.00">ObjectCollisionObject</text>
</a>
</g>
</g>
<!-- Node7&#45;&gt;Node12 -->
<g id="edge12" class="edge"><title>Node7&#45;&gt;Node12</title>
<path fill="none" stroke="midnightblue" d="M607.437,-470.168C630.042,-480.656 654.464,-495.903 670,-517 715.796,-579.188 653.646,-630.223 706,-687 711.811,-693.302 718.842,-698.343 726.475,-702.373"/>
<polygon fill="midnightblue" stroke="midnightblue" points="608.787,-466.938 598.226,-466.101 605.96,-473.342 608.787,-466.938"/>
</g>
<!-- Node13 -->
<g id="node13" class="node"><title>Node13</title>
<g id="a_node13"><a xlink:href="../../d6/db8/classengine_1_1collision_1_1objects_1_1_powerup_collision_object.html#a4e09b2b8b7cfbcdd6def8332de2025b7" target="_top" xlink:title="engine.collision.objects.\lPowerupCollisionObject.handleFixed\lObjectCollisionObject">
<polygon fill="white" stroke="black" points="718,-637.5 718,-678.5 904,-678.5 904,-637.5 718,-637.5"/>
<text text-anchor="start" x="726" y="-666.5" font-family="Helvetica,sans-Serif" font-size="10.00">engine.collision.objects.</text>
<text text-anchor="start" x="726" y="-655.5" font-family="Helvetica,sans-Serif" font-size="10.00">PowerupCollisionObject.handleFixed</text>
<text text-anchor="middle" x="811" y="-644.5" font-family="Helvetica,sans-Serif" font-size="10.00">ObjectCollisionObject</text>
</a>
</g>
</g>
<!-- Node7&#45;&gt;Node13 -->
<g id="edge13" class="edge"><title>Node7&#45;&gt;Node13</title>
<path fill="none" stroke="midnightblue" d="M604.792,-470.248C627.623,-480.92 652.958,-496.291 670,-517 702.686,-556.721 669.146,-591.113 706,-627 710.049,-630.943 714.578,-634.388 719.418,-637.397"/>
<polygon fill="midnightblue" stroke="midnightblue" points="606.083,-466.992 595.526,-466.103 603.225,-473.381 606.083,-466.992"/>
</g>
<!-- Node14 -->
<g id="node14" class="node"><title>Node14</title>
<g id="a_node14"><a xlink:href="../../db/d3a/classengine_1_1collision_1_1objects_1_1_enemy_collision_object.html#a8cf5b65593cec2850e2f94a8d6deb670" target="_top" xlink:title="engine.collision.objects.\lEnemyCollisionObject.handleFixed\lObjectCollisionObject">
<polygon fill="white" stroke="black" points="721.5,-577.5 721.5,-618.5 900.5,-618.5 900.5,-577.5 721.5,-577.5"/>
<text text-anchor="start" x="729.5" y="-606.5" font-family="Helvetica,sans-Serif" font-size="10.00">engine.collision.objects.</text>
<text text-anchor="start" x="729.5" y="-595.5" font-family="Helvetica,sans-Serif" font-size="10.00">EnemyCollisionObject.handleFixed</text>
<text text-anchor="middle" x="811" y="-584.5" font-family="Helvetica,sans-Serif" font-size="10.00">ObjectCollisionObject</text>
</a>
</g>
</g>
<!-- Node7&#45;&gt;Node14 -->
<g id="edge14" class="edge"><title>Node7&#45;&gt;Node14</title>
<path fill="none" stroke="midnightblue" d="M596.922,-470.328C620.303,-481.755 648.428,-497.758 670,-517 690.435,-535.228 683.686,-551.129 706,-567 711.527,-570.931 717.556,-574.37 723.837,-577.377"/>
<polygon fill="midnightblue" stroke="midnightblue" points="598.421,-467.166 587.888,-466.023 595.41,-473.485 598.421,-467.166"/>
</g>
<!-- Node15 -->
<g id="node15" class="node"><title>Node15</title>
<g id="a_node15"><a xlink:href="../../d4/daa/classengine_1_1collision_1_1objects_1_1_fixed_object_collision_object.html#af3d610bd55f501a9d616abaf648dd870" target="_top" xlink:title="engine.collision.objects.\lFixedObjectCollisionObject.handle\lHeroCollisionObject">
<polygon fill="white" stroke="black" points="723,-517.5 723,-558.5 899,-558.5 899,-517.5 723,-517.5"/>
<text text-anchor="start" x="731" y="-546.5" font-family="Helvetica,sans-Serif" font-size="10.00">engine.collision.objects.</text>
<text text-anchor="start" x="731" y="-535.5" font-family="Helvetica,sans-Serif" font-size="10.00">FixedObjectCollisionObject.handle</text>
<text text-anchor="middle" x="811" y="-524.5" font-family="Helvetica,sans-Serif" font-size="10.00">HeroCollisionObject</text>
</a>
</g>
</g>
<!-- Node7&#45;&gt;Node15 -->
<g id="edge15" class="edge"><title>Node7&#45;&gt;Node15</title>
<path fill="none" stroke="midnightblue" d="M600.783,-469.575C630.943,-480.85 670.536,-495.278 706,-507 716.644,-510.518 727.958,-514.076 739.056,-517.464"/>
<polygon fill="midnightblue" stroke="midnightblue" points="601.932,-466.268 591.34,-466.033 599.473,-472.822 601.932,-466.268"/>
</g>
<!-- Node16 -->
<g id="node16" class="node"><title>Node16</title>
<g id="a_node16"><a xlink:href="../../d4/daa/classengine_1_1collision_1_1objects_1_1_fixed_object_collision_object.html#aabbf81a8ea0fca531c76cb6355553303" target="_top" xlink:title="engine.collision.objects.\lFixedObjectCollisionObject.handle\lPowerupCollisionObject">
<polygon fill="white" stroke="black" points="723,-457.5 723,-498.5 899,-498.5 899,-457.5 723,-457.5"/>
<text text-anchor="start" x="731" y="-486.5" font-family="Helvetica,sans-Serif" font-size="10.00">engine.collision.objects.</text>
<text text-anchor="start" x="731" y="-475.5" font-family="Helvetica,sans-Serif" font-size="10.00">FixedObjectCollisionObject.handle</text>
<text text-anchor="middle" x="811" y="-464.5" font-family="Helvetica,sans-Serif" font-size="10.00">PowerupCollisionObject</text>
</a>
</g>
</g>
<!-- Node7&#45;&gt;Node16 -->
<g id="edge16" class="edge"><title>Node7&#45;&gt;Node16</title>
<path fill="none" stroke="midnightblue" d="M651.142,-461.375C674.679,-463.839 699.62,-466.449 722.59,-468.852"/>
<polygon fill="midnightblue" stroke="midnightblue" points="651.46,-457.89 641.15,-460.33 650.732,-464.852 651.46,-457.89"/>
</g>
<!-- Node19 -->
<g id="node19" class="node"><title>Node19</title>
<g id="a_node19"><a xlink:href="../../da/d8d/classauthoring_1_1view_1_1propertiesview_1_1_game_object_properties.html#a666800a7063c728f47a848ab730362d3" target="_top" xlink:title="authoring.view.propertiesview.\lGameObjectProperties.GameObjectProperties">
<polygon fill="white" stroke="black" points="432.5,-527 432.5,-557 669.5,-557 669.5,-527 432.5,-527"/>
<text text-anchor="start" x="440.5" y="-545" font-family="Helvetica,sans-Serif" font-size="10.00">authoring.view.propertiesview.</text>
<text text-anchor="middle" x="551" y="-534" font-family="Helvetica,sans-Serif" font-size="10.00">GameObjectProperties.GameObjectProperties</text>
</a>
</g>
</g>
<!-- Node18&#45;&gt;Node19 -->
<g id="edge19" class="edge"><title>Node18&#45;&gt;Node19</title>
<path fill="none" stroke="midnightblue" d="M405.821,-542C414.625,-542 423.512,-542 432.321,-542"/>
<polygon fill="midnightblue" stroke="midnightblue" points="405.535,-538.5 395.535,-542 405.535,-545.5 405.535,-538.5"/>
</g>
<!-- Node20&#45;&gt;Node7 -->
<g id="edge22" class="edge"><title>Node20&#45;&gt;Node7</title>
<path fill="none" stroke="midnightblue" d="M380.487,-419.825C409.05,-425.078 440.36,-430.836 468.212,-435.959"/>
<polygon fill="midnightblue" stroke="midnightblue" points="380.977,-416.357 370.508,-417.99 379.71,-423.241 380.977,-416.357"/>
</g>
<!-- Node21 -->
<g id="node21" class="node"><title>Node21</title>
<g id="a_node21"><a xlink:href="../../df/d04/classengine_1_1actions_1_1_reverse_velocity_i_d_action.html#a68591c8a222c853219a8e380671d42be" target="_top" xlink:title="engine.actions.ReverseVelocity\lIDAction.applyPhysics">
<polygon fill="white" stroke="black" points="469,-387 469,-417 633,-417 633,-387 469,-387"/>
<text text-anchor="start" x="477" y="-405" font-family="Helvetica,sans-Serif" font-size="10.00">engine.actions.ReverseVelocity</text>
<text text-anchor="middle" x="551" y="-394" font-family="Helvetica,sans-Serif" font-size="10.00">IDAction.applyPhysics</text>
</a>
</g>
</g>
<!-- Node20&#45;&gt;Node21 -->
<g id="edge21" class="edge"><title>Node20&#45;&gt;Node21</title>
<path fill="none" stroke="midnightblue" d="M380.536,-402.649C409.239,-402.539 440.712,-402.419 468.661,-402.312"/>
<polygon fill="midnightblue" stroke="midnightblue" points="380.495,-399.149 370.508,-402.688 380.522,-406.149 380.495,-399.149"/>
</g>
<!-- Node22 -->
<g id="node22" class="node"><title>Node22</title>
<g id="a_node22"><a xlink:href="../../da/d1b/classengine_1_1collision_1_1objects_1_1_collision_composition.html#a18ddea9b9a7eb7e0b581645e7c42b439" target="_top" xlink:title="engine.collision.objects.\lCollisionComposition.reverseVelocites">
<polygon fill="white" stroke="black" points="452.5,-156 452.5,-186 649.5,-186 649.5,-156 452.5,-156"/>
<text text-anchor="start" x="460.5" y="-174" font-family="Helvetica,sans-Serif" font-size="10.00">engine.collision.objects.</text>
<text text-anchor="middle" x="551" y="-163" font-family="Helvetica,sans-Serif" font-size="10.00">CollisionComposition.reverseVelocites</text>
</a>
</g>
</g>
<!-- Node20&#45;&gt;Node22 -->
<g id="edge23" class="edge"><title>Node20&#45;&gt;Node22</title>
<path fill="none" stroke="midnightblue" d="M313.639,-381.099C366.108,-334.459 487.758,-226.326 532.812,-186.278"/>
<polygon fill="midnightblue" stroke="midnightblue" points="311.274,-378.518 306.125,-387.778 315.924,-383.75 311.274,-378.518"/>
</g>
<!-- Node23 -->
<g id="node23" class="node"><title>Node23</title>
<g id="a_node23"><a xlink:href="../../db/d3a/classengine_1_1collision_1_1objects_1_1_enemy_collision_object.html#a3fe5a215c527ee4263f5f1c2c851f58b" target="_top" xlink:title="engine.collision.objects.\lEnemyCollisionObject.handleEnemy\lCollisionObject">
<polygon fill="white" stroke="black" points="717,-60.5 717,-101.5 905,-101.5 905,-60.5 717,-60.5"/>
<text text-anchor="start" x="725" y="-89.5" font-family="Helvetica,sans-Serif" font-size="10.00">engine.collision.objects.</text>
<text text-anchor="start" x="725" y="-78.5" font-family="Helvetica,sans-Serif" font-size="10.00">EnemyCollisionObject.handleEnemy</text>
<text text-anchor="middle" x="811" y="-67.5" font-family="Helvetica,sans-Serif" font-size="10.00">CollisionObject</text>
</a>
</g>
</g>
<!-- Node22&#45;&gt;Node23 -->
<g id="edge24" class="edge"><title>Node22&#45;&gt;Node23</title>
<path fill="none" stroke="midnightblue" d="M597.556,-151.997C628.001,-139.609 669.088,-123.486 706,-111 715.524,-107.779 725.609,-104.593 735.605,-101.57"/>
<polygon fill="midnightblue" stroke="midnightblue" points="595.995,-148.854 588.064,-155.879 598.645,-155.333 595.995,-148.854"/>
</g>
<!-- Node24 -->
<g id="node24" class="node"><title>Node24</title>
<g id="a_node24"><a xlink:href="../../d6/db8/classengine_1_1collision_1_1objects_1_1_powerup_collision_object.html#a76f3d506523e34f32efeca2f2957c2f3" target="_top" xlink:title="engine.collision.objects.\lPowerupCollisionObject.handleEnemy\lCollisionObject">
<polygon fill="white" stroke="black" points="713.5,-0.5 713.5,-41.5 908.5,-41.5 908.5,-0.5 713.5,-0.5"/>
<text text-anchor="start" x="721.5" y="-29.5" font-family="Helvetica,sans-Serif" font-size="10.00">engine.collision.objects.</text>
<text text-anchor="start" x="721.5" y="-18.5" font-family="Helvetica,sans-Serif" font-size="10.00">PowerupCollisionObject.handleEnemy</text>
<text text-anchor="middle" x="811" y="-7.5" font-family="Helvetica,sans-Serif" font-size="10.00">CollisionObject</text>
</a>
</g>
</g>
<!-- Node22&#45;&gt;Node24 -->
<g id="edge25" class="edge"><title>Node22&#45;&gt;Node24</title>
<path fill="none" stroke="midnightblue" d="M574.615,-148.769C603.039,-121.984 654.383,-77.3102 706,-51 712.864,-47.5011 720.198,-44.3535 727.673,-41.5344"/>
<polygon fill="midnightblue" stroke="midnightblue" points="572.045,-146.384 567.225,-155.82 576.876,-151.449 572.045,-146.384"/>
</g>
<!-- Node25 -->
<g id="node25" class="node"><title>Node25</title>
<g id="a_node25"><a xlink:href="../../d6/db8/classengine_1_1collision_1_1objects_1_1_powerup_collision_object.html#a2bfd0d14c115bfbf39c23435d6660535" target="_top" xlink:title="engine.collision.objects.\lPowerupCollisionObject.handlePowerup\lCollisionObject">
<polygon fill="white" stroke="black" points="709.5,-180.5 709.5,-221.5 912.5,-221.5 912.5,-180.5 709.5,-180.5"/>
<text text-anchor="start" x="717.5" y="-209.5" font-family="Helvetica,sans-Serif" font-size="10.00">engine.collision.objects.</text>
<text text-anchor="start" x="717.5" y="-198.5" font-family="Helvetica,sans-Serif" font-size="10.00">PowerupCollisionObject.handlePowerup</text>
<text text-anchor="middle" x="811" y="-187.5" font-family="Helvetica,sans-Serif" font-size="10.00">CollisionObject</text>
</a>
</g>
</g>
<!-- Node22&#45;&gt;Node25 -->
<g id="edge26" class="edge"><title>Node22&#45;&gt;Node25</title>
<path fill="none" stroke="midnightblue" d="M659.7,-183.523C676.134,-185.434 693.042,-187.4 709.318,-189.293"/>
<polygon fill="midnightblue" stroke="midnightblue" points="659.876,-180.02 649.539,-182.342 659.068,-186.973 659.876,-180.02"/>
</g>
<!-- Node26 -->
<g id="node26" class="node"><title>Node26</title>
<g id="a_node26"><a xlink:href="../../db/d3a/classengine_1_1collision_1_1objects_1_1_enemy_collision_object.html#aaf077e8098fd696546883adbb1081c04" target="_top" xlink:title="engine.collision.objects.\lEnemyCollisionObject.handlePowerup\lCollisionObject">
<polygon fill="white" stroke="black" points="713.5,-120.5 713.5,-161.5 908.5,-161.5 908.5,-120.5 713.5,-120.5"/>
<text text-anchor="start" x="721.5" y="-149.5" font-family="Helvetica,sans-Serif" font-size="10.00">engine.collision.objects.</text>
<text text-anchor="start" x="721.5" y="-138.5" font-family="Helvetica,sans-Serif" font-size="10.00">EnemyCollisionObject.handlePowerup</text>
<text text-anchor="middle" x="811" y="-127.5" font-family="Helvetica,sans-Serif" font-size="10.00">CollisionObject</text>
</a>
</g>
</g>
<!-- Node22&#45;&gt;Node26 -->
<g id="edge27" class="edge"><title>Node22&#45;&gt;Node26</title>
<path fill="none" stroke="midnightblue" d="M659.877,-158.456C677.559,-156.4 695.786,-154.281 713.179,-152.258"/>
<polygon fill="midnightblue" stroke="midnightblue" points="659.068,-155.027 649.539,-159.658 659.876,-161.98 659.068,-155.027"/>
</g>
<!-- Node27&#45;&gt;Node22 -->
<g id="edge29" class="edge"><title>Node27&#45;&gt;Node22</title>
<path fill="none" stroke="midnightblue" d="M335.542,-258.098C386.266,-237.497 466.399,-204.953 513.01,-186.023"/>
<polygon fill="midnightblue" stroke="midnightblue" points="334.066,-254.92 326.118,-261.925 336.7,-261.405 334.066,-254.92"/>
</g>
</g>
</svg>
