<?xml version="1.0" encoding="UTF-8" standalone="no"?>
<!DOCTYPE svg PUBLIC "-//W3C//DTD SVG 1.1//EN"
 "http://www.w3.org/Graphics/SVG/1.1/DTD/svg11.dtd">
<!-- Generated by graphviz version 2.36.0 (20140111.2315)
 -->
<!-- Title: engine.physics.Vector.calculateMagnitude Pages: 1 -->
<!--zoomable 303 -->
<svg id="main" version="1.1" xmlns="http://www.w3.org/2000/svg" xmlns:xlink="http://www.w3.org/1999/xlink" xml:space="preserve" onload="init(evt)">
<style type="text/css"><![CDATA[
.edge:hover path { stroke: red; }
.edge:hover polygon { stroke: red; fill: red; }
]]></style>
<script type="text/javascript"><![CDATA[
var edges = document.getElementsByTagName('g');
if (edges && edges.length) {
  for (var i=0;i<edges.length;i++) {
    if (edges[i].id.substr(0,4)=='edge') {
      edges[i].setAttribute('class','edge');
    }
  }
}
]]></script>
        <defs>
                <circle id="rim" cx="0" cy="0" r="7"/>
                <circle id="rim2" cx="0" cy="0" r="3.5"/>
                <g id="zoomPlus">
                        <use xlink:href="#rim" fill="#404040">
                                <set attributeName="fill" to="#808080" begin="zoomplus.mouseover" end="zoomplus.mouseout"/>
                        </use>
                        <path d="M-4,0h8M0,-4v8" fill="none" stroke="white" stroke-width="1.5" pointer-events="none"/>
                </g>
                <g id="zoomMin">
                        <use xlink:href="#rim" fill="#404040">
                                <set attributeName="fill" to="#808080" begin="zoomminus.mouseover" end="zoomminus.mouseout"/>
                        </use>
                        <path d="M-4,0h8" fill="none" stroke="white" stroke-width="1.5" pointer-events="none"/>
                </g>
                <g id="dirArrow">
                        <path fill="none" stroke="white" stroke-width="1.5" d="M0,-3.0v7 M-2.5,-0.5L0,-3.0L2.5,-0.5"/>
                </g>
               <g id="resetDef">
                       <use xlink:href="#rim2" fill="#404040">
                               <set attributeName="fill" to="#808080" begin="reset.mouseover" end="reset.mouseout"/>
                       </use>
               </g>
        </defs>

<script type="text/javascript">
var viewWidth = 1544;
var viewHeight = 303;
var sectionId = 'dynsection-3';
</script>
<script xlink:href="../../svgpan.js"/>
<svg id="graph" class="graph">
<g id="viewport">
<title>engine.physics.Vector.calculateMagnitude</title>
<polygon fill="white" stroke="none" points="-4,4 -4,-299 1540,-299 1540,4 -4,4"/>
<!-- Node1 -->
<g id="node1" class="node"><title>Node1</title>
<polygon fill="#bfbfbf" stroke="black" points="0,-133 0,-163 166,-163 166,-133 0,-133"/>
<text text-anchor="start" x="8" y="-151" font-family="Helvetica,sans-Serif" font-size="10.00">engine.physics.Vector.calculate</text>
<text text-anchor="middle" x="83" y="-140" font-family="Helvetica,sans-Serif" font-size="10.00">Magnitude</text>
</g>
<!-- Node2 -->
<g id="node2" class="node"><title>Node2</title>
<g id="a_node2"><a xlink:href="../../d5/d1f/classengine_1_1physics_1_1_vector.html#aca88ff25ccf4b4569056f581cbbec272" target="_top" xlink:title="engine.physics.Vector.construction\lHelper">
<polygon fill="white" stroke="black" points="202,-244 202,-274 384,-274 384,-244 202,-244"/>
<text text-anchor="start" x="210" y="-262" font-family="Helvetica,sans-Serif" font-size="10.00">engine.physics.Vector.construction</text>
<text text-anchor="middle" x="293" y="-251" font-family="Helvetica,sans-Serif" font-size="10.00">Helper</text>
</a>
</g>
</g>
<!-- Node1&#45;&gt;Node2 -->
<g id="edge1" class="edge"><title>Node1&#45;&gt;Node2</title>
<path fill="none" stroke="midnightblue" d="M121.341,-167.927C162.268,-189.768 227,-224.313 263.859,-243.982"/>
<polygon fill="midnightblue" stroke="midnightblue" points="122.956,-164.822 112.485,-163.201 119.66,-170.997 122.956,-164.822"/>
</g>
<!-- Node4 -->
<g id="node4" class="node"><title>Node4</title>
<g id="a_node4"><a xlink:href="../../d5/d1f/classengine_1_1physics_1_1_vector.html#acb86cc2e6c015757803d38f16266a085" target="_top" xlink:title="engine.physics.Vector.delta">
<polygon fill="white" stroke="black" points="219.5,-179.5 219.5,-198.5 366.5,-198.5 366.5,-179.5 219.5,-179.5"/>
<text text-anchor="middle" x="293" y="-186.5" font-family="Helvetica,sans-Serif" font-size="10.00">engine.physics.Vector.delta</text>
</a>
</g>
</g>
<!-- Node1&#45;&gt;Node4 -->
<g id="edge3" class="edge"><title>Node1&#45;&gt;Node4</title>
<path fill="none" stroke="midnightblue" d="M170.157,-164.983C195.207,-169.921 221.681,-175.139 243.529,-179.446"/>
<polygon fill="midnightblue" stroke="midnightblue" points="170.759,-161.534 160.27,-163.034 169.405,-168.402 170.759,-161.534"/>
</g>
<!-- Node10 -->
<g id="node10" class="node"><title>Node10</title>
<g id="a_node10"><a xlink:href="../../d5/d1f/classengine_1_1physics_1_1_vector.html#a92f203ac492427c30b0b2b21d313eeda" target="_top" xlink:title="engine.physics.Vector.scalar\lMultiplication">
<polygon fill="white" stroke="black" points="217,-51 217,-81 369,-81 369,-51 217,-51"/>
<text text-anchor="start" x="225" y="-69" font-family="Helvetica,sans-Serif" font-size="10.00">engine.physics.Vector.scalar</text>
<text text-anchor="middle" x="293" y="-58" font-family="Helvetica,sans-Serif" font-size="10.00">Multiplication</text>
</a>
</g>
</g>
<!-- Node1&#45;&gt;Node10 -->
<g id="edge10" class="edge"><title>Node1&#45;&gt;Node10</title>
<path fill="none" stroke="midnightblue" d="M120.542,-128.247C143.48,-116.379 173.934,-101.579 202,-91 211.56,-87.3965 221.865,-84.0525 231.97,-81.0586"/>
<polygon fill="midnightblue" stroke="midnightblue" points="118.755,-125.232 111.514,-132.966 121.998,-131.435 118.755,-125.232"/>
</g>
<!-- Node11 -->
<g id="node11" class="node"><title>Node11</title>
<g id="a_node11"><a xlink:href="../../d5/d1f/classengine_1_1physics_1_1_vector.html#a0ad05574ba8b82b2f265ebfa5869d27b" target="_top" xlink:title="engine.physics.Vector.setX">
<polygon fill="white" stroke="black" points="221,-100.5 221,-119.5 365,-119.5 365,-100.5 221,-100.5"/>
<text text-anchor="middle" x="293" y="-107.5" font-family="Helvetica,sans-Serif" font-size="10.00">engine.physics.Vector.setX</text>
</a>
</g>
</g>
<!-- Node1&#45;&gt;Node11 -->
<g id="edge11" class="edge"><title>Node1&#45;&gt;Node11</title>
<path fill="none" stroke="midnightblue" d="M176.194,-131.157C198.068,-127.161 220.647,-123.036 239.995,-119.501"/>
<polygon fill="midnightblue" stroke="midnightblue" points="175.415,-127.741 166.207,-132.981 176.673,-134.627 175.415,-127.741"/>
</g>
<!-- Node25 -->
<g id="node25" class="node"><title>Node25</title>
<g id="a_node25"><a xlink:href="../../d5/d1f/classengine_1_1physics_1_1_vector.html#a4e646d4b9bf5a3904817560725776cec" target="_top" xlink:title="engine.physics.Vector.setY">
<polygon fill="white" stroke="black" points="221.5,-138.5 221.5,-157.5 364.5,-157.5 364.5,-138.5 221.5,-138.5"/>
<text text-anchor="middle" x="293" y="-145.5" font-family="Helvetica,sans-Serif" font-size="10.00">engine.physics.Vector.setY</text>
</a>
</g>
</g>
<!-- Node1&#45;&gt;Node25 -->
<g id="edge29" class="edge"><title>Node1&#45;&gt;Node25</title>
<path fill="none" stroke="midnightblue" d="M176.574,-148C191.647,-148 207.043,-148 221.476,-148"/>
<polygon fill="midnightblue" stroke="midnightblue" points="176.207,-144.5 166.207,-148 176.207,-151.5 176.207,-144.5"/>
</g>
<!-- Node3 -->
<g id="node3" class="node"><title>Node3</title>
<g id="a_node3"><a xlink:href="../../d5/d1f/classengine_1_1physics_1_1_vector.html#ae83c3a2f629fc4c28cd12bfbe92ceda9" target="_top" xlink:title="engine.physics.Vector.Vector">
<polygon fill="white" stroke="black" points="431,-275.5 431,-294.5 585,-294.5 585,-275.5 431,-275.5"/>
<text text-anchor="middle" x="508" y="-282.5" font-family="Helvetica,sans-Serif" font-size="10.00">engine.physics.Vector.Vector</text>
</a>
</g>
</g>
<!-- Node2&#45;&gt;Node3 -->
<g id="edge2" class="edge"><title>Node2&#45;&gt;Node3</title>
<path fill="none" stroke="midnightblue" d="M394.285,-271.241C406.55,-272.739 418.926,-274.249 430.758,-275.694"/>
<polygon fill="midnightblue" stroke="midnightblue" points="394.373,-267.726 384.022,-269.989 393.525,-274.675 394.373,-267.726"/>
</g>
<!-- Node5 -->
<g id="node5" class="node"><title>Node5</title>
<g id="a_node5"><a xlink:href="../../d9/d9d/classengine_1_1game_object_1_1components_1_1_physics_body.html#a378b35e4343b358058e6a0917f3366b4" target="_top" xlink:title="engine.gameObject.components.\lPhysicsBody.changeVelocity">
<polygon fill="white" stroke="black" points="420,-177 420,-207 596,-207 596,-177 420,-177"/>
<text text-anchor="start" x="428" y="-195" font-family="Helvetica,sans-Serif" font-size="10.00">engine.gameObject.components.</text>
<text text-anchor="middle" x="508" y="-184" font-family="Helvetica,sans-Serif" font-size="10.00">PhysicsBody.changeVelocity</text>
</a>
</g>
</g>
<!-- Node4&#45;&gt;Node5 -->
<g id="edge4" class="edge"><title>Node4&#45;&gt;Node5</title>
<path fill="none" stroke="midnightblue" d="M376.868,-190.167C390.984,-190.366 405.684,-190.573 419.906,-190.773"/>
<polygon fill="midnightblue" stroke="midnightblue" points="376.755,-186.665 366.707,-190.024 376.656,-193.665 376.755,-186.665"/>
</g>
<!-- Node8 -->
<g id="node8" class="node"><title>Node8</title>
<g id="a_node8"><a xlink:href="../../d9/d9d/classengine_1_1game_object_1_1components_1_1_physics_body.html#ac4e0449aee85c24c697e4c436f4fb997" target="_top" xlink:title="engine.gameObject.components.\lPhysicsBody.doImpulses">
<polygon fill="white" stroke="black" points="420,-226 420,-256 596,-256 596,-226 420,-226"/>
<text text-anchor="start" x="428" y="-244" font-family="Helvetica,sans-Serif" font-size="10.00">engine.gameObject.components.</text>
<text text-anchor="middle" x="508" y="-233" font-family="Helvetica,sans-Serif" font-size="10.00">PhysicsBody.doImpulses</text>
</a>
</g>
</g>
<!-- Node4&#45;&gt;Node8 -->
<g id="edge7" class="edge"><title>Node4&#45;&gt;Node8</title>
<path fill="none" stroke="midnightblue" d="M343.005,-200.964C373.383,-208.38 412.674,-217.972 445.181,-225.908"/>
<polygon fill="midnightblue" stroke="midnightblue" points="343.612,-197.509 333.067,-198.538 341.952,-204.309 343.612,-197.509"/>
</g>
<!-- Node9 -->
<g id="node9" class="node"><title>Node9</title>
<g id="a_node9"><a xlink:href="../../d5/d1f/classengine_1_1physics_1_1_vector.html#a0617c8eea76c73c65d7b78b6bcd0d140" target="_top" xlink:title="engine.physics.Vector.delta">
<polygon fill="white" stroke="black" points="434.5,-138.5 434.5,-157.5 581.5,-157.5 581.5,-138.5 434.5,-138.5"/>
<text text-anchor="middle" x="508" y="-145.5" font-family="Helvetica,sans-Serif" font-size="10.00">engine.physics.Vector.delta</text>
</a>
</g>
</g>
<!-- Node4&#45;&gt;Node9 -->
<g id="edge9" class="edge"><title>Node4&#45;&gt;Node9</title>
<path fill="none" stroke="midnightblue" d="M353.322,-177.581C386.122,-171.268 426.404,-163.514 457.498,-157.529"/>
<polygon fill="midnightblue" stroke="midnightblue" points="352.56,-174.164 343.402,-179.491 353.883,-181.037 352.56,-174.164"/>
</g>
<!-- Node6 -->
<g id="node6" class="node"><title>Node6</title>
<g id="a_node6"><a xlink:href="../../d9/d9d/classengine_1_1game_object_1_1components_1_1_physics_body.html#a322c2d4e1205c1fc9bafabe04f394cb6" target="_top" xlink:title="engine.gameObject.components.\lPhysicsBody.updatePhysicalCharacteristics">
<polygon fill="white" stroke="black" points="632.5,-204 632.5,-234 853.5,-234 853.5,-204 632.5,-204"/>
<text text-anchor="start" x="640.5" y="-222" font-family="Helvetica,sans-Serif" font-size="10.00">engine.gameObject.components.</text>
<text text-anchor="middle" x="743" y="-211" font-family="Helvetica,sans-Serif" font-size="10.00">PhysicsBody.updatePhysicalCharacteristics</text>
</a>
</g>
</g>
<!-- Node5&#45;&gt;Node6 -->
<g id="edge5" class="edge"><title>Node5&#45;&gt;Node6</title>
<path fill="none" stroke="midnightblue" d="M606.106,-203.253C614.704,-204.249 623.447,-205.262 632.14,-206.269"/>
<polygon fill="midnightblue" stroke="midnightblue" points="606.428,-199.767 596.092,-202.092 605.623,-206.72 606.428,-199.767"/>
</g>
<!-- Node7 -->
<g id="node7" class="node"><title>Node7</title>
<g id="a_node7"><a xlink:href="../../d0/d7f/classengine_1_1game_object_1_1_game_object.html#ac7465f9b7adb414a894231d97e4ae91c" target="_top" xlink:title="engine.gameObject.GameObject.update">
<polygon fill="white" stroke="black" points="890,-220.5 890,-239.5 1100,-239.5 1100,-220.5 890,-220.5"/>
<text text-anchor="middle" x="995" y="-227.5" font-family="Helvetica,sans-Serif" font-size="10.00">engine.gameObject.GameObject.update</text>
</a>
</g>
</g>
<!-- Node6&#45;&gt;Node7 -->
<g id="edge6" class="edge"><title>Node6&#45;&gt;Node7</title>
<path fill="none" stroke="midnightblue" d="M863.873,-224.274C872.601,-224.658 881.362,-225.044 889.986,-225.423"/>
<polygon fill="midnightblue" stroke="midnightblue" points="863.798,-220.768 853.654,-223.825 863.49,-227.761 863.798,-220.768"/>
</g>
<!-- Node8&#45;&gt;Node6 -->
<g id="edge8" class="edge"><title>Node8&#45;&gt;Node6</title>
<path fill="none" stroke="midnightblue" d="M606.106,-231.831C614.704,-231.019 623.447,-230.194 632.14,-229.373"/>
<polygon fill="midnightblue" stroke="midnightblue" points="605.719,-228.352 596.092,-232.777 606.377,-235.321 605.719,-228.352"/>
</g>
<!-- Node12 -->
<g id="node12" class="node"><title>Node12</title>
<g id="a_node12"><a xlink:href="../../d9/d9d/classengine_1_1game_object_1_1components_1_1_physics_body.html#aec651bb9ed66c5c0db0bbbd0c2f445ae" target="_top" xlink:title="engine.gameObject.components.\lPhysicsBody.balanceForces">
<polygon fill="white" stroke="black" points="420,-89 420,-119 596,-119 596,-89 420,-89"/>
<text text-anchor="start" x="428" y="-107" font-family="Helvetica,sans-Serif" font-size="10.00">engine.gameObject.components.</text>
<text text-anchor="middle" x="508" y="-96" font-family="Helvetica,sans-Serif" font-size="10.00">PhysicsBody.balanceForces</text>
</a>
</g>
</g>
<!-- Node11&#45;&gt;Node12 -->
<g id="edge12" class="edge"><title>Node11&#45;&gt;Node12</title>
<path fill="none" stroke="midnightblue" d="M375.223,-107.712C389.846,-107.3 405.144,-106.869 419.925,-106.453"/>
<polygon fill="midnightblue" stroke="midnightblue" points="375.119,-104.213 365.222,-107.994 375.317,-111.211 375.119,-104.213"/>
</g>
<!-- Node12&#45;&gt;Node6 -->
<g id="edge28" class="edge"><title>Node12&#45;&gt;Node6</title>
<path fill="none" stroke="midnightblue" d="M586.1,-123.335C589.531,-125.067 592.851,-126.951 596,-129 616.892,-142.592 611.99,-157.139 632,-172 650.423,-185.682 673.436,-196.309 693.645,-203.97"/>
<polygon fill="midnightblue" stroke="midnightblue" points="587.35,-120.058 576.8,-119.094 584.447,-126.427 587.35,-120.058"/>
</g>
<!-- Node13 -->
<g id="node13" class="node"><title>Node13</title>
<g id="a_node13"><a xlink:href="../../d9/d9d/classengine_1_1game_object_1_1components_1_1_physics_body.html#a5241a38b82aed5ed11e7b3674ecb83ce" target="_top" xlink:title="engine.gameObject.components.\lPhysicsBody.addForce">
<polygon fill="white" stroke="black" points="655,-133 655,-163 831,-163 831,-133 655,-133"/>
<text text-anchor="start" x="663" y="-151" font-family="Helvetica,sans-Serif" font-size="10.00">engine.gameObject.components.</text>
<text text-anchor="middle" x="743" y="-140" font-family="Helvetica,sans-Serif" font-size="10.00">PhysicsBody.addForce</text>
</a>
</g>
</g>
<!-- Node12&#45;&gt;Node13 -->
<g id="edge13" class="edge"><title>Node12&#45;&gt;Node13</title>
<path fill="none" stroke="midnightblue" d="M598.438,-120.89C619.508,-124.868 641.828,-129.083 662.429,-132.974"/>
<polygon fill="midnightblue" stroke="midnightblue" points="599.01,-117.436 588.534,-119.019 597.711,-124.314 599.01,-117.436"/>
</g>
<!-- Node19 -->
<g id="node19" class="node"><title>Node19</title>
<g id="a_node19"><a xlink:href="../../d9/d9d/classengine_1_1game_object_1_1components_1_1_physics_body.html#a69d3fe175f40fdc40ca6e414cac727a5" target="_top" xlink:title="engine.gameObject.components.\lPhysicsBody.addScalar">
<polygon fill="white" stroke="black" points="655,-84 655,-114 831,-114 831,-84 655,-84"/>
<text text-anchor="start" x="663" y="-102" font-family="Helvetica,sans-Serif" font-size="10.00">engine.gameObject.components.</text>
<text text-anchor="middle" x="743" y="-91" font-family="Helvetica,sans-Serif" font-size="10.00">PhysicsBody.addScalar</text>
</a>
</g>
</g>
<!-- Node12&#45;&gt;Node19 -->
<g id="edge19" class="edge"><title>Node12&#45;&gt;Node19</title>
<path fill="none" stroke="midnightblue" d="M606.501,-101.908C622.468,-101.565 638.924,-101.212 654.626,-100.875"/>
<polygon fill="midnightblue" stroke="midnightblue" points="606.015,-98.4172 596.092,-102.131 606.165,-105.416 606.015,-98.4172"/>
</g>
<!-- Node24 -->
<g id="node24" class="node"><title>Node24</title>
<g id="a_node24"><a xlink:href="../../d9/d9d/classengine_1_1game_object_1_1components_1_1_physics_body.html#a174b00895d24511a8280844ae1e1ddc6" target="_top" xlink:title="engine.gameObject.components.\lPhysicsBody.PhysicsBody">
<polygon fill="white" stroke="black" points="655,-35 655,-65 831,-65 831,-35 655,-35"/>
<text text-anchor="start" x="663" y="-53" font-family="Helvetica,sans-Serif" font-size="10.00">engine.gameObject.components.</text>
<text text-anchor="middle" x="743" y="-42" font-family="Helvetica,sans-Serif" font-size="10.00">PhysicsBody.PhysicsBody</text>
</a>
</g>
</g>
<!-- Node12&#45;&gt;Node24 -->
<g id="edge27" class="edge"><title>Node12&#45;&gt;Node24</title>
<path fill="none" stroke="midnightblue" d="M579.287,-86.5436C596.508,-82.3531 614.903,-77.9495 632,-74 644.855,-71.0303 658.579,-67.9582 671.819,-65.044"/>
<polygon fill="midnightblue" stroke="midnightblue" points="578.186,-83.2094 569.302,-88.9812 579.847,-90.0097 578.186,-83.2094"/>
</g>
<!-- Node14 -->
<g id="node14" class="node"><title>Node14</title>
<g id="a_node14"><a xlink:href="../../d7/d00/classengine_1_1tests_1_1_main_engine_tests.html#ad06079aee97fd7ffd4f2b14a8f01b808" target="_top" xlink:title="engine.tests.MainEngineTests.create\lGameObject">
<polygon fill="white" stroke="black" points="899.5,-171 899.5,-201 1090.5,-201 1090.5,-171 899.5,-171"/>
<text text-anchor="start" x="907.5" y="-189" font-family="Helvetica,sans-Serif" font-size="10.00">engine.tests.MainEngineTests.create</text>
<text text-anchor="middle" x="995" y="-178" font-family="Helvetica,sans-Serif" font-size="10.00">GameObject</text>
</a>
</g>
</g>
<!-- Node13&#45;&gt;Node14 -->
<g id="edge14" class="edge"><title>Node13&#45;&gt;Node14</title>
<path fill="none" stroke="midnightblue" d="M840.98,-162.741C860.079,-165.644 880.098,-168.687 899.126,-171.579"/>
<polygon fill="midnightblue" stroke="midnightblue" points="841.499,-159.28 831.087,-161.237 840.447,-166.2 841.499,-159.28"/>
</g>
<!-- Node16 -->
<g id="node16" class="node"><title>Node16</title>
<g id="a_node16"><a xlink:href="../../dc/d21/classgames_1_1_mario_game_test.html#aab9eed35cd4d8ae1d108ae914b6a73ff" target="_top" xlink:title="games.MarioGameTest.create\lGameObject">
<polygon fill="white" stroke="black" points="914.5,-73 914.5,-103 1075.5,-103 1075.5,-73 914.5,-73"/>
<text text-anchor="start" x="922.5" y="-91" font-family="Helvetica,sans-Serif" font-size="10.00">games.MarioGameTest.create</text>
<text text-anchor="middle" x="995" y="-80" font-family="Helvetica,sans-Serif" font-size="10.00">GameObject</text>
</a>
</g>
</g>
<!-- Node13&#45;&gt;Node16 -->
<g id="edge16" class="edge"><title>Node13&#45;&gt;Node16</title>
<path fill="none" stroke="midnightblue" d="M823.533,-130.65C833.812,-128.195 844.176,-125.614 854,-123 870.168,-118.699 873.839,-116.328 890,-112 901.545,-108.908 913.874,-105.851 925.86,-103.007"/>
<polygon fill="midnightblue" stroke="midnightblue" points="822.654,-127.262 813.724,-132.962 824.26,-134.075 822.654,-127.262"/>
</g>
<!-- Node18 -->
<g id="node18" class="node"><title>Node18</title>
<g id="a_node18"><a xlink:href="../../df/d71/classengine_1_1tests_1_1_physics_body_testing.html#a972062e773bb78d10114b5c8d0ee9be3" target="_top" xlink:title="engine.tests.PhysicsBody\lTesting.main">
<polygon fill="white" stroke="black" points="926,-122 926,-152 1064,-152 1064,-122 926,-122"/>
<text text-anchor="start" x="934" y="-140" font-family="Helvetica,sans-Serif" font-size="10.00">engine.tests.PhysicsBody</text>
<text text-anchor="middle" x="995" y="-129" font-family="Helvetica,sans-Serif" font-size="10.00">Testing.main</text>
</a>
</g>
</g>
<!-- Node13&#45;&gt;Node18 -->
<g id="edge18" class="edge"><title>Node13&#45;&gt;Node18</title>
<path fill="none" stroke="midnightblue" d="M841.371,-143.716C869.559,-142.475 899.721,-141.148 925.725,-140.004"/>
<polygon fill="midnightblue" stroke="midnightblue" points="840.923,-140.232 831.087,-144.168 841.231,-147.225 840.923,-140.232"/>
</g>
<!-- Node15 -->
<g id="node15" class="node"><title>Node15</title>
<g id="a_node15"><a xlink:href="../../d7/d00/classengine_1_1tests_1_1_main_engine_tests.html#ad1e78dcd3453ebdeb09141cba734c133" target="_top" xlink:title="engine.tests.MainEngineTests.start">
<polygon fill="white" stroke="black" points="1142.5,-176.5 1142.5,-195.5 1325.5,-195.5 1325.5,-176.5 1142.5,-176.5"/>
<text text-anchor="middle" x="1234" y="-183.5" font-family="Helvetica,sans-Serif" font-size="10.00">engine.tests.MainEngineTests.start</text>
</a>
</g>
</g>
<!-- Node14&#45;&gt;Node15 -->
<g id="edge15" class="edge"><title>Node14&#45;&gt;Node15</title>
<path fill="none" stroke="midnightblue" d="M1100.73,-186C1114.59,-186 1128.71,-186 1142.31,-186"/>
<polygon fill="midnightblue" stroke="midnightblue" points="1100.69,-182.5 1090.69,-186 1100.69,-189.5 1100.69,-182.5"/>
</g>
<!-- Node17 -->
<g id="node17" class="node"><title>Node17</title>
<g id="a_node17"><a xlink:href="../../dc/d21/classgames_1_1_mario_game_test.html#a8b7c287ffdfcacefeb373e7430a608c8" target="_top" xlink:title="games.MarioGameTest.start">
<polygon fill="white" stroke="black" points="1158,-78.5 1158,-97.5 1310,-97.5 1310,-78.5 1158,-78.5"/>
<text text-anchor="middle" x="1234" y="-85.5" font-family="Helvetica,sans-Serif" font-size="10.00">games.MarioGameTest.start</text>
</a>
</g>
</g>
<!-- Node16&#45;&gt;Node17 -->
<g id="edge17" class="edge"><title>Node16&#45;&gt;Node17</title>
<path fill="none" stroke="midnightblue" d="M1085.64,-88C1109.37,-88 1134.75,-88 1157.64,-88"/>
<polygon fill="midnightblue" stroke="midnightblue" points="1085.58,-84.5001 1075.58,-88 1085.58,-91.5001 1085.58,-84.5001"/>
</g>
<!-- Node19&#45;&gt;Node14 -->
<g id="edge20" class="edge"><title>Node19&#45;&gt;Node14</title>
<path fill="none" stroke="midnightblue" d="M840.696,-116.508C845.292,-118.449 849.755,-120.605 854,-123 874.263,-134.431 869.859,-149.356 890,-161 896.752,-164.903 904.088,-168.199 911.635,-170.981"/>
<polygon fill="midnightblue" stroke="midnightblue" points="841.689,-113.14 831.099,-112.818 839.177,-119.674 841.689,-113.14"/>
</g>
<!-- Node19&#45;&gt;Node16 -->
<g id="edge21" class="edge"><title>Node19&#45;&gt;Node16</title>
<path fill="none" stroke="midnightblue" d="M841.344,-94.7168C865.512,-93.6535 891.132,-92.5262 914.34,-91.505"/>
<polygon fill="midnightblue" stroke="midnightblue" points="840.923,-91.2319 831.087,-95.1682 841.231,-98.2251 840.923,-91.2319"/>
</g>
<!-- Node19&#45;&gt;Node18 -->
<g id="edge26" class="edge"><title>Node19&#45;&gt;Node18</title>
<path fill="none" stroke="midnightblue" d="M841.001,-113.744C869.295,-118.045 899.607,-122.652 925.725,-126.622"/>
<polygon fill="midnightblue" stroke="midnightblue" points="841.499,-110.28 831.087,-112.237 840.447,-117.2 841.499,-110.28"/>
</g>
<!-- Node20 -->
<g id="node20" class="node"><title>Node20</title>
<g id="a_node20"><a xlink:href="../../da/d8d/classauthoring_1_1view_1_1propertiesview_1_1_game_object_properties.html#a6f1aeaddb6956053690488c8ddaa38ba" target="_top" xlink:title="authoring.view.propertiesview.\lGameObjectProperties.edit">
<polygon fill="white" stroke="black" points="915.5,-24 915.5,-54 1074.5,-54 1074.5,-24 915.5,-24"/>
<text text-anchor="start" x="923.5" y="-42" font-family="Helvetica,sans-Serif" font-size="10.00">authoring.view.propertiesview.</text>
<text text-anchor="middle" x="995" y="-31" font-family="Helvetica,sans-Serif" font-size="10.00">GameObjectProperties.edit</text>
</a>
</g>
</g>
<!-- Node19&#45;&gt;Node20 -->
<g id="edge22" class="edge"><title>Node19&#45;&gt;Node20</title>
<path fill="none" stroke="midnightblue" d="M823.533,-81.6504C833.812,-79.1953 844.176,-76.6136 854,-74 870.168,-69.6988 873.839,-67.3281 890,-63 901.545,-59.9081 913.874,-56.8507 925.86,-54.0067"/>
<polygon fill="midnightblue" stroke="midnightblue" points="822.654,-78.2616 813.724,-83.9624 824.26,-85.0749 822.654,-78.2616"/>
</g>
<!-- Node21 -->
<g id="node21" class="node"><title>Node21</title>
<g id="a_node21"><a xlink:href="../../d4/d9e/classauthoring_1_1view_1_1propertiesview_1_1_properties_view.html#aeed3bf20185eabcf870ee4c649bc1d4e" target="_top" xlink:title="authoring.view.propertiesview.\lPropertiesView.getEditedGameObject">
<polygon fill="white" stroke="black" points="1136.5,-24 1136.5,-54 1331.5,-54 1331.5,-24 1136.5,-24"/>
<text text-anchor="start" x="1144.5" y="-42" font-family="Helvetica,sans-Serif" font-size="10.00">authoring.view.propertiesview.</text>
<text text-anchor="middle" x="1234" y="-31" font-family="Helvetica,sans-Serif" font-size="10.00">PropertiesView.getEditedGameObject</text>
</a>
</g>
</g>
<!-- Node20&#45;&gt;Node21 -->
<g id="edge23" class="edge"><title>Node20&#45;&gt;Node21</title>
<path fill="none" stroke="midnightblue" d="M1084.94,-39C1101.76,-39 1119.42,-39 1136.46,-39"/>
<polygon fill="midnightblue" stroke="midnightblue" points="1084.59,-35.5001 1074.59,-39 1084.59,-42.5001 1084.59,-35.5001"/>
</g>
<!-- Node22 -->
<g id="node22" class="node"><title>Node22</title>
<g id="a_node22"><a xlink:href="../../d6/df5/classauthoring_1_1eventhandlers_1_1_edit_game_object_handler.html#ac0a03e6b751068903df50296d9f1fbd7" target="_top" xlink:title="authoring.eventhandlers.\lEditGameObjectHandler.handle">
<polygon fill="white" stroke="black" points="1368.5,-49 1368.5,-79 1535.5,-79 1535.5,-49 1368.5,-49"/>
<text text-anchor="start" x="1376.5" y="-67" font-family="Helvetica,sans-Serif" font-size="10.00">authoring.eventhandlers.</text>
<text text-anchor="middle" x="1452" y="-56" font-family="Helvetica,sans-Serif" font-size="10.00">EditGameObjectHandler.handle</text>
</a>
</g>
</g>
<!-- Node21&#45;&gt;Node22 -->
<g id="edge24" class="edge"><title>Node21&#45;&gt;Node22</title>
<path fill="none" stroke="midnightblue" d="M1341.7,-51.3499C1350.64,-52.3845 1359.59,-53.4205 1368.31,-54.4296"/>
<polygon fill="midnightblue" stroke="midnightblue" points="1341.96,-47.8568 1331.63,-50.1838 1341.16,-54.8104 1341.96,-47.8568"/>
</g>
<!-- Node23 -->
<g id="node23" class="node"><title>Node23</title>
<g id="a_node23"><a xlink:href="../../df/d81/classauthoring_1_1eventhandlers_1_1_save_as_new_handler.html#a912458649a9a99cded7c346f9d8b40f5" target="_top" xlink:title="authoring.eventhandlers.\lSaveAsNewHandler.handle">
<polygon fill="white" stroke="black" points="1379.5,-0 1379.5,-30 1524.5,-30 1524.5,-0 1379.5,-0"/>
<text text-anchor="start" x="1387.5" y="-18" font-family="Helvetica,sans-Serif" font-size="10.00">authoring.eventhandlers.</text>
<text text-anchor="middle" x="1452" y="-7" font-family="Helvetica,sans-Serif" font-size="10.00">SaveAsNewHandler.handle</text>
</a>
</g>
</g>
<!-- Node21&#45;&gt;Node23 -->
<g id="edge25" class="edge"><title>Node21&#45;&gt;Node23</title>
<path fill="none" stroke="midnightblue" d="M1341.82,-27.1306C1354.56,-25.7154 1367.32,-24.2978 1379.39,-22.9565"/>
<polygon fill="midnightblue" stroke="midnightblue" points="1341.18,-23.6805 1331.63,-28.2635 1341.95,-30.6377 1341.18,-23.6805"/>
</g>
<!-- Node25&#45;&gt;Node12 -->
<g id="edge30" class="edge"><title>Node25&#45;&gt;Node12</title>
<path fill="none" stroke="midnightblue" d="M350.161,-136.399C375.852,-131.092 406.618,-124.736 434.07,-119.065"/>
<polygon fill="midnightblue" stroke="midnightblue" points="349.303,-133.002 340.218,-138.453 350.719,-139.857 349.303,-133.002"/>
</g>
</g>
</svg>
        <g id="navigator" transform="translate(0 0)" fill="#404254">
                <rect fill="#f2f5e9" fill-opacity="0.5" stroke="#606060" stroke-width=".5" x="0" y="0" width="60" height="60"/>
                <use id="zoomplus" xlink:href="#zoomPlus" x="17" y="9" onmousedown="handleZoom(evt,'in')"/>
                <use id="zoomminus" xlink:href="#zoomMin" x="42" y="9" onmousedown="handleZoom(evt,'out')"/>
                <use id="reset" xlink:href="#resetDef" x="30" y="36" onmousedown="handleReset()"/>
                <g id="arrowUp" xlink:href="#dirArrow" transform="translate(30 24)" onmousedown="handlePan(0,-1)">
                  <use xlink:href="#rim" fill="#404040">
                        <set attributeName="fill" to="#808080" begin="arrowUp.mouseover" end="arrowUp.mouseout"/>
                  </use>
                  <path fill="none" stroke="white" stroke-width="1.5" d="M0,-3.0v7 M-2.5,-0.5L0,-3.0L2.5,-0.5"/>
                </g>
                <g id="arrowRight" xlink:href="#dirArrow" transform="rotate(90) translate(36 -43)" onmousedown="handlePan(1,0)">
                  <use xlink:href="#rim" fill="#404040">
                        <set attributeName="fill" to="#808080" begin="arrowRight.mouseover" end="arrowRight.mouseout"/>
                  </use>
                  <path fill="none" stroke="white" stroke-width="1.5" d="M0,-3.0v7 M-2.5,-0.5L0,-3.0L2.5,-0.5"/>
                </g>
                <g id="arrowDown" xlink:href="#dirArrow" transform="rotate(180) translate(-30 -48)" onmousedown="handlePan(0,1)">
                  <use xlink:href="#rim" fill="#404040">
                        <set attributeName="fill" to="#808080" begin="arrowDown.mouseover" end="arrowDown.mouseout"/>
                  </use>
                  <path fill="none" stroke="white" stroke-width="1.5" d="M0,-3.0v7 M-2.5,-0.5L0,-3.0L2.5,-0.5"/>
                </g>
                <g id="arrowLeft" xlink:href="#dirArrow" transform="rotate(270) translate(-36 17)" onmousedown="handlePan(-1,0)">
                  <use xlink:href="#rim" fill="#404040">
                        <set attributeName="fill" to="#808080" begin="arrowLeft.mouseover" end="arrowLeft.mouseout"/>
                  </use>
                  <path fill="none" stroke="white" stroke-width="1.5" d="M0,-3.0v7 M-2.5,-0.5L0,-3.0L2.5,-0.5"/>
                </g>
        </g>
        <svg viewBox="0 0 15 15" width="100%" height="30px" preserveAspectRatio="xMaxYMin meet">
         <g id="arrow_out" transform="scale(0.3 0.3)">
          <a xlink:href="classengine_1_1physics_1_1_vector_a33c635f15f2f2e16f9b57542c6c3182f_icgraph_org.svg" target="_base">
           <rect id="button" ry="5" rx="5" y="6" x="6" height="38" width="38"
                fill="#f2f5e9" fill-opacity="0.5" stroke="#606060" stroke-width="1.0"/>
           <path id="arrow"
             d="M 11.500037,31.436501 C 11.940474,20.09759 22.043105,11.32322 32.158766,21.979434 L 37.068811,17.246167 C 37.068811,17.246167 37.088388,32 37.088388,32 L 22.160133,31.978069 C 22.160133,31.978069 26.997745,27.140456 26.997745,27.140456 C 18.528582,18.264221 13.291696,25.230495 11.500037,31.436501 z"
             style="fill:#404040;"/>
          </a>
         </g>
        </svg>
</svg>
