<?xml version="1.0" encoding="UTF-8" standalone="no"?>
<!DOCTYPE svg PUBLIC "-//W3C//DTD SVG 1.1//EN"
 "http://www.w3.org/Graphics/SVG/1.1/DTD/svg11.dtd">
<!-- Generated by graphviz version 2.36.0 (20140111.2315)
 -->
<!-- Title: engine.actions.ResetLevelAction Pages: 1 -->
<svg width="182pt" height="152pt"
 viewBox="0.00 0.00 182.00 152.00" xmlns="http://www.w3.org/2000/svg" xmlns:xlink="http://www.w3.org/1999/xlink">
<g id="graph0" class="graph" transform="scale(1 1) rotate(0) translate(4 148)">
<title>engine.actions.ResetLevelAction</title>
<polygon fill="white" stroke="none" points="-4,4 -4,-148 178,-148 178,4 -4,4"/>
<!-- Node1 -->
<g id="node1" class="node"><title>Node1</title>
<polygon fill="#bfbfbf" stroke="black" points="1,-1 1,-31 141,-31 141,-1 1,-1"/>
<text text-anchor="start" x="9" y="-19" font-family="Helvetica,sans-Serif" font-size="10.00">engine.actions.ResetLevel</text>
<text text-anchor="middle" x="71" y="-8" font-family="Helvetica,sans-Serif" font-size="10.00">Action</text>
</g>
<!-- Node2 -->
<g id="node2" class="node"><title>Node2</title>
<g id="a_node2"><a xlink:href="../../d9/dd2/interfaceengine_1_1actions_1_1_action.html" target="_top" xlink:title="engine.actions.Action">
<polygon fill="white" stroke="black" points="55.5,-68.5 55.5,-87.5 174.5,-87.5 174.5,-68.5 55.5,-68.5"/>
<text text-anchor="middle" x="115" y="-75.5" font-family="Helvetica,sans-Serif" font-size="10.00">engine.actions.Action</text>
</a>
</g>
</g>
<!-- Node2&#45;&gt;Node1 -->
<g id="edge1" class="edge"><title>Node2&#45;&gt;Node1</title>
<path fill="none" stroke="midnightblue" d="M102.611,-60.1064C95.9111,-50.9697 87.7304,-39.8142 81.3699,-31.1408"/>
<polygon fill="midnightblue" stroke="midnightblue" points="99.9598,-62.4092 108.696,-68.4035 105.605,-58.2696 99.9598,-62.4092"/>
</g>
<!-- Node3 -->
<g id="node3" class="node"><title>Node3</title>
<g id="a_node3"><a xlink:href="../../d2/d15/interfaceengine_1_1actions_1_1_initializable.html" target="_top" xlink:title="engine.actions.Initializable">
<polygon fill="white" stroke="black" points="0,-124.5 0,-143.5 142,-143.5 142,-124.5 0,-124.5"/>
<text text-anchor="middle" x="71" y="-131.5" font-family="Helvetica,sans-Serif" font-size="10.00">engine.actions.Initializable</text>
</a>
</g>
</g>
<!-- Node3&#45;&gt;Node1 -->
<g id="edge3" class="edge"><title>Node3&#45;&gt;Node1</title>
<path fill="none" stroke="midnightblue" d="M59.2432,-115.769C54.4366,-107.71 49.4387,-97.7548 47,-88 41.9823,-67.9293 52.4557,-45.4014 61.113,-31.211"/>
<polygon fill="midnightblue" stroke="midnightblue" points="56.3091,-117.678 64.6332,-124.232 62.2134,-113.917 56.3091,-117.678"/>
</g>
<!-- Node3&#45;&gt;Node2 -->
<g id="edge2" class="edge"><title>Node3&#45;&gt;Node2</title>
<path fill="none" stroke="midnightblue" d="M84.7345,-116.144C92.4005,-106.736 101.633,-95.4046 107.869,-87.7511"/>
<polygon fill="midnightblue" stroke="midnightblue" points="81.8691,-114.12 78.2657,-124.083 87.2958,-118.541 81.8691,-114.12"/>
</g>
</g>
</svg>
