<?xml version="1.0" encoding="UTF-8" standalone="no"?>
<!DOCTYPE svg PUBLIC "-//W3C//DTD SVG 1.1//EN"
 "http://www.w3.org/Graphics/SVG/1.1/DTD/svg11.dtd">
<!-- Generated by graphviz version 2.36.0 (20140111.2315)
 -->
<!-- Title: authoring.eventhandlers.AddLevelHandler Pages: 1 -->
<svg width="1122pt" height="422pt"
 viewBox="0.00 0.00 1122.00 422.00" xmlns="http://www.w3.org/2000/svg" xmlns:xlink="http://www.w3.org/1999/xlink">
<g id="graph0" class="graph" transform="scale(1 1) rotate(0) translate(4 418)">
<title>authoring.eventhandlers.AddLevelHandler</title>
<polygon fill="white" stroke="none" points="-4,4 -4,-418 1118,-418 1118,4 -4,4"/>
<!-- Node1 -->
<g id="node1" class="node"><title>Node1</title>
<polygon fill="#bfbfbf" stroke="black" points="976.5,-270 976.5,-300 1113.5,-300 1113.5,-270 976.5,-270"/>
<text text-anchor="start" x="984.5" y="-288" font-family="Helvetica,sans-Serif" font-size="10.00">authoring.eventhandlers.</text>
<text text-anchor="middle" x="1045" y="-277" font-family="Helvetica,sans-Serif" font-size="10.00">AddLevelHandler</text>
</g>
<!-- Node2 -->
<g id="node2" class="node"><title>Node2</title>
<g id="a_node2"><a xlink:href="../../d3/d6a/interfaceauthoring_1_1eventhandlers_1_1_game_handler.html" target="_top" xlink:title="authoring.eventhandlers.\lGameHandler\&lt; Event \&gt;">
<polygon fill="white" stroke="black" points="699.5,-345 699.5,-375 836.5,-375 836.5,-345 699.5,-345"/>
<text text-anchor="start" x="707.5" y="-363" font-family="Helvetica,sans-Serif" font-size="10.00">authoring.eventhandlers.</text>
<text text-anchor="middle" x="768" y="-352" font-family="Helvetica,sans-Serif" font-size="10.00">GameHandler&lt; Event &gt;</text>
</a>
</g>
</g>
<!-- Node2&#45;&gt;Node1 -->
<g id="edge1" class="edge"><title>Node2&#45;&gt;Node1</title>
<path fill="none" stroke="midnightblue" d="M846.825,-344.037C881.152,-336.444 921.831,-326.689 958,-316 973.677,-311.367 990.66,-305.444 1005.36,-300.019"/>
<polygon fill="midnightblue" stroke="midnightblue" points="845.875,-340.662 836.856,-346.221 847.373,-347.5 845.875,-340.662"/>
</g>
<!-- Node3 -->
<g id="node3" class="node"><title>Node3</title>
<g id="a_node3"><a xlink:href="../../df/de5/classauthoring_1_1model_1_1collections_1_1_levels_collection.html" target="_top" xlink:title="authoring.model.collections.\lLevelsCollection">
<polygon fill="white" stroke="black" points="692,-296 692,-326 844,-326 844,-296 692,-296"/>
<text text-anchor="start" x="700" y="-314" font-family="Helvetica,sans-Serif" font-size="10.00">authoring.model.collections.</text>
<text text-anchor="middle" x="768" y="-303" font-family="Helvetica,sans-Serif" font-size="10.00">LevelsCollection</text>
</a>
</g>
</g>
<!-- Node3&#45;&gt;Node1 -->
<g id="edge2" class="edge"><title>Node3&#45;&gt;Node1</title>
<path fill="none" stroke="#9a32cd" stroke-dasharray="5,2" d="M854.251,-302.94C893.574,-299.222 939.593,-294.871 976.463,-291.385"/>
<polygon fill="#9a32cd" stroke="#9a32cd" points="853.771,-299.47 844.145,-303.895 854.43,-306.439 853.771,-299.47"/>
<text text-anchor="middle" x="910" y="-304" font-family="Helvetica,sans-Serif" font-size="10.00"> myLevelsCollection</text>
</g>
<!-- Node4 -->
<g id="node4" class="node"><title>Node4</title>
<g id="a_node4"><a xlink:href="../../d4/d3b/classauthoring_1_1model_1_1collections_1_1_general_collection.html" target="_top" xlink:title="authoring.model.collections.\lGeneralCollection\&lt; Level \&gt;">
<polygon fill="white" stroke="black" points="412,-329 412,-359 564,-359 564,-329 412,-329"/>
<text text-anchor="start" x="420" y="-347" font-family="Helvetica,sans-Serif" font-size="10.00">authoring.model.collections.</text>
<text text-anchor="middle" x="488" y="-336" font-family="Helvetica,sans-Serif" font-size="10.00">GeneralCollection&lt; Level &gt;</text>
</a>
</g>
</g>
<!-- Node4&#45;&gt;Node3 -->
<g id="edge3" class="edge"><title>Node4&#45;&gt;Node3</title>
<path fill="none" stroke="midnightblue" d="M574.613,-333.837C612.034,-329.395 655.543,-324.231 691.709,-319.937"/>
<polygon fill="midnightblue" stroke="midnightblue" points="573.748,-330.415 564.231,-335.07 574.574,-337.366 573.748,-330.415"/>
</g>
<!-- Node5 -->
<g id="node5" class="node"><title>Node5</title>
<g id="a_node5"><a xlink:href="../../d2/d89/classauthoring_1_1view_1_1wizards_1_1_level_wizard.html" target="_top" xlink:title="authoring.view.wizards.Level\lWizard">
<polygon fill="white" stroke="black" points="692.5,-247 692.5,-277 843.5,-277 843.5,-247 692.5,-247"/>
<text text-anchor="start" x="700.5" y="-265" font-family="Helvetica,sans-Serif" font-size="10.00">authoring.view.wizards.Level</text>
<text text-anchor="middle" x="768" y="-254" font-family="Helvetica,sans-Serif" font-size="10.00">Wizard</text>
</a>
</g>
</g>
<!-- Node5&#45;&gt;Node1 -->
<g id="edge4" class="edge"><title>Node5&#45;&gt;Node1</title>
<path fill="none" stroke="#9a32cd" stroke-dasharray="5,2" d="M854.049,-263.991C886.626,-265.293 924.098,-267.445 958,-271 964.018,-271.631 970.255,-272.407 976.495,-273.266"/>
<polygon fill="#9a32cd" stroke="#9a32cd" points="853.78,-260.479 843.654,-263.598 853.515,-267.474 853.78,-260.479"/>
<text text-anchor="middle" x="910" y="-274" font-family="Helvetica,sans-Serif" font-size="10.00"> myWizard</text>
</g>
<!-- Node6 -->
<g id="node6" class="node"><title>Node6</title>
<g id="a_node6"><a xlink:href="../../d6/d32/classauthoring_1_1view_1_1wizards_1_1_wizard.html" target="_top" xlink:title="authoring.view.wizards.Wizard">
<polygon fill="white" stroke="black" points="409,-290.5 409,-309.5 567,-309.5 567,-290.5 409,-290.5"/>
<text text-anchor="middle" x="488" y="-297.5" font-family="Helvetica,sans-Serif" font-size="10.00">authoring.view.wizards.Wizard</text>
</a>
</g>
</g>
<!-- Node6&#45;&gt;Node5 -->
<g id="edge5" class="edge"><title>Node6&#45;&gt;Node5</title>
<path fill="none" stroke="midnightblue" d="M569.01,-289.063C607.837,-283.756 654.205,-277.418 692.305,-272.21"/>
<polygon fill="midnightblue" stroke="midnightblue" points="568.226,-285.638 558.792,-290.46 569.174,-292.573 568.226,-285.638"/>
</g>
<!-- Node7 -->
<g id="node7" class="node"><title>Node7</title>
<polygon fill="white" stroke="#bfbfbf" points="170.5,-394.5 170.5,-413.5 215.5,-413.5 215.5,-394.5 170.5,-394.5"/>
<text text-anchor="middle" x="193" y="-401.5" font-family="Helvetica,sans-Serif" font-size="10.00">Stage</text>
</g>
<!-- Node7&#45;&gt;Node6 -->
<g id="edge6" class="edge"><title>Node7&#45;&gt;Node6</title>
<path fill="none" stroke="midnightblue" d="M225.742,-400.034C248.326,-396.868 279.277,-391.83 306,-385 344.265,-375.22 360.301,-382.036 390,-356 403.451,-344.207 394.063,-331.214 408,-320 413.401,-315.654 419.629,-312.239 426.169,-309.558"/>
<polygon fill="midnightblue" stroke="midnightblue" points="225.131,-396.584 215.692,-401.396 226.071,-403.521 225.131,-396.584"/>
</g>
<!-- Node8 -->
<g id="node8" class="node"><title>Node8</title>
<polygon fill="white" stroke="#bfbfbf" points="172.5,-356.5 172.5,-375.5 213.5,-375.5 213.5,-356.5 172.5,-356.5"/>
<text text-anchor="middle" x="193" y="-363.5" font-family="Helvetica,sans-Serif" font-size="10.00">VBox</text>
</g>
<!-- Node8&#45;&gt;Node6 -->
<g id="edge7" class="edge"><title>Node8&#45;&gt;Node6</title>
<path fill="none" stroke="#9a32cd" stroke-dasharray="5,2" d="M223.778,-361.381C262.487,-355.046 331.997,-342.538 390,-326 398.11,-323.688 399.907,-322.37 408,-320 420.627,-316.302 434.506,-312.652 447.06,-309.502"/>
<polygon fill="#9a32cd" stroke="#9a32cd" points="223.028,-357.957 213.712,-363.002 224.141,-364.868 223.028,-357.957"/>
<text text-anchor="middle" x="357" y="-344" font-family="Helvetica,sans-Serif" font-size="10.00"> myWindow</text>
</g>
<!-- Node9 -->
<g id="node9" class="node"><title>Node9</title>
<polygon fill="white" stroke="#bfbfbf" points="80.5,-307 80.5,-337 305.5,-337 305.5,-307 80.5,-307"/>
<text text-anchor="start" x="88.5" y="-325" font-family="Helvetica,sans-Serif" font-size="10.00">Map&lt; String, authoring.view.propertiesview.</text>
<text text-anchor="middle" x="193" y="-314" font-family="Helvetica,sans-Serif" font-size="10.00">PropertyTextField &gt;</text>
</g>
<!-- Node9&#45;&gt;Node6 -->
<g id="edge8" class="edge"><title>Node9&#45;&gt;Node6</title>
<path fill="none" stroke="#9a32cd" stroke-dasharray="5,2" d="M315.769,-312.857C347.263,-310.492 380.326,-308.01 408.91,-305.863"/>
<polygon fill="#9a32cd" stroke="#9a32cd" points="315.316,-309.381 305.607,-313.62 315.841,-316.361 315.316,-309.381"/>
<text text-anchor="middle" x="357" y="-314" font-family="Helvetica,sans-Serif" font-size="10.00"> myMap</text>
</g>
<!-- Node10 -->
<g id="node10" class="node"><title>Node10</title>
<polygon fill="white" stroke="#bfbfbf" points="170,-268.5 170,-287.5 216,-287.5 216,-268.5 170,-268.5"/>
<text text-anchor="middle" x="193" y="-275.5" font-family="Helvetica,sans-Serif" font-size="10.00">Group</text>
</g>
<!-- Node10&#45;&gt;Node6 -->
<g id="edge9" class="edge"><title>Node10&#45;&gt;Node6</title>
<path fill="none" stroke="#9a32cd" stroke-dasharray="5,2" d="M226.223,-280.193C265.068,-282.861 332.326,-287.562 390,-292 396.149,-292.473 402.517,-292.974 408.916,-293.485"/>
<polygon fill="#9a32cd" stroke="#9a32cd" points="226.267,-276.688 216.051,-279.496 225.789,-283.671 226.267,-276.688"/>
<text text-anchor="middle" x="357" y="-295" font-family="Helvetica,sans-Serif" font-size="10.00"> myRoot</text>
</g>
<!-- Node11 -->
<g id="node11" class="node"><title>Node11</title>
<g id="a_node11"><a xlink:href="../../d5/d4e/classauthoring_1_1view_1_1propertiesview_1_1_boolean_field.html" target="_top" xlink:title="authoring.view.propertiesview.\lBooleanField">
<polygon fill="white" stroke="black" points="408.5,-219 408.5,-249 567.5,-249 567.5,-219 408.5,-219"/>
<text text-anchor="start" x="416.5" y="-237" font-family="Helvetica,sans-Serif" font-size="10.00">authoring.view.propertiesview.</text>
<text text-anchor="middle" x="488" y="-226" font-family="Helvetica,sans-Serif" font-size="10.00">BooleanField</text>
</a>
</g>
</g>
<!-- Node11&#45;&gt;Node5 -->
<g id="edge10" class="edge"><title>Node11&#45;&gt;Node5</title>
<path fill="none" stroke="#9a32cd" stroke-dasharray="5,2" d="M577.815,-242.945C614.764,-246.667 657.178,-250.939 692.47,-254.493"/>
<polygon fill="#9a32cd" stroke="#9a32cd" points="577.849,-239.431 567.549,-241.911 577.148,-246.396 577.849,-239.431"/>
<text text-anchor="middle" x="630" y="-256" font-family="Helvetica,sans-Serif" font-size="10.00"> isFirst</text>
</g>
<!-- Node12 -->
<g id="node12" class="node"><title>Node12</title>
<g id="a_node12"><a xlink:href="../../d5/d98/classauthoring_1_1view_1_1propertiesview_1_1_property_field.html" target="_top" xlink:title="authoring.view.propertiesview.\lPropertyField">
<polygon fill="white" stroke="black" points="113.5,-219 113.5,-249 272.5,-249 272.5,-219 113.5,-219"/>
<text text-anchor="start" x="121.5" y="-237" font-family="Helvetica,sans-Serif" font-size="10.00">authoring.view.propertiesview.</text>
<text text-anchor="middle" x="193" y="-226" font-family="Helvetica,sans-Serif" font-size="10.00">PropertyField</text>
</a>
</g>
</g>
<!-- Node12&#45;&gt;Node11 -->
<g id="edge11" class="edge"><title>Node12&#45;&gt;Node11</title>
<path fill="none" stroke="midnightblue" d="M282.538,-234C322.567,-234 369.48,-234 408.265,-234"/>
<polygon fill="midnightblue" stroke="midnightblue" points="282.519,-230.5 272.519,-234 282.519,-237.5 282.519,-230.5"/>
</g>
<!-- Node13 -->
<g id="node13" class="node"><title>Node13</title>
<polygon fill="white" stroke="#bfbfbf" points="0,-224.5 0,-243.5 42,-243.5 42,-224.5 0,-224.5"/>
<text text-anchor="middle" x="21" y="-231.5" font-family="Helvetica,sans-Serif" font-size="10.00">HBox</text>
</g>
<!-- Node13&#45;&gt;Node12 -->
<g id="edge12" class="edge"><title>Node13&#45;&gt;Node12</title>
<path fill="none" stroke="midnightblue" d="M52.5884,-234C69.6372,-234 91.7243,-234 113.271,-234"/>
<polygon fill="midnightblue" stroke="midnightblue" points="52.1688,-230.5 42.1688,-234 52.1688,-237.5 52.1688,-230.5"/>
</g>
<!-- Node14 -->
<g id="node14" class="node"><title>Node14</title>
<polygon fill="white" stroke="#bfbfbf" points="161,-180.5 161,-199.5 225,-199.5 225,-180.5 161,-180.5"/>
<text text-anchor="middle" x="193" y="-187.5" font-family="Helvetica,sans-Serif" font-size="10.00">CheckBox</text>
</g>
<!-- Node14&#45;&gt;Node11 -->
<g id="edge13" class="edge"><title>Node14&#45;&gt;Node11</title>
<path fill="none" stroke="#9a32cd" stroke-dasharray="5,2" d="M235.329,-196.035C275.003,-201.847 336.612,-210.922 390,-219 395.981,-219.905 402.169,-220.847 408.391,-221.799"/>
<polygon fill="#9a32cd" stroke="#9a32cd" points="235.641,-192.543 225.24,-194.558 234.627,-199.47 235.641,-192.543"/>
<text text-anchor="middle" x="357" y="-222" font-family="Helvetica,sans-Serif" font-size="10.00"> myCheckBox</text>
</g>
<!-- Node15 -->
<g id="node15" class="node"><title>Node15</title>
<g id="a_node15"><a xlink:href="../../d4/d04/classauthoring_1_1view_1_1levelview_1_1_levels_view.html" target="_top" xlink:title="authoring.view.levelview.\lLevelsView">
<polygon fill="white" stroke="black" points="702,-93 702,-123 834,-123 834,-93 702,-93"/>
<text text-anchor="start" x="710" y="-111" font-family="Helvetica,sans-Serif" font-size="10.00">authoring.view.levelview.</text>
<text text-anchor="middle" x="768" y="-100" font-family="Helvetica,sans-Serif" font-size="10.00">LevelsView</text>
</a>
</g>
</g>
<!-- Node15&#45;&gt;Node1 -->
<g id="edge14" class="edge"><title>Node15&#45;&gt;Node1</title>
<path fill="none" stroke="#9a32cd" stroke-dasharray="5,2" d="M800.902,-128.533C856.84,-164.537 971.348,-238.239 1020.61,-269.947"/>
<polygon fill="#9a32cd" stroke="#9a32cd" points="802.749,-125.56 792.446,-123.091 798.961,-131.446 802.749,-125.56"/>
<text text-anchor="middle" x="910" y="-231" font-family="Helvetica,sans-Serif" font-size="10.00"> myLevels</text>
</g>
<!-- Node16 -->
<g id="node16" class="node"><title>Node16</title>
<g id="a_node16"><a xlink:href="../../d0/d3f/classauthoring_1_1view_1_1baseclasses_1_1_tab_view.html" target="_top" xlink:title="authoring.view.baseclasses.\lTabView">
<polygon fill="white" stroke="black" points="413.5,-137 413.5,-167 562.5,-167 562.5,-137 413.5,-137"/>
<text text-anchor="start" x="421.5" y="-155" font-family="Helvetica,sans-Serif" font-size="10.00">authoring.view.baseclasses.</text>
<text text-anchor="middle" x="488" y="-144" font-family="Helvetica,sans-Serif" font-size="10.00">TabView</text>
</a>
</g>
</g>
<!-- Node16&#45;&gt;Node15 -->
<g id="edge15" class="edge"><title>Node16&#45;&gt;Node15</title>
<path fill="none" stroke="midnightblue" d="M572.837,-138.731C614.221,-132.181 663.392,-124.398 701.897,-118.304"/>
<polygon fill="midnightblue" stroke="midnightblue" points="572.099,-135.304 562.769,-140.324 573.193,-142.218 572.099,-135.304"/>
</g>
<!-- Node17 -->
<g id="node17" class="node"><title>Node17</title>
<polygon fill="white" stroke="#bfbfbf" points="165,-142.5 165,-161.5 221,-161.5 221,-142.5 165,-142.5"/>
<text text-anchor="middle" x="193" y="-149.5" font-family="Helvetica,sans-Serif" font-size="10.00">TabPane</text>
</g>
<!-- Node17&#45;&gt;Node16 -->
<g id="edge16" class="edge"><title>Node17&#45;&gt;Node16</title>
<path fill="none" stroke="midnightblue" d="M231.072,-152C276.672,-152 355.163,-152 413.229,-152"/>
<polygon fill="midnightblue" stroke="midnightblue" points="231.04,-148.5 221.04,-152 231.04,-155.5 231.04,-148.5"/>
</g>
<!-- Node18 -->
<g id="node18" class="node"><title>Node18</title>
<polygon fill="white" stroke="#bfbfbf" points="146.5,-104.5 146.5,-123.5 239.5,-123.5 239.5,-104.5 146.5,-104.5"/>
<text text-anchor="middle" x="193" y="-111.5" font-family="Helvetica,sans-Serif" font-size="10.00">ResourceBundle</text>
</g>
<!-- Node18&#45;&gt;Node16 -->
<g id="edge17" class="edge"><title>Node18&#45;&gt;Node16</title>
<path fill="none" stroke="#9a32cd" stroke-dasharray="5,2" d="M249.767,-119.994C289.027,-124.349 342.786,-130.581 390,-137 397.598,-138.033 405.523,-139.166 413.423,-140.333"/>
<polygon fill="#9a32cd" stroke="#9a32cd" points="249.928,-116.491 239.604,-118.873 249.16,-123.449 249.928,-116.491"/>
<text text-anchor="middle" x="357" y="-140" font-family="Helvetica,sans-Serif" font-size="10.00"> myLanguage</text>
</g>
<!-- Node19 -->
<g id="node19" class="node"><title>Node19</title>
<g id="a_node19"><a xlink:href="../../d2/d4f/interfacedata_1_1_observer.html" target="_top" xlink:title="data.Observer">
<polygon fill="white" stroke="black" points="445.5,-98.5 445.5,-117.5 530.5,-117.5 530.5,-98.5 445.5,-98.5"/>
<text text-anchor="middle" x="488" y="-105.5" font-family="Helvetica,sans-Serif" font-size="10.00">data.Observer</text>
</a>
</g>
</g>
<!-- Node19&#45;&gt;Node15 -->
<g id="edge18" class="edge"><title>Node19&#45;&gt;Node15</title>
<path fill="none" stroke="midnightblue" d="M540.854,-108C586.356,-108 652.74,-108 701.823,-108"/>
<polygon fill="midnightblue" stroke="midnightblue" points="540.619,-104.5 530.619,-108 540.619,-111.5 540.619,-104.5"/>
</g>
<!-- Node20 -->
<g id="node20" class="node"><title>Node20</title>
<polygon fill="white" stroke="#bfbfbf" points="472,-60.5 472,-79.5 504,-79.5 504,-60.5 472,-60.5"/>
<text text-anchor="middle" x="488" y="-67.5" font-family="Helvetica,sans-Serif" font-size="10.00">File</text>
</g>
<!-- Node20&#45;&gt;Node15 -->
<g id="edge19" class="edge"><title>Node20&#45;&gt;Node15</title>
<path fill="none" stroke="#9a32cd" stroke-dasharray="5,2" d="M514.4,-72.8628C550.089,-76.9524 617.088,-84.8753 674,-93 682.986,-94.2828 692.446,-95.7144 701.754,-97.17"/>
<polygon fill="#9a32cd" stroke="#9a32cd" points="514.706,-69.3752 504.374,-71.7206 513.914,-76.3302 514.706,-69.3752"/>
<text text-anchor="middle" x="630" y="-96" font-family="Helvetica,sans-Serif" font-size="10.00"> myGameLocation</text>
</g>
<!-- Node21 -->
<g id="node21" class="node"><title>Node21</title>
<g id="a_node21"><a xlink:href="../../d3/d6a/interfaceauthoring_1_1eventhandlers_1_1_game_handler.html" target="_top" xlink:title="authoring.eventhandlers.\lGameHandler\&lt; T extends\l Event \&gt;">
<polygon fill="white" stroke="black" points="417.5,-0.5 417.5,-41.5 558.5,-41.5 558.5,-0.5 417.5,-0.5"/>
<text text-anchor="start" x="425.5" y="-29.5" font-family="Helvetica,sans-Serif" font-size="10.00">authoring.eventhandlers.</text>
<text text-anchor="start" x="425.5" y="-18.5" font-family="Helvetica,sans-Serif" font-size="10.00">GameHandler&lt; T extends</text>
<text text-anchor="middle" x="488" y="-7.5" font-family="Helvetica,sans-Serif" font-size="10.00"> Event &gt;</text>
</a>
</g>
</g>
<!-- Node21&#45;&gt;Node15 -->
<g id="edge20" class="edge"><title>Node21&#45;&gt;Node15</title>
<path fill="none" stroke="#9a32cd" stroke-dasharray="5,2" d="M568.82,-37.6879C601.758,-45.3866 640.086,-55.4037 674,-67 695.371,-74.3074 718.621,-84.5574 736.528,-92.9806"/>
<polygon fill="#9a32cd" stroke="#9a32cd" points="569.313,-34.2097 558.782,-35.3738 567.74,-41.0308 569.313,-34.2097"/>
<text text-anchor="middle" x="630" y="-70" font-family="Helvetica,sans-Serif" font-size="10.00"> myEvents</text>
</g>
<!-- Node22 -->
<g id="node22" class="node"><title>Node22</title>
<polygon fill="white" stroke="#bfbfbf" points="105,-11.5 105,-30.5 281,-30.5 281,-11.5 105,-11.5"/>
<text text-anchor="middle" x="193" y="-18.5" font-family="Helvetica,sans-Serif" font-size="10.00">javafx::event::EventHandler&lt; T &gt;</text>
</g>
<!-- Node22&#45;&gt;Node21 -->
<g id="edge21" class="edge"><title>Node22&#45;&gt;Node21</title>
<path fill="none" stroke="midnightblue" d="M291.2,-21C332.486,-21 379.686,-21 417.398,-21"/>
<polygon fill="midnightblue" stroke="midnightblue" points="291.116,-17.5001 281.116,-21 291.116,-24.5001 291.116,-17.5001"/>
</g>
</g>
</svg>
