<?xml version="1.0" encoding="UTF-8" standalone="no"?>
<!DOCTYPE svg PUBLIC "-//W3C//DTD SVG 1.1//EN"
 "http://www.w3.org/Graphics/SVG/1.1/DTD/svg11.dtd">
<!-- Generated by graphviz version 2.36.0 (20140111.2315)
 -->
<!-- Title: authoring.model.AuthoringModel.save Pages: 1 -->
<svg width="794pt" height="475pt"
 viewBox="0.00 0.00 794.00 475.00" xmlns="http://www.w3.org/2000/svg" xmlns:xlink="http://www.w3.org/1999/xlink">
<g id="graph0" class="graph" transform="scale(1 1) rotate(0) translate(4 471)">
<title>authoring.model.AuthoringModel.save</title>
<polygon fill="white" stroke="none" points="-4,4 -4,-471 790,-471 790,4 -4,4"/>
<!-- Node1 -->
<g id="node1" class="node"><title>Node1</title>
<polygon fill="#bfbfbf" stroke="black" points="0.5,-149 0.5,-179 145.5,-179 145.5,-149 0.5,-149"/>
<text text-anchor="start" x="8.5" y="-167" font-family="Helvetica,sans-Serif" font-size="10.00">authoring.model.Authoring</text>
<text text-anchor="middle" x="73" y="-156" font-family="Helvetica,sans-Serif" font-size="10.00">Model.save</text>
</g>
<!-- Node2 -->
<g id="node2" class="node"><title>Node2</title>
<g id="a_node2"><a xlink:href="../../d4/d68/classauthoring_1_1model_1_1_authoring_model.html#ab3e6b375a2e8fdc73b351fc873ce214e" target="_top" xlink:title="authoring.model.Authoring\lModel.convertToSerializable">
<polygon fill="white" stroke="black" points="195.5,-216 195.5,-246 344.5,-246 344.5,-216 195.5,-216"/>
<text text-anchor="start" x="203.5" y="-234" font-family="Helvetica,sans-Serif" font-size="10.00">authoring.model.Authoring</text>
<text text-anchor="middle" x="270" y="-223" font-family="Helvetica,sans-Serif" font-size="10.00">Model.convertToSerializable</text>
</a>
</g>
</g>
<!-- Node1&#45;&gt;Node2 -->
<g id="edge1" class="edge"><title>Node1&#45;&gt;Node2</title>
<path fill="none" stroke="midnightblue" d="M117.762,-179.036C146.639,-188.958 184.663,-202.023 215.359,-212.57"/>
<polygon fill="midnightblue" stroke="midnightblue" points="214.453,-215.959 225.047,-215.898 216.727,-209.339 214.453,-215.959"/>
</g>
<!-- Node12 -->
<g id="node12" class="node"><title>Node12</title>
<g id="a_node12"><a xlink:href="../../d1/d95/classdata_1_1_data_manager.html#a7488aded0e4bff63c68642695eed81b5" target="_top" xlink:title="data.DataManager.writeGameFile">
<polygon fill="white" stroke="black" points="182,-69.5 182,-88.5 358,-88.5 358,-69.5 182,-69.5"/>
<text text-anchor="middle" x="270" y="-76.5" font-family="Helvetica,sans-Serif" font-size="10.00">data.DataManager.writeGameFile</text>
</a>
</g>
</g>
<!-- Node1&#45;&gt;Node12 -->
<g id="edge11" class="edge"><title>Node1&#45;&gt;Node12</title>
<path fill="none" stroke="midnightblue" d="M108.413,-148.999C144.992,-133.055 202.331,-108.061 237.683,-92.6512"/>
<polygon fill="midnightblue" stroke="midnightblue" points="239.267,-95.7788 247.035,-88.5744 236.47,-89.3619 239.267,-95.7788"/>
</g>
<!-- Node3 -->
<g id="node3" class="node"><title>Node3</title>
<g id="a_node3"><a xlink:href="../../d4/d3b/classauthoring_1_1model_1_1collections_1_1_general_collection.html#a1bdc1047736bbb23259d6a7fe4c6deeb" target="_top" xlink:title="authoring.model.collections.\lGeneralCollection.add">
<polygon fill="white" stroke="black" points="407,-437 407,-467 559,-467 559,-437 407,-437"/>
<text text-anchor="start" x="415" y="-455" font-family="Helvetica,sans-Serif" font-size="10.00">authoring.model.collections.</text>
<text text-anchor="middle" x="483" y="-444" font-family="Helvetica,sans-Serif" font-size="10.00">GeneralCollection.add</text>
</a>
</g>
</g>
<!-- Node2&#45;&gt;Node3 -->
<g id="edge2" class="edge"><title>Node2&#45;&gt;Node3</title>
<path fill="none" stroke="midnightblue" d="M276.146,-246.159C289.453,-283.026 328.602,-377.943 394,-427 396.523,-428.893 399.184,-430.642 401.947,-432.259"/>
<polygon fill="midnightblue" stroke="midnightblue" points="400.582,-435.494 411.071,-436.987 403.802,-429.278 400.582,-435.494"/>
</g>
<!-- Node4 -->
<g id="node4" class="node"><title>Node4</title>
<g id="a_node4"><a xlink:href="../../d7/dbf/classauthoring_1_1model_1_1_game_data.html#a4a3bfa5ed2418ba59bdf3e73b4ce310a" target="_top" xlink:title="authoring.model.GameData.get\lConditions">
<polygon fill="white" stroke="black" points="398,-388 398,-418 568,-418 568,-388 398,-388"/>
<text text-anchor="start" x="406" y="-406" font-family="Helvetica,sans-Serif" font-size="10.00">authoring.model.GameData.get</text>
<text text-anchor="middle" x="483" y="-395" font-family="Helvetica,sans-Serif" font-size="10.00">Conditions</text>
</a>
</g>
</g>
<!-- Node2&#45;&gt;Node4 -->
<g id="edge3" class="edge"><title>Node2&#45;&gt;Node4</title>
<path fill="none" stroke="midnightblue" d="M279.35,-246.047C296.69,-275.88 339.561,-342.688 394,-378 397.185,-380.066 400.543,-381.965 404.014,-383.708"/>
<polygon fill="midnightblue" stroke="midnightblue" points="402.868,-387.032 413.422,-387.972 405.758,-380.656 402.868,-387.032"/>
</g>
<!-- Node5 -->
<g id="node5" class="node"><title>Node5</title>
<g id="a_node5"><a xlink:href="../../d7/dbf/classauthoring_1_1model_1_1_game_data.html#ab6eab149af02a9649d0e2b162daf3600" target="_top" xlink:title="authoring.model.GameData.get\lGameObjects">
<polygon fill="white" stroke="black" points="398,-339 398,-369 568,-369 568,-339 398,-339"/>
<text text-anchor="start" x="406" y="-357" font-family="Helvetica,sans-Serif" font-size="10.00">authoring.model.GameData.get</text>
<text text-anchor="middle" x="483" y="-346" font-family="Helvetica,sans-Serif" font-size="10.00">GameObjects</text>
</a>
</g>
</g>
<!-- Node2&#45;&gt;Node5 -->
<g id="edge4" class="edge"><title>Node2&#45;&gt;Node5</title>
<path fill="none" stroke="midnightblue" d="M285.892,-246.201C307.716,-267.647 350.533,-306.658 394,-329 398.476,-331.301 403.192,-333.415 408.021,-335.353"/>
<polygon fill="midnightblue" stroke="midnightblue" points="406.818,-338.64 417.411,-338.868 409.272,-332.084 406.818,-338.64"/>
</g>
<!-- Node6 -->
<g id="node6" class="node"><title>Node6</title>
<g id="a_node6"><a xlink:href="../../d7/dbf/classauthoring_1_1model_1_1_game_data.html#a5646a2267289545d487d4fe4a8a6298e" target="_top" xlink:title="authoring.model.GameData.get\lImages">
<polygon fill="white" stroke="black" points="398,-290 398,-320 568,-320 568,-290 398,-290"/>
<text text-anchor="start" x="406" y="-308" font-family="Helvetica,sans-Serif" font-size="10.00">authoring.model.GameData.get</text>
<text text-anchor="middle" x="483" y="-297" font-family="Helvetica,sans-Serif" font-size="10.00">Images</text>
</a>
</g>
</g>
<!-- Node2&#45;&gt;Node6 -->
<g id="edge5" class="edge"><title>Node2&#45;&gt;Node6</title>
<path fill="none" stroke="midnightblue" d="M305.902,-246.011C330.331,-256.244 363.861,-269.746 394,-280 401.109,-282.419 408.594,-284.797 416.073,-287.067"/>
<polygon fill="midnightblue" stroke="midnightblue" points="415.288,-290.485 425.871,-289.983 417.285,-283.776 415.288,-290.485"/>
</g>
<!-- Node7 -->
<g id="node7" class="node"><title>Node7</title>
<g id="a_node7"><a xlink:href="../../d7/dbf/classauthoring_1_1model_1_1_game_data.html#a5188274f1af76c8d2e05a7c8dcba3805" target="_top" xlink:title="authoring.model.GameData.get\lLevels">
<polygon fill="white" stroke="black" points="398,-241 398,-271 568,-271 568,-241 398,-241"/>
<text text-anchor="start" x="406" y="-259" font-family="Helvetica,sans-Serif" font-size="10.00">authoring.model.GameData.get</text>
<text text-anchor="middle" x="483" y="-248" font-family="Helvetica,sans-Serif" font-size="10.00">Levels</text>
</a>
</g>
</g>
<!-- Node2&#45;&gt;Node7 -->
<g id="edge6" class="edge"><title>Node2&#45;&gt;Node7</title>
<path fill="none" stroke="midnightblue" d="M344.501,-239.709C358.513,-241.369 373.357,-243.128 387.908,-244.852"/>
<polygon fill="midnightblue" stroke="midnightblue" points="387.579,-248.337 397.921,-246.038 388.402,-241.386 387.579,-248.337"/>
</g>
<!-- Node8 -->
<g id="node8" class="node"><title>Node8</title>
<g id="a_node8"><a xlink:href="../../d7/dbf/classauthoring_1_1model_1_1_game_data.html#a4c24125abc447d6793b3d31091d7912a" target="_top" xlink:title="authoring.model.GameData.get\lSounds">
<polygon fill="white" stroke="black" points="398,-192 398,-222 568,-222 568,-192 398,-192"/>
<text text-anchor="start" x="406" y="-210" font-family="Helvetica,sans-Serif" font-size="10.00">authoring.model.GameData.get</text>
<text text-anchor="middle" x="483" y="-199" font-family="Helvetica,sans-Serif" font-size="10.00">Sounds</text>
</a>
</g>
</g>
<!-- Node2&#45;&gt;Node8 -->
<g id="edge7" class="edge"><title>Node2&#45;&gt;Node8</title>
<path fill="none" stroke="midnightblue" d="M344.501,-222.64C358.513,-221.046 373.357,-219.357 387.908,-217.702"/>
<polygon fill="midnightblue" stroke="midnightblue" points="388.381,-221.171 397.921,-216.563 387.589,-214.216 388.381,-221.171"/>
</g>
<!-- Node9 -->
<g id="node9" class="node"><title>Node9</title>
<g id="a_node9"><a xlink:href="../../df/d84/classengine_1_1level_1_1_level.html#a1b07e6b160c4d26c8f02c1d57ef117bc" target="_top" xlink:title="engine.level.Level.setConditionIds">
<polygon fill="white" stroke="black" points="394,-153.5 394,-172.5 572,-172.5 572,-153.5 394,-153.5"/>
<text text-anchor="middle" x="483" y="-160.5" font-family="Helvetica,sans-Serif" font-size="10.00">engine.level.Level.setConditionIds</text>
</a>
</g>
</g>
<!-- Node2&#45;&gt;Node9 -->
<g id="edge8" class="edge"><title>Node2&#45;&gt;Node9</title>
<path fill="none" stroke="midnightblue" d="M305.504,-215.944C329.895,-205.696 363.54,-192.348 394,-183 403.661,-180.035 414.04,-177.295 424.162,-174.854"/>
<polygon fill="midnightblue" stroke="midnightblue" points="425.221,-178.2 434.162,-172.515 423.627,-171.384 425.221,-178.2"/>
</g>
<!-- Node10 -->
<g id="node10" class="node"><title>Node10</title>
<g id="a_node10"><a xlink:href="../../df/d84/classengine_1_1level_1_1_level.html#a978e8f0a732aecf29203b898e27b16b0" target="_top" xlink:title="engine.level.Level.setIdentifier">
<polygon fill="white" stroke="black" points="402.5,-115.5 402.5,-134.5 563.5,-134.5 563.5,-115.5 402.5,-115.5"/>
<text text-anchor="middle" x="483" y="-122.5" font-family="Helvetica,sans-Serif" font-size="10.00">engine.level.Level.setIdentifier</text>
</a>
</g>
</g>
<!-- Node2&#45;&gt;Node10 -->
<g id="edge9" class="edge"><title>Node2&#45;&gt;Node10</title>
<path fill="none" stroke="midnightblue" d="M287.564,-215.914C310.005,-196.311 352.096,-162.419 394,-144 399.728,-141.482 405.816,-139.287 412.012,-137.376"/>
<polygon fill="midnightblue" stroke="midnightblue" points="413.135,-140.695 421.801,-134.6 411.225,-133.961 413.135,-140.695"/>
</g>
<!-- Node11 -->
<g id="node11" class="node"><title>Node11</title>
<g id="a_node11"><a xlink:href="../../df/d84/classengine_1_1level_1_1_level.html#ac6aa999d5ea5fa90274d0d201dab1f8c" target="_top" xlink:title="engine.level.Level.setStart\lIndicator">
<polygon fill="white" stroke="black" points="411.5,-66 411.5,-96 554.5,-96 554.5,-66 411.5,-66"/>
<text text-anchor="start" x="419.5" y="-84" font-family="Helvetica,sans-Serif" font-size="10.00">engine.level.Level.setStart</text>
<text text-anchor="middle" x="483" y="-73" font-family="Helvetica,sans-Serif" font-size="10.00">Indicator</text>
</a>
</g>
</g>
<!-- Node2&#45;&gt;Node11 -->
<g id="edge10" class="edge"><title>Node2&#45;&gt;Node11</title>
<path fill="none" stroke="midnightblue" d="M281.694,-215.825C301.048,-189.492 344.502,-135.344 394,-106 397.612,-103.859 401.416,-101.893 405.335,-100.09"/>
<polygon fill="midnightblue" stroke="midnightblue" points="406.79,-103.275 414.649,-96.1698 404.074,-96.8231 406.79,-103.275"/>
</g>
<!-- Node13 -->
<g id="node13" class="node"><title>Node13</title>
<g id="a_node13"><a xlink:href="../../d1/d95/classdata_1_1_data_manager.html#a8f772b354e4dc10e629b7895606967e7" target="_top" xlink:title="data.DataManager.writeFile">
<polygon fill="white" stroke="black" points="410,-27.5 410,-46.5 556,-46.5 556,-27.5 410,-27.5"/>
<text text-anchor="middle" x="483" y="-34.5" font-family="Helvetica,sans-Serif" font-size="10.00">data.DataManager.writeFile</text>
</a>
</g>
</g>
<!-- Node12&#45;&gt;Node13 -->
<g id="edge12" class="edge"><title>Node12&#45;&gt;Node13</title>
<path fill="none" stroke="midnightblue" d="M318.879,-69.4695C350.063,-63.2623 390.936,-55.1265 423.966,-48.5518"/>
<polygon fill="midnightblue" stroke="midnightblue" points="424.821,-51.9503 433.946,-46.5653 423.455,-45.085 424.821,-51.9503"/>
</g>
<!-- Node14 -->
<g id="node14" class="node"><title>Node14</title>
<g id="a_node14"><a xlink:href="../../d1/d95/classdata_1_1_data_manager.html#ae2b9bbc41a318b6009f75999180c9c2a" target="_top" xlink:title="data.DataManager.hasValidName">
<polygon fill="white" stroke="black" points="608,-49.5 608,-68.5 786,-68.5 786,-49.5 608,-49.5"/>
<text text-anchor="middle" x="697" y="-56.5" font-family="Helvetica,sans-Serif" font-size="10.00">data.DataManager.hasValidName</text>
</a>
</g>
</g>
<!-- Node13&#45;&gt;Node14 -->
<g id="edge13" class="edge"><title>Node13&#45;&gt;Node14</title>
<path fill="none" stroke="midnightblue" d="M556.069,-44.4789C569.496,-45.8722 583.734,-47.3498 597.789,-48.8083"/>
<polygon fill="midnightblue" stroke="midnightblue" points="597.668,-52.3145 607.976,-49.8654 598.391,-45.3518 597.668,-52.3145"/>
</g>
<!-- Node15 -->
<g id="node15" class="node"><title>Node15</title>
<g id="a_node15"><a xlink:href="../../d1/d95/classdata_1_1_data_manager.html#aae0df3600a2db2777609fe47c05244e8" target="_top" xlink:title="data.DataManager.checkFor\lExtension">
<polygon fill="white" stroke="black" points="621,-0 621,-30 773,-30 773,-0 621,-0"/>
<text text-anchor="start" x="629" y="-18" font-family="Helvetica,sans-Serif" font-size="10.00">data.DataManager.checkFor</text>
<text text-anchor="middle" x="697" y="-7" font-family="Helvetica,sans-Serif" font-size="10.00">Extension</text>
</a>
</g>
</g>
<!-- Node13&#45;&gt;Node15 -->
<g id="edge14" class="edge"><title>Node13&#45;&gt;Node15</title>
<path fill="none" stroke="midnightblue" d="M556.069,-29.5211C573.692,-27.6923 592.714,-25.7183 610.883,-23.8328"/>
<polygon fill="midnightblue" stroke="midnightblue" points="611.29,-27.3095 620.876,-22.7959 610.568,-20.3469 611.29,-27.3095"/>
</g>
</g>
</svg>
