<?xml version="1.0" encoding="UTF-8" standalone="no"?>
<!DOCTYPE svg PUBLIC "-//W3C//DTD SVG 1.1//EN"
 "http://www.w3.org/Graphics/SVG/1.1/DTD/svg11.dtd">
<!-- Generated by graphviz version 2.36.0 (20140111.2315)
 -->
<!-- Title: authoring.model.AuthoringModel.convertFromSerializable Pages: 1 -->
<svg width="386pt" height="731pt"
 viewBox="0.00 0.00 386.00 731.00" xmlns="http://www.w3.org/2000/svg" xmlns:xlink="http://www.w3.org/1999/xlink">
<g id="graph0" class="graph" transform="scale(1 1) rotate(0) translate(4 727)">
<title>authoring.model.AuthoringModel.convertFromSerializable</title>
<polygon fill="white" stroke="none" points="-4,4 -4,-727 382,-727 382,4 -4,4"/>
<!-- Node1 -->
<g id="node1" class="node"><title>Node1</title>
<polygon fill="#bfbfbf" stroke="black" points="0.5,-325 0.5,-355 163.5,-355 163.5,-325 0.5,-325"/>
<text text-anchor="start" x="8.5" y="-343" font-family="Helvetica,sans-Serif" font-size="10.00">authoring.model.Authoring</text>
<text text-anchor="middle" x="82" y="-332" font-family="Helvetica,sans-Serif" font-size="10.00">Model.convertFromSerializable</text>
</g>
<!-- Node2 -->
<g id="node2" class="node"><title>Node2</title>
<g id="a_node2"><a xlink:href="../../df/de5/classauthoring_1_1model_1_1collections_1_1_levels_collection.html#ab355be93ea3c8a0f359099c4bf93ae10" target="_top" xlink:title="authoring.model.collections.\lLevelsCollection.add">
<polygon fill="white" stroke="black" points="213,-693 213,-723 365,-723 365,-693 213,-693"/>
<text text-anchor="start" x="221" y="-711" font-family="Helvetica,sans-Serif" font-size="10.00">authoring.model.collections.</text>
<text text-anchor="middle" x="289" y="-700" font-family="Helvetica,sans-Serif" font-size="10.00">LevelsCollection.add</text>
</a>
</g>
</g>
<!-- Node1&#45;&gt;Node2 -->
<g id="edge1" class="edge"><title>Node1&#45;&gt;Node2</title>
<path fill="none" stroke="midnightblue" d="M83.4412,-355.279C85.8346,-408.74 101.212,-589.213 200,-683 201.512,-684.435 203.1,-685.789 204.752,-687.066"/>
<polygon fill="midnightblue" stroke="midnightblue" points="203.223,-690.25 213.498,-692.831 207.075,-684.405 203.223,-690.25"/>
</g>
<!-- Node3 -->
<g id="node3" class="node"><title>Node3</title>
<g id="a_node3"><a xlink:href="../../db/d2a/classauthoring_1_1model_1_1collections_1_1_conditions_collection.html#af4aa1e8459d542b7f0e78ffe3b004d77" target="_top" xlink:title="authoring.model.collections.\lConditionsCollection.add">
<polygon fill="white" stroke="black" points="213,-644 213,-674 365,-674 365,-644 213,-644"/>
<text text-anchor="start" x="221" y="-662" font-family="Helvetica,sans-Serif" font-size="10.00">authoring.model.collections.</text>
<text text-anchor="middle" x="289" y="-651" font-family="Helvetica,sans-Serif" font-size="10.00">ConditionsCollection.add</text>
</a>
</g>
</g>
<!-- Node1&#45;&gt;Node3 -->
<g id="edge2" class="edge"><title>Node1&#45;&gt;Node3</title>
<path fill="none" stroke="midnightblue" d="M84.4055,-355.12C89.7191,-403.416 112.948,-555.4 200,-634 201.724,-635.557 203.538,-637.017 205.427,-638.387"/>
<polygon fill="midnightblue" stroke="midnightblue" points="203.799,-641.497 214.134,-643.834 207.512,-635.563 203.799,-641.497"/>
</g>
<!-- Node4 -->
<g id="node4" class="node"><title>Node4</title>
<g id="a_node4"><a xlink:href="../../d4/d3b/classauthoring_1_1model_1_1collections_1_1_general_collection.html#a1bdc1047736bbb23259d6a7fe4c6deeb" target="_top" xlink:title="authoring.model.collections.\lGeneralCollection.add">
<polygon fill="white" stroke="black" points="213,-595 213,-625 365,-625 365,-595 213,-595"/>
<text text-anchor="start" x="221" y="-613" font-family="Helvetica,sans-Serif" font-size="10.00">authoring.model.collections.</text>
<text text-anchor="middle" x="289" y="-602" font-family="Helvetica,sans-Serif" font-size="10.00">GeneralCollection.add</text>
</a>
</g>
</g>
<!-- Node1&#45;&gt;Node4 -->
<g id="edge3" class="edge"><title>Node1&#45;&gt;Node4</title>
<path fill="none" stroke="midnightblue" d="M85.7091,-355.009C94.2297,-397.782 124.538,-521.306 200,-585 202.018,-586.703 204.145,-588.29 206.358,-589.77"/>
<polygon fill="midnightblue" stroke="midnightblue" points="204.871,-592.954 215.275,-594.958 208.391,-586.904 204.871,-592.954"/>
</g>
<!-- Node5 -->
<g id="node5" class="node"><title>Node5</title>
<g id="a_node5"><a xlink:href="../../d7/dbf/classauthoring_1_1model_1_1_game_data.html#a4a3bfa5ed2418ba59bdf3e73b4ce310a" target="_top" xlink:title="authoring.model.GameData.get\lConditions">
<polygon fill="white" stroke="black" points="204,-546 204,-576 374,-576 374,-546 204,-546"/>
<text text-anchor="start" x="212" y="-564" font-family="Helvetica,sans-Serif" font-size="10.00">authoring.model.GameData.get</text>
<text text-anchor="middle" x="289" y="-553" font-family="Helvetica,sans-Serif" font-size="10.00">Conditions</text>
</a>
</g>
</g>
<!-- Node1&#45;&gt;Node5 -->
<g id="edge4" class="edge"><title>Node1&#45;&gt;Node5</title>
<path fill="none" stroke="midnightblue" d="M87.6726,-355.153C99.8299,-392.006 136.03,-486.892 200,-536 202.441,-537.874 205.016,-539.607 207.692,-541.211"/>
<polygon fill="midnightblue" stroke="midnightblue" points="206.062,-544.308 216.537,-545.902 209.343,-538.124 206.062,-544.308"/>
</g>
<!-- Node6 -->
<g id="node6" class="node"><title>Node6</title>
<g id="a_node6"><a xlink:href="../../d7/dbf/classauthoring_1_1model_1_1_game_data.html#ab6eab149af02a9649d0e2b162daf3600" target="_top" xlink:title="authoring.model.GameData.get\lGameObjects">
<polygon fill="white" stroke="black" points="204,-497 204,-527 374,-527 374,-497 204,-497"/>
<text text-anchor="start" x="212" y="-515" font-family="Helvetica,sans-Serif" font-size="10.00">authoring.model.GameData.get</text>
<text text-anchor="middle" x="289" y="-504" font-family="Helvetica,sans-Serif" font-size="10.00">GameObjects</text>
</a>
</g>
</g>
<!-- Node1&#45;&gt;Node6 -->
<g id="edge5" class="edge"><title>Node1&#45;&gt;Node6</title>
<path fill="none" stroke="midnightblue" d="M90.7469,-355.055C106.889,-384.903 147.066,-451.736 200,-487 203.09,-489.058 206.349,-490.949 209.721,-492.686"/>
<polygon fill="midnightblue" stroke="midnightblue" points="208.326,-495.897 218.871,-496.933 211.274,-489.548 208.326,-495.897"/>
</g>
<!-- Node7 -->
<g id="node7" class="node"><title>Node7</title>
<g id="a_node7"><a xlink:href="../../d7/dbf/classauthoring_1_1model_1_1_game_data.html#a5646a2267289545d487d4fe4a8a6298e" target="_top" xlink:title="authoring.model.GameData.get\lImages">
<polygon fill="white" stroke="black" points="204,-448 204,-478 374,-478 374,-448 204,-448"/>
<text text-anchor="start" x="212" y="-466" font-family="Helvetica,sans-Serif" font-size="10.00">authoring.model.GameData.get</text>
<text text-anchor="middle" x="289" y="-455" font-family="Helvetica,sans-Serif" font-size="10.00">Images</text>
</a>
</g>
</g>
<!-- Node1&#45;&gt;Node7 -->
<g id="edge6" class="edge"><title>Node1&#45;&gt;Node7</title>
<path fill="none" stroke="midnightblue" d="M97.0114,-355.24C117.584,-376.734 158.086,-415.803 200,-438 204.25,-440.251 208.726,-442.319 213.315,-444.216"/>
<polygon fill="midnightblue" stroke="midnightblue" points="212.266,-447.562 222.857,-447.874 214.772,-441.026 212.266,-447.562"/>
</g>
<!-- Node8 -->
<g id="node8" class="node"><title>Node8</title>
<g id="a_node8"><a xlink:href="../../d7/dbf/classauthoring_1_1model_1_1_game_data.html#a5188274f1af76c8d2e05a7c8dcba3805" target="_top" xlink:title="authoring.model.GameData.get\lLevels">
<polygon fill="white" stroke="black" points="204,-399 204,-429 374,-429 374,-399 204,-399"/>
<text text-anchor="start" x="212" y="-417" font-family="Helvetica,sans-Serif" font-size="10.00">authoring.model.GameData.get</text>
<text text-anchor="middle" x="289" y="-406" font-family="Helvetica,sans-Serif" font-size="10.00">Levels</text>
</a>
</g>
</g>
<!-- Node1&#45;&gt;Node8 -->
<g id="edge7" class="edge"><title>Node1&#45;&gt;Node8</title>
<path fill="none" stroke="midnightblue" d="M115.873,-355.012C139.098,-365.31 171.108,-378.887 200,-389 206.905,-391.417 214.174,-393.774 221.453,-396.013"/>
<polygon fill="midnightblue" stroke="midnightblue" points="220.767,-399.462 231.351,-398.99 222.783,-392.758 220.767,-399.462"/>
</g>
<!-- Node9 -->
<g id="node9" class="node"><title>Node9</title>
<g id="a_node9"><a xlink:href="../../d7/dbf/classauthoring_1_1model_1_1_game_data.html#a4c24125abc447d6793b3d31091d7912a" target="_top" xlink:title="authoring.model.GameData.get\lSounds">
<polygon fill="white" stroke="black" points="204,-350 204,-380 374,-380 374,-350 204,-350"/>
<text text-anchor="start" x="212" y="-368" font-family="Helvetica,sans-Serif" font-size="10.00">authoring.model.GameData.get</text>
<text text-anchor="middle" x="289" y="-357" font-family="Helvetica,sans-Serif" font-size="10.00">Sounds</text>
</a>
</g>
</g>
<!-- Node1&#45;&gt;Node9 -->
<g id="edge8" class="edge"><title>Node1&#45;&gt;Node9</title>
<path fill="none" stroke="midnightblue" d="M163.727,-349.845C173.643,-351.054 183.844,-352.298 193.935,-353.529"/>
<polygon fill="midnightblue" stroke="midnightblue" points="193.625,-357.017 203.975,-354.753 194.472,-350.068 193.625,-357.017"/>
</g>
<!-- Node10 -->
<g id="node10" class="node"><title>Node10</title>
<g id="a_node10"><a xlink:href="../../d4/d3b/classauthoring_1_1model_1_1collections_1_1_general_collection.html#ac1a07043ac0a440791b84cee1604745c" target="_top" xlink:title="authoring.model.collections.\lGeneralCollection.remove">
<polygon fill="white" stroke="black" points="213,-301 213,-331 365,-331 365,-301 213,-301"/>
<text text-anchor="start" x="221" y="-319" font-family="Helvetica,sans-Serif" font-size="10.00">authoring.model.collections.</text>
<text text-anchor="middle" x="289" y="-308" font-family="Helvetica,sans-Serif" font-size="10.00">GeneralCollection.remove</text>
</a>
</g>
</g>
<!-- Node1&#45;&gt;Node10 -->
<g id="edge9" class="edge"><title>Node1&#45;&gt;Node10</title>
<path fill="none" stroke="midnightblue" d="M163.727,-330.549C176.458,-329.059 189.659,-327.513 202.494,-326.01"/>
<polygon fill="midnightblue" stroke="midnightblue" points="203.168,-329.456 212.693,-324.816 202.354,-322.503 203.168,-329.456"/>
</g>
<!-- Node11 -->
<g id="node11" class="node"><title>Node11</title>
<g id="a_node11"><a xlink:href="../../df/d84/classengine_1_1level_1_1_level.html#a0a4cb515a5d4c8144a881486189ecb4c" target="_top" xlink:title="engine.level.Level.setBackground\lImage">
<polygon fill="white" stroke="black" points="201,-252 201,-282 377,-282 377,-252 201,-252"/>
<text text-anchor="start" x="209" y="-270" font-family="Helvetica,sans-Serif" font-size="10.00">engine.level.Level.setBackground</text>
<text text-anchor="middle" x="289" y="-259" font-family="Helvetica,sans-Serif" font-size="10.00">Image</text>
</a>
</g>
</g>
<!-- Node1&#45;&gt;Node11 -->
<g id="edge10" class="edge"><title>Node1&#45;&gt;Node11</title>
<path fill="none" stroke="midnightblue" d="M116.913,-324.902C140.065,-314.889 171.574,-301.834 200,-292 206.914,-289.608 214.189,-287.268 221.471,-285.038"/>
<polygon fill="midnightblue" stroke="midnightblue" points="222.798,-288.294 231.372,-282.07 220.788,-281.588 222.798,-288.294"/>
</g>
<!-- Node12 -->
<g id="node12" class="node"><title>Node12</title>
<g id="a_node12"><a xlink:href="../../df/d84/classengine_1_1level_1_1_level.html#a7d156d06e5396af71c3d69b47dedcc66" target="_top" xlink:title="engine.level.Level.setBackground\lMusic">
<polygon fill="white" stroke="black" points="201,-203 201,-233 377,-233 377,-203 201,-203"/>
<text text-anchor="start" x="209" y="-221" font-family="Helvetica,sans-Serif" font-size="10.00">engine.level.Level.setBackground</text>
<text text-anchor="middle" x="289" y="-210" font-family="Helvetica,sans-Serif" font-size="10.00">Music</text>
</a>
</g>
</g>
<!-- Node1&#45;&gt;Node12 -->
<g id="edge11" class="edge"><title>Node1&#45;&gt;Node12</title>
<path fill="none" stroke="midnightblue" d="M97.044,-324.923C117.656,-303.657 158.206,-264.998 200,-243 204.256,-240.76 208.736,-238.7 213.328,-236.809"/>
<polygon fill="midnightblue" stroke="midnightblue" points="214.783,-240 222.875,-233.161 212.284,-233.461 214.783,-240"/>
</g>
<!-- Node13 -->
<g id="node13" class="node"><title>Node13</title>
<g id="a_node13"><a xlink:href="../../df/d84/classengine_1_1level_1_1_level.html#a1b07e6b160c4d26c8f02c1d57ef117bc" target="_top" xlink:title="engine.level.Level.setConditionIds">
<polygon fill="white" stroke="black" points="200,-164.5 200,-183.5 378,-183.5 378,-164.5 200,-164.5"/>
<text text-anchor="middle" x="289" y="-171.5" font-family="Helvetica,sans-Serif" font-size="10.00">engine.level.Level.setConditionIds</text>
</a>
</g>
</g>
<!-- Node1&#45;&gt;Node13 -->
<g id="edge12" class="edge"><title>Node1&#45;&gt;Node13</title>
<path fill="none" stroke="midnightblue" d="M90.6185,-324.807C106.53,-294.729 146.313,-227.61 200,-194 204.1,-191.433 208.491,-189.195 213.044,-187.242"/>
<polygon fill="midnightblue" stroke="midnightblue" points="214.466,-190.446 222.573,-183.624 211.981,-183.902 214.466,-190.446"/>
</g>
<!-- Node14 -->
<g id="node14" class="node"><title>Node14</title>
<g id="a_node14"><a xlink:href="../../df/d84/classengine_1_1level_1_1_level.html#a1473c16b9e5b5d6d5f162e6357d4e90e" target="_top" xlink:title="engine.level.Level.setHeight">
<polygon fill="white" stroke="black" points="213.5,-126.5 213.5,-145.5 364.5,-145.5 364.5,-126.5 213.5,-126.5"/>
<text text-anchor="middle" x="289" y="-133.5" font-family="Helvetica,sans-Serif" font-size="10.00">engine.level.Level.setHeight</text>
</a>
</g>
</g>
<!-- Node1&#45;&gt;Node14 -->
<g id="edge13" class="edge"><title>Node1&#45;&gt;Node14</title>
<path fill="none" stroke="midnightblue" d="M87.9282,-324.912C100.424,-289.175 136.914,-199.069 200,-155 202.755,-153.076 205.668,-151.34 208.692,-149.776"/>
<polygon fill="midnightblue" stroke="midnightblue" points="210.363,-152.863 218.057,-145.579 207.5,-146.475 210.363,-152.863"/>
</g>
<!-- Node15 -->
<g id="node15" class="node"><title>Node15</title>
<g id="a_node15"><a xlink:href="../../df/d84/classengine_1_1level_1_1_level.html#a978e8f0a732aecf29203b898e27b16b0" target="_top" xlink:title="engine.level.Level.setIdentifier">
<polygon fill="white" stroke="black" points="208.5,-88.5 208.5,-107.5 369.5,-107.5 369.5,-88.5 208.5,-88.5"/>
<text text-anchor="middle" x="289" y="-95.5" font-family="Helvetica,sans-Serif" font-size="10.00">engine.level.Level.setIdentifier</text>
</a>
</g>
</g>
<!-- Node1&#45;&gt;Node15 -->
<g id="edge14" class="edge"><title>Node1&#45;&gt;Node15</title>
<path fill="none" stroke="midnightblue" d="M86.2313,-324.933C95.7705,-284.314 127.787,-171.912 200,-117 202.333,-115.226 204.796,-113.61 207.358,-112.139"/>
<polygon fill="midnightblue" stroke="midnightblue" points="208.987,-115.238 216.403,-107.671 205.887,-108.962 208.987,-115.238"/>
</g>
<!-- Node16 -->
<g id="node16" class="node"><title>Node16</title>
<g id="a_node16"><a xlink:href="../../df/d84/classengine_1_1level_1_1_level.html#ac6aa999d5ea5fa90274d0d201dab1f8c" target="_top" xlink:title="engine.level.Level.setStart\lIndicator">
<polygon fill="white" stroke="black" points="217.5,-39 217.5,-69 360.5,-69 360.5,-39 217.5,-39"/>
<text text-anchor="start" x="225.5" y="-57" font-family="Helvetica,sans-Serif" font-size="10.00">engine.level.Level.setStart</text>
<text text-anchor="middle" x="289" y="-46" font-family="Helvetica,sans-Serif" font-size="10.00">Indicator</text>
</a>
</g>
</g>
<!-- Node1&#45;&gt;Node16 -->
<g id="edge15" class="edge"><title>Node1&#45;&gt;Node16</title>
<path fill="none" stroke="midnightblue" d="M85.2286,-324.995C92.6573,-280.404 120.753,-147.542 200,-79 202.663,-76.6964 205.526,-74.6043 208.532,-72.7043"/>
<polygon fill="midnightblue" stroke="midnightblue" points="210.278,-75.7386 217.342,-67.8425 206.896,-69.6099 210.278,-75.7386"/>
</g>
<!-- Node17 -->
<g id="node17" class="node"><title>Node17</title>
<g id="a_node17"><a xlink:href="../../df/d84/classengine_1_1level_1_1_level.html#a6fed6684fff9cdb0c75497abded3bcf2" target="_top" xlink:title="engine.level.Level.setWidth">
<polygon fill="white" stroke="black" points="216,-0.5 216,-19.5 362,-19.5 362,-0.5 216,-0.5"/>
<text text-anchor="middle" x="289" y="-7.5" font-family="Helvetica,sans-Serif" font-size="10.00">engine.level.Level.setWidth</text>
</a>
</g>
</g>
<!-- Node1&#45;&gt;Node17 -->
<g id="edge16" class="edge"><title>Node1&#45;&gt;Node17</title>
<path fill="none" stroke="midnightblue" d="M83.8662,-324.944C87.6058,-274.678 106.748,-111.244 200,-30 202.27,-28.022 204.696,-26.2284 207.24,-24.6024"/>
<polygon fill="midnightblue" stroke="midnightblue" points="209.171,-27.5369 216.297,-19.6965 205.837,-21.3819 209.171,-27.5369"/>
</g>
</g>
</svg>
