<?xml version="1.0" encoding="UTF-8" standalone="no"?>
<!DOCTYPE svg PUBLIC "-//W3C//DTD SVG 1.1//EN"
 "http://www.w3.org/Graphics/SVG/1.1/DTD/svg11.dtd">
<!-- Generated by graphviz version 2.36.0 (20140111.2315)
 -->
<!-- Title: authoring.model.AuthoringModel.save Pages: 1 -->
<!--zoomable 819 -->
<svg id="main" version="1.1" xmlns="http://www.w3.org/2000/svg" xmlns:xlink="http://www.w3.org/1999/xlink" xml:space="preserve" onload="init(evt)">
<style type="text/css"><![CDATA[
.edge:hover path { stroke: red; }
.edge:hover polygon { stroke: red; fill: red; }
]]></style>
<script type="text/javascript"><![CDATA[
var edges = document.getElementsByTagName('g');
if (edges && edges.length) {
  for (var i=0;i<edges.length;i++) {
    if (edges[i].id.substr(0,4)=='edge') {
      edges[i].setAttribute('class','edge');
    }
  }
}
]]></script>
        <defs>
                <circle id="rim" cx="0" cy="0" r="7"/>
                <circle id="rim2" cx="0" cy="0" r="3.5"/>
                <g id="zoomPlus">
                        <use xlink:href="#rim" fill="#404040">
                                <set attributeName="fill" to="#808080" begin="zoomplus.mouseover" end="zoomplus.mouseout"/>
                        </use>
                        <path d="M-4,0h8M0,-4v8" fill="none" stroke="white" stroke-width="1.5" pointer-events="none"/>
                </g>
                <g id="zoomMin">
                        <use xlink:href="#rim" fill="#404040">
                                <set attributeName="fill" to="#808080" begin="zoomminus.mouseover" end="zoomminus.mouseout"/>
                        </use>
                        <path d="M-4,0h8" fill="none" stroke="white" stroke-width="1.5" pointer-events="none"/>
                </g>
                <g id="dirArrow">
                        <path fill="none" stroke="white" stroke-width="1.5" d="M0,-3.0v7 M-2.5,-0.5L0,-3.0L2.5,-0.5"/>
                </g>
               <g id="resetDef">
                       <use xlink:href="#rim2" fill="#404040">
                               <set attributeName="fill" to="#808080" begin="reset.mouseover" end="reset.mouseout"/>
                       </use>
               </g>
        </defs>

<script type="text/javascript">
var viewWidth = 592;
var viewHeight = 819;
var sectionId = 'dynsection-17';
</script>
<script xlink:href="../../svgpan.js"/>
<svg id="graph" class="graph">
<g id="viewport">
<title>authoring.model.AuthoringModel.save</title>
<polygon fill="white" stroke="none" points="-4,4 -4,-815 588,-815 588,4 -4,4"/>
<!-- Node1 -->
<g id="node1" class="node"><title>Node1</title>
<polygon fill="#bfbfbf" stroke="black" points="0.5,-55 0.5,-85 145.5,-85 145.5,-55 0.5,-55"/>
<text text-anchor="start" x="8.5" y="-73" font-family="Helvetica,sans-Serif" font-size="10.00">authoring.model.Authoring</text>
<text text-anchor="middle" x="73" y="-62" font-family="Helvetica,sans-Serif" font-size="10.00">Model.save</text>
</g>
<!-- Node2 -->
<g id="node2" class="node"><title>Node2</title>
<g id="a_node2"><a xlink:href="../../d4/d68/classauthoring_1_1model_1_1_authoring_model.html#ab3e6b375a2e8fdc73b351fc873ce214e" target="_top" xlink:title="authoring.model.Authoring\lModel.convertToSerializable">
<polygon fill="white" stroke="black" points="201.5,-413 201.5,-443 350.5,-443 350.5,-413 201.5,-413"/>
<text text-anchor="start" x="209.5" y="-431" font-family="Helvetica,sans-Serif" font-size="10.00">authoring.model.Authoring</text>
<text text-anchor="middle" x="276" y="-420" font-family="Helvetica,sans-Serif" font-size="10.00">Model.convertToSerializable</text>
</a>
</g>
</g>
<!-- Node1&#45;&gt;Node2 -->
<g id="edge1" class="edge"><title>Node1&#45;&gt;Node2</title>
<path fill="none" stroke="midnightblue" d="M82.6367,-85.3828C114.142,-141.497 223.048,-335.468 261.459,-403.882"/>
<polygon fill="midnightblue" stroke="midnightblue" points="258.448,-405.668 266.395,-412.674 264.552,-402.241 258.448,-405.668"/>
</g>
<!-- Node18 -->
<g id="node18" class="node"><title>Node18</title>
<g id="a_node18"><a xlink:href="../../de/d50/classerrors_and_exceptions_1_1_error_pop_up.html#a879c9fa857c162edfab75ecf1558c944" target="_top" xlink:title="errorsAndExceptions.Error\lPopUp.display">
<polygon fill="white" stroke="black" points="205,-77 205,-107 347,-107 347,-77 205,-77"/>
<text text-anchor="start" x="213" y="-95" font-family="Helvetica,sans-Serif" font-size="10.00">errorsAndExceptions.Error</text>
<text text-anchor="middle" x="276" y="-84" font-family="Helvetica,sans-Serif" font-size="10.00">PopUp.display</text>
</a>
</g>
</g>
<!-- Node1&#45;&gt;Node18 -->
<g id="edge17" class="edge"><title>Node1&#45;&gt;Node18</title>
<path fill="none" stroke="midnightblue" d="M145.714,-77.8493C161.586,-79.5866 178.505,-81.4383 194.694,-83.2103"/>
<polygon fill="midnightblue" stroke="midnightblue" points="194.342,-86.6926 204.664,-84.3015 195.104,-79.7341 194.342,-86.6926"/>
</g>
<!-- Node21 -->
<g id="node21" class="node"><title>Node21</title>
<g id="a_node21"><a xlink:href="../../d1/d95/classdata_1_1_data_manager.html#a138b23f88dcdd16ef1a2a095638963dc" target="_top" xlink:title="data.DataManager.writeGameFile">
<polygon fill="white" stroke="black" points="188,-38.5 188,-57.5 364,-57.5 364,-38.5 188,-38.5"/>
<text text-anchor="middle" x="276" y="-45.5" font-family="Helvetica,sans-Serif" font-size="10.00">data.DataManager.writeGameFile</text>
</a>
</g>
</g>
<!-- Node1&#45;&gt;Node21 -->
<g id="edge20" class="edge"><title>Node1&#45;&gt;Node21</title>
<path fill="none" stroke="midnightblue" d="M145.714,-62.1507C156.245,-60.998 167.237,-59.795 178.17,-58.5983"/>
<polygon fill="midnightblue" stroke="midnightblue" points="178.62,-62.0701 188.18,-57.5027 177.858,-55.1116 178.62,-62.0701"/>
</g>
<!-- Node23 -->
<g id="node23" class="node"><title>Node23</title>
<g id="a_node23"><a xlink:href="../../d1/d95/classdata_1_1_data_manager.html#a635a83b3bf3ae9c504c420c3794c47cc" target="_top" xlink:title="data.DataManager.writeProgressFile">
<polygon fill="white" stroke="black" points="182,-0.5 182,-19.5 370,-19.5 370,-0.5 182,-0.5"/>
<text text-anchor="middle" x="276" y="-7.5" font-family="Helvetica,sans-Serif" font-size="10.00">data.DataManager.writeProgressFile</text>
</a>
</g>
</g>
<!-- Node1&#45;&gt;Node23 -->
<g id="edge22" class="edge"><title>Node1&#45;&gt;Node23</title>
<path fill="none" stroke="midnightblue" d="M109.508,-54.861C130.344,-46.398 157.344,-36.148 182,-29 191.163,-26.3436 200.937,-23.917 210.578,-21.7522"/>
<polygon fill="midnightblue" stroke="midnightblue" points="211.514,-25.1308 220.545,-19.5922 210.031,-18.2896 211.514,-25.1308"/>
</g>
<!-- Node3 -->
<g id="node3" class="node"><title>Node3</title>
<g id="a_node3"><a xlink:href="../../df/de5/classauthoring_1_1model_1_1collections_1_1_levels_collection.html#ab355be93ea3c8a0f359099c4bf93ae10" target="_top" xlink:title="authoring.model.collections.\lLevelsCollection.add">
<polygon fill="white" stroke="black" points="419,-781 419,-811 571,-811 571,-781 419,-781"/>
<text text-anchor="start" x="427" y="-799" font-family="Helvetica,sans-Serif" font-size="10.00">authoring.model.collections.</text>
<text text-anchor="middle" x="495" y="-788" font-family="Helvetica,sans-Serif" font-size="10.00">LevelsCollection.add</text>
</a>
</g>
</g>
<!-- Node2&#45;&gt;Node3 -->
<g id="edge2" class="edge"><title>Node2&#45;&gt;Node3</title>
<path fill="none" stroke="midnightblue" d="M278.027,-443.316C282.461,-496.898 304.65,-677.725 406,-771 407.709,-772.573 409.51,-774.048 411.387,-775.431"/>
<polygon fill="midnightblue" stroke="midnightblue" points="409.732,-778.526 420.052,-780.923 413.48,-772.613 409.732,-778.526"/>
</g>
<!-- Node4 -->
<g id="node4" class="node"><title>Node4</title>
<g id="a_node4"><a xlink:href="../../db/d2a/classauthoring_1_1model_1_1collections_1_1_conditions_collection.html#af4aa1e8459d542b7f0e78ffe3b004d77" target="_top" xlink:title="authoring.model.collections.\lConditionsCollection.add">
<polygon fill="white" stroke="black" points="419,-732 419,-762 571,-762 571,-732 419,-732"/>
<text text-anchor="start" x="427" y="-750" font-family="Helvetica,sans-Serif" font-size="10.00">authoring.model.collections.</text>
<text text-anchor="middle" x="495" y="-739" font-family="Helvetica,sans-Serif" font-size="10.00">ConditionsCollection.add</text>
</a>
</g>
</g>
<!-- Node2&#45;&gt;Node4 -->
<g id="edge3" class="edge"><title>Node2&#45;&gt;Node4</title>
<path fill="none" stroke="midnightblue" d="M279.069,-443.152C286.494,-491.548 316.303,-643.795 406,-722 407.938,-723.69 409.982,-725.265 412.113,-726.735"/>
<polygon fill="midnightblue" stroke="midnightblue" points="410.333,-729.749 420.708,-731.894 413.935,-723.747 410.333,-729.749"/>
</g>
<!-- Node5 -->
<g id="node5" class="node"><title>Node5</title>
<g id="a_node5"><a xlink:href="../../d4/d3b/classauthoring_1_1model_1_1collections_1_1_general_collection.html#a1bdc1047736bbb23259d6a7fe4c6deeb" target="_top" xlink:title="authoring.model.collections.\lGeneralCollection.add">
<polygon fill="white" stroke="black" points="419,-683 419,-713 571,-713 571,-683 419,-683"/>
<text text-anchor="start" x="427" y="-701" font-family="Helvetica,sans-Serif" font-size="10.00">authoring.model.collections.</text>
<text text-anchor="middle" x="495" y="-690" font-family="Helvetica,sans-Serif" font-size="10.00">GeneralCollection.add</text>
</a>
</g>
</g>
<!-- Node2&#45;&gt;Node5 -->
<g id="edge4" class="edge"><title>Node2&#45;&gt;Node5</title>
<path fill="none" stroke="midnightblue" d="M280.481,-443.034C291.193,-485.874 327.786,-609.56 406,-673 408.255,-674.829 410.637,-676.524 413.115,-678.096"/>
<polygon fill="midnightblue" stroke="midnightblue" points="411.435,-681.166 421.874,-682.975 414.842,-675.051 411.435,-681.166"/>
</g>
<!-- Node6 -->
<g id="node6" class="node"><title>Node6</title>
<g id="a_node6"><a xlink:href="../../d7/dbf/classauthoring_1_1model_1_1_game_data.html#a4a3bfa5ed2418ba59bdf3e73b4ce310a" target="_top" xlink:title="authoring.model.GameData.get\lConditions">
<polygon fill="white" stroke="black" points="410,-634 410,-664 580,-664 580,-634 410,-634"/>
<text text-anchor="start" x="418" y="-652" font-family="Helvetica,sans-Serif" font-size="10.00">authoring.model.GameData.get</text>
<text text-anchor="middle" x="495" y="-641" font-family="Helvetica,sans-Serif" font-size="10.00">Conditions</text>
</a>
</g>
</g>
<!-- Node2&#45;&gt;Node6 -->
<g id="edge5" class="edge"><title>Node2&#45;&gt;Node6</title>
<path fill="none" stroke="midnightblue" d="M282.616,-443.163C297.066,-480.04 339.15,-574.977 406,-624 408.544,-625.865 411.222,-627.592 413.999,-629.189"/>
<polygon fill="midnightblue" stroke="midnightblue" points="412.662,-632.436 423.16,-633.867 415.845,-626.202 412.662,-632.436"/>
</g>
<!-- Node7 -->
<g id="node7" class="node"><title>Node7</title>
<g id="a_node7"><a xlink:href="../../d7/dbf/classauthoring_1_1model_1_1_game_data.html#ab6eab149af02a9649d0e2b162daf3600" target="_top" xlink:title="authoring.model.GameData.get\lGameObjects">
<polygon fill="white" stroke="black" points="410,-585 410,-615 580,-615 580,-585 410,-585"/>
<text text-anchor="start" x="418" y="-603" font-family="Helvetica,sans-Serif" font-size="10.00">authoring.model.GameData.get</text>
<text text-anchor="middle" x="495" y="-592" font-family="Helvetica,sans-Serif" font-size="10.00">GameObjects</text>
</a>
</g>
</g>
<!-- Node2&#45;&gt;Node7 -->
<g id="edge6" class="edge"><title>Node2&#45;&gt;Node7</title>
<path fill="none" stroke="midnightblue" d="M285.949,-443.036C304.48,-472.85 350.032,-539.625 406,-575 409.21,-577.029 412.587,-578.896 416.073,-580.616"/>
<polygon fill="midnightblue" stroke="midnightblue" points="414.956,-583.95 425.514,-584.828 417.808,-577.557 414.956,-583.95"/>
</g>
<!-- Node8 -->
<g id="node8" class="node"><title>Node8</title>
<g id="a_node8"><a xlink:href="../../d7/dbf/classauthoring_1_1model_1_1_game_data.html#a5646a2267289545d487d4fe4a8a6298e" target="_top" xlink:title="authoring.model.GameData.get\lImages">
<polygon fill="white" stroke="black" points="410,-536 410,-566 580,-566 580,-536 410,-536"/>
<text text-anchor="start" x="418" y="-554" font-family="Helvetica,sans-Serif" font-size="10.00">authoring.model.GameData.get</text>
<text text-anchor="middle" x="495" y="-543" font-family="Helvetica,sans-Serif" font-size="10.00">Images</text>
</a>
</g>
</g>
<!-- Node2&#45;&gt;Node8 -->
<g id="edge7" class="edge"><title>Node2&#45;&gt;Node8</title>
<path fill="none" stroke="midnightblue" d="M292.767,-443.159C315.837,-464.554 360.961,-503.504 406,-526 410.589,-528.292 415.421,-530.404 420.361,-532.344"/>
<polygon fill="midnightblue" stroke="midnightblue" points="419.366,-535.707 429.959,-535.866 421.777,-529.136 419.366,-535.707"/>
</g>
<!-- Node9 -->
<g id="node9" class="node"><title>Node9</title>
<g id="a_node9"><a xlink:href="../../d7/dbf/classauthoring_1_1model_1_1_game_data.html#a5188274f1af76c8d2e05a7c8dcba3805" target="_top" xlink:title="authoring.model.GameData.get\lLevels">
<polygon fill="white" stroke="black" points="410,-487 410,-517 580,-517 580,-487 410,-487"/>
<text text-anchor="start" x="418" y="-505" font-family="Helvetica,sans-Serif" font-size="10.00">authoring.model.GameData.get</text>
<text text-anchor="middle" x="495" y="-494" font-family="Helvetica,sans-Serif" font-size="10.00">Levels</text>
</a>
</g>
</g>
<!-- Node2&#45;&gt;Node9 -->
<g id="edge8" class="edge"><title>Node2&#45;&gt;Node9</title>
<path fill="none" stroke="midnightblue" d="M313.953,-443.008C339.582,-453.177 374.617,-466.603 406,-477 413.314,-479.423 421.017,-481.826 428.698,-484.129"/>
<polygon fill="midnightblue" stroke="midnightblue" points="427.803,-487.514 438.385,-486.986 429.784,-480.8 427.803,-487.514"/>
</g>
<!-- Node10 -->
<g id="node10" class="node"><title>Node10</title>
<g id="a_node10"><a xlink:href="../../d7/dbf/classauthoring_1_1model_1_1_game_data.html#a4c24125abc447d6793b3d31091d7912a" target="_top" xlink:title="authoring.model.GameData.get\lSounds">
<polygon fill="white" stroke="black" points="410,-438 410,-468 580,-468 580,-438 410,-438"/>
<text text-anchor="start" x="418" y="-456" font-family="Helvetica,sans-Serif" font-size="10.00">authoring.model.GameData.get</text>
<text text-anchor="middle" x="495" y="-445" font-family="Helvetica,sans-Serif" font-size="10.00">Sounds</text>
</a>
</g>
</g>
<!-- Node2&#45;&gt;Node10 -->
<g id="edge9" class="edge"><title>Node2&#45;&gt;Node10</title>
<path fill="none" stroke="midnightblue" d="M350.769,-436.499C366.54,-438.316 383.406,-440.259 399.826,-442.151"/>
<polygon fill="midnightblue" stroke="midnightblue" points="399.644,-445.653 409.979,-443.32 400.445,-438.699 399.644,-445.653"/>
</g>
<!-- Node11 -->
<g id="node11" class="node"><title>Node11</title>
<g id="a_node11"><a xlink:href="../../df/d84/classengine_1_1level_1_1_level.html#a0a4cb515a5d4c8144a881486189ecb4c" target="_top" xlink:title="engine.level.Level.setBackground\lImage">
<polygon fill="white" stroke="black" points="407,-389 407,-419 583,-419 583,-389 407,-389"/>
<text text-anchor="start" x="415" y="-407" font-family="Helvetica,sans-Serif" font-size="10.00">engine.level.Level.setBackground</text>
<text text-anchor="middle" x="495" y="-396" font-family="Helvetica,sans-Serif" font-size="10.00">Image</text>
</a>
</g>
</g>
<!-- Node2&#45;&gt;Node11 -->
<g id="edge10" class="edge"><title>Node2&#45;&gt;Node11</title>
<path fill="none" stroke="midnightblue" d="M350.769,-419.841C365.585,-418.203 381.367,-416.457 396.839,-414.746"/>
<polygon fill="midnightblue" stroke="midnightblue" points="397.393,-418.206 406.947,-413.628 396.623,-411.249 397.393,-418.206"/>
</g>
<!-- Node12 -->
<g id="node12" class="node"><title>Node12</title>
<g id="a_node12"><a xlink:href="../../df/d84/classengine_1_1level_1_1_level.html#a7d156d06e5396af71c3d69b47dedcc66" target="_top" xlink:title="engine.level.Level.setBackground\lMusic">
<polygon fill="white" stroke="black" points="407,-340 407,-370 583,-370 583,-340 407,-340"/>
<text text-anchor="start" x="415" y="-358" font-family="Helvetica,sans-Serif" font-size="10.00">engine.level.Level.setBackground</text>
<text text-anchor="middle" x="495" y="-347" font-family="Helvetica,sans-Serif" font-size="10.00">Music</text>
</a>
</g>
</g>
<!-- Node2&#45;&gt;Node12 -->
<g id="edge11" class="edge"><title>Node2&#45;&gt;Node12</title>
<path fill="none" stroke="midnightblue" d="M315.103,-412.915C340.639,-403.03 375.116,-390.115 406,-380 413.323,-377.602 421.03,-375.215 428.714,-372.92"/>
<polygon fill="midnightblue" stroke="midnightblue" points="429.798,-376.25 438.404,-370.07 427.822,-369.535 429.798,-376.25"/>
</g>
<!-- Node13 -->
<g id="node13" class="node"><title>Node13</title>
<g id="a_node13"><a xlink:href="../../df/d84/classengine_1_1level_1_1_level.html#a1b07e6b160c4d26c8f02c1d57ef117bc" target="_top" xlink:title="engine.level.Level.setConditionIds">
<polygon fill="white" stroke="black" points="406,-301.5 406,-320.5 584,-320.5 584,-301.5 406,-301.5"/>
<text text-anchor="middle" x="495" y="-308.5" font-family="Helvetica,sans-Serif" font-size="10.00">engine.level.Level.setConditionIds</text>
</a>
</g>
</g>
<!-- Node2&#45;&gt;Node13 -->
<g id="edge12" class="edge"><title>Node2&#45;&gt;Node13</title>
<path fill="none" stroke="midnightblue" d="M292.641,-412.678C315.557,-391.115 360.495,-352.096 406,-331 412.45,-328.01 419.378,-325.451 426.412,-323.266"/>
<polygon fill="midnightblue" stroke="midnightblue" points="427.384,-326.628 436.034,-320.51 425.457,-319.898 427.384,-326.628"/>
</g>
<!-- Node14 -->
<g id="node14" class="node"><title>Node14</title>
<g id="a_node14"><a xlink:href="../../df/d84/classengine_1_1level_1_1_level.html#a1473c16b9e5b5d6d5f162e6357d4e90e" target="_top" xlink:title="engine.level.Level.setHeight">
<polygon fill="white" stroke="black" points="419.5,-263.5 419.5,-282.5 570.5,-282.5 570.5,-263.5 419.5,-263.5"/>
<text text-anchor="middle" x="495" y="-270.5" font-family="Helvetica,sans-Serif" font-size="10.00">engine.level.Level.setHeight</text>
</a>
</g>
</g>
<!-- Node2&#45;&gt;Node14 -->
<g id="edge13" class="edge"><title>Node2&#45;&gt;Node14</title>
<path fill="none" stroke="midnightblue" d="M286.645,-412.937C305.734,-384.45 351.253,-322.784 406,-292 410.125,-289.68 414.506,-287.644 419.024,-285.855"/>
<polygon fill="midnightblue" stroke="midnightblue" points="420.191,-289.155 428.453,-282.522 417.858,-282.555 420.191,-289.155"/>
</g>
<!-- Node15 -->
<g id="node15" class="node"><title>Node15</title>
<g id="a_node15"><a xlink:href="../../df/d84/classengine_1_1level_1_1_level.html#a978e8f0a732aecf29203b898e27b16b0" target="_top" xlink:title="engine.level.Level.setIdentifier">
<polygon fill="white" stroke="black" points="414.5,-225.5 414.5,-244.5 575.5,-244.5 575.5,-225.5 414.5,-225.5"/>
<text text-anchor="middle" x="495" y="-232.5" font-family="Helvetica,sans-Serif" font-size="10.00">engine.level.Level.setIdentifier</text>
</a>
</g>
</g>
<!-- Node2&#45;&gt;Node15 -->
<g id="edge14" class="edge"><title>Node2&#45;&gt;Node15</title>
<path fill="none" stroke="midnightblue" d="M283.626,-412.773C299.396,-378.45 342.634,-294.861 406,-254 409.21,-251.93 412.609,-250.082 416.132,-248.433"/>
<polygon fill="midnightblue" stroke="midnightblue" points="417.773,-251.543 425.701,-244.514 415.12,-245.065 417.773,-251.543"/>
</g>
<!-- Node16 -->
<g id="node16" class="node"><title>Node16</title>
<g id="a_node16"><a xlink:href="../../df/d84/classengine_1_1level_1_1_level.html#ac6aa999d5ea5fa90274d0d201dab1f8c" target="_top" xlink:title="engine.level.Level.setStart\lIndicator">
<polygon fill="white" stroke="black" points="423.5,-176 423.5,-206 566.5,-206 566.5,-176 423.5,-176"/>
<text text-anchor="start" x="431.5" y="-194" font-family="Helvetica,sans-Serif" font-size="10.00">engine.level.Level.setStart</text>
<text text-anchor="middle" x="495" y="-183" font-family="Helvetica,sans-Serif" font-size="10.00">Indicator</text>
</a>
</g>
</g>
<!-- Node2&#45;&gt;Node16 -->
<g id="edge15" class="edge"><title>Node2&#45;&gt;Node16</title>
<path fill="none" stroke="midnightblue" d="M281.854,-412.765C295.077,-373.762 335.542,-269.615 406,-216 408.654,-213.98 411.465,-212.124 414.389,-210.417"/>
<polygon fill="midnightblue" stroke="midnightblue" points="416.178,-213.432 423.457,-205.734 412.966,-207.213 416.178,-213.432"/>
</g>
<!-- Node17 -->
<g id="node17" class="node"><title>Node17</title>
<g id="a_node17"><a xlink:href="../../df/d84/classengine_1_1level_1_1_level.html#a6fed6684fff9cdb0c75497abded3bcf2" target="_top" xlink:title="engine.level.Level.setWidth">
<polygon fill="white" stroke="black" points="422,-137.5 422,-156.5 568,-156.5 568,-137.5 422,-137.5"/>
<text text-anchor="middle" x="495" y="-144.5" font-family="Helvetica,sans-Serif" font-size="10.00">engine.level.Level.setWidth</text>
</a>
</g>
</g>
<!-- Node2&#45;&gt;Node17 -->
<g id="edge16" class="edge"><title>Node2&#45;&gt;Node17</title>
<path fill="none" stroke="midnightblue" d="M279.793,-412.762C288.921,-367.52 322.248,-233.029 406,-167 408.791,-164.799 411.779,-162.832 414.907,-161.073"/>
<polygon fill="midnightblue" stroke="midnightblue" points="416.567,-164.158 424.043,-156.65 413.517,-157.857 416.567,-164.158"/>
</g>
<!-- Node19 -->
<g id="node19" class="node"><title>Node19</title>
<g id="a_node19"><a xlink:href="../../de/d50/classerrors_and_exceptions_1_1_error_pop_up.html#adecc4a2ab81e607673649e10e6d7da52" target="_top" xlink:title="errorsAndExceptions.Error\lPopUp.createButton">
<polygon fill="white" stroke="black" points="424,-88 424,-118 566,-118 566,-88 424,-88"/>
<text text-anchor="start" x="432" y="-106" font-family="Helvetica,sans-Serif" font-size="10.00">errorsAndExceptions.Error</text>
<text text-anchor="middle" x="495" y="-95" font-family="Helvetica,sans-Serif" font-size="10.00">PopUp.createButton</text>
</a>
</g>
</g>
<!-- Node18&#45;&gt;Node19 -->
<g id="edge18" class="edge"><title>Node18&#45;&gt;Node19</title>
<path fill="none" stroke="midnightblue" d="M347.154,-95.5562C368.32,-96.6291 391.72,-97.8153 413.503,-98.9195"/>
<polygon fill="midnightblue" stroke="midnightblue" points="413.552,-102.426 423.716,-99.4372 413.906,-95.4354 413.552,-102.426"/>
</g>
<!-- Node20 -->
<g id="node20" class="node"><title>Node20</title>
<g id="a_node20"><a xlink:href="../../de/d50/classerrors_and_exceptions_1_1_error_pop_up.html#a98549e423869b27d7ee3c87270786f60" target="_top" xlink:title="errorsAndExceptions.Error\lPopUp.chooseStageWidth">
<polygon fill="white" stroke="black" points="424,-39 424,-69 566,-69 566,-39 424,-39"/>
<text text-anchor="start" x="432" y="-57" font-family="Helvetica,sans-Serif" font-size="10.00">errorsAndExceptions.Error</text>
<text text-anchor="middle" x="495" y="-46" font-family="Helvetica,sans-Serif" font-size="10.00">PopUp.chooseStageWidth</text>
</a>
</g>
</g>
<!-- Node18&#45;&gt;Node20 -->
<g id="edge19" class="edge"><title>Node18&#45;&gt;Node20</title>
<path fill="none" stroke="midnightblue" d="M347.154,-79.715C368.416,-75.9917 391.932,-71.8737 413.799,-68.0444"/>
<polygon fill="midnightblue" stroke="midnightblue" points="414.47,-71.4803 423.716,-66.3078 413.262,-64.5852 414.47,-71.4803"/>
</g>
<!-- Node22 -->
<g id="node22" class="node"><title>Node22</title>
<g id="a_node22"><a xlink:href="../../d1/d95/classdata_1_1_data_manager.html#a1d751c9995395d782f423aed87a6e51e" target="_top" xlink:title="data.DataManager.writeFile">
<polygon fill="white" stroke="black" points="422,-0.5 422,-19.5 568,-19.5 568,-0.5 422,-0.5"/>
<text text-anchor="middle" x="495" y="-7.5" font-family="Helvetica,sans-Serif" font-size="10.00">data.DataManager.writeFile</text>
</a>
</g>
</g>
<!-- Node21&#45;&gt;Node22 -->
<g id="edge21" class="edge"><title>Node21&#45;&gt;Node22</title>
<path fill="none" stroke="midnightblue" d="M331.478,-38.46C361.272,-33.2426 398.363,-26.7475 429.585,-21.28"/>
<polygon fill="midnightblue" stroke="midnightblue" points="430.253,-24.7164 439.499,-19.5439 429.046,-17.8213 430.253,-24.7164"/>
</g>
<!-- Node23&#45;&gt;Node22 -->
<g id="edge23" class="edge"><title>Node23&#45;&gt;Node22</title>
<path fill="none" stroke="midnightblue" d="M370.287,-10C384.018,-10 398.08,-10 411.571,-10"/>
<polygon fill="midnightblue" stroke="midnightblue" points="411.761,-13.5001 421.761,-10 411.761,-6.5001 411.761,-13.5001"/>
</g>
</g>
</svg>
        <g id="navigator" transform="translate(0 0)" fill="#404254">
                <rect fill="#f2f5e9" fill-opacity="0.5" stroke="#606060" stroke-width=".5" x="0" y="0" width="60" height="60"/>
                <use id="zoomplus" xlink:href="#zoomPlus" x="17" y="9" onmousedown="handleZoom(evt,'in')"/>
                <use id="zoomminus" xlink:href="#zoomMin" x="42" y="9" onmousedown="handleZoom(evt,'out')"/>
                <use id="reset" xlink:href="#resetDef" x="30" y="36" onmousedown="handleReset()"/>
                <g id="arrowUp" xlink:href="#dirArrow" transform="translate(30 24)" onmousedown="handlePan(0,-1)">
                  <use xlink:href="#rim" fill="#404040">
                        <set attributeName="fill" to="#808080" begin="arrowUp.mouseover" end="arrowUp.mouseout"/>
                  </use>
                  <path fill="none" stroke="white" stroke-width="1.5" d="M0,-3.0v7 M-2.5,-0.5L0,-3.0L2.5,-0.5"/>
                </g>
                <g id="arrowRight" xlink:href="#dirArrow" transform="rotate(90) translate(36 -43)" onmousedown="handlePan(1,0)">
                  <use xlink:href="#rim" fill="#404040">
                        <set attributeName="fill" to="#808080" begin="arrowRight.mouseover" end="arrowRight.mouseout"/>
                  </use>
                  <path fill="none" stroke="white" stroke-width="1.5" d="M0,-3.0v7 M-2.5,-0.5L0,-3.0L2.5,-0.5"/>
                </g>
                <g id="arrowDown" xlink:href="#dirArrow" transform="rotate(180) translate(-30 -48)" onmousedown="handlePan(0,1)">
                  <use xlink:href="#rim" fill="#404040">
                        <set attributeName="fill" to="#808080" begin="arrowDown.mouseover" end="arrowDown.mouseout"/>
                  </use>
                  <path fill="none" stroke="white" stroke-width="1.5" d="M0,-3.0v7 M-2.5,-0.5L0,-3.0L2.5,-0.5"/>
                </g>
                <g id="arrowLeft" xlink:href="#dirArrow" transform="rotate(270) translate(-36 17)" onmousedown="handlePan(-1,0)">
                  <use xlink:href="#rim" fill="#404040">
                        <set attributeName="fill" to="#808080" begin="arrowLeft.mouseover" end="arrowLeft.mouseout"/>
                  </use>
                  <path fill="none" stroke="white" stroke-width="1.5" d="M0,-3.0v7 M-2.5,-0.5L0,-3.0L2.5,-0.5"/>
                </g>
        </g>
        <svg viewBox="0 0 15 15" width="100%" height="30px" preserveAspectRatio="xMaxYMin meet">
         <g id="arrow_out" transform="scale(0.3 0.3)">
          <a xlink:href="classauthoring_1_1model_1_1_authoring_model_a1cdb75c271642f158391ccecc24a539c_cgraph_org.svg" target="_base">
           <rect id="button" ry="5" rx="5" y="6" x="6" height="38" width="38"
                fill="#f2f5e9" fill-opacity="0.5" stroke="#606060" stroke-width="1.0"/>
           <path id="arrow"
             d="M 11.500037,31.436501 C 11.940474,20.09759 22.043105,11.32322 32.158766,21.979434 L 37.068811,17.246167 C 37.068811,17.246167 37.088388,32 37.088388,32 L 22.160133,31.978069 C 22.160133,31.978069 26.997745,27.140456 26.997745,27.140456 C 18.528582,18.264221 13.291696,25.230495 11.500037,31.436501 z"
             style="fill:#404040;"/>
          </a>
         </g>
        </svg>
</svg>
