<?xml version="1.0" encoding="UTF-8" standalone="no"?>
<!DOCTYPE svg PUBLIC "-//W3C//DTD SVG 1.1//EN"
 "http://www.w3.org/Graphics/SVG/1.1/DTD/svg11.dtd">
<!-- Generated by graphviz version 2.36.0 (20140111.2315)
 -->
<!-- Title: authoring.model.AuthoringModel.convertFromSerializable Pages: 1 -->
<svg width="386pt" height="654pt"
 viewBox="0.00 0.00 386.00 654.00" xmlns="http://www.w3.org/2000/svg" xmlns:xlink="http://www.w3.org/1999/xlink">
<g id="graph0" class="graph" transform="scale(1 1) rotate(0) translate(4 650)">
<title>authoring.model.AuthoringModel.convertFromSerializable</title>
<polygon fill="white" stroke="none" points="-4,4 -4,-650 382,-650 382,4 -4,4"/>
<!-- Node1 -->
<g id="node1" class="node"><title>Node1</title>
<polygon fill="#bfbfbf" stroke="black" points="0.5,-297 0.5,-327 163.5,-327 163.5,-297 0.5,-297"/>
<text text-anchor="start" x="8.5" y="-315" font-family="Helvetica,sans-Serif" font-size="10.00">authoring.model.Authoring</text>
<text text-anchor="middle" x="82" y="-304" font-family="Helvetica,sans-Serif" font-size="10.00">Model.convertFromSerializable</text>
</g>
<!-- Node2 -->
<g id="node2" class="node"><title>Node2</title>
<g id="a_node2"><a xlink:href="../../df/de5/classauthoring_1_1model_1_1collections_1_1_levels_collection.html#ab355be93ea3c8a0f359099c4bf93ae10" target="_top" xlink:title="authoring.model.collections.\lLevelsCollection.add">
<polygon fill="white" stroke="black" points="213,-616 213,-646 365,-646 365,-616 213,-616"/>
<text text-anchor="start" x="221" y="-634" font-family="Helvetica,sans-Serif" font-size="10.00">authoring.model.collections.</text>
<text text-anchor="middle" x="289" y="-623" font-family="Helvetica,sans-Serif" font-size="10.00">LevelsCollection.add</text>
</a>
</g>
</g>
<!-- Node1&#45;&gt;Node2 -->
<g id="edge1" class="edge"><title>Node1&#45;&gt;Node2</title>
<path fill="none" stroke="midnightblue" d="M84.4055,-327.12C89.7191,-375.416 112.948,-527.4 200,-606 201.724,-607.557 203.538,-609.017 205.427,-610.387"/>
<polygon fill="midnightblue" stroke="midnightblue" points="203.799,-613.497 214.134,-615.834 207.512,-607.563 203.799,-613.497"/>
</g>
<!-- Node3 -->
<g id="node3" class="node"><title>Node3</title>
<g id="a_node3"><a xlink:href="../../db/d2a/classauthoring_1_1model_1_1collections_1_1_conditions_collection.html#af4aa1e8459d542b7f0e78ffe3b004d77" target="_top" xlink:title="authoring.model.collections.\lConditionsCollection.add">
<polygon fill="white" stroke="black" points="213,-567 213,-597 365,-597 365,-567 213,-567"/>
<text text-anchor="start" x="221" y="-585" font-family="Helvetica,sans-Serif" font-size="10.00">authoring.model.collections.</text>
<text text-anchor="middle" x="289" y="-574" font-family="Helvetica,sans-Serif" font-size="10.00">ConditionsCollection.add</text>
</a>
</g>
</g>
<!-- Node1&#45;&gt;Node3 -->
<g id="edge2" class="edge"><title>Node1&#45;&gt;Node3</title>
<path fill="none" stroke="midnightblue" d="M85.7091,-327.009C94.2297,-369.782 124.538,-493.306 200,-557 202.018,-558.703 204.145,-560.29 206.358,-561.77"/>
<polygon fill="midnightblue" stroke="midnightblue" points="204.871,-564.954 215.275,-566.958 208.391,-558.904 204.871,-564.954"/>
</g>
<!-- Node4 -->
<g id="node4" class="node"><title>Node4</title>
<g id="a_node4"><a xlink:href="../../d4/d3b/classauthoring_1_1model_1_1collections_1_1_general_collection.html#a1bdc1047736bbb23259d6a7fe4c6deeb" target="_top" xlink:title="authoring.model.collections.\lGeneralCollection.add">
<polygon fill="white" stroke="black" points="213,-518 213,-548 365,-548 365,-518 213,-518"/>
<text text-anchor="start" x="221" y="-536" font-family="Helvetica,sans-Serif" font-size="10.00">authoring.model.collections.</text>
<text text-anchor="middle" x="289" y="-525" font-family="Helvetica,sans-Serif" font-size="10.00">GeneralCollection.add</text>
</a>
</g>
</g>
<!-- Node1&#45;&gt;Node4 -->
<g id="edge3" class="edge"><title>Node1&#45;&gt;Node4</title>
<path fill="none" stroke="midnightblue" d="M87.6726,-327.153C99.8299,-364.006 136.03,-458.892 200,-508 202.441,-509.874 205.016,-511.607 207.692,-513.211"/>
<polygon fill="midnightblue" stroke="midnightblue" points="206.062,-516.308 216.537,-517.902 209.343,-510.124 206.062,-516.308"/>
</g>
<!-- Node5 -->
<g id="node5" class="node"><title>Node5</title>
<g id="a_node5"><a xlink:href="../../d7/dbf/classauthoring_1_1model_1_1_game_data.html#a4a3bfa5ed2418ba59bdf3e73b4ce310a" target="_top" xlink:title="authoring.model.GameData.get\lConditions">
<polygon fill="white" stroke="black" points="204,-469 204,-499 374,-499 374,-469 204,-469"/>
<text text-anchor="start" x="212" y="-487" font-family="Helvetica,sans-Serif" font-size="10.00">authoring.model.GameData.get</text>
<text text-anchor="middle" x="289" y="-476" font-family="Helvetica,sans-Serif" font-size="10.00">Conditions</text>
</a>
</g>
</g>
<!-- Node1&#45;&gt;Node5 -->
<g id="edge4" class="edge"><title>Node1&#45;&gt;Node5</title>
<path fill="none" stroke="midnightblue" d="M90.7469,-327.055C106.889,-356.903 147.066,-423.736 200,-459 203.09,-461.058 206.349,-462.949 209.721,-464.686"/>
<polygon fill="midnightblue" stroke="midnightblue" points="208.326,-467.897 218.871,-468.933 211.274,-461.548 208.326,-467.897"/>
</g>
<!-- Node6 -->
<g id="node6" class="node"><title>Node6</title>
<g id="a_node6"><a xlink:href="../../d7/dbf/classauthoring_1_1model_1_1_game_data.html#ab6eab149af02a9649d0e2b162daf3600" target="_top" xlink:title="authoring.model.GameData.get\lGameObjects">
<polygon fill="white" stroke="black" points="204,-420 204,-450 374,-450 374,-420 204,-420"/>
<text text-anchor="start" x="212" y="-438" font-family="Helvetica,sans-Serif" font-size="10.00">authoring.model.GameData.get</text>
<text text-anchor="middle" x="289" y="-427" font-family="Helvetica,sans-Serif" font-size="10.00">GameObjects</text>
</a>
</g>
</g>
<!-- Node1&#45;&gt;Node6 -->
<g id="edge5" class="edge"><title>Node1&#45;&gt;Node6</title>
<path fill="none" stroke="midnightblue" d="M97.0114,-327.24C117.584,-348.734 158.086,-387.803 200,-410 204.25,-412.251 208.726,-414.319 213.315,-416.216"/>
<polygon fill="midnightblue" stroke="midnightblue" points="212.266,-419.562 222.857,-419.874 214.772,-413.026 212.266,-419.562"/>
</g>
<!-- Node7 -->
<g id="node7" class="node"><title>Node7</title>
<g id="a_node7"><a xlink:href="../../d7/dbf/classauthoring_1_1model_1_1_game_data.html#a5646a2267289545d487d4fe4a8a6298e" target="_top" xlink:title="authoring.model.GameData.get\lImages">
<polygon fill="white" stroke="black" points="204,-371 204,-401 374,-401 374,-371 204,-371"/>
<text text-anchor="start" x="212" y="-389" font-family="Helvetica,sans-Serif" font-size="10.00">authoring.model.GameData.get</text>
<text text-anchor="middle" x="289" y="-378" font-family="Helvetica,sans-Serif" font-size="10.00">Images</text>
</a>
</g>
</g>
<!-- Node1&#45;&gt;Node7 -->
<g id="edge6" class="edge"><title>Node1&#45;&gt;Node7</title>
<path fill="none" stroke="midnightblue" d="M115.873,-327.012C139.098,-337.31 171.108,-350.887 200,-361 206.905,-363.417 214.174,-365.774 221.453,-368.013"/>
<polygon fill="midnightblue" stroke="midnightblue" points="220.767,-371.462 231.351,-370.99 222.783,-364.758 220.767,-371.462"/>
</g>
<!-- Node8 -->
<g id="node8" class="node"><title>Node8</title>
<g id="a_node8"><a xlink:href="../../d7/dbf/classauthoring_1_1model_1_1_game_data.html#a5188274f1af76c8d2e05a7c8dcba3805" target="_top" xlink:title="authoring.model.GameData.get\lLevels">
<polygon fill="white" stroke="black" points="204,-322 204,-352 374,-352 374,-322 204,-322"/>
<text text-anchor="start" x="212" y="-340" font-family="Helvetica,sans-Serif" font-size="10.00">authoring.model.GameData.get</text>
<text text-anchor="middle" x="289" y="-329" font-family="Helvetica,sans-Serif" font-size="10.00">Levels</text>
</a>
</g>
</g>
<!-- Node1&#45;&gt;Node8 -->
<g id="edge7" class="edge"><title>Node1&#45;&gt;Node8</title>
<path fill="none" stroke="midnightblue" d="M163.727,-321.845C173.643,-323.054 183.844,-324.298 193.935,-325.529"/>
<polygon fill="midnightblue" stroke="midnightblue" points="193.625,-329.017 203.975,-326.753 194.472,-322.068 193.625,-329.017"/>
</g>
<!-- Node9 -->
<g id="node9" class="node"><title>Node9</title>
<g id="a_node9"><a xlink:href="../../d7/dbf/classauthoring_1_1model_1_1_game_data.html#a4c24125abc447d6793b3d31091d7912a" target="_top" xlink:title="authoring.model.GameData.get\lSounds">
<polygon fill="white" stroke="black" points="204,-273 204,-303 374,-303 374,-273 204,-273"/>
<text text-anchor="start" x="212" y="-291" font-family="Helvetica,sans-Serif" font-size="10.00">authoring.model.GameData.get</text>
<text text-anchor="middle" x="289" y="-280" font-family="Helvetica,sans-Serif" font-size="10.00">Sounds</text>
</a>
</g>
</g>
<!-- Node1&#45;&gt;Node9 -->
<g id="edge8" class="edge"><title>Node1&#45;&gt;Node9</title>
<path fill="none" stroke="midnightblue" d="M163.727,-302.549C173.643,-301.388 183.844,-300.194 193.935,-299.012"/>
<polygon fill="midnightblue" stroke="midnightblue" points="194.45,-302.476 203.975,-297.837 193.636,-295.524 194.45,-302.476"/>
</g>
<!-- Node10 -->
<g id="node10" class="node"><title>Node10</title>
<g id="a_node10"><a xlink:href="../../d4/d3b/classauthoring_1_1model_1_1collections_1_1_general_collection.html#ac1a07043ac0a440791b84cee1604745c" target="_top" xlink:title="authoring.model.collections.\lGeneralCollection.remove">
<polygon fill="white" stroke="black" points="213,-224 213,-254 365,-254 365,-224 213,-224"/>
<text text-anchor="start" x="221" y="-242" font-family="Helvetica,sans-Serif" font-size="10.00">authoring.model.collections.</text>
<text text-anchor="middle" x="289" y="-231" font-family="Helvetica,sans-Serif" font-size="10.00">GeneralCollection.remove</text>
</a>
</g>
</g>
<!-- Node1&#45;&gt;Node10 -->
<g id="edge9" class="edge"><title>Node1&#45;&gt;Node10</title>
<path fill="none" stroke="midnightblue" d="M116.913,-296.902C140.065,-286.889 171.574,-273.834 200,-264 206.914,-261.608 214.189,-259.268 221.471,-257.038"/>
<polygon fill="midnightblue" stroke="midnightblue" points="222.798,-260.294 231.372,-254.07 220.788,-253.588 222.798,-260.294"/>
</g>
<!-- Node11 -->
<g id="node11" class="node"><title>Node11</title>
<g id="a_node11"><a xlink:href="../../df/d84/classengine_1_1level_1_1_level.html#a0a4cb515a5d4c8144a881486189ecb4c" target="_top" xlink:title="engine.level.Level.setBackground\lImage">
<polygon fill="white" stroke="black" points="201,-175 201,-205 377,-205 377,-175 201,-175"/>
<text text-anchor="start" x="209" y="-193" font-family="Helvetica,sans-Serif" font-size="10.00">engine.level.Level.setBackground</text>
<text text-anchor="middle" x="289" y="-182" font-family="Helvetica,sans-Serif" font-size="10.00">Image</text>
</a>
</g>
</g>
<!-- Node1&#45;&gt;Node11 -->
<g id="edge10" class="edge"><title>Node1&#45;&gt;Node11</title>
<path fill="none" stroke="midnightblue" d="M97.044,-296.923C117.656,-275.657 158.206,-236.998 200,-215 204.256,-212.76 208.736,-210.7 213.328,-208.809"/>
<polygon fill="midnightblue" stroke="midnightblue" points="214.783,-212 222.875,-205.161 212.284,-205.461 214.783,-212"/>
</g>
<!-- Node12 -->
<g id="node12" class="node"><title>Node12</title>
<g id="a_node12"><a xlink:href="../../df/d84/classengine_1_1level_1_1_level.html#a7d156d06e5396af71c3d69b47dedcc66" target="_top" xlink:title="engine.level.Level.setBackground\lMusic">
<polygon fill="white" stroke="black" points="201,-126 201,-156 377,-156 377,-126 201,-126"/>
<text text-anchor="start" x="209" y="-144" font-family="Helvetica,sans-Serif" font-size="10.00">engine.level.Level.setBackground</text>
<text text-anchor="middle" x="289" y="-133" font-family="Helvetica,sans-Serif" font-size="10.00">Music</text>
</a>
</g>
</g>
<!-- Node1&#45;&gt;Node12 -->
<g id="edge11" class="edge"><title>Node1&#45;&gt;Node12</title>
<path fill="none" stroke="midnightblue" d="M91.0254,-296.59C107.379,-266.725 147.499,-200.85 200,-166 203.093,-163.947 206.355,-162.06 209.729,-160.327"/>
<polygon fill="midnightblue" stroke="midnightblue" points="211.281,-163.465 218.884,-156.087 208.339,-157.114 211.281,-163.465"/>
</g>
<!-- Node13 -->
<g id="node13" class="node"><title>Node13</title>
<g id="a_node13"><a xlink:href="../../df/d84/classengine_1_1level_1_1_level.html#a1b07e6b160c4d26c8f02c1d57ef117bc" target="_top" xlink:title="engine.level.Level.setConditionIds">
<polygon fill="white" stroke="black" points="200,-87.5 200,-106.5 378,-106.5 378,-87.5 200,-87.5"/>
<text text-anchor="middle" x="289" y="-94.5" font-family="Helvetica,sans-Serif" font-size="10.00">engine.level.Level.setConditionIds</text>
</a>
</g>
</g>
<!-- Node1&#45;&gt;Node13 -->
<g id="edge12" class="edge"><title>Node1&#45;&gt;Node13</title>
<path fill="none" stroke="midnightblue" d="M87.4477,-296.98C99.2066,-260.022 134.776,-164.25 200,-117 203.261,-114.638 206.755,-112.548 210.401,-110.7"/>
<polygon fill="midnightblue" stroke="midnightblue" points="211.994,-113.823 219.733,-106.587 209.171,-107.417 211.994,-113.823"/>
</g>
<!-- Node14 -->
<g id="node14" class="node"><title>Node14</title>
<g id="a_node14"><a xlink:href="../../df/d84/classengine_1_1level_1_1_level.html#a978e8f0a732aecf29203b898e27b16b0" target="_top" xlink:title="engine.level.Level.setIdentifier">
<polygon fill="white" stroke="black" points="208.5,-49.5 208.5,-68.5 369.5,-68.5 369.5,-49.5 208.5,-49.5"/>
<text text-anchor="middle" x="289" y="-56.5" font-family="Helvetica,sans-Serif" font-size="10.00">engine.level.Level.setIdentifier</text>
</a>
</g>
</g>
<!-- Node1&#45;&gt;Node14 -->
<g id="edge13" class="edge"><title>Node1&#45;&gt;Node14</title>
<path fill="none" stroke="midnightblue" d="M85.8618,-296.817C94.6251,-254.764 125.181,-136.055 200,-78 202.315,-76.2034 204.764,-74.5681 207.313,-73.0801"/>
<polygon fill="midnightblue" stroke="midnightblue" points="208.949,-76.1752 216.323,-68.5678 205.814,-69.9161 208.949,-76.1752"/>
</g>
<!-- Node15 -->
<g id="node15" class="node"><title>Node15</title>
<g id="a_node15"><a xlink:href="../../df/d84/classengine_1_1level_1_1_level.html#ac6aa999d5ea5fa90274d0d201dab1f8c" target="_top" xlink:title="engine.level.Level.setStart\lIndicator">
<polygon fill="white" stroke="black" points="217.5,-0 217.5,-30 360.5,-30 360.5,-0 217.5,-0"/>
<text text-anchor="start" x="225.5" y="-18" font-family="Helvetica,sans-Serif" font-size="10.00">engine.level.Level.setStart</text>
<text text-anchor="middle" x="289" y="-7" font-family="Helvetica,sans-Serif" font-size="10.00">Indicator</text>
</a>
</g>
</g>
<!-- Node1&#45;&gt;Node15 -->
<g id="edge14" class="edge"><title>Node1&#45;&gt;Node15</title>
<path fill="none" stroke="midnightblue" d="M84.9718,-296.705C91.7407,-250.599 118.311,-111.746 200,-40 202.646,-37.6762 205.493,-35.5674 208.488,-33.6538"/>
<polygon fill="midnightblue" stroke="midnightblue" points="210.238,-36.6853 217.271,-28.7612 206.832,-30.5701 210.238,-36.6853"/>
</g>
</g>
</svg>
