<?xml version="1.0" encoding="UTF-8" standalone="no"?>
<!DOCTYPE svg PUBLIC "-//W3C//DTD SVG 1.1//EN"
 "http://www.w3.org/Graphics/SVG/1.1/DTD/svg11.dtd">
<!-- Generated by graphviz version 2.36.0 (20140111.2315)
 -->
<!-- Title: engine.conditions.BoundaryConditionX Pages: 1 -->
<svg width="333pt" height="220pt"
 viewBox="0.00 0.00 333.00 220.00" xmlns="http://www.w3.org/2000/svg" xmlns:xlink="http://www.w3.org/1999/xlink">
<g id="graph0" class="graph" transform="scale(1 1) rotate(0) translate(4 216)">
<title>engine.conditions.BoundaryConditionX</title>
<polygon fill="white" stroke="none" points="-4,4 -4,-216 329,-216 329,4 -4,4"/>
<!-- Node1 -->
<g id="node1" class="node"><title>Node1</title>
<polygon fill="#bfbfbf" stroke="black" points="93.5,-1 93.5,-31 242.5,-31 242.5,-1 93.5,-1"/>
<text text-anchor="start" x="101.5" y="-19" font-family="Helvetica,sans-Serif" font-size="10.00">engine.conditions.Boundary</text>
<text text-anchor="middle" x="168" y="-8" font-family="Helvetica,sans-Serif" font-size="10.00">ConditionX</text>
</g>
<!-- Node2 -->
<g id="node2" class="node"><title>Node2</title>
<g id="a_node2"><a xlink:href="../../db/dfc/classengine_1_1conditions_1_1_game_object_condition.html" target="_top" xlink:title="engine.conditions.GameObject\lCondition">
<polygon fill="white" stroke="black" points="86,-69 86,-99 250,-99 250,-69 86,-69"/>
<text text-anchor="start" x="94" y="-87" font-family="Helvetica,sans-Serif" font-size="10.00">engine.conditions.GameObject</text>
<text text-anchor="middle" x="168" y="-76" font-family="Helvetica,sans-Serif" font-size="10.00">Condition</text>
</a>
</g>
</g>
<!-- Node2&#45;&gt;Node1 -->
<g id="edge1" class="edge"><title>Node2&#45;&gt;Node1</title>
<path fill="none" stroke="midnightblue" d="M168,-58.5322C168,-49.3606 168,-39.2449 168,-31.2931"/>
<polygon fill="midnightblue" stroke="midnightblue" points="164.5,-58.6789 168,-68.679 171.5,-58.679 164.5,-58.6789"/>
</g>
<!-- Node3 -->
<g id="node3" class="node"><title>Node3</title>
<g id="a_node3"><a xlink:href="../../d1/d3b/classengine_1_1conditions_1_1_condition.html" target="_top" xlink:title="engine.conditions.Condition">
<polygon fill="white" stroke="black" points="93.5,-136.5 93.5,-155.5 242.5,-155.5 242.5,-136.5 93.5,-136.5"/>
<text text-anchor="middle" x="168" y="-143.5" font-family="Helvetica,sans-Serif" font-size="10.00">engine.conditions.Condition</text>
</a>
</g>
</g>
<!-- Node3&#45;&gt;Node2 -->
<g id="edge2" class="edge"><title>Node3&#45;&gt;Node2</title>
<path fill="none" stroke="midnightblue" d="M168,-126.371C168,-117.585 168,-107.272 168,-99.1408"/>
<polygon fill="midnightblue" stroke="midnightblue" points="164.5,-126.403 168,-136.403 171.5,-126.403 164.5,-126.403"/>
</g>
<!-- Node4 -->
<g id="node4" class="node"><title>Node4</title>
<g id="a_node4"><a xlink:href="../../dc/df6/interfaceengine_1_1game_object_1_1_identifiable.html" target="_top" xlink:title="engine.gameObject.Identifiable">
<polygon fill="white" stroke="black" points="-0.5,-192.5 -0.5,-211.5 164.5,-211.5 164.5,-192.5 -0.5,-192.5"/>
<text text-anchor="middle" x="82" y="-199.5" font-family="Helvetica,sans-Serif" font-size="10.00">engine.gameObject.Identifiable</text>
</a>
</g>
</g>
<!-- Node4&#45;&gt;Node3 -->
<g id="edge3" class="edge"><title>Node4&#45;&gt;Node3</title>
<path fill="none" stroke="midnightblue" d="M104.455,-186.901C120.224,-176.999 140.814,-164.071 154.217,-155.655"/>
<polygon fill="midnightblue" stroke="midnightblue" points="102.425,-184.042 95.8174,-192.324 106.148,-189.97 102.425,-184.042"/>
</g>
<!-- Node5 -->
<g id="node5" class="node"><title>Node5</title>
<g id="a_node5"><a xlink:href="../../d2/d15/interfaceengine_1_1actions_1_1_initializable.html" target="_top" xlink:title="engine.actions.Initializable">
<polygon fill="white" stroke="black" points="183,-192.5 183,-211.5 325,-211.5 325,-192.5 183,-192.5"/>
<text text-anchor="middle" x="254" y="-199.5" font-family="Helvetica,sans-Serif" font-size="10.00">engine.actions.Initializable</text>
</a>
</g>
</g>
<!-- Node5&#45;&gt;Node3 -->
<g id="edge4" class="edge"><title>Node5&#45;&gt;Node3</title>
<path fill="none" stroke="midnightblue" d="M231.545,-186.901C215.776,-176.999 195.186,-164.071 181.783,-155.655"/>
<polygon fill="midnightblue" stroke="midnightblue" points="229.852,-189.97 240.183,-192.324 233.575,-184.042 229.852,-189.97"/>
</g>
</g>
</svg>
