<?xml version="1.0" encoding="UTF-8" standalone="no"?>
<!DOCTYPE svg PUBLIC "-//W3C//DTD SVG 1.1//EN"
 "http://www.w3.org/Graphics/SVG/1.1/DTD/svg11.dtd">
<!-- Generated by graphviz version 2.36.0 (20140111.2315)
 -->
<!-- Title: authoring.view.icons.ConditionIcon.getCondition Pages: 1 -->
<svg width="650pt" height="38pt"
 viewBox="0.00 0.00 650.00 38.00" xmlns="http://www.w3.org/2000/svg" xmlns:xlink="http://www.w3.org/1999/xlink">
<g id="graph0" class="graph" transform="scale(1 1) rotate(0) translate(4 34)">
<title>authoring.view.icons.ConditionIcon.getCondition</title>
<polygon fill="white" stroke="none" points="-4,4 -4,-34 646,-34 646,4 -4,4"/>
<!-- Node1 -->
<g id="node1" class="node"><title>Node1</title>
<polygon fill="#bfbfbf" stroke="black" points="0.5,-0 0.5,-30 161.5,-30 161.5,-0 0.5,-0"/>
<text text-anchor="start" x="8.5" y="-18" font-family="Helvetica,sans-Serif" font-size="10.00">authoring.view.icons.Condition</text>
<text text-anchor="middle" x="81" y="-7" font-family="Helvetica,sans-Serif" font-size="10.00">Icon.getCondition</text>
</g>
<!-- Node2 -->
<g id="node2" class="node"><title>Node2</title>
<g id="a_node2"><a xlink:href="../../d2/da2/classauthoring_1_1view_1_1propertiesview_1_1_condition_properties.html#a061e80d669b358adb1dc78da35ab49c9" target="_top" xlink:title="authoring.view.propertiesview.\lConditionProperties.initializeProperties">
<polygon fill="white" stroke="black" points="198,-0 198,-30 398,-30 398,-0 198,-0"/>
<text text-anchor="start" x="206" y="-18" font-family="Helvetica,sans-Serif" font-size="10.00">authoring.view.propertiesview.</text>
<text text-anchor="middle" x="298" y="-7" font-family="Helvetica,sans-Serif" font-size="10.00">ConditionProperties.initializeProperties</text>
</a>
</g>
</g>
<!-- Node1&#45;&gt;Node2 -->
<g id="edge1" class="edge"><title>Node1&#45;&gt;Node2</title>
<path fill="none" stroke="midnightblue" d="M172.012,-15C180.496,-15 189.129,-15 197.692,-15"/>
<polygon fill="midnightblue" stroke="midnightblue" points="171.753,-11.5001 161.753,-15 171.752,-18.5001 171.753,-11.5001"/>
</g>
<!-- Node3 -->
<g id="node3" class="node"><title>Node3</title>
<g id="a_node3"><a xlink:href="../../d2/da2/classauthoring_1_1view_1_1propertiesview_1_1_condition_properties.html#a230dbe536eabc0276f6a94f7d9a47b60" target="_top" xlink:title="authoring.view.propertiesview.\lConditionProperties.ConditionProperties">
<polygon fill="white" stroke="black" points="434.5,-0 434.5,-30 641.5,-30 641.5,-0 434.5,-0"/>
<text text-anchor="start" x="442.5" y="-18" font-family="Helvetica,sans-Serif" font-size="10.00">authoring.view.propertiesview.</text>
<text text-anchor="middle" x="538" y="-7" font-family="Helvetica,sans-Serif" font-size="10.00">ConditionProperties.ConditionProperties</text>
</a>
</g>
</g>
<!-- Node2&#45;&gt;Node3 -->
<g id="edge2" class="edge"><title>Node2&#45;&gt;Node3</title>
<path fill="none" stroke="midnightblue" d="M408.272,-15C416.879,-15 425.554,-15 434.116,-15"/>
<polygon fill="midnightblue" stroke="midnightblue" points="408.21,-11.5001 398.21,-15 408.21,-18.5001 408.21,-11.5001"/>
</g>
</g>
</svg>
