<?xml version="1.0" encoding="UTF-8" standalone="no"?>
<!DOCTYPE svg PUBLIC "-//W3C//DTD SVG 1.1//EN"
 "http://www.w3.org/Graphics/SVG/1.1/DTD/svg11.dtd">
<!-- Generated by graphviz version 2.36.0 (20140111.2315)
 -->
<!-- Title: authoring.main.Main Pages: 1 -->
<svg width="602pt" height="244pt"
 viewBox="0.00 0.00 602.00 244.00" xmlns="http://www.w3.org/2000/svg" xmlns:xlink="http://www.w3.org/1999/xlink">
<g id="graph0" class="graph" transform="scale(1 1) rotate(0) translate(4 240)">
<title>authoring.main.Main</title>
<polygon fill="white" stroke="none" points="-4,4 -4,-240 598,-240 598,4 -4,4"/>
<!-- Node1 -->
<g id="node1" class="node"><title>Node1</title>
<polygon fill="#bfbfbf" stroke="black" points="39.5,-0.5 39.5,-19.5 154.5,-19.5 154.5,-0.5 39.5,-0.5"/>
<text text-anchor="middle" x="97" y="-7.5" font-family="Helvetica,sans-Serif" font-size="10.00">authoring.main.Main</text>
</g>
<!-- Node2 -->
<g id="node2" class="node"><title>Node2</title>
<polygon fill="white" stroke="#bfbfbf" points="-0.5,-74.5 -0.5,-93.5 68.5,-93.5 68.5,-74.5 -0.5,-74.5"/>
<text text-anchor="middle" x="34" y="-81.5" font-family="Helvetica,sans-Serif" font-size="10.00">Application</text>
</g>
<!-- Node2&#45;&gt;Node1 -->
<g id="edge1" class="edge"><title>Node2&#45;&gt;Node1</title>
<path fill="none" stroke="midnightblue" d="M48.2829,-66.6767C61.0995,-52.0292 79.405,-31.1086 89.5354,-19.531"/>
<polygon fill="midnightblue" stroke="midnightblue" points="45.4254,-64.6273 41.4743,-74.4579 50.6934,-69.2369 45.4254,-64.6273"/>
</g>
<!-- Node3 -->
<g id="node3" class="node"><title>Node3</title>
<g id="a_node3"><a xlink:href="../../d6/dbb/classauthoring_1_1view_1_1_authoring_scene.html" target="_top" xlink:title="authoring.view.Authoring\lScene">
<polygon fill="white" stroke="black" points="272,-69 272,-99 406,-99 406,-69 272,-69"/>
<text text-anchor="start" x="280" y="-87" font-family="Helvetica,sans-Serif" font-size="10.00">authoring.view.Authoring</text>
<text text-anchor="middle" x="339" y="-76" font-family="Helvetica,sans-Serif" font-size="10.00">Scene</text>
</a>
</g>
</g>
<!-- Node3&#45;&gt;Node1 -->
<g id="edge2" class="edge"><title>Node3&#45;&gt;Node1</title>
<path fill="none" stroke="#9a32cd" stroke-dasharray="5,2" d="M281.932,-66.021C232.92,-51.439 164.276,-31.016 125.896,-19.5972"/>
<polygon fill="#9a32cd" stroke="#9a32cd" points="281.183,-69.4497 291.765,-68.9468 283.179,-62.7403 281.183,-69.4497"/>
<text text-anchor="middle" x="250.5" y="-41.5" font-family="Helvetica,sans-Serif" font-size="10.00"> myScene</text>
</g>
<!-- Node4 -->
<g id="node4" class="node"><title>Node4</title>
<g id="a_node4"><a xlink:href="../../d3/df3/classauthoring_1_1view_1_1_program_menu.html" target="_top" xlink:title="authoring.view.ProgramMenu">
<polygon fill="white" stroke="black" points="261.5,-148.5 261.5,-167.5 416.5,-167.5 416.5,-148.5 261.5,-148.5"/>
<text text-anchor="middle" x="339" y="-155.5" font-family="Helvetica,sans-Serif" font-size="10.00">authoring.view.ProgramMenu</text>
</a>
</g>
</g>
<!-- Node4&#45;&gt;Node3 -->
<g id="edge3" class="edge"><title>Node4&#45;&gt;Node3</title>
<path fill="none" stroke="#9a32cd" stroke-dasharray="5,2" d="M339,-138.085C339,-125.915 339,-110.354 339,-99.2316"/>
<polygon fill="#9a32cd" stroke="#9a32cd" points="335.5,-138.458 339,-148.458 342.5,-138.458 335.5,-138.458"/>
<text text-anchor="middle" x="361.5" y="-121.5" font-family="Helvetica,sans-Serif" font-size="10.00"> myMenu</text>
</g>
<!-- Node5 -->
<g id="node5" class="node"><title>Node5</title>
<polygon fill="white" stroke="#bfbfbf" points="234.5,-216.5 234.5,-235.5 293.5,-235.5 293.5,-216.5 234.5,-216.5"/>
<text text-anchor="middle" x="264" y="-223.5" font-family="Helvetica,sans-Serif" font-size="10.00">MenuBar</text>
</g>
<!-- Node5&#45;&gt;Node4 -->
<g id="edge4" class="edge"><title>Node5&#45;&gt;Node4</title>
<path fill="none" stroke="midnightblue" d="M281.713,-209.412C296.447,-196.447 316.891,-178.456 328.953,-167.841"/>
<polygon fill="midnightblue" stroke="midnightblue" points="279,-207.138 273.805,-216.372 283.624,-212.393 279,-207.138"/>
</g>
<!-- Node6 -->
<g id="node6" class="node"><title>Node6</title>
<polygon fill="white" stroke="#bfbfbf" points="311.5,-216.5 311.5,-235.5 382.5,-235.5 382.5,-216.5 311.5,-216.5"/>
<text text-anchor="middle" x="347" y="-223.5" font-family="Helvetica,sans-Serif" font-size="10.00">FileChooser</text>
</g>
<!-- Node6&#45;&gt;Node4 -->
<g id="edge5" class="edge"><title>Node6&#45;&gt;Node4</title>
<path fill="none" stroke="#9a32cd" stroke-dasharray="5,2" d="M342.398,-206.19C341.852,-203.455 341.362,-200.665 341,-198 339.595,-187.654 339.157,-175.642 339.03,-167.713"/>
<polygon fill="#9a32cd" stroke="#9a32cd" points="339.011,-207.08 344.62,-216.068 345.84,-205.544 339.011,-207.08"/>
<text text-anchor="middle" x="377.5" y="-189.5" font-family="Helvetica,sans-Serif" font-size="10.00"> myFileChooser</text>
</g>
<!-- Node7 -->
<g id="node7" class="node"><title>Node7</title>
<polygon fill="white" stroke="#bfbfbf" points="400.5,-216.5 400.5,-235.5 493.5,-235.5 493.5,-216.5 400.5,-216.5"/>
<text text-anchor="middle" x="447" y="-223.5" font-family="Helvetica,sans-Serif" font-size="10.00">ResourceBundle</text>
</g>
<!-- Node7&#45;&gt;Node4 -->
<g id="edge6" class="edge"><title>Node7&#45;&gt;Node4</title>
<path fill="none" stroke="#9a32cd" stroke-dasharray="5,2" d="M435.833,-208.118C430.075,-200.491 422.482,-191.891 414,-186 402.179,-177.79 387.585,-171.794 374.421,-167.569"/>
<polygon fill="#9a32cd" stroke="#9a32cd" points="433.061,-210.259 441.693,-216.402 438.776,-206.217 433.061,-210.259"/>
<text text-anchor="middle" x="460" y="-189.5" font-family="Helvetica,sans-Serif" font-size="10.00"> myLanguage</text>
</g>
<!-- Node8 -->
<g id="node8" class="node"><title>Node8</title>
<polygon fill="white" stroke="#bfbfbf" points="179.5,-216.5 179.5,-235.5 216.5,-235.5 216.5,-216.5 179.5,-216.5"/>
<text text-anchor="middle" x="198" y="-223.5" font-family="Helvetica,sans-Serif" font-size="10.00">Map</text>
</g>
<!-- Node8&#45;&gt;Node4 -->
<g id="edge7" class="edge"><title>Node8&#45;&gt;Node4</title>
<path fill="none" stroke="#9a32cd" stroke-dasharray="5,2" d="M204.7,-207.202C208.412,-199.607 213.765,-191.291 221,-186 232.874,-177.316 247.077,-171.362 261.448,-167.295"/>
<polygon fill="#9a32cd" stroke="#9a32cd" points="201.456,-205.887 200.745,-216.458 207.893,-208.638 201.456,-205.887"/>
<text text-anchor="middle" x="256" y="-189.5" font-family="Helvetica,sans-Serif" font-size="10.00"> ControllerMap</text>
</g>
<!-- Node9 -->
<g id="node9" class="node"><title>Node9</title>
<polygon fill="white" stroke="#bfbfbf" points="99.5,-216.5 99.5,-235.5 146.5,-235.5 146.5,-216.5 99.5,-216.5"/>
<text text-anchor="middle" x="123" y="-223.5" font-family="Helvetica,sans-Serif" font-size="10.00">Locale</text>
</g>
<!-- Node9&#45;&gt;Node1 -->
<g id="edge13" class="edge"><title>Node9&#45;&gt;Node1</title>
<path fill="none" stroke="#9a32cd" stroke-dasharray="5,2" d="M120.733,-206.343C115.333,-161.896 101.873,-51.111 98.036,-19.5273"/>
<polygon fill="#9a32cd" stroke="#9a32cd" points="117.268,-206.841 121.949,-216.346 124.217,-205.997 117.268,-206.841"/>
<text text-anchor="middle" x="154" y="-121.5" font-family="Helvetica,sans-Serif" font-size="10.00"> myDefaultLocale</text>
</g>
<!-- Node9&#45;&gt;Node4 -->
<g id="edge8" class="edge"><title>Node9&#45;&gt;Node4</title>
<path fill="none" stroke="#9a32cd" stroke-dasharray="5,2" d="M134.128,-207.886C140.212,-199.942 148.454,-191.137 158,-186 167.687,-180.786 219.871,-173.311 265.733,-167.548"/>
<polygon fill="#9a32cd" stroke="#9a32cd" points="131.132,-206.062 128.221,-216.249 136.849,-210.1 131.132,-206.062"/>
<text text-anchor="middle" x="182.5" y="-189.5" font-family="Helvetica,sans-Serif" font-size="10.00"> myLocale</text>
</g>
<!-- Node10 -->
<g id="node10" class="node"><title>Node10</title>
<polygon fill="white" stroke="#bfbfbf" points="535,-216.5 535,-235.5 591,-235.5 591,-216.5 535,-216.5"/>
<text text-anchor="middle" x="563" y="-223.5" font-family="Helvetica,sans-Serif" font-size="10.00">TabPane</text>
</g>
<!-- Node10&#45;&gt;Node3 -->
<g id="edge11" class="edge"><title>Node10&#45;&gt;Node3</title>
<path fill="none" stroke="#9a32cd" stroke-dasharray="5,2" d="M568.42,-206.62C569.427,-199.803 569.294,-192.223 566,-186 540.857,-138.497 514.95,-140.195 466,-118 447.223,-109.486 425.851,-102.868 406.064,-97.8687"/>
<polygon fill="#9a32cd" stroke="#9a32cd" points="565.001,-205.871 566.189,-216.399 571.826,-207.428 565.001,-205.871"/>
<text text-anchor="middle" x="574" y="-155.5" font-family="Helvetica,sans-Serif" font-size="10.00"> myTabs</text>
</g>
<!-- Node10&#45;&gt;Node4 -->
<g id="edge9" class="edge"><title>Node10&#45;&gt;Node4</title>
<path fill="none" stroke="#9a32cd" stroke-dasharray="5,2" d="M543.147,-210.665C530.518,-202.224 513.49,-192.047 497,-186 479.887,-179.725 438.915,-172.801 402.983,-167.537"/>
<polygon fill="#9a32cd" stroke="#9a32cd" points="541.275,-213.626 551.495,-216.421 545.249,-207.863 541.275,-213.626"/>
<text text-anchor="middle" x="542" y="-189.5" font-family="Helvetica,sans-Serif" font-size="10.00"> myTabs</text>
</g>
<!-- Node11 -->
<g id="node11" class="node"><title>Node11</title>
<polygon fill="white" stroke="#bfbfbf" points="434.5,-148.5 434.5,-167.5 481.5,-167.5 481.5,-148.5 434.5,-148.5"/>
<text text-anchor="middle" x="458" y="-155.5" font-family="Helvetica,sans-Serif" font-size="10.00">Scene</text>
</g>
<!-- Node11&#45;&gt;Node3 -->
<g id="edge10" class="edge"><title>Node11&#45;&gt;Node3</title>
<path fill="none" stroke="#9a32cd" stroke-dasharray="5,2" d="M435.057,-143.119C414.2,-130.499 383.557,-111.959 362.522,-99.2316"/>
<polygon fill="#9a32cd" stroke="#9a32cd" points="433.514,-146.276 443.882,-148.458 437.138,-140.287 433.514,-146.276"/>
<text text-anchor="middle" x="437.5" y="-121.5" font-family="Helvetica,sans-Serif" font-size="10.00"> myScene</text>
</g>
<!-- Node12 -->
<g id="node12" class="node"><title>Node12</title>
<polygon fill="white" stroke="#bfbfbf" points="171,-148.5 171,-167.5 243,-167.5 243,-148.5 171,-148.5"/>
<text text-anchor="middle" x="207" y="-155.5" font-family="Helvetica,sans-Serif" font-size="10.00">BorderPane</text>
</g>
<!-- Node12&#45;&gt;Node3 -->
<g id="edge12" class="edge"><title>Node12&#45;&gt;Node3</title>
<path fill="none" stroke="#9a32cd" stroke-dasharray="5,2" d="M231.517,-143.627C254.664,-131.001 289.26,-112.131 312.909,-99.2316"/>
<polygon fill="#9a32cd" stroke="#9a32cd" points="229.763,-140.597 222.66,-148.458 233.115,-146.742 229.763,-140.597"/>
<text text-anchor="middle" x="297" y="-121.5" font-family="Helvetica,sans-Serif" font-size="10.00"> myRoot</text>
</g>
</g>
</svg>
