<?xml version="1.0" encoding="UTF-8" standalone="no"?>
<!DOCTYPE svg PUBLIC "-//W3C//DTD SVG 1.1//EN"
 "http://www.w3.org/Graphics/SVG/1.1/DTD/svg11.dtd">
<!-- Generated by graphviz version 2.36.0 (20140111.2315)
 -->
<!-- Title: authoring.main.Main Pages: 1 -->
<svg width="775pt" height="312pt"
 viewBox="0.00 0.00 775.00 312.00" xmlns="http://www.w3.org/2000/svg" xmlns:xlink="http://www.w3.org/1999/xlink">
<g id="graph0" class="graph" transform="scale(1 1) rotate(0) translate(4 308)">
<title>authoring.main.Main</title>
<polygon fill="white" stroke="none" points="-4,4 -4,-308 771,-308 771,4 -4,4"/>
<!-- Node1 -->
<g id="node1" class="node"><title>Node1</title>
<polygon fill="#bfbfbf" stroke="black" points="86.5,-0.5 86.5,-19.5 201.5,-19.5 201.5,-0.5 86.5,-0.5"/>
<text text-anchor="middle" x="144" y="-7.5" font-family="Helvetica,sans-Serif" font-size="10.00">authoring.main.Main</text>
</g>
<!-- Node2 -->
<g id="node2" class="node"><title>Node2</title>
<polygon fill="white" stroke="#bfbfbf" points="46.5,-74.5 46.5,-93.5 115.5,-93.5 115.5,-74.5 46.5,-74.5"/>
<text text-anchor="middle" x="81" y="-81.5" font-family="Helvetica,sans-Serif" font-size="10.00">Application</text>
</g>
<!-- Node2&#45;&gt;Node1 -->
<g id="edge1" class="edge"><title>Node2&#45;&gt;Node1</title>
<path fill="none" stroke="midnightblue" d="M95.2829,-66.6767C108.099,-52.0292 126.405,-31.1086 136.535,-19.531"/>
<polygon fill="midnightblue" stroke="midnightblue" points="92.4254,-64.6273 88.4743,-74.4579 97.6934,-69.2369 92.4254,-64.6273"/>
</g>
<!-- Node3 -->
<g id="node3" class="node"><title>Node3</title>
<g id="a_node3"><a xlink:href="../../d6/dbb/classauthoring_1_1view_1_1_authoring_scene.html" target="_top" xlink:title="authoring.view.Authoring\lScene">
<polygon fill="white" stroke="black" points="209,-69 209,-99 343,-99 343,-69 209,-69"/>
<text text-anchor="start" x="217" y="-87" font-family="Helvetica,sans-Serif" font-size="10.00">authoring.view.Authoring</text>
<text text-anchor="middle" x="276" y="-76" font-family="Helvetica,sans-Serif" font-size="10.00">Scene</text>
</a>
</g>
</g>
<!-- Node3&#45;&gt;Node1 -->
<g id="edge2" class="edge"><title>Node3&#45;&gt;Node1</title>
<path fill="none" stroke="#9a32cd" stroke-dasharray="5,2" d="M241.296,-64.0707C214.887,-49.6656 179.778,-30.5154 159.762,-19.5972"/>
<polygon fill="#9a32cd" stroke="#9a32cd" points="239.781,-67.2308 250.236,-68.9468 243.133,-61.0855 239.781,-67.2308"/>
<text text-anchor="middle" x="238.5" y="-41.5" font-family="Helvetica,sans-Serif" font-size="10.00"> myScene</text>
</g>
<!-- Node4 -->
<g id="node4" class="node"><title>Node4</title>
<g id="a_node4"><a xlink:href="../../d3/df3/classauthoring_1_1view_1_1_program_menu.html" target="_top" xlink:title="authoring.view.ProgramMenu">
<polygon fill="white" stroke="black" points="313.5,-148.5 313.5,-167.5 468.5,-167.5 468.5,-148.5 313.5,-148.5"/>
<text text-anchor="middle" x="391" y="-155.5" font-family="Helvetica,sans-Serif" font-size="10.00">authoring.view.ProgramMenu</text>
</a>
</g>
</g>
<!-- Node4&#45;&gt;Node3 -->
<g id="edge3" class="edge"><title>Node4&#45;&gt;Node3</title>
<path fill="none" stroke="#9a32cd" stroke-dasharray="5,2" d="M368.828,-143.119C348.672,-130.499 319.06,-111.959 298.731,-99.2316"/>
<polygon fill="#9a32cd" stroke="#9a32cd" points="367.023,-146.118 377.356,-148.458 370.738,-140.185 367.023,-146.118"/>
<text text-anchor="middle" x="370.5" y="-121.5" font-family="Helvetica,sans-Serif" font-size="10.00"> myMenu</text>
</g>
<!-- Node5 -->
<g id="node5" class="node"><title>Node5</title>
<polygon fill="white" stroke="#bfbfbf" points="508.5,-216.5 508.5,-235.5 567.5,-235.5 567.5,-216.5 508.5,-216.5"/>
<text text-anchor="middle" x="538" y="-223.5" font-family="Helvetica,sans-Serif" font-size="10.00">MenuBar</text>
</g>
<!-- Node5&#45;&gt;Node4 -->
<g id="edge4" class="edge"><title>Node5&#45;&gt;Node4</title>
<path fill="none" stroke="midnightblue" d="M530.085,-207.419C525.781,-199.746 519.738,-191.307 512,-186 499.131,-177.174 483.847,-171.182 468.547,-167.126"/>
<polygon fill="midnightblue" stroke="midnightblue" points="526.994,-209.063 534.604,-216.434 533.252,-205.926 526.994,-209.063"/>
</g>
<!-- Node6 -->
<g id="node6" class="node"><title>Node6</title>
<polygon fill="white" stroke="#bfbfbf" points="585.5,-216.5 585.5,-235.5 656.5,-235.5 656.5,-216.5 585.5,-216.5"/>
<text text-anchor="middle" x="621" y="-223.5" font-family="Helvetica,sans-Serif" font-size="10.00">FileChooser</text>
</g>
<!-- Node6&#45;&gt;Node4 -->
<g id="edge5" class="edge"><title>Node6&#45;&gt;Node4</title>
<path fill="none" stroke="#9a32cd" stroke-dasharray="5,2" d="M595.066,-211.96C577.387,-203.524 553.239,-192.872 531,-186 505.103,-177.997 475.746,-171.901 450.628,-167.544"/>
<polygon fill="#9a32cd" stroke="#9a32cd" points="593.645,-215.161 604.169,-216.381 596.703,-208.864 593.645,-215.161"/>
<text text-anchor="middle" x="597.5" y="-189.5" font-family="Helvetica,sans-Serif" font-size="10.00"> myFileChooser</text>
</g>
<!-- Node7 -->
<g id="node7" class="node"><title>Node7</title>
<polygon fill="white" stroke="#bfbfbf" points="674.5,-216.5 674.5,-235.5 767.5,-235.5 767.5,-216.5 674.5,-216.5"/>
<text text-anchor="middle" x="721" y="-223.5" font-family="Helvetica,sans-Serif" font-size="10.00">ResourceBundle</text>
</g>
<!-- Node7&#45;&gt;Node4 -->
<g id="edge6" class="edge"><title>Node7&#45;&gt;Node4</title>
<path fill="none" stroke="#9a32cd" stroke-dasharray="5,2" d="M697.81,-211.557C681.595,-202.804 659.14,-191.944 638,-186 633.873,-184.84 539.591,-174.705 468.735,-167.192"/>
<polygon fill="#9a32cd" stroke="#9a32cd" points="696.136,-214.631 706.58,-216.415 699.528,-208.508 696.136,-214.631"/>
<text text-anchor="middle" x="701" y="-189.5" font-family="Helvetica,sans-Serif" font-size="10.00"> myLanguage</text>
</g>
<!-- Node8 -->
<g id="node8" class="node"><title>Node8</title>
<polygon fill="white" stroke="#bfbfbf" points="74,-216.5 74,-235.5 174,-235.5 174,-216.5 74,-216.5"/>
<text text-anchor="middle" x="124" y="-223.5" font-family="Helvetica,sans-Serif" font-size="10.00">DirectoryChooser</text>
</g>
<!-- Node8&#45;&gt;Node4 -->
<g id="edge7" class="edge"><title>Node8&#45;&gt;Node4</title>
<path fill="none" stroke="#9a32cd" stroke-dasharray="5,2" d="M138.914,-208.797C147.472,-200.564 158.901,-191.221 171,-186 177.658,-183.127 252.763,-174.275 313.393,-167.482"/>
<polygon fill="#9a32cd" stroke="#9a32cd" points="136.173,-206.593 131.661,-216.179 141.166,-211.499 136.173,-206.593"/>
<text text-anchor="middle" x="222" y="-189.5" font-family="Helvetica,sans-Serif" font-size="10.00"> myDirectoryChooser</text>
</g>
<!-- Node9 -->
<g id="node9" class="node"><title>Node9</title>
<polygon fill="white" stroke="#bfbfbf" points="327.5,-216.5 327.5,-235.5 364.5,-235.5 364.5,-216.5 327.5,-216.5"/>
<text text-anchor="middle" x="346" y="-223.5" font-family="Helvetica,sans-Serif" font-size="10.00">Map</text>
</g>
<!-- Node9&#45;&gt;Node4 -->
<g id="edge8" class="edge"><title>Node9&#45;&gt;Node4</title>
<path fill="none" stroke="#9a32cd" stroke-dasharray="5,2" d="M342.899,-205.983C342.703,-199.279 343.576,-191.939 347,-186 351.656,-177.925 359.791,-171.955 367.809,-167.712"/>
<polygon fill="#9a32cd" stroke="#9a32cd" points="339.457,-206.723 343.977,-216.306 346.42,-205.996 339.457,-206.723"/>
<text text-anchor="middle" x="382" y="-189.5" font-family="Helvetica,sans-Serif" font-size="10.00"> ControllerMap</text>
</g>
<!-- Node10 -->
<g id="node10" class="node"><title>Node10</title>
<polygon fill="white" stroke="#bfbfbf" points="233.5,-216.5 233.5,-235.5 280.5,-235.5 280.5,-216.5 233.5,-216.5"/>
<text text-anchor="middle" x="257" y="-223.5" font-family="Helvetica,sans-Serif" font-size="10.00">Locale</text>
</g>
<!-- Node10&#45;&gt;Node1 -->
<g id="edge16" class="edge"><title>Node10&#45;&gt;Node1</title>
<path fill="none" stroke="#9a32cd" stroke-dasharray="5,2" d="M244.423,-208.171C239.139,-201.229 232.868,-193.15 227,-186 206.019,-160.436 193.814,-159.046 178,-130 157.246,-91.8808 148.075,-39.8267 145.13,-19.5625"/>
<polygon fill="#9a32cd" stroke="#9a32cd" points="241.665,-210.328 250.482,-216.203 247.253,-206.112 241.665,-210.328"/>
<text text-anchor="middle" x="220" y="-121.5" font-family="Helvetica,sans-Serif" font-size="10.00"> myDefaultLocale</text>
</g>
<!-- Node10&#45;&gt;Node4 -->
<g id="edge9" class="edge"><title>Node10&#45;&gt;Node4</title>
<path fill="none" stroke="#9a32cd" stroke-dasharray="5,2" d="M268.198,-208.059C274.126,-200.3 282.035,-191.605 291,-186 304.723,-177.42 321.157,-171.536 336.699,-167.512"/>
<polygon fill="#9a32cd" stroke="#9a32cd" points="265.345,-206.031 262.395,-216.207 271.047,-210.092 265.345,-206.031"/>
<text text-anchor="middle" x="315.5" y="-189.5" font-family="Helvetica,sans-Serif" font-size="10.00"> myLocale</text>
</g>
<!-- Node11 -->
<g id="node11" class="node"><title>Node11</title>
<g id="a_node11"><a xlink:href="../../d1/d95/classdata_1_1_data_manager.html" target="_top" xlink:title="data.DataManager">
<polygon fill="white" stroke="black" points="383.5,-216.5 383.5,-235.5 490.5,-235.5 490.5,-216.5 383.5,-216.5"/>
<text text-anchor="middle" x="437" y="-223.5" font-family="Helvetica,sans-Serif" font-size="10.00">data.DataManager</text>
</a>
</g>
</g>
<!-- Node11&#45;&gt;Node4 -->
<g id="edge10" class="edge"><title>Node11&#45;&gt;Node4</title>
<path fill="none" stroke="#9a32cd" stroke-dasharray="5,2" d="M429.162,-207.05C425.827,-200.203 421.635,-192.49 417,-186 412.235,-179.328 405.862,-172.683 400.618,-167.654"/>
<polygon fill="#9a32cd" stroke="#9a32cd" points="426.023,-208.601 433.387,-216.218 432.381,-205.671 426.023,-208.601"/>
<text text-anchor="middle" x="466" y="-189.5" font-family="Helvetica,sans-Serif" font-size="10.00"> myDataManager</text>
</g>
<!-- Node12 -->
<g id="node12" class="node"><title>Node12</title>
<polygon fill="white" stroke="#bfbfbf" points="400,-284.5 400,-303.5 474,-303.5 474,-284.5 400,-284.5"/>
<text text-anchor="middle" x="437" y="-291.5" font-family="Helvetica,sans-Serif" font-size="10.00">GsonBuilder</text>
</g>
<!-- Node12&#45;&gt;Node11 -->
<g id="edge11" class="edge"><title>Node12&#45;&gt;Node11</title>
<path fill="none" stroke="#9a32cd" stroke-dasharray="5,2" d="M437,-274.041C437,-261.472 437,-245.563 437,-235.841"/>
<polygon fill="#9a32cd" stroke="#9a32cd" points="433.5,-274.372 437,-284.372 440.5,-274.372 433.5,-274.372"/>
<text text-anchor="middle" x="450.5" y="-257.5" font-family="Helvetica,sans-Serif" font-size="10.00"> gson</text>
</g>
<!-- Node13 -->
<g id="node13" class="node"><title>Node13</title>
<polygon fill="white" stroke="#bfbfbf" points="0,-216.5 0,-235.5 56,-235.5 56,-216.5 0,-216.5"/>
<text text-anchor="middle" x="28" y="-223.5" font-family="Helvetica,sans-Serif" font-size="10.00">TabPane</text>
</g>
<!-- Node13&#45;&gt;Node3 -->
<g id="edge14" class="edge"><title>Node13&#45;&gt;Node3</title>
<path fill="none" stroke="#9a32cd" stroke-dasharray="5,2" d="M44.1349,-209.357C52.7762,-201.586 63.9048,-192.494 75,-186 115.674,-162.192 129.59,-163.779 174,-148 198.236,-139.389 206.939,-143.223 229,-130 242.565,-121.869 255.35,-109.173 264.151,-99.3368"/>
<polygon fill="#9a32cd" stroke="#9a32cd" points="41.6343,-206.903 36.6944,-216.276 46.401,-212.029 41.6343,-206.903"/>
<text text-anchor="middle" x="194" y="-155.5" font-family="Helvetica,sans-Serif" font-size="10.00"> myTabs</text>
</g>
<!-- Node13&#45;&gt;Node4 -->
<g id="edge12" class="edge"><title>Node13&#45;&gt;Node4</title>
<path fill="none" stroke="#9a32cd" stroke-dasharray="5,2" d="M50.7166,-211.346C66.4966,-202.553 88.3239,-191.731 109,-186 192.873,-162.753 217.379,-176.478 304,-168 307.023,-167.704 310.104,-167.4 313.216,-167.09"/>
<polygon fill="#9a32cd" stroke="#9a32cd" points="48.6711,-208.484 41.7371,-216.494 52.1532,-214.556 48.6711,-208.484"/>
<text text-anchor="middle" x="129" y="-189.5" font-family="Helvetica,sans-Serif" font-size="10.00"> myTabs</text>
</g>
<!-- Node14 -->
<g id="node14" class="node"><title>Node14</title>
<polygon fill="white" stroke="#bfbfbf" points="486.5,-148.5 486.5,-167.5 533.5,-167.5 533.5,-148.5 486.5,-148.5"/>
<text text-anchor="middle" x="510" y="-155.5" font-family="Helvetica,sans-Serif" font-size="10.00">Scene</text>
</g>
<!-- Node14&#45;&gt;Node3 -->
<g id="edge13" class="edge"><title>Node14&#45;&gt;Node3</title>
<path fill="none" stroke="#9a32cd" stroke-dasharray="5,2" d="M477.069,-144.99C454.627,-136.965 424.172,-126.384 397,-118 375.362,-111.323 351.335,-104.625 330.431,-99.0248"/>
<polygon fill="#9a32cd" stroke="#9a32cd" points="476.18,-148.39 486.775,-148.48 478.549,-141.803 476.18,-148.39"/>
<text text-anchor="middle" x="455.5" y="-121.5" font-family="Helvetica,sans-Serif" font-size="10.00"> myScene</text>
</g>
<!-- Node15 -->
<g id="node15" class="node"><title>Node15</title>
<polygon fill="white" stroke="#bfbfbf" points="223,-148.5 223,-167.5 295,-167.5 295,-148.5 223,-148.5"/>
<text text-anchor="middle" x="259" y="-155.5" font-family="Helvetica,sans-Serif" font-size="10.00">BorderPane</text>
</g>
<!-- Node15&#45;&gt;Node3 -->
<g id="edge15" class="edge"><title>Node15&#45;&gt;Node3</title>
<path fill="none" stroke="#9a32cd" stroke-dasharray="5,2" d="M263.378,-138.46C266.264,-126.236 269.987,-110.468 272.64,-99.2316"/>
<polygon fill="#9a32cd" stroke="#9a32cd" points="259.909,-137.921 261.017,-148.458 266.721,-139.53 259.909,-137.921"/>
<text text-anchor="middle" x="289" y="-121.5" font-family="Helvetica,sans-Serif" font-size="10.00"> myRoot</text>
</g>
</g>
</svg>
