<?xml version="1.0" encoding="UTF-8" standalone="no"?>
<!DOCTYPE svg PUBLIC "-//W3C//DTD SVG 1.1//EN"
 "http://www.w3.org/Graphics/SVG/1.1/DTD/svg11.dtd">
<!-- Generated by graphviz version 2.36.0 (20140111.2315)
 -->
<!-- Title: authoring.view.icons.BaseIcon.getName Pages: 1 -->
<svg width="628pt" height="136pt"
 viewBox="0.00 0.00 628.00 136.00" xmlns="http://www.w3.org/2000/svg" xmlns:xlink="http://www.w3.org/1999/xlink">
<g id="graph0" class="graph" transform="scale(1 1) rotate(0) translate(4 132)">
<title>authoring.view.icons.BaseIcon.getName</title>
<polygon fill="white" stroke="none" points="-4,4 -4,-132 624,-132 624,4 -4,4"/>
<!-- Node1 -->
<g id="node1" class="node"><title>Node1</title>
<polygon fill="#bfbfbf" stroke="black" points="0,-49 0,-79 140,-79 140,-49 0,-49"/>
<text text-anchor="start" x="8" y="-67" font-family="Helvetica,sans-Serif" font-size="10.00">authoring.view.icons.Base</text>
<text text-anchor="middle" x="70" y="-56" font-family="Helvetica,sans-Serif" font-size="10.00">Icon.getName</text>
</g>
<!-- Node2 -->
<g id="node2" class="node"><title>Node2</title>
<g id="a_node2"><a xlink:href="../../d1/d2f/classauthoring_1_1view_1_1propertiesview_1_1_file_properties.html#a597aeb55a250f84a01d85b66627a3b0b" target="_top" xlink:title="authoring.view.propertiesview.\lFileProperties.initializeProperties">
<polygon fill="white" stroke="black" points="191,-98 191,-128 361,-128 361,-98 191,-98"/>
<text text-anchor="start" x="199" y="-116" font-family="Helvetica,sans-Serif" font-size="10.00">authoring.view.propertiesview.</text>
<text text-anchor="middle" x="276" y="-105" font-family="Helvetica,sans-Serif" font-size="10.00">FileProperties.initializeProperties</text>
</a>
</g>
</g>
<!-- Node1&#45;&gt;Node2 -->
<g id="edge1" class="edge"><title>Node1&#45;&gt;Node2</title>
<path fill="none" stroke="midnightblue" d="M143.457,-81.4038C166.024,-86.8243 190.702,-92.752 212.525,-97.9938"/>
<polygon fill="midnightblue" stroke="midnightblue" points="144.134,-77.967 133.593,-79.0346 142.499,-84.7734 144.134,-77.967"/>
</g>
<!-- Node4 -->
<g id="node4" class="node"><title>Node4</title>
<g id="a_node4"><a xlink:href="../../d7/d69/classauthoring_1_1view_1_1propertiesview_1_1_level_properties.html#adfccccc49f33be4065112eaa53887038" target="_top" xlink:title="authoring.view.propertiesview.\lLevelProperties.initializeProperties">
<polygon fill="white" stroke="black" points="186,-49 186,-79 366,-79 366,-49 186,-49"/>
<text text-anchor="start" x="194" y="-67" font-family="Helvetica,sans-Serif" font-size="10.00">authoring.view.propertiesview.</text>
<text text-anchor="middle" x="276" y="-56" font-family="Helvetica,sans-Serif" font-size="10.00">LevelProperties.initializeProperties</text>
</a>
</g>
</g>
<!-- Node1&#45;&gt;Node4 -->
<g id="edge3" class="edge"><title>Node1&#45;&gt;Node4</title>
<path fill="none" stroke="midnightblue" d="M150.183,-64C161.839,-64 173.913,-64 185.754,-64"/>
<polygon fill="midnightblue" stroke="midnightblue" points="150.065,-60.5001 140.065,-64 150.065,-67.5001 150.065,-60.5001"/>
</g>
<!-- Node6 -->
<g id="node6" class="node"><title>Node6</title>
<g id="a_node6"><a xlink:href="../../d2/da2/classauthoring_1_1view_1_1propertiesview_1_1_condition_properties.html#a061e80d669b358adb1dc78da35ab49c9" target="_top" xlink:title="authoring.view.propertiesview.\lConditionProperties.initializeProperties">
<polygon fill="white" stroke="black" points="176,-0 176,-30 376,-30 376,-0 176,-0"/>
<text text-anchor="start" x="184" y="-18" font-family="Helvetica,sans-Serif" font-size="10.00">authoring.view.propertiesview.</text>
<text text-anchor="middle" x="276" y="-7" font-family="Helvetica,sans-Serif" font-size="10.00">ConditionProperties.initializeProperties</text>
</a>
</g>
</g>
<!-- Node1&#45;&gt;Node6 -->
<g id="edge5" class="edge"><title>Node1&#45;&gt;Node6</title>
<path fill="none" stroke="midnightblue" d="M143.457,-46.5962C166.024,-41.1757 190.702,-35.248 212.525,-30.0062"/>
<polygon fill="midnightblue" stroke="midnightblue" points="142.499,-43.2266 133.593,-48.9654 144.134,-50.033 142.499,-43.2266"/>
</g>
<!-- Node3 -->
<g id="node3" class="node"><title>Node3</title>
<g id="a_node3"><a xlink:href="../../d1/d2f/classauthoring_1_1view_1_1propertiesview_1_1_file_properties.html#ab6e1cb92ff861751d40124b6e777a2bd" target="_top" xlink:title="authoring.view.propertiesview.\lFileProperties.FileProperties">
<polygon fill="white" stroke="black" points="436.5,-98 436.5,-128 595.5,-128 595.5,-98 436.5,-98"/>
<text text-anchor="start" x="444.5" y="-116" font-family="Helvetica,sans-Serif" font-size="10.00">authoring.view.propertiesview.</text>
<text text-anchor="middle" x="516" y="-105" font-family="Helvetica,sans-Serif" font-size="10.00">FileProperties.FileProperties</text>
</a>
</g>
</g>
<!-- Node2&#45;&gt;Node3 -->
<g id="edge2" class="edge"><title>Node2&#45;&gt;Node3</title>
<path fill="none" stroke="midnightblue" d="M371.39,-113C392.948,-113 415.632,-113 436.443,-113"/>
<polygon fill="midnightblue" stroke="midnightblue" points="371.245,-109.5 361.245,-113 371.245,-116.5 371.245,-109.5"/>
</g>
<!-- Node5 -->
<g id="node5" class="node"><title>Node5</title>
<g id="a_node5"><a xlink:href="../../d7/d69/classauthoring_1_1view_1_1propertiesview_1_1_level_properties.html#a44c79e27fd8919f64839d9210c8bd41a" target="_top" xlink:title="authoring.view.propertiesview.\lLevelProperties.LevelProperties">
<polygon fill="white" stroke="black" points="432.5,-49 432.5,-79 599.5,-79 599.5,-49 432.5,-49"/>
<text text-anchor="start" x="440.5" y="-67" font-family="Helvetica,sans-Serif" font-size="10.00">authoring.view.propertiesview.</text>
<text text-anchor="middle" x="516" y="-56" font-family="Helvetica,sans-Serif" font-size="10.00">LevelProperties.LevelProperties</text>
</a>
</g>
</g>
<!-- Node4&#45;&gt;Node5 -->
<g id="edge4" class="edge"><title>Node4&#45;&gt;Node5</title>
<path fill="none" stroke="midnightblue" d="M376.53,-64C395.087,-64 414.292,-64 432.276,-64"/>
<polygon fill="midnightblue" stroke="midnightblue" points="376.3,-60.5001 366.3,-64 376.3,-67.5001 376.3,-60.5001"/>
</g>
<!-- Node7 -->
<g id="node7" class="node"><title>Node7</title>
<g id="a_node7"><a xlink:href="../../d2/da2/classauthoring_1_1view_1_1propertiesview_1_1_condition_properties.html#a230dbe536eabc0276f6a94f7d9a47b60" target="_top" xlink:title="authoring.view.propertiesview.\lConditionProperties.ConditionProperties">
<polygon fill="white" stroke="black" points="412.5,-0 412.5,-30 619.5,-30 619.5,-0 412.5,-0"/>
<text text-anchor="start" x="420.5" y="-18" font-family="Helvetica,sans-Serif" font-size="10.00">authoring.view.propertiesview.</text>
<text text-anchor="middle" x="516" y="-7" font-family="Helvetica,sans-Serif" font-size="10.00">ConditionProperties.ConditionProperties</text>
</a>
</g>
</g>
<!-- Node6&#45;&gt;Node7 -->
<g id="edge6" class="edge"><title>Node6&#45;&gt;Node7</title>
<path fill="none" stroke="midnightblue" d="M386.272,-15C394.879,-15 403.554,-15 412.116,-15"/>
<polygon fill="midnightblue" stroke="midnightblue" points="386.21,-11.5001 376.21,-15 386.21,-18.5001 386.21,-11.5001"/>
</g>
</g>
</svg>
