<?xml version="1.0" encoding="UTF-8" standalone="no"?>
<!DOCTYPE svg PUBLIC "-//W3C//DTD SVG 1.1//EN"
 "http://www.w3.org/Graphics/SVG/1.1/DTD/svg11.dtd">
<!-- Generated by graphviz version 2.36.0 (20140111.2315)
 -->
<!-- Title: authoring.eventhandlers.GameObjectDragHandler Pages: 1 -->
<svg width="1756pt" height="1168pt"
 viewBox="0.00 0.00 1756.00 1168.00" xmlns="http://www.w3.org/2000/svg" xmlns:xlink="http://www.w3.org/1999/xlink">
<g id="graph0" class="graph" transform="scale(1 1) rotate(0) translate(4 1164)">
<title>authoring.eventhandlers.GameObjectDragHandler</title>
<polygon fill="white" stroke="none" points="-4,4 -4,-1164 1752,-1164 1752,4 -4,4"/>
<!-- Node1 -->
<g id="node1" class="node"><title>Node1</title>
<polygon fill="#bfbfbf" stroke="black" points="1610.5,-1040 1610.5,-1070 1747.5,-1070 1747.5,-1040 1610.5,-1040"/>
<text text-anchor="start" x="1618.5" y="-1058" font-family="Helvetica,sans-Serif" font-size="10.00">authoring.eventhandlers.</text>
<text text-anchor="middle" x="1679" y="-1047" font-family="Helvetica,sans-Serif" font-size="10.00">GameObjectDragHandler</text>
</g>
<!-- Node2 -->
<g id="node2" class="node"><title>Node2</title>
<g id="a_node2"><a xlink:href="../../d3/d6a/interfaceauthoring_1_1eventhandlers_1_1_game_handler.html" target="_top" xlink:title="authoring.eventhandlers.\lGameHandler\&lt; MouseEvent \&gt;">
<polygon fill="white" stroke="black" points="1314,-1115 1314,-1145 1478,-1145 1478,-1115 1314,-1115"/>
<text text-anchor="start" x="1322" y="-1133" font-family="Helvetica,sans-Serif" font-size="10.00">authoring.eventhandlers.</text>
<text text-anchor="middle" x="1396" y="-1122" font-family="Helvetica,sans-Serif" font-size="10.00">GameHandler&lt; MouseEvent &gt;</text>
</a>
</g>
</g>
<!-- Node2&#45;&gt;Node1 -->
<g id="edge1" class="edge"><title>Node2&#45;&gt;Node1</title>
<path fill="none" stroke="midnightblue" d="M1487.47,-1112.79C1520.61,-1105.77 1558.25,-1096.95 1592,-1087 1608.35,-1082.18 1626.06,-1075.8 1641.13,-1070"/>
<polygon fill="midnightblue" stroke="midnightblue" points="1486.4,-1109.44 1477.33,-1114.91 1487.84,-1116.29 1486.4,-1109.44"/>
</g>
<!-- Node3 -->
<g id="node3" class="node"><title>Node3</title>
<g id="a_node3"><a xlink:href="../../df/de5/classauthoring_1_1model_1_1collections_1_1_levels_collection.html" target="_top" xlink:title="authoring.model.collections.\lLevelsCollection">
<polygon fill="white" stroke="black" points="1320,-1066 1320,-1096 1472,-1096 1472,-1066 1320,-1066"/>
<text text-anchor="start" x="1328" y="-1084" font-family="Helvetica,sans-Serif" font-size="10.00">authoring.model.collections.</text>
<text text-anchor="middle" x="1396" y="-1073" font-family="Helvetica,sans-Serif" font-size="10.00">LevelsCollection</text>
</a>
</g>
</g>
<!-- Node3&#45;&gt;Node1 -->
<g id="edge2" class="edge"><title>Node3&#45;&gt;Node1</title>
<path fill="none" stroke="#9a32cd" stroke-dasharray="5,2" d="M1482.28,-1073.11C1523.28,-1069.32 1571.74,-1064.83 1610.18,-1061.28"/>
<polygon fill="#9a32cd" stroke="#9a32cd" points="1481.94,-1069.63 1472.3,-1074.03 1482.58,-1076.6 1481.94,-1069.63"/>
<text text-anchor="middle" x="1544" y="-1075" font-family="Helvetica,sans-Serif" font-size="10.00"> myLevelsCollection</text>
</g>
<!-- Node4 -->
<g id="node4" class="node"><title>Node4</title>
<g id="a_node4"><a xlink:href="../../d4/d3b/classauthoring_1_1model_1_1collections_1_1_general_collection.html" target="_top" xlink:title="authoring.model.collections.\lGeneralCollection\&lt; Level \&gt;">
<polygon fill="white" stroke="black" points="981,-1129 981,-1159 1133,-1159 1133,-1129 981,-1129"/>
<text text-anchor="start" x="989" y="-1147" font-family="Helvetica,sans-Serif" font-size="10.00">authoring.model.collections.</text>
<text text-anchor="middle" x="1057" y="-1136" font-family="Helvetica,sans-Serif" font-size="10.00">GeneralCollection&lt; Level &gt;</text>
</a>
</g>
</g>
<!-- Node4&#45;&gt;Node3 -->
<g id="edge3" class="edge"><title>Node4&#45;&gt;Node3</title>
<path fill="none" stroke="midnightblue" d="M1143.15,-1128.4C1188.54,-1120.05 1245.33,-1109.55 1296,-1100 1303.74,-1098.54 1311.82,-1097.01 1319.87,-1095.47"/>
<polygon fill="midnightblue" stroke="midnightblue" points="1142.26,-1125.01 1133.06,-1130.26 1143.53,-1131.89 1142.26,-1125.01"/>
</g>
<!-- Node5 -->
<g id="node5" class="node"><title>Node5</title>
<g id="a_node5"><a xlink:href="../../d4/d04/classauthoring_1_1view_1_1levelview_1_1_levels_view.html" target="_top" xlink:title="authoring.view.levelview.\lLevelsView">
<polygon fill="white" stroke="black" points="1330,-1017 1330,-1047 1462,-1047 1462,-1017 1330,-1017"/>
<text text-anchor="start" x="1338" y="-1035" font-family="Helvetica,sans-Serif" font-size="10.00">authoring.view.levelview.</text>
<text text-anchor="middle" x="1396" y="-1024" font-family="Helvetica,sans-Serif" font-size="10.00">LevelsView</text>
</a>
</g>
</g>
<!-- Node5&#45;&gt;Node1 -->
<g id="edge4" class="edge"><title>Node5&#45;&gt;Node1</title>
<path fill="none" stroke="#9a32cd" stroke-dasharray="5,2" d="M1472.16,-1033.45C1508.44,-1034.66 1552.56,-1036.89 1592,-1041 1598.02,-1041.63 1604.26,-1042.4 1610.5,-1043.26"/>
<polygon fill="#9a32cd" stroke="#9a32cd" points="1472.25,-1029.95 1462.14,-1033.13 1472.02,-1036.94 1472.25,-1029.95"/>
<text text-anchor="middle" x="1544" y="-1044" font-family="Helvetica,sans-Serif" font-size="10.00"> myLevelView</text>
</g>
<!-- Node6 -->
<g id="node6" class="node"><title>Node6</title>
<g id="a_node6"><a xlink:href="../../d0/d3f/classauthoring_1_1view_1_1baseclasses_1_1_tab_view.html" target="_top" xlink:title="authoring.view.baseclasses.\lTabView">
<polygon fill="white" stroke="black" points="982.5,-1080 982.5,-1110 1131.5,-1110 1131.5,-1080 982.5,-1080"/>
<text text-anchor="start" x="990.5" y="-1098" font-family="Helvetica,sans-Serif" font-size="10.00">authoring.view.baseclasses.</text>
<text text-anchor="middle" x="1057" y="-1087" font-family="Helvetica,sans-Serif" font-size="10.00">TabView</text>
</a>
</g>
</g>
<!-- Node6&#45;&gt;Node5 -->
<g id="edge5" class="edge"><title>Node6&#45;&gt;Node5</title>
<path fill="none" stroke="midnightblue" d="M1141.87,-1082.84C1187.58,-1075.81 1245.07,-1066.33 1296,-1056 1309.09,-1053.35 1323.06,-1050.17 1336.27,-1047.01"/>
<polygon fill="midnightblue" stroke="midnightblue" points="1141.06,-1079.42 1131.7,-1084.39 1142.12,-1086.34 1141.06,-1079.42"/>
</g>
<!-- Node7 -->
<g id="node7" class="node"><title>Node7</title>
<polygon fill="white" stroke="#bfbfbf" points="683,-1085.5 683,-1104.5 739,-1104.5 739,-1085.5 683,-1085.5"/>
<text text-anchor="middle" x="711" y="-1092.5" font-family="Helvetica,sans-Serif" font-size="10.00">TabPane</text>
</g>
<!-- Node7&#45;&gt;Node6 -->
<g id="edge6" class="edge"><title>Node7&#45;&gt;Node6</title>
<path fill="none" stroke="midnightblue" d="M749.388,-1095C805.002,-1095 910.635,-1095 982.184,-1095"/>
<polygon fill="midnightblue" stroke="midnightblue" points="749.281,-1091.5 739.281,-1095 749.281,-1098.5 749.281,-1091.5"/>
</g>
<!-- Node8 -->
<g id="node8" class="node"><title>Node8</title>
<polygon fill="white" stroke="#bfbfbf" points="664.5,-1038.5 664.5,-1057.5 757.5,-1057.5 757.5,-1038.5 664.5,-1038.5"/>
<text text-anchor="middle" x="711" y="-1045.5" font-family="Helvetica,sans-Serif" font-size="10.00">ResourceBundle</text>
</g>
<!-- Node8&#45;&gt;Node6 -->
<g id="edge7" class="edge"><title>Node8&#45;&gt;Node6</title>
<path fill="none" stroke="#9a32cd" stroke-dasharray="5,2" d="M767.591,-1055.24C816.248,-1061.62 888.834,-1071.23 952,-1080 961.848,-1081.37 972.216,-1082.83 982.437,-1084.29"/>
<polygon fill="#9a32cd" stroke="#9a32cd" points="767.953,-1051.76 757.583,-1053.93 767.044,-1058.7 767.953,-1051.76"/>
<text text-anchor="middle" x="897" y="-1083" font-family="Helvetica,sans-Serif" font-size="10.00"> myLanguage</text>
</g>
<!-- Node14 -->
<g id="node14" class="node"><title>Node14</title>
<g id="a_node14"><a xlink:href="../../de/d93/classauthoring_1_1view_1_1baseclasses_1_1_collection_view.html" target="_top" xlink:title="authoring.view.baseclasses.\lCollectionView">
<polygon fill="white" stroke="black" points="982.5,-954 982.5,-984 1131.5,-984 1131.5,-954 982.5,-954"/>
<text text-anchor="start" x="990.5" y="-972" font-family="Helvetica,sans-Serif" font-size="10.00">authoring.view.baseclasses.</text>
<text text-anchor="middle" x="1057" y="-961" font-family="Helvetica,sans-Serif" font-size="10.00">CollectionView</text>
</a>
</g>
</g>
<!-- Node8&#45;&gt;Node14 -->
<g id="edge15" class="edge"><title>Node8&#45;&gt;Node14</title>
<path fill="none" stroke="#9a32cd" stroke-dasharray="5,2" d="M763.584,-1036.15C824.114,-1022.25 924.573,-999.182 990.54,-984.033"/>
<polygon fill="#9a32cd" stroke="#9a32cd" points="762.457,-1032.82 753.494,-1038.47 764.024,-1039.64 762.457,-1032.82"/>
<text text-anchor="middle" x="897" y="-1021" font-family="Helvetica,sans-Serif" font-size="10.00"> myLanguage</text>
</g>
<!-- Node9 -->
<g id="node9" class="node"><title>Node9</title>
<g id="a_node9"><a xlink:href="../../d2/d4f/interfacedata_1_1_observer.html" target="_top" xlink:title="data.Observer">
<polygon fill="white" stroke="black" points="1014.5,-1041.5 1014.5,-1060.5 1099.5,-1060.5 1099.5,-1041.5 1014.5,-1041.5"/>
<text text-anchor="middle" x="1057" y="-1048.5" font-family="Helvetica,sans-Serif" font-size="10.00">data.Observer</text>
</a>
</g>
</g>
<!-- Node9&#45;&gt;Node5 -->
<g id="edge8" class="edge"><title>Node9&#45;&gt;Node5</title>
<path fill="none" stroke="midnightblue" d="M1109.88,-1048.07C1168.97,-1044.74 1265.6,-1039.3 1329.74,-1035.68"/>
<polygon fill="midnightblue" stroke="midnightblue" points="1109.45,-1044.59 1099.66,-1048.65 1109.84,-1051.58 1109.45,-1044.59"/>
</g>
<!-- Node10 -->
<g id="node10" class="node"><title>Node10</title>
<polygon fill="white" stroke="#bfbfbf" points="1041,-1003.5 1041,-1022.5 1073,-1022.5 1073,-1003.5 1041,-1003.5"/>
<text text-anchor="middle" x="1057" y="-1010.5" font-family="Helvetica,sans-Serif" font-size="10.00">File</text>
</g>
<!-- Node10&#45;&gt;Node5 -->
<g id="edge9" class="edge"><title>Node10&#45;&gt;Node5</title>
<path fill="none" stroke="#9a32cd" stroke-dasharray="5,2" d="M1083.27,-1013.66C1126.76,-1014.88 1218.56,-1017.86 1296,-1023 1306.93,-1023.73 1318.54,-1024.65 1329.8,-1025.62"/>
<polygon fill="#9a32cd" stroke="#9a32cd" points="1083.14,-1010.15 1073.05,-1013.38 1082.95,-1017.15 1083.14,-1010.15"/>
<text text-anchor="middle" x="1229" y="-1026" font-family="Helvetica,sans-Serif" font-size="10.00"> myGameLocation</text>
</g>
<!-- Node11 -->
<g id="node11" class="node"><title>Node11</title>
<g id="a_node11"><a xlink:href="../../d3/d6a/interfaceauthoring_1_1eventhandlers_1_1_game_handler.html" target="_top" xlink:title="authoring.eventhandlers.\lGameHandler\&lt; T extends\l Event \&gt;">
<polygon fill="white" stroke="black" points="640.5,-890.5 640.5,-931.5 781.5,-931.5 781.5,-890.5 640.5,-890.5"/>
<text text-anchor="start" x="648.5" y="-919.5" font-family="Helvetica,sans-Serif" font-size="10.00">authoring.eventhandlers.</text>
<text text-anchor="start" x="648.5" y="-908.5" font-family="Helvetica,sans-Serif" font-size="10.00">GameHandler&lt; T extends</text>
<text text-anchor="middle" x="711" y="-897.5" font-family="Helvetica,sans-Serif" font-size="10.00"> Event &gt;</text>
</a>
</g>
</g>
<!-- Node11&#45;&gt;Node5 -->
<g id="edge10" class="edge"><title>Node11&#45;&gt;Node5</title>
<path fill="none" stroke="#9a32cd" stroke-dasharray="5,2" d="M791.862,-907.4C879.339,-905.224 1023.27,-906.853 1144,-933 1227.78,-951.145 1320.04,-993.938 1365.85,-1016.87"/>
<polygon fill="#9a32cd" stroke="#9a32cd" points="791.643,-903.905 781.741,-907.675 791.833,-910.902 791.643,-903.905"/>
<text text-anchor="middle" x="1057" y="-936" font-family="Helvetica,sans-Serif" font-size="10.00"> myEvents</text>
</g>
<!-- Node13 -->
<g id="node13" class="node"><title>Node13</title>
<g id="a_node13"><a xlink:href="../../d4/d9e/classauthoring_1_1view_1_1propertiesview_1_1_properties_view.html" target="_top" xlink:title="authoring.view.propertiesview.\lPropertiesView">
<polygon fill="white" stroke="black" points="1316.5,-820 1316.5,-850 1475.5,-850 1475.5,-820 1316.5,-820"/>
<text text-anchor="start" x="1324.5" y="-838" font-family="Helvetica,sans-Serif" font-size="10.00">authoring.view.propertiesview.</text>
<text text-anchor="middle" x="1396" y="-827" font-family="Helvetica,sans-Serif" font-size="10.00">PropertiesView</text>
</a>
</g>
</g>
<!-- Node11&#45;&gt;Node13 -->
<g id="edge49" class="edge"><title>Node11&#45;&gt;Node13</title>
<path fill="none" stroke="#9a32cd" stroke-dasharray="5,2" d="M791.645,-902.462C838.367,-897.431 898.541,-890.913 952,-885 1079.51,-870.897 1227.61,-854.096 1316.19,-844.003"/>
<polygon fill="#9a32cd" stroke="#9a32cd" points="791.154,-898.995 781.586,-903.545 791.903,-905.955 791.154,-898.995"/>
<text text-anchor="middle" x="1057" y="-886" font-family="Helvetica,sans-Serif" font-size="10.00"> myButtonBehaviors</text>
</g>
<!-- Node11&#45;&gt;Node14 -->
<g id="edge16" class="edge"><title>Node11&#45;&gt;Node14</title>
<path fill="none" stroke="#9a32cd" stroke-dasharray="5,2" d="M791.857,-928.385C808.398,-931.761 825.738,-935.136 842,-938 888.399,-946.171 940.736,-953.781 982.038,-959.416"/>
<polygon fill="#9a32cd" stroke="#9a32cd" points="792.178,-924.878 781.678,-926.287 790.766,-931.734 792.178,-924.878"/>
<text text-anchor="middle" x="897" y="-958" font-family="Helvetica,sans-Serif" font-size="10.00"> myIconEvents</text>
</g>
<!-- Node17 -->
<g id="node17" class="node"><title>Node17</title>
<g id="a_node17"><a xlink:href="../../da/d8d/classauthoring_1_1view_1_1propertiesview_1_1_game_object_properties.html" target="_top" xlink:title="authoring.view.propertiesview.\lGameObjectProperties">
<polygon fill="white" stroke="black" points="977.5,-720 977.5,-750 1136.5,-750 1136.5,-720 977.5,-720"/>
<text text-anchor="start" x="985.5" y="-738" font-family="Helvetica,sans-Serif" font-size="10.00">authoring.view.propertiesview.</text>
<text text-anchor="middle" x="1057" y="-727" font-family="Helvetica,sans-Serif" font-size="10.00">GameObjectProperties</text>
</a>
</g>
</g>
<!-- Node11&#45;&gt;Node17 -->
<g id="edge26" class="edge"><title>Node11&#45;&gt;Node17</title>
<path fill="none" stroke="#9a32cd" stroke-dasharray="5,2" d="M765.723,-886.069C789.071,-875.376 816.797,-862.87 842,-852 890.503,-831.081 905.567,-832.182 952,-807 983.273,-790.04 1016.61,-765.712 1036.88,-750.134"/>
<polygon fill="#9a32cd" stroke="#9a32cd" points="763.967,-883.024 756.339,-890.376 766.887,-889.385 763.967,-883.024"/>
<text text-anchor="middle" x="897" y="-877" font-family="Helvetica,sans-Serif" font-size="10.00"> myDeleteHandler</text>
<text text-anchor="middle" x="897" y="-866" font-family="Helvetica,sans-Serif" font-size="10.00">mySaveAsNewHandler</text>
<text text-anchor="middle" x="897" y="-855" font-family="Helvetica,sans-Serif" font-size="10.00">myEditHandler</text>
</g>
<!-- Node12 -->
<g id="node12" class="node"><title>Node12</title>
<polygon fill="white" stroke="#bfbfbf" points="245,-901.5 245,-920.5 421,-920.5 421,-901.5 245,-901.5"/>
<text text-anchor="middle" x="333" y="-908.5" font-family="Helvetica,sans-Serif" font-size="10.00">javafx::event::EventHandler&lt; T &gt;</text>
</g>
<!-- Node12&#45;&gt;Node11 -->
<g id="edge11" class="edge"><title>Node12&#45;&gt;Node11</title>
<path fill="none" stroke="midnightblue" d="M431.532,-911C496.932,-911 581.511,-911 640.213,-911"/>
<polygon fill="midnightblue" stroke="midnightblue" points="431.207,-907.5 421.207,-911 431.207,-914.5 431.207,-907.5"/>
</g>
<!-- Node13&#45;&gt;Node1 -->
<g id="edge12" class="edge"><title>Node13&#45;&gt;Node1</title>
<path fill="none" stroke="#9a32cd" stroke-dasharray="5,2" d="M1424.44,-856.486C1481.05,-900.807 1609.58,-1001.43 1658.55,-1039.77"/>
<polygon fill="#9a32cd" stroke="#9a32cd" points="1426.35,-853.53 1416.31,-850.121 1422.03,-859.042 1426.35,-853.53"/>
<text text-anchor="middle" x="1544" y="-987" font-family="Helvetica,sans-Serif" font-size="10.00"> myProperties</text>
</g>
<!-- Node14&#45;&gt;Node13 -->
<g id="edge13" class="edge"><title>Node14&#45;&gt;Node13</title>
<path fill="none" stroke="midnightblue" d="M1124.22,-951.13C1172.72,-937.129 1239.62,-915.89 1296,-891 1322.74,-879.197 1351.65,-862.324 1371.28,-850.189"/>
<polygon fill="midnightblue" stroke="midnightblue" points="1123.12,-947.804 1114.47,-953.919 1125.05,-954.534 1123.12,-947.804"/>
</g>
<!-- Node15 -->
<g id="node15" class="node"><title>Node15</title>
<polygon fill="white" stroke="#bfbfbf" points="678,-820.5 678,-839.5 744,-839.5 744,-820.5 678,-820.5"/>
<text text-anchor="middle" x="711" y="-827.5" font-family="Helvetica,sans-Serif" font-size="10.00">ScrollPane</text>
</g>
<!-- Node15&#45;&gt;Node14 -->
<g id="edge14" class="edge"><title>Node15&#45;&gt;Node14</title>
<path fill="none" stroke="midnightblue" d="M754.313,-824.116C815.182,-816.664 923.306,-807.524 952,-832 988.689,-863.296 938.9,-902.145 970,-939 975.201,-945.163 981.743,-950.062 988.885,-953.954"/>
<polygon fill="midnightblue" stroke="midnightblue" points="753.731,-820.662 744.248,-825.386 754.607,-827.607 753.731,-820.662"/>
</g>
<!-- Node16 -->
<g id="node16" class="node"><title>Node16</title>
<polygon fill="white" stroke="#bfbfbf" points="312.5,-779.5 312.5,-798.5 353.5,-798.5 353.5,-779.5 312.5,-779.5"/>
<text text-anchor="middle" x="333" y="-786.5" font-family="Helvetica,sans-Serif" font-size="10.00">VBox</text>
</g>
<!-- Node16&#45;&gt;Node13 -->
<g id="edge17" class="edge"><title>Node16&#45;&gt;Node13</title>
<path fill="none" stroke="#9a32cd" stroke-dasharray="5,2" d="M363.974,-789.064C453.401,-789.378 726.131,-791.219 952,-802 1079.69,-808.094 1227.74,-820.131 1316.25,-827.86"/>
<polygon fill="#9a32cd" stroke="#9a32cd" points="363.768,-785.564 353.757,-789.033 363.746,-792.564 363.768,-785.564"/>
<text text-anchor="middle" x="897" y="-805" font-family="Helvetica,sans-Serif" font-size="10.00"> myContents</text>
</g>
<!-- Node18 -->
<g id="node18" class="node"><title>Node18</title>
<g id="a_node18"><a xlink:href="../../de/d73/classauthoring_1_1view_1_1propertiesview_1_1_properties.html" target="_top" xlink:title="authoring.view.propertiesview.\lProperties">
<polygon fill="white" stroke="black" points="631.5,-733 631.5,-763 790.5,-763 790.5,-733 631.5,-733"/>
<text text-anchor="start" x="639.5" y="-751" font-family="Helvetica,sans-Serif" font-size="10.00">authoring.view.propertiesview.</text>
<text text-anchor="middle" x="711" y="-740" font-family="Helvetica,sans-Serif" font-size="10.00">Properties</text>
</a>
</g>
</g>
<!-- Node16&#45;&gt;Node18 -->
<g id="edge20" class="edge"><title>Node16&#45;&gt;Node18</title>
<path fill="none" stroke="midnightblue" d="M363.866,-785.743C421.167,-779.495 548.224,-765.64 631.423,-756.568"/>
<polygon fill="midnightblue" stroke="midnightblue" points="363.248,-782.29 353.686,-786.853 364.007,-789.249 363.248,-782.29"/>
</g>
<!-- Node17&#45;&gt;Node13 -->
<g id="edge18" class="edge"><title>Node17&#45;&gt;Node13</title>
<path fill="none" stroke="#9a32cd" stroke-dasharray="5,2" d="M1146.85,-737.132C1192.67,-740.648 1248.71,-748.78 1296,-767 1327.91,-779.294 1359.56,-803.744 1378.2,-819.729"/>
<polygon fill="#9a32cd" stroke="#9a32cd" points="1146.86,-733.624 1136.64,-736.411 1146.37,-740.606 1146.86,-733.624"/>
<text text-anchor="middle" x="1229" y="-770" font-family="Helvetica,sans-Serif" font-size="10.00"> myGameObjectsProperties</text>
</g>
<!-- Node18&#45;&gt;Node17 -->
<g id="edge19" class="edge"><title>Node18&#45;&gt;Node17</title>
<path fill="none" stroke="midnightblue" d="M800.939,-744.639C855.551,-742.575 924.864,-739.956 977.447,-737.969"/>
<polygon fill="midnightblue" stroke="midnightblue" points="800.781,-741.142 790.921,-745.018 801.046,-748.137 800.781,-741.142"/>
</g>
<!-- Node19 -->
<g id="node19" class="node"><title>Node19</title>
<polygon fill="white" stroke="#bfbfbf" points="220.5,-726 220.5,-756 445.5,-756 445.5,-726 220.5,-726"/>
<text text-anchor="start" x="228.5" y="-744" font-family="Helvetica,sans-Serif" font-size="10.00">Map&lt; String, authoring.view.propertiesview.</text>
<text text-anchor="middle" x="333" y="-733" font-family="Helvetica,sans-Serif" font-size="10.00">PropertyField &gt;</text>
</g>
<!-- Node19&#45;&gt;Node18 -->
<g id="edge21" class="edge"><title>Node19&#45;&gt;Node18</title>
<path fill="none" stroke="#9a32cd" stroke-dasharray="5,2" d="M455.985,-740.483C495.552,-740.586 539.644,-740.987 580,-742 596.601,-742.417 614.385,-743.089 631.305,-743.835"/>
<polygon fill="#9a32cd" stroke="#9a32cd" points="455.767,-736.982 445.76,-740.462 455.753,-743.982 455.767,-736.982"/>
<text text-anchor="middle" x="522" y="-745" font-family="Helvetica,sans-Serif" font-size="10.00"> myMap</text>
</g>
<!-- Node20 -->
<g id="node20" class="node"><title>Node20</title>
<polygon fill="white" stroke="#bfbfbf" points="640.5,-694.5 640.5,-713.5 781.5,-713.5 781.5,-694.5 640.5,-694.5"/>
<text text-anchor="middle" x="711" y="-701.5" font-family="Helvetica,sans-Serif" font-size="10.00">Map&lt; String, CheckBox &gt;</text>
</g>
<!-- Node20&#45;&gt;Node17 -->
<g id="edge22" class="edge"><title>Node20&#45;&gt;Node17</title>
<path fill="none" stroke="#9a32cd" stroke-dasharray="5,2" d="M791.651,-710.797C838.374,-714.827 898.548,-720.092 952,-725 960.219,-725.755 968.801,-726.557 977.358,-727.366"/>
<polygon fill="#9a32cd" stroke="#9a32cd" points="791.855,-707.302 781.591,-709.93 791.254,-714.276 791.855,-707.302"/>
<text text-anchor="middle" x="897" y="-728" font-family="Helvetica,sans-Serif" font-size="10.00"> booleanProperties</text>
</g>
<!-- Node21 -->
<g id="node21" class="node"><title>Node21</title>
<polygon fill="white" stroke="#bfbfbf" points="598.5,-644 598.5,-674 823.5,-674 823.5,-644 598.5,-644"/>
<text text-anchor="start" x="606.5" y="-662" font-family="Helvetica,sans-Serif" font-size="10.00">Map&lt; String, authoring.view.propertiesview.</text>
<text text-anchor="middle" x="711" y="-651" font-family="Helvetica,sans-Serif" font-size="10.00">PropertyTextField &gt;</text>
</g>
<!-- Node21&#45;&gt;Node17 -->
<g id="edge23" class="edge"><title>Node21&#45;&gt;Node17</title>
<path fill="none" stroke="#9a32cd" stroke-dasharray="5,2" d="M833.943,-651.119C872.448,-651.908 914.668,-656.251 952,-668 986.009,-678.703 1019.64,-703.697 1039.09,-719.948"/>
<polygon fill="#9a32cd" stroke="#9a32cd" points="833.759,-647.617 823.715,-650.99 833.67,-654.616 833.759,-647.617"/>
<text text-anchor="middle" x="897" y="-704" font-family="Helvetica,sans-Serif" font-size="10.00"> physicsProperties</text>
<text text-anchor="middle" x="897" y="-693" font-family="Helvetica,sans-Serif" font-size="10.00">wizardProperties</text>
<text text-anchor="middle" x="897" y="-682" font-family="Helvetica,sans-Serif" font-size="10.00">concreteTextProperties</text>
<text text-anchor="middle" x="897" y="-671" font-family="Helvetica,sans-Serif" font-size="10.00">inherentTextProperties</text>
</g>
<!-- Node22 -->
<g id="node22" class="node"><title>Node22</title>
<g id="a_node22"><a xlink:href="../../dd/db2/classauthoring_1_1view_1_1baseclasses_1_1_accordion_container.html" target="_top" xlink:title="authoring.view.baseclasses.\lAccordionContainer">
<polygon fill="white" stroke="black" points="636.5,-595 636.5,-625 785.5,-625 785.5,-595 636.5,-595"/>
<text text-anchor="start" x="644.5" y="-613" font-family="Helvetica,sans-Serif" font-size="10.00">authoring.view.baseclasses.</text>
<text text-anchor="middle" x="711" y="-602" font-family="Helvetica,sans-Serif" font-size="10.00">AccordionContainer</text>
</a>
</g>
</g>
<!-- Node22&#45;&gt;Node17 -->
<g id="edge24" class="edge"><title>Node22&#45;&gt;Node17</title>
<path fill="none" stroke="#9a32cd" stroke-dasharray="5,2" d="M795.587,-606.581C843.394,-607.698 903.34,-614.455 952,-637 992.969,-655.981 1028.25,-697.506 1045.22,-719.926"/>
<polygon fill="#9a32cd" stroke="#9a32cd" points="795.631,-603.082 785.578,-606.425 795.522,-610.081 795.631,-603.082"/>
<text text-anchor="middle" x="897" y="-640" font-family="Helvetica,sans-Serif" font-size="10.00"> myAccordion</text>
</g>
<!-- Node23 -->
<g id="node23" class="node"><title>Node23</title>
<polygon fill="white" stroke="#bfbfbf" points="301,-600.5 301,-619.5 365,-619.5 365,-600.5 301,-600.5"/>
<text text-anchor="middle" x="333" y="-607.5" font-family="Helvetica,sans-Serif" font-size="10.00">Accordion</text>
</g>
<!-- Node23&#45;&gt;Node22 -->
<g id="edge25" class="edge"><title>Node23&#45;&gt;Node22</title>
<path fill="none" stroke="midnightblue" d="M375.39,-610C438.172,-610 558.396,-610 636.34,-610"/>
<polygon fill="midnightblue" stroke="midnightblue" points="375.09,-606.5 365.09,-610 375.09,-613.5 375.09,-606.5"/>
</g>
<!-- Node24 -->
<g id="node24" class="node"><title>Node24</title>
<g id="a_node24"><a xlink:href="../../d0/d7f/classengine_1_1game_object_1_1_game_object.html" target="_top" xlink:title="engine.gameObject.GameObject">
<polygon fill="white" stroke="black" points="970.5,-422.5 970.5,-441.5 1143.5,-441.5 1143.5,-422.5 970.5,-422.5"/>
<text text-anchor="middle" x="1057" y="-429.5" font-family="Helvetica,sans-Serif" font-size="10.00">engine.gameObject.GameObject</text>
</a>
</g>
</g>
<!-- Node24&#45;&gt;Node13 -->
<g id="edge27" class="edge"><title>Node24&#45;&gt;Node13</title>
<path fill="none" stroke="#9a32cd" stroke-dasharray="5,2" d="M1072.66,-449.526C1128.77,-516.634 1329.48,-756.643 1382.22,-819.723"/>
<polygon fill="#9a32cd" stroke="#9a32cd" points="1075.1,-446.99 1066,-441.564 1069.73,-451.481 1075.1,-446.99"/>
<text text-anchor="middle" x="1229" y="-719" font-family="Helvetica,sans-Serif" font-size="10.00"> myCurrentGameObject</text>
</g>
<!-- Node25 -->
<g id="node25" class="node"><title>Node25</title>
<g id="a_node25"><a xlink:href="../../d7/de6/interfaceengine_1_1game_object_1_1_i_enabled.html" target="_top" xlink:title="engine.gameObject.IEnabled">
<polygon fill="white" stroke="black" points="634,-556.5 634,-575.5 788,-575.5 788,-556.5 634,-556.5"/>
<text text-anchor="middle" x="711" y="-563.5" font-family="Helvetica,sans-Serif" font-size="10.00">engine.gameObject.IEnabled</text>
</a>
</g>
</g>
<!-- Node25&#45;&gt;Node24 -->
<g id="edge28" class="edge"><title>Node25&#45;&gt;Node24</title>
<path fill="none" stroke="midnightblue" d="M797.998,-556.345C845.294,-548.608 903.948,-534.921 952,-511 990.16,-492.003 1028.36,-458.303 1045.96,-441.74"/>
<polygon fill="midnightblue" stroke="midnightblue" points="797.419,-552.893 788.086,-557.907 798.509,-559.808 797.419,-552.893"/>
</g>
<!-- Node26 -->
<g id="node26" class="node"><title>Node26</title>
<polygon fill="white" stroke="#bfbfbf" points="645.5,-518.5 645.5,-537.5 776.5,-537.5 776.5,-518.5 645.5,-518.5"/>
<text text-anchor="middle" x="711" y="-525.5" font-family="Helvetica,sans-Serif" font-size="10.00">Iterable&lt; Component &gt;</text>
</g>
<!-- Node26&#45;&gt;Node24 -->
<g id="edge29" class="edge"><title>Node26&#45;&gt;Node24</title>
<path fill="none" stroke="midnightblue" d="M786.71,-519.586C834.796,-512.815 898.143,-501.337 952,-483 984.362,-471.982 1019.61,-453.107 1039.63,-441.669"/>
<polygon fill="midnightblue" stroke="midnightblue" points="786.122,-516.134 776.69,-520.961 787.073,-523.069 786.122,-516.134"/>
</g>
<!-- Node27 -->
<g id="node27" class="node"><title>Node27</title>
<g id="a_node27"><a xlink:href="../../dc/df6/interfaceengine_1_1game_object_1_1_identifiable.html" target="_top" xlink:title="engine.gameObject.Identifiable">
<polygon fill="white" stroke="black" points="628.5,-480.5 628.5,-499.5 793.5,-499.5 793.5,-480.5 628.5,-480.5"/>
<text text-anchor="middle" x="711" y="-487.5" font-family="Helvetica,sans-Serif" font-size="10.00">engine.gameObject.Identifiable</text>
</a>
</g>
</g>
<!-- Node27&#45;&gt;Node24 -->
<g id="edge30" class="edge"><title>Node27&#45;&gt;Node24</title>
<path fill="none" stroke="midnightblue" d="M803.566,-481.568C848.522,-476.664 903.348,-469.542 952,-460 976.771,-455.142 1004.34,-447.621 1024.86,-441.597"/>
<polygon fill="midnightblue" stroke="midnightblue" points="803.112,-478.097 793.542,-482.643 803.858,-485.057 803.112,-478.097"/>
</g>
<!-- Node28 -->
<g id="node28" class="node"><title>Node28</title>
<g id="a_node28"><a xlink:href="../../d4/dac/classengine_1_1game_object_1_1_identifier.html" target="_top" xlink:title="engine.gameObject.Identifier">
<polygon fill="white" stroke="black" points="633.5,-442.5 633.5,-461.5 788.5,-461.5 788.5,-442.5 633.5,-442.5"/>
<text text-anchor="middle" x="711" y="-449.5" font-family="Helvetica,sans-Serif" font-size="10.00">engine.gameObject.Identifier</text>
</a>
</g>
</g>
<!-- Node28&#45;&gt;Node24 -->
<g id="edge31" class="edge"><title>Node28&#45;&gt;Node24</title>
<path fill="none" stroke="#9a32cd" stroke-dasharray="5,2" d="M799.076,-446.937C851.575,-443.885 918.167,-440.014 970.4,-436.977"/>
<polygon fill="#9a32cd" stroke="#9a32cd" points="798.552,-443.462 788.772,-447.537 798.958,-450.45 798.552,-443.462"/>
<text text-anchor="middle" x="897" y="-448" font-family="Helvetica,sans-Serif" font-size="10.00"> myId</text>
</g>
<!-- Node29 -->
<g id="node29" class="node"><title>Node29</title>
<polygon fill="white" stroke="#bfbfbf" points="305,-442.5 305,-461.5 361,-461.5 361,-442.5 305,-442.5"/>
<text text-anchor="middle" x="333" y="-449.5" font-family="Helvetica,sans-Serif" font-size="10.00">Random</text>
</g>
<!-- Node29&#45;&gt;Node28 -->
<g id="edge32" class="edge"><title>Node29&#45;&gt;Node28</title>
<path fill="none" stroke="#9a32cd" stroke-dasharray="5,2" d="M371.298,-452C432.013,-452 553.435,-452 633.188,-452"/>
<polygon fill="#9a32cd" stroke="#9a32cd" points="371.041,-448.5 361.041,-452 371.041,-455.5 371.041,-448.5"/>
<text text-anchor="middle" x="522" y="-455" font-family="Helvetica,sans-Serif" font-size="10.00"> r</text>
</g>
<!-- Node30 -->
<g id="node30" class="node"><title>Node30</title>
<g id="a_node30"><a xlink:href="../../da/d35/classengine_1_1scrolling_1_1_scrolling_utility.html" target="_top" xlink:title="engine.scrolling.Scrolling\lUtility">
<polygon fill="white" stroke="black" points="644,-393 644,-423 778,-423 778,-393 644,-393"/>
<text text-anchor="start" x="652" y="-411" font-family="Helvetica,sans-Serif" font-size="10.00">engine.scrolling.Scrolling</text>
<text text-anchor="middle" x="711" y="-400" font-family="Helvetica,sans-Serif" font-size="10.00">Utility</text>
</a>
</g>
</g>
<!-- Node30&#45;&gt;Node24 -->
<g id="edge33" class="edge"><title>Node30&#45;&gt;Node24</title>
<path fill="none" stroke="#9a32cd" stroke-dasharray="5,2" d="M788.365,-412.892C835.53,-415.962 897.285,-420.072 952,-424 957.961,-424.428 964.113,-424.878 970.308,-425.339"/>
<polygon fill="#9a32cd" stroke="#9a32cd" points="788.433,-409.389 778.227,-412.233 787.979,-416.374 788.433,-409.389"/>
<text text-anchor="middle" x="897" y="-427" font-family="Helvetica,sans-Serif" font-size="10.00"> myScrollingUtility</text>
</g>
<!-- Node31 -->
<g id="node31" class="node"><title>Node31</title>
<polygon fill="white" stroke="#bfbfbf" points="305.5,-398.5 305.5,-417.5 360.5,-417.5 360.5,-398.5 305.5,-398.5"/>
<text text-anchor="middle" x="333" y="-405.5" font-family="Helvetica,sans-Serif" font-size="10.00">Camera</text>
</g>
<!-- Node31&#45;&gt;Node30 -->
<g id="edge34" class="edge"><title>Node31&#45;&gt;Node30</title>
<path fill="none" stroke="#9a32cd" stroke-dasharray="5,2" d="M371.047,-408C434.427,-408 564.484,-408 643.786,-408"/>
<polygon fill="#9a32cd" stroke="#9a32cd" points="370.74,-404.5 360.74,-408 370.74,-411.5 370.74,-404.5"/>
<text text-anchor="middle" x="522" y="-411" font-family="Helvetica,sans-Serif" font-size="10.00"> myCamera</text>
</g>
<!-- Node32 -->
<g id="node32" class="node"><title>Node32</title>
<polygon fill="white" stroke="#bfbfbf" points="231,-346 231,-376 435,-376 435,-346 231,-346"/>
<text text-anchor="start" x="239" y="-364" font-family="Helvetica,sans-Serif" font-size="10.00">List&lt; engine.gameObject.components.</text>
<text text-anchor="middle" x="333" y="-353" font-family="Helvetica,sans-Serif" font-size="10.00">Component &gt;</text>
</g>
<!-- Node32&#45;&gt;Node24 -->
<g id="edge35" class="edge"><title>Node32&#45;&gt;Node24</title>
<path fill="none" stroke="#9a32cd" stroke-dasharray="5,2" d="M422.621,-344.318C521.288,-328.474 685.155,-310.305 824,-334 910.632,-348.785 1004.25,-400.767 1040.47,-422.421"/>
<polygon fill="#9a32cd" stroke="#9a32cd" points="421.994,-340.874 412.689,-345.941 423.123,-347.783 421.994,-340.874"/>
<text text-anchor="middle" x="711" y="-337" font-family="Helvetica,sans-Serif" font-size="10.00"> myComponents</text>
</g>
<!-- Node44 -->
<g id="node44" class="node"><title>Node44</title>
<g id="a_node44"><a xlink:href="../../d6/d66/classengine_1_1game_object_1_1_default_data.html" target="_top" xlink:title="engine.gameObject.DefaultData">
<polygon fill="white" stroke="black" points="625.5,-354.5 625.5,-373.5 796.5,-373.5 796.5,-354.5 625.5,-354.5"/>
<text text-anchor="middle" x="711" y="-361.5" font-family="Helvetica,sans-Serif" font-size="10.00">engine.gameObject.DefaultData</text>
</a>
</g>
</g>
<!-- Node32&#45;&gt;Node44 -->
<g id="edge48" class="edge"><title>Node32&#45;&gt;Node44</title>
<path fill="none" stroke="#9a32cd" stroke-dasharray="5,2" d="M445.501,-361.89C503.108,-362.349 572.267,-362.901 625.417,-363.325"/>
<polygon fill="#9a32cd" stroke="#9a32cd" points="445.283,-358.388 435.256,-361.808 445.227,-365.388 445.283,-358.388"/>
<text text-anchor="middle" x="522" y="-366" font-family="Helvetica,sans-Serif" font-size="10.00"> myComponents</text>
</g>
<!-- Node33 -->
<g id="node33" class="node"><title>Node33</title>
<g id="a_node33"><a xlink:href="../../d2/d82/classengine_1_1render_1_1_rendered_node.html" target="_top" xlink:title="engine.render.RenderedNode">
<polygon fill="white" stroke="black" points="633,-264.5 633,-283.5 789,-283.5 789,-264.5 633,-264.5"/>
<text text-anchor="middle" x="711" y="-271.5" font-family="Helvetica,sans-Serif" font-size="10.00">engine.render.RenderedNode</text>
</a>
</g>
</g>
<!-- Node33&#45;&gt;Node24 -->
<g id="edge36" class="edge"><title>Node33&#45;&gt;Node24</title>
<path fill="none" stroke="#9a32cd" stroke-dasharray="5,2" d="M799.299,-267.516C847.126,-267.742 905.875,-274.459 952,-300 1004.58,-329.114 1039.88,-396.846 1051.66,-422.193"/>
<polygon fill="#9a32cd" stroke="#9a32cd" points="799.251,-264.016 789.267,-267.562 799.283,-271.016 799.251,-264.016"/>
<text text-anchor="middle" x="897" y="-303" font-family="Helvetica,sans-Serif" font-size="10.00"> myRenderedNode</text>
</g>
<!-- Node34 -->
<g id="node34" class="node"><title>Node34</title>
<polygon fill="white" stroke="#bfbfbf" points="310,-302.5 310,-321.5 356,-321.5 356,-302.5 310,-302.5"/>
<text text-anchor="middle" x="333" y="-309.5" font-family="Helvetica,sans-Serif" font-size="10.00">Group</text>
</g>
<!-- Node34&#45;&gt;Node33 -->
<g id="edge37" class="edge"><title>Node34&#45;&gt;Node33</title>
<path fill="none" stroke="midnightblue" d="M366.275,-308.738C424.996,-302.804 550.8,-290.089 632.827,-281.799"/>
<polygon fill="midnightblue" stroke="midnightblue" points="365.714,-305.277 356.117,-309.765 366.418,-312.241 365.714,-305.277"/>
</g>
<!-- Node35 -->
<g id="node35" class="node"><title>Node35</title>
<polygon fill="white" stroke="#bfbfbf" points="312,-264.5 312,-283.5 354,-283.5 354,-264.5 312,-264.5"/>
<text text-anchor="middle" x="333" y="-271.5" font-family="Helvetica,sans-Serif" font-size="10.00">Label</text>
</g>
<!-- Node35&#45;&gt;Node33 -->
<g id="edge38" class="edge"><title>Node35&#45;&gt;Node33</title>
<path fill="none" stroke="#9a32cd" stroke-dasharray="5,2" d="M364.523,-274C422.48,-274 550.061,-274 632.911,-274"/>
<polygon fill="#9a32cd" stroke="#9a32cd" points="364.215,-270.5 354.215,-274 364.215,-277.5 364.215,-270.5"/>
<text text-anchor="middle" x="522" y="-277" font-family="Helvetica,sans-Serif" font-size="10.00"> myLabel</text>
</g>
<!-- Node36 -->
<g id="node36" class="node"><title>Node36</title>
<polygon fill="white" stroke="#bfbfbf" points="299,-226.5 299,-245.5 367,-245.5 367,-226.5 299,-226.5"/>
<text text-anchor="middle" x="333" y="-233.5" font-family="Helvetica,sans-Serif" font-size="10.00">ImageView</text>
</g>
<!-- Node36&#45;&gt;Node33 -->
<g id="edge39" class="edge"><title>Node36&#45;&gt;Node33</title>
<path fill="none" stroke="#9a32cd" stroke-dasharray="5,2" d="M377.312,-239.764C426.473,-244.102 509.053,-251.591 580,-259 597.06,-260.782 615.365,-262.817 632.696,-264.802"/>
<polygon fill="#9a32cd" stroke="#9a32cd" points="377.316,-236.251 367.048,-238.861 376.703,-243.224 377.316,-236.251"/>
<text text-anchor="middle" x="522" y="-262" font-family="Helvetica,sans-Serif" font-size="10.00"> myImageView</text>
</g>
<!-- Node37 -->
<g id="node37" class="node"><title>Node37</title>
<polygon fill="white" stroke="#bfbfbf" points="312,-188.5 312,-207.5 354,-207.5 354,-188.5 312,-188.5"/>
<text text-anchor="middle" x="333" y="-195.5" font-family="Helvetica,sans-Serif" font-size="10.00">Node</text>
</g>
<!-- Node37&#45;&gt;Node33 -->
<g id="edge40" class="edge"><title>Node37&#45;&gt;Node33</title>
<path fill="none" stroke="#9a32cd" stroke-dasharray="5,2" d="M364.359,-200.7C411.099,-205.219 503.313,-215.576 580,-233 616.693,-241.337 657.955,-255.134 683.955,-264.392"/>
<polygon fill="#9a32cd" stroke="#9a32cd" points="364.578,-197.205 354.294,-199.75 363.92,-204.174 364.578,-197.205"/>
<text text-anchor="middle" x="522" y="-236" font-family="Helvetica,sans-Serif" font-size="10.00"> myCollisionBody</text>
</g>
<!-- Node38 -->
<g id="node38" class="node"><title>Node38</title>
<g id="a_node38"><a xlink:href="../../d9/d9d/classengine_1_1game_object_1_1components_1_1_physics_body.html" target="_top" xlink:title="engine.gameObject.components.\lPhysicsBody">
<polygon fill="white" stroke="black" points="623,-90 623,-120 799,-120 799,-90 623,-90"/>
<text text-anchor="start" x="631" y="-108" font-family="Helvetica,sans-Serif" font-size="10.00">engine.gameObject.components.</text>
<text text-anchor="middle" x="711" y="-97" font-family="Helvetica,sans-Serif" font-size="10.00">PhysicsBody</text>
</a>
</g>
</g>
<!-- Node38&#45;&gt;Node24 -->
<g id="edge41" class="edge"><title>Node38&#45;&gt;Node24</title>
<path fill="none" stroke="#9a32cd" stroke-dasharray="5,2" d="M755.836,-124.379C807.585,-148.929 893.937,-195.325 952,-255 1004.2,-308.644 1040.74,-393.384 1052.19,-422.105"/>
<polygon fill="#9a32cd" stroke="#9a32cd" points="757.131,-121.121 746.59,-120.051 754.163,-127.46 757.131,-121.121"/>
<text text-anchor="middle" x="897" y="-258" font-family="Helvetica,sans-Serif" font-size="10.00"> myPhysicsBody</text>
</g>
<!-- Node39 -->
<g id="node39" class="node"><title>Node39</title>
<polygon fill="white" stroke="#bfbfbf" points="255,-139 255,-169 411,-169 411,-139 255,-139"/>
<text text-anchor="start" x="263" y="-157" font-family="Helvetica,sans-Serif" font-size="10.00">Map&lt; String, engine.physics.</text>
<text text-anchor="middle" x="333" y="-146" font-family="Helvetica,sans-Serif" font-size="10.00">Scalar &gt;</text>
</g>
<!-- Node39&#45;&gt;Node38 -->
<g id="edge42" class="edge"><title>Node39&#45;&gt;Node38</title>
<path fill="none" stroke="#9a32cd" stroke-dasharray="5,2" d="M421.376,-142.613C481.939,-134.721 562.255,-124.254 622.784,-116.366"/>
<polygon fill="#9a32cd" stroke="#9a32cd" points="420.915,-139.144 411.452,-143.907 421.82,-146.085 420.915,-139.144"/>
<text text-anchor="middle" x="522" y="-140" font-family="Helvetica,sans-Serif" font-size="10.00"> myConstants</text>
</g>
<!-- Node40 -->
<g id="node40" class="node"><title>Node40</title>
<polygon fill="white" stroke="#bfbfbf" points="255,-90 255,-120 411,-120 411,-90 255,-90"/>
<text text-anchor="start" x="263" y="-108" font-family="Helvetica,sans-Serif" font-size="10.00">Map&lt; String, engine.physics.</text>
<text text-anchor="middle" x="333" y="-97" font-family="Helvetica,sans-Serif" font-size="10.00">Force &gt;</text>
</g>
<!-- Node40&#45;&gt;Node38 -->
<g id="edge43" class="edge"><title>Node40&#45;&gt;Node38</title>
<path fill="none" stroke="#9a32cd" stroke-dasharray="5,2" d="M421.751,-105C482.27,-105 562.38,-105 622.784,-105"/>
<polygon fill="#9a32cd" stroke="#9a32cd" points="421.452,-101.5 411.452,-105 421.452,-108.5 421.452,-101.5"/>
<text text-anchor="middle" x="522" y="-108" font-family="Helvetica,sans-Serif" font-size="10.00"> myActiveForces</text>
</g>
<!-- Node41 -->
<g id="node41" class="node"><title>Node41</title>
<polygon fill="white" stroke="#bfbfbf" points="249.5,-51.5 249.5,-70.5 416.5,-70.5 416.5,-51.5 249.5,-51.5"/>
<text text-anchor="middle" x="333" y="-58.5" font-family="Helvetica,sans-Serif" font-size="10.00">List&lt; engine.physics.Impulse &gt;</text>
</g>
<!-- Node41&#45;&gt;Node38 -->
<g id="edge44" class="edge"><title>Node41&#45;&gt;Node38</title>
<path fill="none" stroke="#9a32cd" stroke-dasharray="5,2" d="M425.808,-71.7435C485.78,-78.7615 563.628,-87.8713 622.678,-94.7815"/>
<polygon fill="#9a32cd" stroke="#9a32cd" points="425.925,-68.2334 415.586,-70.5473 425.112,-75.186 425.925,-68.2334"/>
<text text-anchor="middle" x="522" y="-93" font-family="Helvetica,sans-Serif" font-size="10.00"> myImpulses</text>
</g>
<!-- Node42 -->
<g id="node42" class="node"><title>Node42</title>
<g id="a_node42"><a xlink:href="../../d5/d1f/classengine_1_1physics_1_1_vector.html" target="_top" xlink:title="engine.physics.Vector">
<polygon fill="white" stroke="black" points="272.5,-0.5 272.5,-19.5 393.5,-19.5 393.5,-0.5 272.5,-0.5"/>
<text text-anchor="middle" x="333" y="-7.5" font-family="Helvetica,sans-Serif" font-size="10.00">engine.physics.Vector</text>
</a>
</g>
</g>
<!-- Node42&#45;&gt;Node38 -->
<g id="edge45" class="edge"><title>Node42&#45;&gt;Node38</title>
<path fill="none" stroke="#9a32cd" stroke-dasharray="5,2" d="M403.623,-12.1612C453.608,-15.2285 522.091,-22.5613 580,-40 619.142,-51.7871 660.804,-74.6855 686.121,-89.9123"/>
<polygon fill="#9a32cd" stroke="#9a32cd" points="403.748,-8.6627 393.564,-11.586 403.348,-15.6513 403.748,-8.6627"/>
<text text-anchor="middle" x="522" y="-65" font-family="Helvetica,sans-Serif" font-size="10.00"> myBalancedForcesMag</text>
<text text-anchor="middle" x="522" y="-54" font-family="Helvetica,sans-Serif" font-size="10.00">myVelocity</text>
<text text-anchor="middle" x="522" y="-43" font-family="Helvetica,sans-Serif" font-size="10.00">myAcceleration</text>
</g>
<!-- Node43 -->
<g id="node43" class="node"><title>Node43</title>
<g id="a_node43"><a xlink:href="../../dc/db5/classengine_1_1physics_1_1_physics_component.html" target="_top" xlink:title="engine.physics.PhysicsComponent">
<polygon fill="white" stroke="black" points="0,-0.5 0,-19.5 182,-19.5 182,-0.5 0,-0.5"/>
<text text-anchor="middle" x="91" y="-7.5" font-family="Helvetica,sans-Serif" font-size="10.00">engine.physics.PhysicsComponent</text>
</a>
</g>
</g>
<!-- Node43&#45;&gt;Node42 -->
<g id="edge46" class="edge"><title>Node43&#45;&gt;Node42</title>
<path fill="none" stroke="midnightblue" d="M192.403,-10C219.624,-10 248.228,-10 272.406,-10"/>
<polygon fill="midnightblue" stroke="midnightblue" points="192.05,-6.5001 182.05,-10 192.05,-13.5001 192.05,-6.5001"/>
</g>
<!-- Node44&#45;&gt;Node24 -->
<g id="edge47" class="edge"><title>Node44&#45;&gt;Node24</title>
<path fill="none" stroke="#9a32cd" stroke-dasharray="5,2" d="M797.519,-374.917C843.555,-381.452 901.168,-390.69 952,-402 977.497,-407.673 1005.97,-416.03 1026.66,-422.484"/>
<polygon fill="#9a32cd" stroke="#9a32cd" points="797.969,-371.446 787.58,-373.522 796.997,-378.378 797.969,-371.446"/>
<text text-anchor="middle" x="897" y="-405" font-family="Helvetica,sans-Serif" font-size="10.00"> myDefaultData</text>
</g>
</g>
</svg>
