<?xml version="1.0" encoding="UTF-8" standalone="no"?>
<!DOCTYPE svg PUBLIC "-//W3C//DTD SVG 1.1//EN"
 "http://www.w3.org/Graphics/SVG/1.1/DTD/svg11.dtd">
<!-- Generated by graphviz version 2.36.0 (20140111.2315)
 -->
<!-- Title: authoring.eventhandlers.GameObjectDragHandler Pages: 1 -->
<svg width="1756pt" height="1164pt"
 viewBox="0.00 0.00 1756.00 1164.00" xmlns="http://www.w3.org/2000/svg" xmlns:xlink="http://www.w3.org/1999/xlink">
<g id="graph0" class="graph" transform="scale(1 1) rotate(0) translate(4 1160)">
<title>authoring.eventhandlers.GameObjectDragHandler</title>
<polygon fill="white" stroke="none" points="-4,4 -4,-1160 1752,-1160 1752,4 -4,4"/>
<!-- Node1 -->
<g id="node1" class="node"><title>Node1</title>
<polygon fill="#bfbfbf" stroke="black" points="1610.5,-1036 1610.5,-1066 1747.5,-1066 1747.5,-1036 1610.5,-1036"/>
<text text-anchor="start" x="1618.5" y="-1054" font-family="Helvetica,sans-Serif" font-size="10.00">authoring.eventhandlers.</text>
<text text-anchor="middle" x="1679" y="-1043" font-family="Helvetica,sans-Serif" font-size="10.00">GameObjectDragHandler</text>
</g>
<!-- Node2 -->
<g id="node2" class="node"><title>Node2</title>
<g id="a_node2"><a xlink:href="../../d3/d6a/interfaceauthoring_1_1eventhandlers_1_1_game_handler.html" target="_top" xlink:title="authoring.eventhandlers.\lGameHandler\&lt; MouseEvent \&gt;">
<polygon fill="white" stroke="black" points="1314,-1111 1314,-1141 1478,-1141 1478,-1111 1314,-1111"/>
<text text-anchor="start" x="1322" y="-1129" font-family="Helvetica,sans-Serif" font-size="10.00">authoring.eventhandlers.</text>
<text text-anchor="middle" x="1396" y="-1118" font-family="Helvetica,sans-Serif" font-size="10.00">GameHandler&lt; MouseEvent &gt;</text>
</a>
</g>
</g>
<!-- Node2&#45;&gt;Node1 -->
<g id="edge1" class="edge"><title>Node2&#45;&gt;Node1</title>
<path fill="none" stroke="midnightblue" d="M1487.47,-1108.79C1520.61,-1101.77 1558.25,-1092.95 1592,-1083 1608.35,-1078.18 1626.06,-1071.8 1641.13,-1066"/>
<polygon fill="midnightblue" stroke="midnightblue" points="1486.4,-1105.44 1477.33,-1110.91 1487.84,-1112.29 1486.4,-1105.44"/>
</g>
<!-- Node3 -->
<g id="node3" class="node"><title>Node3</title>
<g id="a_node3"><a xlink:href="../../df/de5/classauthoring_1_1model_1_1collections_1_1_levels_collection.html" target="_top" xlink:title="authoring.model.collections.\lLevelsCollection">
<polygon fill="white" stroke="black" points="1320,-1062 1320,-1092 1472,-1092 1472,-1062 1320,-1062"/>
<text text-anchor="start" x="1328" y="-1080" font-family="Helvetica,sans-Serif" font-size="10.00">authoring.model.collections.</text>
<text text-anchor="middle" x="1396" y="-1069" font-family="Helvetica,sans-Serif" font-size="10.00">LevelsCollection</text>
</a>
</g>
</g>
<!-- Node3&#45;&gt;Node1 -->
<g id="edge2" class="edge"><title>Node3&#45;&gt;Node1</title>
<path fill="none" stroke="#9a32cd" stroke-dasharray="5,2" d="M1482.28,-1069.11C1523.28,-1065.32 1571.74,-1060.83 1610.18,-1057.28"/>
<polygon fill="#9a32cd" stroke="#9a32cd" points="1481.94,-1065.63 1472.3,-1070.03 1482.58,-1072.6 1481.94,-1065.63"/>
<text text-anchor="middle" x="1544" y="-1071" font-family="Helvetica,sans-Serif" font-size="10.00"> myLevelsCollection</text>
</g>
<!-- Node4 -->
<g id="node4" class="node"><title>Node4</title>
<g id="a_node4"><a xlink:href="../../d4/d3b/classauthoring_1_1model_1_1collections_1_1_general_collection.html" target="_top" xlink:title="authoring.model.collections.\lGeneralCollection\&lt; Level \&gt;">
<polygon fill="white" stroke="black" points="981,-1125 981,-1155 1133,-1155 1133,-1125 981,-1125"/>
<text text-anchor="start" x="989" y="-1143" font-family="Helvetica,sans-Serif" font-size="10.00">authoring.model.collections.</text>
<text text-anchor="middle" x="1057" y="-1132" font-family="Helvetica,sans-Serif" font-size="10.00">GeneralCollection&lt; Level &gt;</text>
</a>
</g>
</g>
<!-- Node4&#45;&gt;Node3 -->
<g id="edge3" class="edge"><title>Node4&#45;&gt;Node3</title>
<path fill="none" stroke="midnightblue" d="M1143.15,-1124.4C1188.54,-1116.05 1245.33,-1105.55 1296,-1096 1303.74,-1094.54 1311.82,-1093.01 1319.87,-1091.47"/>
<polygon fill="midnightblue" stroke="midnightblue" points="1142.26,-1121.01 1133.06,-1126.26 1143.53,-1127.89 1142.26,-1121.01"/>
</g>
<!-- Node5 -->
<g id="node5" class="node"><title>Node5</title>
<g id="a_node5"><a xlink:href="../../d4/d04/classauthoring_1_1view_1_1levelview_1_1_levels_view.html" target="_top" xlink:title="authoring.view.levelview.\lLevelsView">
<polygon fill="white" stroke="black" points="1330,-1013 1330,-1043 1462,-1043 1462,-1013 1330,-1013"/>
<text text-anchor="start" x="1338" y="-1031" font-family="Helvetica,sans-Serif" font-size="10.00">authoring.view.levelview.</text>
<text text-anchor="middle" x="1396" y="-1020" font-family="Helvetica,sans-Serif" font-size="10.00">LevelsView</text>
</a>
</g>
</g>
<!-- Node5&#45;&gt;Node1 -->
<g id="edge4" class="edge"><title>Node5&#45;&gt;Node1</title>
<path fill="none" stroke="#9a32cd" stroke-dasharray="5,2" d="M1472.16,-1029.45C1508.44,-1030.66 1552.56,-1032.89 1592,-1037 1598.02,-1037.63 1604.26,-1038.4 1610.5,-1039.26"/>
<polygon fill="#9a32cd" stroke="#9a32cd" points="1472.25,-1025.95 1462.14,-1029.13 1472.02,-1032.94 1472.25,-1025.95"/>
<text text-anchor="middle" x="1544" y="-1040" font-family="Helvetica,sans-Serif" font-size="10.00"> myLevelView</text>
</g>
<!-- Node6 -->
<g id="node6" class="node"><title>Node6</title>
<g id="a_node6"><a xlink:href="../../d0/d3f/classauthoring_1_1view_1_1baseclasses_1_1_tab_view.html" target="_top" xlink:title="authoring.view.baseclasses.\lTabView">
<polygon fill="white" stroke="black" points="982.5,-1076 982.5,-1106 1131.5,-1106 1131.5,-1076 982.5,-1076"/>
<text text-anchor="start" x="990.5" y="-1094" font-family="Helvetica,sans-Serif" font-size="10.00">authoring.view.baseclasses.</text>
<text text-anchor="middle" x="1057" y="-1083" font-family="Helvetica,sans-Serif" font-size="10.00">TabView</text>
</a>
</g>
</g>
<!-- Node6&#45;&gt;Node5 -->
<g id="edge5" class="edge"><title>Node6&#45;&gt;Node5</title>
<path fill="none" stroke="midnightblue" d="M1141.87,-1078.84C1187.58,-1071.81 1245.07,-1062.33 1296,-1052 1309.09,-1049.35 1323.06,-1046.17 1336.27,-1043.01"/>
<polygon fill="midnightblue" stroke="midnightblue" points="1141.06,-1075.42 1131.7,-1080.39 1142.12,-1082.34 1141.06,-1075.42"/>
</g>
<!-- Node7 -->
<g id="node7" class="node"><title>Node7</title>
<polygon fill="white" stroke="#bfbfbf" points="683,-1081.5 683,-1100.5 739,-1100.5 739,-1081.5 683,-1081.5"/>
<text text-anchor="middle" x="711" y="-1088.5" font-family="Helvetica,sans-Serif" font-size="10.00">TabPane</text>
</g>
<!-- Node7&#45;&gt;Node6 -->
<g id="edge6" class="edge"><title>Node7&#45;&gt;Node6</title>
<path fill="none" stroke="midnightblue" d="M749.388,-1091C805.002,-1091 910.635,-1091 982.184,-1091"/>
<polygon fill="midnightblue" stroke="midnightblue" points="749.281,-1087.5 739.281,-1091 749.281,-1094.5 749.281,-1087.5"/>
</g>
<!-- Node8 -->
<g id="node8" class="node"><title>Node8</title>
<polygon fill="white" stroke="#bfbfbf" points="664.5,-1034.5 664.5,-1053.5 757.5,-1053.5 757.5,-1034.5 664.5,-1034.5"/>
<text text-anchor="middle" x="711" y="-1041.5" font-family="Helvetica,sans-Serif" font-size="10.00">ResourceBundle</text>
</g>
<!-- Node8&#45;&gt;Node6 -->
<g id="edge7" class="edge"><title>Node8&#45;&gt;Node6</title>
<path fill="none" stroke="#9a32cd" stroke-dasharray="5,2" d="M767.591,-1051.24C816.248,-1057.62 888.834,-1067.23 952,-1076 961.848,-1077.37 972.216,-1078.83 982.437,-1080.29"/>
<polygon fill="#9a32cd" stroke="#9a32cd" points="767.953,-1047.76 757.583,-1049.93 767.044,-1054.7 767.953,-1047.76"/>
<text text-anchor="middle" x="897" y="-1079" font-family="Helvetica,sans-Serif" font-size="10.00"> myLanguage</text>
</g>
<!-- Node14 -->
<g id="node14" class="node"><title>Node14</title>
<g id="a_node14"><a xlink:href="../../de/d93/classauthoring_1_1view_1_1baseclasses_1_1_collection_view.html" target="_top" xlink:title="authoring.view.baseclasses.\lCollectionView">
<polygon fill="white" stroke="black" points="982.5,-950 982.5,-980 1131.5,-980 1131.5,-950 982.5,-950"/>
<text text-anchor="start" x="990.5" y="-968" font-family="Helvetica,sans-Serif" font-size="10.00">authoring.view.baseclasses.</text>
<text text-anchor="middle" x="1057" y="-957" font-family="Helvetica,sans-Serif" font-size="10.00">CollectionView</text>
</a>
</g>
</g>
<!-- Node8&#45;&gt;Node14 -->
<g id="edge15" class="edge"><title>Node8&#45;&gt;Node14</title>
<path fill="none" stroke="#9a32cd" stroke-dasharray="5,2" d="M763.584,-1032.15C824.114,-1018.25 924.573,-995.182 990.54,-980.033"/>
<polygon fill="#9a32cd" stroke="#9a32cd" points="762.457,-1028.82 753.494,-1034.47 764.024,-1035.64 762.457,-1028.82"/>
<text text-anchor="middle" x="897" y="-1017" font-family="Helvetica,sans-Serif" font-size="10.00"> myLanguage</text>
</g>
<!-- Node9 -->
<g id="node9" class="node"><title>Node9</title>
<g id="a_node9"><a xlink:href="../../d2/d4f/interfacedata_1_1_observer.html" target="_top" xlink:title="data.Observer">
<polygon fill="white" stroke="black" points="1014.5,-1037.5 1014.5,-1056.5 1099.5,-1056.5 1099.5,-1037.5 1014.5,-1037.5"/>
<text text-anchor="middle" x="1057" y="-1044.5" font-family="Helvetica,sans-Serif" font-size="10.00">data.Observer</text>
</a>
</g>
</g>
<!-- Node9&#45;&gt;Node5 -->
<g id="edge8" class="edge"><title>Node9&#45;&gt;Node5</title>
<path fill="none" stroke="midnightblue" d="M1109.88,-1044.07C1168.97,-1040.74 1265.6,-1035.3 1329.74,-1031.68"/>
<polygon fill="midnightblue" stroke="midnightblue" points="1109.45,-1040.59 1099.66,-1044.65 1109.84,-1047.58 1109.45,-1040.59"/>
</g>
<!-- Node10 -->
<g id="node10" class="node"><title>Node10</title>
<polygon fill="white" stroke="#bfbfbf" points="1041,-999.5 1041,-1018.5 1073,-1018.5 1073,-999.5 1041,-999.5"/>
<text text-anchor="middle" x="1057" y="-1006.5" font-family="Helvetica,sans-Serif" font-size="10.00">File</text>
</g>
<!-- Node10&#45;&gt;Node5 -->
<g id="edge9" class="edge"><title>Node10&#45;&gt;Node5</title>
<path fill="none" stroke="#9a32cd" stroke-dasharray="5,2" d="M1083.27,-1009.66C1126.76,-1010.88 1218.56,-1013.86 1296,-1019 1306.93,-1019.73 1318.54,-1020.65 1329.8,-1021.62"/>
<polygon fill="#9a32cd" stroke="#9a32cd" points="1083.14,-1006.15 1073.05,-1009.38 1082.95,-1013.15 1083.14,-1006.15"/>
<text text-anchor="middle" x="1229" y="-1022" font-family="Helvetica,sans-Serif" font-size="10.00"> myGameLocation</text>
</g>
<!-- Node11 -->
<g id="node11" class="node"><title>Node11</title>
<g id="a_node11"><a xlink:href="../../d3/d6a/interfaceauthoring_1_1eventhandlers_1_1_game_handler.html" target="_top" xlink:title="authoring.eventhandlers.\lGameHandler\&lt; T extends\l Event \&gt;">
<polygon fill="white" stroke="black" points="640.5,-886.5 640.5,-927.5 781.5,-927.5 781.5,-886.5 640.5,-886.5"/>
<text text-anchor="start" x="648.5" y="-915.5" font-family="Helvetica,sans-Serif" font-size="10.00">authoring.eventhandlers.</text>
<text text-anchor="start" x="648.5" y="-904.5" font-family="Helvetica,sans-Serif" font-size="10.00">GameHandler&lt; T extends</text>
<text text-anchor="middle" x="711" y="-893.5" font-family="Helvetica,sans-Serif" font-size="10.00"> Event &gt;</text>
</a>
</g>
</g>
<!-- Node11&#45;&gt;Node5 -->
<g id="edge10" class="edge"><title>Node11&#45;&gt;Node5</title>
<path fill="none" stroke="#9a32cd" stroke-dasharray="5,2" d="M791.862,-903.4C879.339,-901.224 1023.27,-902.853 1144,-929 1227.78,-947.145 1320.04,-989.938 1365.85,-1012.87"/>
<polygon fill="#9a32cd" stroke="#9a32cd" points="791.643,-899.905 781.741,-903.675 791.833,-906.902 791.643,-899.905"/>
<text text-anchor="middle" x="1057" y="-932" font-family="Helvetica,sans-Serif" font-size="10.00"> myEvents</text>
</g>
<!-- Node13 -->
<g id="node13" class="node"><title>Node13</title>
<g id="a_node13"><a xlink:href="../../d4/d9e/classauthoring_1_1view_1_1propertiesview_1_1_properties_view.html" target="_top" xlink:title="authoring.view.propertiesview.\lPropertiesView">
<polygon fill="white" stroke="black" points="1316.5,-816 1316.5,-846 1475.5,-846 1475.5,-816 1316.5,-816"/>
<text text-anchor="start" x="1324.5" y="-834" font-family="Helvetica,sans-Serif" font-size="10.00">authoring.view.propertiesview.</text>
<text text-anchor="middle" x="1396" y="-823" font-family="Helvetica,sans-Serif" font-size="10.00">PropertiesView</text>
</a>
</g>
</g>
<!-- Node11&#45;&gt;Node13 -->
<g id="edge48" class="edge"><title>Node11&#45;&gt;Node13</title>
<path fill="none" stroke="#9a32cd" stroke-dasharray="5,2" d="M791.645,-898.462C838.367,-893.431 898.541,-886.913 952,-881 1079.51,-866.897 1227.61,-850.096 1316.19,-840.003"/>
<polygon fill="#9a32cd" stroke="#9a32cd" points="791.154,-894.995 781.586,-899.545 791.903,-901.955 791.154,-894.995"/>
<text text-anchor="middle" x="1057" y="-882" font-family="Helvetica,sans-Serif" font-size="10.00"> myButtonBehaviors</text>
</g>
<!-- Node11&#45;&gt;Node14 -->
<g id="edge16" class="edge"><title>Node11&#45;&gt;Node14</title>
<path fill="none" stroke="#9a32cd" stroke-dasharray="5,2" d="M791.857,-924.385C808.398,-927.761 825.738,-931.136 842,-934 888.399,-942.171 940.736,-949.781 982.038,-955.416"/>
<polygon fill="#9a32cd" stroke="#9a32cd" points="792.178,-920.878 781.678,-922.287 790.766,-927.734 792.178,-920.878"/>
<text text-anchor="middle" x="897" y="-954" font-family="Helvetica,sans-Serif" font-size="10.00"> myIconEvents</text>
</g>
<!-- Node17 -->
<g id="node17" class="node"><title>Node17</title>
<g id="a_node17"><a xlink:href="../../da/d8d/classauthoring_1_1view_1_1propertiesview_1_1_game_object_properties.html" target="_top" xlink:title="authoring.view.propertiesview.\lGameObjectProperties">
<polygon fill="white" stroke="black" points="977.5,-716 977.5,-746 1136.5,-746 1136.5,-716 977.5,-716"/>
<text text-anchor="start" x="985.5" y="-734" font-family="Helvetica,sans-Serif" font-size="10.00">authoring.view.propertiesview.</text>
<text text-anchor="middle" x="1057" y="-723" font-family="Helvetica,sans-Serif" font-size="10.00">GameObjectProperties</text>
</a>
</g>
</g>
<!-- Node11&#45;&gt;Node17 -->
<g id="edge26" class="edge"><title>Node11&#45;&gt;Node17</title>
<path fill="none" stroke="#9a32cd" stroke-dasharray="5,2" d="M765.723,-882.069C789.071,-871.376 816.797,-858.87 842,-848 890.503,-827.081 905.567,-828.182 952,-803 983.273,-786.04 1016.61,-761.712 1036.88,-746.134"/>
<polygon fill="#9a32cd" stroke="#9a32cd" points="763.967,-879.024 756.339,-886.376 766.887,-885.385 763.967,-879.024"/>
<text text-anchor="middle" x="897" y="-873" font-family="Helvetica,sans-Serif" font-size="10.00"> myDeleteHandler</text>
<text text-anchor="middle" x="897" y="-862" font-family="Helvetica,sans-Serif" font-size="10.00">mySaveAsNewHandler</text>
<text text-anchor="middle" x="897" y="-851" font-family="Helvetica,sans-Serif" font-size="10.00">myEditHandler</text>
</g>
<!-- Node12 -->
<g id="node12" class="node"><title>Node12</title>
<polygon fill="white" stroke="#bfbfbf" points="245,-897.5 245,-916.5 421,-916.5 421,-897.5 245,-897.5"/>
<text text-anchor="middle" x="333" y="-904.5" font-family="Helvetica,sans-Serif" font-size="10.00">javafx::event::EventHandler&lt; T &gt;</text>
</g>
<!-- Node12&#45;&gt;Node11 -->
<g id="edge11" class="edge"><title>Node12&#45;&gt;Node11</title>
<path fill="none" stroke="midnightblue" d="M431.532,-907C496.932,-907 581.511,-907 640.213,-907"/>
<polygon fill="midnightblue" stroke="midnightblue" points="431.207,-903.5 421.207,-907 431.207,-910.5 431.207,-903.5"/>
</g>
<!-- Node13&#45;&gt;Node1 -->
<g id="edge12" class="edge"><title>Node13&#45;&gt;Node1</title>
<path fill="none" stroke="#9a32cd" stroke-dasharray="5,2" d="M1424.44,-852.486C1481.05,-896.807 1609.58,-997.43 1658.55,-1035.77"/>
<polygon fill="#9a32cd" stroke="#9a32cd" points="1426.35,-849.53 1416.31,-846.121 1422.03,-855.042 1426.35,-849.53"/>
<text text-anchor="middle" x="1544" y="-983" font-family="Helvetica,sans-Serif" font-size="10.00"> myProperties</text>
</g>
<!-- Node14&#45;&gt;Node13 -->
<g id="edge13" class="edge"><title>Node14&#45;&gt;Node13</title>
<path fill="none" stroke="midnightblue" d="M1124.22,-947.13C1172.72,-933.129 1239.62,-911.89 1296,-887 1322.74,-875.197 1351.65,-858.324 1371.28,-846.189"/>
<polygon fill="midnightblue" stroke="midnightblue" points="1123.12,-943.804 1114.47,-949.919 1125.05,-950.534 1123.12,-943.804"/>
</g>
<!-- Node15 -->
<g id="node15" class="node"><title>Node15</title>
<polygon fill="white" stroke="#bfbfbf" points="678,-816.5 678,-835.5 744,-835.5 744,-816.5 678,-816.5"/>
<text text-anchor="middle" x="711" y="-823.5" font-family="Helvetica,sans-Serif" font-size="10.00">ScrollPane</text>
</g>
<!-- Node15&#45;&gt;Node14 -->
<g id="edge14" class="edge"><title>Node15&#45;&gt;Node14</title>
<path fill="none" stroke="midnightblue" d="M754.313,-820.116C815.182,-812.664 923.306,-803.524 952,-828 988.689,-859.296 938.9,-898.145 970,-935 975.201,-941.163 981.743,-946.062 988.885,-949.954"/>
<polygon fill="midnightblue" stroke="midnightblue" points="753.731,-816.662 744.248,-821.386 754.607,-823.607 753.731,-816.662"/>
</g>
<!-- Node16 -->
<g id="node16" class="node"><title>Node16</title>
<polygon fill="white" stroke="#bfbfbf" points="312.5,-775.5 312.5,-794.5 353.5,-794.5 353.5,-775.5 312.5,-775.5"/>
<text text-anchor="middle" x="333" y="-782.5" font-family="Helvetica,sans-Serif" font-size="10.00">VBox</text>
</g>
<!-- Node16&#45;&gt;Node13 -->
<g id="edge17" class="edge"><title>Node16&#45;&gt;Node13</title>
<path fill="none" stroke="#9a32cd" stroke-dasharray="5,2" d="M363.974,-785.064C453.401,-785.378 726.131,-787.219 952,-798 1079.69,-804.094 1227.74,-816.131 1316.25,-823.86"/>
<polygon fill="#9a32cd" stroke="#9a32cd" points="363.768,-781.564 353.757,-785.033 363.746,-788.564 363.768,-781.564"/>
<text text-anchor="middle" x="897" y="-801" font-family="Helvetica,sans-Serif" font-size="10.00"> myContents</text>
</g>
<!-- Node18 -->
<g id="node18" class="node"><title>Node18</title>
<g id="a_node18"><a xlink:href="../../de/d73/classauthoring_1_1view_1_1propertiesview_1_1_properties.html" target="_top" xlink:title="authoring.view.propertiesview.\lProperties">
<polygon fill="white" stroke="black" points="631.5,-729 631.5,-759 790.5,-759 790.5,-729 631.5,-729"/>
<text text-anchor="start" x="639.5" y="-747" font-family="Helvetica,sans-Serif" font-size="10.00">authoring.view.propertiesview.</text>
<text text-anchor="middle" x="711" y="-736" font-family="Helvetica,sans-Serif" font-size="10.00">Properties</text>
</a>
</g>
</g>
<!-- Node16&#45;&gt;Node18 -->
<g id="edge20" class="edge"><title>Node16&#45;&gt;Node18</title>
<path fill="none" stroke="midnightblue" d="M363.866,-781.743C421.167,-775.495 548.224,-761.64 631.423,-752.568"/>
<polygon fill="midnightblue" stroke="midnightblue" points="363.248,-778.29 353.686,-782.853 364.007,-785.249 363.248,-778.29"/>
</g>
<!-- Node17&#45;&gt;Node13 -->
<g id="edge18" class="edge"><title>Node17&#45;&gt;Node13</title>
<path fill="none" stroke="#9a32cd" stroke-dasharray="5,2" d="M1146.85,-733.132C1192.67,-736.648 1248.71,-744.78 1296,-763 1327.91,-775.294 1359.56,-799.744 1378.2,-815.729"/>
<polygon fill="#9a32cd" stroke="#9a32cd" points="1146.86,-729.624 1136.64,-732.411 1146.37,-736.606 1146.86,-729.624"/>
<text text-anchor="middle" x="1229" y="-766" font-family="Helvetica,sans-Serif" font-size="10.00"> myGameObjectsProperties</text>
</g>
<!-- Node18&#45;&gt;Node17 -->
<g id="edge19" class="edge"><title>Node18&#45;&gt;Node17</title>
<path fill="none" stroke="midnightblue" d="M800.939,-740.639C855.551,-738.575 924.864,-735.956 977.447,-733.969"/>
<polygon fill="midnightblue" stroke="midnightblue" points="800.781,-737.142 790.921,-741.018 801.046,-744.137 800.781,-737.142"/>
</g>
<!-- Node19 -->
<g id="node19" class="node"><title>Node19</title>
<polygon fill="white" stroke="#bfbfbf" points="220.5,-722 220.5,-752 445.5,-752 445.5,-722 220.5,-722"/>
<text text-anchor="start" x="228.5" y="-740" font-family="Helvetica,sans-Serif" font-size="10.00">Map&lt; String, authoring.view.propertiesview.</text>
<text text-anchor="middle" x="333" y="-729" font-family="Helvetica,sans-Serif" font-size="10.00">PropertyField &gt;</text>
</g>
<!-- Node19&#45;&gt;Node18 -->
<g id="edge21" class="edge"><title>Node19&#45;&gt;Node18</title>
<path fill="none" stroke="#9a32cd" stroke-dasharray="5,2" d="M455.985,-736.483C495.552,-736.586 539.644,-736.987 580,-738 596.601,-738.417 614.385,-739.089 631.305,-739.835"/>
<polygon fill="#9a32cd" stroke="#9a32cd" points="455.767,-732.982 445.76,-736.462 455.753,-739.982 455.767,-732.982"/>
<text text-anchor="middle" x="522" y="-741" font-family="Helvetica,sans-Serif" font-size="10.00"> myMap</text>
</g>
<!-- Node20 -->
<g id="node20" class="node"><title>Node20</title>
<polygon fill="white" stroke="#bfbfbf" points="640.5,-690.5 640.5,-709.5 781.5,-709.5 781.5,-690.5 640.5,-690.5"/>
<text text-anchor="middle" x="711" y="-697.5" font-family="Helvetica,sans-Serif" font-size="10.00">Map&lt; String, CheckBox &gt;</text>
</g>
<!-- Node20&#45;&gt;Node17 -->
<g id="edge22" class="edge"><title>Node20&#45;&gt;Node17</title>
<path fill="none" stroke="#9a32cd" stroke-dasharray="5,2" d="M791.651,-706.797C838.374,-710.827 898.548,-716.092 952,-721 960.219,-721.755 968.801,-722.557 977.358,-723.366"/>
<polygon fill="#9a32cd" stroke="#9a32cd" points="791.855,-703.302 781.591,-705.93 791.254,-710.276 791.855,-703.302"/>
<text text-anchor="middle" x="897" y="-724" font-family="Helvetica,sans-Serif" font-size="10.00"> booleanProperties</text>
</g>
<!-- Node21 -->
<g id="node21" class="node"><title>Node21</title>
<polygon fill="white" stroke="#bfbfbf" points="598.5,-640 598.5,-670 823.5,-670 823.5,-640 598.5,-640"/>
<text text-anchor="start" x="606.5" y="-658" font-family="Helvetica,sans-Serif" font-size="10.00">Map&lt; String, authoring.view.propertiesview.</text>
<text text-anchor="middle" x="711" y="-647" font-family="Helvetica,sans-Serif" font-size="10.00">PropertyTextField &gt;</text>
</g>
<!-- Node21&#45;&gt;Node17 -->
<g id="edge23" class="edge"><title>Node21&#45;&gt;Node17</title>
<path fill="none" stroke="#9a32cd" stroke-dasharray="5,2" d="M833.943,-647.119C872.448,-647.908 914.668,-652.251 952,-664 986.009,-674.703 1019.64,-699.697 1039.09,-715.948"/>
<polygon fill="#9a32cd" stroke="#9a32cd" points="833.759,-643.617 823.715,-646.99 833.67,-650.616 833.759,-643.617"/>
<text text-anchor="middle" x="897" y="-700" font-family="Helvetica,sans-Serif" font-size="10.00"> physicsProperties</text>
<text text-anchor="middle" x="897" y="-689" font-family="Helvetica,sans-Serif" font-size="10.00">wizardProperties</text>
<text text-anchor="middle" x="897" y="-678" font-family="Helvetica,sans-Serif" font-size="10.00">concreteTextProperties</text>
<text text-anchor="middle" x="897" y="-667" font-family="Helvetica,sans-Serif" font-size="10.00">inherentTextProperties</text>
</g>
<!-- Node22 -->
<g id="node22" class="node"><title>Node22</title>
<g id="a_node22"><a xlink:href="../../dd/db2/classauthoring_1_1view_1_1baseclasses_1_1_accordion_container.html" target="_top" xlink:title="authoring.view.baseclasses.\lAccordionContainer">
<polygon fill="white" stroke="black" points="636.5,-591 636.5,-621 785.5,-621 785.5,-591 636.5,-591"/>
<text text-anchor="start" x="644.5" y="-609" font-family="Helvetica,sans-Serif" font-size="10.00">authoring.view.baseclasses.</text>
<text text-anchor="middle" x="711" y="-598" font-family="Helvetica,sans-Serif" font-size="10.00">AccordionContainer</text>
</a>
</g>
</g>
<!-- Node22&#45;&gt;Node17 -->
<g id="edge24" class="edge"><title>Node22&#45;&gt;Node17</title>
<path fill="none" stroke="#9a32cd" stroke-dasharray="5,2" d="M795.587,-602.581C843.394,-603.698 903.34,-610.455 952,-633 992.969,-651.981 1028.25,-693.506 1045.22,-715.926"/>
<polygon fill="#9a32cd" stroke="#9a32cd" points="795.631,-599.082 785.578,-602.425 795.522,-606.081 795.631,-599.082"/>
<text text-anchor="middle" x="897" y="-636" font-family="Helvetica,sans-Serif" font-size="10.00"> myAccordion</text>
</g>
<!-- Node23 -->
<g id="node23" class="node"><title>Node23</title>
<polygon fill="white" stroke="#bfbfbf" points="301,-596.5 301,-615.5 365,-615.5 365,-596.5 301,-596.5"/>
<text text-anchor="middle" x="333" y="-603.5" font-family="Helvetica,sans-Serif" font-size="10.00">Accordion</text>
</g>
<!-- Node23&#45;&gt;Node22 -->
<g id="edge25" class="edge"><title>Node23&#45;&gt;Node22</title>
<path fill="none" stroke="midnightblue" d="M375.39,-606C438.172,-606 558.396,-606 636.34,-606"/>
<polygon fill="midnightblue" stroke="midnightblue" points="375.09,-602.5 365.09,-606 375.09,-609.5 375.09,-602.5"/>
</g>
<!-- Node24 -->
<g id="node24" class="node"><title>Node24</title>
<g id="a_node24"><a xlink:href="../../d0/d7f/classengine_1_1game_object_1_1_game_object.html" target="_top" xlink:title="engine.gameObject.GameObject">
<polygon fill="white" stroke="black" points="970.5,-416.5 970.5,-435.5 1143.5,-435.5 1143.5,-416.5 970.5,-416.5"/>
<text text-anchor="middle" x="1057" y="-423.5" font-family="Helvetica,sans-Serif" font-size="10.00">engine.gameObject.GameObject</text>
</a>
</g>
</g>
<!-- Node24&#45;&gt;Node13 -->
<g id="edge27" class="edge"><title>Node24&#45;&gt;Node13</title>
<path fill="none" stroke="#9a32cd" stroke-dasharray="5,2" d="M1072.66,-443.613C1128.77,-511.054 1329.48,-752.254 1382.22,-815.647"/>
<polygon fill="#9a32cd" stroke="#9a32cd" points="1075.08,-441.06 1066,-435.612 1069.7,-445.537 1075.08,-441.06"/>
<text text-anchor="middle" x="1229" y="-715" font-family="Helvetica,sans-Serif" font-size="10.00"> myCurrentGameObject</text>
</g>
<!-- Node25 -->
<g id="node25" class="node"><title>Node25</title>
<g id="a_node25"><a xlink:href="../../d7/de6/interfaceengine_1_1game_object_1_1_i_enabled.html" target="_top" xlink:title="engine.gameObject.IEnabled">
<polygon fill="white" stroke="black" points="634,-552.5 634,-571.5 788,-571.5 788,-552.5 634,-552.5"/>
<text text-anchor="middle" x="711" y="-559.5" font-family="Helvetica,sans-Serif" font-size="10.00">engine.gameObject.IEnabled</text>
</a>
</g>
</g>
<!-- Node25&#45;&gt;Node24 -->
<g id="edge28" class="edge"><title>Node25&#45;&gt;Node24</title>
<path fill="none" stroke="midnightblue" d="M798.111,-552.571C845.442,-544.903 904.094,-531.211 952,-507 990.604,-487.49 1028.89,-452.638 1046.29,-435.732"/>
<polygon fill="midnightblue" stroke="midnightblue" points="797.533,-549.119 788.191,-554.117 798.611,-556.035 797.533,-549.119"/>
</g>
<!-- Node26 -->
<g id="node26" class="node"><title>Node26</title>
<polygon fill="white" stroke="#bfbfbf" points="645.5,-514.5 645.5,-533.5 776.5,-533.5 776.5,-514.5 645.5,-514.5"/>
<text text-anchor="middle" x="711" y="-521.5" font-family="Helvetica,sans-Serif" font-size="10.00">Iterable&lt; Component &gt;</text>
</g>
<!-- Node26&#45;&gt;Node24 -->
<g id="edge29" class="edge"><title>Node26&#45;&gt;Node24</title>
<path fill="none" stroke="midnightblue" d="M786.778,-515.41C834.892,-508.493 898.243,-496.76 952,-478 984.592,-466.626 1020.05,-447.246 1040,-435.63"/>
<polygon fill="midnightblue" stroke="midnightblue" points="786.17,-511.961 776.752,-516.814 787.141,-518.894 786.17,-511.961"/>
</g>
<!-- Node27 -->
<g id="node27" class="node"><title>Node27</title>
<g id="a_node27"><a xlink:href="../../dc/df6/interfaceengine_1_1game_object_1_1_identifiable.html" target="_top" xlink:title="engine.gameObject.Identifiable">
<polygon fill="white" stroke="black" points="628.5,-476.5 628.5,-495.5 793.5,-495.5 793.5,-476.5 628.5,-476.5"/>
<text text-anchor="middle" x="711" y="-483.5" font-family="Helvetica,sans-Serif" font-size="10.00">engine.gameObject.Identifiable</text>
</a>
</g>
</g>
<!-- Node27&#45;&gt;Node24 -->
<g id="edge30" class="edge"><title>Node27&#45;&gt;Node24</title>
<path fill="none" stroke="midnightblue" d="M803.599,-477.291C848.563,-472.224 903.386,-464.864 952,-455 977.351,-449.856 1005.59,-441.831 1026.24,-435.525"/>
<polygon fill="midnightblue" stroke="midnightblue" points="803.127,-473.822 793.573,-478.401 803.898,-480.779 803.127,-473.822"/>
</g>
<!-- Node28 -->
<g id="node28" class="node"><title>Node28</title>
<g id="a_node28"><a xlink:href="../../d4/dac/classengine_1_1game_object_1_1_identifier.html" target="_top" xlink:title="engine.gameObject.Identifier">
<polygon fill="white" stroke="black" points="633.5,-438.5 633.5,-457.5 788.5,-457.5 788.5,-438.5 633.5,-438.5"/>
<text text-anchor="middle" x="711" y="-445.5" font-family="Helvetica,sans-Serif" font-size="10.00">engine.gameObject.Identifier</text>
</a>
</g>
</g>
<!-- Node28&#45;&gt;Node24 -->
<g id="edge31" class="edge"><title>Node28&#45;&gt;Node24</title>
<path fill="none" stroke="#9a32cd" stroke-dasharray="5,2" d="M799.076,-442.431C851.575,-439.074 918.167,-434.815 970.4,-431.474"/>
<polygon fill="#9a32cd" stroke="#9a32cd" points="798.528,-438.959 788.772,-443.09 798.975,-445.945 798.528,-438.959"/>
<text text-anchor="middle" x="897" y="-443" font-family="Helvetica,sans-Serif" font-size="10.00"> myId</text>
</g>
<!-- Node29 -->
<g id="node29" class="node"><title>Node29</title>
<g id="a_node29"><a xlink:href="../../da/d35/classengine_1_1scrolling_1_1_scrolling_utility.html" target="_top" xlink:title="engine.scrolling.Scrolling\lUtility">
<polygon fill="white" stroke="black" points="644,-389 644,-419 778,-419 778,-389 644,-389"/>
<text text-anchor="start" x="652" y="-407" font-family="Helvetica,sans-Serif" font-size="10.00">engine.scrolling.Scrolling</text>
<text text-anchor="middle" x="711" y="-396" font-family="Helvetica,sans-Serif" font-size="10.00">Utility</text>
</a>
</g>
</g>
<!-- Node29&#45;&gt;Node24 -->
<g id="edge32" class="edge"><title>Node29&#45;&gt;Node24</title>
<path fill="none" stroke="#9a32cd" stroke-dasharray="5,2" d="M788.357,-408.679C835.519,-411.592 897.274,-415.448 952,-419 957.959,-419.387 964.11,-419.79 970.305,-420.199"/>
<polygon fill="#9a32cd" stroke="#9a32cd" points="788.417,-405.176 778.22,-408.053 787.986,-412.163 788.417,-405.176"/>
<text text-anchor="middle" x="897" y="-422" font-family="Helvetica,sans-Serif" font-size="10.00"> myScrollingUtility</text>
</g>
<!-- Node30 -->
<g id="node30" class="node"><title>Node30</title>
<polygon fill="white" stroke="#bfbfbf" points="305.5,-394.5 305.5,-413.5 360.5,-413.5 360.5,-394.5 305.5,-394.5"/>
<text text-anchor="middle" x="333" y="-401.5" font-family="Helvetica,sans-Serif" font-size="10.00">Camera</text>
</g>
<!-- Node30&#45;&gt;Node29 -->
<g id="edge33" class="edge"><title>Node30&#45;&gt;Node29</title>
<path fill="none" stroke="#9a32cd" stroke-dasharray="5,2" d="M371.047,-404C434.427,-404 564.484,-404 643.786,-404"/>
<polygon fill="#9a32cd" stroke="#9a32cd" points="370.74,-400.5 360.74,-404 370.74,-407.5 370.74,-400.5"/>
<text text-anchor="middle" x="522" y="-407" font-family="Helvetica,sans-Serif" font-size="10.00"> myCamera</text>
</g>
<!-- Node31 -->
<g id="node31" class="node"><title>Node31</title>
<polygon fill="white" stroke="#bfbfbf" points="231,-342 231,-372 435,-372 435,-342 231,-342"/>
<text text-anchor="start" x="239" y="-360" font-family="Helvetica,sans-Serif" font-size="10.00">List&lt; engine.gameObject.components.</text>
<text text-anchor="middle" x="333" y="-349" font-family="Helvetica,sans-Serif" font-size="10.00">Component &gt;</text>
</g>
<!-- Node31&#45;&gt;Node24 -->
<g id="edge34" class="edge"><title>Node31&#45;&gt;Node24</title>
<path fill="none" stroke="#9a32cd" stroke-dasharray="5,2" d="M445.483,-352.48C545.158,-350.105 694.977,-350.644 824,-368 898.27,-377.99 983.143,-402.727 1026.74,-416.448"/>
<polygon fill="#9a32cd" stroke="#9a32cd" points="445.302,-348.984 435.394,-352.735 445.479,-355.981 445.302,-348.984"/>
<text text-anchor="middle" x="711" y="-371" font-family="Helvetica,sans-Serif" font-size="10.00"> myComponents</text>
</g>
<!-- Node43 -->
<g id="node43" class="node"><title>Node43</title>
<g id="a_node43"><a xlink:href="../../d6/d66/classengine_1_1game_object_1_1_default_data.html" target="_top" xlink:title="engine.gameObject.DefaultData">
<polygon fill="white" stroke="black" points="625.5,-303.5 625.5,-322.5 796.5,-322.5 796.5,-303.5 625.5,-303.5"/>
<text text-anchor="middle" x="711" y="-310.5" font-family="Helvetica,sans-Serif" font-size="10.00">engine.gameObject.DefaultData</text>
</a>
</g>
</g>
<!-- Node31&#45;&gt;Node43 -->
<g id="edge47" class="edge"><title>Node31&#45;&gt;Node43</title>
<path fill="none" stroke="#9a32cd" stroke-dasharray="5,2" d="M422.263,-340.283C436.196,-337.963 450.467,-335.771 464,-334 517.445,-327.005 577.742,-321.815 625.263,-318.345"/>
<polygon fill="#9a32cd" stroke="#9a32cd" points="421.466,-336.868 412.192,-341.992 422.637,-343.77 421.466,-336.868"/>
<text text-anchor="middle" x="522" y="-337" font-family="Helvetica,sans-Serif" font-size="10.00"> myComponents</text>
</g>
<!-- Node32 -->
<g id="node32" class="node"><title>Node32</title>
<g id="a_node32"><a xlink:href="../../d2/d82/classengine_1_1render_1_1_rendered_node.html" target="_top" xlink:title="engine.render.RenderedNode">
<polygon fill="white" stroke="black" points="633,-264.5 633,-283.5 789,-283.5 789,-264.5 633,-264.5"/>
<text text-anchor="middle" x="711" y="-271.5" font-family="Helvetica,sans-Serif" font-size="10.00">engine.render.RenderedNode</text>
</a>
</g>
</g>
<!-- Node32&#45;&gt;Node24 -->
<g id="edge35" class="edge"><title>Node32&#45;&gt;Node24</title>
<path fill="none" stroke="#9a32cd" stroke-dasharray="5,2" d="M799.133,-265.427C846.909,-264.574 905.661,-270.073 952,-295 1004.68,-323.339 1039.92,-390.895 1051.68,-416.203"/>
<polygon fill="#9a32cd" stroke="#9a32cd" points="799.014,-261.929 789.113,-265.701 799.205,-268.927 799.014,-261.929"/>
<text text-anchor="middle" x="897" y="-298" font-family="Helvetica,sans-Serif" font-size="10.00"> myRenderedNode</text>
</g>
<!-- Node33 -->
<g id="node33" class="node"><title>Node33</title>
<polygon fill="white" stroke="#bfbfbf" points="310,-302.5 310,-321.5 356,-321.5 356,-302.5 310,-302.5"/>
<text text-anchor="middle" x="333" y="-309.5" font-family="Helvetica,sans-Serif" font-size="10.00">Group</text>
</g>
<!-- Node33&#45;&gt;Node32 -->
<g id="edge36" class="edge"><title>Node33&#45;&gt;Node32</title>
<path fill="none" stroke="midnightblue" d="M366.275,-308.738C424.996,-302.804 550.8,-290.089 632.827,-281.799"/>
<polygon fill="midnightblue" stroke="midnightblue" points="365.714,-305.277 356.117,-309.765 366.418,-312.241 365.714,-305.277"/>
</g>
<!-- Node34 -->
<g id="node34" class="node"><title>Node34</title>
<polygon fill="white" stroke="#bfbfbf" points="312,-264.5 312,-283.5 354,-283.5 354,-264.5 312,-264.5"/>
<text text-anchor="middle" x="333" y="-271.5" font-family="Helvetica,sans-Serif" font-size="10.00">Label</text>
</g>
<!-- Node34&#45;&gt;Node32 -->
<g id="edge37" class="edge"><title>Node34&#45;&gt;Node32</title>
<path fill="none" stroke="#9a32cd" stroke-dasharray="5,2" d="M364.523,-274C422.48,-274 550.061,-274 632.911,-274"/>
<polygon fill="#9a32cd" stroke="#9a32cd" points="364.215,-270.5 354.215,-274 364.215,-277.5 364.215,-270.5"/>
<text text-anchor="middle" x="522" y="-277" font-family="Helvetica,sans-Serif" font-size="10.00"> myLabel</text>
</g>
<!-- Node35 -->
<g id="node35" class="node"><title>Node35</title>
<polygon fill="white" stroke="#bfbfbf" points="299,-226.5 299,-245.5 367,-245.5 367,-226.5 299,-226.5"/>
<text text-anchor="middle" x="333" y="-233.5" font-family="Helvetica,sans-Serif" font-size="10.00">ImageView</text>
</g>
<!-- Node35&#45;&gt;Node32 -->
<g id="edge38" class="edge"><title>Node35&#45;&gt;Node32</title>
<path fill="none" stroke="#9a32cd" stroke-dasharray="5,2" d="M377.312,-239.764C426.473,-244.102 509.053,-251.591 580,-259 597.06,-260.782 615.365,-262.817 632.696,-264.802"/>
<polygon fill="#9a32cd" stroke="#9a32cd" points="377.316,-236.251 367.048,-238.861 376.703,-243.224 377.316,-236.251"/>
<text text-anchor="middle" x="522" y="-262" font-family="Helvetica,sans-Serif" font-size="10.00"> myImageView</text>
</g>
<!-- Node36 -->
<g id="node36" class="node"><title>Node36</title>
<polygon fill="white" stroke="#bfbfbf" points="312,-188.5 312,-207.5 354,-207.5 354,-188.5 312,-188.5"/>
<text text-anchor="middle" x="333" y="-195.5" font-family="Helvetica,sans-Serif" font-size="10.00">Node</text>
</g>
<!-- Node36&#45;&gt;Node32 -->
<g id="edge39" class="edge"><title>Node36&#45;&gt;Node32</title>
<path fill="none" stroke="#9a32cd" stroke-dasharray="5,2" d="M364.359,-200.7C411.099,-205.219 503.313,-215.576 580,-233 616.693,-241.337 657.955,-255.134 683.955,-264.392"/>
<polygon fill="#9a32cd" stroke="#9a32cd" points="364.578,-197.205 354.294,-199.75 363.92,-204.174 364.578,-197.205"/>
<text text-anchor="middle" x="522" y="-236" font-family="Helvetica,sans-Serif" font-size="10.00"> myCollisionBody</text>
</g>
<!-- Node37 -->
<g id="node37" class="node"><title>Node37</title>
<g id="a_node37"><a xlink:href="../../d9/d9d/classengine_1_1game_object_1_1components_1_1_physics_body.html" target="_top" xlink:title="engine.gameObject.components.\lPhysicsBody">
<polygon fill="white" stroke="black" points="623,-90 623,-120 799,-120 799,-90 623,-90"/>
<text text-anchor="start" x="631" y="-108" font-family="Helvetica,sans-Serif" font-size="10.00">engine.gameObject.components.</text>
<text text-anchor="middle" x="711" y="-97" font-family="Helvetica,sans-Serif" font-size="10.00">PhysicsBody</text>
</a>
</g>
</g>
<!-- Node37&#45;&gt;Node24 -->
<g id="edge40" class="edge"><title>Node37&#45;&gt;Node24</title>
<path fill="none" stroke="#9a32cd" stroke-dasharray="5,2" d="M756.644,-124.261C808.432,-148.297 894.095,-193.464 952,-252 1003.98,-304.541 1040.66,-387.969 1052.17,-416.254"/>
<polygon fill="#9a32cd" stroke="#9a32cd" points="757.932,-121.002 747.382,-120.021 755.018,-127.366 757.932,-121.002"/>
<text text-anchor="middle" x="897" y="-255" font-family="Helvetica,sans-Serif" font-size="10.00"> myPhysicsBody</text>
</g>
<!-- Node38 -->
<g id="node38" class="node"><title>Node38</title>
<polygon fill="white" stroke="#bfbfbf" points="255,-139 255,-169 411,-169 411,-139 255,-139"/>
<text text-anchor="start" x="263" y="-157" font-family="Helvetica,sans-Serif" font-size="10.00">Map&lt; String, engine.physics.</text>
<text text-anchor="middle" x="333" y="-146" font-family="Helvetica,sans-Serif" font-size="10.00">Scalar &gt;</text>
</g>
<!-- Node38&#45;&gt;Node37 -->
<g id="edge41" class="edge"><title>Node38&#45;&gt;Node37</title>
<path fill="none" stroke="#9a32cd" stroke-dasharray="5,2" d="M421.376,-142.613C481.939,-134.721 562.255,-124.254 622.784,-116.366"/>
<polygon fill="#9a32cd" stroke="#9a32cd" points="420.915,-139.144 411.452,-143.907 421.82,-146.085 420.915,-139.144"/>
<text text-anchor="middle" x="522" y="-140" font-family="Helvetica,sans-Serif" font-size="10.00"> myConstants</text>
</g>
<!-- Node39 -->
<g id="node39" class="node"><title>Node39</title>
<polygon fill="white" stroke="#bfbfbf" points="255,-90 255,-120 411,-120 411,-90 255,-90"/>
<text text-anchor="start" x="263" y="-108" font-family="Helvetica,sans-Serif" font-size="10.00">Map&lt; String, engine.physics.</text>
<text text-anchor="middle" x="333" y="-97" font-family="Helvetica,sans-Serif" font-size="10.00">Force &gt;</text>
</g>
<!-- Node39&#45;&gt;Node37 -->
<g id="edge42" class="edge"><title>Node39&#45;&gt;Node37</title>
<path fill="none" stroke="#9a32cd" stroke-dasharray="5,2" d="M421.751,-105C482.27,-105 562.38,-105 622.784,-105"/>
<polygon fill="#9a32cd" stroke="#9a32cd" points="421.452,-101.5 411.452,-105 421.452,-108.5 421.452,-101.5"/>
<text text-anchor="middle" x="522" y="-108" font-family="Helvetica,sans-Serif" font-size="10.00"> myActiveForces</text>
</g>
<!-- Node40 -->
<g id="node40" class="node"><title>Node40</title>
<polygon fill="white" stroke="#bfbfbf" points="249.5,-51.5 249.5,-70.5 416.5,-70.5 416.5,-51.5 249.5,-51.5"/>
<text text-anchor="middle" x="333" y="-58.5" font-family="Helvetica,sans-Serif" font-size="10.00">List&lt; engine.physics.Impulse &gt;</text>
</g>
<!-- Node40&#45;&gt;Node37 -->
<g id="edge43" class="edge"><title>Node40&#45;&gt;Node37</title>
<path fill="none" stroke="#9a32cd" stroke-dasharray="5,2" d="M425.808,-71.7435C485.78,-78.7615 563.628,-87.8713 622.678,-94.7815"/>
<polygon fill="#9a32cd" stroke="#9a32cd" points="425.925,-68.2334 415.586,-70.5473 425.112,-75.186 425.925,-68.2334"/>
<text text-anchor="middle" x="522" y="-93" font-family="Helvetica,sans-Serif" font-size="10.00"> myImpulses</text>
</g>
<!-- Node41 -->
<g id="node41" class="node"><title>Node41</title>
<g id="a_node41"><a xlink:href="../../d5/d1f/classengine_1_1physics_1_1_vector.html" target="_top" xlink:title="engine.physics.Vector">
<polygon fill="white" stroke="black" points="272.5,-0.5 272.5,-19.5 393.5,-19.5 393.5,-0.5 272.5,-0.5"/>
<text text-anchor="middle" x="333" y="-7.5" font-family="Helvetica,sans-Serif" font-size="10.00">engine.physics.Vector</text>
</a>
</g>
</g>
<!-- Node41&#45;&gt;Node37 -->
<g id="edge44" class="edge"><title>Node41&#45;&gt;Node37</title>
<path fill="none" stroke="#9a32cd" stroke-dasharray="5,2" d="M403.623,-12.1612C453.608,-15.2285 522.091,-22.5613 580,-40 619.142,-51.7871 660.804,-74.6855 686.121,-89.9123"/>
<polygon fill="#9a32cd" stroke="#9a32cd" points="403.748,-8.6627 393.564,-11.586 403.348,-15.6513 403.748,-8.6627"/>
<text text-anchor="middle" x="522" y="-65" font-family="Helvetica,sans-Serif" font-size="10.00"> myBalancedForcesMag</text>
<text text-anchor="middle" x="522" y="-54" font-family="Helvetica,sans-Serif" font-size="10.00">myVelocity</text>
<text text-anchor="middle" x="522" y="-43" font-family="Helvetica,sans-Serif" font-size="10.00">myAcceleration</text>
</g>
<!-- Node42 -->
<g id="node42" class="node"><title>Node42</title>
<g id="a_node42"><a xlink:href="../../dc/db5/classengine_1_1physics_1_1_physics_component.html" target="_top" xlink:title="engine.physics.PhysicsComponent">
<polygon fill="white" stroke="black" points="0,-0.5 0,-19.5 182,-19.5 182,-0.5 0,-0.5"/>
<text text-anchor="middle" x="91" y="-7.5" font-family="Helvetica,sans-Serif" font-size="10.00">engine.physics.PhysicsComponent</text>
</a>
</g>
</g>
<!-- Node42&#45;&gt;Node41 -->
<g id="edge45" class="edge"><title>Node42&#45;&gt;Node41</title>
<path fill="none" stroke="midnightblue" d="M192.403,-10C219.624,-10 248.228,-10 272.406,-10"/>
<polygon fill="midnightblue" stroke="midnightblue" points="192.05,-6.5001 182.05,-10 192.05,-13.5001 192.05,-6.5001"/>
</g>
<!-- Node43&#45;&gt;Node24 -->
<g id="edge46" class="edge"><title>Node43&#45;&gt;Node24</title>
<path fill="none" stroke="#9a32cd" stroke-dasharray="5,2" d="M806.69,-307.748C852.269,-308.552 906.715,-314.546 952,-334 995.412,-352.65 1033.31,-396.671 1048.69,-416.281"/>
<polygon fill="#9a32cd" stroke="#9a32cd" points="806.541,-304.247 796.509,-307.651 806.475,-311.246 806.541,-304.247"/>
<text text-anchor="middle" x="897" y="-337" font-family="Helvetica,sans-Serif" font-size="10.00"> myDefaultData</text>
</g>
</g>
</svg>
