<?xml version="1.0" encoding="UTF-8" standalone="no"?>
<!DOCTYPE svg PUBLIC "-//W3C//DTD SVG 1.1//EN"
 "http://www.w3.org/Graphics/SVG/1.1/DTD/svg11.dtd">
<!-- Generated by graphviz version 2.36.0 (20140111.2315)
 -->
<!-- Title: gamePlayer.view.keyboardUtility.KeyboardView.setNewKey Pages: 1 -->
<svg width="586pt" height="234pt"
 viewBox="0.00 0.00 586.00 234.00" xmlns="http://www.w3.org/2000/svg" xmlns:xlink="http://www.w3.org/1999/xlink">
<g id="graph0" class="graph" transform="scale(1 1) rotate(0) translate(4 230)">
<title>gamePlayer.view.keyboardUtility.KeyboardView.setNewKey</title>
<polygon fill="white" stroke="none" points="-4,4 -4,-230 582,-230 582,4 -4,4"/>
<!-- Node1 -->
<g id="node1" class="node"><title>Node1</title>
<polygon fill="#bfbfbf" stroke="black" points="0.5,-98 0.5,-128 165.5,-128 165.5,-98 0.5,-98"/>
<text text-anchor="start" x="8.5" y="-116" font-family="Helvetica,sans-Serif" font-size="10.00">gamePlayer.view.keyboard</text>
<text text-anchor="middle" x="83" y="-105" font-family="Helvetica,sans-Serif" font-size="10.00">Utility.KeyboardView.setNewKey</text>
</g>
<!-- Node2 -->
<g id="node2" class="node"><title>Node2</title>
<g id="a_node2"><a xlink:href="../../d5/dcb/classengine_1_1conditions_1_1_button_press_condition.html#a81d9c2e09654ce7015c287740071a752" target="_top" xlink:title="engine.conditions.Button\lPressCondition.addKey">
<polygon fill="white" stroke="black" points="217,-196 217,-226 353,-226 353,-196 217,-196"/>
<text text-anchor="start" x="225" y="-214" font-family="Helvetica,sans-Serif" font-size="10.00">engine.conditions.Button</text>
<text text-anchor="middle" x="285" y="-203" font-family="Helvetica,sans-Serif" font-size="10.00">PressCondition.addKey</text>
</a>
</g>
</g>
<!-- Node1&#45;&gt;Node2 -->
<g id="edge1" class="edge"><title>Node1&#45;&gt;Node2</title>
<path fill="none" stroke="midnightblue" d="M104.82,-128.197C127.703,-144.333 166.007,-169.712 202,-186 207.085,-188.301 212.439,-190.464 217.876,-192.481"/>
<polygon fill="midnightblue" stroke="midnightblue" points="217.114,-195.924 227.708,-195.951 219.443,-189.323 217.114,-195.924"/>
</g>
<!-- Node3 -->
<g id="node3" class="node"><title>Node3</title>
<g id="a_node3"><a xlink:href="../../d5/d37/classgame_player_1_1view_1_1keyboard_utility_1_1_mapped_keys.html#a346151bdad62cd635b0e212439a7af43" target="_top" xlink:title="gamePlayer.view.keyboard\lUtility.MappedKeys.getKeyCode">
<polygon fill="white" stroke="black" points="202.5,-147 202.5,-177 367.5,-177 367.5,-147 202.5,-147"/>
<text text-anchor="start" x="210.5" y="-165" font-family="Helvetica,sans-Serif" font-size="10.00">gamePlayer.view.keyboard</text>
<text text-anchor="middle" x="285" y="-154" font-family="Helvetica,sans-Serif" font-size="10.00">Utility.MappedKeys.getKeyCode</text>
</a>
</g>
</g>
<!-- Node1&#45;&gt;Node3 -->
<g id="edge2" class="edge"><title>Node1&#45;&gt;Node3</title>
<path fill="none" stroke="midnightblue" d="M145.366,-128.035C166.675,-133.255 190.75,-139.154 212.786,-144.553"/>
<polygon fill="midnightblue" stroke="midnightblue" points="212.205,-148.014 222.75,-146.994 213.87,-141.215 212.205,-148.014"/>
</g>
<!-- Node4 -->
<g id="node4" class="node"><title>Node4</title>
<g id="a_node4"><a xlink:href="../../d5/dcb/classengine_1_1conditions_1_1_button_press_condition.html#aebf652fe5c28c807c2a13eedae258a7e" target="_top" xlink:title="engine.conditions.Button\lPressCondition.getKeyIdentifier">
<polygon fill="white" stroke="black" points="203,-98 203,-128 367,-128 367,-98 203,-98"/>
<text text-anchor="start" x="211" y="-116" font-family="Helvetica,sans-Serif" font-size="10.00">engine.conditions.Button</text>
<text text-anchor="middle" x="285" y="-105" font-family="Helvetica,sans-Serif" font-size="10.00">PressCondition.getKeyIdentifier</text>
</a>
</g>
</g>
<!-- Node1&#45;&gt;Node4 -->
<g id="edge3" class="edge"><title>Node1&#45;&gt;Node4</title>
<path fill="none" stroke="midnightblue" d="M165.636,-113C174.583,-113 183.732,-113 192.785,-113"/>
<polygon fill="midnightblue" stroke="midnightblue" points="192.949,-116.5 202.949,-113 192.949,-109.5 192.949,-116.5"/>
</g>
<!-- Node6 -->
<g id="node6" class="node"><title>Node6</title>
<g id="a_node6"><a xlink:href="../../d5/dcb/classengine_1_1conditions_1_1_button_press_condition.html#a11b53583fbd33f6c695c96ad89551e90" target="_top" xlink:title="engine.conditions.Button\lPressCondition.getKeyList">
<polygon fill="white" stroke="black" points="215,-49 215,-79 355,-79 355,-49 215,-49"/>
<text text-anchor="start" x="223" y="-67" font-family="Helvetica,sans-Serif" font-size="10.00">engine.conditions.Button</text>
<text text-anchor="middle" x="285" y="-56" font-family="Helvetica,sans-Serif" font-size="10.00">PressCondition.getKeyList</text>
</a>
</g>
</g>
<!-- Node1&#45;&gt;Node6 -->
<g id="edge5" class="edge"><title>Node1&#45;&gt;Node6</title>
<path fill="none" stroke="midnightblue" d="M145.366,-97.9654C166.675,-92.7446 190.75,-86.8463 212.786,-81.4474"/>
<polygon fill="midnightblue" stroke="midnightblue" points="213.87,-84.7853 222.75,-79.0062 212.205,-77.9864 213.87,-84.7853"/>
</g>
<!-- Node7 -->
<g id="node7" class="node"><title>Node7</title>
<g id="a_node7"><a xlink:href="../../d5/dcb/classengine_1_1conditions_1_1_button_press_condition.html#a9c9b2dc9b57e55722189966731d7773f" target="_top" xlink:title="engine.conditions.Button\lPressCondition.removeKey">
<polygon fill="white" stroke="black" points="213,-0 213,-30 357,-30 357,-0 213,-0"/>
<text text-anchor="start" x="221" y="-18" font-family="Helvetica,sans-Serif" font-size="10.00">engine.conditions.Button</text>
<text text-anchor="middle" x="285" y="-7" font-family="Helvetica,sans-Serif" font-size="10.00">PressCondition.removeKey</text>
</a>
</g>
</g>
<!-- Node1&#45;&gt;Node7 -->
<g id="edge6" class="edge"><title>Node1&#45;&gt;Node7</title>
<path fill="none" stroke="midnightblue" d="M104.82,-97.8034C127.703,-81.6665 166.007,-56.2884 202,-40 207.085,-37.6989 212.439,-35.5356 217.876,-33.5189"/>
<polygon fill="midnightblue" stroke="midnightblue" points="219.443,-36.6775 227.708,-30.0494 217.114,-30.0763 219.443,-36.6775"/>
</g>
<!-- Node5 -->
<g id="node5" class="node"><title>Node5</title>
<g id="a_node5"><a xlink:href="../../d4/dac/classengine_1_1game_object_1_1_identifier.html#aa2630b5024b9595e43afe0bf53229433" target="_top" xlink:title="engine.gameObject.Identifier.get\lUniqueId">
<polygon fill="white" stroke="black" points="404.5,-98 404.5,-128 577.5,-128 577.5,-98 404.5,-98"/>
<text text-anchor="start" x="412.5" y="-116" font-family="Helvetica,sans-Serif" font-size="10.00">engine.gameObject.Identifier.get</text>
<text text-anchor="middle" x="491" y="-105" font-family="Helvetica,sans-Serif" font-size="10.00">UniqueId</text>
</a>
</g>
</g>
<!-- Node4&#45;&gt;Node5 -->
<g id="edge4" class="edge"><title>Node4&#45;&gt;Node5</title>
<path fill="none" stroke="midnightblue" d="M367.212,-113C376.093,-113 385.192,-113 394.227,-113"/>
<polygon fill="midnightblue" stroke="midnightblue" points="394.384,-116.5 404.384,-113 394.384,-109.5 394.384,-116.5"/>
</g>
</g>
</svg>
