<?xml version="1.0" encoding="UTF-8" standalone="no"?>
<!DOCTYPE svg PUBLIC "-//W3C//DTD SVG 1.1//EN"
 "http://www.w3.org/Graphics/SVG/1.1/DTD/svg11.dtd">
<!-- Generated by graphviz version 2.36.0 (20140111.2315)
 -->
<!-- Title: gamePlayer.view.keyboardUtility.KeyboardView.createKeyboardView Pages: 1 -->
<svg width="460pt" height="38pt"
 viewBox="0.00 0.00 460.00 38.00" xmlns="http://www.w3.org/2000/svg" xmlns:xlink="http://www.w3.org/1999/xlink">
<g id="graph0" class="graph" transform="scale(1 1) rotate(0) translate(4 34)">
<title>gamePlayer.view.keyboardUtility.KeyboardView.createKeyboardView</title>
<polygon fill="white" stroke="none" points="-4,4 -4,-34 456,-34 456,4 -4,4"/>
<!-- Node1 -->
<g id="node1" class="node"><title>Node1</title>
<polygon fill="#bfbfbf" stroke="black" points="0,-0 0,-30 210,-30 210,-0 0,-0"/>
<text text-anchor="start" x="8" y="-18" font-family="Helvetica,sans-Serif" font-size="10.00">gamePlayer.view.keyboard</text>
<text text-anchor="middle" x="105" y="-7" font-family="Helvetica,sans-Serif" font-size="10.00">Utility.KeyboardView.createKeyboardView</text>
</g>
<!-- Node2 -->
<g id="node2" class="node"><title>Node2</title>
<g id="a_node2"><a xlink:href="../../d9/dff/classgame_player_1_1view_1_1_menu_bar_controller.html#a7fe521fbb038790ea4cc4e27bc02f1fe" target="_top" xlink:title="gamePlayer.view.MenuBarController.key\lCombos">
<polygon fill="white" stroke="black" points="246,-0 246,-30 452,-30 452,-0 246,-0"/>
<text text-anchor="start" x="254" y="-18" font-family="Helvetica,sans-Serif" font-size="10.00">gamePlayer.view.MenuBarController.key</text>
<text text-anchor="middle" x="349" y="-7" font-family="Helvetica,sans-Serif" font-size="10.00">Combos</text>
</a>
</g>
</g>
<!-- Node1&#45;&gt;Node2 -->
<g id="edge1" class="edge"><title>Node1&#45;&gt;Node2</title>
<path fill="none" stroke="midnightblue" d="M220.129,-15C228.756,-15 237.429,-15 245.973,-15"/>
<polygon fill="midnightblue" stroke="midnightblue" points="220.034,-11.5001 210.034,-15 220.034,-18.5001 220.034,-11.5001"/>
</g>
</g>
</svg>
