<?xml version="1.0" encoding="UTF-8" standalone="no"?>
<!DOCTYPE svg PUBLIC "-//W3C//DTD SVG 1.1//EN"
 "http://www.w3.org/Graphics/SVG/1.1/DTD/svg11.dtd">
<!-- Generated by graphviz version 2.36.0 (20140111.2315)
 -->
<!-- Title: gamePlayer.view.keyboardUtility.KeyboardView.buildKeyboard Pages: 1 -->
<svg width="676pt" height="38pt"
 viewBox="0.00 0.00 676.00 38.00" xmlns="http://www.w3.org/2000/svg" xmlns:xlink="http://www.w3.org/1999/xlink">
<g id="graph0" class="graph" transform="scale(1 1) rotate(0) translate(4 34)">
<title>gamePlayer.view.keyboardUtility.KeyboardView.buildKeyboard</title>
<polygon fill="white" stroke="none" points="-4,4 -4,-34 672,-34 672,4 -4,4"/>
<!-- Node1 -->
<g id="node1" class="node"><title>Node1</title>
<polygon fill="#bfbfbf" stroke="black" points="0,-0 0,-30 180,-30 180,-0 0,-0"/>
<text text-anchor="start" x="8" y="-18" font-family="Helvetica,sans-Serif" font-size="10.00">gamePlayer.view.keyboard</text>
<text text-anchor="middle" x="90" y="-7" font-family="Helvetica,sans-Serif" font-size="10.00">Utility.KeyboardView.buildKeyboard</text>
</g>
<!-- Node2 -->
<g id="node2" class="node"><title>Node2</title>
<g id="a_node2"><a xlink:href="../../dc/d81/classgame_player_1_1view_1_1keyboard_utility_1_1_keyboard_view.html#a2b8970ff772d04703468c56065a05394" target="_top" xlink:title="gamePlayer.view.keyboard\lUtility.KeyboardView.createKeyboardView">
<polygon fill="white" stroke="black" points="216,-0 216,-30 426,-30 426,-0 216,-0"/>
<text text-anchor="start" x="224" y="-18" font-family="Helvetica,sans-Serif" font-size="10.00">gamePlayer.view.keyboard</text>
<text text-anchor="middle" x="321" y="-7" font-family="Helvetica,sans-Serif" font-size="10.00">Utility.KeyboardView.createKeyboardView</text>
</a>
</g>
</g>
<!-- Node1&#45;&gt;Node2 -->
<g id="edge1" class="edge"><title>Node1&#45;&gt;Node2</title>
<path fill="none" stroke="midnightblue" d="M190.401,-15C198.826,-15 207.361,-15 215.821,-15"/>
<polygon fill="midnightblue" stroke="midnightblue" points="190.193,-11.5001 180.193,-15 190.193,-18.5001 190.193,-11.5001"/>
</g>
<!-- Node3 -->
<g id="node3" class="node"><title>Node3</title>
<g id="a_node3"><a xlink:href="../../d9/dff/classgame_player_1_1view_1_1_menu_bar_controller.html#a7fe521fbb038790ea4cc4e27bc02f1fe" target="_top" xlink:title="gamePlayer.view.MenuBarController.key\lCombos">
<polygon fill="white" stroke="black" points="462,-0 462,-30 668,-30 668,-0 462,-0"/>
<text text-anchor="start" x="470" y="-18" font-family="Helvetica,sans-Serif" font-size="10.00">gamePlayer.view.MenuBarController.key</text>
<text text-anchor="middle" x="565" y="-7" font-family="Helvetica,sans-Serif" font-size="10.00">Combos</text>
</a>
</g>
</g>
<!-- Node2&#45;&gt;Node3 -->
<g id="edge2" class="edge"><title>Node2&#45;&gt;Node3</title>
<path fill="none" stroke="midnightblue" d="M436.129,-15C444.756,-15 453.429,-15 461.973,-15"/>
<polygon fill="midnightblue" stroke="midnightblue" points="436.034,-11.5001 426.034,-15 436.034,-18.5001 436.034,-11.5001"/>
</g>
</g>
</svg>
