<?xml version="1.0" encoding="UTF-8" standalone="no"?>
<!DOCTYPE svg PUBLIC "-//W3C//DTD SVG 1.1//EN"
 "http://www.w3.org/Graphics/SVG/1.1/DTD/svg11.dtd">
<!-- Generated by graphviz version 2.36.0 (20140111.2315)
 -->
<!-- Title: gamePlayer.view.keyboardUtility.KeyboardView.createKeyboardView Pages: 1 -->
<svg width="848pt" height="196pt"
 viewBox="0.00 0.00 848.00 196.00" xmlns="http://www.w3.org/2000/svg" xmlns:xlink="http://www.w3.org/1999/xlink">
<g id="graph0" class="graph" transform="scale(1 1) rotate(0) translate(4 192)">
<title>gamePlayer.view.keyboardUtility.KeyboardView.createKeyboardView</title>
<polygon fill="white" stroke="none" points="-4,4 -4,-192 844,-192 844,4 -4,4"/>
<!-- Node1 -->
<g id="node1" class="node"><title>Node1</title>
<polygon fill="#bfbfbf" stroke="black" points="0,-73 0,-103 210,-103 210,-73 0,-73"/>
<text text-anchor="start" x="8" y="-91" font-family="Helvetica,sans-Serif" font-size="10.00">gamePlayer.view.keyboard</text>
<text text-anchor="middle" x="105" y="-80" font-family="Helvetica,sans-Serif" font-size="10.00">Utility.KeyboardView.createKeyboardView</text>
</g>
<!-- Node2 -->
<g id="node2" class="node"><title>Node2</title>
<g id="a_node2"><a xlink:href="../../dc/d81/classgame_player_1_1view_1_1keyboard_utility_1_1_keyboard_view.html#aea7ae70733604972e4374f14b8bf94fd" target="_top" xlink:title="gamePlayer.view.keyboard\lUtility.KeyboardView.buildKeyboard">
<polygon fill="white" stroke="black" points="246,-100 246,-130 426,-130 426,-100 246,-100"/>
<text text-anchor="start" x="254" y="-118" font-family="Helvetica,sans-Serif" font-size="10.00">gamePlayer.view.keyboard</text>
<text text-anchor="middle" x="336" y="-107" font-family="Helvetica,sans-Serif" font-size="10.00">Utility.KeyboardView.buildKeyboard</text>
</a>
</g>
</g>
<!-- Node1&#45;&gt;Node2 -->
<g id="edge1" class="edge"><title>Node1&#45;&gt;Node2</title>
<path fill="none" stroke="midnightblue" d="M210.114,-100.275C218.691,-101.287 227.346,-102.307 235.886,-103.314"/>
<polygon fill="midnightblue" stroke="midnightblue" points="235.504,-106.793 245.845,-104.488 236.323,-99.8413 235.504,-106.793"/>
</g>
<!-- Node6 -->
<g id="node6" class="node"><title>Node6</title>
<g id="a_node6"><a xlink:href="../../dc/d81/classgame_player_1_1view_1_1keyboard_utility_1_1_keyboard_view.html#ab1da0d92c8f96358ab19fe79774070d3" target="_top" xlink:title="gamePlayer.view.keyboard\lUtility.KeyboardView.comboBox\lForButton">
<polygon fill="white" stroke="black" points="254,-40.5 254,-81.5 418,-81.5 418,-40.5 254,-40.5"/>
<text text-anchor="start" x="262" y="-69.5" font-family="Helvetica,sans-Serif" font-size="10.00">gamePlayer.view.keyboard</text>
<text text-anchor="start" x="262" y="-58.5" font-family="Helvetica,sans-Serif" font-size="10.00">Utility.KeyboardView.comboBox</text>
<text text-anchor="middle" x="336" y="-47.5" font-family="Helvetica,sans-Serif" font-size="10.00">ForButton</text>
</a>
</g>
</g>
<!-- Node1&#45;&gt;Node6 -->
<g id="edge5" class="edge"><title>Node1&#45;&gt;Node6</title>
<path fill="none" stroke="midnightblue" d="M210.114,-75.7246C221.331,-74.402 232.682,-73.0637 243.732,-71.7609"/>
<polygon fill="midnightblue" stroke="midnightblue" points="244.261,-75.2228 253.782,-70.5759 243.441,-68.271 244.261,-75.2228"/>
</g>
<!-- Node3 -->
<g id="node3" class="node"><title>Node3</title>
<g id="a_node3"><a xlink:href="../../dc/d81/classgame_player_1_1view_1_1keyboard_utility_1_1_keyboard_view.html#ad2f5a7563868829a9ecad8048c8578e0" target="_top" xlink:title="gamePlayer.view.keyboard\lUtility.KeyboardView.buildButton">
<polygon fill="white" stroke="black" points="462,-100 462,-130 630,-130 630,-100 462,-100"/>
<text text-anchor="start" x="470" y="-118" font-family="Helvetica,sans-Serif" font-size="10.00">gamePlayer.view.keyboard</text>
<text text-anchor="middle" x="546" y="-107" font-family="Helvetica,sans-Serif" font-size="10.00">Utility.KeyboardView.buildButton</text>
</a>
</g>
</g>
<!-- Node2&#45;&gt;Node3 -->
<g id="edge2" class="edge"><title>Node2&#45;&gt;Node3</title>
<path fill="none" stroke="midnightblue" d="M426.116,-115C434.675,-115 443.372,-115 451.967,-115"/>
<polygon fill="midnightblue" stroke="midnightblue" points="451.997,-118.5 461.997,-115 451.997,-111.5 451.997,-118.5"/>
</g>
<!-- Node4 -->
<g id="node4" class="node"><title>Node4</title>
<g id="a_node4"><a xlink:href="../../de/dfc/classgame_player_1_1view_1_1keyboard_utility_1_1_key_map_form.html#acfbc1803f500ffb31092c95a8eb73ef1" target="_top" xlink:title="gamePlayer.view.keyboard\lUtility.KeyMapForm.createKey\lMapForm">
<polygon fill="white" stroke="black" points="674.5,-146.5 674.5,-187.5 831.5,-187.5 831.5,-146.5 674.5,-146.5"/>
<text text-anchor="start" x="682.5" y="-175.5" font-family="Helvetica,sans-Serif" font-size="10.00">gamePlayer.view.keyboard</text>
<text text-anchor="start" x="682.5" y="-164.5" font-family="Helvetica,sans-Serif" font-size="10.00">Utility.KeyMapForm.createKey</text>
<text text-anchor="middle" x="753" y="-153.5" font-family="Helvetica,sans-Serif" font-size="10.00">MapForm</text>
</a>
</g>
</g>
<!-- Node3&#45;&gt;Node4 -->
<g id="edge3" class="edge"><title>Node3&#45;&gt;Node4</title>
<path fill="none" stroke="midnightblue" d="M606.294,-130.041C624.402,-134.634 644.712,-139.785 664.286,-144.751"/>
<polygon fill="midnightblue" stroke="midnightblue" points="663.577,-148.182 674.131,-147.248 665.298,-141.396 663.577,-148.182"/>
</g>
<!-- Node5 -->
<g id="node5" class="node"><title>Node5</title>
<g id="a_node5"><a xlink:href="../../d5/d37/classgame_player_1_1view_1_1keyboard_utility_1_1_mapped_keys.html#a5b2182702d4e20a45ce27b129e5581b1" target="_top" xlink:title="gamePlayer.view.keyboard\lUtility.MappedKeys.getKey">
<polygon fill="white" stroke="black" points="681.5,-98 681.5,-128 824.5,-128 824.5,-98 681.5,-98"/>
<text text-anchor="start" x="689.5" y="-116" font-family="Helvetica,sans-Serif" font-size="10.00">gamePlayer.view.keyboard</text>
<text text-anchor="middle" x="753" y="-105" font-family="Helvetica,sans-Serif" font-size="10.00">Utility.MappedKeys.getKey</text>
</a>
</g>
</g>
<!-- Node3&#45;&gt;Node5 -->
<g id="edge4" class="edge"><title>Node3&#45;&gt;Node5</title>
<path fill="none" stroke="midnightblue" d="M630.086,-114.189C643.618,-114.057 657.618,-113.921 671.096,-113.789"/>
<polygon fill="midnightblue" stroke="midnightblue" points="671.32,-117.287 681.285,-113.69 671.252,-110.288 671.32,-117.287"/>
</g>
<!-- Node7 -->
<g id="node7" class="node"><title>Node7</title>
<g id="a_node7"><a xlink:href="../../d5/dcb/classengine_1_1conditions_1_1_button_press_condition.html#aebf652fe5c28c807c2a13eedae258a7e" target="_top" xlink:title="engine.conditions.Button\lPressCondition.getKeyIdentifier">
<polygon fill="white" stroke="black" points="464,-49 464,-79 628,-79 628,-49 464,-49"/>
<text text-anchor="start" x="472" y="-67" font-family="Helvetica,sans-Serif" font-size="10.00">engine.conditions.Button</text>
<text text-anchor="middle" x="546" y="-56" font-family="Helvetica,sans-Serif" font-size="10.00">PressCondition.getKeyIdentifier</text>
</a>
</g>
</g>
<!-- Node6&#45;&gt;Node7 -->
<g id="edge6" class="edge"><title>Node6&#45;&gt;Node7</title>
<path fill="none" stroke="midnightblue" d="M418.014,-62.1685C429.659,-62.3364 441.71,-62.5102 453.541,-62.6809"/>
<polygon fill="midnightblue" stroke="midnightblue" points="453.816,-66.1851 463.865,-62.8298 453.917,-59.1858 453.816,-66.1851"/>
</g>
<!-- Node9 -->
<g id="node9" class="node"><title>Node9</title>
<g id="a_node9"><a xlink:href="../../d4/d3b/classauthoring_1_1model_1_1collections_1_1_general_collection.html#a79482ff667a22bb0d5b702c03261fe8d" target="_top" xlink:title="authoring.model.collections.\lGeneralCollection.iterator">
<polygon fill="white" stroke="black" points="470,-0 470,-30 622,-30 622,-0 470,-0"/>
<text text-anchor="start" x="478" y="-18" font-family="Helvetica,sans-Serif" font-size="10.00">authoring.model.collections.</text>
<text text-anchor="middle" x="546" y="-7" font-family="Helvetica,sans-Serif" font-size="10.00">GeneralCollection.iterator</text>
</a>
</g>
</g>
<!-- Node6&#45;&gt;Node9 -->
<g id="edge8" class="edge"><title>Node6&#45;&gt;Node9</title>
<path fill="none" stroke="midnightblue" d="M418.014,-43.0835C434.167,-39.5112 451.099,-35.7666 467.143,-32.2184"/>
<polygon fill="midnightblue" stroke="midnightblue" points="467.995,-35.6146 477.003,-30.0377 466.483,-28.7798 467.995,-35.6146"/>
</g>
<!-- Node8 -->
<g id="node8" class="node"><title>Node8</title>
<g id="a_node8"><a xlink:href="../../d4/dac/classengine_1_1game_object_1_1_identifier.html#aa2630b5024b9595e43afe0bf53229433" target="_top" xlink:title="engine.gameObject.Identifier.get\lUniqueId">
<polygon fill="white" stroke="black" points="666.5,-49 666.5,-79 839.5,-79 839.5,-49 666.5,-49"/>
<text text-anchor="start" x="674.5" y="-67" font-family="Helvetica,sans-Serif" font-size="10.00">engine.gameObject.Identifier.get</text>
<text text-anchor="middle" x="753" y="-56" font-family="Helvetica,sans-Serif" font-size="10.00">UniqueId</text>
</a>
</g>
</g>
<!-- Node7&#45;&gt;Node8 -->
<g id="edge7" class="edge"><title>Node7&#45;&gt;Node8</title>
<path fill="none" stroke="midnightblue" d="M628.021,-64C637.227,-64 646.674,-64 656.047,-64"/>
<polygon fill="midnightblue" stroke="midnightblue" points="656.175,-67.5001 666.175,-64 656.175,-60.5001 656.175,-67.5001"/>
</g>
</g>
</svg>
