<?xml version="1.0" encoding="UTF-8" standalone="no"?>
<!DOCTYPE svg PUBLIC "-//W3C//DTD SVG 1.1//EN"
 "http://www.w3.org/Graphics/SVG/1.1/DTD/svg11.dtd">
<!-- Generated by graphviz version 2.36.0 (20140111.2315)
 -->
<!-- Title: engine.gameObject.components.Component Pages: 1 -->
<svg width="414pt" height="104pt"
 viewBox="0.00 0.00 414.00 104.00" xmlns="http://www.w3.org/2000/svg" xmlns:xlink="http://www.w3.org/1999/xlink">
<g id="graph0" class="graph" transform="scale(1 1) rotate(0) translate(4 100)">
<title>engine.gameObject.components.Component</title>
<polygon fill="white" stroke="none" points="-4,4 -4,-100 410,-100 410,4 -4,4"/>
<!-- Node1 -->
<g id="node1" class="node"><title>Node1</title>
<polygon fill="#bfbfbf" stroke="black" points="230,-33 230,-63 406,-63 406,-33 230,-33"/>
<text text-anchor="start" x="238" y="-51" font-family="Helvetica,sans-Serif" font-size="10.00">engine.gameObject.components.</text>
<text text-anchor="middle" x="318" y="-40" font-family="Helvetica,sans-Serif" font-size="10.00">Component</text>
</g>
<!-- Node2 -->
<g id="node2" class="node"><title>Node2</title>
<g id="a_node2"><a xlink:href="../../d7/de6/interfaceengine_1_1game_object_1_1_i_enabled.html" target="_top" xlink:title="engine.gameObject.IEnabled">
<polygon fill="white" stroke="black" points="6,-76.5 6,-95.5 160,-95.5 160,-76.5 6,-76.5"/>
<text text-anchor="middle" x="83" y="-83.5" font-family="Helvetica,sans-Serif" font-size="10.00">engine.gameObject.IEnabled</text>
</a>
</g>
</g>
<!-- Node2&#45;&gt;Node1 -->
<g id="edge1" class="edge"><title>Node2&#45;&gt;Node1</title>
<path fill="none" stroke="midnightblue" d="M152.638,-74.8058C176.817,-70.8625 204.325,-66.3762 229.828,-62.2169"/>
<polygon fill="midnightblue" stroke="midnightblue" points="151.801,-71.396 142.495,-76.46 152.928,-78.3047 151.801,-71.396"/>
</g>
<!-- Node3 -->
<g id="node3" class="node"><title>Node3</title>
<g id="a_node3"><a xlink:href="../../dc/df6/interfaceengine_1_1game_object_1_1_identifiable.html" target="_top" xlink:title="engine.gameObject.Identifiable">
<polygon fill="white" stroke="black" points="0.5,-38.5 0.5,-57.5 165.5,-57.5 165.5,-38.5 0.5,-38.5"/>
<text text-anchor="middle" x="83" y="-45.5" font-family="Helvetica,sans-Serif" font-size="10.00">engine.gameObject.Identifiable</text>
</a>
</g>
</g>
<!-- Node3&#45;&gt;Node1 -->
<g id="edge2" class="edge"><title>Node3&#45;&gt;Node1</title>
<path fill="none" stroke="midnightblue" d="M176.133,-48C193.827,-48 212.306,-48 229.837,-48"/>
<polygon fill="midnightblue" stroke="midnightblue" points="175.819,-44.5001 165.819,-48 175.819,-51.5001 175.819,-44.5001"/>
</g>
<!-- Node4 -->
<g id="node4" class="node"><title>Node4</title>
<g id="a_node4"><a xlink:href="../../d4/dac/classengine_1_1game_object_1_1_identifier.html" target="_top" xlink:title="engine.gameObject.Identifier">
<polygon fill="white" stroke="black" points="5.5,-0.5 5.5,-19.5 160.5,-19.5 160.5,-0.5 5.5,-0.5"/>
<text text-anchor="middle" x="83" y="-7.5" font-family="Helvetica,sans-Serif" font-size="10.00">engine.gameObject.Identifier</text>
</a>
</g>
</g>
<!-- Node4&#45;&gt;Node1 -->
<g id="edge3" class="edge"><title>Node4&#45;&gt;Node1</title>
<path fill="none" stroke="#9a32cd" stroke-dasharray="5,2" d="M152.638,-21.1942C176.817,-25.1375 204.325,-29.6238 229.828,-33.7831"/>
<polygon fill="#9a32cd" stroke="#9a32cd" points="152.928,-17.6953 142.495,-19.54 151.801,-24.604 152.928,-17.6953"/>
<text text-anchor="middle" x="198" y="-33" font-family="Helvetica,sans-Serif" font-size="10.00"> myID</text>
</g>
</g>
</svg>
