<?xml version="1.0" encoding="UTF-8" standalone="no"?>
<!DOCTYPE svg PUBLIC "-//W3C//DTD SVG 1.1//EN"
 "http://www.w3.org/Graphics/SVG/1.1/DTD/svg11.dtd">
<!-- Generated by graphviz version 2.36.0 (20140111.2315)
 -->
<!-- Title: engine.actions.VelocityTypeAction.execute Pages: 1 -->
<!--zoomable 111 -->
<svg id="main" version="1.1" xmlns="http://www.w3.org/2000/svg" xmlns:xlink="http://www.w3.org/1999/xlink" xml:space="preserve" onload="init(evt)">
<style type="text/css"><![CDATA[
.edge:hover path { stroke: red; }
.edge:hover polygon { stroke: red; fill: red; }
]]></style>
<script type="text/javascript"><![CDATA[
var edges = document.getElementsByTagName('g');
if (edges && edges.length) {
  for (var i=0;i<edges.length;i++) {
    if (edges[i].id.substr(0,4)=='edge') {
      edges[i].setAttribute('class','edge');
    }
  }
}
]]></script>
        <defs>
                <circle id="rim" cx="0" cy="0" r="7"/>
                <circle id="rim2" cx="0" cy="0" r="3.5"/>
                <g id="zoomPlus">
                        <use xlink:href="#rim" fill="#404040">
                                <set attributeName="fill" to="#808080" begin="zoomplus.mouseover" end="zoomplus.mouseout"/>
                        </use>
                        <path d="M-4,0h8M0,-4v8" fill="none" stroke="white" stroke-width="1.5" pointer-events="none"/>
                </g>
                <g id="zoomMin">
                        <use xlink:href="#rim" fill="#404040">
                                <set attributeName="fill" to="#808080" begin="zoomminus.mouseover" end="zoomminus.mouseout"/>
                        </use>
                        <path d="M-4,0h8" fill="none" stroke="white" stroke-width="1.5" pointer-events="none"/>
                </g>
                <g id="dirArrow">
                        <path fill="none" stroke="white" stroke-width="1.5" d="M0,-3.0v7 M-2.5,-0.5L0,-3.0L2.5,-0.5"/>
                </g>
               <g id="resetDef">
                       <use xlink:href="#rim2" fill="#404040">
                               <set attributeName="fill" to="#808080" begin="reset.mouseover" end="reset.mouseout"/>
                       </use>
               </g>
        </defs>

<script type="text/javascript">
var viewWidth = 736;
var viewHeight = 111;
var sectionId = 'dynsection-7';
</script>
<script xlink:href="../../svgpan.js"/>
<svg id="graph" class="graph">
<g id="viewport">
<title>engine.actions.VelocityTypeAction.execute</title>
<polygon fill="white" stroke="none" points="-4,4 -4,-107 732,-107 732,4 -4,4"/>
<!-- Node1 -->
<g id="node1" class="node"><title>Node1</title>
<polygon fill="#bfbfbf" stroke="black" points="0.5,-24 0.5,-54 147.5,-54 147.5,-24 0.5,-24"/>
<text text-anchor="start" x="8.5" y="-42" font-family="Helvetica,sans-Serif" font-size="10.00">engine.actions.VelocityType</text>
<text text-anchor="middle" x="74" y="-31" font-family="Helvetica,sans-Serif" font-size="10.00">Action.execute</text>
</g>
<!-- Node2 -->
<g id="node2" class="node"><title>Node2</title>
<g id="a_node2"><a xlink:href="../../d9/d3b/classengine_1_1actions_1_1_velocity_type_action.html#acf6e407d4f60eb8d1c7f11ae6876442a" target="_top" xlink:title="engine.actions.VelocityType\lAction.applyPhysics">
<polygon fill="white" stroke="black" points="185.5,-49 185.5,-79 332.5,-79 332.5,-49 185.5,-49"/>
<text text-anchor="start" x="193.5" y="-67" font-family="Helvetica,sans-Serif" font-size="10.00">engine.actions.VelocityType</text>
<text text-anchor="middle" x="259" y="-56" font-family="Helvetica,sans-Serif" font-size="10.00">Action.applyPhysics</text>
</a>
</g>
</g>
<!-- Node1&#45;&gt;Node2 -->
<g id="edge1" class="edge"><title>Node1&#45;&gt;Node2</title>
<path fill="none" stroke="midnightblue" d="M147.589,-48.9166C156.75,-50.168 166.175,-51.4555 175.474,-52.726"/>
<polygon fill="midnightblue" stroke="midnightblue" points="175.117,-56.2096 185.499,-54.0954 176.064,-49.274 175.117,-56.2096"/>
</g>
<!-- Node7 -->
<g id="node7" class="node"><title>Node7</title>
<g id="a_node7"><a xlink:href="../../df/d84/classengine_1_1level_1_1_level.html#ac927326f1a3d7e17b5d577c336a5cfc1" target="_top" xlink:title="engine.level.Level.getGame\lObjectsCollection">
<polygon fill="white" stroke="black" points="184.5,-0 184.5,-30 333.5,-30 333.5,-0 184.5,-0"/>
<text text-anchor="start" x="192.5" y="-18" font-family="Helvetica,sans-Serif" font-size="10.00">engine.level.Level.getGame</text>
<text text-anchor="middle" x="259" y="-7" font-family="Helvetica,sans-Serif" font-size="10.00">ObjectsCollection</text>
</a>
</g>
</g>
<!-- Node1&#45;&gt;Node7 -->
<g id="edge6" class="edge"><title>Node1&#45;&gt;Node7</title>
<path fill="none" stroke="midnightblue" d="M147.589,-29.4801C156.362,-28.3295 165.378,-27.1472 174.294,-25.9779"/>
<polygon fill="midnightblue" stroke="midnightblue" points="174.84,-29.4363 184.3,-24.6656 173.93,-22.4957 174.84,-29.4363"/>
</g>
<!-- Node3 -->
<g id="node3" class="node"><title>Node3</title>
<g id="a_node3"><a xlink:href="../../d9/d3b/classengine_1_1actions_1_1_velocity_type_action.html#a52b498724d20c1afd7a900f1f9211f93" target="_top" xlink:title="engine.actions.VelocityType\lAction.determineOperation">
<polygon fill="white" stroke="black" points="370.5,-73 370.5,-103 517.5,-103 517.5,-73 370.5,-73"/>
<text text-anchor="start" x="378.5" y="-91" font-family="Helvetica,sans-Serif" font-size="10.00">engine.actions.VelocityType</text>
<text text-anchor="middle" x="444" y="-80" font-family="Helvetica,sans-Serif" font-size="10.00">Action.determineOperation</text>
</a>
</g>
</g>
<!-- Node2&#45;&gt;Node3 -->
<g id="edge2" class="edge"><title>Node2&#45;&gt;Node3</title>
<path fill="none" stroke="midnightblue" d="M332.589,-73.5199C341.75,-74.7213 351.175,-75.9573 360.474,-77.177"/>
<polygon fill="midnightblue" stroke="midnightblue" points="360.128,-80.6615 370.499,-78.4916 361.039,-73.7209 360.128,-80.6615"/>
</g>
<!-- Node5 -->
<g id="node5" class="node"><title>Node5</title>
<g id="a_node5"><a xlink:href="../../d9/d3b/classengine_1_1actions_1_1_velocity_type_action.html#a1505251880618ed0001d21a5d8b56fb0" target="_top" xlink:title="engine.actions.VelocityType\lAction.forHelper">
<polygon fill="white" stroke="black" points="370.5,-24 370.5,-54 517.5,-54 517.5,-24 370.5,-24"/>
<text text-anchor="start" x="378.5" y="-42" font-family="Helvetica,sans-Serif" font-size="10.00">engine.actions.VelocityType</text>
<text text-anchor="middle" x="444" y="-31" font-family="Helvetica,sans-Serif" font-size="10.00">Action.forHelper</text>
</a>
</g>
</g>
<!-- Node2&#45;&gt;Node5 -->
<g id="edge4" class="edge"><title>Node2&#45;&gt;Node5</title>
<path fill="none" stroke="midnightblue" d="M332.589,-54.0834C341.75,-52.832 351.175,-51.5445 360.474,-50.274"/>
<polygon fill="midnightblue" stroke="midnightblue" points="361.064,-53.726 370.499,-48.9046 360.117,-46.7904 361.064,-53.726"/>
</g>
<!-- Node4 -->
<g id="node4" class="node"><title>Node4</title>
<g id="a_node4"><a xlink:href="../../d9/d3b/classengine_1_1actions_1_1_velocity_type_action.html#ab21b049c509492f18b473d2dbb1e6b5f" target="_top" xlink:title="engine.actions.VelocityType\lAction.determineVector">
<polygon fill="white" stroke="black" points="567.5,-73 567.5,-103 714.5,-103 714.5,-73 567.5,-73"/>
<text text-anchor="start" x="575.5" y="-91" font-family="Helvetica,sans-Serif" font-size="10.00">engine.actions.VelocityType</text>
<text text-anchor="middle" x="641" y="-80" font-family="Helvetica,sans-Serif" font-size="10.00">Action.determineVector</text>
</a>
</g>
</g>
<!-- Node3&#45;&gt;Node4 -->
<g id="edge3" class="edge"><title>Node3&#45;&gt;Node4</title>
<path fill="none" stroke="midnightblue" d="M517.611,-88C530.554,-88 544.125,-88 557.324,-88"/>
<polygon fill="midnightblue" stroke="midnightblue" points="557.329,-91.5001 567.329,-88 557.329,-84.5001 557.329,-91.5001"/>
</g>
<!-- Node6 -->
<g id="node6" class="node"><title>Node6</title>
<g id="a_node6"><a xlink:href="../../d3/daf/interfaceengine_1_1actions_1_1_velocity_type_action_1_1_two_arg_interface.html#a23eda6bdae224f314554cfa2b1ce20e2" target="_top" xlink:title="engine.actions.VelocityType\lAction.TwoArgInterface.operation">
<polygon fill="white" stroke="black" points="554.5,-24 554.5,-54 727.5,-54 727.5,-24 554.5,-24"/>
<text text-anchor="start" x="562.5" y="-42" font-family="Helvetica,sans-Serif" font-size="10.00">engine.actions.VelocityType</text>
<text text-anchor="middle" x="641" y="-31" font-family="Helvetica,sans-Serif" font-size="10.00">Action.TwoArgInterface.operation</text>
</a>
</g>
</g>
<!-- Node5&#45;&gt;Node6 -->
<g id="edge5" class="edge"><title>Node5&#45;&gt;Node6</title>
<path fill="none" stroke="midnightblue" d="M517.611,-39C526.344,-39 535.362,-39 544.359,-39"/>
<polygon fill="midnightblue" stroke="midnightblue" points="544.492,-42.5001 554.492,-39 544.492,-35.5001 544.492,-42.5001"/>
</g>
</g>
</svg>
        <g id="navigator" transform="translate(0 0)" fill="#404254">
                <rect fill="#f2f5e9" fill-opacity="0.5" stroke="#606060" stroke-width=".5" x="0" y="0" width="60" height="60"/>
                <use id="zoomplus" xlink:href="#zoomPlus" x="17" y="9" onmousedown="handleZoom(evt,'in')"/>
                <use id="zoomminus" xlink:href="#zoomMin" x="42" y="9" onmousedown="handleZoom(evt,'out')"/>
                <use id="reset" xlink:href="#resetDef" x="30" y="36" onmousedown="handleReset()"/>
                <g id="arrowUp" xlink:href="#dirArrow" transform="translate(30 24)" onmousedown="handlePan(0,-1)">
                  <use xlink:href="#rim" fill="#404040">
                        <set attributeName="fill" to="#808080" begin="arrowUp.mouseover" end="arrowUp.mouseout"/>
                  </use>
                  <path fill="none" stroke="white" stroke-width="1.5" d="M0,-3.0v7 M-2.5,-0.5L0,-3.0L2.5,-0.5"/>
                </g>
                <g id="arrowRight" xlink:href="#dirArrow" transform="rotate(90) translate(36 -43)" onmousedown="handlePan(1,0)">
                  <use xlink:href="#rim" fill="#404040">
                        <set attributeName="fill" to="#808080" begin="arrowRight.mouseover" end="arrowRight.mouseout"/>
                  </use>
                  <path fill="none" stroke="white" stroke-width="1.5" d="M0,-3.0v7 M-2.5,-0.5L0,-3.0L2.5,-0.5"/>
                </g>
                <g id="arrowDown" xlink:href="#dirArrow" transform="rotate(180) translate(-30 -48)" onmousedown="handlePan(0,1)">
                  <use xlink:href="#rim" fill="#404040">
                        <set attributeName="fill" to="#808080" begin="arrowDown.mouseover" end="arrowDown.mouseout"/>
                  </use>
                  <path fill="none" stroke="white" stroke-width="1.5" d="M0,-3.0v7 M-2.5,-0.5L0,-3.0L2.5,-0.5"/>
                </g>
                <g id="arrowLeft" xlink:href="#dirArrow" transform="rotate(270) translate(-36 17)" onmousedown="handlePan(-1,0)">
                  <use xlink:href="#rim" fill="#404040">
                        <set attributeName="fill" to="#808080" begin="arrowLeft.mouseover" end="arrowLeft.mouseout"/>
                  </use>
                  <path fill="none" stroke="white" stroke-width="1.5" d="M0,-3.0v7 M-2.5,-0.5L0,-3.0L2.5,-0.5"/>
                </g>
        </g>
        <svg viewBox="0 0 15 15" width="100%" height="30px" preserveAspectRatio="xMaxYMin meet">
         <g id="arrow_out" transform="scale(0.3 0.3)">
          <a xlink:href="classengine_1_1actions_1_1_velocity_type_action_aa6767abcb43632713fdc097d4865f949_cgraph_org.svg" target="_base">
           <rect id="button" ry="5" rx="5" y="6" x="6" height="38" width="38"
                fill="#f2f5e9" fill-opacity="0.5" stroke="#606060" stroke-width="1.0"/>
           <path id="arrow"
             d="M 11.500037,31.436501 C 11.940474,20.09759 22.043105,11.32322 32.158766,21.979434 L 37.068811,17.246167 C 37.068811,17.246167 37.088388,32 37.088388,32 L 22.160133,31.978069 C 22.160133,31.978069 26.997745,27.140456 26.997745,27.140456 C 18.528582,18.264221 13.291696,25.230495 11.500037,31.436501 z"
             style="fill:#404040;"/>
          </a>
         </g>
        </svg>
</svg>
