<?xml version="1.0" encoding="UTF-8" standalone="no"?>
<!DOCTYPE svg PUBLIC "-//W3C//DTD SVG 1.1//EN"
 "http://www.w3.org/Graphics/SVG/1.1/DTD/svg11.dtd">
<!-- Generated by graphviz version 2.36.0 (20140111.2315)
 -->
<!-- Title: engine.actions.VelocityTypeAction.determineVector Pages: 1 -->
<svg width="708pt" height="38pt"
 viewBox="0.00 0.00 708.00 38.00" xmlns="http://www.w3.org/2000/svg" xmlns:xlink="http://www.w3.org/1999/xlink">
<g id="graph0" class="graph" transform="scale(1 1) rotate(0) translate(4 34)">
<title>engine.actions.VelocityTypeAction.determineVector</title>
<polygon fill="white" stroke="none" points="-4,4 -4,-34 704,-34 704,4 -4,4"/>
<!-- Node1 -->
<g id="node1" class="node"><title>Node1</title>
<polygon fill="#bfbfbf" stroke="black" points="0.5,-0 0.5,-30 147.5,-30 147.5,-0 0.5,-0"/>
<text text-anchor="start" x="8.5" y="-18" font-family="Helvetica,sans-Serif" font-size="10.00">engine.actions.VelocityType</text>
<text text-anchor="middle" x="74" y="-7" font-family="Helvetica,sans-Serif" font-size="10.00">Action.determineVector</text>
</g>
<!-- Node2 -->
<g id="node2" class="node"><title>Node2</title>
<g id="a_node2"><a xlink:href="../../d9/d3b/classengine_1_1actions_1_1_velocity_type_action.html#a52b498724d20c1afd7a900f1f9211f93" target="_top" xlink:title="engine.actions.VelocityType\lAction.determineOperation">
<polygon fill="white" stroke="black" points="184.5,-0 184.5,-30 331.5,-30 331.5,-0 184.5,-0"/>
<text text-anchor="start" x="192.5" y="-18" font-family="Helvetica,sans-Serif" font-size="10.00">engine.actions.VelocityType</text>
<text text-anchor="middle" x="258" y="-7" font-family="Helvetica,sans-Serif" font-size="10.00">Action.determineOperation</text>
</a>
</g>
</g>
<!-- Node1&#45;&gt;Node2 -->
<g id="edge1" class="edge"><title>Node1&#45;&gt;Node2</title>
<path fill="none" stroke="midnightblue" d="M157.994,-15C166.806,-15 175.72,-15 184.4,-15"/>
<polygon fill="midnightblue" stroke="midnightblue" points="157.716,-11.5001 147.716,-15 157.716,-18.5001 157.716,-11.5001"/>
</g>
<!-- Node3 -->
<g id="node3" class="node"><title>Node3</title>
<g id="a_node3"><a xlink:href="../../d9/d3b/classengine_1_1actions_1_1_velocity_type_action.html#acf6e407d4f60eb8d1c7f11ae6876442a" target="_top" xlink:title="engine.actions.VelocityType\lAction.applyPhysics">
<polygon fill="white" stroke="black" points="368.5,-0 368.5,-30 515.5,-30 515.5,-0 368.5,-0"/>
<text text-anchor="start" x="376.5" y="-18" font-family="Helvetica,sans-Serif" font-size="10.00">engine.actions.VelocityType</text>
<text text-anchor="middle" x="442" y="-7" font-family="Helvetica,sans-Serif" font-size="10.00">Action.applyPhysics</text>
</a>
</g>
</g>
<!-- Node2&#45;&gt;Node3 -->
<g id="edge2" class="edge"><title>Node2&#45;&gt;Node3</title>
<path fill="none" stroke="midnightblue" d="M341.994,-15C350.806,-15 359.72,-15 368.4,-15"/>
<polygon fill="midnightblue" stroke="midnightblue" points="341.716,-11.5001 331.716,-15 341.716,-18.5001 341.716,-11.5001"/>
</g>
<!-- Node4 -->
<g id="node4" class="node"><title>Node4</title>
<g id="a_node4"><a xlink:href="../../d9/d3b/classengine_1_1actions_1_1_velocity_type_action.html#aa6767abcb43632713fdc097d4865f949" target="_top" xlink:title="engine.actions.VelocityType\lAction.execute">
<polygon fill="white" stroke="black" points="552.5,-0 552.5,-30 699.5,-30 699.5,-0 552.5,-0"/>
<text text-anchor="start" x="560.5" y="-18" font-family="Helvetica,sans-Serif" font-size="10.00">engine.actions.VelocityType</text>
<text text-anchor="middle" x="626" y="-7" font-family="Helvetica,sans-Serif" font-size="10.00">Action.execute</text>
</a>
</g>
</g>
<!-- Node3&#45;&gt;Node4 -->
<g id="edge3" class="edge"><title>Node3&#45;&gt;Node4</title>
<path fill="none" stroke="midnightblue" d="M525.994,-15C534.806,-15 543.72,-15 552.4,-15"/>
<polygon fill="midnightblue" stroke="midnightblue" points="525.716,-11.5001 515.716,-15 525.716,-18.5001 525.716,-11.5001"/>
</g>
</g>
</svg>
