<?xml version="1.0" encoding="UTF-8" standalone="no"?>
<!DOCTYPE svg PUBLIC "-//W3C//DTD SVG 1.1//EN"
 "http://www.w3.org/Graphics/SVG/1.1/DTD/svg11.dtd">
<!-- Generated by graphviz version 2.36.0 (20140111.2315)
 -->
<!-- Title: engine.physics.Volume Pages: 1 -->
<svg width="429pt" height="154pt"
 viewBox="0.00 0.00 429.00 154.00" xmlns="http://www.w3.org/2000/svg" xmlns:xlink="http://www.w3.org/1999/xlink">
<g id="graph0" class="graph" transform="scale(1 1) rotate(0) translate(4 150)">
<title>engine.physics.Volume</title>
<polygon fill="white" stroke="none" points="-4,4 -4,-150 425,-150 425,4 -4,4"/>
<!-- Node1 -->
<g id="node1" class="node"><title>Node1</title>
<polygon fill="#bfbfbf" stroke="black" points="189,-0.5 189,-19.5 315,-19.5 315,-0.5 189,-0.5"/>
<text text-anchor="middle" x="252" y="-7.5" font-family="Helvetica,sans-Serif" font-size="10.00">engine.physics.Volume</text>
</g>
<!-- Node2 -->
<g id="node2" class="node"><title>Node2</title>
<g id="a_node2"><a xlink:href="../../d0/de5/classengine_1_1physics_1_1_scalar.html" target="_top" xlink:title="engine.physics.Scalar">
<polygon fill="white" stroke="black" points="192,-58.5 192,-77.5 312,-77.5 312,-58.5 192,-58.5"/>
<text text-anchor="middle" x="252" y="-65.5" font-family="Helvetica,sans-Serif" font-size="10.00">engine.physics.Scalar</text>
</a>
</g>
</g>
<!-- Node2&#45;&gt;Node1 -->
<g id="edge1" class="edge"><title>Node2&#45;&gt;Node1</title>
<path fill="none" stroke="midnightblue" d="M252,-47.953C252,-38.2875 252,-27.0312 252,-19.5052"/>
<polygon fill="midnightblue" stroke="midnightblue" points="248.5,-48.25 252,-58.25 255.5,-48.25 248.5,-48.25"/>
</g>
<!-- Node3 -->
<g id="node3" class="node"><title>Node3</title>
<g id="a_node3"><a xlink:href="../../dc/db5/classengine_1_1physics_1_1_physics_component.html" target="_top" xlink:title="engine.physics.PhysicsComponent">
<polygon fill="white" stroke="black" points="0,-126.5 0,-145.5 182,-145.5 182,-126.5 0,-126.5"/>
<text text-anchor="middle" x="91" y="-133.5" font-family="Helvetica,sans-Serif" font-size="10.00">engine.physics.PhysicsComponent</text>
</a>
</g>
</g>
<!-- Node3&#45;&gt;Node2 -->
<g id="edge2" class="edge"><title>Node3&#45;&gt;Node2</title>
<path fill="none" stroke="midnightblue" d="M121.404,-122.536C153.52,-109.371 203.292,-88.9673 231.202,-77.5259"/>
<polygon fill="midnightblue" stroke="midnightblue" points="119.973,-119.34 112.048,-126.372 122.628,-125.817 119.973,-119.34"/>
</g>
<!-- Node4 -->
<g id="node4" class="node"><title>Node4</title>
<polygon fill="white" stroke="#bfbfbf" points="200,-126.5 200,-145.5 304,-145.5 304,-126.5 200,-126.5"/>
<text text-anchor="middle" x="252" y="-133.5" font-family="Helvetica,sans-Serif" font-size="10.00">Iterable&lt; String &gt;</text>
</g>
<!-- Node4&#45;&gt;Node2 -->
<g id="edge3" class="edge"><title>Node4&#45;&gt;Node2</title>
<path fill="none" stroke="midnightblue" d="M252,-116.041C252,-103.472 252,-87.5631 252,-77.8411"/>
<polygon fill="midnightblue" stroke="midnightblue" points="248.5,-116.372 252,-126.372 255.5,-116.372 248.5,-116.372"/>
</g>
<!-- Node5 -->
<g id="node5" class="node"><title>Node5</title>
<polygon fill="white" stroke="#bfbfbf" points="322,-126.5 322,-145.5 406,-145.5 406,-126.5 322,-126.5"/>
<text text-anchor="middle" x="364" y="-133.5" font-family="Helvetica,sans-Serif" font-size="10.00">List&lt; String &gt;</text>
</g>
<!-- Node5&#45;&gt;Node2 -->
<g id="edge4" class="edge"><title>Node5&#45;&gt;Node2</title>
<path fill="none" stroke="#9a32cd" stroke-dasharray="5,2" d="M340.522,-121.165C318.234,-108.031 285.429,-88.6993 266.646,-77.6305"/>
<polygon fill="#9a32cd" stroke="#9a32cd" points="338.966,-124.31 349.358,-126.372 342.519,-118.279 338.966,-124.31"/>
<text text-anchor="middle" x="369.5" y="-99.5" font-family="Helvetica,sans-Serif" font-size="10.00"> myAssociatedForces</text>
</g>
</g>
</svg>
