<?xml version="1.0" encoding="UTF-8" standalone="no"?>
<!DOCTYPE svg PUBLIC "-//W3C//DTD SVG 1.1//EN"
 "http://www.w3.org/Graphics/SVG/1.1/DTD/svg11.dtd">
<!-- Generated by graphviz version 2.36.0 (20140111.2315)
 -->
<!-- Title: engine.render.GameObjectRenderer.setBackGroundImage Pages: 1 -->
<svg width="388pt" height="87pt"
 viewBox="0.00 0.00 388.00 87.00" xmlns="http://www.w3.org/2000/svg" xmlns:xlink="http://www.w3.org/1999/xlink">
<g id="graph0" class="graph" transform="scale(1 1) rotate(0) translate(4 83)">
<title>engine.render.GameObjectRenderer.setBackGroundImage</title>
<polygon fill="white" stroke="none" points="-4,4 -4,-83 384,-83 384,4 -4,4"/>
<!-- Node1 -->
<g id="node1" class="node"><title>Node1</title>
<polygon fill="#bfbfbf" stroke="black" points="0.5,-24 0.5,-54 165.5,-54 165.5,-24 0.5,-24"/>
<text text-anchor="start" x="8.5" y="-42" font-family="Helvetica,sans-Serif" font-size="10.00">engine.render.GameObject</text>
<text text-anchor="middle" x="83" y="-31" font-family="Helvetica,sans-Serif" font-size="10.00">Renderer.setBackGroundImage</text>
</g>
<!-- Node2 -->
<g id="node2" class="node"><title>Node2</title>
<g id="a_node2"><a xlink:href="../../df/d84/classengine_1_1level_1_1_level.html#a5dc36c31fcc8e0b5cbe2a942ec101fdb" target="_top" xlink:title="engine.level.Level.getBackground\lImage">
<polygon fill="white" stroke="black" points="202.5,-49 202.5,-79 379.5,-79 379.5,-49 202.5,-49"/>
<text text-anchor="start" x="210.5" y="-67" font-family="Helvetica,sans-Serif" font-size="10.00">engine.level.Level.getBackground</text>
<text text-anchor="middle" x="291" y="-56" font-family="Helvetica,sans-Serif" font-size="10.00">Image</text>
</a>
</g>
</g>
<!-- Node1&#45;&gt;Node2 -->
<g id="edge1" class="edge"><title>Node1&#45;&gt;Node2</title>
<path fill="none" stroke="midnightblue" d="M165.713,-48.9166C174.445,-49.9764 183.392,-51.0621 192.286,-52.1415"/>
<polygon fill="midnightblue" stroke="midnightblue" points="191.941,-55.6253 202.29,-53.3556 192.785,-48.6763 191.941,-55.6253"/>
</g>
<!-- Node3 -->
<g id="node3" class="node"><title>Node3</title>
<g id="a_node3"><a xlink:href="../../d9/db5/classengine_1_1_file_path_utility.html#ad8a72da93bd719a750bd549ed92a37d7" target="_top" xlink:title="engine.FilePathUtility.get\lFilePath">
<polygon fill="white" stroke="black" points="225,-0 225,-30 357,-30 357,-0 225,-0"/>
<text text-anchor="start" x="233" y="-18" font-family="Helvetica,sans-Serif" font-size="10.00">engine.FilePathUtility.get</text>
<text text-anchor="middle" x="291" y="-7" font-family="Helvetica,sans-Serif" font-size="10.00">FilePath</text>
</a>
</g>
</g>
<!-- Node1&#45;&gt;Node3 -->
<g id="edge2" class="edge"><title>Node1&#45;&gt;Node3</title>
<path fill="none" stroke="midnightblue" d="M165.713,-29.4801C181.838,-27.6014 198.692,-25.6378 214.598,-23.7847"/>
<polygon fill="midnightblue" stroke="midnightblue" points="215.368,-27.2187 224.896,-22.5849 214.558,-20.2658 215.368,-27.2187"/>
</g>
</g>
</svg>
