<?xml version="1.0" encoding="UTF-8" standalone="no"?>
<!DOCTYPE svg PUBLIC "-//W3C//DTD SVG 1.1//EN"
 "http://www.w3.org/Graphics/SVG/1.1/DTD/svg11.dtd">
<!-- Generated by graphviz version 2.36.0 (20140111.2315)
 -->
<!-- Title: engine.render.GameObjectRenderer.renderGameObjects Pages: 1 -->
<svg width="882pt" height="581pt"
 viewBox="0.00 0.00 882.00 580.52" xmlns="http://www.w3.org/2000/svg" xmlns:xlink="http://www.w3.org/1999/xlink">
<g id="graph0" class="graph" transform="scale(1 1) rotate(0) translate(4 576.516)">
<title>engine.render.GameObjectRenderer.renderGameObjects</title>
<polygon fill="white" stroke="none" points="-4,4 -4,-576.516 878,-576.516 878,4 -4,4"/>
<!-- Node1 -->
<g id="node1" class="node"><title>Node1</title>
<polygon fill="#bfbfbf" stroke="black" points="0,-221 0,-251 158,-251 158,-221 0,-221"/>
<text text-anchor="start" x="8" y="-239" font-family="Helvetica,sans-Serif" font-size="10.00">engine.render.GameObject</text>
<text text-anchor="middle" x="79" y="-228" font-family="Helvetica,sans-Serif" font-size="10.00">Renderer.renderGameObjects</text>
</g>
<!-- Node2 -->
<g id="node2" class="node"><title>Node2</title>
<g id="a_node2"><a xlink:href="../../df/de5/classengine_1_1render_1_1_game_object_renderer.html#a745cb65a5425a20a1b5063068ef1314a" target="_top" xlink:title="engine.render.GameObject\lRenderer.createAndAssignRenderedNode">
<polygon fill="white" stroke="black" points="194.5,-270 194.5,-300 407.5,-300 407.5,-270 194.5,-270"/>
<text text-anchor="start" x="202.5" y="-288" font-family="Helvetica,sans-Serif" font-size="10.00">engine.render.GameObject</text>
<text text-anchor="middle" x="301" y="-277" font-family="Helvetica,sans-Serif" font-size="10.00">Renderer.createAndAssignRenderedNode</text>
</a>
</g>
</g>
<!-- Node1&#45;&gt;Node2 -->
<g id="edge1" class="edge"><title>Node1&#45;&gt;Node2</title>
<path fill="none" stroke="midnightblue" d="M147.502,-251.035C171.259,-256.326 198.141,-262.313 222.646,-267.771"/>
<polygon fill="midnightblue" stroke="midnightblue" points="222.104,-271.236 232.625,-269.994 223.625,-264.403 222.104,-271.236"/>
</g>
<!-- Node21 -->
<g id="node21" class="node"><title>Node21</title>
<g id="a_node21"><a xlink:href="../../df/d84/classengine_1_1level_1_1_level.html#af2921158eda86e1f909575ee468eec5c" target="_top" xlink:title="engine.level.Level.getGame\lObjectIterator">
<polygon fill="white" stroke="black" points="226.5,-221 226.5,-251 375.5,-251 375.5,-221 226.5,-221"/>
<text text-anchor="start" x="234.5" y="-239" font-family="Helvetica,sans-Serif" font-size="10.00">engine.level.Level.getGame</text>
<text text-anchor="middle" x="301" y="-228" font-family="Helvetica,sans-Serif" font-size="10.00">ObjectIterator</text>
</a>
</g>
</g>
<!-- Node1&#45;&gt;Node21 -->
<g id="edge22" class="edge"><title>Node1&#45;&gt;Node21</title>
<path fill="none" stroke="midnightblue" d="M158.183,-236C177.027,-236 197.234,-236 216.319,-236"/>
<polygon fill="midnightblue" stroke="midnightblue" points="216.485,-239.5 226.485,-236 216.485,-232.5 216.485,-239.5"/>
</g>
<!-- Node23 -->
<g id="node23" class="node"><title>Node23</title>
<g id="a_node23"><a xlink:href="../../d0/d7f/classengine_1_1game_object_1_1_game_object.html#accd456b2eaab9c7056de825a28b066c8" target="_top" xlink:title="engine.gameObject.GameObject.get\lIdentifier">
<polygon fill="white" stroke="black" points="205,-172 205,-202 397,-202 397,-172 205,-172"/>
<text text-anchor="start" x="213" y="-190" font-family="Helvetica,sans-Serif" font-size="10.00">engine.gameObject.GameObject.get</text>
<text text-anchor="middle" x="301" y="-179" font-family="Helvetica,sans-Serif" font-size="10.00">Identifier</text>
</a>
</g>
</g>
<!-- Node1&#45;&gt;Node23 -->
<g id="edge24" class="edge"><title>Node1&#45;&gt;Node23</title>
<path fill="none" stroke="midnightblue" d="M147.502,-220.965C171.259,-215.674 198.141,-209.687 222.646,-204.229"/>
<polygon fill="midnightblue" stroke="midnightblue" points="223.625,-207.597 232.625,-202.006 222.104,-200.764 223.625,-207.597"/>
</g>
<!-- Node24 -->
<g id="node24" class="node"><title>Node24</title>
<g id="a_node24"><a xlink:href="../../d4/dac/classengine_1_1game_object_1_1_identifier.html#aa2630b5024b9595e43afe0bf53229433" target="_top" xlink:title="engine.gameObject.Identifier.get\lUniqueId">
<polygon fill="white" stroke="black" points="214.5,-123 214.5,-153 387.5,-153 387.5,-123 214.5,-123"/>
<text text-anchor="start" x="222.5" y="-141" font-family="Helvetica,sans-Serif" font-size="10.00">engine.gameObject.Identifier.get</text>
<text text-anchor="middle" x="301" y="-130" font-family="Helvetica,sans-Serif" font-size="10.00">UniqueId</text>
</a>
</g>
</g>
<!-- Node1&#45;&gt;Node24 -->
<g id="edge25" class="edge"><title>Node1&#45;&gt;Node24</title>
<path fill="none" stroke="midnightblue" d="M98.5908,-220.94C120.243,-204.141 157.694,-177.316 194,-162 199.052,-159.869 204.324,-157.912 209.7,-156.117"/>
<polygon fill="midnightblue" stroke="midnightblue" points="210.966,-159.388 219.463,-153.06 208.874,-152.708 210.966,-159.388"/>
</g>
<!-- Node25 -->
<g id="node25" class="node"><title>Node25</title>
<g id="a_node25"><a xlink:href="../../df/de5/classengine_1_1render_1_1_game_object_renderer.html#ad1dadb54349f33bce5bb60cd8d5cac64" target="_top" xlink:title="engine.render.GameObject\lRenderer.setBackGroundImage">
<polygon fill="white" stroke="black" points="218.5,-518 218.5,-548 383.5,-548 383.5,-518 218.5,-518"/>
<text text-anchor="start" x="226.5" y="-536" font-family="Helvetica,sans-Serif" font-size="10.00">engine.render.GameObject</text>
<text text-anchor="middle" x="301" y="-525" font-family="Helvetica,sans-Serif" font-size="10.00">Renderer.setBackGroundImage</text>
</a>
</g>
</g>
<!-- Node1&#45;&gt;Node25 -->
<g id="edge26" class="edge"><title>Node1&#45;&gt;Node25</title>
<path fill="none" stroke="midnightblue" d="M91.2123,-251.137C127.109,-299.597 239.377,-451.159 282.703,-509.649"/>
<polygon fill="midnightblue" stroke="midnightblue" points="280.046,-511.942 288.81,-517.894 285.67,-507.775 280.046,-511.942"/>
</g>
<!-- Node3 -->
<g id="node3" class="node"><title>Node3</title>
<g id="a_node3"><a xlink:href="../../df/de5/classengine_1_1render_1_1_game_object_renderer.html#a25493ea430dbd3c6094434ba60e98662" target="_top" xlink:title="engine.render.GameObject\lRenderer.createCollisionBody">
<polygon fill="white" stroke="black" points="467.5,-98 467.5,-128 622.5,-128 622.5,-98 467.5,-98"/>
<text text-anchor="start" x="475.5" y="-116" font-family="Helvetica,sans-Serif" font-size="10.00">engine.render.GameObject</text>
<text text-anchor="middle" x="545" y="-105" font-family="Helvetica,sans-Serif" font-size="10.00">Renderer.createCollisionBody</text>
</a>
</g>
</g>
<!-- Node2&#45;&gt;Node3 -->
<g id="edge2" class="edge"><title>Node2&#45;&gt;Node3</title>
<path fill="none" stroke="midnightblue" d="M394.842,-269.789C399.584,-267.012 404.021,-263.773 408,-260 449.332,-220.807 402.745,-176.274 444,-137 448.122,-133.076 452.768,-129.757 457.743,-126.953"/>
<polygon fill="midnightblue" stroke="midnightblue" points="459.551,-129.966 467.012,-122.444 456.489,-123.671 459.551,-129.966"/>
</g>
<!-- Node7 -->
<g id="node7" class="node"><title>Node7</title>
<g id="a_node7"><a xlink:href="../../df/de5/classengine_1_1render_1_1_game_object_renderer.html#a72580570f971246ef79428f21b6d25e9" target="_top" xlink:title="engine.render.GameObject\lRenderer.createImageAndView">
<polygon fill="white" stroke="black" points="463.5,-196 463.5,-226 626.5,-226 626.5,-196 463.5,-196"/>
<text text-anchor="start" x="471.5" y="-214" font-family="Helvetica,sans-Serif" font-size="10.00">engine.render.GameObject</text>
<text text-anchor="middle" x="545" y="-203" font-family="Helvetica,sans-Serif" font-size="10.00">Renderer.createImageAndView</text>
</a>
</g>
</g>
<!-- Node2&#45;&gt;Node7 -->
<g id="edge6" class="edge"><title>Node2&#45;&gt;Node7</title>
<path fill="none" stroke="midnightblue" d="M380.675,-269.965C390.06,-267.148 399.365,-263.849 408,-260 425.792,-252.069 426.223,-242.966 444,-235 448.666,-232.909 453.54,-230.985 458.517,-229.218"/>
<polygon fill="midnightblue" stroke="midnightblue" points="459.798,-232.481 468.187,-226.009 457.593,-225.837 459.798,-232.481"/>
</g>
<!-- Node12 -->
<g id="node12" class="node"><title>Node12</title>
<g id="a_node12"><a xlink:href="../../df/de5/classengine_1_1render_1_1_game_object_renderer.html#a1d5f0ad1a571faec3c1a364bccc4c038" target="_top" xlink:title="engine.render.GameObject\lRenderer.createLabel">
<polygon fill="white" stroke="black" points="472,-147 472,-177 618,-177 618,-147 472,-147"/>
<text text-anchor="start" x="480" y="-165" font-family="Helvetica,sans-Serif" font-size="10.00">engine.render.GameObject</text>
<text text-anchor="middle" x="545" y="-154" font-family="Helvetica,sans-Serif" font-size="10.00">Renderer.createLabel</text>
</a>
</g>
</g>
<!-- Node2&#45;&gt;Node12 -->
<g id="edge11" class="edge"><title>Node2&#45;&gt;Node12</title>
<path fill="none" stroke="midnightblue" d="M392.337,-269.885C397.914,-267.106 403.202,-263.839 408,-260 436.558,-237.15 415.487,-208.906 444,-186 449.471,-181.605 455.619,-177.994 462.108,-175.029"/>
<polygon fill="midnightblue" stroke="midnightblue" points="463.841,-178.105 471.818,-171.133 461.234,-171.609 463.841,-178.105"/>
</g>
<!-- Node14 -->
<g id="node14" class="node"><title>Node14</title>
<g id="a_node14"><a xlink:href="../../d0/d7f/classengine_1_1game_object_1_1_game_object.html#ae94fe532960bd29f64c2dc19ec0af798" target="_top" xlink:title="engine.gameObject.GameObject.getID">
<polygon fill="white" stroke="black" points="444,-59.5 444,-78.5 646,-78.5 646,-59.5 444,-59.5"/>
<text text-anchor="middle" x="545" y="-66.5" font-family="Helvetica,sans-Serif" font-size="10.00">engine.gameObject.GameObject.getID</text>
</a>
</g>
</g>
<!-- Node2&#45;&gt;Node14 -->
<g id="edge15" class="edge"><title>Node2&#45;&gt;Node14</title>
<path fill="none" stroke="midnightblue" d="M395.678,-269.852C400.149,-267.051 404.304,-263.791 408,-260 462.523,-204.08 388.264,-142.711 444,-88 445.301,-86.7234 446.659,-85.5188 448.067,-84.3825"/>
<polygon fill="midnightblue" stroke="midnightblue" points="450.312,-87.0901 456.644,-78.5953 446.397,-81.2875 450.312,-87.0901"/>
</g>
<!-- Node15 -->
<g id="node15" class="node"><title>Node15</title>
<g id="a_node15"><a xlink:href="../../d0/d7f/classengine_1_1game_object_1_1_game_object.html#a606c7293c2bfac0af1fb42143bf527f6" target="_top" xlink:title="engine.gameObject.GameObject.getX">
<polygon fill="white" stroke="black" points="446,-479.5 446,-498.5 644,-498.5 644,-479.5 446,-479.5"/>
<text text-anchor="middle" x="545" y="-486.5" font-family="Helvetica,sans-Serif" font-size="10.00">engine.gameObject.GameObject.getX</text>
</a>
</g>
</g>
<!-- Node2&#45;&gt;Node15 -->
<g id="edge16" class="edge"><title>Node2&#45;&gt;Node15</title>
<path fill="none" stroke="midnightblue" d="M308.866,-300.229C325.97,-336.275 374.186,-427.009 444,-470 447.415,-472.103 451.011,-473.982 454.728,-475.661"/>
<polygon fill="midnightblue" stroke="midnightblue" points="453.599,-478.979 464.184,-479.435 456.194,-472.478 453.599,-478.979"/>
</g>
<!-- Node16 -->
<g id="node16" class="node"><title>Node16</title>
<g id="a_node16"><a xlink:href="../../d0/d7f/classengine_1_1game_object_1_1_game_object.html#a1988806ef560c9384f3844d0666a9450" target="_top" xlink:title="engine.gameObject.GameObject.getY">
<polygon fill="white" stroke="black" points="446.5,-441.5 446.5,-460.5 643.5,-460.5 643.5,-441.5 446.5,-441.5"/>
<text text-anchor="middle" x="545" y="-448.5" font-family="Helvetica,sans-Serif" font-size="10.00">engine.gameObject.GameObject.getY</text>
</a>
</g>
</g>
<!-- Node2&#45;&gt;Node16 -->
<g id="edge17" class="edge"><title>Node2&#45;&gt;Node16</title>
<path fill="none" stroke="midnightblue" d="M312.029,-300.305C332.747,-330.583 383.436,-398.044 444,-431 449.131,-433.792 454.6,-436.196 460.235,-438.267"/>
<polygon fill="midnightblue" stroke="midnightblue" points="459.252,-441.628 469.845,-441.446 461.45,-434.982 459.252,-441.628"/>
</g>
<!-- Node17 -->
<g id="node17" class="node"><title>Node17</title>
<g id="a_node17"><a xlink:href="../../d2/d82/classengine_1_1render_1_1_rendered_node.html#ad73c81ad48b40faea3818c9a7bbfdcf0" target="_top" xlink:title="engine.render.RenderedNode.set\lCollisionBody">
<polygon fill="white" stroke="black" points="458,-392 458,-422 632,-422 632,-392 458,-392"/>
<text text-anchor="start" x="466" y="-410" font-family="Helvetica,sans-Serif" font-size="10.00">engine.render.RenderedNode.set</text>
<text text-anchor="middle" x="545" y="-399" font-family="Helvetica,sans-Serif" font-size="10.00">CollisionBody</text>
</a>
</g>
</g>
<!-- Node2&#45;&gt;Node17 -->
<g id="edge18" class="edge"><title>Node2&#45;&gt;Node17</title>
<path fill="none" stroke="midnightblue" d="M319.581,-300.105C345.249,-321.405 395.25,-360.105 444,-382 449.438,-384.442 455.154,-386.673 460.984,-388.704"/>
<polygon fill="midnightblue" stroke="midnightblue" points="460.28,-392.157 470.873,-391.939 462.456,-385.503 460.28,-392.157"/>
</g>
<!-- Node18 -->
<g id="node18" class="node"><title>Node18</title>
<g id="a_node18"><a xlink:href="../../d2/d82/classengine_1_1render_1_1_rendered_node.html#a520a8c03b505d10c69e010e603cadfdd" target="_top" xlink:title="engine.render.RenderedNode.set\lImageView">
<polygon fill="white" stroke="black" points="458,-343 458,-373 632,-373 632,-343 458,-343"/>
<text text-anchor="start" x="466" y="-361" font-family="Helvetica,sans-Serif" font-size="10.00">engine.render.RenderedNode.set</text>
<text text-anchor="middle" x="545" y="-350" font-family="Helvetica,sans-Serif" font-size="10.00">ImageView</text>
</a>
</g>
</g>
<!-- Node2&#45;&gt;Node18 -->
<g id="edge19" class="edge"><title>Node2&#45;&gt;Node18</title>
<path fill="none" stroke="midnightblue" d="M343.658,-300.074C371.808,-310.014 409.916,-322.997 444,-333 452.638,-335.535 461.742,-338.039 470.797,-340.427"/>
<polygon fill="midnightblue" stroke="midnightblue" points="470.018,-343.841 480.577,-342.968 471.778,-337.066 470.018,-343.841"/>
</g>
<!-- Node19 -->
<g id="node19" class="node"><title>Node19</title>
<g id="a_node19"><a xlink:href="../../d2/d82/classengine_1_1render_1_1_rendered_node.html#a312c663dd1144ff206ecfa1ea8c95a81" target="_top" xlink:title="engine.render.RenderedNode.set\lLabel">
<polygon fill="white" stroke="black" points="458,-294 458,-324 632,-324 632,-294 458,-294"/>
<text text-anchor="start" x="466" y="-312" font-family="Helvetica,sans-Serif" font-size="10.00">engine.render.RenderedNode.set</text>
<text text-anchor="middle" x="545" y="-301" font-family="Helvetica,sans-Serif" font-size="10.00">Label</text>
</a>
</g>
</g>
<!-- Node2&#45;&gt;Node19 -->
<g id="edge20" class="edge"><title>Node2&#45;&gt;Node19</title>
<path fill="none" stroke="midnightblue" d="M407.793,-295.492C420.939,-296.796 434.329,-298.124 447.329,-299.413"/>
<polygon fill="midnightblue" stroke="midnightblue" points="447.361,-302.933 457.658,-300.437 448.052,-295.967 447.361,-302.933"/>
</g>
<!-- Node20 -->
<g id="node20" class="node"><title>Node20</title>
<g id="a_node20"><a xlink:href="../../d0/d7f/classengine_1_1game_object_1_1_game_object.html#ab09d473d8c2afe8cefb2ce2481bc66fd" target="_top" xlink:title="engine.gameObject.GameObject.set\lRenderedNode">
<polygon fill="white" stroke="black" points="449.5,-245 449.5,-275 640.5,-275 640.5,-245 449.5,-245"/>
<text text-anchor="start" x="457.5" y="-263" font-family="Helvetica,sans-Serif" font-size="10.00">engine.gameObject.GameObject.set</text>
<text text-anchor="middle" x="545" y="-252" font-family="Helvetica,sans-Serif" font-size="10.00">RenderedNode</text>
</a>
</g>
</g>
<!-- Node2&#45;&gt;Node20 -->
<g id="edge21" class="edge"><title>Node2&#45;&gt;Node20</title>
<path fill="none" stroke="midnightblue" d="M407.793,-274.071C418.298,-272.986 428.959,-271.884 439.452,-270.8"/>
<polygon fill="midnightblue" stroke="midnightblue" points="439.863,-274.277 449.45,-269.768 439.144,-267.314 439.863,-274.277"/>
</g>
<!-- Node4 -->
<g id="node4" class="node"><title>Node4</title>
<g id="a_node4"><a xlink:href="../../d9/d9d/classengine_1_1game_object_1_1components_1_1_physics_body.html#aba2ed3bce8ee8e404907c88b144626fc" target="_top" xlink:title="engine.gameObject.components.\lPhysicsBody.getCollisionBodyHeight">
<polygon fill="white" stroke="black" points="684,-0 684,-30 872,-30 872,-0 684,-0"/>
<text text-anchor="start" x="692" y="-18" font-family="Helvetica,sans-Serif" font-size="10.00">engine.gameObject.components.</text>
<text text-anchor="middle" x="778" y="-7" font-family="Helvetica,sans-Serif" font-size="10.00">PhysicsBody.getCollisionBodyHeight</text>
</a>
</g>
</g>
<!-- Node3&#45;&gt;Node4 -->
<g id="edge3" class="edge"><title>Node3&#45;&gt;Node4</title>
<path fill="none" stroke="midnightblue" d="M622.646,-99.787C630.894,-96.6573 638.868,-92.7867 646,-88 668.439,-72.9411 659.58,-54.0866 682,-39 684.302,-37.4508 686.697,-36.0016 689.163,-34.6459"/>
<polygon fill="midnightblue" stroke="midnightblue" points="690.926,-37.6794 698.365,-30.1348 687.845,-31.394 690.926,-37.6794"/>
</g>
<!-- Node5 -->
<g id="node5" class="node"><title>Node5</title>
<g id="a_node5"><a xlink:href="../../d9/d9d/classengine_1_1game_object_1_1components_1_1_physics_body.html#ae64e43632570392c3118b3d00af853fc" target="_top" xlink:title="engine.gameObject.components.\lPhysicsBody.getCollisionBodyWidth">
<polygon fill="white" stroke="black" points="687,-98 687,-128 869,-128 869,-98 687,-98"/>
<text text-anchor="start" x="695" y="-116" font-family="Helvetica,sans-Serif" font-size="10.00">engine.gameObject.components.</text>
<text text-anchor="middle" x="778" y="-105" font-family="Helvetica,sans-Serif" font-size="10.00">PhysicsBody.getCollisionBodyWidth</text>
</a>
</g>
</g>
<!-- Node3&#45;&gt;Node5 -->
<g id="edge4" class="edge"><title>Node3&#45;&gt;Node5</title>
<path fill="none" stroke="midnightblue" d="M622.599,-113C639.996,-113 658.727,-113 676.936,-113"/>
<polygon fill="midnightblue" stroke="midnightblue" points="676.987,-116.5 686.987,-113 676.987,-109.5 676.987,-116.5"/>
</g>
<!-- Node6 -->
<g id="node6" class="node"><title>Node6</title>
<g id="a_node6"><a xlink:href="../../d0/d7f/classengine_1_1game_object_1_1_game_object.html#a60c5b6933aac9969491a3562a963c043" target="_top" xlink:title="engine.gameObject.GameObject.get\lPhysicsBody">
<polygon fill="white" stroke="black" points="682,-49 682,-79 874,-79 874,-49 682,-49"/>
<text text-anchor="start" x="690" y="-67" font-family="Helvetica,sans-Serif" font-size="10.00">engine.gameObject.GameObject.get</text>
<text text-anchor="middle" x="778" y="-56" font-family="Helvetica,sans-Serif" font-size="10.00">PhysicsBody</text>
</a>
</g>
</g>
<!-- Node3&#45;&gt;Node6 -->
<g id="edge5" class="edge"><title>Node3&#45;&gt;Node6</title>
<path fill="none" stroke="midnightblue" d="M616.877,-97.9654C642.044,-92.627 670.55,-86.5802 696.464,-81.0834"/>
<polygon fill="midnightblue" stroke="midnightblue" points="697.201,-84.5051 706.257,-79.0062 695.748,-77.6575 697.201,-84.5051"/>
</g>
<!-- Node8 -->
<g id="node8" class="node"><title>Node8</title>
<g id="a_node8"><a xlink:href="../../d0/d7f/classengine_1_1game_object_1_1_game_object.html#ae8b88e1cf489e935426e2e252defbae0" target="_top" xlink:title="engine.gameObject.GameObject.get\lCurrentImageName">
<polygon fill="white" stroke="black" points="682,-294 682,-324 874,-324 874,-294 682,-294"/>
<text text-anchor="start" x="690" y="-312" font-family="Helvetica,sans-Serif" font-size="10.00">engine.gameObject.GameObject.get</text>
<text text-anchor="middle" x="778" y="-301" font-family="Helvetica,sans-Serif" font-size="10.00">CurrentImageName</text>
</a>
</g>
</g>
<!-- Node7&#45;&gt;Node8 -->
<g id="edge7" class="edge"><title>Node7&#45;&gt;Node8</title>
<path fill="none" stroke="midnightblue" d="M626.734,-224.986C633.52,-227.746 640.051,-231.048 646,-235 668.51,-249.953 659.655,-268.803 682,-284 684.909,-285.978 687.965,-287.8 691.127,-289.477"/>
<polygon fill="midnightblue" stroke="midnightblue" points="689.747,-292.697 700.281,-293.834 692.755,-286.376 689.747,-292.697"/>
</g>
<!-- Node9 -->
<g id="node9" class="node"><title>Node9</title>
<g id="a_node9"><a xlink:href="../../d9/db5/classengine_1_1_file_path_utility.html#ad8a72da93bd719a750bd549ed92a37d7" target="_top" xlink:title="engine.FilePathUtility.get\lFilePath">
<polygon fill="white" stroke="black" points="712,-452 712,-482 844,-482 844,-452 712,-452"/>
<text text-anchor="start" x="720" y="-470" font-family="Helvetica,sans-Serif" font-size="10.00">engine.FilePathUtility.get</text>
<text text-anchor="middle" x="778" y="-459" font-family="Helvetica,sans-Serif" font-size="10.00">FilePath</text>
</a>
</g>
</g>
<!-- Node7&#45;&gt;Node9 -->
<g id="edge8" class="edge"><title>Node7&#45;&gt;Node9</title>
<path fill="none" stroke="midnightblue" d="M626.572,-222.597C633.634,-225.83 640.265,-229.897 646,-235 680.665,-265.845 660.393,-291.936 682,-333 703.833,-374.493 736.807,-417.96 757.606,-443.751"/>
<polygon fill="midnightblue" stroke="midnightblue" points="755.128,-446.252 764.159,-451.792 760.554,-441.829 755.128,-446.252"/>
</g>
<!-- Node10 -->
<g id="node10" class="node"><title>Node10</title>
<g id="a_node10"><a xlink:href="../../d0/d7f/classengine_1_1game_object_1_1_game_object.html#aaeb5730a3b51fe9cb3d817ea7172cfc2" target="_top" xlink:title="engine.gameObject.GameObject.get\lHeight">
<polygon fill="white" stroke="black" points="682,-245 682,-275 874,-275 874,-245 682,-245"/>
<text text-anchor="start" x="690" y="-263" font-family="Helvetica,sans-Serif" font-size="10.00">engine.gameObject.GameObject.get</text>
<text text-anchor="middle" x="778" y="-252" font-family="Helvetica,sans-Serif" font-size="10.00">Height</text>
</a>
</g>
</g>
<!-- Node7&#45;&gt;Node10 -->
<g id="edge9" class="edge"><title>Node7&#45;&gt;Node10</title>
<path fill="none" stroke="midnightblue" d="M616.877,-226.035C642.044,-231.373 670.55,-237.42 696.464,-242.917"/>
<polygon fill="midnightblue" stroke="midnightblue" points="695.748,-246.343 706.257,-244.994 697.201,-239.495 695.748,-246.343"/>
</g>
<!-- Node11 -->
<g id="node11" class="node"><title>Node11</title>
<g id="a_node11"><a xlink:href="../../d0/d7f/classengine_1_1game_object_1_1_game_object.html#a31aa2c854220621b49fc5575b50b9342" target="_top" xlink:title="engine.gameObject.GameObject.get\lWidth">
<polygon fill="white" stroke="black" points="682,-196 682,-226 874,-226 874,-196 682,-196"/>
<text text-anchor="start" x="690" y="-214" font-family="Helvetica,sans-Serif" font-size="10.00">engine.gameObject.GameObject.get</text>
<text text-anchor="middle" x="778" y="-203" font-family="Helvetica,sans-Serif" font-size="10.00">Width</text>
</a>
</g>
</g>
<!-- Node7&#45;&gt;Node11 -->
<g id="edge10" class="edge"><title>Node7&#45;&gt;Node11</title>
<path fill="none" stroke="midnightblue" d="M626.793,-211C641.275,-211 656.56,-211 671.614,-211"/>
<polygon fill="midnightblue" stroke="midnightblue" points="671.986,-214.5 681.986,-211 671.986,-207.5 671.986,-214.5"/>
</g>
<!-- Node12&#45;&gt;Node10 -->
<g id="edge12" class="edge"><title>Node12&#45;&gt;Node10</title>
<path fill="none" stroke="midnightblue" d="M618.228,-172.839C628.033,-176.131 637.597,-180.418 646,-186 668.51,-200.953 659.655,-219.803 682,-235 684.909,-236.978 687.965,-238.8 691.127,-240.477"/>
<polygon fill="midnightblue" stroke="midnightblue" points="689.747,-243.697 700.281,-244.834 692.755,-237.376 689.747,-243.697"/>
</g>
<!-- Node12&#45;&gt;Node11 -->
<g id="edge14" class="edge"><title>Node12&#45;&gt;Node11</title>
<path fill="none" stroke="midnightblue" d="M616.877,-177.035C642.044,-182.373 670.55,-188.42 696.464,-193.917"/>
<polygon fill="midnightblue" stroke="midnightblue" points="695.748,-197.343 706.257,-195.994 697.201,-190.495 695.748,-197.343"/>
</g>
<!-- Node13 -->
<g id="node13" class="node"><title>Node13</title>
<g id="a_node13"><a xlink:href="../../d0/d7f/classengine_1_1game_object_1_1_game_object.html#a5c379828f3bb19a91935f965c48a91a5" target="_top" xlink:title="engine.gameObject.GameObject.get\lLabel">
<polygon fill="white" stroke="black" points="682,-147 682,-177 874,-177 874,-147 682,-147"/>
<text text-anchor="start" x="690" y="-165" font-family="Helvetica,sans-Serif" font-size="10.00">engine.gameObject.GameObject.get</text>
<text text-anchor="middle" x="778" y="-154" font-family="Helvetica,sans-Serif" font-size="10.00">Label</text>
</a>
</g>
</g>
<!-- Node12&#45;&gt;Node13 -->
<g id="edge13" class="edge"><title>Node12&#45;&gt;Node13</title>
<path fill="none" stroke="midnightblue" d="M618.14,-162C635.117,-162 653.557,-162 671.661,-162"/>
<polygon fill="midnightblue" stroke="midnightblue" points="671.673,-165.5 681.673,-162 671.673,-158.5 671.673,-165.5"/>
</g>
<!-- Node22 -->
<g id="node22" class="node"><title>Node22</title>
<g id="a_node22"><a xlink:href="../../d4/d3b/classauthoring_1_1model_1_1collections_1_1_general_collection.html#a79482ff667a22bb0d5b702c03261fe8d" target="_top" xlink:title="authoring.model.collections.\lGeneralCollection.iterator">
<polygon fill="white" stroke="black" points="469,-10 469,-40 621,-40 621,-10 469,-10"/>
<text text-anchor="start" x="477" y="-28" font-family="Helvetica,sans-Serif" font-size="10.00">authoring.model.collections.</text>
<text text-anchor="middle" x="545" y="-17" font-family="Helvetica,sans-Serif" font-size="10.00">GeneralCollection.iterator</text>
</a>
</g>
</g>
<!-- Node21&#45;&gt;Node22 -->
<g id="edge23" class="edge"><title>Node21&#45;&gt;Node22</title>
<path fill="none" stroke="midnightblue" d="M375.728,-229.884C387.761,-225.926 399.161,-219.942 408,-211 459.544,-158.852 392.805,-102.491 444,-50 448.51,-45.376 453.736,-41.5589 459.386,-38.4131"/>
<polygon fill="midnightblue" stroke="midnightblue" points="461.073,-41.4859 468.573,-34.0028 458.044,-35.1753 461.073,-41.4859"/>
</g>
<!-- Node25&#45;&gt;Node9 -->
<g id="edge27" class="edge"><title>Node25&#45;&gt;Node9</title>
<path fill="none" stroke="midnightblue" d="M353.472,-548.016C421.931,-565.439 545.942,-588.059 646,-557 688.617,-543.771 729.668,-511.34 754.124,-489.247"/>
<polygon fill="midnightblue" stroke="midnightblue" points="756.789,-491.55 761.76,-482.193 752.04,-486.408 756.789,-491.55"/>
</g>
<!-- Node26 -->
<g id="node26" class="node"><title>Node26</title>
<g id="a_node26"><a xlink:href="../../df/d84/classengine_1_1level_1_1_level.html#a5dc36c31fcc8e0b5cbe2a942ec101fdb" target="_top" xlink:title="engine.level.Level.getBackground\lImage">
<polygon fill="white" stroke="black" points="456.5,-518 456.5,-548 633.5,-548 633.5,-518 456.5,-518"/>
<text text-anchor="start" x="464.5" y="-536" font-family="Helvetica,sans-Serif" font-size="10.00">engine.level.Level.getBackground</text>
<text text-anchor="middle" x="545" y="-525" font-family="Helvetica,sans-Serif" font-size="10.00">Image</text>
</a>
</g>
</g>
<!-- Node25&#45;&gt;Node26 -->
<g id="edge28" class="edge"><title>Node25&#45;&gt;Node26</title>
<path fill="none" stroke="midnightblue" d="M383.593,-533C403.639,-533 425.306,-533 446.036,-533"/>
<polygon fill="midnightblue" stroke="midnightblue" points="446.126,-536.5 456.126,-533 446.126,-529.5 446.126,-536.5"/>
</g>
</g>
</svg>
