<?xml version="1.0" encoding="UTF-8" standalone="no"?>
<!DOCTYPE svg PUBLIC "-//W3C//DTD SVG 1.1//EN"
 "http://www.w3.org/Graphics/SVG/1.1/DTD/svg11.dtd">
<!-- Generated by graphviz version 2.36.0 (20140111.2315)
 -->
<!-- Title: engine.render.GameObjectRenderer.createCollisionBody Pages: 1 -->
<svg width="1230pt" height="234pt"
 viewBox="0.00 0.00 1230.00 234.00" xmlns="http://www.w3.org/2000/svg" xmlns:xlink="http://www.w3.org/1999/xlink">
<g id="graph0" class="graph" transform="scale(1 1) rotate(0) translate(4 230)">
<title>engine.render.GameObjectRenderer.createCollisionBody</title>
<polygon fill="white" stroke="none" points="-4,4 -4,-230 1226,-230 1226,4 -4,4"/>
<!-- Node1 -->
<g id="node1" class="node"><title>Node1</title>
<polygon fill="#bfbfbf" stroke="black" points="0.5,-98 0.5,-128 155.5,-128 155.5,-98 0.5,-98"/>
<text text-anchor="start" x="8.5" y="-116" font-family="Helvetica,sans-Serif" font-size="10.00">engine.render.GameObject</text>
<text text-anchor="middle" x="78" y="-105" font-family="Helvetica,sans-Serif" font-size="10.00">Renderer.createCollisionBody</text>
</g>
<!-- Node2 -->
<g id="node2" class="node"><title>Node2</title>
<g id="a_node2"><a xlink:href="../../df/de5/classengine_1_1render_1_1_game_object_renderer.html#a745cb65a5425a20a1b5063068ef1314a" target="_top" xlink:title="engine.render.GameObject\lRenderer.createAndAssignRenderedNode">
<polygon fill="white" stroke="black" points="192.5,-98 192.5,-128 405.5,-128 405.5,-98 192.5,-98"/>
<text text-anchor="start" x="200.5" y="-116" font-family="Helvetica,sans-Serif" font-size="10.00">engine.render.GameObject</text>
<text text-anchor="middle" x="299" y="-105" font-family="Helvetica,sans-Serif" font-size="10.00">Renderer.createAndAssignRenderedNode</text>
</a>
</g>
</g>
<!-- Node1&#45;&gt;Node2 -->
<g id="edge1" class="edge"><title>Node1&#45;&gt;Node2</title>
<path fill="none" stroke="midnightblue" d="M165.707,-113C174.411,-113 183.316,-113 192.189,-113"/>
<polygon fill="midnightblue" stroke="midnightblue" points="165.596,-109.5 155.596,-113 165.596,-116.5 165.596,-109.5"/>
</g>
<!-- Node3 -->
<g id="node3" class="node"><title>Node3</title>
<g id="a_node3"><a xlink:href="../../d3/dbb/classengine_1_1actions_1_1render_1_1_paint_canvas.html#a3f4cb25dfb09aa686debf838e806b010" target="_top" xlink:title="engine.actions.render.Paint\lCanvas.applyRender">
<polygon fill="white" stroke="black" points="458,-196 458,-226 604,-226 604,-196 458,-196"/>
<text text-anchor="start" x="466" y="-214" font-family="Helvetica,sans-Serif" font-size="10.00">engine.actions.render.Paint</text>
<text text-anchor="middle" x="531" y="-203" font-family="Helvetica,sans-Serif" font-size="10.00">Canvas.applyRender</text>
</a>
</g>
</g>
<!-- Node2&#45;&gt;Node3 -->
<g id="edge2" class="edge"><title>Node2&#45;&gt;Node3</title>
<path fill="none" stroke="midnightblue" d="M334.495,-133.187C362.709,-149.092 404.007,-171.009 442,-186 451.16,-189.614 461.044,-192.944 470.766,-195.916"/>
<polygon fill="midnightblue" stroke="midnightblue" points="335.875,-129.945 325.452,-128.043 332.413,-136.03 335.875,-129.945"/>
</g>
<!-- Node4 -->
<g id="node4" class="node"><title>Node4</title>
<g id="a_node4"><a xlink:href="../../dd/d57/classengine_1_1actions_1_1_make_new_object_from_location_action.html#a2ebd225d5e10817ac79f4044867afa98" target="_top" xlink:title="engine.actions.MakeNewObject\lFromLocationAction.execute">
<polygon fill="white" stroke="black" points="448,-147 448,-177 614,-177 614,-147 448,-147"/>
<text text-anchor="start" x="456" y="-165" font-family="Helvetica,sans-Serif" font-size="10.00">engine.actions.MakeNewObject</text>
<text text-anchor="middle" x="531" y="-154" font-family="Helvetica,sans-Serif" font-size="10.00">FromLocationAction.execute</text>
</a>
</g>
</g>
<!-- Node2&#45;&gt;Node4 -->
<g id="edge3" class="edge"><title>Node2&#45;&gt;Node4</title>
<path fill="none" stroke="midnightblue" d="M380.666,-130.185C406.385,-135.665 434.627,-141.682 459.563,-146.994"/>
<polygon fill="midnightblue" stroke="midnightblue" points="381.08,-126.695 370.571,-128.035 379.622,-133.542 381.08,-126.695"/>
</g>
<!-- Node5 -->
<g id="node5" class="node"><title>Node5</title>
<g id="a_node5"><a xlink:href="../../db/d61/classengine_1_1actions_1_1_make_new_object_from_object_action.html#a01ffb165d6169f7b0a22733e2b6c61a9" target="_top" xlink:title="engine.actions.MakeNewObject\lFromObjectAction.execute">
<polygon fill="white" stroke="black" points="448,-98 448,-128 614,-128 614,-98 448,-98"/>
<text text-anchor="start" x="456" y="-116" font-family="Helvetica,sans-Serif" font-size="10.00">engine.actions.MakeNewObject</text>
<text text-anchor="middle" x="531" y="-105" font-family="Helvetica,sans-Serif" font-size="10.00">FromObjectAction.execute</text>
</a>
</g>
</g>
<!-- Node2&#45;&gt;Node5 -->
<g id="edge4" class="edge"><title>Node2&#45;&gt;Node5</title>
<path fill="none" stroke="midnightblue" d="M415.893,-113C426.664,-113 437.425,-113 447.797,-113"/>
<polygon fill="midnightblue" stroke="midnightblue" points="415.576,-109.5 405.576,-113 415.576,-116.5 415.576,-109.5"/>
</g>
<!-- Node6 -->
<g id="node6" class="node"><title>Node6</title>
<g id="a_node6"><a xlink:href="../../da/d16/classengine_1_1actions_1_1_make_new_random_object_action.html#a82ccd5604bd05170e416e41b32020f00" target="_top" xlink:title="engine.actions.MakeNewRandom\lObjectAction.makeRandomObject">
<polygon fill="white" stroke="black" points="442,-49 442,-79 620,-79 620,-49 442,-49"/>
<text text-anchor="start" x="450" y="-67" font-family="Helvetica,sans-Serif" font-size="10.00">engine.actions.MakeNewRandom</text>
<text text-anchor="middle" x="531" y="-56" font-family="Helvetica,sans-Serif" font-size="10.00">ObjectAction.makeRandomObject</text>
</a>
</g>
</g>
<!-- Node2&#45;&gt;Node6 -->
<g id="edge5" class="edge"><title>Node2&#45;&gt;Node6</title>
<path fill="none" stroke="midnightblue" d="M380.666,-95.8146C406.385,-90.3353 434.627,-84.3185 459.563,-79.0062"/>
<polygon fill="midnightblue" stroke="midnightblue" points="379.622,-92.4585 370.571,-97.9654 381.08,-99.3048 379.622,-92.4585"/>
</g>
<!-- Node8 -->
<g id="node8" class="node"><title>Node8</title>
<g id="a_node8"><a xlink:href="../../df/de5/classengine_1_1render_1_1_game_object_renderer.html#a610545384a337edcd3bffb9f0c6ecf18" target="_top" xlink:title="engine.render.GameObject\lRenderer.renderGameObjects">
<polygon fill="white" stroke="black" points="452,-0 452,-30 610,-30 610,-0 452,-0"/>
<text text-anchor="start" x="460" y="-18" font-family="Helvetica,sans-Serif" font-size="10.00">engine.render.GameObject</text>
<text text-anchor="middle" x="531" y="-7" font-family="Helvetica,sans-Serif" font-size="10.00">Renderer.renderGameObjects</text>
</a>
</g>
</g>
<!-- Node2&#45;&gt;Node8 -->
<g id="edge7" class="edge"><title>Node2&#45;&gt;Node8</title>
<path fill="none" stroke="midnightblue" d="M334.495,-92.8128C362.709,-76.9084 404.007,-54.9911 442,-40 451.16,-36.3857 461.044,-33.0558 470.766,-30.0844"/>
<polygon fill="midnightblue" stroke="midnightblue" points="332.413,-89.9703 325.452,-97.9573 335.875,-96.0546 332.413,-89.9703"/>
</g>
<!-- Node7 -->
<g id="node7" class="node"><title>Node7</title>
<g id="a_node7"><a xlink:href="../../da/d16/classengine_1_1actions_1_1_make_new_random_object_action.html#aa831c4b818ed75f812bf8ba0d453c942" target="_top" xlink:title="engine.actions.MakeNewRandom\lObjectAction.execute">
<polygon fill="white" stroke="black" points="660.5,-49 660.5,-79 835.5,-79 835.5,-49 660.5,-49"/>
<text text-anchor="start" x="668.5" y="-67" font-family="Helvetica,sans-Serif" font-size="10.00">engine.actions.MakeNewRandom</text>
<text text-anchor="middle" x="748" y="-56" font-family="Helvetica,sans-Serif" font-size="10.00">ObjectAction.execute</text>
</a>
</g>
</g>
<!-- Node6&#45;&gt;Node7 -->
<g id="edge6" class="edge"><title>Node6&#45;&gt;Node7</title>
<path fill="none" stroke="midnightblue" d="M630.135,-64C640.252,-64 650.48,-64 660.458,-64"/>
<polygon fill="midnightblue" stroke="midnightblue" points="630.069,-60.5001 620.069,-64 630.069,-67.5001 630.069,-60.5001"/>
</g>
<!-- Node9 -->
<g id="node9" class="node"><title>Node9</title>
<g id="a_node9"><a xlink:href="../../df/d67/classengine_1_1level_1_1_level_manager.html#a523599892453015eed0f1b506979af8a" target="_top" xlink:title="engine.level.LevelManager.initialize\lCurrentLevel">
<polygon fill="white" stroke="black" points="656,-0 656,-30 840,-30 840,-0 656,-0"/>
<text text-anchor="start" x="664" y="-18" font-family="Helvetica,sans-Serif" font-size="10.00">engine.level.LevelManager.initialize</text>
<text text-anchor="middle" x="748" y="-7" font-family="Helvetica,sans-Serif" font-size="10.00">CurrentLevel</text>
</a>
</g>
</g>
<!-- Node8&#45;&gt;Node9 -->
<g id="edge8" class="edge"><title>Node8&#45;&gt;Node9</title>
<path fill="none" stroke="midnightblue" d="M620.374,-15C632.027,-15 643.99,-15 655.69,-15"/>
<polygon fill="midnightblue" stroke="midnightblue" points="620.228,-11.5001 610.228,-15 620.228,-18.5001 620.228,-11.5001"/>
</g>
<!-- Node10 -->
<g id="node10" class="node"><title>Node10</title>
<g id="a_node10"><a xlink:href="../../df/d67/classengine_1_1level_1_1_level_manager.html#a1d0f314bbf304bf86067ab87b832d2e0" target="_top" xlink:title="engine.level.LevelManager.find\lAndSetStartLevel">
<polygon fill="white" stroke="black" points="876.5,-0 876.5,-30 1039.5,-30 1039.5,-0 876.5,-0"/>
<text text-anchor="start" x="884.5" y="-18" font-family="Helvetica,sans-Serif" font-size="10.00">engine.level.LevelManager.find</text>
<text text-anchor="middle" x="958" y="-7" font-family="Helvetica,sans-Serif" font-size="10.00">AndSetStartLevel</text>
</a>
</g>
</g>
<!-- Node9&#45;&gt;Node10 -->
<g id="edge9" class="edge"><title>Node9&#45;&gt;Node10</title>
<path fill="none" stroke="midnightblue" d="M850.403,-15C859.089,-15 867.799,-15 876.291,-15"/>
<polygon fill="midnightblue" stroke="midnightblue" points="850.232,-11.5001 840.232,-15 850.232,-18.5001 850.232,-11.5001"/>
</g>
<!-- Node11 -->
<g id="node11" class="node"><title>Node11</title>
<g id="a_node11"><a xlink:href="../../df/d67/classengine_1_1level_1_1_level_manager.html#a0ea71eb9396652850db0d2da44c4ca81" target="_top" xlink:title="engine.level.LevelManager.\lLevelManager">
<polygon fill="white" stroke="black" points="1076,-0 1076,-30 1222,-30 1222,-0 1076,-0"/>
<text text-anchor="start" x="1084" y="-18" font-family="Helvetica,sans-Serif" font-size="10.00">engine.level.LevelManager.</text>
<text text-anchor="middle" x="1149" y="-7" font-family="Helvetica,sans-Serif" font-size="10.00">LevelManager</text>
</a>
</g>
</g>
<!-- Node10&#45;&gt;Node11 -->
<g id="edge10" class="edge"><title>Node10&#45;&gt;Node11</title>
<path fill="none" stroke="midnightblue" d="M1049.91,-15C1058.65,-15 1067.42,-15 1075.93,-15"/>
<polygon fill="midnightblue" stroke="midnightblue" points="1049.7,-11.5001 1039.7,-15 1049.7,-18.5001 1049.7,-11.5001"/>
</g>
</g>
</svg>
