<?xml version="1.0" encoding="UTF-8" standalone="no"?>
<!DOCTYPE svg PUBLIC "-//W3C//DTD SVG 1.1//EN"
 "http://www.w3.org/Graphics/SVG/1.1/DTD/svg11.dtd">
<!-- Generated by graphviz version 2.36.0 (20140111.2315)
 -->
<!-- Title: engine.FilePathUtility.getFilePath Pages: 1 -->
<svg width="1440pt" height="283pt"
 viewBox="0.00 0.00 1440.00 283.00" xmlns="http://www.w3.org/2000/svg" xmlns:xlink="http://www.w3.org/1999/xlink">
<g id="graph0" class="graph" transform="scale(1 1) rotate(0) translate(4 279)">
<title>engine.FilePathUtility.getFilePath</title>
<polygon fill="white" stroke="none" points="-4,4 -4,-279 1436,-279 1436,4 -4,4"/>
<!-- Node1 -->
<g id="node1" class="node"><title>Node1</title>
<polygon fill="#bfbfbf" stroke="black" points="0,-73 0,-103 132,-103 132,-73 0,-73"/>
<text text-anchor="start" x="8" y="-91" font-family="Helvetica,sans-Serif" font-size="10.00">engine.FilePathUtility.get</text>
<text text-anchor="middle" x="66" y="-80" font-family="Helvetica,sans-Serif" font-size="10.00">FilePath</text>
</g>
<!-- Node2 -->
<g id="node2" class="node"><title>Node2</title>
<g id="a_node2"><a xlink:href="../../df/de5/classengine_1_1render_1_1_game_object_renderer.html#a72580570f971246ef79428f21b6d25e9" target="_top" xlink:title="engine.render.GameObject\lRenderer.createImageAndView">
<polygon fill="white" stroke="black" points="171.5,-146 171.5,-176 334.5,-176 334.5,-146 171.5,-146"/>
<text text-anchor="start" x="179.5" y="-164" font-family="Helvetica,sans-Serif" font-size="10.00">engine.render.GameObject</text>
<text text-anchor="middle" x="253" y="-153" font-family="Helvetica,sans-Serif" font-size="10.00">Renderer.createImageAndView</text>
</a>
</g>
</g>
<!-- Node1&#45;&gt;Node2 -->
<g id="edge1" class="edge"><title>Node1&#45;&gt;Node2</title>
<path fill="none" stroke="midnightblue" d="M105.634,-107.477C124.231,-116.464 147.004,-126.908 168,-135 178.114,-138.898 189.079,-142.633 199.645,-145.997"/>
<polygon fill="midnightblue" stroke="midnightblue" points="107.115,-104.305 96.5934,-103.065 104.045,-110.596 107.115,-104.305"/>
</g>
<!-- Node15 -->
<g id="node15" class="node"><title>Node15</title>
<g id="a_node15"><a xlink:href="../../da/d90/classengine_1_1sound_1_1_sound_utility.html#a235ca79c125952cfc650d8bc8f2effb0" target="_top" xlink:title="engine.sound.SoundUtility.make\lAudioClip">
<polygon fill="white" stroke="black" points="168,-96 168,-126 338,-126 338,-96 168,-96"/>
<text text-anchor="start" x="176" y="-114" font-family="Helvetica,sans-Serif" font-size="10.00">engine.sound.SoundUtility.make</text>
<text text-anchor="middle" x="253" y="-103" font-family="Helvetica,sans-Serif" font-size="10.00">AudioClip</text>
</a>
</g>
</g>
<!-- Node1&#45;&gt;Node15 -->
<g id="edge14" class="edge"><title>Node1&#45;&gt;Node15</title>
<path fill="none" stroke="midnightblue" d="M142.374,-97.3708C150.791,-98.4173 159.404,-99.4881 167.921,-100.547"/>
<polygon fill="midnightblue" stroke="midnightblue" points="142.58,-93.8695 132.224,-96.1089 141.716,-100.816 142.58,-93.8695"/>
</g>
<!-- Node17 -->
<g id="node17" class="node"><title>Node17</title>
<g id="a_node17"><a xlink:href="../../da/d90/classengine_1_1sound_1_1_sound_utility.html#adb8f89d8b00a32d8777dda7406f24a72" target="_top" xlink:title="engine.sound.SoundUtility.make\lMediaPlayer">
<polygon fill="white" stroke="black" points="168,-4 168,-34 338,-34 338,-4 168,-4"/>
<text text-anchor="start" x="176" y="-22" font-family="Helvetica,sans-Serif" font-size="10.00">engine.sound.SoundUtility.make</text>
<text text-anchor="middle" x="253" y="-11" font-family="Helvetica,sans-Serif" font-size="10.00">MediaPlayer</text>
</a>
</g>
</g>
<!-- Node1&#45;&gt;Node17 -->
<g id="edge16" class="edge"><title>Node1&#45;&gt;Node17</title>
<path fill="none" stroke="midnightblue" d="M117.326,-69.2299C146.904,-58.1978 183.804,-44.4352 211.496,-34.107"/>
<polygon fill="midnightblue" stroke="midnightblue" points="115.745,-66.0837 107.599,-72.8577 118.192,-72.6424 115.745,-66.0837"/>
</g>
<!-- Node21 -->
<g id="node21" class="node"><title>Node21</title>
<g id="a_node21"><a xlink:href="../../df/de5/classengine_1_1render_1_1_game_object_renderer.html#ad1dadb54349f33bce5bb60cd8d5cac64" target="_top" xlink:title="engine.render.GameObject\lRenderer.setBackGroundImage">
<polygon fill="white" stroke="black" points="398.5,-49 398.5,-79 563.5,-79 563.5,-49 398.5,-49"/>
<text text-anchor="start" x="406.5" y="-67" font-family="Helvetica,sans-Serif" font-size="10.00">engine.render.GameObject</text>
<text text-anchor="middle" x="481" y="-56" font-family="Helvetica,sans-Serif" font-size="10.00">Renderer.setBackGroundImage</text>
</a>
</g>
</g>
<!-- Node1&#45;&gt;Node21 -->
<g id="edge20" class="edge"><title>Node1&#45;&gt;Node21</title>
<path fill="none" stroke="midnightblue" d="M142.845,-83.5926C215.202,-79.3878 323.881,-73.0723 398.164,-68.7556"/>
<polygon fill="midnightblue" stroke="midnightblue" points="142.221,-80.1228 132.441,-84.1971 142.627,-87.111 142.221,-80.1228"/>
</g>
<!-- Node3 -->
<g id="node3" class="node"><title>Node3</title>
<g id="a_node3"><a xlink:href="../../df/de5/classengine_1_1render_1_1_game_object_renderer.html#a745cb65a5425a20a1b5063068ef1314a" target="_top" xlink:title="engine.render.GameObject\lRenderer.createAndAssignRenderedNode">
<polygon fill="white" stroke="black" points="374.5,-147 374.5,-177 587.5,-177 587.5,-147 374.5,-147"/>
<text text-anchor="start" x="382.5" y="-165" font-family="Helvetica,sans-Serif" font-size="10.00">engine.render.GameObject</text>
<text text-anchor="middle" x="481" y="-154" font-family="Helvetica,sans-Serif" font-size="10.00">Renderer.createAndAssignRenderedNode</text>
</a>
</g>
</g>
<!-- Node2&#45;&gt;Node3 -->
<g id="edge2" class="edge"><title>Node2&#45;&gt;Node3</title>
<path fill="none" stroke="midnightblue" d="M344.645,-161.401C354.342,-161.444 364.269,-161.488 374.123,-161.532"/>
<polygon fill="midnightblue" stroke="midnightblue" points="344.649,-157.901 334.634,-161.357 344.618,-164.901 344.649,-157.901"/>
</g>
<!-- Node4 -->
<g id="node4" class="node"><title>Node4</title>
<g id="a_node4"><a xlink:href="../../dd/d57/classengine_1_1actions_1_1_make_new_object_from_location_action.html#a2ebd225d5e10817ac79f4044867afa98" target="_top" xlink:title="engine.actions.MakeNewObject\lFromLocationAction.execute">
<polygon fill="white" stroke="black" points="632,-147 632,-177 798,-177 798,-147 632,-147"/>
<text text-anchor="start" x="640" y="-165" font-family="Helvetica,sans-Serif" font-size="10.00">engine.actions.MakeNewObject</text>
<text text-anchor="middle" x="715" y="-154" font-family="Helvetica,sans-Serif" font-size="10.00">FromLocationAction.execute</text>
</a>
</g>
</g>
<!-- Node3&#45;&gt;Node4 -->
<g id="edge3" class="edge"><title>Node3&#45;&gt;Node4</title>
<path fill="none" stroke="midnightblue" d="M597.912,-162C609.413,-162 620.915,-162 631.966,-162"/>
<polygon fill="midnightblue" stroke="midnightblue" points="597.816,-158.5 587.816,-162 597.816,-165.5 597.816,-158.5"/>
</g>
<!-- Node5 -->
<g id="node5" class="node"><title>Node5</title>
<g id="a_node5"><a xlink:href="../../db/d61/classengine_1_1actions_1_1_make_new_object_from_object_action.html#a01ffb165d6169f7b0a22733e2b6c61a9" target="_top" xlink:title="engine.actions.MakeNewObject\lFromObjectAction.execute">
<polygon fill="white" stroke="black" points="632,-98 632,-128 798,-128 798,-98 632,-98"/>
<text text-anchor="start" x="640" y="-116" font-family="Helvetica,sans-Serif" font-size="10.00">engine.actions.MakeNewObject</text>
<text text-anchor="middle" x="715" y="-105" font-family="Helvetica,sans-Serif" font-size="10.00">FromObjectAction.execute</text>
</a>
</g>
</g>
<!-- Node3&#45;&gt;Node5 -->
<g id="edge4" class="edge"><title>Node3&#45;&gt;Node5</title>
<path fill="none" stroke="midnightblue" d="M563.023,-144.887C589.058,-139.389 617.687,-133.342 642.95,-128.006"/>
<polygon fill="midnightblue" stroke="midnightblue" points="562.245,-141.474 553.184,-146.965 563.692,-148.323 562.245,-141.474"/>
</g>
<!-- Node6 -->
<g id="node6" class="node"><title>Node6</title>
<g id="a_node6"><a xlink:href="../../da/d16/classengine_1_1actions_1_1_make_new_random_object_action.html#a82ccd5604bd05170e416e41b32020f00" target="_top" xlink:title="engine.actions.MakeNewRandom\lObjectAction.makeRandomObject">
<polygon fill="white" stroke="black" points="626,-245 626,-275 804,-275 804,-245 626,-245"/>
<text text-anchor="start" x="634" y="-263" font-family="Helvetica,sans-Serif" font-size="10.00">engine.actions.MakeNewRandom</text>
<text text-anchor="middle" x="715" y="-252" font-family="Helvetica,sans-Serif" font-size="10.00">ObjectAction.makeRandomObject</text>
</a>
</g>
</g>
<!-- Node3&#45;&gt;Node6 -->
<g id="edge5" class="edge"><title>Node3&#45;&gt;Node6</title>
<path fill="none" stroke="midnightblue" d="M516.471,-182.247C544.671,-198.186 585.964,-220.12 624,-235 633.363,-238.663 643.47,-242.018 653.411,-245"/>
<polygon fill="midnightblue" stroke="midnightblue" points="517.854,-179.006 507.434,-177.091 514.385,-185.086 517.854,-179.006"/>
</g>
<!-- Node8 -->
<g id="node8" class="node"><title>Node8</title>
<g id="a_node8"><a xlink:href="../../d3/dbb/classengine_1_1actions_1_1render_1_1_paint_canvas.html#a3f4cb25dfb09aa686debf838e806b010" target="_top" xlink:title="engine.actions.render.Paint\lCanvas.applyRender">
<polygon fill="white" stroke="black" points="642,-196 642,-226 788,-226 788,-196 642,-196"/>
<text text-anchor="start" x="650" y="-214" font-family="Helvetica,sans-Serif" font-size="10.00">engine.actions.render.Paint</text>
<text text-anchor="middle" x="715" y="-203" font-family="Helvetica,sans-Serif" font-size="10.00">Canvas.applyRender</text>
</a>
</g>
</g>
<!-- Node3&#45;&gt;Node8 -->
<g id="edge7" class="edge"><title>Node3&#45;&gt;Node8</title>
<path fill="none" stroke="midnightblue" d="M563.023,-179.113C589.058,-184.611 617.687,-190.658 642.95,-195.994"/>
<polygon fill="midnightblue" stroke="midnightblue" points="563.692,-175.677 553.184,-177.035 562.245,-182.526 563.692,-175.677"/>
</g>
<!-- Node9 -->
<g id="node9" class="node"><title>Node9</title>
<g id="a_node9"><a xlink:href="../../df/de5/classengine_1_1render_1_1_game_object_renderer.html#a610545384a337edcd3bffb9f0c6ecf18" target="_top" xlink:title="engine.render.GameObject\lRenderer.renderGameObjects">
<polygon fill="white" stroke="black" points="636,-49 636,-79 794,-79 794,-49 636,-49"/>
<text text-anchor="start" x="644" y="-67" font-family="Helvetica,sans-Serif" font-size="10.00">engine.render.GameObject</text>
<text text-anchor="middle" x="715" y="-56" font-family="Helvetica,sans-Serif" font-size="10.00">Renderer.renderGameObjects</text>
</a>
</g>
</g>
<!-- Node3&#45;&gt;Node9 -->
<g id="edge8" class="edge"><title>Node3&#45;&gt;Node9</title>
<path fill="none" stroke="midnightblue" d="M578.295,-142.662C581.652,-140.933 584.9,-139.05 588,-137 610.539,-122.091 601.679,-103.234 624,-88 629.076,-84.5359 634.627,-81.5715 640.402,-79.0346"/>
<polygon fill="midnightblue" stroke="midnightblue" points="576.784,-139.505 569.187,-146.889 579.731,-145.854 576.784,-139.505"/>
</g>
<!-- Node7 -->
<g id="node7" class="node"><title>Node7</title>
<g id="a_node7"><a xlink:href="../../da/d16/classengine_1_1actions_1_1_make_new_random_object_action.html#aa831c4b818ed75f812bf8ba0d453c942" target="_top" xlink:title="engine.actions.MakeNewRandom\lObjectAction.execute">
<polygon fill="white" stroke="black" points="846.5,-245 846.5,-275 1021.5,-275 1021.5,-245 846.5,-245"/>
<text text-anchor="start" x="854.5" y="-263" font-family="Helvetica,sans-Serif" font-size="10.00">engine.actions.MakeNewRandom</text>
<text text-anchor="middle" x="934" y="-252" font-family="Helvetica,sans-Serif" font-size="10.00">ObjectAction.execute</text>
</a>
</g>
</g>
<!-- Node6&#45;&gt;Node7 -->
<g id="edge6" class="edge"><title>Node6&#45;&gt;Node7</title>
<path fill="none" stroke="midnightblue" d="M814.389,-260C825.007,-260 835.755,-260 846.222,-260"/>
<polygon fill="midnightblue" stroke="midnightblue" points="814.262,-256.5 804.262,-260 814.262,-263.5 814.262,-256.5"/>
</g>
<!-- Node10 -->
<g id="node10" class="node"><title>Node10</title>
<g id="a_node10"><a xlink:href="../../df/d67/classengine_1_1level_1_1_level_manager.html#a523599892453015eed0f1b506979af8a" target="_top" xlink:title="engine.level.LevelManager.initialize\lCurrentLevel">
<polygon fill="white" stroke="black" points="842,-49 842,-79 1026,-79 1026,-49 842,-49"/>
<text text-anchor="start" x="850" y="-67" font-family="Helvetica,sans-Serif" font-size="10.00">engine.level.LevelManager.initialize</text>
<text text-anchor="middle" x="934" y="-56" font-family="Helvetica,sans-Serif" font-size="10.00">CurrentLevel</text>
</a>
</g>
</g>
<!-- Node9&#45;&gt;Node10 -->
<g id="edge9" class="edge"><title>Node9&#45;&gt;Node10</title>
<path fill="none" stroke="midnightblue" d="M804.358,-64C816.766,-64 829.538,-64 841.994,-64"/>
<polygon fill="midnightblue" stroke="midnightblue" points="804.035,-60.5001 794.035,-64 804.035,-67.5001 804.035,-60.5001"/>
</g>
<!-- Node11 -->
<g id="node11" class="node"><title>Node11</title>
<g id="a_node11"><a xlink:href="../../df/d67/classengine_1_1level_1_1_level_manager.html#a1d0f314bbf304bf86067ab87b832d2e0" target="_top" xlink:title="engine.level.LevelManager.find\lAndSetStartLevel">
<polygon fill="white" stroke="black" points="1071.5,-74 1071.5,-104 1234.5,-104 1234.5,-74 1071.5,-74"/>
<text text-anchor="start" x="1079.5" y="-92" font-family="Helvetica,sans-Serif" font-size="10.00">engine.level.LevelManager.find</text>
<text text-anchor="middle" x="1153" y="-81" font-family="Helvetica,sans-Serif" font-size="10.00">AndSetStartLevel</text>
</a>
</g>
</g>
<!-- Node10&#45;&gt;Node11 -->
<g id="edge10" class="edge"><title>Node10&#45;&gt;Node11</title>
<path fill="none" stroke="midnightblue" d="M1036.03,-75.6397C1047.92,-77.0098 1059.94,-78.3937 1071.49,-79.7252"/>
<polygon fill="midnightblue" stroke="midnightblue" points="1036.42,-72.1612 1026.08,-74.4936 1035.62,-79.1152 1036.42,-72.1612"/>
</g>
<!-- Node13 -->
<g id="node13" class="node"><title>Node13</title>
<g id="a_node13"><a xlink:href="../../df/d67/classengine_1_1level_1_1_level_manager.html#ad3c392cf6260c53428255fb596442692" target="_top" xlink:title="engine.level.LevelManager.change\lToLevel">
<polygon fill="white" stroke="black" points="1062.5,-25 1062.5,-55 1243.5,-55 1243.5,-25 1062.5,-25"/>
<text text-anchor="start" x="1070.5" y="-43" font-family="Helvetica,sans-Serif" font-size="10.00">engine.level.LevelManager.change</text>
<text text-anchor="middle" x="1153" y="-32" font-family="Helvetica,sans-Serif" font-size="10.00">ToLevel</text>
</a>
</g>
</g>
<!-- Node10&#45;&gt;Node13 -->
<g id="edge12" class="edge"><title>Node10&#45;&gt;Node13</title>
<path fill="none" stroke="midnightblue" d="M1036.22,-52.8052C1044.89,-51.8464 1053.62,-50.8807 1062.19,-49.9327"/>
<polygon fill="midnightblue" stroke="midnightblue" points="1035.64,-49.348 1026.08,-53.9262 1036.41,-56.3056 1035.64,-49.348"/>
</g>
<!-- Node12 -->
<g id="node12" class="node"><title>Node12</title>
<g id="a_node12"><a xlink:href="../../df/d67/classengine_1_1level_1_1_level_manager.html#a0ea71eb9396652850db0d2da44c4ca81" target="_top" xlink:title="engine.level.LevelManager.\lLevelManager">
<polygon fill="white" stroke="black" points="1283,-74 1283,-104 1429,-104 1429,-74 1283,-74"/>
<text text-anchor="start" x="1291" y="-92" font-family="Helvetica,sans-Serif" font-size="10.00">engine.level.LevelManager.</text>
<text text-anchor="middle" x="1356" y="-81" font-family="Helvetica,sans-Serif" font-size="10.00">LevelManager</text>
</a>
</g>
</g>
<!-- Node11&#45;&gt;Node12 -->
<g id="edge11" class="edge"><title>Node11&#45;&gt;Node12</title>
<path fill="none" stroke="midnightblue" d="M1244.76,-89C1257.52,-89 1270.48,-89 1282.83,-89"/>
<polygon fill="midnightblue" stroke="midnightblue" points="1244.6,-85.5001 1234.6,-89 1244.6,-92.5001 1244.6,-85.5001"/>
</g>
<!-- Node14 -->
<g id="node14" class="node"><title>Node14</title>
<g id="a_node14"><a xlink:href="../../d1/d73/classengine_1_1actions_1_1_change_level_action.html#a8190adf308768b0d12f6432d0cf0fbc4" target="_top" xlink:title="engine.actions.ChangeLevel\lAction.execute">
<polygon fill="white" stroke="black" points="1280.5,-25 1280.5,-55 1431.5,-55 1431.5,-25 1280.5,-25"/>
<text text-anchor="start" x="1288.5" y="-43" font-family="Helvetica,sans-Serif" font-size="10.00">engine.actions.ChangeLevel</text>
<text text-anchor="middle" x="1356" y="-32" font-family="Helvetica,sans-Serif" font-size="10.00">Action.execute</text>
</a>
</g>
</g>
<!-- Node13&#45;&gt;Node14 -->
<g id="edge13" class="edge"><title>Node13&#45;&gt;Node14</title>
<path fill="none" stroke="midnightblue" d="M1253.71,-40C1262.65,-40 1271.61,-40 1280.29,-40"/>
<polygon fill="midnightblue" stroke="midnightblue" points="1253.62,-36.5001 1243.62,-40 1253.62,-43.5001 1253.62,-36.5001"/>
</g>
<!-- Node16 -->
<g id="node16" class="node"><title>Node16</title>
<g id="a_node16"><a xlink:href="../../da/d90/classengine_1_1sound_1_1_sound_utility.html#a59253967753035aaf21c8537a1804593" target="_top" xlink:title="engine.sound.SoundUtility.add\lAudioClip">
<polygon fill="white" stroke="black" points="400.5,-98 400.5,-128 561.5,-128 561.5,-98 400.5,-98"/>
<text text-anchor="start" x="408.5" y="-116" font-family="Helvetica,sans-Serif" font-size="10.00">engine.sound.SoundUtility.add</text>
<text text-anchor="middle" x="481" y="-105" font-family="Helvetica,sans-Serif" font-size="10.00">AudioClip</text>
</a>
</g>
</g>
<!-- Node15&#45;&gt;Node16 -->
<g id="edge15" class="edge"><title>Node15&#45;&gt;Node16</title>
<path fill="none" stroke="midnightblue" d="M348.256,-111.834C365.552,-111.987 383.452,-112.146 400.271,-112.294"/>
<polygon fill="midnightblue" stroke="midnightblue" points="348.185,-108.333 338.154,-111.745 348.123,-115.333 348.185,-108.333"/>
</g>
<!-- Node18 -->
<g id="node18" class="node"><title>Node18</title>
<g id="a_node18"><a xlink:href="../../da/d90/classengine_1_1sound_1_1_sound_utility.html#a21f1f38d8a6e76a788320f4560396775" target="_top" xlink:title="engine.sound.SoundUtility.add\lBackGroundMusic">
<polygon fill="white" stroke="black" points="400.5,-0 400.5,-30 561.5,-30 561.5,-0 400.5,-0"/>
<text text-anchor="start" x="408.5" y="-18" font-family="Helvetica,sans-Serif" font-size="10.00">engine.sound.SoundUtility.add</text>
<text text-anchor="middle" x="481" y="-7" font-family="Helvetica,sans-Serif" font-size="10.00">BackGroundMusic</text>
</a>
</g>
</g>
<!-- Node17&#45;&gt;Node18 -->
<g id="edge17" class="edge"><title>Node17&#45;&gt;Node18</title>
<path fill="none" stroke="midnightblue" d="M348.256,-17.3318C365.552,-17.0256 383.452,-16.7088 400.271,-16.4111"/>
<polygon fill="midnightblue" stroke="midnightblue" points="348.091,-13.834 338.154,-17.5105 348.214,-20.8329 348.091,-13.834"/>
</g>
<!-- Node19 -->
<g id="node19" class="node"><title>Node19</title>
<g id="a_node19"><a xlink:href="../../da/d90/classengine_1_1sound_1_1_sound_utility.html#aa4e90b186e13a618fb1a8973061e49ae" target="_top" xlink:title="engine.sound.SoundUtility.initialize\lMusic">
<polygon fill="white" stroke="black" points="624,-0 624,-30 806,-30 806,-0 624,-0"/>
<text text-anchor="start" x="632" y="-18" font-family="Helvetica,sans-Serif" font-size="10.00">engine.sound.SoundUtility.initialize</text>
<text text-anchor="middle" x="715" y="-7" font-family="Helvetica,sans-Serif" font-size="10.00">Music</text>
</a>
</g>
</g>
<!-- Node18&#45;&gt;Node19 -->
<g id="edge18" class="edge"><title>Node18&#45;&gt;Node19</title>
<path fill="none" stroke="midnightblue" d="M571.995,-15C589.008,-15 606.809,-15 623.829,-15"/>
<polygon fill="midnightblue" stroke="midnightblue" points="571.517,-11.5001 561.517,-15 571.517,-18.5001 571.517,-11.5001"/>
</g>
<!-- Node20 -->
<g id="node20" class="node"><title>Node20</title>
<g id="a_node20"><a xlink:href="../../da/d90/classengine_1_1sound_1_1_sound_utility.html#a3aaf5fc7cc7ac828eb3b6438f32c5b83" target="_top" xlink:title="engine.sound.SoundUtility.\lSoundUtility">
<polygon fill="white" stroke="black" points="862.5,-0 862.5,-30 1005.5,-30 1005.5,-0 862.5,-0"/>
<text text-anchor="start" x="870.5" y="-18" font-family="Helvetica,sans-Serif" font-size="10.00">engine.sound.SoundUtility.</text>
<text text-anchor="middle" x="934" y="-7" font-family="Helvetica,sans-Serif" font-size="10.00">SoundUtility</text>
</a>
</g>
</g>
<!-- Node19&#45;&gt;Node20 -->
<g id="edge19" class="edge"><title>Node19&#45;&gt;Node20</title>
<path fill="none" stroke="midnightblue" d="M816.308,-15C831.848,-15 847.612,-15 862.318,-15"/>
<polygon fill="midnightblue" stroke="midnightblue" points="816.142,-11.5001 806.142,-15 816.142,-18.5001 816.142,-11.5001"/>
</g>
<!-- Node21&#45;&gt;Node9 -->
<g id="edge21" class="edge"><title>Node21&#45;&gt;Node9</title>
<path fill="none" stroke="midnightblue" d="M574.034,-64C594.437,-64 615.874,-64 635.669,-64"/>
<polygon fill="midnightblue" stroke="midnightblue" points="573.795,-60.5001 563.795,-64 573.794,-67.5001 573.795,-60.5001"/>
</g>
</g>
</svg>
