<?xml version="1.0" encoding="UTF-8" standalone="no"?>
<!DOCTYPE svg PUBLIC "-//W3C//DTD SVG 1.1//EN"
 "http://www.w3.org/Graphics/SVG/1.1/DTD/svg11.dtd">
<!-- Generated by graphviz version 2.36.0 (20140111.2315)
 -->
<!-- Title: engine.actions.render.FrameRateAction Pages: 1 -->
<svg width="187pt" height="152pt"
 viewBox="0.00 0.00 187.00 152.00" xmlns="http://www.w3.org/2000/svg" xmlns:xlink="http://www.w3.org/1999/xlink">
<g id="graph0" class="graph" transform="scale(1 1) rotate(0) translate(4 148)">
<title>engine.actions.render.FrameRateAction</title>
<polygon fill="white" stroke="none" points="-4,4 -4,-148 183,-148 183,4 -4,4"/>
<!-- Node1 -->
<g id="node1" class="node"><title>Node1</title>
<polygon fill="#bfbfbf" stroke="black" points="-0.5,-1 -0.5,-31 152.5,-31 152.5,-1 -0.5,-1"/>
<text text-anchor="start" x="7.5" y="-19" font-family="Helvetica,sans-Serif" font-size="10.00">engine.actions.render.Frame</text>
<text text-anchor="middle" x="76" y="-8" font-family="Helvetica,sans-Serif" font-size="10.00">RateAction</text>
</g>
<!-- Node2 -->
<g id="node2" class="node"><title>Node2</title>
<g id="a_node2"><a xlink:href="../../d9/dd2/interfaceengine_1_1actions_1_1_action.html" target="_top" xlink:title="engine.actions.Action">
<polygon fill="white" stroke="black" points="60.5,-68.5 60.5,-87.5 179.5,-87.5 179.5,-68.5 60.5,-68.5"/>
<text text-anchor="middle" x="120" y="-75.5" font-family="Helvetica,sans-Serif" font-size="10.00">engine.actions.Action</text>
</a>
</g>
</g>
<!-- Node2&#45;&gt;Node1 -->
<g id="edge1" class="edge"><title>Node2&#45;&gt;Node1</title>
<path fill="none" stroke="midnightblue" d="M107.611,-60.1064C100.911,-50.9697 92.7304,-39.8142 86.3699,-31.1408"/>
<polygon fill="midnightblue" stroke="midnightblue" points="104.96,-62.4092 113.696,-68.4035 110.605,-58.2696 104.96,-62.4092"/>
</g>
<!-- Node3 -->
<g id="node3" class="node"><title>Node3</title>
<g id="a_node3"><a xlink:href="../../d2/d15/interfaceengine_1_1actions_1_1_initializable.html" target="_top" xlink:title="engine.actions.Initializable">
<polygon fill="white" stroke="black" points="5,-124.5 5,-143.5 147,-143.5 147,-124.5 5,-124.5"/>
<text text-anchor="middle" x="76" y="-131.5" font-family="Helvetica,sans-Serif" font-size="10.00">engine.actions.Initializable</text>
</a>
</g>
</g>
<!-- Node3&#45;&gt;Node1 -->
<g id="edge3" class="edge"><title>Node3&#45;&gt;Node1</title>
<path fill="none" stroke="midnightblue" d="M64.2432,-115.769C59.4366,-107.71 54.4387,-97.7548 52,-88 46.9823,-67.9293 57.4557,-45.4014 66.113,-31.211"/>
<polygon fill="midnightblue" stroke="midnightblue" points="61.3091,-117.678 69.6332,-124.232 67.2134,-113.917 61.3091,-117.678"/>
</g>
<!-- Node3&#45;&gt;Node2 -->
<g id="edge2" class="edge"><title>Node3&#45;&gt;Node2</title>
<path fill="none" stroke="midnightblue" d="M89.7345,-116.144C97.4005,-106.736 106.633,-95.4046 112.869,-87.7511"/>
<polygon fill="midnightblue" stroke="midnightblue" points="86.8691,-114.12 83.2657,-124.083 92.2958,-118.541 86.8691,-114.12"/>
</g>
</g>
</svg>
