<?xml version="1.0" encoding="UTF-8" standalone="no"?>
<!DOCTYPE svg PUBLIC "-//W3C//DTD SVG 1.1//EN"
 "http://www.w3.org/Graphics/SVG/1.1/DTD/svg11.dtd">
<!-- Generated by graphviz version 2.36.0 (20140111.2315)
 -->
<!-- Title: authoring.eventhandlers.AddLevelHandler.getPrompt Pages: 1 -->
<!--zoomable 400 -->
<svg id="main" version="1.1" xmlns="http://www.w3.org/2000/svg" xmlns:xlink="http://www.w3.org/1999/xlink" xml:space="preserve" onload="init(evt)">
<style type="text/css"><![CDATA[
.edge:hover path { stroke: red; }
.edge:hover polygon { stroke: red; fill: red; }
]]></style>
<script type="text/javascript"><![CDATA[
var edges = document.getElementsByTagName('g');
if (edges && edges.length) {
  for (var i=0;i<edges.length;i++) {
    if (edges[i].id.substr(0,4)=='edge') {
      edges[i].setAttribute('class','edge');
    }
  }
}
]]></script>
        <defs>
                <circle id="rim" cx="0" cy="0" r="7"/>
                <circle id="rim2" cx="0" cy="0" r="3.5"/>
                <g id="zoomPlus">
                        <use xlink:href="#rim" fill="#404040">
                                <set attributeName="fill" to="#808080" begin="zoomplus.mouseover" end="zoomplus.mouseout"/>
                        </use>
                        <path d="M-4,0h8M0,-4v8" fill="none" stroke="white" stroke-width="1.5" pointer-events="none"/>
                </g>
                <g id="zoomMin">
                        <use xlink:href="#rim" fill="#404040">
                                <set attributeName="fill" to="#808080" begin="zoomminus.mouseover" end="zoomminus.mouseout"/>
                        </use>
                        <path d="M-4,0h8" fill="none" stroke="white" stroke-width="1.5" pointer-events="none"/>
                </g>
                <g id="dirArrow">
                        <path fill="none" stroke="white" stroke-width="1.5" d="M0,-3.0v7 M-2.5,-0.5L0,-3.0L2.5,-0.5"/>
                </g>
               <g id="resetDef">
                       <use xlink:href="#rim2" fill="#404040">
                               <set attributeName="fill" to="#808080" begin="reset.mouseover" end="reset.mouseout"/>
                       </use>
               </g>
        </defs>

<script type="text/javascript">
var viewWidth = 586;
var viewHeight = 400;
var sectionId = 'dynsection-4';
</script>
<script xlink:href="../../svgpan.js"/>
<svg id="graph" class="graph">
<g id="viewport">
<title>authoring.eventhandlers.AddLevelHandler.getPrompt</title>
<polygon fill="white" stroke="none" points="-4,4 -4,-396 582,-396 582,4 -4,4"/>
<!-- Node1 -->
<g id="node1" class="node"><title>Node1</title>
<polygon fill="#bfbfbf" stroke="black" points="0.5,-208 0.5,-238 151.5,-238 151.5,-208 0.5,-208"/>
<text text-anchor="start" x="8.5" y="-226" font-family="Helvetica,sans-Serif" font-size="10.00">authoring.eventhandlers.</text>
<text text-anchor="middle" x="76" y="-215" font-family="Helvetica,sans-Serif" font-size="10.00">AddLevelHandler.getPrompt</text>
</g>
<!-- Node2 -->
<g id="node2" class="node"><title>Node2</title>
<g id="a_node2"><a xlink:href="../../d4/d95/classauthoring_1_1eventhandlers_1_1_add_level_handler.html#a661a922286bb73b71fae0c5f17e076eb" target="_top" xlink:title="authoring.eventhandlers.\lAddLevelHandler.createLevel">
<polygon fill="white" stroke="black" points="188.5,-208 188.5,-238 343.5,-238 343.5,-208 188.5,-208"/>
<text text-anchor="start" x="196.5" y="-226" font-family="Helvetica,sans-Serif" font-size="10.00">authoring.eventhandlers.</text>
<text text-anchor="middle" x="266" y="-215" font-family="Helvetica,sans-Serif" font-size="10.00">AddLevelHandler.createLevel</text>
</a>
</g>
</g>
<!-- Node1&#45;&gt;Node2 -->
<g id="edge1" class="edge"><title>Node1&#45;&gt;Node2</title>
<path fill="none" stroke="midnightblue" d="M151.573,-223C160.362,-223 169.388,-223 178.325,-223"/>
<polygon fill="midnightblue" stroke="midnightblue" points="178.361,-226.5 188.361,-223 178.361,-219.5 178.361,-226.5"/>
</g>
<!-- Node6 -->
<g id="node6" class="node"><title>Node6</title>
<g id="a_node6"><a xlink:href="../../d6/d32/classauthoring_1_1view_1_1wizards_1_1_wizard.html#a0d419b2943c99507fca42fd769c24b0e" target="_top" xlink:title="authoring.view.wizards.Wizard.getMap">
<polygon fill="white" stroke="black" points="380.5,-372.5 380.5,-391.5 577.5,-391.5 577.5,-372.5 380.5,-372.5"/>
<text text-anchor="middle" x="479" y="-379.5" font-family="Helvetica,sans-Serif" font-size="10.00">authoring.view.wizards.Wizard.getMap</text>
</a>
</g>
</g>
<!-- Node1&#45;&gt;Node6 -->
<g id="edge12" class="edge"><title>Node1&#45;&gt;Node6</title>
<path fill="none" stroke="midnightblue" d="M104.132,-238.029C156.136,-266.244 274.096,-327.408 380,-362 389.694,-365.166 400.098,-367.933 410.376,-370.316"/>
<polygon fill="midnightblue" stroke="midnightblue" points="409.644,-373.738 420.165,-372.484 411.158,-366.904 409.644,-373.738"/>
</g>
<!-- Node11 -->
<g id="node11" class="node"><title>Node11</title>
<g id="a_node11"><a xlink:href="../../d2/d89/classauthoring_1_1view_1_1wizards_1_1_level_wizard.html#ab26e425fbb3938fa9a254546896cddbf" target="_top" xlink:title="authoring.view.wizards.Level\lWizard.getIsFirst">
<polygon fill="white" stroke="black" points="190.5,-91 190.5,-121 341.5,-121 341.5,-91 190.5,-91"/>
<text text-anchor="start" x="198.5" y="-109" font-family="Helvetica,sans-Serif" font-size="10.00">authoring.view.wizards.Level</text>
<text text-anchor="middle" x="266" y="-98" font-family="Helvetica,sans-Serif" font-size="10.00">Wizard.getIsFirst</text>
</a>
</g>
</g>
<!-- Node1&#45;&gt;Node11 -->
<g id="edge10" class="edge"><title>Node1&#45;&gt;Node11</title>
<path fill="none" stroke="midnightblue" d="M101.193,-207.944C134.52,-187.203 194.668,-149.77 232.071,-126.493"/>
<polygon fill="midnightblue" stroke="midnightblue" points="233.961,-129.439 240.602,-121.184 230.263,-123.496 233.961,-129.439"/>
</g>
<!-- Node3 -->
<g id="node3" class="node"><title>Node3</title>
<g id="a_node3"><a xlink:href="../../d4/d3b/classauthoring_1_1model_1_1collections_1_1_general_collection.html#a1bdc1047736bbb23259d6a7fe4c6deeb" target="_top" xlink:title="authoring.model.collections.\lGeneralCollection.add">
<polygon fill="white" stroke="black" points="403,-323 403,-353 555,-353 555,-323 403,-323"/>
<text text-anchor="start" x="411" y="-341" font-family="Helvetica,sans-Serif" font-size="10.00">authoring.model.collections.</text>
<text text-anchor="middle" x="479" y="-330" font-family="Helvetica,sans-Serif" font-size="10.00">GeneralCollection.add</text>
</a>
</g>
</g>
<!-- Node2&#45;&gt;Node3 -->
<g id="edge2" class="edge"><title>Node2&#45;&gt;Node3</title>
<path fill="none" stroke="midnightblue" d="M281.628,-238.119C301.884,-258.184 340.471,-293.357 380,-313 384.865,-315.417 389.985,-317.616 395.228,-319.612"/>
<polygon fill="midnightblue" stroke="midnightblue" points="394.174,-322.952 404.769,-322.993 396.512,-316.354 394.174,-322.952"/>
</g>
<!-- Node4 -->
<g id="node4" class="node"><title>Node4</title>
<g id="a_node4"><a xlink:href="../../d4/d04/classauthoring_1_1view_1_1levelview_1_1_levels_view.html#a165d2f379fd1589827eaf0ba19410bd4" target="_top" xlink:title="authoring.view.levelview.\lLevelsView.addNewLevel">
<polygon fill="white" stroke="black" points="412,-274 412,-304 546,-304 546,-274 412,-274"/>
<text text-anchor="start" x="420" y="-292" font-family="Helvetica,sans-Serif" font-size="10.00">authoring.view.levelview.</text>
<text text-anchor="middle" x="479" y="-281" font-family="Helvetica,sans-Serif" font-size="10.00">LevelsView.addNewLevel</text>
</a>
</g>
</g>
<!-- Node2&#45;&gt;Node4 -->
<g id="edge3" class="edge"><title>Node2&#45;&gt;Node4</title>
<path fill="none" stroke="midnightblue" d="M305.642,-238.088C327.324,-246.283 354.97,-256.287 380,-264 388.229,-266.536 396.903,-269.018 405.547,-271.373"/>
<polygon fill="midnightblue" stroke="midnightblue" points="404.705,-274.771 415.27,-273.975 406.515,-268.009 404.705,-274.771"/>
</g>
<!-- Node5 -->
<g id="node5" class="node"><title>Node5</title>
<g id="a_node5"><a xlink:href="../../d3/d8d/classdata_1_1_observable.html#a211afd0ca0acad7240ab31386c1045dc" target="_top" xlink:title="data.Observable.addObserver">
<polygon fill="white" stroke="black" points="399,-235.5 399,-254.5 559,-254.5 559,-235.5 399,-235.5"/>
<text text-anchor="middle" x="479" y="-242.5" font-family="Helvetica,sans-Serif" font-size="10.00">data.Observable.addObserver</text>
</a>
</g>
</g>
<!-- Node2&#45;&gt;Node5 -->
<g id="edge4" class="edge"><title>Node2&#45;&gt;Node5</title>
<path fill="none" stroke="midnightblue" d="M343.773,-231.005C358.325,-232.522 373.667,-234.122 388.57,-235.676"/>
<polygon fill="midnightblue" stroke="midnightblue" points="388.494,-239.186 398.803,-236.742 389.22,-232.224 388.494,-239.186"/>
</g>
<!-- Node2&#45;&gt;Node6 -->
<g id="edge5" class="edge"><title>Node2&#45;&gt;Node6</title>
<path fill="none" stroke="midnightblue" d="M278.861,-238.14C306.481,-273.322 373.267,-357.92 380,-362 384.389,-364.66 389.071,-366.972 393.92,-368.981"/>
<polygon fill="midnightblue" stroke="midnightblue" points="392.823,-372.307 403.416,-372.483 395.245,-365.739 392.823,-372.307"/>
</g>
<!-- Node7 -->
<g id="node7" class="node"><title>Node7</title>
<g id="a_node7"><a xlink:href="../../df/d84/classengine_1_1level_1_1_level.html#a0a4cb515a5d4c8144a881486189ecb4c" target="_top" xlink:title="engine.level.Level.setBackground\lImage">
<polygon fill="white" stroke="black" points="391,-186 391,-216 567,-216 567,-186 391,-186"/>
<text text-anchor="start" x="399" y="-204" font-family="Helvetica,sans-Serif" font-size="10.00">engine.level.Level.setBackground</text>
<text text-anchor="middle" x="479" y="-193" font-family="Helvetica,sans-Serif" font-size="10.00">Image</text>
</a>
</g>
</g>
<!-- Node2&#45;&gt;Node7 -->
<g id="edge6" class="edge"><title>Node2&#45;&gt;Node7</title>
<path fill="none" stroke="midnightblue" d="M343.773,-214.995C355.86,-213.735 368.491,-212.418 380.964,-211.117"/>
<polygon fill="midnightblue" stroke="midnightblue" points="381.336,-214.598 390.92,-210.079 380.61,-207.635 381.336,-214.598"/>
</g>
<!-- Node8 -->
<g id="node8" class="node"><title>Node8</title>
<g id="a_node8"><a xlink:href="../../df/d84/classengine_1_1level_1_1_level.html#a7d156d06e5396af71c3d69b47dedcc66" target="_top" xlink:title="engine.level.Level.setBackground\lMusic">
<polygon fill="white" stroke="black" points="391,-137 391,-167 567,-167 567,-137 391,-137"/>
<text text-anchor="start" x="399" y="-155" font-family="Helvetica,sans-Serif" font-size="10.00">engine.level.Level.setBackground</text>
<text text-anchor="middle" x="479" y="-144" font-family="Helvetica,sans-Serif" font-size="10.00">Music</text>
</a>
</g>
</g>
<!-- Node2&#45;&gt;Node8 -->
<g id="edge7" class="edge"><title>Node2&#45;&gt;Node8</title>
<path fill="none" stroke="midnightblue" d="M300.667,-207.88C322.902,-198.249 352.841,-185.946 380,-177 387.707,-174.462 395.825,-172.025 403.954,-169.736"/>
<polygon fill="midnightblue" stroke="midnightblue" points="405.131,-173.042 413.848,-167.021 403.279,-166.292 405.131,-173.042"/>
</g>
<!-- Node9 -->
<g id="node9" class="node"><title>Node9</title>
<g id="a_node9"><a xlink:href="../../d1/d00/classauthoring_1_1view_1_1levelview_1_1_single_level_view.html#ac4a1ea42423440ceaa7b3105d74de522" target="_top" xlink:title="authoring.view.levelview.\lSingleLevelView.setID">
<polygon fill="white" stroke="black" points="413,-88 413,-118 545,-118 545,-88 413,-88"/>
<text text-anchor="start" x="421" y="-106" font-family="Helvetica,sans-Serif" font-size="10.00">authoring.view.levelview.</text>
<text text-anchor="middle" x="479" y="-95" font-family="Helvetica,sans-Serif" font-size="10.00">SingleLevelView.setID</text>
</a>
</g>
</g>
<!-- Node2&#45;&gt;Node9 -->
<g id="edge8" class="edge"><title>Node2&#45;&gt;Node9</title>
<path fill="none" stroke="midnightblue" d="M280.776,-207.721C300.639,-186.629 339.417,-148.841 380,-128 387.353,-124.224 395.316,-120.991 403.416,-118.229"/>
<polygon fill="midnightblue" stroke="midnightblue" points="404.487,-121.562 412.959,-115.2 402.369,-114.89 404.487,-121.562"/>
</g>
<!-- Node10 -->
<g id="node10" class="node"><title>Node10</title>
<g id="a_node10"><a xlink:href="../../df/d84/classengine_1_1level_1_1_level.html#a978e8f0a732aecf29203b898e27b16b0" target="_top" xlink:title="engine.level.Level.setIdentifier">
<polygon fill="white" stroke="black" points="398.5,-49.5 398.5,-68.5 559.5,-68.5 559.5,-49.5 398.5,-49.5"/>
<text text-anchor="middle" x="479" y="-56.5" font-family="Helvetica,sans-Serif" font-size="10.00">engine.level.Level.setIdentifier</text>
</a>
</g>
</g>
<!-- Node2&#45;&gt;Node10 -->
<g id="edge9" class="edge"><title>Node2&#45;&gt;Node10</title>
<path fill="none" stroke="midnightblue" d="M280.221,-207.86C295.899,-189.719 322.602,-158.233 344,-130 360.979,-107.598 356.463,-93.3663 380,-78 382.993,-76.046 386.14,-74.2835 389.397,-72.6943"/>
<polygon fill="midnightblue" stroke="midnightblue" points="391.01,-75.8109 398.828,-68.6597 388.257,-69.3751 391.01,-75.8109"/>
</g>
<!-- Node12 -->
<g id="node12" class="node"><title>Node12</title>
<g id="a_node12"><a xlink:href="../../d5/d4e/classauthoring_1_1view_1_1propertiesview_1_1_boolean_field.html#afebc06a93cc6c6b2b518749effbba8b1" target="_top" xlink:title="authoring.view.propertiesview.\lBooleanField.getInformation">
<polygon fill="white" stroke="black" points="399.5,-0 399.5,-30 558.5,-30 558.5,-0 399.5,-0"/>
<text text-anchor="start" x="407.5" y="-18" font-family="Helvetica,sans-Serif" font-size="10.00">authoring.view.propertiesview.</text>
<text text-anchor="middle" x="479" y="-7" font-family="Helvetica,sans-Serif" font-size="10.00">BooleanField.getInformation</text>
</a>
</g>
</g>
<!-- Node11&#45;&gt;Node12 -->
<g id="edge11" class="edge"><title>Node11&#45;&gt;Node12</title>
<path fill="none" stroke="midnightblue" d="M288.565,-90.9362C310.635,-76.1262 346.368,-53.7932 380,-40 386.167,-37.4708 392.66,-35.142 399.246,-33.0097"/>
<polygon fill="midnightblue" stroke="midnightblue" points="400.409,-36.3139 408.937,-30.0259 398.349,-29.6238 400.409,-36.3139"/>
</g>
</g>
</svg>
        <g id="navigator" transform="translate(0 0)" fill="#404254">
                <rect fill="#f2f5e9" fill-opacity="0.5" stroke="#606060" stroke-width=".5" x="0" y="0" width="60" height="60"/>
                <use id="zoomplus" xlink:href="#zoomPlus" x="17" y="9" onmousedown="handleZoom(evt,'in')"/>
                <use id="zoomminus" xlink:href="#zoomMin" x="42" y="9" onmousedown="handleZoom(evt,'out')"/>
                <use id="reset" xlink:href="#resetDef" x="30" y="36" onmousedown="handleReset()"/>
                <g id="arrowUp" xlink:href="#dirArrow" transform="translate(30 24)" onmousedown="handlePan(0,-1)">
                  <use xlink:href="#rim" fill="#404040">
                        <set attributeName="fill" to="#808080" begin="arrowUp.mouseover" end="arrowUp.mouseout"/>
                  </use>
                  <path fill="none" stroke="white" stroke-width="1.5" d="M0,-3.0v7 M-2.5,-0.5L0,-3.0L2.5,-0.5"/>
                </g>
                <g id="arrowRight" xlink:href="#dirArrow" transform="rotate(90) translate(36 -43)" onmousedown="handlePan(1,0)">
                  <use xlink:href="#rim" fill="#404040">
                        <set attributeName="fill" to="#808080" begin="arrowRight.mouseover" end="arrowRight.mouseout"/>
                  </use>
                  <path fill="none" stroke="white" stroke-width="1.5" d="M0,-3.0v7 M-2.5,-0.5L0,-3.0L2.5,-0.5"/>
                </g>
                <g id="arrowDown" xlink:href="#dirArrow" transform="rotate(180) translate(-30 -48)" onmousedown="handlePan(0,1)">
                  <use xlink:href="#rim" fill="#404040">
                        <set attributeName="fill" to="#808080" begin="arrowDown.mouseover" end="arrowDown.mouseout"/>
                  </use>
                  <path fill="none" stroke="white" stroke-width="1.5" d="M0,-3.0v7 M-2.5,-0.5L0,-3.0L2.5,-0.5"/>
                </g>
                <g id="arrowLeft" xlink:href="#dirArrow" transform="rotate(270) translate(-36 17)" onmousedown="handlePan(-1,0)">
                  <use xlink:href="#rim" fill="#404040">
                        <set attributeName="fill" to="#808080" begin="arrowLeft.mouseover" end="arrowLeft.mouseout"/>
                  </use>
                  <path fill="none" stroke="white" stroke-width="1.5" d="M0,-3.0v7 M-2.5,-0.5L0,-3.0L2.5,-0.5"/>
                </g>
        </g>
        <svg viewBox="0 0 15 15" width="100%" height="30px" preserveAspectRatio="xMaxYMin meet">
         <g id="arrow_out" transform="scale(0.3 0.3)">
          <a xlink:href="classauthoring_1_1eventhandlers_1_1_add_level_handler_a5a230a4a3782a8abc4e950d761b3ca4c_cgraph_org.svg" target="_base">
           <rect id="button" ry="5" rx="5" y="6" x="6" height="38" width="38"
                fill="#f2f5e9" fill-opacity="0.5" stroke="#606060" stroke-width="1.0"/>
           <path id="arrow"
             d="M 11.500037,31.436501 C 11.940474,20.09759 22.043105,11.32322 32.158766,21.979434 L 37.068811,17.246167 C 37.068811,17.246167 37.088388,32 37.088388,32 L 22.160133,31.978069 C 22.160133,31.978069 26.997745,27.140456 26.997745,27.140456 C 18.528582,18.264221 13.291696,25.230495 11.500037,31.436501 z"
             style="fill:#404040;"/>
          </a>
         </g>
        </svg>
</svg>
