<?xml version="1.0" encoding="UTF-8" standalone="no"?>
<!DOCTYPE svg PUBLIC "-//W3C//DTD SVG 1.1//EN"
 "http://www.w3.org/Graphics/SVG/1.1/DTD/svg11.dtd">
<!-- Generated by graphviz version 2.36.0 (20140111.2315)
 -->
<!-- Title: authoring.eventhandlers.AddLevelHandler.promptLevelID Pages: 1 -->
<svg width="792pt" height="527pt"
 viewBox="0.00 0.00 792.00 527.00" xmlns="http://www.w3.org/2000/svg" xmlns:xlink="http://www.w3.org/1999/xlink">
<g id="graph0" class="graph" transform="scale(1 1) rotate(0) translate(4 523)">
<title>authoring.eventhandlers.AddLevelHandler.promptLevelID</title>
<polygon fill="white" stroke="none" points="-4,4 -4,-523 788,-523 788,4 -4,4"/>
<!-- Node1 -->
<g id="node1" class="node"><title>Node1</title>
<polygon fill="#bfbfbf" stroke="black" points="0,-264 0,-294 170,-294 170,-264 0,-264"/>
<text text-anchor="start" x="8" y="-282" font-family="Helvetica,sans-Serif" font-size="10.00">authoring.eventhandlers.</text>
<text text-anchor="middle" x="85" y="-271" font-family="Helvetica,sans-Serif" font-size="10.00">AddLevelHandler.promptLevelID</text>
</g>
<!-- Node2 -->
<g id="node2" class="node"><title>Node2</title>
<g id="a_node2"><a xlink:href="../../d4/d95/classauthoring_1_1eventhandlers_1_1_add_level_handler.html#a5a230a4a3782a8abc4e950d761b3ca4c" target="_top" xlink:title="authoring.eventhandlers.\lAddLevelHandler.getPrompt">
<polygon fill="white" stroke="black" points="206.5,-264 206.5,-294 357.5,-294 357.5,-264 206.5,-264"/>
<text text-anchor="start" x="214.5" y="-282" font-family="Helvetica,sans-Serif" font-size="10.00">authoring.eventhandlers.</text>
<text text-anchor="middle" x="282" y="-271" font-family="Helvetica,sans-Serif" font-size="10.00">AddLevelHandler.getPrompt</text>
</a>
</g>
</g>
<!-- Node1&#45;&gt;Node2 -->
<g id="edge1" class="edge"><title>Node1&#45;&gt;Node2</title>
<path fill="none" stroke="midnightblue" d="M170.112,-279C178.781,-279 187.593,-279 196.268,-279"/>
<polygon fill="midnightblue" stroke="midnightblue" points="196.372,-282.5 206.372,-279 196.372,-275.5 196.372,-282.5"/>
</g>
<!-- Node3 -->
<g id="node3" class="node"><title>Node3</title>
<g id="a_node3"><a xlink:href="../../d4/d95/classauthoring_1_1eventhandlers_1_1_add_level_handler.html#a661a922286bb73b71fae0c5f17e076eb" target="_top" xlink:title="authoring.eventhandlers.\lAddLevelHandler.createLevel">
<polygon fill="white" stroke="black" points="394.5,-264 394.5,-294 549.5,-294 549.5,-264 394.5,-264"/>
<text text-anchor="start" x="402.5" y="-282" font-family="Helvetica,sans-Serif" font-size="10.00">authoring.eventhandlers.</text>
<text text-anchor="middle" x="472" y="-271" font-family="Helvetica,sans-Serif" font-size="10.00">AddLevelHandler.createLevel</text>
</a>
</g>
</g>
<!-- Node2&#45;&gt;Node3 -->
<g id="edge2" class="edge"><title>Node2&#45;&gt;Node3</title>
<path fill="none" stroke="midnightblue" d="M357.573,-279C366.362,-279 375.388,-279 384.325,-279"/>
<polygon fill="midnightblue" stroke="midnightblue" points="384.361,-282.5 394.361,-279 384.361,-275.5 384.361,-282.5"/>
</g>
<!-- Node7 -->
<g id="node7" class="node"><title>Node7</title>
<g id="a_node7"><a xlink:href="../../d6/d32/classauthoring_1_1view_1_1wizards_1_1_wizard.html#a0d419b2943c99507fca42fd769c24b0e" target="_top" xlink:title="authoring.view.wizards.Wizard.getMap">
<polygon fill="white" stroke="black" points="586.5,-499.5 586.5,-518.5 783.5,-518.5 783.5,-499.5 586.5,-499.5"/>
<text text-anchor="middle" x="685" y="-506.5" font-family="Helvetica,sans-Serif" font-size="10.00">authoring.view.wizards.Wizard.getMap</text>
</a>
</g>
</g>
<!-- Node2&#45;&gt;Node7 -->
<g id="edge16" class="edge"><title>Node2&#45;&gt;Node7</title>
<path fill="none" stroke="midnightblue" d="M299.6,-294.26C343.032,-333.296 465.046,-437.335 586,-489 593.186,-492.069 600.874,-494.678 608.665,-496.892"/>
<polygon fill="midnightblue" stroke="midnightblue" points="607.998,-500.336 618.559,-499.492 609.776,-493.565 607.998,-500.336"/>
</g>
<!-- Node15 -->
<g id="node15" class="node"><title>Node15</title>
<g id="a_node15"><a xlink:href="../../d2/d89/classauthoring_1_1view_1_1wizards_1_1_level_wizard.html#ab26e425fbb3938fa9a254546896cddbf" target="_top" xlink:title="authoring.view.wizards.Level\lWizard.getIsFirst">
<polygon fill="white" stroke="black" points="396.5,-108 396.5,-138 547.5,-138 547.5,-108 396.5,-108"/>
<text text-anchor="start" x="404.5" y="-126" font-family="Helvetica,sans-Serif" font-size="10.00">authoring.view.wizards.Level</text>
<text text-anchor="middle" x="472" y="-115" font-family="Helvetica,sans-Serif" font-size="10.00">Wizard.getIsFirst</text>
</a>
</g>
</g>
<!-- Node2&#45;&gt;Node15 -->
<g id="edge14" class="edge"><title>Node2&#45;&gt;Node15</title>
<path fill="none" stroke="midnightblue" d="M301.369,-263.758C335.009,-235.843 406.589,-176.448 445.135,-144.462"/>
<polygon fill="midnightblue" stroke="midnightblue" points="447.373,-147.153 452.834,-138.074 442.903,-141.766 447.373,-147.153"/>
</g>
<!-- Node4 -->
<g id="node4" class="node"><title>Node4</title>
<g id="a_node4"><a xlink:href="../../df/de5/classauthoring_1_1model_1_1collections_1_1_levels_collection.html#ab355be93ea3c8a0f359099c4bf93ae10" target="_top" xlink:title="authoring.model.collections.\lLevelsCollection.add">
<polygon fill="white" stroke="black" points="609,-450 609,-480 761,-480 761,-450 609,-450"/>
<text text-anchor="start" x="617" y="-468" font-family="Helvetica,sans-Serif" font-size="10.00">authoring.model.collections.</text>
<text text-anchor="middle" x="685" y="-457" font-family="Helvetica,sans-Serif" font-size="10.00">LevelsCollection.add</text>
</a>
</g>
</g>
<!-- Node3&#45;&gt;Node4 -->
<g id="edge3" class="edge"><title>Node3&#45;&gt;Node4</title>
<path fill="none" stroke="midnightblue" d="M481.7,-294.045C502.868,-330.166 557.407,-420.258 586,-440 590.226,-442.918 594.766,-445.496 599.493,-447.773"/>
<polygon fill="midnightblue" stroke="midnightblue" points="598.212,-451.032 608.78,-451.791 600.992,-444.608 598.212,-451.032"/>
</g>
<!-- Node5 -->
<g id="node5" class="node"><title>Node5</title>
<g id="a_node5"><a xlink:href="../../d4/d04/classauthoring_1_1view_1_1levelview_1_1_levels_view.html#a165d2f379fd1589827eaf0ba19410bd4" target="_top" xlink:title="authoring.view.levelview.\lLevelsView.addNewLevel">
<polygon fill="white" stroke="black" points="618,-401 618,-431 752,-431 752,-401 618,-401"/>
<text text-anchor="start" x="626" y="-419" font-family="Helvetica,sans-Serif" font-size="10.00">authoring.view.levelview.</text>
<text text-anchor="middle" x="685" y="-408" font-family="Helvetica,sans-Serif" font-size="10.00">LevelsView.addNewLevel</text>
</a>
</g>
</g>
<!-- Node3&#45;&gt;Node5 -->
<g id="edge4" class="edge"><title>Node3&#45;&gt;Node5</title>
<path fill="none" stroke="midnightblue" d="M483.994,-294.255C502.325,-318.54 541.537,-365.815 586,-391 592.952,-394.938 600.528,-398.265 608.287,-401.075"/>
<polygon fill="midnightblue" stroke="midnightblue" points="607.219,-404.408 617.813,-404.252 609.434,-397.768 607.219,-404.408"/>
</g>
<!-- Node6 -->
<g id="node6" class="node"><title>Node6</title>
<g id="a_node6"><a xlink:href="../../d3/d8d/classdata_1_1_observable.html#a211afd0ca0acad7240ab31386c1045dc" target="_top" xlink:title="data.Observable.addObserver">
<polygon fill="white" stroke="black" points="605,-362.5 605,-381.5 765,-381.5 765,-362.5 605,-362.5"/>
<text text-anchor="middle" x="685" y="-369.5" font-family="Helvetica,sans-Serif" font-size="10.00">data.Observable.addObserver</text>
</a>
</g>
</g>
<!-- Node3&#45;&gt;Node6 -->
<g id="edge5" class="edge"><title>Node3&#45;&gt;Node6</title>
<path fill="none" stroke="midnightblue" d="M491.769,-294.292C513.247,-311.006 550.103,-337.352 586,-352 593.544,-355.078 601.615,-357.7 609.766,-359.929"/>
<polygon fill="midnightblue" stroke="midnightblue" points="609.164,-363.388 619.718,-362.458 610.888,-356.603 609.164,-363.388"/>
</g>
<!-- Node3&#45;&gt;Node7 -->
<g id="edge6" class="edge"><title>Node3&#45;&gt;Node7</title>
<path fill="none" stroke="midnightblue" d="M483.576,-294.048C499.269,-316.763 529.112,-361.466 550,-402 569.169,-439.198 553.723,-462.367 586,-489 588.465,-491.034 591.083,-492.879 593.818,-494.552"/>
<polygon fill="midnightblue" stroke="midnightblue" points="592.429,-497.776 602.909,-499.327 595.684,-491.579 592.429,-497.776"/>
</g>
<!-- Node8 -->
<g id="node8" class="node"><title>Node8</title>
<g id="a_node8"><a xlink:href="../../df/d84/classengine_1_1level_1_1_level.html#a0a4cb515a5d4c8144a881486189ecb4c" target="_top" xlink:title="engine.level.Level.setBackground\lImage">
<polygon fill="white" stroke="black" points="597,-313 597,-343 773,-343 773,-313 597,-313"/>
<text text-anchor="start" x="605" y="-331" font-family="Helvetica,sans-Serif" font-size="10.00">engine.level.Level.setBackground</text>
<text text-anchor="middle" x="685" y="-320" font-family="Helvetica,sans-Serif" font-size="10.00">Image</text>
</a>
</g>
</g>
<!-- Node3&#45;&gt;Node8 -->
<g id="edge7" class="edge"><title>Node3&#45;&gt;Node8</title>
<path fill="none" stroke="midnightblue" d="M537.741,-294.035C560.425,-299.302 586.079,-305.26 609.497,-310.698"/>
<polygon fill="midnightblue" stroke="midnightblue" points="608.849,-314.141 619.382,-312.994 610.432,-307.322 608.849,-314.141"/>
</g>
<!-- Node9 -->
<g id="node9" class="node"><title>Node9</title>
<g id="a_node9"><a xlink:href="../../df/d84/classengine_1_1level_1_1_level.html#a7d156d06e5396af71c3d69b47dedcc66" target="_top" xlink:title="engine.level.Level.setBackground\lMusic">
<polygon fill="white" stroke="black" points="597,-264 597,-294 773,-294 773,-264 597,-264"/>
<text text-anchor="start" x="605" y="-282" font-family="Helvetica,sans-Serif" font-size="10.00">engine.level.Level.setBackground</text>
<text text-anchor="middle" x="685" y="-271" font-family="Helvetica,sans-Serif" font-size="10.00">Music</text>
</a>
</g>
</g>
<!-- Node3&#45;&gt;Node9 -->
<g id="edge8" class="edge"><title>Node3&#45;&gt;Node9</title>
<path fill="none" stroke="midnightblue" d="M549.773,-279C561.74,-279 574.241,-279 586.594,-279"/>
<polygon fill="midnightblue" stroke="midnightblue" points="586.92,-282.5 596.92,-279 586.92,-275.5 586.92,-282.5"/>
</g>
<!-- Node10 -->
<g id="node10" class="node"><title>Node10</title>
<g id="a_node10"><a xlink:href="../../df/d84/classengine_1_1level_1_1_level.html#a1473c16b9e5b5d6d5f162e6357d4e90e" target="_top" xlink:title="engine.level.Level.setHeight">
<polygon fill="white" stroke="black" points="609.5,-225.5 609.5,-244.5 760.5,-244.5 760.5,-225.5 609.5,-225.5"/>
<text text-anchor="middle" x="685" y="-232.5" font-family="Helvetica,sans-Serif" font-size="10.00">engine.level.Level.setHeight</text>
</a>
</g>
</g>
<!-- Node3&#45;&gt;Node10 -->
<g id="edge9" class="edge"><title>Node3&#45;&gt;Node10</title>
<path fill="none" stroke="midnightblue" d="M543.206,-263.998C557.37,-260.997 572.158,-257.882 586,-255 599.14,-252.264 613.28,-249.356 626.618,-246.631"/>
<polygon fill="midnightblue" stroke="midnightblue" points="627.532,-250.017 636.631,-244.588 626.133,-243.158 627.532,-250.017"/>
</g>
<!-- Node11 -->
<g id="node11" class="node"><title>Node11</title>
<g id="a_node11"><a xlink:href="../../d1/d00/classauthoring_1_1view_1_1levelview_1_1_single_level_view.html#ac4a1ea42423440ceaa7b3105d74de522" target="_top" xlink:title="authoring.view.levelview.\lSingleLevelView.setID">
<polygon fill="white" stroke="black" points="619,-176 619,-206 751,-206 751,-176 619,-176"/>
<text text-anchor="start" x="627" y="-194" font-family="Helvetica,sans-Serif" font-size="10.00">authoring.view.levelview.</text>
<text text-anchor="middle" x="685" y="-183" font-family="Helvetica,sans-Serif" font-size="10.00">SingleLevelView.setID</text>
</a>
</g>
</g>
<!-- Node3&#45;&gt;Node11 -->
<g id="edge10" class="edge"><title>Node3&#45;&gt;Node11</title>
<path fill="none" stroke="midnightblue" d="M495.93,-263.878C518.162,-249.791 553.241,-229.053 586,-216 593.422,-213.043 601.301,-210.347 609.241,-207.913"/>
<polygon fill="midnightblue" stroke="midnightblue" points="610.317,-211.245 618.929,-205.074 608.348,-204.527 610.317,-211.245"/>
</g>
<!-- Node12 -->
<g id="node12" class="node"><title>Node12</title>
<g id="a_node12"><a xlink:href="../../df/d84/classengine_1_1level_1_1_level.html#a978e8f0a732aecf29203b898e27b16b0" target="_top" xlink:title="engine.level.Level.setIdentifier">
<polygon fill="white" stroke="black" points="604.5,-137.5 604.5,-156.5 765.5,-156.5 765.5,-137.5 604.5,-137.5"/>
<text text-anchor="middle" x="685" y="-144.5" font-family="Helvetica,sans-Serif" font-size="10.00">engine.level.Level.setIdentifier</text>
</a>
</g>
</g>
<!-- Node3&#45;&gt;Node12 -->
<g id="edge11" class="edge"><title>Node3&#45;&gt;Node12</title>
<path fill="none" stroke="midnightblue" d="M483.564,-263.892C501.573,-239.375 540.697,-191.23 586,-167 591.248,-164.193 596.847,-161.779 602.61,-159.704"/>
<polygon fill="midnightblue" stroke="midnightblue" points="603.996,-162.934 612.429,-156.52 601.837,-156.275 603.996,-162.934"/>
</g>
<!-- Node13 -->
<g id="node13" class="node"><title>Node13</title>
<g id="a_node13"><a xlink:href="../../d1/d00/classauthoring_1_1view_1_1levelview_1_1_single_level_view.html#acb46165e6a475f8c86825925550041b7" target="_top" xlink:title="authoring.view.levelview.\lSingleLevelView.setPaneSize">
<polygon fill="white" stroke="black" points="608.5,-88 608.5,-118 761.5,-118 761.5,-88 608.5,-88"/>
<text text-anchor="start" x="616.5" y="-106" font-family="Helvetica,sans-Serif" font-size="10.00">authoring.view.levelview.</text>
<text text-anchor="middle" x="685" y="-95" font-family="Helvetica,sans-Serif" font-size="10.00">SingleLevelView.setPaneSize</text>
</a>
</g>
</g>
<!-- Node3&#45;&gt;Node13 -->
<g id="edge12" class="edge"><title>Node3&#45;&gt;Node13</title>
<path fill="none" stroke="midnightblue" d="M479.919,-263.88C494.749,-233.227 532.64,-163.655 586,-128 590.074,-125.278 594.425,-122.852 598.943,-120.69"/>
<polygon fill="midnightblue" stroke="midnightblue" points="600.615,-123.781 608.417,-116.613 597.848,-117.351 600.615,-123.781"/>
</g>
<!-- Node14 -->
<g id="node14" class="node"><title>Node14</title>
<g id="a_node14"><a xlink:href="../../df/d84/classengine_1_1level_1_1_level.html#a6fed6684fff9cdb0c75497abded3bcf2" target="_top" xlink:title="engine.level.Level.setWidth">
<polygon fill="white" stroke="black" points="612,-49.5 612,-68.5 758,-68.5 758,-49.5 612,-49.5"/>
<text text-anchor="middle" x="685" y="-56.5" font-family="Helvetica,sans-Serif" font-size="10.00">engine.level.Level.setWidth</text>
</a>
</g>
</g>
<!-- Node3&#45;&gt;Node14 -->
<g id="edge13" class="edge"><title>Node3&#45;&gt;Node14</title>
<path fill="none" stroke="midnightblue" d="M482.247,-263.69C496.949,-239.23 526.404,-189.735 550,-147 566.719,-116.719 558.27,-98.6764 586,-78 590.895,-74.3499 596.3,-71.3446 601.98,-68.8757"/>
<polygon fill="midnightblue" stroke="midnightblue" points="603.625,-71.997 611.759,-65.2083 601.167,-65.4427 603.625,-71.997"/>
</g>
<!-- Node16 -->
<g id="node16" class="node"><title>Node16</title>
<g id="a_node16"><a xlink:href="../../d5/d4e/classauthoring_1_1view_1_1propertiesview_1_1_boolean_field.html#afebc06a93cc6c6b2b518749effbba8b1" target="_top" xlink:title="authoring.view.propertiesview.\lBooleanField.getInformation">
<polygon fill="white" stroke="black" points="605.5,-0 605.5,-30 764.5,-30 764.5,-0 605.5,-0"/>
<text text-anchor="start" x="613.5" y="-18" font-family="Helvetica,sans-Serif" font-size="10.00">authoring.view.propertiesview.</text>
<text text-anchor="middle" x="685" y="-7" font-family="Helvetica,sans-Serif" font-size="10.00">BooleanField.getInformation</text>
</a>
</g>
</g>
<!-- Node15&#45;&gt;Node16 -->
<g id="edge15" class="edge"><title>Node15&#45;&gt;Node16</title>
<path fill="none" stroke="midnightblue" d="M489.289,-107.836C510.151,-89.2113 548.15,-57.8953 586,-40 591.186,-37.5479 596.645,-35.3146 602.222,-33.284"/>
<polygon fill="midnightblue" stroke="midnightblue" points="603.357,-36.595 611.693,-30.0554 601.098,-29.9694 603.357,-36.595"/>
</g>
</g>
</svg>
