<?xml version="1.0" encoding="UTF-8" standalone="no"?>
<!DOCTYPE svg PUBLIC "-//W3C//DTD SVG 1.1//EN"
 "http://www.w3.org/Graphics/SVG/1.1/DTD/svg11.dtd">
<!-- Generated by graphviz version 2.36.0 (20140111.2315)
 -->
<!-- Title: engine.GameManager.getAllGameObjects Pages: 1 -->
<svg width="372pt" height="77pt"
 viewBox="0.00 0.00 372.00 77.00" xmlns="http://www.w3.org/2000/svg" xmlns:xlink="http://www.w3.org/1999/xlink">
<g id="graph0" class="graph" transform="scale(1 1) rotate(0) translate(4 73)">
<title>engine.GameManager.getAllGameObjects</title>
<polygon fill="white" stroke="none" points="-4,4 -4,-73 368,-73 368,4 -4,4"/>
<!-- Node1 -->
<g id="node1" class="node"><title>Node1</title>
<polygon fill="#bfbfbf" stroke="black" points="0,-17 0,-47 152,-47 152,-17 0,-17"/>
<text text-anchor="start" x="8" y="-35" font-family="Helvetica,sans-Serif" font-size="10.00">engine.GameManager.getAll</text>
<text text-anchor="middle" x="76" y="-24" font-family="Helvetica,sans-Serif" font-size="10.00">GameObjects</text>
</g>
<!-- Node2 -->
<g id="node2" class="node"><title>Node2</title>
<g id="a_node2"><a xlink:href="../../d4/d9f/classengine_1_1actions_1_1_label_int_increment_action.html#a8b7c627c85e7ab535c4b768409e5b65e" target="_top" xlink:title="engine.actions.LabelIntIncrement\lAction.initialize">
<polygon fill="white" stroke="black" points="188,-39 188,-69 364,-69 364,-39 188,-39"/>
<text text-anchor="start" x="196" y="-57" font-family="Helvetica,sans-Serif" font-size="10.00">engine.actions.LabelIntIncrement</text>
<text text-anchor="middle" x="276" y="-46" font-family="Helvetica,sans-Serif" font-size="10.00">Action.initialize</text>
</a>
</g>
</g>
<!-- Node1&#45;&gt;Node2 -->
<g id="edge1" class="edge"><title>Node1&#45;&gt;Node2</title>
<path fill="none" stroke="midnightblue" d="M162.111,-41.4568C170.675,-42.4084 179.382,-43.3757 187.966,-44.3295"/>
<polygon fill="midnightblue" stroke="midnightblue" points="162.463,-37.9744 152.138,-40.3486 161.69,-44.9316 162.463,-37.9744"/>
</g>
<!-- Node3 -->
<g id="node3" class="node"><title>Node3</title>
<g id="a_node3"><a xlink:href="../../d3/de4/classengine_1_1actions_1_1_i_d_action.html#a6b2cefde03a777ecf66df69cdd08f47c" target="_top" xlink:title="engine.actions.IDAction.initialize">
<polygon fill="white" stroke="black" points="191,-0.5 191,-19.5 361,-19.5 361,-0.5 191,-0.5"/>
<text text-anchor="middle" x="276" y="-7.5" font-family="Helvetica,sans-Serif" font-size="10.00">engine.actions.IDAction.initialize</text>
</a>
</g>
</g>
<!-- Node1&#45;&gt;Node3 -->
<g id="edge2" class="edge"><title>Node1&#45;&gt;Node3</title>
<path fill="none" stroke="midnightblue" d="M162.351,-22.5165C171.841,-21.4621 181.501,-20.3888 190.974,-19.3362"/>
<polygon fill="midnightblue" stroke="midnightblue" points="161.69,-19.0684 152.138,-23.6514 162.463,-26.0256 161.69,-19.0684"/>
</g>
</g>
</svg>
