<?xml version="1.0" encoding="UTF-8" standalone="no"?>
<!DOCTYPE svg PUBLIC "-//W3C//DTD SVG 1.1//EN"
 "http://www.w3.org/Graphics/SVG/1.1/DTD/svg11.dtd">
<!-- Generated by graphviz version 2.36.0 (20140111.2315)
 -->
<!-- Title: engine.GameManager.getRenderer Pages: 1 -->
<svg width="400pt" height="234pt"
 viewBox="0.00 0.00 400.00 234.00" xmlns="http://www.w3.org/2000/svg" xmlns:xlink="http://www.w3.org/1999/xlink">
<g id="graph0" class="graph" transform="scale(1 1) rotate(0) translate(4 230)">
<title>engine.GameManager.getRenderer</title>
<polygon fill="white" stroke="none" points="-4,4 -4,-230 396,-230 396,4 -4,4"/>
<!-- Node1 -->
<g id="node1" class="node"><title>Node1</title>
<polygon fill="#bfbfbf" stroke="black" points="0,-103.5 0,-122.5 184,-122.5 184,-103.5 0,-103.5"/>
<text text-anchor="middle" x="92" y="-110.5" font-family="Helvetica,sans-Serif" font-size="10.00">engine.GameManager.getRenderer</text>
</g>
<!-- Node2 -->
<g id="node2" class="node"><title>Node2</title>
<g id="a_node2"><a xlink:href="../../d0/d2e/classengine_1_1actions_1_1_delete_interacting_objects_action.html#a49afb7cce76aaf729facbc2a063a1d92" target="_top" xlink:title="engine.actions.DeleteInteracting\lObjectsAction.initialize">
<polygon fill="white" stroke="black" points="220,-196 220,-226 392,-226 392,-196 220,-196"/>
<text text-anchor="start" x="228" y="-214" font-family="Helvetica,sans-Serif" font-size="10.00">engine.actions.DeleteInteracting</text>
<text text-anchor="middle" x="306" y="-203" font-family="Helvetica,sans-Serif" font-size="10.00">ObjectsAction.initialize</text>
</a>
</g>
</g>
<!-- Node1&#45;&gt;Node2 -->
<g id="edge1" class="edge"><title>Node1&#45;&gt;Node2</title>
<path fill="none" stroke="midnightblue" d="M115.941,-128.406C140.739,-144.521 181.845,-169.694 220,-186 228.487,-189.627 237.664,-192.927 246.743,-195.854"/>
<polygon fill="midnightblue" stroke="midnightblue" points="117.555,-125.279 107.276,-122.711 113.71,-131.129 117.555,-125.279"/>
</g>
<!-- Node3 -->
<g id="node3" class="node"><title>Node3</title>
<g id="a_node3"><a xlink:href="../../db/db5/classengine_1_1actions_1_1render_1_1_change_image_type_action.html#abf0c305736d097616a0f9c910ee55d30" target="_top" xlink:title="engine.actions.render.Change\lImageTypeAction.initialize">
<polygon fill="white" stroke="black" points="226,-147 226,-177 386,-177 386,-147 226,-147"/>
<text text-anchor="start" x="234" y="-165" font-family="Helvetica,sans-Serif" font-size="10.00">engine.actions.render.Change</text>
<text text-anchor="middle" x="306" y="-154" font-family="Helvetica,sans-Serif" font-size="10.00">ImageTypeAction.initialize</text>
</a>
</g>
</g>
<!-- Node1&#45;&gt;Node3 -->
<g id="edge2" class="edge"><title>Node1&#45;&gt;Node3</title>
<path fill="none" stroke="midnightblue" d="M143.968,-124.78C172.732,-131.429 208.977,-139.806 239.794,-146.929"/>
<polygon fill="midnightblue" stroke="midnightblue" points="144.658,-121.348 134.127,-122.506 143.082,-128.168 144.658,-121.348"/>
</g>
<!-- Node4 -->
<g id="node4" class="node"><title>Node4</title>
<g id="a_node4"><a xlink:href="../../da/d60/classengine_1_1actions_1_1_delete_type_action.html#a76564a2092c58a024d40b974b4ae2322" target="_top" xlink:title="engine.actions.DeleteType\lAction.initialize">
<polygon fill="white" stroke="black" points="235,-98 235,-128 377,-128 377,-98 235,-98"/>
<text text-anchor="start" x="243" y="-116" font-family="Helvetica,sans-Serif" font-size="10.00">engine.actions.DeleteType</text>
<text text-anchor="middle" x="306" y="-105" font-family="Helvetica,sans-Serif" font-size="10.00">Action.initialize</text>
</a>
</g>
</g>
<!-- Node1&#45;&gt;Node4 -->
<g id="edge3" class="edge"><title>Node1&#45;&gt;Node4</title>
<path fill="none" stroke="midnightblue" d="M194.513,-113C208.126,-113 221.837,-113 234.748,-113"/>
<polygon fill="midnightblue" stroke="midnightblue" points="194.137,-109.5 184.137,-113 194.137,-116.5 194.137,-109.5"/>
</g>
<!-- Node5 -->
<g id="node5" class="node"><title>Node5</title>
<g id="a_node5"><a xlink:href="../../d5/da2/classengine_1_1actions_1_1render_1_1_change_image_i_d_action.html#a79d5b01de88ad9143f4704af7b70d73c" target="_top" xlink:title="engine.actions.render.Change\lImageIDAction.initialize">
<polygon fill="white" stroke="black" points="226,-49 226,-79 386,-79 386,-49 226,-49"/>
<text text-anchor="start" x="234" y="-67" font-family="Helvetica,sans-Serif" font-size="10.00">engine.actions.render.Change</text>
<text text-anchor="middle" x="306" y="-56" font-family="Helvetica,sans-Serif" font-size="10.00">ImageIDAction.initialize</text>
</a>
</g>
</g>
<!-- Node1&#45;&gt;Node5 -->
<g id="edge4" class="edge"><title>Node1&#45;&gt;Node5</title>
<path fill="none" stroke="midnightblue" d="M143.968,-101.22C172.732,-94.5714 208.977,-86.194 239.794,-79.0713"/>
<polygon fill="midnightblue" stroke="midnightblue" points="143.082,-97.8321 134.127,-103.494 144.658,-104.652 143.082,-97.8321"/>
</g>
<!-- Node6 -->
<g id="node6" class="node"><title>Node6</title>
<g id="a_node6"><a xlink:href="../../d2/dc5/classengine_1_1actions_1_1_make_new_object_action.html#a018cd5d9effcf200aae29205606eff04" target="_top" xlink:title="engine.actions.MakeNewObject\lAction.initialize">
<polygon fill="white" stroke="black" points="223,-0 223,-30 389,-30 389,-0 223,-0"/>
<text text-anchor="start" x="231" y="-18" font-family="Helvetica,sans-Serif" font-size="10.00">engine.actions.MakeNewObject</text>
<text text-anchor="middle" x="306" y="-7" font-family="Helvetica,sans-Serif" font-size="10.00">Action.initialize</text>
</a>
</g>
</g>
<!-- Node1&#45;&gt;Node6 -->
<g id="edge5" class="edge"><title>Node1&#45;&gt;Node6</title>
<path fill="none" stroke="midnightblue" d="M115.941,-97.5936C140.739,-81.4791 181.845,-56.3059 220,-40 228.487,-36.3731 237.664,-33.0731 246.743,-30.1458"/>
<polygon fill="midnightblue" stroke="midnightblue" points="113.71,-94.8715 107.276,-103.289 117.555,-100.721 113.71,-94.8715"/>
</g>
</g>
</svg>
