<?xml version="1.0" encoding="UTF-8" standalone="no"?>
<!DOCTYPE svg PUBLIC "-//W3C//DTD SVG 1.1//EN"
 "http://www.w3.org/Graphics/SVG/1.1/DTD/svg11.dtd">
<!-- Generated by graphviz version 2.36.0 (20140111.2315)
 -->
<!-- Title: engine.GameManager.setGameSpeed Pages: 1 -->
<svg width="852pt" height="106pt"
 viewBox="0.00 0.00 852.00 106.00" xmlns="http://www.w3.org/2000/svg" xmlns:xlink="http://www.w3.org/1999/xlink">
<g id="graph0" class="graph" transform="scale(1 1) rotate(0) translate(4 102)">
<title>engine.GameManager.setGameSpeed</title>
<polygon fill="white" stroke="none" points="-4,4 -4,-102 848,-102 848,4 -4,4"/>
<!-- Node1 -->
<g id="node1" class="node"><title>Node1</title>
<polygon fill="#bfbfbf" stroke="black" points="0,-46 0,-76 170,-76 170,-46 0,-46"/>
<text text-anchor="start" x="8" y="-64" font-family="Helvetica,sans-Serif" font-size="10.00">engine.GameManager.setGame</text>
<text text-anchor="middle" x="85" y="-53" font-family="Helvetica,sans-Serif" font-size="10.00">Speed</text>
</g>
<!-- Node2 -->
<g id="node2" class="node"><title>Node2</title>
<g id="a_node2"><a xlink:href="../../d1/da6/classengine_1_1actions_1_1render_1_1_frame_rate_action.html#abe405309f612e9f7b84ce6de7646a7ec" target="_top" xlink:title="engine.actions.render.Frame\lRateAction.execute">
<polygon fill="white" stroke="black" points="211.5,-68 211.5,-98 364.5,-98 364.5,-68 211.5,-68"/>
<text text-anchor="start" x="219.5" y="-86" font-family="Helvetica,sans-Serif" font-size="10.00">engine.actions.render.Frame</text>
<text text-anchor="middle" x="288" y="-75" font-family="Helvetica,sans-Serif" font-size="10.00">RateAction.execute</text>
</a>
</g>
</g>
<!-- Node1&#45;&gt;Node2 -->
<g id="edge1" class="edge"><title>Node1&#45;&gt;Node2</title>
<path fill="none" stroke="midnightblue" d="M180.062,-71.2954C190.522,-72.4402 201.075,-73.5953 211.266,-74.7107"/>
<polygon fill="midnightblue" stroke="midnightblue" points="180.399,-67.8114 170.077,-70.2025 179.637,-74.7698 180.399,-67.8114"/>
</g>
<!-- Node3 -->
<g id="node3" class="node"><title>Node3</title>
<g id="a_node3"><a xlink:href="../../d6/d94/classengine_1_1_game_manager.html#a9211b5f8cd80af33e24a2fcc886135e8" target="_top" xlink:title="engine.GameManager.initialize">
<polygon fill="white" stroke="black" points="206,-29.5 206,-48.5 370,-48.5 370,-29.5 206,-29.5"/>
<text text-anchor="middle" x="288" y="-36.5" font-family="Helvetica,sans-Serif" font-size="10.00">engine.GameManager.initialize</text>
</a>
</g>
</g>
<!-- Node1&#45;&gt;Node3 -->
<g id="edge2" class="edge"><title>Node1&#45;&gt;Node3</title>
<path fill="none" stroke="midnightblue" d="M180.121,-50.6982C188.714,-49.7577 197.369,-48.8104 205.834,-47.8838"/>
<polygon fill="midnightblue" stroke="midnightblue" points="179.637,-47.2302 170.077,-51.7975 180.399,-54.1886 179.637,-47.2302"/>
</g>
<!-- Node4 -->
<g id="node4" class="node"><title>Node4</title>
<g id="a_node4"><a xlink:href="../../d7/d00/classengine_1_1tests_1_1_main_engine_tests.html#ad06079aee97fd7ffd4f2b14a8f01b808" target="_top" xlink:title="engine.tests.MainEngineTests.create\lGameObject">
<polygon fill="white" stroke="black" points="406.5,-49 406.5,-79 597.5,-79 597.5,-49 406.5,-49"/>
<text text-anchor="start" x="414.5" y="-67" font-family="Helvetica,sans-Serif" font-size="10.00">engine.tests.MainEngineTests.create</text>
<text text-anchor="middle" x="502" y="-56" font-family="Helvetica,sans-Serif" font-size="10.00">GameObject</text>
</a>
</g>
</g>
<!-- Node3&#45;&gt;Node4 -->
<g id="edge3" class="edge"><title>Node3&#45;&gt;Node4</title>
<path fill="none" stroke="midnightblue" d="M379.916,-49.7213C388.641,-50.7501 397.505,-51.7954 406.265,-52.8284"/>
<polygon fill="midnightblue" stroke="midnightblue" points="380.094,-46.218 369.753,-48.5227 379.274,-53.1699 380.094,-46.218"/>
</g>
<!-- Node6 -->
<g id="node6" class="node"><title>Node6</title>
<g id="a_node6"><a xlink:href="../../d2/dc9/classgame_player_1_1model_1_1_player_model.html#a810c0b28ae81f5a27c5df5f83f907088" target="_top" xlink:title="gamePlayer.model.PlayerModel.load\lGameFile">
<polygon fill="white" stroke="black" points="407,-0 407,-30 597,-30 597,-0 407,-0"/>
<text text-anchor="start" x="415" y="-18" font-family="Helvetica,sans-Serif" font-size="10.00">gamePlayer.model.PlayerModel.load</text>
<text text-anchor="middle" x="502" y="-7" font-family="Helvetica,sans-Serif" font-size="10.00">GameFile</text>
</a>
</g>
</g>
<!-- Node3&#45;&gt;Node6 -->
<g id="edge5" class="edge"><title>Node3&#45;&gt;Node6</title>
<path fill="none" stroke="midnightblue" d="M380.02,-28.6958C388.912,-27.6892 397.948,-26.6662 406.87,-25.6562"/>
<polygon fill="midnightblue" stroke="midnightblue" points="379.598,-25.2211 370.056,-29.8239 380.386,-32.1767 379.598,-25.2211"/>
</g>
<!-- Node5 -->
<g id="node5" class="node"><title>Node5</title>
<g id="a_node5"><a xlink:href="../../d7/d00/classengine_1_1tests_1_1_main_engine_tests.html#ad1e78dcd3453ebdeb09141cba734c133" target="_top" xlink:title="engine.tests.MainEngineTests.start">
<polygon fill="white" stroke="black" points="647.5,-54.5 647.5,-73.5 830.5,-73.5 830.5,-54.5 647.5,-54.5"/>
<text text-anchor="middle" x="739" y="-61.5" font-family="Helvetica,sans-Serif" font-size="10.00">engine.tests.MainEngineTests.start</text>
</a>
</g>
</g>
<!-- Node4&#45;&gt;Node5 -->
<g id="edge4" class="edge"><title>Node4&#45;&gt;Node5</title>
<path fill="none" stroke="midnightblue" d="M607.659,-64C620.927,-64 634.416,-64 647.439,-64"/>
<polygon fill="midnightblue" stroke="midnightblue" points="607.568,-60.5001 597.568,-64 607.568,-67.5001 607.568,-60.5001"/>
</g>
<!-- Node7 -->
<g id="node7" class="node"><title>Node7</title>
<g id="a_node7"><a xlink:href="../../d9/dff/classgame_player_1_1view_1_1_menu_bar_controller.html#af1f1b493dce9b79a0f464c4f1a6dfd09" target="_top" xlink:title="gamePlayer.view.MenuBarController.load\lGameFile">
<polygon fill="white" stroke="black" points="634,-0 634,-30 844,-30 844,-0 634,-0"/>
<text text-anchor="start" x="642" y="-18" font-family="Helvetica,sans-Serif" font-size="10.00">gamePlayer.view.MenuBarController.load</text>
<text text-anchor="middle" x="739" y="-7" font-family="Helvetica,sans-Serif" font-size="10.00">GameFile</text>
</a>
</g>
</g>
<!-- Node6&#45;&gt;Node7 -->
<g id="edge6" class="edge"><title>Node6&#45;&gt;Node7</title>
<path fill="none" stroke="midnightblue" d="M607.425,-15C616.159,-15 624.99,-15 633.723,-15"/>
<polygon fill="midnightblue" stroke="midnightblue" points="607.229,-11.5001 597.229,-15 607.229,-18.5001 607.229,-11.5001"/>
</g>
</g>
</svg>
