<?xml version="1.0" encoding="UTF-8" standalone="no"?>
<!DOCTYPE svg PUBLIC "-//W3C//DTD SVG 1.1//EN"
 "http://www.w3.org/Graphics/SVG/1.1/DTD/svg11.dtd">
<!-- Generated by graphviz version 2.36.0 (20140111.2315)
 -->
<!-- Title: engine.GameManager.addFramesToGroup Pages: 1 -->
<svg width="1088pt" height="170pt"
 viewBox="0.00 0.00 1088.00 170.00" xmlns="http://www.w3.org/2000/svg" xmlns:xlink="http://www.w3.org/1999/xlink">
<g id="graph0" class="graph" transform="scale(1 1) rotate(0) translate(4 166)">
<title>engine.GameManager.addFramesToGroup</title>
<polygon fill="white" stroke="none" points="-4,4 -4,-166 1084,-166 1084,4 -4,4"/>
<!-- Node1 -->
<g id="node1" class="node"><title>Node1</title>
<polygon fill="#bfbfbf" stroke="black" points="0.5,-68 0.5,-98 179.5,-98 179.5,-68 0.5,-68"/>
<text text-anchor="start" x="8.5" y="-86" font-family="Helvetica,sans-Serif" font-size="10.00">engine.GameManager.addFrames</text>
<text text-anchor="middle" x="90" y="-75" font-family="Helvetica,sans-Serif" font-size="10.00">ToGroup</text>
</g>
<!-- Node2 -->
<g id="node2" class="node"><title>Node2</title>
<g id="a_node2"><a xlink:href="../../d6/d94/classengine_1_1_game_manager.html#a9211b5f8cd80af33e24a2fcc886135e8" target="_top" xlink:title="engine.GameManager.initialize">
<polygon fill="white" stroke="black" points="216,-73.5 216,-92.5 380,-92.5 380,-73.5 216,-73.5"/>
<text text-anchor="middle" x="298" y="-80.5" font-family="Helvetica,sans-Serif" font-size="10.00">engine.GameManager.initialize</text>
</a>
</g>
</g>
<!-- Node1&#45;&gt;Node2 -->
<g id="edge1" class="edge"><title>Node1&#45;&gt;Node2</title>
<path fill="none" stroke="midnightblue" d="M189.82,-83C198.591,-83 207.402,-83 215.999,-83"/>
<polygon fill="midnightblue" stroke="midnightblue" points="189.558,-79.5001 179.558,-83 189.558,-86.5001 189.558,-79.5001"/>
</g>
<!-- Node3 -->
<g id="node3" class="node"><title>Node3</title>
<g id="a_node3"><a xlink:href="../../d7/d00/classengine_1_1tests_1_1_main_engine_tests.html#ad06079aee97fd7ffd4f2b14a8f01b808" target="_top" xlink:title="engine.tests.MainEngineTests.create\lGameObject">
<polygon fill="white" stroke="black" points="416.5,-127 416.5,-157 607.5,-157 607.5,-127 416.5,-127"/>
<text text-anchor="start" x="424.5" y="-145" font-family="Helvetica,sans-Serif" font-size="10.00">engine.tests.MainEngineTests.create</text>
<text text-anchor="middle" x="512" y="-134" font-family="Helvetica,sans-Serif" font-size="10.00">GameObject</text>
</a>
</g>
</g>
<!-- Node2&#45;&gt;Node3 -->
<g id="edge2" class="edge"><title>Node2&#45;&gt;Node3</title>
<path fill="none" stroke="midnightblue" d="M343.381,-95.3514C376.463,-104.558 421.812,-117.179 456.999,-126.971"/>
<polygon fill="midnightblue" stroke="midnightblue" points="344.106,-91.92 333.533,-92.6107 342.229,-98.6637 344.106,-91.92"/>
</g>
<!-- Node5 -->
<g id="node5" class="node"><title>Node5</title>
<g id="a_node5"><a xlink:href="../../d2/dc9/classgame_player_1_1model_1_1_player_model.html#a98f00ab471bdab4f36e313a78fe6ceab" target="_top" xlink:title="gamePlayer.model.PlayerModel.load\lGameData">
<polygon fill="white" stroke="black" points="417,-68 417,-98 607,-98 607,-68 417,-68"/>
<text text-anchor="start" x="425" y="-86" font-family="Helvetica,sans-Serif" font-size="10.00">gamePlayer.model.PlayerModel.load</text>
<text text-anchor="middle" x="512" y="-75" font-family="Helvetica,sans-Serif" font-size="10.00">GameData</text>
</a>
</g>
</g>
<!-- Node2&#45;&gt;Node5 -->
<g id="edge4" class="edge"><title>Node2&#45;&gt;Node5</title>
<path fill="none" stroke="midnightblue" d="M390.307,-83C399.107,-83 408.044,-83 416.87,-83"/>
<polygon fill="midnightblue" stroke="midnightblue" points="390.056,-79.5001 380.056,-83 390.056,-86.5001 390.056,-79.5001"/>
</g>
<!-- Node10 -->
<g id="node10" class="node"><title>Node10</title>
<g id="a_node10"><a xlink:href="../../dc/d21/classgames_1_1_mario_game_test.html#aab9eed35cd4d8ae1d108ae914b6a73ff" target="_top" xlink:title="games.MarioGameTest.create\lGameObject">
<polygon fill="white" stroke="black" points="431.5,-0 431.5,-30 592.5,-30 592.5,-0 431.5,-0"/>
<text text-anchor="start" x="439.5" y="-18" font-family="Helvetica,sans-Serif" font-size="10.00">games.MarioGameTest.create</text>
<text text-anchor="middle" x="512" y="-7" font-family="Helvetica,sans-Serif" font-size="10.00">GameObject</text>
</a>
</g>
</g>
<!-- Node2&#45;&gt;Node10 -->
<g id="edge9" class="edge"><title>Node2&#45;&gt;Node10</title>
<path fill="none" stroke="midnightblue" d="M338.485,-70.3351C374.047,-58.9284 426.371,-42.1453 464.061,-30.0558"/>
<polygon fill="midnightblue" stroke="midnightblue" points="337.378,-67.0144 328.925,-73.4015 339.516,-73.6799 337.378,-67.0144"/>
</g>
<!-- Node4 -->
<g id="node4" class="node"><title>Node4</title>
<g id="a_node4"><a xlink:href="../../d7/d00/classengine_1_1tests_1_1_main_engine_tests.html#ad1e78dcd3453ebdeb09141cba734c133" target="_top" xlink:title="engine.tests.MainEngineTests.start">
<polygon fill="white" stroke="black" points="647.5,-142.5 647.5,-161.5 830.5,-161.5 830.5,-142.5 647.5,-142.5"/>
<text text-anchor="middle" x="739" y="-149.5" font-family="Helvetica,sans-Serif" font-size="10.00">engine.tests.MainEngineTests.start</text>
</a>
</g>
</g>
<!-- Node3&#45;&gt;Node4 -->
<g id="edge3" class="edge"><title>Node3&#45;&gt;Node4</title>
<path fill="none" stroke="midnightblue" d="M617.946,-146.664C627.751,-147.1 637.634,-147.539 647.293,-147.969"/>
<polygon fill="midnightblue" stroke="midnightblue" points="617.914,-143.159 607.768,-146.212 617.603,-150.153 617.914,-143.159"/>
</g>
<!-- Node6 -->
<g id="node6" class="node"><title>Node6</title>
<g id="a_node6"><a xlink:href="../../d2/dc9/classgame_player_1_1model_1_1_player_model.html#aca9302c5af4ce0e4dc9d7d5a13d49e64" target="_top" xlink:title="gamePlayer.model.PlayerModel.add\lFileNameChangeListener">
<polygon fill="white" stroke="black" points="645,-93 645,-123 833,-123 833,-93 645,-93"/>
<text text-anchor="start" x="653" y="-111" font-family="Helvetica,sans-Serif" font-size="10.00">gamePlayer.model.PlayerModel.add</text>
<text text-anchor="middle" x="739" y="-100" font-family="Helvetica,sans-Serif" font-size="10.00">FileNameChangeListener</text>
</a>
</g>
</g>
<!-- Node5&#45;&gt;Node6 -->
<g id="edge5" class="edge"><title>Node5&#45;&gt;Node6</title>
<path fill="none" stroke="midnightblue" d="M617.151,-94.5723C626.436,-95.604 635.798,-96.6443 644.982,-97.6646"/>
<polygon fill="midnightblue" stroke="midnightblue" points="617.442,-91.0832 607.117,-93.4574 616.669,-98.0404 617.442,-91.0832"/>
</g>
<!-- Node8 -->
<g id="node8" class="node"><title>Node8</title>
<g id="a_node8"><a xlink:href="../../d2/dc9/classgame_player_1_1model_1_1_player_model.html#a810c0b28ae81f5a27c5df5f83f907088" target="_top" xlink:title="gamePlayer.model.PlayerModel.load\lGameFile">
<polygon fill="white" stroke="black" points="644,-44 644,-74 834,-74 834,-44 644,-44"/>
<text text-anchor="start" x="652" y="-62" font-family="Helvetica,sans-Serif" font-size="10.00">gamePlayer.model.PlayerModel.load</text>
<text text-anchor="middle" x="739" y="-51" font-family="Helvetica,sans-Serif" font-size="10.00">GameFile</text>
</a>
</g>
</g>
<!-- Node5&#45;&gt;Node8 -->
<g id="edge7" class="edge"><title>Node5&#45;&gt;Node8</title>
<path fill="none" stroke="midnightblue" d="M617.148,-71.8909C626.07,-70.9392 635.062,-69.9801 643.899,-69.0375"/>
<polygon fill="midnightblue" stroke="midnightblue" points="616.689,-68.4199 607.117,-72.9609 617.431,-75.3804 616.689,-68.4199"/>
</g>
<!-- Node7 -->
<g id="node7" class="node"><title>Node7</title>
<g id="a_node7"><a xlink:href="../../d2/dc9/classgame_player_1_1model_1_1_player_model.html#ad762a1aa11a0f489413712d8dab91419" target="_top" xlink:title="gamePlayer.model.PlayerModel.\lPlayerModel">
<polygon fill="white" stroke="black" points="890,-93 890,-123 1060,-123 1060,-93 890,-93"/>
<text text-anchor="start" x="898" y="-111" font-family="Helvetica,sans-Serif" font-size="10.00">gamePlayer.model.PlayerModel.</text>
<text text-anchor="middle" x="975" y="-100" font-family="Helvetica,sans-Serif" font-size="10.00">PlayerModel</text>
</a>
</g>
</g>
<!-- Node6&#45;&gt;Node7 -->
<g id="edge6" class="edge"><title>Node6&#45;&gt;Node7</title>
<path fill="none" stroke="midnightblue" d="M843.326,-108C858.892,-108 874.785,-108 889.883,-108"/>
<polygon fill="midnightblue" stroke="midnightblue" points="843.155,-104.5 833.155,-108 843.155,-111.5 843.155,-104.5"/>
</g>
<!-- Node9 -->
<g id="node9" class="node"><title>Node9</title>
<g id="a_node9"><a xlink:href="../../d9/dff/classgame_player_1_1view_1_1_menu_bar_controller.html#af1f1b493dce9b79a0f464c4f1a6dfd09" target="_top" xlink:title="gamePlayer.view.MenuBarController.load\lGameFile">
<polygon fill="white" stroke="black" points="870,-44 870,-74 1080,-74 1080,-44 870,-44"/>
<text text-anchor="start" x="878" y="-62" font-family="Helvetica,sans-Serif" font-size="10.00">gamePlayer.view.MenuBarController.load</text>
<text text-anchor="middle" x="975" y="-51" font-family="Helvetica,sans-Serif" font-size="10.00">GameFile</text>
</a>
</g>
</g>
<!-- Node8&#45;&gt;Node9 -->
<g id="edge8" class="edge"><title>Node8&#45;&gt;Node9</title>
<path fill="none" stroke="midnightblue" d="M844.365,-59C852.772,-59 861.267,-59 869.674,-59"/>
<polygon fill="midnightblue" stroke="midnightblue" points="844.165,-55.5001 834.165,-59 844.165,-62.5001 844.165,-55.5001"/>
</g>
<!-- Node11 -->
<g id="node11" class="node"><title>Node11</title>
<g id="a_node11"><a xlink:href="../../dc/d21/classgames_1_1_mario_game_test.html#a8b7c287ffdfcacefeb373e7430a608c8" target="_top" xlink:title="games.MarioGameTest.start">
<polygon fill="white" stroke="black" points="663,-5.5 663,-24.5 815,-24.5 815,-5.5 663,-5.5"/>
<text text-anchor="middle" x="739" y="-12.5" font-family="Helvetica,sans-Serif" font-size="10.00">games.MarioGameTest.start</text>
</a>
</g>
</g>
<!-- Node10&#45;&gt;Node11 -->
<g id="edge10" class="edge"><title>Node10&#45;&gt;Node11</title>
<path fill="none" stroke="midnightblue" d="M602.676,-8.37502C622.666,-8.15327 643.659,-8.22651 662.986,-8.59472"/>
<polygon fill="midnightblue" stroke="midnightblue" points="602.594,-4.87571 592.643,-8.51267 602.69,-11.8751 602.594,-4.87571"/>
</g>
<!-- Node11&#45;&gt;Node10 -->
<g id="edge11" class="edge"><title>Node11&#45;&gt;Node10</title>
<path fill="none" stroke="midnightblue" d="M652.789,-21.5703C633.055,-21.8349 612.128,-21.8073 592.643,-21.4873"/>
<polygon fill="midnightblue" stroke="midnightblue" points="653.044,-25.0667 662.986,-21.4053 652.931,-18.0677 653.044,-25.0667"/>
</g>
</g>
</svg>
