<?xml version="1.0" encoding="UTF-8" standalone="no"?>
<!DOCTYPE svg PUBLIC "-//W3C//DTD SVG 1.1//EN"
 "http://www.w3.org/Graphics/SVG/1.1/DTD/svg11.dtd">
<!-- Generated by graphviz version 2.36.0 (20140111.2315)
 -->
<!-- Title: engine.GameManager.getSoundUtility Pages: 1 -->
<svg width="408pt" height="77pt"
 viewBox="0.00 0.00 408.00 77.00" xmlns="http://www.w3.org/2000/svg" xmlns:xlink="http://www.w3.org/1999/xlink">
<g id="graph0" class="graph" transform="scale(1 1) rotate(0) translate(4 73)">
<title>engine.GameManager.getSoundUtility</title>
<polygon fill="white" stroke="none" points="-4,4 -4,-73 404,-73 404,4 -4,4"/>
<!-- Node1 -->
<g id="node1" class="node"><title>Node1</title>
<polygon fill="#bfbfbf" stroke="black" points="0,-17 0,-47 172,-47 172,-17 0,-17"/>
<text text-anchor="start" x="8" y="-35" font-family="Helvetica,sans-Serif" font-size="10.00">engine.GameManager.getSound</text>
<text text-anchor="middle" x="86" y="-24" font-family="Helvetica,sans-Serif" font-size="10.00">Utility</text>
</g>
<!-- Node2 -->
<g id="node2" class="node"><title>Node2</title>
<g id="a_node2"><a xlink:href="../../d0/d34/classengine_1_1actions_1_1_audio_clip_action.html#a4de65f4e48df8f2fca0500c1bd4cb927" target="_top" xlink:title="engine.actions.AudioClip\lAction.initialize">
<polygon fill="white" stroke="black" points="237,-39 237,-69 371,-69 371,-39 237,-39"/>
<text text-anchor="start" x="245" y="-57" font-family="Helvetica,sans-Serif" font-size="10.00">engine.actions.AudioClip</text>
<text text-anchor="middle" x="304" y="-46" font-family="Helvetica,sans-Serif" font-size="10.00">Action.initialize</text>
</a>
</g>
</g>
<!-- Node1&#45;&gt;Node2 -->
<g id="edge1" class="edge"><title>Node1&#45;&gt;Node2</title>
<path fill="none" stroke="midnightblue" d="M182.21,-41.6973C200.599,-43.5703 219.49,-45.4944 236.71,-47.2482"/>
<polygon fill="midnightblue" stroke="midnightblue" points="182.362,-38.1948 172.059,-40.6634 181.653,-45.1588 182.362,-38.1948"/>
</g>
<!-- Node3 -->
<g id="node3" class="node"><title>Node3</title>
<g id="a_node3"><a xlink:href="../../d7/d07/classengine_1_1actions_1_1_sound_action.html#ad3f51e4df5e8ffb7a1e852e172837d49" target="_top" xlink:title="engine.actions.SoundAction.initialize">
<polygon fill="white" stroke="black" points="208.5,-0.5 208.5,-19.5 399.5,-19.5 399.5,-0.5 208.5,-0.5"/>
<text text-anchor="middle" x="304" y="-7.5" font-family="Helvetica,sans-Serif" font-size="10.00">engine.actions.SoundAction.initialize</text>
</a>
</g>
</g>
<!-- Node1&#45;&gt;Node3 -->
<g id="edge2" class="edge"><title>Node1&#45;&gt;Node3</title>
<path fill="none" stroke="midnightblue" d="M182.21,-22.3027C191.259,-21.3811 200.429,-20.4471 209.462,-19.5271"/>
<polygon fill="midnightblue" stroke="midnightblue" points="181.653,-18.8412 172.059,-23.3366 182.362,-25.8052 181.653,-18.8412"/>
</g>
</g>
</svg>
