<?xml version="1.0" encoding="UTF-8" standalone="no"?>
<!DOCTYPE svg PUBLIC "-//W3C//DTD SVG 1.1//EN"
 "http://www.w3.org/Graphics/SVG/1.1/DTD/svg11.dtd">
<!-- Generated by graphviz version 2.36.0 (20140111.2315)
 -->
<!-- Title: engine.GameManager.initialize Pages: 1 -->
<svg width="388pt" height="87pt"
 viewBox="0.00 0.00 388.00 87.00" xmlns="http://www.w3.org/2000/svg" xmlns:xlink="http://www.w3.org/1999/xlink">
<g id="graph0" class="graph" transform="scale(1 1) rotate(0) translate(4 83)">
<title>engine.GameManager.initialize</title>
<polygon fill="white" stroke="none" points="-4,4 -4,-83 384,-83 384,4 -4,4"/>
<!-- Node1 -->
<g id="node1" class="node"><title>Node1</title>
<polygon fill="#bfbfbf" stroke="black" points="0,-29.5 0,-48.5 164,-48.5 164,-29.5 0,-29.5"/>
<text text-anchor="middle" x="82" y="-36.5" font-family="Helvetica,sans-Serif" font-size="10.00">engine.GameManager.initialize</text>
</g>
<!-- Node2 -->
<g id="node2" class="node"><title>Node2</title>
<g id="a_node2"><a xlink:href="../../d6/d94/classengine_1_1_game_manager.html#a5b9c3b1993da4d9a2e7e0397e1f57596" target="_top" xlink:title="engine.GameManager.addFrames\lToGroup">
<polygon fill="white" stroke="black" points="200.5,-49 200.5,-79 379.5,-79 379.5,-49 200.5,-49"/>
<text text-anchor="start" x="208.5" y="-67" font-family="Helvetica,sans-Serif" font-size="10.00">engine.GameManager.addFrames</text>
<text text-anchor="middle" x="290" y="-56" font-family="Helvetica,sans-Serif" font-size="10.00">ToGroup</text>
</a>
</g>
</g>
<!-- Node1&#45;&gt;Node2 -->
<g id="edge1" class="edge"><title>Node1&#45;&gt;Node2</title>
<path fill="none" stroke="midnightblue" d="M161.467,-48.5227C170.919,-49.6698 180.663,-50.8523 190.356,-52.0286"/>
<polygon fill="midnightblue" stroke="midnightblue" points="190.074,-55.5201 200.423,-53.2504 190.918,-48.571 190.074,-55.5201"/>
</g>
<!-- Node3 -->
<g id="node3" class="node"><title>Node3</title>
<g id="a_node3"><a xlink:href="../../d6/d94/classengine_1_1_game_manager.html#a1264479972233bc22827c6cd1b9ffce8" target="_top" xlink:title="engine.GameManager.setGame\lSpeed">
<polygon fill="white" stroke="black" points="205,-0 205,-30 375,-30 375,-0 205,-0"/>
<text text-anchor="start" x="213" y="-18" font-family="Helvetica,sans-Serif" font-size="10.00">engine.GameManager.setGame</text>
<text text-anchor="middle" x="290" y="-7" font-family="Helvetica,sans-Serif" font-size="10.00">Speed</text>
</a>
</g>
</g>
<!-- Node1&#45;&gt;Node3 -->
<g id="edge2" class="edge"><title>Node1&#45;&gt;Node3</title>
<path fill="none" stroke="midnightblue" d="M164.121,-29.549C174.17,-28.3783 184.51,-27.1736 194.734,-25.9824"/>
<polygon fill="midnightblue" stroke="midnightblue" points="195.377,-29.4313 204.905,-24.7975 194.567,-22.4783 195.377,-29.4313"/>
</g>
</g>
</svg>
