<?xml version="1.0" encoding="UTF-8" standalone="no"?>
<!DOCTYPE svg PUBLIC "-//W3C//DTD SVG 1.1//EN"
 "http://www.w3.org/Graphics/SVG/1.1/DTD/svg11.dtd">
<!-- Generated by graphviz version 2.36.0 (20140111.2315)
 -->
<!-- Title: engine.GameManager.getLevelManager Pages: 1 -->
<svg width="410pt" height="410pt"
 viewBox="0.00 0.00 410.00 410.00" xmlns="http://www.w3.org/2000/svg" xmlns:xlink="http://www.w3.org/1999/xlink">
<g id="graph0" class="graph" transform="scale(1 1) rotate(0) translate(4 406)">
<title>engine.GameManager.getLevelManager</title>
<polygon fill="white" stroke="none" points="-4,4 -4,-406 406,-406 406,4 -4,4"/>
<!-- Node1 -->
<g id="node1" class="node"><title>Node1</title>
<polygon fill="#bfbfbf" stroke="black" points="0,-196 0,-226 166,-226 166,-196 0,-196"/>
<text text-anchor="start" x="8" y="-214" font-family="Helvetica,sans-Serif" font-size="10.00">engine.GameManager.getLevel</text>
<text text-anchor="middle" x="83" y="-203" font-family="Helvetica,sans-Serif" font-size="10.00">Manager</text>
</g>
<!-- Node2 -->
<g id="node2" class="node"><title>Node2</title>
<g id="a_node2"><a xlink:href="../../da/dd3/classengine_1_1actions_1_1_reset_level_action.html#af75c19eeea304cf874ae7a82df54d23b" target="_top" xlink:title="engine.actions.ResetLevel\lAction.initialize">
<polygon fill="white" stroke="black" points="232,-372 232,-402 372,-402 372,-372 232,-372"/>
<text text-anchor="start" x="240" y="-390" font-family="Helvetica,sans-Serif" font-size="10.00">engine.actions.ResetLevel</text>
<text text-anchor="middle" x="302" y="-379" font-family="Helvetica,sans-Serif" font-size="10.00">Action.initialize</text>
</a>
</g>
</g>
<!-- Node1&#45;&gt;Node2 -->
<g id="edge1" class="edge"><title>Node1&#45;&gt;Node2</title>
<path fill="none" stroke="midnightblue" d="M96.2481,-235.287C114.549,-269.034 152.271,-329.603 202,-362 211.06,-367.903 221.424,-372.412 231.955,-375.856"/>
<polygon fill="midnightblue" stroke="midnightblue" points="99.1737,-233.332 91.4033,-226.13 92.9864,-236.606 99.1737,-233.332"/>
</g>
<!-- Node3 -->
<g id="node3" class="node"><title>Node3</title>
<g id="a_node3"><a xlink:href="../../d4/d87/classengine_1_1actions_1_1_type_action.html#a549c8daf218ca5538cb9b2c086942454" target="_top" xlink:title="engine.actions.TypeAction.initialize">
<polygon fill="white" stroke="black" points="211,-333.5 211,-352.5 393,-352.5 393,-333.5 211,-333.5"/>
<text text-anchor="middle" x="302" y="-340.5" font-family="Helvetica,sans-Serif" font-size="10.00">engine.actions.TypeAction.initialize</text>
</a>
</g>
</g>
<!-- Node1&#45;&gt;Node3 -->
<g id="edge2" class="edge"><title>Node1&#45;&gt;Node3</title>
<path fill="none" stroke="midnightblue" d="M101.653,-234.26C122.635,-260.159 160.119,-301.232 202,-323 210.402,-327.367 219.664,-330.781 229.05,-333.451"/>
<polygon fill="midnightblue" stroke="midnightblue" points="104.144,-231.768 95.1871,-226.108 98.6591,-236.118 104.144,-231.768"/>
</g>
<!-- Node4 -->
<g id="node4" class="node"><title>Node4</title>
<g id="a_node4"><a xlink:href="../../d1/d73/classengine_1_1actions_1_1_change_level_action.html#aafc7d0169637fd38671ff6a276fc81fc" target="_top" xlink:title="engine.actions.ChangeLevel\lAction.initialize">
<polygon fill="white" stroke="black" points="226.5,-284 226.5,-314 377.5,-314 377.5,-284 226.5,-284"/>
<text text-anchor="start" x="234.5" y="-302" font-family="Helvetica,sans-Serif" font-size="10.00">engine.actions.ChangeLevel</text>
<text text-anchor="middle" x="302" y="-291" font-family="Helvetica,sans-Serif" font-size="10.00">Action.initialize</text>
</a>
</g>
</g>
<!-- Node1&#45;&gt;Node4 -->
<g id="edge3" class="edge"><title>Node1&#45;&gt;Node4</title>
<path fill="none" stroke="midnightblue" d="M116.745,-231.273C139.875,-244.888 171.978,-262.394 202,-274 211.673,-277.739 222.094,-281.075 232.418,-283.996"/>
<polygon fill="midnightblue" stroke="midnightblue" points="118.416,-228.195 108.035,-226.08 114.832,-234.207 118.416,-228.195"/>
</g>
<!-- Node5 -->
<g id="node5" class="node"><title>Node5</title>
<g id="a_node5"><a xlink:href="../../df/d4c/classengine_1_1actions_1_1_delete_id_action.html#a4a3ab00770345437d29dbc0354a914e3" target="_top" xlink:title="engine.actions.DeleteIdAction.initialize">
<polygon fill="white" stroke="black" points="202,-245.5 202,-264.5 402,-264.5 402,-245.5 202,-245.5"/>
<text text-anchor="middle" x="302" y="-252.5" font-family="Helvetica,sans-Serif" font-size="10.00">engine.actions.DeleteIdAction.initialize</text>
</a>
</g>
</g>
<!-- Node1&#45;&gt;Node5 -->
<g id="edge4" class="edge"><title>Node1&#45;&gt;Node5</title>
<path fill="none" stroke="midnightblue" d="M167.955,-228.09C179.395,-230.414 190.986,-232.767 202,-235 218.842,-238.414 237.297,-242.145 253.662,-245.45"/>
<polygon fill="midnightblue" stroke="midnightblue" points="168.455,-224.62 157.958,-226.058 167.061,-231.48 168.455,-224.62"/>
</g>
<!-- Node6 -->
<g id="node6" class="node"><title>Node6</title>
<g id="a_node6"><a xlink:href="../../d0/d22/classengine_1_1actions_1_1_rotate_image_type_action.html#a1e1674d1508d14a91da4ac534b8770af" target="_top" xlink:title="engine.actions.RotateImage\lTypeAction.initialize">
<polygon fill="white" stroke="black" points="227,-196 227,-226 377,-226 377,-196 227,-196"/>
<text text-anchor="start" x="235" y="-214" font-family="Helvetica,sans-Serif" font-size="10.00">engine.actions.RotateImage</text>
<text text-anchor="middle" x="302" y="-203" font-family="Helvetica,sans-Serif" font-size="10.00">TypeAction.initialize</text>
</a>
</g>
</g>
<!-- Node1&#45;&gt;Node6 -->
<g id="edge5" class="edge"><title>Node1&#45;&gt;Node6</title>
<path fill="none" stroke="midnightblue" d="M176.409,-211C193.198,-211 210.512,-211 226.696,-211"/>
<polygon fill="midnightblue" stroke="midnightblue" points="176.038,-207.5 166.038,-211 176.038,-214.5 176.038,-207.5"/>
</g>
<!-- Node7 -->
<g id="node7" class="node"><title>Node7</title>
<g id="a_node7"><a xlink:href="../../de/dcd/classengine_1_1actions_1_1_translate_type_action.html#a94e5be4d9ae6925a10929120abbb36ba" target="_top" xlink:title="engine.actions.Translate\lTypeAction.initialize">
<polygon fill="white" stroke="black" points="236,-147 236,-177 368,-177 368,-147 236,-147"/>
<text text-anchor="start" x="244" y="-165" font-family="Helvetica,sans-Serif" font-size="10.00">engine.actions.Translate</text>
<text text-anchor="middle" x="302" y="-154" font-family="Helvetica,sans-Serif" font-size="10.00">TypeAction.initialize</text>
</a>
</g>
</g>
<!-- Node1&#45;&gt;Node7 -->
<g id="edge6" class="edge"><title>Node1&#45;&gt;Node7</title>
<path fill="none" stroke="midnightblue" d="M160.569,-193.71C185.096,-188.172 212.014,-182.094 235.662,-176.754"/>
<polygon fill="midnightblue" stroke="midnightblue" points="159.565,-190.349 150.582,-195.965 161.107,-197.177 159.565,-190.349"/>
</g>
<!-- Node8 -->
<g id="node8" class="node"><title>Node8</title>
<g id="a_node8"><a xlink:href="../../d0/d0d/classengine_1_1actions_1_1_physics_type_action.html#a564ebf97b22a1fe571200fcccef03a08" target="_top" xlink:title="engine.actions.PhysicsType\lAction.initialize">
<polygon fill="white" stroke="black" points="229,-98 229,-128 375,-128 375,-98 229,-98"/>
<text text-anchor="start" x="237" y="-116" font-family="Helvetica,sans-Serif" font-size="10.00">engine.actions.PhysicsType</text>
<text text-anchor="middle" x="302" y="-105" font-family="Helvetica,sans-Serif" font-size="10.00">Action.initialize</text>
</a>
</g>
</g>
<!-- Node1&#45;&gt;Node8 -->
<g id="edge7" class="edge"><title>Node1&#45;&gt;Node8</title>
<path fill="none" stroke="midnightblue" d="M112.553,-189.85C135.646,-173.625 169.547,-151.747 202,-138 210.978,-134.197 220.667,-130.874 230.349,-128.001"/>
<polygon fill="midnightblue" stroke="midnightblue" points="110.369,-187.108 104.257,-195.762 114.431,-192.809 110.369,-187.108"/>
</g>
<!-- Node9 -->
<g id="node9" class="node"><title>Node9</title>
<g id="a_node9"><a xlink:href="../../d2/dc5/classengine_1_1actions_1_1_make_new_object_action.html#a018cd5d9effcf200aae29205606eff04" target="_top" xlink:title="engine.actions.MakeNewObject\lAction.initialize">
<polygon fill="white" stroke="black" points="219,-49 219,-79 385,-79 385,-49 219,-49"/>
<text text-anchor="start" x="227" y="-67" font-family="Helvetica,sans-Serif" font-size="10.00">engine.actions.MakeNewObject</text>
<text text-anchor="middle" x="302" y="-56" font-family="Helvetica,sans-Serif" font-size="10.00">Action.initialize</text>
</a>
</g>
</g>
<!-- Node1&#45;&gt;Node9 -->
<g id="edge8" class="edge"><title>Node1&#45;&gt;Node9</title>
<path fill="none" stroke="midnightblue" d="M100.455,-187.266C120.996,-159.468 158.737,-114.042 202,-89 208.674,-85.137 215.938,-81.8649 223.399,-79.0946"/>
<polygon fill="midnightblue" stroke="midnightblue" points="97.4339,-185.471 94.4055,-195.624 103.104,-189.575 97.4339,-185.471"/>
</g>
<!-- Node10 -->
<g id="node10" class="node"><title>Node10</title>
<g id="a_node10"><a xlink:href="../../d0/d7d/classengine_1_1conditions_1_1_type_collision_condition.html#aa8c4f215bc53bae3df044fc3dab3c1d4" target="_top" xlink:title="engine.conditions.TypeCollision\lCondition.initialize">
<polygon fill="white" stroke="black" points="220,-0 220,-30 384,-30 384,-0 220,-0"/>
<text text-anchor="start" x="228" y="-18" font-family="Helvetica,sans-Serif" font-size="10.00">engine.conditions.TypeCollision</text>
<text text-anchor="middle" x="302" y="-7" font-family="Helvetica,sans-Serif" font-size="10.00">Condition.initialize</text>
</a>
</g>
</g>
<!-- Node1&#45;&gt;Node10 -->
<g id="edge9" class="edge"><title>Node1&#45;&gt;Node10</title>
<path fill="none" stroke="midnightblue" d="M94.1393,-186.286C110.859,-148.71 147.842,-77.6161 202,-40 207.605,-36.1067 213.764,-32.8189 220.183,-30.0427"/>
<polygon fill="midnightblue" stroke="midnightblue" points="90.7213,-185.372 89.9635,-195.94 97.146,-188.151 90.7213,-185.372"/>
</g>
</g>
</svg>
