<?xml version="1.0" encoding="UTF-8" standalone="no"?>
<!DOCTYPE svg PUBLIC "-//W3C//DTD SVG 1.1//EN"
 "http://www.w3.org/Graphics/SVG/1.1/DTD/svg11.dtd">
<!-- Generated by graphviz version 2.36.0 (20140111.2315)
 -->
<!-- Title: engine.physics.Scalar.iterator Pages: 1 -->
<!--zoomable 186 -->
<svg id="main" version="1.1" xmlns="http://www.w3.org/2000/svg" xmlns:xlink="http://www.w3.org/1999/xlink" xml:space="preserve" onload="init(evt)">
<style type="text/css"><![CDATA[
.edge:hover path { stroke: red; }
.edge:hover polygon { stroke: red; fill: red; }
]]></style>
<script type="text/javascript"><![CDATA[
var edges = document.getElementsByTagName('g');
if (edges && edges.length) {
  for (var i=0;i<edges.length;i++) {
    if (edges[i].id.substr(0,4)=='edge') {
      edges[i].setAttribute('class','edge');
    }
  }
}
]]></script>
        <defs>
                <circle id="rim" cx="0" cy="0" r="7"/>
                <circle id="rim2" cx="0" cy="0" r="3.5"/>
                <g id="zoomPlus">
                        <use xlink:href="#rim" fill="#404040">
                                <set attributeName="fill" to="#808080" begin="zoomplus.mouseover" end="zoomplus.mouseout"/>
                        </use>
                        <path d="M-4,0h8M0,-4v8" fill="none" stroke="white" stroke-width="1.5" pointer-events="none"/>
                </g>
                <g id="zoomMin">
                        <use xlink:href="#rim" fill="#404040">
                                <set attributeName="fill" to="#808080" begin="zoomminus.mouseover" end="zoomminus.mouseout"/>
                        </use>
                        <path d="M-4,0h8" fill="none" stroke="white" stroke-width="1.5" pointer-events="none"/>
                </g>
                <g id="dirArrow">
                        <path fill="none" stroke="white" stroke-width="1.5" d="M0,-3.0v7 M-2.5,-0.5L0,-3.0L2.5,-0.5"/>
                </g>
               <g id="resetDef">
                       <use xlink:href="#rim2" fill="#404040">
                               <set attributeName="fill" to="#808080" begin="reset.mouseover" end="reset.mouseout"/>
                       </use>
               </g>
        </defs>

<script type="text/javascript">
var viewWidth = 1042;
var viewHeight = 186;
var sectionId = 'dynsection-5';
</script>
<script xlink:href="../../svgpan.js"/>
<svg id="graph" class="graph">
<g id="viewport">
<title>engine.physics.Scalar.iterator</title>
<polygon fill="white" stroke="none" points="-4,4 -4,-182 1038,-182 1038,4 -4,4"/>
<!-- Node1 -->
<g id="node1" class="node"><title>Node1</title>
<polygon fill="#bfbfbf" stroke="black" points="0,-79.5 0,-98.5 158,-98.5 158,-79.5 0,-79.5"/>
<text text-anchor="middle" x="79" y="-86.5" font-family="Helvetica,sans-Serif" font-size="10.00">engine.physics.Scalar.iterator</text>
</g>
<!-- Node2 -->
<g id="node2" class="node"><title>Node2</title>
<g id="a_node2"><a xlink:href="../../d9/d9d/classengine_1_1game_object_1_1components_1_1_physics_body.html#a69d3fe175f40fdc40ca6e414cac727a5" target="_top" xlink:title="engine.gameObject.components.\lPhysicsBody.addScalar">
<polygon fill="white" stroke="black" points="194,-74 194,-104 370,-104 370,-74 194,-74"/>
<text text-anchor="start" x="202" y="-92" font-family="Helvetica,sans-Serif" font-size="10.00">engine.gameObject.components.</text>
<text text-anchor="middle" x="282" y="-81" font-family="Helvetica,sans-Serif" font-size="10.00">PhysicsBody.addScalar</text>
</a>
</g>
</g>
<!-- Node1&#45;&gt;Node2 -->
<g id="edge1" class="edge"><title>Node1&#45;&gt;Node2</title>
<path fill="none" stroke="midnightblue" d="M168.509,-89C176.949,-89 185.504,-89 193.93,-89"/>
<polygon fill="midnightblue" stroke="midnightblue" points="168.287,-85.5001 158.287,-89 168.287,-92.5001 168.287,-85.5001"/>
</g>
<!-- Node3 -->
<g id="node3" class="node"><title>Node3</title>
<g id="a_node3"><a xlink:href="../../d7/d00/classengine_1_1tests_1_1_main_engine_tests.html#ad06079aee97fd7ffd4f2b14a8f01b808" target="_top" xlink:title="engine.tests.MainEngineTests.create\lGameObject">
<polygon fill="white" stroke="black" points="406.5,-148 406.5,-178 597.5,-178 597.5,-148 406.5,-148"/>
<text text-anchor="start" x="414.5" y="-166" font-family="Helvetica,sans-Serif" font-size="10.00">engine.tests.MainEngineTests.create</text>
<text text-anchor="middle" x="502" y="-155" font-family="Helvetica,sans-Serif" font-size="10.00">GameObject</text>
</a>
</g>
</g>
<!-- Node2&#45;&gt;Node3 -->
<g id="edge2" class="edge"><title>Node2&#45;&gt;Node3</title>
<path fill="none" stroke="midnightblue" d="M326.832,-107.97C350.101,-117.655 379.328,-129.214 406,-138 416.691,-141.522 428.184,-144.889 439.354,-147.948"/>
<polygon fill="midnightblue" stroke="midnightblue" points="328.151,-104.728 317.575,-104.085 325.442,-111.182 328.151,-104.728"/>
</g>
<!-- Node5 -->
<g id="node5" class="node"><title>Node5</title>
<g id="a_node5"><a xlink:href="../../dc/d21/classgames_1_1_mario_game_test.html#aab9eed35cd4d8ae1d108ae914b6a73ff" target="_top" xlink:title="games.MarioGameTest.create\lGameObject">
<polygon fill="white" stroke="black" points="421.5,-99 421.5,-129 582.5,-129 582.5,-99 421.5,-99"/>
<text text-anchor="start" x="429.5" y="-117" font-family="Helvetica,sans-Serif" font-size="10.00">games.MarioGameTest.create</text>
<text text-anchor="middle" x="502" y="-106" font-family="Helvetica,sans-Serif" font-size="10.00">GameObject</text>
</a>
</g>
</g>
<!-- Node2&#45;&gt;Node5 -->
<g id="edge4" class="edge"><title>Node2&#45;&gt;Node5</title>
<path fill="none" stroke="midnightblue" d="M380.108,-100.136C393.933,-101.722 408.017,-103.337 421.455,-104.878"/>
<polygon fill="midnightblue" stroke="midnightblue" points="380.433,-96.6506 370.099,-98.9884 379.635,-103.605 380.433,-96.6506"/>
</g>
<!-- Node7 -->
<g id="node7" class="node"><title>Node7</title>
<g id="a_node7"><a xlink:href="../../da/d8d/classauthoring_1_1view_1_1propertiesview_1_1_game_object_properties.html#a6f1aeaddb6956053690488c8ddaa38ba" target="_top" xlink:title="authoring.view.propertiesview.\lGameObjectProperties.edit">
<polygon fill="white" stroke="black" points="422.5,-50 422.5,-80 581.5,-80 581.5,-50 422.5,-50"/>
<text text-anchor="start" x="430.5" y="-68" font-family="Helvetica,sans-Serif" font-size="10.00">authoring.view.propertiesview.</text>
<text text-anchor="middle" x="502" y="-57" font-family="Helvetica,sans-Serif" font-size="10.00">GameObjectProperties.edit</text>
</a>
</g>
</g>
<!-- Node2&#45;&gt;Node7 -->
<g id="edge7" class="edge"><title>Node2&#45;&gt;Node7</title>
<path fill="none" stroke="midnightblue" d="M380.249,-78.2937C394.269,-76.7502 408.553,-75.1777 422.156,-73.6801"/>
<polygon fill="midnightblue" stroke="midnightblue" points="379.656,-74.8377 370.099,-79.4111 380.422,-81.7957 379.656,-74.8377"/>
</g>
<!-- Node11 -->
<g id="node11" class="node"><title>Node11</title>
<g id="a_node11"><a xlink:href="../../df/d71/classengine_1_1tests_1_1_physics_body_testing.html#a972062e773bb78d10114b5c8d0ee9be3" target="_top" xlink:title="engine.tests.PhysicsBody\lTesting.main">
<polygon fill="white" stroke="black" points="433,-1 433,-31 571,-31 571,-1 433,-1"/>
<text text-anchor="start" x="441" y="-19" font-family="Helvetica,sans-Serif" font-size="10.00">engine.tests.PhysicsBody</text>
<text text-anchor="middle" x="502" y="-8" font-family="Helvetica,sans-Serif" font-size="10.00">Testing.main</text>
</a>
</g>
</g>
<!-- Node2&#45;&gt;Node11 -->
<g id="edge11" class="edge"><title>Node2&#45;&gt;Node11</title>
<path fill="none" stroke="midnightblue" d="M327.932,-70.0349C351.033,-60.6509 379.776,-49.5364 406,-41 416.784,-37.4896 428.376,-34.1159 439.629,-31.045"/>
<polygon fill="midnightblue" stroke="midnightblue" points="326.328,-66.9094 318.401,-73.9381 328.981,-73.3873 326.328,-66.9094"/>
</g>
<!-- Node4 -->
<g id="node4" class="node"><title>Node4</title>
<g id="a_node4"><a xlink:href="../../d7/d00/classengine_1_1tests_1_1_main_engine_tests.html#ad1e78dcd3453ebdeb09141cba734c133" target="_top" xlink:title="engine.tests.MainEngineTests.start">
<polygon fill="white" stroke="black" points="640.5,-153.5 640.5,-172.5 823.5,-172.5 823.5,-153.5 640.5,-153.5"/>
<text text-anchor="middle" x="732" y="-160.5" font-family="Helvetica,sans-Serif" font-size="10.00">engine.tests.MainEngineTests.start</text>
</a>
</g>
</g>
<!-- Node3&#45;&gt;Node4 -->
<g id="edge3" class="edge"><title>Node3&#45;&gt;Node4</title>
<path fill="none" stroke="midnightblue" d="M607.993,-163C618.764,-163 629.643,-163 640.242,-163"/>
<polygon fill="midnightblue" stroke="midnightblue" points="607.712,-159.5 597.712,-163 607.712,-166.5 607.712,-159.5"/>
</g>
<!-- Node6 -->
<g id="node6" class="node"><title>Node6</title>
<g id="a_node6"><a xlink:href="../../dc/d21/classgames_1_1_mario_game_test.html#a8b7c287ffdfcacefeb373e7430a608c8" target="_top" xlink:title="games.MarioGameTest.start">
<polygon fill="white" stroke="black" points="656,-104.5 656,-123.5 808,-123.5 808,-104.5 656,-104.5"/>
<text text-anchor="middle" x="732" y="-111.5" font-family="Helvetica,sans-Serif" font-size="10.00">games.MarioGameTest.start</text>
</a>
</g>
</g>
<!-- Node5&#45;&gt;Node6 -->
<g id="edge5" class="edge"><title>Node5&#45;&gt;Node6</title>
<path fill="none" stroke="midnightblue" d="M592.883,-107.386C613.748,-107.147 635.743,-107.223 655.895,-107.612"/>
<polygon fill="midnightblue" stroke="midnightblue" points="592.693,-103.888 582.743,-107.529 592.792,-110.888 592.693,-103.888"/>
</g>
<!-- Node6&#45;&gt;Node5 -->
<g id="edge6" class="edge"><title>Node6&#45;&gt;Node5</title>
<path fill="none" stroke="midnightblue" d="M645.867,-120.554C625.191,-120.84 603.159,-120.813 582.743,-120.471"/>
<polygon fill="midnightblue" stroke="midnightblue" points="645.954,-124.053 655.895,-120.388 645.839,-117.054 645.954,-124.053"/>
</g>
<!-- Node8 -->
<g id="node8" class="node"><title>Node8</title>
<g id="a_node8"><a xlink:href="../../d4/d9e/classauthoring_1_1view_1_1propertiesview_1_1_properties_view.html#aeed3bf20185eabcf870ee4c649bc1d4e" target="_top" xlink:title="authoring.view.propertiesview.\lPropertiesView.getEditedGameObject">
<polygon fill="white" stroke="black" points="634.5,-50 634.5,-80 829.5,-80 829.5,-50 634.5,-50"/>
<text text-anchor="start" x="642.5" y="-68" font-family="Helvetica,sans-Serif" font-size="10.00">authoring.view.propertiesview.</text>
<text text-anchor="middle" x="732" y="-57" font-family="Helvetica,sans-Serif" font-size="10.00">PropertiesView.getEditedGameObject</text>
</a>
</g>
</g>
<!-- Node7&#45;&gt;Node8 -->
<g id="edge8" class="edge"><title>Node7&#45;&gt;Node8</title>
<path fill="none" stroke="midnightblue" d="M592.186,-65C605.936,-65 620.193,-65 634.102,-65"/>
<polygon fill="midnightblue" stroke="midnightblue" points="591.784,-61.5001 581.784,-65 591.784,-68.5001 591.784,-61.5001"/>
</g>
<!-- Node9 -->
<g id="node9" class="node"><title>Node9</title>
<g id="a_node9"><a xlink:href="../../d6/df5/classauthoring_1_1eventhandlers_1_1_edit_game_object_handler.html#ac0a03e6b751068903df50296d9f1fbd7" target="_top" xlink:title="authoring.eventhandlers.\lEditGameObjectHandler.handle">
<polygon fill="white" stroke="black" points="866.5,-75 866.5,-105 1033.5,-105 1033.5,-75 866.5,-75"/>
<text text-anchor="start" x="874.5" y="-93" font-family="Helvetica,sans-Serif" font-size="10.00">authoring.eventhandlers.</text>
<text text-anchor="middle" x="950" y="-82" font-family="Helvetica,sans-Serif" font-size="10.00">EditGameObjectHandler.handle</text>
</a>
</g>
</g>
<!-- Node8&#45;&gt;Node9 -->
<g id="edge9" class="edge"><title>Node8&#45;&gt;Node9</title>
<path fill="none" stroke="midnightblue" d="M839.703,-77.3499C848.642,-78.3845 857.593,-79.4205 866.311,-80.4296"/>
<polygon fill="midnightblue" stroke="midnightblue" points="839.964,-73.8568 829.628,-76.1838 839.159,-80.8104 839.964,-73.8568"/>
</g>
<!-- Node10 -->
<g id="node10" class="node"><title>Node10</title>
<g id="a_node10"><a xlink:href="../../df/d81/classauthoring_1_1eventhandlers_1_1_save_as_new_handler.html#a912458649a9a99cded7c346f9d8b40f5" target="_top" xlink:title="authoring.eventhandlers.\lSaveAsNewHandler.handle">
<polygon fill="white" stroke="black" points="877.5,-26 877.5,-56 1022.5,-56 1022.5,-26 877.5,-26"/>
<text text-anchor="start" x="885.5" y="-44" font-family="Helvetica,sans-Serif" font-size="10.00">authoring.eventhandlers.</text>
<text text-anchor="middle" x="950" y="-33" font-family="Helvetica,sans-Serif" font-size="10.00">SaveAsNewHandler.handle</text>
</a>
</g>
</g>
<!-- Node8&#45;&gt;Node10 -->
<g id="edge10" class="edge"><title>Node8&#45;&gt;Node10</title>
<path fill="none" stroke="midnightblue" d="M839.825,-53.1306C852.561,-51.7154 865.32,-50.2978 877.392,-48.9565"/>
<polygon fill="midnightblue" stroke="midnightblue" points="839.18,-49.6805 829.628,-54.2635 839.954,-56.6377 839.18,-49.6805"/>
</g>
</g>
</svg>
        <g id="navigator" transform="translate(0 0)" fill="#404254">
                <rect fill="#f2f5e9" fill-opacity="0.5" stroke="#606060" stroke-width=".5" x="0" y="0" width="60" height="60"/>
                <use id="zoomplus" xlink:href="#zoomPlus" x="17" y="9" onmousedown="handleZoom(evt,'in')"/>
                <use id="zoomminus" xlink:href="#zoomMin" x="42" y="9" onmousedown="handleZoom(evt,'out')"/>
                <use id="reset" xlink:href="#resetDef" x="30" y="36" onmousedown="handleReset()"/>
                <g id="arrowUp" xlink:href="#dirArrow" transform="translate(30 24)" onmousedown="handlePan(0,-1)">
                  <use xlink:href="#rim" fill="#404040">
                        <set attributeName="fill" to="#808080" begin="arrowUp.mouseover" end="arrowUp.mouseout"/>
                  </use>
                  <path fill="none" stroke="white" stroke-width="1.5" d="M0,-3.0v7 M-2.5,-0.5L0,-3.0L2.5,-0.5"/>
                </g>
                <g id="arrowRight" xlink:href="#dirArrow" transform="rotate(90) translate(36 -43)" onmousedown="handlePan(1,0)">
                  <use xlink:href="#rim" fill="#404040">
                        <set attributeName="fill" to="#808080" begin="arrowRight.mouseover" end="arrowRight.mouseout"/>
                  </use>
                  <path fill="none" stroke="white" stroke-width="1.5" d="M0,-3.0v7 M-2.5,-0.5L0,-3.0L2.5,-0.5"/>
                </g>
                <g id="arrowDown" xlink:href="#dirArrow" transform="rotate(180) translate(-30 -48)" onmousedown="handlePan(0,1)">
                  <use xlink:href="#rim" fill="#404040">
                        <set attributeName="fill" to="#808080" begin="arrowDown.mouseover" end="arrowDown.mouseout"/>
                  </use>
                  <path fill="none" stroke="white" stroke-width="1.5" d="M0,-3.0v7 M-2.5,-0.5L0,-3.0L2.5,-0.5"/>
                </g>
                <g id="arrowLeft" xlink:href="#dirArrow" transform="rotate(270) translate(-36 17)" onmousedown="handlePan(-1,0)">
                  <use xlink:href="#rim" fill="#404040">
                        <set attributeName="fill" to="#808080" begin="arrowLeft.mouseover" end="arrowLeft.mouseout"/>
                  </use>
                  <path fill="none" stroke="white" stroke-width="1.5" d="M0,-3.0v7 M-2.5,-0.5L0,-3.0L2.5,-0.5"/>
                </g>
        </g>
        <svg viewBox="0 0 15 15" width="100%" height="30px" preserveAspectRatio="xMaxYMin meet">
         <g id="arrow_out" transform="scale(0.3 0.3)">
          <a xlink:href="classengine_1_1physics_1_1_scalar_afc6c4f29d09315850a328bb532d4bc35_icgraph_org.svg" target="_base">
           <rect id="button" ry="5" rx="5" y="6" x="6" height="38" width="38"
                fill="#f2f5e9" fill-opacity="0.5" stroke="#606060" stroke-width="1.0"/>
           <path id="arrow"
             d="M 11.500037,31.436501 C 11.940474,20.09759 22.043105,11.32322 32.158766,21.979434 L 37.068811,17.246167 C 37.068811,17.246167 37.088388,32 37.088388,32 L 22.160133,31.978069 C 22.160133,31.978069 26.997745,27.140456 26.997745,27.140456 C 18.528582,18.264221 13.291696,25.230495 11.500037,31.436501 z"
             style="fill:#404040;"/>
          </a>
         </g>
        </svg>
</svg>
