<?xml version="1.0" encoding="UTF-8" standalone="no"?>
<!DOCTYPE svg PUBLIC "-//W3C//DTD SVG 1.1//EN"
 "http://www.w3.org/Graphics/SVG/1.1/DTD/svg11.dtd">
<!-- Generated by graphviz version 2.36.0 (20140111.2315)
 -->
<!-- Title: engine.actions.XImpulseTypeAction Pages: 1 -->
<svg width="188pt" height="220pt"
 viewBox="0.00 0.00 188.00 220.00" xmlns="http://www.w3.org/2000/svg" xmlns:xlink="http://www.w3.org/1999/xlink">
<g id="graph0" class="graph" transform="scale(1 1) rotate(0) translate(4 216)">
<title>engine.actions.XImpulseTypeAction</title>
<polygon fill="white" stroke="none" points="-4,4 -4,-216 184,-216 184,4 -4,4"/>
<!-- Node1 -->
<g id="node1" class="node"><title>Node1</title>
<polygon fill="#bfbfbf" stroke="black" points="0,-1 0,-31 154,-31 154,-1 0,-1"/>
<text text-anchor="start" x="8" y="-19" font-family="Helvetica,sans-Serif" font-size="10.00">engine.actions.XImpulseType</text>
<text text-anchor="middle" x="77" y="-8" font-family="Helvetica,sans-Serif" font-size="10.00">Action</text>
</g>
<!-- Node2 -->
<g id="node2" class="node"><title>Node2</title>
<g id="a_node2"><a xlink:href="../../d0/d0d/classengine_1_1actions_1_1_physics_type_action.html" target="_top" xlink:title="engine.actions.PhysicsType\lAction">
<polygon fill="white" stroke="black" points="4,-69 4,-99 150,-99 150,-69 4,-69"/>
<text text-anchor="start" x="12" y="-87" font-family="Helvetica,sans-Serif" font-size="10.00">engine.actions.PhysicsType</text>
<text text-anchor="middle" x="77" y="-76" font-family="Helvetica,sans-Serif" font-size="10.00">Action</text>
</a>
</g>
</g>
<!-- Node2&#45;&gt;Node1 -->
<g id="edge1" class="edge"><title>Node2&#45;&gt;Node1</title>
<path fill="none" stroke="midnightblue" d="M77,-58.5322C77,-49.3606 77,-39.2449 77,-31.2931"/>
<polygon fill="midnightblue" stroke="midnightblue" points="73.5001,-58.6789 77,-68.679 80.5001,-58.679 73.5001,-58.6789"/>
</g>
<!-- Node3 -->
<g id="node3" class="node"><title>Node3</title>
<g id="a_node3"><a xlink:href="../../d9/dd2/interfaceengine_1_1actions_1_1_action.html" target="_top" xlink:title="engine.actions.Action">
<polygon fill="white" stroke="black" points="61.5,-136.5 61.5,-155.5 180.5,-155.5 180.5,-136.5 61.5,-136.5"/>
<text text-anchor="middle" x="121" y="-143.5" font-family="Helvetica,sans-Serif" font-size="10.00">engine.actions.Action</text>
</a>
</g>
</g>
<!-- Node3&#45;&gt;Node2 -->
<g id="edge2" class="edge"><title>Node3&#45;&gt;Node2</title>
<path fill="none" stroke="midnightblue" d="M108.611,-128.106C101.911,-118.97 93.7304,-107.814 87.3699,-99.1408"/>
<polygon fill="midnightblue" stroke="midnightblue" points="105.96,-130.409 114.696,-136.403 111.605,-126.27 105.96,-130.409"/>
</g>
<!-- Node4 -->
<g id="node4" class="node"><title>Node4</title>
<g id="a_node4"><a xlink:href="../../d2/d15/interfaceengine_1_1actions_1_1_initializable.html" target="_top" xlink:title="engine.actions.Initializable">
<polygon fill="white" stroke="black" points="6,-192.5 6,-211.5 148,-211.5 148,-192.5 6,-192.5"/>
<text text-anchor="middle" x="77" y="-199.5" font-family="Helvetica,sans-Serif" font-size="10.00">engine.actions.Initializable</text>
</a>
</g>
</g>
<!-- Node4&#45;&gt;Node2 -->
<g id="edge4" class="edge"><title>Node4&#45;&gt;Node2</title>
<path fill="none" stroke="midnightblue" d="M65.2432,-183.769C60.4366,-175.71 55.4387,-165.755 53,-156 47.9823,-135.929 58.4557,-113.401 67.113,-99.211"/>
<polygon fill="midnightblue" stroke="midnightblue" points="62.3091,-185.678 70.6332,-192.232 68.2134,-181.917 62.3091,-185.678"/>
</g>
<!-- Node4&#45;&gt;Node3 -->
<g id="edge3" class="edge"><title>Node4&#45;&gt;Node3</title>
<path fill="none" stroke="midnightblue" d="M90.7345,-184.144C98.4005,-174.736 107.633,-163.405 113.869,-155.751"/>
<polygon fill="midnightblue" stroke="midnightblue" points="87.8691,-182.12 84.2657,-192.083 93.2958,-186.541 87.8691,-182.12"/>
</g>
</g>
</svg>
