<?xml version="1.0" encoding="UTF-8" standalone="no"?>
<!DOCTYPE svg PUBLIC "-//W3C//DTD SVG 1.1//EN"
 "http://www.w3.org/Graphics/SVG/1.1/DTD/svg11.dtd">
<!-- Generated by graphviz version 2.36.0 (20140111.2315)
 -->
<!-- Title: authoring.view.levelview.LevelsAccordionView Pages: 1 -->
<svg width="832pt" height="217pt"
 viewBox="0.00 0.00 832.00 217.00" xmlns="http://www.w3.org/2000/svg" xmlns:xlink="http://www.w3.org/1999/xlink">
<g id="graph0" class="graph" transform="scale(1 1) rotate(0) translate(4 213)">
<title>authoring.view.levelview.LevelsAccordionView</title>
<polygon fill="white" stroke="none" points="-4,4 -4,-213 828,-213 828,4 -4,4"/>
<!-- Node1 -->
<g id="node1" class="node"><title>Node1</title>
<polygon fill="#bfbfbf" stroke="black" points="692,-56 692,-86 824,-86 824,-56 692,-56"/>
<text text-anchor="start" x="700" y="-74" font-family="Helvetica,sans-Serif" font-size="10.00">authoring.view.levelview.</text>
<text text-anchor="middle" x="758" y="-63" font-family="Helvetica,sans-Serif" font-size="10.00">LevelsAccordionView</text>
</g>
<!-- Node2 -->
<g id="node2" class="node"><title>Node2</title>
<g id="a_node2"><a xlink:href="../../de/d93/classauthoring_1_1view_1_1baseclasses_1_1_collection_view.html" target="_top" xlink:title="authoring.view.baseclasses.\lCollectionView">
<polygon fill="white" stroke="black" points="462.5,-140 462.5,-170 611.5,-170 611.5,-140 462.5,-140"/>
<text text-anchor="start" x="470.5" y="-158" font-family="Helvetica,sans-Serif" font-size="10.00">authoring.view.baseclasses.</text>
<text text-anchor="middle" x="537" y="-147" font-family="Helvetica,sans-Serif" font-size="10.00">CollectionView</text>
</a>
</g>
</g>
<!-- Node2&#45;&gt;Node1 -->
<g id="edge1" class="edge"><title>Node2&#45;&gt;Node1</title>
<path fill="none" stroke="midnightblue" d="M594.196,-136.798C618.861,-128.496 648.051,-118.245 674,-108 691.022,-101.279 709.66,-93.0522 724.954,-86.0639"/>
<polygon fill="midnightblue" stroke="midnightblue" points="593.005,-133.505 584.631,-139.996 595.224,-140.144 593.005,-133.505"/>
</g>
<!-- Node3 -->
<g id="node3" class="node"><title>Node3</title>
<polygon fill="white" stroke="#bfbfbf" points="252,-189.5 252,-208.5 318,-208.5 318,-189.5 252,-189.5"/>
<text text-anchor="middle" x="285" y="-196.5" font-family="Helvetica,sans-Serif" font-size="10.00">ScrollPane</text>
</g>
<!-- Node3&#45;&gt;Node2 -->
<g id="edge2" class="edge"><title>Node3&#45;&gt;Node2</title>
<path fill="none" stroke="midnightblue" d="M328.439,-192.835C360.301,-188.073 404.971,-181.114 444,-174 450.819,-172.757 457.91,-171.403 464.994,-170.009"/>
<polygon fill="midnightblue" stroke="midnightblue" points="327.529,-189.432 318.151,-194.363 328.557,-196.356 327.529,-189.432"/>
</g>
<!-- Node4 -->
<g id="node4" class="node"><title>Node4</title>
<polygon fill="white" stroke="#bfbfbf" points="238.5,-151.5 238.5,-170.5 331.5,-170.5 331.5,-151.5 238.5,-151.5"/>
<text text-anchor="middle" x="285" y="-158.5" font-family="Helvetica,sans-Serif" font-size="10.00">ResourceBundle</text>
</g>
<!-- Node4&#45;&gt;Node2 -->
<g id="edge3" class="edge"><title>Node4&#45;&gt;Node2</title>
<path fill="none" stroke="#9a32cd" stroke-dasharray="5,2" d="M341.75,-159.662C377.287,-158.809 423.733,-157.694 462.298,-156.769"/>
<polygon fill="#9a32cd" stroke="#9a32cd" points="341.476,-156.167 331.563,-159.906 341.644,-163.165 341.476,-156.167"/>
<text text-anchor="middle" x="409" y="-162" font-family="Helvetica,sans-Serif" font-size="10.00"> myLanguage</text>
</g>
<!-- Node5 -->
<g id="node5" class="node"><title>Node5</title>
<g id="a_node5"><a xlink:href="../../d3/d6a/interfaceauthoring_1_1eventhandlers_1_1_game_handler.html" target="_top" xlink:title="authoring.eventhandlers.\lGameHandler\&lt; T extends\l Event \&gt;">
<polygon fill="white" stroke="black" points="214.5,-82.5 214.5,-123.5 355.5,-123.5 355.5,-82.5 214.5,-82.5"/>
<text text-anchor="start" x="222.5" y="-111.5" font-family="Helvetica,sans-Serif" font-size="10.00">authoring.eventhandlers.</text>
<text text-anchor="start" x="222.5" y="-100.5" font-family="Helvetica,sans-Serif" font-size="10.00">GameHandler&lt; T extends</text>
<text text-anchor="middle" x="285" y="-89.5" font-family="Helvetica,sans-Serif" font-size="10.00"> Event &gt;</text>
</a>
</g>
</g>
<!-- Node5&#45;&gt;Node1 -->
<g id="edge8" class="edge"><title>Node5&#45;&gt;Node1</title>
<path fill="none" stroke="#9a32cd" stroke-dasharray="5,2" d="M365.831,-97.5762C457.666,-91.3369 606.706,-81.2111 691.849,-75.4264"/>
<polygon fill="#9a32cd" stroke="#9a32cd" points="365.491,-94.0912 355.751,-98.2611 365.965,-101.075 365.491,-94.0912"/>
<text text-anchor="middle" x="537" y="-105" font-family="Helvetica,sans-Serif" font-size="10.00"> levelEvents</text>
<text text-anchor="middle" x="537" y="-94" font-family="Helvetica,sans-Serif" font-size="10.00">myEvents</text>
</g>
<!-- Node5&#45;&gt;Node2 -->
<g id="edge4" class="edge"><title>Node5&#45;&gt;Node2</title>
<path fill="none" stroke="#9a32cd" stroke-dasharray="5,2" d="M365.681,-119.574C397.128,-126.115 433,-133.576 463.687,-139.959"/>
<polygon fill="#9a32cd" stroke="#9a32cd" points="366.142,-116.095 355.639,-117.485 364.717,-122.948 366.142,-116.095"/>
<text text-anchor="middle" x="409" y="-139" font-family="Helvetica,sans-Serif" font-size="10.00"> myIconEvents</text>
</g>
<!-- Node6 -->
<g id="node6" class="node"><title>Node6</title>
<polygon fill="white" stroke="#bfbfbf" points="0,-93.5 0,-112.5 176,-112.5 176,-93.5 0,-93.5"/>
<text text-anchor="middle" x="88" y="-100.5" font-family="Helvetica,sans-Serif" font-size="10.00">javafx::event::EventHandler&lt; T &gt;</text>
</g>
<!-- Node6&#45;&gt;Node5 -->
<g id="edge5" class="edge"><title>Node6&#45;&gt;Node5</title>
<path fill="none" stroke="midnightblue" d="M186.449,-103C195.879,-103 205.309,-103 214.388,-103"/>
<polygon fill="midnightblue" stroke="midnightblue" points="186.234,-99.5001 176.234,-103 186.234,-106.5 186.234,-99.5001"/>
</g>
<!-- Node7 -->
<g id="node7" class="node"><title>Node7</title>
<g id="a_node7"><a xlink:href="../../d2/d4f/interfacedata_1_1_observer.html" target="_top" xlink:title="data.Observer">
<polygon fill="white" stroke="black" points="494.5,-38.5 494.5,-57.5 579.5,-57.5 579.5,-38.5 494.5,-38.5"/>
<text text-anchor="middle" x="537" y="-45.5" font-family="Helvetica,sans-Serif" font-size="10.00">data.Observer</text>
</a>
</g>
</g>
<!-- Node7&#45;&gt;Node1 -->
<g id="edge6" class="edge"><title>Node7&#45;&gt;Node1</title>
<path fill="none" stroke="midnightblue" d="M589.714,-53.4312C620.232,-56.6362 659.142,-60.7227 691.755,-64.1478"/>
<polygon fill="midnightblue" stroke="midnightblue" points="590.019,-49.944 579.708,-52.3803 589.287,-56.9057 590.019,-49.944"/>
</g>
<!-- Node8 -->
<g id="node8" class="node"><title>Node8</title>
<polygon fill="white" stroke="#bfbfbf" points="516.5,-0.5 516.5,-19.5 557.5,-19.5 557.5,-0.5 516.5,-0.5"/>
<text text-anchor="middle" x="537" y="-7.5" font-family="Helvetica,sans-Serif" font-size="10.00">VBox</text>
</g>
<!-- Node8&#45;&gt;Node1 -->
<g id="edge7" class="edge"><title>Node8&#45;&gt;Node1</title>
<path fill="none" stroke="#9a32cd" stroke-dasharray="5,2" d="M567.779,-16.8151C595.439,-23.2939 637.702,-33.5724 674,-44 686.671,-47.6399 700.315,-51.9242 712.808,-55.9944"/>
<polygon fill="#9a32cd" stroke="#9a32cd" points="568.469,-13.3822 557.936,-14.5256 566.883,-20.2002 568.469,-13.3822"/>
<text text-anchor="middle" x="652" y="-47" font-family="Helvetica,sans-Serif" font-size="10.00"> myVbox</text>
</g>
</g>
</svg>
