<?xml version="1.0" encoding="UTF-8" standalone="no"?>
<!DOCTYPE svg PUBLIC "-//W3C//DTD SVG 1.1//EN"
 "http://www.w3.org/Graphics/SVG/1.1/DTD/svg11.dtd">
<!-- Generated by graphviz version 2.36.0 (20140111.2315)
 -->
<!-- Title: engine.actions.IDAction Pages: 1 -->
<svg width="668pt" height="126pt"
 viewBox="0.00 0.00 668.00 126.00" xmlns="http://www.w3.org/2000/svg" xmlns:xlink="http://www.w3.org/1999/xlink">
<g id="graph0" class="graph" transform="scale(1 1) rotate(0) translate(4 122)">
<title>engine.actions.IDAction</title>
<polygon fill="white" stroke="none" points="-4,4 -4,-122 664,-122 664,4 -4,4"/>
<!-- Node1 -->
<g id="node1" class="node"><title>Node1</title>
<polygon fill="#bfbfbf" stroke="black" points="334.5,-54.5 334.5,-73.5 463.5,-73.5 463.5,-54.5 334.5,-54.5"/>
<text text-anchor="middle" x="399" y="-61.5" font-family="Helvetica,sans-Serif" font-size="10.00">engine.actions.IDAction</text>
</g>
<!-- Node4 -->
<g id="node4" class="node"><title>Node4</title>
<g id="a_node4"><a xlink:href="../../df/d4c/classengine_1_1actions_1_1_delete_id_action.html" target="_top" xlink:title="engine.actions.DeleteIdAction">
<polygon fill="white" stroke="black" points="500.5,-98.5 500.5,-117.5 659.5,-117.5 659.5,-98.5 500.5,-98.5"/>
<text text-anchor="middle" x="580" y="-105.5" font-family="Helvetica,sans-Serif" font-size="10.00">engine.actions.DeleteIdAction</text>
</a>
</g>
</g>
<!-- Node1&#45;&gt;Node4 -->
<g id="edge4" class="edge"><title>Node1&#45;&gt;Node4</title>
<path fill="none" stroke="midnightblue" d="M448.692,-75.969C477.464,-83.0414 513.395,-91.8736 540.235,-98.4713"/>
<polygon fill="midnightblue" stroke="midnightblue" points="449.387,-72.5356 438.84,-73.5473 447.716,-79.3333 449.387,-72.5356"/>
</g>
<!-- Node5 -->
<g id="node5" class="node"><title>Node5</title>
<g id="a_node5"><a xlink:href="../../d5/da2/classengine_1_1actions_1_1render_1_1_change_image_i_d_action.html" target="_top" xlink:title="engine.actions.render.Change\lImageIDAction">
<polygon fill="white" stroke="black" points="500,-49 500,-79 660,-79 660,-49 500,-49"/>
<text text-anchor="start" x="508" y="-67" font-family="Helvetica,sans-Serif" font-size="10.00">engine.actions.render.Change</text>
<text text-anchor="middle" x="580" y="-56" font-family="Helvetica,sans-Serif" font-size="10.00">ImageIDAction</text>
</a>
</g>
</g>
<!-- Node1&#45;&gt;Node5 -->
<g id="edge5" class="edge"><title>Node1&#45;&gt;Node5</title>
<path fill="none" stroke="midnightblue" d="M473.667,-64C482.329,-64 491.196,-64 499.928,-64"/>
<polygon fill="midnightblue" stroke="midnightblue" points="473.613,-60.5001 463.613,-64 473.613,-67.5001 473.613,-60.5001"/>
</g>
<!-- Node6 -->
<g id="node6" class="node"><title>Node6</title>
<g id="a_node6"><a xlink:href="../../df/de5/classengine_1_1actions_1_1_rotate_image_i_d_action.html" target="_top" xlink:title="engine.actions.RotateImage\lIDAction">
<polygon fill="white" stroke="black" points="505,-0 505,-30 655,-30 655,-0 505,-0"/>
<text text-anchor="start" x="513" y="-18" font-family="Helvetica,sans-Serif" font-size="10.00">engine.actions.RotateImage</text>
<text text-anchor="middle" x="580" y="-7" font-family="Helvetica,sans-Serif" font-size="10.00">IDAction</text>
</a>
</g>
</g>
<!-- Node1&#45;&gt;Node6 -->
<g id="edge6" class="edge"><title>Node1&#45;&gt;Node6</title>
<path fill="none" stroke="midnightblue" d="M444.851,-51.7224C468.874,-45.1463 498.666,-36.9908 524.069,-30.037"/>
<polygon fill="midnightblue" stroke="midnightblue" points="443.659,-48.4198 434.938,-54.436 445.507,-55.1714 443.659,-48.4198"/>
</g>
<!-- Node2 -->
<g id="node2" class="node"><title>Node2</title>
<g id="a_node2"><a xlink:href="../../d9/dd2/interfaceengine_1_1actions_1_1_action.html" target="_top" xlink:title="engine.actions.Action">
<polygon fill="white" stroke="black" points="178.5,-35.5 178.5,-54.5 297.5,-54.5 297.5,-35.5 178.5,-35.5"/>
<text text-anchor="middle" x="238" y="-42.5" font-family="Helvetica,sans-Serif" font-size="10.00">engine.actions.Action</text>
</a>
</g>
</g>
<!-- Node2&#45;&gt;Node1 -->
<g id="edge1" class="edge"><title>Node2&#45;&gt;Node1</title>
<path fill="none" stroke="midnightblue" d="M307.964,-53.2409C316.751,-54.291 325.714,-55.3621 334.412,-56.4014"/>
<polygon fill="midnightblue" stroke="midnightblue" points="308.099,-49.7323 297.754,-52.0209 307.268,-56.6828 308.099,-49.7323"/>
</g>
<!-- Node3 -->
<g id="node3" class="node"><title>Node3</title>
<g id="a_node3"><a xlink:href="../../d2/d15/interfaceengine_1_1actions_1_1_initializable.html" target="_top" xlink:title="engine.actions.Initializable">
<polygon fill="white" stroke="black" points="0,-54.5 0,-73.5 142,-73.5 142,-54.5 0,-54.5"/>
<text text-anchor="middle" x="71" y="-61.5" font-family="Helvetica,sans-Serif" font-size="10.00">engine.actions.Initializable</text>
</a>
</g>
</g>
<!-- Node3&#45;&gt;Node1 -->
<g id="edge3" class="edge"><title>Node3&#45;&gt;Node1</title>
<path fill="none" stroke="midnightblue" d="M152.595,-64C208.692,-64 282.457,-64 334.416,-64"/>
<polygon fill="midnightblue" stroke="midnightblue" points="152.336,-60.5001 142.336,-64 152.336,-67.5001 152.336,-60.5001"/>
</g>
<!-- Node3&#45;&gt;Node2 -->
<g id="edge2" class="edge"><title>Node3&#45;&gt;Node2</title>
<path fill="none" stroke="midnightblue" d="M152.638,-54.7145C161.344,-53.7119 170.077,-52.7062 178.451,-51.742"/>
<polygon fill="midnightblue" stroke="midnightblue" points="151.987,-51.2661 142.453,-55.8872 152.788,-58.2202 151.987,-51.2661"/>
</g>
</g>
</svg>
