<?xml version="1.0" encoding="UTF-8" standalone="no"?>
<!DOCTYPE svg PUBLIC "-//W3C//DTD SVG 1.1//EN"
 "http://www.w3.org/Graphics/SVG/1.1/DTD/svg11.dtd">
<!-- Generated by graphviz version 2.36.0 (20140111.2315)
 -->
<!-- Title: engine.actions.ChangeLevelAction Pages: 1 -->
<!--zoomable 520 -->
<svg id="main" version="1.1" xmlns="http://www.w3.org/2000/svg" xmlns:xlink="http://www.w3.org/1999/xlink" xml:space="preserve" onload="init(evt)">
<style type="text/css"><![CDATA[
.edge:hover path { stroke: red; }
.edge:hover polygon { stroke: red; fill: red; }
]]></style>
<script type="text/javascript"><![CDATA[
var edges = document.getElementsByTagName('g');
if (edges && edges.length) {
  for (var i=0;i<edges.length;i++) {
    if (edges[i].id.substr(0,4)=='edge') {
      edges[i].setAttribute('class','edge');
    }
  }
}
]]></script>
        <defs>
                <circle id="rim" cx="0" cy="0" r="7"/>
                <circle id="rim2" cx="0" cy="0" r="3.5"/>
                <g id="zoomPlus">
                        <use xlink:href="#rim" fill="#404040">
                                <set attributeName="fill" to="#808080" begin="zoomplus.mouseover" end="zoomplus.mouseout"/>
                        </use>
                        <path d="M-4,0h8M0,-4v8" fill="none" stroke="white" stroke-width="1.5" pointer-events="none"/>
                </g>
                <g id="zoomMin">
                        <use xlink:href="#rim" fill="#404040">
                                <set attributeName="fill" to="#808080" begin="zoomminus.mouseover" end="zoomminus.mouseout"/>
                        </use>
                        <path d="M-4,0h8" fill="none" stroke="white" stroke-width="1.5" pointer-events="none"/>
                </g>
                <g id="dirArrow">
                        <path fill="none" stroke="white" stroke-width="1.5" d="M0,-3.0v7 M-2.5,-0.5L0,-3.0L2.5,-0.5"/>
                </g>
               <g id="resetDef">
                       <use xlink:href="#rim2" fill="#404040">
                               <set attributeName="fill" to="#808080" begin="reset.mouseover" end="reset.mouseout"/>
                       </use>
               </g>
        </defs>

<script type="text/javascript">
var viewWidth = 1558;
var viewHeight = 520;
var sectionId = 'dynsection-1';
</script>
<script xlink:href="../../svgpan.js"/>
<svg id="graph" class="graph">
<g id="viewport">
<title>engine.actions.ChangeLevelAction</title>
<polygon fill="white" stroke="none" points="-4,4 -4,-516 1554,-516 1554,4 -4,4"/>
<!-- Node1 -->
<g id="node1" class="node"><title>Node1</title>
<polygon fill="#bfbfbf" stroke="black" points="1398.5,-442 1398.5,-472 1549.5,-472 1549.5,-442 1398.5,-442"/>
<text text-anchor="start" x="1406.5" y="-460" font-family="Helvetica,sans-Serif" font-size="10.00">engine.actions.ChangeLevel</text>
<text text-anchor="middle" x="1474" y="-449" font-family="Helvetica,sans-Serif" font-size="10.00">Action</text>
</g>
<!-- Node2 -->
<g id="node2" class="node"><title>Node2</title>
<g id="a_node2"><a xlink:href="../../d9/dd2/interfaceengine_1_1actions_1_1_action.html" target="_top" xlink:title="engine.actions.Action">
<polygon fill="white" stroke="black" points="1144.5,-469.5 1144.5,-488.5 1263.5,-488.5 1263.5,-469.5 1144.5,-469.5"/>
<text text-anchor="middle" x="1204" y="-476.5" font-family="Helvetica,sans-Serif" font-size="10.00">engine.actions.Action</text>
</a>
</g>
</g>
<!-- Node2&#45;&gt;Node1 -->
<g id="edge1" class="edge"><title>Node2&#45;&gt;Node1</title>
<path fill="none" stroke="midnightblue" d="M1273.81,-473.352C1311.97,-470.219 1359.45,-466.321 1398.49,-463.117"/>
<polygon fill="midnightblue" stroke="midnightblue" points="1273.49,-469.866 1263.81,-474.172 1274.07,-476.842 1273.49,-469.866"/>
</g>
<!-- Node3 -->
<g id="node3" class="node"><title>Node3</title>
<g id="a_node3"><a xlink:href="../../d2/d15/interfaceengine_1_1actions_1_1_initializable.html" target="_top" xlink:title="engine.actions.Initializable">
<polygon fill="white" stroke="black" points="869,-492.5 869,-511.5 1011,-511.5 1011,-492.5 869,-492.5"/>
<text text-anchor="middle" x="940" y="-499.5" font-family="Helvetica,sans-Serif" font-size="10.00">engine.actions.Initializable</text>
</a>
</g>
</g>
<!-- Node3&#45;&gt;Node1 -->
<g id="edge3" class="edge"><title>Node3&#45;&gt;Node1</title>
<path fill="none" stroke="midnightblue" d="M1021.06,-506.046C1109.81,-508.759 1256.72,-507.971 1380,-482 1393.42,-479.174 1407.78,-475.593 1421.11,-472.031"/>
<polygon fill="midnightblue" stroke="midnightblue" points="1021.17,-502.547 1011.07,-505.717 1020.95,-509.544 1021.17,-502.547"/>
</g>
<!-- Node3&#45;&gt;Node2 -->
<g id="edge2" class="edge"><title>Node3&#45;&gt;Node2</title>
<path fill="none" stroke="midnightblue" d="M1021.38,-494.944C1060.99,-491.466 1107.9,-487.348 1144.13,-484.168"/>
<polygon fill="midnightblue" stroke="midnightblue" points="1020.87,-491.475 1011.21,-495.836 1021.48,-498.448 1020.87,-491.475"/>
</g>
<!-- Node4 -->
<g id="node4" class="node"><title>Node4</title>
<g id="a_node4"><a xlink:href="../../df/d67/classengine_1_1level_1_1_level_manager.html" target="_top" xlink:title="engine.level.LevelManager">
<polygon fill="white" stroke="black" points="1132.5,-197.5 1132.5,-216.5 1275.5,-216.5 1275.5,-197.5 1132.5,-197.5"/>
<text text-anchor="middle" x="1204" y="-204.5" font-family="Helvetica,sans-Serif" font-size="10.00">engine.level.LevelManager</text>
</a>
</g>
</g>
<!-- Node4&#45;&gt;Node1 -->
<g id="edge4" class="edge"><title>Node4&#45;&gt;Node1</title>
<path fill="none" stroke="#9a32cd" stroke-dasharray="5,2" d="M1222.89,-223.691C1272.21,-269.691 1409.54,-397.798 1456.79,-441.874"/>
<polygon fill="#9a32cd" stroke="#9a32cd" points="1225.21,-221.062 1215.51,-216.8 1220.43,-226.181 1225.21,-221.062"/>
<text text-anchor="middle" x="1337" y="-372" font-family="Helvetica,sans-Serif" font-size="10.00"> myLevelManager</text>
</g>
<!-- Node5 -->
<g id="node5" class="node"><title>Node5</title>
<polygon fill="white" stroke="#bfbfbf" points="890,-215.5 890,-234.5 990,-234.5 990,-215.5 890,-215.5"/>
<text text-anchor="middle" x="940" y="-222.5" font-family="Helvetica,sans-Serif" font-size="10.00">Iterable&lt; Level &gt;</text>
</g>
<!-- Node5&#45;&gt;Node4 -->
<g id="edge5" class="edge"><title>Node5&#45;&gt;Node4</title>
<path fill="none" stroke="midnightblue" d="M1000.46,-220.915C1039.57,-218.228 1090.95,-214.698 1132.18,-211.865"/>
<polygon fill="midnightblue" stroke="midnightblue" points="1000.02,-217.437 990.28,-221.614 1000.5,-224.421 1000.02,-217.437"/>
</g>
<!-- Node6 -->
<g id="node6" class="node"><title>Node6</title>
<g id="a_node6"><a xlink:href="../../df/de5/classauthoring_1_1model_1_1collections_1_1_levels_collection.html" target="_top" xlink:title="authoring.model.collections.\lLevelsCollection">
<polygon fill="white" stroke="black" points="570,-366 570,-396 722,-396 722,-366 570,-366"/>
<text text-anchor="start" x="578" y="-384" font-family="Helvetica,sans-Serif" font-size="10.00">authoring.model.collections.</text>
<text text-anchor="middle" x="646" y="-373" font-family="Helvetica,sans-Serif" font-size="10.00">LevelsCollection</text>
</a>
</g>
</g>
<!-- Node6&#45;&gt;Node4 -->
<g id="edge6" class="edge"><title>Node6&#45;&gt;Node4</title>
<path fill="none" stroke="#9a32cd" stroke-dasharray="5,2" d="M732.483,-386.265C767.859,-386.862 809.148,-385.503 846,-379 971.046,-356.933 1004.63,-344.504 1114,-280 1145.67,-261.321 1177.79,-231.781 1193.36,-216.642"/>
<polygon fill="#9a32cd" stroke="#9a32cd" points="732.265,-382.759 722.189,-386.034 732.108,-389.757 732.265,-382.759"/>
<text text-anchor="middle" x="940" y="-379" font-family="Helvetica,sans-Serif" font-size="10.00"> myLevels</text>
</g>
<!-- Node20 -->
<g id="node20" class="node"><title>Node20</title>
<g id="a_node20"><a xlink:href="../../da/d90/classengine_1_1sound_1_1_sound_utility.html" target="_top" xlink:title="engine.sound.SoundUtility">
<polygon fill="white" stroke="black" points="869,-290.5 869,-309.5 1011,-309.5 1011,-290.5 869,-290.5"/>
<text text-anchor="middle" x="940" y="-297.5" font-family="Helvetica,sans-Serif" font-size="10.00">engine.sound.SoundUtility</text>
</a>
</g>
</g>
<!-- Node6&#45;&gt;Node20 -->
<g id="edge23" class="edge"><title>Node6&#45;&gt;Node20</title>
<path fill="none" stroke="#9a32cd" stroke-dasharray="5,2" d="M731.924,-366.746C767.555,-359.823 809.183,-350.491 846,-339 871.905,-330.914 900.534,-318.323 919.091,-309.646"/>
<polygon fill="#9a32cd" stroke="#9a32cd" points="731.207,-363.319 722.042,-368.634 732.521,-370.195 731.207,-363.319"/>
<text text-anchor="middle" x="797" y="-367" font-family="Helvetica,sans-Serif" font-size="10.00"> myLevels</text>
</g>
<!-- Node7 -->
<g id="node7" class="node"><title>Node7</title>
<g id="a_node7"><a xlink:href="../../d4/d3b/classauthoring_1_1model_1_1collections_1_1_general_collection.html" target="_top" xlink:title="authoring.model.collections.\lGeneralCollection\&lt; Level \&gt;">
<polygon fill="white" stroke="black" points="249,-366 249,-396 401,-396 401,-366 249,-366"/>
<text text-anchor="start" x="257" y="-384" font-family="Helvetica,sans-Serif" font-size="10.00">authoring.model.collections.</text>
<text text-anchor="middle" x="325" y="-373" font-family="Helvetica,sans-Serif" font-size="10.00">GeneralCollection&lt; Level &gt;</text>
</a>
</g>
</g>
<!-- Node7&#45;&gt;Node6 -->
<g id="edge7" class="edge"><title>Node7&#45;&gt;Node6</title>
<path fill="none" stroke="midnightblue" d="M411.216,-381C460.588,-381 522.186,-381 569.758,-381"/>
<polygon fill="midnightblue" stroke="midnightblue" points="411.195,-377.5 401.195,-381 411.195,-384.5 411.195,-377.5"/>
</g>
<!-- Node8 -->
<g id="node8" class="node"><title>Node8</title>
<g id="a_node8"><a xlink:href="../../df/de5/classengine_1_1render_1_1_game_object_renderer.html" target="_top" xlink:title="engine.render.GameObject\lRenderer">
<polygon fill="white" stroke="black" points="867,-166 867,-196 1013,-196 1013,-166 867,-166"/>
<text text-anchor="start" x="875" y="-184" font-family="Helvetica,sans-Serif" font-size="10.00">engine.render.GameObject</text>
<text text-anchor="middle" x="940" y="-173" font-family="Helvetica,sans-Serif" font-size="10.00">Renderer</text>
</a>
</g>
</g>
<!-- Node8&#45;&gt;Node4 -->
<g id="edge8" class="edge"><title>Node8&#45;&gt;Node4</title>
<path fill="none" stroke="#9a32cd" stroke-dasharray="5,2" d="M1023.47,-189.184C1058.42,-192.653 1098.74,-196.654 1132.31,-199.985"/>
<polygon fill="#9a32cd" stroke="#9a32cd" points="1023.58,-185.678 1013.29,-188.173 1022.89,-192.644 1023.58,-185.678"/>
<text text-anchor="middle" x="1074" y="-201" font-family="Helvetica,sans-Serif" font-size="10.00"> myRenderer</text>
</g>
<!-- Node9 -->
<g id="node9" class="node"><title>Node9</title>
<polygon fill="white" stroke="#bfbfbf" points="570,-149 570,-179 722,-179 722,-149 570,-149"/>
<text text-anchor="start" x="578" y="-167" font-family="Helvetica,sans-Serif" font-size="10.00">Map&lt; String, engine.render.</text>
<text text-anchor="middle" x="646" y="-156" font-family="Helvetica,sans-Serif" font-size="10.00">RenderedNode &gt;</text>
</g>
<!-- Node9&#45;&gt;Node8 -->
<g id="edge9" class="edge"><title>Node9&#45;&gt;Node8</title>
<path fill="none" stroke="#9a32cd" stroke-dasharray="5,2" d="M732.505,-161.338C767.717,-161.045 808.881,-161.736 846,-165 852.773,-165.596 859.794,-166.418 866.804,-167.379"/>
<polygon fill="#9a32cd" stroke="#9a32cd" points="732.221,-157.841 722.261,-161.452 732.299,-164.841 732.221,-157.841"/>
<text text-anchor="middle" x="797" y="-168" font-family="Helvetica,sans-Serif" font-size="10.00"> myRenderedNodes</text>
</g>
<!-- Node10 -->
<g id="node10" class="node"><title>Node10</title>
<g id="a_node10"><a xlink:href="../../df/d84/classengine_1_1level_1_1_level.html" target="_top" xlink:title="engine.level.Level">
<polygon fill="white" stroke="black" points="595.5,-110.5 595.5,-129.5 696.5,-129.5 696.5,-110.5 595.5,-110.5"/>
<text text-anchor="middle" x="646" y="-117.5" font-family="Helvetica,sans-Serif" font-size="10.00">engine.level.Level</text>
</a>
</g>
</g>
<!-- Node10&#45;&gt;Node4 -->
<g id="edge21" class="edge"><title>Node10&#45;&gt;Node4</title>
<path fill="none" stroke="#9a32cd" stroke-dasharray="5,2" d="M706.607,-118.665C780.198,-118.24 908.773,-121.503 1016,-145 1076.31,-158.215 1144.54,-183.617 1179.53,-197.451"/>
<polygon fill="#9a32cd" stroke="#9a32cd" points="706.567,-115.165 696.596,-118.747 706.625,-122.165 706.567,-115.165"/>
<text text-anchor="middle" x="940" y="-148" font-family="Helvetica,sans-Serif" font-size="10.00"> myCurrentLevel</text>
</g>
<!-- Node10&#45;&gt;Node8 -->
<g id="edge10" class="edge"><title>Node10&#45;&gt;Node8</title>
<path fill="none" stroke="#9a32cd" stroke-dasharray="5,2" d="M706.713,-124.712C746.57,-128.683 799.923,-135.593 846,-147 865.357,-151.792 886.267,-159.222 903.348,-165.916"/>
<polygon fill="#9a32cd" stroke="#9a32cd" points="706.915,-121.215 696.625,-123.741 706.244,-128.183 706.915,-121.215"/>
<text text-anchor="middle" x="797" y="-150" font-family="Helvetica,sans-Serif" font-size="10.00"> myCurrentLevel</text>
</g>
<!-- Node11 -->
<g id="node11" class="node"><title>Node11</title>
<g id="a_node11"><a xlink:href="../../d3/d8d/classdata_1_1_observable.html" target="_top" xlink:title="data.Observable">
<polygon fill="white" stroke="black" points="277.5,-150.5 277.5,-169.5 372.5,-169.5 372.5,-150.5 277.5,-150.5"/>
<text text-anchor="middle" x="325" y="-157.5" font-family="Helvetica,sans-Serif" font-size="10.00">data.Observable</text>
</a>
</g>
</g>
<!-- Node11&#45;&gt;Node10 -->
<g id="edge11" class="edge"><title>Node11&#45;&gt;Node10</title>
<path fill="none" stroke="midnightblue" d="M383.052,-153.982C427.069,-149.212 489.452,-142.176 544,-135 560.785,-132.792 579.102,-130.144 595.473,-127.691"/>
<polygon fill="midnightblue" stroke="midnightblue" points="382.4,-150.532 372.833,-155.085 383.151,-157.492 382.4,-150.532"/>
</g>
<!-- Node12 -->
<g id="node12" class="node"><title>Node12</title>
<polygon fill="white" stroke="#bfbfbf" points="23,-150.5 23,-169.5 161,-169.5 161,-150.5 23,-150.5"/>
<text text-anchor="middle" x="92" y="-157.5" font-family="Helvetica,sans-Serif" font-size="10.00">Vector&lt; data.Observer &gt;</text>
</g>
<!-- Node12&#45;&gt;Node11 -->
<g id="edge12" class="edge"><title>Node12&#45;&gt;Node11</title>
<path fill="none" stroke="#9a32cd" stroke-dasharray="5,2" d="M171.318,-160C206.521,-160 246.882,-160 277.262,-160"/>
<polygon fill="#9a32cd" stroke="#9a32cd" points="171.058,-156.5 161.058,-160 171.058,-163.5 171.058,-156.5"/>
<text text-anchor="middle" x="213" y="-163" font-family="Helvetica,sans-Serif" font-size="10.00"> obs</text>
</g>
<!-- Node13 -->
<g id="node13" class="node"><title>Node13</title>
<g id="a_node13"><a xlink:href="../../dc/df6/interfaceengine_1_1game_object_1_1_identifiable.html" target="_top" xlink:title="engine.gameObject.Identifiable">
<polygon fill="white" stroke="black" points="242.5,-112.5 242.5,-131.5 407.5,-131.5 407.5,-112.5 242.5,-112.5"/>
<text text-anchor="middle" x="325" y="-119.5" font-family="Helvetica,sans-Serif" font-size="10.00">engine.gameObject.Identifiable</text>
</a>
</g>
</g>
<!-- Node13&#45;&gt;Node10 -->
<g id="edge13" class="edge"><title>Node13&#45;&gt;Node10</title>
<path fill="none" stroke="midnightblue" d="M417.979,-121.423C475.763,-121.061 548.047,-120.608 595.318,-120.311"/>
<polygon fill="midnightblue" stroke="midnightblue" points="417.714,-117.925 407.736,-121.488 417.758,-124.925 417.714,-117.925"/>
</g>
<!-- Node14 -->
<g id="node14" class="node"><title>Node14</title>
<g id="a_node14"><a xlink:href="../../d4/dac/classengine_1_1game_object_1_1_identifier.html" target="_top" xlink:title="engine.gameObject.Identifier">
<polygon fill="white" stroke="black" points="247.5,-423.5 247.5,-442.5 402.5,-442.5 402.5,-423.5 247.5,-423.5"/>
<text text-anchor="middle" x="325" y="-430.5" font-family="Helvetica,sans-Serif" font-size="10.00">engine.gameObject.Identifier</text>
</a>
</g>
</g>
<!-- Node14&#45;&gt;Node1 -->
<g id="edge29" class="edge"><title>Node14&#45;&gt;Node1</title>
<path fill="none" stroke="#9a32cd" stroke-dasharray="5,2" d="M412.761,-436.351C476.904,-438.542 566.384,-441 645,-441 645,-441 645,-441 1205,-441 1270.37,-441 1344.55,-445.802 1398.27,-450.145"/>
<polygon fill="#9a32cd" stroke="#9a32cd" points="412.805,-432.85 402.69,-436.002 412.562,-439.846 412.805,-432.85"/>
<text text-anchor="middle" x="940" y="-444" font-family="Helvetica,sans-Serif" font-size="10.00"> levelID</text>
</g>
<!-- Node14&#45;&gt;Node10 -->
<g id="edge14" class="edge"><title>Node14&#45;&gt;Node10</title>
<path fill="none" stroke="#9a32cd" stroke-dasharray="5,2" d="M382.389,-419.786C391.557,-416 400.493,-411.164 408,-405 460.786,-361.653 507.032,-179.544 562,-139 571.636,-131.892 583.484,-127.38 595.179,-124.533"/>
<polygon fill="#9a32cd" stroke="#9a32cd" points="380.948,-416.588 372.802,-423.363 383.394,-423.147 380.948,-416.588"/>
<text text-anchor="middle" x="485" y="-387" font-family="Helvetica,sans-Serif" font-size="10.00"> myId</text>
</g>
<!-- Node15 -->
<g id="node15" class="node"><title>Node15</title>
<g id="a_node15"><a xlink:href="../../d1/d32/classauthoring_1_1model_1_1collections_1_1_game_objects_collection.html" target="_top" xlink:title="authoring.model.collections.\lGameObjectsCollection">
<polygon fill="white" stroke="black" points="249,-0 249,-30 401,-30 401,-0 249,-0"/>
<text text-anchor="start" x="257" y="-18" font-family="Helvetica,sans-Serif" font-size="10.00">authoring.model.collections.</text>
<text text-anchor="middle" x="325" y="-7" font-family="Helvetica,sans-Serif" font-size="10.00">GameObjectsCollection</text>
</a>
</g>
</g>
<!-- Node15&#45;&gt;Node4 -->
<g id="edge20" class="edge"><title>Node15&#45;&gt;Node4</title>
<path fill="none" stroke="#9a32cd" stroke-dasharray="5,2" d="M411.477,-9.5237C542.243,-2.51836 799.575,5.85143 1016,-20 1060.42,-25.3062 1078.44,-15.8514 1114,-43 1168.33,-84.4779 1193.56,-168.993 1200.75,-197.424"/>
<polygon fill="#9a32cd" stroke="#9a32cd" points="410.929,-6.04834 401.135,-10.0891 411.312,-13.0379 410.929,-6.04834"/>
<text text-anchor="middle" x="797" y="-21" font-family="Helvetica,sans-Serif" font-size="10.00"> myTemplateObjects</text>
<text text-anchor="middle" x="797" y="-10" font-family="Helvetica,sans-Serif" font-size="10.00">myGameObjects</text>
</g>
<!-- Node15&#45;&gt;Node10 -->
<g id="edge15" class="edge"><title>Node15&#45;&gt;Node10</title>
<path fill="none" stroke="#9a32cd" stroke-dasharray="5,2" d="M411.043,-23.4096C452.299,-29.4688 501.913,-39.741 544,-57 552.896,-60.648 553.903,-63.8157 562,-69 585.074,-83.7734 612.183,-100.272 628.979,-110.397"/>
<polygon fill="#9a32cd" stroke="#9a32cd" points="411.409,-19.9266 401.018,-21.9952 410.431,-26.8579 411.409,-19.9266"/>
<text text-anchor="middle" x="485" y="-71" font-family="Helvetica,sans-Serif" font-size="10.00"> myDefaultGameObjects</text>
<text text-anchor="middle" x="485" y="-60" font-family="Helvetica,sans-Serif" font-size="10.00">myWorkingGameObjects</text>
</g>
<!-- Node16 -->
<g id="node16" class="node"><title>Node16</title>
<g id="a_node16"><a xlink:href="../../d4/d3b/classauthoring_1_1model_1_1collections_1_1_general_collection.html" target="_top" xlink:title="authoring.model.collections.\lGeneralCollection\&lt; GameObject \&gt;">
<polygon fill="white" stroke="black" points="0.5,-0 0.5,-30 183.5,-30 183.5,-0 0.5,-0"/>
<text text-anchor="start" x="8.5" y="-18" font-family="Helvetica,sans-Serif" font-size="10.00">authoring.model.collections.</text>
<text text-anchor="middle" x="92" y="-7" font-family="Helvetica,sans-Serif" font-size="10.00">GeneralCollection&lt; GameObject &gt;</text>
</a>
</g>
</g>
<!-- Node16&#45;&gt;Node15 -->
<g id="edge16" class="edge"><title>Node16&#45;&gt;Node15</title>
<path fill="none" stroke="midnightblue" d="M193.843,-15C212.335,-15 231.337,-15 248.91,-15"/>
<polygon fill="midnightblue" stroke="midnightblue" points="193.634,-11.5001 183.634,-15 193.634,-18.5001 193.634,-11.5001"/>
</g>
<!-- Node17 -->
<g id="node17" class="node"><title>Node17</title>
<polygon fill="white" stroke="#bfbfbf" points="254.5,-63 254.5,-93 395.5,-93 395.5,-63 254.5,-63"/>
<text text-anchor="start" x="262.5" y="-81" font-family="Helvetica,sans-Serif" font-size="10.00">List&lt; engine.gameObject.</text>
<text text-anchor="middle" x="325" y="-70" font-family="Helvetica,sans-Serif" font-size="10.00">Identifier &gt;</text>
</g>
<!-- Node17&#45;&gt;Node10 -->
<g id="edge17" class="edge"><title>Node17&#45;&gt;Node10</title>
<path fill="none" stroke="#9a32cd" stroke-dasharray="5,2" d="M405.606,-81.0537C447.063,-83.439 498.473,-87.6419 544,-95 567.004,-98.7179 592.47,-105.037 612.076,-110.392"/>
<polygon fill="#9a32cd" stroke="#9a32cd" points="405.741,-77.5559 395.564,-80.5001 405.356,-84.5453 405.741,-77.5559"/>
<text text-anchor="middle" x="485" y="-109" font-family="Helvetica,sans-Serif" font-size="10.00"> myConditionIdList</text>
<text text-anchor="middle" x="485" y="-98" font-family="Helvetica,sans-Serif" font-size="10.00">myGameObjectIdList</text>
</g>
<!-- Node18 -->
<g id="node18" class="node"><title>Node18</title>
<polygon fill="white" stroke="#bfbfbf" points="623,-198.5 623,-217.5 669,-217.5 669,-198.5 623,-198.5"/>
<text text-anchor="middle" x="646" y="-205.5" font-family="Helvetica,sans-Serif" font-size="10.00">Group</text>
</g>
<!-- Node18&#45;&gt;Node8 -->
<g id="edge18" class="edge"><title>Node18&#45;&gt;Node8</title>
<path fill="none" stroke="#9a32cd" stroke-dasharray="5,2" d="M679.489,-204.996C724.456,-200.838 806.886,-193.216 866.808,-187.675"/>
<polygon fill="#9a32cd" stroke="#9a32cd" points="679.063,-201.52 669.428,-205.926 679.708,-208.491 679.063,-201.52"/>
<text text-anchor="middle" x="797" y="-202" font-family="Helvetica,sans-Serif" font-size="10.00"> myCanvas</text>
</g>
<!-- Node19 -->
<g id="node19" class="node"><title>Node19</title>
<g id="a_node19"><a xlink:href="../../d9/db5/classengine_1_1_file_path_utility.html" target="_top" xlink:title="engine.FilePathUtility">
<polygon fill="white" stroke="black" points="588.5,-244.5 588.5,-263.5 703.5,-263.5 703.5,-244.5 588.5,-244.5"/>
<text text-anchor="middle" x="646" y="-251.5" font-family="Helvetica,sans-Serif" font-size="10.00">engine.FilePathUtility</text>
</a>
</g>
</g>
<!-- Node19&#45;&gt;Node8 -->
<g id="edge19" class="edge"><title>Node19&#45;&gt;Node8</title>
<path fill="none" stroke="#9a32cd" stroke-dasharray="5,2" d="M705.343,-242.457C745.174,-234.246 799.031,-222.492 846,-210 861.527,-205.87 878.337,-200.812 893.34,-196.083"/>
<polygon fill="#9a32cd" stroke="#9a32cd" points="704.625,-239.032 695.531,-244.467 706.03,-245.889 704.625,-239.032"/>
<text text-anchor="middle" x="797" y="-237" font-family="Helvetica,sans-Serif" font-size="10.00"> myFilePathUtility</text>
</g>
<!-- Node19&#45;&gt;Node20 -->
<g id="edge26" class="edge"><title>Node19&#45;&gt;Node20</title>
<path fill="none" stroke="#9a32cd" stroke-dasharray="5,2" d="M713.752,-263.71C752.412,-269.422 801.988,-276.897 846,-284 858.454,-286.01 871.83,-288.258 884.446,-290.42"/>
<polygon fill="#9a32cd" stroke="#9a32cd" points="714.065,-260.219 703.662,-262.223 713.044,-267.144 714.065,-260.219"/>
<text text-anchor="middle" x="797" y="-287" font-family="Helvetica,sans-Serif" font-size="10.00"> myFilePathUtility</text>
</g>
<!-- Node20&#45;&gt;Node4 -->
<g id="edge22" class="edge"><title>Node20&#45;&gt;Node4</title>
<path fill="none" stroke="#9a32cd" stroke-dasharray="5,2" d="M977.798,-286.938C1031.19,-267.985 1128.91,-233.298 1176.1,-216.55"/>
<polygon fill="#9a32cd" stroke="#9a32cd" points="976.305,-283.754 968.052,-290.398 978.647,-290.351 976.305,-283.754"/>
<text text-anchor="middle" x="1074" y="-268" font-family="Helvetica,sans-Serif" font-size="10.00"> mySoundPlayer</text>
</g>
<!-- Node21 -->
<g id="node21" class="node"><title>Node21</title>
<polygon fill="white" stroke="#bfbfbf" points="570,-326.5 570,-345.5 722,-345.5 722,-326.5 570,-326.5"/>
<text text-anchor="middle" x="646" y="-333.5" font-family="Helvetica,sans-Serif" font-size="10.00">Map&lt; String, MediaPlayer &gt;</text>
</g>
<!-- Node21&#45;&gt;Node20 -->
<g id="edge24" class="edge"><title>Node21&#45;&gt;Node20</title>
<path fill="none" stroke="#9a32cd" stroke-dasharray="5,2" d="M732.38,-325.861C767.574,-321.64 808.757,-316.648 846,-312 853.431,-311.072 861.194,-310.091 868.93,-309.105"/>
<polygon fill="#9a32cd" stroke="#9a32cd" points="731.656,-322.422 722.143,-327.087 732.488,-329.373 731.656,-322.422"/>
<text text-anchor="middle" x="797" y="-327" font-family="Helvetica,sans-Serif" font-size="10.00"> myMediaPlayerMap</text>
</g>
<!-- Node22 -->
<g id="node22" class="node"><title>Node22</title>
<polygon fill="white" stroke="#bfbfbf" points="577,-288.5 577,-307.5 715,-307.5 715,-288.5 577,-288.5"/>
<text text-anchor="middle" x="646" y="-295.5" font-family="Helvetica,sans-Serif" font-size="10.00">Map&lt; String, AudioClip &gt;</text>
</g>
<!-- Node22&#45;&gt;Node20 -->
<g id="edge25" class="edge"><title>Node22&#45;&gt;Node20</title>
<path fill="none" stroke="#9a32cd" stroke-dasharray="5,2" d="M725.323,-298.536C769.992,-298.842 825.515,-299.223 868.767,-299.519"/>
<polygon fill="#9a32cd" stroke="#9a32cd" points="725.116,-295.035 715.093,-298.466 725.068,-302.035 725.116,-295.035"/>
<text text-anchor="middle" x="797" y="-303" font-family="Helvetica,sans-Serif" font-size="10.00"> myAudioClipMap</text>
</g>
<!-- Node23 -->
<g id="node23" class="node"><title>Node23</title>
<g id="a_node23"><a xlink:href="../../db/d2a/classauthoring_1_1model_1_1collections_1_1_conditions_collection.html" target="_top" xlink:title="authoring.model.collections.\lConditionsCollection">
<polygon fill="white" stroke="black" points="864,-30 864,-60 1016,-60 1016,-30 864,-30"/>
<text text-anchor="start" x="872" y="-48" font-family="Helvetica,sans-Serif" font-size="10.00">authoring.model.collections.</text>
<text text-anchor="middle" x="940" y="-37" font-family="Helvetica,sans-Serif" font-size="10.00">ConditionsCollection</text>
</a>
</g>
</g>
<!-- Node23&#45;&gt;Node4 -->
<g id="edge27" class="edge"><title>Node23&#45;&gt;Node4</title>
<path fill="none" stroke="#9a32cd" stroke-dasharray="5,2" d="M1026,-44.4407C1055.75,-47.6801 1088.16,-55.3842 1114,-72 1162.64,-103.274 1190.63,-171.632 1199.71,-197.141"/>
<polygon fill="#9a32cd" stroke="#9a32cd" points="1026.3,-40.9542 1016.02,-43.5069 1025.65,-47.9237 1026.3,-40.9542"/>
<text text-anchor="middle" x="1074" y="-75" font-family="Helvetica,sans-Serif" font-size="10.00"> myConditions</text>
</g>
<!-- Node24 -->
<g id="node24" class="node"><title>Node24</title>
<g id="a_node24"><a xlink:href="../../d4/d3b/classauthoring_1_1model_1_1collections_1_1_general_collection.html" target="_top" xlink:title="authoring.model.collections.\lGeneralCollection\&lt; Condition \&gt;">
<polygon fill="white" stroke="black" points="562,-30 562,-60 730,-60 730,-30 562,-30"/>
<text text-anchor="start" x="570" y="-48" font-family="Helvetica,sans-Serif" font-size="10.00">authoring.model.collections.</text>
<text text-anchor="middle" x="646" y="-37" font-family="Helvetica,sans-Serif" font-size="10.00">GeneralCollection&lt; Condition &gt;</text>
</a>
</g>
</g>
<!-- Node24&#45;&gt;Node23 -->
<g id="edge28" class="edge"><title>Node24&#45;&gt;Node23</title>
<path fill="none" stroke="midnightblue" d="M740.523,-45C780.286,-45 826.039,-45 863.588,-45"/>
<polygon fill="midnightblue" stroke="midnightblue" points="740.285,-41.5001 730.285,-45 740.285,-48.5001 740.285,-41.5001"/>
</g>
</g>
</svg>
        <g id="navigator" transform="translate(0 0)" fill="#404254">
                <rect fill="#f2f5e9" fill-opacity="0.5" stroke="#606060" stroke-width=".5" x="0" y="0" width="60" height="60"/>
                <use id="zoomplus" xlink:href="#zoomPlus" x="17" y="9" onmousedown="handleZoom(evt,'in')"/>
                <use id="zoomminus" xlink:href="#zoomMin" x="42" y="9" onmousedown="handleZoom(evt,'out')"/>
                <use id="reset" xlink:href="#resetDef" x="30" y="36" onmousedown="handleReset()"/>
                <g id="arrowUp" xlink:href="#dirArrow" transform="translate(30 24)" onmousedown="handlePan(0,-1)">
                  <use xlink:href="#rim" fill="#404040">
                        <set attributeName="fill" to="#808080" begin="arrowUp.mouseover" end="arrowUp.mouseout"/>
                  </use>
                  <path fill="none" stroke="white" stroke-width="1.5" d="M0,-3.0v7 M-2.5,-0.5L0,-3.0L2.5,-0.5"/>
                </g>
                <g id="arrowRight" xlink:href="#dirArrow" transform="rotate(90) translate(36 -43)" onmousedown="handlePan(1,0)">
                  <use xlink:href="#rim" fill="#404040">
                        <set attributeName="fill" to="#808080" begin="arrowRight.mouseover" end="arrowRight.mouseout"/>
                  </use>
                  <path fill="none" stroke="white" stroke-width="1.5" d="M0,-3.0v7 M-2.5,-0.5L0,-3.0L2.5,-0.5"/>
                </g>
                <g id="arrowDown" xlink:href="#dirArrow" transform="rotate(180) translate(-30 -48)" onmousedown="handlePan(0,1)">
                  <use xlink:href="#rim" fill="#404040">
                        <set attributeName="fill" to="#808080" begin="arrowDown.mouseover" end="arrowDown.mouseout"/>
                  </use>
                  <path fill="none" stroke="white" stroke-width="1.5" d="M0,-3.0v7 M-2.5,-0.5L0,-3.0L2.5,-0.5"/>
                </g>
                <g id="arrowLeft" xlink:href="#dirArrow" transform="rotate(270) translate(-36 17)" onmousedown="handlePan(-1,0)">
                  <use xlink:href="#rim" fill="#404040">
                        <set attributeName="fill" to="#808080" begin="arrowLeft.mouseover" end="arrowLeft.mouseout"/>
                  </use>
                  <path fill="none" stroke="white" stroke-width="1.5" d="M0,-3.0v7 M-2.5,-0.5L0,-3.0L2.5,-0.5"/>
                </g>
        </g>
        <svg viewBox="0 0 15 15" width="100%" height="30px" preserveAspectRatio="xMaxYMin meet">
         <g id="arrow_out" transform="scale(0.3 0.3)">
          <a xlink:href="classengine_1_1actions_1_1_change_level_action__coll__graph_org.svg" target="_base">
           <rect id="button" ry="5" rx="5" y="6" x="6" height="38" width="38"
                fill="#f2f5e9" fill-opacity="0.5" stroke="#606060" stroke-width="1.0"/>
           <path id="arrow"
             d="M 11.500037,31.436501 C 11.940474,20.09759 22.043105,11.32322 32.158766,21.979434 L 37.068811,17.246167 C 37.068811,17.246167 37.088388,32 37.088388,32 L 22.160133,31.978069 C 22.160133,31.978069 26.997745,27.140456 26.997745,27.140456 C 18.528582,18.264221 13.291696,25.230495 11.500037,31.436501 z"
             style="fill:#404040;"/>
          </a>
         </g>
        </svg>
</svg>
