<?xml version="1.0" encoding="UTF-8" standalone="no"?>
<!DOCTYPE svg PUBLIC "-//W3C//DTD SVG 1.1//EN"
 "http://www.w3.org/Graphics/SVG/1.1/DTD/svg11.dtd">
<!-- Generated by graphviz version 2.36.0 (20140111.2315)
 -->
<!-- Title: engine.conditions.TimeCondition Pages: 1 -->
<svg width="2068pt" height="678pt"
 viewBox="0.00 0.00 2068.00 677.65" xmlns="http://www.w3.org/2000/svg" xmlns:xlink="http://www.w3.org/1999/xlink">
<g id="graph0" class="graph" transform="scale(1 1) rotate(0) translate(4 673.648)">
<title>engine.conditions.TimeCondition</title>
<polygon fill="white" stroke="none" points="-4,4 -4,-673.648 2064,-673.648 2064,4 -4,4"/>
<!-- Node1 -->
<g id="node1" class="node"><title>Node1</title>
<polygon fill="#bfbfbf" stroke="black" points="1888,-584.148 1888,-603.148 2060,-603.148 2060,-584.148 1888,-584.148"/>
<text text-anchor="middle" x="1974" y="-591.148" font-family="Helvetica,sans-Serif" font-size="10.00">engine.conditions.TimeCondition</text>
</g>
<!-- Node2 -->
<g id="node2" class="node"><title>Node2</title>
<g id="a_node2"><a xlink:href="../../d1/d3b/classengine_1_1conditions_1_1_condition.html" target="_top" xlink:title="engine.conditions.Condition">
<polygon fill="white" stroke="black" points="1700.5,-584.148 1700.5,-603.148 1849.5,-603.148 1849.5,-584.148 1700.5,-584.148"/>
<text text-anchor="middle" x="1775" y="-591.148" font-family="Helvetica,sans-Serif" font-size="10.00">engine.conditions.Condition</text>
</a>
</g>
</g>
<!-- Node2&#45;&gt;Node1 -->
<g id="edge1" class="edge"><title>Node2&#45;&gt;Node1</title>
<path fill="none" stroke="midnightblue" d="M1859.67,-593.648C1868.99,-593.648 1878.5,-593.648 1887.84,-593.648"/>
<polygon fill="midnightblue" stroke="midnightblue" points="1859.64,-590.148 1849.64,-593.648 1859.64,-597.148 1859.64,-590.148"/>
</g>
<!-- Node3 -->
<g id="node3" class="node"><title>Node3</title>
<g id="a_node3"><a xlink:href="../../dc/df6/interfaceengine_1_1game_object_1_1_identifiable.html" target="_top" xlink:title="engine.gameObject.Identifiable">
<polygon fill="white" stroke="black" points="242.5,-641.148 242.5,-660.148 407.5,-660.148 407.5,-641.148 242.5,-641.148"/>
<text text-anchor="middle" x="325" y="-648.148" font-family="Helvetica,sans-Serif" font-size="10.00">engine.gameObject.Identifiable</text>
</a>
</g>
</g>
<!-- Node3&#45;&gt;Node2 -->
<g id="edge2" class="edge"><title>Node3&#45;&gt;Node2</title>
<path fill="none" stroke="midnightblue" d="M417.564,-658.998C481.283,-664.099 568.244,-669.648 645,-669.648 645,-669.648 645,-669.648 1496,-669.648 1595.57,-669.648 1708.32,-623.724 1753.6,-603.273"/>
<polygon fill="midnightblue" stroke="midnightblue" points="417.793,-655.506 407.542,-658.185 417.226,-662.483 417.793,-655.506"/>
</g>
<!-- Node13 -->
<g id="node13" class="node"><title>Node13</title>
<g id="a_node13"><a xlink:href="../../df/d84/classengine_1_1level_1_1_level.html" target="_top" xlink:title="engine.level.Level">
<polygon fill="white" stroke="black" points="595.5,-309.148 595.5,-328.148 696.5,-328.148 696.5,-309.148 595.5,-309.148"/>
<text text-anchor="middle" x="646" y="-316.148" font-family="Helvetica,sans-Serif" font-size="10.00">engine.level.Level</text>
</a>
</g>
</g>
<!-- Node3&#45;&gt;Node13 -->
<g id="edge16" class="edge"><title>Node3&#45;&gt;Node13</title>
<path fill="none" stroke="midnightblue" d="M342.946,-633.544C359.544,-616.779 385.544,-590.488 408,-567.648 468.594,-506.017 503.715,-505.114 544,-428.648 563.217,-392.172 533.284,-367.231 562,-337.648 570.752,-328.632 582.842,-323.508 595.089,-320.687"/>
<polygon fill="midnightblue" stroke="midnightblue" points="340.159,-631.384 335.61,-640.952 345.133,-636.309 340.159,-631.384"/>
</g>
<!-- Node4 -->
<g id="node4" class="node"><title>Node4</title>
<g id="a_node4"><a xlink:href="../../d2/d15/interfaceengine_1_1actions_1_1_initializable.html" target="_top" xlink:title="engine.actions.Initializable">
<polygon fill="white" stroke="black" points="1424,-622.148 1424,-641.148 1566,-641.148 1566,-622.148 1424,-622.148"/>
<text text-anchor="middle" x="1495" y="-629.148" font-family="Helvetica,sans-Serif" font-size="10.00">engine.actions.Initializable</text>
</a>
</g>
</g>
<!-- Node4&#45;&gt;Node2 -->
<g id="edge3" class="edge"><title>Node4&#45;&gt;Node2</title>
<path fill="none" stroke="midnightblue" d="M1576.26,-621.696C1609.07,-617.523 1647.37,-612.516 1682,-607.648 1691.92,-606.253 1702.43,-604.713 1712.66,-603.18"/>
<polygon fill="midnightblue" stroke="midnightblue" points="1575.75,-618.233 1566.27,-622.963 1576.63,-625.177 1575.75,-618.233"/>
</g>
<!-- Node5 -->
<g id="node5" class="node"><title>Node5</title>
<g id="a_node5"><a xlink:href="../../d4/dac/classengine_1_1game_object_1_1_identifier.html" target="_top" xlink:title="engine.gameObject.Identifier">
<polygon fill="white" stroke="black" points="247.5,-432.148 247.5,-451.148 402.5,-451.148 402.5,-432.148 247.5,-432.148"/>
<text text-anchor="middle" x="325" y="-439.148" font-family="Helvetica,sans-Serif" font-size="10.00">engine.gameObject.Identifier</text>
</a>
</g>
</g>
<!-- Node5&#45;&gt;Node2 -->
<g id="edge4" class="edge"><title>Node5&#45;&gt;Node2</title>
<path fill="none" stroke="#9a32cd" stroke-dasharray="5,2" d="M344.451,-457.751C391.231,-496.856 519.676,-593.648 645,-593.648 645,-593.648 645,-593.648 1496,-593.648 1565.26,-593.648 1644.22,-593.648 1700.25,-593.648"/>
<polygon fill="#9a32cd" stroke="#9a32cd" points="346.574,-454.961 336.686,-451.156 342.043,-460.297 346.574,-454.961"/>
<text text-anchor="middle" x="1074" y="-596.648" font-family="Helvetica,sans-Serif" font-size="10.00"> myId</text>
</g>
<!-- Node5&#45;&gt;Node13 -->
<g id="edge17" class="edge"><title>Node5&#45;&gt;Node13</title>
<path fill="none" stroke="#9a32cd" stroke-dasharray="5,2" d="M376.736,-429.415C423.117,-416.605 492.176,-393.322 544,-357.648 553.85,-350.867 551.691,-343.709 562,-337.648 572.067,-331.729 583.825,-327.654 595.271,-324.848"/>
<polygon fill="#9a32cd" stroke="#9a32cd" points="375.651,-426.083 366.908,-432.067 377.475,-432.841 375.651,-426.083"/>
<text text-anchor="middle" x="485" y="-416.648" font-family="Helvetica,sans-Serif" font-size="10.00"> myId</text>
</g>
<!-- Node6 -->
<g id="node6" class="node"><title>Node6</title>
<g id="a_node6"><a xlink:href="../../d6/d94/classengine_1_1_game_manager.html" target="_top" xlink:title="engine.GameManager">
<polygon fill="white" stroke="black" points="1433.5,-280.148 1433.5,-299.148 1556.5,-299.148 1556.5,-280.148 1433.5,-280.148"/>
<text text-anchor="middle" x="1495" y="-287.148" font-family="Helvetica,sans-Serif" font-size="10.00">engine.GameManager</text>
</a>
</g>
</g>
<!-- Node6&#45;&gt;Node2 -->
<g id="edge5" class="edge"><title>Node6&#45;&gt;Node2</title>
<path fill="none" stroke="#9a32cd" stroke-dasharray="5,2" d="M1511.69,-306.806C1563.13,-363.058 1725.64,-540.766 1765.24,-584.066"/>
<polygon fill="#9a32cd" stroke="#9a32cd" points="1514.27,-304.436 1504.93,-299.418 1509.1,-309.16 1514.27,-304.436"/>
<text text-anchor="middle" x="1637" y="-489.648" font-family="Helvetica,sans-Serif" font-size="10.00"> myGameManager</text>
</g>
<!-- Node7 -->
<g id="node7" class="node"><title>Node7</title>
<g id="a_node7"><a xlink:href="../../df/de5/classauthoring_1_1model_1_1collections_1_1_levels_collection.html" target="_top" xlink:title="authoring.model.collections.\lLevelsCollection">
<polygon fill="white" stroke="black" points="570,-528.648 570,-558.648 722,-558.648 722,-528.648 570,-528.648"/>
<text text-anchor="start" x="578" y="-546.648" font-family="Helvetica,sans-Serif" font-size="10.00">authoring.model.collections.</text>
<text text-anchor="middle" x="646" y="-535.648" font-family="Helvetica,sans-Serif" font-size="10.00">LevelsCollection</text>
</a>
</g>
</g>
<!-- Node7&#45;&gt;Node6 -->
<g id="edge6" class="edge"><title>Node7&#45;&gt;Node6</title>
<path fill="none" stroke="#9a32cd" stroke-dasharray="5,2" d="M732.573,-552.834C767.795,-555.124 808.949,-555.878 846,-551.648 1050.13,-528.344 1103.78,-515.301 1294,-437.648 1342.6,-417.806 1355.55,-412.535 1398,-381.648 1433.65,-355.706 1469.54,-317.262 1485.47,-299.412"/>
<polygon fill="#9a32cd" stroke="#9a32cd" points="732.546,-549.324 722.325,-552.115 732.055,-556.307 732.546,-549.324"/>
<text text-anchor="middle" x="1074" y="-527.648" font-family="Helvetica,sans-Serif" font-size="10.00"> myLevels</text>
</g>
<!-- Node9 -->
<g id="node9" class="node"><title>Node9</title>
<g id="a_node9"><a xlink:href="../../df/d67/classengine_1_1level_1_1_level_manager.html" target="_top" xlink:title="engine.level.LevelManager">
<polygon fill="white" stroke="black" points="1141.5,-280.148 1141.5,-299.148 1284.5,-299.148 1284.5,-280.148 1141.5,-280.148"/>
<text text-anchor="middle" x="1213" y="-287.148" font-family="Helvetica,sans-Serif" font-size="10.00">engine.level.LevelManager</text>
</a>
</g>
</g>
<!-- Node7&#45;&gt;Node9 -->
<g id="edge10" class="edge"><title>Node7&#45;&gt;Node9</title>
<path fill="none" stroke="#9a32cd" stroke-dasharray="5,2" d="M732.436,-545.591C768.145,-544.372 809.694,-540.266 846,-529.648 976.186,-491.573 1022.26,-483.554 1114,-383.648 1127.46,-368.99 1119.18,-357.873 1132,-342.648 1148.31,-323.274 1173.45,-308.222 1191.19,-299.19"/>
<polygon fill="#9a32cd" stroke="#9a32cd" points="731.944,-542.102 722.042,-545.87 732.133,-549.1 731.944,-542.102"/>
<text text-anchor="middle" x="940" y="-526.648" font-family="Helvetica,sans-Serif" font-size="10.00"> myLevels</text>
</g>
<!-- Node21 -->
<g id="node21" class="node"><title>Node21</title>
<g id="a_node21"><a xlink:href="../../da/d90/classengine_1_1sound_1_1_sound_utility.html" target="_top" xlink:title="engine.sound.SoundUtility">
<polygon fill="white" stroke="black" points="869,-390.148 869,-409.148 1011,-409.148 1011,-390.148 869,-390.148"/>
<text text-anchor="middle" x="940" y="-397.148" font-family="Helvetica,sans-Serif" font-size="10.00">engine.sound.SoundUtility</text>
</a>
</g>
</g>
<!-- Node7&#45;&gt;Node21 -->
<g id="edge26" class="edge"><title>Node7&#45;&gt;Node21</title>
<path fill="none" stroke="#9a32cd" stroke-dasharray="5,2" d="M721.073,-526.037C769.836,-513.104 827.889,-494.711 846,-476.648 863.614,-459.081 846.254,-441.082 864,-423.648 870.436,-417.324 878.539,-412.666 887.021,-409.235"/>
<polygon fill="#9a32cd" stroke="#9a32cd" points="719.934,-522.717 711.143,-528.63 721.703,-529.49 719.934,-522.717"/>
<text text-anchor="middle" x="797" y="-521.648" font-family="Helvetica,sans-Serif" font-size="10.00"> myLevels</text>
</g>
<!-- Node8 -->
<g id="node8" class="node"><title>Node8</title>
<g id="a_node8"><a xlink:href="../../d4/d3b/classauthoring_1_1model_1_1collections_1_1_general_collection.html" target="_top" xlink:title="authoring.model.collections.\lGeneralCollection\&lt; Level \&gt;">
<polygon fill="white" stroke="black" points="249,-528.648 249,-558.648 401,-558.648 401,-528.648 249,-528.648"/>
<text text-anchor="start" x="257" y="-546.648" font-family="Helvetica,sans-Serif" font-size="10.00">authoring.model.collections.</text>
<text text-anchor="middle" x="325" y="-535.648" font-family="Helvetica,sans-Serif" font-size="10.00">GeneralCollection&lt; Level &gt;</text>
</a>
</g>
</g>
<!-- Node8&#45;&gt;Node7 -->
<g id="edge7" class="edge"><title>Node8&#45;&gt;Node7</title>
<path fill="none" stroke="midnightblue" d="M411.216,-543.648C460.588,-543.648 522.186,-543.648 569.758,-543.648"/>
<polygon fill="midnightblue" stroke="midnightblue" points="411.195,-540.148 401.195,-543.648 411.195,-547.148 411.195,-540.148"/>
</g>
<!-- Node9&#45;&gt;Node6 -->
<g id="edge8" class="edge"><title>Node9&#45;&gt;Node6</title>
<path fill="none" stroke="#9a32cd" stroke-dasharray="5,2" d="M1294.79,-289.648C1338.97,-289.648 1392.79,-289.648 1433.34,-289.648"/>
<polygon fill="#9a32cd" stroke="#9a32cd" points="1294.66,-286.148 1284.66,-289.648 1294.66,-293.148 1294.66,-286.148"/>
<text text-anchor="middle" x="1355" y="-292.648" font-family="Helvetica,sans-Serif" font-size="10.00"> myLevelManager</text>
</g>
<!-- Node10 -->
<g id="node10" class="node"><title>Node10</title>
<polygon fill="white" stroke="#bfbfbf" points="890,-268.148 890,-287.148 990,-287.148 990,-268.148 890,-268.148"/>
<text text-anchor="middle" x="940" y="-275.148" font-family="Helvetica,sans-Serif" font-size="10.00">Iterable&lt; Level &gt;</text>
</g>
<!-- Node10&#45;&gt;Node9 -->
<g id="edge9" class="edge"><title>Node10&#45;&gt;Node9</title>
<path fill="none" stroke="midnightblue" d="M1000.31,-280.274C1041.85,-282.114 1097.53,-284.579 1141.36,-286.52"/>
<polygon fill="midnightblue" stroke="midnightblue" points="1000.22,-276.767 990.076,-279.821 999.911,-283.76 1000.22,-276.767"/>
</g>
<!-- Node11 -->
<g id="node11" class="node"><title>Node11</title>
<g id="a_node11"><a xlink:href="../../df/de5/classengine_1_1render_1_1_game_object_renderer.html" target="_top" xlink:title="engine.render.GameObject\lRenderer">
<polygon fill="white" stroke="black" points="867,-218.648 867,-248.648 1013,-248.648 1013,-218.648 867,-218.648"/>
<text text-anchor="start" x="875" y="-236.648" font-family="Helvetica,sans-Serif" font-size="10.00">engine.render.GameObject</text>
<text text-anchor="middle" x="940" y="-225.648" font-family="Helvetica,sans-Serif" font-size="10.00">Renderer</text>
</a>
</g>
</g>
<!-- Node11&#45;&gt;Node6 -->
<g id="edge33" class="edge"><title>Node11&#45;&gt;Node6</title>
<path fill="none" stroke="#9a32cd" stroke-dasharray="5,2" d="M1023.46,-237.959C1095.1,-242.126 1201.59,-249.329 1294,-259.648 1342.85,-265.103 1398.09,-273.564 1438.11,-280.111"/>
<polygon fill="#9a32cd" stroke="#9a32cd" points="1023.33,-234.446 1013.15,-237.367 1022.93,-241.435 1023.33,-234.446"/>
<text text-anchor="middle" x="1213" y="-262.648" font-family="Helvetica,sans-Serif" font-size="10.00"> myGameObjectRenderer</text>
</g>
<!-- Node11&#45;&gt;Node9 -->
<g id="edge11" class="edge"><title>Node11&#45;&gt;Node9</title>
<path fill="none" stroke="#9a32cd" stroke-dasharray="5,2" d="M1023.07,-249.311C1051.86,-254.928 1084.39,-261.417 1114,-267.648 1132.6,-271.563 1153.13,-276.132 1170.57,-280.089"/>
<polygon fill="#9a32cd" stroke="#9a32cd" points="1023.54,-245.836 1013.05,-247.362 1022.2,-252.707 1023.54,-245.836"/>
<text text-anchor="middle" x="1074" y="-270.648" font-family="Helvetica,sans-Serif" font-size="10.00"> myRenderer</text>
</g>
<!-- Node12 -->
<g id="node12" class="node"><title>Node12</title>
<polygon fill="white" stroke="#bfbfbf" points="570,-214.648 570,-244.648 722,-244.648 722,-214.648 570,-214.648"/>
<text text-anchor="start" x="578" y="-232.648" font-family="Helvetica,sans-Serif" font-size="10.00">Map&lt; String, engine.render.</text>
<text text-anchor="middle" x="646" y="-221.648" font-family="Helvetica,sans-Serif" font-size="10.00">RenderedNode &gt;</text>
</g>
<!-- Node12&#45;&gt;Node11 -->
<g id="edge12" class="edge"><title>Node12&#45;&gt;Node11</title>
<path fill="none" stroke="#9a32cd" stroke-dasharray="5,2" d="M732.367,-229.567C767.559,-229.667 808.744,-229.954 846,-230.648 852.784,-230.774 859.845,-230.94 866.909,-231.129"/>
<polygon fill="#9a32cd" stroke="#9a32cd" points="732.139,-226.067 722.131,-229.543 732.122,-233.067 732.139,-226.067"/>
<text text-anchor="middle" x="797" y="-233.648" font-family="Helvetica,sans-Serif" font-size="10.00"> myRenderedNodes</text>
</g>
<!-- Node13&#45;&gt;Node9 -->
<g id="edge24" class="edge"><title>Node13&#45;&gt;Node9</title>
<path fill="none" stroke="#9a32cd" stroke-dasharray="5,2" d="M706.959,-316.652C795.873,-313.534 967.916,-306.892 1114,-297.648 1122.86,-297.087 1132.16,-296.424 1141.36,-295.724"/>
<polygon fill="#9a32cd" stroke="#9a32cd" points="706.667,-313.16 696.795,-317.006 706.911,-320.156 706.667,-313.16"/>
<text text-anchor="middle" x="940" y="-313.648" font-family="Helvetica,sans-Serif" font-size="10.00"> myCurrentLevel</text>
</g>
<!-- Node13&#45;&gt;Node11 -->
<g id="edge13" class="edge"><title>Node13&#45;&gt;Node11</title>
<path fill="none" stroke="#9a32cd" stroke-dasharray="5,2" d="M669.992,-303.505C689.842,-291.144 719.705,-274.212 748,-264.648 786.19,-251.74 830.545,-244.122 866.893,-239.67"/>
<polygon fill="#9a32cd" stroke="#9a32cd" points="667.926,-300.67 661.361,-308.986 671.679,-306.58 667.926,-300.67"/>
<text text-anchor="middle" x="797" y="-267.648" font-family="Helvetica,sans-Serif" font-size="10.00"> myCurrentLevel</text>
</g>
<!-- Node14 -->
<g id="node14" class="node"><title>Node14</title>
<g id="a_node14"><a xlink:href="../../d3/d8d/classdata_1_1_observable.html" target="_top" xlink:title="data.Observable">
<polygon fill="white" stroke="black" points="277.5,-284.148 277.5,-303.148 372.5,-303.148 372.5,-284.148 277.5,-284.148"/>
<text text-anchor="middle" x="325" y="-291.148" font-family="Helvetica,sans-Serif" font-size="10.00">data.Observable</text>
</a>
</g>
</g>
<!-- Node14&#45;&gt;Node13 -->
<g id="edge14" class="edge"><title>Node14&#45;&gt;Node13</title>
<path fill="none" stroke="midnightblue" d="M382.85,-298.103C443.23,-302.835 537.733,-310.241 595.257,-314.75"/>
<polygon fill="midnightblue" stroke="midnightblue" points="382.97,-294.602 372.727,-297.31 382.423,-301.581 382.97,-294.602"/>
</g>
<!-- Node15 -->
<g id="node15" class="node"><title>Node15</title>
<polygon fill="white" stroke="#bfbfbf" points="23,-284.148 23,-303.148 161,-303.148 161,-284.148 23,-284.148"/>
<text text-anchor="middle" x="92" y="-291.148" font-family="Helvetica,sans-Serif" font-size="10.00">Vector&lt; data.Observer &gt;</text>
</g>
<!-- Node15&#45;&gt;Node14 -->
<g id="edge15" class="edge"><title>Node15&#45;&gt;Node14</title>
<path fill="none" stroke="#9a32cd" stroke-dasharray="5,2" d="M171.318,-293.648C206.521,-293.648 246.882,-293.648 277.262,-293.648"/>
<polygon fill="#9a32cd" stroke="#9a32cd" points="171.058,-290.148 161.058,-293.648 171.058,-297.148 171.058,-290.148"/>
<text text-anchor="middle" x="213" y="-296.648" font-family="Helvetica,sans-Serif" font-size="10.00"> obs</text>
</g>
<!-- Node16 -->
<g id="node16" class="node"><title>Node16</title>
<g id="a_node16"><a xlink:href="../../d1/d32/classauthoring_1_1model_1_1collections_1_1_game_objects_collection.html" target="_top" xlink:title="authoring.model.collections.\lGameObjectsCollection">
<polygon fill="white" stroke="black" points="249,-169.648 249,-199.648 401,-199.648 401,-169.648 249,-169.648"/>
<text text-anchor="start" x="257" y="-187.648" font-family="Helvetica,sans-Serif" font-size="10.00">authoring.model.collections.</text>
<text text-anchor="middle" x="325" y="-176.648" font-family="Helvetica,sans-Serif" font-size="10.00">GameObjectsCollection</text>
</a>
</g>
</g>
<!-- Node16&#45;&gt;Node6 -->
<g id="edge34" class="edge"><title>Node16&#45;&gt;Node6</title>
<path fill="none" stroke="#9a32cd" stroke-dasharray="5,2" d="M367.75,-165.362C427.742,-139.46 542.416,-96.648 645,-96.648 645,-96.648 645,-96.648 1214,-96.648 1311.15,-96.648 1338.76,-137.65 1398,-214.648 1413.94,-235.368 1396.86,-252.84 1416,-270.648 1421,-275.3 1426.94,-278.867 1433.29,-281.595"/>
<polygon fill="#9a32cd" stroke="#9a32cd" points="366.008,-162.304 358.251,-169.52 368.816,-168.716 366.008,-162.304"/>
<text text-anchor="middle" x="940" y="-99.648" font-family="Helvetica,sans-Serif" font-size="10.00"> myGameObjects</text>
</g>
<!-- Node16&#45;&gt;Node9 -->
<g id="edge23" class="edge"><title>Node16&#45;&gt;Node9</title>
<path fill="none" stroke="#9a32cd" stroke-dasharray="5,2" d="M411.088,-178.109C542.524,-170.125 802.111,-162.803 1016,-208.648 1062,-218.507 1077.31,-219.199 1114,-248.648 1124.96,-257.446 1120.21,-267.001 1132,-274.648 1135.2,-276.724 1138.62,-278.529 1142.17,-280.097"/>
<polygon fill="#9a32cd" stroke="#9a32cd" points="410.842,-174.617 401.079,-178.733 411.278,-181.604 410.842,-174.617"/>
<text text-anchor="middle" x="797" y="-197.648" font-family="Helvetica,sans-Serif" font-size="10.00"> myTemplateObjects</text>
<text text-anchor="middle" x="797" y="-186.648" font-family="Helvetica,sans-Serif" font-size="10.00">myGameObjects</text>
</g>
<!-- Node16&#45;&gt;Node13 -->
<g id="edge18" class="edge"><title>Node16&#45;&gt;Node13</title>
<path fill="none" stroke="#9a32cd" stroke-dasharray="5,2" d="M371.317,-203.684C440.464,-232.73 569.794,-287.057 622.136,-309.044"/>
<polygon fill="#9a32cd" stroke="#9a32cd" points="372.548,-200.405 361.973,-199.759 369.837,-206.859 372.548,-200.405"/>
<text text-anchor="middle" x="485" y="-289.648" font-family="Helvetica,sans-Serif" font-size="10.00"> myDefaultGameObjects</text>
<text text-anchor="middle" x="485" y="-278.648" font-family="Helvetica,sans-Serif" font-size="10.00">myWorkingGameObjects</text>
</g>
<!-- Node17 -->
<g id="node17" class="node"><title>Node17</title>
<g id="a_node17"><a xlink:href="../../d4/d3b/classauthoring_1_1model_1_1collections_1_1_general_collection.html" target="_top" xlink:title="authoring.model.collections.\lGeneralCollection\&lt; GameObject \&gt;">
<polygon fill="white" stroke="black" points="0.5,-169.648 0.5,-199.648 183.5,-199.648 183.5,-169.648 0.5,-169.648"/>
<text text-anchor="start" x="8.5" y="-187.648" font-family="Helvetica,sans-Serif" font-size="10.00">authoring.model.collections.</text>
<text text-anchor="middle" x="92" y="-176.648" font-family="Helvetica,sans-Serif" font-size="10.00">GeneralCollection&lt; GameObject &gt;</text>
</a>
</g>
</g>
<!-- Node17&#45;&gt;Node16 -->
<g id="edge19" class="edge"><title>Node17&#45;&gt;Node16</title>
<path fill="none" stroke="midnightblue" d="M193.843,-184.648C212.335,-184.648 231.337,-184.648 248.91,-184.648"/>
<polygon fill="midnightblue" stroke="midnightblue" points="193.634,-181.148 183.634,-184.648 193.634,-188.148 193.634,-181.148"/>
</g>
<!-- Node18 -->
<g id="node18" class="node"><title>Node18</title>
<polygon fill="white" stroke="#bfbfbf" points="254.5,-322.648 254.5,-352.648 395.5,-352.648 395.5,-322.648 254.5,-322.648"/>
<text text-anchor="start" x="262.5" y="-340.648" font-family="Helvetica,sans-Serif" font-size="10.00">List&lt; engine.gameObject.</text>
<text text-anchor="middle" x="325" y="-329.648" font-family="Helvetica,sans-Serif" font-size="10.00">Identifier &gt;</text>
</g>
<!-- Node18&#45;&gt;Node13 -->
<g id="edge20" class="edge"><title>Node18&#45;&gt;Node13</title>
<path fill="none" stroke="#9a32cd" stroke-dasharray="5,2" d="M405.726,-332.899C465.211,-329.356 544.633,-324.626 595.312,-321.607"/>
<polygon fill="#9a32cd" stroke="#9a32cd" points="405.386,-329.413 395.612,-333.502 405.802,-336.401 405.386,-329.413"/>
<text text-anchor="middle" x="485" y="-345.648" font-family="Helvetica,sans-Serif" font-size="10.00"> myConditionIdList</text>
<text text-anchor="middle" x="485" y="-334.648" font-family="Helvetica,sans-Serif" font-size="10.00">myGameObjectIdList</text>
</g>
<!-- Node19 -->
<g id="node19" class="node"><title>Node19</title>
<polygon fill="white" stroke="#bfbfbf" points="623,-438.148 623,-457.148 669,-457.148 669,-438.148 623,-438.148"/>
<text text-anchor="middle" x="646" y="-445.148" font-family="Helvetica,sans-Serif" font-size="10.00">Group</text>
</g>
<!-- Node19&#45;&gt;Node6 -->
<g id="edge36" class="edge"><title>Node19&#45;&gt;Node6</title>
<path fill="none" stroke="#9a32cd" stroke-dasharray="5,2" d="M679.006,-454.98C708.255,-461.675 747.111,-470.548 748,-470.648 991.472,-498.02 1064.82,-481.277 1294,-394.648 1366.27,-367.332 1445.75,-319.878 1478.54,-299.456"/>
<polygon fill="#9a32cd" stroke="#9a32cd" points="679.667,-451.541 669.138,-452.721 678.105,-458.365 679.667,-451.541"/>
<text text-anchor="middle" x="1074" y="-477.648" font-family="Helvetica,sans-Serif" font-size="10.00"> myRootGroup</text>
</g>
<!-- Node19&#45;&gt;Node11 -->
<g id="edge21" class="edge"><title>Node19&#45;&gt;Node11</title>
<path fill="none" stroke="#9a32cd" stroke-dasharray="5,2" d="M679.479,-446.871C696.154,-444.943 715.876,-440.11 730,-428.648 744.824,-416.619 733.093,-401.574 748,-389.648 782.783,-361.821 815.282,-400.906 846,-368.648 880.163,-332.773 831.874,-296.358 864,-258.648 867.293,-254.782 871.201,-251.512 875.478,-248.745"/>
<polygon fill="#9a32cd" stroke="#9a32cd" points="678.717,-443.423 669.05,-447.76 679.311,-450.398 678.717,-443.423"/>
<text text-anchor="middle" x="797" y="-392.648" font-family="Helvetica,sans-Serif" font-size="10.00"> myCanvas</text>
</g>
<!-- Node20 -->
<g id="node20" class="node"><title>Node20</title>
<g id="a_node20"><a xlink:href="../../d9/db5/classengine_1_1_file_path_utility.html" target="_top" xlink:title="engine.FilePathUtility">
<polygon fill="white" stroke="black" points="588.5,-347.148 588.5,-366.148 703.5,-366.148 703.5,-347.148 588.5,-347.148"/>
<text text-anchor="middle" x="646" y="-354.148" font-family="Helvetica,sans-Serif" font-size="10.00">engine.FilePathUtility</text>
</a>
</g>
</g>
<!-- Node20&#45;&gt;Node11 -->
<g id="edge22" class="edge"><title>Node20&#45;&gt;Node11</title>
<path fill="none" stroke="#9a32cd" stroke-dasharray="5,2" d="M708.512,-344.509C715.84,-342.494 723.146,-340.212 730,-337.648 784.752,-317.167 798.554,-309.796 846,-275.648 854.931,-269.22 854.558,-264.299 864,-258.648 870.36,-254.842 877.373,-251.529 884.482,-248.671"/>
<polygon fill="#9a32cd" stroke="#9a32cd" points="707.35,-341.194 698.547,-347.09 709.105,-347.97 707.35,-341.194"/>
<text text-anchor="middle" x="797" y="-334.648" font-family="Helvetica,sans-Serif" font-size="10.00"> myFilePathUtility</text>
</g>
<!-- Node20&#45;&gt;Node21 -->
<g id="edge29" class="edge"><title>Node20&#45;&gt;Node21</title>
<path fill="none" stroke="#9a32cd" stroke-dasharray="5,2" d="M714.042,-350.087C752.998,-347.98 802.773,-348.226 846,-357.648 874.734,-363.911 905.307,-379.711 923.253,-390.047"/>
<polygon fill="#9a32cd" stroke="#9a32cd" points="713.64,-346.605 703.87,-350.704 714.064,-353.592 713.64,-346.605"/>
<text text-anchor="middle" x="797" y="-360.648" font-family="Helvetica,sans-Serif" font-size="10.00"> myFilePathUtility</text>
</g>
<!-- Node21&#45;&gt;Node6 -->
<g id="edge37" class="edge"><title>Node21&#45;&gt;Node6</title>
<path fill="none" stroke="#9a32cd" stroke-dasharray="5,2" d="M1021.36,-394.741C1050.64,-392.29 1083.94,-388.727 1114,-383.648 1245.01,-361.515 1397.54,-318.367 1462.31,-299.208"/>
<polygon fill="#9a32cd" stroke="#9a32cd" points="1020.86,-391.27 1011.18,-395.563 1021.42,-398.247 1020.86,-391.27"/>
<text text-anchor="middle" x="1213" y="-382.648" font-family="Helvetica,sans-Serif" font-size="10.00"> mySoundUtility</text>
</g>
<!-- Node21&#45;&gt;Node9 -->
<g id="edge25" class="edge"><title>Node21&#45;&gt;Node9</title>
<path fill="none" stroke="#9a32cd" stroke-dasharray="5,2" d="M980.708,-386.82C1016.09,-375.06 1069.06,-356.636 1114,-337.648 1142.45,-325.629 1174.4,-309.455 1193.86,-299.291"/>
<polygon fill="#9a32cd" stroke="#9a32cd" points="979.168,-383.643 970.77,-390.102 981.363,-390.29 979.168,-383.643"/>
<text text-anchor="middle" x="1074" y="-371.648" font-family="Helvetica,sans-Serif" font-size="10.00"> mySoundPlayer</text>
</g>
<!-- Node22 -->
<g id="node22" class="node"><title>Node22</title>
<polygon fill="white" stroke="#bfbfbf" points="570,-400.148 570,-419.148 722,-419.148 722,-400.148 570,-400.148"/>
<text text-anchor="middle" x="646" y="-407.148" font-family="Helvetica,sans-Serif" font-size="10.00">Map&lt; String, MediaPlayer &gt;</text>
</g>
<!-- Node22&#45;&gt;Node21 -->
<g id="edge27" class="edge"><title>Node22&#45;&gt;Node21</title>
<path fill="none" stroke="#9a32cd" stroke-dasharray="5,2" d="M732.43,-406.722C775.708,-405.24 827.618,-403.462 868.574,-402.06"/>
<polygon fill="#9a32cd" stroke="#9a32cd" points="732.072,-403.232 722.197,-407.073 732.311,-410.228 732.072,-403.232"/>
<text text-anchor="middle" x="797" y="-409.648" font-family="Helvetica,sans-Serif" font-size="10.00"> myMediaPlayerMap</text>
</g>
<!-- Node23 -->
<g id="node23" class="node"><title>Node23</title>
<polygon fill="white" stroke="#bfbfbf" points="577,-476.148 577,-495.148 715,-495.148 715,-476.148 577,-476.148"/>
<text text-anchor="middle" x="646" y="-483.148" font-family="Helvetica,sans-Serif" font-size="10.00">Map&lt; String, AudioClip &gt;</text>
</g>
<!-- Node23&#45;&gt;Node21 -->
<g id="edge28" class="edge"><title>Node23&#45;&gt;Node21</title>
<path fill="none" stroke="#9a32cd" stroke-dasharray="5,2" d="M702.011,-473.752C711.384,-471.526 720.997,-469.118 730,-466.648 790.318,-450.099 804.437,-442.735 864,-423.648 878.842,-418.892 895.338,-413.612 909.072,-409.219"/>
<polygon fill="#9a32cd" stroke="#9a32cd" points="700.919,-470.412 691.974,-476.09 702.507,-477.23 700.919,-470.412"/>
<text text-anchor="middle" x="797" y="-464.648" font-family="Helvetica,sans-Serif" font-size="10.00"> myAudioClipMap</text>
</g>
<!-- Node24 -->
<g id="node24" class="node"><title>Node24</title>
<g id="a_node24"><a xlink:href="../../db/d2a/classauthoring_1_1model_1_1collections_1_1_conditions_collection.html" target="_top" xlink:title="authoring.model.collections.\lConditionsCollection">
<polygon fill="white" stroke="black" points="864,-127.648 864,-157.648 1016,-157.648 1016,-127.648 864,-127.648"/>
<text text-anchor="start" x="872" y="-145.648" font-family="Helvetica,sans-Serif" font-size="10.00">authoring.model.collections.</text>
<text text-anchor="middle" x="940" y="-134.648" font-family="Helvetica,sans-Serif" font-size="10.00">ConditionsCollection</text>
</a>
</g>
</g>
<!-- Node24&#45;&gt;Node6 -->
<g id="edge38" class="edge"><title>Node24&#45;&gt;Node6</title>
<path fill="none" stroke="#9a32cd" stroke-dasharray="5,2" d="M1026.35,-145.076C1054.5,-147.062 1085.8,-150.556 1114,-156.648 1245.09,-184.97 1278.21,-198.339 1398,-258.648 1406.59,-262.972 1407.2,-266.785 1416,-270.648 1424.68,-274.456 1434.25,-277.582 1443.63,-280.119"/>
<polygon fill="#9a32cd" stroke="#9a32cd" points="1026.35,-141.568 1016.14,-144.41 1025.89,-148.553 1026.35,-141.568"/>
<text text-anchor="middle" x="1213" y="-211.648" font-family="Helvetica,sans-Serif" font-size="10.00"> myGameConditions</text>
</g>
<!-- Node24&#45;&gt;Node9 -->
<g id="edge30" class="edge"><title>Node24&#45;&gt;Node9</title>
<path fill="none" stroke="#9a32cd" stroke-dasharray="5,2" d="M1026.24,-155.293C1066.42,-161.994 1107.1,-170.157 1114,-176.648 1137.08,-198.363 1112.53,-220.641 1132,-245.648 1144.76,-262.032 1165.41,-273.17 1182.53,-280.14"/>
<polygon fill="#9a32cd" stroke="#9a32cd" points="1026.77,-151.832 1016.33,-153.667 1025.63,-158.74 1026.77,-151.832"/>
<text text-anchor="middle" x="1074" y="-179.648" font-family="Helvetica,sans-Serif" font-size="10.00"> myConditions</text>
</g>
<!-- Node25 -->
<g id="node25" class="node"><title>Node25</title>
<g id="a_node25"><a xlink:href="../../d4/d3b/classauthoring_1_1model_1_1collections_1_1_general_collection.html" target="_top" xlink:title="authoring.model.collections.\lGeneralCollection\&lt; Condition \&gt;">
<polygon fill="white" stroke="black" points="562,-125.648 562,-155.648 730,-155.648 730,-125.648 562,-125.648"/>
<text text-anchor="start" x="570" y="-143.648" font-family="Helvetica,sans-Serif" font-size="10.00">authoring.model.collections.</text>
<text text-anchor="middle" x="646" y="-132.648" font-family="Helvetica,sans-Serif" font-size="10.00">GeneralCollection&lt; Condition &gt;</text>
</a>
</g>
</g>
<!-- Node25&#45;&gt;Node24 -->
<g id="edge31" class="edge"><title>Node25&#45;&gt;Node24</title>
<path fill="none" stroke="midnightblue" d="M740.523,-141.289C780.286,-141.561 826.039,-141.874 863.588,-142.131"/>
<polygon fill="midnightblue" stroke="midnightblue" points="740.308,-137.787 730.285,-141.218 740.26,-144.787 740.308,-137.787"/>
</g>
<!-- Node26 -->
<g id="node26" class="node"><title>Node26</title>
<polygon fill="white" stroke="#bfbfbf" points="1185,-49.148 1185,-68.148 1241,-68.148 1241,-49.148 1185,-49.148"/>
<text text-anchor="middle" x="1213" y="-56.148" font-family="Helvetica,sans-Serif" font-size="10.00">Timeline</text>
</g>
<!-- Node26&#45;&gt;Node6 -->
<g id="edge32" class="edge"><title>Node26&#45;&gt;Node6</title>
<path fill="none" stroke="#9a32cd" stroke-dasharray="5,2" d="M1250.9,-48.7973C1292.61,-40.1298 1359.66,-34.0543 1398,-71.648 1429.7,-102.735 1387.02,-237.005 1416,-270.648 1420.73,-276.139 1426.76,-280.184 1433.36,-283.143"/>
<polygon fill="#9a32cd" stroke="#9a32cd" points="1250.14,-45.3824 1241.13,-50.9711 1251.66,-52.2153 1250.14,-45.3824"/>
<text text-anchor="middle" x="1355" y="-74.648" font-family="Helvetica,sans-Serif" font-size="10.00"> myAnimation</text>
</g>
<!-- Node27 -->
<g id="node27" class="node"><title>Node27</title>
<polygon fill="white" stroke="#bfbfbf" points="1132.5,-11.148 1132.5,-30.148 1293.5,-30.148 1293.5,-11.148 1132.5,-11.148"/>
<text text-anchor="middle" x="1213" y="-18.148" font-family="Helvetica,sans-Serif" font-size="10.00">EventHandler&lt; ActionEvent &gt;</text>
</g>
<!-- Node27&#45;&gt;Node6 -->
<g id="edge35" class="edge"><title>Node27&#45;&gt;Node6</title>
<path fill="none" stroke="#9a32cd" stroke-dasharray="5,2" d="M1253.61,-8.6035C1295.38,1.38895 1360.27,8.74717 1398,-27.648 1436.97,-65.2427 1381,-229.335 1416,-270.648 1420.69,-276.178 1426.69,-280.245 1433.27,-283.216"/>
<polygon fill="#9a32cd" stroke="#9a32cd" points="1252.6,-5.24785 1243.77,-11.1059 1254.33,-12.0317 1252.6,-5.24785"/>
<text text-anchor="middle" x="1355" y="-30.648" font-family="Helvetica,sans-Serif" font-size="10.00"> oneFrame</text>
</g>
<!-- Node28 -->
<g id="node28" class="node"><title>Node28</title>
<polygon fill="white" stroke="#bfbfbf" points="1416,-242.148 1416,-261.148 1574,-261.148 1574,-242.148 1416,-242.148"/>
<text text-anchor="middle" x="1495" y="-249.148" font-family="Helvetica,sans-Serif" font-size="10.00">List&lt; engine.actions.Action &gt;</text>
</g>
<!-- Node28&#45;&gt;Node2 -->
<g id="edge39" class="edge"><title>Node28&#45;&gt;Node2</title>
<path fill="none" stroke="#9a32cd" stroke-dasharray="5,2" d="M1561.62,-264.669C1565.92,-266.418 1570.09,-268.401 1574,-270.648 1633.97,-305.083 1643.57,-325.157 1682,-382.648 1729.3,-453.416 1761.58,-552.492 1771.09,-583.779"/>
<polygon fill="#9a32cd" stroke="#9a32cd" points="1562.64,-261.317 1552.04,-261.201 1560.25,-267.898 1562.64,-261.317"/>
<text text-anchor="middle" x="1637" y="-385.648" font-family="Helvetica,sans-Serif" font-size="10.00"> myActions</text>
</g>
</g>
</svg>
