<?xml version="1.0" encoding="UTF-8" standalone="no"?>
<!DOCTYPE svg PUBLIC "-//W3C//DTD SVG 1.1//EN"
 "http://www.w3.org/Graphics/SVG/1.1/DTD/svg11.dtd">
<!-- Generated by graphviz version 2.36.0 (20140111.2315)
 -->
<!-- Title: engine.conditions.TimeCondition Pages: 1 -->
<svg width="2068pt" height="690pt"
 viewBox="0.00 0.00 2068.00 690.00" xmlns="http://www.w3.org/2000/svg" xmlns:xlink="http://www.w3.org/1999/xlink">
<g id="graph0" class="graph" transform="scale(1 1) rotate(0) translate(4 686)">
<title>engine.conditions.TimeCondition</title>
<polygon fill="white" stroke="none" points="-4,4 -4,-686 2064,-686 2064,4 -4,4"/>
<!-- Node1 -->
<g id="node1" class="node"><title>Node1</title>
<polygon fill="#bfbfbf" stroke="black" points="1888,-95.5 1888,-114.5 2060,-114.5 2060,-95.5 1888,-95.5"/>
<text text-anchor="middle" x="1974" y="-102.5" font-family="Helvetica,sans-Serif" font-size="10.00">engine.conditions.TimeCondition</text>
</g>
<!-- Node2 -->
<g id="node2" class="node"><title>Node2</title>
<g id="a_node2"><a xlink:href="../../d1/d3b/classengine_1_1conditions_1_1_condition.html" target="_top" xlink:title="engine.conditions.Condition">
<polygon fill="white" stroke="black" points="1700.5,-95.5 1700.5,-114.5 1849.5,-114.5 1849.5,-95.5 1700.5,-95.5"/>
<text text-anchor="middle" x="1775" y="-102.5" font-family="Helvetica,sans-Serif" font-size="10.00">engine.conditions.Condition</text>
</a>
</g>
</g>
<!-- Node2&#45;&gt;Node1 -->
<g id="edge1" class="edge"><title>Node2&#45;&gt;Node1</title>
<path fill="none" stroke="midnightblue" d="M1859.67,-105C1868.99,-105 1878.5,-105 1887.84,-105"/>
<polygon fill="midnightblue" stroke="midnightblue" points="1859.64,-101.5 1849.64,-105 1859.64,-108.5 1859.64,-101.5"/>
</g>
<!-- Node3 -->
<g id="node3" class="node"><title>Node3</title>
<g id="a_node3"><a xlink:href="../../dc/df6/interfaceengine_1_1game_object_1_1_identifiable.html" target="_top" xlink:title="engine.gameObject.Identifiable">
<polygon fill="white" stroke="black" points="242.5,-630.5 242.5,-649.5 407.5,-649.5 407.5,-630.5 242.5,-630.5"/>
<text text-anchor="middle" x="325" y="-637.5" font-family="Helvetica,sans-Serif" font-size="10.00">engine.gameObject.Identifiable</text>
</a>
</g>
</g>
<!-- Node3&#45;&gt;Node2 -->
<g id="edge2" class="edge"><title>Node3&#45;&gt;Node2</title>
<path fill="none" stroke="midnightblue" d="M380.278,-651.551C443.53,-663.984 551.342,-682 645,-682 645,-682 645,-682 1496,-682 1758.97,-682 1773.32,-189.555 1773.98,-114.534"/>
<polygon fill="midnightblue" stroke="midnightblue" points="380.63,-648.052 370.139,-649.53 379.262,-654.917 380.63,-648.052"/>
</g>
<!-- Node14 -->
<g id="node14" class="node"><title>Node14</title>
<g id="a_node14"><a xlink:href="../../df/d84/classengine_1_1level_1_1_level.html" target="_top" xlink:title="engine.level.Level">
<polygon fill="white" stroke="black" points="595.5,-376.5 595.5,-395.5 696.5,-395.5 696.5,-376.5 595.5,-376.5"/>
<text text-anchor="middle" x="646" y="-383.5" font-family="Helvetica,sans-Serif" font-size="10.00">engine.level.Level</text>
</a>
</g>
</g>
<!-- Node3&#45;&gt;Node14 -->
<g id="edge17" class="edge"><title>Node3&#45;&gt;Node14</title>
<path fill="none" stroke="midnightblue" d="M366.538,-627.028C416.587,-608.806 500.417,-570.655 544,-508 568.29,-473.08 534.038,-446.055 562,-414 570.597,-404.144 582.785,-397.751 595.181,-393.605"/>
<polygon fill="midnightblue" stroke="midnightblue" points="365.257,-623.769 357.001,-630.408 367.595,-630.367 365.257,-623.769"/>
</g>
<!-- Node4 -->
<g id="node4" class="node"><title>Node4</title>
<g id="a_node4"><a xlink:href="../../d2/d15/interfaceengine_1_1actions_1_1_initializable.html" target="_top" xlink:title="engine.actions.Initializable">
<polygon fill="white" stroke="black" points="1424,-76.5 1424,-95.5 1566,-95.5 1566,-76.5 1424,-76.5"/>
<text text-anchor="middle" x="1495" y="-83.5" font-family="Helvetica,sans-Serif" font-size="10.00">engine.actions.Initializable</text>
</a>
</g>
</g>
<!-- Node4&#45;&gt;Node2 -->
<g id="edge3" class="edge"><title>Node4&#45;&gt;Node2</title>
<path fill="none" stroke="midnightblue" d="M1576.2,-91.4813C1615.39,-94.1595 1662.22,-97.36 1700.47,-99.9746"/>
<polygon fill="midnightblue" stroke="midnightblue" points="1576.37,-87.9846 1566.15,-90.7945 1575.89,-94.9683 1576.37,-87.9846"/>
</g>
<!-- Node5 -->
<g id="node5" class="node"><title>Node5</title>
<g id="a_node5"><a xlink:href="../../d4/dac/classengine_1_1game_object_1_1_identifier.html" target="_top" xlink:title="engine.gameObject.Identifier">
<polygon fill="white" stroke="black" points="247.5,-143.5 247.5,-162.5 402.5,-162.5 402.5,-143.5 247.5,-143.5"/>
<text text-anchor="middle" x="325" y="-150.5" font-family="Helvetica,sans-Serif" font-size="10.00">engine.gameObject.Identifier</text>
</a>
</g>
</g>
<!-- Node5&#45;&gt;Node2 -->
<g id="edge4" class="edge"><title>Node5&#45;&gt;Node2</title>
<path fill="none" stroke="#9a32cd" stroke-dasharray="5,2" d="M402.216,-142.158C466.732,-133.922 561.73,-124 645,-124 645,-124 645,-124 1496,-124 1565.42,-124 1644.37,-118.03 1700.34,-112.783"/>
<polygon fill="#9a32cd" stroke="#9a32cd" points="401.598,-138.709 392.13,-143.464 402.497,-145.651 401.598,-138.709"/>
<text text-anchor="middle" x="1074" y="-127" font-family="Helvetica,sans-Serif" font-size="10.00"> myId</text>
</g>
<!-- Node5&#45;&gt;Node14 -->
<g id="edge18" class="edge"><title>Node5&#45;&gt;Node14</title>
<path fill="none" stroke="#9a32cd" stroke-dasharray="5,2" d="M353.344,-167.374C369.578,-176.225 390.368,-188.119 408,-200 499.524,-261.67 601.179,-348.037 634.089,-376.495"/>
<polygon fill="#9a32cd" stroke="#9a32cd" points="354.834,-164.201 344.37,-162.538 351.513,-170.363 354.834,-164.201"/>
<text text-anchor="middle" x="485" y="-301" font-family="Helvetica,sans-Serif" font-size="10.00"> myId</text>
</g>
<!-- Node6 -->
<g id="node6" class="node"><title>Node6</title>
<polygon fill="white" stroke="#bfbfbf" points="64,-143.5 64,-162.5 120,-162.5 120,-143.5 64,-143.5"/>
<text text-anchor="middle" x="92" y="-150.5" font-family="Helvetica,sans-Serif" font-size="10.00">Random</text>
</g>
<!-- Node6&#45;&gt;Node5 -->
<g id="edge5" class="edge"><title>Node6&#45;&gt;Node5</title>
<path fill="none" stroke="#9a32cd" stroke-dasharray="5,2" d="M130.511,-153C162.046,-153 208.136,-153 247.423,-153"/>
<polygon fill="#9a32cd" stroke="#9a32cd" points="130.406,-149.5 120.406,-153 130.406,-156.5 130.406,-149.5"/>
<text text-anchor="middle" x="213" y="-156" font-family="Helvetica,sans-Serif" font-size="10.00"> r</text>
</g>
<!-- Node7 -->
<g id="node7" class="node"><title>Node7</title>
<g id="a_node7"><a xlink:href="../../d6/d94/classengine_1_1_game_manager.html" target="_top" xlink:title="engine.GameManager">
<polygon fill="white" stroke="black" points="1433.5,-294.5 1433.5,-313.5 1556.5,-313.5 1556.5,-294.5 1433.5,-294.5"/>
<text text-anchor="middle" x="1495" y="-301.5" font-family="Helvetica,sans-Serif" font-size="10.00">engine.GameManager</text>
</a>
</g>
</g>
<!-- Node7&#45;&gt;Node2 -->
<g id="edge6" class="edge"><title>Node7&#45;&gt;Node2</title>
<path fill="none" stroke="#9a32cd" stroke-dasharray="5,2" d="M1517.74,-288.436C1572.77,-249.044 1716.34,-146.277 1760.73,-114.502"/>
<polygon fill="#9a32cd" stroke="#9a32cd" points="1515.5,-285.735 1509.41,-294.402 1519.58,-291.427 1515.5,-285.735"/>
<text text-anchor="middle" x="1637" y="-237" font-family="Helvetica,sans-Serif" font-size="10.00"> myGameManager</text>
</g>
<!-- Node8 -->
<g id="node8" class="node"><title>Node8</title>
<g id="a_node8"><a xlink:href="../../df/de5/classauthoring_1_1model_1_1collections_1_1_levels_collection.html" target="_top" xlink:title="authoring.model.collections.\lLevelsCollection">
<polygon fill="white" stroke="black" points="570,-210 570,-240 722,-240 722,-210 570,-210"/>
<text text-anchor="start" x="578" y="-228" font-family="Helvetica,sans-Serif" font-size="10.00">authoring.model.collections.</text>
<text text-anchor="middle" x="646" y="-217" font-family="Helvetica,sans-Serif" font-size="10.00">LevelsCollection</text>
</a>
</g>
</g>
<!-- Node8&#45;&gt;Node7 -->
<g id="edge7" class="edge"><title>Node8&#45;&gt;Node7</title>
<path fill="none" stroke="#9a32cd" stroke-dasharray="5,2" d="M732.408,-217.219C856.71,-207.62 1094.41,-195.788 1294,-224 1341.63,-230.733 1353.33,-236.134 1398,-254 1427.31,-265.725 1459.5,-283.594 1478.16,-294.494"/>
<polygon fill="#9a32cd" stroke="#9a32cd" points="731.892,-213.748 722.197,-218.022 732.441,-220.727 731.892,-213.748"/>
<text text-anchor="middle" x="1074" y="-212" font-family="Helvetica,sans-Serif" font-size="10.00"> myLevels</text>
</g>
<!-- Node10 -->
<g id="node10" class="node"><title>Node10</title>
<g id="a_node10"><a xlink:href="../../df/d67/classengine_1_1level_1_1_level_manager.html" target="_top" xlink:title="engine.level.LevelManager">
<polygon fill="white" stroke="black" points="1141.5,-399.5 1141.5,-418.5 1284.5,-418.5 1284.5,-399.5 1141.5,-399.5"/>
<text text-anchor="middle" x="1213" y="-406.5" font-family="Helvetica,sans-Serif" font-size="10.00">engine.level.LevelManager</text>
</a>
</g>
</g>
<!-- Node8&#45;&gt;Node10 -->
<g id="edge11" class="edge"><title>Node8&#45;&gt;Node10</title>
<path fill="none" stroke="#9a32cd" stroke-dasharray="5,2" d="M732.528,-226.373C767.911,-228.14 809.194,-231.76 846,-239 970.742,-263.538 1003.74,-275.706 1114,-339 1146.82,-357.841 1182.22,-385.032 1200.15,-399.347"/>
<polygon fill="#9a32cd" stroke="#9a32cd" points="732.382,-222.863 722.232,-225.903 732.062,-229.856 732.382,-222.863"/>
<text text-anchor="middle" x="940" y="-290" font-family="Helvetica,sans-Serif" font-size="10.00"> myLevels</text>
</g>
<!-- Node22 -->
<g id="node22" class="node"><title>Node22</title>
<g id="a_node22"><a xlink:href="../../da/d90/classengine_1_1sound_1_1_sound_utility.html" target="_top" xlink:title="engine.sound.SoundUtility">
<polygon fill="white" stroke="black" points="869,-465.5 869,-484.5 1011,-484.5 1011,-465.5 869,-465.5"/>
<text text-anchor="middle" x="940" y="-472.5" font-family="Helvetica,sans-Serif" font-size="10.00">engine.sound.SoundUtility</text>
</a>
</g>
</g>
<!-- Node8&#45;&gt;Node22 -->
<g id="edge27" class="edge"><title>Node8&#45;&gt;Node22</title>
<path fill="none" stroke="#9a32cd" stroke-dasharray="5,2" d="M698.712,-244.632C709.972,-250.595 721.15,-258.01 730,-267 742.829,-280.032 733.881,-292.378 748,-304 782.792,-332.638 815.814,-296.542 846,-330 880.361,-368.085 832.238,-403.722 864,-444 871.852,-453.957 883.452,-460.744 895.196,-465.36"/>
<polygon fill="#9a32cd" stroke="#9a32cd" points="700.219,-241.473 689.706,-240.159 697.105,-247.742 700.219,-241.473"/>
<text text-anchor="middle" x="797" y="-333" font-family="Helvetica,sans-Serif" font-size="10.00"> myLevels</text>
</g>
<!-- Node9 -->
<g id="node9" class="node"><title>Node9</title>
<g id="a_node9"><a xlink:href="../../d4/d3b/classauthoring_1_1model_1_1collections_1_1_general_collection.html" target="_top" xlink:title="authoring.model.collections.\lGeneralCollection\&lt; Level \&gt;">
<polygon fill="white" stroke="black" points="249,-210 249,-240 401,-240 401,-210 249,-210"/>
<text text-anchor="start" x="257" y="-228" font-family="Helvetica,sans-Serif" font-size="10.00">authoring.model.collections.</text>
<text text-anchor="middle" x="325" y="-217" font-family="Helvetica,sans-Serif" font-size="10.00">GeneralCollection&lt; Level &gt;</text>
</a>
</g>
</g>
<!-- Node9&#45;&gt;Node8 -->
<g id="edge8" class="edge"><title>Node9&#45;&gt;Node8</title>
<path fill="none" stroke="midnightblue" d="M411.216,-225C460.588,-225 522.186,-225 569.758,-225"/>
<polygon fill="midnightblue" stroke="midnightblue" points="411.195,-221.5 401.195,-225 411.195,-228.5 411.195,-221.5"/>
</g>
<!-- Node10&#45;&gt;Node7 -->
<g id="edge9" class="edge"><title>Node10&#45;&gt;Node7</title>
<path fill="none" stroke="#9a32cd" stroke-dasharray="5,2" d="M1250.1,-395.825C1287.24,-382.233 1346.74,-360.348 1398,-341 1422.4,-331.791 1450.19,-321.051 1469.57,-313.522"/>
<polygon fill="#9a32cd" stroke="#9a32cd" points="1248.44,-392.708 1240.25,-399.43 1250.84,-399.282 1248.44,-392.708"/>
<text text-anchor="middle" x="1355" y="-376" font-family="Helvetica,sans-Serif" font-size="10.00"> myLevelManager</text>
</g>
<!-- Node11 -->
<g id="node11" class="node"><title>Node11</title>
<polygon fill="white" stroke="#bfbfbf" points="890,-415.5 890,-434.5 990,-434.5 990,-415.5 890,-415.5"/>
<text text-anchor="middle" x="940" y="-422.5" font-family="Helvetica,sans-Serif" font-size="10.00">Iterable&lt; Level &gt;</text>
</g>
<!-- Node11&#45;&gt;Node10 -->
<g id="edge10" class="edge"><title>Node11&#45;&gt;Node10</title>
<path fill="none" stroke="midnightblue" d="M1000.31,-421.498C1041.85,-419.046 1097.53,-415.758 1141.36,-413.17"/>
<polygon fill="midnightblue" stroke="midnightblue" points="999.852,-418.019 990.076,-422.103 1000.26,-425.007 999.852,-418.019"/>
</g>
<!-- Node12 -->
<g id="node12" class="node"><title>Node12</title>
<g id="a_node12"><a xlink:href="../../df/de5/classengine_1_1render_1_1_game_object_renderer.html" target="_top" xlink:title="engine.render.GameObject\lRenderer">
<polygon fill="white" stroke="black" points="867,-316 867,-346 1013,-346 1013,-316 867,-316"/>
<text text-anchor="start" x="875" y="-334" font-family="Helvetica,sans-Serif" font-size="10.00">engine.render.GameObject</text>
<text text-anchor="middle" x="940" y="-323" font-family="Helvetica,sans-Serif" font-size="10.00">Renderer</text>
</a>
</g>
</g>
<!-- Node12&#45;&gt;Node7 -->
<g id="edge34" class="edge"><title>Node12&#45;&gt;Node7</title>
<path fill="none" stroke="#9a32cd" stroke-dasharray="5,2" d="M1023.09,-328.126C1114.59,-324.755 1266.95,-318.644 1398,-311 1409.43,-310.333 1421.61,-309.522 1433.33,-308.692"/>
<polygon fill="#9a32cd" stroke="#9a32cd" points="1022.93,-324.63 1013.06,-328.494 1023.18,-331.625 1022.93,-324.63"/>
<text text-anchor="middle" x="1213" y="-327" font-family="Helvetica,sans-Serif" font-size="10.00"> myGameObjectRenderer</text>
</g>
<!-- Node12&#45;&gt;Node10 -->
<g id="edge12" class="edge"><title>Node12&#45;&gt;Node10</title>
<path fill="none" stroke="#9a32cd" stroke-dasharray="5,2" d="M1023.35,-340.404C1052.43,-344.997 1085.08,-351.622 1114,-361 1144.28,-370.818 1177.02,-388.422 1195.95,-399.364"/>
<polygon fill="#9a32cd" stroke="#9a32cd" points="1023.64,-336.908 1013.23,-338.863 1022.59,-343.828 1023.64,-336.908"/>
<text text-anchor="middle" x="1074" y="-364" font-family="Helvetica,sans-Serif" font-size="10.00"> myRenderer</text>
</g>
<!-- Node13 -->
<g id="node13" class="node"><title>Node13</title>
<polygon fill="white" stroke="#bfbfbf" points="564,-277 564,-307 728,-307 728,-277 564,-277"/>
<text text-anchor="start" x="572" y="-295" font-family="Helvetica,sans-Serif" font-size="10.00">Map&lt; Identifier, engine.render.</text>
<text text-anchor="middle" x="646" y="-284" font-family="Helvetica,sans-Serif" font-size="10.00">RenderedNode &gt;</text>
</g>
<!-- Node13&#45;&gt;Node12 -->
<g id="edge13" class="edge"><title>Node13&#45;&gt;Node12</title>
<path fill="none" stroke="#9a32cd" stroke-dasharray="5,2" d="M738.472,-285.19C772.518,-284.553 811.3,-286.094 846,-293 868.409,-297.46 892.236,-307.306 910.163,-315.858"/>
<polygon fill="#9a32cd" stroke="#9a32cd" points="737.976,-281.701 728.068,-285.454 738.154,-288.699 737.976,-281.701"/>
<text text-anchor="middle" x="797" y="-296" font-family="Helvetica,sans-Serif" font-size="10.00"> myRenderedNodes</text>
</g>
<!-- Node14&#45;&gt;Node10 -->
<g id="edge25" class="edge"><title>Node14&#45;&gt;Node10</title>
<path fill="none" stroke="#9a32cd" stroke-dasharray="5,2" d="M706.939,-386.598C779.971,-387.527 907.101,-389.786 1016,-395 1057.57,-396.991 1104.03,-400.263 1141.28,-403.144"/>
<polygon fill="#9a32cd" stroke="#9a32cd" points="706.607,-383.094 696.565,-386.471 706.521,-390.094 706.607,-383.094"/>
<text text-anchor="middle" x="940" y="-398" font-family="Helvetica,sans-Serif" font-size="10.00"> myCurrentLevel</text>
</g>
<!-- Node14&#45;&gt;Node12 -->
<g id="edge14" class="edge"><title>Node14&#45;&gt;Node12</title>
<path fill="none" stroke="#9a32cd" stroke-dasharray="5,2" d="M692.233,-373.914C709.596,-369.509 729.646,-364.706 748,-361 786.989,-353.128 830.808,-346.116 866.631,-340.854"/>
<polygon fill="#9a32cd" stroke="#9a32cd" points="691.17,-370.573 682.354,-376.45 692.91,-377.354 691.17,-370.573"/>
<text text-anchor="middle" x="797" y="-364" font-family="Helvetica,sans-Serif" font-size="10.00"> myCurrentLevel</text>
</g>
<!-- Node15 -->
<g id="node15" class="node"><title>Node15</title>
<g id="a_node15"><a xlink:href="../../d3/d8d/classdata_1_1_observable.html" target="_top" xlink:title="data.Observable">
<polygon fill="white" stroke="black" points="277.5,-400.5 277.5,-419.5 372.5,-419.5 372.5,-400.5 277.5,-400.5"/>
<text text-anchor="middle" x="325" y="-407.5" font-family="Helvetica,sans-Serif" font-size="10.00">data.Observable</text>
</a>
</g>
</g>
<!-- Node15&#45;&gt;Node14 -->
<g id="edge15" class="edge"><title>Node15&#45;&gt;Node14</title>
<path fill="none" stroke="midnightblue" d="M382.85,-405.723C443.23,-401.18 537.733,-394.07 595.257,-389.742"/>
<polygon fill="midnightblue" stroke="midnightblue" points="382.436,-402.244 372.727,-406.484 382.961,-409.224 382.436,-402.244"/>
</g>
<!-- Node16 -->
<g id="node16" class="node"><title>Node16</title>
<polygon fill="white" stroke="#bfbfbf" points="23,-400.5 23,-419.5 161,-419.5 161,-400.5 23,-400.5"/>
<text text-anchor="middle" x="92" y="-407.5" font-family="Helvetica,sans-Serif" font-size="10.00">Vector&lt; data.Observer &gt;</text>
</g>
<!-- Node16&#45;&gt;Node15 -->
<g id="edge16" class="edge"><title>Node16&#45;&gt;Node15</title>
<path fill="none" stroke="#9a32cd" stroke-dasharray="5,2" d="M171.318,-410C206.521,-410 246.882,-410 277.262,-410"/>
<polygon fill="#9a32cd" stroke="#9a32cd" points="171.058,-406.5 161.058,-410 171.058,-413.5 171.058,-406.5"/>
<text text-anchor="middle" x="213" y="-413" font-family="Helvetica,sans-Serif" font-size="10.00"> obs</text>
</g>
<!-- Node17 -->
<g id="node17" class="node"><title>Node17</title>
<g id="a_node17"><a xlink:href="../../d1/d32/classauthoring_1_1model_1_1collections_1_1_game_objects_collection.html" target="_top" xlink:title="authoring.model.collections.\lGameObjectsCollection">
<polygon fill="white" stroke="black" points="249,-540 249,-570 401,-570 401,-540 249,-540"/>
<text text-anchor="start" x="257" y="-558" font-family="Helvetica,sans-Serif" font-size="10.00">authoring.model.collections.</text>
<text text-anchor="middle" x="325" y="-547" font-family="Helvetica,sans-Serif" font-size="10.00">GameObjectsCollection</text>
</a>
</g>
</g>
<!-- Node17&#45;&gt;Node7 -->
<g id="edge35" class="edge"><title>Node17&#45;&gt;Node7</title>
<path fill="none" stroke="#9a32cd" stroke-dasharray="5,2" d="M367.75,-574.286C427.742,-600.188 542.416,-643 645,-643 645,-643 645,-643 1214,-643 1389.57,-643 1475.68,-369.363 1491.36,-313.78"/>
<polygon fill="#9a32cd" stroke="#9a32cd" points="368.816,-570.932 358.251,-570.128 366.008,-577.344 368.816,-570.932"/>
<text text-anchor="middle" x="940" y="-646" font-family="Helvetica,sans-Serif" font-size="10.00"> myGameObjects</text>
</g>
<!-- Node17&#45;&gt;Node10 -->
<g id="edge24" class="edge"><title>Node17&#45;&gt;Node10</title>
<path fill="none" stroke="#9a32cd" stroke-dasharray="5,2" d="M411.233,-554.432C542.596,-552.001 801.778,-541.014 1016,-494 1060.13,-484.315 1072.9,-485.769 1114,-467 1122.75,-463.006 1123.83,-460.066 1132,-455 1153.24,-441.832 1178.3,-427.631 1194.64,-418.546"/>
<polygon fill="#9a32cd" stroke="#9a32cd" points="411.168,-550.932 401.23,-554.605 411.289,-557.931 411.168,-550.932"/>
<text text-anchor="middle" x="797" y="-549" font-family="Helvetica,sans-Serif" font-size="10.00"> myTemplateObjects</text>
<text text-anchor="middle" x="797" y="-538" font-family="Helvetica,sans-Serif" font-size="10.00">myGameObjects</text>
</g>
<!-- Node17&#45;&gt;Node14 -->
<g id="edge19" class="edge"><title>Node17&#45;&gt;Node14</title>
<path fill="none" stroke="#9a32cd" stroke-dasharray="5,2" d="M354.824,-533.777C374.487,-519.634 401.339,-500.966 426,-486 484.469,-450.518 499.171,-441.019 562,-414 578.346,-406.971 597.087,-400.518 612.62,-395.583"/>
<polygon fill="#9a32cd" stroke="#9a32cd" points="352.645,-531.033 346.597,-539.732 356.75,-536.704 352.645,-531.033"/>
<text text-anchor="middle" x="485" y="-500" font-family="Helvetica,sans-Serif" font-size="10.00"> myDefaultGameObjects</text>
<text text-anchor="middle" x="485" y="-489" font-family="Helvetica,sans-Serif" font-size="10.00">myWorkingGameObjects</text>
</g>
<!-- Node18 -->
<g id="node18" class="node"><title>Node18</title>
<g id="a_node18"><a xlink:href="../../d4/d3b/classauthoring_1_1model_1_1collections_1_1_general_collection.html" target="_top" xlink:title="authoring.model.collections.\lGeneralCollection\&lt; GameObject \&gt;">
<polygon fill="white" stroke="black" points="0.5,-540 0.5,-570 183.5,-570 183.5,-540 0.5,-540"/>
<text text-anchor="start" x="8.5" y="-558" font-family="Helvetica,sans-Serif" font-size="10.00">authoring.model.collections.</text>
<text text-anchor="middle" x="92" y="-547" font-family="Helvetica,sans-Serif" font-size="10.00">GeneralCollection&lt; GameObject &gt;</text>
</a>
</g>
</g>
<!-- Node18&#45;&gt;Node17 -->
<g id="edge20" class="edge"><title>Node18&#45;&gt;Node17</title>
<path fill="none" stroke="midnightblue" d="M193.843,-555C212.335,-555 231.337,-555 248.91,-555"/>
<polygon fill="midnightblue" stroke="midnightblue" points="193.634,-551.5 183.634,-555 193.634,-558.5 193.634,-551.5"/>
</g>
<!-- Node19 -->
<g id="node19" class="node"><title>Node19</title>
<polygon fill="white" stroke="#bfbfbf" points="254.5,-351 254.5,-381 395.5,-381 395.5,-351 254.5,-351"/>
<text text-anchor="start" x="262.5" y="-369" font-family="Helvetica,sans-Serif" font-size="10.00">List&lt; engine.gameObject.</text>
<text text-anchor="middle" x="325" y="-358" font-family="Helvetica,sans-Serif" font-size="10.00">Identifier &gt;</text>
</g>
<!-- Node19&#45;&gt;Node14 -->
<g id="edge21" class="edge"><title>Node19&#45;&gt;Node14</title>
<path fill="none" stroke="#9a32cd" stroke-dasharray="5,2" d="M405.845,-364.816C447.158,-364.873 498.365,-365.986 544,-370 560.801,-371.478 579.041,-374.062 595.339,-376.728"/>
<polygon fill="#9a32cd" stroke="#9a32cd" points="405.835,-361.316 395.837,-364.822 405.839,-368.316 405.835,-361.316"/>
<text text-anchor="middle" x="485" y="-384" font-family="Helvetica,sans-Serif" font-size="10.00"> myConditionIdList</text>
<text text-anchor="middle" x="485" y="-373" font-family="Helvetica,sans-Serif" font-size="10.00">myGameObjectIdList</text>
</g>
<!-- Node20 -->
<g id="node20" class="node"><title>Node20</title>
<polygon fill="white" stroke="#bfbfbf" points="623,-162.5 623,-181.5 669,-181.5 669,-162.5 623,-162.5"/>
<text text-anchor="middle" x="646" y="-169.5" font-family="Helvetica,sans-Serif" font-size="10.00">Group</text>
</g>
<!-- Node20&#45;&gt;Node7 -->
<g id="edge37" class="edge"><title>Node20&#45;&gt;Node7</title>
<path fill="none" stroke="#9a32cd" stroke-dasharray="5,2" d="M679.243,-172.162C773.936,-172.967 1059.31,-177.743 1294,-206 1340.5,-211.599 1355.46,-203.414 1398,-223 1435.83,-240.418 1470.65,-276.934 1485.89,-294.355"/>
<polygon fill="#9a32cd" stroke="#9a32cd" points="679.184,-168.662 669.158,-172.086 679.131,-175.661 679.184,-168.662"/>
<text text-anchor="middle" x="1074" y="-192" font-family="Helvetica,sans-Serif" font-size="10.00"> myRootGroup</text>
</g>
<!-- Node20&#45;&gt;Node12 -->
<g id="edge22" class="edge"><title>Node20&#45;&gt;Node12</title>
<path fill="none" stroke="#9a32cd" stroke-dasharray="5,2" d="M678.806,-180.896C694.536,-185.753 713.613,-192.339 730,-200 803.32,-234.276 882.296,-289.344 918.612,-315.821"/>
<polygon fill="#9a32cd" stroke="#9a32cd" points="679.598,-177.48 669.014,-177.96 677.588,-184.185 679.598,-177.48"/>
<text text-anchor="middle" x="797" y="-266" font-family="Helvetica,sans-Serif" font-size="10.00"> myCanvas</text>
</g>
<!-- Node21 -->
<g id="node21" class="node"><title>Node21</title>
<g id="a_node21"><a xlink:href="../../d9/db5/classengine_1_1_file_path_utility.html" target="_top" xlink:title="engine.FilePathUtility">
<polygon fill="white" stroke="black" points="588.5,-423.5 588.5,-442.5 703.5,-442.5 703.5,-423.5 588.5,-423.5"/>
<text text-anchor="middle" x="646" y="-430.5" font-family="Helvetica,sans-Serif" font-size="10.00">engine.FilePathUtility</text>
</a>
</g>
</g>
<!-- Node21&#45;&gt;Node12 -->
<g id="edge23" class="edge"><title>Node21&#45;&gt;Node12</title>
<path fill="none" stroke="#9a32cd" stroke-dasharray="5,2" d="M705.929,-421.168C746.46,-411.828 800.901,-396.874 846,-376 854.726,-371.961 855.568,-368.62 864,-364 875.852,-357.506 889.236,-351.287 901.382,-346.034"/>
<polygon fill="#9a32cd" stroke="#9a32cd" points="704.923,-417.807 695.938,-423.421 706.463,-424.635 704.923,-417.807"/>
<text text-anchor="middle" x="797" y="-413" font-family="Helvetica,sans-Serif" font-size="10.00"> myFilePathUtility</text>
</g>
<!-- Node21&#45;&gt;Node22 -->
<g id="edge30" class="edge"><title>Node21&#45;&gt;Node22</title>
<path fill="none" stroke="#9a32cd" stroke-dasharray="5,2" d="M713.565,-442.574C761.255,-449.434 825.201,-458.632 872.806,-465.479"/>
<polygon fill="#9a32cd" stroke="#9a32cd" points="714.043,-439.107 703.647,-441.148 713.047,-446.036 714.043,-439.107"/>
<text text-anchor="middle" x="797" y="-465" font-family="Helvetica,sans-Serif" font-size="10.00"> myFilePathUtility</text>
</g>
<!-- Node22&#45;&gt;Node7 -->
<g id="edge38" class="edge"><title>Node22&#45;&gt;Node7</title>
<path fill="none" stroke="#9a32cd" stroke-dasharray="5,2" d="M961.157,-490.951C979.103,-504.066 1006.67,-521.642 1034,-529 1068.33,-538.245 1079.38,-537.12 1114,-529 1251.2,-496.816 1280.89,-466.384 1398,-388 1432.6,-364.842 1468.15,-330.396 1484.6,-313.73"/>
<polygon fill="#9a32cd" stroke="#9a32cd" points="962.795,-487.803 952.703,-484.578 958.581,-493.392 962.795,-487.803"/>
<text text-anchor="middle" x="1213" y="-527" font-family="Helvetica,sans-Serif" font-size="10.00"> mySoundUtility</text>
</g>
<!-- Node22&#45;&gt;Node10 -->
<g id="edge26" class="edge"><title>Node22&#45;&gt;Node10</title>
<path fill="none" stroke="#9a32cd" stroke-dasharray="5,2" d="M989.867,-463.099C1042.31,-450.327 1124.57,-430.294 1172.9,-418.524"/>
<polygon fill="#9a32cd" stroke="#9a32cd" points="989.004,-459.707 980.116,-465.474 990.661,-466.508 989.004,-459.707"/>
<text text-anchor="middle" x="1074" y="-455" font-family="Helvetica,sans-Serif" font-size="10.00"> mySoundPlayer</text>
</g>
<!-- Node23 -->
<g id="node23" class="node"><title>Node23</title>
<polygon fill="white" stroke="#bfbfbf" points="570,-507.5 570,-526.5 722,-526.5 722,-507.5 570,-507.5"/>
<text text-anchor="middle" x="646" y="-514.5" font-family="Helvetica,sans-Serif" font-size="10.00">Map&lt; String, MediaPlayer &gt;</text>
</g>
<!-- Node23&#45;&gt;Node22 -->
<g id="edge28" class="edge"><title>Node23&#45;&gt;Node22</title>
<path fill="none" stroke="#9a32cd" stroke-dasharray="5,2" d="M732.545,-508.034C767.764,-503.992 808.922,-498.817 846,-493 861.434,-490.579 878.221,-487.476 893.23,-484.53"/>
<polygon fill="#9a32cd" stroke="#9a32cd" points="731.841,-504.592 722.299,-509.197 732.63,-511.547 731.841,-504.592"/>
<text text-anchor="middle" x="797" y="-510" font-family="Helvetica,sans-Serif" font-size="10.00"> myMediaPlayerMap</text>
</g>
<!-- Node24 -->
<g id="node24" class="node"><title>Node24</title>
<polygon fill="white" stroke="#bfbfbf" points="577,-469.5 577,-488.5 715,-488.5 715,-469.5 577,-469.5"/>
<text text-anchor="middle" x="646" y="-476.5" font-family="Helvetica,sans-Serif" font-size="10.00">Map&lt; String, AudioClip &gt;</text>
</g>
<!-- Node24&#45;&gt;Node22 -->
<g id="edge29" class="edge"><title>Node24&#45;&gt;Node22</title>
<path fill="none" stroke="#9a32cd" stroke-dasharray="5,2" d="M725.323,-477.927C769.992,-477.315 825.515,-476.555 868.767,-475.962"/>
<polygon fill="#9a32cd" stroke="#9a32cd" points="725.044,-474.43 715.093,-478.067 725.14,-481.43 725.044,-474.43"/>
<text text-anchor="middle" x="797" y="-481" font-family="Helvetica,sans-Serif" font-size="10.00"> myAudioClipMap</text>
</g>
<!-- Node25 -->
<g id="node25" class="node"><title>Node25</title>
<g id="a_node25"><a xlink:href="../../db/d2a/classauthoring_1_1model_1_1collections_1_1_conditions_collection.html" target="_top" xlink:title="authoring.model.collections.\lConditionsCollection">
<polygon fill="white" stroke="black" points="864,-575 864,-605 1016,-605 1016,-575 864,-575"/>
<text text-anchor="start" x="872" y="-593" font-family="Helvetica,sans-Serif" font-size="10.00">authoring.model.collections.</text>
<text text-anchor="middle" x="940" y="-582" font-family="Helvetica,sans-Serif" font-size="10.00">ConditionsCollection</text>
</a>
</g>
</g>
<!-- Node25&#45;&gt;Node7 -->
<g id="edge39" class="edge"><title>Node25&#45;&gt;Node7</title>
<path fill="none" stroke="#9a32cd" stroke-dasharray="5,2" d="M1026.48,-592.86C1101.03,-591.92 1210.07,-582.045 1294,-539 1398.64,-485.337 1470.87,-350.932 1489.34,-313.697"/>
<polygon fill="#9a32cd" stroke="#9a32cd" points="1026.17,-589.362 1016.2,-592.935 1026.23,-596.362 1026.17,-589.362"/>
<text text-anchor="middle" x="1213" y="-589" font-family="Helvetica,sans-Serif" font-size="10.00"> myGameConditions</text>
</g>
<!-- Node25&#45;&gt;Node10 -->
<g id="edge31" class="edge"><title>Node25&#45;&gt;Node10</title>
<path fill="none" stroke="#9a32cd" stroke-dasharray="5,2" d="M982.393,-570.475C1018.41,-552.748 1071.37,-524.874 1114,-495 1149.04,-470.448 1185.76,-435.274 1202.58,-418.544"/>
<polygon fill="#9a32cd" stroke="#9a32cd" points="980.616,-567.447 973.163,-574.978 983.685,-573.739 980.616,-567.447"/>
<text text-anchor="middle" x="1074" y="-546" font-family="Helvetica,sans-Serif" font-size="10.00"> myConditions</text>
</g>
<!-- Node26 -->
<g id="node26" class="node"><title>Node26</title>
<g id="a_node26"><a xlink:href="../../d4/d3b/classauthoring_1_1model_1_1collections_1_1_general_collection.html" target="_top" xlink:title="authoring.model.collections.\lGeneralCollection\&lt; Condition \&gt;">
<polygon fill="white" stroke="black" points="562,-584 562,-614 730,-614 730,-584 562,-584"/>
<text text-anchor="start" x="570" y="-602" font-family="Helvetica,sans-Serif" font-size="10.00">authoring.model.collections.</text>
<text text-anchor="middle" x="646" y="-591" font-family="Helvetica,sans-Serif" font-size="10.00">GeneralCollection&lt; Condition &gt;</text>
</a>
</g>
</g>
<!-- Node26&#45;&gt;Node25 -->
<g id="edge32" class="edge"><title>Node26&#45;&gt;Node25</title>
<path fill="none" stroke="midnightblue" d="M740.523,-596.117C780.286,-594.892 826.039,-593.482 863.588,-592.324"/>
<polygon fill="midnightblue" stroke="midnightblue" points="740.172,-592.626 730.285,-596.433 740.388,-599.623 740.172,-592.626"/>
</g>
<!-- Node27 -->
<g id="node27" class="node"><title>Node27</title>
<polygon fill="white" stroke="#bfbfbf" points="1185,-271.5 1185,-290.5 1241,-290.5 1241,-271.5 1185,-271.5"/>
<text text-anchor="middle" x="1213" y="-278.5" font-family="Helvetica,sans-Serif" font-size="10.00">Timeline</text>
</g>
<!-- Node27&#45;&gt;Node7 -->
<g id="edge33" class="edge"><title>Node27&#45;&gt;Node7</title>
<path fill="none" stroke="#9a32cd" stroke-dasharray="5,2" d="M1251.33,-284.067C1297.86,-287.888 1377.97,-294.469 1433.35,-299.018"/>
<polygon fill="#9a32cd" stroke="#9a32cd" points="1251.35,-280.557 1241.1,-283.226 1250.78,-287.533 1251.35,-280.557"/>
<text text-anchor="middle" x="1355" y="-299" font-family="Helvetica,sans-Serif" font-size="10.00"> myAnimation</text>
</g>
<!-- Node28 -->
<g id="node28" class="node"><title>Node28</title>
<polygon fill="white" stroke="#bfbfbf" points="1132.5,-233.5 1132.5,-252.5 1293.5,-252.5 1293.5,-233.5 1132.5,-233.5"/>
<text text-anchor="middle" x="1213" y="-240.5" font-family="Helvetica,sans-Serif" font-size="10.00">EventHandler&lt; ActionEvent &gt;</text>
</g>
<!-- Node28&#45;&gt;Node7 -->
<g id="edge36" class="edge"><title>Node28&#45;&gt;Node7</title>
<path fill="none" stroke="#9a32cd" stroke-dasharray="5,2" d="M1290.5,-254.176C1323.73,-259.577 1362.98,-266.696 1398,-275 1421.04,-280.462 1446.69,-288.305 1465.68,-294.458"/>
<polygon fill="#9a32cd" stroke="#9a32cd" points="1290.82,-250.683 1280.4,-252.555 1289.72,-257.595 1290.82,-250.683"/>
<text text-anchor="middle" x="1355" y="-278" font-family="Helvetica,sans-Serif" font-size="10.00"> oneFrame</text>
</g>
<!-- Node29 -->
<g id="node29" class="node"><title>Node29</title>
<polygon fill="white" stroke="#bfbfbf" points="1416,-38.5 1416,-57.5 1574,-57.5 1574,-38.5 1416,-38.5"/>
<text text-anchor="middle" x="1495" y="-45.5" font-family="Helvetica,sans-Serif" font-size="10.00">List&lt; engine.actions.Action &gt;</text>
</g>
<!-- Node29&#45;&gt;Node2 -->
<g id="edge40" class="edge"><title>Node29&#45;&gt;Node2</title>
<path fill="none" stroke="#9a32cd" stroke-dasharray="5,2" d="M1578.3,-59.0014C1610.78,-63.9346 1648.32,-70.3732 1682,-78 1703.27,-82.8159 1726.86,-89.7732 1744.83,-95.4191"/>
<polygon fill="#9a32cd" stroke="#9a32cd" points="1578.8,-55.5372 1568.39,-57.5191 1577.76,-62.4602 1578.8,-55.5372"/>
<text text-anchor="middle" x="1637" y="-81" font-family="Helvetica,sans-Serif" font-size="10.00"> myActions</text>
</g>
<!-- Node30 -->
<g id="node30" class="node"><title>Node30</title>
<polygon fill="white" stroke="#bfbfbf" points="1434,-0.5 1434,-19.5 1556,-19.5 1556,-0.5 1434,-0.5"/>
<text text-anchor="middle" x="1495" y="-7.5" font-family="Helvetica,sans-Serif" font-size="10.00">Map&lt; String, String &gt;</text>
</g>
<!-- Node30&#45;&gt;Node2 -->
<g id="edge41" class="edge"><title>Node30&#45;&gt;Node2</title>
<path fill="none" stroke="#9a32cd" stroke-dasharray="5,2" d="M1566.51,-17.8227C1602.04,-23.3004 1645.26,-32.349 1682,-47 1713.04,-59.3785 1745.14,-82.3663 1761.99,-95.3753"/>
<polygon fill="#9a32cd" stroke="#9a32cd" points="1566.63,-14.3028 1556.23,-16.3029 1565.61,-21.2275 1566.63,-14.3028"/>
<text text-anchor="middle" x="1637" y="-50" font-family="Helvetica,sans-Serif" font-size="10.00"> myInputs</text>
</g>
</g>
</svg>
