<?xml version="1.0" encoding="UTF-8" standalone="no"?>
<!DOCTYPE svg PUBLIC "-//W3C//DTD SVG 1.1//EN"
 "http://www.w3.org/Graphics/SVG/1.1/DTD/svg11.dtd">
<!-- Generated by graphviz version 2.36.0 (20140111.2315)
 -->
<!-- Title: gamePlayer.view.GameCanvas.getNode Pages: 1 -->
<svg width="1572pt" height="134pt"
 viewBox="0.00 0.00 1572.00 134.00" xmlns="http://www.w3.org/2000/svg" xmlns:xlink="http://www.w3.org/1999/xlink">
<g id="graph0" class="graph" transform="scale(1 1) rotate(0) translate(4 130)">
<title>gamePlayer.view.GameCanvas.getNode</title>
<polygon fill="white" stroke="none" points="-4,4 -4,-130 1568,-130 1568,4 -4,4"/>
<!-- Node1 -->
<g id="node1" class="node"><title>Node1</title>
<polygon fill="#bfbfbf" stroke="black" points="0.5,-29.5 0.5,-48.5 207.5,-48.5 207.5,-29.5 0.5,-29.5"/>
<text text-anchor="middle" x="104" y="-36.5" font-family="Helvetica,sans-Serif" font-size="10.00">gamePlayer.view.GameCanvas.getNode</text>
</g>
<!-- Node2 -->
<g id="node2" class="node"><title>Node2</title>
<g id="a_node2"><a xlink:href="../../d7/d3c/classgame_player_1_1view_1_1_player_view.html#afce0dda0a14523caaf59ad98ab7988ec" target="_top" xlink:title="gamePlayer.view.PlayerView.get\lGroup">
<polygon fill="white" stroke="black" points="255.5,-49 255.5,-79 422.5,-79 422.5,-49 255.5,-49"/>
<text text-anchor="start" x="263.5" y="-67" font-family="Helvetica,sans-Serif" font-size="10.00">gamePlayer.view.PlayerView.get</text>
<text text-anchor="middle" x="339" y="-56" font-family="Helvetica,sans-Serif" font-size="10.00">Group</text>
</a>
</g>
</g>
<!-- Node1&#45;&gt;Node2 -->
<g id="edge1" class="edge"><title>Node1&#45;&gt;Node2</title>
<path fill="none" stroke="midnightblue" d="M203.773,-49.598C220.917,-51.4374 238.584,-53.3331 255.244,-55.1206"/>
<polygon fill="midnightblue" stroke="midnightblue" points="204.068,-46.1096 193.752,-48.5227 203.321,-53.0697 204.068,-46.1096"/>
</g>
<!-- Node8 -->
<g id="node8" class="node"><title>Node8</title>
<g id="a_node8"><a xlink:href="../../d7/d3c/classgame_player_1_1view_1_1_player_view.html#a1819e3a1d44b1db95bdf3a4bc6df7ebc" target="_top" xlink:title="gamePlayer.view.PlayerView.initialize\lGUIComponents">
<polygon fill="white" stroke="black" points="244,-0 244,-30 434,-30 434,-0 244,-0"/>
<text text-anchor="start" x="252" y="-18" font-family="Helvetica,sans-Serif" font-size="10.00">gamePlayer.view.PlayerView.initialize</text>
<text text-anchor="middle" x="339" y="-7" font-family="Helvetica,sans-Serif" font-size="10.00">GUIComponents</text>
</a>
</g>
</g>
<!-- Node1&#45;&gt;Node8 -->
<g id="edge7" class="edge"><title>Node1&#45;&gt;Node8</title>
<path fill="none" stroke="midnightblue" d="M207.499,-28.4422C219.566,-27.1992 231.836,-25.9354 243.781,-24.705"/>
<polygon fill="midnightblue" stroke="midnightblue" points="207.011,-24.9738 197.422,-29.4801 207.728,-31.937 207.011,-24.9738"/>
</g>
<!-- Node3 -->
<g id="node3" class="node"><title>Node3</title>
<g id="a_node3"><a xlink:href="../../d2/dc9/classgame_player_1_1model_1_1_player_model.html#a98f00ab471bdab4f36e313a78fe6ceab" target="_top" xlink:title="gamePlayer.model.PlayerModel.load\lGameData">
<polygon fill="white" stroke="black" points="470,-49 470,-79 660,-79 660,-49 470,-49"/>
<text text-anchor="start" x="478" y="-67" font-family="Helvetica,sans-Serif" font-size="10.00">gamePlayer.model.PlayerModel.load</text>
<text text-anchor="middle" x="565" y="-56" font-family="Helvetica,sans-Serif" font-size="10.00">GameData</text>
</a>
</g>
</g>
<!-- Node2&#45;&gt;Node3 -->
<g id="edge2" class="edge"><title>Node2&#45;&gt;Node3</title>
<path fill="none" stroke="midnightblue" d="M432.932,-64C445.129,-64 457.637,-64 469.855,-64"/>
<polygon fill="midnightblue" stroke="midnightblue" points="432.773,-60.5001 422.773,-64 432.773,-67.5001 432.773,-60.5001"/>
</g>
<!-- Node4 -->
<g id="node4" class="node"><title>Node4</title>
<g id="a_node4"><a xlink:href="../../d2/dc9/classgame_player_1_1model_1_1_player_model.html#aca9302c5af4ce0e4dc9d7d5a13d49e64" target="_top" xlink:title="gamePlayer.model.PlayerModel.add\lFileNameChangeListener">
<polygon fill="white" stroke="black" points="717,-96 717,-126 905,-126 905,-96 717,-96"/>
<text text-anchor="start" x="725" y="-114" font-family="Helvetica,sans-Serif" font-size="10.00">gamePlayer.model.PlayerModel.add</text>
<text text-anchor="middle" x="811" y="-103" font-family="Helvetica,sans-Serif" font-size="10.00">FileNameChangeListener</text>
</a>
</g>
</g>
<!-- Node3&#45;&gt;Node4 -->
<g id="edge3" class="edge"><title>Node3&#45;&gt;Node4</title>
<path fill="none" stroke="midnightblue" d="M653.916,-80.9347C679.45,-85.8532 707.15,-91.1888 732.029,-95.981"/>
<polygon fill="midnightblue" stroke="midnightblue" points="654.356,-77.455 643.874,-79.0003 653.031,-84.3287 654.356,-77.455"/>
</g>
<!-- Node6 -->
<g id="node6" class="node"><title>Node6</title>
<g id="a_node6"><a xlink:href="../../d2/dc9/classgame_player_1_1model_1_1_player_model.html#a810c0b28ae81f5a27c5df5f83f907088" target="_top" xlink:title="gamePlayer.model.PlayerModel.load\lGameFile">
<polygon fill="white" stroke="black" points="716,-47 716,-77 906,-77 906,-47 716,-47"/>
<text text-anchor="start" x="724" y="-65" font-family="Helvetica,sans-Serif" font-size="10.00">gamePlayer.model.PlayerModel.load</text>
<text text-anchor="middle" x="811" y="-54" font-family="Helvetica,sans-Serif" font-size="10.00">GameFile</text>
</a>
</g>
</g>
<!-- Node3&#45;&gt;Node6 -->
<g id="edge5" class="edge"><title>Node3&#45;&gt;Node6</title>
<path fill="none" stroke="midnightblue" d="M670.676,-63.142C685.71,-63.0188 701.102,-62.8926 715.914,-62.7712"/>
<polygon fill="midnightblue" stroke="midnightblue" points="670.308,-59.6448 660.337,-63.2267 670.365,-66.6446 670.308,-59.6448"/>
</g>
<!-- Node5 -->
<g id="node5" class="node"><title>Node5</title>
<g id="a_node5"><a xlink:href="../../d2/dc9/classgame_player_1_1model_1_1_player_model.html#ad762a1aa11a0f489413712d8dab91419" target="_top" xlink:title="gamePlayer.model.PlayerModel.\lPlayerModel">
<polygon fill="white" stroke="black" points="982,-96 982,-126 1152,-126 1152,-96 982,-96"/>
<text text-anchor="start" x="990" y="-114" font-family="Helvetica,sans-Serif" font-size="10.00">gamePlayer.model.PlayerModel.</text>
<text text-anchor="middle" x="1067" y="-103" font-family="Helvetica,sans-Serif" font-size="10.00">PlayerModel</text>
</a>
</g>
</g>
<!-- Node4&#45;&gt;Node5 -->
<g id="edge4" class="edge"><title>Node4&#45;&gt;Node5</title>
<path fill="none" stroke="midnightblue" d="M915.213,-111C937.317,-111 960.417,-111 981.706,-111"/>
<polygon fill="midnightblue" stroke="midnightblue" points="915.138,-107.5 905.138,-111 915.138,-114.5 915.138,-107.5"/>
</g>
<!-- Node7 -->
<g id="node7" class="node"><title>Node7</title>
<g id="a_node7"><a xlink:href="../../d9/dff/classgame_player_1_1view_1_1_menu_bar_controller.html#af1f1b493dce9b79a0f464c4f1a6dfd09" target="_top" xlink:title="gamePlayer.view.MenuBarController.load\lGameFile">
<polygon fill="white" stroke="black" points="962,-47 962,-77 1172,-77 1172,-47 962,-47"/>
<text text-anchor="start" x="970" y="-65" font-family="Helvetica,sans-Serif" font-size="10.00">gamePlayer.view.MenuBarController.load</text>
<text text-anchor="middle" x="1067" y="-54" font-family="Helvetica,sans-Serif" font-size="10.00">GameFile</text>
</a>
</g>
</g>
<!-- Node6&#45;&gt;Node7 -->
<g id="edge6" class="edge"><title>Node6&#45;&gt;Node7</title>
<path fill="none" stroke="midnightblue" d="M916.474,-62C931.401,-62 946.757,-62 961.681,-62"/>
<polygon fill="midnightblue" stroke="midnightblue" points="916.219,-58.5001 906.219,-62 916.219,-65.5001 916.219,-58.5001"/>
</g>
<!-- Node9 -->
<g id="node9" class="node"><title>Node9</title>
<g id="a_node9"><a xlink:href="../../d7/d3c/classgame_player_1_1view_1_1_player_view.html#ab5225b160ab16323a5485bd1c3f62303" target="_top" xlink:title="gamePlayer.view.PlayerView.initialize">
<polygon fill="white" stroke="black" points="470,-5.5 470,-24.5 660,-24.5 660,-5.5 470,-5.5"/>
<text text-anchor="middle" x="565" y="-12.5" font-family="Helvetica,sans-Serif" font-size="10.00">gamePlayer.view.PlayerView.initialize</text>
</a>
</g>
</g>
<!-- Node8&#45;&gt;Node9 -->
<g id="edge8" class="edge"><title>Node8&#45;&gt;Node9</title>
<path fill="none" stroke="midnightblue" d="M444.077,-15C452.676,-15 461.338,-15 469.859,-15"/>
<polygon fill="midnightblue" stroke="midnightblue" points="444.023,-11.5001 434.023,-15 444.023,-18.5001 444.023,-11.5001"/>
</g>
<!-- Node10 -->
<g id="node10" class="node"><title>Node10</title>
<g id="a_node10"><a xlink:href="../../d2/dc9/classgame_player_1_1model_1_1_player_model.html#af8fd7a780ad8f9eebd18f451e188717e" target="_top" xlink:title="gamePlayer.model.PlayerModel.initializeView">
<polygon fill="white" stroke="black" points="696,-5.5 696,-24.5 926,-24.5 926,-5.5 696,-5.5"/>
<text text-anchor="middle" x="811" y="-12.5" font-family="Helvetica,sans-Serif" font-size="10.00">gamePlayer.model.PlayerModel.initializeView</text>
</a>
</g>
</g>
<!-- Node9&#45;&gt;Node10 -->
<g id="edge9" class="edge"><title>Node9&#45;&gt;Node10</title>
<path fill="none" stroke="midnightblue" d="M670.533,-15C678.946,-15 687.473,-15 695.949,-15"/>
<polygon fill="midnightblue" stroke="midnightblue" points="670.337,-11.5001 660.337,-15 670.337,-18.5001 670.337,-11.5001"/>
</g>
<!-- Node11 -->
<g id="node11" class="node"><title>Node11</title>
<g id="a_node11"><a xlink:href="../../d6/d99/classapplication_1_1_splash_screen.html#af35ff913e798fa504502185f76703a74" target="_top" xlink:title="application.SplashScreen.play">
<polygon fill="white" stroke="black" points="987,-5.5 987,-24.5 1147,-24.5 1147,-5.5 987,-5.5"/>
<text text-anchor="middle" x="1067" y="-12.5" font-family="Helvetica,sans-Serif" font-size="10.00">application.SplashScreen.play</text>
</a>
</g>
</g>
<!-- Node10&#45;&gt;Node11 -->
<g id="edge10" class="edge"><title>Node10&#45;&gt;Node11</title>
<path fill="none" stroke="midnightblue" d="M936.44,-15C953.573,-15 970.769,-15 986.779,-15"/>
<polygon fill="midnightblue" stroke="midnightblue" points="936.368,-11.5001 926.368,-15 936.368,-18.5001 936.368,-11.5001"/>
</g>
<!-- Node12 -->
<g id="node12" class="node"><title>Node12</title>
<g id="a_node12"><a xlink:href="../../d6/d99/classapplication_1_1_splash_screen.html#abad5bc7bafefe1a4e59b0d121dc895e9" target="_top" xlink:title="application.SplashScreen.initialize\lGUIElements">
<polygon fill="white" stroke="black" points="1208.5,-0 1208.5,-30 1387.5,-30 1387.5,-0 1208.5,-0"/>
<text text-anchor="start" x="1216.5" y="-18" font-family="Helvetica,sans-Serif" font-size="10.00">application.SplashScreen.initialize</text>
<text text-anchor="middle" x="1298" y="-7" font-family="Helvetica,sans-Serif" font-size="10.00">GUIElements</text>
</a>
</g>
</g>
<!-- Node11&#45;&gt;Node12 -->
<g id="edge11" class="edge"><title>Node11&#45;&gt;Node12</title>
<path fill="none" stroke="midnightblue" d="M1157.45,-15C1174.21,-15 1191.72,-15 1208.45,-15"/>
<polygon fill="midnightblue" stroke="midnightblue" points="1157.13,-11.5001 1147.13,-15 1157.13,-18.5001 1157.13,-11.5001"/>
</g>
<!-- Node13 -->
<g id="node13" class="node"><title>Node13</title>
<g id="a_node13"><a xlink:href="../../d6/d99/classapplication_1_1_splash_screen.html#a512cfd783d4871bae304c03a9a32cba9" target="_top" xlink:title="application.SplashScreen.\lSplashScreen">
<polygon fill="white" stroke="black" points="1424,-0 1424,-30 1564,-30 1564,-0 1424,-0"/>
<text text-anchor="start" x="1432" y="-18" font-family="Helvetica,sans-Serif" font-size="10.00">application.SplashScreen.</text>
<text text-anchor="middle" x="1494" y="-7" font-family="Helvetica,sans-Serif" font-size="10.00">SplashScreen</text>
</a>
</g>
</g>
<!-- Node12&#45;&gt;Node13 -->
<g id="edge12" class="edge"><title>Node12&#45;&gt;Node13</title>
<path fill="none" stroke="midnightblue" d="M1397.98,-15C1406.68,-15 1415.36,-15 1423.74,-15"/>
<polygon fill="midnightblue" stroke="midnightblue" points="1397.77,-11.5001 1387.77,-15 1397.77,-18.5001 1397.77,-11.5001"/>
</g>
</g>
</svg>
