<?xml version="1.0" encoding="UTF-8" standalone="no"?>
<!DOCTYPE svg PUBLIC "-//W3C//DTD SVG 1.1//EN"
 "http://www.w3.org/Graphics/SVG/1.1/DTD/svg11.dtd">
<!-- Generated by graphviz version 2.36.0 (20140111.2315)
 -->
<!-- Title: gamePlayer.view.GameCanvas.getNode Pages: 1 -->
<!--zoomable 87 -->
<svg id="main" version="1.1" xmlns="http://www.w3.org/2000/svg" xmlns:xlink="http://www.w3.org/1999/xlink" xml:space="preserve" onload="init(evt)">
<style type="text/css"><![CDATA[
.edge:hover path { stroke: red; }
.edge:hover polygon { stroke: red; fill: red; }
]]></style>
<script type="text/javascript"><![CDATA[
var edges = document.getElementsByTagName('g');
if (edges && edges.length) {
  for (var i=0;i<edges.length;i++) {
    if (edges[i].id.substr(0,4)=='edge') {
      edges[i].setAttribute('class','edge');
    }
  }
}
]]></script>
        <defs>
                <circle id="rim" cx="0" cy="0" r="7"/>
                <circle id="rim2" cx="0" cy="0" r="3.5"/>
                <g id="zoomPlus">
                        <use xlink:href="#rim" fill="#404040">
                                <set attributeName="fill" to="#808080" begin="zoomplus.mouseover" end="zoomplus.mouseout"/>
                        </use>
                        <path d="M-4,0h8M0,-4v8" fill="none" stroke="white" stroke-width="1.5" pointer-events="none"/>
                </g>
                <g id="zoomMin">
                        <use xlink:href="#rim" fill="#404040">
                                <set attributeName="fill" to="#808080" begin="zoomminus.mouseover" end="zoomminus.mouseout"/>
                        </use>
                        <path d="M-4,0h8" fill="none" stroke="white" stroke-width="1.5" pointer-events="none"/>
                </g>
                <g id="dirArrow">
                        <path fill="none" stroke="white" stroke-width="1.5" d="M0,-3.0v7 M-2.5,-0.5L0,-3.0L2.5,-0.5"/>
                </g>
               <g id="resetDef">
                       <use xlink:href="#rim2" fill="#404040">
                               <set attributeName="fill" to="#808080" begin="reset.mouseover" end="reset.mouseout"/>
                       </use>
               </g>
        </defs>

<script type="text/javascript">
var viewWidth = 1522;
var viewHeight = 87;
var sectionId = 'dynsection-2';
</script>
<script xlink:href="../../svgpan.js"/>
<svg id="graph" class="graph">
<g id="viewport">
<title>gamePlayer.view.GameCanvas.getNode</title>
<polygon fill="white" stroke="none" points="-4,4 -4,-83 1518,-83 1518,4 -4,4"/>
<!-- Node1 -->
<g id="node1" class="node"><title>Node1</title>
<polygon fill="#bfbfbf" stroke="black" points="0.5,-29.5 0.5,-48.5 207.5,-48.5 207.5,-29.5 0.5,-29.5"/>
<text text-anchor="middle" x="104" y="-36.5" font-family="Helvetica,sans-Serif" font-size="10.00">gamePlayer.view.GameCanvas.getNode</text>
</g>
<!-- Node2 -->
<g id="node2" class="node"><title>Node2</title>
<g id="a_node2"><a xlink:href="../../d7/d3c/classgame_player_1_1view_1_1_player_view.html#afce0dda0a14523caaf59ad98ab7988ec" target="_top" xlink:title="gamePlayer.view.PlayerView.get\lGroup">
<polygon fill="white" stroke="black" points="255.5,-49 255.5,-79 422.5,-79 422.5,-49 255.5,-49"/>
<text text-anchor="start" x="263.5" y="-67" font-family="Helvetica,sans-Serif" font-size="10.00">gamePlayer.view.PlayerView.get</text>
<text text-anchor="middle" x="339" y="-56" font-family="Helvetica,sans-Serif" font-size="10.00">Group</text>
</a>
</g>
</g>
<!-- Node1&#45;&gt;Node2 -->
<g id="edge1" class="edge"><title>Node1&#45;&gt;Node2</title>
<path fill="none" stroke="midnightblue" d="M203.773,-49.598C220.917,-51.4374 238.584,-53.3331 255.244,-55.1206"/>
<polygon fill="midnightblue" stroke="midnightblue" points="204.068,-46.1096 193.752,-48.5227 203.321,-53.0697 204.068,-46.1096"/>
</g>
<!-- Node5 -->
<g id="node5" class="node"><title>Node5</title>
<g id="a_node5"><a xlink:href="../../d7/d3c/classgame_player_1_1view_1_1_player_view.html#a1819e3a1d44b1db95bdf3a4bc6df7ebc" target="_top" xlink:title="gamePlayer.view.PlayerView.initialize\lGUIComponents">
<polygon fill="white" stroke="black" points="244,-0 244,-30 434,-30 434,-0 244,-0"/>
<text text-anchor="start" x="252" y="-18" font-family="Helvetica,sans-Serif" font-size="10.00">gamePlayer.view.PlayerView.initialize</text>
<text text-anchor="middle" x="339" y="-7" font-family="Helvetica,sans-Serif" font-size="10.00">GUIComponents</text>
</a>
</g>
</g>
<!-- Node1&#45;&gt;Node5 -->
<g id="edge4" class="edge"><title>Node1&#45;&gt;Node5</title>
<path fill="none" stroke="midnightblue" d="M207.499,-28.4422C219.566,-27.1992 231.836,-25.9354 243.781,-24.705"/>
<polygon fill="midnightblue" stroke="midnightblue" points="207.011,-24.9738 197.422,-29.4801 207.728,-31.937 207.011,-24.9738"/>
</g>
<!-- Node3 -->
<g id="node3" class="node"><title>Node3</title>
<g id="a_node3"><a xlink:href="../../d2/dc9/classgame_player_1_1model_1_1_player_model.html#a810c0b28ae81f5a27c5df5f83f907088" target="_top" xlink:title="gamePlayer.model.PlayerModel.load\lGameFile">
<polygon fill="white" stroke="black" points="470,-49 470,-79 660,-79 660,-49 470,-49"/>
<text text-anchor="start" x="478" y="-67" font-family="Helvetica,sans-Serif" font-size="10.00">gamePlayer.model.PlayerModel.load</text>
<text text-anchor="middle" x="565" y="-56" font-family="Helvetica,sans-Serif" font-size="10.00">GameFile</text>
</a>
</g>
</g>
<!-- Node2&#45;&gt;Node3 -->
<g id="edge2" class="edge"><title>Node2&#45;&gt;Node3</title>
<path fill="none" stroke="midnightblue" d="M432.932,-64C445.129,-64 457.637,-64 469.855,-64"/>
<polygon fill="midnightblue" stroke="midnightblue" points="432.773,-60.5001 422.773,-64 432.773,-67.5001 432.773,-60.5001"/>
</g>
<!-- Node4 -->
<g id="node4" class="node"><title>Node4</title>
<g id="a_node4"><a xlink:href="../../d9/dff/classgame_player_1_1view_1_1_menu_bar_controller.html#af1f1b493dce9b79a0f464c4f1a6dfd09" target="_top" xlink:title="gamePlayer.view.MenuBarController.load\lGameFile">
<polygon fill="white" stroke="black" points="706,-49 706,-79 916,-79 916,-49 706,-49"/>
<text text-anchor="start" x="714" y="-67" font-family="Helvetica,sans-Serif" font-size="10.00">gamePlayer.view.MenuBarController.load</text>
<text text-anchor="middle" x="811" y="-56" font-family="Helvetica,sans-Serif" font-size="10.00">GameFile</text>
</a>
</g>
</g>
<!-- Node3&#45;&gt;Node4 -->
<g id="edge3" class="edge"><title>Node3&#45;&gt;Node4</title>
<path fill="none" stroke="midnightblue" d="M670.533,-64C682.211,-64 694.108,-64 705.782,-64"/>
<polygon fill="midnightblue" stroke="midnightblue" points="670.337,-60.5001 660.337,-64 670.337,-67.5001 670.337,-60.5001"/>
</g>
<!-- Node6 -->
<g id="node6" class="node"><title>Node6</title>
<g id="a_node6"><a xlink:href="../../d7/d3c/classgame_player_1_1view_1_1_player_view.html#ab5225b160ab16323a5485bd1c3f62303" target="_top" xlink:title="gamePlayer.view.PlayerView.initialize">
<polygon fill="white" stroke="black" points="470,-5.5 470,-24.5 660,-24.5 660,-5.5 470,-5.5"/>
<text text-anchor="middle" x="565" y="-12.5" font-family="Helvetica,sans-Serif" font-size="10.00">gamePlayer.view.PlayerView.initialize</text>
</a>
</g>
</g>
<!-- Node5&#45;&gt;Node6 -->
<g id="edge5" class="edge"><title>Node5&#45;&gt;Node6</title>
<path fill="none" stroke="midnightblue" d="M444.077,-15C452.676,-15 461.338,-15 469.859,-15"/>
<polygon fill="midnightblue" stroke="midnightblue" points="444.023,-11.5001 434.023,-15 444.023,-18.5001 444.023,-11.5001"/>
</g>
<!-- Node7 -->
<g id="node7" class="node"><title>Node7</title>
<g id="a_node7"><a xlink:href="../../d2/dc9/classgame_player_1_1model_1_1_player_model.html#af8fd7a780ad8f9eebd18f451e188717e" target="_top" xlink:title="gamePlayer.model.PlayerModel.initializeView">
<polygon fill="white" stroke="black" points="696,-5.5 696,-24.5 926,-24.5 926,-5.5 696,-5.5"/>
<text text-anchor="middle" x="811" y="-12.5" font-family="Helvetica,sans-Serif" font-size="10.00">gamePlayer.model.PlayerModel.initializeView</text>
</a>
</g>
</g>
<!-- Node6&#45;&gt;Node7 -->
<g id="edge6" class="edge"><title>Node6&#45;&gt;Node7</title>
<path fill="none" stroke="midnightblue" d="M670.533,-15C678.946,-15 687.473,-15 695.949,-15"/>
<polygon fill="midnightblue" stroke="midnightblue" points="670.337,-11.5001 660.337,-15 670.337,-18.5001 670.337,-11.5001"/>
</g>
<!-- Node8 -->
<g id="node8" class="node"><title>Node8</title>
<g id="a_node8"><a xlink:href="../../d6/d99/classapplication_1_1_splash_screen.html#af35ff913e798fa504502185f76703a74" target="_top" xlink:title="application.SplashScreen.play">
<polygon fill="white" stroke="black" points="962,-5.5 962,-24.5 1122,-24.5 1122,-5.5 962,-5.5"/>
<text text-anchor="middle" x="1042" y="-12.5" font-family="Helvetica,sans-Serif" font-size="10.00">application.SplashScreen.play</text>
</a>
</g>
</g>
<!-- Node7&#45;&gt;Node8 -->
<g id="edge7" class="edge"><title>Node7&#45;&gt;Node8</title>
<path fill="none" stroke="midnightblue" d="M936.363,-15C945.031,-15 953.623,-15 961.938,-15"/>
<polygon fill="midnightblue" stroke="midnightblue" points="936.165,-11.5001 926.165,-15 936.165,-18.5001 936.165,-11.5001"/>
</g>
<!-- Node9 -->
<g id="node9" class="node"><title>Node9</title>
<g id="a_node9"><a xlink:href="../../d6/d99/classapplication_1_1_splash_screen.html#abad5bc7bafefe1a4e59b0d121dc895e9" target="_top" xlink:title="application.SplashScreen.initialize\lGUIElements">
<polygon fill="white" stroke="black" points="1158.5,-0 1158.5,-30 1337.5,-30 1337.5,-0 1158.5,-0"/>
<text text-anchor="start" x="1166.5" y="-18" font-family="Helvetica,sans-Serif" font-size="10.00">application.SplashScreen.initialize</text>
<text text-anchor="middle" x="1248" y="-7" font-family="Helvetica,sans-Serif" font-size="10.00">GUIElements</text>
</a>
</g>
</g>
<!-- Node8&#45;&gt;Node9 -->
<g id="edge8" class="edge"><title>Node8&#45;&gt;Node9</title>
<path fill="none" stroke="midnightblue" d="M1132.27,-15C1140.94,-15 1149.73,-15 1158.4,-15"/>
<polygon fill="midnightblue" stroke="midnightblue" points="1132.16,-11.5001 1122.16,-15 1132.16,-18.5001 1132.16,-11.5001"/>
</g>
<!-- Node10 -->
<g id="node10" class="node"><title>Node10</title>
<g id="a_node10"><a xlink:href="../../d6/d99/classapplication_1_1_splash_screen.html#a512cfd783d4871bae304c03a9a32cba9" target="_top" xlink:title="application.SplashScreen.\lSplashScreen">
<polygon fill="white" stroke="black" points="1374,-0 1374,-30 1514,-30 1514,-0 1374,-0"/>
<text text-anchor="start" x="1382" y="-18" font-family="Helvetica,sans-Serif" font-size="10.00">application.SplashScreen.</text>
<text text-anchor="middle" x="1444" y="-7" font-family="Helvetica,sans-Serif" font-size="10.00">SplashScreen</text>
</a>
</g>
</g>
<!-- Node9&#45;&gt;Node10 -->
<g id="edge9" class="edge"><title>Node9&#45;&gt;Node10</title>
<path fill="none" stroke="midnightblue" d="M1347.98,-15C1356.68,-15 1365.36,-15 1373.74,-15"/>
<polygon fill="midnightblue" stroke="midnightblue" points="1347.77,-11.5001 1337.77,-15 1347.77,-18.5001 1347.77,-11.5001"/>
</g>
</g>
</svg>
        <g id="navigator" transform="translate(0 0)" fill="#404254">
                <rect fill="#f2f5e9" fill-opacity="0.5" stroke="#606060" stroke-width=".5" x="0" y="0" width="60" height="60"/>
                <use id="zoomplus" xlink:href="#zoomPlus" x="17" y="9" onmousedown="handleZoom(evt,'in')"/>
                <use id="zoomminus" xlink:href="#zoomMin" x="42" y="9" onmousedown="handleZoom(evt,'out')"/>
                <use id="reset" xlink:href="#resetDef" x="30" y="36" onmousedown="handleReset()"/>
                <g id="arrowUp" xlink:href="#dirArrow" transform="translate(30 24)" onmousedown="handlePan(0,-1)">
                  <use xlink:href="#rim" fill="#404040">
                        <set attributeName="fill" to="#808080" begin="arrowUp.mouseover" end="arrowUp.mouseout"/>
                  </use>
                  <path fill="none" stroke="white" stroke-width="1.5" d="M0,-3.0v7 M-2.5,-0.5L0,-3.0L2.5,-0.5"/>
                </g>
                <g id="arrowRight" xlink:href="#dirArrow" transform="rotate(90) translate(36 -43)" onmousedown="handlePan(1,0)">
                  <use xlink:href="#rim" fill="#404040">
                        <set attributeName="fill" to="#808080" begin="arrowRight.mouseover" end="arrowRight.mouseout"/>
                  </use>
                  <path fill="none" stroke="white" stroke-width="1.5" d="M0,-3.0v7 M-2.5,-0.5L0,-3.0L2.5,-0.5"/>
                </g>
                <g id="arrowDown" xlink:href="#dirArrow" transform="rotate(180) translate(-30 -48)" onmousedown="handlePan(0,1)">
                  <use xlink:href="#rim" fill="#404040">
                        <set attributeName="fill" to="#808080" begin="arrowDown.mouseover" end="arrowDown.mouseout"/>
                  </use>
                  <path fill="none" stroke="white" stroke-width="1.5" d="M0,-3.0v7 M-2.5,-0.5L0,-3.0L2.5,-0.5"/>
                </g>
                <g id="arrowLeft" xlink:href="#dirArrow" transform="rotate(270) translate(-36 17)" onmousedown="handlePan(-1,0)">
                  <use xlink:href="#rim" fill="#404040">
                        <set attributeName="fill" to="#808080" begin="arrowLeft.mouseover" end="arrowLeft.mouseout"/>
                  </use>
                  <path fill="none" stroke="white" stroke-width="1.5" d="M0,-3.0v7 M-2.5,-0.5L0,-3.0L2.5,-0.5"/>
                </g>
        </g>
        <svg viewBox="0 0 15 15" width="100%" height="30px" preserveAspectRatio="xMaxYMin meet">
         <g id="arrow_out" transform="scale(0.3 0.3)">
          <a xlink:href="classgame_player_1_1view_1_1_game_canvas_aaf62ddebd656a3ec3174e6845851e2d9_icgraph_org.svg" target="_base">
           <rect id="button" ry="5" rx="5" y="6" x="6" height="38" width="38"
                fill="#f2f5e9" fill-opacity="0.5" stroke="#606060" stroke-width="1.0"/>
           <path id="arrow"
             d="M 11.500037,31.436501 C 11.940474,20.09759 22.043105,11.32322 32.158766,21.979434 L 37.068811,17.246167 C 37.068811,17.246167 37.088388,32 37.088388,32 L 22.160133,31.978069 C 22.160133,31.978069 26.997745,27.140456 26.997745,27.140456 C 18.528582,18.264221 13.291696,25.230495 11.500037,31.436501 z"
             style="fill:#404040;"/>
          </a>
         </g>
        </svg>
</svg>
