<?xml version="1.0" encoding="UTF-8" standalone="no"?>
<!DOCTYPE svg PUBLIC "-//W3C//DTD SVG 1.1//EN"
 "http://www.w3.org/Graphics/SVG/1.1/DTD/svg11.dtd">
<!-- Generated by graphviz version 2.36.0 (20140111.2315)
 -->
<!-- Title: engine.collision.objects.FixedObjectCollisionObject.handleEnemyCollisionObject Pages: 1 -->
<svg width="880pt" height="616pt"
 viewBox="0.00 0.00 880.00 616.00" xmlns="http://www.w3.org/2000/svg" xmlns:xlink="http://www.w3.org/1999/xlink">
<g id="graph0" class="graph" transform="scale(1 1) rotate(0) translate(4 612)">
<title>engine.collision.objects.FixedObjectCollisionObject.handleEnemyCollisionObject</title>
<polygon fill="white" stroke="none" points="-4,4 -4,-612 876,-612 876,4 -4,4"/>
<!-- Node1 -->
<g id="node1" class="node"><title>Node1</title>
<polygon fill="#bfbfbf" stroke="black" points="0,-283.5 0,-324.5 176,-324.5 176,-283.5 0,-283.5"/>
<text text-anchor="start" x="8" y="-312.5" font-family="Helvetica,sans-Serif" font-size="10.00">engine.collision.objects.</text>
<text text-anchor="start" x="8" y="-301.5" font-family="Helvetica,sans-Serif" font-size="10.00">FixedObjectCollisionObject.handle</text>
<text text-anchor="middle" x="88" y="-290.5" font-family="Helvetica,sans-Serif" font-size="10.00">EnemyCollisionObject</text>
</g>
<!-- Node2 -->
<g id="node2" class="node"><title>Node2</title>
<g id="a_node2"><a xlink:href="../../da/d1b/classengine_1_1collision_1_1objects_1_1_collision_composition.html#a7ec4687ad9367279088b965c0e009cd0" target="_top" xlink:title="engine.collision.objects.\lCollisionComposition.fixedCollision">
<polygon fill="white" stroke="black" points="212,-289 212,-319 392,-319 392,-289 212,-289"/>
<text text-anchor="start" x="220" y="-307" font-family="Helvetica,sans-Serif" font-size="10.00">engine.collision.objects.</text>
<text text-anchor="middle" x="302" y="-296" font-family="Helvetica,sans-Serif" font-size="10.00">CollisionComposition.fixedCollision</text>
</a>
</g>
</g>
<!-- Node1&#45;&gt;Node2 -->
<g id="edge1" class="edge"><title>Node1&#45;&gt;Node2</title>
<path fill="none" stroke="midnightblue" d="M176.146,-304C184.601,-304 193.221,-304 201.782,-304"/>
<polygon fill="midnightblue" stroke="midnightblue" points="201.791,-307.5 211.791,-304 201.791,-300.5 201.791,-307.5"/>
</g>
<!-- Node3 -->
<g id="node3" class="node"><title>Node3</title>
<g id="a_node3"><a xlink:href="../../d9/d9d/classengine_1_1game_object_1_1components_1_1_physics_body.html#aba2ed3bce8ee8e404907c88b144626fc" target="_top" xlink:title="engine.gameObject.components.\lPhysicsBody.getCollisionBodyHeight">
<polygon fill="white" stroke="black" points="435,-578 435,-608 623,-608 623,-578 435,-578"/>
<text text-anchor="start" x="443" y="-596" font-family="Helvetica,sans-Serif" font-size="10.00">engine.gameObject.components.</text>
<text text-anchor="middle" x="529" y="-585" font-family="Helvetica,sans-Serif" font-size="10.00">PhysicsBody.getCollisionBodyHeight</text>
</a>
</g>
</g>
<!-- Node2&#45;&gt;Node3 -->
<g id="edge2" class="edge"><title>Node2&#45;&gt;Node3</title>
<path fill="none" stroke="midnightblue" d="M305.559,-319.315C313.994,-364.804 345.257,-500.156 428,-568 430.058,-569.688 432.215,-571.264 434.452,-572.736"/>
<polygon fill="midnightblue" stroke="midnightblue" points="433.025,-575.953 443.438,-577.909 436.518,-569.886 433.025,-575.953"/>
</g>
<!-- Node4 -->
<g id="node4" class="node"><title>Node4</title>
<g id="a_node4"><a xlink:href="../../d9/d9d/classengine_1_1game_object_1_1components_1_1_physics_body.html#ae64e43632570392c3118b3d00af853fc" target="_top" xlink:title="engine.gameObject.components.\lPhysicsBody.getCollisionBodyWidth">
<polygon fill="white" stroke="black" points="438,-529 438,-559 620,-559 620,-529 438,-529"/>
<text text-anchor="start" x="446" y="-547" font-family="Helvetica,sans-Serif" font-size="10.00">engine.gameObject.components.</text>
<text text-anchor="middle" x="529" y="-536" font-family="Helvetica,sans-Serif" font-size="10.00">PhysicsBody.getCollisionBodyWidth</text>
</a>
</g>
</g>
<!-- Node2&#45;&gt;Node4 -->
<g id="edge3" class="edge"><title>Node2&#45;&gt;Node4</title>
<path fill="none" stroke="midnightblue" d="M307.306,-319.285C319.287,-358.907 356.902,-465.558 428,-519 430.494,-520.875 433.113,-522.611 435.827,-524.217"/>
<polygon fill="midnightblue" stroke="midnightblue" points="434.305,-527.371 444.786,-528.92 437.559,-521.173 434.305,-527.371"/>
</g>
<!-- Node5 -->
<g id="node5" class="node"><title>Node5</title>
<g id="a_node5"><a xlink:href="../../d0/d7f/classengine_1_1game_object_1_1_game_object.html#ae94fe532960bd29f64c2dc19ec0af798" target="_top" xlink:title="engine.gameObject.GameObject.getID">
<polygon fill="white" stroke="black" points="428,-490.5 428,-509.5 630,-509.5 630,-490.5 428,-490.5"/>
<text text-anchor="middle" x="529" y="-497.5" font-family="Helvetica,sans-Serif" font-size="10.00">engine.gameObject.GameObject.getID</text>
</a>
</g>
</g>
<!-- Node2&#45;&gt;Node5 -->
<g id="edge4" class="edge"><title>Node2&#45;&gt;Node5</title>
<path fill="none" stroke="midnightblue" d="M309.515,-319.203C324.848,-353.078 366.61,-434.99 428,-476 434.755,-480.513 442.268,-484.179 450.056,-487.158"/>
<polygon fill="midnightblue" stroke="midnightblue" points="449.064,-490.518 459.659,-490.461 451.341,-483.899 449.064,-490.518"/>
</g>
<!-- Node6 -->
<g id="node6" class="node"><title>Node6</title>
<g id="a_node6"><a xlink:href="../../d0/d7f/classengine_1_1game_object_1_1_game_object.html#a60c5b6933aac9969491a3562a963c043" target="_top" xlink:title="engine.gameObject.GameObject.get\lPhysicsBody">
<polygon fill="white" stroke="black" points="673,-578 673,-608 865,-608 865,-578 673,-578"/>
<text text-anchor="start" x="681" y="-596" font-family="Helvetica,sans-Serif" font-size="10.00">engine.gameObject.GameObject.get</text>
<text text-anchor="middle" x="769" y="-585" font-family="Helvetica,sans-Serif" font-size="10.00">PhysicsBody</text>
</a>
</g>
</g>
<!-- Node2&#45;&gt;Node6 -->
<g id="edge5" class="edge"><title>Node2&#45;&gt;Node6</title>
<path fill="none" stroke="midnightblue" d="M312.563,-319.297C331.106,-347.584 374.837,-407.917 428,-438 507.886,-483.204 559.448,-422.283 630,-481 662.164,-507.769 634.249,-540.742 666,-568 667.798,-569.544 669.677,-570.996 671.624,-572.36"/>
<polygon fill="midnightblue" stroke="midnightblue" points="670.191,-575.586 680.551,-577.803 673.835,-569.609 670.191,-575.586"/>
</g>
<!-- Node7 -->
<g id="node7" class="node"><title>Node7</title>
<g id="a_node7"><a xlink:href="../../d9/d9d/classengine_1_1game_object_1_1components_1_1_physics_body.html#ae282c9fc52683cc7b976cf4a57129573" target="_top" xlink:title="engine.gameObject.components.\lPhysicsBody.getScalar">
<polygon fill="white" stroke="black" points="681,-529 681,-559 857,-559 857,-529 681,-529"/>
<text text-anchor="start" x="689" y="-547" font-family="Helvetica,sans-Serif" font-size="10.00">engine.gameObject.components.</text>
<text text-anchor="middle" x="769" y="-536" font-family="Helvetica,sans-Serif" font-size="10.00">PhysicsBody.getScalar</text>
</a>
</g>
</g>
<!-- Node2&#45;&gt;Node7 -->
<g id="edge6" class="edge"><title>Node2&#45;&gt;Node7</title>
<path fill="none" stroke="midnightblue" d="M318.074,-319.312C340.179,-340.863 383.604,-379.867 428,-401 511.228,-440.617 557.469,-391.117 630,-448 657.84,-469.834 638.289,-497.003 666,-519 668.124,-520.686 670.346,-522.261 672.647,-523.731"/>
<polygon fill="midnightblue" stroke="midnightblue" points="671.439,-527.066 681.873,-528.901 674.86,-520.959 671.439,-527.066"/>
</g>
<!-- Node8 -->
<g id="node8" class="node"><title>Node8</title>
<g id="a_node8"><a xlink:href="../../d0/d7f/classengine_1_1game_object_1_1_game_object.html#ac7639843418dea4d3ac30a8f2d3a3a9b" target="_top" xlink:title="engine.gameObject.GameObject.get\lTranslateX">
<polygon fill="white" stroke="black" points="673,-480 673,-510 865,-510 865,-480 673,-480"/>
<text text-anchor="start" x="681" y="-498" font-family="Helvetica,sans-Serif" font-size="10.00">engine.gameObject.GameObject.get</text>
<text text-anchor="middle" x="769" y="-487" font-family="Helvetica,sans-Serif" font-size="10.00">TranslateX</text>
</a>
</g>
</g>
<!-- Node2&#45;&gt;Node8 -->
<g id="edge7" class="edge"><title>Node2&#45;&gt;Node8</title>
<path fill="none" stroke="midnightblue" d="M329.521,-319.22C354.3,-332.884 392.672,-352.638 428,-365 514.817,-395.378 555.397,-356.2 630,-410 655.224,-428.19 640.97,-451.544 666,-470 668.641,-471.948 671.416,-473.745 674.291,-475.404"/>
<polygon fill="midnightblue" stroke="midnightblue" points="672.694,-478.518 683.188,-479.975 675.893,-472.292 672.694,-478.518"/>
</g>
<!-- Node9 -->
<g id="node9" class="node"><title>Node9</title>
<g id="a_node9"><a xlink:href="../../d0/d7f/classengine_1_1game_object_1_1_game_object.html#a3a4561bfee95913ae91cc635fdf1167d" target="_top" xlink:title="engine.gameObject.GameObject.get\lTranslateY">
<polygon fill="white" stroke="black" points="673,-431 673,-461 865,-461 865,-431 673,-431"/>
<text text-anchor="start" x="681" y="-449" font-family="Helvetica,sans-Serif" font-size="10.00">engine.gameObject.GameObject.get</text>
<text text-anchor="middle" x="769" y="-438" font-family="Helvetica,sans-Serif" font-size="10.00">TranslateY</text>
</a>
</g>
</g>
<!-- Node2&#45;&gt;Node9 -->
<g id="edge8" class="edge"><title>Node2&#45;&gt;Node9</title>
<path fill="none" stroke="midnightblue" d="M378.485,-319.004C473.385,-337.967 624.657,-368.567 630,-372 652.735,-386.608 643.526,-405.993 666,-421 669.101,-423.071 672.358,-424.97 675.726,-426.713"/>
<polygon fill="midnightblue" stroke="midnightblue" points="674.325,-429.922 684.868,-430.968 677.279,-423.575 674.325,-429.922"/>
</g>
<!-- Node10 -->
<g id="node10" class="node"><title>Node10</title>
<g id="a_node10"><a xlink:href="../../d9/d9d/classengine_1_1game_object_1_1components_1_1_physics_body.html#a65baef953a922146f81d923aff4ae8cf" target="_top" xlink:title="engine.gameObject.components.\lPhysicsBody.getVelocity">
<polygon fill="white" stroke="black" points="681,-245 681,-275 857,-275 857,-245 681,-245"/>
<text text-anchor="start" x="689" y="-263" font-family="Helvetica,sans-Serif" font-size="10.00">engine.gameObject.components.</text>
<text text-anchor="middle" x="769" y="-252" font-family="Helvetica,sans-Serif" font-size="10.00">PhysicsBody.getVelocity</text>
</a>
</g>
</g>
<!-- Node2&#45;&gt;Node10 -->
<g id="edge9" class="edge"><title>Node2&#45;&gt;Node10</title>
<path fill="none" stroke="midnightblue" d="M369.206,-288.943C388.109,-285.14 408.79,-281.445 428,-279 509.304,-268.651 602.259,-263.939 670.402,-261.793"/>
<polygon fill="midnightblue" stroke="midnightblue" points="670.806,-265.283 680.696,-261.483 670.595,-258.286 670.806,-265.283"/>
</g>
<!-- Node11 -->
<g id="node11" class="node"><title>Node11</title>
<g id="a_node11"><a xlink:href="../../d5/d1f/classengine_1_1physics_1_1_vector.html#a1bc7c00d836a738d45eb584223973dec" target="_top" xlink:title="engine.physics.Vector.getX">
<polygon fill="white" stroke="black" points="696.5,-206.5 696.5,-225.5 841.5,-225.5 841.5,-206.5 696.5,-206.5"/>
<text text-anchor="middle" x="769" y="-213.5" font-family="Helvetica,sans-Serif" font-size="10.00">engine.physics.Vector.getX</text>
</a>
</g>
</g>
<!-- Node2&#45;&gt;Node11 -->
<g id="edge10" class="edge"><title>Node2&#45;&gt;Node11</title>
<path fill="none" stroke="midnightblue" d="M339.312,-288.94C363.939,-279.295 397.449,-267.269 428,-260 514.923,-239.319 616.816,-227.763 686.233,-221.741"/>
<polygon fill="midnightblue" stroke="midnightblue" points="686.565,-225.226 696.233,-220.892 685.973,-218.251 686.565,-225.226"/>
</g>
<!-- Node12 -->
<g id="node12" class="node"><title>Node12</title>
<g id="a_node12"><a xlink:href="../../d5/d1f/classengine_1_1physics_1_1_vector.html#a6f71261863fa29e27f1b3f1051529321" target="_top" xlink:title="engine.physics.Vector.getY">
<polygon fill="white" stroke="black" points="697,-168.5 697,-187.5 841,-187.5 841,-168.5 697,-168.5"/>
<text text-anchor="middle" x="769" y="-175.5" font-family="Helvetica,sans-Serif" font-size="10.00">engine.physics.Vector.getY</text>
</a>
</g>
</g>
<!-- Node2&#45;&gt;Node12 -->
<g id="edge11" class="edge"><title>Node2&#45;&gt;Node12</title>
<path fill="none" stroke="midnightblue" d="M321.106,-288.746C344.273,-270.137 386.399,-239.275 428,-224 512.738,-192.886 616.299,-182.49 686.702,-179.185"/>
<polygon fill="midnightblue" stroke="midnightblue" points="687.003,-182.676 696.843,-178.748 686.701,-175.682 687.003,-182.676"/>
</g>
<!-- Node13 -->
<g id="node13" class="node"><title>Node13</title>
<g id="a_node13"><a xlink:href="../../da/d1b/classengine_1_1collision_1_1objects_1_1_collision_composition.html#a16ad6d1ec6082599cf72870f5cd3dd03" target="_top" xlink:title="engine.collision.objects.\lCollisionComposition.isOnXAxis">
<polygon fill="white" stroke="black" points="446.5,-289 446.5,-319 611.5,-319 611.5,-289 446.5,-289"/>
<text text-anchor="start" x="454.5" y="-307" font-family="Helvetica,sans-Serif" font-size="10.00">engine.collision.objects.</text>
<text text-anchor="middle" x="529" y="-296" font-family="Helvetica,sans-Serif" font-size="10.00">CollisionComposition.isOnXAxis</text>
</a>
</g>
</g>
<!-- Node2&#45;&gt;Node13 -->
<g id="edge12" class="edge"><title>Node2&#45;&gt;Node13</title>
<path fill="none" stroke="midnightblue" d="M392.249,-304C406.565,-304 421.406,-304 435.789,-304"/>
<polygon fill="midnightblue" stroke="midnightblue" points="436.168,-307.5 446.168,-304 436.168,-300.5 436.168,-307.5"/>
</g>
<!-- Node17 -->
<g id="node17" class="node"><title>Node17</title>
<g id="a_node17"><a xlink:href="../../d0/d7f/classengine_1_1game_object_1_1_game_object.html#ac1d82901c7db3b23772dfe3931e9a53d" target="_top" xlink:title="engine.gameObject.GameObject.set\lTranslateX">
<polygon fill="white" stroke="black" points="673.5,-119 673.5,-149 864.5,-149 864.5,-119 673.5,-119"/>
<text text-anchor="start" x="681.5" y="-137" font-family="Helvetica,sans-Serif" font-size="10.00">engine.gameObject.GameObject.set</text>
<text text-anchor="middle" x="769" y="-126" font-family="Helvetica,sans-Serif" font-size="10.00">TranslateX</text>
</a>
</g>
</g>
<!-- Node2&#45;&gt;Node17 -->
<g id="edge25" class="edge"><title>Node2&#45;&gt;Node17</title>
<path fill="none" stroke="midnightblue" d="M313.253,-288.644C332.283,-261.544 375.905,-205.676 428,-180 501.076,-143.983 593.119,-133.321 663.002,-131.202"/>
<polygon fill="midnightblue" stroke="midnightblue" points="663.237,-134.698 673.147,-130.95 663.063,-127.7 663.237,-134.698"/>
</g>
<!-- Node18 -->
<g id="node18" class="node"><title>Node18</title>
<g id="a_node18"><a xlink:href="../../d0/d7f/classengine_1_1game_object_1_1_game_object.html#a80eaf3afeb78a2502bb3c6affd73bdd7" target="_top" xlink:title="engine.gameObject.GameObject.set\lTranslateY">
<polygon fill="white" stroke="black" points="673.5,-70 673.5,-100 864.5,-100 864.5,-70 673.5,-70"/>
<text text-anchor="start" x="681.5" y="-88" font-family="Helvetica,sans-Serif" font-size="10.00">engine.gameObject.GameObject.set</text>
<text text-anchor="middle" x="769" y="-77" font-family="Helvetica,sans-Serif" font-size="10.00">TranslateY</text>
</a>
</g>
</g>
<!-- Node2&#45;&gt;Node18 -->
<g id="edge26" class="edge"><title>Node2&#45;&gt;Node18</title>
<path fill="none" stroke="midnightblue" d="M308.842,-288.936C323.182,-254.199 363.705,-168.515 428,-130 466.592,-106.882 578.085,-95.3769 662.971,-89.8299"/>
<polygon fill="midnightblue" stroke="midnightblue" points="663.426,-93.3082 673.185,-89.1826 662.983,-86.3222 663.426,-93.3082"/>
</g>
<!-- Node19 -->
<g id="node19" class="node"><title>Node19</title>
<g id="a_node19"><a xlink:href="../../d9/d9d/classengine_1_1game_object_1_1components_1_1_physics_body.html#a5f54f878a7fef4a77a58bbee39e8c9d3" target="_top" xlink:title="engine.gameObject.components.\lPhysicsBody.setVelocity">
<polygon fill="white" stroke="black" points="441,-49 441,-79 617,-79 617,-49 441,-49"/>
<text text-anchor="start" x="449" y="-67" font-family="Helvetica,sans-Serif" font-size="10.00">engine.gameObject.components.</text>
<text text-anchor="middle" x="529" y="-56" font-family="Helvetica,sans-Serif" font-size="10.00">PhysicsBody.setVelocity</text>
</a>
</g>
</g>
<!-- Node2&#45;&gt;Node19 -->
<g id="edge27" class="edge"><title>Node2&#45;&gt;Node19</title>
<path fill="none" stroke="midnightblue" d="M307.649,-288.971C320.333,-250.484 359.264,-147.642 428,-94 433.28,-89.8793 439.12,-86.3231 445.247,-83.2543"/>
<polygon fill="midnightblue" stroke="midnightblue" points="446.741,-86.42 454.399,-79.098 443.846,-80.0465 446.741,-86.42"/>
</g>
<!-- Node20 -->
<g id="node20" class="node"><title>Node20</title>
<g id="a_node20"><a xlink:href="../../dc/db5/classengine_1_1physics_1_1_physics_component.html#aabe6f17a9d86eaf42e9df5769182dfa5" target="_top" xlink:title="engine.physics.PhysicsComponent.to\lString">
<polygon fill="white" stroke="black" points="432,-0 432,-30 626,-30 626,-0 432,-0"/>
<text text-anchor="start" x="440" y="-18" font-family="Helvetica,sans-Serif" font-size="10.00">engine.physics.PhysicsComponent.to</text>
<text text-anchor="middle" x="529" y="-7" font-family="Helvetica,sans-Serif" font-size="10.00">String</text>
</a>
</g>
</g>
<!-- Node2&#45;&gt;Node20 -->
<g id="edge28" class="edge"><title>Node2&#45;&gt;Node20</title>
<path fill="none" stroke="midnightblue" d="M305.452,-288.915C313.662,-243.478 344.533,-106.883 428,-39 429.558,-37.7327 431.173,-36.5303 432.835,-35.3898"/>
<polygon fill="midnightblue" stroke="midnightblue" points="434.737,-38.3307 441.514,-30.1867 431.137,-32.3271 434.737,-38.3307"/>
</g>
<!-- Node13&#45;&gt;Node6 -->
<g id="edge13" class="edge"><title>Node13&#45;&gt;Node6</title>
<path fill="none" stroke="midnightblue" d="M543.167,-319.381C564.213,-344.664 605.547,-397.278 630,-448 654.181,-498.157 625.634,-529.646 666,-568 667.487,-569.413 669.04,-570.75 670.651,-572.015"/>
<polygon fill="midnightblue" stroke="midnightblue" points="668.901,-575.056 679.145,-577.758 672.822,-569.257 668.901,-575.056"/>
</g>
<!-- Node13&#45;&gt;Node7 -->
<g id="edge15" class="edge"><title>Node13&#45;&gt;Node7</title>
<path fill="none" stroke="midnightblue" d="M548.425,-319.008C570.669,-338.029 607.845,-372.841 630,-410 656.127,-453.821 628.534,-484.371 666,-519 667.933,-520.787 669.972,-522.451 672.1,-524.002"/>
<polygon fill="midnightblue" stroke="midnightblue" points="670.382,-527.056 680.706,-529.436 674.119,-521.138 670.382,-527.056"/>
</g>
<!-- Node13&#45;&gt;Node8 -->
<g id="edge16" class="edge"><title>Node13&#45;&gt;Node8</title>
<path fill="none" stroke="midnightblue" d="M562.318,-319.213C584.104,-330.926 612.042,-348.997 630,-372 658.553,-408.576 631.409,-439.072 666,-470 667.712,-471.53 669.502,-472.971 671.359,-474.326"/>
<polygon fill="midnightblue" stroke="midnightblue" points="669.571,-477.337 679.889,-479.741 673.322,-471.427 669.571,-477.337"/>
</g>
<!-- Node13&#45;&gt;Node9 -->
<g id="edge17" class="edge"><title>Node13&#45;&gt;Node9</title>
<path fill="none" stroke="midnightblue" d="M606.734,-319.093C615.207,-322.978 623.209,-327.862 630,-334 661.044,-362.06 634.249,-393.742 666,-421 667.798,-422.544 669.677,-423.996 671.624,-425.36"/>
<polygon fill="midnightblue" stroke="midnightblue" points="670.191,-428.586 680.551,-430.803 673.835,-422.609 670.191,-428.586"/>
</g>
<!-- Node13&#45;&gt;Node10 -->
<g id="edge19" class="edge"><title>Node13&#45;&gt;Node10</title>
<path fill="none" stroke="midnightblue" d="M611.24,-288.981C632.282,-285.091 655.08,-280.876 676.604,-276.897"/>
<polygon fill="midnightblue" stroke="midnightblue" points="677.525,-280.286 686.722,-275.026 676.252,-273.403 677.525,-280.286"/>
</g>
<!-- Node13&#45;&gt;Node11 -->
<g id="edge20" class="edge"><title>Node13&#45;&gt;Node11</title>
<path fill="none" stroke="midnightblue" d="M554.623,-288.783C581.168,-273.04 625.129,-248.855 666,-235 674.181,-232.227 682.875,-229.826 691.605,-227.755"/>
<polygon fill="midnightblue" stroke="midnightblue" points="692.453,-231.152 701.449,-225.555 690.927,-224.32 692.453,-231.152"/>
</g>
<!-- Node13&#45;&gt;Node12 -->
<g id="edge21" class="edge"><title>Node13&#45;&gt;Node12</title>
<path fill="none" stroke="midnightblue" d="M544.273,-288.783C567.419,-265.108 615.648,-219.812 666,-197 672.655,-193.985 679.762,-191.448 687.011,-189.314"/>
<polygon fill="midnightblue" stroke="midnightblue" points="688.203,-192.618 696.954,-186.646 686.388,-185.857 688.203,-192.618"/>
</g>
<!-- Node14 -->
<g id="node14" class="node"><title>Node14</title>
<g id="a_node14"><a xlink:href="../../d0/d7f/classengine_1_1game_object_1_1_game_object.html#a901e42e4b26176a748b42879941eb4f4" target="_top" xlink:title="engine.gameObject.GameObject.get\lRenderedNode">
<polygon fill="white" stroke="black" points="673,-382 673,-412 865,-412 865,-382 673,-382"/>
<text text-anchor="start" x="681" y="-400" font-family="Helvetica,sans-Serif" font-size="10.00">engine.gameObject.GameObject.get</text>
<text text-anchor="middle" x="769" y="-389" font-family="Helvetica,sans-Serif" font-size="10.00">RenderedNode</text>
</a>
</g>
</g>
<!-- Node13&#45;&gt;Node14 -->
<g id="edge14" class="edge"><title>Node13&#45;&gt;Node14</title>
<path fill="none" stroke="midnightblue" d="M597.706,-319.048C608.933,-323.001 620.122,-327.917 630,-334 649.81,-346.198 645.885,-360.312 666,-372 669.873,-374.251 673.943,-376.3 678.135,-378.165"/>
<polygon fill="midnightblue" stroke="midnightblue" points="676.898,-381.44 687.48,-381.962 679.533,-374.955 676.898,-381.44"/>
</g>
<!-- Node15 -->
<g id="node15" class="node"><title>Node15</title>
<g id="a_node15"><a xlink:href="../../d0/de5/classengine_1_1physics_1_1_scalar.html#a676fb6b37fae2e642fcdec1109b4b233" target="_top" xlink:title="engine.physics.Scalar.get\lValue">
<polygon fill="white" stroke="black" points="700,-333 700,-363 838,-363 838,-333 700,-333"/>
<text text-anchor="start" x="708" y="-351" font-family="Helvetica,sans-Serif" font-size="10.00">engine.physics.Scalar.get</text>
<text text-anchor="middle" x="769" y="-340" font-family="Helvetica,sans-Serif" font-size="10.00">Value</text>
</a>
</g>
</g>
<!-- Node13&#45;&gt;Node15 -->
<g id="edge18" class="edge"><title>Node13&#45;&gt;Node15</title>
<path fill="none" stroke="midnightblue" d="M611.24,-319.019C636.681,-323.723 664.69,-328.901 689.909,-333.563"/>
<polygon fill="midnightblue" stroke="midnightblue" points="689.322,-337.014 699.791,-335.39 690.594,-330.13 689.322,-337.014"/>
</g>
<!-- Node16 -->
<g id="node16" class="node"><title>Node16</title>
<g id="a_node16"><a xlink:href="../../d2/d82/classengine_1_1render_1_1_rendered_node.html#ac199ac1cb9b6509d685d2aca157e5a3d" target="_top" xlink:title="engine.render.RenderedNode.intersects">
<polygon fill="white" stroke="black" points="666,-294.5 666,-313.5 872,-313.5 872,-294.5 666,-294.5"/>
<text text-anchor="middle" x="769" y="-301.5" font-family="Helvetica,sans-Serif" font-size="10.00">engine.render.RenderedNode.intersects</text>
</a>
</g>
</g>
<!-- Node13&#45;&gt;Node16 -->
<g id="edge22" class="edge"><title>Node13&#45;&gt;Node16</title>
<path fill="none" stroke="midnightblue" d="M611.573,-304C625.786,-304 640.793,-304 655.66,-304"/>
<polygon fill="midnightblue" stroke="midnightblue" points="655.919,-307.5 665.919,-304 655.919,-300.5 655.919,-307.5"/>
</g>
<!-- Node13&#45;&gt;Node17 -->
<g id="edge23" class="edge"><title>Node13&#45;&gt;Node17</title>
<path fill="none" stroke="midnightblue" d="M539.895,-288.55C559.897,-258.635 608.192,-192.785 666,-159 669.868,-156.74 673.933,-154.683 678.121,-152.811"/>
<polygon fill="midnightblue" stroke="midnightblue" points="679.522,-156.02 687.46,-149.003 676.878,-149.538 679.522,-156.02"/>
</g>
<!-- Node13&#45;&gt;Node18 -->
<g id="edge24" class="edge"><title>Node13&#45;&gt;Node18</title>
<path fill="none" stroke="midnightblue" d="M535.932,-288.986C551.338,-252.041 596.338,-156.295 666,-109 668.399,-107.371 670.894,-105.853 673.465,-104.436"/>
<polygon fill="midnightblue" stroke="midnightblue" points="675.04,-107.562 682.465,-100.004 671.947,-101.282 675.04,-107.562"/>
</g>
</g>
</svg>
