<?xml version="1.0" encoding="UTF-8" standalone="no"?>
<!DOCTYPE svg PUBLIC "-//W3C//DTD SVG 1.1//EN"
 "http://www.w3.org/Graphics/SVG/1.1/DTD/svg11.dtd">
<!-- Generated by graphviz version 2.36.0 (20140111.2315)
 -->
<!-- Title: authoring.view.icons.ImageBasedIcon Pages: 1 -->
<svg width="335pt" height="276pt"
 viewBox="0.00 0.00 335.00 276.00" xmlns="http://www.w3.org/2000/svg" xmlns:xlink="http://www.w3.org/1999/xlink">
<g id="graph0" class="graph" transform="scale(1 1) rotate(0) translate(4 272)">
<title>authoring.view.icons.ImageBasedIcon</title>
<polygon fill="white" stroke="none" points="-4,4 -4,-272 331,-272 331,4 -4,4"/>
<!-- Node1 -->
<g id="node1" class="node"><title>Node1</title>
<polygon fill="#bfbfbf" stroke="black" points="85,-69 85,-99 231,-99 231,-69 85,-69"/>
<text text-anchor="start" x="93" y="-87" font-family="Helvetica,sans-Serif" font-size="10.00">authoring.view.icons.Image</text>
<text text-anchor="middle" x="158" y="-76" font-family="Helvetica,sans-Serif" font-size="10.00">BasedIcon</text>
</g>
<!-- Node5 -->
<g id="node5" class="node"><title>Node5</title>
<g id="a_node5"><a xlink:href="../../de/de8/classauthoring_1_1view_1_1icons_1_1_game_object_icon.html" target="_top" xlink:title="authoring.view.icons.Game\lObjectIcon">
<polygon fill="white" stroke="black" points="-0.5,-1 -0.5,-31 144.5,-31 144.5,-1 -0.5,-1"/>
<text text-anchor="start" x="7.5" y="-19" font-family="Helvetica,sans-Serif" font-size="10.00">authoring.view.icons.Game</text>
<text text-anchor="middle" x="72" y="-8" font-family="Helvetica,sans-Serif" font-size="10.00">ObjectIcon</text>
</a>
</g>
</g>
<!-- Node1&#45;&gt;Node5 -->
<g id="edge4" class="edge"><title>Node1&#45;&gt;Node5</title>
<path fill="none" stroke="midnightblue" d="M131.04,-62.3094C117.792,-52.1426 102.173,-40.1562 90.3289,-31.0663"/>
<polygon fill="midnightblue" stroke="midnightblue" points="129.275,-65.3673 139.339,-68.679 133.537,-59.8142 129.275,-65.3673"/>
</g>
<!-- Node6 -->
<g id="node6" class="node"><title>Node6</title>
<g id="a_node6"><a xlink:href="../../df/d69/classauthoring_1_1view_1_1icons_1_1_image_icon.html" target="_top" xlink:title="authoring.view.icons.ImageIcon">
<polygon fill="white" stroke="black" points="162.5,-6.5 162.5,-25.5 327.5,-25.5 327.5,-6.5 162.5,-6.5"/>
<text text-anchor="middle" x="245" y="-13.5" font-family="Helvetica,sans-Serif" font-size="10.00">authoring.view.icons.ImageIcon</text>
</a>
</g>
</g>
<!-- Node1&#45;&gt;Node6 -->
<g id="edge5" class="edge"><title>Node1&#45;&gt;Node6</title>
<path fill="none" stroke="midnightblue" d="M184.98,-62.5324C201.215,-50.216 221.056,-35.1642 233.363,-25.8283"/>
<polygon fill="midnightblue" stroke="midnightblue" points="182.729,-59.8467 176.878,-68.679 186.96,-65.4235 182.729,-59.8467"/>
</g>
<!-- Node2 -->
<g id="node2" class="node"><title>Node2</title>
<g id="a_node2"><a xlink:href="../../de/d21/classauthoring_1_1view_1_1icons_1_1_file_icon.html" target="_top" xlink:title="authoring.view.icons.FileIcon">
<polygon fill="white" stroke="black" points="83,-136.5 83,-155.5 233,-155.5 233,-136.5 83,-136.5"/>
<text text-anchor="middle" x="158" y="-143.5" font-family="Helvetica,sans-Serif" font-size="10.00">authoring.view.icons.FileIcon</text>
</a>
</g>
</g>
<!-- Node2&#45;&gt;Node1 -->
<g id="edge1" class="edge"><title>Node2&#45;&gt;Node1</title>
<path fill="none" stroke="midnightblue" d="M158,-126.371C158,-117.585 158,-107.272 158,-99.1408"/>
<polygon fill="midnightblue" stroke="midnightblue" points="154.5,-126.403 158,-136.403 161.5,-126.403 154.5,-126.403"/>
</g>
<!-- Node3 -->
<g id="node3" class="node"><title>Node3</title>
<g id="a_node3"><a xlink:href="../../dd/db4/classauthoring_1_1view_1_1icons_1_1_base_icon.html" target="_top" xlink:title="authoring.view.icons.BaseIcon">
<polygon fill="white" stroke="black" points="78.5,-192.5 78.5,-211.5 237.5,-211.5 237.5,-192.5 78.5,-192.5"/>
<text text-anchor="middle" x="158" y="-199.5" font-family="Helvetica,sans-Serif" font-size="10.00">authoring.view.icons.BaseIcon</text>
</a>
</g>
</g>
<!-- Node3&#45;&gt;Node2 -->
<g id="edge2" class="edge"><title>Node3&#45;&gt;Node2</title>
<path fill="none" stroke="midnightblue" d="M158,-181.805C158,-172.91 158,-162.78 158,-155.751"/>
<polygon fill="midnightblue" stroke="midnightblue" points="154.5,-182.083 158,-192.083 161.5,-182.083 154.5,-182.083"/>
</g>
<!-- Node4 -->
<g id="node4" class="node"><title>Node4</title>
<polygon fill="white" stroke="#bfbfbf" points="137.5,-248.5 137.5,-267.5 178.5,-267.5 178.5,-248.5 137.5,-248.5"/>
<text text-anchor="middle" x="158" y="-255.5" font-family="Helvetica,sans-Serif" font-size="10.00">VBox</text>
</g>
<!-- Node4&#45;&gt;Node3 -->
<g id="edge3" class="edge"><title>Node4&#45;&gt;Node3</title>
<path fill="none" stroke="midnightblue" d="M158,-237.805C158,-228.91 158,-218.78 158,-211.751"/>
<polygon fill="midnightblue" stroke="midnightblue" points="154.5,-238.083 158,-248.083 161.5,-238.083 154.5,-238.083"/>
</g>
</g>
</svg>
