<?xml version="1.0" encoding="UTF-8" standalone="no"?>
<!DOCTYPE svg PUBLIC "-//W3C//DTD SVG 1.1//EN"
 "http://www.w3.org/Graphics/SVG/1.1/DTD/svg11.dtd">
<!-- Generated by graphviz version 2.36.0 (20140111.2315)
 -->
<!-- Title: authoring.view.propertiesview.GameObjectProperties.edit Pages: 1 -->
<svg width="1018pt" height="366pt"
 viewBox="0.00 0.00 1018.00 366.00" xmlns="http://www.w3.org/2000/svg" xmlns:xlink="http://www.w3.org/1999/xlink">
<g id="graph0" class="graph" transform="scale(1 1) rotate(0) translate(4 362)">
<title>authoring.view.propertiesview.GameObjectProperties.edit</title>
<polygon fill="white" stroke="none" points="-4,4 -4,-362 1014,-362 1014,4 -4,4"/>
<!-- Node1 -->
<g id="node1" class="node"><title>Node1</title>
<polygon fill="#bfbfbf" stroke="black" points="0.5,-147 0.5,-177 159.5,-177 159.5,-147 0.5,-147"/>
<text text-anchor="start" x="8.5" y="-165" font-family="Helvetica,sans-Serif" font-size="10.00">authoring.view.propertiesview.</text>
<text text-anchor="middle" x="80" y="-154" font-family="Helvetica,sans-Serif" font-size="10.00">GameObjectProperties.edit</text>
</g>
<!-- Node2 -->
<g id="node2" class="node"><title>Node2</title>
<g id="a_node2"><a xlink:href="../../d9/d9d/classengine_1_1game_object_1_1components_1_1_physics_body.html#a69d3fe175f40fdc40ca6e414cac727a5" target="_top" xlink:title="engine.gameObject.components.\lPhysicsBody.addScalar">
<polygon fill="white" stroke="black" points="209,-284 209,-314 385,-314 385,-284 209,-284"/>
<text text-anchor="start" x="217" y="-302" font-family="Helvetica,sans-Serif" font-size="10.00">engine.gameObject.components.</text>
<text text-anchor="middle" x="297" y="-291" font-family="Helvetica,sans-Serif" font-size="10.00">PhysicsBody.addScalar</text>
</a>
</g>
</g>
<!-- Node1&#45;&gt;Node2 -->
<g id="edge1" class="edge"><title>Node1&#45;&gt;Node2</title>
<path fill="none" stroke="midnightblue" d="M92.2389,-177.273C110.964,-201.584 150.967,-248.894 196,-274 200.13,-276.302 204.472,-278.396 208.94,-280.299"/>
<polygon fill="midnightblue" stroke="midnightblue" points="207.669,-283.56 218.257,-283.944 210.22,-277.041 207.669,-283.56"/>
</g>
<!-- Node9 -->
<g id="node9" class="node"><title>Node9</title>
<g id="a_node9"><a xlink:href="../../d0/d7f/classengine_1_1game_object_1_1_game_object.html#aaa9e6a91ab34565c61a227deff620b5b" target="_top" xlink:title="engine.gameObject.GameObject.get\lComponents">
<polygon fill="white" stroke="black" points="201,-235 201,-265 393,-265 393,-235 201,-235"/>
<text text-anchor="start" x="209" y="-253" font-family="Helvetica,sans-Serif" font-size="10.00">engine.gameObject.GameObject.get</text>
<text text-anchor="middle" x="297" y="-242" font-family="Helvetica,sans-Serif" font-size="10.00">Components</text>
</a>
</g>
</g>
<!-- Node1&#45;&gt;Node9 -->
<g id="edge9" class="edge"><title>Node1&#45;&gt;Node9</title>
<path fill="none" stroke="midnightblue" d="M104.361,-177.134C127.005,-191.229 162.718,-211.973 196,-225 202.588,-227.578 209.525,-229.957 216.548,-232.135"/>
<polygon fill="midnightblue" stroke="midnightblue" points="215.569,-235.495 226.152,-234.982 217.559,-228.784 215.569,-235.495"/>
</g>
<!-- Node10 -->
<g id="node10" class="node"><title>Node10</title>
<g id="a_node10"><a xlink:href="../../d0/d7f/classengine_1_1game_object_1_1_game_object.html#ae94fe532960bd29f64c2dc19ec0af798" target="_top" xlink:title="engine.gameObject.GameObject.getID">
<polygon fill="white" stroke="black" points="196,-196.5 196,-215.5 398,-215.5 398,-196.5 196,-196.5"/>
<text text-anchor="middle" x="297" y="-203.5" font-family="Helvetica,sans-Serif" font-size="10.00">engine.gameObject.GameObject.getID</text>
</a>
</g>
</g>
<!-- Node1&#45;&gt;Node10 -->
<g id="edge10" class="edge"><title>Node1&#45;&gt;Node10</title>
<path fill="none" stroke="midnightblue" d="M152.448,-177.008C166.862,-180.008 181.912,-183.121 196,-186 209.61,-188.781 224.27,-191.736 238.058,-194.497"/>
<polygon fill="midnightblue" stroke="midnightblue" points="237.425,-197.94 247.917,-196.468 238.797,-191.075 237.425,-197.94"/>
</g>
<!-- Node11 -->
<g id="node11" class="node"><title>Node11</title>
<g id="a_node11"><a xlink:href="../../d0/d7f/classengine_1_1game_object_1_1_game_object.html#accd456b2eaab9c7056de825a28b066c8" target="_top" xlink:title="engine.gameObject.GameObject.get\lIdentifier">
<polygon fill="white" stroke="black" points="201,-147 201,-177 393,-177 393,-147 201,-147"/>
<text text-anchor="start" x="209" y="-165" font-family="Helvetica,sans-Serif" font-size="10.00">engine.gameObject.GameObject.get</text>
<text text-anchor="middle" x="297" y="-154" font-family="Helvetica,sans-Serif" font-size="10.00">Identifier</text>
</a>
</g>
</g>
<!-- Node1&#45;&gt;Node11 -->
<g id="edge11" class="edge"><title>Node1&#45;&gt;Node11</title>
<path fill="none" stroke="midnightblue" d="M159.533,-162C169.714,-162 180.27,-162 190.796,-162"/>
<polygon fill="midnightblue" stroke="midnightblue" points="190.867,-165.5 200.867,-162 190.867,-158.5 190.867,-165.5"/>
</g>
<!-- Node12 -->
<g id="node12" class="node"><title>Node12</title>
<g id="a_node12"><a xlink:href="../../d0/d7f/classengine_1_1game_object_1_1_game_object.html#a9a4690b212ecad4060ce8f9abbcedba5" target="_top" xlink:title="engine.gameObject.GameObject.set\lIdentifier">
<polygon fill="white" stroke="black" points="201.5,-98 201.5,-128 392.5,-128 392.5,-98 201.5,-98"/>
<text text-anchor="start" x="209.5" y="-116" font-family="Helvetica,sans-Serif" font-size="10.00">engine.gameObject.GameObject.set</text>
<text text-anchor="middle" x="297" y="-105" font-family="Helvetica,sans-Serif" font-size="10.00">Identifier</text>
</a>
</g>
</g>
<!-- Node1&#45;&gt;Node12 -->
<g id="edge12" class="edge"><title>Node1&#45;&gt;Node12</title>
<path fill="none" stroke="midnightblue" d="M146.968,-146.965C170.185,-141.674 196.456,-135.687 220.404,-130.229"/>
<polygon fill="midnightblue" stroke="midnightblue" points="221.184,-133.641 230.157,-128.006 219.629,-126.816 221.184,-133.641"/>
</g>
<!-- Node13 -->
<g id="node13" class="node"><title>Node13</title>
<g id="a_node13"><a xlink:href="../../d0/d7f/classengine_1_1game_object_1_1_game_object.html#ab9b1029f6d5a8a7eb563d5e6e1dcf570" target="_top" xlink:title="engine.gameObject.GameObject.set\lPhysicsBody">
<polygon fill="white" stroke="black" points="201.5,-49 201.5,-79 392.5,-79 392.5,-49 201.5,-49"/>
<text text-anchor="start" x="209.5" y="-67" font-family="Helvetica,sans-Serif" font-size="10.00">engine.gameObject.GameObject.set</text>
<text text-anchor="middle" x="297" y="-56" font-family="Helvetica,sans-Serif" font-size="10.00">PhysicsBody</text>
</a>
</g>
</g>
<!-- Node1&#45;&gt;Node13 -->
<g id="edge13" class="edge"><title>Node1&#45;&gt;Node13</title>
<path fill="none" stroke="midnightblue" d="M100.67,-146.717C122.734,-130.263 160.142,-104.385 196,-89 201.828,-86.4996 207.959,-84.2123 214.197,-82.1272"/>
<polygon fill="midnightblue" stroke="midnightblue" points="215.576,-85.3622 224.059,-79.0153 213.469,-78.6866 215.576,-85.3622"/>
</g>
<!-- Node14 -->
<g id="node14" class="node"><title>Node14</title>
<g id="a_node14"><a xlink:href="../../d9/d9d/classengine_1_1game_object_1_1components_1_1_physics_body.html#a5f54f878a7fef4a77a58bbee39e8c9d3" target="_top" xlink:title="engine.gameObject.components.\lPhysicsBody.setVelocity">
<polygon fill="white" stroke="black" points="209,-0 209,-30 385,-30 385,-0 209,-0"/>
<text text-anchor="start" x="217" y="-18" font-family="Helvetica,sans-Serif" font-size="10.00">engine.gameObject.components.</text>
<text text-anchor="middle" x="297" y="-7" font-family="Helvetica,sans-Serif" font-size="10.00">PhysicsBody.setVelocity</text>
</a>
</g>
</g>
<!-- Node1&#45;&gt;Node14 -->
<g id="edge14" class="edge"><title>Node1&#45;&gt;Node14</title>
<path fill="none" stroke="midnightblue" d="M91.0374,-146.604C108.897,-120.49 148.785,-67.6613 196,-40 199.838,-37.7512 203.874,-35.7034 208.033,-33.8388"/>
<polygon fill="midnightblue" stroke="midnightblue" points="209.377,-37.0707 217.305,-30.0425 206.725,-30.5926 209.377,-37.0707"/>
</g>
<!-- Node3 -->
<g id="node3" class="node"><title>Node3</title>
<g id="a_node3"><a xlink:href="../../dc/db5/classengine_1_1physics_1_1_physics_component.html#aabe6f17a9d86eaf42e9df5769182dfa5" target="_top" xlink:title="engine.physics.PhysicsComponent.to\lString">
<polygon fill="white" stroke="black" points="434,-328 434,-358 628,-358 628,-328 434,-328"/>
<text text-anchor="start" x="442" y="-346" font-family="Helvetica,sans-Serif" font-size="10.00">engine.physics.PhysicsComponent.to</text>
<text text-anchor="middle" x="531" y="-335" font-family="Helvetica,sans-Serif" font-size="10.00">String</text>
</a>
</g>
</g>
<!-- Node2&#45;&gt;Node3 -->
<g id="edge2" class="edge"><title>Node2&#45;&gt;Node3</title>
<path fill="none" stroke="midnightblue" d="M377.192,-314.019C397.703,-317.909 419.927,-322.124 440.908,-326.103"/>
<polygon fill="midnightblue" stroke="midnightblue" points="440.294,-329.549 450.771,-327.974 441.598,-322.672 440.294,-329.549"/>
</g>
<!-- Node4 -->
<g id="node4" class="node"><title>Node4</title>
<g id="a_node4"><a xlink:href="../../d0/de5/classengine_1_1physics_1_1_scalar.html#afc6c4f29d09315850a328bb532d4bc35" target="_top" xlink:title="engine.physics.Scalar.iterator">
<polygon fill="white" stroke="black" points="452,-289.5 452,-308.5 610,-308.5 610,-289.5 452,-289.5"/>
<text text-anchor="middle" x="531" y="-296.5" font-family="Helvetica,sans-Serif" font-size="10.00">engine.physics.Scalar.iterator</text>
</a>
</g>
</g>
<!-- Node2&#45;&gt;Node4 -->
<g id="edge3" class="edge"><title>Node2&#45;&gt;Node4</title>
<path fill="none" stroke="midnightblue" d="M385.048,-299C403.491,-299 422.977,-299 441.473,-299"/>
<polygon fill="midnightblue" stroke="midnightblue" points="441.635,-302.5 451.635,-299 441.635,-295.5 441.635,-302.5"/>
</g>
<!-- Node5 -->
<g id="node5" class="node"><title>Node5</title>
<g id="a_node5"><a xlink:href="../../d9/d9d/classengine_1_1game_object_1_1components_1_1_physics_body.html#aec651bb9ed66c5c0db0bbbd0c2f445ae" target="_top" xlink:title="engine.gameObject.components.\lPhysicsBody.balanceForces">
<polygon fill="white" stroke="black" points="443,-240 443,-270 619,-270 619,-240 443,-240"/>
<text text-anchor="start" x="451" y="-258" font-family="Helvetica,sans-Serif" font-size="10.00">engine.gameObject.components.</text>
<text text-anchor="middle" x="531" y="-247" font-family="Helvetica,sans-Serif" font-size="10.00">PhysicsBody.balanceForces</text>
</a>
</g>
</g>
<!-- Node2&#45;&gt;Node5 -->
<g id="edge4" class="edge"><title>Node2&#45;&gt;Node5</title>
<path fill="none" stroke="midnightblue" d="M377.192,-283.981C397.703,-280.091 419.927,-275.876 440.908,-271.897"/>
<polygon fill="midnightblue" stroke="midnightblue" points="441.598,-275.328 450.771,-270.026 440.294,-268.451 441.598,-275.328"/>
</g>
<!-- Node6 -->
<g id="node6" class="node"><title>Node6</title>
<g id="a_node6"><a xlink:href="../../d5/d1f/classengine_1_1physics_1_1_vector.html#a0ad05574ba8b82b2f265ebfa5869d27b" target="_top" xlink:title="engine.physics.Vector.setX">
<polygon fill="white" stroke="black" points="664,-264.5 664,-283.5 808,-283.5 808,-264.5 664,-264.5"/>
<text text-anchor="middle" x="736" y="-271.5" font-family="Helvetica,sans-Serif" font-size="10.00">engine.physics.Vector.setX</text>
</a>
</g>
</g>
<!-- Node5&#45;&gt;Node6 -->
<g id="edge5" class="edge"><title>Node5&#45;&gt;Node6</title>
<path fill="none" stroke="midnightblue" d="M619.268,-263.168C630.622,-264.231 642.219,-265.316 653.474,-266.369"/>
<polygon fill="midnightblue" stroke="midnightblue" points="653.415,-269.879 663.697,-267.326 654.067,-262.91 653.415,-269.879"/>
</g>
<!-- Node8 -->
<g id="node8" class="node"><title>Node8</title>
<g id="a_node8"><a xlink:href="../../d5/d1f/classengine_1_1physics_1_1_vector.html#a4e646d4b9bf5a3904817560725776cec" target="_top" xlink:title="engine.physics.Vector.setY">
<polygon fill="white" stroke="black" points="664.5,-226.5 664.5,-245.5 807.5,-245.5 807.5,-226.5 664.5,-226.5"/>
<text text-anchor="middle" x="736" y="-233.5" font-family="Helvetica,sans-Serif" font-size="10.00">engine.physics.Vector.setY</text>
</a>
</g>
</g>
<!-- Node5&#45;&gt;Node8 -->
<g id="edge7" class="edge"><title>Node5&#45;&gt;Node8</title>
<path fill="none" stroke="midnightblue" d="M619.268,-246.832C630.904,-245.743 642.795,-244.63 654.312,-243.552"/>
<polygon fill="midnightblue" stroke="midnightblue" points="654.691,-247.032 664.321,-242.615 654.038,-240.062 654.691,-247.032"/>
</g>
<!-- Node7 -->
<g id="node7" class="node"><title>Node7</title>
<g id="a_node7"><a xlink:href="../../d5/d1f/classengine_1_1physics_1_1_vector.html#a33c635f15f2f2e16f9b57542c6c3182f" target="_top" xlink:title="engine.physics.Vector.calculate\lMagnitude">
<polygon fill="white" stroke="black" points="844,-240 844,-270 1010,-270 1010,-240 844,-240"/>
<text text-anchor="start" x="852" y="-258" font-family="Helvetica,sans-Serif" font-size="10.00">engine.physics.Vector.calculate</text>
<text text-anchor="middle" x="927" y="-247" font-family="Helvetica,sans-Serif" font-size="10.00">Magnitude</text>
</a>
</g>
</g>
<!-- Node6&#45;&gt;Node7 -->
<g id="edge6" class="edge"><title>Node6&#45;&gt;Node7</title>
<path fill="none" stroke="midnightblue" d="M808.183,-266.844C816.532,-266.005 825.139,-265.139 833.722,-264.277"/>
<polygon fill="midnightblue" stroke="midnightblue" points="834.169,-267.749 843.769,-263.267 833.469,-260.784 834.169,-267.749"/>
</g>
<!-- Node8&#45;&gt;Node7 -->
<g id="edge8" class="edge"><title>Node8&#45;&gt;Node7</title>
<path fill="none" stroke="midnightblue" d="M807.645,-243.102C816.254,-243.967 825.145,-244.861 834.006,-245.752"/>
<polygon fill="midnightblue" stroke="midnightblue" points="833.682,-249.237 843.982,-246.755 834.382,-242.272 833.682,-249.237"/>
</g>
</g>
</svg>
