<?xml version="1.0" encoding="UTF-8" standalone="no"?>
<!DOCTYPE svg PUBLIC "-//W3C//DTD SVG 1.1//EN"
 "http://www.w3.org/Graphics/SVG/1.1/DTD/svg11.dtd">
<!-- Generated by graphviz version 2.36.0 (20140111.2315)
 -->
<!-- Title: authoring.view.propertiesview.GameObjectProperties.GameObjectProperties Pages: 1 -->
<!--zoomable 721 -->
<svg id="main" version="1.1" xmlns="http://www.w3.org/2000/svg" xmlns:xlink="http://www.w3.org/1999/xlink" xml:space="preserve" onload="init(evt)">
<style type="text/css"><![CDATA[
.edge:hover path { stroke: red; }
.edge:hover polygon { stroke: red; fill: red; }
]]></style>
<script type="text/javascript"><![CDATA[
var edges = document.getElementsByTagName('g');
if (edges && edges.length) {
  for (var i=0;i<edges.length;i++) {
    if (edges[i].id.substr(0,4)=='edge') {
      edges[i].setAttribute('class','edge');
    }
  }
}
]]></script>
        <defs>
                <circle id="rim" cx="0" cy="0" r="7"/>
                <circle id="rim2" cx="0" cy="0" r="3.5"/>
                <g id="zoomPlus">
                        <use xlink:href="#rim" fill="#404040">
                                <set attributeName="fill" to="#808080" begin="zoomplus.mouseover" end="zoomplus.mouseout"/>
                        </use>
                        <path d="M-4,0h8M0,-4v8" fill="none" stroke="white" stroke-width="1.5" pointer-events="none"/>
                </g>
                <g id="zoomMin">
                        <use xlink:href="#rim" fill="#404040">
                                <set attributeName="fill" to="#808080" begin="zoomminus.mouseover" end="zoomminus.mouseout"/>
                        </use>
                        <path d="M-4,0h8" fill="none" stroke="white" stroke-width="1.5" pointer-events="none"/>
                </g>
                <g id="dirArrow">
                        <path fill="none" stroke="white" stroke-width="1.5" d="M0,-3.0v7 M-2.5,-0.5L0,-3.0L2.5,-0.5"/>
                </g>
               <g id="resetDef">
                       <use xlink:href="#rim2" fill="#404040">
                               <set attributeName="fill" to="#808080" begin="reset.mouseover" end="reset.mouseout"/>
                       </use>
               </g>
        </defs>

<script type="text/javascript">
var viewWidth = 732;
var viewHeight = 721;
var sectionId = 'dynsection-2';
</script>
<script xlink:href="../../svgpan.js"/>
<svg id="graph" class="graph">
<g id="viewport">
<title>authoring.view.propertiesview.GameObjectProperties.GameObjectProperties</title>
<polygon fill="white" stroke="none" points="-4,4 -4,-717 728,-717 728,4 -4,4"/>
<!-- Node1 -->
<g id="node1" class="node"><title>Node1</title>
<polygon fill="#bfbfbf" stroke="black" points="0.5,-344 0.5,-374 237.5,-374 237.5,-344 0.5,-344"/>
<text text-anchor="start" x="8.5" y="-362" font-family="Helvetica,sans-Serif" font-size="10.00">authoring.view.propertiesview.</text>
<text text-anchor="middle" x="119" y="-351" font-family="Helvetica,sans-Serif" font-size="10.00">GameObjectProperties.GameObjectProperties</text>
</g>
<!-- Node2 -->
<g id="node2" class="node"><title>Node2</title>
<g id="a_node2"><a xlink:href="../../da/d8d/classauthoring_1_1view_1_1propertiesview_1_1_game_object_properties.html#a296e97b9faeabc086f698730de09a5c9" target="_top" xlink:title="authoring.view.propertiesview.\lGameObjectProperties.initializeProperties">
<polygon fill="white" stroke="black" points="274.5,-344 274.5,-374 489.5,-374 489.5,-344 274.5,-344"/>
<text text-anchor="start" x="282.5" y="-362" font-family="Helvetica,sans-Serif" font-size="10.00">authoring.view.propertiesview.</text>
<text text-anchor="middle" x="382" y="-351" font-family="Helvetica,sans-Serif" font-size="10.00">GameObjectProperties.initializeProperties</text>
</a>
</g>
</g>
<!-- Node1&#45;&gt;Node2 -->
<g id="edge1" class="edge"><title>Node1&#45;&gt;Node2</title>
<path fill="none" stroke="midnightblue" d="M237.52,-359C246.466,-359 255.494,-359 264.434,-359"/>
<polygon fill="midnightblue" stroke="midnightblue" points="264.481,-362.5 274.481,-359 264.481,-355.5 264.481,-362.5"/>
</g>
<!-- Node3 -->
<g id="node3" class="node"><title>Node3</title>
<g id="a_node3"><a xlink:href="../../d0/d7f/classengine_1_1game_object_1_1_game_object.html#accd456b2eaab9c7056de825a28b066c8" target="_top" xlink:title="engine.gameObject.GameObject.get\lIdentifier">
<polygon fill="white" stroke="black" points="529,-683 529,-713 721,-713 721,-683 529,-683"/>
<text text-anchor="start" x="537" y="-701" font-family="Helvetica,sans-Serif" font-size="10.00">engine.gameObject.GameObject.get</text>
<text text-anchor="middle" x="625" y="-690" font-family="Helvetica,sans-Serif" font-size="10.00">Identifier</text>
</a>
</g>
</g>
<!-- Node2&#45;&gt;Node3 -->
<g id="edge2" class="edge"><title>Node2&#45;&gt;Node3</title>
<path fill="none" stroke="midnightblue" d="M385.228,-374.224C393.496,-425.056 427.218,-590.367 526,-673 528.003,-674.676 530.105,-676.241 532.286,-677.704"/>
<polygon fill="midnightblue" stroke="midnightblue" points="530.661,-680.808 541.057,-682.848 534.202,-674.77 530.661,-680.808"/>
</g>
<!-- Node4 -->
<g id="node4" class="node"><title>Node4</title>
<g id="a_node4"><a xlink:href="../../d4/dac/classengine_1_1game_object_1_1_identifier.html#aad7e82c7d4731821d16ed4690041ad4a" target="_top" xlink:title="engine.gameObject.Identifier.getType">
<polygon fill="white" stroke="black" points="528,-644.5 528,-663.5 722,-663.5 722,-644.5 528,-644.5"/>
<text text-anchor="middle" x="625" y="-651.5" font-family="Helvetica,sans-Serif" font-size="10.00">engine.gameObject.Identifier.getType</text>
</a>
</g>
</g>
<!-- Node2&#45;&gt;Node4 -->
<g id="edge3" class="edge"><title>Node2&#45;&gt;Node4</title>
<path fill="none" stroke="midnightblue" d="M386.076,-374.157C396.445,-421.113 434.712,-565.134 526,-634 529.019,-636.278 532.234,-638.313 535.59,-640.13"/>
<polygon fill="midnightblue" stroke="midnightblue" points="534.224,-643.355 544.763,-644.447 537.205,-637.022 534.224,-643.355"/>
</g>
<!-- Node5 -->
<g id="node5" class="node"><title>Node5</title>
<g id="a_node5"><a xlink:href="../../d4/dac/classengine_1_1game_object_1_1_identifier.html#aa2630b5024b9595e43afe0bf53229433" target="_top" xlink:title="engine.gameObject.Identifier.get\lUniqueId">
<polygon fill="white" stroke="black" points="538.5,-595 538.5,-625 711.5,-625 711.5,-595 538.5,-595"/>
<text text-anchor="start" x="546.5" y="-613" font-family="Helvetica,sans-Serif" font-size="10.00">engine.gameObject.Identifier.get</text>
<text text-anchor="middle" x="625" y="-602" font-family="Helvetica,sans-Serif" font-size="10.00">UniqueId</text>
</a>
</g>
</g>
<!-- Node2&#45;&gt;Node5 -->
<g id="edge4" class="edge"><title>Node2&#45;&gt;Node5</title>
<path fill="none" stroke="midnightblue" d="M388.06,-374.165C402.515,-415.067 448.05,-528.379 526,-585 528.546,-586.849 531.216,-588.562 533.98,-590.149"/>
<polygon fill="midnightblue" stroke="midnightblue" points="532.592,-593.37 543.09,-594.798 535.774,-587.135 532.592,-593.37"/>
</g>
<!-- Node6 -->
<g id="node6" class="node"><title>Node6</title>
<g id="a_node6"><a xlink:href="../../d0/d7f/classengine_1_1game_object_1_1_game_object.html#ae8b88e1cf489e935426e2e252defbae0" target="_top" xlink:title="engine.gameObject.GameObject.get\lCurrentImageName">
<polygon fill="white" stroke="black" points="529,-546 529,-576 721,-576 721,-546 529,-546"/>
<text text-anchor="start" x="537" y="-564" font-family="Helvetica,sans-Serif" font-size="10.00">engine.gameObject.GameObject.get</text>
<text text-anchor="middle" x="625" y="-553" font-family="Helvetica,sans-Serif" font-size="10.00">CurrentImageName</text>
</a>
</g>
</g>
<!-- Node2&#45;&gt;Node6 -->
<g id="edge5" class="edge"><title>Node2&#45;&gt;Node6</title>
<path fill="none" stroke="midnightblue" d="M390.711,-374.061C409.129,-408.458 459.171,-493.116 526,-536 529.313,-538.126 532.798,-540.072 536.399,-541.852"/>
<polygon fill="midnightblue" stroke="midnightblue" points="534.999,-545.06 545.557,-545.945 537.855,-538.669 534.999,-545.06"/>
</g>
<!-- Node7 -->
<g id="node7" class="node"><title>Node7</title>
<g id="a_node7"><a xlink:href="../../d0/d7f/classengine_1_1game_object_1_1_game_object.html#a31aa2c854220621b49fc5575b50b9342" target="_top" xlink:title="engine.gameObject.GameObject.get\lWidth">
<polygon fill="white" stroke="black" points="529,-497 529,-527 721,-527 721,-497 529,-497"/>
<text text-anchor="start" x="537" y="-515" font-family="Helvetica,sans-Serif" font-size="10.00">engine.gameObject.GameObject.get</text>
<text text-anchor="middle" x="625" y="-504" font-family="Helvetica,sans-Serif" font-size="10.00">Width</text>
</a>
</g>
</g>
<!-- Node2&#45;&gt;Node7 -->
<g id="edge6" class="edge"><title>Node2&#45;&gt;Node7</title>
<path fill="none" stroke="midnightblue" d="M395.475,-374.196C418.427,-401.132 470.141,-457.21 526,-487 530.324,-489.306 534.869,-491.406 539.537,-493.318"/>
<polygon fill="midnightblue" stroke="midnightblue" points="538.665,-496.73 549.257,-496.984 541.136,-490.18 538.665,-496.73"/>
</g>
<!-- Node8 -->
<g id="node8" class="node"><title>Node8</title>
<g id="a_node8"><a xlink:href="../../d0/d7f/classengine_1_1game_object_1_1_game_object.html#aaeb5730a3b51fe9cb3d817ea7172cfc2" target="_top" xlink:title="engine.gameObject.GameObject.get\lHeight">
<polygon fill="white" stroke="black" points="529,-448 529,-478 721,-478 721,-448 529,-448"/>
<text text-anchor="start" x="537" y="-466" font-family="Helvetica,sans-Serif" font-size="10.00">engine.gameObject.GameObject.get</text>
<text text-anchor="middle" x="625" y="-455" font-family="Helvetica,sans-Serif" font-size="10.00">Height</text>
</a>
</g>
</g>
<!-- Node2&#45;&gt;Node8 -->
<g id="edge7" class="edge"><title>Node2&#45;&gt;Node8</title>
<path fill="none" stroke="midnightblue" d="M405.881,-374.053C433.391,-391.57 481.437,-420.343 526,-438 532.306,-440.499 538.941,-442.813 545.662,-444.941"/>
<polygon fill="midnightblue" stroke="midnightblue" points="544.956,-448.384 555.541,-447.925 546.981,-441.683 544.956,-448.384"/>
</g>
<!-- Node9 -->
<g id="node9" class="node"><title>Node9</title>
<g id="a_node9"><a xlink:href="../../d0/d7f/classengine_1_1game_object_1_1_game_object.html#a606c7293c2bfac0af1fb42143bf527f6" target="_top" xlink:title="engine.gameObject.GameObject.getX">
<polygon fill="white" stroke="black" points="526,-409.5 526,-428.5 724,-428.5 724,-409.5 526,-409.5"/>
<text text-anchor="middle" x="625" y="-416.5" font-family="Helvetica,sans-Serif" font-size="10.00">engine.gameObject.GameObject.getX</text>
</a>
</g>
</g>
<!-- Node2&#45;&gt;Node9 -->
<g id="edge8" class="edge"><title>Node2&#45;&gt;Node9</title>
<path fill="none" stroke="midnightblue" d="M431.368,-374.012C458.941,-382.281 494.23,-392.381 526,-400 537.079,-402.657 548.931,-405.202 560.428,-407.518"/>
<polygon fill="midnightblue" stroke="midnightblue" points="559.923,-410.986 570.412,-409.491 561.28,-404.119 559.923,-410.986"/>
</g>
<!-- Node10 -->
<g id="node10" class="node"><title>Node10</title>
<g id="a_node10"><a xlink:href="../../d0/d7f/classengine_1_1game_object_1_1_game_object.html#a1988806ef560c9384f3844d0666a9450" target="_top" xlink:title="engine.gameObject.GameObject.getY">
<polygon fill="white" stroke="black" points="526.5,-371.5 526.5,-390.5 723.5,-390.5 723.5,-371.5 526.5,-371.5"/>
<text text-anchor="middle" x="625" y="-378.5" font-family="Helvetica,sans-Serif" font-size="10.00">engine.gameObject.GameObject.getY</text>
</a>
</g>
</g>
<!-- Node2&#45;&gt;Node10 -->
<g id="edge9" class="edge"><title>Node2&#45;&gt;Node10</title>
<path fill="none" stroke="midnightblue" d="M489.759,-368.746C498.632,-369.556 507.606,-370.375 516.485,-371.185"/>
<polygon fill="midnightblue" stroke="midnightblue" points="516.182,-374.672 526.458,-372.096 516.818,-367.701 516.182,-374.672"/>
</g>
<!-- Node11 -->
<g id="node11" class="node"><title>Node11</title>
<g id="a_node11"><a xlink:href="../../d0/d7f/classengine_1_1game_object_1_1_game_object.html#acdb2cff95ddb4ab047d24c7edd046817" target="_top" xlink:title="engine.gameObject.GameObject.get\lRotation">
<polygon fill="white" stroke="black" points="529,-322 529,-352 721,-352 721,-322 529,-322"/>
<text text-anchor="start" x="537" y="-340" font-family="Helvetica,sans-Serif" font-size="10.00">engine.gameObject.GameObject.get</text>
<text text-anchor="middle" x="625" y="-329" font-family="Helvetica,sans-Serif" font-size="10.00">Rotation</text>
</a>
</g>
</g>
<!-- Node2&#45;&gt;Node11 -->
<g id="edge10" class="edge"><title>Node2&#45;&gt;Node11</title>
<path fill="none" stroke="midnightblue" d="M489.759,-349.254C499.282,-348.385 508.922,-347.505 518.435,-346.637"/>
<polygon fill="midnightblue" stroke="midnightblue" points="519.057,-350.095 528.697,-345.7 518.42,-343.124 519.057,-350.095"/>
</g>
<!-- Node12 -->
<g id="node12" class="node"><title>Node12</title>
<g id="a_node12"><a xlink:href="../../d0/d7f/classengine_1_1game_object_1_1_game_object.html#a60c5b6933aac9969491a3562a963c043" target="_top" xlink:title="engine.gameObject.GameObject.get\lPhysicsBody">
<polygon fill="white" stroke="black" points="529,-273 529,-303 721,-303 721,-273 529,-273"/>
<text text-anchor="start" x="537" y="-291" font-family="Helvetica,sans-Serif" font-size="10.00">engine.gameObject.GameObject.get</text>
<text text-anchor="middle" x="625" y="-280" font-family="Helvetica,sans-Serif" font-size="10.00">PhysicsBody</text>
</a>
</g>
</g>
<!-- Node2&#45;&gt;Node12 -->
<g id="edge11" class="edge"><title>Node2&#45;&gt;Node12</title>
<path fill="none" stroke="midnightblue" d="M427.23,-343.997C455.375,-334.643 492.67,-322.602 526,-313 534.674,-310.501 543.815,-307.998 552.888,-305.593"/>
<polygon fill="midnightblue" stroke="midnightblue" points="553.893,-308.947 562.679,-303.026 552.118,-302.176 553.893,-308.947"/>
</g>
<!-- Node13 -->
<g id="node13" class="node"><title>Node13</title>
<g id="a_node13"><a xlink:href="../../d9/d9d/classengine_1_1game_object_1_1components_1_1_physics_body.html#a65baef953a922146f81d923aff4ae8cf" target="_top" xlink:title="engine.gameObject.components.\lPhysicsBody.getVelocity">
<polygon fill="white" stroke="black" points="537,-224 537,-254 713,-254 713,-224 537,-224"/>
<text text-anchor="start" x="545" y="-242" font-family="Helvetica,sans-Serif" font-size="10.00">engine.gameObject.components.</text>
<text text-anchor="middle" x="625" y="-231" font-family="Helvetica,sans-Serif" font-size="10.00">PhysicsBody.getVelocity</text>
</a>
</g>
</g>
<!-- Node2&#45;&gt;Node13 -->
<g id="edge12" class="edge"><title>Node2&#45;&gt;Node13</title>
<path fill="none" stroke="midnightblue" d="M401.233,-343.915C427.32,-323.055 477.516,-285.54 526,-264 531.634,-261.497 537.566,-259.21 543.608,-257.128"/>
<polygon fill="midnightblue" stroke="midnightblue" points="544.738,-260.441 553.166,-254.021 542.574,-253.784 544.738,-260.441"/>
</g>
<!-- Node14 -->
<g id="node14" class="node"><title>Node14</title>
<g id="a_node14"><a xlink:href="../../d5/d1f/classengine_1_1physics_1_1_vector.html#a1bc7c00d836a738d45eb584223973dec" target="_top" xlink:title="engine.physics.Vector.getX">
<polygon fill="white" stroke="black" points="552.5,-185.5 552.5,-204.5 697.5,-204.5 697.5,-185.5 552.5,-185.5"/>
<text text-anchor="middle" x="625" y="-192.5" font-family="Helvetica,sans-Serif" font-size="10.00">engine.physics.Vector.getX</text>
</a>
</g>
</g>
<!-- Node2&#45;&gt;Node14 -->
<g id="edge13" class="edge"><title>Node2&#45;&gt;Node14</title>
<path fill="none" stroke="midnightblue" d="M393.191,-343.928C414.219,-314.107 465.546,-247.643 526,-215 531.237,-212.172 536.828,-209.743 542.585,-207.657"/>
<polygon fill="midnightblue" stroke="midnightblue" points="543.973,-210.886 552.396,-204.459 541.804,-204.23 543.973,-210.886"/>
</g>
<!-- Node15 -->
<g id="node15" class="node"><title>Node15</title>
<g id="a_node15"><a xlink:href="../../d5/d1f/classengine_1_1physics_1_1_vector.html#a6f71261863fa29e27f1b3f1051529321" target="_top" xlink:title="engine.physics.Vector.getY">
<polygon fill="white" stroke="black" points="553,-147.5 553,-166.5 697,-166.5 697,-147.5 553,-147.5"/>
<text text-anchor="middle" x="625" y="-154.5" font-family="Helvetica,sans-Serif" font-size="10.00">engine.physics.Vector.getY</text>
</a>
</g>
</g>
<!-- Node2&#45;&gt;Node15 -->
<g id="edge14" class="edge"><title>Node2&#45;&gt;Node15</title>
<path fill="none" stroke="midnightblue" d="M390.003,-343.95C407.421,-308.327 456.371,-218.642 526,-176 531.383,-172.703 537.218,-169.96 543.267,-167.68"/>
<polygon fill="midnightblue" stroke="midnightblue" points="544.535,-170.947 552.916,-164.464 542.322,-164.306 544.535,-170.947"/>
</g>
<!-- Node16 -->
<g id="node16" class="node"><title>Node16</title>
<g id="a_node16"><a xlink:href="../../d9/d9d/classengine_1_1game_object_1_1components_1_1_physics_body.html#ae282c9fc52683cc7b976cf4a57129573" target="_top" xlink:title="engine.gameObject.components.\lPhysicsBody.getScalar">
<polygon fill="white" stroke="black" points="537,-98 537,-128 713,-128 713,-98 537,-98"/>
<text text-anchor="start" x="545" y="-116" font-family="Helvetica,sans-Serif" font-size="10.00">engine.gameObject.components.</text>
<text text-anchor="middle" x="625" y="-105" font-family="Helvetica,sans-Serif" font-size="10.00">PhysicsBody.getScalar</text>
</a>
</g>
</g>
<!-- Node2&#45;&gt;Node16 -->
<g id="edge15" class="edge"><title>Node2&#45;&gt;Node16</title>
<path fill="none" stroke="midnightblue" d="M388.268,-343.877C403.096,-303.629 449.181,-193.206 526,-138 528.709,-136.053 531.556,-134.257 534.505,-132.601"/>
<polygon fill="midnightblue" stroke="midnightblue" points="536.246,-135.644 543.624,-128.04 533.115,-129.383 536.246,-135.644"/>
</g>
<!-- Node17 -->
<g id="node17" class="node"><title>Node17</title>
<g id="a_node17"><a xlink:href="../../d0/de5/classengine_1_1physics_1_1_scalar.html#a676fb6b37fae2e642fcdec1109b4b233" target="_top" xlink:title="engine.physics.Scalar.get\lValue">
<polygon fill="white" stroke="black" points="556,-49 556,-79 694,-79 694,-49 556,-49"/>
<text text-anchor="start" x="564" y="-67" font-family="Helvetica,sans-Serif" font-size="10.00">engine.physics.Scalar.get</text>
<text text-anchor="middle" x="625" y="-56" font-family="Helvetica,sans-Serif" font-size="10.00">Value</text>
</a>
</g>
</g>
<!-- Node2&#45;&gt;Node17 -->
<g id="edge16" class="edge"><title>Node2&#45;&gt;Node17</title>
<path fill="none" stroke="midnightblue" d="M386.389,-343.977C397.555,-298.07 437.631,-158.545 526,-89 532.161,-84.1516 539.153,-80.234 546.501,-77.0699"/>
<polygon fill="midnightblue" stroke="midnightblue" points="547.871,-80.2932 555.961,-73.4518 545.37,-73.7551 547.871,-80.2932"/>
</g>
<!-- Node18 -->
<g id="node18" class="node"><title>Node18</title>
<g id="a_node18"><a xlink:href="../../da/d8d/classauthoring_1_1view_1_1propertiesview_1_1_game_object_properties.html#a62464dfc4508ccf9e2ad396bda926d34" target="_top" xlink:title="authoring.view.propertiesview.\lGameObjectProperties.saveAsNew">
<polygon fill="white" stroke="black" points="533.5,-0 533.5,-30 716.5,-30 716.5,-0 533.5,-0"/>
<text text-anchor="start" x="541.5" y="-18" font-family="Helvetica,sans-Serif" font-size="10.00">authoring.view.propertiesview.</text>
<text text-anchor="middle" x="625" y="-7" font-family="Helvetica,sans-Serif" font-size="10.00">GameObjectProperties.saveAsNew</text>
</a>
</g>
</g>
<!-- Node2&#45;&gt;Node18 -->
<g id="edge17" class="edge"><title>Node2&#45;&gt;Node18</title>
<path fill="none" stroke="midnightblue" d="M385.091,-343.897C393.004,-292.697 425.93,-124.216 526,-40 527.998,-38.3182 530.095,-36.7475 532.273,-35.2806"/>
<polygon fill="midnightblue" stroke="midnightblue" points="534.191,-38.2126 541.032,-30.1219 530.639,-32.181 534.191,-38.2126"/>
</g>
</g>
</svg>
        <g id="navigator" transform="translate(0 0)" fill="#404254">
                <rect fill="#f2f5e9" fill-opacity="0.5" stroke="#606060" stroke-width=".5" x="0" y="0" width="60" height="60"/>
                <use id="zoomplus" xlink:href="#zoomPlus" x="17" y="9" onmousedown="handleZoom(evt,'in')"/>
                <use id="zoomminus" xlink:href="#zoomMin" x="42" y="9" onmousedown="handleZoom(evt,'out')"/>
                <use id="reset" xlink:href="#resetDef" x="30" y="36" onmousedown="handleReset()"/>
                <g id="arrowUp" xlink:href="#dirArrow" transform="translate(30 24)" onmousedown="handlePan(0,-1)">
                  <use xlink:href="#rim" fill="#404040">
                        <set attributeName="fill" to="#808080" begin="arrowUp.mouseover" end="arrowUp.mouseout"/>
                  </use>
                  <path fill="none" stroke="white" stroke-width="1.5" d="M0,-3.0v7 M-2.5,-0.5L0,-3.0L2.5,-0.5"/>
                </g>
                <g id="arrowRight" xlink:href="#dirArrow" transform="rotate(90) translate(36 -43)" onmousedown="handlePan(1,0)">
                  <use xlink:href="#rim" fill="#404040">
                        <set attributeName="fill" to="#808080" begin="arrowRight.mouseover" end="arrowRight.mouseout"/>
                  </use>
                  <path fill="none" stroke="white" stroke-width="1.5" d="M0,-3.0v7 M-2.5,-0.5L0,-3.0L2.5,-0.5"/>
                </g>
                <g id="arrowDown" xlink:href="#dirArrow" transform="rotate(180) translate(-30 -48)" onmousedown="handlePan(0,1)">
                  <use xlink:href="#rim" fill="#404040">
                        <set attributeName="fill" to="#808080" begin="arrowDown.mouseover" end="arrowDown.mouseout"/>
                  </use>
                  <path fill="none" stroke="white" stroke-width="1.5" d="M0,-3.0v7 M-2.5,-0.5L0,-3.0L2.5,-0.5"/>
                </g>
                <g id="arrowLeft" xlink:href="#dirArrow" transform="rotate(270) translate(-36 17)" onmousedown="handlePan(-1,0)">
                  <use xlink:href="#rim" fill="#404040">
                        <set attributeName="fill" to="#808080" begin="arrowLeft.mouseover" end="arrowLeft.mouseout"/>
                  </use>
                  <path fill="none" stroke="white" stroke-width="1.5" d="M0,-3.0v7 M-2.5,-0.5L0,-3.0L2.5,-0.5"/>
                </g>
        </g>
        <svg viewBox="0 0 15 15" width="100%" height="30px" preserveAspectRatio="xMaxYMin meet">
         <g id="arrow_out" transform="scale(0.3 0.3)">
          <a xlink:href="classauthoring_1_1view_1_1propertiesview_1_1_game_object_properties_a666800a7063c728f47a848ab730362d3_cgraph_org.svg" target="_base">
           <rect id="button" ry="5" rx="5" y="6" x="6" height="38" width="38"
                fill="#f2f5e9" fill-opacity="0.5" stroke="#606060" stroke-width="1.0"/>
           <path id="arrow"
             d="M 11.500037,31.436501 C 11.940474,20.09759 22.043105,11.32322 32.158766,21.979434 L 37.068811,17.246167 C 37.068811,17.246167 37.088388,32 37.088388,32 L 22.160133,31.978069 C 22.160133,31.978069 26.997745,27.140456 26.997745,27.140456 C 18.528582,18.264221 13.291696,25.230495 11.500037,31.436501 z"
             style="fill:#404040;"/>
          </a>
         </g>
        </svg>
</svg>
