<?xml version="1.0" encoding="UTF-8" standalone="no"?>
<!DOCTYPE svg PUBLIC "-//W3C//DTD SVG 1.1//EN"
 "http://www.w3.org/Graphics/SVG/1.1/DTD/svg11.dtd">
<!-- Generated by graphviz version 2.36.0 (20140111.2315)
 -->
<!-- Title: engine.conditions.ButtonReleaseCondition.frameElapsed Pages: 1 -->
<svg width="812pt" height="136pt"
 viewBox="0.00 0.00 812.00 136.00" xmlns="http://www.w3.org/2000/svg" xmlns:xlink="http://www.w3.org/1999/xlink">
<g id="graph0" class="graph" transform="scale(1 1) rotate(0) translate(4 132)">
<title>engine.conditions.ButtonReleaseCondition.frameElapsed</title>
<polygon fill="white" stroke="none" points="-4,4 -4,-132 808,-132 808,4 -4,4"/>
<!-- Node1 -->
<g id="node1" class="node"><title>Node1</title>
<polygon fill="#bfbfbf" stroke="black" points="0.5,-49 0.5,-79 167.5,-79 167.5,-49 0.5,-49"/>
<text text-anchor="start" x="8.5" y="-67" font-family="Helvetica,sans-Serif" font-size="10.00">engine.conditions.Button</text>
<text text-anchor="middle" x="84" y="-56" font-family="Helvetica,sans-Serif" font-size="10.00">ReleaseCondition.frameElapsed</text>
</g>
<!-- Node2 -->
<g id="node2" class="node"><title>Node2</title>
<g id="a_node2"><a xlink:href="../../d5/df0/classengine_1_1conditions_1_1_button_release_condition.html#a87b7f59ff63237d1382841cdc50bd8d0" target="_top" xlink:title="engine.conditions.Button\lReleaseCondition.executeActions">
<polygon fill="white" stroke="black" points="204.5,-49 204.5,-79 379.5,-79 379.5,-49 204.5,-49"/>
<text text-anchor="start" x="212.5" y="-67" font-family="Helvetica,sans-Serif" font-size="10.00">engine.conditions.Button</text>
<text text-anchor="middle" x="292" y="-56" font-family="Helvetica,sans-Serif" font-size="10.00">ReleaseCondition.executeActions</text>
</a>
</g>
</g>
<!-- Node1&#45;&gt;Node2 -->
<g id="edge1" class="edge"><title>Node1&#45;&gt;Node2</title>
<path fill="none" stroke="midnightblue" d="M167.601,-64C176.385,-64 185.374,-64 194.3,-64"/>
<polygon fill="midnightblue" stroke="midnightblue" points="194.337,-67.5001 204.337,-64 194.337,-60.5001 194.337,-67.5001"/>
</g>
<!-- Node3 -->
<g id="node3" class="node"><title>Node3</title>
<g id="a_node3"><a xlink:href="../../d1/d3b/classengine_1_1conditions_1_1_condition.html#a208317469c4d800311a582c46b581290" target="_top" xlink:title="engine.conditions.Condition.get\lActions">
<polygon fill="white" stroke="black" points="416.5,-98 416.5,-128 583.5,-128 583.5,-98 416.5,-98"/>
<text text-anchor="start" x="424.5" y="-116" font-family="Helvetica,sans-Serif" font-size="10.00">engine.conditions.Condition.get</text>
<text text-anchor="middle" x="500" y="-105" font-family="Helvetica,sans-Serif" font-size="10.00">Actions</text>
</a>
</g>
</g>
<!-- Node2&#45;&gt;Node3 -->
<g id="edge2" class="edge"><title>Node2&#45;&gt;Node3</title>
<path fill="none" stroke="midnightblue" d="M356.207,-79.0346C378.254,-84.2789 403.176,-90.2069 425.956,-95.6255"/>
<polygon fill="midnightblue" stroke="midnightblue" points="425.374,-99.0847 435.913,-97.9938 426.994,-92.2747 425.374,-99.0847"/>
</g>
<!-- Node4 -->
<g id="node4" class="node"><title>Node4</title>
<g id="a_node4"><a xlink:href="../../d9/d10/classengine_1_1conditions_1_1_button_condition_manager.html#acf0bbdb37a1c9d9cdfa827f114a50766" target="_top" xlink:title="engine.conditions.Button\lConditionManager.getInstance">
<polygon fill="white" stroke="black" points="419,-49 419,-79 581,-79 581,-49 419,-49"/>
<text text-anchor="start" x="427" y="-67" font-family="Helvetica,sans-Serif" font-size="10.00">engine.conditions.Button</text>
<text text-anchor="middle" x="500" y="-56" font-family="Helvetica,sans-Serif" font-size="10.00">ConditionManager.getInstance</text>
</a>
</g>
</g>
<!-- Node2&#45;&gt;Node4 -->
<g id="edge3" class="edge"><title>Node2&#45;&gt;Node4</title>
<path fill="none" stroke="midnightblue" d="M379.765,-64C389.395,-64 399.219,-64 408.89,-64"/>
<polygon fill="midnightblue" stroke="midnightblue" points="408.897,-67.5001 418.897,-64 408.897,-60.5001 408.897,-67.5001"/>
</g>
<!-- Node6 -->
<g id="node6" class="node"><title>Node6</title>
<g id="a_node6"><a xlink:href="../../d9/d10/classengine_1_1conditions_1_1_button_condition_manager.html#a9db10a2cda8e6fe1ae31252c98f9f6e2" target="_top" xlink:title="engine.conditions.Button\lConditionManager.keyIsActive">
<polygon fill="white" stroke="black" points="420.5,-0 420.5,-30 579.5,-30 579.5,-0 420.5,-0"/>
<text text-anchor="start" x="428.5" y="-18" font-family="Helvetica,sans-Serif" font-size="10.00">engine.conditions.Button</text>
<text text-anchor="middle" x="500" y="-7" font-family="Helvetica,sans-Serif" font-size="10.00">ConditionManager.keyIsActive</text>
</a>
</g>
</g>
<!-- Node2&#45;&gt;Node6 -->
<g id="edge5" class="edge"><title>Node2&#45;&gt;Node6</title>
<path fill="none" stroke="midnightblue" d="M356.207,-48.9654C378.254,-43.7211 403.176,-37.7931 425.956,-32.3745"/>
<polygon fill="midnightblue" stroke="midnightblue" points="426.994,-35.7253 435.913,-30.0062 425.374,-28.9153 426.994,-35.7253"/>
</g>
<!-- Node5 -->
<g id="node5" class="node"><title>Node5</title>
<g id="a_node5"><a xlink:href="../../d9/d10/classengine_1_1conditions_1_1_button_condition_manager.html#ae9501a9a4b3fbc32cd49920845a49bef" target="_top" xlink:title="engine.conditions.Button\lConditionManager.ButtonCondition\lManager">
<polygon fill="white" stroke="black" points="620.5,-43.5 620.5,-84.5 803.5,-84.5 803.5,-43.5 620.5,-43.5"/>
<text text-anchor="start" x="628.5" y="-72.5" font-family="Helvetica,sans-Serif" font-size="10.00">engine.conditions.Button</text>
<text text-anchor="start" x="628.5" y="-61.5" font-family="Helvetica,sans-Serif" font-size="10.00">ConditionManager.ButtonCondition</text>
<text text-anchor="middle" x="712" y="-50.5" font-family="Helvetica,sans-Serif" font-size="10.00">Manager</text>
</a>
</g>
</g>
<!-- Node4&#45;&gt;Node5 -->
<g id="edge4" class="edge"><title>Node4&#45;&gt;Node5</title>
<path fill="none" stroke="midnightblue" d="M581.291,-64C590.744,-64 600.48,-64 610.169,-64"/>
<polygon fill="midnightblue" stroke="midnightblue" points="610.235,-67.5001 620.235,-64 610.235,-60.5001 610.235,-67.5001"/>
</g>
</g>
</svg>
