<?xml version="1.0" encoding="UTF-8" standalone="no"?>
<!DOCTYPE svg PUBLIC "-//W3C//DTD SVG 1.1//EN"
 "http://www.w3.org/Graphics/SVG/1.1/DTD/svg11.dtd">
<!-- Generated by graphviz version 2.36.0 (20140111.2315)
 -->
<!-- Title: engine.actions.TypeAction Pages: 1 -->
<!--zoomable 209 -->
<svg id="main" version="1.1" xmlns="http://www.w3.org/2000/svg" xmlns:xlink="http://www.w3.org/1999/xlink" xml:space="preserve" onload="init(evt)">
<style type="text/css"><![CDATA[
.edge:hover path { stroke: red; }
.edge:hover polygon { stroke: red; fill: red; }
]]></style>
<script type="text/javascript"><![CDATA[
var edges = document.getElementsByTagName('g');
if (edges && edges.length) {
  for (var i=0;i<edges.length;i++) {
    if (edges[i].id.substr(0,4)=='edge') {
      edges[i].setAttribute('class','edge');
    }
  }
}
]]></script>
        <defs>
                <circle id="rim" cx="0" cy="0" r="7"/>
                <circle id="rim2" cx="0" cy="0" r="3.5"/>
                <g id="zoomPlus">
                        <use xlink:href="#rim" fill="#404040">
                                <set attributeName="fill" to="#808080" begin="zoomplus.mouseover" end="zoomplus.mouseout"/>
                        </use>
                        <path d="M-4,0h8M0,-4v8" fill="none" stroke="white" stroke-width="1.5" pointer-events="none"/>
                </g>
                <g id="zoomMin">
                        <use xlink:href="#rim" fill="#404040">
                                <set attributeName="fill" to="#808080" begin="zoomminus.mouseover" end="zoomminus.mouseout"/>
                        </use>
                        <path d="M-4,0h8" fill="none" stroke="white" stroke-width="1.5" pointer-events="none"/>
                </g>
                <g id="dirArrow">
                        <path fill="none" stroke="white" stroke-width="1.5" d="M0,-3.0v7 M-2.5,-0.5L0,-3.0L2.5,-0.5"/>
                </g>
               <g id="resetDef">
                       <use xlink:href="#rim2" fill="#404040">
                               <set attributeName="fill" to="#808080" begin="reset.mouseover" end="reset.mouseout"/>
                       </use>
               </g>
        </defs>

<script type="text/javascript">
var viewWidth = 862;
var viewHeight = 209;
var sectionId = 'dynsection-0';
</script>
<script xlink:href="../../svgpan.js"/>
<svg id="graph" class="graph">
<g id="viewport">
<title>engine.actions.TypeAction</title>
<polygon fill="white" stroke="none" points="-4,4 -4,-205 858,-205 858,4 -4,4"/>
<!-- Node1 -->
<g id="node1" class="node"><title>Node1</title>
<polygon fill="#bfbfbf" stroke="black" points="334,-102.5 334,-121.5 474,-121.5 474,-102.5 334,-102.5"/>
<text text-anchor="middle" x="404" y="-109.5" font-family="Helvetica,sans-Serif" font-size="10.00">engine.actions.TypeAction</text>
</g>
<!-- Node4 -->
<g id="node4" class="node"><title>Node4</title>
<g id="a_node4"><a xlink:href="../../da/d60/classengine_1_1actions_1_1_delete_type_action.html" target="_top" xlink:title="engine.actions.DeleteType\lAction">
<polygon fill="white" stroke="black" points="527,-171 527,-201 669,-201 669,-171 527,-171"/>
<text text-anchor="start" x="535" y="-189" font-family="Helvetica,sans-Serif" font-size="10.00">engine.actions.DeleteType</text>
<text text-anchor="middle" x="598" y="-178" font-family="Helvetica,sans-Serif" font-size="10.00">Action</text>
</a>
</g>
</g>
<!-- Node1&#45;&gt;Node4 -->
<g id="edge4" class="edge"><title>Node1&#45;&gt;Node4</title>
<path fill="none" stroke="midnightblue" d="M432.15,-126.108C453.059,-136.619 482.88,-150.847 510,-161 519.567,-164.581 529.884,-167.956 539.954,-170.998"/>
<polygon fill="midnightblue" stroke="midnightblue" points="433.713,-122.977 423.212,-121.569 430.543,-129.218 433.713,-122.977"/>
</g>
<!-- Node5 -->
<g id="node5" class="node"><title>Node5</title>
<g id="a_node5"><a xlink:href="../../db/db5/classengine_1_1actions_1_1render_1_1_change_image_type_action.html" target="_top" xlink:title="engine.actions.render.Change\lImageTypeAction">
<polygon fill="white" stroke="black" points="518,-122 518,-152 678,-152 678,-122 518,-122"/>
<text text-anchor="start" x="526" y="-140" font-family="Helvetica,sans-Serif" font-size="10.00">engine.actions.render.Change</text>
<text text-anchor="middle" x="598" y="-129" font-family="Helvetica,sans-Serif" font-size="10.00">ImageTypeAction</text>
</a>
</g>
</g>
<!-- Node1&#45;&gt;Node5 -->
<g id="edge5" class="edge"><title>Node1&#45;&gt;Node5</title>
<path fill="none" stroke="midnightblue" d="M484.146,-122.306C495.26,-123.753 506.685,-125.24 517.8,-126.687"/>
<polygon fill="midnightblue" stroke="midnightblue" points="484.413,-118.811 474.045,-120.99 483.509,-125.752 484.413,-118.811"/>
</g>
<!-- Node6 -->
<g id="node6" class="node"><title>Node6</title>
<g id="a_node6"><a xlink:href="../../d6/d0d/classengine_1_1actions_1_1_switch_component_boolean_action.html" target="_top" xlink:title="engine.actions.SwitchComponent\lBooleanAction">
<polygon fill="white" stroke="black" points="510,-73 510,-103 686,-103 686,-73 510,-73"/>
<text text-anchor="start" x="518" y="-91" font-family="Helvetica,sans-Serif" font-size="10.00">engine.actions.SwitchComponent</text>
<text text-anchor="middle" x="598" y="-80" font-family="Helvetica,sans-Serif" font-size="10.00">BooleanAction</text>
</a>
</g>
</g>
<!-- Node1&#45;&gt;Node6 -->
<g id="edge6" class="edge"><title>Node1&#45;&gt;Node6</title>
<path fill="none" stroke="midnightblue" d="M484.239,-102.095C492.684,-101.039 501.308,-99.9615 509.837,-98.8953"/>
<polygon fill="midnightblue" stroke="midnightblue" points="483.534,-98.656 474.045,-103.369 484.402,-105.602 483.534,-98.656"/>
</g>
<!-- Node7 -->
<g id="node7" class="node"><title>Node7</title>
<g id="a_node7"><a xlink:href="../../d9/d3b/classengine_1_1actions_1_1_velocity_type_action.html" target="_top" xlink:title="engine.actions.VelocityType\lAction">
<polygon fill="white" stroke="black" points="524.5,-24 524.5,-54 671.5,-54 671.5,-24 524.5,-24"/>
<text text-anchor="start" x="532.5" y="-42" font-family="Helvetica,sans-Serif" font-size="10.00">engine.actions.VelocityType</text>
<text text-anchor="middle" x="598" y="-31" font-family="Helvetica,sans-Serif" font-size="10.00">Action</text>
</a>
</g>
</g>
<!-- Node1&#45;&gt;Node7 -->
<g id="edge7" class="edge"><title>Node1&#45;&gt;Node7</title>
<path fill="none" stroke="midnightblue" d="M432.119,-97.8084C453.012,-87.2549 482.826,-73.0085 510,-63 518.675,-59.805 527.972,-56.8079 537.144,-54.0872"/>
<polygon fill="midnightblue" stroke="midnightblue" points="430.503,-94.7037 423.189,-102.369 433.687,-100.938 430.503,-94.7037"/>
</g>
<!-- Node2 -->
<g id="node2" class="node"><title>Node2</title>
<g id="a_node2"><a xlink:href="../../d9/dd2/interfaceengine_1_1actions_1_1_action.html" target="_top" xlink:title="engine.actions.Action">
<polygon fill="white" stroke="black" points="178.5,-83.5 178.5,-102.5 297.5,-102.5 297.5,-83.5 178.5,-83.5"/>
<text text-anchor="middle" x="238" y="-90.5" font-family="Helvetica,sans-Serif" font-size="10.00">engine.actions.Action</text>
</a>
</g>
</g>
<!-- Node2&#45;&gt;Node1 -->
<g id="edge1" class="edge"><title>Node2&#45;&gt;Node1</title>
<path fill="none" stroke="midnightblue" d="M307.732,-100.963C316.339,-101.96 325.146,-102.98 333.76,-103.978"/>
<polygon fill="midnightblue" stroke="midnightblue" points="308.081,-97.48 297.745,-99.8058 307.275,-104.433 308.081,-97.48"/>
</g>
<!-- Node3 -->
<g id="node3" class="node"><title>Node3</title>
<g id="a_node3"><a xlink:href="../../d2/d15/interfaceengine_1_1actions_1_1_initializable.html" target="_top" xlink:title="engine.actions.Initializable">
<polygon fill="white" stroke="black" points="0,-102.5 0,-121.5 142,-121.5 142,-102.5 0,-102.5"/>
<text text-anchor="middle" x="71" y="-109.5" font-family="Helvetica,sans-Serif" font-size="10.00">engine.actions.Initializable</text>
</a>
</g>
</g>
<!-- Node3&#45;&gt;Node1 -->
<g id="edge3" class="edge"><title>Node3&#45;&gt;Node1</title>
<path fill="none" stroke="midnightblue" d="M152.343,-112C207.821,-112 280.848,-112 333.756,-112"/>
<polygon fill="midnightblue" stroke="midnightblue" points="152.197,-108.5 142.197,-112 152.197,-115.5 152.197,-108.5"/>
</g>
<!-- Node3&#45;&gt;Node2 -->
<g id="edge2" class="edge"><title>Node3&#45;&gt;Node2</title>
<path fill="none" stroke="midnightblue" d="M152.638,-102.714C161.344,-101.712 170.077,-100.706 178.451,-99.742"/>
<polygon fill="midnightblue" stroke="midnightblue" points="151.987,-99.2661 142.453,-103.887 152.788,-106.22 151.987,-99.2661"/>
</g>
<!-- Node8 -->
<g id="node8" class="node"><title>Node8</title>
<g id="a_node8"><a xlink:href="../../de/d56/classengine_1_1actions_1_1_x_velocity_type_action.html" target="_top" xlink:title="engine.actions.XVelocity\lTypeAction">
<polygon fill="white" stroke="black" points="722,-49 722,-79 854,-79 854,-49 722,-49"/>
<text text-anchor="start" x="730" y="-67" font-family="Helvetica,sans-Serif" font-size="10.00">engine.actions.XVelocity</text>
<text text-anchor="middle" x="788" y="-56" font-family="Helvetica,sans-Serif" font-size="10.00">TypeAction</text>
</a>
</g>
</g>
<!-- Node7&#45;&gt;Node8 -->
<g id="edge8" class="edge"><title>Node7&#45;&gt;Node8</title>
<path fill="none" stroke="midnightblue" d="M681.857,-50.0182C695.259,-51.8004 708.968,-53.6234 721.873,-55.3395"/>
<polygon fill="midnightblue" stroke="midnightblue" points="682.06,-46.5145 671.686,-48.6657 681.137,-53.4534 682.06,-46.5145"/>
</g>
<!-- Node9 -->
<g id="node9" class="node"><title>Node9</title>
<g id="a_node9"><a xlink:href="../../d8/d23/classengine_1_1actions_1_1_y_velocity_type_action.html" target="_top" xlink:title="engine.actions.YVelocity\lTypeAction">
<polygon fill="white" stroke="black" points="722.5,-0 722.5,-30 853.5,-30 853.5,-0 722.5,-0"/>
<text text-anchor="start" x="730.5" y="-18" font-family="Helvetica,sans-Serif" font-size="10.00">engine.actions.YVelocity</text>
<text text-anchor="middle" x="788" y="-7" font-family="Helvetica,sans-Serif" font-size="10.00">TypeAction</text>
</a>
</g>
</g>
<!-- Node7&#45;&gt;Node9 -->
<g id="edge9" class="edge"><title>Node7&#45;&gt;Node9</title>
<path fill="none" stroke="midnightblue" d="M681.985,-28.4062C695.557,-26.6736 709.439,-24.9014 722.48,-23.2366"/>
<polygon fill="midnightblue" stroke="midnightblue" points="681.162,-24.9827 671.686,-29.721 682.048,-31.9264 681.162,-24.9827"/>
</g>
</g>
</svg>
        <g id="navigator" transform="translate(0 0)" fill="#404254">
                <rect fill="#f2f5e9" fill-opacity="0.5" stroke="#606060" stroke-width=".5" x="0" y="0" width="60" height="60"/>
                <use id="zoomplus" xlink:href="#zoomPlus" x="17" y="9" onmousedown="handleZoom(evt,'in')"/>
                <use id="zoomminus" xlink:href="#zoomMin" x="42" y="9" onmousedown="handleZoom(evt,'out')"/>
                <use id="reset" xlink:href="#resetDef" x="30" y="36" onmousedown="handleReset()"/>
                <g id="arrowUp" xlink:href="#dirArrow" transform="translate(30 24)" onmousedown="handlePan(0,-1)">
                  <use xlink:href="#rim" fill="#404040">
                        <set attributeName="fill" to="#808080" begin="arrowUp.mouseover" end="arrowUp.mouseout"/>
                  </use>
                  <path fill="none" stroke="white" stroke-width="1.5" d="M0,-3.0v7 M-2.5,-0.5L0,-3.0L2.5,-0.5"/>
                </g>
                <g id="arrowRight" xlink:href="#dirArrow" transform="rotate(90) translate(36 -43)" onmousedown="handlePan(1,0)">
                  <use xlink:href="#rim" fill="#404040">
                        <set attributeName="fill" to="#808080" begin="arrowRight.mouseover" end="arrowRight.mouseout"/>
                  </use>
                  <path fill="none" stroke="white" stroke-width="1.5" d="M0,-3.0v7 M-2.5,-0.5L0,-3.0L2.5,-0.5"/>
                </g>
                <g id="arrowDown" xlink:href="#dirArrow" transform="rotate(180) translate(-30 -48)" onmousedown="handlePan(0,1)">
                  <use xlink:href="#rim" fill="#404040">
                        <set attributeName="fill" to="#808080" begin="arrowDown.mouseover" end="arrowDown.mouseout"/>
                  </use>
                  <path fill="none" stroke="white" stroke-width="1.5" d="M0,-3.0v7 M-2.5,-0.5L0,-3.0L2.5,-0.5"/>
                </g>
                <g id="arrowLeft" xlink:href="#dirArrow" transform="rotate(270) translate(-36 17)" onmousedown="handlePan(-1,0)">
                  <use xlink:href="#rim" fill="#404040">
                        <set attributeName="fill" to="#808080" begin="arrowLeft.mouseover" end="arrowLeft.mouseout"/>
                  </use>
                  <path fill="none" stroke="white" stroke-width="1.5" d="M0,-3.0v7 M-2.5,-0.5L0,-3.0L2.5,-0.5"/>
                </g>
        </g>
        <svg viewBox="0 0 15 15" width="100%" height="30px" preserveAspectRatio="xMaxYMin meet">
         <g id="arrow_out" transform="scale(0.3 0.3)">
          <a xlink:href="classengine_1_1actions_1_1_type_action__inherit__graph_org.svg" target="_base">
           <rect id="button" ry="5" rx="5" y="6" x="6" height="38" width="38"
                fill="#f2f5e9" fill-opacity="0.5" stroke="#606060" stroke-width="1.0"/>
           <path id="arrow"
             d="M 11.500037,31.436501 C 11.940474,20.09759 22.043105,11.32322 32.158766,21.979434 L 37.068811,17.246167 C 37.068811,17.246167 37.088388,32 37.088388,32 L 22.160133,31.978069 C 22.160133,31.978069 26.997745,27.140456 26.997745,27.140456 C 18.528582,18.264221 13.291696,25.230495 11.500037,31.436501 z"
             style="fill:#404040;"/>
          </a>
         </g>
        </svg>
</svg>
