<?xml version="1.0" encoding="UTF-8" standalone="no"?>
<!DOCTYPE svg PUBLIC "-//W3C//DTD SVG 1.1//EN"
 "http://www.w3.org/Graphics/SVG/1.1/DTD/svg11.dtd">
<!-- Generated by graphviz version 2.36.0 (20140111.2315)
 -->
<!-- Title: engine.actions.TypeAction Pages: 1 -->
<!--zoomable 258 -->
<svg id="main" version="1.1" xmlns="http://www.w3.org/2000/svg" xmlns:xlink="http://www.w3.org/1999/xlink" xml:space="preserve" onload="init(evt)">
<style type="text/css"><![CDATA[
.edge:hover path { stroke: red; }
.edge:hover polygon { stroke: red; fill: red; }
]]></style>
<script type="text/javascript"><![CDATA[
var edges = document.getElementsByTagName('g');
if (edges && edges.length) {
  for (var i=0;i<edges.length;i++) {
    if (edges[i].id.substr(0,4)=='edge') {
      edges[i].setAttribute('class','edge');
    }
  }
}
]]></script>
        <defs>
                <circle id="rim" cx="0" cy="0" r="7"/>
                <circle id="rim2" cx="0" cy="0" r="3.5"/>
                <g id="zoomPlus">
                        <use xlink:href="#rim" fill="#404040">
                                <set attributeName="fill" to="#808080" begin="zoomplus.mouseover" end="zoomplus.mouseout"/>
                        </use>
                        <path d="M-4,0h8M0,-4v8" fill="none" stroke="white" stroke-width="1.5" pointer-events="none"/>
                </g>
                <g id="zoomMin">
                        <use xlink:href="#rim" fill="#404040">
                                <set attributeName="fill" to="#808080" begin="zoomminus.mouseover" end="zoomminus.mouseout"/>
                        </use>
                        <path d="M-4,0h8" fill="none" stroke="white" stroke-width="1.5" pointer-events="none"/>
                </g>
                <g id="dirArrow">
                        <path fill="none" stroke="white" stroke-width="1.5" d="M0,-3.0v7 M-2.5,-0.5L0,-3.0L2.5,-0.5"/>
                </g>
               <g id="resetDef">
                       <use xlink:href="#rim2" fill="#404040">
                               <set attributeName="fill" to="#808080" begin="reset.mouseover" end="reset.mouseout"/>
                       </use>
               </g>
        </defs>

<script type="text/javascript">
var viewWidth = 862;
var viewHeight = 258;
var sectionId = 'dynsection-0';
</script>
<script xlink:href="../../svgpan.js"/>
<svg id="graph" class="graph">
<g id="viewport">
<title>engine.actions.TypeAction</title>
<polygon fill="white" stroke="none" points="-4,4 -4,-254 858,-254 858,4 -4,4"/>
<!-- Node1 -->
<g id="node1" class="node"><title>Node1</title>
<polygon fill="#bfbfbf" stroke="black" points="334,-127.5 334,-146.5 474,-146.5 474,-127.5 334,-127.5"/>
<text text-anchor="middle" x="404" y="-134.5" font-family="Helvetica,sans-Serif" font-size="10.00">engine.actions.TypeAction</text>
</g>
<!-- Node4 -->
<g id="node4" class="node"><title>Node4</title>
<g id="a_node4"><a xlink:href="../../d0/d2e/classengine_1_1actions_1_1_delete_interacting_objects_action.html" target="_top" xlink:title="engine.actions.DeleteInteracting\lObjectsAction">
<polygon fill="white" stroke="black" points="512,-220 512,-250 684,-250 684,-220 512,-220"/>
<text text-anchor="start" x="520" y="-238" font-family="Helvetica,sans-Serif" font-size="10.00">engine.actions.DeleteInteracting</text>
<text text-anchor="middle" x="598" y="-227" font-family="Helvetica,sans-Serif" font-size="10.00">ObjectsAction</text>
</a>
</g>
</g>
<!-- Node1&#45;&gt;Node4 -->
<g id="edge4" class="edge"><title>Node1&#45;&gt;Node4</title>
<path fill="none" stroke="midnightblue" d="M423.981,-153.092C444.148,-169.468 477.54,-194.573 510,-210 517.949,-213.778 526.583,-217.099 535.222,-219.983"/>
<polygon fill="midnightblue" stroke="midnightblue" points="426.13,-150.327 416.189,-146.662 421.675,-155.727 426.13,-150.327"/>
</g>
<!-- Node5 -->
<g id="node5" class="node"><title>Node5</title>
<g id="a_node5"><a xlink:href="../../da/d60/classengine_1_1actions_1_1_delete_type_action.html" target="_top" xlink:title="engine.actions.DeleteType\lAction">
<polygon fill="white" stroke="black" points="527,-171 527,-201 669,-201 669,-171 527,-171"/>
<text text-anchor="start" x="535" y="-189" font-family="Helvetica,sans-Serif" font-size="10.00">engine.actions.DeleteType</text>
<text text-anchor="middle" x="598" y="-178" font-family="Helvetica,sans-Serif" font-size="10.00">Action</text>
</a>
</g>
</g>
<!-- Node1&#45;&gt;Node5 -->
<g id="edge5" class="edge"><title>Node1&#45;&gt;Node5</title>
<path fill="none" stroke="midnightblue" d="M452.419,-149.102C478.305,-155.708 510.589,-163.947 538.08,-170.963"/>
<polygon fill="midnightblue" stroke="midnightblue" points="453.03,-145.646 442.475,-146.564 451.299,-152.428 453.03,-145.646"/>
</g>
<!-- Node6 -->
<g id="node6" class="node"><title>Node6</title>
<g id="a_node6"><a xlink:href="../../db/db5/classengine_1_1actions_1_1render_1_1_change_image_type_action.html" target="_top" xlink:title="engine.actions.render.Change\lImageTypeAction">
<polygon fill="white" stroke="black" points="518,-122 518,-152 678,-152 678,-122 518,-122"/>
<text text-anchor="start" x="526" y="-140" font-family="Helvetica,sans-Serif" font-size="10.00">engine.actions.render.Change</text>
<text text-anchor="middle" x="598" y="-129" font-family="Helvetica,sans-Serif" font-size="10.00">ImageTypeAction</text>
</a>
</g>
</g>
<!-- Node1&#45;&gt;Node6 -->
<g id="edge6" class="edge"><title>Node1&#45;&gt;Node6</title>
<path fill="none" stroke="midnightblue" d="M484.146,-137C495.26,-137 506.685,-137 517.8,-137"/>
<polygon fill="midnightblue" stroke="midnightblue" points="484.045,-133.5 474.045,-137 484.045,-140.5 484.045,-133.5"/>
</g>
<!-- Node7 -->
<g id="node7" class="node"><title>Node7</title>
<g id="a_node7"><a xlink:href="../../d6/d0d/classengine_1_1actions_1_1_switch_component_boolean_action.html" target="_top" xlink:title="engine.actions.SwitchComponent\lBooleanAction">
<polygon fill="white" stroke="black" points="510,-73 510,-103 686,-103 686,-73 510,-73"/>
<text text-anchor="start" x="518" y="-91" font-family="Helvetica,sans-Serif" font-size="10.00">engine.actions.SwitchComponent</text>
<text text-anchor="middle" x="598" y="-80" font-family="Helvetica,sans-Serif" font-size="10.00">BooleanAction</text>
</a>
</g>
</g>
<!-- Node1&#45;&gt;Node7 -->
<g id="edge7" class="edge"><title>Node1&#45;&gt;Node7</title>
<path fill="none" stroke="midnightblue" d="M452.419,-124.898C478.305,-118.292 510.589,-110.053 538.08,-103.037"/>
<polygon fill="midnightblue" stroke="midnightblue" points="451.299,-121.572 442.475,-127.436 453.03,-128.354 451.299,-121.572"/>
</g>
<!-- Node8 -->
<g id="node8" class="node"><title>Node8</title>
<g id="a_node8"><a xlink:href="../../d9/d3b/classengine_1_1actions_1_1_velocity_type_action.html" target="_top" xlink:title="engine.actions.VelocityType\lAction">
<polygon fill="white" stroke="black" points="524.5,-24 524.5,-54 671.5,-54 671.5,-24 524.5,-24"/>
<text text-anchor="start" x="532.5" y="-42" font-family="Helvetica,sans-Serif" font-size="10.00">engine.actions.VelocityType</text>
<text text-anchor="middle" x="598" y="-31" font-family="Helvetica,sans-Serif" font-size="10.00">Action</text>
</a>
</g>
</g>
<!-- Node1&#45;&gt;Node8 -->
<g id="edge8" class="edge"><title>Node1&#45;&gt;Node8</title>
<path fill="none" stroke="midnightblue" d="M423.584,-120.871C443.656,-104.208 477.185,-78.5103 510,-63 517.083,-59.6522 524.718,-56.6966 532.419,-54.1077"/>
<polygon fill="midnightblue" stroke="midnightblue" points="421.23,-118.278 415.847,-127.403 425.746,-123.627 421.23,-118.278"/>
</g>
<!-- Node2 -->
<g id="node2" class="node"><title>Node2</title>
<g id="a_node2"><a xlink:href="../../d9/dd2/interfaceengine_1_1actions_1_1_action.html" target="_top" xlink:title="engine.actions.Action">
<polygon fill="white" stroke="black" points="178.5,-108.5 178.5,-127.5 297.5,-127.5 297.5,-108.5 178.5,-108.5"/>
<text text-anchor="middle" x="238" y="-115.5" font-family="Helvetica,sans-Serif" font-size="10.00">engine.actions.Action</text>
</a>
</g>
</g>
<!-- Node2&#45;&gt;Node1 -->
<g id="edge1" class="edge"><title>Node2&#45;&gt;Node1</title>
<path fill="none" stroke="midnightblue" d="M307.732,-125.963C316.339,-126.96 325.146,-127.98 333.76,-128.978"/>
<polygon fill="midnightblue" stroke="midnightblue" points="308.081,-122.48 297.745,-124.806 307.275,-129.433 308.081,-122.48"/>
</g>
<!-- Node3 -->
<g id="node3" class="node"><title>Node3</title>
<g id="a_node3"><a xlink:href="../../d2/d15/interfaceengine_1_1actions_1_1_initializable.html" target="_top" xlink:title="engine.actions.Initializable">
<polygon fill="white" stroke="black" points="0,-127.5 0,-146.5 142,-146.5 142,-127.5 0,-127.5"/>
<text text-anchor="middle" x="71" y="-134.5" font-family="Helvetica,sans-Serif" font-size="10.00">engine.actions.Initializable</text>
</a>
</g>
</g>
<!-- Node3&#45;&gt;Node1 -->
<g id="edge3" class="edge"><title>Node3&#45;&gt;Node1</title>
<path fill="none" stroke="midnightblue" d="M152.343,-137C207.821,-137 280.848,-137 333.756,-137"/>
<polygon fill="midnightblue" stroke="midnightblue" points="152.197,-133.5 142.197,-137 152.197,-140.5 152.197,-133.5"/>
</g>
<!-- Node3&#45;&gt;Node2 -->
<g id="edge2" class="edge"><title>Node3&#45;&gt;Node2</title>
<path fill="none" stroke="midnightblue" d="M152.638,-127.714C161.344,-126.712 170.077,-125.706 178.451,-124.742"/>
<polygon fill="midnightblue" stroke="midnightblue" points="151.987,-124.266 142.453,-128.887 152.788,-131.22 151.987,-124.266"/>
</g>
<!-- Node9 -->
<g id="node9" class="node"><title>Node9</title>
<g id="a_node9"><a xlink:href="../../de/d56/classengine_1_1actions_1_1_x_velocity_type_action.html" target="_top" xlink:title="engine.actions.XVelocity\lTypeAction">
<polygon fill="white" stroke="black" points="722,-49 722,-79 854,-79 854,-49 722,-49"/>
<text text-anchor="start" x="730" y="-67" font-family="Helvetica,sans-Serif" font-size="10.00">engine.actions.XVelocity</text>
<text text-anchor="middle" x="788" y="-56" font-family="Helvetica,sans-Serif" font-size="10.00">TypeAction</text>
</a>
</g>
</g>
<!-- Node8&#45;&gt;Node9 -->
<g id="edge9" class="edge"><title>Node8&#45;&gt;Node9</title>
<path fill="none" stroke="midnightblue" d="M681.857,-50.0182C695.259,-51.8004 708.968,-53.6234 721.873,-55.3395"/>
<polygon fill="midnightblue" stroke="midnightblue" points="682.06,-46.5145 671.686,-48.6657 681.137,-53.4534 682.06,-46.5145"/>
</g>
<!-- Node10 -->
<g id="node10" class="node"><title>Node10</title>
<g id="a_node10"><a xlink:href="../../d8/d23/classengine_1_1actions_1_1_y_velocity_type_action.html" target="_top" xlink:title="engine.actions.YVelocity\lTypeAction">
<polygon fill="white" stroke="black" points="722.5,-0 722.5,-30 853.5,-30 853.5,-0 722.5,-0"/>
<text text-anchor="start" x="730.5" y="-18" font-family="Helvetica,sans-Serif" font-size="10.00">engine.actions.YVelocity</text>
<text text-anchor="middle" x="788" y="-7" font-family="Helvetica,sans-Serif" font-size="10.00">TypeAction</text>
</a>
</g>
</g>
<!-- Node8&#45;&gt;Node10 -->
<g id="edge10" class="edge"><title>Node8&#45;&gt;Node10</title>
<path fill="none" stroke="midnightblue" d="M681.985,-28.4062C695.557,-26.6736 709.439,-24.9014 722.48,-23.2366"/>
<polygon fill="midnightblue" stroke="midnightblue" points="681.162,-24.9827 671.686,-29.721 682.048,-31.9264 681.162,-24.9827"/>
</g>
</g>
</svg>
        <g id="navigator" transform="translate(0 0)" fill="#404254">
                <rect fill="#f2f5e9" fill-opacity="0.5" stroke="#606060" stroke-width=".5" x="0" y="0" width="60" height="60"/>
                <use id="zoomplus" xlink:href="#zoomPlus" x="17" y="9" onmousedown="handleZoom(evt,'in')"/>
                <use id="zoomminus" xlink:href="#zoomMin" x="42" y="9" onmousedown="handleZoom(evt,'out')"/>
                <use id="reset" xlink:href="#resetDef" x="30" y="36" onmousedown="handleReset()"/>
                <g id="arrowUp" xlink:href="#dirArrow" transform="translate(30 24)" onmousedown="handlePan(0,-1)">
                  <use xlink:href="#rim" fill="#404040">
                        <set attributeName="fill" to="#808080" begin="arrowUp.mouseover" end="arrowUp.mouseout"/>
                  </use>
                  <path fill="none" stroke="white" stroke-width="1.5" d="M0,-3.0v7 M-2.5,-0.5L0,-3.0L2.5,-0.5"/>
                </g>
                <g id="arrowRight" xlink:href="#dirArrow" transform="rotate(90) translate(36 -43)" onmousedown="handlePan(1,0)">
                  <use xlink:href="#rim" fill="#404040">
                        <set attributeName="fill" to="#808080" begin="arrowRight.mouseover" end="arrowRight.mouseout"/>
                  </use>
                  <path fill="none" stroke="white" stroke-width="1.5" d="M0,-3.0v7 M-2.5,-0.5L0,-3.0L2.5,-0.5"/>
                </g>
                <g id="arrowDown" xlink:href="#dirArrow" transform="rotate(180) translate(-30 -48)" onmousedown="handlePan(0,1)">
                  <use xlink:href="#rim" fill="#404040">
                        <set attributeName="fill" to="#808080" begin="arrowDown.mouseover" end="arrowDown.mouseout"/>
                  </use>
                  <path fill="none" stroke="white" stroke-width="1.5" d="M0,-3.0v7 M-2.5,-0.5L0,-3.0L2.5,-0.5"/>
                </g>
                <g id="arrowLeft" xlink:href="#dirArrow" transform="rotate(270) translate(-36 17)" onmousedown="handlePan(-1,0)">
                  <use xlink:href="#rim" fill="#404040">
                        <set attributeName="fill" to="#808080" begin="arrowLeft.mouseover" end="arrowLeft.mouseout"/>
                  </use>
                  <path fill="none" stroke="white" stroke-width="1.5" d="M0,-3.0v7 M-2.5,-0.5L0,-3.0L2.5,-0.5"/>
                </g>
        </g>
        <svg viewBox="0 0 15 15" width="100%" height="30px" preserveAspectRatio="xMaxYMin meet">
         <g id="arrow_out" transform="scale(0.3 0.3)">
          <a xlink:href="classengine_1_1actions_1_1_type_action__inherit__graph_org.svg" target="_base">
           <rect id="button" ry="5" rx="5" y="6" x="6" height="38" width="38"
                fill="#f2f5e9" fill-opacity="0.5" stroke="#606060" stroke-width="1.0"/>
           <path id="arrow"
             d="M 11.500037,31.436501 C 11.940474,20.09759 22.043105,11.32322 32.158766,21.979434 L 37.068811,17.246167 C 37.068811,17.246167 37.088388,32 37.088388,32 L 22.160133,31.978069 C 22.160133,31.978069 26.997745,27.140456 26.997745,27.140456 C 18.528582,18.264221 13.291696,25.230495 11.500037,31.436501 z"
             style="fill:#404040;"/>
          </a>
         </g>
        </svg>
</svg>
