<?xml version="1.0" encoding="UTF-8" standalone="no"?>
<!DOCTYPE svg PUBLIC "-//W3C//DTD SVG 1.1//EN"
 "http://www.w3.org/Graphics/SVG/1.1/DTD/svg11.dtd">
<!-- Generated by graphviz version 2.36.0 (20140111.2315)
 -->
<!-- Title: authoring.model.GameData.getSounds Pages: 1 -->
<!--zoomable 185 -->
<svg id="main" version="1.1" xmlns="http://www.w3.org/2000/svg" xmlns:xlink="http://www.w3.org/1999/xlink" xml:space="preserve" onload="init(evt)">
<style type="text/css"><![CDATA[
.edge:hover path { stroke: red; }
.edge:hover polygon { stroke: red; fill: red; }
]]></style>
<script type="text/javascript"><![CDATA[
var edges = document.getElementsByTagName('g');
if (edges && edges.length) {
  for (var i=0;i<edges.length;i++) {
    if (edges[i].id.substr(0,4)=='edge') {
      edges[i].setAttribute('class','edge');
    }
  }
}
]]></script>
        <defs>
                <circle id="rim" cx="0" cy="0" r="7"/>
                <circle id="rim2" cx="0" cy="0" r="3.5"/>
                <g id="zoomPlus">
                        <use xlink:href="#rim" fill="#404040">
                                <set attributeName="fill" to="#808080" begin="zoomplus.mouseover" end="zoomplus.mouseout"/>
                        </use>
                        <path d="M-4,0h8M0,-4v8" fill="none" stroke="white" stroke-width="1.5" pointer-events="none"/>
                </g>
                <g id="zoomMin">
                        <use xlink:href="#rim" fill="#404040">
                                <set attributeName="fill" to="#808080" begin="zoomminus.mouseover" end="zoomminus.mouseout"/>
                        </use>
                        <path d="M-4,0h8" fill="none" stroke="white" stroke-width="1.5" pointer-events="none"/>
                </g>
                <g id="dirArrow">
                        <path fill="none" stroke="white" stroke-width="1.5" d="M0,-3.0v7 M-2.5,-0.5L0,-3.0L2.5,-0.5"/>
                </g>
               <g id="resetDef">
                       <use xlink:href="#rim2" fill="#404040">
                               <set attributeName="fill" to="#808080" begin="reset.mouseover" end="reset.mouseout"/>
                       </use>
               </g>
        </defs>

<script type="text/javascript">
var viewWidth = 982;
var viewHeight = 185;
var sectionId = 'dynsection-7';
</script>
<script xlink:href="../../svgpan.js"/>
<svg id="graph" class="graph">
<g id="viewport">
<title>authoring.model.GameData.getSounds</title>
<polygon fill="white" stroke="none" points="-4,4 -4,-181 978,-181 978,4 -4,4"/>
<!-- Node1 -->
<g id="node1" class="node"><title>Node1</title>
<polygon fill="#bfbfbf" stroke="black" points="0,-98 0,-128 170,-128 170,-98 0,-98"/>
<text text-anchor="start" x="8" y="-116" font-family="Helvetica,sans-Serif" font-size="10.00">authoring.model.GameData.get</text>
<text text-anchor="middle" x="85" y="-105" font-family="Helvetica,sans-Serif" font-size="10.00">Sounds</text>
</g>
<!-- Node2 -->
<g id="node2" class="node"><title>Node2</title>
<g id="a_node2"><a xlink:href="../../d4/d68/classauthoring_1_1model_1_1_authoring_model.html#a11495359850ef25b7338f7e7ba0554d0" target="_top" xlink:title="authoring.model.Authoring\lModel.convertFromSerializable">
<polygon fill="white" stroke="black" points="206.5,-147 206.5,-177 369.5,-177 369.5,-147 206.5,-147"/>
<text text-anchor="start" x="214.5" y="-165" font-family="Helvetica,sans-Serif" font-size="10.00">authoring.model.Authoring</text>
<text text-anchor="middle" x="288" y="-154" font-family="Helvetica,sans-Serif" font-size="10.00">Model.convertFromSerializable</text>
</a>
</g>
</g>
<!-- Node1&#45;&gt;Node2 -->
<g id="edge1" class="edge"><title>Node1&#45;&gt;Node2</title>
<path fill="none" stroke="midnightblue" d="M157.391,-130.404C179.626,-135.824 203.942,-141.752 225.444,-146.994"/>
<polygon fill="midnightblue" stroke="midnightblue" points="158.217,-127.003 147.673,-128.035 156.559,-133.804 158.217,-127.003"/>
</g>
<!-- Node5 -->
<g id="node5" class="node"><title>Node5</title>
<g id="a_node5"><a xlink:href="../../d4/d68/classauthoring_1_1model_1_1_authoring_model.html#ab3e6b375a2e8fdc73b351fc873ce214e" target="_top" xlink:title="authoring.model.Authoring\lModel.convertToSerializable">
<polygon fill="white" stroke="black" points="213.5,-98 213.5,-128 362.5,-128 362.5,-98 213.5,-98"/>
<text text-anchor="start" x="221.5" y="-116" font-family="Helvetica,sans-Serif" font-size="10.00">authoring.model.Authoring</text>
<text text-anchor="middle" x="288" y="-105" font-family="Helvetica,sans-Serif" font-size="10.00">Model.convertToSerializable</text>
</a>
</g>
</g>
<!-- Node1&#45;&gt;Node5 -->
<g id="edge4" class="edge"><title>Node1&#45;&gt;Node5</title>
<path fill="none" stroke="midnightblue" d="M180.274,-113C191.425,-113 202.679,-113 213.483,-113"/>
<polygon fill="midnightblue" stroke="midnightblue" points="180.078,-109.5 170.077,-113 180.077,-116.5 180.078,-109.5"/>
</g>
<!-- Node8 -->
<g id="node8" class="node"><title>Node8</title>
<g id="a_node8"><a xlink:href="../../d4/d68/classauthoring_1_1model_1_1_authoring_model.html#a36b0bf5dc987000328b00a660f686a3b" target="_top" xlink:title="authoring.model.Authoring\lModel.getSounds">
<polygon fill="white" stroke="black" points="215.5,-49 215.5,-79 360.5,-79 360.5,-49 215.5,-49"/>
<text text-anchor="start" x="223.5" y="-67" font-family="Helvetica,sans-Serif" font-size="10.00">authoring.model.Authoring</text>
<text text-anchor="middle" x="288" y="-56" font-family="Helvetica,sans-Serif" font-size="10.00">Model.getSounds</text>
</a>
</g>
</g>
<!-- Node1&#45;&gt;Node8 -->
<g id="edge7" class="edge"><title>Node1&#45;&gt;Node8</title>
<path fill="none" stroke="midnightblue" d="M157.391,-95.5962C179.626,-90.1757 203.942,-84.248 225.444,-79.0062"/>
<polygon fill="midnightblue" stroke="midnightblue" points="156.559,-92.1964 147.673,-97.9654 158.217,-98.9973 156.559,-92.1964"/>
</g>
<!-- Node3 -->
<g id="node3" class="node"><title>Node3</title>
<g id="a_node3"><a xlink:href="../../d4/d68/classauthoring_1_1model_1_1_authoring_model.html#a3935f1a8c2e6b6fcd4609ffb4b1b8cf0" target="_top" xlink:title="authoring.model.Authoring\lModel.load">
<polygon fill="white" stroke="black" points="421.5,-147 421.5,-177 566.5,-177 566.5,-147 421.5,-147"/>
<text text-anchor="start" x="429.5" y="-165" font-family="Helvetica,sans-Serif" font-size="10.00">authoring.model.Authoring</text>
<text text-anchor="middle" x="494" y="-154" font-family="Helvetica,sans-Serif" font-size="10.00">Model.load</text>
</a>
</g>
</g>
<!-- Node2&#45;&gt;Node3 -->
<g id="edge2" class="edge"><title>Node2&#45;&gt;Node3</title>
<path fill="none" stroke="midnightblue" d="M379.691,-162C393.602,-162 407.798,-162 421.225,-162"/>
<polygon fill="midnightblue" stroke="midnightblue" points="379.626,-158.5 369.626,-162 379.626,-165.5 379.626,-158.5"/>
</g>
<!-- Node4 -->
<g id="node4" class="node"><title>Node4</title>
<g id="a_node4"><a xlink:href="../../de/d41/classauthoring_1_1controller_1_1_authoring_controller.html#a78ad41cfba48debac79f09f1211cb108" target="_top" xlink:title="authoring.controller.Authoring\lController.loadData">
<polygon fill="white" stroke="black" points="618.5,-147 618.5,-177 777.5,-177 777.5,-147 618.5,-147"/>
<text text-anchor="start" x="626.5" y="-165" font-family="Helvetica,sans-Serif" font-size="10.00">authoring.controller.Authoring</text>
<text text-anchor="middle" x="698" y="-154" font-family="Helvetica,sans-Serif" font-size="10.00">Controller.loadData</text>
</a>
</g>
</g>
<!-- Node3&#45;&gt;Node4 -->
<g id="edge3" class="edge"><title>Node3&#45;&gt;Node4</title>
<path fill="none" stroke="midnightblue" d="M576.868,-162C590.571,-162 604.761,-162 618.38,-162"/>
<polygon fill="midnightblue" stroke="midnightblue" points="576.502,-158.5 566.502,-162 576.502,-165.5 576.502,-158.5"/>
</g>
<!-- Node6 -->
<g id="node6" class="node"><title>Node6</title>
<g id="a_node6"><a xlink:href="../../d4/d68/classauthoring_1_1model_1_1_authoring_model.html#a1cdb75c271642f158391ccecc24a539c" target="_top" xlink:title="authoring.model.Authoring\lModel.save">
<polygon fill="white" stroke="black" points="421.5,-98 421.5,-128 566.5,-128 566.5,-98 421.5,-98"/>
<text text-anchor="start" x="429.5" y="-116" font-family="Helvetica,sans-Serif" font-size="10.00">authoring.model.Authoring</text>
<text text-anchor="middle" x="494" y="-105" font-family="Helvetica,sans-Serif" font-size="10.00">Model.save</text>
</a>
</g>
</g>
<!-- Node5&#45;&gt;Node6 -->
<g id="edge5" class="edge"><title>Node5&#45;&gt;Node6</title>
<path fill="none" stroke="midnightblue" d="M373.045,-113C389.024,-113 405.61,-113 421.167,-113"/>
<polygon fill="midnightblue" stroke="midnightblue" points="372.649,-109.5 362.649,-113 372.649,-116.5 372.649,-109.5"/>
</g>
<!-- Node7 -->
<g id="node7" class="node"><title>Node7</title>
<g id="a_node7"><a xlink:href="../../de/d41/classauthoring_1_1controller_1_1_authoring_controller.html#adbe015f9624bd3077b0eba208ece1966" target="_top" xlink:title="authoring.controller.Authoring\lController.saveData">
<polygon fill="white" stroke="black" points="618.5,-98 618.5,-128 777.5,-128 777.5,-98 618.5,-98"/>
<text text-anchor="start" x="626.5" y="-116" font-family="Helvetica,sans-Serif" font-size="10.00">authoring.controller.Authoring</text>
<text text-anchor="middle" x="698" y="-105" font-family="Helvetica,sans-Serif" font-size="10.00">Controller.saveData</text>
</a>
</g>
</g>
<!-- Node6&#45;&gt;Node7 -->
<g id="edge6" class="edge"><title>Node6&#45;&gt;Node7</title>
<path fill="none" stroke="midnightblue" d="M576.868,-113C590.571,-113 604.761,-113 618.38,-113"/>
<polygon fill="midnightblue" stroke="midnightblue" points="576.502,-109.5 566.502,-113 576.502,-116.5 576.502,-109.5"/>
</g>
<!-- Node9 -->
<g id="node9" class="node"><title>Node9</title>
<g id="a_node9"><a xlink:href="../../de/d41/classauthoring_1_1controller_1_1_authoring_controller.html#afa4d4de3a843b1f950f11839acfaef2b" target="_top" xlink:title="authoring.controller.Authoring\lController.initializeGameHandlers">
<polygon fill="white" stroke="black" points="406,-49 406,-79 582,-79 582,-49 406,-49"/>
<text text-anchor="start" x="414" y="-67" font-family="Helvetica,sans-Serif" font-size="10.00">authoring.controller.Authoring</text>
<text text-anchor="middle" x="494" y="-56" font-family="Helvetica,sans-Serif" font-size="10.00">Controller.initializeGameHandlers</text>
</a>
</g>
</g>
<!-- Node8&#45;&gt;Node9 -->
<g id="edge8" class="edge"><title>Node8&#45;&gt;Node9</title>
<path fill="none" stroke="midnightblue" d="M370.671,-64C382.213,-64 394.118,-64 405.76,-64"/>
<polygon fill="midnightblue" stroke="midnightblue" points="370.636,-60.5001 360.636,-64 370.636,-67.5001 370.636,-60.5001"/>
</g>
<!-- Node12 -->
<g id="node12" class="node"><title>Node12</title>
<g id="a_node12"><a xlink:href="../../de/d41/classauthoring_1_1controller_1_1_authoring_controller.html#aec7894abd1ceb42b621af2e84f642952" target="_top" xlink:title="authoring.controller.Authoring\lController.initializeObs">
<polygon fill="white" stroke="black" points="414.5,-0 414.5,-30 573.5,-30 573.5,-0 414.5,-0"/>
<text text-anchor="start" x="422.5" y="-18" font-family="Helvetica,sans-Serif" font-size="10.00">authoring.controller.Authoring</text>
<text text-anchor="middle" x="494" y="-7" font-family="Helvetica,sans-Serif" font-size="10.00">Controller.initializeObs</text>
</a>
</g>
</g>
<!-- Node8&#45;&gt;Node12 -->
<g id="edge11" class="edge"><title>Node8&#45;&gt;Node12</title>
<path fill="none" stroke="midnightblue" d="M361.457,-46.5962C384.024,-41.1757 408.702,-35.248 430.525,-30.0062"/>
<polygon fill="midnightblue" stroke="midnightblue" points="360.499,-43.2266 351.593,-48.9654 362.134,-50.033 360.499,-43.2266"/>
</g>
<!-- Node10 -->
<g id="node10" class="node"><title>Node10</title>
<g id="a_node10"><a xlink:href="../../de/d41/classauthoring_1_1controller_1_1_authoring_controller.html#a8efc17f104f4df42f385e8c7b25831e0" target="_top" xlink:title="authoring.controller.Authoring\lController.initializeView">
<polygon fill="white" stroke="black" points="618.5,-25 618.5,-55 777.5,-55 777.5,-25 618.5,-25"/>
<text text-anchor="start" x="626.5" y="-43" font-family="Helvetica,sans-Serif" font-size="10.00">authoring.controller.Authoring</text>
<text text-anchor="middle" x="698" y="-32" font-family="Helvetica,sans-Serif" font-size="10.00">Controller.initializeView</text>
</a>
</g>
</g>
<!-- Node9&#45;&gt;Node10 -->
<g id="edge9" class="edge"><title>Node9&#45;&gt;Node10</title>
<path fill="none" stroke="midnightblue" d="M592.076,-52.4662C600.911,-51.4165 609.787,-50.362 618.431,-49.3349"/>
<polygon fill="midnightblue" stroke="midnightblue" points="591.649,-48.9922 582.132,-53.6477 592.475,-55.9433 591.649,-48.9922"/>
</g>
<!-- Node11 -->
<g id="node11" class="node"><title>Node11</title>
<g id="a_node11"><a xlink:href="../../de/d41/classauthoring_1_1controller_1_1_authoring_controller.html#aa2e89dc7481c1e7deea1919eae007119" target="_top" xlink:title="authoring.controller.Authoring\lController.AuthoringController">
<polygon fill="white" stroke="black" points="814.5,-25 814.5,-55 973.5,-55 973.5,-25 814.5,-25"/>
<text text-anchor="start" x="822.5" y="-43" font-family="Helvetica,sans-Serif" font-size="10.00">authoring.controller.Authoring</text>
<text text-anchor="middle" x="894" y="-32" font-family="Helvetica,sans-Serif" font-size="10.00">Controller.AuthoringController</text>
</a>
</g>
</g>
<!-- Node10&#45;&gt;Node11 -->
<g id="edge10" class="edge"><title>Node10&#45;&gt;Node11</title>
<path fill="none" stroke="midnightblue" d="M787.895,-40C796.691,-40 805.577,-40 814.26,-40"/>
<polygon fill="midnightblue" stroke="midnightblue" points="787.628,-36.5001 777.628,-40 787.628,-43.5001 787.628,-36.5001"/>
</g>
<!-- Node12&#45;&gt;Node10 -->
<g id="edge12" class="edge"><title>Node12&#45;&gt;Node10</title>
<path fill="none" stroke="midnightblue" d="M583.702,-25.9779C595.19,-27.3997 606.893,-28.8482 618.206,-30.2482"/>
<polygon fill="midnightblue" stroke="midnightblue" points="584.031,-22.4921 573.677,-24.7372 583.171,-29.4391 584.031,-22.4921"/>
</g>
</g>
</svg>
        <g id="navigator" transform="translate(0 0)" fill="#404254">
                <rect fill="#f2f5e9" fill-opacity="0.5" stroke="#606060" stroke-width=".5" x="0" y="0" width="60" height="60"/>
                <use id="zoomplus" xlink:href="#zoomPlus" x="17" y="9" onmousedown="handleZoom(evt,'in')"/>
                <use id="zoomminus" xlink:href="#zoomMin" x="42" y="9" onmousedown="handleZoom(evt,'out')"/>
                <use id="reset" xlink:href="#resetDef" x="30" y="36" onmousedown="handleReset()"/>
                <g id="arrowUp" xlink:href="#dirArrow" transform="translate(30 24)" onmousedown="handlePan(0,-1)">
                  <use xlink:href="#rim" fill="#404040">
                        <set attributeName="fill" to="#808080" begin="arrowUp.mouseover" end="arrowUp.mouseout"/>
                  </use>
                  <path fill="none" stroke="white" stroke-width="1.5" d="M0,-3.0v7 M-2.5,-0.5L0,-3.0L2.5,-0.5"/>
                </g>
                <g id="arrowRight" xlink:href="#dirArrow" transform="rotate(90) translate(36 -43)" onmousedown="handlePan(1,0)">
                  <use xlink:href="#rim" fill="#404040">
                        <set attributeName="fill" to="#808080" begin="arrowRight.mouseover" end="arrowRight.mouseout"/>
                  </use>
                  <path fill="none" stroke="white" stroke-width="1.5" d="M0,-3.0v7 M-2.5,-0.5L0,-3.0L2.5,-0.5"/>
                </g>
                <g id="arrowDown" xlink:href="#dirArrow" transform="rotate(180) translate(-30 -48)" onmousedown="handlePan(0,1)">
                  <use xlink:href="#rim" fill="#404040">
                        <set attributeName="fill" to="#808080" begin="arrowDown.mouseover" end="arrowDown.mouseout"/>
                  </use>
                  <path fill="none" stroke="white" stroke-width="1.5" d="M0,-3.0v7 M-2.5,-0.5L0,-3.0L2.5,-0.5"/>
                </g>
                <g id="arrowLeft" xlink:href="#dirArrow" transform="rotate(270) translate(-36 17)" onmousedown="handlePan(-1,0)">
                  <use xlink:href="#rim" fill="#404040">
                        <set attributeName="fill" to="#808080" begin="arrowLeft.mouseover" end="arrowLeft.mouseout"/>
                  </use>
                  <path fill="none" stroke="white" stroke-width="1.5" d="M0,-3.0v7 M-2.5,-0.5L0,-3.0L2.5,-0.5"/>
                </g>
        </g>
        <svg viewBox="0 0 15 15" width="100%" height="30px" preserveAspectRatio="xMaxYMin meet">
         <g id="arrow_out" transform="scale(0.3 0.3)">
          <a xlink:href="classauthoring_1_1model_1_1_game_data_a4c24125abc447d6793b3d31091d7912a_icgraph_org.svg" target="_base">
           <rect id="button" ry="5" rx="5" y="6" x="6" height="38" width="38"
                fill="#f2f5e9" fill-opacity="0.5" stroke="#606060" stroke-width="1.0"/>
           <path id="arrow"
             d="M 11.500037,31.436501 C 11.940474,20.09759 22.043105,11.32322 32.158766,21.979434 L 37.068811,17.246167 C 37.068811,17.246167 37.088388,32 37.088388,32 L 22.160133,31.978069 C 22.160133,31.978069 26.997745,27.140456 26.997745,27.140456 C 18.528582,18.264221 13.291696,25.230495 11.500037,31.436501 z"
             style="fill:#404040;"/>
          </a>
         </g>
        </svg>
</svg>
