<?xml version="1.0" encoding="UTF-8" standalone="no"?>
<!DOCTYPE svg PUBLIC "-//W3C//DTD SVG 1.1//EN"
 "http://www.w3.org/Graphics/SVG/1.1/DTD/svg11.dtd">
<!-- Generated by graphviz version 2.36.0 (20140111.2315)
 -->
<!-- Title: authoring.model.GameData.getLevels Pages: 1 -->
<svg width="1072pt" height="311pt"
 viewBox="0.00 0.00 1072.00 311.00" xmlns="http://www.w3.org/2000/svg" xmlns:xlink="http://www.w3.org/1999/xlink">
<g id="graph0" class="graph" transform="scale(1 1) rotate(0) translate(4 307)">
<title>authoring.model.GameData.getLevels</title>
<polygon fill="white" stroke="none" points="-4,4 -4,-307 1068,-307 1068,4 -4,4"/>
<!-- Node1 -->
<g id="node1" class="node"><title>Node1</title>
<polygon fill="#bfbfbf" stroke="black" points="0,-158 0,-188 170,-188 170,-158 0,-158"/>
<text text-anchor="start" x="8" y="-176" font-family="Helvetica,sans-Serif" font-size="10.00">authoring.model.GameData.get</text>
<text text-anchor="middle" x="85" y="-165" font-family="Helvetica,sans-Serif" font-size="10.00">Levels</text>
</g>
<!-- Node2 -->
<g id="node2" class="node"><title>Node2</title>
<g id="a_node2"><a xlink:href="../../d4/d68/classauthoring_1_1model_1_1_authoring_model.html#a11495359850ef25b7338f7e7ba0554d0" target="_top" xlink:title="authoring.model.Authoring\lModel.convertFromSerializable">
<polygon fill="white" stroke="black" points="219.5,-270 219.5,-300 382.5,-300 382.5,-270 219.5,-270"/>
<text text-anchor="start" x="227.5" y="-288" font-family="Helvetica,sans-Serif" font-size="10.00">authoring.model.Authoring</text>
<text text-anchor="middle" x="301" y="-277" font-family="Helvetica,sans-Serif" font-size="10.00">Model.convertFromSerializable</text>
</a>
</g>
</g>
<!-- Node1&#45;&gt;Node2 -->
<g id="edge1" class="edge"><title>Node1&#45;&gt;Node2</title>
<path fill="none" stroke="midnightblue" d="M112.534,-194.485C135.972,-212.621 171.669,-238.239 206,-255 217.853,-260.787 231.08,-265.807 243.782,-269.998"/>
<polygon fill="midnightblue" stroke="midnightblue" points="114.508,-191.586 104.478,-188.173 110.19,-197.096 114.508,-191.586"/>
</g>
<!-- Node5 -->
<g id="node5" class="node"><title>Node5</title>
<g id="a_node5"><a xlink:href="../../d4/d68/classauthoring_1_1model_1_1_authoring_model.html#ab3e6b375a2e8fdc73b351fc873ce214e" target="_top" xlink:title="authoring.model.Authoring\lModel.convertToSerializable">
<polygon fill="white" stroke="black" points="226.5,-216 226.5,-246 375.5,-246 375.5,-216 226.5,-216"/>
<text text-anchor="start" x="234.5" y="-234" font-family="Helvetica,sans-Serif" font-size="10.00">authoring.model.Authoring</text>
<text text-anchor="middle" x="301" y="-223" font-family="Helvetica,sans-Serif" font-size="10.00">Model.convertToSerializable</text>
</a>
</g>
</g>
<!-- Node1&#45;&gt;Node5 -->
<g id="edge4" class="edge"><title>Node1&#45;&gt;Node5</title>
<path fill="none" stroke="midnightblue" d="M151.278,-190.692C181.065,-198.765 215.967,-208.225 244.472,-215.95"/>
<polygon fill="midnightblue" stroke="midnightblue" points="151.956,-187.25 141.389,-188.012 150.125,-194.006 151.956,-187.25"/>
</g>
<!-- Node8 -->
<g id="node8" class="node"><title>Node8</title>
<g id="a_node8"><a xlink:href="../../d4/d68/classauthoring_1_1model_1_1_authoring_model.html#a56085978a2f30a7d9ae50138b5b98e78" target="_top" xlink:title="authoring.model.Authoring\lModel.getLevels">
<polygon fill="white" stroke="black" points="228.5,-158 228.5,-188 373.5,-188 373.5,-158 228.5,-158"/>
<text text-anchor="start" x="236.5" y="-176" font-family="Helvetica,sans-Serif" font-size="10.00">authoring.model.Authoring</text>
<text text-anchor="middle" x="301" y="-165" font-family="Helvetica,sans-Serif" font-size="10.00">Model.getLevels</text>
</a>
</g>
</g>
<!-- Node1&#45;&gt;Node8 -->
<g id="edge7" class="edge"><title>Node1&#45;&gt;Node8</title>
<path fill="none" stroke="midnightblue" d="M180.695,-173C196.662,-173 213,-173 228.26,-173"/>
<polygon fill="midnightblue" stroke="midnightblue" points="180.271,-169.5 170.271,-173 180.271,-176.5 180.271,-169.5"/>
</g>
<!-- Node12 -->
<g id="node12" class="node"><title>Node12</title>
<g id="a_node12"><a xlink:href="../../d6/d94/classengine_1_1_game_manager.html#a82d35ed7c2327424ffae630df471ae54" target="_top" xlink:title="engine.GameManager.load">
<polygon fill="white" stroke="black" points="228,-100.5 228,-119.5 374,-119.5 374,-100.5 228,-100.5"/>
<text text-anchor="middle" x="301" y="-107.5" font-family="Helvetica,sans-Serif" font-size="10.00">engine.GameManager.load</text>
</a>
</g>
</g>
<!-- Node1&#45;&gt;Node12 -->
<g id="edge12" class="edge"><title>Node1&#45;&gt;Node12</title>
<path fill="none" stroke="midnightblue" d="M146.747,-155.117C186.08,-143.537 235.739,-128.918 267.683,-119.514"/>
<polygon fill="midnightblue" stroke="midnightblue" points="145.591,-151.808 136.986,-157.99 147.568,-158.523 145.591,-151.808"/>
</g>
<!-- Node14 -->
<g id="node14" class="node"><title>Node14</title>
<g id="a_node14"><a xlink:href="../../d2/dc9/classgame_player_1_1model_1_1_player_model.html#a98f00ab471bdab4f36e313a78fe6ceab" target="_top" xlink:title="gamePlayer.model.PlayerModel.load\lGameData">
<polygon fill="white" stroke="black" points="206,-49 206,-79 396,-79 396,-49 206,-49"/>
<text text-anchor="start" x="214" y="-67" font-family="Helvetica,sans-Serif" font-size="10.00">gamePlayer.model.PlayerModel.load</text>
<text text-anchor="middle" x="301" y="-56" font-family="Helvetica,sans-Serif" font-size="10.00">GameData</text>
</a>
</g>
</g>
<!-- Node1&#45;&gt;Node14 -->
<g id="edge14" class="edge"><title>Node1&#45;&gt;Node14</title>
<path fill="none" stroke="midnightblue" d="M112.002,-151.585C135.356,-133.271 171.225,-107.354 206,-91 215.68,-86.4478 226.288,-82.501 236.782,-79.1373"/>
<polygon fill="midnightblue" stroke="midnightblue" points="109.638,-148.992 103.989,-157.956 113.995,-154.471 109.638,-148.992"/>
</g>
<!-- Node3 -->
<g id="node3" class="node"><title>Node3</title>
<g id="a_node3"><a xlink:href="../../d4/d68/classauthoring_1_1model_1_1_authoring_model.html#a3935f1a8c2e6b6fcd4609ffb4b1b8cf0" target="_top" xlink:title="authoring.model.Authoring\lModel.load">
<polygon fill="white" stroke="black" points="454.5,-273 454.5,-303 599.5,-303 599.5,-273 454.5,-273"/>
<text text-anchor="start" x="462.5" y="-291" font-family="Helvetica,sans-Serif" font-size="10.00">authoring.model.Authoring</text>
<text text-anchor="middle" x="527" y="-280" font-family="Helvetica,sans-Serif" font-size="10.00">Model.load</text>
</a>
</g>
</g>
<!-- Node2&#45;&gt;Node3 -->
<g id="edge2" class="edge"><title>Node2&#45;&gt;Node3</title>
<path fill="none" stroke="midnightblue" d="M392.554,-286.213C413.116,-286.488 434.68,-286.777 454.333,-287.04"/>
<polygon fill="midnightblue" stroke="midnightblue" points="392.599,-282.713 382.553,-286.079 392.505,-289.713 392.599,-282.713"/>
</g>
<!-- Node4 -->
<g id="node4" class="node"><title>Node4</title>
<g id="a_node4"><a xlink:href="../../de/d41/classauthoring_1_1controller_1_1_authoring_controller.html#a78ad41cfba48debac79f09f1211cb108" target="_top" xlink:title="authoring.controller.Authoring\lController.loadData">
<polygon fill="white" stroke="black" points="683.5,-273 683.5,-303 842.5,-303 842.5,-273 683.5,-273"/>
<text text-anchor="start" x="691.5" y="-291" font-family="Helvetica,sans-Serif" font-size="10.00">authoring.controller.Authoring</text>
<text text-anchor="middle" x="763" y="-280" font-family="Helvetica,sans-Serif" font-size="10.00">Controller.loadData</text>
</a>
</g>
</g>
<!-- Node3&#45;&gt;Node4 -->
<g id="edge3" class="edge"><title>Node3&#45;&gt;Node4</title>
<path fill="none" stroke="midnightblue" d="M609.881,-288C633.744,-288 659.756,-288 683.412,-288"/>
<polygon fill="midnightblue" stroke="midnightblue" points="609.798,-284.5 599.798,-288 609.798,-291.5 609.798,-284.5"/>
</g>
<!-- Node6 -->
<g id="node6" class="node"><title>Node6</title>
<g id="a_node6"><a xlink:href="../../d4/d68/classauthoring_1_1model_1_1_authoring_model.html#a1cdb75c271642f158391ccecc24a539c" target="_top" xlink:title="authoring.model.Authoring\lModel.save">
<polygon fill="white" stroke="black" points="454.5,-224 454.5,-254 599.5,-254 599.5,-224 454.5,-224"/>
<text text-anchor="start" x="462.5" y="-242" font-family="Helvetica,sans-Serif" font-size="10.00">authoring.model.Authoring</text>
<text text-anchor="middle" x="527" y="-231" font-family="Helvetica,sans-Serif" font-size="10.00">Model.save</text>
</a>
</g>
</g>
<!-- Node5&#45;&gt;Node6 -->
<g id="edge5" class="edge"><title>Node5&#45;&gt;Node6</title>
<path fill="none" stroke="midnightblue" d="M385.858,-233.995C408.341,-234.798 432.442,-235.659 454.207,-236.436"/>
<polygon fill="midnightblue" stroke="midnightblue" points="385.775,-230.49 375.656,-233.631 385.525,-237.485 385.775,-230.49"/>
</g>
<!-- Node7 -->
<g id="node7" class="node"><title>Node7</title>
<g id="a_node7"><a xlink:href="../../de/d41/classauthoring_1_1controller_1_1_authoring_controller.html#adbe015f9624bd3077b0eba208ece1966" target="_top" xlink:title="authoring.controller.Authoring\lController.saveData">
<polygon fill="white" stroke="black" points="683.5,-224 683.5,-254 842.5,-254 842.5,-224 683.5,-224"/>
<text text-anchor="start" x="691.5" y="-242" font-family="Helvetica,sans-Serif" font-size="10.00">authoring.controller.Authoring</text>
<text text-anchor="middle" x="763" y="-231" font-family="Helvetica,sans-Serif" font-size="10.00">Controller.saveData</text>
</a>
</g>
</g>
<!-- Node6&#45;&gt;Node7 -->
<g id="edge6" class="edge"><title>Node6&#45;&gt;Node7</title>
<path fill="none" stroke="midnightblue" d="M609.881,-239C633.744,-239 659.756,-239 683.412,-239"/>
<polygon fill="midnightblue" stroke="midnightblue" points="609.798,-235.5 599.798,-239 609.798,-242.5 609.798,-235.5"/>
</g>
<!-- Node9 -->
<g id="node9" class="node"><title>Node9</title>
<g id="a_node9"><a xlink:href="../../de/d41/classauthoring_1_1controller_1_1_authoring_controller.html#afa4d4de3a843b1f950f11839acfaef2b" target="_top" xlink:title="authoring.controller.Authoring\lController.initializeGameHandlers">
<polygon fill="white" stroke="black" points="439,-175 439,-205 615,-205 615,-175 439,-175"/>
<text text-anchor="start" x="447" y="-193" font-family="Helvetica,sans-Serif" font-size="10.00">authoring.controller.Authoring</text>
<text text-anchor="middle" x="527" y="-182" font-family="Helvetica,sans-Serif" font-size="10.00">Controller.initializeGameHandlers</text>
</a>
</g>
</g>
<!-- Node8&#45;&gt;Node9 -->
<g id="edge8" class="edge"><title>Node8&#45;&gt;Node9</title>
<path fill="none" stroke="midnightblue" d="M383.909,-179.216C401.816,-180.575 420.831,-182.018 438.931,-183.392"/>
<polygon fill="midnightblue" stroke="midnightblue" points="384.036,-175.716 373.799,-178.449 383.506,-182.696 384.036,-175.716"/>
</g>
<!-- Node10 -->
<g id="node10" class="node"><title>Node10</title>
<g id="a_node10"><a xlink:href="../../de/d41/classauthoring_1_1controller_1_1_authoring_controller.html#a8efc17f104f4df42f385e8c7b25831e0" target="_top" xlink:title="authoring.controller.Authoring\lController.initializeView">
<polygon fill="white" stroke="black" points="683.5,-153 683.5,-183 842.5,-183 842.5,-153 683.5,-153"/>
<text text-anchor="start" x="691.5" y="-171" font-family="Helvetica,sans-Serif" font-size="10.00">authoring.controller.Authoring</text>
<text text-anchor="middle" x="763" y="-160" font-family="Helvetica,sans-Serif" font-size="10.00">Controller.initializeView</text>
</a>
</g>
</g>
<!-- Node8&#45;&gt;Node10 -->
<g id="edge11" class="edge"><title>Node8&#45;&gt;Node10</title>
<path fill="none" stroke="midnightblue" d="M384.145,-167.178C400.015,-166.27 416.519,-165.476 432,-165 517.9,-162.359 616.433,-163.843 683.303,-165.525"/>
<polygon fill="midnightblue" stroke="midnightblue" points="383.6,-163.704 373.824,-167.788 384.014,-170.691 383.6,-163.704"/>
</g>
<!-- Node9&#45;&gt;Node10 -->
<g id="edge9" class="edge"><title>Node9&#45;&gt;Node10</title>
<path fill="none" stroke="midnightblue" d="M625.177,-180.864C644.536,-179.044 664.641,-177.153 683.288,-175.4"/>
<polygon fill="midnightblue" stroke="midnightblue" points="624.761,-177.387 615.133,-181.808 625.417,-184.357 624.761,-177.387"/>
</g>
<!-- Node11 -->
<g id="node11" class="node"><title>Node11</title>
<g id="a_node11"><a xlink:href="../../de/d41/classauthoring_1_1controller_1_1_authoring_controller.html#aa2e89dc7481c1e7deea1919eae007119" target="_top" xlink:title="authoring.controller.Authoring\lController.AuthoringController">
<polygon fill="white" stroke="black" points="904.5,-153 904.5,-183 1063.5,-183 1063.5,-153 904.5,-153"/>
<text text-anchor="start" x="912.5" y="-171" font-family="Helvetica,sans-Serif" font-size="10.00">authoring.controller.Authoring</text>
<text text-anchor="middle" x="984" y="-160" font-family="Helvetica,sans-Serif" font-size="10.00">Controller.AuthoringController</text>
</a>
</g>
</g>
<!-- Node10&#45;&gt;Node11 -->
<g id="edge10" class="edge"><title>Node10&#45;&gt;Node11</title>
<path fill="none" stroke="midnightblue" d="M853.178,-168C870.081,-168 887.654,-168 904.209,-168"/>
<polygon fill="midnightblue" stroke="midnightblue" points="852.755,-164.5 842.755,-168 852.755,-171.5 852.755,-164.5"/>
</g>
<!-- Node13 -->
<g id="node13" class="node"><title>Node13</title>
<g id="a_node13"><a xlink:href="../../d1/d37/classengine_1_1actions_1_1_load_action.html#af92860bc56b712c077bb2d726a17a8aa" target="_top" xlink:title="engine.actions.LoadAction.execute">
<polygon fill="white" stroke="black" points="435,-98.5 435,-117.5 619,-117.5 619,-98.5 435,-98.5"/>
<text text-anchor="middle" x="527" y="-105.5" font-family="Helvetica,sans-Serif" font-size="10.00">engine.actions.LoadAction.execute</text>
</a>
</g>
</g>
<!-- Node12&#45;&gt;Node13 -->
<g id="edge13" class="edge"><title>Node12&#45;&gt;Node13</title>
<path fill="none" stroke="midnightblue" d="M384.213,-109.266C400.657,-109.119 418.024,-108.964 434.752,-108.815"/>
<polygon fill="midnightblue" stroke="midnightblue" points="384.076,-105.767 374.108,-109.356 384.139,-112.767 384.076,-105.767"/>
</g>
<!-- Node15 -->
<g id="node15" class="node"><title>Node15</title>
<g id="a_node15"><a xlink:href="../../d2/dc9/classgame_player_1_1model_1_1_player_model.html#af190a1bec62622e48aa4006d19e8897a" target="_top" xlink:title="gamePlayer.model.PlayerModel.add\lStringChangeListener">
<polygon fill="white" stroke="black" points="433,-49 433,-79 621,-79 621,-49 433,-49"/>
<text text-anchor="start" x="441" y="-67" font-family="Helvetica,sans-Serif" font-size="10.00">gamePlayer.model.PlayerModel.add</text>
<text text-anchor="middle" x="527" y="-56" font-family="Helvetica,sans-Serif" font-size="10.00">StringChangeListener</text>
</a>
</g>
</g>
<!-- Node14&#45;&gt;Node15 -->
<g id="edge15" class="edge"><title>Node14&#45;&gt;Node15</title>
<path fill="none" stroke="midnightblue" d="M406.094,-64C415.05,-64 424.075,-64 432.936,-64"/>
<polygon fill="midnightblue" stroke="midnightblue" points="406.023,-60.5001 396.023,-64 406.023,-67.5001 406.023,-60.5001"/>
</g>
<!-- Node17 -->
<g id="node17" class="node"><title>Node17</title>
<g id="a_node17"><a xlink:href="../../d2/dc9/classgame_player_1_1model_1_1_player_model.html#a810c0b28ae81f5a27c5df5f83f907088" target="_top" xlink:title="gamePlayer.model.PlayerModel.load\lGameFile">
<polygon fill="white" stroke="black" points="432,-0 432,-30 622,-30 622,-0 432,-0"/>
<text text-anchor="start" x="440" y="-18" font-family="Helvetica,sans-Serif" font-size="10.00">gamePlayer.model.PlayerModel.load</text>
<text text-anchor="middle" x="527" y="-7" font-family="Helvetica,sans-Serif" font-size="10.00">GameFile</text>
</a>
</g>
</g>
<!-- Node14&#45;&gt;Node17 -->
<g id="edge17" class="edge"><title>Node14&#45;&gt;Node17</title>
<path fill="none" stroke="midnightblue" d="M380.562,-46.8146C405.61,-41.3353 433.115,-35.3185 457.4,-30.0062"/>
<polygon fill="midnightblue" stroke="midnightblue" points="379.751,-43.4092 370.73,-48.9654 381.247,-50.2475 379.751,-43.4092"/>
</g>
<!-- Node16 -->
<g id="node16" class="node"><title>Node16</title>
<g id="a_node16"><a xlink:href="../../d2/dc9/classgame_player_1_1model_1_1_player_model.html#ad762a1aa11a0f489413712d8dab91419" target="_top" xlink:title="gamePlayer.model.PlayerModel.\lPlayerModel">
<polygon fill="white" stroke="black" points="678,-49 678,-79 848,-79 848,-49 678,-49"/>
<text text-anchor="start" x="686" y="-67" font-family="Helvetica,sans-Serif" font-size="10.00">gamePlayer.model.PlayerModel.</text>
<text text-anchor="middle" x="763" y="-56" font-family="Helvetica,sans-Serif" font-size="10.00">PlayerModel</text>
</a>
</g>
</g>
<!-- Node15&#45;&gt;Node16 -->
<g id="edge16" class="edge"><title>Node15&#45;&gt;Node16</title>
<path fill="none" stroke="midnightblue" d="M631.326,-64C646.892,-64 662.785,-64 677.883,-64"/>
<polygon fill="midnightblue" stroke="midnightblue" points="631.155,-60.5001 621.155,-64 631.155,-67.5001 631.155,-60.5001"/>
</g>
<!-- Node18 -->
<g id="node18" class="node"><title>Node18</title>
<g id="a_node18"><a xlink:href="../../d9/dff/classgame_player_1_1view_1_1_menu_bar_controller.html#af1f1b493dce9b79a0f464c4f1a6dfd09" target="_top" xlink:title="gamePlayer.view.MenuBarController.load\lGameFile">
<polygon fill="white" stroke="black" points="658,-0 658,-30 868,-30 868,-0 658,-0"/>
<text text-anchor="start" x="666" y="-18" font-family="Helvetica,sans-Serif" font-size="10.00">gamePlayer.view.MenuBarController.load</text>
<text text-anchor="middle" x="763" y="-7" font-family="Helvetica,sans-Serif" font-size="10.00">GameFile</text>
</a>
</g>
</g>
<!-- Node17&#45;&gt;Node18 -->
<g id="edge18" class="edge"><title>Node17&#45;&gt;Node18</title>
<path fill="none" stroke="midnightblue" d="M632.365,-15C640.772,-15 649.267,-15 657.674,-15"/>
<polygon fill="midnightblue" stroke="midnightblue" points="632.165,-11.5001 622.165,-15 632.165,-18.5001 632.165,-11.5001"/>
</g>
</g>
</svg>
