<?xml version="1.0" encoding="UTF-8" standalone="no"?>
<!DOCTYPE svg PUBLIC "-//W3C//DTD SVG 1.1//EN"
 "http://www.w3.org/Graphics/SVG/1.1/DTD/svg11.dtd">
<!-- Generated by graphviz version 2.36.0 (20140111.2315)
 -->
<!-- Title: authoring.model.GameData.getLevels Pages: 1 -->
<!--zoomable 283 -->
<svg id="main" version="1.1" xmlns="http://www.w3.org/2000/svg" xmlns:xlink="http://www.w3.org/1999/xlink" xml:space="preserve" onload="init(evt)">
<style type="text/css"><![CDATA[
.edge:hover path { stroke: red; }
.edge:hover polygon { stroke: red; fill: red; }
]]></style>
<script type="text/javascript"><![CDATA[
var edges = document.getElementsByTagName('g');
if (edges && edges.length) {
  for (var i=0;i<edges.length;i++) {
    if (edges[i].id.substr(0,4)=='edge') {
      edges[i].setAttribute('class','edge');
    }
  }
}
]]></script>
        <defs>
                <circle id="rim" cx="0" cy="0" r="7"/>
                <circle id="rim2" cx="0" cy="0" r="3.5"/>
                <g id="zoomPlus">
                        <use xlink:href="#rim" fill="#404040">
                                <set attributeName="fill" to="#808080" begin="zoomplus.mouseover" end="zoomplus.mouseout"/>
                        </use>
                        <path d="M-4,0h8M0,-4v8" fill="none" stroke="white" stroke-width="1.5" pointer-events="none"/>
                </g>
                <g id="zoomMin">
                        <use xlink:href="#rim" fill="#404040">
                                <set attributeName="fill" to="#808080" begin="zoomminus.mouseover" end="zoomminus.mouseout"/>
                        </use>
                        <path d="M-4,0h8" fill="none" stroke="white" stroke-width="1.5" pointer-events="none"/>
                </g>
                <g id="dirArrow">
                        <path fill="none" stroke="white" stroke-width="1.5" d="M0,-3.0v7 M-2.5,-0.5L0,-3.0L2.5,-0.5"/>
                </g>
               <g id="resetDef">
                       <use xlink:href="#rim2" fill="#404040">
                               <set attributeName="fill" to="#808080" begin="reset.mouseover" end="reset.mouseout"/>
                       </use>
               </g>
        </defs>

<script type="text/javascript">
var viewWidth = 1072;
var viewHeight = 283;
var sectionId = 'dynsection-6';
</script>
<script xlink:href="../../svgpan.js"/>
<svg id="graph" class="graph">
<g id="viewport">
<title>authoring.model.GameData.getLevels</title>
<polygon fill="white" stroke="none" points="-4,4 -4,-279 1068,-279 1068,4 -4,4"/>
<!-- Node1 -->
<g id="node1" class="node"><title>Node1</title>
<polygon fill="#bfbfbf" stroke="black" points="0,-147 0,-177 170,-177 170,-147 0,-147"/>
<text text-anchor="start" x="8" y="-165" font-family="Helvetica,sans-Serif" font-size="10.00">authoring.model.GameData.get</text>
<text text-anchor="middle" x="85" y="-154" font-family="Helvetica,sans-Serif" font-size="10.00">Levels</text>
</g>
<!-- Node2 -->
<g id="node2" class="node"><title>Node2</title>
<g id="a_node2"><a xlink:href="../../d4/d68/classauthoring_1_1model_1_1_authoring_model.html#a11495359850ef25b7338f7e7ba0554d0" target="_top" xlink:title="authoring.model.Authoring\lModel.convertFromSerializable">
<polygon fill="white" stroke="black" points="219.5,-245 219.5,-275 382.5,-275 382.5,-245 219.5,-245"/>
<text text-anchor="start" x="227.5" y="-263" font-family="Helvetica,sans-Serif" font-size="10.00">authoring.model.Authoring</text>
<text text-anchor="middle" x="301" y="-252" font-family="Helvetica,sans-Serif" font-size="10.00">Model.convertFromSerializable</text>
</a>
</g>
</g>
<!-- Node1&#45;&gt;Node2 -->
<g id="edge1" class="edge"><title>Node1&#45;&gt;Node2</title>
<path fill="none" stroke="midnightblue" d="M115.14,-183.011C138.682,-199.158 173.184,-221 206,-235 214.776,-238.744 224.257,-242.053 233.704,-244.937"/>
<polygon fill="midnightblue" stroke="midnightblue" points="116.888,-179.964 106.68,-177.13 112.893,-185.712 116.888,-179.964"/>
</g>
<!-- Node5 -->
<g id="node5" class="node"><title>Node5</title>
<g id="a_node5"><a xlink:href="../../d4/d68/classauthoring_1_1model_1_1_authoring_model.html#ab3e6b375a2e8fdc73b351fc873ce214e" target="_top" xlink:title="authoring.model.Authoring\lModel.convertToSerializable">
<polygon fill="white" stroke="black" points="226.5,-196 226.5,-226 375.5,-226 375.5,-196 226.5,-196"/>
<text text-anchor="start" x="234.5" y="-214" font-family="Helvetica,sans-Serif" font-size="10.00">authoring.model.Authoring</text>
<text text-anchor="middle" x="301" y="-203" font-family="Helvetica,sans-Serif" font-size="10.00">Model.convertToSerializable</text>
</a>
</g>
</g>
<!-- Node1&#45;&gt;Node5 -->
<g id="edge4" class="edge"><title>Node1&#45;&gt;Node5</title>
<path fill="none" stroke="midnightblue" d="M161.69,-179.331C185.45,-184.771 211.467,-190.729 234.463,-195.994"/>
<polygon fill="midnightblue" stroke="midnightblue" points="162.19,-175.855 151.661,-177.035 160.628,-182.678 162.19,-175.855"/>
</g>
<!-- Node8 -->
<g id="node8" class="node"><title>Node8</title>
<g id="a_node8"><a xlink:href="../../d4/d68/classauthoring_1_1model_1_1_authoring_model.html#a56085978a2f30a7d9ae50138b5b98e78" target="_top" xlink:title="authoring.model.Authoring\lModel.getLevels">
<polygon fill="white" stroke="black" points="228.5,-147 228.5,-177 373.5,-177 373.5,-147 228.5,-147"/>
<text text-anchor="start" x="236.5" y="-165" font-family="Helvetica,sans-Serif" font-size="10.00">authoring.model.Authoring</text>
<text text-anchor="middle" x="301" y="-154" font-family="Helvetica,sans-Serif" font-size="10.00">Model.getLevels</text>
</a>
</g>
</g>
<!-- Node1&#45;&gt;Node8 -->
<g id="edge7" class="edge"><title>Node1&#45;&gt;Node8</title>
<path fill="none" stroke="midnightblue" d="M180.695,-162C196.662,-162 213,-162 228.26,-162"/>
<polygon fill="midnightblue" stroke="midnightblue" points="180.271,-158.5 170.271,-162 180.271,-165.5 180.271,-158.5"/>
</g>
<!-- Node13 -->
<g id="node13" class="node"><title>Node13</title>
<g id="a_node13"><a xlink:href="../../d6/d94/classengine_1_1_game_manager.html#a82d35ed7c2327424ffae630df471ae54" target="_top" xlink:title="engine.GameManager.load">
<polygon fill="white" stroke="black" points="228,-108.5 228,-127.5 374,-127.5 374,-108.5 228,-108.5"/>
<text text-anchor="middle" x="301" y="-115.5" font-family="Helvetica,sans-Serif" font-size="10.00">engine.GameManager.load</text>
</a>
</g>
</g>
<!-- Node1&#45;&gt;Node13 -->
<g id="edge13" class="edge"><title>Node1&#45;&gt;Node13</title>
<path fill="none" stroke="midnightblue" d="M167.85,-144.88C180.618,-142.229 193.663,-139.532 206,-137 221.168,-133.887 237.721,-130.528 252.651,-127.513"/>
<polygon fill="midnightblue" stroke="midnightblue" points="166.767,-141.53 157.689,-146.992 168.192,-148.384 166.767,-141.53"/>
</g>
<!-- Node14 -->
<g id="node14" class="node"><title>Node14</title>
<g id="a_node14"><a xlink:href="../../d2/dc9/classgame_player_1_1model_1_1_player_model.html#a98f00ab471bdab4f36e313a78fe6ceab" target="_top" xlink:title="gamePlayer.model.PlayerModel.load\lGameData">
<polygon fill="white" stroke="black" points="206,-49 206,-79 396,-79 396,-49 206,-49"/>
<text text-anchor="start" x="214" y="-67" font-family="Helvetica,sans-Serif" font-size="10.00">gamePlayer.model.PlayerModel.load</text>
<text text-anchor="middle" x="301" y="-56" font-family="Helvetica,sans-Serif" font-size="10.00">GameData</text>
</a>
</g>
</g>
<!-- Node1&#45;&gt;Node14 -->
<g id="edge14" class="edge"><title>Node1&#45;&gt;Node14</title>
<path fill="none" stroke="midnightblue" d="M121.606,-141.782C145.177,-128.78 176.98,-111.958 206,-99 222.06,-91.8292 240.079,-84.8687 256.012,-79.0687"/>
<polygon fill="midnightblue" stroke="midnightblue" points="119.723,-138.824 112.681,-146.739 123.123,-144.943 119.723,-138.824"/>
</g>
<!-- Node3 -->
<g id="node3" class="node"><title>Node3</title>
<g id="a_node3"><a xlink:href="../../d4/d68/classauthoring_1_1model_1_1_authoring_model.html#a3935f1a8c2e6b6fcd4609ffb4b1b8cf0" target="_top" xlink:title="authoring.model.Authoring\lModel.load">
<polygon fill="white" stroke="black" points="454.5,-245 454.5,-275 599.5,-275 599.5,-245 454.5,-245"/>
<text text-anchor="start" x="462.5" y="-263" font-family="Helvetica,sans-Serif" font-size="10.00">authoring.model.Authoring</text>
<text text-anchor="middle" x="527" y="-252" font-family="Helvetica,sans-Serif" font-size="10.00">Model.load</text>
</a>
</g>
</g>
<!-- Node2&#45;&gt;Node3 -->
<g id="edge2" class="edge"><title>Node2&#45;&gt;Node3</title>
<path fill="none" stroke="midnightblue" d="M392.554,-260C413.116,-260 434.68,-260 454.333,-260"/>
<polygon fill="midnightblue" stroke="midnightblue" points="392.553,-256.5 382.553,-260 392.553,-263.5 392.553,-256.5"/>
</g>
<!-- Node4 -->
<g id="node4" class="node"><title>Node4</title>
<g id="a_node4"><a xlink:href="../../de/d41/classauthoring_1_1controller_1_1_authoring_controller.html#a78ad41cfba48debac79f09f1211cb108" target="_top" xlink:title="authoring.controller.Authoring\lController.loadData">
<polygon fill="white" stroke="black" points="683.5,-245 683.5,-275 842.5,-275 842.5,-245 683.5,-245"/>
<text text-anchor="start" x="691.5" y="-263" font-family="Helvetica,sans-Serif" font-size="10.00">authoring.controller.Authoring</text>
<text text-anchor="middle" x="763" y="-252" font-family="Helvetica,sans-Serif" font-size="10.00">Controller.loadData</text>
</a>
</g>
</g>
<!-- Node3&#45;&gt;Node4 -->
<g id="edge3" class="edge"><title>Node3&#45;&gt;Node4</title>
<path fill="none" stroke="midnightblue" d="M609.881,-260C633.744,-260 659.756,-260 683.412,-260"/>
<polygon fill="midnightblue" stroke="midnightblue" points="609.798,-256.5 599.798,-260 609.798,-263.5 609.798,-256.5"/>
</g>
<!-- Node6 -->
<g id="node6" class="node"><title>Node6</title>
<g id="a_node6"><a xlink:href="../../d4/d68/classauthoring_1_1model_1_1_authoring_model.html#a1cdb75c271642f158391ccecc24a539c" target="_top" xlink:title="authoring.model.Authoring\lModel.save">
<polygon fill="white" stroke="black" points="454.5,-196 454.5,-226 599.5,-226 599.5,-196 454.5,-196"/>
<text text-anchor="start" x="462.5" y="-214" font-family="Helvetica,sans-Serif" font-size="10.00">authoring.model.Authoring</text>
<text text-anchor="middle" x="527" y="-203" font-family="Helvetica,sans-Serif" font-size="10.00">Model.save</text>
</a>
</g>
</g>
<!-- Node5&#45;&gt;Node6 -->
<g id="edge5" class="edge"><title>Node5&#45;&gt;Node6</title>
<path fill="none" stroke="midnightblue" d="M385.858,-211C408.341,-211 432.442,-211 454.207,-211"/>
<polygon fill="midnightblue" stroke="midnightblue" points="385.656,-207.5 375.656,-211 385.656,-214.5 385.656,-207.5"/>
</g>
<!-- Node7 -->
<g id="node7" class="node"><title>Node7</title>
<g id="a_node7"><a xlink:href="../../de/d41/classauthoring_1_1controller_1_1_authoring_controller.html#adbe015f9624bd3077b0eba208ece1966" target="_top" xlink:title="authoring.controller.Authoring\lController.saveData">
<polygon fill="white" stroke="black" points="683.5,-196 683.5,-226 842.5,-226 842.5,-196 683.5,-196"/>
<text text-anchor="start" x="691.5" y="-214" font-family="Helvetica,sans-Serif" font-size="10.00">authoring.controller.Authoring</text>
<text text-anchor="middle" x="763" y="-203" font-family="Helvetica,sans-Serif" font-size="10.00">Controller.saveData</text>
</a>
</g>
</g>
<!-- Node6&#45;&gt;Node7 -->
<g id="edge6" class="edge"><title>Node6&#45;&gt;Node7</title>
<path fill="none" stroke="midnightblue" d="M609.881,-211C633.744,-211 659.756,-211 683.412,-211"/>
<polygon fill="midnightblue" stroke="midnightblue" points="609.798,-207.5 599.798,-211 609.798,-214.5 609.798,-207.5"/>
</g>
<!-- Node9 -->
<g id="node9" class="node"><title>Node9</title>
<g id="a_node9"><a xlink:href="../../de/d41/classauthoring_1_1controller_1_1_authoring_controller.html#afa4d4de3a843b1f950f11839acfaef2b" target="_top" xlink:title="authoring.controller.Authoring\lController.initializeGameHandlers">
<polygon fill="white" stroke="black" points="439,-147 439,-177 615,-177 615,-147 439,-147"/>
<text text-anchor="start" x="447" y="-165" font-family="Helvetica,sans-Serif" font-size="10.00">authoring.controller.Authoring</text>
<text text-anchor="middle" x="527" y="-154" font-family="Helvetica,sans-Serif" font-size="10.00">Controller.initializeGameHandlers</text>
</a>
</g>
</g>
<!-- Node8&#45;&gt;Node9 -->
<g id="edge8" class="edge"><title>Node8&#45;&gt;Node9</title>
<path fill="none" stroke="midnightblue" d="M383.909,-162C401.816,-162 420.831,-162 438.931,-162"/>
<polygon fill="midnightblue" stroke="midnightblue" points="383.799,-158.5 373.799,-162 383.799,-165.5 383.799,-158.5"/>
</g>
<!-- Node12 -->
<g id="node12" class="node"><title>Node12</title>
<g id="a_node12"><a xlink:href="../../de/d41/classauthoring_1_1controller_1_1_authoring_controller.html#aec7894abd1ceb42b621af2e84f642952" target="_top" xlink:title="authoring.controller.Authoring\lController.initializeObs">
<polygon fill="white" stroke="black" points="447.5,-98 447.5,-128 606.5,-128 606.5,-98 447.5,-98"/>
<text text-anchor="start" x="455.5" y="-116" font-family="Helvetica,sans-Serif" font-size="10.00">authoring.controller.Authoring</text>
<text text-anchor="middle" x="527" y="-105" font-family="Helvetica,sans-Serif" font-size="10.00">Controller.initializeObs</text>
</a>
</g>
</g>
<!-- Node8&#45;&gt;Node12 -->
<g id="edge11" class="edge"><title>Node8&#45;&gt;Node12</title>
<path fill="none" stroke="midnightblue" d="M380.562,-144.815C405.61,-139.335 433.115,-133.318 457.4,-128.006"/>
<polygon fill="midnightblue" stroke="midnightblue" points="379.751,-141.409 370.73,-146.965 381.247,-148.247 379.751,-141.409"/>
</g>
<!-- Node10 -->
<g id="node10" class="node"><title>Node10</title>
<g id="a_node10"><a xlink:href="../../de/d41/classauthoring_1_1controller_1_1_authoring_controller.html#a8efc17f104f4df42f385e8c7b25831e0" target="_top" xlink:title="authoring.controller.Authoring\lController.initializeView">
<polygon fill="white" stroke="black" points="683.5,-122 683.5,-152 842.5,-152 842.5,-122 683.5,-122"/>
<text text-anchor="start" x="691.5" y="-140" font-family="Helvetica,sans-Serif" font-size="10.00">authoring.controller.Authoring</text>
<text text-anchor="middle" x="763" y="-129" font-family="Helvetica,sans-Serif" font-size="10.00">Controller.initializeView</text>
</a>
</g>
</g>
<!-- Node9&#45;&gt;Node10 -->
<g id="edge9" class="edge"><title>Node9&#45;&gt;Node10</title>
<path fill="none" stroke="midnightblue" d="M625.177,-151.618C644.536,-149.55 664.641,-147.402 683.288,-145.409"/>
<polygon fill="midnightblue" stroke="midnightblue" points="624.705,-148.148 615.133,-152.691 625.448,-155.109 624.705,-148.148"/>
</g>
<!-- Node11 -->
<g id="node11" class="node"><title>Node11</title>
<g id="a_node11"><a xlink:href="../../de/d41/classauthoring_1_1controller_1_1_authoring_controller.html#aa2e89dc7481c1e7deea1919eae007119" target="_top" xlink:title="authoring.controller.Authoring\lController.AuthoringController">
<polygon fill="white" stroke="black" points="904.5,-122 904.5,-152 1063.5,-152 1063.5,-122 904.5,-122"/>
<text text-anchor="start" x="912.5" y="-140" font-family="Helvetica,sans-Serif" font-size="10.00">authoring.controller.Authoring</text>
<text text-anchor="middle" x="984" y="-129" font-family="Helvetica,sans-Serif" font-size="10.00">Controller.AuthoringController</text>
</a>
</g>
</g>
<!-- Node10&#45;&gt;Node11 -->
<g id="edge10" class="edge"><title>Node10&#45;&gt;Node11</title>
<path fill="none" stroke="midnightblue" d="M853.178,-137C870.081,-137 887.654,-137 904.209,-137"/>
<polygon fill="midnightblue" stroke="midnightblue" points="852.755,-133.5 842.755,-137 852.755,-140.5 852.755,-133.5"/>
</g>
<!-- Node12&#45;&gt;Node10 -->
<g id="edge12" class="edge"><title>Node12&#45;&gt;Node10</title>
<path fill="none" stroke="midnightblue" d="M616.533,-122.08C638.463,-124.329 661.812,-126.724 683.239,-128.922"/>
<polygon fill="midnightblue" stroke="midnightblue" points="616.875,-118.597 606.57,-121.058 616.16,-125.561 616.875,-118.597"/>
</g>
<!-- Node15 -->
<g id="node15" class="node"><title>Node15</title>
<g id="a_node15"><a xlink:href="../../d2/dc9/classgame_player_1_1model_1_1_player_model.html#aca9302c5af4ce0e4dc9d7d5a13d49e64" target="_top" xlink:title="gamePlayer.model.PlayerModel.add\lFileNameChangeListener">
<polygon fill="white" stroke="black" points="433,-49 433,-79 621,-79 621,-49 433,-49"/>
<text text-anchor="start" x="441" y="-67" font-family="Helvetica,sans-Serif" font-size="10.00">gamePlayer.model.PlayerModel.add</text>
<text text-anchor="middle" x="527" y="-56" font-family="Helvetica,sans-Serif" font-size="10.00">FileNameChangeListener</text>
</a>
</g>
</g>
<!-- Node14&#45;&gt;Node15 -->
<g id="edge15" class="edge"><title>Node14&#45;&gt;Node15</title>
<path fill="none" stroke="midnightblue" d="M406.094,-64C415.05,-64 424.075,-64 432.936,-64"/>
<polygon fill="midnightblue" stroke="midnightblue" points="406.023,-60.5001 396.023,-64 406.023,-67.5001 406.023,-60.5001"/>
</g>
<!-- Node17 -->
<g id="node17" class="node"><title>Node17</title>
<g id="a_node17"><a xlink:href="../../d2/dc9/classgame_player_1_1model_1_1_player_model.html#a810c0b28ae81f5a27c5df5f83f907088" target="_top" xlink:title="gamePlayer.model.PlayerModel.load\lGameFile">
<polygon fill="white" stroke="black" points="432,-0 432,-30 622,-30 622,-0 432,-0"/>
<text text-anchor="start" x="440" y="-18" font-family="Helvetica,sans-Serif" font-size="10.00">gamePlayer.model.PlayerModel.load</text>
<text text-anchor="middle" x="527" y="-7" font-family="Helvetica,sans-Serif" font-size="10.00">GameFile</text>
</a>
</g>
</g>
<!-- Node14&#45;&gt;Node17 -->
<g id="edge17" class="edge"><title>Node14&#45;&gt;Node17</title>
<path fill="none" stroke="midnightblue" d="M380.562,-46.8146C405.61,-41.3353 433.115,-35.3185 457.4,-30.0062"/>
<polygon fill="midnightblue" stroke="midnightblue" points="379.751,-43.4092 370.73,-48.9654 381.247,-50.2475 379.751,-43.4092"/>
</g>
<!-- Node16 -->
<g id="node16" class="node"><title>Node16</title>
<g id="a_node16"><a xlink:href="../../d2/dc9/classgame_player_1_1model_1_1_player_model.html#ad762a1aa11a0f489413712d8dab91419" target="_top" xlink:title="gamePlayer.model.PlayerModel.\lPlayerModel">
<polygon fill="white" stroke="black" points="678,-49 678,-79 848,-79 848,-49 678,-49"/>
<text text-anchor="start" x="686" y="-67" font-family="Helvetica,sans-Serif" font-size="10.00">gamePlayer.model.PlayerModel.</text>
<text text-anchor="middle" x="763" y="-56" font-family="Helvetica,sans-Serif" font-size="10.00">PlayerModel</text>
</a>
</g>
</g>
<!-- Node15&#45;&gt;Node16 -->
<g id="edge16" class="edge"><title>Node15&#45;&gt;Node16</title>
<path fill="none" stroke="midnightblue" d="M631.326,-64C646.892,-64 662.785,-64 677.883,-64"/>
<polygon fill="midnightblue" stroke="midnightblue" points="631.155,-60.5001 621.155,-64 631.155,-67.5001 631.155,-60.5001"/>
</g>
<!-- Node18 -->
<g id="node18" class="node"><title>Node18</title>
<g id="a_node18"><a xlink:href="../../d9/dff/classgame_player_1_1view_1_1_menu_bar_controller.html#af1f1b493dce9b79a0f464c4f1a6dfd09" target="_top" xlink:title="gamePlayer.view.MenuBarController.load\lGameFile">
<polygon fill="white" stroke="black" points="658,-0 658,-30 868,-30 868,-0 658,-0"/>
<text text-anchor="start" x="666" y="-18" font-family="Helvetica,sans-Serif" font-size="10.00">gamePlayer.view.MenuBarController.load</text>
<text text-anchor="middle" x="763" y="-7" font-family="Helvetica,sans-Serif" font-size="10.00">GameFile</text>
</a>
</g>
</g>
<!-- Node17&#45;&gt;Node18 -->
<g id="edge18" class="edge"><title>Node17&#45;&gt;Node18</title>
<path fill="none" stroke="midnightblue" d="M632.365,-15C640.772,-15 649.267,-15 657.674,-15"/>
<polygon fill="midnightblue" stroke="midnightblue" points="632.165,-11.5001 622.165,-15 632.165,-18.5001 632.165,-11.5001"/>
</g>
</g>
</svg>
        <g id="navigator" transform="translate(0 0)" fill="#404254">
                <rect fill="#f2f5e9" fill-opacity="0.5" stroke="#606060" stroke-width=".5" x="0" y="0" width="60" height="60"/>
                <use id="zoomplus" xlink:href="#zoomPlus" x="17" y="9" onmousedown="handleZoom(evt,'in')"/>
                <use id="zoomminus" xlink:href="#zoomMin" x="42" y="9" onmousedown="handleZoom(evt,'out')"/>
                <use id="reset" xlink:href="#resetDef" x="30" y="36" onmousedown="handleReset()"/>
                <g id="arrowUp" xlink:href="#dirArrow" transform="translate(30 24)" onmousedown="handlePan(0,-1)">
                  <use xlink:href="#rim" fill="#404040">
                        <set attributeName="fill" to="#808080" begin="arrowUp.mouseover" end="arrowUp.mouseout"/>
                  </use>
                  <path fill="none" stroke="white" stroke-width="1.5" d="M0,-3.0v7 M-2.5,-0.5L0,-3.0L2.5,-0.5"/>
                </g>
                <g id="arrowRight" xlink:href="#dirArrow" transform="rotate(90) translate(36 -43)" onmousedown="handlePan(1,0)">
                  <use xlink:href="#rim" fill="#404040">
                        <set attributeName="fill" to="#808080" begin="arrowRight.mouseover" end="arrowRight.mouseout"/>
                  </use>
                  <path fill="none" stroke="white" stroke-width="1.5" d="M0,-3.0v7 M-2.5,-0.5L0,-3.0L2.5,-0.5"/>
                </g>
                <g id="arrowDown" xlink:href="#dirArrow" transform="rotate(180) translate(-30 -48)" onmousedown="handlePan(0,1)">
                  <use xlink:href="#rim" fill="#404040">
                        <set attributeName="fill" to="#808080" begin="arrowDown.mouseover" end="arrowDown.mouseout"/>
                  </use>
                  <path fill="none" stroke="white" stroke-width="1.5" d="M0,-3.0v7 M-2.5,-0.5L0,-3.0L2.5,-0.5"/>
                </g>
                <g id="arrowLeft" xlink:href="#dirArrow" transform="rotate(270) translate(-36 17)" onmousedown="handlePan(-1,0)">
                  <use xlink:href="#rim" fill="#404040">
                        <set attributeName="fill" to="#808080" begin="arrowLeft.mouseover" end="arrowLeft.mouseout"/>
                  </use>
                  <path fill="none" stroke="white" stroke-width="1.5" d="M0,-3.0v7 M-2.5,-0.5L0,-3.0L2.5,-0.5"/>
                </g>
        </g>
        <svg viewBox="0 0 15 15" width="100%" height="30px" preserveAspectRatio="xMaxYMin meet">
         <g id="arrow_out" transform="scale(0.3 0.3)">
          <a xlink:href="classauthoring_1_1model_1_1_game_data_a5188274f1af76c8d2e05a7c8dcba3805_icgraph_org.svg" target="_base">
           <rect id="button" ry="5" rx="5" y="6" x="6" height="38" width="38"
                fill="#f2f5e9" fill-opacity="0.5" stroke="#606060" stroke-width="1.0"/>
           <path id="arrow"
             d="M 11.500037,31.436501 C 11.940474,20.09759 22.043105,11.32322 32.158766,21.979434 L 37.068811,17.246167 C 37.068811,17.246167 37.088388,32 37.088388,32 L 22.160133,31.978069 C 22.160133,31.978069 26.997745,27.140456 26.997745,27.140456 C 18.528582,18.264221 13.291696,25.230495 11.500037,31.436501 z"
             style="fill:#404040;"/>
          </a>
         </g>
        </svg>
</svg>
