<?xml version="1.0" encoding="UTF-8" standalone="no"?>
<!DOCTYPE svg PUBLIC "-//W3C//DTD SVG 1.1//EN"
 "http://www.w3.org/Graphics/SVG/1.1/DTD/svg11.dtd">
<!-- Generated by graphviz version 2.36.0 (20140111.2315)
 -->
<!-- Title: authoring.view.wizards.ActionChoiceWizard Pages: 1 -->
<svg width="790pt" height="203pt"
 viewBox="0.00 0.00 790.00 203.00" xmlns="http://www.w3.org/2000/svg" xmlns:xlink="http://www.w3.org/1999/xlink">
<g id="graph0" class="graph" transform="scale(1 1) rotate(0) translate(4 199)">
<title>authoring.view.wizards.ActionChoiceWizard</title>
<polygon fill="white" stroke="none" points="-4,4 -4,-199 786,-199 786,4 -4,4"/>
<!-- Node1 -->
<g id="node1" class="node"><title>Node1</title>
<polygon fill="#bfbfbf" stroke="black" points="626,-83 626,-113 782,-113 782,-83 626,-83"/>
<text text-anchor="start" x="634" y="-101" font-family="Helvetica,sans-Serif" font-size="10.00">authoring.view.wizards.Action</text>
<text text-anchor="middle" x="704" y="-90" font-family="Helvetica,sans-Serif" font-size="10.00">ChoiceWizard</text>
</g>
<!-- Node2 -->
<g id="node2" class="node"><title>Node2</title>
<g id="a_node2"><a xlink:href="../../d6/d32/classauthoring_1_1view_1_1wizards_1_1_wizard.html" target="_top" xlink:title="authoring.view.wizards.Wizard">
<polygon fill="white" stroke="black" points="376,-114.5 376,-133.5 534,-133.5 534,-114.5 376,-114.5"/>
<text text-anchor="middle" x="455" y="-121.5" font-family="Helvetica,sans-Serif" font-size="10.00">authoring.view.wizards.Wizard</text>
</a>
</g>
</g>
<!-- Node2&#45;&gt;Node1 -->
<g id="edge1" class="edge"><title>Node2&#45;&gt;Node1</title>
<path fill="none" stroke="midnightblue" d="M544.235,-114.712C570.879,-111.908 599.912,-108.851 625.779,-106.129"/>
<polygon fill="midnightblue" stroke="midnightblue" points="543.731,-111.246 534.152,-115.773 544.464,-118.207 543.731,-111.246"/>
</g>
<!-- Node3 -->
<g id="node3" class="node"><title>Node3</title>
<polygon fill="white" stroke="#bfbfbf" points="90.5,-175.5 90.5,-194.5 135.5,-194.5 135.5,-175.5 90.5,-175.5"/>
<text text-anchor="middle" x="113" y="-182.5" font-family="Helvetica,sans-Serif" font-size="10.00">Stage</text>
</g>
<!-- Node3&#45;&gt;Node2 -->
<g id="edge2" class="edge"><title>Node3&#45;&gt;Node2</title>
<path fill="none" stroke="midnightblue" d="M145.814,-181.691C192.596,-176.544 282.567,-165.564 358,-150 379.815,-145.499 404.021,-138.932 422.669,-133.524"/>
<polygon fill="midnightblue" stroke="midnightblue" points="145.26,-178.231 135.696,-182.788 146.014,-185.19 145.26,-178.231"/>
</g>
<!-- Node4 -->
<g id="node4" class="node"><title>Node4</title>
<polygon fill="white" stroke="#bfbfbf" points="92.5,-81.5 92.5,-100.5 133.5,-100.5 133.5,-81.5 92.5,-81.5"/>
<text text-anchor="middle" x="113" y="-88.5" font-family="Helvetica,sans-Serif" font-size="10.00">VBox</text>
</g>
<!-- Node4&#45;&gt;Node2 -->
<g id="edge3" class="edge"><title>Node4&#45;&gt;Node2</title>
<path fill="none" stroke="#9a32cd" stroke-dasharray="5,2" d="M143.844,-93.8967C195.242,-98.8852 302.042,-109.251 375.843,-116.414"/>
<polygon fill="#9a32cd" stroke="#9a32cd" points="144.041,-90.3994 133.749,-92.9169 143.365,-97.3666 144.041,-90.3994"/>
<text text-anchor="middle" x="301" y="-118" font-family="Helvetica,sans-Serif" font-size="10.00"> myWindow</text>
</g>
<!-- Node6 -->
<g id="node6" class="node"><title>Node6</title>
<g id="a_node6"><a xlink:href="../../d4/d31/classauthoring_1_1view_1_1wizards_1_1_action_choices_v_box.html" target="_top" xlink:title="authoring.view.wizards.Action\lChoicesVBox">
<polygon fill="white" stroke="black" points="377,-39 377,-69 533,-69 533,-39 377,-39"/>
<text text-anchor="start" x="385" y="-57" font-family="Helvetica,sans-Serif" font-size="10.00">authoring.view.wizards.Action</text>
<text text-anchor="middle" x="455" y="-46" font-family="Helvetica,sans-Serif" font-size="10.00">ChoicesVBox</text>
</a>
</g>
</g>
<!-- Node4&#45;&gt;Node6 -->
<g id="edge6" class="edge"><title>Node4&#45;&gt;Node6</title>
<path fill="none" stroke="midnightblue" d="M143.895,-87.7467C195.566,-82.1237 303.122,-70.4191 376.933,-62.3867"/>
<polygon fill="midnightblue" stroke="midnightblue" points="143.312,-84.2894 133.749,-88.8508 144.069,-91.2483 143.312,-84.2894"/>
</g>
<!-- Node5 -->
<g id="node5" class="node"><title>Node5</title>
<polygon fill="white" stroke="#bfbfbf" points="0.5,-126 0.5,-156 225.5,-156 225.5,-126 0.5,-126"/>
<text text-anchor="start" x="8.5" y="-144" font-family="Helvetica,sans-Serif" font-size="10.00">Map&lt; String, authoring.view.propertiesview.</text>
<text text-anchor="middle" x="113" y="-133" font-family="Helvetica,sans-Serif" font-size="10.00">PropertyTextField &gt;</text>
</g>
<!-- Node5&#45;&gt;Node2 -->
<g id="edge4" class="edge"><title>Node5&#45;&gt;Node2</title>
<path fill="none" stroke="#9a32cd" stroke-dasharray="5,2" d="M235.959,-134.902C282.522,-132.574 334.324,-129.984 375.749,-127.913"/>
<polygon fill="#9a32cd" stroke="#9a32cd" points="235.612,-131.415 225.8,-135.41 235.962,-138.406 235.612,-131.415"/>
<text text-anchor="middle" x="301" y="-138" font-family="Helvetica,sans-Serif" font-size="10.00"> myMap</text>
</g>
<!-- Node6&#45;&gt;Node1 -->
<g id="edge5" class="edge"><title>Node6&#45;&gt;Node1</title>
<path fill="none" stroke="#9a32cd" stroke-dasharray="5,2" d="M543.288,-69.5494C570.128,-74.3305 599.471,-79.5576 625.599,-84.212"/>
<polygon fill="#9a32cd" stroke="#9a32cd" points="543.595,-66.049 533.136,-67.7409 542.368,-72.9405 543.595,-66.049"/>
<text text-anchor="middle" x="580" y="-83" font-family="Helvetica,sans-Serif" font-size="10.00"> myChoices</text>
</g>
<!-- Node7 -->
<g id="node7" class="node"><title>Node7</title>
<polygon fill="white" stroke="#bfbfbf" points="66.5,-38.5 66.5,-57.5 159.5,-57.5 159.5,-38.5 66.5,-38.5"/>
<text text-anchor="middle" x="113" y="-45.5" font-family="Helvetica,sans-Serif" font-size="10.00">ResourceBundle</text>
</g>
<!-- Node7&#45;&gt;Node6 -->
<g id="edge7" class="edge"><title>Node7&#45;&gt;Node6</title>
<path fill="none" stroke="#9a32cd" stroke-dasharray="5,2" d="M170.05,-47.4673C219.514,-47.1792 293.561,-47.1909 358,-49 364.173,-49.1733 370.566,-49.4009 376.988,-49.6636"/>
<polygon fill="#9a32cd" stroke="#9a32cd" points="169.858,-43.9684 159.881,-47.5328 169.903,-50.9683 169.858,-43.9684"/>
<text text-anchor="middle" x="301" y="-52" font-family="Helvetica,sans-Serif" font-size="10.00"> ACTIONS_PARAMETERS</text>
</g>
<!-- Node8 -->
<g id="node8" class="node"><title>Node8</title>
<polygon fill="white" stroke="#bfbfbf" points="75,-0.5 75,-19.5 151,-19.5 151,-0.5 75,-0.5"/>
<text text-anchor="middle" x="113" y="-7.5" font-family="Helvetica,sans-Serif" font-size="10.00">ToggleGroup</text>
</g>
<!-- Node8&#45;&gt;Node6 -->
<g id="edge8" class="edge"><title>Node8&#45;&gt;Node6</title>
<path fill="none" stroke="#9a32cd" stroke-dasharray="5,2" d="M161.433,-12.7602C210.754,-16.0299 290.099,-22.4131 358,-33 368.536,-34.6427 379.649,-36.735 390.43,-38.9594"/>
<polygon fill="#9a32cd" stroke="#9a32cd" points="161.584,-9.26273 151.379,-12.1093 161.132,-16.2481 161.584,-9.26273"/>
<text text-anchor="middle" x="301" y="-36" font-family="Helvetica,sans-Serif" font-size="10.00"> myToggleGroup</text>
</g>
</g>
</svg>
