<?xml version="1.0" encoding="UTF-8" standalone="no"?>
<!DOCTYPE svg PUBLIC "-//W3C//DTD SVG 1.1//EN"
 "http://www.w3.org/Graphics/SVG/1.1/DTD/svg11.dtd">
<!-- Generated by graphviz version 2.36.0 (20140111.2315)
 -->
<!-- Title: data.Observer Pages: 1 -->
<svg width="304pt" height="332pt"
 viewBox="0.00 0.00 304.00 332.00" xmlns="http://www.w3.org/2000/svg" xmlns:xlink="http://www.w3.org/1999/xlink">
<g id="graph0" class="graph" transform="scale(1 1) rotate(0) translate(4 328)">
<title>data.Observer</title>
<polygon fill="white" stroke="none" points="-4,4 -4,-328 300,-328 300,4 -4,4"/>
<!-- Node1 -->
<g id="node1" class="node"><title>Node1</title>
<polygon fill="#bfbfbf" stroke="black" points="0.5,-152.5 0.5,-171.5 85.5,-171.5 85.5,-152.5 0.5,-152.5"/>
<text text-anchor="middle" x="43" y="-159.5" font-family="Helvetica,sans-Serif" font-size="10.00">data.Observer</text>
</g>
<!-- Node2 -->
<g id="node2" class="node"><title>Node2</title>
<g id="a_node2"><a xlink:href="../../d0/db6/classauthoring_1_1view_1_1conditionsview_1_1_conditions_accordion_view.html" target="_top" xlink:title="authoring.view.conditionsview.\lConditionsAccordionView">
<polygon fill="white" stroke="black" points="129.5,-294 129.5,-324 288.5,-324 288.5,-294 129.5,-294"/>
<text text-anchor="start" x="137.5" y="-312" font-family="Helvetica,sans-Serif" font-size="10.00">authoring.view.conditionsview.</text>
<text text-anchor="middle" x="209" y="-301" font-family="Helvetica,sans-Serif" font-size="10.00">ConditionsAccordionView</text>
</a>
</g>
</g>
<!-- Node1&#45;&gt;Node2 -->
<g id="edge1" class="edge"><title>Node1&#45;&gt;Node2</title>
<path fill="none" stroke="midnightblue" d="M51.1073,-181.059C62.1357,-208.019 85.9288,-257.007 122,-284 127.104,-287.819 132.779,-291.057 138.711,-293.8"/>
<polygon fill="midnightblue" stroke="midnightblue" points="54.3027,-179.621 47.3914,-171.591 47.7865,-182.178 54.3027,-179.621"/>
</g>
<!-- Node3 -->
<g id="node3" class="node"><title>Node3</title>
<g id="a_node3"><a xlink:href="../../df/d83/classauthoring_1_1view_1_1gameobjectsview_1_1_game_objects_view.html" target="_top" xlink:title="authoring.view.gameobjectsview.\lGameObjectsView">
<polygon fill="white" stroke="black" points="122.5,-245 122.5,-275 295.5,-275 295.5,-245 122.5,-245"/>
<text text-anchor="start" x="130.5" y="-263" font-family="Helvetica,sans-Serif" font-size="10.00">authoring.view.gameobjectsview.</text>
<text text-anchor="middle" x="209" y="-252" font-family="Helvetica,sans-Serif" font-size="10.00">GameObjectsView</text>
</a>
</g>
</g>
<!-- Node1&#45;&gt;Node3 -->
<g id="edge2" class="edge"><title>Node1&#45;&gt;Node3</title>
<path fill="none" stroke="midnightblue" d="M58.2374,-179.406C72.6735,-195.971 96.4711,-220.464 122,-235 128.756,-238.847 136.153,-242.144 143.684,-244.961"/>
<polygon fill="midnightblue" stroke="midnightblue" points="60.7202,-176.922 51.582,-171.561 55.3823,-181.45 60.7202,-176.922"/>
</g>
<!-- Node4 -->
<g id="node4" class="node"><title>Node4</title>
<g id="a_node4"><a xlink:href="../../d6/d5f/classauthoring_1_1view_1_1graphicsview_1_1_images_view.html" target="_top" xlink:title="authoring.view.graphicsview.\lImagesView">
<polygon fill="white" stroke="black" points="133.5,-196 133.5,-226 284.5,-226 284.5,-196 133.5,-196"/>
<text text-anchor="start" x="141.5" y="-214" font-family="Helvetica,sans-Serif" font-size="10.00">authoring.view.graphicsview.</text>
<text text-anchor="middle" x="209" y="-203" font-family="Helvetica,sans-Serif" font-size="10.00">ImagesView</text>
</a>
</g>
</g>
<!-- Node1&#45;&gt;Node4 -->
<g id="edge3" class="edge"><title>Node1&#45;&gt;Node4</title>
<path fill="none" stroke="midnightblue" d="M84.5099,-174.596C96.5624,-178.308 109.805,-182.352 122,-186 132.874,-189.253 144.54,-192.684 155.661,-195.927"/>
<polygon fill="midnightblue" stroke="midnightblue" points="85.3023,-171.178 74.7148,-171.572 83.2372,-177.866 85.3023,-171.178"/>
</g>
<!-- Node5 -->
<g id="node5" class="node"><title>Node5</title>
<g id="a_node5"><a xlink:href="../../d9/d7c/classauthoring_1_1view_1_1levelview_1_1_levels_accordion_view.html" target="_top" xlink:title="authoring.view.levelview.\lLevelsAccordionView">
<polygon fill="white" stroke="black" points="143,-147 143,-177 275,-177 275,-147 143,-147"/>
<text text-anchor="start" x="151" y="-165" font-family="Helvetica,sans-Serif" font-size="10.00">authoring.view.levelview.</text>
<text text-anchor="middle" x="209" y="-154" font-family="Helvetica,sans-Serif" font-size="10.00">LevelsAccordionView</text>
</a>
</g>
</g>
<!-- Node1&#45;&gt;Node5 -->
<g id="edge4" class="edge"><title>Node1&#45;&gt;Node5</title>
<path fill="none" stroke="midnightblue" d="M95.8846,-162C110.84,-162 127.348,-162 142.992,-162"/>
<polygon fill="midnightblue" stroke="midnightblue" points="95.8085,-158.5 85.8085,-162 95.8084,-165.5 95.8085,-158.5"/>
</g>
<!-- Node6 -->
<g id="node6" class="node"><title>Node6</title>
<g id="a_node6"><a xlink:href="../../d4/d04/classauthoring_1_1view_1_1levelview_1_1_levels_view.html" target="_top" xlink:title="authoring.view.levelview.\lLevelsView">
<polygon fill="white" stroke="black" points="143,-98 143,-128 275,-128 275,-98 143,-98"/>
<text text-anchor="start" x="151" y="-116" font-family="Helvetica,sans-Serif" font-size="10.00">authoring.view.levelview.</text>
<text text-anchor="middle" x="209" y="-105" font-family="Helvetica,sans-Serif" font-size="10.00">LevelsView</text>
</a>
</g>
</g>
<!-- Node1&#45;&gt;Node6 -->
<g id="edge5" class="edge"><title>Node1&#45;&gt;Node6</title>
<path fill="none" stroke="midnightblue" d="M84.5099,-149.404C96.5624,-145.692 109.805,-141.648 122,-138 132.874,-134.747 144.54,-131.316 155.661,-128.073"/>
<polygon fill="midnightblue" stroke="midnightblue" points="83.2372,-146.134 74.7148,-152.428 85.3023,-152.822 83.2372,-146.134"/>
</g>
<!-- Node7 -->
<g id="node7" class="node"><title>Node7</title>
<g id="a_node7"><a xlink:href="../../d1/d00/classauthoring_1_1view_1_1levelview_1_1_single_level_view.html" target="_top" xlink:title="authoring.view.levelview.\lSingleLevelView">
<polygon fill="white" stroke="black" points="143,-49 143,-79 275,-79 275,-49 143,-49"/>
<text text-anchor="start" x="151" y="-67" font-family="Helvetica,sans-Serif" font-size="10.00">authoring.view.levelview.</text>
<text text-anchor="middle" x="209" y="-56" font-family="Helvetica,sans-Serif" font-size="10.00">SingleLevelView</text>
</a>
</g>
</g>
<!-- Node1&#45;&gt;Node7 -->
<g id="edge6" class="edge"><title>Node1&#45;&gt;Node7</title>
<path fill="none" stroke="midnightblue" d="M58.2374,-144.594C72.6735,-128.029 96.4711,-103.536 122,-89 128.756,-85.1533 136.153,-81.8556 143.684,-79.0391"/>
<polygon fill="midnightblue" stroke="midnightblue" points="55.3823,-142.55 51.582,-152.439 60.7202,-147.078 55.3823,-142.55"/>
</g>
<!-- Node8 -->
<g id="node8" class="node"><title>Node8</title>
<g id="a_node8"><a xlink:href="../../d5/da2/classauthoring_1_1view_1_1soundsview_1_1_sounds_view.html" target="_top" xlink:title="authoring.view.soundsview.\lSoundsView">
<polygon fill="white" stroke="black" points="136.5,-0 136.5,-30 281.5,-30 281.5,-0 136.5,-0"/>
<text text-anchor="start" x="144.5" y="-18" font-family="Helvetica,sans-Serif" font-size="10.00">authoring.view.soundsview.</text>
<text text-anchor="middle" x="209" y="-7" font-family="Helvetica,sans-Serif" font-size="10.00">SoundsView</text>
</a>
</g>
</g>
<!-- Node1&#45;&gt;Node8 -->
<g id="edge7" class="edge"><title>Node1&#45;&gt;Node8</title>
<path fill="none" stroke="midnightblue" d="M51.1073,-142.941C62.1357,-115.981 85.9288,-66.9928 122,-40 127.104,-36.1805 132.779,-32.9432 138.711,-30.1996"/>
<polygon fill="midnightblue" stroke="midnightblue" points="47.7865,-141.822 47.3914,-152.409 54.3027,-144.379 47.7865,-141.822"/>
</g>
</g>
</svg>
