<?xml version="1.0" encoding="UTF-8" standalone="no"?>
<!DOCTYPE svg PUBLIC "-//W3C//DTD SVG 1.1//EN"
 "http://www.w3.org/Graphics/SVG/1.1/DTD/svg11.dtd">
<!-- Generated by graphviz version 2.36.0 (20140111.2315)
 -->
<!-- Title: authoring.eventhandlers.AddActionHandler.handle Pages: 1 -->
<!--zoomable 254 -->
<svg id="main" version="1.1" xmlns="http://www.w3.org/2000/svg" xmlns:xlink="http://www.w3.org/1999/xlink" xml:space="preserve" onload="init(evt)">
<style type="text/css"><![CDATA[
.edge:hover path { stroke: red; }
.edge:hover polygon { stroke: red; fill: red; }
]]></style>
<script type="text/javascript"><![CDATA[
var edges = document.getElementsByTagName('g');
if (edges && edges.length) {
  for (var i=0;i<edges.length;i++) {
    if (edges[i].id.substr(0,4)=='edge') {
      edges[i].setAttribute('class','edge');
    }
  }
}
]]></script>
        <defs>
                <circle id="rim" cx="0" cy="0" r="7"/>
                <circle id="rim2" cx="0" cy="0" r="3.5"/>
                <g id="zoomPlus">
                        <use xlink:href="#rim" fill="#404040">
                                <set attributeName="fill" to="#808080" begin="zoomplus.mouseover" end="zoomplus.mouseout"/>
                        </use>
                        <path d="M-4,0h8M0,-4v8" fill="none" stroke="white" stroke-width="1.5" pointer-events="none"/>
                </g>
                <g id="zoomMin">
                        <use xlink:href="#rim" fill="#404040">
                                <set attributeName="fill" to="#808080" begin="zoomminus.mouseover" end="zoomminus.mouseout"/>
                        </use>
                        <path d="M-4,0h8" fill="none" stroke="white" stroke-width="1.5" pointer-events="none"/>
                </g>
                <g id="dirArrow">
                        <path fill="none" stroke="white" stroke-width="1.5" d="M0,-3.0v7 M-2.5,-0.5L0,-3.0L2.5,-0.5"/>
                </g>
               <g id="resetDef">
                       <use xlink:href="#rim2" fill="#404040">
                               <set attributeName="fill" to="#808080" begin="reset.mouseover" end="reset.mouseout"/>
                       </use>
               </g>
        </defs>

<script type="text/javascript">
var viewWidth = 1146;
var viewHeight = 254;
var sectionId = 'dynsection-8';
</script>
<script xlink:href="../../svgpan.js"/>
<svg id="graph" class="graph">
<g id="viewport">
<title>authoring.eventhandlers.AddActionHandler.handle</title>
<polygon fill="white" stroke="none" points="-4,4 -4,-250 1142,-250 1142,4 -4,4"/>
<!-- Node1 -->
<g id="node1" class="node"><title>Node1</title>
<polygon fill="#bfbfbf" stroke="black" points="0.5,-120 0.5,-150 137.5,-150 137.5,-120 0.5,-120"/>
<text text-anchor="start" x="8.5" y="-138" font-family="Helvetica,sans-Serif" font-size="10.00">authoring.eventhandlers.</text>
<text text-anchor="middle" x="69" y="-127" font-family="Helvetica,sans-Serif" font-size="10.00">AddActionHandler.handle</text>
</g>
<!-- Node2 -->
<g id="node2" class="node"><title>Node2</title>
<g id="a_node2"><a xlink:href="../../d9/da4/classauthoring_1_1eventhandlers_1_1_add_action_handler.html#a9b96685d69e045a901bc1b55bc3fd327" target="_top" xlink:title="authoring.eventhandlers.\lAddActionHandler.createAction">
<polygon fill="white" stroke="black" points="174,-120 174,-150 340,-150 340,-120 174,-120"/>
<text text-anchor="start" x="182" y="-138" font-family="Helvetica,sans-Serif" font-size="10.00">authoring.eventhandlers.</text>
<text text-anchor="middle" x="257" y="-127" font-family="Helvetica,sans-Serif" font-size="10.00">AddActionHandler.createAction</text>
</a>
</g>
</g>
<!-- Node1&#45;&gt;Node2 -->
<g id="edge1" class="edge"><title>Node1&#45;&gt;Node2</title>
<path fill="none" stroke="midnightblue" d="M137.676,-135C146.113,-135 154.85,-135 163.58,-135"/>
<polygon fill="midnightblue" stroke="midnightblue" points="163.808,-138.5 173.808,-135 163.807,-131.5 163.808,-138.5"/>
</g>
<!-- Node3 -->
<g id="node3" class="node"><title>Node3</title>
<g id="a_node3"><a xlink:href="../../de/d50/classerrors_and_exceptions_1_1_error_pop_up.html#a879c9fa857c162edfab75ecf1558c944" target="_top" xlink:title="errorsAndExceptions.Error\lPopUp.display">
<polygon fill="white" stroke="black" points="818,-191 818,-221 960,-221 960,-191 818,-191"/>
<text text-anchor="start" x="826" y="-209" font-family="Helvetica,sans-Serif" font-size="10.00">errorsAndExceptions.Error</text>
<text text-anchor="middle" x="889" y="-198" font-family="Helvetica,sans-Serif" font-size="10.00">PopUp.display</text>
</a>
</g>
</g>
<!-- Node2&#45;&gt;Node3 -->
<g id="edge2" class="edge"><title>Node2&#45;&gt;Node3</title>
<path fill="none" stroke="midnightblue" d="M307.377,-150.045C370.718,-168.486 484.315,-198.681 584,-210 671.438,-219.928 694.016,-211.659 782,-210 790.337,-209.843 799.042,-209.616 807.722,-209.349"/>
<polygon fill="midnightblue" stroke="midnightblue" points="807.997,-212.842 817.878,-209.019 807.77,-205.846 807.997,-212.842"/>
</g>
<!-- Node6 -->
<g id="node6" class="node"><title>Node6</title>
<g id="a_node6"><a xlink:href="../../d9/da4/classauthoring_1_1eventhandlers_1_1_add_action_handler.html#a79570c2754dca122253b410d98017bd5" target="_top" xlink:title="authoring.eventhandlers.\lAddActionHandler.finishAction">
<polygon fill="white" stroke="black" points="382,-120 382,-150 542,-150 542,-120 382,-120"/>
<text text-anchor="start" x="390" y="-138" font-family="Helvetica,sans-Serif" font-size="10.00">authoring.eventhandlers.</text>
<text text-anchor="middle" x="462" y="-127" font-family="Helvetica,sans-Serif" font-size="10.00">AddActionHandler.finishAction</text>
</a>
</g>
</g>
<!-- Node2&#45;&gt;Node6 -->
<g id="edge5" class="edge"><title>Node2&#45;&gt;Node6</title>
<path fill="none" stroke="midnightblue" d="M340.275,-135C350.686,-135 361.377,-135 371.888,-135"/>
<polygon fill="midnightblue" stroke="midnightblue" points="371.896,-138.5 381.896,-135 371.896,-131.5 371.896,-138.5"/>
</g>
<!-- Node10 -->
<g id="node10" class="node"><title>Node10</title>
<g id="a_node10"><a xlink:href="../../d2/d02/classauthoring_1_1view_1_1wizards_1_1_action_choice_wizard.html#aa2dc1f8614d6d90b0b1fedf46e29d877" target="_top" xlink:title="authoring.view.wizards.Action\lChoiceWizard.getSelectedAction">
<polygon fill="white" stroke="black" points="376.5,-49 376.5,-79 547.5,-79 547.5,-49 376.5,-49"/>
<text text-anchor="start" x="384.5" y="-67" font-family="Helvetica,sans-Serif" font-size="10.00">authoring.view.wizards.Action</text>
<text text-anchor="middle" x="462" y="-56" font-family="Helvetica,sans-Serif" font-size="10.00">ChoiceWizard.getSelectedAction</text>
</a>
</g>
</g>
<!-- Node2&#45;&gt;Node10 -->
<g id="edge11" class="edge"><title>Node2&#45;&gt;Node10</title>
<path fill="none" stroke="midnightblue" d="M301.051,-119.943C332.406,-108.976 375.049,-94.0618 408.419,-82.3902"/>
<polygon fill="midnightblue" stroke="midnightblue" points="409.727,-85.6408 418.011,-79.0356 407.416,-79.0333 409.727,-85.6408"/>
</g>
<!-- Node4 -->
<g id="node4" class="node"><title>Node4</title>
<g id="a_node4"><a xlink:href="../../de/d50/classerrors_and_exceptions_1_1_error_pop_up.html#adecc4a2ab81e607673649e10e6d7da52" target="_top" xlink:title="errorsAndExceptions.Error\lPopUp.createButton">
<polygon fill="white" stroke="black" points="996,-216 996,-246 1138,-246 1138,-216 996,-216"/>
<text text-anchor="start" x="1004" y="-234" font-family="Helvetica,sans-Serif" font-size="10.00">errorsAndExceptions.Error</text>
<text text-anchor="middle" x="1067" y="-223" font-family="Helvetica,sans-Serif" font-size="10.00">PopUp.createButton</text>
</a>
</g>
</g>
<!-- Node3&#45;&gt;Node4 -->
<g id="edge3" class="edge"><title>Node3&#45;&gt;Node4</title>
<path fill="none" stroke="midnightblue" d="M960.066,-215.952C968.54,-217.156 977.247,-218.393 985.852,-219.615"/>
<polygon fill="midnightblue" stroke="midnightblue" points="985.495,-223.1 995.888,-221.041 986.48,-216.169 985.495,-223.1"/>
</g>
<!-- Node5 -->
<g id="node5" class="node"><title>Node5</title>
<g id="a_node5"><a xlink:href="../../de/d50/classerrors_and_exceptions_1_1_error_pop_up.html#a98549e423869b27d7ee3c87270786f60" target="_top" xlink:title="errorsAndExceptions.Error\lPopUp.chooseStageWidth">
<polygon fill="white" stroke="black" points="996,-167 996,-197 1138,-197 1138,-167 996,-167"/>
<text text-anchor="start" x="1004" y="-185" font-family="Helvetica,sans-Serif" font-size="10.00">errorsAndExceptions.Error</text>
<text text-anchor="middle" x="1067" y="-174" font-family="Helvetica,sans-Serif" font-size="10.00">PopUp.chooseStageWidth</text>
</a>
</g>
</g>
<!-- Node3&#45;&gt;Node5 -->
<g id="edge4" class="edge"><title>Node3&#45;&gt;Node5</title>
<path fill="none" stroke="midnightblue" d="M960.066,-196.446C968.54,-195.29 977.247,-194.103 985.852,-192.929"/>
<polygon fill="midnightblue" stroke="midnightblue" points="986.453,-196.38 995.888,-191.561 985.507,-189.444 986.453,-196.38"/>
</g>
<!-- Node6&#45;&gt;Node3 -->
<g id="edge9" class="edge"><title>Node6&#45;&gt;Node3</title>
<path fill="none" stroke="midnightblue" d="M491.421,-150.183C515.378,-162.187 550.945,-178.18 584,-186 658.476,-203.618 745.88,-207.71 807.806,-207.937"/>
<polygon fill="midnightblue" stroke="midnightblue" points="807.903,-211.437 817.904,-207.941 807.906,-204.437 807.903,-211.437"/>
</g>
<!-- Node7 -->
<g id="node7" class="node"><title>Node7</title>
<g id="a_node7"><a xlink:href="../../d1/d3b/classengine_1_1conditions_1_1_condition.html#a02855e132c46ad2e5b6e23cca319deb5" target="_top" xlink:title="engine.conditions.Condition.add\lAction">
<polygon fill="white" stroke="black" points="598,-147 598,-177 768,-177 768,-147 598,-147"/>
<text text-anchor="start" x="606" y="-165" font-family="Helvetica,sans-Serif" font-size="10.00">engine.conditions.Condition.add</text>
<text text-anchor="middle" x="683" y="-154" font-family="Helvetica,sans-Serif" font-size="10.00">Action</text>
</a>
</g>
</g>
<!-- Node6&#45;&gt;Node7 -->
<g id="edge6" class="edge"><title>Node6&#45;&gt;Node7</title>
<path fill="none" stroke="midnightblue" d="M542.064,-144.748C556.939,-146.581 572.627,-148.516 587.907,-150.4"/>
<polygon fill="midnightblue" stroke="midnightblue" points="587.524,-153.879 597.877,-151.629 588.38,-146.931 587.524,-153.879"/>
</g>
<!-- Node8 -->
<g id="node8" class="node"><title>Node8</title>
<g id="a_node8"><a xlink:href="../../d9/da4/classauthoring_1_1eventhandlers_1_1_add_action_handler.html#a64e5293c6eba41df2313e81b59601cb0" target="_top" xlink:title="authoring.eventhandlers.\lAddActionHandler.convertInput\lParameters">
<polygon fill="white" stroke="black" points="600.5,-87.5 600.5,-128.5 765.5,-128.5 765.5,-87.5 600.5,-87.5"/>
<text text-anchor="start" x="608.5" y="-116.5" font-family="Helvetica,sans-Serif" font-size="10.00">authoring.eventhandlers.</text>
<text text-anchor="start" x="608.5" y="-105.5" font-family="Helvetica,sans-Serif" font-size="10.00">AddActionHandler.convertInput</text>
<text text-anchor="middle" x="683" y="-94.5" font-family="Helvetica,sans-Serif" font-size="10.00">Parameters</text>
</a>
</g>
</g>
<!-- Node6&#45;&gt;Node8 -->
<g id="edge7" class="edge"><title>Node6&#45;&gt;Node8</title>
<path fill="none" stroke="midnightblue" d="M542.064,-125.252C557.791,-123.313 574.427,-121.262 590.528,-119.277"/>
<polygon fill="midnightblue" stroke="midnightblue" points="590.975,-122.749 600.472,-118.051 590.119,-115.801 590.975,-122.749"/>
</g>
<!-- Node9 -->
<g id="node9" class="node"><title>Node9</title>
<g id="a_node9"><a xlink:href="../../d6/d32/classauthoring_1_1view_1_1wizards_1_1_wizard.html#a0d419b2943c99507fca42fd769c24b0e" target="_top" xlink:title="authoring.view.wizards.Wizard.getMap">
<polygon fill="white" stroke="black" points="584.5,-49.5 584.5,-68.5 781.5,-68.5 781.5,-49.5 584.5,-49.5"/>
<text text-anchor="middle" x="683" y="-56.5" font-family="Helvetica,sans-Serif" font-size="10.00">authoring.view.wizards.Wizard.getMap</text>
</a>
</g>
</g>
<!-- Node6&#45;&gt;Node9 -->
<g id="edge10" class="edge"><title>Node6&#45;&gt;Node9</title>
<path fill="none" stroke="midnightblue" d="M490.073,-119.85C514.084,-107.003 550.45,-88.9645 584,-78 592.378,-75.2619 601.295,-72.8618 610.207,-70.7735"/>
<polygon fill="midnightblue" stroke="midnightblue" points="611.233,-74.1311 620.237,-68.5469 609.716,-67.2974 611.233,-74.1311"/>
</g>
<!-- Node8&#45;&gt;Node3 -->
<g id="edge8" class="edge"><title>Node8&#45;&gt;Node3</title>
<path fill="none" stroke="midnightblue" d="M758.912,-128.593C766.823,-131.457 774.654,-134.598 782,-138 809.949,-150.944 839.237,-170.234 859.926,-184.966"/>
<polygon fill="midnightblue" stroke="midnightblue" points="858.082,-187.951 868.238,-190.969 862.18,-182.276 858.082,-187.951"/>
</g>
<!-- Node11 -->
<g id="node11" class="node"><title>Node11</title>
<g id="a_node11"><a xlink:href="../../d4/d31/classauthoring_1_1view_1_1wizards_1_1_action_choices_v_box.html#a1ad07a1a06d43384af4406151330781c" target="_top" xlink:title="authoring.view.wizards.Action\lChoicesVBox.getSelected">
<polygon fill="white" stroke="black" points="605,-0 605,-30 761,-30 761,-0 605,-0"/>
<text text-anchor="start" x="613" y="-18" font-family="Helvetica,sans-Serif" font-size="10.00">authoring.view.wizards.Action</text>
<text text-anchor="middle" x="683" y="-7" font-family="Helvetica,sans-Serif" font-size="10.00">ChoicesVBox.getSelected</text>
</a>
</g>
</g>
<!-- Node10&#45;&gt;Node11 -->
<g id="edge12" class="edge"><title>Node10&#45;&gt;Node11</title>
<path fill="none" stroke="midnightblue" d="M530.196,-48.9654C553.844,-43.6741 580.604,-37.6867 604.998,-32.2288"/>
<polygon fill="midnightblue" stroke="midnightblue" points="605.937,-35.6053 614.932,-30.0062 604.409,-28.7742 605.937,-35.6053"/>
</g>
</g>
</svg>
        <g id="navigator" transform="translate(0 0)" fill="#404254">
                <rect fill="#f2f5e9" fill-opacity="0.5" stroke="#606060" stroke-width=".5" x="0" y="0" width="60" height="60"/>
                <use id="zoomplus" xlink:href="#zoomPlus" x="17" y="9" onmousedown="handleZoom(evt,'in')"/>
                <use id="zoomminus" xlink:href="#zoomMin" x="42" y="9" onmousedown="handleZoom(evt,'out')"/>
                <use id="reset" xlink:href="#resetDef" x="30" y="36" onmousedown="handleReset()"/>
                <g id="arrowUp" xlink:href="#dirArrow" transform="translate(30 24)" onmousedown="handlePan(0,-1)">
                  <use xlink:href="#rim" fill="#404040">
                        <set attributeName="fill" to="#808080" begin="arrowUp.mouseover" end="arrowUp.mouseout"/>
                  </use>
                  <path fill="none" stroke="white" stroke-width="1.5" d="M0,-3.0v7 M-2.5,-0.5L0,-3.0L2.5,-0.5"/>
                </g>
                <g id="arrowRight" xlink:href="#dirArrow" transform="rotate(90) translate(36 -43)" onmousedown="handlePan(1,0)">
                  <use xlink:href="#rim" fill="#404040">
                        <set attributeName="fill" to="#808080" begin="arrowRight.mouseover" end="arrowRight.mouseout"/>
                  </use>
                  <path fill="none" stroke="white" stroke-width="1.5" d="M0,-3.0v7 M-2.5,-0.5L0,-3.0L2.5,-0.5"/>
                </g>
                <g id="arrowDown" xlink:href="#dirArrow" transform="rotate(180) translate(-30 -48)" onmousedown="handlePan(0,1)">
                  <use xlink:href="#rim" fill="#404040">
                        <set attributeName="fill" to="#808080" begin="arrowDown.mouseover" end="arrowDown.mouseout"/>
                  </use>
                  <path fill="none" stroke="white" stroke-width="1.5" d="M0,-3.0v7 M-2.5,-0.5L0,-3.0L2.5,-0.5"/>
                </g>
                <g id="arrowLeft" xlink:href="#dirArrow" transform="rotate(270) translate(-36 17)" onmousedown="handlePan(-1,0)">
                  <use xlink:href="#rim" fill="#404040">
                        <set attributeName="fill" to="#808080" begin="arrowLeft.mouseover" end="arrowLeft.mouseout"/>
                  </use>
                  <path fill="none" stroke="white" stroke-width="1.5" d="M0,-3.0v7 M-2.5,-0.5L0,-3.0L2.5,-0.5"/>
                </g>
        </g>
        <svg viewBox="0 0 15 15" width="100%" height="30px" preserveAspectRatio="xMaxYMin meet">
         <g id="arrow_out" transform="scale(0.3 0.3)">
          <a xlink:href="classauthoring_1_1eventhandlers_1_1_add_action_handler_acbb13ad13aa3ac6617d6caaff858abdc_cgraph_org.svg" target="_base">
           <rect id="button" ry="5" rx="5" y="6" x="6" height="38" width="38"
                fill="#f2f5e9" fill-opacity="0.5" stroke="#606060" stroke-width="1.0"/>
           <path id="arrow"
             d="M 11.500037,31.436501 C 11.940474,20.09759 22.043105,11.32322 32.158766,21.979434 L 37.068811,17.246167 C 37.068811,17.246167 37.088388,32 37.088388,32 L 22.160133,31.978069 C 22.160133,31.978069 26.997745,27.140456 26.997745,27.140456 C 18.528582,18.264221 13.291696,25.230495 11.500037,31.436501 z"
             style="fill:#404040;"/>
          </a>
         </g>
        </svg>
</svg>
