<?xml version="1.0" encoding="UTF-8" standalone="no"?>
<!DOCTYPE svg PUBLIC "-//W3C//DTD SVG 1.1//EN"
 "http://www.w3.org/Graphics/SVG/1.1/DTD/svg11.dtd">
<!-- Generated by graphviz version 2.36.0 (20140111.2315)
 -->
<!-- Title: authoring.eventhandlers.AddActionHandler.handle Pages: 1 -->
<!--zoomable 185 -->
<svg id="main" version="1.1" xmlns="http://www.w3.org/2000/svg" xmlns:xlink="http://www.w3.org/1999/xlink" xml:space="preserve" onload="init(evt)">
<style type="text/css"><![CDATA[
.edge:hover path { stroke: red; }
.edge:hover polygon { stroke: red; fill: red; }
]]></style>
<script type="text/javascript"><![CDATA[
var edges = document.getElementsByTagName('g');
if (edges && edges.length) {
  for (var i=0;i<edges.length;i++) {
    if (edges[i].id.substr(0,4)=='edge') {
      edges[i].setAttribute('class','edge');
    }
  }
}
]]></script>
        <defs>
                <circle id="rim" cx="0" cy="0" r="7"/>
                <circle id="rim2" cx="0" cy="0" r="3.5"/>
                <g id="zoomPlus">
                        <use xlink:href="#rim" fill="#404040">
                                <set attributeName="fill" to="#808080" begin="zoomplus.mouseover" end="zoomplus.mouseout"/>
                        </use>
                        <path d="M-4,0h8M0,-4v8" fill="none" stroke="white" stroke-width="1.5" pointer-events="none"/>
                </g>
                <g id="zoomMin">
                        <use xlink:href="#rim" fill="#404040">
                                <set attributeName="fill" to="#808080" begin="zoomminus.mouseover" end="zoomminus.mouseout"/>
                        </use>
                        <path d="M-4,0h8" fill="none" stroke="white" stroke-width="1.5" pointer-events="none"/>
                </g>
                <g id="dirArrow">
                        <path fill="none" stroke="white" stroke-width="1.5" d="M0,-3.0v7 M-2.5,-0.5L0,-3.0L2.5,-0.5"/>
                </g>
               <g id="resetDef">
                       <use xlink:href="#rim2" fill="#404040">
                               <set attributeName="fill" to="#808080" begin="reset.mouseover" end="reset.mouseout"/>
                       </use>
               </g>
        </defs>

<script type="text/javascript">
var viewWidth = 790;
var viewHeight = 185;
var sectionId = 'dynsection-7';
</script>
<script xlink:href="../../svgpan.js"/>
<svg id="graph" class="graph">
<g id="viewport">
<title>authoring.eventhandlers.AddActionHandler.handle</title>
<polygon fill="white" stroke="none" points="-4,4 -4,-181 786,-181 786,4 -4,4"/>
<!-- Node1 -->
<g id="node1" class="node"><title>Node1</title>
<polygon fill="#bfbfbf" stroke="black" points="0.5,-52 0.5,-82 137.5,-82 137.5,-52 0.5,-52"/>
<text text-anchor="start" x="8.5" y="-70" font-family="Helvetica,sans-Serif" font-size="10.00">authoring.eventhandlers.</text>
<text text-anchor="middle" x="69" y="-59" font-family="Helvetica,sans-Serif" font-size="10.00">AddActionHandler.handle</text>
</g>
<!-- Node2 -->
<g id="node2" class="node"><title>Node2</title>
<g id="a_node2"><a xlink:href="../../d9/da4/classauthoring_1_1eventhandlers_1_1_add_action_handler.html#a9b96685d69e045a901bc1b55bc3fd327" target="_top" xlink:title="authoring.eventhandlers.\lAddActionHandler.createAction">
<polygon fill="white" stroke="black" points="174,-52 174,-82 340,-82 340,-52 174,-52"/>
<text text-anchor="start" x="182" y="-70" font-family="Helvetica,sans-Serif" font-size="10.00">authoring.eventhandlers.</text>
<text text-anchor="middle" x="257" y="-59" font-family="Helvetica,sans-Serif" font-size="10.00">AddActionHandler.createAction</text>
</a>
</g>
</g>
<!-- Node1&#45;&gt;Node2 -->
<g id="edge1" class="edge"><title>Node1&#45;&gt;Node2</title>
<path fill="none" stroke="midnightblue" d="M137.676,-67C146.113,-67 154.85,-67 163.58,-67"/>
<polygon fill="midnightblue" stroke="midnightblue" points="163.808,-70.5001 173.808,-67 163.807,-63.5001 163.808,-70.5001"/>
</g>
<!-- Node3 -->
<g id="node3" class="node"><title>Node3</title>
<g id="a_node3"><a xlink:href="../../d9/da4/classauthoring_1_1eventhandlers_1_1_add_action_handler.html#a79570c2754dca122253b410d98017bd5" target="_top" xlink:title="authoring.eventhandlers.\lAddActionHandler.finishAction">
<polygon fill="white" stroke="black" points="382,-82 382,-112 542,-112 542,-82 382,-82"/>
<text text-anchor="start" x="390" y="-100" font-family="Helvetica,sans-Serif" font-size="10.00">authoring.eventhandlers.</text>
<text text-anchor="middle" x="462" y="-89" font-family="Helvetica,sans-Serif" font-size="10.00">AddActionHandler.finishAction</text>
</a>
</g>
</g>
<!-- Node2&#45;&gt;Node3 -->
<g id="edge2" class="edge"><title>Node2&#45;&gt;Node3</title>
<path fill="none" stroke="midnightblue" d="M340.275,-79.1589C350.686,-80.6975 361.377,-82.2774 371.888,-83.8308"/>
<polygon fill="midnightblue" stroke="midnightblue" points="371.491,-87.31 381.896,-85.3097 372.515,-80.3853 371.491,-87.31"/>
</g>
<!-- Node7 -->
<g id="node7" class="node"><title>Node7</title>
<g id="a_node7"><a xlink:href="../../d2/d02/classauthoring_1_1view_1_1wizards_1_1_action_choice_wizard.html#aa2dc1f8614d6d90b0b1fedf46e29d877" target="_top" xlink:title="authoring.view.wizards.Action\lChoiceWizard.getSelectedAction">
<polygon fill="white" stroke="black" points="376.5,-22 376.5,-52 547.5,-52 547.5,-22 376.5,-22"/>
<text text-anchor="start" x="384.5" y="-40" font-family="Helvetica,sans-Serif" font-size="10.00">authoring.view.wizards.Action</text>
<text text-anchor="middle" x="462" y="-29" font-family="Helvetica,sans-Serif" font-size="10.00">ChoiceWizard.getSelectedAction</text>
</a>
</g>
</g>
<!-- Node2&#45;&gt;Node7 -->
<g id="edge6" class="edge"><title>Node2&#45;&gt;Node7</title>
<path fill="none" stroke="midnightblue" d="M340.275,-54.8411C348.807,-53.5803 357.526,-52.2917 366.18,-51.0128"/>
<polygon fill="midnightblue" stroke="midnightblue" points="366.914,-54.4424 376.295,-49.518 365.891,-47.5177 366.914,-54.4424"/>
</g>
<!-- Node4 -->
<g id="node4" class="node"><title>Node4</title>
<g id="a_node4"><a xlink:href="../../d1/d3b/classengine_1_1conditions_1_1_condition.html#a02855e132c46ad2e5b6e23cca319deb5" target="_top" xlink:title="engine.conditions.Condition.add\lAction">
<polygon fill="white" stroke="black" points="598,-147 598,-177 768,-177 768,-147 598,-147"/>
<text text-anchor="start" x="606" y="-165" font-family="Helvetica,sans-Serif" font-size="10.00">engine.conditions.Condition.add</text>
<text text-anchor="middle" x="683" y="-154" font-family="Helvetica,sans-Serif" font-size="10.00">Action</text>
</a>
</g>
</g>
<!-- Node3&#45;&gt;Node4 -->
<g id="edge3" class="edge"><title>Node3&#45;&gt;Node4</title>
<path fill="none" stroke="midnightblue" d="M506.174,-112.082C529.162,-119.906 557.986,-129.392 584,-137 592.602,-139.516 601.669,-142.022 610.674,-144.422"/>
<polygon fill="midnightblue" stroke="midnightblue" points="609.835,-147.821 620.396,-146.981 611.616,-141.051 609.835,-147.821"/>
</g>
<!-- Node5 -->
<g id="node5" class="node"><title>Node5</title>
<g id="a_node5"><a xlink:href="../../d9/da4/classauthoring_1_1eventhandlers_1_1_add_action_handler.html#a64e5293c6eba41df2313e81b59601cb0" target="_top" xlink:title="authoring.eventhandlers.\lAddActionHandler.convertInput\lParameters">
<polygon fill="white" stroke="black" points="600.5,-87.5 600.5,-128.5 765.5,-128.5 765.5,-87.5 600.5,-87.5"/>
<text text-anchor="start" x="608.5" y="-116.5" font-family="Helvetica,sans-Serif" font-size="10.00">authoring.eventhandlers.</text>
<text text-anchor="start" x="608.5" y="-105.5" font-family="Helvetica,sans-Serif" font-size="10.00">AddActionHandler.convertInput</text>
<text text-anchor="middle" x="683" y="-94.5" font-family="Helvetica,sans-Serif" font-size="10.00">Parameters</text>
</a>
</g>
</g>
<!-- Node3&#45;&gt;Node5 -->
<g id="edge4" class="edge"><title>Node3&#45;&gt;Node5</title>
<path fill="none" stroke="midnightblue" d="M542.064,-100.971C557.642,-101.754 574.113,-102.581 590.073,-103.383"/>
<polygon fill="midnightblue" stroke="midnightblue" points="590.309,-106.899 600.472,-103.905 590.66,-99.9076 590.309,-106.899"/>
</g>
<!-- Node6 -->
<g id="node6" class="node"><title>Node6</title>
<g id="a_node6"><a xlink:href="../../d6/d32/classauthoring_1_1view_1_1wizards_1_1_wizard.html#a0d419b2943c99507fca42fd769c24b0e" target="_top" xlink:title="authoring.view.wizards.Wizard.getMap">
<polygon fill="white" stroke="black" points="584.5,-49.5 584.5,-68.5 781.5,-68.5 781.5,-49.5 584.5,-49.5"/>
<text text-anchor="middle" x="683" y="-56.5" font-family="Helvetica,sans-Serif" font-size="10.00">authoring.view.wizards.Wizard.getMap</text>
</a>
</g>
</g>
<!-- Node3&#45;&gt;Node6 -->
<g id="edge5" class="edge"><title>Node3&#45;&gt;Node6</title>
<path fill="none" stroke="midnightblue" d="M542.064,-83.2811C566.721,-79.0027 593.615,-74.3363 617.177,-70.2478"/>
<polygon fill="midnightblue" stroke="midnightblue" points="617.801,-73.692 627.055,-68.5338 616.604,-66.7951 617.801,-73.692"/>
</g>
<!-- Node8 -->
<g id="node8" class="node"><title>Node8</title>
<g id="a_node8"><a xlink:href="../../d4/d31/classauthoring_1_1view_1_1wizards_1_1_action_choices_v_box.html#a1ad07a1a06d43384af4406151330781c" target="_top" xlink:title="authoring.view.wizards.Action\lChoicesVBox.getSelected">
<polygon fill="white" stroke="black" points="605,-0 605,-30 761,-30 761,-0 605,-0"/>
<text text-anchor="start" x="613" y="-18" font-family="Helvetica,sans-Serif" font-size="10.00">authoring.view.wizards.Action</text>
<text text-anchor="middle" x="683" y="-7" font-family="Helvetica,sans-Serif" font-size="10.00">ChoicesVBox.getSelected</text>
</a>
</g>
</g>
<!-- Node7&#45;&gt;Node8 -->
<g id="edge7" class="edge"><title>Node7&#45;&gt;Node8</title>
<path fill="none" stroke="midnightblue" d="M547.671,-28.4942C563.074,-26.9469 579.169,-25.3301 594.647,-23.7751"/>
<polygon fill="midnightblue" stroke="midnightblue" points="595.117,-27.2457 604.717,-22.7636 594.417,-20.2808 595.117,-27.2457"/>
</g>
</g>
</svg>
        <g id="navigator" transform="translate(0 0)" fill="#404254">
                <rect fill="#f2f5e9" fill-opacity="0.5" stroke="#606060" stroke-width=".5" x="0" y="0" width="60" height="60"/>
                <use id="zoomplus" xlink:href="#zoomPlus" x="17" y="9" onmousedown="handleZoom(evt,'in')"/>
                <use id="zoomminus" xlink:href="#zoomMin" x="42" y="9" onmousedown="handleZoom(evt,'out')"/>
                <use id="reset" xlink:href="#resetDef" x="30" y="36" onmousedown="handleReset()"/>
                <g id="arrowUp" xlink:href="#dirArrow" transform="translate(30 24)" onmousedown="handlePan(0,-1)">
                  <use xlink:href="#rim" fill="#404040">
                        <set attributeName="fill" to="#808080" begin="arrowUp.mouseover" end="arrowUp.mouseout"/>
                  </use>
                  <path fill="none" stroke="white" stroke-width="1.5" d="M0,-3.0v7 M-2.5,-0.5L0,-3.0L2.5,-0.5"/>
                </g>
                <g id="arrowRight" xlink:href="#dirArrow" transform="rotate(90) translate(36 -43)" onmousedown="handlePan(1,0)">
                  <use xlink:href="#rim" fill="#404040">
                        <set attributeName="fill" to="#808080" begin="arrowRight.mouseover" end="arrowRight.mouseout"/>
                  </use>
                  <path fill="none" stroke="white" stroke-width="1.5" d="M0,-3.0v7 M-2.5,-0.5L0,-3.0L2.5,-0.5"/>
                </g>
                <g id="arrowDown" xlink:href="#dirArrow" transform="rotate(180) translate(-30 -48)" onmousedown="handlePan(0,1)">
                  <use xlink:href="#rim" fill="#404040">
                        <set attributeName="fill" to="#808080" begin="arrowDown.mouseover" end="arrowDown.mouseout"/>
                  </use>
                  <path fill="none" stroke="white" stroke-width="1.5" d="M0,-3.0v7 M-2.5,-0.5L0,-3.0L2.5,-0.5"/>
                </g>
                <g id="arrowLeft" xlink:href="#dirArrow" transform="rotate(270) translate(-36 17)" onmousedown="handlePan(-1,0)">
                  <use xlink:href="#rim" fill="#404040">
                        <set attributeName="fill" to="#808080" begin="arrowLeft.mouseover" end="arrowLeft.mouseout"/>
                  </use>
                  <path fill="none" stroke="white" stroke-width="1.5" d="M0,-3.0v7 M-2.5,-0.5L0,-3.0L2.5,-0.5"/>
                </g>
        </g>
        <svg viewBox="0 0 15 15" width="100%" height="30px" preserveAspectRatio="xMaxYMin meet">
         <g id="arrow_out" transform="scale(0.3 0.3)">
          <a xlink:href="classauthoring_1_1eventhandlers_1_1_add_action_handler_acbb13ad13aa3ac6617d6caaff858abdc_cgraph_org.svg" target="_base">
           <rect id="button" ry="5" rx="5" y="6" x="6" height="38" width="38"
                fill="#f2f5e9" fill-opacity="0.5" stroke="#606060" stroke-width="1.0"/>
           <path id="arrow"
             d="M 11.500037,31.436501 C 11.940474,20.09759 22.043105,11.32322 32.158766,21.979434 L 37.068811,17.246167 C 37.068811,17.246167 37.088388,32 37.088388,32 L 22.160133,31.978069 C 22.160133,31.978069 26.997745,27.140456 26.997745,27.140456 C 18.528582,18.264221 13.291696,25.230495 11.500037,31.436501 z"
             style="fill:#404040;"/>
          </a>
         </g>
        </svg>
</svg>
