<?xml version="1.0" encoding="UTF-8" standalone="no"?>
<!DOCTYPE svg PUBLIC "-//W3C//DTD SVG 1.1//EN"
 "http://www.w3.org/Graphics/SVG/1.1/DTD/svg11.dtd">
<!-- Generated by graphviz version 2.36.0 (20140111.2315)
 -->
<!-- Title: authoring.eventhandlers.AddActionHandler.createAction Pages: 1 -->
<svg width="348pt" height="38pt"
 viewBox="0.00 0.00 348.00 38.00" xmlns="http://www.w3.org/2000/svg" xmlns:xlink="http://www.w3.org/1999/xlink">
<g id="graph0" class="graph" transform="scale(1 1) rotate(0) translate(4 34)">
<title>authoring.eventhandlers.AddActionHandler.createAction</title>
<polygon fill="white" stroke="none" points="-4,4 -4,-34 344,-34 344,4 -4,4"/>
<!-- Node1 -->
<g id="node1" class="node"><title>Node1</title>
<polygon fill="#bfbfbf" stroke="black" points="0,-0 0,-30 166,-30 166,-0 0,-0"/>
<text text-anchor="start" x="8" y="-18" font-family="Helvetica,sans-Serif" font-size="10.00">authoring.eventhandlers.</text>
<text text-anchor="middle" x="83" y="-7" font-family="Helvetica,sans-Serif" font-size="10.00">AddActionHandler.createAction</text>
</g>
<!-- Node2 -->
<g id="node2" class="node"><title>Node2</title>
<g id="a_node2"><a xlink:href="../../d9/da4/classauthoring_1_1eventhandlers_1_1_add_action_handler.html#acbb13ad13aa3ac6617d6caaff858abdc" target="_top" xlink:title="authoring.eventhandlers.\lAddActionHandler.handle">
<polygon fill="white" stroke="black" points="202.5,-0 202.5,-30 339.5,-30 339.5,-0 202.5,-0"/>
<text text-anchor="start" x="210.5" y="-18" font-family="Helvetica,sans-Serif" font-size="10.00">authoring.eventhandlers.</text>
<text text-anchor="middle" x="271" y="-7" font-family="Helvetica,sans-Serif" font-size="10.00">AddActionHandler.handle</text>
</a>
</g>
</g>
<!-- Node1&#45;&gt;Node2 -->
<g id="edge1" class="edge"><title>Node1&#45;&gt;Node2</title>
<path fill="none" stroke="midnightblue" d="M176.346,-15C185.073,-15 193.807,-15 202.241,-15"/>
<polygon fill="midnightblue" stroke="midnightblue" points="176.124,-11.5001 166.124,-15 176.124,-18.5001 176.124,-11.5001"/>
</g>
</g>
</svg>
