<?xml version="1.0" encoding="UTF-8" standalone="no"?>
<!DOCTYPE svg PUBLIC "-//W3C//DTD SVG 1.1//EN"
 "http://www.w3.org/Graphics/SVG/1.1/DTD/svg11.dtd">
<!-- Generated by graphviz version 2.36.0 (20140111.2315)
 -->
<!-- Title: engine.actions.ChangeLevelAction.execute Pages: 1 -->
<!--zoomable 633 -->
<svg id="main" version="1.1" xmlns="http://www.w3.org/2000/svg" xmlns:xlink="http://www.w3.org/1999/xlink" xml:space="preserve" onload="init(evt)">
<style type="text/css"><![CDATA[
.edge:hover path { stroke: red; }
.edge:hover polygon { stroke: red; fill: red; }
]]></style>
<script type="text/javascript"><![CDATA[
var edges = document.getElementsByTagName('g');
if (edges && edges.length) {
  for (var i=0;i<edges.length;i++) {
    if (edges[i].id.substr(0,4)=='edge') {
      edges[i].setAttribute('class','edge');
    }
  }
}
]]></script>
        <defs>
                <circle id="rim" cx="0" cy="0" r="7"/>
                <circle id="rim2" cx="0" cy="0" r="3.5"/>
                <g id="zoomPlus">
                        <use xlink:href="#rim" fill="#404040">
                                <set attributeName="fill" to="#808080" begin="zoomplus.mouseover" end="zoomplus.mouseout"/>
                        </use>
                        <path d="M-4,0h8M0,-4v8" fill="none" stroke="white" stroke-width="1.5" pointer-events="none"/>
                </g>
                <g id="zoomMin">
                        <use xlink:href="#rim" fill="#404040">
                                <set attributeName="fill" to="#808080" begin="zoomminus.mouseover" end="zoomminus.mouseout"/>
                        </use>
                        <path d="M-4,0h8" fill="none" stroke="white" stroke-width="1.5" pointer-events="none"/>
                </g>
                <g id="dirArrow">
                        <path fill="none" stroke="white" stroke-width="1.5" d="M0,-3.0v7 M-2.5,-0.5L0,-3.0L2.5,-0.5"/>
                </g>
               <g id="resetDef">
                       <use xlink:href="#rim2" fill="#404040">
                               <set attributeName="fill" to="#808080" begin="reset.mouseover" end="reset.mouseout"/>
                       </use>
               </g>
        </defs>

<script type="text/javascript">
var viewWidth = 1530;
var viewHeight = 633;
var sectionId = 'dynsection-2';
</script>
<script xlink:href="../../svgpan.js"/>
<svg id="graph" class="graph">
<g id="viewport">
<title>engine.actions.ChangeLevelAction.execute</title>
<polygon fill="white" stroke="none" points="-4,4 -4,-629 1526,-629 1526,4 -4,4"/>
<!-- Node1 -->
<g id="node1" class="node"><title>Node1</title>
<polygon fill="#bfbfbf" stroke="black" points="0.5,-412 0.5,-442 151.5,-442 151.5,-412 0.5,-412"/>
<text text-anchor="start" x="8.5" y="-430" font-family="Helvetica,sans-Serif" font-size="10.00">engine.actions.ChangeLevel</text>
<text text-anchor="middle" x="76" y="-419" font-family="Helvetica,sans-Serif" font-size="10.00">Action.execute</text>
</g>
<!-- Node2 -->
<g id="node2" class="node"><title>Node2</title>
<g id="a_node2"><a xlink:href="../../df/d67/classengine_1_1level_1_1_level_manager.html#ad3c392cf6260c53428255fb596442692" target="_top" xlink:title="engine.level.LevelManager.change\lToLevel">
<polygon fill="white" stroke="black" points="188.5,-412 188.5,-442 369.5,-442 369.5,-412 188.5,-412"/>
<text text-anchor="start" x="196.5" y="-430" font-family="Helvetica,sans-Serif" font-size="10.00">engine.level.LevelManager.change</text>
<text text-anchor="middle" x="279" y="-419" font-family="Helvetica,sans-Serif" font-size="10.00">ToLevel</text>
</a>
</g>
</g>
<!-- Node1&#45;&gt;Node2 -->
<g id="edge1" class="edge"><title>Node1&#45;&gt;Node2</title>
<path fill="none" stroke="midnightblue" d="M151.559,-427C160.245,-427 169.208,-427 178.164,-427"/>
<polygon fill="midnightblue" stroke="midnightblue" points="178.258,-430.5 188.258,-427 178.258,-423.5 178.258,-430.5"/>
</g>
<!-- Node3 -->
<g id="node3" class="node"><title>Node3</title>
<g id="a_node3"><a xlink:href="../../df/d67/classengine_1_1level_1_1_level_manager.html#ad89101547413fe335873b050fd091c79" target="_top" xlink:title="engine.level.LevelManager.set\lCurrentLevel">
<polygon fill="white" stroke="black" points="417.5,-460 417.5,-490 578.5,-490 578.5,-460 417.5,-460"/>
<text text-anchor="start" x="425.5" y="-478" font-family="Helvetica,sans-Serif" font-size="10.00">engine.level.LevelManager.set</text>
<text text-anchor="middle" x="498" y="-467" font-family="Helvetica,sans-Serif" font-size="10.00">CurrentLevel</text>
</a>
</g>
</g>
<!-- Node2&#45;&gt;Node3 -->
<g id="edge2" class="edge"><title>Node2&#45;&gt;Node3</title>
<path fill="none" stroke="midnightblue" d="M348.065,-442.056C370.686,-447.06 396.045,-452.669 419.336,-457.821"/>
<polygon fill="midnightblue" stroke="midnightblue" points="418.657,-461.255 429.177,-459.998 420.169,-454.42 418.657,-461.255"/>
</g>
<!-- Node9 -->
<g id="node9" class="node"><title>Node9</title>
<g id="a_node9"><a xlink:href="../../df/d67/classengine_1_1level_1_1_level_manager.html#a523599892453015eed0f1b506979af8a" target="_top" xlink:title="engine.level.LevelManager.initialize\lCurrentLevel">
<polygon fill="white" stroke="black" points="406,-365 406,-395 590,-395 590,-365 406,-365"/>
<text text-anchor="start" x="414" y="-383" font-family="Helvetica,sans-Serif" font-size="10.00">engine.level.LevelManager.initialize</text>
<text text-anchor="middle" x="498" y="-372" font-family="Helvetica,sans-Serif" font-size="10.00">CurrentLevel</text>
</a>
</g>
</g>
<!-- Node2&#45;&gt;Node9 -->
<g id="edge8" class="edge"><title>Node2&#45;&gt;Node9</title>
<path fill="none" stroke="midnightblue" d="M349.257,-412C371.082,-407.272 395.356,-402.015 417.818,-397.15"/>
<polygon fill="midnightblue" stroke="midnightblue" points="418.624,-400.557 427.657,-395.019 417.143,-393.715 418.624,-400.557"/>
</g>
<!-- Node4 -->
<g id="node4" class="node"><title>Node4</title>
<g id="a_node4"><a xlink:href="../../df/d84/classengine_1_1level_1_1_level.html#ace23cd4ed278a5bb85e964ff3c8818b5" target="_top" xlink:title="engine.level.Level.initialize">
<polygon fill="white" stroke="black" points="644.5,-489.5 644.5,-508.5 787.5,-508.5 787.5,-489.5 644.5,-489.5"/>
<text text-anchor="middle" x="716" y="-496.5" font-family="Helvetica,sans-Serif" font-size="10.00">engine.level.Level.initialize</text>
</a>
</g>
</g>
<!-- Node3&#45;&gt;Node4 -->
<g id="edge3" class="edge"><title>Node3&#45;&gt;Node4</title>
<path fill="none" stroke="midnightblue" d="M578.51,-483.834C596.678,-485.853 616.004,-488 634.224,-490.025"/>
<polygon fill="midnightblue" stroke="midnightblue" points="633.893,-493.51 644.218,-491.135 634.666,-486.552 633.893,-493.51"/>
</g>
<!-- Node5 -->
<g id="node5" class="node"><title>Node5</title>
<g id="a_node5"><a xlink:href="../../df/d67/classengine_1_1level_1_1_level_manager.html#a6e15411e375d875fa72058d499bec766" target="_top" xlink:title="engine.level.LevelManager.object\lForIdentifier">
<polygon fill="white" stroke="black" points="861.5,-459 861.5,-489 1036.5,-489 1036.5,-459 861.5,-459"/>
<text text-anchor="start" x="869.5" y="-477" font-family="Helvetica,sans-Serif" font-size="10.00">engine.level.LevelManager.object</text>
<text text-anchor="middle" x="949" y="-466" font-family="Helvetica,sans-Serif" font-size="10.00">ForIdentifier</text>
</a>
</g>
</g>
<!-- Node4&#45;&gt;Node5 -->
<g id="edge4" class="edge"><title>Node4&#45;&gt;Node5</title>
<path fill="none" stroke="midnightblue" d="M787.563,-491.363C807.608,-489.194 829.792,-486.793 851.107,-484.486"/>
<polygon fill="midnightblue" stroke="midnightblue" points="851.592,-487.954 861.157,-483.399 850.839,-480.995 851.592,-487.954"/>
</g>
<!-- Node6 -->
<g id="node6" class="node"><title>Node6</title>
<g id="a_node6"><a xlink:href="../../d0/d7f/classengine_1_1game_object_1_1_game_object.html#accd456b2eaab9c7056de825a28b066c8" target="_top" xlink:title="engine.gameObject.GameObject.get\lIdentifier">
<polygon fill="white" stroke="black" points="1097,-595 1097,-625 1289,-625 1289,-595 1097,-595"/>
<text text-anchor="start" x="1105" y="-613" font-family="Helvetica,sans-Serif" font-size="10.00">engine.gameObject.GameObject.get</text>
<text text-anchor="middle" x="1193" y="-602" font-family="Helvetica,sans-Serif" font-size="10.00">Identifier</text>
</a>
</g>
</g>
<!-- Node4&#45;&gt;Node6 -->
<g id="edge5" class="edge"><title>Node4&#45;&gt;Node6</title>
<path fill="none" stroke="midnightblue" d="M738.262,-508.584C762.808,-519.312 804.61,-536.557 842,-547 922.907,-569.598 1016.68,-585.971 1086.78,-596.352"/>
<polygon fill="midnightblue" stroke="midnightblue" points="1086.55,-599.855 1096.95,-597.841 1087.56,-592.929 1086.55,-599.855"/>
</g>
<!-- Node7 -->
<g id="node7" class="node"><title>Node7</title>
<g id="a_node7"><a xlink:href="../../d4/dac/classengine_1_1game_object_1_1_identifier.html#aa2630b5024b9595e43afe0bf53229433" target="_top" xlink:title="engine.gameObject.Identifier.get\lUniqueId">
<polygon fill="white" stroke="black" points="862.5,-410 862.5,-440 1035.5,-440 1035.5,-410 862.5,-410"/>
<text text-anchor="start" x="870.5" y="-428" font-family="Helvetica,sans-Serif" font-size="10.00">engine.gameObject.Identifier.get</text>
<text text-anchor="middle" x="949" y="-417" font-family="Helvetica,sans-Serif" font-size="10.00">UniqueId</text>
</a>
</g>
</g>
<!-- Node4&#45;&gt;Node7 -->
<g id="edge6" class="edge"><title>Node4&#45;&gt;Node7</title>
<path fill="none" stroke="midnightblue" d="M777.694,-489.429C787.431,-486.752 797.193,-483.34 806,-479 824.682,-469.793 823.326,-458.222 842,-449 846.059,-446.996 850.288,-445.156 854.62,-443.468"/>
<polygon fill="midnightblue" stroke="midnightblue" points="856.015,-446.686 864.241,-440.01 853.647,-440.099 856.015,-446.686"/>
</g>
<!-- Node8 -->
<g id="node8" class="node"><title>Node8</title>
<g id="a_node8"><a xlink:href="../../d4/d3b/classauthoring_1_1model_1_1collections_1_1_general_collection.html#a1bdc1047736bbb23259d6a7fe4c6deeb" target="_top" xlink:title="authoring.model.collections.\lGeneralCollection.add">
<polygon fill="white" stroke="black" points="873,-508 873,-538 1025,-538 1025,-508 873,-508"/>
<text text-anchor="start" x="881" y="-526" font-family="Helvetica,sans-Serif" font-size="10.00">authoring.model.collections.</text>
<text text-anchor="middle" x="949" y="-515" font-family="Helvetica,sans-Serif" font-size="10.00">GeneralCollection.add</text>
</a>
</g>
</g>
<!-- Node4&#45;&gt;Node8 -->
<g id="edge7" class="edge"><title>Node4&#45;&gt;Node8</title>
<path fill="none" stroke="midnightblue" d="M787.563,-506.331C811.236,-508.791 837.892,-511.56 862.578,-514.125"/>
<polygon fill="midnightblue" stroke="midnightblue" points="862.348,-517.62 872.657,-515.172 863.072,-510.657 862.348,-517.62"/>
</g>
<!-- Node9&#45;&gt;Node4 -->
<g id="edge16" class="edge"><title>Node9&#45;&gt;Node4</title>
<path fill="none" stroke="midnightblue" d="M518.981,-395.166C537.486,-409.259 565.725,-430.89 590,-450 606.143,-462.709 607.496,-470.071 626,-479 632.037,-481.913 638.511,-484.41 645.112,-486.548"/>
<polygon fill="midnightblue" stroke="midnightblue" points="644.257,-489.945 654.839,-489.431 646.246,-483.233 644.257,-489.945"/>
</g>
<!-- Node10 -->
<g id="node10" class="node"><title>Node10</title>
<g id="a_node10"><a xlink:href="../../df/d67/classengine_1_1level_1_1_level_manager.html#af00a1d61217dd801bb7a8b16ad829cf0" target="_top" xlink:title="engine.level.LevelManager.disable\lAllConditions">
<polygon fill="white" stroke="black" points="626.5,-244 626.5,-274 805.5,-274 805.5,-244 626.5,-244"/>
<text text-anchor="start" x="634.5" y="-262" font-family="Helvetica,sans-Serif" font-size="10.00">engine.level.LevelManager.disable</text>
<text text-anchor="middle" x="716" y="-251" font-family="Helvetica,sans-Serif" font-size="10.00">AllConditions</text>
</a>
</g>
</g>
<!-- Node9&#45;&gt;Node10 -->
<g id="edge9" class="edge"><title>Node9&#45;&gt;Node10</title>
<path fill="none" stroke="midnightblue" d="M514.467,-364.91C537.111,-343.629 581.453,-304.951 626,-283 629.984,-281.037 634.149,-279.218 638.411,-277.534"/>
<polygon fill="midnightblue" stroke="midnightblue" points="639.681,-280.796 647.86,-274.061 637.266,-274.226 639.681,-280.796"/>
</g>
<!-- Node11 -->
<g id="node11" class="node"><title>Node11</title>
<g id="a_node11"><a xlink:href="../../df/d67/classengine_1_1level_1_1_level_manager.html#a5d79217e53b1e3804476ba6b366ad066" target="_top" xlink:title="engine.level.LevelManager.set\lLevelEnabledConditions">
<polygon fill="white" stroke="black" points="635.5,-89 635.5,-119 796.5,-119 796.5,-89 635.5,-89"/>
<text text-anchor="start" x="643.5" y="-107" font-family="Helvetica,sans-Serif" font-size="10.00">engine.level.LevelManager.set</text>
<text text-anchor="middle" x="716" y="-96" font-family="Helvetica,sans-Serif" font-size="10.00">LevelEnabledConditions</text>
</a>
</g>
</g>
<!-- Node9&#45;&gt;Node11 -->
<g id="edge10" class="edge"><title>Node9&#45;&gt;Node11</title>
<path fill="none" stroke="midnightblue" d="M510.921,-364.768C546.768,-318.964 653.752,-182.261 696.78,-127.281"/>
<polygon fill="midnightblue" stroke="midnightblue" points="699.709,-129.217 703.116,-119.185 694.197,-124.903 699.709,-129.217"/>
</g>
<!-- Node14 -->
<g id="node14" class="node"><title>Node14</title>
<g id="a_node14"><a xlink:href="../../da/d90/classengine_1_1sound_1_1_sound_utility.html#a53a82805b12b2b8f68b8396b9795d092" target="_top" xlink:title="engine.sound.SoundUtility.stop\lBackGroundMusic">
<polygon fill="white" stroke="black" points="634,-440 634,-470 798,-470 798,-440 634,-440"/>
<text text-anchor="start" x="642" y="-458" font-family="Helvetica,sans-Serif" font-size="10.00">engine.sound.SoundUtility.stop</text>
<text text-anchor="middle" x="716" y="-447" font-family="Helvetica,sans-Serif" font-size="10.00">BackGroundMusic</text>
</a>
</g>
</g>
<!-- Node9&#45;&gt;Node14 -->
<g id="edge13" class="edge"><title>Node9&#45;&gt;Node14</title>
<path fill="none" stroke="midnightblue" d="M534.5,-395.093C559.773,-405.562 594.669,-419.462 626,-430 633.273,-432.446 640.934,-434.851 648.584,-437.144"/>
<polygon fill="midnightblue" stroke="midnightblue" points="647.657,-440.519 658.239,-439.984 649.633,-433.804 647.657,-440.519"/>
</g>
<!-- Node15 -->
<g id="node15" class="node"><title>Node15</title>
<g id="a_node15"><a xlink:href="../../da/d90/classengine_1_1sound_1_1_sound_utility.html#ab8cd26d71aa7b20d07350105a4254c92" target="_top" xlink:title="engine.sound.SoundUtility.play\lBackGroundMusic">
<polygon fill="white" stroke="black" points="634.5,-391 634.5,-421 797.5,-421 797.5,-391 634.5,-391"/>
<text text-anchor="start" x="642.5" y="-409" font-family="Helvetica,sans-Serif" font-size="10.00">engine.sound.SoundUtility.play</text>
<text text-anchor="middle" x="716" y="-398" font-family="Helvetica,sans-Serif" font-size="10.00">BackGroundMusic</text>
</a>
</g>
</g>
<!-- Node9&#45;&gt;Node15 -->
<g id="edge14" class="edge"><title>Node9&#45;&gt;Node15</title>
<path fill="none" stroke="midnightblue" d="M590.29,-390.989C601.486,-392.336 612.927,-393.713 624.116,-395.06"/>
<polygon fill="midnightblue" stroke="midnightblue" points="623.961,-398.567 634.307,-396.287 624.797,-391.617 623.961,-398.567"/>
</g>
<!-- Node16 -->
<g id="node16" class="node"><title>Node16</title>
<g id="a_node16"><a xlink:href="../../df/d84/classengine_1_1level_1_1_level.html#a368275ed98c802fbf59a11423b9b9a0d" target="_top" xlink:title="engine.level.Level.getBackground\lMusic">
<polygon fill="white" stroke="black" points="627.5,-342 627.5,-372 804.5,-372 804.5,-342 627.5,-342"/>
<text text-anchor="start" x="635.5" y="-360" font-family="Helvetica,sans-Serif" font-size="10.00">engine.level.Level.getBackground</text>
<text text-anchor="middle" x="716" y="-349" font-family="Helvetica,sans-Serif" font-size="10.00">Music</text>
</a>
</g>
</g>
<!-- Node9&#45;&gt;Node16 -->
<g id="edge15" class="edge"><title>Node9&#45;&gt;Node16</title>
<path fill="none" stroke="midnightblue" d="M590.29,-370.279C599.242,-369.326 608.35,-368.356 617.361,-367.397"/>
<polygon fill="midnightblue" stroke="midnightblue" points="617.906,-370.859 627.48,-366.319 617.165,-363.898 617.906,-370.859"/>
</g>
<!-- Node17 -->
<g id="node17" class="node"><title>Node17</title>
<g id="a_node17"><a xlink:href="../../df/de5/classengine_1_1render_1_1_game_object_renderer.html#a610545384a337edcd3bffb9f0c6ecf18" target="_top" xlink:title="engine.render.GameObject\lRenderer.renderGameObjects">
<polygon fill="white" stroke="black" points="637,-293 637,-323 795,-323 795,-293 637,-293"/>
<text text-anchor="start" x="645" y="-311" font-family="Helvetica,sans-Serif" font-size="10.00">engine.render.GameObject</text>
<text text-anchor="middle" x="716" y="-300" font-family="Helvetica,sans-Serif" font-size="10.00">Renderer.renderGameObjects</text>
</a>
</g>
</g>
<!-- Node9&#45;&gt;Node17 -->
<g id="edge17" class="edge"><title>Node9&#45;&gt;Node17</title>
<path fill="none" stroke="midnightblue" d="M535.894,-364.96C561.06,-354.973 595.271,-341.924 626,-332 632.446,-329.918 639.194,-327.869 645.967,-325.898"/>
<polygon fill="midnightblue" stroke="midnightblue" points="647.22,-329.18 655.876,-323.072 645.3,-322.448 647.22,-329.18"/>
</g>
<!-- Node12 -->
<g id="node12" class="node"><title>Node12</title>
<g id="a_node12"><a xlink:href="../../df/d84/classengine_1_1level_1_1_level.html#a264b568258eafa3d2c664c94e7498621" target="_top" xlink:title="engine.level.Level.getCondition\lIdentifiers">
<polygon fill="white" stroke="black" points="866.5,-89 866.5,-119 1031.5,-119 1031.5,-89 866.5,-89"/>
<text text-anchor="start" x="874.5" y="-107" font-family="Helvetica,sans-Serif" font-size="10.00">engine.level.Level.getCondition</text>
<text text-anchor="middle" x="949" y="-96" font-family="Helvetica,sans-Serif" font-size="10.00">Identifiers</text>
</a>
</g>
</g>
<!-- Node11&#45;&gt;Node12 -->
<g id="edge11" class="edge"><title>Node11&#45;&gt;Node12</title>
<path fill="none" stroke="midnightblue" d="M796.821,-104C815.921,-104 836.466,-104 856.065,-104"/>
<polygon fill="midnightblue" stroke="midnightblue" points="856.215,-107.5 866.215,-104 856.215,-100.5 856.215,-107.5"/>
</g>
<!-- Node13 -->
<g id="node13" class="node"><title>Node13</title>
<g id="a_node13"><a xlink:href="../../df/d67/classengine_1_1level_1_1_level_manager.html#a766cb6198dd991f0bdf6386dace3a65b" target="_top" xlink:title="engine.level.LevelManager.enable\lCondition">
<polygon fill="white" stroke="black" points="860,-40 860,-70 1038,-70 1038,-40 860,-40"/>
<text text-anchor="start" x="868" y="-58" font-family="Helvetica,sans-Serif" font-size="10.00">engine.level.LevelManager.enable</text>
<text text-anchor="middle" x="949" y="-47" font-family="Helvetica,sans-Serif" font-size="10.00">Condition</text>
</a>
</g>
</g>
<!-- Node11&#45;&gt;Node13 -->
<g id="edge12" class="edge"><title>Node11&#45;&gt;Node13</title>
<path fill="none" stroke="midnightblue" d="M787.877,-88.9654C813.044,-83.627 841.55,-77.5802 867.464,-72.0834"/>
<polygon fill="midnightblue" stroke="midnightblue" points="868.201,-75.5051 877.257,-70.0062 866.748,-68.6575 868.201,-75.5051"/>
</g>
<!-- Node17&#45;&gt;Node6 -->
<g id="edge23" class="edge"><title>Node17&#45;&gt;Node6</title>
<path fill="none" stroke="midnightblue" d="M784.111,-323.121C791.65,-325.688 799.095,-328.635 806,-332 823.979,-340.761 823.709,-350.911 842,-359 930.566,-398.169 987.424,-331.622 1056,-400 1115.32,-459.145 1034.35,-524.227 1092,-585 1093.23,-586.294 1094.51,-587.526 1095.84,-588.697"/>
<polygon fill="midnightblue" stroke="midnightblue" points="1093.88,-591.595 1103.98,-594.771 1098.06,-585.985 1093.88,-591.595"/>
</g>
<!-- Node17&#45;&gt;Node7 -->
<g id="edge24" class="edge"><title>Node17&#45;&gt;Node7</title>
<path fill="none" stroke="midnightblue" d="M791.526,-323.158C796.662,-325.668 801.555,-328.592 806,-332 831.288,-351.387 816.918,-374.348 842,-394 847.811,-398.553 854.271,-402.437 861.054,-405.752"/>
<polygon fill="midnightblue" stroke="midnightblue" points="859.913,-409.074 870.473,-409.927 862.75,-402.675 859.913,-409.074"/>
</g>
<!-- Node18 -->
<g id="node18" class="node"><title>Node18</title>
<g id="a_node18"><a xlink:href="../../df/de5/classengine_1_1render_1_1_game_object_renderer.html#ad1dadb54349f33bce5bb60cd8d5cac64" target="_top" xlink:title="engine.render.GameObject\lRenderer.setBackGroundImage">
<polygon fill="white" stroke="black" points="866.5,-138 866.5,-168 1031.5,-168 1031.5,-138 866.5,-138"/>
<text text-anchor="start" x="874.5" y="-156" font-family="Helvetica,sans-Serif" font-size="10.00">engine.render.GameObject</text>
<text text-anchor="middle" x="949" y="-145" font-family="Helvetica,sans-Serif" font-size="10.00">Renderer.setBackGroundImage</text>
</a>
</g>
</g>
<!-- Node17&#45;&gt;Node18 -->
<g id="edge18" class="edge"><title>Node17&#45;&gt;Node18</title>
<path fill="none" stroke="midnightblue" d="M783.986,-292.895C791.625,-290.098 799.127,-286.822 806,-283 832.501,-268.261 892.775,-209.104 925.631,-175.901"/>
<polygon fill="midnightblue" stroke="midnightblue" points="928.446,-178.031 932.973,-168.452 923.46,-173.117 928.446,-178.031"/>
</g>
<!-- Node21 -->
<g id="node21" class="node"><title>Node21</title>
<g id="a_node21"><a xlink:href="../../df/d84/classengine_1_1level_1_1_level.html#af2921158eda86e1f909575ee468eec5c" target="_top" xlink:title="engine.level.Level.getGame\lObjectIterator">
<polygon fill="white" stroke="black" points="874.5,-269 874.5,-299 1023.5,-299 1023.5,-269 874.5,-269"/>
<text text-anchor="start" x="882.5" y="-287" font-family="Helvetica,sans-Serif" font-size="10.00">engine.level.Level.getGame</text>
<text text-anchor="middle" x="949" y="-276" font-family="Helvetica,sans-Serif" font-size="10.00">ObjectIterator</text>
</a>
</g>
</g>
<!-- Node17&#45;&gt;Node21 -->
<g id="edge21" class="edge"><title>Node17&#45;&gt;Node21</title>
<path fill="none" stroke="midnightblue" d="M795.206,-299.875C817.34,-297.575 841.52,-295.063 863.98,-292.729"/>
<polygon fill="midnightblue" stroke="midnightblue" points="864.581,-296.186 874.166,-291.671 863.858,-289.223 864.581,-296.186"/>
</g>
<!-- Node23 -->
<g id="node23" class="node"><title>Node23</title>
<g id="a_node23"><a xlink:href="../../df/de5/classengine_1_1render_1_1_game_object_renderer.html#a745cb65a5425a20a1b5063068ef1314a" target="_top" xlink:title="engine.render.GameObject\lRenderer.createAndAssignRenderedNode">
<polygon fill="white" stroke="black" points="842.5,-320 842.5,-350 1055.5,-350 1055.5,-320 842.5,-320"/>
<text text-anchor="start" x="850.5" y="-338" font-family="Helvetica,sans-Serif" font-size="10.00">engine.render.GameObject</text>
<text text-anchor="middle" x="949" y="-327" font-family="Helvetica,sans-Serif" font-size="10.00">Renderer.createAndAssignRenderedNode</text>
</a>
</g>
</g>
<!-- Node17&#45;&gt;Node23 -->
<g id="edge25" class="edge"><title>Node17&#45;&gt;Node23</title>
<path fill="none" stroke="midnightblue" d="M795.206,-317.141C807.186,-318.541 819.767,-320.012 832.349,-321.482"/>
<polygon fill="midnightblue" stroke="midnightblue" points="832.09,-324.976 842.429,-322.661 832.903,-318.023 832.09,-324.976"/>
</g>
<!-- Node19 -->
<g id="node19" class="node"><title>Node19</title>
<g id="a_node19"><a xlink:href="../../d9/db5/classengine_1_1_file_path_utility.html#ad8a72da93bd719a750bd549ed92a37d7" target="_top" xlink:title="engine.FilePathUtility.get\lFilePath">
<polygon fill="white" stroke="black" points="1360,-66 1360,-96 1492,-96 1492,-66 1360,-66"/>
<text text-anchor="start" x="1368" y="-84" font-family="Helvetica,sans-Serif" font-size="10.00">engine.FilePathUtility.get</text>
<text text-anchor="middle" x="1426" y="-73" font-family="Helvetica,sans-Serif" font-size="10.00">FilePath</text>
</a>
</g>
</g>
<!-- Node18&#45;&gt;Node19 -->
<g id="edge19" class="edge"><title>Node18&#45;&gt;Node19</title>
<path fill="none" stroke="midnightblue" d="M1031.55,-140.194C1040.19,-136.99 1048.53,-132.991 1056,-128 1078.77,-112.784 1067.63,-90.484 1092,-78 1176.97,-34.4754 1290.87,-48.3488 1361.03,-63.682"/>
<polygon fill="midnightblue" stroke="midnightblue" points="1360.53,-67.1571 1371.06,-65.9482 1362.07,-60.3294 1360.53,-67.1571"/>
</g>
<!-- Node20 -->
<g id="node20" class="node"><title>Node20</title>
<g id="a_node20"><a xlink:href="../../df/d84/classengine_1_1level_1_1_level.html#a5dc36c31fcc8e0b5cbe2a942ec101fdb" target="_top" xlink:title="engine.level.Level.getBackground\lImage">
<polygon fill="white" stroke="black" points="1104.5,-0 1104.5,-30 1281.5,-30 1281.5,-0 1104.5,-0"/>
<text text-anchor="start" x="1112.5" y="-18" font-family="Helvetica,sans-Serif" font-size="10.00">engine.level.Level.getBackground</text>
<text text-anchor="middle" x="1193" y="-7" font-family="Helvetica,sans-Serif" font-size="10.00">Image</text>
</a>
</g>
</g>
<!-- Node18&#45;&gt;Node20 -->
<g id="edge20" class="edge"><title>Node18&#45;&gt;Node20</title>
<path fill="none" stroke="midnightblue" d="M1031.63,-142.164C1040.46,-138.622 1048.82,-134.005 1056,-128 1086.84,-102.202 1061.94,-71.7095 1092,-45 1096.43,-41.0663 1101.35,-37.648 1106.58,-34.6777"/>
<polygon fill="midnightblue" stroke="midnightblue" points="1108.28,-37.7363 1115.62,-30.0898 1105.12,-31.494 1108.28,-37.7363"/>
</g>
<!-- Node22 -->
<g id="node22" class="node"><title>Node22</title>
<g id="a_node22"><a xlink:href="../../d4/d3b/classauthoring_1_1model_1_1collections_1_1_general_collection.html#a79482ff667a22bb0d5b702c03261fe8d" target="_top" xlink:title="authoring.model.collections.\lGeneralCollection.iterator">
<polygon fill="white" stroke="black" points="1117,-88 1117,-118 1269,-118 1269,-88 1117,-88"/>
<text text-anchor="start" x="1125" y="-106" font-family="Helvetica,sans-Serif" font-size="10.00">authoring.model.collections.</text>
<text text-anchor="middle" x="1193" y="-95" font-family="Helvetica,sans-Serif" font-size="10.00">GeneralCollection.iterator</text>
</a>
</g>
</g>
<!-- Node21&#45;&gt;Node22 -->
<g id="edge22" class="edge"><title>Node21&#45;&gt;Node22</title>
<path fill="none" stroke="midnightblue" d="M966.612,-268.788C988.201,-248.68 1026.61,-211.73 1056,-177 1073.69,-156.098 1069.26,-142.261 1092,-127 1096.84,-123.749 1102.08,-120.937 1107.53,-118.505"/>
<polygon fill="midnightblue" stroke="midnightblue" points="1108.89,-121.73 1116.87,-114.759 1106.29,-115.232 1108.89,-121.73"/>
</g>
<!-- Node23&#45;&gt;Node6 -->
<g id="edge45" class="edge"><title>Node23&#45;&gt;Node6</title>
<path fill="none" stroke="midnightblue" d="M1035.16,-350.025C1042.99,-354.164 1050.15,-359.396 1056,-366 1121.38,-439.858 1025.17,-512.449 1092,-585 1093.21,-586.312 1094.47,-587.56 1095.79,-588.747"/>
<polygon fill="midnightblue" stroke="midnightblue" points="1093.78,-591.613 1103.85,-594.894 1098.02,-586.046 1093.78,-591.613"/>
</g>
<!-- Node24 -->
<g id="node24" class="node"><title>Node24</title>
<g id="a_node24"><a xlink:href="../../d2/d82/classengine_1_1render_1_1_rendered_node.html#a520a8c03b505d10c69e010e603cadfdd" target="_top" xlink:title="engine.render.RenderedNode.set\lImageView">
<polygon fill="white" stroke="black" points="1106,-497 1106,-527 1280,-527 1280,-497 1106,-497"/>
<text text-anchor="start" x="1114" y="-515" font-family="Helvetica,sans-Serif" font-size="10.00">engine.render.RenderedNode.set</text>
<text text-anchor="middle" x="1193" y="-504" font-family="Helvetica,sans-Serif" font-size="10.00">ImageView</text>
</a>
</g>
</g>
<!-- Node23&#45;&gt;Node24 -->
<g id="edge26" class="edge"><title>Node23&#45;&gt;Node24</title>
<path fill="none" stroke="midnightblue" d="M1032.78,-350.027C1041.35,-354.146 1049.34,-359.372 1056,-366 1095.77,-405.581 1051.46,-448.212 1092,-487 1093.68,-488.608 1095.45,-490.118 1097.29,-491.534"/>
<polygon fill="midnightblue" stroke="midnightblue" points="1095.53,-494.566 1105.8,-497.167 1099.39,-488.729 1095.53,-494.566"/>
</g>
<!-- Node25 -->
<g id="node25" class="node"><title>Node25</title>
<g id="a_node25"><a xlink:href="../../df/de5/classengine_1_1render_1_1_game_object_renderer.html#a72580570f971246ef79428f21b6d25e9" target="_top" xlink:title="engine.render.GameObject\lRenderer.createImageAndView">
<polygon fill="white" stroke="black" points="1111.5,-137 1111.5,-167 1274.5,-167 1274.5,-137 1111.5,-137"/>
<text text-anchor="start" x="1119.5" y="-155" font-family="Helvetica,sans-Serif" font-size="10.00">engine.render.GameObject</text>
<text text-anchor="middle" x="1193" y="-144" font-family="Helvetica,sans-Serif" font-size="10.00">Renderer.createImageAndView</text>
</a>
</g>
</g>
<!-- Node23&#45;&gt;Node25 -->
<g id="edge27" class="edge"><title>Node23&#45;&gt;Node25</title>
<path fill="none" stroke="midnightblue" d="M1040,-319.795C1045.84,-316.551 1051.26,-312.66 1056,-308 1099.36,-265.365 1048.35,-218.333 1092,-176 1095.17,-172.924 1098.67,-170.218 1102.39,-167.84"/>
<polygon fill="midnightblue" stroke="midnightblue" points="1104.37,-170.746 1111.45,-162.865 1101,-164.61 1104.37,-170.746"/>
</g>
<!-- Node29 -->
<g id="node29" class="node"><title>Node29</title>
<g id="a_node29"><a xlink:href="../../d2/d82/classengine_1_1render_1_1_rendered_node.html#ad73c81ad48b40faea3818c9a7bbfdcf0" target="_top" xlink:title="engine.render.RenderedNode.set\lCollisionBody">
<polygon fill="white" stroke="black" points="1106,-448 1106,-478 1280,-478 1280,-448 1106,-448"/>
<text text-anchor="start" x="1114" y="-466" font-family="Helvetica,sans-Serif" font-size="10.00">engine.render.RenderedNode.set</text>
<text text-anchor="middle" x="1193" y="-455" font-family="Helvetica,sans-Serif" font-size="10.00">CollisionBody</text>
</a>
</g>
</g>
<!-- Node23&#45;&gt;Node29 -->
<g id="edge32" class="edge"><title>Node23&#45;&gt;Node29</title>
<path fill="none" stroke="midnightblue" d="M1029,-350.047C1038.74,-354.147 1048.05,-359.363 1056,-366 1083.46,-388.934 1064.09,-415.613 1092,-438 1094.08,-439.666 1096.25,-441.222 1098.5,-442.677"/>
<polygon fill="midnightblue" stroke="midnightblue" points="1097.11,-445.909 1107.53,-447.795 1100.56,-439.819 1097.11,-445.909"/>
</g>
<!-- Node30 -->
<g id="node30" class="node"><title>Node30</title>
<g id="a_node30"><a xlink:href="../../df/de5/classengine_1_1render_1_1_game_object_renderer.html#a25493ea430dbd3c6094434ba60e98662" target="_top" xlink:title="engine.render.GameObject\lRenderer.createCollisionBody">
<polygon fill="white" stroke="black" points="1115.5,-546 1115.5,-576 1270.5,-576 1270.5,-546 1115.5,-546"/>
<text text-anchor="start" x="1123.5" y="-564" font-family="Helvetica,sans-Serif" font-size="10.00">engine.render.GameObject</text>
<text text-anchor="middle" x="1193" y="-553" font-family="Helvetica,sans-Serif" font-size="10.00">Renderer.createCollisionBody</text>
</a>
</g>
</g>
<!-- Node23&#45;&gt;Node30 -->
<g id="edge33" class="edge"><title>Node23&#45;&gt;Node30</title>
<path fill="none" stroke="midnightblue" d="M1034.34,-350.034C1042.42,-354.164 1049.87,-359.391 1056,-366 1108.5,-422.642 1038.39,-480.407 1092,-536 1096.14,-540.291 1100.89,-543.889 1106.03,-546.901"/>
<polygon fill="midnightblue" stroke="midnightblue" points="1104.5,-550.05 1115.01,-551.436 1107.66,-543.802 1104.5,-550.05"/>
</g>
<!-- Node34 -->
<g id="node34" class="node"><title>Node34</title>
<g id="a_node34"><a xlink:href="../../d2/d82/classengine_1_1render_1_1_rendered_node.html#a312c663dd1144ff206ecfa1ea8c95a81" target="_top" xlink:title="engine.render.RenderedNode.set\lLabel">
<polygon fill="white" stroke="black" points="1106,-350 1106,-380 1280,-380 1280,-350 1106,-350"/>
<text text-anchor="start" x="1114" y="-368" font-family="Helvetica,sans-Serif" font-size="10.00">engine.render.RenderedNode.set</text>
<text text-anchor="middle" x="1193" y="-357" font-family="Helvetica,sans-Serif" font-size="10.00">Label</text>
</a>
</g>
</g>
<!-- Node23&#45;&gt;Node34 -->
<g id="edge37" class="edge"><title>Node23&#45;&gt;Node34</title>
<path fill="none" stroke="midnightblue" d="M1055.79,-348.115C1069.07,-349.761 1082.59,-351.437 1095.71,-353.064"/>
<polygon fill="midnightblue" stroke="midnightblue" points="1095.3,-356.54 1105.66,-354.296 1096.16,-349.593 1095.3,-356.54"/>
</g>
<!-- Node35 -->
<g id="node35" class="node"><title>Node35</title>
<g id="a_node35"><a xlink:href="../../df/de5/classengine_1_1render_1_1_game_object_renderer.html#a1d5f0ad1a571faec3c1a364bccc4c038" target="_top" xlink:title="engine.render.GameObject\lRenderer.createLabel">
<polygon fill="white" stroke="black" points="1120,-399 1120,-429 1266,-429 1266,-399 1120,-399"/>
<text text-anchor="start" x="1128" y="-417" font-family="Helvetica,sans-Serif" font-size="10.00">engine.render.GameObject</text>
<text text-anchor="middle" x="1193" y="-406" font-family="Helvetica,sans-Serif" font-size="10.00">Renderer.createLabel</text>
</a>
</g>
</g>
<!-- Node23&#45;&gt;Node35 -->
<g id="edge38" class="edge"><title>Node23&#45;&gt;Node35</title>
<path fill="none" stroke="midnightblue" d="M1012.45,-350.062C1027.03,-354.45 1042.3,-359.773 1056,-366 1073.29,-373.855 1074.56,-381.488 1092,-389 1097.77,-391.486 1103.84,-393.76 1110.02,-395.834"/>
<polygon fill="midnightblue" stroke="midnightblue" points="1109.19,-399.244 1119.78,-398.929 1111.31,-392.571 1109.19,-399.244"/>
</g>
<!-- Node37 -->
<g id="node37" class="node"><title>Node37</title>
<g id="a_node37"><a xlink:href="../../d0/d7f/classengine_1_1game_object_1_1_game_object.html#a606c7293c2bfac0af1fb42143bf527f6" target="_top" xlink:title="engine.gameObject.GameObject.getX">
<polygon fill="white" stroke="black" points="1094,-311.5 1094,-330.5 1292,-330.5 1292,-311.5 1094,-311.5"/>
<text text-anchor="middle" x="1193" y="-318.5" font-family="Helvetica,sans-Serif" font-size="10.00">engine.gameObject.GameObject.getX</text>
</a>
</g>
</g>
<!-- Node23&#45;&gt;Node37 -->
<g id="edge42" class="edge"><title>Node23&#45;&gt;Node37</title>
<path fill="none" stroke="midnightblue" d="M1055.79,-328.88C1065.04,-328.345 1074.41,-327.803 1083.67,-327.267"/>
<polygon fill="midnightblue" stroke="midnightblue" points="1083.9,-330.76 1093.68,-326.688 1083.49,-323.771 1083.9,-330.76"/>
</g>
<!-- Node38 -->
<g id="node38" class="node"><title>Node38</title>
<g id="a_node38"><a xlink:href="../../d0/d7f/classengine_1_1game_object_1_1_game_object.html#a1988806ef560c9384f3844d0666a9450" target="_top" xlink:title="engine.gameObject.GameObject.getY">
<polygon fill="white" stroke="black" points="1094.5,-273.5 1094.5,-292.5 1291.5,-292.5 1291.5,-273.5 1094.5,-273.5"/>
<text text-anchor="middle" x="1193" y="-280.5" font-family="Helvetica,sans-Serif" font-size="10.00">engine.gameObject.GameObject.getY</text>
</a>
</g>
</g>
<!-- Node23&#45;&gt;Node38 -->
<g id="edge43" class="edge"><title>Node23&#45;&gt;Node38</title>
<path fill="none" stroke="midnightblue" d="M1012.09,-319.996C1036.89,-314.152 1065.75,-307.541 1092,-302 1104.21,-299.422 1117.29,-296.821 1129.84,-294.405"/>
<polygon fill="midnightblue" stroke="midnightblue" points="1130.59,-297.824 1139.76,-292.511 1129.28,-290.949 1130.59,-297.824"/>
</g>
<!-- Node39 -->
<g id="node39" class="node"><title>Node39</title>
<g id="a_node39"><a xlink:href="../../d0/d7f/classengine_1_1game_object_1_1_game_object.html#ae94fe532960bd29f64c2dc19ec0af798" target="_top" xlink:title="engine.gameObject.GameObject.getID">
<polygon fill="white" stroke="black" points="1092,-235.5 1092,-254.5 1294,-254.5 1294,-235.5 1092,-235.5"/>
<text text-anchor="middle" x="1193" y="-242.5" font-family="Helvetica,sans-Serif" font-size="10.00">engine.gameObject.GameObject.getID</text>
</a>
</g>
</g>
<!-- Node23&#45;&gt;Node39 -->
<g id="edge44" class="edge"><title>Node23&#45;&gt;Node39</title>
<path fill="none" stroke="midnightblue" d="M1031.54,-319.985C1040.14,-316.741 1048.47,-312.796 1056,-308 1077.31,-294.424 1070.28,-276.913 1092,-264 1095.67,-261.816 1099.55,-259.874 1103.55,-258.15"/>
<polygon fill="midnightblue" stroke="midnightblue" points="1104.99,-261.346 1113.08,-254.507 1102.49,-254.807 1104.99,-261.346"/>
</g>
<!-- Node40 -->
<g id="node40" class="node"><title>Node40</title>
<g id="a_node40"><a xlink:href="../../d0/d7f/classengine_1_1game_object_1_1_game_object.html#ab09d473d8c2afe8cefb2ce2481bc66fd" target="_top" xlink:title="engine.gameObject.GameObject.set\lRenderedNode">
<polygon fill="white" stroke="black" points="1097.5,-186 1097.5,-216 1288.5,-216 1288.5,-186 1097.5,-186"/>
<text text-anchor="start" x="1105.5" y="-204" font-family="Helvetica,sans-Serif" font-size="10.00">engine.gameObject.GameObject.set</text>
<text text-anchor="middle" x="1193" y="-193" font-family="Helvetica,sans-Serif" font-size="10.00">RenderedNode</text>
</a>
</g>
</g>
<!-- Node23&#45;&gt;Node40 -->
<g id="edge46" class="edge"><title>Node23&#45;&gt;Node40</title>
<path fill="none" stroke="midnightblue" d="M1037.45,-319.887C1044.13,-316.645 1050.42,-312.728 1056,-308 1086.36,-282.26 1061.58,-251.673 1092,-226 1093.97,-224.334 1096.04,-222.775 1098.19,-221.319"/>
<polygon fill="midnightblue" stroke="midnightblue" points="1100.02,-224.305 1106.83,-216.19 1096.44,-218.286 1100.02,-224.305"/>
</g>
<!-- Node25&#45;&gt;Node19 -->
<g id="edge29" class="edge"><title>Node25&#45;&gt;Node19</title>
<path fill="none" stroke="midnightblue" d="M1257.99,-136.941C1270.01,-133.848 1282.43,-130.47 1294,-127 1321.31,-118.81 1351.36,-108.366 1375.77,-99.5009"/>
<polygon fill="midnightblue" stroke="midnightblue" points="1376.99,-102.783 1385.18,-96.0628 1374.59,-96.2082 1376.99,-102.783"/>
</g>
<!-- Node26 -->
<g id="node26" class="node"><title>Node26</title>
<g id="a_node26"><a xlink:href="../../d0/d7f/classengine_1_1game_object_1_1_game_object.html#ae8b88e1cf489e935426e2e252defbae0" target="_top" xlink:title="engine.gameObject.GameObject.get\lCurrentImageName">
<polygon fill="white" stroke="black" points="1330,-137 1330,-167 1522,-167 1522,-137 1330,-137"/>
<text text-anchor="start" x="1338" y="-155" font-family="Helvetica,sans-Serif" font-size="10.00">engine.gameObject.GameObject.get</text>
<text text-anchor="middle" x="1426" y="-144" font-family="Helvetica,sans-Serif" font-size="10.00">CurrentImageName</text>
</a>
</g>
</g>
<!-- Node25&#45;&gt;Node26 -->
<g id="edge28" class="edge"><title>Node25&#45;&gt;Node26</title>
<path fill="none" stroke="midnightblue" d="M1274.79,-152C1289.27,-152 1304.56,-152 1319.61,-152"/>
<polygon fill="midnightblue" stroke="midnightblue" points="1319.99,-155.5 1329.99,-152 1319.99,-148.5 1319.99,-155.5"/>
</g>
<!-- Node27 -->
<g id="node27" class="node"><title>Node27</title>
<g id="a_node27"><a xlink:href="../../d0/d7f/classengine_1_1game_object_1_1_game_object.html#aaeb5730a3b51fe9cb3d817ea7172cfc2" target="_top" xlink:title="engine.gameObject.GameObject.get\lHeight">
<polygon fill="white" stroke="black" points="1330,-321 1330,-351 1522,-351 1522,-321 1330,-321"/>
<text text-anchor="start" x="1338" y="-339" font-family="Helvetica,sans-Serif" font-size="10.00">engine.gameObject.GameObject.get</text>
<text text-anchor="middle" x="1426" y="-328" font-family="Helvetica,sans-Serif" font-size="10.00">Height</text>
</a>
</g>
</g>
<!-- Node25&#45;&gt;Node27 -->
<g id="edge30" class="edge"><title>Node25&#45;&gt;Node27</title>
<path fill="none" stroke="midnightblue" d="M1274.65,-164.304C1281.62,-167.403 1288.2,-171.244 1294,-176 1323.52,-200.214 1307.03,-223.503 1330,-254 1348.01,-277.907 1374.04,-299.769 1394.31,-314.896"/>
<polygon fill="midnightblue" stroke="midnightblue" points="1392.46,-317.88 1402.6,-320.954 1396.59,-312.228 1392.46,-317.88"/>
</g>
<!-- Node28 -->
<g id="node28" class="node"><title>Node28</title>
<g id="a_node28"><a xlink:href="../../d0/d7f/classengine_1_1game_object_1_1_game_object.html#a31aa2c854220621b49fc5575b50b9342" target="_top" xlink:title="engine.gameObject.GameObject.get\lWidth">
<polygon fill="white" stroke="black" points="1330,-215 1330,-245 1522,-245 1522,-215 1330,-215"/>
<text text-anchor="start" x="1338" y="-233" font-family="Helvetica,sans-Serif" font-size="10.00">engine.gameObject.GameObject.get</text>
<text text-anchor="middle" x="1426" y="-222" font-family="Helvetica,sans-Serif" font-size="10.00">Width</text>
</a>
</g>
</g>
<!-- Node25&#45;&gt;Node28 -->
<g id="edge31" class="edge"><title>Node25&#45;&gt;Node28</title>
<path fill="none" stroke="midnightblue" d="M1262.98,-167.066C1273.45,-169.78 1284.06,-172.781 1294,-176 1324.4,-185.848 1357.68,-199.606 1383.09,-210.77"/>
<polygon fill="midnightblue" stroke="midnightblue" points="1381.86,-214.053 1392.42,-214.908 1384.7,-207.655 1381.86,-214.053"/>
</g>
<!-- Node31 -->
<g id="node31" class="node"><title>Node31</title>
<g id="a_node31"><a xlink:href="../../d0/d7f/classengine_1_1game_object_1_1_game_object.html#a60c5b6933aac9969491a3562a963c043" target="_top" xlink:title="engine.gameObject.GameObject.get\lPhysicsBody">
<polygon fill="white" stroke="black" points="1330,-497 1330,-527 1522,-527 1522,-497 1330,-497"/>
<text text-anchor="start" x="1338" y="-515" font-family="Helvetica,sans-Serif" font-size="10.00">engine.gameObject.GameObject.get</text>
<text text-anchor="middle" x="1426" y="-504" font-family="Helvetica,sans-Serif" font-size="10.00">PhysicsBody</text>
</a>
</g>
</g>
<!-- Node30&#45;&gt;Node31 -->
<g id="edge34" class="edge"><title>Node30&#45;&gt;Node31</title>
<path fill="none" stroke="midnightblue" d="M1264.88,-545.965C1290.04,-540.627 1318.55,-534.58 1344.46,-529.083"/>
<polygon fill="midnightblue" stroke="midnightblue" points="1345.2,-532.505 1354.26,-527.006 1343.75,-525.657 1345.2,-532.505"/>
</g>
<!-- Node32 -->
<g id="node32" class="node"><title>Node32</title>
<g id="a_node32"><a xlink:href="../../d9/d9d/classengine_1_1game_object_1_1components_1_1_physics_body.html#aba2ed3bce8ee8e404907c88b144626fc" target="_top" xlink:title="engine.gameObject.components.\lPhysicsBody.getCollisionBodyHeight">
<polygon fill="white" stroke="black" points="1332,-595 1332,-625 1520,-625 1520,-595 1332,-595"/>
<text text-anchor="start" x="1340" y="-613" font-family="Helvetica,sans-Serif" font-size="10.00">engine.gameObject.components.</text>
<text text-anchor="middle" x="1426" y="-602" font-family="Helvetica,sans-Serif" font-size="10.00">PhysicsBody.getCollisionBodyHeight</text>
</a>
</g>
</g>
<!-- Node30&#45;&gt;Node32 -->
<g id="edge35" class="edge"><title>Node30&#45;&gt;Node32</title>
<path fill="none" stroke="midnightblue" d="M1264.88,-576.035C1290.04,-581.373 1318.55,-587.42 1344.46,-592.917"/>
<polygon fill="midnightblue" stroke="midnightblue" points="1343.75,-596.343 1354.26,-594.994 1345.2,-589.495 1343.75,-596.343"/>
</g>
<!-- Node33 -->
<g id="node33" class="node"><title>Node33</title>
<g id="a_node33"><a xlink:href="../../d9/d9d/classengine_1_1game_object_1_1components_1_1_physics_body.html#ae64e43632570392c3118b3d00af853fc" target="_top" xlink:title="engine.gameObject.components.\lPhysicsBody.getCollisionBodyWidth">
<polygon fill="white" stroke="black" points="1335,-546 1335,-576 1517,-576 1517,-546 1335,-546"/>
<text text-anchor="start" x="1343" y="-564" font-family="Helvetica,sans-Serif" font-size="10.00">engine.gameObject.components.</text>
<text text-anchor="middle" x="1426" y="-553" font-family="Helvetica,sans-Serif" font-size="10.00">PhysicsBody.getCollisionBodyWidth</text>
</a>
</g>
</g>
<!-- Node30&#45;&gt;Node33 -->
<g id="edge36" class="edge"><title>Node30&#45;&gt;Node33</title>
<path fill="none" stroke="midnightblue" d="M1270.6,-561C1288,-561 1306.73,-561 1324.94,-561"/>
<polygon fill="midnightblue" stroke="midnightblue" points="1324.99,-564.5 1334.99,-561 1324.99,-557.5 1324.99,-564.5"/>
</g>
<!-- Node35&#45;&gt;Node27 -->
<g id="edge40" class="edge"><title>Node35&#45;&gt;Node27</title>
<path fill="none" stroke="midnightblue" d="M1259.73,-398.959C1271.23,-395.932 1283.02,-392.573 1294,-389 1323.99,-379.236 1356.9,-365.91 1382.24,-355.064"/>
<polygon fill="midnightblue" stroke="midnightblue" points="1383.76,-358.219 1391.55,-351.041 1380.98,-351.793 1383.76,-358.219"/>
</g>
<!-- Node35&#45;&gt;Node28 -->
<g id="edge41" class="edge"><title>Node35&#45;&gt;Node28</title>
<path fill="none" stroke="midnightblue" d="M1266.07,-404.336C1276.17,-400.693 1285.87,-395.734 1294,-389 1323.41,-364.647 1306.94,-341.428 1330,-311 1347.87,-287.422 1373.69,-265.959 1393.91,-251.059"/>
<polygon fill="midnightblue" stroke="midnightblue" points="1396.12,-253.776 1402.19,-245.088 1392.03,-248.098 1396.12,-253.776"/>
</g>
<!-- Node36 -->
<g id="node36" class="node"><title>Node36</title>
<g id="a_node36"><a xlink:href="../../d0/d7f/classengine_1_1game_object_1_1_game_object.html#a5c379828f3bb19a91935f965c48a91a5" target="_top" xlink:title="engine.gameObject.GameObject.get\lLabel">
<polygon fill="white" stroke="black" points="1330,-399 1330,-429 1522,-429 1522,-399 1330,-399"/>
<text text-anchor="start" x="1338" y="-417" font-family="Helvetica,sans-Serif" font-size="10.00">engine.gameObject.GameObject.get</text>
<text text-anchor="middle" x="1426" y="-406" font-family="Helvetica,sans-Serif" font-size="10.00">Label</text>
</a>
</g>
</g>
<!-- Node35&#45;&gt;Node36 -->
<g id="edge39" class="edge"><title>Node35&#45;&gt;Node36</title>
<path fill="none" stroke="midnightblue" d="M1266.14,-414C1283.12,-414 1301.56,-414 1319.66,-414"/>
<polygon fill="midnightblue" stroke="midnightblue" points="1319.67,-417.5 1329.67,-414 1319.67,-410.5 1319.67,-417.5"/>
</g>
</g>
</svg>
        <g id="navigator" transform="translate(0 0)" fill="#404254">
                <rect fill="#f2f5e9" fill-opacity="0.5" stroke="#606060" stroke-width=".5" x="0" y="0" width="60" height="60"/>
                <use id="zoomplus" xlink:href="#zoomPlus" x="17" y="9" onmousedown="handleZoom(evt,'in')"/>
                <use id="zoomminus" xlink:href="#zoomMin" x="42" y="9" onmousedown="handleZoom(evt,'out')"/>
                <use id="reset" xlink:href="#resetDef" x="30" y="36" onmousedown="handleReset()"/>
                <g id="arrowUp" xlink:href="#dirArrow" transform="translate(30 24)" onmousedown="handlePan(0,-1)">
                  <use xlink:href="#rim" fill="#404040">
                        <set attributeName="fill" to="#808080" begin="arrowUp.mouseover" end="arrowUp.mouseout"/>
                  </use>
                  <path fill="none" stroke="white" stroke-width="1.5" d="M0,-3.0v7 M-2.5,-0.5L0,-3.0L2.5,-0.5"/>
                </g>
                <g id="arrowRight" xlink:href="#dirArrow" transform="rotate(90) translate(36 -43)" onmousedown="handlePan(1,0)">
                  <use xlink:href="#rim" fill="#404040">
                        <set attributeName="fill" to="#808080" begin="arrowRight.mouseover" end="arrowRight.mouseout"/>
                  </use>
                  <path fill="none" stroke="white" stroke-width="1.5" d="M0,-3.0v7 M-2.5,-0.5L0,-3.0L2.5,-0.5"/>
                </g>
                <g id="arrowDown" xlink:href="#dirArrow" transform="rotate(180) translate(-30 -48)" onmousedown="handlePan(0,1)">
                  <use xlink:href="#rim" fill="#404040">
                        <set attributeName="fill" to="#808080" begin="arrowDown.mouseover" end="arrowDown.mouseout"/>
                  </use>
                  <path fill="none" stroke="white" stroke-width="1.5" d="M0,-3.0v7 M-2.5,-0.5L0,-3.0L2.5,-0.5"/>
                </g>
                <g id="arrowLeft" xlink:href="#dirArrow" transform="rotate(270) translate(-36 17)" onmousedown="handlePan(-1,0)">
                  <use xlink:href="#rim" fill="#404040">
                        <set attributeName="fill" to="#808080" begin="arrowLeft.mouseover" end="arrowLeft.mouseout"/>
                  </use>
                  <path fill="none" stroke="white" stroke-width="1.5" d="M0,-3.0v7 M-2.5,-0.5L0,-3.0L2.5,-0.5"/>
                </g>
        </g>
        <svg viewBox="0 0 15 15" width="100%" height="30px" preserveAspectRatio="xMaxYMin meet">
         <g id="arrow_out" transform="scale(0.3 0.3)">
          <a xlink:href="classengine_1_1actions_1_1_change_level_action_a8190adf308768b0d12f6432d0cf0fbc4_cgraph_org.svg" target="_base">
           <rect id="button" ry="5" rx="5" y="6" x="6" height="38" width="38"
                fill="#f2f5e9" fill-opacity="0.5" stroke="#606060" stroke-width="1.0"/>
           <path id="arrow"
             d="M 11.500037,31.436501 C 11.940474,20.09759 22.043105,11.32322 32.158766,21.979434 L 37.068811,17.246167 C 37.068811,17.246167 37.088388,32 37.088388,32 L 22.160133,31.978069 C 22.160133,31.978069 26.997745,27.140456 26.997745,27.140456 C 18.528582,18.264221 13.291696,25.230495 11.500037,31.436501 z"
             style="fill:#404040;"/>
          </a>
         </g>
        </svg>
</svg>
