<?xml version="1.0" encoding="UTF-8" standalone="no"?>
<!DOCTYPE svg PUBLIC "-//W3C//DTD SVG 1.1//EN"
 "http://www.w3.org/Graphics/SVG/1.1/DTD/svg11.dtd">
<!-- Generated by graphviz version 2.36.0 (20140111.2315)
 -->
<!-- Title: engine.actions.ChangeLevelAction.execute Pages: 1 -->
<svg width="1530pt" height="584pt"
 viewBox="0.00 0.00 1530.00 584.00" xmlns="http://www.w3.org/2000/svg" xmlns:xlink="http://www.w3.org/1999/xlink">
<g id="graph0" class="graph" transform="scale(1 1) rotate(0) translate(4 580)">
<title>engine.actions.ChangeLevelAction.execute</title>
<polygon fill="white" stroke="none" points="-4,4 -4,-580 1526,-580 1526,4 -4,4"/>
<!-- Node1 -->
<g id="node1" class="node"><title>Node1</title>
<polygon fill="#bfbfbf" stroke="black" points="0.5,-357 0.5,-387 151.5,-387 151.5,-357 0.5,-357"/>
<text text-anchor="start" x="8.5" y="-375" font-family="Helvetica,sans-Serif" font-size="10.00">engine.actions.ChangeLevel</text>
<text text-anchor="middle" x="76" y="-364" font-family="Helvetica,sans-Serif" font-size="10.00">Action.execute</text>
</g>
<!-- Node2 -->
<g id="node2" class="node"><title>Node2</title>
<g id="a_node2"><a xlink:href="../../df/d67/classengine_1_1level_1_1_level_manager.html#ad3c392cf6260c53428255fb596442692" target="_top" xlink:title="engine.level.LevelManager.change\lToLevel">
<polygon fill="white" stroke="black" points="188.5,-357 188.5,-387 369.5,-387 369.5,-357 188.5,-357"/>
<text text-anchor="start" x="196.5" y="-375" font-family="Helvetica,sans-Serif" font-size="10.00">engine.level.LevelManager.change</text>
<text text-anchor="middle" x="279" y="-364" font-family="Helvetica,sans-Serif" font-size="10.00">ToLevel</text>
</a>
</g>
</g>
<!-- Node1&#45;&gt;Node2 -->
<g id="edge1" class="edge"><title>Node1&#45;&gt;Node2</title>
<path fill="none" stroke="midnightblue" d="M151.559,-372C160.245,-372 169.208,-372 178.164,-372"/>
<polygon fill="midnightblue" stroke="midnightblue" points="178.258,-375.5 188.258,-372 178.258,-368.5 178.258,-375.5"/>
</g>
<!-- Node3 -->
<g id="node3" class="node"><title>Node3</title>
<g id="a_node3"><a xlink:href="../../df/d67/classengine_1_1level_1_1_level_manager.html#ad89101547413fe335873b050fd091c79" target="_top" xlink:title="engine.level.LevelManager.set\lCurrentLevel">
<polygon fill="white" stroke="black" points="417.5,-406 417.5,-436 578.5,-436 578.5,-406 417.5,-406"/>
<text text-anchor="start" x="425.5" y="-424" font-family="Helvetica,sans-Serif" font-size="10.00">engine.level.LevelManager.set</text>
<text text-anchor="middle" x="498" y="-413" font-family="Helvetica,sans-Serif" font-size="10.00">CurrentLevel</text>
</a>
</g>
</g>
<!-- Node2&#45;&gt;Node3 -->
<g id="edge2" class="edge"><title>Node2&#45;&gt;Node3</title>
<path fill="none" stroke="midnightblue" d="M346.582,-387.035C370.015,-392.326 396.53,-398.313 420.701,-403.771"/>
<polygon fill="midnightblue" stroke="midnightblue" points="420.019,-407.205 430.544,-405.994 421.561,-400.377 420.019,-407.205"/>
</g>
<!-- Node9 -->
<g id="node9" class="node"><title>Node9</title>
<g id="a_node9"><a xlink:href="../../df/d67/classengine_1_1level_1_1_level_manager.html#a523599892453015eed0f1b506979af8a" target="_top" xlink:title="engine.level.LevelManager.initialize\lCurrentLevel">
<polygon fill="white" stroke="black" points="406,-308 406,-338 590,-338 590,-308 406,-308"/>
<text text-anchor="start" x="414" y="-326" font-family="Helvetica,sans-Serif" font-size="10.00">engine.level.LevelManager.initialize</text>
<text text-anchor="middle" x="498" y="-315" font-family="Helvetica,sans-Serif" font-size="10.00">CurrentLevel</text>
</a>
</g>
</g>
<!-- Node2&#45;&gt;Node9 -->
<g id="edge8" class="edge"><title>Node2&#45;&gt;Node9</title>
<path fill="none" stroke="midnightblue" d="M346.582,-356.965C370.015,-351.674 396.53,-345.687 420.701,-340.229"/>
<polygon fill="midnightblue" stroke="midnightblue" points="421.561,-343.623 430.544,-338.006 420.019,-336.795 421.561,-343.623"/>
</g>
<!-- Node4 -->
<g id="node4" class="node"><title>Node4</title>
<g id="a_node4"><a xlink:href="../../df/d84/classengine_1_1level_1_1_level.html#ace23cd4ed278a5bb85e964ff3c8818b5" target="_top" xlink:title="engine.level.Level.initialize">
<polygon fill="white" stroke="black" points="644.5,-434.5 644.5,-453.5 787.5,-453.5 787.5,-434.5 644.5,-434.5"/>
<text text-anchor="middle" x="716" y="-441.5" font-family="Helvetica,sans-Serif" font-size="10.00">engine.level.Level.initialize</text>
</a>
</g>
</g>
<!-- Node3&#45;&gt;Node4 -->
<g id="edge3" class="edge"><title>Node3&#45;&gt;Node4</title>
<path fill="none" stroke="midnightblue" d="M578.51,-429.466C596.678,-431.401 616.004,-433.459 634.224,-435.399"/>
<polygon fill="midnightblue" stroke="midnightblue" points="633.904,-438.884 644.218,-436.463 634.645,-431.924 633.904,-438.884"/>
</g>
<!-- Node5 -->
<g id="node5" class="node"><title>Node5</title>
<g id="a_node5"><a xlink:href="../../df/d67/classengine_1_1level_1_1_level_manager.html#a6e15411e375d875fa72058d499bec766" target="_top" xlink:title="engine.level.LevelManager.object\lForIdentifier">
<polygon fill="white" stroke="black" points="861.5,-480 861.5,-510 1036.5,-510 1036.5,-480 861.5,-480"/>
<text text-anchor="start" x="869.5" y="-498" font-family="Helvetica,sans-Serif" font-size="10.00">engine.level.LevelManager.object</text>
<text text-anchor="middle" x="949" y="-487" font-family="Helvetica,sans-Serif" font-size="10.00">ForIdentifier</text>
</a>
</g>
</g>
<!-- Node4&#45;&gt;Node5 -->
<g id="edge4" class="edge"><title>Node4&#45;&gt;Node5</title>
<path fill="none" stroke="midnightblue" d="M760.178,-453.533C790.855,-460.306 832.92,-469.593 869.466,-477.661"/>
<polygon fill="midnightblue" stroke="midnightblue" points="869.094,-481.163 879.614,-479.902 870.603,-474.328 869.094,-481.163"/>
</g>
<!-- Node6 -->
<g id="node6" class="node"><title>Node6</title>
<g id="a_node6"><a xlink:href="../../d0/d7f/classengine_1_1game_object_1_1_game_object.html#accd456b2eaab9c7056de825a28b066c8" target="_top" xlink:title="engine.gameObject.GameObject.get\lIdentifier">
<polygon fill="white" stroke="black" points="853,-382 853,-412 1045,-412 1045,-382 853,-382"/>
<text text-anchor="start" x="861" y="-400" font-family="Helvetica,sans-Serif" font-size="10.00">engine.gameObject.GameObject.get</text>
<text text-anchor="middle" x="949" y="-389" font-family="Helvetica,sans-Serif" font-size="10.00">Identifier</text>
</a>
</g>
</g>
<!-- Node4&#45;&gt;Node6 -->
<g id="edge5" class="edge"><title>Node4&#45;&gt;Node6</title>
<path fill="none" stroke="midnightblue" d="M763.746,-434.489C792.544,-428.63 830.307,-420.946 864.143,-414.062"/>
<polygon fill="midnightblue" stroke="midnightblue" points="864.935,-417.472 874.037,-412.049 863.539,-410.613 864.935,-417.472"/>
</g>
<!-- Node7 -->
<g id="node7" class="node"><title>Node7</title>
<g id="a_node7"><a xlink:href="../../d4/dac/classengine_1_1game_object_1_1_identifier.html#aa2630b5024b9595e43afe0bf53229433" target="_top" xlink:title="engine.gameObject.Identifier.get\lUniqueId">
<polygon fill="white" stroke="black" points="862.5,-431 862.5,-461 1035.5,-461 1035.5,-431 862.5,-431"/>
<text text-anchor="start" x="870.5" y="-449" font-family="Helvetica,sans-Serif" font-size="10.00">engine.gameObject.Identifier.get</text>
<text text-anchor="middle" x="949" y="-438" font-family="Helvetica,sans-Serif" font-size="10.00">UniqueId</text>
</a>
</g>
</g>
<!-- Node4&#45;&gt;Node7 -->
<g id="edge6" class="edge"><title>Node4&#45;&gt;Node7</title>
<path fill="none" stroke="midnightblue" d="M787.563,-444.611C807.951,-444.787 830.553,-444.983 852.203,-445.171"/>
<polygon fill="midnightblue" stroke="midnightblue" points="852.375,-448.672 862.405,-445.259 852.435,-441.672 852.375,-448.672"/>
</g>
<!-- Node8 -->
<g id="node8" class="node"><title>Node8</title>
<g id="a_node8"><a xlink:href="../../d4/d3b/classauthoring_1_1model_1_1collections_1_1_general_collection.html#a1bdc1047736bbb23259d6a7fe4c6deeb" target="_top" xlink:title="authoring.model.collections.\lGeneralCollection.add">
<polygon fill="white" stroke="black" points="873,-529 873,-559 1025,-559 1025,-529 873,-529"/>
<text text-anchor="start" x="881" y="-547" font-family="Helvetica,sans-Serif" font-size="10.00">authoring.model.collections.</text>
<text text-anchor="middle" x="949" y="-536" font-family="Helvetica,sans-Serif" font-size="10.00">GeneralCollection.add</text>
</a>
</g>
</g>
<!-- Node4&#45;&gt;Node8 -->
<g id="edge7" class="edge"><title>Node4&#45;&gt;Node8</title>
<path fill="none" stroke="midnightblue" d="M729.792,-453.525C751.668,-469.376 798.157,-501.182 842,-519 848.744,-521.741 855.857,-524.223 863.075,-526.461"/>
<polygon fill="midnightblue" stroke="midnightblue" points="862.378,-529.904 872.959,-529.365 864.351,-523.188 862.378,-529.904"/>
</g>
<!-- Node9&#45;&gt;Node4 -->
<g id="edge16" class="edge"><title>Node9&#45;&gt;Node4</title>
<path fill="none" stroke="midnightblue" d="M517.602,-338.023C549.916,-364.02 614.118,-415.186 626,-421 634.618,-425.217 644.096,-428.721 653.556,-431.616"/>
<polygon fill="midnightblue" stroke="midnightblue" points="652.793,-435.038 663.37,-434.416 654.714,-428.306 652.793,-435.038"/>
</g>
<!-- Node10 -->
<g id="node10" class="node"><title>Node10</title>
<g id="a_node10"><a xlink:href="../../df/d67/classengine_1_1level_1_1_level_manager.html#af00a1d61217dd801bb7a8b16ad829cf0" target="_top" xlink:title="engine.level.LevelManager.disable\lAllConditions">
<polygon fill="white" stroke="black" points="626.5,-284 626.5,-314 805.5,-314 805.5,-284 626.5,-284"/>
<text text-anchor="start" x="634.5" y="-302" font-family="Helvetica,sans-Serif" font-size="10.00">engine.level.LevelManager.disable</text>
<text text-anchor="middle" x="716" y="-291" font-family="Helvetica,sans-Serif" font-size="10.00">AllConditions</text>
</a>
</g>
</g>
<!-- Node9&#45;&gt;Node10 -->
<g id="edge9" class="edge"><title>Node9&#45;&gt;Node10</title>
<path fill="none" stroke="midnightblue" d="M590.29,-312.857C598.897,-311.9 607.649,-310.928 616.32,-309.964"/>
<polygon fill="midnightblue" stroke="midnightblue" points="616.896,-313.422 626.448,-308.839 616.123,-306.465 616.896,-313.422"/>
</g>
<!-- Node11 -->
<g id="node11" class="node"><title>Node11</title>
<g id="a_node11"><a xlink:href="../../df/d67/classengine_1_1level_1_1_level_manager.html#a5d79217e53b1e3804476ba6b366ad066" target="_top" xlink:title="engine.level.LevelManager.set\lLevelEnabledConditions">
<polygon fill="white" stroke="black" points="635.5,-235 635.5,-265 796.5,-265 796.5,-235 635.5,-235"/>
<text text-anchor="start" x="643.5" y="-253" font-family="Helvetica,sans-Serif" font-size="10.00">engine.level.LevelManager.set</text>
<text text-anchor="middle" x="716" y="-242" font-family="Helvetica,sans-Serif" font-size="10.00">LevelEnabledConditions</text>
</a>
</g>
</g>
<!-- Node9&#45;&gt;Node11 -->
<g id="edge10" class="edge"><title>Node9&#45;&gt;Node11</title>
<path fill="none" stroke="midnightblue" d="M535.041,-307.933C560.267,-297.674 594.887,-284.166 626,-274 632.439,-271.896 639.182,-269.832 645.952,-267.852"/>
<polygon fill="midnightblue" stroke="midnightblue" points="647.208,-271.133 655.858,-265.016 645.281,-264.403 647.208,-271.133"/>
</g>
<!-- Node14 -->
<g id="node14" class="node"><title>Node14</title>
<g id="a_node14"><a xlink:href="../../da/d90/classengine_1_1sound_1_1_sound_utility.html#a53a82805b12b2b8f68b8396b9795d092" target="_top" xlink:title="engine.sound.SoundUtility.stop\lBackGroundMusic">
<polygon fill="white" stroke="black" points="634,-186 634,-216 798,-216 798,-186 634,-186"/>
<text text-anchor="start" x="642" y="-204" font-family="Helvetica,sans-Serif" font-size="10.00">engine.sound.SoundUtility.stop</text>
<text text-anchor="middle" x="716" y="-193" font-family="Helvetica,sans-Serif" font-size="10.00">BackGroundMusic</text>
</a>
</g>
</g>
<!-- Node9&#45;&gt;Node14 -->
<g id="edge13" class="edge"><title>Node9&#45;&gt;Node14</title>
<path fill="none" stroke="midnightblue" d="M514.435,-307.746C537.042,-286.235 581.337,-247.145 626,-225 629.979,-223.027 634.141,-221.2 638.399,-219.51"/>
<polygon fill="midnightblue" stroke="midnightblue" points="639.672,-222.771 647.843,-216.027 637.25,-216.204 639.672,-222.771"/>
</g>
<!-- Node15 -->
<g id="node15" class="node"><title>Node15</title>
<g id="a_node15"><a xlink:href="../../da/d90/classengine_1_1sound_1_1_sound_utility.html#ab8cd26d71aa7b20d07350105a4254c92" target="_top" xlink:title="engine.sound.SoundUtility.play\lBackGroundMusic">
<polygon fill="white" stroke="black" points="634.5,-137 634.5,-167 797.5,-167 797.5,-137 634.5,-137"/>
<text text-anchor="start" x="642.5" y="-155" font-family="Helvetica,sans-Serif" font-size="10.00">engine.sound.SoundUtility.play</text>
<text text-anchor="middle" x="716" y="-144" font-family="Helvetica,sans-Serif" font-size="10.00">BackGroundMusic</text>
</a>
</g>
</g>
<!-- Node9&#45;&gt;Node15 -->
<g id="edge14" class="edge"><title>Node9&#45;&gt;Node15</title>
<path fill="none" stroke="midnightblue" d="M507.71,-307.897C525.772,-277.962 570.308,-210.98 626,-176 628.626,-174.351 631.364,-172.814 634.182,-171.381"/>
<polygon fill="midnightblue" stroke="midnightblue" points="635.781,-174.499 643.417,-167.154 632.867,-168.134 635.781,-174.499"/>
</g>
<!-- Node16 -->
<g id="node16" class="node"><title>Node16</title>
<g id="a_node16"><a xlink:href="../../df/d84/classengine_1_1level_1_1_level.html#a368275ed98c802fbf59a11423b9b9a0d" target="_top" xlink:title="engine.level.Level.getBackground\lMusic">
<polygon fill="white" stroke="black" points="627.5,-382 627.5,-412 804.5,-412 804.5,-382 627.5,-382"/>
<text text-anchor="start" x="635.5" y="-400" font-family="Helvetica,sans-Serif" font-size="10.00">engine.level.Level.getBackground</text>
<text text-anchor="middle" x="716" y="-389" font-family="Helvetica,sans-Serif" font-size="10.00">Music</text>
</a>
</g>
</g>
<!-- Node9&#45;&gt;Node16 -->
<g id="edge15" class="edge"><title>Node9&#45;&gt;Node16</title>
<path fill="none" stroke="midnightblue" d="M535.348,-338.075C560.566,-348.274 595.053,-361.709 626,-372 633.282,-374.421 640.948,-376.81 648.601,-379.095"/>
<polygon fill="midnightblue" stroke="midnightblue" points="647.677,-382.471 658.258,-381.926 649.647,-375.754 647.677,-382.471"/>
</g>
<!-- Node17 -->
<g id="node17" class="node"><title>Node17</title>
<g id="a_node17"><a xlink:href="../../df/de5/classengine_1_1render_1_1_game_object_renderer.html#a610545384a337edcd3bffb9f0c6ecf18" target="_top" xlink:title="engine.render.GameObject\lRenderer.renderGameObjects">
<polygon fill="white" stroke="black" points="637,-333 637,-363 795,-363 795,-333 637,-333"/>
<text text-anchor="start" x="645" y="-351" font-family="Helvetica,sans-Serif" font-size="10.00">engine.render.GameObject</text>
<text text-anchor="middle" x="716" y="-340" font-family="Helvetica,sans-Serif" font-size="10.00">Renderer.renderGameObjects</text>
</a>
</g>
</g>
<!-- Node9&#45;&gt;Node17 -->
<g id="edge17" class="edge"><title>Node9&#45;&gt;Node17</title>
<path fill="none" stroke="midnightblue" d="M590.29,-333.566C602.344,-334.961 614.682,-336.389 626.685,-337.778"/>
<polygon fill="midnightblue" stroke="midnightblue" points="626.338,-341.261 636.674,-338.935 627.143,-334.308 626.338,-341.261"/>
</g>
<!-- Node12 -->
<g id="node12" class="node"><title>Node12</title>
<g id="a_node12"><a xlink:href="../../df/d84/classengine_1_1level_1_1_level.html#a264b568258eafa3d2c664c94e7498621" target="_top" xlink:title="engine.level.Level.getCondition\lIdentifiers">
<polygon fill="white" stroke="black" points="866.5,-137 866.5,-167 1031.5,-167 1031.5,-137 866.5,-137"/>
<text text-anchor="start" x="874.5" y="-155" font-family="Helvetica,sans-Serif" font-size="10.00">engine.level.Level.getCondition</text>
<text text-anchor="middle" x="949" y="-144" font-family="Helvetica,sans-Serif" font-size="10.00">Identifiers</text>
</a>
</g>
</g>
<!-- Node11&#45;&gt;Node12 -->
<g id="edge11" class="edge"><title>Node11&#45;&gt;Node12</title>
<path fill="none" stroke="midnightblue" d="M787.98,-234.841C794.338,-232.087 800.458,-228.837 806,-225 828.219,-209.619 819.395,-190.808 842,-176 846.636,-172.963 851.605,-170.307 856.767,-167.984"/>
<polygon fill="midnightblue" stroke="midnightblue" points="858.282,-171.147 866.24,-164.154 855.657,-164.658 858.282,-171.147"/>
</g>
<!-- Node13 -->
<g id="node13" class="node"><title>Node13</title>
<g id="a_node13"><a xlink:href="../../df/d67/classengine_1_1level_1_1_level_manager.html#a766cb6198dd991f0bdf6386dace3a65b" target="_top" xlink:title="engine.level.LevelManager.enable\lCondition">
<polygon fill="white" stroke="black" points="860,-186 860,-216 1038,-216 1038,-186 860,-186"/>
<text text-anchor="start" x="868" y="-204" font-family="Helvetica,sans-Serif" font-size="10.00">engine.level.LevelManager.enable</text>
<text text-anchor="middle" x="949" y="-193" font-family="Helvetica,sans-Serif" font-size="10.00">Condition</text>
</a>
</g>
</g>
<!-- Node11&#45;&gt;Node13 -->
<g id="edge12" class="edge"><title>Node11&#45;&gt;Node13</title>
<path fill="none" stroke="midnightblue" d="M787.877,-234.965C813.044,-229.627 841.55,-223.58 867.464,-218.083"/>
<polygon fill="midnightblue" stroke="midnightblue" points="868.201,-221.505 877.257,-216.006 866.748,-214.657 868.201,-221.505"/>
</g>
<!-- Node17&#45;&gt;Node6 -->
<g id="edge23" class="edge"><title>Node17&#45;&gt;Node6</title>
<path fill="none" stroke="midnightblue" d="M787.877,-363.035C813.044,-368.373 841.55,-374.42 867.464,-379.917"/>
<polygon fill="midnightblue" stroke="midnightblue" points="866.748,-383.343 877.257,-381.994 868.201,-376.495 866.748,-383.343"/>
</g>
<!-- Node17&#45;&gt;Node7 -->
<g id="edge24" class="edge"><title>Node17&#45;&gt;Node7</title>
<path fill="none" stroke="midnightblue" d="M787.486,-363.021C794.014,-365.805 800.306,-369.1 806,-373 828,-388.07 819.686,-406.398 842,-421 845.56,-423.329 849.313,-425.443 853.197,-427.359"/>
<polygon fill="midnightblue" stroke="midnightblue" points="851.912,-430.618 862.471,-431.485 854.757,-424.223 851.912,-430.618"/>
</g>
<!-- Node18 -->
<g id="node18" class="node"><title>Node18</title>
<g id="a_node18"><a xlink:href="../../df/de5/classengine_1_1render_1_1_game_object_renderer.html#ad1dadb54349f33bce5bb60cd8d5cac64" target="_top" xlink:title="engine.render.GameObject\lRenderer.setBackGroundImage">
<polygon fill="white" stroke="black" points="866.5,-333 866.5,-363 1031.5,-363 1031.5,-333 866.5,-333"/>
<text text-anchor="start" x="874.5" y="-351" font-family="Helvetica,sans-Serif" font-size="10.00">engine.render.GameObject</text>
<text text-anchor="middle" x="949" y="-340" font-family="Helvetica,sans-Serif" font-size="10.00">Renderer.setBackGroundImage</text>
</a>
</g>
</g>
<!-- Node17&#45;&gt;Node18 -->
<g id="edge18" class="edge"><title>Node17&#45;&gt;Node18</title>
<path fill="none" stroke="midnightblue" d="M795.206,-348C814.801,-348 836,-348 856.19,-348"/>
<polygon fill="midnightblue" stroke="midnightblue" points="856.324,-351.5 866.324,-348 856.324,-344.5 856.324,-351.5"/>
</g>
<!-- Node21 -->
<g id="node21" class="node"><title>Node21</title>
<g id="a_node21"><a xlink:href="../../df/d84/classengine_1_1level_1_1_level.html#af2921158eda86e1f909575ee468eec5c" target="_top" xlink:title="engine.level.Level.getGame\lObjectIterator">
<polygon fill="white" stroke="black" points="874.5,-235 874.5,-265 1023.5,-265 1023.5,-235 874.5,-235"/>
<text text-anchor="start" x="882.5" y="-253" font-family="Helvetica,sans-Serif" font-size="10.00">engine.level.Level.getGame</text>
<text text-anchor="middle" x="949" y="-242" font-family="Helvetica,sans-Serif" font-size="10.00">ObjectIterator</text>
</a>
</g>
</g>
<!-- Node17&#45;&gt;Node21 -->
<g id="edge21" class="edge"><title>Node17&#45;&gt;Node21</title>
<path fill="none" stroke="midnightblue" d="M787.98,-332.841C794.338,-330.087 800.458,-326.837 806,-323 828.219,-307.619 819.395,-288.808 842,-274 848.977,-269.43 856.705,-265.722 864.716,-262.716"/>
<polygon fill="midnightblue" stroke="midnightblue" points="865.873,-266.02 874.223,-259.499 863.629,-259.389 865.873,-266.02"/>
</g>
<!-- Node23 -->
<g id="node23" class="node"><title>Node23</title>
<g id="a_node23"><a xlink:href="../../df/de5/classengine_1_1render_1_1_game_object_renderer.html#a745cb65a5425a20a1b5063068ef1314a" target="_top" xlink:title="engine.render.GameObject\lRenderer.createAndAssignRenderedNode">
<polygon fill="white" stroke="black" points="842.5,-284 842.5,-314 1055.5,-314 1055.5,-284 842.5,-284"/>
<text text-anchor="start" x="850.5" y="-302" font-family="Helvetica,sans-Serif" font-size="10.00">engine.render.GameObject</text>
<text text-anchor="middle" x="949" y="-291" font-family="Helvetica,sans-Serif" font-size="10.00">Renderer.createAndAssignRenderedNode</text>
</a>
</g>
</g>
<!-- Node17&#45;&gt;Node23 -->
<g id="edge25" class="edge"><title>Node17&#45;&gt;Node23</title>
<path fill="none" stroke="midnightblue" d="M787.877,-332.965C813.044,-327.627 841.55,-321.58 867.464,-316.083"/>
<polygon fill="midnightblue" stroke="midnightblue" points="868.201,-319.505 877.257,-314.006 866.748,-312.657 868.201,-319.505"/>
</g>
<!-- Node19 -->
<g id="node19" class="node"><title>Node19</title>
<g id="a_node19"><a xlink:href="../../d9/db5/classengine_1_1_file_path_utility.html#ad8a72da93bd719a750bd549ed92a37d7" target="_top" xlink:title="engine.FilePathUtility.get\lFilePath">
<polygon fill="white" stroke="black" points="1360,-466 1360,-496 1492,-496 1492,-466 1360,-466"/>
<text text-anchor="start" x="1368" y="-484" font-family="Helvetica,sans-Serif" font-size="10.00">engine.FilePathUtility.get</text>
<text text-anchor="middle" x="1426" y="-473" font-family="Helvetica,sans-Serif" font-size="10.00">FilePath</text>
</a>
</g>
</g>
<!-- Node18&#45;&gt;Node19 -->
<g id="edge19" class="edge"><title>Node18&#45;&gt;Node19</title>
<path fill="none" stroke="midnightblue" d="M1031.62,-357.625C1040.61,-361.357 1049.02,-366.35 1056,-373 1097.87,-412.871 1045.81,-463.234 1092,-498 1176.75,-561.787 1310.78,-525.55 1380.13,-499.798"/>
<polygon fill="midnightblue" stroke="midnightblue" points="1381.78,-502.916 1389.88,-496.088 1379.29,-496.374 1381.78,-502.916"/>
</g>
<!-- Node20 -->
<g id="node20" class="node"><title>Node20</title>
<g id="a_node20"><a xlink:href="../../df/d84/classengine_1_1level_1_1_level.html#a5dc36c31fcc8e0b5cbe2a942ec101fdb" target="_top" xlink:title="engine.level.Level.getBackground\lImage">
<polygon fill="white" stroke="black" points="1104.5,-546 1104.5,-576 1281.5,-576 1281.5,-546 1104.5,-546"/>
<text text-anchor="start" x="1112.5" y="-564" font-family="Helvetica,sans-Serif" font-size="10.00">engine.level.Level.getBackground</text>
<text text-anchor="middle" x="1193" y="-553" font-family="Helvetica,sans-Serif" font-size="10.00">Image</text>
</a>
</g>
</g>
<!-- Node18&#45;&gt;Node20 -->
<g id="edge20" class="edge"><title>Node18&#45;&gt;Node20</title>
<path fill="none" stroke="midnightblue" d="M1031.73,-357.141C1040.75,-360.946 1049.14,-366.088 1056,-373 1106.73,-424.12 1042.82,-478.385 1092,-531 1095.38,-534.617 1099.18,-537.803 1103.27,-540.61"/>
<polygon fill="midnightblue" stroke="midnightblue" points="1101.64,-543.718 1112.02,-545.854 1105.24,-537.713 1101.64,-543.718"/>
</g>
<!-- Node22 -->
<g id="node22" class="node"><title>Node22</title>
<g id="a_node22"><a xlink:href="../../d4/d3b/classauthoring_1_1model_1_1collections_1_1_general_collection.html#a79482ff667a22bb0d5b702c03261fe8d" target="_top" xlink:title="authoring.model.collections.\lGeneralCollection.iterator">
<polygon fill="white" stroke="black" points="1117,-0 1117,-30 1269,-30 1269,-0 1117,-0"/>
<text text-anchor="start" x="1125" y="-18" font-family="Helvetica,sans-Serif" font-size="10.00">authoring.model.collections.</text>
<text text-anchor="middle" x="1193" y="-7" font-family="Helvetica,sans-Serif" font-size="10.00">GeneralCollection.iterator</text>
</a>
</g>
</g>
<!-- Node21&#45;&gt;Node22 -->
<g id="edge22" class="edge"><title>Node21&#45;&gt;Node22</title>
<path fill="none" stroke="midnightblue" d="M1023.66,-244.174C1035.78,-240.197 1047.22,-234.133 1056,-225 1114.05,-164.614 1034.35,-100.773 1092,-40 1096.53,-35.2286 1101.81,-31.3118 1107.55,-28.1028"/>
<polygon fill="midnightblue" stroke="midnightblue" points="1109.39,-31.1029 1116.89,-23.6213 1106.36,-24.7917 1109.39,-31.1029"/>
</g>
<!-- Node24 -->
<g id="node24" class="node"><title>Node24</title>
<g id="a_node24"><a xlink:href="../../d2/d82/classengine_1_1render_1_1_rendered_node.html#a520a8c03b505d10c69e010e603cadfdd" target="_top" xlink:title="engine.render.RenderedNode.set\lImageView">
<polygon fill="white" stroke="black" points="1106,-235 1106,-265 1280,-265 1280,-235 1106,-235"/>
<text text-anchor="start" x="1114" y="-253" font-family="Helvetica,sans-Serif" font-size="10.00">engine.render.RenderedNode.set</text>
<text text-anchor="middle" x="1193" y="-242" font-family="Helvetica,sans-Serif" font-size="10.00">ImageView</text>
</a>
</g>
</g>
<!-- Node23&#45;&gt;Node24 -->
<g id="edge26" class="edge"><title>Node23&#45;&gt;Node24</title>
<path fill="none" stroke="midnightblue" d="M1024.25,-283.965C1050.73,-278.604 1080.74,-272.527 1107.99,-267.011"/>
<polygon fill="midnightblue" stroke="midnightblue" points="1108.78,-270.421 1117.89,-265.006 1107.39,-263.56 1108.78,-270.421"/>
</g>
<!-- Node25 -->
<g id="node25" class="node"><title>Node25</title>
<g id="a_node25"><a xlink:href="../../df/de5/classengine_1_1render_1_1_game_object_renderer.html#a72580570f971246ef79428f21b6d25e9" target="_top" xlink:title="engine.render.GameObject\lRenderer.createImageAndView">
<polygon fill="white" stroke="black" points="1111.5,-333 1111.5,-363 1274.5,-363 1274.5,-333 1111.5,-333"/>
<text text-anchor="start" x="1119.5" y="-351" font-family="Helvetica,sans-Serif" font-size="10.00">engine.render.GameObject</text>
<text text-anchor="middle" x="1193" y="-340" font-family="Helvetica,sans-Serif" font-size="10.00">Renderer.createImageAndView</text>
</a>
</g>
</g>
<!-- Node23&#45;&gt;Node25 -->
<g id="edge27" class="edge"><title>Node23&#45;&gt;Node25</title>
<path fill="none" stroke="midnightblue" d="M1024.25,-314.035C1050.73,-319.396 1080.74,-325.473 1107.99,-330.989"/>
<polygon fill="midnightblue" stroke="midnightblue" points="1107.39,-334.44 1117.89,-332.994 1108.78,-327.579 1107.39,-334.44"/>
</g>
<!-- Node29 -->
<g id="node29" class="node"><title>Node29</title>
<g id="a_node29"><a xlink:href="../../d2/d82/classengine_1_1render_1_1_rendered_node.html#ad73c81ad48b40faea3818c9a7bbfdcf0" target="_top" xlink:title="engine.render.RenderedNode.set\lCollisionBody">
<polygon fill="white" stroke="black" points="1106,-186 1106,-216 1280,-216 1280,-186 1106,-186"/>
<text text-anchor="start" x="1114" y="-204" font-family="Helvetica,sans-Serif" font-size="10.00">engine.render.RenderedNode.set</text>
<text text-anchor="middle" x="1193" y="-193" font-family="Helvetica,sans-Serif" font-size="10.00">CollisionBody</text>
</a>
</g>
</g>
<!-- Node23&#45;&gt;Node29 -->
<g id="edge32" class="edge"><title>Node23&#45;&gt;Node29</title>
<path fill="none" stroke="midnightblue" d="M1037.19,-283.889C1043.8,-281.126 1050.17,-277.86 1056,-274 1078.54,-259.091 1069.49,-239.953 1092,-225 1094.44,-223.379 1096.98,-221.868 1099.59,-220.458"/>
<polygon fill="midnightblue" stroke="midnightblue" points="1101.25,-223.544 1108.73,-216.046 1098.21,-217.24 1101.25,-223.544"/>
</g>
<!-- Node30 -->
<g id="node30" class="node"><title>Node30</title>
<g id="a_node30"><a xlink:href="../../df/de5/classengine_1_1render_1_1_game_object_renderer.html#a25493ea430dbd3c6094434ba60e98662" target="_top" xlink:title="engine.render.GameObject\lRenderer.createCollisionBody">
<polygon fill="white" stroke="black" points="1115.5,-137 1115.5,-167 1270.5,-167 1270.5,-137 1115.5,-137"/>
<text text-anchor="start" x="1123.5" y="-155" font-family="Helvetica,sans-Serif" font-size="10.00">engine.render.GameObject</text>
<text text-anchor="middle" x="1193" y="-144" font-family="Helvetica,sans-Serif" font-size="10.00">Renderer.createCollisionBody</text>
</a>
</g>
</g>
<!-- Node23&#45;&gt;Node30 -->
<g id="edge33" class="edge"><title>Node23&#45;&gt;Node30</title>
<path fill="none" stroke="midnightblue" d="M1041.8,-283.884C1046.89,-281.093 1051.68,-277.825 1056,-274 1090.73,-243.223 1057.33,-206.845 1092,-176 1096.25,-172.217 1100.99,-169.004 1106.04,-166.278"/>
<polygon fill="midnightblue" stroke="midnightblue" points="1107.85,-169.296 1115.41,-161.878 1104.87,-162.96 1107.85,-169.296"/>
</g>
<!-- Node34 -->
<g id="node34" class="node"><title>Node34</title>
<g id="a_node34"><a xlink:href="../../d2/d82/classengine_1_1render_1_1_rendered_node.html#a312c663dd1144ff206ecfa1ea8c95a81" target="_top" xlink:title="engine.render.RenderedNode.set\lLabel">
<polygon fill="white" stroke="black" points="1106,-88 1106,-118 1280,-118 1280,-88 1106,-88"/>
<text text-anchor="start" x="1114" y="-106" font-family="Helvetica,sans-Serif" font-size="10.00">engine.render.RenderedNode.set</text>
<text text-anchor="middle" x="1193" y="-95" font-family="Helvetica,sans-Serif" font-size="10.00">Label</text>
</a>
</g>
</g>
<!-- Node23&#45;&gt;Node34 -->
<g id="edge37" class="edge"><title>Node23&#45;&gt;Node34</title>
<path fill="none" stroke="midnightblue" d="M1043.04,-283.996C1047.73,-281.167 1052.11,-277.861 1056,-274 1103.77,-226.641 1044.33,-174.453 1092,-127 1093.65,-125.363 1095.38,-123.83 1097.19,-122.395"/>
<polygon fill="midnightblue" stroke="midnightblue" points="1099.27,-125.213 1105.6,-116.711 1095.35,-119.414 1099.27,-125.213"/>
</g>
<!-- Node35 -->
<g id="node35" class="node"><title>Node35</title>
<g id="a_node35"><a xlink:href="../../df/de5/classengine_1_1render_1_1_game_object_renderer.html#a1d5f0ad1a571faec3c1a364bccc4c038" target="_top" xlink:title="engine.render.GameObject\lRenderer.createLabel">
<polygon fill="white" stroke="black" points="1120,-284 1120,-314 1266,-314 1266,-284 1120,-284"/>
<text text-anchor="start" x="1128" y="-302" font-family="Helvetica,sans-Serif" font-size="10.00">engine.render.GameObject</text>
<text text-anchor="middle" x="1193" y="-291" font-family="Helvetica,sans-Serif" font-size="10.00">Renderer.createLabel</text>
</a>
</g>
</g>
<!-- Node23&#45;&gt;Node35 -->
<g id="edge38" class="edge"><title>Node23&#45;&gt;Node35</title>
<path fill="none" stroke="midnightblue" d="M1055.79,-299C1073.87,-299 1092.4,-299 1109.75,-299"/>
<polygon fill="midnightblue" stroke="midnightblue" points="1109.81,-302.5 1119.81,-299 1109.81,-295.5 1109.81,-302.5"/>
</g>
<!-- Node37 -->
<g id="node37" class="node"><title>Node37</title>
<g id="a_node37"><a xlink:href="../../d0/d7f/classengine_1_1game_object_1_1_game_object.html#a606c7293c2bfac0af1fb42143bf527f6" target="_top" xlink:title="engine.gameObject.GameObject.getX">
<polygon fill="white" stroke="black" points="1094,-49.5 1094,-68.5 1292,-68.5 1292,-49.5 1094,-49.5"/>
<text text-anchor="middle" x="1193" y="-56.5" font-family="Helvetica,sans-Serif" font-size="10.00">engine.gameObject.GameObject.getX</text>
</a>
</g>
</g>
<!-- Node23&#45;&gt;Node37 -->
<g id="edge42" class="edge"><title>Node23&#45;&gt;Node37</title>
<path fill="none" stroke="midnightblue" d="M1043.79,-283.96C1048.23,-281.132 1052.35,-277.836 1056,-274 1117.04,-209.828 1029.56,-140.818 1092,-78 1093.13,-76.8641 1094.3,-75.7848 1095.52,-74.7596"/>
<polygon fill="midnightblue" stroke="midnightblue" points="1097.91,-77.3597 1104.08,-68.7499 1093.88,-71.6301 1097.91,-77.3597"/>
</g>
<!-- Node38 -->
<g id="node38" class="node"><title>Node38</title>
<g id="a_node38"><a xlink:href="../../d0/d7f/classengine_1_1game_object_1_1_game_object.html#a1988806ef560c9384f3844d0666a9450" target="_top" xlink:title="engine.gameObject.GameObject.getY">
<polygon fill="white" stroke="black" points="1094.5,-469.5 1094.5,-488.5 1291.5,-488.5 1291.5,-469.5 1094.5,-469.5"/>
<text text-anchor="middle" x="1193" y="-476.5" font-family="Helvetica,sans-Serif" font-size="10.00">engine.gameObject.GameObject.getY</text>
</a>
</g>
</g>
<!-- Node23&#45;&gt;Node38 -->
<g id="edge43" class="edge"><title>Node23&#45;&gt;Node38</title>
<path fill="none" stroke="midnightblue" d="M1042.96,-314.09C1047.67,-316.897 1052.07,-320.176 1056,-324 1100.81,-367.608 1046.25,-417.385 1092,-460 1093.5,-461.4 1095.08,-462.712 1096.71,-463.942"/>
<polygon fill="midnightblue" stroke="midnightblue" points="1095.02,-467.013 1105.33,-469.421 1098.77,-461.104 1095.02,-467.013"/>
</g>
<!-- Node39 -->
<g id="node39" class="node"><title>Node39</title>
<g id="a_node39"><a xlink:href="../../d0/d7f/classengine_1_1game_object_1_1_game_object.html#ae94fe532960bd29f64c2dc19ec0af798" target="_top" xlink:title="engine.gameObject.GameObject.getID">
<polygon fill="white" stroke="black" points="1092,-431.5 1092,-450.5 1294,-450.5 1294,-431.5 1092,-431.5"/>
<text text-anchor="middle" x="1193" y="-438.5" font-family="Helvetica,sans-Serif" font-size="10.00">engine.gameObject.GameObject.getID</text>
</a>
</g>
</g>
<!-- Node23&#45;&gt;Node39 -->
<g id="edge44" class="edge"><title>Node23&#45;&gt;Node39</title>
<path fill="none" stroke="midnightblue" d="M1041.78,-314.133C1046.88,-316.919 1051.68,-320.182 1056,-324 1090.46,-354.443 1057.02,-391.151 1092,-421 1094.41,-423.06 1096.98,-424.929 1099.66,-426.624"/>
<polygon fill="midnightblue" stroke="midnightblue" points="1098.14,-429.781 1108.6,-431.468 1101.48,-423.627 1098.14,-429.781"/>
</g>
<!-- Node40 -->
<g id="node40" class="node"><title>Node40</title>
<g id="a_node40"><a xlink:href="../../d0/d7f/classengine_1_1game_object_1_1_game_object.html#ab09d473d8c2afe8cefb2ce2481bc66fd" target="_top" xlink:title="engine.gameObject.GameObject.set\lRenderedNode">
<polygon fill="white" stroke="black" points="1097.5,-382 1097.5,-412 1288.5,-412 1288.5,-382 1097.5,-382"/>
<text text-anchor="start" x="1105.5" y="-400" font-family="Helvetica,sans-Serif" font-size="10.00">engine.gameObject.GameObject.set</text>
<text text-anchor="middle" x="1193" y="-389" font-family="Helvetica,sans-Serif" font-size="10.00">RenderedNode</text>
</a>
</g>
</g>
<!-- Node23&#45;&gt;Node40 -->
<g id="edge45" class="edge"><title>Node23&#45;&gt;Node40</title>
<path fill="none" stroke="midnightblue" d="M1036.88,-314.063C1043.6,-316.836 1050.07,-320.118 1056,-324 1078.31,-338.602 1069.78,-357.249 1092,-372 1095.13,-374.077 1098.42,-375.982 1101.82,-377.728"/>
<polygon fill="midnightblue" stroke="midnightblue" points="1100.5,-380.975 1111.04,-381.991 1103.43,-374.62 1100.5,-380.975"/>
</g>
<!-- Node25&#45;&gt;Node19 -->
<g id="edge29" class="edge"><title>Node25&#45;&gt;Node19</title>
<path fill="none" stroke="midnightblue" d="M1274.7,-362.903C1281.5,-365.708 1288.04,-369.04 1294,-373 1316.22,-387.751 1310.4,-402.915 1330,-421 1346.72,-436.434 1367.93,-450.262 1386.07,-460.742"/>
<polygon fill="midnightblue" stroke="midnightblue" points="1384.8,-464.046 1395.23,-465.908 1388.24,-457.948 1384.8,-464.046"/>
</g>
<!-- Node26 -->
<g id="node26" class="node"><title>Node26</title>
<g id="a_node26"><a xlink:href="../../d0/d7f/classengine_1_1game_object_1_1_game_object.html#ae8b88e1cf489e935426e2e252defbae0" target="_top" xlink:title="engine.gameObject.GameObject.get\lCurrentImageName">
<polygon fill="white" stroke="black" points="1330,-382 1330,-412 1522,-412 1522,-382 1330,-382"/>
<text text-anchor="start" x="1338" y="-400" font-family="Helvetica,sans-Serif" font-size="10.00">engine.gameObject.GameObject.get</text>
<text text-anchor="middle" x="1426" y="-389" font-family="Helvetica,sans-Serif" font-size="10.00">CurrentImageName</text>
</a>
</g>
</g>
<!-- Node25&#45;&gt;Node26 -->
<g id="edge28" class="edge"><title>Node25&#45;&gt;Node26</title>
<path fill="none" stroke="midnightblue" d="M1264.88,-363.035C1290.04,-368.373 1318.55,-374.42 1344.46,-379.917"/>
<polygon fill="midnightblue" stroke="midnightblue" points="1343.75,-383.343 1354.26,-381.994 1345.2,-376.495 1343.75,-383.343"/>
</g>
<!-- Node27 -->
<g id="node27" class="node"><title>Node27</title>
<g id="a_node27"><a xlink:href="../../d0/d7f/classengine_1_1game_object_1_1_game_object.html#aaeb5730a3b51fe9cb3d817ea7172cfc2" target="_top" xlink:title="engine.gameObject.GameObject.get\lHeight">
<polygon fill="white" stroke="black" points="1330,-333 1330,-363 1522,-363 1522,-333 1330,-333"/>
<text text-anchor="start" x="1338" y="-351" font-family="Helvetica,sans-Serif" font-size="10.00">engine.gameObject.GameObject.get</text>
<text text-anchor="middle" x="1426" y="-340" font-family="Helvetica,sans-Serif" font-size="10.00">Height</text>
</a>
</g>
</g>
<!-- Node25&#45;&gt;Node27 -->
<g id="edge30" class="edge"><title>Node25&#45;&gt;Node27</title>
<path fill="none" stroke="midnightblue" d="M1274.79,-348C1289.27,-348 1304.56,-348 1319.61,-348"/>
<polygon fill="midnightblue" stroke="midnightblue" points="1319.99,-351.5 1329.99,-348 1319.99,-344.5 1319.99,-351.5"/>
</g>
<!-- Node28 -->
<g id="node28" class="node"><title>Node28</title>
<g id="a_node28"><a xlink:href="../../d0/d7f/classengine_1_1game_object_1_1_game_object.html#a31aa2c854220621b49fc5575b50b9342" target="_top" xlink:title="engine.gameObject.GameObject.get\lWidth">
<polygon fill="white" stroke="black" points="1330,-284 1330,-314 1522,-314 1522,-284 1330,-284"/>
<text text-anchor="start" x="1338" y="-302" font-family="Helvetica,sans-Serif" font-size="10.00">engine.gameObject.GameObject.get</text>
<text text-anchor="middle" x="1426" y="-291" font-family="Helvetica,sans-Serif" font-size="10.00">Width</text>
</a>
</g>
</g>
<!-- Node25&#45;&gt;Node28 -->
<g id="edge31" class="edge"><title>Node25&#45;&gt;Node28</title>
<path fill="none" stroke="midnightblue" d="M1264.88,-332.965C1290.04,-327.627 1318.55,-321.58 1344.46,-316.083"/>
<polygon fill="midnightblue" stroke="midnightblue" points="1345.2,-319.505 1354.26,-314.006 1343.75,-312.657 1345.2,-319.505"/>
</g>
<!-- Node31 -->
<g id="node31" class="node"><title>Node31</title>
<g id="a_node31"><a xlink:href="../../d0/d7f/classengine_1_1game_object_1_1_game_object.html#a60c5b6933aac9969491a3562a963c043" target="_top" xlink:title="engine.gameObject.GameObject.get\lPhysicsBody">
<polygon fill="white" stroke="black" points="1330,-88 1330,-118 1522,-118 1522,-88 1330,-88"/>
<text text-anchor="start" x="1338" y="-106" font-family="Helvetica,sans-Serif" font-size="10.00">engine.gameObject.GameObject.get</text>
<text text-anchor="middle" x="1426" y="-95" font-family="Helvetica,sans-Serif" font-size="10.00">PhysicsBody</text>
</a>
</g>
</g>
<!-- Node30&#45;&gt;Node31 -->
<g id="edge34" class="edge"><title>Node30&#45;&gt;Node31</title>
<path fill="none" stroke="midnightblue" d="M1264.88,-136.965C1290.04,-131.627 1318.55,-125.58 1344.46,-120.083"/>
<polygon fill="midnightblue" stroke="midnightblue" points="1345.2,-123.505 1354.26,-118.006 1343.75,-116.657 1345.2,-123.505"/>
</g>
<!-- Node32 -->
<g id="node32" class="node"><title>Node32</title>
<g id="a_node32"><a xlink:href="../../d9/d9d/classengine_1_1game_object_1_1components_1_1_physics_body.html#aba2ed3bce8ee8e404907c88b144626fc" target="_top" xlink:title="engine.gameObject.components.\lPhysicsBody.getCollisionBodyHeight">
<polygon fill="white" stroke="black" points="1332,-186 1332,-216 1520,-216 1520,-186 1332,-186"/>
<text text-anchor="start" x="1340" y="-204" font-family="Helvetica,sans-Serif" font-size="10.00">engine.gameObject.components.</text>
<text text-anchor="middle" x="1426" y="-193" font-family="Helvetica,sans-Serif" font-size="10.00">PhysicsBody.getCollisionBodyHeight</text>
</a>
</g>
</g>
<!-- Node30&#45;&gt;Node32 -->
<g id="edge35" class="edge"><title>Node30&#45;&gt;Node32</title>
<path fill="none" stroke="midnightblue" d="M1264.88,-167.035C1290.04,-172.373 1318.55,-178.42 1344.46,-183.917"/>
<polygon fill="midnightblue" stroke="midnightblue" points="1343.75,-187.343 1354.26,-185.994 1345.2,-180.495 1343.75,-187.343"/>
</g>
<!-- Node33 -->
<g id="node33" class="node"><title>Node33</title>
<g id="a_node33"><a xlink:href="../../d9/d9d/classengine_1_1game_object_1_1components_1_1_physics_body.html#ae64e43632570392c3118b3d00af853fc" target="_top" xlink:title="engine.gameObject.components.\lPhysicsBody.getCollisionBodyWidth">
<polygon fill="white" stroke="black" points="1335,-137 1335,-167 1517,-167 1517,-137 1335,-137"/>
<text text-anchor="start" x="1343" y="-155" font-family="Helvetica,sans-Serif" font-size="10.00">engine.gameObject.components.</text>
<text text-anchor="middle" x="1426" y="-144" font-family="Helvetica,sans-Serif" font-size="10.00">PhysicsBody.getCollisionBodyWidth</text>
</a>
</g>
</g>
<!-- Node30&#45;&gt;Node33 -->
<g id="edge36" class="edge"><title>Node30&#45;&gt;Node33</title>
<path fill="none" stroke="midnightblue" d="M1270.6,-152C1288,-152 1306.73,-152 1324.94,-152"/>
<polygon fill="midnightblue" stroke="midnightblue" points="1324.99,-155.5 1334.99,-152 1324.99,-148.5 1324.99,-155.5"/>
</g>
<!-- Node35&#45;&gt;Node27 -->
<g id="edge40" class="edge"><title>Node35&#45;&gt;Node27</title>
<path fill="none" stroke="midnightblue" d="M1264.88,-314.035C1290.04,-319.373 1318.55,-325.42 1344.46,-330.917"/>
<polygon fill="midnightblue" stroke="midnightblue" points="1343.75,-334.343 1354.26,-332.994 1345.2,-327.495 1343.75,-334.343"/>
</g>
<!-- Node35&#45;&gt;Node28 -->
<g id="edge41" class="edge"><title>Node35&#45;&gt;Node28</title>
<path fill="none" stroke="midnightblue" d="M1266.14,-299C1283.12,-299 1301.56,-299 1319.66,-299"/>
<polygon fill="midnightblue" stroke="midnightblue" points="1319.67,-302.5 1329.67,-299 1319.67,-295.5 1319.67,-302.5"/>
</g>
<!-- Node36 -->
<g id="node36" class="node"><title>Node36</title>
<g id="a_node36"><a xlink:href="../../d0/d7f/classengine_1_1game_object_1_1_game_object.html#a5c379828f3bb19a91935f965c48a91a5" target="_top" xlink:title="engine.gameObject.GameObject.get\lLabel">
<polygon fill="white" stroke="black" points="1330,-235 1330,-265 1522,-265 1522,-235 1330,-235"/>
<text text-anchor="start" x="1338" y="-253" font-family="Helvetica,sans-Serif" font-size="10.00">engine.gameObject.GameObject.get</text>
<text text-anchor="middle" x="1426" y="-242" font-family="Helvetica,sans-Serif" font-size="10.00">Label</text>
</a>
</g>
</g>
<!-- Node35&#45;&gt;Node36 -->
<g id="edge39" class="edge"><title>Node35&#45;&gt;Node36</title>
<path fill="none" stroke="midnightblue" d="M1264.88,-283.965C1290.04,-278.627 1318.55,-272.58 1344.46,-267.083"/>
<polygon fill="midnightblue" stroke="midnightblue" points="1345.2,-270.505 1354.26,-265.006 1343.75,-263.657 1345.2,-270.505"/>
</g>
</g>
</svg>
