<?xml version="1.0" encoding="UTF-8" standalone="no"?>
<!DOCTYPE svg PUBLIC "-//W3C//DTD SVG 1.1//EN"
 "http://www.w3.org/Graphics/SVG/1.1/DTD/svg11.dtd">
<!-- Generated by graphviz version 2.36.0 (20140111.2315)
 -->
<!-- Title: engine.actions.render.RenderAction Pages: 1 -->
<svg width="321pt" height="220pt"
 viewBox="0.00 0.00 321.00 220.00" xmlns="http://www.w3.org/2000/svg" xmlns:xlink="http://www.w3.org/1999/xlink">
<g id="graph0" class="graph" transform="scale(1 1) rotate(0) translate(4 216)">
<title>engine.actions.render.RenderAction</title>
<polygon fill="white" stroke="none" points="-4,4 -4,-216 317,-216 317,4 -4,4"/>
<!-- Node1 -->
<g id="node1" class="node"><title>Node1</title>
<polygon fill="#bfbfbf" stroke="black" points="79,-69 79,-99 235,-99 235,-69 79,-69"/>
<text text-anchor="start" x="87" y="-87" font-family="Helvetica,sans-Serif" font-size="10.00">engine.actions.render.Render</text>
<text text-anchor="middle" x="157" y="-76" font-family="Helvetica,sans-Serif" font-size="10.00">Action</text>
</g>
<!-- Node4 -->
<g id="node4" class="node"><title>Node4</title>
<g id="a_node4"><a xlink:href="../../de/d2b/classengine_1_1actions_1_1render_1_1_erase_canvas.html" target="_top" xlink:title="engine.actions.render.Erase\lCanvas">
<polygon fill="white" stroke="black" points="-1,-1 -1,-31 149,-31 149,-1 -1,-1"/>
<text text-anchor="start" x="7" y="-19" font-family="Helvetica,sans-Serif" font-size="10.00">engine.actions.render.Erase</text>
<text text-anchor="middle" x="74" y="-8" font-family="Helvetica,sans-Serif" font-size="10.00">Canvas</text>
</a>
</g>
</g>
<!-- Node1&#45;&gt;Node4 -->
<g id="edge4" class="edge"><title>Node1&#45;&gt;Node4</title>
<path fill="none" stroke="midnightblue" d="M130.98,-62.3094C118.194,-52.1426 103.121,-40.1562 91.6895,-31.0663"/>
<polygon fill="midnightblue" stroke="midnightblue" points="128.985,-65.1945 138.99,-68.679 133.342,-59.7155 128.985,-65.1945"/>
</g>
<!-- Node5 -->
<g id="node5" class="node"><title>Node5</title>
<g id="a_node5"><a xlink:href="../../d3/dbb/classengine_1_1actions_1_1render_1_1_paint_canvas.html" target="_top" xlink:title="engine.actions.render.Paint\lCanvas">
<polygon fill="white" stroke="black" points="167,-1 167,-31 313,-31 313,-1 167,-1"/>
<text text-anchor="start" x="175" y="-19" font-family="Helvetica,sans-Serif" font-size="10.00">engine.actions.render.Paint</text>
<text text-anchor="middle" x="240" y="-8" font-family="Helvetica,sans-Serif" font-size="10.00">Canvas</text>
</a>
</g>
</g>
<!-- Node1&#45;&gt;Node5 -->
<g id="edge5" class="edge"><title>Node1&#45;&gt;Node5</title>
<path fill="none" stroke="midnightblue" d="M183.02,-62.3094C195.806,-52.1426 210.879,-40.1562 222.311,-31.0663"/>
<polygon fill="midnightblue" stroke="midnightblue" points="180.658,-59.7155 175.01,-68.679 185.015,-65.1945 180.658,-59.7155"/>
</g>
<!-- Node2 -->
<g id="node2" class="node"><title>Node2</title>
<g id="a_node2"><a xlink:href="../../d9/dd2/interfaceengine_1_1actions_1_1_action.html" target="_top" xlink:title="engine.actions.Action">
<polygon fill="white" stroke="black" points="141.5,-136.5 141.5,-155.5 260.5,-155.5 260.5,-136.5 141.5,-136.5"/>
<text text-anchor="middle" x="201" y="-143.5" font-family="Helvetica,sans-Serif" font-size="10.00">engine.actions.Action</text>
</a>
</g>
</g>
<!-- Node2&#45;&gt;Node1 -->
<g id="edge1" class="edge"><title>Node2&#45;&gt;Node1</title>
<path fill="none" stroke="midnightblue" d="M188.611,-128.106C181.911,-118.97 173.73,-107.814 167.37,-99.1408"/>
<polygon fill="midnightblue" stroke="midnightblue" points="185.96,-130.409 194.696,-136.403 191.605,-126.27 185.96,-130.409"/>
</g>
<!-- Node3 -->
<g id="node3" class="node"><title>Node3</title>
<g id="a_node3"><a xlink:href="../../d2/d15/interfaceengine_1_1actions_1_1_initializable.html" target="_top" xlink:title="engine.actions.Initializable">
<polygon fill="white" stroke="black" points="86,-192.5 86,-211.5 228,-211.5 228,-192.5 86,-192.5"/>
<text text-anchor="middle" x="157" y="-199.5" font-family="Helvetica,sans-Serif" font-size="10.00">engine.actions.Initializable</text>
</a>
</g>
</g>
<!-- Node3&#45;&gt;Node1 -->
<g id="edge3" class="edge"><title>Node3&#45;&gt;Node1</title>
<path fill="none" stroke="midnightblue" d="M145.243,-183.769C140.437,-175.71 135.439,-165.755 133,-156 127.982,-135.929 138.456,-113.401 147.113,-99.211"/>
<polygon fill="midnightblue" stroke="midnightblue" points="142.309,-185.678 150.633,-192.232 148.213,-181.917 142.309,-185.678"/>
</g>
<!-- Node3&#45;&gt;Node2 -->
<g id="edge2" class="edge"><title>Node3&#45;&gt;Node2</title>
<path fill="none" stroke="midnightblue" d="M170.735,-184.144C178.401,-174.736 187.633,-163.405 193.869,-155.751"/>
<polygon fill="midnightblue" stroke="midnightblue" points="167.869,-182.12 164.266,-192.083 173.296,-186.541 167.869,-182.12"/>
</g>
</g>
</svg>
