<?xml version="1.0" encoding="UTF-8" standalone="no"?>
<!DOCTYPE svg PUBLIC "-//W3C//DTD SVG 1.1//EN"
 "http://www.w3.org/Graphics/SVG/1.1/DTD/svg11.dtd">
<!-- Generated by graphviz version 2.36.0 (20140111.2315)
 -->
<!-- Title: engine.render.RenderedNode.getImageView Pages: 1 -->
<svg width="588pt" height="38pt"
 viewBox="0.00 0.00 588.00 38.00" xmlns="http://www.w3.org/2000/svg" xmlns:xlink="http://www.w3.org/1999/xlink">
<g id="graph0" class="graph" transform="scale(1 1) rotate(0) translate(4 34)">
<title>engine.render.RenderedNode.getImageView</title>
<polygon fill="white" stroke="none" points="-4,4 -4,-34 584,-34 584,4 -4,4"/>
<!-- Node1 -->
<g id="node1" class="node"><title>Node1</title>
<polygon fill="#bfbfbf" stroke="black" points="0.5,-0 0.5,-30 175.5,-30 175.5,-0 0.5,-0"/>
<text text-anchor="start" x="8.5" y="-18" font-family="Helvetica,sans-Serif" font-size="10.00">engine.render.RenderedNode.get</text>
<text text-anchor="middle" x="88" y="-7" font-family="Helvetica,sans-Serif" font-size="10.00">ImageView</text>
</g>
<!-- Node2 -->
<g id="node2" class="node"><title>Node2</title>
<g id="a_node2"><a xlink:href="../../d0/d7f/classengine_1_1game_object_1_1_game_object.html#a077db8b746f3cdc580e5954ec5c02060" target="_top" xlink:title="engine.gameObject.GameObject.set\lCurrentImagePath">
<polygon fill="white" stroke="black" points="212.5,-0 212.5,-30 403.5,-30 403.5,-0 212.5,-0"/>
<text text-anchor="start" x="220.5" y="-18" font-family="Helvetica,sans-Serif" font-size="10.00">engine.gameObject.GameObject.set</text>
<text text-anchor="middle" x="308" y="-7" font-family="Helvetica,sans-Serif" font-size="10.00">CurrentImagePath</text>
</a>
</g>
</g>
<!-- Node1&#45;&gt;Node2 -->
<g id="edge1" class="edge"><title>Node1&#45;&gt;Node2</title>
<path fill="none" stroke="midnightblue" d="M185.98,-15C194.716,-15 203.556,-15 212.272,-15"/>
<polygon fill="midnightblue" stroke="midnightblue" points="185.786,-11.5001 175.786,-15 185.786,-18.5001 185.786,-11.5001"/>
</g>
<!-- Node3 -->
<g id="node3" class="node"><title>Node3</title>
<g id="a_node3"><a xlink:href="../../df/dca/classengine_1_1states_1_1_state.html#a3fce1584a4673c316664f4071aaf1030" target="_top" xlink:title="engine.states.State.enter">
<polygon fill="white" stroke="black" points="440,-5.5 440,-24.5 580,-24.5 580,-5.5 440,-5.5"/>
<text text-anchor="middle" x="510" y="-12.5" font-family="Helvetica,sans-Serif" font-size="10.00">engine.states.State.enter</text>
</a>
</g>
</g>
<!-- Node2&#45;&gt;Node3 -->
<g id="edge2" class="edge"><title>Node2&#45;&gt;Node3</title>
<path fill="none" stroke="midnightblue" d="M413.759,-15C422.637,-15 431.465,-15 439.962,-15"/>
<polygon fill="midnightblue" stroke="midnightblue" points="413.729,-11.5001 403.729,-15 413.729,-18.5001 413.729,-11.5001"/>
</g>
</g>
</svg>
