<?xml version="1.0" encoding="UTF-8" standalone="no"?>
<!DOCTYPE svg PUBLIC "-//W3C//DTD SVG 1.1//EN"
 "http://www.w3.org/Graphics/SVG/1.1/DTD/svg11.dtd">
<!-- Generated by graphviz version 2.36.0 (20140111.2315)
 -->
<!-- Title: engine.render.RenderedNode.setImageView Pages: 1 -->
<!--zoomable 258 -->
<svg id="main" version="1.1" xmlns="http://www.w3.org/2000/svg" xmlns:xlink="http://www.w3.org/1999/xlink" xml:space="preserve" onload="init(evt)">
<style type="text/css"><![CDATA[
.edge:hover path { stroke: red; }
.edge:hover polygon { stroke: red; fill: red; }
]]></style>
<script type="text/javascript"><![CDATA[
var edges = document.getElementsByTagName('g');
if (edges && edges.length) {
  for (var i=0;i<edges.length;i++) {
    if (edges[i].id.substr(0,4)=='edge') {
      edges[i].setAttribute('class','edge');
    }
  }
}
]]></script>
        <defs>
                <circle id="rim" cx="0" cy="0" r="7"/>
                <circle id="rim2" cx="0" cy="0" r="3.5"/>
                <g id="zoomPlus">
                        <use xlink:href="#rim" fill="#404040">
                                <set attributeName="fill" to="#808080" begin="zoomplus.mouseover" end="zoomplus.mouseout"/>
                        </use>
                        <path d="M-4,0h8M0,-4v8" fill="none" stroke="white" stroke-width="1.5" pointer-events="none"/>
                </g>
                <g id="zoomMin">
                        <use xlink:href="#rim" fill="#404040">
                                <set attributeName="fill" to="#808080" begin="zoomminus.mouseover" end="zoomminus.mouseout"/>
                        </use>
                        <path d="M-4,0h8" fill="none" stroke="white" stroke-width="1.5" pointer-events="none"/>
                </g>
                <g id="dirArrow">
                        <path fill="none" stroke="white" stroke-width="1.5" d="M0,-3.0v7 M-2.5,-0.5L0,-3.0L2.5,-0.5"/>
                </g>
               <g id="resetDef">
                       <use xlink:href="#rim2" fill="#404040">
                               <set attributeName="fill" to="#808080" begin="reset.mouseover" end="reset.mouseout"/>
                       </use>
               </g>
        </defs>

<script type="text/javascript">
var viewWidth = 1272;
var viewHeight = 258;
var sectionId = 'dynsection-5';
</script>
<script xlink:href="../../svgpan.js"/>
<svg id="graph" class="graph">
<g id="viewport">
<title>engine.render.RenderedNode.setImageView</title>
<polygon fill="white" stroke="none" points="-4,4 -4,-254 1268,-254 1268,4 -4,4"/>
<!-- Node1 -->
<g id="node1" class="node"><title>Node1</title>
<polygon fill="#bfbfbf" stroke="black" points="0,-78 0,-108 174,-108 174,-78 0,-78"/>
<text text-anchor="start" x="8" y="-96" font-family="Helvetica,sans-Serif" font-size="10.00">engine.render.RenderedNode.set</text>
<text text-anchor="middle" x="87" y="-85" font-family="Helvetica,sans-Serif" font-size="10.00">ImageView</text>
</g>
<!-- Node2 -->
<g id="node2" class="node"><title>Node2</title>
<g id="a_node2"><a xlink:href="../../df/de5/classengine_1_1render_1_1_game_object_renderer.html#a745cb65a5425a20a1b5063068ef1314a" target="_top" xlink:title="engine.render.GameObject\lRenderer.createAndAssignRenderedNode">
<polygon fill="white" stroke="black" points="210.5,-109 210.5,-139 423.5,-139 423.5,-109 210.5,-109"/>
<text text-anchor="start" x="218.5" y="-127" font-family="Helvetica,sans-Serif" font-size="10.00">engine.render.GameObject</text>
<text text-anchor="middle" x="317" y="-116" font-family="Helvetica,sans-Serif" font-size="10.00">Renderer.createAndAssignRenderedNode</text>
</a>
</g>
</g>
<!-- Node1&#45;&gt;Node2 -->
<g id="edge1" class="edge"><title>Node1&#45;&gt;Node2</title>
<path fill="none" stroke="midnightblue" d="M184.288,-106.092C192.949,-107.269 201.749,-108.466 210.484,-109.653"/>
<polygon fill="midnightblue" stroke="midnightblue" points="184.577,-102.599 174.197,-104.72 183.634,-109.535 184.577,-102.599"/>
</g>
<!-- Node14 -->
<g id="node14" class="node"><title>Node14</title>
<g id="a_node14"><a xlink:href="../../df/de5/classengine_1_1render_1_1_game_object_renderer.html#ad1dadb54349f33bce5bb60cd8d5cac64" target="_top" xlink:title="engine.render.GameObject\lRenderer.setBackGroundImage">
<polygon fill="white" stroke="black" points="234.5,-48 234.5,-78 399.5,-78 399.5,-48 234.5,-48"/>
<text text-anchor="start" x="242.5" y="-66" font-family="Helvetica,sans-Serif" font-size="10.00">engine.render.GameObject</text>
<text text-anchor="middle" x="317" y="-55" font-family="Helvetica,sans-Serif" font-size="10.00">Renderer.setBackGroundImage</text>
</a>
</g>
</g>
<!-- Node1&#45;&gt;Node14 -->
<g id="edge13" class="edge"><title>Node1&#45;&gt;Node14</title>
<path fill="none" stroke="midnightblue" d="M184.432,-80.3116C200.996,-78.1321 218.067,-75.886 234.2,-73.7632"/>
<polygon fill="midnightblue" stroke="midnightblue" points="183.655,-76.8836 174.197,-81.6583 184.568,-83.8237 183.655,-76.8836"/>
</g>
<!-- Node3 -->
<g id="node3" class="node"><title>Node3</title>
<g id="a_node3"><a xlink:href="../../d3/dbb/classengine_1_1actions_1_1render_1_1_paint_canvas.html#a3f4cb25dfb09aa686debf838e806b010" target="_top" xlink:title="engine.actions.render.Paint\lCanvas.applyRender">
<polygon fill="white" stroke="black" points="476,-220 476,-250 622,-250 622,-220 476,-220"/>
<text text-anchor="start" x="484" y="-238" font-family="Helvetica,sans-Serif" font-size="10.00">engine.actions.render.Paint</text>
<text text-anchor="middle" x="549" y="-227" font-family="Helvetica,sans-Serif" font-size="10.00">Canvas.applyRender</text>
</a>
</g>
</g>
<!-- Node2&#45;&gt;Node3 -->
<g id="edge2" class="edge"><title>Node2&#45;&gt;Node3</title>
<path fill="none" stroke="midnightblue" d="M347.632,-145.193C375.511,-164.327 418.987,-192.142 460,-210 468.446,-213.678 477.582,-216.972 486.661,-219.868"/>
<polygon fill="midnightblue" stroke="midnightblue" points="349.363,-142.134 339.152,-139.309 345.373,-147.885 349.363,-142.134"/>
</g>
<!-- Node4 -->
<g id="node4" class="node"><title>Node4</title>
<g id="a_node4"><a xlink:href="../../dd/d57/classengine_1_1actions_1_1_make_new_object_from_location_action.html#a2ebd225d5e10817ac79f4044867afa98" target="_top" xlink:title="engine.actions.MakeNewObject\lFromLocationAction.execute">
<polygon fill="white" stroke="black" points="466,-171 466,-201 632,-201 632,-171 466,-171"/>
<text text-anchor="start" x="474" y="-189" font-family="Helvetica,sans-Serif" font-size="10.00">engine.actions.MakeNewObject</text>
<text text-anchor="middle" x="549" y="-178" font-family="Helvetica,sans-Serif" font-size="10.00">FromLocationAction.execute</text>
</a>
</g>
</g>
<!-- Node2&#45;&gt;Node4 -->
<g id="edge3" class="edge"><title>Node2&#45;&gt;Node4</title>
<path fill="none" stroke="midnightblue" d="M383.593,-141.682C417.845,-150.915 459.317,-162.094 492.039,-170.915"/>
<polygon fill="midnightblue" stroke="midnightblue" points="384.243,-138.232 373.677,-139.008 382.421,-144.991 384.243,-138.232"/>
</g>
<!-- Node5 -->
<g id="node5" class="node"><title>Node5</title>
<g id="a_node5"><a xlink:href="../../db/d61/classengine_1_1actions_1_1_make_new_object_from_object_action.html#a01ffb165d6169f7b0a22733e2b6c61a9" target="_top" xlink:title="engine.actions.MakeNewObject\lFromObjectAction.execute">
<polygon fill="white" stroke="black" points="466,-122 466,-152 632,-152 632,-122 466,-122"/>
<text text-anchor="start" x="474" y="-140" font-family="Helvetica,sans-Serif" font-size="10.00">engine.actions.MakeNewObject</text>
<text text-anchor="middle" x="549" y="-129" font-family="Helvetica,sans-Serif" font-size="10.00">FromObjectAction.execute</text>
</a>
</g>
</g>
<!-- Node2&#45;&gt;Node5 -->
<g id="edge4" class="edge"><title>Node2&#45;&gt;Node5</title>
<path fill="none" stroke="midnightblue" d="M433.56,-130.532C444.442,-131.147 455.318,-131.761 465.797,-132.354"/>
<polygon fill="midnightblue" stroke="midnightblue" points="433.757,-127.037 423.576,-129.967 433.362,-134.026 433.757,-127.037"/>
</g>
<!-- Node6 -->
<g id="node6" class="node"><title>Node6</title>
<g id="a_node6"><a xlink:href="../../da/d16/classengine_1_1actions_1_1_make_new_random_object_action.html#a82ccd5604bd05170e416e41b32020f00" target="_top" xlink:title="engine.actions.MakeNewRandom\lObjectAction.makeRandomObject">
<polygon fill="white" stroke="black" points="460,-73 460,-103 638,-103 638,-73 460,-73"/>
<text text-anchor="start" x="468" y="-91" font-family="Helvetica,sans-Serif" font-size="10.00">engine.actions.MakeNewRandom</text>
<text text-anchor="middle" x="549" y="-80" font-family="Helvetica,sans-Serif" font-size="10.00">ObjectAction.makeRandomObject</text>
</a>
</g>
</g>
<!-- Node2&#45;&gt;Node6 -->
<g id="edge5" class="edge"><title>Node2&#45;&gt;Node6</title>
<path fill="none" stroke="midnightblue" d="M423.96,-107.415C436.018,-105.528 448.209,-103.62 459.998,-101.774"/>
<polygon fill="midnightblue" stroke="midnightblue" points="423.214,-103.989 413.875,-108.993 424.296,-110.905 423.214,-103.989"/>
</g>
<!-- Node8 -->
<g id="node8" class="node"><title>Node8</title>
<g id="a_node8"><a xlink:href="../../df/de5/classengine_1_1render_1_1_game_object_renderer.html#a610545384a337edcd3bffb9f0c6ecf18" target="_top" xlink:title="engine.render.GameObject\lRenderer.renderGameObjects">
<polygon fill="white" stroke="black" points="470,-24 470,-54 628,-54 628,-24 470,-24"/>
<text text-anchor="start" x="478" y="-42" font-family="Helvetica,sans-Serif" font-size="10.00">engine.render.GameObject</text>
<text text-anchor="middle" x="549" y="-31" font-family="Helvetica,sans-Serif" font-size="10.00">Renderer.renderGameObjects</text>
</a>
</g>
</g>
<!-- Node2&#45;&gt;Node8 -->
<g id="edge7" class="edge"><title>Node2&#45;&gt;Node8</title>
<path fill="none" stroke="midnightblue" d="M378.625,-105.561C393.729,-100.231 409.69,-93.9512 424,-87 441.078,-78.7042 442.684,-71.7881 460,-64 468.256,-60.2866 477.199,-56.9874 486.112,-54.1021"/>
<polygon fill="midnightblue" stroke="midnightblue" points="377.167,-102.361 368.85,-108.924 379.445,-108.981 377.167,-102.361"/>
</g>
<!-- Node7 -->
<g id="node7" class="node"><title>Node7</title>
<g id="a_node7"><a xlink:href="../../da/d16/classengine_1_1actions_1_1_make_new_random_object_action.html#aa831c4b818ed75f812bf8ba0d453c942" target="_top" xlink:title="engine.actions.MakeNewRandom\lObjectAction.execute">
<polygon fill="white" stroke="black" points="678.5,-73 678.5,-103 853.5,-103 853.5,-73 678.5,-73"/>
<text text-anchor="start" x="686.5" y="-91" font-family="Helvetica,sans-Serif" font-size="10.00">engine.actions.MakeNewRandom</text>
<text text-anchor="middle" x="766" y="-80" font-family="Helvetica,sans-Serif" font-size="10.00">ObjectAction.execute</text>
</a>
</g>
</g>
<!-- Node6&#45;&gt;Node7 -->
<g id="edge6" class="edge"><title>Node6&#45;&gt;Node7</title>
<path fill="none" stroke="midnightblue" d="M648.135,-88C658.252,-88 668.48,-88 678.458,-88"/>
<polygon fill="midnightblue" stroke="midnightblue" points="648.069,-84.5001 638.069,-88 648.069,-91.5001 648.069,-84.5001"/>
</g>
<!-- Node9 -->
<g id="node9" class="node"><title>Node9</title>
<g id="a_node9"><a xlink:href="../../df/d67/classengine_1_1level_1_1_level_manager.html#a523599892453015eed0f1b506979af8a" target="_top" xlink:title="engine.level.LevelManager.initialize\lCurrentLevel">
<polygon fill="white" stroke="black" points="674,-24 674,-54 858,-54 858,-24 674,-24"/>
<text text-anchor="start" x="682" y="-42" font-family="Helvetica,sans-Serif" font-size="10.00">engine.level.LevelManager.initialize</text>
<text text-anchor="middle" x="766" y="-31" font-family="Helvetica,sans-Serif" font-size="10.00">CurrentLevel</text>
</a>
</g>
</g>
<!-- Node8&#45;&gt;Node9 -->
<g id="edge8" class="edge"><title>Node8&#45;&gt;Node9</title>
<path fill="none" stroke="midnightblue" d="M638.374,-39C650.027,-39 661.99,-39 673.69,-39"/>
<polygon fill="midnightblue" stroke="midnightblue" points="638.228,-35.5001 628.228,-39 638.228,-42.5001 638.228,-35.5001"/>
</g>
<!-- Node10 -->
<g id="node10" class="node"><title>Node10</title>
<g id="a_node10"><a xlink:href="../../df/d67/classengine_1_1level_1_1_level_manager.html#ad3c392cf6260c53428255fb596442692" target="_top" xlink:title="engine.level.LevelManager.change\lToLevel">
<polygon fill="white" stroke="black" points="894.5,-49 894.5,-79 1075.5,-79 1075.5,-49 894.5,-49"/>
<text text-anchor="start" x="902.5" y="-67" font-family="Helvetica,sans-Serif" font-size="10.00">engine.level.LevelManager.change</text>
<text text-anchor="middle" x="985" y="-56" font-family="Helvetica,sans-Serif" font-size="10.00">ToLevel</text>
</a>
</g>
</g>
<!-- Node9&#45;&gt;Node10 -->
<g id="edge9" class="edge"><title>Node9&#45;&gt;Node10</title>
<path fill="none" stroke="midnightblue" d="M868.219,-50.6612C876.889,-51.66 885.62,-52.6659 894.192,-53.6534"/>
<polygon fill="midnightblue" stroke="midnightblue" points="868.419,-47.1612 858.084,-49.4936 867.618,-54.1152 868.419,-47.1612"/>
</g>
<!-- Node12 -->
<g id="node12" class="node"><title>Node12</title>
<g id="a_node12"><a xlink:href="../../df/d67/classengine_1_1level_1_1_level_manager.html#a1d0f314bbf304bf86067ab87b832d2e0" target="_top" xlink:title="engine.level.LevelManager.find\lAndSetStartLevel">
<polygon fill="white" stroke="black" points="903.5,-0 903.5,-30 1066.5,-30 1066.5,-0 903.5,-0"/>
<text text-anchor="start" x="911.5" y="-18" font-family="Helvetica,sans-Serif" font-size="10.00">engine.level.LevelManager.find</text>
<text text-anchor="middle" x="985" y="-7" font-family="Helvetica,sans-Serif" font-size="10.00">AndSetStartLevel</text>
</a>
</g>
</g>
<!-- Node9&#45;&gt;Node12 -->
<g id="edge11" class="edge"><title>Node9&#45;&gt;Node12</title>
<path fill="none" stroke="midnightblue" d="M868.033,-27.8259C879.925,-26.5106 891.937,-25.182 903.495,-23.9038"/>
<polygon fill="midnightblue" stroke="midnightblue" points="867.639,-24.348 858.084,-28.9262 868.409,-31.3056 867.639,-24.348"/>
</g>
<!-- Node11 -->
<g id="node11" class="node"><title>Node11</title>
<g id="a_node11"><a xlink:href="../../d1/d73/classengine_1_1actions_1_1_change_level_action.html#a8190adf308768b0d12f6432d0cf0fbc4" target="_top" xlink:title="engine.actions.ChangeLevel\lAction.execute">
<polygon fill="white" stroke="black" points="1112.5,-49 1112.5,-79 1263.5,-79 1263.5,-49 1112.5,-49"/>
<text text-anchor="start" x="1120.5" y="-67" font-family="Helvetica,sans-Serif" font-size="10.00">engine.actions.ChangeLevel</text>
<text text-anchor="middle" x="1188" y="-56" font-family="Helvetica,sans-Serif" font-size="10.00">Action.execute</text>
</a>
</g>
</g>
<!-- Node10&#45;&gt;Node11 -->
<g id="edge10" class="edge"><title>Node10&#45;&gt;Node11</title>
<path fill="none" stroke="midnightblue" d="M1085.71,-64C1094.65,-64 1103.61,-64 1112.29,-64"/>
<polygon fill="midnightblue" stroke="midnightblue" points="1085.62,-60.5001 1075.62,-64 1085.62,-67.5001 1085.62,-60.5001"/>
</g>
<!-- Node13 -->
<g id="node13" class="node"><title>Node13</title>
<g id="a_node13"><a xlink:href="../../df/d67/classengine_1_1level_1_1_level_manager.html#a0ea71eb9396652850db0d2da44c4ca81" target="_top" xlink:title="engine.level.LevelManager.\lLevelManager">
<polygon fill="white" stroke="black" points="1115,-0 1115,-30 1261,-30 1261,-0 1115,-0"/>
<text text-anchor="start" x="1123" y="-18" font-family="Helvetica,sans-Serif" font-size="10.00">engine.level.LevelManager.</text>
<text text-anchor="middle" x="1188" y="-7" font-family="Helvetica,sans-Serif" font-size="10.00">LevelManager</text>
</a>
</g>
</g>
<!-- Node12&#45;&gt;Node13 -->
<g id="edge12" class="edge"><title>Node12&#45;&gt;Node13</title>
<path fill="none" stroke="midnightblue" d="M1076.76,-15C1089.52,-15 1102.48,-15 1114.83,-15"/>
<polygon fill="midnightblue" stroke="midnightblue" points="1076.6,-11.5001 1066.6,-15 1076.6,-18.5001 1076.6,-11.5001"/>
</g>
<!-- Node14&#45;&gt;Node8 -->
<g id="edge14" class="edge"><title>Node14&#45;&gt;Node8</title>
<path fill="none" stroke="midnightblue" d="M409.754,-53.4256C429.707,-51.3436 450.634,-49.16 469.995,-47.1397"/>
<polygon fill="midnightblue" stroke="midnightblue" points="409.32,-49.9519 399.737,-54.4709 410.046,-56.9141 409.32,-49.9519"/>
</g>
</g>
</svg>
        <g id="navigator" transform="translate(0 0)" fill="#404254">
                <rect fill="#f2f5e9" fill-opacity="0.5" stroke="#606060" stroke-width=".5" x="0" y="0" width="60" height="60"/>
                <use id="zoomplus" xlink:href="#zoomPlus" x="17" y="9" onmousedown="handleZoom(evt,'in')"/>
                <use id="zoomminus" xlink:href="#zoomMin" x="42" y="9" onmousedown="handleZoom(evt,'out')"/>
                <use id="reset" xlink:href="#resetDef" x="30" y="36" onmousedown="handleReset()"/>
                <g id="arrowUp" xlink:href="#dirArrow" transform="translate(30 24)" onmousedown="handlePan(0,-1)">
                  <use xlink:href="#rim" fill="#404040">
                        <set attributeName="fill" to="#808080" begin="arrowUp.mouseover" end="arrowUp.mouseout"/>
                  </use>
                  <path fill="none" stroke="white" stroke-width="1.5" d="M0,-3.0v7 M-2.5,-0.5L0,-3.0L2.5,-0.5"/>
                </g>
                <g id="arrowRight" xlink:href="#dirArrow" transform="rotate(90) translate(36 -43)" onmousedown="handlePan(1,0)">
                  <use xlink:href="#rim" fill="#404040">
                        <set attributeName="fill" to="#808080" begin="arrowRight.mouseover" end="arrowRight.mouseout"/>
                  </use>
                  <path fill="none" stroke="white" stroke-width="1.5" d="M0,-3.0v7 M-2.5,-0.5L0,-3.0L2.5,-0.5"/>
                </g>
                <g id="arrowDown" xlink:href="#dirArrow" transform="rotate(180) translate(-30 -48)" onmousedown="handlePan(0,1)">
                  <use xlink:href="#rim" fill="#404040">
                        <set attributeName="fill" to="#808080" begin="arrowDown.mouseover" end="arrowDown.mouseout"/>
                  </use>
                  <path fill="none" stroke="white" stroke-width="1.5" d="M0,-3.0v7 M-2.5,-0.5L0,-3.0L2.5,-0.5"/>
                </g>
                <g id="arrowLeft" xlink:href="#dirArrow" transform="rotate(270) translate(-36 17)" onmousedown="handlePan(-1,0)">
                  <use xlink:href="#rim" fill="#404040">
                        <set attributeName="fill" to="#808080" begin="arrowLeft.mouseover" end="arrowLeft.mouseout"/>
                  </use>
                  <path fill="none" stroke="white" stroke-width="1.5" d="M0,-3.0v7 M-2.5,-0.5L0,-3.0L2.5,-0.5"/>
                </g>
        </g>
        <svg viewBox="0 0 15 15" width="100%" height="30px" preserveAspectRatio="xMaxYMin meet">
         <g id="arrow_out" transform="scale(0.3 0.3)">
          <a xlink:href="classengine_1_1render_1_1_rendered_node_a520a8c03b505d10c69e010e603cadfdd_icgraph_org.svg" target="_base">
           <rect id="button" ry="5" rx="5" y="6" x="6" height="38" width="38"
                fill="#f2f5e9" fill-opacity="0.5" stroke="#606060" stroke-width="1.0"/>
           <path id="arrow"
             d="M 11.500037,31.436501 C 11.940474,20.09759 22.043105,11.32322 32.158766,21.979434 L 37.068811,17.246167 C 37.068811,17.246167 37.088388,32 37.088388,32 L 22.160133,31.978069 C 22.160133,31.978069 26.997745,27.140456 26.997745,27.140456 C 18.528582,18.264221 13.291696,25.230495 11.500037,31.436501 z"
             style="fill:#404040;"/>
          </a>
         </g>
        </svg>
</svg>
