<?xml version="1.0" encoding="UTF-8" standalone="no"?>
<!DOCTYPE svg PUBLIC "-//W3C//DTD SVG 1.1//EN"
 "http://www.w3.org/Graphics/SVG/1.1/DTD/svg11.dtd">
<!-- Generated by graphviz version 2.36.0 (20140111.2315)
 -->
<!-- Title: engine.conditions.Condition.getIdentifier Pages: 1 -->
<svg width="850pt" height="87pt"
 viewBox="0.00 0.00 850.00 87.00" xmlns="http://www.w3.org/2000/svg" xmlns:xlink="http://www.w3.org/1999/xlink">
<g id="graph0" class="graph" transform="scale(1 1) rotate(0) translate(4 83)">
<title>engine.conditions.Condition.getIdentifier</title>
<polygon fill="white" stroke="none" points="-4,4 -4,-83 846,-83 846,4 -4,4"/>
<!-- Node1 -->
<g id="node1" class="node"><title>Node1</title>
<polygon fill="#bfbfbf" stroke="black" points="0.5,-24 0.5,-54 167.5,-54 167.5,-24 0.5,-24"/>
<text text-anchor="start" x="8.5" y="-42" font-family="Helvetica,sans-Serif" font-size="10.00">engine.conditions.Condition.get</text>
<text text-anchor="middle" x="84" y="-31" font-family="Helvetica,sans-Serif" font-size="10.00">Identifier</text>
</g>
<!-- Node2 -->
<g id="node2" class="node"><title>Node2</title>
<g id="a_node2"><a xlink:href="../../db/d2a/classauthoring_1_1model_1_1collections_1_1_conditions_collection.html#aa9f4e4c0999a8ddddafed79ab7a40ef8" target="_top" xlink:title="authoring.model.collections.\lConditionsCollection.getIdentifierList">
<polygon fill="white" stroke="black" points="204,-24 204,-54 394,-54 394,-24 204,-24"/>
<text text-anchor="start" x="212" y="-42" font-family="Helvetica,sans-Serif" font-size="10.00">authoring.model.collections.</text>
<text text-anchor="middle" x="299" y="-31" font-family="Helvetica,sans-Serif" font-size="10.00">ConditionsCollection.getIdentifierList</text>
</a>
</g>
</g>
<!-- Node1&#45;&gt;Node2 -->
<g id="edge1" class="edge"><title>Node1&#45;&gt;Node2</title>
<path fill="none" stroke="midnightblue" d="M177.706,-39C186.326,-39 195.069,-39 203.704,-39"/>
<polygon fill="midnightblue" stroke="midnightblue" points="177.656,-35.5001 167.656,-39 177.656,-42.5001 177.656,-35.5001"/>
</g>
<!-- Node3 -->
<g id="node3" class="node"><title>Node3</title>
<g id="a_node3"><a xlink:href="../../d7/d00/classengine_1_1tests_1_1_main_engine_tests.html#ad06079aee97fd7ffd4f2b14a8f01b808" target="_top" xlink:title="engine.tests.MainEngineTests.create\lGameObject">
<polygon fill="white" stroke="black" points="430.5,-49 430.5,-79 621.5,-79 621.5,-49 430.5,-49"/>
<text text-anchor="start" x="438.5" y="-67" font-family="Helvetica,sans-Serif" font-size="10.00">engine.tests.MainEngineTests.create</text>
<text text-anchor="middle" x="526" y="-56" font-family="Helvetica,sans-Serif" font-size="10.00">GameObject</text>
</a>
</g>
</g>
<!-- Node2&#45;&gt;Node3 -->
<g id="edge2" class="edge"><title>Node2&#45;&gt;Node3</title>
<path fill="none" stroke="midnightblue" d="M404.23,-50.5812C412.882,-51.5424 421.599,-52.511 430.176,-53.464"/>
<polygon fill="midnightblue" stroke="midnightblue" points="404.442,-47.0832 394.117,-49.4574 403.669,-54.0404 404.442,-47.0832"/>
</g>
<!-- Node5 -->
<g id="node5" class="node"><title>Node5</title>
<g id="a_node5"><a xlink:href="../../dc/d21/classgames_1_1_mario_game_test.html#aab9eed35cd4d8ae1d108ae914b6a73ff" target="_top" xlink:title="games.MarioGameTest.create\lGameObject">
<polygon fill="white" stroke="black" points="445.5,-0 445.5,-30 606.5,-30 606.5,-0 445.5,-0"/>
<text text-anchor="start" x="453.5" y="-18" font-family="Helvetica,sans-Serif" font-size="10.00">games.MarioGameTest.create</text>
<text text-anchor="middle" x="526" y="-7" font-family="Helvetica,sans-Serif" font-size="10.00">GameObject</text>
</a>
</g>
</g>
<!-- Node2&#45;&gt;Node5 -->
<g id="edge4" class="edge"><title>Node2&#45;&gt;Node5</title>
<path fill="none" stroke="midnightblue" d="M404.119,-27.8939C417.914,-26.4225 431.877,-24.9331 445.174,-23.5148"/>
<polygon fill="midnightblue" stroke="midnightblue" points="403.689,-24.4199 394.117,-28.9609 404.431,-31.3804 403.689,-24.4199"/>
</g>
<!-- Node4 -->
<g id="node4" class="node"><title>Node4</title>
<g id="a_node4"><a xlink:href="../../d7/d00/classengine_1_1tests_1_1_main_engine_tests.html#ad1e78dcd3453ebdeb09141cba734c133" target="_top" xlink:title="engine.tests.MainEngineTests.start">
<polygon fill="white" stroke="black" points="658.5,-54.5 658.5,-73.5 841.5,-73.5 841.5,-54.5 658.5,-54.5"/>
<text text-anchor="middle" x="750" y="-61.5" font-family="Helvetica,sans-Serif" font-size="10.00">engine.tests.MainEngineTests.start</text>
</a>
</g>
</g>
<!-- Node3&#45;&gt;Node4 -->
<g id="edge3" class="edge"><title>Node3&#45;&gt;Node4</title>
<path fill="none" stroke="midnightblue" d="M631.796,-64C640.688,-64 649.633,-64 658.403,-64"/>
<polygon fill="midnightblue" stroke="midnightblue" points="631.792,-60.5001 621.792,-64 631.792,-67.5001 631.792,-60.5001"/>
</g>
<!-- Node6 -->
<g id="node6" class="node"><title>Node6</title>
<g id="a_node6"><a xlink:href="../../dc/d21/classgames_1_1_mario_game_test.html#a8b7c287ffdfcacefeb373e7430a608c8" target="_top" xlink:title="games.MarioGameTest.start">
<polygon fill="white" stroke="black" points="674,-5.5 674,-24.5 826,-24.5 826,-5.5 674,-5.5"/>
<text text-anchor="middle" x="750" y="-12.5" font-family="Helvetica,sans-Serif" font-size="10.00">games.MarioGameTest.start</text>
</a>
</g>
</g>
<!-- Node5&#45;&gt;Node6 -->
<g id="edge5" class="edge"><title>Node5&#45;&gt;Node6</title>
<path fill="none" stroke="midnightblue" d="M616.638,-8.36235C635.585,-8.16081 655.394,-8.23042 673.744,-8.5712"/>
<polygon fill="midnightblue" stroke="midnightblue" points="616.472,-4.86415 606.52,-8.4973 616.566,-11.8635 616.472,-4.86415"/>
</g>
<!-- Node6&#45;&gt;Node5 -->
<g id="edge6" class="edge"><title>Node6&#45;&gt;Node5</title>
<path fill="none" stroke="midnightblue" d="M663.722,-21.5863C644.923,-21.8296 625.081,-21.8017 606.52,-21.5027"/>
<polygon fill="midnightblue" stroke="midnightblue" points="663.8,-25.0856 673.744,-21.4288 663.69,-18.0864 663.8,-25.0856"/>
</g>
</g>
</svg>
