<?xml version="1.0" encoding="UTF-8" standalone="no"?>
<!DOCTYPE svg PUBLIC "-//W3C//DTD SVG 1.1//EN"
 "http://www.w3.org/Graphics/SVG/1.1/DTD/svg11.dtd">
<!-- Generated by graphviz version 2.36.0 (20140111.2315)
 -->
<!-- Title: engine.conditions.Condition.getIdentifier Pages: 1 -->
<svg width="862pt" height="136pt"
 viewBox="0.00 0.00 862.00 136.00" xmlns="http://www.w3.org/2000/svg" xmlns:xlink="http://www.w3.org/1999/xlink">
<g id="graph0" class="graph" transform="scale(1 1) rotate(0) translate(4 132)">
<title>engine.conditions.Condition.getIdentifier</title>
<polygon fill="white" stroke="none" points="-4,4 -4,-132 858,-132 858,4 -4,4"/>
<!-- Node1 -->
<g id="node1" class="node"><title>Node1</title>
<polygon fill="#bfbfbf" stroke="black" points="0.5,-73 0.5,-103 167.5,-103 167.5,-73 0.5,-73"/>
<text text-anchor="start" x="8.5" y="-91" font-family="Helvetica,sans-Serif" font-size="10.00">engine.conditions.Condition.get</text>
<text text-anchor="middle" x="84" y="-80" font-family="Helvetica,sans-Serif" font-size="10.00">Identifier</text>
</g>
<!-- Node2 -->
<g id="node2" class="node"><title>Node2</title>
<g id="a_node2"><a xlink:href="../../d0/db6/classauthoring_1_1view_1_1conditionsview_1_1_conditions_accordion_view.html#a66e4e2caf083e64aeda1ba08811d458d" target="_top" xlink:title="authoring.view.conditionsview.\lConditionsAccordionView.addCondition">
<polygon fill="white" stroke="black" points="204.5,-98 204.5,-128 405.5,-128 405.5,-98 204.5,-98"/>
<text text-anchor="start" x="212.5" y="-116" font-family="Helvetica,sans-Serif" font-size="10.00">authoring.view.conditionsview.</text>
<text text-anchor="middle" x="305" y="-105" font-family="Helvetica,sans-Serif" font-size="10.00">ConditionsAccordionView.addCondition</text>
</a>
</g>
</g>
<!-- Node1&#45;&gt;Node2 -->
<g id="edge1" class="edge"><title>Node1&#45;&gt;Node2</title>
<path fill="none" stroke="midnightblue" d="M177.903,-98.6053C186.58,-99.5959 195.4,-100.603 204.138,-101.6"/>
<polygon fill="midnightblue" stroke="midnightblue" points="178.127,-95.1083 167.795,-97.4514 177.333,-102.063 178.127,-95.1083"/>
</g>
<!-- Node4 -->
<g id="node4" class="node"><title>Node4</title>
<g id="a_node4"><a xlink:href="../../db/d2a/classauthoring_1_1model_1_1collections_1_1_conditions_collection.html#aa9f4e4c0999a8ddddafed79ab7a40ef8" target="_top" xlink:title="authoring.model.collections.\lConditionsCollection.getIdentifierList">
<polygon fill="white" stroke="black" points="210,-49 210,-79 400,-79 400,-49 210,-49"/>
<text text-anchor="start" x="218" y="-67" font-family="Helvetica,sans-Serif" font-size="10.00">authoring.model.collections.</text>
<text text-anchor="middle" x="305" y="-56" font-family="Helvetica,sans-Serif" font-size="10.00">ConditionsCollection.getIdentifierList</text>
</a>
</g>
</g>
<!-- Node1&#45;&gt;Node4 -->
<g id="edge3" class="edge"><title>Node1&#45;&gt;Node4</title>
<path fill="none" stroke="midnightblue" d="M177.83,-77.8268C188.379,-76.6708 199.139,-75.4916 209.707,-74.3335"/>
<polygon fill="midnightblue" stroke="midnightblue" points="177.354,-74.358 167.795,-78.9266 178.116,-81.3163 177.354,-74.358"/>
</g>
<!-- Node3 -->
<g id="node3" class="node"><title>Node3</title>
<g id="a_node3"><a xlink:href="../../d0/db6/classauthoring_1_1view_1_1conditionsview_1_1_conditions_accordion_view.html#a5f73f209659bbabfca1f82fa06192aa4" target="_top" xlink:title="authoring.view.conditionsview.\lConditionsAccordionView.update">
<polygon fill="white" stroke="black" points="452,-98 452,-128 624,-128 624,-98 452,-98"/>
<text text-anchor="start" x="460" y="-116" font-family="Helvetica,sans-Serif" font-size="10.00">authoring.view.conditionsview.</text>
<text text-anchor="middle" x="538" y="-105" font-family="Helvetica,sans-Serif" font-size="10.00">ConditionsAccordionView.update</text>
</a>
</g>
</g>
<!-- Node2&#45;&gt;Node3 -->
<g id="edge2" class="edge"><title>Node2&#45;&gt;Node3</title>
<path fill="none" stroke="midnightblue" d="M415.781,-113C427.89,-113 440.083,-113 451.826,-113"/>
<polygon fill="midnightblue" stroke="midnightblue" points="415.641,-109.5 405.641,-113 415.641,-116.5 415.641,-109.5"/>
</g>
<!-- Node5 -->
<g id="node5" class="node"><title>Node5</title>
<g id="a_node5"><a xlink:href="../../d7/d00/classengine_1_1tests_1_1_main_engine_tests.html#ad06079aee97fd7ffd4f2b14a8f01b808" target="_top" xlink:title="engine.tests.MainEngineTests.create\lGameObject">
<polygon fill="white" stroke="black" points="442.5,-49 442.5,-79 633.5,-79 633.5,-49 442.5,-49"/>
<text text-anchor="start" x="450.5" y="-67" font-family="Helvetica,sans-Serif" font-size="10.00">engine.tests.MainEngineTests.create</text>
<text text-anchor="middle" x="538" y="-56" font-family="Helvetica,sans-Serif" font-size="10.00">GameObject</text>
</a>
</g>
</g>
<!-- Node4&#45;&gt;Node5 -->
<g id="edge4" class="edge"><title>Node4&#45;&gt;Node5</title>
<path fill="none" stroke="midnightblue" d="M410.413,-64C421.025,-64 431.762,-64 442.263,-64"/>
<polygon fill="midnightblue" stroke="midnightblue" points="410.29,-60.5001 400.29,-64 410.29,-67.5001 410.29,-60.5001"/>
</g>
<!-- Node7 -->
<g id="node7" class="node"><title>Node7</title>
<g id="a_node7"><a xlink:href="../../dc/d21/classgames_1_1_mario_game_test.html#aab9eed35cd4d8ae1d108ae914b6a73ff" target="_top" xlink:title="games.MarioGameTest.create\lGameObject">
<polygon fill="white" stroke="black" points="457.5,-0 457.5,-30 618.5,-30 618.5,-0 457.5,-0"/>
<text text-anchor="start" x="465.5" y="-18" font-family="Helvetica,sans-Serif" font-size="10.00">games.MarioGameTest.create</text>
<text text-anchor="middle" x="538" y="-7" font-family="Helvetica,sans-Serif" font-size="10.00">GameObject</text>
</a>
</g>
</g>
<!-- Node4&#45;&gt;Node7 -->
<g id="edge6" class="edge"><title>Node4&#45;&gt;Node7</title>
<path fill="none" stroke="midnightblue" d="M386.674,-46.8873C412.597,-41.3885 441.102,-35.342 466.257,-30.0062"/>
<polygon fill="midnightblue" stroke="midnightblue" points="385.934,-43.4664 376.877,-48.9654 387.386,-50.3141 385.934,-43.4664"/>
</g>
<!-- Node6 -->
<g id="node6" class="node"><title>Node6</title>
<g id="a_node6"><a xlink:href="../../d7/d00/classengine_1_1tests_1_1_main_engine_tests.html#ad1e78dcd3453ebdeb09141cba734c133" target="_top" xlink:title="engine.tests.MainEngineTests.start">
<polygon fill="white" stroke="black" points="670.5,-54.5 670.5,-73.5 853.5,-73.5 853.5,-54.5 670.5,-54.5"/>
<text text-anchor="middle" x="762" y="-61.5" font-family="Helvetica,sans-Serif" font-size="10.00">engine.tests.MainEngineTests.start</text>
</a>
</g>
</g>
<!-- Node5&#45;&gt;Node6 -->
<g id="edge5" class="edge"><title>Node5&#45;&gt;Node6</title>
<path fill="none" stroke="midnightblue" d="M643.796,-64C652.688,-64 661.633,-64 670.403,-64"/>
<polygon fill="midnightblue" stroke="midnightblue" points="643.792,-60.5001 633.792,-64 643.792,-67.5001 643.792,-60.5001"/>
</g>
<!-- Node8 -->
<g id="node8" class="node"><title>Node8</title>
<g id="a_node8"><a xlink:href="../../dc/d21/classgames_1_1_mario_game_test.html#a8b7c287ffdfcacefeb373e7430a608c8" target="_top" xlink:title="games.MarioGameTest.start">
<polygon fill="white" stroke="black" points="686,-5.5 686,-24.5 838,-24.5 838,-5.5 686,-5.5"/>
<text text-anchor="middle" x="762" y="-12.5" font-family="Helvetica,sans-Serif" font-size="10.00">games.MarioGameTest.start</text>
</a>
</g>
</g>
<!-- Node7&#45;&gt;Node8 -->
<g id="edge7" class="edge"><title>Node7&#45;&gt;Node8</title>
<path fill="none" stroke="midnightblue" d="M628.638,-15C647.585,-15 667.394,-15 685.744,-15"/>
<polygon fill="midnightblue" stroke="midnightblue" points="628.52,-11.5001 618.52,-15 628.52,-18.5001 628.52,-11.5001"/>
</g>
</g>
</svg>
