<?xml version="1.0" encoding="UTF-8" standalone="no"?>
<!DOCTYPE svg PUBLIC "-//W3C//DTD SVG 1.1//EN"
 "http://www.w3.org/Graphics/SVG/1.1/DTD/svg11.dtd">
<!-- Generated by graphviz version 2.36.0 (20140111.2315)
 -->
<!-- Title: engine.conditions.Condition.getIdentifier Pages: 1 -->
<svg width="862pt" height="87pt"
 viewBox="0.00 0.00 862.00 87.00" xmlns="http://www.w3.org/2000/svg" xmlns:xlink="http://www.w3.org/1999/xlink">
<g id="graph0" class="graph" transform="scale(1 1) rotate(0) translate(4 83)">
<title>engine.conditions.Condition.getIdentifier</title>
<polygon fill="white" stroke="none" points="-4,4 -4,-83 858,-83 858,4 -4,4"/>
<!-- Node1 -->
<g id="node1" class="node"><title>Node1</title>
<polygon fill="#bfbfbf" stroke="black" points="0.5,-24 0.5,-54 167.5,-54 167.5,-24 0.5,-24"/>
<text text-anchor="start" x="8.5" y="-42" font-family="Helvetica,sans-Serif" font-size="10.00">engine.conditions.Condition.get</text>
<text text-anchor="middle" x="84" y="-31" font-family="Helvetica,sans-Serif" font-size="10.00">Identifier</text>
</g>
<!-- Node2 -->
<g id="node2" class="node"><title>Node2</title>
<g id="a_node2"><a xlink:href="../../d0/db6/classauthoring_1_1view_1_1conditionsview_1_1_conditions_accordion_view.html#a66e4e2caf083e64aeda1ba08811d458d" target="_top" xlink:title="authoring.view.conditionsview.\lConditionsAccordionView.addCondition">
<polygon fill="white" stroke="black" points="204.5,-49 204.5,-79 405.5,-79 405.5,-49 204.5,-49"/>
<text text-anchor="start" x="212.5" y="-67" font-family="Helvetica,sans-Serif" font-size="10.00">authoring.view.conditionsview.</text>
<text text-anchor="middle" x="305" y="-56" font-family="Helvetica,sans-Serif" font-size="10.00">ConditionsAccordionView.addCondition</text>
</a>
</g>
</g>
<!-- Node1&#45;&gt;Node2 -->
<g id="edge1" class="edge"><title>Node1&#45;&gt;Node2</title>
<path fill="none" stroke="midnightblue" d="M177.903,-49.6053C186.58,-50.5959 195.4,-51.6028 204.138,-52.6002"/>
<polygon fill="midnightblue" stroke="midnightblue" points="178.127,-46.1083 167.795,-48.4514 177.333,-53.0631 178.127,-46.1083"/>
</g>
<!-- Node4 -->
<g id="node4" class="node"><title>Node4</title>
<g id="a_node4"><a xlink:href="../../db/d2a/classauthoring_1_1model_1_1collections_1_1_conditions_collection.html#aa9f4e4c0999a8ddddafed79ab7a40ef8" target="_top" xlink:title="authoring.model.collections.\lConditionsCollection.getIdentifierList">
<polygon fill="white" stroke="black" points="210,-0 210,-30 400,-30 400,-0 210,-0"/>
<text text-anchor="start" x="218" y="-18" font-family="Helvetica,sans-Serif" font-size="10.00">authoring.model.collections.</text>
<text text-anchor="middle" x="305" y="-7" font-family="Helvetica,sans-Serif" font-size="10.00">ConditionsCollection.getIdentifierList</text>
</a>
</g>
</g>
<!-- Node1&#45;&gt;Node4 -->
<g id="edge3" class="edge"><title>Node1&#45;&gt;Node4</title>
<path fill="none" stroke="midnightblue" d="M177.83,-28.8268C188.379,-27.6708 199.139,-26.4916 209.707,-25.3335"/>
<polygon fill="midnightblue" stroke="midnightblue" points="177.354,-25.358 167.795,-29.9266 178.116,-32.3163 177.354,-25.358"/>
</g>
<!-- Node3 -->
<g id="node3" class="node"><title>Node3</title>
<g id="a_node3"><a xlink:href="../../d0/db6/classauthoring_1_1view_1_1conditionsview_1_1_conditions_accordion_view.html#a5f73f209659bbabfca1f82fa06192aa4" target="_top" xlink:title="authoring.view.conditionsview.\lConditionsAccordionView.update">
<polygon fill="white" stroke="black" points="452,-49 452,-79 624,-79 624,-49 452,-49"/>
<text text-anchor="start" x="460" y="-67" font-family="Helvetica,sans-Serif" font-size="10.00">authoring.view.conditionsview.</text>
<text text-anchor="middle" x="538" y="-56" font-family="Helvetica,sans-Serif" font-size="10.00">ConditionsAccordionView.update</text>
</a>
</g>
</g>
<!-- Node2&#45;&gt;Node3 -->
<g id="edge2" class="edge"><title>Node2&#45;&gt;Node3</title>
<path fill="none" stroke="midnightblue" d="M415.781,-64C427.89,-64 440.083,-64 451.826,-64"/>
<polygon fill="midnightblue" stroke="midnightblue" points="415.641,-60.5001 405.641,-64 415.641,-67.5001 415.641,-60.5001"/>
</g>
<!-- Node5 -->
<g id="node5" class="node"><title>Node5</title>
<g id="a_node5"><a xlink:href="../../d7/d00/classengine_1_1tests_1_1_main_engine_tests.html#ad06079aee97fd7ffd4f2b14a8f01b808" target="_top" xlink:title="engine.tests.MainEngineTests.create\lGameObject">
<polygon fill="white" stroke="black" points="442.5,-0 442.5,-30 633.5,-30 633.5,-0 442.5,-0"/>
<text text-anchor="start" x="450.5" y="-18" font-family="Helvetica,sans-Serif" font-size="10.00">engine.tests.MainEngineTests.create</text>
<text text-anchor="middle" x="538" y="-7" font-family="Helvetica,sans-Serif" font-size="10.00">GameObject</text>
</a>
</g>
</g>
<!-- Node4&#45;&gt;Node5 -->
<g id="edge4" class="edge"><title>Node4&#45;&gt;Node5</title>
<path fill="none" stroke="midnightblue" d="M410.413,-15C421.025,-15 431.762,-15 442.263,-15"/>
<polygon fill="midnightblue" stroke="midnightblue" points="410.29,-11.5001 400.29,-15 410.29,-18.5001 410.29,-11.5001"/>
</g>
<!-- Node6 -->
<g id="node6" class="node"><title>Node6</title>
<g id="a_node6"><a xlink:href="../../d7/d00/classengine_1_1tests_1_1_main_engine_tests.html#ad1e78dcd3453ebdeb09141cba734c133" target="_top" xlink:title="engine.tests.MainEngineTests.start">
<polygon fill="white" stroke="black" points="670.5,-5.5 670.5,-24.5 853.5,-24.5 853.5,-5.5 670.5,-5.5"/>
<text text-anchor="middle" x="762" y="-12.5" font-family="Helvetica,sans-Serif" font-size="10.00">engine.tests.MainEngineTests.start</text>
</a>
</g>
</g>
<!-- Node5&#45;&gt;Node6 -->
<g id="edge5" class="edge"><title>Node5&#45;&gt;Node6</title>
<path fill="none" stroke="midnightblue" d="M643.796,-15C652.688,-15 661.633,-15 670.403,-15"/>
<polygon fill="midnightblue" stroke="midnightblue" points="643.792,-11.5001 633.792,-15 643.792,-18.5001 643.792,-11.5001"/>
</g>
</g>
</svg>
