<?xml version="1.0" encoding="UTF-8" standalone="no"?>
<!DOCTYPE svg PUBLIC "-//W3C//DTD SVG 1.1//EN"
 "http://www.w3.org/Graphics/SVG/1.1/DTD/svg11.dtd">
<!-- Generated by graphviz version 2.36.0 (20140111.2315)
 -->
<!-- Title: engine.conditions.Condition.setIdentifier Pages: 1 -->
<svg width="1044pt" height="92pt"
 viewBox="0.00 0.00 1044.00 92.00" xmlns="http://www.w3.org/2000/svg" xmlns:xlink="http://www.w3.org/1999/xlink">
<g id="graph0" class="graph" transform="scale(1 1) rotate(0) translate(4 88)">
<title>engine.conditions.Condition.setIdentifier</title>
<polygon fill="white" stroke="none" points="-4,4 -4,-88 1040,-88 1040,4 -4,4"/>
<!-- Node1 -->
<g id="node1" class="node"><title>Node1</title>
<polygon fill="#bfbfbf" stroke="black" points="0.5,-29 0.5,-59 167.5,-59 167.5,-29 0.5,-29"/>
<text text-anchor="start" x="8.5" y="-47" font-family="Helvetica,sans-Serif" font-size="10.00">engine.conditions.Condition.set</text>
<text text-anchor="middle" x="84" y="-36" font-family="Helvetica,sans-Serif" font-size="10.00">Identifier</text>
</g>
<!-- Node2 -->
<g id="node2" class="node"><title>Node2</title>
<g id="a_node2"><a xlink:href="../../d7/d00/classengine_1_1tests_1_1_main_engine_tests.html#ad06079aee97fd7ffd4f2b14a8f01b808" target="_top" xlink:title="engine.tests.MainEngineTests.create\lGameObject">
<polygon fill="white" stroke="black" points="204.5,-54 204.5,-84 395.5,-84 395.5,-54 204.5,-54"/>
<text text-anchor="start" x="212.5" y="-72" font-family="Helvetica,sans-Serif" font-size="10.00">engine.tests.MainEngineTests.create</text>
<text text-anchor="middle" x="300" y="-61" font-family="Helvetica,sans-Serif" font-size="10.00">GameObject</text>
</a>
</g>
</g>
<!-- Node1&#45;&gt;Node2 -->
<g id="edge1" class="edge"><title>Node1&#45;&gt;Node2</title>
<path fill="none" stroke="midnightblue" d="M177.948,-54.8584C186.707,-55.8817 195.595,-56.92 204.37,-57.9451"/>
<polygon fill="midnightblue" stroke="midnightblue" points="178.077,-51.3497 167.738,-53.6657 177.264,-58.3024 178.077,-51.3497"/>
</g>
<!-- Node4 -->
<g id="node4" class="node"><title>Node4</title>
<g id="a_node4"><a xlink:href="../../d0/d9b/classauthoring_1_1eventhandlers_1_1_add_condition_handler.html#a1dbd177bba812a645c78db0a93e6ee71" target="_top" xlink:title="authoring.eventhandlers.\lAddConditionHandler.finishCondition">
<polygon fill="white" stroke="black" points="205,-5 205,-35 395,-35 395,-5 205,-5"/>
<text text-anchor="start" x="213" y="-23" font-family="Helvetica,sans-Serif" font-size="10.00">authoring.eventhandlers.</text>
<text text-anchor="middle" x="300" y="-12" font-family="Helvetica,sans-Serif" font-size="10.00">AddConditionHandler.finishCondition</text>
</a>
</g>
</g>
<!-- Node1&#45;&gt;Node4 -->
<g id="edge3" class="edge"><title>Node1&#45;&gt;Node4</title>
<path fill="none" stroke="midnightblue" d="M177.76,-33.597C186.7,-32.5944 195.775,-31.5767 204.729,-30.5725"/>
<polygon fill="midnightblue" stroke="midnightblue" points="177.286,-30.1282 167.738,-34.721 178.066,-37.0846 177.286,-30.1282"/>
</g>
<!-- Node3 -->
<g id="node3" class="node"><title>Node3</title>
<g id="a_node3"><a xlink:href="../../d7/d00/classengine_1_1tests_1_1_main_engine_tests.html#ad1e78dcd3453ebdeb09141cba734c133" target="_top" xlink:title="engine.tests.MainEngineTests.start">
<polygon fill="white" stroke="black" points="432.5,-59.5 432.5,-78.5 615.5,-78.5 615.5,-59.5 432.5,-59.5"/>
<text text-anchor="middle" x="524" y="-66.5" font-family="Helvetica,sans-Serif" font-size="10.00">engine.tests.MainEngineTests.start</text>
</a>
</g>
</g>
<!-- Node2&#45;&gt;Node3 -->
<g id="edge2" class="edge"><title>Node2&#45;&gt;Node3</title>
<path fill="none" stroke="midnightblue" d="M405.796,-69C414.688,-69 423.633,-69 432.403,-69"/>
<polygon fill="midnightblue" stroke="midnightblue" points="405.792,-65.5001 395.792,-69 405.792,-72.5001 405.792,-65.5001"/>
</g>
<!-- Node5 -->
<g id="node5" class="node"><title>Node5</title>
<g id="a_node5"><a xlink:href="../../d0/d9b/classauthoring_1_1eventhandlers_1_1_add_condition_handler.html#a7215c52c01d70a711bdf49d7c4b37d70" target="_top" xlink:title="authoring.eventhandlers.\lAddConditionHandler.fillCondition\lParameters">
<polygon fill="white" stroke="black" points="436.5,0.5 436.5,-40.5 611.5,-40.5 611.5,0.5 436.5,0.5"/>
<text text-anchor="start" x="444.5" y="-28.5" font-family="Helvetica,sans-Serif" font-size="10.00">authoring.eventhandlers.</text>
<text text-anchor="start" x="444.5" y="-17.5" font-family="Helvetica,sans-Serif" font-size="10.00">AddConditionHandler.fillCondition</text>
<text text-anchor="middle" x="524" y="-6.5" font-family="Helvetica,sans-Serif" font-size="10.00">Parameters</text>
</a>
</g>
</g>
<!-- Node4&#45;&gt;Node5 -->
<g id="edge4" class="edge"><title>Node4&#45;&gt;Node5</title>
<path fill="none" stroke="midnightblue" d="M405.158,-20C415.636,-20 426.197,-20 436.464,-20"/>
<polygon fill="midnightblue" stroke="midnightblue" points="405.148,-16.5001 395.148,-20 405.148,-23.5001 405.148,-16.5001"/>
</g>
<!-- Node6 -->
<g id="node6" class="node"><title>Node6</title>
<g id="a_node6"><a xlink:href="../../d0/d9b/classauthoring_1_1eventhandlers_1_1_add_condition_handler.html#a88d3a7413e2434fe0bcfc0e6e436573f" target="_top" xlink:title="authoring.eventhandlers.\lAddConditionHandler.createCondition">
<polygon fill="white" stroke="black" points="652,-5 652,-35 848,-35 848,-5 652,-5"/>
<text text-anchor="start" x="660" y="-23" font-family="Helvetica,sans-Serif" font-size="10.00">authoring.eventhandlers.</text>
<text text-anchor="middle" x="750" y="-12" font-family="Helvetica,sans-Serif" font-size="10.00">AddConditionHandler.createCondition</text>
</a>
</g>
</g>
<!-- Node5&#45;&gt;Node6 -->
<g id="edge5" class="edge"><title>Node5&#45;&gt;Node6</title>
<path fill="none" stroke="midnightblue" d="M621.878,-20C631.806,-20 641.895,-20 651.826,-20"/>
<polygon fill="midnightblue" stroke="midnightblue" points="621.604,-16.5001 611.604,-20 621.604,-23.5001 621.604,-16.5001"/>
</g>
<!-- Node7 -->
<g id="node7" class="node"><title>Node7</title>
<g id="a_node7"><a xlink:href="../../d0/d9b/classauthoring_1_1eventhandlers_1_1_add_condition_handler.html#abc328df9b2c2be7df5170384e59f06d4" target="_top" xlink:title="authoring.eventhandlers.\lAddConditionHandler.handle">
<polygon fill="white" stroke="black" points="884,-5 884,-35 1036,-35 1036,-5 884,-5"/>
<text text-anchor="start" x="892" y="-23" font-family="Helvetica,sans-Serif" font-size="10.00">authoring.eventhandlers.</text>
<text text-anchor="middle" x="960" y="-12" font-family="Helvetica,sans-Serif" font-size="10.00">AddConditionHandler.handle</text>
</a>
</g>
</g>
<!-- Node6&#45;&gt;Node7 -->
<g id="edge6" class="edge"><title>Node6&#45;&gt;Node7</title>
<path fill="none" stroke="midnightblue" d="M858.396,-20C866.995,-20 875.563,-20 883.865,-20"/>
<polygon fill="midnightblue" stroke="midnightblue" points="858.301,-16.5001 848.301,-20 858.301,-23.5001 858.301,-16.5001"/>
</g>
</g>
</svg>
