<?xml version="1.0" encoding="UTF-8" standalone="no"?>
<!DOCTYPE svg PUBLIC "-//W3C//DTD SVG 1.1//EN"
 "http://www.w3.org/Graphics/SVG/1.1/DTD/svg11.dtd">
<!-- Generated by graphviz version 2.36.0 (20140111.2315)
 -->
<!-- Title: data.Observable.setChanged Pages: 1 -->
<svg width="924pt" height="136pt"
 viewBox="0.00 0.00 924.00 136.00" xmlns="http://www.w3.org/2000/svg" xmlns:xlink="http://www.w3.org/1999/xlink">
<g id="graph0" class="graph" transform="scale(1 1) rotate(0) translate(4 132)">
<title>data.Observable.setChanged</title>
<polygon fill="white" stroke="none" points="-4,4 -4,-132 920,-132 920,4 -4,4"/>
<!-- Node1 -->
<g id="node1" class="node"><title>Node1</title>
<polygon fill="#bfbfbf" stroke="black" points="0,-54.5 0,-73.5 156,-73.5 156,-54.5 0,-54.5"/>
<text text-anchor="middle" x="78" y="-61.5" font-family="Helvetica,sans-Serif" font-size="10.00">data.Observable.setChanged</text>
</g>
<!-- Node2 -->
<g id="node2" class="node"><title>Node2</title>
<g id="a_node2"><a xlink:href="../../d4/d3b/classauthoring_1_1model_1_1collections_1_1_general_collection.html#a1bdc1047736bbb23259d6a7fe4c6deeb" target="_top" xlink:title="authoring.model.collections.\lGeneralCollection\&lt; GameObject \&gt;::add">
<polygon fill="white" stroke="black" points="192.5,-98 192.5,-128 399.5,-128 399.5,-98 192.5,-98"/>
<text text-anchor="start" x="200.5" y="-116" font-family="Helvetica,sans-Serif" font-size="10.00">authoring.model.collections.</text>
<text text-anchor="middle" x="296" y="-105" font-family="Helvetica,sans-Serif" font-size="10.00">GeneralCollection&lt; GameObject &gt;::add</text>
</a>
</g>
</g>
<!-- Node1&#45;&gt;Node2 -->
<g id="edge1" class="edge"><title>Node1&#45;&gt;Node2</title>
<path fill="none" stroke="midnightblue" d="M130.93,-75.7804C160.236,-82.4286 197.165,-90.806 228.563,-97.9287"/>
<polygon fill="midnightblue" stroke="midnightblue" points="131.43,-72.3049 120.903,-73.5058 129.881,-79.1315 131.43,-72.3049"/>
</g>
<!-- Node3 -->
<g id="node3" class="node"><title>Node3</title>
<g id="a_node3"><a xlink:href="../../df/d84/classengine_1_1level_1_1_level.html#a0e3c5bae8948f49ede9e5a87f197581b" target="_top" xlink:title="engine.level.Level.addGame\lObject">
<polygon fill="white" stroke="black" points="220,-49 220,-79 372,-79 372,-49 220,-49"/>
<text text-anchor="start" x="228" y="-67" font-family="Helvetica,sans-Serif" font-size="10.00">engine.level.Level.addGame</text>
<text text-anchor="middle" x="296" y="-56" font-family="Helvetica,sans-Serif" font-size="10.00">Object</text>
</a>
</g>
</g>
<!-- Node1&#45;&gt;Node3 -->
<g id="edge2" class="edge"><title>Node1&#45;&gt;Node3</title>
<path fill="none" stroke="midnightblue" d="M166.382,-64C184.079,-64 202.543,-64 219.776,-64"/>
<polygon fill="midnightblue" stroke="midnightblue" points="166.066,-60.5001 156.066,-64 166.066,-67.5001 166.066,-60.5001"/>
</g>
<!-- Node6 -->
<g id="node6" class="node"><title>Node6</title>
<g id="a_node6"><a xlink:href="../../df/d84/classengine_1_1level_1_1_level.html#a62fad5769cbf1d6156e1be0b10757b9e" target="_top" xlink:title="engine.level.Level.remove\lGameObject">
<polygon fill="white" stroke="black" points="225.5,-0 225.5,-30 366.5,-30 366.5,-0 225.5,-0"/>
<text text-anchor="start" x="233.5" y="-18" font-family="Helvetica,sans-Serif" font-size="10.00">engine.level.Level.remove</text>
<text text-anchor="middle" x="296" y="-7" font-family="Helvetica,sans-Serif" font-size="10.00">GameObject</text>
</a>
</g>
</g>
<!-- Node1&#45;&gt;Node6 -->
<g id="edge5" class="edge"><title>Node1&#45;&gt;Node6</title>
<path fill="none" stroke="midnightblue" d="M130.93,-52.2196C160.236,-45.5714 197.165,-37.194 228.563,-30.0713"/>
<polygon fill="midnightblue" stroke="midnightblue" points="129.881,-48.8685 120.903,-54.4942 131.43,-55.6951 129.881,-48.8685"/>
</g>
<!-- Node4 -->
<g id="node4" class="node"><title>Node4</title>
<g id="a_node4"><a xlink:href="../../d0/df2/classauthoring_1_1eventhandlers_1_1_game_object_drag_to_level_handler.html#a98ccf77195ecfc7146cd1737da68b6b2" target="_top" xlink:title="authoring.eventhandlers.\lGameObjectDragToLevelHandler.updateName">
<polygon fill="white" stroke="black" points="436.5,-49 436.5,-79 673.5,-79 673.5,-49 436.5,-49"/>
<text text-anchor="start" x="444.5" y="-67" font-family="Helvetica,sans-Serif" font-size="10.00">authoring.eventhandlers.</text>
<text text-anchor="middle" x="555" y="-56" font-family="Helvetica,sans-Serif" font-size="10.00">GameObjectDragToLevelHandler.updateName</text>
</a>
</g>
</g>
<!-- Node3&#45;&gt;Node4 -->
<g id="edge3" class="edge"><title>Node3&#45;&gt;Node4</title>
<path fill="none" stroke="midnightblue" d="M382.104,-64C399.476,-64 418.047,-64 436.324,-64"/>
<polygon fill="midnightblue" stroke="midnightblue" points="382.026,-60.5001 372.026,-64 382.026,-67.5001 382.026,-60.5001"/>
</g>
<!-- Node5 -->
<g id="node5" class="node"><title>Node5</title>
<g id="a_node5"><a xlink:href="../../d0/df2/classauthoring_1_1eventhandlers_1_1_game_object_drag_to_level_handler.html#ad5002cd6b7781653104f1820a573f902" target="_top" xlink:title="authoring.eventhandlers.\lGameObjectDragToLevelHandler.handle">
<polygon fill="white" stroke="black" points="710,-49 710,-79 916,-79 916,-49 710,-49"/>
<text text-anchor="start" x="718" y="-67" font-family="Helvetica,sans-Serif" font-size="10.00">authoring.eventhandlers.</text>
<text text-anchor="middle" x="813" y="-56" font-family="Helvetica,sans-Serif" font-size="10.00">GameObjectDragToLevelHandler.handle</text>
</a>
</g>
</g>
<!-- Node4&#45;&gt;Node5 -->
<g id="edge4" class="edge"><title>Node4&#45;&gt;Node5</title>
<path fill="none" stroke="midnightblue" d="M683.734,-64C692.451,-64 701.171,-64 709.73,-64"/>
<polygon fill="midnightblue" stroke="midnightblue" points="683.511,-60.5001 673.51,-64 683.51,-67.5001 683.511,-60.5001"/>
</g>
</g>
</svg>
