<?xml version="1.0" encoding="UTF-8" standalone="no"?>
<!DOCTYPE svg PUBLIC "-//W3C//DTD SVG 1.1//EN"
 "http://www.w3.org/Graphics/SVG/1.1/DTD/svg11.dtd">
<!-- Generated by graphviz version 2.36.0 (20140111.2315)
 -->
<!-- Title: data.Observable.notifyObservers Pages: 1 -->
<!--zoomable 185 -->
<svg id="main" version="1.1" xmlns="http://www.w3.org/2000/svg" xmlns:xlink="http://www.w3.org/1999/xlink" xml:space="preserve" onload="init(evt)">
<style type="text/css"><![CDATA[
.edge:hover path { stroke: red; }
.edge:hover polygon { stroke: red; fill: red; }
]]></style>
<script type="text/javascript"><![CDATA[
var edges = document.getElementsByTagName('g');
if (edges && edges.length) {
  for (var i=0;i<edges.length;i++) {
    if (edges[i].id.substr(0,4)=='edge') {
      edges[i].setAttribute('class','edge');
    }
  }
}
]]></script>
        <defs>
                <circle id="rim" cx="0" cy="0" r="7"/>
                <circle id="rim2" cx="0" cy="0" r="3.5"/>
                <g id="zoomPlus">
                        <use xlink:href="#rim" fill="#404040">
                                <set attributeName="fill" to="#808080" begin="zoomplus.mouseover" end="zoomplus.mouseout"/>
                        </use>
                        <path d="M-4,0h8M0,-4v8" fill="none" stroke="white" stroke-width="1.5" pointer-events="none"/>
                </g>
                <g id="zoomMin">
                        <use xlink:href="#rim" fill="#404040">
                                <set attributeName="fill" to="#808080" begin="zoomminus.mouseover" end="zoomminus.mouseout"/>
                        </use>
                        <path d="M-4,0h8" fill="none" stroke="white" stroke-width="1.5" pointer-events="none"/>
                </g>
                <g id="dirArrow">
                        <path fill="none" stroke="white" stroke-width="1.5" d="M0,-3.0v7 M-2.5,-0.5L0,-3.0L2.5,-0.5"/>
                </g>
               <g id="resetDef">
                       <use xlink:href="#rim2" fill="#404040">
                               <set attributeName="fill" to="#808080" begin="reset.mouseover" end="reset.mouseout"/>
                       </use>
               </g>
        </defs>

<script type="text/javascript">
var viewWidth = 942;
var viewHeight = 185;
var sectionId = 'dynsection-4';
</script>
<script xlink:href="../../svgpan.js"/>
<svg id="graph" class="graph">
<g id="viewport">
<title>data.Observable.notifyObservers</title>
<polygon fill="white" stroke="none" points="-4,4 -4,-181 938,-181 938,4 -4,4"/>
<!-- Node1 -->
<g id="node1" class="node"><title>Node1</title>
<polygon fill="#bfbfbf" stroke="black" points="0.5,-78.5 0.5,-97.5 173.5,-97.5 173.5,-78.5 0.5,-78.5"/>
<text text-anchor="middle" x="87" y="-85.5" font-family="Helvetica,sans-Serif" font-size="10.00">data.Observable.notifyObservers</text>
</g>
<!-- Node2 -->
<g id="node2" class="node"><title>Node2</title>
<g id="a_node2"><a xlink:href="../../d4/d3b/classauthoring_1_1model_1_1collections_1_1_general_collection.html#a1bdc1047736bbb23259d6a7fe4c6deeb" target="_top" xlink:title="authoring.model.collections.\lGeneralCollection\&lt; GameObject \&gt;::add">
<polygon fill="white" stroke="black" points="210.5,-122 210.5,-152 417.5,-152 417.5,-122 210.5,-122"/>
<text text-anchor="start" x="218.5" y="-140" font-family="Helvetica,sans-Serif" font-size="10.00">authoring.model.collections.</text>
<text text-anchor="middle" x="314" y="-129" font-family="Helvetica,sans-Serif" font-size="10.00">GeneralCollection&lt; GameObject &gt;::add</text>
</a>
</g>
</g>
<!-- Node1&#45;&gt;Node2 -->
<g id="edge1" class="edge"><title>Node1&#45;&gt;Node2</title>
<path fill="none" stroke="midnightblue" d="M141.694,-99.6934C172.285,-106.355 210.946,-114.775 243.795,-121.929"/>
<polygon fill="midnightblue" stroke="midnightblue" points="142.165,-96.2139 131.649,-97.5058 140.675,-103.054 142.165,-96.2139"/>
</g>
<!-- Node3 -->
<g id="node3" class="node"><title>Node3</title>
<g id="a_node3"><a xlink:href="../../df/d84/classengine_1_1level_1_1_level.html#a0e3c5bae8948f49ede9e5a87f197581b" target="_top" xlink:title="engine.level.Level.addGame\lObject">
<polygon fill="white" stroke="black" points="238,-73 238,-103 390,-103 390,-73 238,-73"/>
<text text-anchor="start" x="246" y="-91" font-family="Helvetica,sans-Serif" font-size="10.00">engine.level.Level.addGame</text>
<text text-anchor="middle" x="314" y="-80" font-family="Helvetica,sans-Serif" font-size="10.00">Object</text>
</a>
</g>
</g>
<!-- Node1&#45;&gt;Node3 -->
<g id="edge2" class="edge"><title>Node1&#45;&gt;Node3</title>
<path fill="none" stroke="midnightblue" d="M183.938,-88C201.959,-88 220.56,-88 237.836,-88"/>
<polygon fill="midnightblue" stroke="midnightblue" points="183.705,-84.5001 173.705,-88 183.705,-91.5001 183.705,-84.5001"/>
</g>
<!-- Node10 -->
<g id="node10" class="node"><title>Node10</title>
<g id="a_node10"><a xlink:href="../../df/d84/classengine_1_1level_1_1_level.html#a62fad5769cbf1d6156e1be0b10757b9e" target="_top" xlink:title="engine.level.Level.remove\lGameObject">
<polygon fill="white" stroke="black" points="243.5,-24 243.5,-54 384.5,-54 384.5,-24 243.5,-24"/>
<text text-anchor="start" x="251.5" y="-42" font-family="Helvetica,sans-Serif" font-size="10.00">engine.level.Level.remove</text>
<text text-anchor="middle" x="314" y="-31" font-family="Helvetica,sans-Serif" font-size="10.00">GameObject</text>
</a>
</g>
</g>
<!-- Node1&#45;&gt;Node10 -->
<g id="edge9" class="edge"><title>Node1&#45;&gt;Node10</title>
<path fill="none" stroke="midnightblue" d="M141.694,-76.3066C172.285,-69.6446 210.946,-61.2251 243.795,-54.0713"/>
<polygon fill="midnightblue" stroke="midnightblue" points="140.675,-72.9464 131.649,-78.4942 142.165,-79.7861 140.675,-72.9464"/>
</g>
<!-- Node4 -->
<g id="node4" class="node"><title>Node4</title>
<g id="a_node4"><a xlink:href="../../d0/df2/classauthoring_1_1eventhandlers_1_1_game_object_drag_to_level_handler.html#a98ccf77195ecfc7146cd1737da68b6b2" target="_top" xlink:title="authoring.eventhandlers.\lGameObjectDragToLevelHandler.updateName">
<polygon fill="white" stroke="black" points="454.5,-147 454.5,-177 691.5,-177 691.5,-147 454.5,-147"/>
<text text-anchor="start" x="462.5" y="-165" font-family="Helvetica,sans-Serif" font-size="10.00">authoring.eventhandlers.</text>
<text text-anchor="middle" x="573" y="-154" font-family="Helvetica,sans-Serif" font-size="10.00">GameObjectDragToLevelHandler.updateName</text>
</a>
</g>
</g>
<!-- Node3&#45;&gt;Node4 -->
<g id="edge3" class="edge"><title>Node3&#45;&gt;Node4</title>
<path fill="none" stroke="midnightblue" d="M399.859,-106.046C406.084,-108.142 412.193,-110.455 418,-113 435.612,-120.719 436.276,-129.54 454,-137 463.168,-140.859 472.996,-144.146 482.924,-146.942"/>
<polygon fill="midnightblue" stroke="midnightblue" points="400.598,-102.608 390.008,-102.926 398.484,-109.282 400.598,-102.608"/>
</g>
<!-- Node6 -->
<g id="node6" class="node"><title>Node6</title>
<g id="a_node6"><a xlink:href="../../dd/d57/classengine_1_1actions_1_1_make_new_object_from_location_action.html#a2ebd225d5e10817ac79f4044867afa98" target="_top" xlink:title="engine.actions.MakeNewObject\lFromLocationAction.execute">
<polygon fill="white" stroke="black" points="490,-98 490,-128 656,-128 656,-98 490,-98"/>
<text text-anchor="start" x="498" y="-116" font-family="Helvetica,sans-Serif" font-size="10.00">engine.actions.MakeNewObject</text>
<text text-anchor="middle" x="573" y="-105" font-family="Helvetica,sans-Serif" font-size="10.00">FromLocationAction.execute</text>
</a>
</g>
</g>
<!-- Node3&#45;&gt;Node6 -->
<g id="edge5" class="edge"><title>Node3&#45;&gt;Node6</title>
<path fill="none" stroke="midnightblue" d="M400.078,-96.276C428.917,-99.0814 461.062,-102.208 489.683,-104.992"/>
<polygon fill="midnightblue" stroke="midnightblue" points="400.318,-92.783 390.026,-95.2982 399.64,-99.7501 400.318,-92.783"/>
</g>
<!-- Node7 -->
<g id="node7" class="node"><title>Node7</title>
<g id="a_node7"><a xlink:href="../../db/d61/classengine_1_1actions_1_1_make_new_object_from_object_action.html#a01ffb165d6169f7b0a22733e2b6c61a9" target="_top" xlink:title="engine.actions.MakeNewObject\lFromObjectAction.execute">
<polygon fill="white" stroke="black" points="490,-49 490,-79 656,-79 656,-49 490,-49"/>
<text text-anchor="start" x="498" y="-67" font-family="Helvetica,sans-Serif" font-size="10.00">engine.actions.MakeNewObject</text>
<text text-anchor="middle" x="573" y="-56" font-family="Helvetica,sans-Serif" font-size="10.00">FromObjectAction.execute</text>
</a>
</g>
</g>
<!-- Node3&#45;&gt;Node7 -->
<g id="edge6" class="edge"><title>Node3&#45;&gt;Node7</title>
<path fill="none" stroke="midnightblue" d="M400.078,-80.055C428.917,-77.3619 461.062,-74.3599 489.683,-71.6872"/>
<polygon fill="midnightblue" stroke="midnightblue" points="399.657,-76.579 390.026,-80.9937 400.308,-83.5486 399.657,-76.579"/>
</g>
<!-- Node8 -->
<g id="node8" class="node"><title>Node8</title>
<g id="a_node8"><a xlink:href="../../da/d16/classengine_1_1actions_1_1_make_new_random_object_action.html#a82ccd5604bd05170e416e41b32020f00" target="_top" xlink:title="engine.actions.MakeNewRandom\lObjectAction.makeRandomObject">
<polygon fill="white" stroke="black" points="484,-0 484,-30 662,-30 662,-0 484,-0"/>
<text text-anchor="start" x="492" y="-18" font-family="Helvetica,sans-Serif" font-size="10.00">engine.actions.MakeNewRandom</text>
<text text-anchor="middle" x="573" y="-7" font-family="Helvetica,sans-Serif" font-size="10.00">ObjectAction.makeRandomObject</text>
</a>
</g>
</g>
<!-- Node3&#45;&gt;Node8 -->
<g id="edge7" class="edge"><title>Node3&#45;&gt;Node8</title>
<path fill="none" stroke="midnightblue" d="M399.626,-69.8861C405.925,-67.8027 412.113,-65.5119 418,-63 435.463,-55.5482 436.429,-47.1948 454,-40 463.496,-36.1117 473.68,-32.796 483.94,-29.9761"/>
<polygon fill="midnightblue" stroke="midnightblue" points="398.168,-66.6743 389.662,-72.9914 400.251,-73.3572 398.168,-66.6743"/>
</g>
<!-- Node5 -->
<g id="node5" class="node"><title>Node5</title>
<g id="a_node5"><a xlink:href="../../d0/df2/classauthoring_1_1eventhandlers_1_1_game_object_drag_to_level_handler.html#ad5002cd6b7781653104f1820a573f902" target="_top" xlink:title="authoring.eventhandlers.\lGameObjectDragToLevelHandler.handle">
<polygon fill="white" stroke="black" points="728,-147 728,-177 934,-177 934,-147 728,-147"/>
<text text-anchor="start" x="736" y="-165" font-family="Helvetica,sans-Serif" font-size="10.00">authoring.eventhandlers.</text>
<text text-anchor="middle" x="831" y="-154" font-family="Helvetica,sans-Serif" font-size="10.00">GameObjectDragToLevelHandler.handle</text>
</a>
</g>
</g>
<!-- Node4&#45;&gt;Node5 -->
<g id="edge4" class="edge"><title>Node4&#45;&gt;Node5</title>
<path fill="none" stroke="midnightblue" d="M701.734,-162C710.451,-162 719.171,-162 727.73,-162"/>
<polygon fill="midnightblue" stroke="midnightblue" points="701.511,-158.5 691.51,-162 701.51,-165.5 701.511,-158.5"/>
</g>
<!-- Node9 -->
<g id="node9" class="node"><title>Node9</title>
<g id="a_node9"><a xlink:href="../../da/d16/classengine_1_1actions_1_1_make_new_random_object_action.html#aa831c4b818ed75f812bf8ba0d453c942" target="_top" xlink:title="engine.actions.MakeNewRandom\lObjectAction.execute">
<polygon fill="white" stroke="black" points="743.5,-0 743.5,-30 918.5,-30 918.5,-0 743.5,-0"/>
<text text-anchor="start" x="751.5" y="-18" font-family="Helvetica,sans-Serif" font-size="10.00">engine.actions.MakeNewRandom</text>
<text text-anchor="middle" x="831" y="-7" font-family="Helvetica,sans-Serif" font-size="10.00">ObjectAction.execute</text>
</a>
</g>
</g>
<!-- Node8&#45;&gt;Node9 -->
<g id="edge8" class="edge"><title>Node8&#45;&gt;Node9</title>
<path fill="none" stroke="midnightblue" d="M672.394,-15C695.812,-15 720.628,-15 743.47,-15"/>
<polygon fill="midnightblue" stroke="midnightblue" points="672.101,-11.5001 662.101,-15 672.101,-18.5001 672.101,-11.5001"/>
</g>
</g>
</svg>
        <g id="navigator" transform="translate(0 0)" fill="#404254">
                <rect fill="#f2f5e9" fill-opacity="0.5" stroke="#606060" stroke-width=".5" x="0" y="0" width="60" height="60"/>
                <use id="zoomplus" xlink:href="#zoomPlus" x="17" y="9" onmousedown="handleZoom(evt,'in')"/>
                <use id="zoomminus" xlink:href="#zoomMin" x="42" y="9" onmousedown="handleZoom(evt,'out')"/>
                <use id="reset" xlink:href="#resetDef" x="30" y="36" onmousedown="handleReset()"/>
                <g id="arrowUp" xlink:href="#dirArrow" transform="translate(30 24)" onmousedown="handlePan(0,-1)">
                  <use xlink:href="#rim" fill="#404040">
                        <set attributeName="fill" to="#808080" begin="arrowUp.mouseover" end="arrowUp.mouseout"/>
                  </use>
                  <path fill="none" stroke="white" stroke-width="1.5" d="M0,-3.0v7 M-2.5,-0.5L0,-3.0L2.5,-0.5"/>
                </g>
                <g id="arrowRight" xlink:href="#dirArrow" transform="rotate(90) translate(36 -43)" onmousedown="handlePan(1,0)">
                  <use xlink:href="#rim" fill="#404040">
                        <set attributeName="fill" to="#808080" begin="arrowRight.mouseover" end="arrowRight.mouseout"/>
                  </use>
                  <path fill="none" stroke="white" stroke-width="1.5" d="M0,-3.0v7 M-2.5,-0.5L0,-3.0L2.5,-0.5"/>
                </g>
                <g id="arrowDown" xlink:href="#dirArrow" transform="rotate(180) translate(-30 -48)" onmousedown="handlePan(0,1)">
                  <use xlink:href="#rim" fill="#404040">
                        <set attributeName="fill" to="#808080" begin="arrowDown.mouseover" end="arrowDown.mouseout"/>
                  </use>
                  <path fill="none" stroke="white" stroke-width="1.5" d="M0,-3.0v7 M-2.5,-0.5L0,-3.0L2.5,-0.5"/>
                </g>
                <g id="arrowLeft" xlink:href="#dirArrow" transform="rotate(270) translate(-36 17)" onmousedown="handlePan(-1,0)">
                  <use xlink:href="#rim" fill="#404040">
                        <set attributeName="fill" to="#808080" begin="arrowLeft.mouseover" end="arrowLeft.mouseout"/>
                  </use>
                  <path fill="none" stroke="white" stroke-width="1.5" d="M0,-3.0v7 M-2.5,-0.5L0,-3.0L2.5,-0.5"/>
                </g>
        </g>
        <svg viewBox="0 0 15 15" width="100%" height="30px" preserveAspectRatio="xMaxYMin meet">
         <g id="arrow_out" transform="scale(0.3 0.3)">
          <a xlink:href="classdata_1_1_observable_a120384f9a41245899f05bb1a4c36ac4d_icgraph_org.svg" target="_base">
           <rect id="button" ry="5" rx="5" y="6" x="6" height="38" width="38"
                fill="#f2f5e9" fill-opacity="0.5" stroke="#606060" stroke-width="1.0"/>
           <path id="arrow"
             d="M 11.500037,31.436501 C 11.940474,20.09759 22.043105,11.32322 32.158766,21.979434 L 37.068811,17.246167 C 37.068811,17.246167 37.088388,32 37.088388,32 L 22.160133,31.978069 C 22.160133,31.978069 26.997745,27.140456 26.997745,27.140456 C 18.528582,18.264221 13.291696,25.230495 11.500037,31.436501 z"
             style="fill:#404040;"/>
          </a>
         </g>
        </svg>
</svg>
