<?xml version="1.0" encoding="UTF-8" standalone="no"?>
<!DOCTYPE svg PUBLIC "-//W3C//DTD SVG 1.1//EN"
 "http://www.w3.org/Graphics/SVG/1.1/DTD/svg11.dtd">
<!-- Generated by graphviz version 2.36.0 (20140111.2315)
 -->
<!-- Title: authoring.eventhandlers.AddObjectHandler.handle Pages: 1 -->
<svg width="1244pt" height="388pt"
 viewBox="0.00 0.00 1244.00 388.00" xmlns="http://www.w3.org/2000/svg" xmlns:xlink="http://www.w3.org/1999/xlink">
<g id="graph0" class="graph" transform="scale(1 1) rotate(0) translate(4 384)">
<title>authoring.eventhandlers.AddObjectHandler.handle</title>
<polygon fill="white" stroke="none" points="-4,4 -4,-384 1240,-384 1240,4 -4,4"/>
<!-- Node1 -->
<g id="node1" class="node"><title>Node1</title>
<polygon fill="#bfbfbf" stroke="black" points="0,-218 0,-248 138,-248 138,-218 0,-218"/>
<text text-anchor="start" x="8" y="-236" font-family="Helvetica,sans-Serif" font-size="10.00">authoring.eventhandlers.</text>
<text text-anchor="middle" x="69" y="-225" font-family="Helvetica,sans-Serif" font-size="10.00">AddObjectHandler.handle</text>
</g>
<!-- Node2 -->
<g id="node2" class="node"><title>Node2</title>
<g id="a_node2"><a xlink:href="../../da/d4c/classauthoring_1_1eventhandlers_1_1_add_object_handler.html#ad31ca6859bb6a874f9c1a1106fc9b03b" target="_top" xlink:title="authoring.eventhandlers.\lAddObjectHandler.createGameObject">
<polygon fill="white" stroke="black" points="174.5,-218 174.5,-248 371.5,-248 371.5,-218 174.5,-218"/>
<text text-anchor="start" x="182.5" y="-236" font-family="Helvetica,sans-Serif" font-size="10.00">authoring.eventhandlers.</text>
<text text-anchor="middle" x="273" y="-225" font-family="Helvetica,sans-Serif" font-size="10.00">AddObjectHandler.createGameObject</text>
</a>
</g>
</g>
<!-- Node1&#45;&gt;Node2 -->
<g id="edge1" class="edge"><title>Node1&#45;&gt;Node2</title>
<path fill="none" stroke="midnightblue" d="M138.106,-233C146.595,-233 155.431,-233 164.336,-233"/>
<polygon fill="midnightblue" stroke="midnightblue" points="164.406,-236.5 174.406,-233 164.406,-229.5 164.406,-236.5"/>
</g>
<!-- Node3 -->
<g id="node3" class="node"><title>Node3</title>
<g id="a_node3"><a xlink:href="../../d9/d9d/classengine_1_1game_object_1_1components_1_1_physics_body.html#a69d3fe175f40fdc40ca6e414cac727a5" target="_top" xlink:title="engine.gameObject.components.\lPhysicsBody.addScalar">
<polygon fill="white" stroke="black" points="416,-306 416,-336 592,-336 592,-306 416,-306"/>
<text text-anchor="start" x="424" y="-324" font-family="Helvetica,sans-Serif" font-size="10.00">engine.gameObject.components.</text>
<text text-anchor="middle" x="504" y="-313" font-family="Helvetica,sans-Serif" font-size="10.00">PhysicsBody.addScalar</text>
</a>
</g>
</g>
<!-- Node2&#45;&gt;Node3 -->
<g id="edge2" class="edge"><title>Node2&#45;&gt;Node3</title>
<path fill="none" stroke="midnightblue" d="M306.114,-248.006C333.025,-260.312 372.613,-277.794 408,-291 419.014,-295.11 430.876,-299.153 442.36,-302.874"/>
<polygon fill="midnightblue" stroke="midnightblue" points="441.299,-306.209 451.89,-305.918 443.429,-299.541 441.299,-306.209"/>
</g>
<!-- Node10 -->
<g id="node10" class="node"><title>Node10</title>
<g id="a_node10"><a xlink:href="../../d6/d32/classauthoring_1_1view_1_1wizards_1_1_wizard.html#a0d419b2943c99507fca42fd769c24b0e" target="_top" xlink:title="authoring.view.wizards.Wizard.getMap">
<polygon fill="white" stroke="black" points="636.5,-222.5 636.5,-241.5 833.5,-241.5 833.5,-222.5 636.5,-222.5"/>
<text text-anchor="middle" x="735" y="-229.5" font-family="Helvetica,sans-Serif" font-size="10.00">authoring.view.wizards.Wizard.getMap</text>
</a>
</g>
</g>
<!-- Node2&#45;&gt;Node10 -->
<g id="edge10" class="edge"><title>Node2&#45;&gt;Node10</title>
<path fill="none" stroke="midnightblue" d="M344.272,-248.001C364.722,-251.71 387.166,-255.149 408,-257 492.999,-264.552 515.029,-264.859 600,-257 627.96,-254.414 658.788,-248.855 683.818,-243.634"/>
<polygon fill="midnightblue" stroke="midnightblue" points="684.761,-247.012 693.812,-241.504 683.302,-240.165 684.761,-247.012"/>
</g>
<!-- Node11 -->
<g id="node11" class="node"><title>Node11</title>
<g id="a_node11"><a xlink:href="../../d0/d7f/classengine_1_1game_object_1_1_game_object.html#ab9b1029f6d5a8a7eb563d5e6e1dcf570" target="_top" xlink:title="engine.gameObject.GameObject.set\lPhysicsBody">
<polygon fill="white" stroke="black" points="408.5,-218 408.5,-248 599.5,-248 599.5,-218 408.5,-218"/>
<text text-anchor="start" x="416.5" y="-236" font-family="Helvetica,sans-Serif" font-size="10.00">engine.gameObject.GameObject.set</text>
<text text-anchor="middle" x="504" y="-225" font-family="Helvetica,sans-Serif" font-size="10.00">PhysicsBody</text>
</a>
</g>
</g>
<!-- Node2&#45;&gt;Node11 -->
<g id="edge11" class="edge"><title>Node2&#45;&gt;Node11</title>
<path fill="none" stroke="midnightblue" d="M371.781,-233C380.518,-233 389.389,-233 398.182,-233"/>
<polygon fill="midnightblue" stroke="midnightblue" points="398.457,-236.5 408.457,-233 398.457,-229.5 398.457,-236.5"/>
</g>
<!-- Node12 -->
<g id="node12" class="node"><title>Node12</title>
<g id="a_node12"><a xlink:href="../../d9/d9d/classengine_1_1game_object_1_1components_1_1_physics_body.html#a5f54f878a7fef4a77a58bbee39e8c9d3" target="_top" xlink:title="engine.gameObject.components.\lPhysicsBody.setVelocity">
<polygon fill="white" stroke="black" points="416,-169 416,-199 592,-199 592,-169 416,-169"/>
<text text-anchor="start" x="424" y="-187" font-family="Helvetica,sans-Serif" font-size="10.00">engine.gameObject.components.</text>
<text text-anchor="middle" x="504" y="-176" font-family="Helvetica,sans-Serif" font-size="10.00">PhysicsBody.setVelocity</text>
</a>
</g>
</g>
<!-- Node2&#45;&gt;Node12 -->
<g id="edge12" class="edge"><title>Node2&#45;&gt;Node12</title>
<path fill="none" stroke="midnightblue" d="M344.264,-217.965C369.102,-212.651 397.223,-206.633 422.822,-201.156"/>
<polygon fill="midnightblue" stroke="midnightblue" points="423.823,-204.521 432.869,-199.006 422.358,-197.676 423.823,-204.521"/>
</g>
<!-- Node13 -->
<g id="node13" class="node"><title>Node13</title>
<g id="a_node13"><a xlink:href="../../da/d4c/classauthoring_1_1eventhandlers_1_1_add_object_handler.html#abe73f943b230384279c9b2b89fbd8822" target="_top" xlink:title="authoring.eventhandlers.\lAddObjectHandler.updateName">
<polygon fill="white" stroke="black" points="419.5,-120 419.5,-150 588.5,-150 588.5,-120 419.5,-120"/>
<text text-anchor="start" x="427.5" y="-138" font-family="Helvetica,sans-Serif" font-size="10.00">authoring.eventhandlers.</text>
<text text-anchor="middle" x="504" y="-127" font-family="Helvetica,sans-Serif" font-size="10.00">AddObjectHandler.updateName</text>
</a>
</g>
</g>
<!-- Node2&#45;&gt;Node13 -->
<g id="edge13" class="edge"><title>Node2&#45;&gt;Node13</title>
<path fill="none" stroke="midnightblue" d="M296.826,-217.999C322.805,-201.505 366.967,-175.2 408,-159 413.423,-156.859 419.097,-154.861 424.857,-153.006"/>
<polygon fill="midnightblue" stroke="midnightblue" points="426.067,-156.296 434.603,-150.02 424.017,-149.603 426.067,-156.296"/>
</g>
<!-- Node4 -->
<g id="node4" class="node"><title>Node4</title>
<g id="a_node4"><a xlink:href="../../dc/db5/classengine_1_1physics_1_1_physics_component.html#aabe6f17a9d86eaf42e9df5769182dfa5" target="_top" xlink:title="engine.physics.PhysicsComponent.to\lString">
<polygon fill="white" stroke="black" points="638,-350 638,-380 832,-380 832,-350 638,-350"/>
<text text-anchor="start" x="646" y="-368" font-family="Helvetica,sans-Serif" font-size="10.00">engine.physics.PhysicsComponent.to</text>
<text text-anchor="middle" x="735" y="-357" font-family="Helvetica,sans-Serif" font-size="10.00">String</text>
</a>
</g>
</g>
<!-- Node3&#45;&gt;Node4 -->
<g id="edge3" class="edge"><title>Node3&#45;&gt;Node4</title>
<path fill="none" stroke="midnightblue" d="M583.168,-336.019C603.322,-339.892 625.152,-344.086 645.779,-348.049"/>
<polygon fill="midnightblue" stroke="midnightblue" points="645.315,-351.524 655.795,-349.974 646.635,-344.65 645.315,-351.524"/>
</g>
<!-- Node5 -->
<g id="node5" class="node"><title>Node5</title>
<g id="a_node5"><a xlink:href="../../d0/de5/classengine_1_1physics_1_1_scalar.html#afc6c4f29d09315850a328bb532d4bc35" target="_top" xlink:title="engine.physics.Scalar.iterator">
<polygon fill="white" stroke="black" points="656,-311.5 656,-330.5 814,-330.5 814,-311.5 656,-311.5"/>
<text text-anchor="middle" x="735" y="-318.5" font-family="Helvetica,sans-Serif" font-size="10.00">engine.physics.Scalar.iterator</text>
</a>
</g>
</g>
<!-- Node3&#45;&gt;Node5 -->
<g id="edge4" class="edge"><title>Node3&#45;&gt;Node5</title>
<path fill="none" stroke="midnightblue" d="M592.228,-321C609.662,-321 627.992,-321 645.469,-321"/>
<polygon fill="midnightblue" stroke="midnightblue" points="645.648,-324.5 655.648,-321 645.648,-317.5 645.648,-324.5"/>
</g>
<!-- Node6 -->
<g id="node6" class="node"><title>Node6</title>
<g id="a_node6"><a xlink:href="../../d9/d9d/classengine_1_1game_object_1_1components_1_1_physics_body.html#aec651bb9ed66c5c0db0bbbd0c2f445ae" target="_top" xlink:title="engine.gameObject.components.\lPhysicsBody.balanceForces">
<polygon fill="white" stroke="black" points="647,-262 647,-292 823,-292 823,-262 647,-262"/>
<text text-anchor="start" x="655" y="-280" font-family="Helvetica,sans-Serif" font-size="10.00">engine.gameObject.components.</text>
<text text-anchor="middle" x="735" y="-269" font-family="Helvetica,sans-Serif" font-size="10.00">PhysicsBody.balanceForces</text>
</a>
</g>
</g>
<!-- Node3&#45;&gt;Node6 -->
<g id="edge5" class="edge"><title>Node3&#45;&gt;Node6</title>
<path fill="none" stroke="midnightblue" d="M583.168,-305.981C603.322,-302.108 625.152,-297.914 645.779,-293.951"/>
<polygon fill="midnightblue" stroke="midnightblue" points="646.635,-297.35 655.795,-292.026 645.315,-290.476 646.635,-297.35"/>
</g>
<!-- Node7 -->
<g id="node7" class="node"><title>Node7</title>
<g id="a_node7"><a xlink:href="../../d5/d1f/classengine_1_1physics_1_1_vector.html#a0ad05574ba8b82b2f265ebfa5869d27b" target="_top" xlink:title="engine.physics.Vector.setX">
<polygon fill="white" stroke="black" points="880,-286.5 880,-305.5 1024,-305.5 1024,-286.5 880,-286.5"/>
<text text-anchor="middle" x="952" y="-293.5" font-family="Helvetica,sans-Serif" font-size="10.00">engine.physics.Vector.setX</text>
</a>
</g>
</g>
<!-- Node6&#45;&gt;Node7 -->
<g id="edge6" class="edge"><title>Node6&#45;&gt;Node7</title>
<path fill="none" stroke="midnightblue" d="M823.139,-284.701C838.46,-286.055 854.354,-287.459 869.514,-288.799"/>
<polygon fill="midnightblue" stroke="midnightblue" points="869.606,-292.321 879.876,-289.715 870.223,-285.348 869.606,-292.321"/>
</g>
<!-- Node9 -->
<g id="node9" class="node"><title>Node9</title>
<g id="a_node9"><a xlink:href="../../d5/d1f/classengine_1_1physics_1_1_vector.html#a4e646d4b9bf5a3904817560725776cec" target="_top" xlink:title="engine.physics.Vector.setY">
<polygon fill="white" stroke="black" points="880.5,-248.5 880.5,-267.5 1023.5,-267.5 1023.5,-248.5 880.5,-248.5"/>
<text text-anchor="middle" x="952" y="-255.5" font-family="Helvetica,sans-Serif" font-size="10.00">engine.physics.Vector.setY</text>
</a>
</g>
</g>
<!-- Node6&#45;&gt;Node9 -->
<g id="edge8" class="edge"><title>Node6&#45;&gt;Node9</title>
<path fill="none" stroke="midnightblue" d="M823.139,-269.299C838.703,-267.924 854.858,-266.496 870.234,-265.137"/>
<polygon fill="midnightblue" stroke="midnightblue" points="870.559,-268.622 880.212,-264.256 869.942,-261.65 870.559,-268.622"/>
</g>
<!-- Node8 -->
<g id="node8" class="node"><title>Node8</title>
<g id="a_node8"><a xlink:href="../../d5/d1f/classengine_1_1physics_1_1_vector.html#a33c635f15f2f2e16f9b57542c6c3182f" target="_top" xlink:title="engine.physics.Vector.calculate\lMagnitude">
<polygon fill="white" stroke="black" points="1070,-262 1070,-292 1236,-292 1236,-262 1070,-262"/>
<text text-anchor="start" x="1078" y="-280" font-family="Helvetica,sans-Serif" font-size="10.00">engine.physics.Vector.calculate</text>
<text text-anchor="middle" x="1153" y="-269" font-family="Helvetica,sans-Serif" font-size="10.00">Magnitude</text>
</a>
</g>
</g>
<!-- Node7&#45;&gt;Node8 -->
<g id="edge7" class="edge"><title>Node7&#45;&gt;Node8</title>
<path fill="none" stroke="midnightblue" d="M1024,-289.221C1035.6,-288.114 1047.76,-286.952 1059.78,-285.805"/>
<polygon fill="midnightblue" stroke="midnightblue" points="1060.21,-289.28 1069.83,-284.845 1059.54,-282.312 1060.21,-289.28"/>
</g>
<!-- Node9&#45;&gt;Node8 -->
<g id="edge9" class="edge"><title>Node9&#45;&gt;Node8</title>
<path fill="none" stroke="midnightblue" d="M1023.72,-264.752C1035.42,-265.869 1047.69,-267.041 1059.82,-268.199"/>
<polygon fill="midnightblue" stroke="midnightblue" points="1059.67,-271.701 1069.96,-269.167 1060.34,-264.732 1059.67,-271.701"/>
</g>
<!-- Node13&#45;&gt;Node10 -->
<g id="edge14" class="edge"><title>Node13&#45;&gt;Node10</title>
<path fill="none" stroke="midnightblue" d="M583.708,-150.028C589.445,-152.567 594.952,-155.533 600,-159 622.871,-174.707 612.922,-194.599 636,-210 641.235,-213.494 646.942,-216.44 652.884,-218.923"/>
<polygon fill="midnightblue" stroke="midnightblue" points="651.787,-222.249 662.38,-222.456 654.228,-215.688 651.787,-222.249"/>
</g>
<!-- Node14 -->
<g id="node14" class="node"><title>Node14</title>
<g id="a_node14"><a xlink:href="../../d4/d64/classauthoring_1_1view_1_1wizards_1_1_name_wizard.html#ab58a390fee006f8b0c2ff6d8216c8981" target="_top" xlink:title="authoring.view.wizards.Name\lWizard.isDuplicated">
<polygon fill="white" stroke="black" points="657.5,-171 657.5,-201 812.5,-201 812.5,-171 657.5,-171"/>
<text text-anchor="start" x="665.5" y="-189" font-family="Helvetica,sans-Serif" font-size="10.00">authoring.view.wizards.Name</text>
<text text-anchor="middle" x="735" y="-178" font-family="Helvetica,sans-Serif" font-size="10.00">Wizard.isDuplicated</text>
</a>
</g>
</g>
<!-- Node13&#45;&gt;Node14 -->
<g id="edge15" class="edge"><title>Node13&#45;&gt;Node14</title>
<path fill="none" stroke="midnightblue" d="M572.469,-150.026C598.907,-155.914 629.394,-162.703 656.711,-168.787"/>
<polygon fill="midnightblue" stroke="midnightblue" points="656.096,-172.236 666.618,-170.994 657.618,-165.403 656.096,-172.236"/>
</g>
<!-- Node16 -->
<g id="node16" class="node"><title>Node16</title>
<g id="a_node16"><a xlink:href="../../d0/d7f/classengine_1_1game_object_1_1_game_object.html#a9a4690b212ecad4060ce8f9abbcedba5" target="_top" xlink:title="engine.gameObject.GameObject.set\lIdentifier">
<polygon fill="white" stroke="black" points="639.5,-122 639.5,-152 830.5,-152 830.5,-122 639.5,-122"/>
<text text-anchor="start" x="647.5" y="-140" font-family="Helvetica,sans-Serif" font-size="10.00">engine.gameObject.GameObject.set</text>
<text text-anchor="middle" x="735" y="-129" font-family="Helvetica,sans-Serif" font-size="10.00">Identifier</text>
</a>
</g>
</g>
<!-- Node13&#45;&gt;Node16 -->
<g id="edge17" class="edge"><title>Node13&#45;&gt;Node16</title>
<path fill="none" stroke="midnightblue" d="M588.646,-135.731C601.78,-135.845 615.5,-135.965 629.04,-136.083"/>
<polygon fill="midnightblue" stroke="midnightblue" points="629.317,-139.586 639.347,-136.173 629.378,-132.586 629.317,-139.586"/>
</g>
<!-- Node17 -->
<g id="node17" class="node"><title>Node17</title>
<g id="a_node17"><a xlink:href="../../d4/d3b/classauthoring_1_1model_1_1collections_1_1_general_collection.html#a1bdc1047736bbb23259d6a7fe4c6deeb" target="_top" xlink:title="authoring.model.collections.\lGeneralCollection.add">
<polygon fill="white" stroke="black" points="659,-73 659,-103 811,-103 811,-73 659,-73"/>
<text text-anchor="start" x="667" y="-91" font-family="Helvetica,sans-Serif" font-size="10.00">authoring.model.collections.</text>
<text text-anchor="middle" x="735" y="-80" font-family="Helvetica,sans-Serif" font-size="10.00">GeneralCollection.add</text>
</a>
</g>
</g>
<!-- Node13&#45;&gt;Node17 -->
<g id="edge18" class="edge"><title>Node13&#45;&gt;Node17</title>
<path fill="none" stroke="midnightblue" d="M578.087,-120C601.222,-115.251 626.965,-109.968 650.758,-105.085"/>
<polygon fill="midnightblue" stroke="midnightblue" points="651.73,-108.458 660.822,-103.019 650.323,-101.601 651.73,-108.458"/>
</g>
<!-- Node18 -->
<g id="node18" class="node"><title>Node18</title>
<g id="a_node18"><a xlink:href="../../de/d50/classerrors_and_exceptions_1_1_error_pop_up.html#a879c9fa857c162edfab75ecf1558c944" target="_top" xlink:title="errorsAndExceptions.Error\lPopUp.display">
<polygon fill="white" stroke="black" points="664,-24 664,-54 806,-54 806,-24 664,-24"/>
<text text-anchor="start" x="672" y="-42" font-family="Helvetica,sans-Serif" font-size="10.00">errorsAndExceptions.Error</text>
<text text-anchor="middle" x="735" y="-31" font-family="Helvetica,sans-Serif" font-size="10.00">PopUp.display</text>
</a>
</g>
</g>
<!-- Node13&#45;&gt;Node18 -->
<g id="edge19" class="edge"><title>Node13&#45;&gt;Node18</title>
<path fill="none" stroke="midnightblue" d="M528.23,-119.771C553.732,-103.65 596.34,-78.4447 636,-63 641.838,-60.7266 647.957,-58.6199 654.166,-56.6778"/>
<polygon fill="midnightblue" stroke="midnightblue" points="655.381,-59.9679 663.968,-53.7611 653.385,-53.2587 655.381,-59.9679"/>
</g>
<!-- Node15 -->
<g id="node15" class="node"><title>Node15</title>
<g id="a_node15"><a xlink:href="../../d4/d64/classauthoring_1_1view_1_1wizards_1_1_name_wizard.html#a4ec0ad0f4ca62dd4cea67c3158ee9a56" target="_top" xlink:title="authoring.view.wizards.Name\lWizard.getIdentifierComponent">
<polygon fill="white" stroke="black" points="870,-171 870,-201 1034,-201 1034,-171 870,-171"/>
<text text-anchor="start" x="878" y="-189" font-family="Helvetica,sans-Serif" font-size="10.00">authoring.view.wizards.Name</text>
<text text-anchor="middle" x="952" y="-178" font-family="Helvetica,sans-Serif" font-size="10.00">Wizard.getIdentifierComponent</text>
</a>
</g>
</g>
<!-- Node14&#45;&gt;Node15 -->
<g id="edge16" class="edge"><title>Node14&#45;&gt;Node15</title>
<path fill="none" stroke="midnightblue" d="M812.709,-186C827.944,-186 844.08,-186 859.744,-186"/>
<polygon fill="midnightblue" stroke="midnightblue" points="859.956,-189.5 869.956,-186 859.956,-182.5 859.956,-189.5"/>
</g>
<!-- Node19 -->
<g id="node19" class="node"><title>Node19</title>
<g id="a_node19"><a xlink:href="../../de/d50/classerrors_and_exceptions_1_1_error_pop_up.html#adecc4a2ab81e607673649e10e6d7da52" target="_top" xlink:title="errorsAndExceptions.Error\lPopUp.createButton">
<polygon fill="white" stroke="black" points="881,-49 881,-79 1023,-79 1023,-49 881,-49"/>
<text text-anchor="start" x="889" y="-67" font-family="Helvetica,sans-Serif" font-size="10.00">errorsAndExceptions.Error</text>
<text text-anchor="middle" x="952" y="-56" font-family="Helvetica,sans-Serif" font-size="10.00">PopUp.createButton</text>
</a>
</g>
</g>
<!-- Node18&#45;&gt;Node19 -->
<g id="edge20" class="edge"><title>Node18&#45;&gt;Node19</title>
<path fill="none" stroke="midnightblue" d="M806.102,-47.1513C826.836,-49.5623 849.691,-52.2199 871,-54.6977"/>
<polygon fill="midnightblue" stroke="midnightblue" points="870.656,-58.1812 880.994,-55.8597 871.465,-51.2281 870.656,-58.1812"/>
</g>
<!-- Node20 -->
<g id="node20" class="node"><title>Node20</title>
<g id="a_node20"><a xlink:href="../../de/d50/classerrors_and_exceptions_1_1_error_pop_up.html#a98549e423869b27d7ee3c87270786f60" target="_top" xlink:title="errorsAndExceptions.Error\lPopUp.chooseStageWidth">
<polygon fill="white" stroke="black" points="881,-0 881,-30 1023,-30 1023,-0 881,-0"/>
<text text-anchor="start" x="889" y="-18" font-family="Helvetica,sans-Serif" font-size="10.00">errorsAndExceptions.Error</text>
<text text-anchor="middle" x="952" y="-7" font-family="Helvetica,sans-Serif" font-size="10.00">PopUp.chooseStageWidth</text>
</a>
</g>
</g>
<!-- Node18&#45;&gt;Node20 -->
<g id="edge21" class="edge"><title>Node18&#45;&gt;Node20</title>
<path fill="none" stroke="midnightblue" d="M806.102,-31.1747C826.836,-28.8602 849.691,-26.3089 871,-23.9302"/>
<polygon fill="midnightblue" stroke="midnightblue" points="871.444,-27.4025 880.994,-22.8147 870.667,-20.4457 871.444,-27.4025"/>
</g>
</g>
</svg>
