<?xml version="1.0" encoding="UTF-8" standalone="no"?>
<!DOCTYPE svg PUBLIC "-//W3C//DTD SVG 1.1//EN"
 "http://www.w3.org/Graphics/SVG/1.1/DTD/svg11.dtd">
<!-- Generated by graphviz version 2.36.0 (20140111.2315)
 -->
<!-- Title: authoring.view.levelview.SingleLevelView.getPaneWidth Pages: 1 -->
<svg width="398pt" height="87pt"
 viewBox="0.00 0.00 398.00 87.00" xmlns="http://www.w3.org/2000/svg" xmlns:xlink="http://www.w3.org/1999/xlink">
<g id="graph0" class="graph" transform="scale(1 1) rotate(0) translate(4 83)">
<title>authoring.view.levelview.SingleLevelView.getPaneWidth</title>
<polygon fill="white" stroke="none" points="-4,4 -4,-83 394,-83 394,4 -4,4"/>
<!-- Node1 -->
<g id="node1" class="node"><title>Node1</title>
<polygon fill="#bfbfbf" stroke="black" points="0,-24 0,-54 160,-54 160,-24 0,-24"/>
<text text-anchor="start" x="8" y="-42" font-family="Helvetica,sans-Serif" font-size="10.00">authoring.view.levelview.</text>
<text text-anchor="middle" x="80" y="-31" font-family="Helvetica,sans-Serif" font-size="10.00">SingleLevelView.getPaneWidth</text>
</g>
<!-- Node2 -->
<g id="node2" class="node"><title>Node2</title>
<g id="a_node2"><a xlink:href="../../d0/d8a/classauthoring_1_1eventhandlers_1_1_game_obj_graphic_drag_handler.html#ab2dc9f9a31c07b645b449b5f5ce4325f" target="_top" xlink:title="authoring.eventhandlers.\lGameObjGraphicDragHandler.handle">
<polygon fill="white" stroke="black" points="196,-49 196,-79 390,-79 390,-49 196,-49"/>
<text text-anchor="start" x="204" y="-67" font-family="Helvetica,sans-Serif" font-size="10.00">authoring.eventhandlers.</text>
<text text-anchor="middle" x="293" y="-56" font-family="Helvetica,sans-Serif" font-size="10.00">GameObjGraphicDragHandler.handle</text>
</a>
</g>
</g>
<!-- Node1&#45;&gt;Node2 -->
<g id="edge1" class="edge"><title>Node1&#45;&gt;Node2</title>
<path fill="none" stroke="midnightblue" d="M170.307,-49.5814C178.687,-50.5743 187.207,-51.5837 195.648,-52.5838"/>
<polygon fill="midnightblue" stroke="midnightblue" points="170.511,-46.0812 160.169,-48.3802 169.688,-53.0326 170.511,-46.0812"/>
</g>
<!-- Node3 -->
<g id="node3" class="node"><title>Node3</title>
<g id="a_node3"><a xlink:href="../../d1/da4/classauthoring_1_1eventhandlers_1_1_game_object_drag_handler.html#a122ab06aa51a9961e85f5a457142f60c" target="_top" xlink:title="authoring.eventhandlers.\lGameObjectDragHandler.handle">
<polygon fill="white" stroke="black" points="207,-0 207,-30 379,-30 379,-0 207,-0"/>
<text text-anchor="start" x="215" y="-18" font-family="Helvetica,sans-Serif" font-size="10.00">authoring.eventhandlers.</text>
<text text-anchor="middle" x="293" y="-7" font-family="Helvetica,sans-Serif" font-size="10.00">GameObjectDragHandler.handle</text>
</a>
</g>
</g>
<!-- Node1&#45;&gt;Node3 -->
<g id="edge2" class="edge"><title>Node1&#45;&gt;Node3</title>
<path fill="none" stroke="midnightblue" d="M170.243,-28.8492C182.334,-27.4739 194.717,-26.0653 206.737,-24.6982"/>
<polygon fill="midnightblue" stroke="midnightblue" points="169.709,-25.3872 160.169,-29.995 170.5,-32.3423 169.709,-25.3872"/>
</g>
</g>
</svg>
