<?xml version="1.0" encoding="UTF-8" standalone="no"?>
<!DOCTYPE svg PUBLIC "-//W3C//DTD SVG 1.1//EN"
 "http://www.w3.org/Graphics/SVG/1.1/DTD/svg11.dtd">
<!-- Generated by graphviz version 2.36.0 (20140111.2315)
 -->
<!-- Title: authoring.view.levelview.SingleLevelView.moveGameObjectToLevel Pages: 1 -->
<svg width="832pt" height="113pt"
 viewBox="0.00 0.00 832.00 113.00" xmlns="http://www.w3.org/2000/svg" xmlns:xlink="http://www.w3.org/1999/xlink">
<g id="graph0" class="graph" transform="scale(1 1) rotate(0) translate(4 109)">
<title>authoring.view.levelview.SingleLevelView.moveGameObjectToLevel</title>
<polygon fill="white" stroke="none" points="-4,4 -4,-109 828,-109 828,4 -4,4"/>
<!-- Node1 -->
<g id="node1" class="node"><title>Node1</title>
<polygon fill="#bfbfbf" stroke="black" points="0,-19.5 0,-60.5 182,-60.5 182,-19.5 0,-19.5"/>
<text text-anchor="start" x="8" y="-48.5" font-family="Helvetica,sans-Serif" font-size="10.00">authoring.view.levelview.</text>
<text text-anchor="start" x="8" y="-37.5" font-family="Helvetica,sans-Serif" font-size="10.00">SingleLevelView.moveGameObject</text>
<text text-anchor="middle" x="91" y="-26.5" font-family="Helvetica,sans-Serif" font-size="10.00">ToLevel</text>
</g>
<!-- Node2 -->
<g id="node2" class="node"><title>Node2</title>
<g id="a_node2"><a xlink:href="../../d1/d00/classauthoring_1_1view_1_1levelview_1_1_single_level_view.html#a60f24fcbffcbc0a7dca8b82adfcc3211" target="_top" xlink:title="authoring.view.levelview.\lSingleLevelView.addGameObjectToView">
<polygon fill="white" stroke="black" points="218,-50 218,-80 422,-80 422,-50 218,-50"/>
<text text-anchor="start" x="226" y="-68" font-family="Helvetica,sans-Serif" font-size="10.00">authoring.view.levelview.</text>
<text text-anchor="middle" x="320" y="-57" font-family="Helvetica,sans-Serif" font-size="10.00">SingleLevelView.addGameObjectToView</text>
</a>
</g>
</g>
<!-- Node1&#45;&gt;Node2 -->
<g id="edge1" class="edge"><title>Node1&#45;&gt;Node2</title>
<path fill="none" stroke="midnightblue" d="M192.036,-51.0172C200.6,-51.9603 209.267,-52.9149 217.839,-53.859"/>
<polygon fill="midnightblue" stroke="midnightblue" points="192.366,-47.5324 182.042,-49.9166 191.599,-54.4903 192.366,-47.5324"/>
</g>
<!-- Node6 -->
<g id="node6" class="node"><title>Node6</title>
<g id="a_node6"><a xlink:href="../../d0/d8a/classauthoring_1_1eventhandlers_1_1_game_obj_graphic_drag_handler.html#ab2dc9f9a31c07b645b449b5f5ce4325f" target="_top" xlink:title="authoring.eventhandlers.\lGameObjGraphicDragHandler.handle">
<polygon fill="white" stroke="black" points="223,-1 223,-31 417,-31 417,-1 223,-1"/>
<text text-anchor="start" x="231" y="-19" font-family="Helvetica,sans-Serif" font-size="10.00">authoring.eventhandlers.</text>
<text text-anchor="middle" x="320" y="-8" font-family="Helvetica,sans-Serif" font-size="10.00">GameObjGraphicDragHandler.handle</text>
</a>
</g>
</g>
<!-- Node1&#45;&gt;Node6 -->
<g id="edge5" class="edge"><title>Node1&#45;&gt;Node6</title>
<path fill="none" stroke="midnightblue" d="M192.142,-29.4123C202.302,-28.3382 212.606,-27.2487 222.724,-26.179"/>
<polygon fill="midnightblue" stroke="midnightblue" points="191.619,-25.948 182.042,-30.4801 192.355,-32.9092 191.619,-25.948"/>
</g>
<!-- Node3 -->
<g id="node3" class="node"><title>Node3</title>
<g id="a_node3"><a xlink:href="../../d1/d00/classauthoring_1_1view_1_1levelview_1_1_single_level_view.html#a7c75d7c9307941b2da3fb690eebe2cd1" target="_top" xlink:title="authoring.view.levelview.\lSingleLevelView.recreateLevel">
<polygon fill="white" stroke="black" points="458,-50 458,-80 618,-80 618,-50 458,-50"/>
<text text-anchor="start" x="466" y="-68" font-family="Helvetica,sans-Serif" font-size="10.00">authoring.view.levelview.</text>
<text text-anchor="middle" x="538" y="-57" font-family="Helvetica,sans-Serif" font-size="10.00">SingleLevelView.recreateLevel</text>
</a>
</g>
</g>
<!-- Node2&#45;&gt;Node3 -->
<g id="edge2" class="edge"><title>Node2&#45;&gt;Node3</title>
<path fill="none" stroke="midnightblue" d="M432.155,-65C440.77,-65 449.358,-65 457.699,-65"/>
<polygon fill="midnightblue" stroke="midnightblue" points="432.043,-61.5001 422.043,-65 432.043,-68.5001 432.043,-61.5001"/>
</g>
<!-- Node4 -->
<g id="node4" class="node"><title>Node4</title>
<g id="a_node4"><a xlink:href="../../d1/d00/classauthoring_1_1view_1_1levelview_1_1_single_level_view.html#a532ba7c58ed4434fb218478ced7c9528" target="_top" xlink:title="authoring.view.levelview.\lSingleLevelView.SingleLevelView">
<polygon fill="white" stroke="black" points="654,-75 654,-105 824,-105 824,-75 654,-75"/>
<text text-anchor="start" x="662" y="-93" font-family="Helvetica,sans-Serif" font-size="10.00">authoring.view.levelview.</text>
<text text-anchor="middle" x="739" y="-82" font-family="Helvetica,sans-Serif" font-size="10.00">SingleLevelView.SingleLevelView</text>
</a>
</g>
</g>
<!-- Node3&#45;&gt;Node4 -->
<g id="edge3" class="edge"><title>Node3&#45;&gt;Node4</title>
<path fill="none" stroke="midnightblue" d="M628.176,-76.203C636.709,-77.275 645.344,-78.3598 653.827,-79.4255"/>
<polygon fill="midnightblue" stroke="midnightblue" points="628.58,-72.7264 618.222,-74.9525 627.708,-79.6718 628.58,-72.7264"/>
</g>
<!-- Node5 -->
<g id="node5" class="node"><title>Node5</title>
<g id="a_node5"><a xlink:href="../../d1/d00/classauthoring_1_1view_1_1levelview_1_1_single_level_view.html#ae0049506bc1805b24296e3e24e51519c" target="_top" xlink:title="authoring.view.levelview.\lSingleLevelView.update">
<polygon fill="white" stroke="black" points="673,-26 673,-56 805,-56 805,-26 673,-26"/>
<text text-anchor="start" x="681" y="-44" font-family="Helvetica,sans-Serif" font-size="10.00">authoring.view.levelview.</text>
<text text-anchor="middle" x="739" y="-33" font-family="Helvetica,sans-Serif" font-size="10.00">SingleLevelView.update</text>
</a>
</g>
</g>
<!-- Node3&#45;&gt;Node5 -->
<g id="edge4" class="edge"><title>Node3&#45;&gt;Node5</title>
<path fill="none" stroke="midnightblue" d="M628.485,-54.2078C643.405,-52.4085 658.628,-50.5726 672.794,-48.8641"/>
<polygon fill="midnightblue" stroke="midnightblue" points="627.731,-50.7733 618.222,-55.4456 628.569,-57.723 627.731,-50.7733"/>
</g>
</g>
</svg>
