<?xml version="1.0" encoding="UTF-8" standalone="no"?>
<!DOCTYPE svg PUBLIC "-//W3C//DTD SVG 1.1//EN"
 "http://www.w3.org/Graphics/SVG/1.1/DTD/svg11.dtd">
<!-- Generated by graphviz version 2.36.0 (20140111.2315)
 -->
<!-- Title: authoring.view.levelview.SingleLevelView.addGameObjectToView Pages: 1 -->
<svg width="440pt" height="244pt"
 viewBox="0.00 0.00 440.00 244.00" xmlns="http://www.w3.org/2000/svg" xmlns:xlink="http://www.w3.org/1999/xlink">
<g id="graph0" class="graph" transform="scale(1 1) rotate(0) translate(4 240)">
<title>authoring.view.levelview.SingleLevelView.addGameObjectToView</title>
<polygon fill="white" stroke="none" points="-4,4 -4,-240 436,-240 436,4 -4,4"/>
<!-- Node1 -->
<g id="node1" class="node"><title>Node1</title>
<polygon fill="#bfbfbf" stroke="black" points="0,-108 0,-138 204,-138 204,-108 0,-108"/>
<text text-anchor="start" x="8" y="-126" font-family="Helvetica,sans-Serif" font-size="10.00">authoring.view.levelview.</text>
<text text-anchor="middle" x="102" y="-115" font-family="Helvetica,sans-Serif" font-size="10.00">SingleLevelView.addGameObjectToView</text>
</g>
<!-- Node2 -->
<g id="node2" class="node"><title>Node2</title>
<g id="a_node2"><a xlink:href="../../d0/d7f/classengine_1_1game_object_1_1_game_object.html#aaeb5730a3b51fe9cb3d817ea7172cfc2" target="_top" xlink:title="engine.gameObject.GameObject.get\lHeight">
<polygon fill="white" stroke="black" points="240,-206 240,-236 432,-236 432,-206 240,-206"/>
<text text-anchor="start" x="248" y="-224" font-family="Helvetica,sans-Serif" font-size="10.00">engine.gameObject.GameObject.get</text>
<text text-anchor="middle" x="336" y="-213" font-family="Helvetica,sans-Serif" font-size="10.00">Height</text>
</a>
</g>
</g>
<!-- Node1&#45;&gt;Node2 -->
<g id="edge1" class="edge"><title>Node1&#45;&gt;Node2</title>
<path fill="none" stroke="midnightblue" d="M127.419,-138.26C154.197,-154.451 198.848,-179.875 240,-196 246.348,-198.487 253.03,-200.808 259.787,-202.952"/>
<polygon fill="midnightblue" stroke="midnightblue" points="259.124,-206.409 269.71,-205.967 261.159,-199.711 259.124,-206.409"/>
</g>
<!-- Node3 -->
<g id="node3" class="node"><title>Node3</title>
<g id="a_node3"><a xlink:href="../../d0/d7f/classengine_1_1game_object_1_1_game_object.html#acdb2cff95ddb4ab047d24c7edd046817" target="_top" xlink:title="engine.gameObject.GameObject.get\lRotation">
<polygon fill="white" stroke="black" points="240,-157 240,-187 432,-187 432,-157 240,-157"/>
<text text-anchor="start" x="248" y="-175" font-family="Helvetica,sans-Serif" font-size="10.00">engine.gameObject.GameObject.get</text>
<text text-anchor="middle" x="336" y="-164" font-family="Helvetica,sans-Serif" font-size="10.00">Rotation</text>
</a>
</g>
</g>
<!-- Node1&#45;&gt;Node3 -->
<g id="edge2" class="edge"><title>Node1&#45;&gt;Node3</title>
<path fill="none" stroke="midnightblue" d="M174.184,-138.035C199.46,-143.373 228.09,-149.42 254.115,-154.917"/>
<polygon fill="midnightblue" stroke="midnightblue" points="253.443,-158.352 263.95,-156.994 254.889,-151.503 253.443,-158.352"/>
</g>
<!-- Node4 -->
<g id="node4" class="node"><title>Node4</title>
<g id="a_node4"><a xlink:href="../../d0/d7f/classengine_1_1game_object_1_1_game_object.html#a31aa2c854220621b49fc5575b50b9342" target="_top" xlink:title="engine.gameObject.GameObject.get\lWidth">
<polygon fill="white" stroke="black" points="240,-108 240,-138 432,-138 432,-108 240,-108"/>
<text text-anchor="start" x="248" y="-126" font-family="Helvetica,sans-Serif" font-size="10.00">engine.gameObject.GameObject.get</text>
<text text-anchor="middle" x="336" y="-115" font-family="Helvetica,sans-Serif" font-size="10.00">Width</text>
</a>
</g>
</g>
<!-- Node1&#45;&gt;Node4 -->
<g id="edge3" class="edge"><title>Node1&#45;&gt;Node4</title>
<path fill="none" stroke="midnightblue" d="M204.084,-123C212.504,-123 221.032,-123 229.484,-123"/>
<polygon fill="midnightblue" stroke="midnightblue" points="229.745,-126.5 239.745,-123 229.745,-119.5 229.745,-126.5"/>
</g>
<!-- Node5 -->
<g id="node5" class="node"><title>Node5</title>
<g id="a_node5"><a xlink:href="../../d1/d00/classauthoring_1_1view_1_1levelview_1_1_single_level_view.html#aa99c32328153118600c181bde6bc45a7" target="_top" xlink:title="authoring.view.levelview.\lSingleLevelView.moveGameObject\lToLevel">
<polygon fill="white" stroke="black" points="245,-48.5 245,-89.5 427,-89.5 427,-48.5 245,-48.5"/>
<text text-anchor="start" x="253" y="-77.5" font-family="Helvetica,sans-Serif" font-size="10.00">authoring.view.levelview.</text>
<text text-anchor="start" x="253" y="-66.5" font-family="Helvetica,sans-Serif" font-size="10.00">SingleLevelView.moveGameObject</text>
<text text-anchor="middle" x="336" y="-55.5" font-family="Helvetica,sans-Serif" font-size="10.00">ToLevel</text>
</a>
</g>
</g>
<!-- Node1&#45;&gt;Node5 -->
<g id="edge4" class="edge"><title>Node1&#45;&gt;Node5</title>
<path fill="none" stroke="midnightblue" d="M167.625,-107.958C189.094,-102.961 213.505,-97.279 236.918,-91.8294"/>
<polygon fill="midnightblue" stroke="midnightblue" points="237.934,-95.1867 246.88,-89.5107 236.347,-88.3689 237.934,-95.1867"/>
</g>
<!-- Node6 -->
<g id="node6" class="node"><title>Node6</title>
<g id="a_node6"><a xlink:href="../../d5/d47/classauthoring_1_1view_1_1icons_1_1_image_based_icon.html#ae10b82e7e8cb6cedcb26afa55a25920d" target="_top" xlink:title="authoring.view.icons.Image\lBasedIcon.setDimensions">
<polygon fill="white" stroke="black" points="263,-0 263,-30 409,-30 409,-0 263,-0"/>
<text text-anchor="start" x="271" y="-18" font-family="Helvetica,sans-Serif" font-size="10.00">authoring.view.icons.Image</text>
<text text-anchor="middle" x="336" y="-7" font-family="Helvetica,sans-Serif" font-size="10.00">BasedIcon.setDimensions</text>
</a>
</g>
</g>
<!-- Node1&#45;&gt;Node6 -->
<g id="edge5" class="edge"><title>Node1&#45;&gt;Node6</title>
<path fill="none" stroke="midnightblue" d="M123.287,-107.821C149.135,-89.1458 195.777,-57.6314 240,-39 244.997,-36.8947 250.222,-34.9417 255.542,-33.1355"/>
<polygon fill="midnightblue" stroke="midnightblue" points="256.736,-36.4283 265.189,-30.042 254.598,-29.7626 256.736,-36.4283"/>
</g>
</g>
</svg>
