<?xml version="1.0" encoding="UTF-8" standalone="no"?>
<!DOCTYPE svg PUBLIC "-//W3C//DTD SVG 1.1//EN"
 "http://www.w3.org/Graphics/SVG/1.1/DTD/svg11.dtd">
<!-- Generated by graphviz version 2.36.0 (20140111.2315)
 -->
<!-- Title: authoring.view.levelview.SingleLevelView.moveGameObjectToLevel Pages: 1 -->
<!--zoomable 113 -->
<svg id="main" version="1.1" xmlns="http://www.w3.org/2000/svg" xmlns:xlink="http://www.w3.org/1999/xlink" xml:space="preserve" onload="init(evt)">
<style type="text/css"><![CDATA[
.edge:hover path { stroke: red; }
.edge:hover polygon { stroke: red; fill: red; }
]]></style>
<script type="text/javascript"><![CDATA[
var edges = document.getElementsByTagName('g');
if (edges && edges.length) {
  for (var i=0;i<edges.length;i++) {
    if (edges[i].id.substr(0,4)=='edge') {
      edges[i].setAttribute('class','edge');
    }
  }
}
]]></script>
        <defs>
                <circle id="rim" cx="0" cy="0" r="7"/>
                <circle id="rim2" cx="0" cy="0" r="3.5"/>
                <g id="zoomPlus">
                        <use xlink:href="#rim" fill="#404040">
                                <set attributeName="fill" to="#808080" begin="zoomplus.mouseover" end="zoomplus.mouseout"/>
                        </use>
                        <path d="M-4,0h8M0,-4v8" fill="none" stroke="white" stroke-width="1.5" pointer-events="none"/>
                </g>
                <g id="zoomMin">
                        <use xlink:href="#rim" fill="#404040">
                                <set attributeName="fill" to="#808080" begin="zoomminus.mouseover" end="zoomminus.mouseout"/>
                        </use>
                        <path d="M-4,0h8" fill="none" stroke="white" stroke-width="1.5" pointer-events="none"/>
                </g>
                <g id="dirArrow">
                        <path fill="none" stroke="white" stroke-width="1.5" d="M0,-3.0v7 M-2.5,-0.5L0,-3.0L2.5,-0.5"/>
                </g>
               <g id="resetDef">
                       <use xlink:href="#rim2" fill="#404040">
                               <set attributeName="fill" to="#808080" begin="reset.mouseover" end="reset.mouseout"/>
                       </use>
               </g>
        </defs>

<script type="text/javascript">
var viewWidth = 832;
var viewHeight = 113;
var sectionId = 'dynsection-9';
</script>
<script xlink:href="../../svgpan.js"/>
<svg id="graph" class="graph">
<g id="viewport">
<title>authoring.view.levelview.SingleLevelView.moveGameObjectToLevel</title>
<polygon fill="white" stroke="none" points="-4,4 -4,-109 828,-109 828,4 -4,4"/>
<!-- Node1 -->
<g id="node1" class="node"><title>Node1</title>
<polygon fill="#bfbfbf" stroke="black" points="0,-19.5 0,-60.5 182,-60.5 182,-19.5 0,-19.5"/>
<text text-anchor="start" x="8" y="-48.5" font-family="Helvetica,sans-Serif" font-size="10.00">authoring.view.levelview.</text>
<text text-anchor="start" x="8" y="-37.5" font-family="Helvetica,sans-Serif" font-size="10.00">SingleLevelView.moveGameObject</text>
<text text-anchor="middle" x="91" y="-26.5" font-family="Helvetica,sans-Serif" font-size="10.00">ToLevel</text>
</g>
<!-- Node2 -->
<g id="node2" class="node"><title>Node2</title>
<g id="a_node2"><a xlink:href="../../d1/d00/classauthoring_1_1view_1_1levelview_1_1_single_level_view.html#a60f24fcbffcbc0a7dca8b82adfcc3211" target="_top" xlink:title="authoring.view.levelview.\lSingleLevelView.addGameObjectToView">
<polygon fill="white" stroke="black" points="218,-50 218,-80 422,-80 422,-50 218,-50"/>
<text text-anchor="start" x="226" y="-68" font-family="Helvetica,sans-Serif" font-size="10.00">authoring.view.levelview.</text>
<text text-anchor="middle" x="320" y="-57" font-family="Helvetica,sans-Serif" font-size="10.00">SingleLevelView.addGameObjectToView</text>
</a>
</g>
</g>
<!-- Node1&#45;&gt;Node2 -->
<g id="edge1" class="edge"><title>Node1&#45;&gt;Node2</title>
<path fill="none" stroke="midnightblue" d="M192.036,-51.0172C200.6,-51.9603 209.267,-52.9149 217.839,-53.859"/>
<polygon fill="midnightblue" stroke="midnightblue" points="192.366,-47.5324 182.042,-49.9166 191.599,-54.4903 192.366,-47.5324"/>
</g>
<!-- Node6 -->
<g id="node6" class="node"><title>Node6</title>
<g id="a_node6"><a xlink:href="../../d0/d8a/classauthoring_1_1eventhandlers_1_1_game_obj_graphic_drag_handler.html#ab2dc9f9a31c07b645b449b5f5ce4325f" target="_top" xlink:title="authoring.eventhandlers.\lGameObjGraphicDragHandler.handle">
<polygon fill="white" stroke="black" points="223,-1 223,-31 417,-31 417,-1 223,-1"/>
<text text-anchor="start" x="231" y="-19" font-family="Helvetica,sans-Serif" font-size="10.00">authoring.eventhandlers.</text>
<text text-anchor="middle" x="320" y="-8" font-family="Helvetica,sans-Serif" font-size="10.00">GameObjGraphicDragHandler.handle</text>
</a>
</g>
</g>
<!-- Node1&#45;&gt;Node6 -->
<g id="edge5" class="edge"><title>Node1&#45;&gt;Node6</title>
<path fill="none" stroke="midnightblue" d="M192.142,-29.4123C202.302,-28.3382 212.606,-27.2487 222.724,-26.179"/>
<polygon fill="midnightblue" stroke="midnightblue" points="191.619,-25.948 182.042,-30.4801 192.355,-32.9092 191.619,-25.948"/>
</g>
<!-- Node3 -->
<g id="node3" class="node"><title>Node3</title>
<g id="a_node3"><a xlink:href="../../d1/d00/classauthoring_1_1view_1_1levelview_1_1_single_level_view.html#a7c75d7c9307941b2da3fb690eebe2cd1" target="_top" xlink:title="authoring.view.levelview.\lSingleLevelView.recreateLevel">
<polygon fill="white" stroke="black" points="458,-50 458,-80 618,-80 618,-50 458,-50"/>
<text text-anchor="start" x="466" y="-68" font-family="Helvetica,sans-Serif" font-size="10.00">authoring.view.levelview.</text>
<text text-anchor="middle" x="538" y="-57" font-family="Helvetica,sans-Serif" font-size="10.00">SingleLevelView.recreateLevel</text>
</a>
</g>
</g>
<!-- Node2&#45;&gt;Node3 -->
<g id="edge2" class="edge"><title>Node2&#45;&gt;Node3</title>
<path fill="none" stroke="midnightblue" d="M432.155,-65C440.77,-65 449.358,-65 457.699,-65"/>
<polygon fill="midnightblue" stroke="midnightblue" points="432.043,-61.5001 422.043,-65 432.043,-68.5001 432.043,-61.5001"/>
</g>
<!-- Node4 -->
<g id="node4" class="node"><title>Node4</title>
<g id="a_node4"><a xlink:href="../../d1/d00/classauthoring_1_1view_1_1levelview_1_1_single_level_view.html#a532ba7c58ed4434fb218478ced7c9528" target="_top" xlink:title="authoring.view.levelview.\lSingleLevelView.SingleLevelView">
<polygon fill="white" stroke="black" points="654,-75 654,-105 824,-105 824,-75 654,-75"/>
<text text-anchor="start" x="662" y="-93" font-family="Helvetica,sans-Serif" font-size="10.00">authoring.view.levelview.</text>
<text text-anchor="middle" x="739" y="-82" font-family="Helvetica,sans-Serif" font-size="10.00">SingleLevelView.SingleLevelView</text>
</a>
</g>
</g>
<!-- Node3&#45;&gt;Node4 -->
<g id="edge3" class="edge"><title>Node3&#45;&gt;Node4</title>
<path fill="none" stroke="midnightblue" d="M628.176,-76.203C636.709,-77.275 645.344,-78.3598 653.827,-79.4255"/>
<polygon fill="midnightblue" stroke="midnightblue" points="628.58,-72.7264 618.222,-74.9525 627.708,-79.6718 628.58,-72.7264"/>
</g>
<!-- Node5 -->
<g id="node5" class="node"><title>Node5</title>
<g id="a_node5"><a xlink:href="../../d1/d00/classauthoring_1_1view_1_1levelview_1_1_single_level_view.html#ae0049506bc1805b24296e3e24e51519c" target="_top" xlink:title="authoring.view.levelview.\lSingleLevelView.update">
<polygon fill="white" stroke="black" points="673,-26 673,-56 805,-56 805,-26 673,-26"/>
<text text-anchor="start" x="681" y="-44" font-family="Helvetica,sans-Serif" font-size="10.00">authoring.view.levelview.</text>
<text text-anchor="middle" x="739" y="-33" font-family="Helvetica,sans-Serif" font-size="10.00">SingleLevelView.update</text>
</a>
</g>
</g>
<!-- Node3&#45;&gt;Node5 -->
<g id="edge4" class="edge"><title>Node3&#45;&gt;Node5</title>
<path fill="none" stroke="midnightblue" d="M628.485,-54.2078C643.405,-52.4085 658.628,-50.5726 672.794,-48.8641"/>
<polygon fill="midnightblue" stroke="midnightblue" points="627.731,-50.7733 618.222,-55.4456 628.569,-57.723 627.731,-50.7733"/>
</g>
</g>
</svg>
        <g id="navigator" transform="translate(0 0)" fill="#404254">
                <rect fill="#f2f5e9" fill-opacity="0.5" stroke="#606060" stroke-width=".5" x="0" y="0" width="60" height="60"/>
                <use id="zoomplus" xlink:href="#zoomPlus" x="17" y="9" onmousedown="handleZoom(evt,'in')"/>
                <use id="zoomminus" xlink:href="#zoomMin" x="42" y="9" onmousedown="handleZoom(evt,'out')"/>
                <use id="reset" xlink:href="#resetDef" x="30" y="36" onmousedown="handleReset()"/>
                <g id="arrowUp" xlink:href="#dirArrow" transform="translate(30 24)" onmousedown="handlePan(0,-1)">
                  <use xlink:href="#rim" fill="#404040">
                        <set attributeName="fill" to="#808080" begin="arrowUp.mouseover" end="arrowUp.mouseout"/>
                  </use>
                  <path fill="none" stroke="white" stroke-width="1.5" d="M0,-3.0v7 M-2.5,-0.5L0,-3.0L2.5,-0.5"/>
                </g>
                <g id="arrowRight" xlink:href="#dirArrow" transform="rotate(90) translate(36 -43)" onmousedown="handlePan(1,0)">
                  <use xlink:href="#rim" fill="#404040">
                        <set attributeName="fill" to="#808080" begin="arrowRight.mouseover" end="arrowRight.mouseout"/>
                  </use>
                  <path fill="none" stroke="white" stroke-width="1.5" d="M0,-3.0v7 M-2.5,-0.5L0,-3.0L2.5,-0.5"/>
                </g>
                <g id="arrowDown" xlink:href="#dirArrow" transform="rotate(180) translate(-30 -48)" onmousedown="handlePan(0,1)">
                  <use xlink:href="#rim" fill="#404040">
                        <set attributeName="fill" to="#808080" begin="arrowDown.mouseover" end="arrowDown.mouseout"/>
                  </use>
                  <path fill="none" stroke="white" stroke-width="1.5" d="M0,-3.0v7 M-2.5,-0.5L0,-3.0L2.5,-0.5"/>
                </g>
                <g id="arrowLeft" xlink:href="#dirArrow" transform="rotate(270) translate(-36 17)" onmousedown="handlePan(-1,0)">
                  <use xlink:href="#rim" fill="#404040">
                        <set attributeName="fill" to="#808080" begin="arrowLeft.mouseover" end="arrowLeft.mouseout"/>
                  </use>
                  <path fill="none" stroke="white" stroke-width="1.5" d="M0,-3.0v7 M-2.5,-0.5L0,-3.0L2.5,-0.5"/>
                </g>
        </g>
        <svg viewBox="0 0 15 15" width="100%" height="30px" preserveAspectRatio="xMaxYMin meet">
         <g id="arrow_out" transform="scale(0.3 0.3)">
          <a xlink:href="classauthoring_1_1view_1_1levelview_1_1_single_level_view_aa99c32328153118600c181bde6bc45a7_icgraph_org.svg" target="_base">
           <rect id="button" ry="5" rx="5" y="6" x="6" height="38" width="38"
                fill="#f2f5e9" fill-opacity="0.5" stroke="#606060" stroke-width="1.0"/>
           <path id="arrow"
             d="M 11.500037,31.436501 C 11.940474,20.09759 22.043105,11.32322 32.158766,21.979434 L 37.068811,17.246167 C 37.068811,17.246167 37.088388,32 37.088388,32 L 22.160133,31.978069 C 22.160133,31.978069 26.997745,27.140456 26.997745,27.140456 C 18.528582,18.264221 13.291696,25.230495 11.500037,31.436501 z"
             style="fill:#404040;"/>
          </a>
         </g>
        </svg>
</svg>
