<?xml version="1.0" encoding="UTF-8" standalone="no"?>
<!DOCTYPE svg PUBLIC "-//W3C//DTD SVG 1.1//EN"
 "http://www.w3.org/Graphics/SVG/1.1/DTD/svg11.dtd">
<!-- Generated by graphviz version 2.36.0 (20140111.2315)
 -->
<!-- Title: authoring.view.levelview.SingleLevelView.addGameObjectToView Pages: 1 -->
<svg width="614pt" height="87pt"
 viewBox="0.00 0.00 614.00 87.00" xmlns="http://www.w3.org/2000/svg" xmlns:xlink="http://www.w3.org/1999/xlink">
<g id="graph0" class="graph" transform="scale(1 1) rotate(0) translate(4 83)">
<title>authoring.view.levelview.SingleLevelView.addGameObjectToView</title>
<polygon fill="white" stroke="none" points="-4,4 -4,-83 610,-83 610,4 -4,4"/>
<!-- Node1 -->
<g id="node1" class="node"><title>Node1</title>
<polygon fill="#bfbfbf" stroke="black" points="0,-24 0,-54 204,-54 204,-24 0,-24"/>
<text text-anchor="start" x="8" y="-42" font-family="Helvetica,sans-Serif" font-size="10.00">authoring.view.levelview.</text>
<text text-anchor="middle" x="102" y="-31" font-family="Helvetica,sans-Serif" font-size="10.00">SingleLevelView.addGameObjectToView</text>
</g>
<!-- Node2 -->
<g id="node2" class="node"><title>Node2</title>
<g id="a_node2"><a xlink:href="../../d1/d00/classauthoring_1_1view_1_1levelview_1_1_single_level_view.html#a7c75d7c9307941b2da3fb690eebe2cd1" target="_top" xlink:title="authoring.view.levelview.\lSingleLevelView.recreateLevel">
<polygon fill="white" stroke="black" points="240,-24 240,-54 400,-54 400,-24 240,-24"/>
<text text-anchor="start" x="248" y="-42" font-family="Helvetica,sans-Serif" font-size="10.00">authoring.view.levelview.</text>
<text text-anchor="middle" x="320" y="-31" font-family="Helvetica,sans-Serif" font-size="10.00">SingleLevelView.recreateLevel</text>
</a>
</g>
</g>
<!-- Node1&#45;&gt;Node2 -->
<g id="edge1" class="edge"><title>Node1&#45;&gt;Node2</title>
<path fill="none" stroke="midnightblue" d="M214.155,-39C222.77,-39 231.358,-39 239.699,-39"/>
<polygon fill="midnightblue" stroke="midnightblue" points="214.043,-35.5001 204.043,-39 214.043,-42.5001 214.043,-35.5001"/>
</g>
<!-- Node3 -->
<g id="node3" class="node"><title>Node3</title>
<g id="a_node3"><a xlink:href="../../d1/d00/classauthoring_1_1view_1_1levelview_1_1_single_level_view.html#a532ba7c58ed4434fb218478ced7c9528" target="_top" xlink:title="authoring.view.levelview.\lSingleLevelView.SingleLevelView">
<polygon fill="white" stroke="black" points="436,-49 436,-79 606,-79 606,-49 436,-49"/>
<text text-anchor="start" x="444" y="-67" font-family="Helvetica,sans-Serif" font-size="10.00">authoring.view.levelview.</text>
<text text-anchor="middle" x="521" y="-56" font-family="Helvetica,sans-Serif" font-size="10.00">SingleLevelView.SingleLevelView</text>
</a>
</g>
</g>
<!-- Node2&#45;&gt;Node3 -->
<g id="edge2" class="edge"><title>Node2&#45;&gt;Node3</title>
<path fill="none" stroke="midnightblue" d="M410.176,-50.203C418.709,-51.275 427.344,-52.3598 435.827,-53.4255"/>
<polygon fill="midnightblue" stroke="midnightblue" points="410.58,-46.7264 400.222,-48.9525 409.708,-53.6718 410.58,-46.7264"/>
</g>
<!-- Node4 -->
<g id="node4" class="node"><title>Node4</title>
<g id="a_node4"><a xlink:href="../../d1/d00/classauthoring_1_1view_1_1levelview_1_1_single_level_view.html#ae0049506bc1805b24296e3e24e51519c" target="_top" xlink:title="authoring.view.levelview.\lSingleLevelView.update">
<polygon fill="white" stroke="black" points="455,-0 455,-30 587,-30 587,-0 455,-0"/>
<text text-anchor="start" x="463" y="-18" font-family="Helvetica,sans-Serif" font-size="10.00">authoring.view.levelview.</text>
<text text-anchor="middle" x="521" y="-7" font-family="Helvetica,sans-Serif" font-size="10.00">SingleLevelView.update</text>
</a>
</g>
</g>
<!-- Node2&#45;&gt;Node4 -->
<g id="edge3" class="edge"><title>Node2&#45;&gt;Node4</title>
<path fill="none" stroke="midnightblue" d="M410.485,-28.2078C425.405,-26.4085 440.628,-24.5726 454.794,-22.8641"/>
<polygon fill="midnightblue" stroke="midnightblue" points="409.731,-24.7733 400.222,-29.4456 410.569,-31.723 409.731,-24.7733"/>
</g>
</g>
</svg>
