<?xml version="1.0" encoding="UTF-8" standalone="no"?>
<!DOCTYPE svg PUBLIC "-//W3C//DTD SVG 1.1//EN"
 "http://www.w3.org/Graphics/SVG/1.1/DTD/svg11.dtd">
<!-- Generated by graphviz version 2.36.0 (20140111.2315)
 -->
<!-- Title: authoring.view.levelview.SingleLevelView.getID Pages: 1 -->
<svg width="382pt" height="185pt"
 viewBox="0.00 0.00 382.00 185.00" xmlns="http://www.w3.org/2000/svg" xmlns:xlink="http://www.w3.org/1999/xlink">
<g id="graph0" class="graph" transform="scale(1 1) rotate(0) translate(4 181)">
<title>authoring.view.levelview.SingleLevelView.getID</title>
<polygon fill="white" stroke="none" points="-4,4 -4,-181 378,-181 378,4 -4,4"/>
<!-- Node1 -->
<g id="node1" class="node"><title>Node1</title>
<polygon fill="#bfbfbf" stroke="black" points="0,-73 0,-103 132,-103 132,-73 0,-73"/>
<text text-anchor="start" x="8" y="-91" font-family="Helvetica,sans-Serif" font-size="10.00">authoring.view.levelview.</text>
<text text-anchor="middle" x="66" y="-80" font-family="Helvetica,sans-Serif" font-size="10.00">SingleLevelView.getID</text>
</g>
<!-- Node2 -->
<g id="node2" class="node"><title>Node2</title>
<g id="a_node2"><a xlink:href="../../d5/d71/classauthoring_1_1eventhandlers_1_1_delete_game_object_handler.html#accab3889f56825006dc927d15f7c2957" target="_top" xlink:title="authoring.eventhandlers.\lDeleteGameObjectHandler.handle">
<polygon fill="white" stroke="black" points="181,-147 181,-177 361,-177 361,-147 181,-147"/>
<text text-anchor="start" x="189" y="-165" font-family="Helvetica,sans-Serif" font-size="10.00">authoring.eventhandlers.</text>
<text text-anchor="middle" x="271" y="-154" font-family="Helvetica,sans-Serif" font-size="10.00">DeleteGameObjectHandler.handle</text>
</a>
</g>
</g>
<!-- Node1&#45;&gt;Node2 -->
<g id="edge1" class="edge"><title>Node1&#45;&gt;Node2</title>
<path fill="none" stroke="midnightblue" d="M103.05,-107.793C121.971,-117.585 145.784,-128.99 168,-137 178.205,-140.679 189.177,-143.999 200.007,-146.927"/>
<polygon fill="midnightblue" stroke="midnightblue" points="104.664,-104.688 94.183,-103.138 101.41,-110.885 104.664,-104.688"/>
</g>
<!-- Node3 -->
<g id="node3" class="node"><title>Node3</title>
<g id="a_node3"><a xlink:href="../../d6/df5/classauthoring_1_1eventhandlers_1_1_edit_game_object_handler.html#ac0a03e6b751068903df50296d9f1fbd7" target="_top" xlink:title="authoring.eventhandlers.\lEditGameObjectHandler.handle">
<polygon fill="white" stroke="black" points="187.5,-98 187.5,-128 354.5,-128 354.5,-98 187.5,-98"/>
<text text-anchor="start" x="195.5" y="-116" font-family="Helvetica,sans-Serif" font-size="10.00">authoring.eventhandlers.</text>
<text text-anchor="middle" x="271" y="-105" font-family="Helvetica,sans-Serif" font-size="10.00">EditGameObjectHandler.handle</text>
</a>
</g>
</g>
<!-- Node1&#45;&gt;Node3 -->
<g id="edge2" class="edge"><title>Node1&#45;&gt;Node3</title>
<path fill="none" stroke="midnightblue" d="M142.145,-97.2543C156.909,-99.0726 172.473,-100.989 187.464,-102.835"/>
<polygon fill="midnightblue" stroke="midnightblue" points="142.421,-93.7619 132.068,-96.0133 141.565,-100.709 142.421,-93.7619"/>
</g>
<!-- Node4 -->
<g id="node4" class="node"><title>Node4</title>
<g id="a_node4"><a xlink:href="../../d1/da4/classauthoring_1_1eventhandlers_1_1_game_object_drag_handler.html#a122ab06aa51a9961e85f5a457142f60c" target="_top" xlink:title="authoring.eventhandlers.\lGameObjectDragHandler.handle">
<polygon fill="white" stroke="black" points="185,-49 185,-79 357,-79 357,-49 185,-49"/>
<text text-anchor="start" x="193" y="-67" font-family="Helvetica,sans-Serif" font-size="10.00">authoring.eventhandlers.</text>
<text text-anchor="middle" x="271" y="-56" font-family="Helvetica,sans-Serif" font-size="10.00">GameObjectDragHandler.handle</text>
</a>
</g>
</g>
<!-- Node1&#45;&gt;Node4 -->
<g id="edge3" class="edge"><title>Node1&#45;&gt;Node4</title>
<path fill="none" stroke="midnightblue" d="M142.081,-79.1235C156.027,-77.4746 170.689,-75.7412 184.91,-74.0599"/>
<polygon fill="midnightblue" stroke="midnightblue" points="141.588,-75.6573 132.068,-80.3072 142.41,-82.6088 141.588,-75.6573"/>
</g>
<!-- Node5 -->
<g id="node5" class="node"><title>Node5</title>
<g id="a_node5"><a xlink:href="../../d0/df2/classauthoring_1_1eventhandlers_1_1_game_object_drag_to_level_handler.html#ad5002cd6b7781653104f1820a573f902" target="_top" xlink:title="authoring.eventhandlers.\lGameObjectDragToLevelHandler.handle">
<polygon fill="white" stroke="black" points="168,-0 168,-30 374,-30 374,-0 168,-0"/>
<text text-anchor="start" x="176" y="-18" font-family="Helvetica,sans-Serif" font-size="10.00">authoring.eventhandlers.</text>
<text text-anchor="middle" x="271" y="-7" font-family="Helvetica,sans-Serif" font-size="10.00">GameObjectDragToLevelHandler.handle</text>
</a>
</g>
</g>
<!-- Node1&#45;&gt;Node5 -->
<g id="edge4" class="edge"><title>Node1&#45;&gt;Node5</title>
<path fill="none" stroke="midnightblue" d="M103.756,-68.3125C122.58,-58.8054 146.095,-47.798 168,-40 178.306,-36.3312 189.384,-33.0088 200.306,-30.072"/>
<polygon fill="midnightblue" stroke="midnightblue" points="101.951,-65.3048 94.647,-72.98 105.143,-71.5346 101.951,-65.3048"/>
</g>
</g>
</svg>
