<?xml version="1.0" encoding="UTF-8" standalone="no"?>
<!DOCTYPE svg PUBLIC "-//W3C//DTD SVG 1.1//EN"
 "http://www.w3.org/Graphics/SVG/1.1/DTD/svg11.dtd">
<!-- Generated by graphviz version 2.36.0 (20140111.2315)
 -->
<!-- Title: authoring.eventhandlers.DeleteConditionHandler Pages: 1 -->
<!--zoomable 366 -->
<svg id="main" version="1.1" xmlns="http://www.w3.org/2000/svg" xmlns:xlink="http://www.w3.org/1999/xlink" xml:space="preserve" onload="init(evt)">
<style type="text/css"><![CDATA[
.edge:hover path { stroke: red; }
.edge:hover polygon { stroke: red; fill: red; }
]]></style>
<script type="text/javascript"><![CDATA[
var edges = document.getElementsByTagName('g');
if (edges && edges.length) {
  for (var i=0;i<edges.length;i++) {
    if (edges[i].id.substr(0,4)=='edge') {
      edges[i].setAttribute('class','edge');
    }
  }
}
]]></script>
        <defs>
                <circle id="rim" cx="0" cy="0" r="7"/>
                <circle id="rim2" cx="0" cy="0" r="3.5"/>
                <g id="zoomPlus">
                        <use xlink:href="#rim" fill="#404040">
                                <set attributeName="fill" to="#808080" begin="zoomplus.mouseover" end="zoomplus.mouseout"/>
                        </use>
                        <path d="M-4,0h8M0,-4v8" fill="none" stroke="white" stroke-width="1.5" pointer-events="none"/>
                </g>
                <g id="zoomMin">
                        <use xlink:href="#rim" fill="#404040">
                                <set attributeName="fill" to="#808080" begin="zoomminus.mouseover" end="zoomminus.mouseout"/>
                        </use>
                        <path d="M-4,0h8" fill="none" stroke="white" stroke-width="1.5" pointer-events="none"/>
                </g>
                <g id="dirArrow">
                        <path fill="none" stroke="white" stroke-width="1.5" d="M0,-3.0v7 M-2.5,-0.5L0,-3.0L2.5,-0.5"/>
                </g>
               <g id="resetDef">
                       <use xlink:href="#rim2" fill="#404040">
                               <set attributeName="fill" to="#808080" begin="reset.mouseover" end="reset.mouseout"/>
                       </use>
               </g>
        </defs>

<script type="text/javascript">
var viewWidth = 1096;
var viewHeight = 366;
var sectionId = 'dynsection-1';
</script>
<script xlink:href="../../svgpan.js"/>
<svg id="graph" class="graph">
<g id="viewport">
<title>authoring.eventhandlers.DeleteConditionHandler</title>
<polygon fill="white" stroke="none" points="-4,4 -4,-362 1092,-362 1092,4 -4,4"/>
<!-- Node1 -->
<g id="node1" class="node"><title>Node1</title>
<polygon fill="#bfbfbf" stroke="black" points="950.5,-251 950.5,-281 1087.5,-281 1087.5,-251 950.5,-251"/>
<text text-anchor="start" x="958.5" y="-269" font-family="Helvetica,sans-Serif" font-size="10.00">authoring.eventhandlers.</text>
<text text-anchor="middle" x="1019" y="-258" font-family="Helvetica,sans-Serif" font-size="10.00">DeleteConditionHandler</text>
</g>
<!-- Node2 -->
<g id="node2" class="node"><title>Node2</title>
<g id="a_node2"><a xlink:href="../../d3/d6a/interfaceauthoring_1_1eventhandlers_1_1_game_handler.html" target="_top" xlink:title="authoring.eventhandlers.\lGameHandler\&lt; Event \&gt;">
<polygon fill="white" stroke="black" points="632.5,-295 632.5,-325 769.5,-325 769.5,-295 632.5,-295"/>
<text text-anchor="start" x="640.5" y="-313" font-family="Helvetica,sans-Serif" font-size="10.00">authoring.eventhandlers.</text>
<text text-anchor="middle" x="701" y="-302" font-family="Helvetica,sans-Serif" font-size="10.00">GameHandler&lt; Event &gt;</text>
</a>
</g>
</g>
<!-- Node2&#45;&gt;Node1 -->
<g id="edge1" class="edge"><title>Node2&#45;&gt;Node1</title>
<path fill="none" stroke="midnightblue" d="M779.738,-301.125C824.364,-295.798 881.414,-288.596 932,-281 937.995,-280.1 944.216,-279.115 950.447,-278.093"/>
<polygon fill="midnightblue" stroke="midnightblue" points="779.063,-297.68 769.545,-302.335 779.888,-304.631 779.063,-297.68"/>
</g>
<!-- Node3 -->
<g id="node3" class="node"><title>Node3</title>
<g id="a_node3"><a xlink:href="../../d6/d32/classauthoring_1_1view_1_1wizards_1_1_wizard.html" target="_top" xlink:title="authoring.view.wizards.Wizard">
<polygon fill="white" stroke="black" points="622,-256.5 622,-275.5 780,-275.5 780,-256.5 622,-256.5"/>
<text text-anchor="middle" x="701" y="-263.5" font-family="Helvetica,sans-Serif" font-size="10.00">authoring.view.wizards.Wizard</text>
</a>
</g>
</g>
<!-- Node3&#45;&gt;Node1 -->
<g id="edge2" class="edge"><title>Node3&#45;&gt;Node1</title>
<path fill="none" stroke="#9a32cd" stroke-dasharray="5,2" d="M790.408,-266C841.087,-266 903.704,-266 950.422,-266"/>
<polygon fill="#9a32cd" stroke="#9a32cd" points="790.112,-262.5 780.112,-266 790.112,-269.5 790.112,-262.5"/>
<text text-anchor="middle" x="865" y="-269" font-family="Helvetica,sans-Serif" font-size="10.00"> myDeleteConditionHandler</text>
</g>
<!-- Node4 -->
<g id="node4" class="node"><title>Node4</title>
<polygon fill="white" stroke="#bfbfbf" points="332.5,-338.5 332.5,-357.5 377.5,-357.5 377.5,-338.5 332.5,-338.5"/>
<text text-anchor="middle" x="355" y="-345.5" font-family="Helvetica,sans-Serif" font-size="10.00">Stage</text>
</g>
<!-- Node4&#45;&gt;Node3 -->
<g id="edge3" class="edge"><title>Node4&#45;&gt;Node3</title>
<path fill="none" stroke="midnightblue" d="M387.88,-350.464C437.705,-352.788 535.418,-351.079 604,-310 615.438,-303.149 610.914,-293.409 622,-286 628.509,-281.65 635.903,-278.246 643.482,-275.582"/>
<polygon fill="midnightblue" stroke="midnightblue" points="387.894,-346.96 377.716,-349.901 387.507,-353.949 387.894,-346.96"/>
</g>
<!-- Node5 -->
<g id="node5" class="node"><title>Node5</title>
<polygon fill="white" stroke="#bfbfbf" points="334.5,-300.5 334.5,-319.5 375.5,-319.5 375.5,-300.5 334.5,-300.5"/>
<text text-anchor="middle" x="355" y="-307.5" font-family="Helvetica,sans-Serif" font-size="10.00">VBox</text>
</g>
<!-- Node5&#45;&gt;Node3 -->
<g id="edge4" class="edge"><title>Node5&#45;&gt;Node3</title>
<path fill="none" stroke="#9a32cd" stroke-dasharray="5,2" d="M385.649,-306.907C432.214,-301.965 525.303,-291.745 604,-281 616.118,-279.345 629.071,-277.425 641.416,-275.522"/>
<polygon fill="#9a32cd" stroke="#9a32cd" points="385.221,-303.433 375.644,-307.963 385.956,-310.394 385.221,-303.433"/>
<text text-anchor="middle" x="545" y="-298" font-family="Helvetica,sans-Serif" font-size="10.00"> myWindow</text>
</g>
<!-- Node6 -->
<g id="node6" class="node"><title>Node6</title>
<polygon fill="white" stroke="#bfbfbf" points="242.5,-251 242.5,-281 467.5,-281 467.5,-251 242.5,-251"/>
<text text-anchor="start" x="250.5" y="-269" font-family="Helvetica,sans-Serif" font-size="10.00">Map&lt; String, authoring.view.propertiesview.</text>
<text text-anchor="middle" x="355" y="-258" font-family="Helvetica,sans-Serif" font-size="10.00">PropertyTextField &gt;</text>
</g>
<!-- Node6&#45;&gt;Node3 -->
<g id="edge5" class="edge"><title>Node6&#45;&gt;Node3</title>
<path fill="none" stroke="#9a32cd" stroke-dasharray="5,2" d="M477.81,-266C525.683,-266 579.241,-266 621.777,-266"/>
<polygon fill="#9a32cd" stroke="#9a32cd" points="477.687,-262.5 467.687,-266 477.687,-269.5 477.687,-262.5"/>
<text text-anchor="middle" x="545" y="-269" font-family="Helvetica,sans-Serif" font-size="10.00"> myMap</text>
</g>
<!-- Node7 -->
<g id="node7" class="node"><title>Node7</title>
<polygon fill="white" stroke="#bfbfbf" points="332,-212.5 332,-231.5 378,-231.5 378,-212.5 332,-212.5"/>
<text text-anchor="middle" x="355" y="-219.5" font-family="Helvetica,sans-Serif" font-size="10.00">Group</text>
</g>
<!-- Node7&#45;&gt;Node3 -->
<g id="edge6" class="edge"><title>Node7&#45;&gt;Node3</title>
<path fill="none" stroke="#9a32cd" stroke-dasharray="5,2" d="M388.236,-225.368C435.596,-230.407 526.735,-240.45 604,-251 616.118,-252.655 629.071,-254.575 641.416,-256.478"/>
<polygon fill="#9a32cd" stroke="#9a32cd" points="388.58,-221.885 378.267,-224.312 387.843,-228.846 388.58,-221.885"/>
<text text-anchor="middle" x="545" y="-254" font-family="Helvetica,sans-Serif" font-size="10.00"> myRoot</text>
</g>
<!-- Node8 -->
<g id="node8" class="node"><title>Node8</title>
<g id="a_node8"><a xlink:href="../../df/d84/classengine_1_1level_1_1_level.html" target="_top" xlink:title="engine.level.Level">
<polygon fill="white" stroke="black" points="650.5,-118.5 650.5,-137.5 751.5,-137.5 751.5,-118.5 650.5,-118.5"/>
<text text-anchor="middle" x="701" y="-125.5" font-family="Helvetica,sans-Serif" font-size="10.00">engine.level.Level</text>
</a>
</g>
</g>
<!-- Node8&#45;&gt;Node1 -->
<g id="edge7" class="edge"><title>Node8&#45;&gt;Node1</title>
<path fill="none" stroke="#9a32cd" stroke-dasharray="5,2" d="M733.221,-141.634C792.622,-167.575 921.489,-223.853 983.413,-250.896"/>
<polygon fill="#9a32cd" stroke="#9a32cd" points="734.535,-138.389 723.97,-137.594 731.733,-144.804 734.535,-138.389"/>
<text text-anchor="middle" x="865" y="-229" font-family="Helvetica,sans-Serif" font-size="10.00"> myLevel</text>
</g>
<!-- Node9 -->
<g id="node9" class="node"><title>Node9</title>
<g id="a_node9"><a xlink:href="../../d3/d8d/classdata_1_1_observable.html" target="_top" xlink:title="data.Observable">
<polygon fill="white" stroke="black" points="307.5,-174.5 307.5,-193.5 402.5,-193.5 402.5,-174.5 307.5,-174.5"/>
<text text-anchor="middle" x="355" y="-181.5" font-family="Helvetica,sans-Serif" font-size="10.00">data.Observable</text>
</a>
</g>
</g>
<!-- Node9&#45;&gt;Node8 -->
<g id="edge8" class="edge"><title>Node9&#45;&gt;Node8</title>
<path fill="none" stroke="midnightblue" d="M412.904,-178.113C463.341,-172.494 538.879,-163.1 604,-151 624.051,-147.274 646.205,-142.042 664.174,-137.51"/>
<polygon fill="midnightblue" stroke="midnightblue" points="412.406,-174.646 402.849,-179.22 413.172,-181.604 412.406,-174.646"/>
</g>
<!-- Node10 -->
<g id="node10" class="node"><title>Node10</title>
<polygon fill="white" stroke="#bfbfbf" points="23,-174.5 23,-193.5 161,-193.5 161,-174.5 23,-174.5"/>
<text text-anchor="middle" x="92" y="-181.5" font-family="Helvetica,sans-Serif" font-size="10.00">Vector&lt; data.Observer &gt;</text>
</g>
<!-- Node10&#45;&gt;Node9 -->
<g id="edge9" class="edge"><title>Node10&#45;&gt;Node9</title>
<path fill="none" stroke="#9a32cd" stroke-dasharray="5,2" d="M171.386,-184C215.63,-184 269.435,-184 307.141,-184"/>
<polygon fill="#9a32cd" stroke="#9a32cd" points="171.234,-180.5 161.234,-184 171.234,-187.5 171.234,-180.5"/>
<text text-anchor="middle" x="213" y="-187" font-family="Helvetica,sans-Serif" font-size="10.00"> obs</text>
</g>
<!-- Node11 -->
<g id="node11" class="node"><title>Node11</title>
<g id="a_node11"><a xlink:href="../../dc/df6/interfaceengine_1_1game_object_1_1_identifiable.html" target="_top" xlink:title="engine.gameObject.Identifiable">
<polygon fill="white" stroke="black" points="272.5,-136.5 272.5,-155.5 437.5,-155.5 437.5,-136.5 272.5,-136.5"/>
<text text-anchor="middle" x="355" y="-143.5" font-family="Helvetica,sans-Serif" font-size="10.00">engine.gameObject.Identifiable</text>
</a>
</g>
</g>
<!-- Node11&#45;&gt;Node8 -->
<g id="edge10" class="edge"><title>Node11&#45;&gt;Node8</title>
<path fill="none" stroke="midnightblue" d="M447.788,-141.197C512.848,-137.793 597.639,-133.356 650.447,-130.593"/>
<polygon fill="midnightblue" stroke="midnightblue" points="447.327,-137.716 437.523,-141.734 447.692,-144.707 447.327,-137.716"/>
</g>
<!-- Node12 -->
<g id="node12" class="node"><title>Node12</title>
<g id="a_node12"><a xlink:href="../../d4/dac/classengine_1_1game_object_1_1_identifier.html" target="_top" xlink:title="engine.gameObject.Identifier">
<polygon fill="white" stroke="black" points="277.5,-98.5 277.5,-117.5 432.5,-117.5 432.5,-98.5 277.5,-98.5"/>
<text text-anchor="middle" x="355" y="-105.5" font-family="Helvetica,sans-Serif" font-size="10.00">engine.gameObject.Identifier</text>
</a>
</g>
</g>
<!-- Node12&#45;&gt;Node8 -->
<g id="edge11" class="edge"><title>Node12&#45;&gt;Node8</title>
<path fill="none" stroke="#9a32cd" stroke-dasharray="5,2" d="M442.857,-110.807C490.473,-112.609 550.525,-115.31 604,-119 619.03,-120.037 635.357,-121.458 650.212,-122.863"/>
<polygon fill="#9a32cd" stroke="#9a32cd" points="442.707,-107.299 432.583,-110.425 442.446,-114.294 442.707,-107.299"/>
<text text-anchor="middle" x="545" y="-122" font-family="Helvetica,sans-Serif" font-size="10.00"> myId</text>
</g>
<!-- Node13 -->
<g id="node13" class="node"><title>Node13</title>
<g id="a_node13"><a xlink:href="../../d1/d32/classauthoring_1_1model_1_1collections_1_1_game_objects_collection.html" target="_top" xlink:title="authoring.model.collections.\lGameObjectsCollection">
<polygon fill="white" stroke="black" points="279,-49 279,-79 431,-79 431,-49 279,-49"/>
<text text-anchor="start" x="287" y="-67" font-family="Helvetica,sans-Serif" font-size="10.00">authoring.model.collections.</text>
<text text-anchor="middle" x="355" y="-56" font-family="Helvetica,sans-Serif" font-size="10.00">GameObjectsCollection</text>
</a>
</g>
</g>
<!-- Node13&#45;&gt;Node8 -->
<g id="edge12" class="edge"><title>Node13&#45;&gt;Node8</title>
<path fill="none" stroke="#9a32cd" stroke-dasharray="5,2" d="M441.204,-65.379C489.571,-67.7755 550.877,-73.5453 604,-87 632.461,-94.2083 663.344,-108.712 682.187,-118.391"/>
<polygon fill="#9a32cd" stroke="#9a32cd" points="441.236,-61.877 431.087,-64.9173 440.917,-68.8697 441.236,-61.877"/>
<text text-anchor="middle" x="545" y="-101" font-family="Helvetica,sans-Serif" font-size="10.00"> myDefaultGameObjects</text>
<text text-anchor="middle" x="545" y="-90" font-family="Helvetica,sans-Serif" font-size="10.00">myWorkingGameObjects</text>
</g>
<!-- Node14 -->
<g id="node14" class="node"><title>Node14</title>
<g id="a_node14"><a xlink:href="../../d4/d3b/classauthoring_1_1model_1_1collections_1_1_general_collection.html" target="_top" xlink:title="authoring.model.collections.\lGeneralCollection\&lt; GameObject \&gt;">
<polygon fill="white" stroke="black" points="0.5,-49 0.5,-79 183.5,-79 183.5,-49 0.5,-49"/>
<text text-anchor="start" x="8.5" y="-67" font-family="Helvetica,sans-Serif" font-size="10.00">authoring.model.collections.</text>
<text text-anchor="middle" x="92" y="-56" font-family="Helvetica,sans-Serif" font-size="10.00">GeneralCollection&lt; GameObject &gt;</text>
</a>
</g>
</g>
<!-- Node14&#45;&gt;Node13 -->
<g id="edge13" class="edge"><title>Node14&#45;&gt;Node13</title>
<path fill="none" stroke="midnightblue" d="M193.856,-64C222.089,-64 252.278,-64 278.747,-64"/>
<polygon fill="midnightblue" stroke="midnightblue" points="193.553,-60.5001 183.553,-64 193.553,-67.5001 193.553,-60.5001"/>
</g>
<!-- Node15 -->
<g id="node15" class="node"><title>Node15</title>
<polygon fill="white" stroke="#bfbfbf" points="284.5,-0 284.5,-30 425.5,-30 425.5,-0 284.5,-0"/>
<text text-anchor="start" x="292.5" y="-18" font-family="Helvetica,sans-Serif" font-size="10.00">List&lt; engine.gameObject.</text>
<text text-anchor="middle" x="355" y="-7" font-family="Helvetica,sans-Serif" font-size="10.00">Identifier &gt;</text>
</g>
<!-- Node15&#45;&gt;Node8 -->
<g id="edge14" class="edge"><title>Node15&#45;&gt;Node8</title>
<path fill="none" stroke="#9a32cd" stroke-dasharray="5,2" d="M435.916,-11.9519C486.158,-12.9033 551.222,-19.5218 604,-43 643.255,-60.4624 677.885,-99.9066 692.552,-118.263"/>
<polygon fill="#9a32cd" stroke="#9a32cd" points="435.793,-8.45027 425.752,-11.8323 435.711,-15.4498 435.793,-8.45027"/>
<text text-anchor="middle" x="545" y="-57" font-family="Helvetica,sans-Serif" font-size="10.00"> myConditionIdList</text>
<text text-anchor="middle" x="545" y="-46" font-family="Helvetica,sans-Serif" font-size="10.00">myGameObjectIdList</text>
</g>
</g>
</svg>
        <g id="navigator" transform="translate(0 0)" fill="#404254">
                <rect fill="#f2f5e9" fill-opacity="0.5" stroke="#606060" stroke-width=".5" x="0" y="0" width="60" height="60"/>
                <use id="zoomplus" xlink:href="#zoomPlus" x="17" y="9" onmousedown="handleZoom(evt,'in')"/>
                <use id="zoomminus" xlink:href="#zoomMin" x="42" y="9" onmousedown="handleZoom(evt,'out')"/>
                <use id="reset" xlink:href="#resetDef" x="30" y="36" onmousedown="handleReset()"/>
                <g id="arrowUp" xlink:href="#dirArrow" transform="translate(30 24)" onmousedown="handlePan(0,-1)">
                  <use xlink:href="#rim" fill="#404040">
                        <set attributeName="fill" to="#808080" begin="arrowUp.mouseover" end="arrowUp.mouseout"/>
                  </use>
                  <path fill="none" stroke="white" stroke-width="1.5" d="M0,-3.0v7 M-2.5,-0.5L0,-3.0L2.5,-0.5"/>
                </g>
                <g id="arrowRight" xlink:href="#dirArrow" transform="rotate(90) translate(36 -43)" onmousedown="handlePan(1,0)">
                  <use xlink:href="#rim" fill="#404040">
                        <set attributeName="fill" to="#808080" begin="arrowRight.mouseover" end="arrowRight.mouseout"/>
                  </use>
                  <path fill="none" stroke="white" stroke-width="1.5" d="M0,-3.0v7 M-2.5,-0.5L0,-3.0L2.5,-0.5"/>
                </g>
                <g id="arrowDown" xlink:href="#dirArrow" transform="rotate(180) translate(-30 -48)" onmousedown="handlePan(0,1)">
                  <use xlink:href="#rim" fill="#404040">
                        <set attributeName="fill" to="#808080" begin="arrowDown.mouseover" end="arrowDown.mouseout"/>
                  </use>
                  <path fill="none" stroke="white" stroke-width="1.5" d="M0,-3.0v7 M-2.5,-0.5L0,-3.0L2.5,-0.5"/>
                </g>
                <g id="arrowLeft" xlink:href="#dirArrow" transform="rotate(270) translate(-36 17)" onmousedown="handlePan(-1,0)">
                  <use xlink:href="#rim" fill="#404040">
                        <set attributeName="fill" to="#808080" begin="arrowLeft.mouseover" end="arrowLeft.mouseout"/>
                  </use>
                  <path fill="none" stroke="white" stroke-width="1.5" d="M0,-3.0v7 M-2.5,-0.5L0,-3.0L2.5,-0.5"/>
                </g>
        </g>
        <svg viewBox="0 0 15 15" width="100%" height="30px" preserveAspectRatio="xMaxYMin meet">
         <g id="arrow_out" transform="scale(0.3 0.3)">
          <a xlink:href="classauthoring_1_1eventhandlers_1_1_delete_condition_handler__coll__graph_org.svg" target="_base">
           <rect id="button" ry="5" rx="5" y="6" x="6" height="38" width="38"
                fill="#f2f5e9" fill-opacity="0.5" stroke="#606060" stroke-width="1.0"/>
           <path id="arrow"
             d="M 11.500037,31.436501 C 11.940474,20.09759 22.043105,11.32322 32.158766,21.979434 L 37.068811,17.246167 C 37.068811,17.246167 37.088388,32 37.088388,32 L 22.160133,31.978069 C 22.160133,31.978069 26.997745,27.140456 26.997745,27.140456 C 18.528582,18.264221 13.291696,25.230495 11.500037,31.436501 z"
             style="fill:#404040;"/>
          </a>
         </g>
        </svg>
</svg>
