<?xml version="1.0" encoding="UTF-8" standalone="no"?>
<!DOCTYPE svg PUBLIC "-//W3C//DTD SVG 1.1//EN"
 "http://www.w3.org/Graphics/SVG/1.1/DTD/svg11.dtd">
<!-- Generated by graphviz version 2.36.0 (20140111.2315)
 -->
<!-- Title: engine.actions.TranslateXID Pages: 1 -->
<svg width="185pt" height="208pt"
 viewBox="0.00 0.00 185.00 208.00" xmlns="http://www.w3.org/2000/svg" xmlns:xlink="http://www.w3.org/1999/xlink">
<g id="graph0" class="graph" transform="scale(1 1) rotate(0) translate(4 204)">
<title>engine.actions.TranslateXID</title>
<polygon fill="white" stroke="none" points="-4,4 -4,-204 181,-204 181,4 -4,4"/>
<!-- Node1 -->
<g id="node1" class="node"><title>Node1</title>
<polygon fill="#bfbfbf" stroke="black" points="0,-0.5 0,-19.5 148,-19.5 148,-0.5 0,-0.5"/>
<text text-anchor="middle" x="74" y="-7.5" font-family="Helvetica,sans-Serif" font-size="10.00">engine.actions.TranslateXID</text>
</g>
<!-- Node2 -->
<g id="node2" class="node"><title>Node2</title>
<g id="a_node2"><a xlink:href="../../df/d90/classengine_1_1actions_1_1_translate_i_d_action.html" target="_top" xlink:title="engine.actions.Translate\lIDAction">
<polygon fill="white" stroke="black" points="8,-57 8,-87 140,-87 140,-57 8,-57"/>
<text text-anchor="start" x="16" y="-75" font-family="Helvetica,sans-Serif" font-size="10.00">engine.actions.Translate</text>
<text text-anchor="middle" x="74" y="-64" font-family="Helvetica,sans-Serif" font-size="10.00">IDAction</text>
</a>
</g>
</g>
<!-- Node2&#45;&gt;Node1 -->
<g id="edge1" class="edge"><title>Node2&#45;&gt;Node1</title>
<path fill="none" stroke="midnightblue" d="M74,-46.5858C74,-37.0743 74,-26.7864 74,-19.7305"/>
<polygon fill="midnightblue" stroke="midnightblue" points="70.5001,-46.7808 74,-56.7808 77.5001,-46.7809 70.5001,-46.7808"/>
</g>
<!-- Node3 -->
<g id="node3" class="node"><title>Node3</title>
<g id="a_node3"><a xlink:href="../../d9/dd2/interfaceengine_1_1actions_1_1_action.html" target="_top" xlink:title="engine.actions.Action">
<polygon fill="white" stroke="black" points="58.5,-124.5 58.5,-143.5 177.5,-143.5 177.5,-124.5 58.5,-124.5"/>
<text text-anchor="middle" x="118" y="-131.5" font-family="Helvetica,sans-Serif" font-size="10.00">engine.actions.Action</text>
</a>
</g>
</g>
<!-- Node3&#45;&gt;Node2 -->
<g id="edge2" class="edge"><title>Node3&#45;&gt;Node2</title>
<path fill="none" stroke="midnightblue" d="M105.611,-116.106C98.9111,-106.97 90.7304,-95.8142 84.3699,-87.1408"/>
<polygon fill="midnightblue" stroke="midnightblue" points="102.96,-118.409 111.696,-124.403 108.605,-114.27 102.96,-118.409"/>
</g>
<!-- Node4 -->
<g id="node4" class="node"><title>Node4</title>
<g id="a_node4"><a xlink:href="../../d2/d15/interfaceengine_1_1actions_1_1_initializable.html" target="_top" xlink:title="engine.actions.Initializable">
<polygon fill="white" stroke="black" points="3,-180.5 3,-199.5 145,-199.5 145,-180.5 3,-180.5"/>
<text text-anchor="middle" x="74" y="-187.5" font-family="Helvetica,sans-Serif" font-size="10.00">engine.actions.Initializable</text>
</a>
</g>
</g>
<!-- Node4&#45;&gt;Node2 -->
<g id="edge4" class="edge"><title>Node4&#45;&gt;Node2</title>
<path fill="none" stroke="midnightblue" d="M62.2432,-171.769C57.4366,-163.71 52.4387,-153.755 50,-144 44.9823,-123.929 55.4557,-101.401 64.113,-87.211"/>
<polygon fill="midnightblue" stroke="midnightblue" points="59.3091,-173.678 67.6332,-180.232 65.2134,-169.917 59.3091,-173.678"/>
</g>
<!-- Node4&#45;&gt;Node3 -->
<g id="edge3" class="edge"><title>Node4&#45;&gt;Node3</title>
<path fill="none" stroke="midnightblue" d="M87.7345,-172.144C95.4005,-162.736 104.633,-151.405 110.869,-143.751"/>
<polygon fill="midnightblue" stroke="midnightblue" points="84.8691,-170.12 81.2657,-180.083 90.2958,-174.541 84.8691,-170.12"/>
</g>
</g>
</svg>
