<?xml version="1.0" encoding="UTF-8" standalone="no"?>
<!DOCTYPE svg PUBLIC "-//W3C//DTD SVG 1.1//EN"
 "http://www.w3.org/Graphics/SVG/1.1/DTD/svg11.dtd">
<!-- Generated by graphviz version 2.36.0 (20140111.2315)
 -->
<!-- Title: engine.physics.Force.calculateMagnitude Pages: 1 -->
<svg width="1048pt" height="113pt"
 viewBox="0.00 0.00 1048.00 113.00" xmlns="http://www.w3.org/2000/svg" xmlns:xlink="http://www.w3.org/1999/xlink">
<g id="graph0" class="graph" transform="scale(1 1) rotate(0) translate(4 109)">
<title>engine.physics.Force.calculateMagnitude</title>
<polygon fill="white" stroke="none" points="-4,4 -4,-109 1044,-109 1044,4 -4,4"/>
<!-- Node1 -->
<g id="node1" class="node"><title>Node1</title>
<polygon fill="#bfbfbf" stroke="black" points="0,-25 0,-55 162,-55 162,-25 0,-25"/>
<text text-anchor="start" x="8" y="-43" font-family="Helvetica,sans-Serif" font-size="10.00">engine.physics.Force.calculate</text>
<text text-anchor="middle" x="81" y="-32" font-family="Helvetica,sans-Serif" font-size="10.00">Magnitude</text>
</g>
<!-- Node2 -->
<g id="node2" class="node"><title>Node2</title>
<g id="a_node2"><a xlink:href="../../da/d09/classengine_1_1physics_1_1_force.html#a74549d9d00eace015d869eb197607f8a" target="_top" xlink:title="engine.physics.Force.add\lOrChangeValue">
<polygon fill="white" stroke="black" points="220.5,-50 220.5,-80 357.5,-80 357.5,-50 220.5,-50"/>
<text text-anchor="start" x="228.5" y="-68" font-family="Helvetica,sans-Serif" font-size="10.00">engine.physics.Force.add</text>
<text text-anchor="middle" x="289" y="-57" font-family="Helvetica,sans-Serif" font-size="10.00">OrChangeValue</text>
</a>
</g>
</g>
<!-- Node1&#45;&gt;Node2 -->
<g id="edge1" class="edge"><title>Node1&#45;&gt;Node2</title>
<path fill="none" stroke="midnightblue" d="M172.222,-50.9492C188.372,-52.9093 204.949,-54.921 220.329,-56.7876"/>
<polygon fill="midnightblue" stroke="midnightblue" points="172.584,-47.4676 162.235,-49.7372 171.74,-54.4166 172.584,-47.4676"/>
</g>
<!-- Node7 -->
<g id="node7" class="node"><title>Node7</title>
<g id="a_node7"><a xlink:href="../../df/dee/classengine_1_1physics_1_1_buoyancy.html#a087a0249fc74d2f03e5f6d7b1f1c4936" target="_top" xlink:title="engine.physics.Buoyancy.calculate\lForce">
<polygon fill="white" stroke="black" points="198.5,-1 198.5,-31 379.5,-31 379.5,-1 198.5,-1"/>
<text text-anchor="start" x="206.5" y="-19" font-family="Helvetica,sans-Serif" font-size="10.00">engine.physics.Buoyancy.calculate</text>
<text text-anchor="middle" x="289" y="-8" font-family="Helvetica,sans-Serif" font-size="10.00">Force</text>
</a>
</g>
</g>
<!-- Node1&#45;&gt;Node7 -->
<g id="edge6" class="edge"><title>Node1&#45;&gt;Node7</title>
<path fill="none" stroke="midnightblue" d="M172.329,-29.4762C180.988,-28.4674 189.768,-27.4445 198.42,-26.4365"/>
<polygon fill="midnightblue" stroke="midnightblue" points="171.763,-26.0185 162.235,-30.6523 172.573,-32.9714 171.763,-26.0185"/>
</g>
<!-- Node3 -->
<g id="node3" class="node"><title>Node3</title>
<g id="a_node3"><a xlink:href="../../d9/d9d/classengine_1_1game_object_1_1components_1_1_physics_body.html#a5241a38b82aed5ed11e7b3674ecb83ce" target="_top" xlink:title="engine.gameObject.components.\lPhysicsBody.addForce">
<polygon fill="white" stroke="black" points="416,-50 416,-80 592,-80 592,-50 416,-50"/>
<text text-anchor="start" x="424" y="-68" font-family="Helvetica,sans-Serif" font-size="10.00">engine.gameObject.components.</text>
<text text-anchor="middle" x="504" y="-57" font-family="Helvetica,sans-Serif" font-size="10.00">PhysicsBody.addForce</text>
</a>
</g>
</g>
<!-- Node2&#45;&gt;Node3 -->
<g id="edge2" class="edge"><title>Node2&#45;&gt;Node3</title>
<path fill="none" stroke="midnightblue" d="M367.828,-65C383.48,-65 400.024,-65 415.966,-65"/>
<polygon fill="midnightblue" stroke="midnightblue" points="367.687,-61.5001 357.687,-65 367.687,-68.5001 367.687,-61.5001"/>
</g>
<!-- Node4 -->
<g id="node4" class="node"><title>Node4</title>
<g id="a_node4"><a xlink:href="../../d7/d00/classengine_1_1tests_1_1_main_engine_tests.html#ad06079aee97fd7ffd4f2b14a8f01b808" target="_top" xlink:title="engine.tests.MainEngineTests.create\lGameObject">
<polygon fill="white" stroke="black" points="628.5,-75 628.5,-105 819.5,-105 819.5,-75 628.5,-75"/>
<text text-anchor="start" x="636.5" y="-93" font-family="Helvetica,sans-Serif" font-size="10.00">engine.tests.MainEngineTests.create</text>
<text text-anchor="middle" x="724" y="-82" font-family="Helvetica,sans-Serif" font-size="10.00">GameObject</text>
</a>
</g>
</g>
<!-- Node3&#45;&gt;Node4 -->
<g id="edge3" class="edge"><title>Node3&#45;&gt;Node4</title>
<path fill="none" stroke="midnightblue" d="M602.178,-76.1443C610.814,-77.1347 619.551,-78.1366 628.167,-79.1247"/>
<polygon fill="midnightblue" stroke="midnightblue" points="602.433,-72.6506 592.099,-74.9884 601.635,-79.6051 602.433,-72.6506"/>
</g>
<!-- Node6 -->
<g id="node6" class="node"><title>Node6</title>
<g id="a_node6"><a xlink:href="../../df/d71/classengine_1_1tests_1_1_physics_body_testing.html#a972062e773bb78d10114b5c8d0ee9be3" target="_top" xlink:title="engine.tests.PhysicsBody\lTesting.main">
<polygon fill="white" stroke="black" points="655,-26 655,-56 793,-56 793,-26 655,-26"/>
<text text-anchor="start" x="663" y="-44" font-family="Helvetica,sans-Serif" font-size="10.00">engine.tests.PhysicsBody</text>
<text text-anchor="middle" x="724" y="-33" font-family="Helvetica,sans-Serif" font-size="10.00">Testing.main</text>
</a>
</g>
</g>
<!-- Node3&#45;&gt;Node6 -->
<g id="edge5" class="edge"><title>Node3&#45;&gt;Node6</title>
<path fill="none" stroke="midnightblue" d="M602.449,-54.2717C620.131,-52.325 638.223,-50.3332 654.836,-48.5043"/>
<polygon fill="midnightblue" stroke="midnightblue" points="601.656,-50.8377 592.099,-55.4111 602.422,-57.7957 601.656,-50.8377"/>
</g>
<!-- Node5 -->
<g id="node5" class="node"><title>Node5</title>
<g id="a_node5"><a xlink:href="../../d7/d00/classengine_1_1tests_1_1_main_engine_tests.html#ad1e78dcd3453ebdeb09141cba734c133" target="_top" xlink:title="engine.tests.MainEngineTests.start">
<polygon fill="white" stroke="black" points="856.5,-80.5 856.5,-99.5 1039.5,-99.5 1039.5,-80.5 856.5,-80.5"/>
<text text-anchor="middle" x="948" y="-87.5" font-family="Helvetica,sans-Serif" font-size="10.00">engine.tests.MainEngineTests.start</text>
</a>
</g>
</g>
<!-- Node4&#45;&gt;Node5 -->
<g id="edge4" class="edge"><title>Node4&#45;&gt;Node5</title>
<path fill="none" stroke="midnightblue" d="M829.796,-90C838.688,-90 847.633,-90 856.403,-90"/>
<polygon fill="midnightblue" stroke="midnightblue" points="829.792,-86.5001 819.792,-90 829.792,-93.5001 829.792,-86.5001"/>
</g>
</g>
</svg>
