<?xml version="1.0" encoding="UTF-8" standalone="no"?>
<!DOCTYPE svg PUBLIC "-//W3C//DTD SVG 1.1//EN"
 "http://www.w3.org/Graphics/SVG/1.1/DTD/svg11.dtd">
<!-- Generated by graphviz version 2.36.0 (20140111.2315)
 -->
<!-- Title: engine.physics.Force.calculateMagnitude Pages: 1 -->
<!--zoomable 137 -->
<svg id="main" version="1.1" xmlns="http://www.w3.org/2000/svg" xmlns:xlink="http://www.w3.org/1999/xlink" xml:space="preserve" onload="init(evt)">
<style type="text/css"><![CDATA[
.edge:hover path { stroke: red; }
.edge:hover polygon { stroke: red; fill: red; }
]]></style>
<script type="text/javascript"><![CDATA[
var edges = document.getElementsByTagName('g');
if (edges && edges.length) {
  for (var i=0;i<edges.length;i++) {
    if (edges[i].id.substr(0,4)=='edge') {
      edges[i].setAttribute('class','edge');
    }
  }
}
]]></script>
        <defs>
                <circle id="rim" cx="0" cy="0" r="7"/>
                <circle id="rim2" cx="0" cy="0" r="3.5"/>
                <g id="zoomPlus">
                        <use xlink:href="#rim" fill="#404040">
                                <set attributeName="fill" to="#808080" begin="zoomplus.mouseover" end="zoomplus.mouseout"/>
                        </use>
                        <path d="M-4,0h8M0,-4v8" fill="none" stroke="white" stroke-width="1.5" pointer-events="none"/>
                </g>
                <g id="zoomMin">
                        <use xlink:href="#rim" fill="#404040">
                                <set attributeName="fill" to="#808080" begin="zoomminus.mouseover" end="zoomminus.mouseout"/>
                        </use>
                        <path d="M-4,0h8" fill="none" stroke="white" stroke-width="1.5" pointer-events="none"/>
                </g>
                <g id="dirArrow">
                        <path fill="none" stroke="white" stroke-width="1.5" d="M0,-3.0v7 M-2.5,-0.5L0,-3.0L2.5,-0.5"/>
                </g>
               <g id="resetDef">
                       <use xlink:href="#rim2" fill="#404040">
                               <set attributeName="fill" to="#808080" begin="reset.mouseover" end="reset.mouseout"/>
                       </use>
               </g>
        </defs>

<script type="text/javascript">
var viewWidth = 1048;
var viewHeight = 137;
var sectionId = 'dynsection-6';
</script>
<script xlink:href="../../svgpan.js"/>
<svg id="graph" class="graph">
<g id="viewport">
<title>engine.physics.Force.calculateMagnitude</title>
<polygon fill="white" stroke="none" points="-4,4 -4,-133 1044,-133 1044,4 -4,4"/>
<!-- Node1 -->
<g id="node1" class="node"><title>Node1</title>
<polygon fill="#bfbfbf" stroke="black" points="0,-25 0,-55 162,-55 162,-25 0,-25"/>
<text text-anchor="start" x="8" y="-43" font-family="Helvetica,sans-Serif" font-size="10.00">engine.physics.Force.calculate</text>
<text text-anchor="middle" x="81" y="-32" font-family="Helvetica,sans-Serif" font-size="10.00">Magnitude</text>
</g>
<!-- Node2 -->
<g id="node2" class="node"><title>Node2</title>
<g id="a_node2"><a xlink:href="../../da/d09/classengine_1_1physics_1_1_force.html#a74549d9d00eace015d869eb197607f8a" target="_top" xlink:title="engine.physics.Force.add\lOrChangeValue">
<polygon fill="white" stroke="black" points="220.5,-50 220.5,-80 357.5,-80 357.5,-50 220.5,-50"/>
<text text-anchor="start" x="228.5" y="-68" font-family="Helvetica,sans-Serif" font-size="10.00">engine.physics.Force.add</text>
<text text-anchor="middle" x="289" y="-57" font-family="Helvetica,sans-Serif" font-size="10.00">OrChangeValue</text>
</a>
</g>
</g>
<!-- Node1&#45;&gt;Node2 -->
<g id="edge1" class="edge"><title>Node1&#45;&gt;Node2</title>
<path fill="none" stroke="midnightblue" d="M172.222,-50.9492C188.372,-52.9093 204.949,-54.921 220.329,-56.7876"/>
<polygon fill="midnightblue" stroke="midnightblue" points="172.584,-47.4676 162.235,-49.7372 171.74,-54.4166 172.584,-47.4676"/>
</g>
<!-- Node9 -->
<g id="node9" class="node"><title>Node9</title>
<g id="a_node9"><a xlink:href="../../df/dee/classengine_1_1physics_1_1_buoyancy.html#a087a0249fc74d2f03e5f6d7b1f1c4936" target="_top" xlink:title="engine.physics.Buoyancy.calculate\lForce">
<polygon fill="white" stroke="black" points="198.5,-1 198.5,-31 379.5,-31 379.5,-1 198.5,-1"/>
<text text-anchor="start" x="206.5" y="-19" font-family="Helvetica,sans-Serif" font-size="10.00">engine.physics.Buoyancy.calculate</text>
<text text-anchor="middle" x="289" y="-8" font-family="Helvetica,sans-Serif" font-size="10.00">Force</text>
</a>
</g>
</g>
<!-- Node1&#45;&gt;Node9 -->
<g id="edge8" class="edge"><title>Node1&#45;&gt;Node9</title>
<path fill="none" stroke="midnightblue" d="M172.329,-29.4762C180.988,-28.4674 189.768,-27.4445 198.42,-26.4365"/>
<polygon fill="midnightblue" stroke="midnightblue" points="171.763,-26.0185 162.235,-30.6523 172.573,-32.9714 171.763,-26.0185"/>
</g>
<!-- Node3 -->
<g id="node3" class="node"><title>Node3</title>
<g id="a_node3"><a xlink:href="../../d9/d9d/classengine_1_1game_object_1_1components_1_1_physics_body.html#a5241a38b82aed5ed11e7b3674ecb83ce" target="_top" xlink:title="engine.gameObject.components.\lPhysicsBody.addForce">
<polygon fill="white" stroke="black" points="416,-50 416,-80 592,-80 592,-50 416,-50"/>
<text text-anchor="start" x="424" y="-68" font-family="Helvetica,sans-Serif" font-size="10.00">engine.gameObject.components.</text>
<text text-anchor="middle" x="504" y="-57" font-family="Helvetica,sans-Serif" font-size="10.00">PhysicsBody.addForce</text>
</a>
</g>
</g>
<!-- Node2&#45;&gt;Node3 -->
<g id="edge2" class="edge"><title>Node2&#45;&gt;Node3</title>
<path fill="none" stroke="midnightblue" d="M367.828,-65C383.48,-65 400.024,-65 415.966,-65"/>
<polygon fill="midnightblue" stroke="midnightblue" points="367.687,-61.5001 357.687,-65 367.687,-68.5001 367.687,-61.5001"/>
</g>
<!-- Node4 -->
<g id="node4" class="node"><title>Node4</title>
<g id="a_node4"><a xlink:href="../../d7/d00/classengine_1_1tests_1_1_main_engine_tests.html#ad06079aee97fd7ffd4f2b14a8f01b808" target="_top" xlink:title="engine.tests.MainEngineTests.create\lGameObject">
<polygon fill="white" stroke="black" points="628.5,-99 628.5,-129 819.5,-129 819.5,-99 628.5,-99"/>
<text text-anchor="start" x="636.5" y="-117" font-family="Helvetica,sans-Serif" font-size="10.00">engine.tests.MainEngineTests.create</text>
<text text-anchor="middle" x="724" y="-106" font-family="Helvetica,sans-Serif" font-size="10.00">GameObject</text>
</a>
</g>
</g>
<!-- Node3&#45;&gt;Node4 -->
<g id="edge3" class="edge"><title>Node3&#45;&gt;Node4</title>
<path fill="none" stroke="midnightblue" d="M581.781,-82.2581C606.072,-87.718 632.708,-93.705 656.238,-98.9938"/>
<polygon fill="midnightblue" stroke="midnightblue" points="582.413,-78.8129 571.889,-80.0346 580.878,-85.6425 582.413,-78.8129"/>
</g>
<!-- Node6 -->
<g id="node6" class="node"><title>Node6</title>
<g id="a_node6"><a xlink:href="../../dc/d21/classgames_1_1_mario_game_test.html#aab9eed35cd4d8ae1d108ae914b6a73ff" target="_top" xlink:title="games.MarioGameTest.create\lGameObject">
<polygon fill="white" stroke="black" points="643.5,-50 643.5,-80 804.5,-80 804.5,-50 643.5,-50"/>
<text text-anchor="start" x="651.5" y="-68" font-family="Helvetica,sans-Serif" font-size="10.00">games.MarioGameTest.create</text>
<text text-anchor="middle" x="724" y="-57" font-family="Helvetica,sans-Serif" font-size="10.00">GameObject</text>
</a>
</g>
</g>
<!-- Node3&#45;&gt;Node6 -->
<g id="edge5" class="edge"><title>Node3&#45;&gt;Node6</title>
<path fill="none" stroke="midnightblue" d="M602.108,-65C615.933,-65 630.017,-65 643.455,-65"/>
<polygon fill="midnightblue" stroke="midnightblue" points="602.099,-61.5001 592.099,-65 602.099,-68.5001 602.099,-61.5001"/>
</g>
<!-- Node8 -->
<g id="node8" class="node"><title>Node8</title>
<g id="a_node8"><a xlink:href="../../df/d71/classengine_1_1tests_1_1_physics_body_testing.html#a972062e773bb78d10114b5c8d0ee9be3" target="_top" xlink:title="engine.tests.PhysicsBody\lTesting.main">
<polygon fill="white" stroke="black" points="655,-1 655,-31 793,-31 793,-1 655,-1"/>
<text text-anchor="start" x="663" y="-19" font-family="Helvetica,sans-Serif" font-size="10.00">engine.tests.PhysicsBody</text>
<text text-anchor="middle" x="724" y="-8" font-family="Helvetica,sans-Serif" font-size="10.00">Testing.main</text>
</a>
</g>
</g>
<!-- Node3&#45;&gt;Node8 -->
<g id="edge7" class="edge"><title>Node3&#45;&gt;Node8</title>
<path fill="none" stroke="midnightblue" d="M581.781,-47.7419C606.072,-42.282 632.708,-36.295 656.238,-31.0062"/>
<polygon fill="midnightblue" stroke="midnightblue" points="580.878,-44.3575 571.889,-49.9654 582.413,-51.1871 580.878,-44.3575"/>
</g>
<!-- Node5 -->
<g id="node5" class="node"><title>Node5</title>
<g id="a_node5"><a xlink:href="../../d7/d00/classengine_1_1tests_1_1_main_engine_tests.html#ad1e78dcd3453ebdeb09141cba734c133" target="_top" xlink:title="engine.tests.MainEngineTests.start">
<polygon fill="white" stroke="black" points="856.5,-104.5 856.5,-123.5 1039.5,-123.5 1039.5,-104.5 856.5,-104.5"/>
<text text-anchor="middle" x="948" y="-111.5" font-family="Helvetica,sans-Serif" font-size="10.00">engine.tests.MainEngineTests.start</text>
</a>
</g>
</g>
<!-- Node4&#45;&gt;Node5 -->
<g id="edge4" class="edge"><title>Node4&#45;&gt;Node5</title>
<path fill="none" stroke="midnightblue" d="M829.796,-114C838.688,-114 847.633,-114 856.403,-114"/>
<polygon fill="midnightblue" stroke="midnightblue" points="829.792,-110.5 819.792,-114 829.792,-117.5 829.792,-110.5"/>
</g>
<!-- Node7 -->
<g id="node7" class="node"><title>Node7</title>
<g id="a_node7"><a xlink:href="../../dc/d21/classgames_1_1_mario_game_test.html#a8b7c287ffdfcacefeb373e7430a608c8" target="_top" xlink:title="games.MarioGameTest.start">
<polygon fill="white" stroke="black" points="872,-55.5 872,-74.5 1024,-74.5 1024,-55.5 872,-55.5"/>
<text text-anchor="middle" x="948" y="-62.5" font-family="Helvetica,sans-Serif" font-size="10.00">games.MarioGameTest.start</text>
</a>
</g>
</g>
<!-- Node6&#45;&gt;Node7 -->
<g id="edge6" class="edge"><title>Node6&#45;&gt;Node7</title>
<path fill="none" stroke="midnightblue" d="M814.638,-65C833.585,-65 853.394,-65 871.744,-65"/>
<polygon fill="midnightblue" stroke="midnightblue" points="814.52,-61.5001 804.52,-65 814.52,-68.5001 814.52,-61.5001"/>
</g>
</g>
</svg>
        <g id="navigator" transform="translate(0 0)" fill="#404254">
                <rect fill="#f2f5e9" fill-opacity="0.5" stroke="#606060" stroke-width=".5" x="0" y="0" width="60" height="60"/>
                <use id="zoomplus" xlink:href="#zoomPlus" x="17" y="9" onmousedown="handleZoom(evt,'in')"/>
                <use id="zoomminus" xlink:href="#zoomMin" x="42" y="9" onmousedown="handleZoom(evt,'out')"/>
                <use id="reset" xlink:href="#resetDef" x="30" y="36" onmousedown="handleReset()"/>
                <g id="arrowUp" xlink:href="#dirArrow" transform="translate(30 24)" onmousedown="handlePan(0,-1)">
                  <use xlink:href="#rim" fill="#404040">
                        <set attributeName="fill" to="#808080" begin="arrowUp.mouseover" end="arrowUp.mouseout"/>
                  </use>
                  <path fill="none" stroke="white" stroke-width="1.5" d="M0,-3.0v7 M-2.5,-0.5L0,-3.0L2.5,-0.5"/>
                </g>
                <g id="arrowRight" xlink:href="#dirArrow" transform="rotate(90) translate(36 -43)" onmousedown="handlePan(1,0)">
                  <use xlink:href="#rim" fill="#404040">
                        <set attributeName="fill" to="#808080" begin="arrowRight.mouseover" end="arrowRight.mouseout"/>
                  </use>
                  <path fill="none" stroke="white" stroke-width="1.5" d="M0,-3.0v7 M-2.5,-0.5L0,-3.0L2.5,-0.5"/>
                </g>
                <g id="arrowDown" xlink:href="#dirArrow" transform="rotate(180) translate(-30 -48)" onmousedown="handlePan(0,1)">
                  <use xlink:href="#rim" fill="#404040">
                        <set attributeName="fill" to="#808080" begin="arrowDown.mouseover" end="arrowDown.mouseout"/>
                  </use>
                  <path fill="none" stroke="white" stroke-width="1.5" d="M0,-3.0v7 M-2.5,-0.5L0,-3.0L2.5,-0.5"/>
                </g>
                <g id="arrowLeft" xlink:href="#dirArrow" transform="rotate(270) translate(-36 17)" onmousedown="handlePan(-1,0)">
                  <use xlink:href="#rim" fill="#404040">
                        <set attributeName="fill" to="#808080" begin="arrowLeft.mouseover" end="arrowLeft.mouseout"/>
                  </use>
                  <path fill="none" stroke="white" stroke-width="1.5" d="M0,-3.0v7 M-2.5,-0.5L0,-3.0L2.5,-0.5"/>
                </g>
        </g>
        <svg viewBox="0 0 15 15" width="100%" height="30px" preserveAspectRatio="xMaxYMin meet">
         <g id="arrow_out" transform="scale(0.3 0.3)">
          <a xlink:href="classengine_1_1physics_1_1_force_a198437861f88d7351509aa4e947679e0_icgraph_org.svg" target="_base">
           <rect id="button" ry="5" rx="5" y="6" x="6" height="38" width="38"
                fill="#f2f5e9" fill-opacity="0.5" stroke="#606060" stroke-width="1.0"/>
           <path id="arrow"
             d="M 11.500037,31.436501 C 11.940474,20.09759 22.043105,11.32322 32.158766,21.979434 L 37.068811,17.246167 C 37.068811,17.246167 37.088388,32 37.088388,32 L 22.160133,31.978069 C 22.160133,31.978069 26.997745,27.140456 26.997745,27.140456 C 18.528582,18.264221 13.291696,25.230495 11.500037,31.436501 z"
             style="fill:#404040;"/>
          </a>
         </g>
        </svg>
</svg>
