<?xml version="1.0" encoding="UTF-8" standalone="no"?>
<!DOCTYPE svg PUBLIC "-//W3C//DTD SVG 1.1//EN"
 "http://www.w3.org/Graphics/SVG/1.1/DTD/svg11.dtd">
<!-- Generated by graphviz version 2.36.0 (20140111.2315)
 -->
<!-- Title: engine.physics.Force.iterator Pages: 1 -->
<svg width="824pt" height="87pt"
 viewBox="0.00 0.00 824.00 87.00" xmlns="http://www.w3.org/2000/svg" xmlns:xlink="http://www.w3.org/1999/xlink">
<g id="graph0" class="graph" transform="scale(1 1) rotate(0) translate(4 83)">
<title>engine.physics.Force.iterator</title>
<polygon fill="white" stroke="none" points="-4,4 -4,-83 820,-83 820,4 -4,4"/>
<!-- Node1 -->
<g id="node1" class="node"><title>Node1</title>
<polygon fill="#bfbfbf" stroke="black" points="0.5,-29.5 0.5,-48.5 155.5,-48.5 155.5,-29.5 0.5,-29.5"/>
<text text-anchor="middle" x="78" y="-36.5" font-family="Helvetica,sans-Serif" font-size="10.00">engine.physics.Force.iterator</text>
</g>
<!-- Node2 -->
<g id="node2" class="node"><title>Node2</title>
<g id="a_node2"><a xlink:href="../../d9/d9d/classengine_1_1game_object_1_1components_1_1_physics_body.html#a5241a38b82aed5ed11e7b3674ecb83ce" target="_top" xlink:title="engine.gameObject.components.\lPhysicsBody.addForce">
<polygon fill="white" stroke="black" points="192,-24 192,-54 368,-54 368,-24 192,-24"/>
<text text-anchor="start" x="200" y="-42" font-family="Helvetica,sans-Serif" font-size="10.00">engine.gameObject.components.</text>
<text text-anchor="middle" x="280" y="-31" font-family="Helvetica,sans-Serif" font-size="10.00">PhysicsBody.addForce</text>
</a>
</g>
</g>
<!-- Node1&#45;&gt;Node2 -->
<g id="edge1" class="edge"><title>Node1&#45;&gt;Node2</title>
<path fill="none" stroke="midnightblue" d="M165.791,-39C174.407,-39 183.157,-39 191.777,-39"/>
<polygon fill="midnightblue" stroke="midnightblue" points="165.753,-35.5001 155.753,-39 165.753,-42.5001 165.753,-35.5001"/>
</g>
<!-- Node3 -->
<g id="node3" class="node"><title>Node3</title>
<g id="a_node3"><a xlink:href="../../d7/d00/classengine_1_1tests_1_1_main_engine_tests.html#ad06079aee97fd7ffd4f2b14a8f01b808" target="_top" xlink:title="engine.tests.MainEngineTests.create\lGameObject">
<polygon fill="white" stroke="black" points="404.5,-49 404.5,-79 595.5,-79 595.5,-49 404.5,-49"/>
<text text-anchor="start" x="412.5" y="-67" font-family="Helvetica,sans-Serif" font-size="10.00">engine.tests.MainEngineTests.create</text>
<text text-anchor="middle" x="500" y="-56" font-family="Helvetica,sans-Serif" font-size="10.00">GameObject</text>
</a>
</g>
</g>
<!-- Node2&#45;&gt;Node3 -->
<g id="edge2" class="edge"><title>Node2&#45;&gt;Node3</title>
<path fill="none" stroke="midnightblue" d="M378.178,-50.1443C386.814,-51.1347 395.551,-52.1366 404.167,-53.1247"/>
<polygon fill="midnightblue" stroke="midnightblue" points="378.433,-46.6506 368.099,-48.9884 377.635,-53.6051 378.433,-46.6506"/>
</g>
<!-- Node5 -->
<g id="node5" class="node"><title>Node5</title>
<g id="a_node5"><a xlink:href="../../df/d71/classengine_1_1tests_1_1_physics_body_testing.html#a972062e773bb78d10114b5c8d0ee9be3" target="_top" xlink:title="engine.tests.PhysicsBody\lTesting.main">
<polygon fill="white" stroke="black" points="431,-0 431,-30 569,-30 569,-0 431,-0"/>
<text text-anchor="start" x="439" y="-18" font-family="Helvetica,sans-Serif" font-size="10.00">engine.tests.PhysicsBody</text>
<text text-anchor="middle" x="500" y="-7" font-family="Helvetica,sans-Serif" font-size="10.00">Testing.main</text>
</a>
</g>
</g>
<!-- Node2&#45;&gt;Node5 -->
<g id="edge4" class="edge"><title>Node2&#45;&gt;Node5</title>
<path fill="none" stroke="midnightblue" d="M378.449,-28.2717C396.131,-26.325 414.223,-24.3332 430.836,-22.5043"/>
<polygon fill="midnightblue" stroke="midnightblue" points="377.656,-24.8377 368.099,-29.4111 378.422,-31.7957 377.656,-24.8377"/>
</g>
<!-- Node4 -->
<g id="node4" class="node"><title>Node4</title>
<g id="a_node4"><a xlink:href="../../d7/d00/classengine_1_1tests_1_1_main_engine_tests.html#ad1e78dcd3453ebdeb09141cba734c133" target="_top" xlink:title="engine.tests.MainEngineTests.start">
<polygon fill="white" stroke="black" points="632.5,-54.5 632.5,-73.5 815.5,-73.5 815.5,-54.5 632.5,-54.5"/>
<text text-anchor="middle" x="724" y="-61.5" font-family="Helvetica,sans-Serif" font-size="10.00">engine.tests.MainEngineTests.start</text>
</a>
</g>
</g>
<!-- Node3&#45;&gt;Node4 -->
<g id="edge3" class="edge"><title>Node3&#45;&gt;Node4</title>
<path fill="none" stroke="midnightblue" d="M605.796,-64C614.688,-64 623.633,-64 632.403,-64"/>
<polygon fill="midnightblue" stroke="midnightblue" points="605.792,-60.5001 595.792,-64 605.792,-67.5001 605.792,-60.5001"/>
</g>
</g>
</svg>
