<?xml version="1.0" encoding="UTF-8" standalone="no"?>
<!DOCTYPE svg PUBLIC "-//W3C//DTD SVG 1.1//EN"
 "http://www.w3.org/Graphics/SVG/1.1/DTD/svg11.dtd">
<!-- Generated by graphviz version 2.36.0 (20140111.2315)
 -->
<!-- Title: engine.actions.ProgressAction Pages: 1 -->
<svg width="311pt" height="196pt"
 viewBox="0.00 0.00 311.00 196.00" xmlns="http://www.w3.org/2000/svg" xmlns:xlink="http://www.w3.org/1999/xlink">
<g id="graph0" class="graph" transform="scale(1 1) rotate(0) translate(4 192)">
<title>engine.actions.ProgressAction</title>
<polygon fill="white" stroke="none" points="-4,4 -4,-192 307,-192 307,4 -4,4"/>
<!-- Node1 -->
<g id="node1" class="node"><title>Node1</title>
<polygon fill="#bfbfbf" stroke="black" points="70.5,-56.5 70.5,-75.5 231.5,-75.5 231.5,-56.5 70.5,-56.5"/>
<text text-anchor="middle" x="151" y="-63.5" font-family="Helvetica,sans-Serif" font-size="10.00">engine.actions.ProgressAction</text>
</g>
<!-- Node4 -->
<g id="node4" class="node"><title>Node4</title>
<g id="a_node4"><a xlink:href="../../d1/d37/classengine_1_1actions_1_1_load_action.html" target="_top" xlink:title="engine.actions.LoadAction">
<polygon fill="white" stroke="black" points="-0.5,-0.5 -0.5,-19.5 142.5,-19.5 142.5,-0.5 -0.5,-0.5"/>
<text text-anchor="middle" x="71" y="-7.5" font-family="Helvetica,sans-Serif" font-size="10.00">engine.actions.LoadAction</text>
</a>
</g>
</g>
<!-- Node1&#45;&gt;Node4 -->
<g id="edge4" class="edge"><title>Node1&#45;&gt;Node4</title>
<path fill="none" stroke="midnightblue" d="M129.699,-50.6221C115.085,-40.7574 96.1732,-27.9919 83.8215,-19.6545"/>
<polygon fill="midnightblue" stroke="midnightblue" points="127.9,-53.6302 138.147,-56.324 131.816,-47.8282 127.9,-53.6302"/>
</g>
<!-- Node5 -->
<g id="node5" class="node"><title>Node5</title>
<g id="a_node5"><a xlink:href="../../d6/d11/classengine_1_1actions_1_1_save_action.html" target="_top" xlink:title="engine.actions.SaveAction">
<polygon fill="white" stroke="black" points="160.5,-0.5 160.5,-19.5 303.5,-19.5 303.5,-0.5 160.5,-0.5"/>
<text text-anchor="middle" x="232" y="-7.5" font-family="Helvetica,sans-Serif" font-size="10.00">engine.actions.SaveAction</text>
</a>
</g>
</g>
<!-- Node1&#45;&gt;Node5 -->
<g id="edge5" class="edge"><title>Node1&#45;&gt;Node5</title>
<path fill="none" stroke="midnightblue" d="M172.567,-50.6221C187.364,-40.7574 206.512,-27.9919 219.018,-19.6545"/>
<polygon fill="midnightblue" stroke="midnightblue" points="170.393,-47.8647 164.014,-56.324 174.276,-53.6891 170.393,-47.8647"/>
</g>
<!-- Node2 -->
<g id="node2" class="node"><title>Node2</title>
<g id="a_node2"><a xlink:href="../../d9/dd2/interfaceengine_1_1actions_1_1_action.html" target="_top" xlink:title="engine.actions.Action">
<polygon fill="white" stroke="black" points="135.5,-112.5 135.5,-131.5 254.5,-131.5 254.5,-112.5 135.5,-112.5"/>
<text text-anchor="middle" x="195" y="-119.5" font-family="Helvetica,sans-Serif" font-size="10.00">engine.actions.Action</text>
</a>
</g>
</g>
<!-- Node2&#45;&gt;Node1 -->
<g id="edge1" class="edge"><title>Node2&#45;&gt;Node1</title>
<path fill="none" stroke="midnightblue" d="M181.265,-104.144C173.599,-94.7357 164.367,-83.4046 158.131,-75.7511"/>
<polygon fill="midnightblue" stroke="midnightblue" points="178.704,-106.541 187.734,-112.083 184.131,-102.12 178.704,-106.541"/>
</g>
<!-- Node3 -->
<g id="node3" class="node"><title>Node3</title>
<g id="a_node3"><a xlink:href="../../d2/d15/interfaceengine_1_1actions_1_1_initializable.html" target="_top" xlink:title="engine.actions.Initializable">
<polygon fill="white" stroke="black" points="80,-168.5 80,-187.5 222,-187.5 222,-168.5 80,-168.5"/>
<text text-anchor="middle" x="151" y="-175.5" font-family="Helvetica,sans-Serif" font-size="10.00">engine.actions.Initializable</text>
</a>
</g>
</g>
<!-- Node3&#45;&gt;Node1 -->
<g id="edge3" class="edge"><title>Node3&#45;&gt;Node1</title>
<path fill="none" stroke="midnightblue" d="M139.243,-159.769C134.437,-151.71 129.439,-141.755 127,-132 121.807,-111.227 135.438,-87.9166 144.227,-75.6403"/>
<polygon fill="midnightblue" stroke="midnightblue" points="136.309,-161.678 144.633,-168.232 142.213,-157.917 136.309,-161.678"/>
</g>
<!-- Node3&#45;&gt;Node2 -->
<g id="edge2" class="edge"><title>Node3&#45;&gt;Node2</title>
<path fill="none" stroke="midnightblue" d="M164.735,-160.144C172.401,-150.736 181.633,-139.405 187.869,-131.751"/>
<polygon fill="midnightblue" stroke="midnightblue" points="161.869,-158.12 158.266,-168.083 167.296,-162.541 161.869,-158.12"/>
</g>
</g>
</svg>
