<?xml version="1.0" encoding="UTF-8" standalone="no"?>
<!DOCTYPE svg PUBLIC "-//W3C//DTD SVG 1.1//EN"
 "http://www.w3.org/Graphics/SVG/1.1/DTD/svg11.dtd">
<!-- Generated by graphviz version 2.36.0 (20140111.2315)
 -->
<!-- Title: authoring.view.gameobjectsview.GameObjectOptions.addNewTabButton Pages: 1 -->
<svg width="462pt" height="38pt"
 viewBox="0.00 0.00 462.00 38.00" xmlns="http://www.w3.org/2000/svg" xmlns:xlink="http://www.w3.org/1999/xlink">
<g id="graph0" class="graph" transform="scale(1 1) rotate(0) translate(4 34)">
<title>authoring.view.gameobjectsview.GameObjectOptions.addNewTabButton</title>
<polygon fill="white" stroke="none" points="-4,4 -4,-34 458,-34 458,4 -4,4"/>
<!-- Node1 -->
<g id="node1" class="node"><title>Node1</title>
<polygon fill="#bfbfbf" stroke="black" points="0.5,-0 0.5,-30 203.5,-30 203.5,-0 0.5,-0"/>
<text text-anchor="start" x="8.5" y="-18" font-family="Helvetica,sans-Serif" font-size="10.00">authoring.view.gameobjectsview.</text>
<text text-anchor="middle" x="102" y="-7" font-family="Helvetica,sans-Serif" font-size="10.00">GameObjectOptions.addNewTabButton</text>
</g>
<!-- Node2 -->
<g id="node2" class="node"><title>Node2</title>
<g id="a_node2"><a xlink:href="../../d6/d03/classauthoring_1_1view_1_1gameobjectsview_1_1_game_object_options.html#af3fcf989916bbd24061fb373902195eb" target="_top" xlink:title="authoring.view.gameobjectsview.\lGameObjectOptions.GameObjectOptions">
<polygon fill="white" stroke="black" points="240.5,-0 240.5,-30 453.5,-30 453.5,-0 240.5,-0"/>
<text text-anchor="start" x="248.5" y="-18" font-family="Helvetica,sans-Serif" font-size="10.00">authoring.view.gameobjectsview.</text>
<text text-anchor="middle" x="347" y="-7" font-family="Helvetica,sans-Serif" font-size="10.00">GameObjectOptions.GameObjectOptions</text>
</a>
</g>
</g>
<!-- Node1&#45;&gt;Node2 -->
<g id="edge1" class="edge"><title>Node1&#45;&gt;Node2</title>
<path fill="none" stroke="midnightblue" d="M213.607,-15C222.516,-15 231.504,-15 240.377,-15"/>
<polygon fill="midnightblue" stroke="midnightblue" points="213.592,-11.5001 203.591,-15 213.591,-18.5001 213.592,-11.5001"/>
</g>
</g>
</svg>
