<?xml version="1.0" encoding="UTF-8" standalone="no"?>
<!DOCTYPE svg PUBLIC "-//W3C//DTD SVG 1.1//EN"
 "http://www.w3.org/Graphics/SVG/1.1/DTD/svg11.dtd">
<!-- Generated by graphviz version 2.36.0 (20140111.2315)
 -->
<!-- Title: engine.level.LevelManager Pages: 1 -->
<svg width="1284pt" height="443pt"
 viewBox="0.00 0.00 1284.00 443.00" xmlns="http://www.w3.org/2000/svg" xmlns:xlink="http://www.w3.org/1999/xlink">
<g id="graph0" class="graph" transform="scale(1 1) rotate(0) translate(4 439)">
<title>engine.level.LevelManager</title>
<polygon fill="white" stroke="none" points="-4,4 -4,-439 1280,-439 1280,4 -4,4"/>
<!-- Node1 -->
<g id="node1" class="node"><title>Node1</title>
<polygon fill="#bfbfbf" stroke="black" points="1132.5,-194.5 1132.5,-213.5 1275.5,-213.5 1275.5,-194.5 1132.5,-194.5"/>
<text text-anchor="middle" x="1204" y="-201.5" font-family="Helvetica,sans-Serif" font-size="10.00">engine.level.LevelManager</text>
</g>
<!-- Node2 -->
<g id="node2" class="node"><title>Node2</title>
<polygon fill="white" stroke="#bfbfbf" points="890,-388.5 890,-407.5 990,-407.5 990,-388.5 890,-388.5"/>
<text text-anchor="middle" x="940" y="-395.5" font-family="Helvetica,sans-Serif" font-size="10.00">Iterable&lt; Level &gt;</text>
</g>
<!-- Node2&#45;&gt;Node1 -->
<g id="edge1" class="edge"><title>Node2&#45;&gt;Node1</title>
<path fill="none" stroke="midnightblue" d="M1000.47,-398.518C1036.36,-396.052 1081.33,-387.754 1114,-364 1167.99,-324.749 1193.29,-242.228 1200.64,-213.84"/>
<polygon fill="midnightblue" stroke="midnightblue" points="999.914,-395.043 990.121,-399.087 1000.3,-402.032 999.914,-395.043"/>
</g>
<!-- Node3 -->
<g id="node3" class="node"><title>Node3</title>
<g id="a_node3"><a xlink:href="../../df/de5/classauthoring_1_1model_1_1collections_1_1_levels_collection.html" target="_top" xlink:title="authoring.model.collections.\lLevelsCollection">
<polygon fill="white" stroke="black" points="570,-62 570,-92 722,-92 722,-62 570,-62"/>
<text text-anchor="start" x="578" y="-80" font-family="Helvetica,sans-Serif" font-size="10.00">authoring.model.collections.</text>
<text text-anchor="middle" x="646" y="-69" font-family="Helvetica,sans-Serif" font-size="10.00">LevelsCollection</text>
</a>
</g>
</g>
<!-- Node3&#45;&gt;Node1 -->
<g id="edge2" class="edge"><title>Node3&#45;&gt;Node1</title>
<path fill="none" stroke="#9a32cd" stroke-dasharray="5,2" d="M732.709,-81.9914C767.953,-84.7595 809.085,-88.9125 846,-95 967.578,-115.049 998.263,-123.713 1114,-166 1137.83,-174.706 1164.51,-186.363 1182.39,-194.46"/>
<polygon fill="#9a32cd" stroke="#9a32cd" points="732.691,-78.48 722.454,-81.2116 732.16,-85.4598 732.691,-78.48"/>
<text text-anchor="middle" x="940" y="-135" font-family="Helvetica,sans-Serif" font-size="10.00"> myLevels</text>
</g>
<!-- Node17 -->
<g id="node17" class="node"><title>Node17</title>
<g id="a_node17"><a xlink:href="../../da/d90/classengine_1_1sound_1_1_sound_utility.html" target="_top" xlink:title="engine.sound.SoundUtility">
<polygon fill="white" stroke="black" points="869,-156.5 869,-175.5 1011,-175.5 1011,-156.5 869,-156.5"/>
<text text-anchor="middle" x="940" y="-163.5" font-family="Helvetica,sans-Serif" font-size="10.00">engine.sound.SoundUtility</text>
</a>
</g>
</g>
<!-- Node3&#45;&gt;Node17 -->
<g id="edge19" class="edge"><title>Node3&#45;&gt;Node17</title>
<path fill="none" stroke="#9a32cd" stroke-dasharray="5,2" d="M730.558,-94.3472C766.477,-102.631 808.693,-113.479 846,-126 871.994,-134.724 900.842,-147.669 919.413,-156.451"/>
<polygon fill="#9a32cd" stroke="#9a32cd" points="731.131,-90.8881 720.603,-92.0795 729.576,-97.7132 731.131,-90.8881"/>
<text text-anchor="middle" x="797" y="-129" font-family="Helvetica,sans-Serif" font-size="10.00"> myLevels</text>
</g>
<!-- Node4 -->
<g id="node4" class="node"><title>Node4</title>
<g id="a_node4"><a xlink:href="../../d4/d3b/classauthoring_1_1model_1_1collections_1_1_general_collection.html" target="_top" xlink:title="authoring.model.collections.\lGeneralCollection\&lt; Level \&gt;">
<polygon fill="white" stroke="black" points="249,-62 249,-92 401,-92 401,-62 249,-62"/>
<text text-anchor="start" x="257" y="-80" font-family="Helvetica,sans-Serif" font-size="10.00">authoring.model.collections.</text>
<text text-anchor="middle" x="325" y="-69" font-family="Helvetica,sans-Serif" font-size="10.00">GeneralCollection&lt; Level &gt;</text>
</a>
</g>
</g>
<!-- Node4&#45;&gt;Node3 -->
<g id="edge3" class="edge"><title>Node4&#45;&gt;Node3</title>
<path fill="none" stroke="midnightblue" d="M411.216,-77C460.588,-77 522.186,-77 569.758,-77"/>
<polygon fill="midnightblue" stroke="midnightblue" points="411.195,-73.5001 401.195,-77 411.195,-80.5001 411.195,-73.5001"/>
</g>
<!-- Node5 -->
<g id="node5" class="node"><title>Node5</title>
<g id="a_node5"><a xlink:href="../../df/de5/classengine_1_1render_1_1_game_object_renderer.html" target="_top" xlink:title="engine.render.GameObject\lRenderer">
<polygon fill="white" stroke="black" points="867,-339 867,-369 1013,-369 1013,-339 867,-339"/>
<text text-anchor="start" x="875" y="-357" font-family="Helvetica,sans-Serif" font-size="10.00">engine.render.GameObject</text>
<text text-anchor="middle" x="940" y="-346" font-family="Helvetica,sans-Serif" font-size="10.00">Renderer</text>
</a>
</g>
</g>
<!-- Node5&#45;&gt;Node1 -->
<g id="edge4" class="edge"><title>Node5&#45;&gt;Node1</title>
<path fill="none" stroke="#9a32cd" stroke-dasharray="5,2" d="M1023.19,-351.793C1053.53,-347.872 1087.06,-339.63 1114,-323 1158.57,-295.494 1188.42,-236.783 1198.87,-213.653"/>
<polygon fill="#9a32cd" stroke="#9a32cd" points="1022.56,-348.341 1013.03,-352.963 1023.37,-355.295 1022.56,-348.341"/>
<text text-anchor="middle" x="1074" y="-352" font-family="Helvetica,sans-Serif" font-size="10.00"> myRenderer</text>
</g>
<!-- Node6 -->
<g id="node6" class="node"><title>Node6</title>
<polygon fill="white" stroke="#bfbfbf" points="570,-405 570,-435 722,-435 722,-405 570,-405"/>
<text text-anchor="start" x="578" y="-423" font-family="Helvetica,sans-Serif" font-size="10.00">Map&lt; String, engine.render.</text>
<text text-anchor="middle" x="646" y="-412" font-family="Helvetica,sans-Serif" font-size="10.00">RenderedNode &gt;</text>
</g>
<!-- Node6&#45;&gt;Node5 -->
<g id="edge5" class="edge"><title>Node6&#45;&gt;Node5</title>
<path fill="none" stroke="#9a32cd" stroke-dasharray="5,2" d="M732.393,-406.411C767.755,-400.192 809.058,-392.16 846,-383 861.923,-379.052 879.131,-373.932 894.365,-369.095"/>
<polygon fill="#9a32cd" stroke="#9a32cd" points="731.357,-403.038 722.104,-408.199 732.556,-409.935 731.357,-403.038"/>
<text text-anchor="middle" x="797" y="-406" font-family="Helvetica,sans-Serif" font-size="10.00"> myRenderedNodes</text>
</g>
<!-- Node7 -->
<g id="node7" class="node"><title>Node7</title>
<g id="a_node7"><a xlink:href="../../df/d84/classengine_1_1level_1_1_level.html" target="_top" xlink:title="engine.level.Level">
<polygon fill="white" stroke="black" points="595.5,-299.5 595.5,-318.5 696.5,-318.5 696.5,-299.5 595.5,-299.5"/>
<text text-anchor="middle" x="646" y="-306.5" font-family="Helvetica,sans-Serif" font-size="10.00">engine.level.Level</text>
</a>
</g>
</g>
<!-- Node7&#45;&gt;Node1 -->
<g id="edge17" class="edge"><title>Node7&#45;&gt;Node1</title>
<path fill="none" stroke="#9a32cd" stroke-dasharray="5,2" d="M706.804,-307.588C746.486,-305.967 799.605,-302.483 846,-295 969.448,-275.089 1112.55,-232.518 1173.29,-213.509"/>
<polygon fill="#9a32cd" stroke="#9a32cd" points="706.62,-304.093 696.761,-307.971 706.887,-311.088 706.62,-304.093"/>
<text text-anchor="middle" x="940" y="-295" font-family="Helvetica,sans-Serif" font-size="10.00"> myCurrentLevel</text>
</g>
<!-- Node7&#45;&gt;Node5 -->
<g id="edge6" class="edge"><title>Node7&#45;&gt;Node5</title>
<path fill="none" stroke="#9a32cd" stroke-dasharray="5,2" d="M706.432,-318.159C752.793,-325.304 817.385,-335.258 866.735,-342.863"/>
<polygon fill="#9a32cd" stroke="#9a32cd" points="706.95,-314.698 696.534,-316.634 705.884,-321.616 706.95,-314.698"/>
<text text-anchor="middle" x="797" y="-343" font-family="Helvetica,sans-Serif" font-size="10.00"> myCurrentLevel</text>
</g>
<!-- Node8 -->
<g id="node8" class="node"><title>Node8</title>
<g id="a_node8"><a xlink:href="../../d3/d8d/classdata_1_1_observable.html" target="_top" xlink:title="data.Observable">
<polygon fill="white" stroke="black" points="277.5,-258.5 277.5,-277.5 372.5,-277.5 372.5,-258.5 277.5,-258.5"/>
<text text-anchor="middle" x="325" y="-265.5" font-family="Helvetica,sans-Serif" font-size="10.00">data.Observable</text>
</a>
</g>
</g>
<!-- Node8&#45;&gt;Node7 -->
<g id="edge7" class="edge"><title>Node8&#45;&gt;Node7</title>
<path fill="none" stroke="midnightblue" d="M382.85,-275.307C443.23,-283.067 537.733,-295.213 595.257,-302.607"/>
<polygon fill="midnightblue" stroke="midnightblue" points="383.092,-271.809 372.727,-274.006 382.199,-278.752 383.092,-271.809"/>
</g>
<!-- Node9 -->
<g id="node9" class="node"><title>Node9</title>
<polygon fill="white" stroke="#bfbfbf" points="23,-258.5 23,-277.5 161,-277.5 161,-258.5 23,-258.5"/>
<text text-anchor="middle" x="92" y="-265.5" font-family="Helvetica,sans-Serif" font-size="10.00">Vector&lt; data.Observer &gt;</text>
</g>
<!-- Node9&#45;&gt;Node8 -->
<g id="edge8" class="edge"><title>Node9&#45;&gt;Node8</title>
<path fill="none" stroke="#9a32cd" stroke-dasharray="5,2" d="M171.318,-268C206.521,-268 246.882,-268 277.262,-268"/>
<polygon fill="#9a32cd" stroke="#9a32cd" points="171.058,-264.5 161.058,-268 171.058,-271.5 171.058,-264.5"/>
<text text-anchor="middle" x="213" y="-271" font-family="Helvetica,sans-Serif" font-size="10.00"> obs</text>
</g>
<!-- Node10 -->
<g id="node10" class="node"><title>Node10</title>
<g id="a_node10"><a xlink:href="../../dc/df6/interfaceengine_1_1game_object_1_1_identifiable.html" target="_top" xlink:title="engine.gameObject.Identifiable">
<polygon fill="white" stroke="black" points="242.5,-170.5 242.5,-189.5 407.5,-189.5 407.5,-170.5 242.5,-170.5"/>
<text text-anchor="middle" x="325" y="-177.5" font-family="Helvetica,sans-Serif" font-size="10.00">engine.gameObject.Identifiable</text>
</a>
</g>
</g>
<!-- Node10&#45;&gt;Node7 -->
<g id="edge9" class="edge"><title>Node10&#45;&gt;Node7</title>
<path fill="none" stroke="midnightblue" d="M417.908,-175.979C460.919,-178.877 510.03,-189.717 544,-220 564.464,-238.243 543.112,-259.129 562,-279 570.973,-288.44 583.137,-294.918 595.385,-299.361"/>
<polygon fill="midnightblue" stroke="midnightblue" points="417.865,-172.472 407.692,-175.43 417.489,-179.462 417.865,-172.472"/>
</g>
<!-- Node11 -->
<g id="node11" class="node"><title>Node11</title>
<g id="a_node11"><a xlink:href="../../d4/dac/classengine_1_1game_object_1_1_identifier.html" target="_top" xlink:title="engine.gameObject.Identifier">
<polygon fill="white" stroke="black" points="247.5,-346.5 247.5,-365.5 402.5,-365.5 402.5,-346.5 247.5,-346.5"/>
<text text-anchor="middle" x="325" y="-353.5" font-family="Helvetica,sans-Serif" font-size="10.00">engine.gameObject.Identifier</text>
</a>
</g>
</g>
<!-- Node11&#45;&gt;Node7 -->
<g id="edge10" class="edge"><title>Node11&#45;&gt;Node7</title>
<path fill="none" stroke="#9a32cd" stroke-dasharray="5,2" d="M412.559,-350.108C452.718,-346.648 500.982,-341.456 544,-334 566.782,-330.051 592.032,-323.801 611.587,-318.539"/>
<polygon fill="#9a32cd" stroke="#9a32cd" points="412.204,-346.626 402.532,-350.951 412.79,-353.601 412.204,-346.626"/>
<text text-anchor="middle" x="485" y="-351" font-family="Helvetica,sans-Serif" font-size="10.00"> myId</text>
</g>
<!-- Node12 -->
<g id="node12" class="node"><title>Node12</title>
<g id="a_node12"><a xlink:href="../../d1/d32/classauthoring_1_1model_1_1collections_1_1_game_objects_collection.html" target="_top" xlink:title="authoring.model.collections.\lGameObjectsCollection">
<polygon fill="white" stroke="black" points="249,-209 249,-239 401,-239 401,-209 249,-209"/>
<text text-anchor="start" x="257" y="-227" font-family="Helvetica,sans-Serif" font-size="10.00">authoring.model.collections.</text>
<text text-anchor="middle" x="325" y="-216" font-family="Helvetica,sans-Serif" font-size="10.00">GameObjectsCollection</text>
</a>
</g>
</g>
<!-- Node12&#45;&gt;Node1 -->
<g id="edge16" class="edge"><title>Node12&#45;&gt;Node1</title>
<path fill="none" stroke="#9a32cd" stroke-dasharray="5,2" d="M411.175,-217.993C496.369,-212.307 631.179,-204.181 748,-201 791.539,-199.814 802.445,-200.817 846,-201 945.324,-201.417 1060.19,-202.488 1132.22,-203.23"/>
<polygon fill="#9a32cd" stroke="#9a32cd" points="410.779,-214.512 401.036,-218.674 411.248,-221.496 410.779,-214.512"/>
<text text-anchor="middle" x="797" y="-215" font-family="Helvetica,sans-Serif" font-size="10.00"> myTemplateObjects</text>
<text text-anchor="middle" x="797" y="-204" font-family="Helvetica,sans-Serif" font-size="10.00">myGameObjects</text>
</g>
<!-- Node12&#45;&gt;Node7 -->
<g id="edge11" class="edge"><title>Node12&#45;&gt;Node7</title>
<path fill="none" stroke="#9a32cd" stroke-dasharray="5,2" d="M411.227,-221.954C453.631,-224.421 504.191,-232.875 544,-256 555.224,-262.52 551.487,-271.386 562,-279 574.658,-288.167 590.405,-294.792 604.771,-299.444"/>
<polygon fill="#9a32cd" stroke="#9a32cd" points="411.352,-218.456 401.195,-221.472 411.016,-225.448 411.352,-218.456"/>
<text text-anchor="middle" x="485" y="-270" font-family="Helvetica,sans-Serif" font-size="10.00"> myDefaultGameObjects</text>
<text text-anchor="middle" x="485" y="-259" font-family="Helvetica,sans-Serif" font-size="10.00">myWorkingGameObjects</text>
</g>
<!-- Node13 -->
<g id="node13" class="node"><title>Node13</title>
<g id="a_node13"><a xlink:href="../../d4/d3b/classauthoring_1_1model_1_1collections_1_1_general_collection.html" target="_top" xlink:title="authoring.model.collections.\lGeneralCollection\&lt; GameObject \&gt;">
<polygon fill="white" stroke="black" points="0.5,-209 0.5,-239 183.5,-239 183.5,-209 0.5,-209"/>
<text text-anchor="start" x="8.5" y="-227" font-family="Helvetica,sans-Serif" font-size="10.00">authoring.model.collections.</text>
<text text-anchor="middle" x="92" y="-216" font-family="Helvetica,sans-Serif" font-size="10.00">GeneralCollection&lt; GameObject &gt;</text>
</a>
</g>
</g>
<!-- Node13&#45;&gt;Node12 -->
<g id="edge12" class="edge"><title>Node13&#45;&gt;Node12</title>
<path fill="none" stroke="midnightblue" d="M193.843,-224C212.335,-224 231.337,-224 248.91,-224"/>
<polygon fill="midnightblue" stroke="midnightblue" points="193.634,-220.5 183.634,-224 193.634,-227.5 193.634,-220.5"/>
</g>
<!-- Node14 -->
<g id="node14" class="node"><title>Node14</title>
<polygon fill="white" stroke="#bfbfbf" points="254.5,-297 254.5,-327 395.5,-327 395.5,-297 254.5,-297"/>
<text text-anchor="start" x="262.5" y="-315" font-family="Helvetica,sans-Serif" font-size="10.00">List&lt; engine.gameObject.</text>
<text text-anchor="middle" x="325" y="-304" font-family="Helvetica,sans-Serif" font-size="10.00">Identifier &gt;</text>
</g>
<!-- Node14&#45;&gt;Node7 -->
<g id="edge13" class="edge"><title>Node14&#45;&gt;Node7</title>
<path fill="none" stroke="#9a32cd" stroke-dasharray="5,2" d="M405.726,-311.25C465.211,-310.691 544.633,-309.944 595.312,-309.467"/>
<polygon fill="#9a32cd" stroke="#9a32cd" points="405.578,-307.751 395.612,-311.345 405.644,-314.751 405.578,-307.751"/>
<text text-anchor="middle" x="485" y="-326" font-family="Helvetica,sans-Serif" font-size="10.00"> myConditionIdList</text>
<text text-anchor="middle" x="485" y="-315" font-family="Helvetica,sans-Serif" font-size="10.00">myGameObjectIdList</text>
</g>
<!-- Node15 -->
<g id="node15" class="node"><title>Node15</title>
<polygon fill="white" stroke="#bfbfbf" points="623,-366.5 623,-385.5 669,-385.5 669,-366.5 623,-366.5"/>
<text text-anchor="middle" x="646" y="-373.5" font-family="Helvetica,sans-Serif" font-size="10.00">Group</text>
</g>
<!-- Node15&#45;&gt;Node5 -->
<g id="edge14" class="edge"><title>Node15&#45;&gt;Node5</title>
<path fill="none" stroke="#9a32cd" stroke-dasharray="5,2" d="M679.489,-373.552C724.456,-370.164 806.886,-363.954 866.808,-359.439"/>
<polygon fill="#9a32cd" stroke="#9a32cd" points="679.137,-370.069 669.428,-374.31 679.663,-377.049 679.137,-370.069"/>
<text text-anchor="middle" x="797" y="-371" font-family="Helvetica,sans-Serif" font-size="10.00"> myCanvas</text>
</g>
<!-- Node16 -->
<g id="node16" class="node"><title>Node16</title>
<g id="a_node16"><a xlink:href="../../d9/db5/classengine_1_1_file_path_utility.html" target="_top" xlink:title="engine.FilePathUtility">
<polygon fill="white" stroke="black" points="588.5,-250.5 588.5,-269.5 703.5,-269.5 703.5,-250.5 588.5,-250.5"/>
<text text-anchor="middle" x="646" y="-257.5" font-family="Helvetica,sans-Serif" font-size="10.00">engine.FilePathUtility</text>
</a>
</g>
</g>
<!-- Node16&#45;&gt;Node5 -->
<g id="edge15" class="edge"><title>Node16&#45;&gt;Node5</title>
<path fill="none" stroke="#9a32cd" stroke-dasharray="5,2" d="M713.508,-269.59C753.36,-277.044 804.231,-289.638 846,-310 855.11,-314.441 855.209,-318.957 864,-324 873.732,-329.582 884.705,-334.605 895.194,-338.873"/>
<polygon fill="#9a32cd" stroke="#9a32cd" points="714.089,-266.138 703.626,-267.804 712.844,-273.027 714.089,-266.138"/>
<text text-anchor="middle" x="797" y="-313" font-family="Helvetica,sans-Serif" font-size="10.00"> myFilePathUtility</text>
</g>
<!-- Node16&#45;&gt;Node17 -->
<g id="edge22" class="edge"><title>Node16&#45;&gt;Node17</title>
<path fill="none" stroke="#9a32cd" stroke-dasharray="5,2" d="M713.616,-255.898C753.167,-251.78 803.689,-243.529 846,-227 878.374,-214.353 911.2,-189.333 927.837,-175.593"/>
<polygon fill="#9a32cd" stroke="#9a32cd" points="713.162,-252.426 703.55,-256.883 713.843,-259.393 713.162,-252.426"/>
<text text-anchor="middle" x="797" y="-255" font-family="Helvetica,sans-Serif" font-size="10.00"> myFilePathUtility</text>
</g>
<!-- Node17&#45;&gt;Node1 -->
<g id="edge18" class="edge"><title>Node17&#45;&gt;Node1</title>
<path fill="none" stroke="#9a32cd" stroke-dasharray="5,2" d="M1021.44,-168.716C1050.74,-170.579 1084.02,-173.717 1114,-179 1134.55,-182.621 1157.18,-189.011 1174.48,-194.424"/>
<polygon fill="#9a32cd" stroke="#9a32cd" points="1021.45,-165.21 1011.26,-168.108 1021.03,-172.198 1021.45,-165.21"/>
<text text-anchor="middle" x="1074" y="-182" font-family="Helvetica,sans-Serif" font-size="10.00"> mySoundPlayer</text>
</g>
<!-- Node18 -->
<g id="node18" class="node"><title>Node18</title>
<polygon fill="white" stroke="#bfbfbf" points="570,-120.5 570,-139.5 722,-139.5 722,-120.5 570,-120.5"/>
<text text-anchor="middle" x="646" y="-127.5" font-family="Helvetica,sans-Serif" font-size="10.00">Map&lt; String, MediaPlayer &gt;</text>
</g>
<!-- Node18&#45;&gt;Node17 -->
<g id="edge20" class="edge"><title>Node18&#45;&gt;Node17</title>
<path fill="none" stroke="#9a32cd" stroke-dasharray="5,2" d="M732.45,-138.702C767.654,-142.481 808.826,-147.149 846,-152 856.362,-153.352 867.355,-154.903 878.017,-156.469"/>
<polygon fill="#9a32cd" stroke="#9a32cd" points="732.523,-135.19 722.209,-137.61 731.781,-142.151 732.523,-135.19"/>
<text text-anchor="middle" x="797" y="-155" font-family="Helvetica,sans-Serif" font-size="10.00"> myMediaPlayerMap</text>
</g>
<!-- Node19 -->
<g id="node19" class="node"><title>Node19</title>
<polygon fill="white" stroke="#bfbfbf" points="577,-158.5 577,-177.5 715,-177.5 715,-158.5 577,-158.5"/>
<text text-anchor="middle" x="646" y="-165.5" font-family="Helvetica,sans-Serif" font-size="10.00">Map&lt; String, AudioClip &gt;</text>
</g>
<!-- Node19&#45;&gt;Node17 -->
<g id="edge21" class="edge"><title>Node19&#45;&gt;Node17</title>
<path fill="none" stroke="#9a32cd" stroke-dasharray="5,2" d="M725.323,-167.464C769.992,-167.158 825.515,-166.777 868.767,-166.481"/>
<polygon fill="#9a32cd" stroke="#9a32cd" points="725.068,-163.965 715.093,-167.534 725.116,-170.965 725.068,-163.965"/>
<text text-anchor="middle" x="797" y="-171" font-family="Helvetica,sans-Serif" font-size="10.00"> myAudioClipMap</text>
</g>
<!-- Node20 -->
<g id="node20" class="node"><title>Node20</title>
<g id="a_node20"><a xlink:href="../../db/d2a/classauthoring_1_1model_1_1collections_1_1_conditions_collection.html" target="_top" xlink:title="authoring.model.collections.\lConditionsCollection">
<polygon fill="white" stroke="black" points="864,-0 864,-30 1016,-30 1016,-0 864,-0"/>
<text text-anchor="start" x="872" y="-18" font-family="Helvetica,sans-Serif" font-size="10.00">authoring.model.collections.</text>
<text text-anchor="middle" x="940" y="-7" font-family="Helvetica,sans-Serif" font-size="10.00">ConditionsCollection</text>
</a>
</g>
</g>
<!-- Node20&#45;&gt;Node1 -->
<g id="edge23" class="edge"><title>Node20&#45;&gt;Node1</title>
<path fill="none" stroke="#9a32cd" stroke-dasharray="5,2" d="M1026.36,-13.2717C1056.3,-16.3676 1088.73,-24.2795 1114,-42 1169.44,-80.8787 1193.95,-165.721 1200.86,-194.347"/>
<polygon fill="#9a32cd" stroke="#9a32cd" points="1026.58,-9.77772 1016.31,-12.3992 1025.97,-16.7515 1026.58,-9.77772"/>
<text text-anchor="middle" x="1074" y="-45" font-family="Helvetica,sans-Serif" font-size="10.00"> myConditions</text>
</g>
<!-- Node21 -->
<g id="node21" class="node"><title>Node21</title>
<g id="a_node21"><a xlink:href="../../d4/d3b/classauthoring_1_1model_1_1collections_1_1_general_collection.html" target="_top" xlink:title="authoring.model.collections.\lGeneralCollection\&lt; Condition \&gt;">
<polygon fill="white" stroke="black" points="562,-0 562,-30 730,-30 730,-0 562,-0"/>
<text text-anchor="start" x="570" y="-18" font-family="Helvetica,sans-Serif" font-size="10.00">authoring.model.collections.</text>
<text text-anchor="middle" x="646" y="-7" font-family="Helvetica,sans-Serif" font-size="10.00">GeneralCollection&lt; Condition &gt;</text>
</a>
</g>
</g>
<!-- Node21&#45;&gt;Node20 -->
<g id="edge24" class="edge"><title>Node21&#45;&gt;Node20</title>
<path fill="none" stroke="midnightblue" d="M740.523,-15C780.286,-15 826.039,-15 863.588,-15"/>
<polygon fill="midnightblue" stroke="midnightblue" points="740.285,-11.5001 730.285,-15 740.285,-18.5001 740.285,-11.5001"/>
</g>
</g>
</svg>
