<?xml version="1.0" encoding="UTF-8" standalone="no"?>
<!DOCTYPE svg PUBLIC "-//W3C//DTD SVG 1.1//EN"
 "http://www.w3.org/Graphics/SVG/1.1/DTD/svg11.dtd">
<!-- Generated by graphviz version 2.36.0 (20140111.2315)
 -->
<!-- Title: engine.actions.PhysicsIDAction Pages: 1 -->
<svg width="618pt" height="197pt"
 viewBox="0.00 0.00 618.00 197.00" xmlns="http://www.w3.org/2000/svg" xmlns:xlink="http://www.w3.org/1999/xlink">
<g id="graph0" class="graph" transform="scale(1 1) rotate(0) translate(4 193)">
<title>engine.actions.PhysicsIDAction</title>
<polygon fill="white" stroke="none" points="-4,4 -4,-193 614,-193 614,4 -4,4"/>
<!-- Node1 -->
<g id="node1" class="node"><title>Node1</title>
<polygon fill="#bfbfbf" stroke="black" points="446,-103.5 446,-122.5 610,-122.5 610,-103.5 446,-103.5"/>
<text text-anchor="middle" x="528" y="-110.5" font-family="Helvetica,sans-Serif" font-size="10.00">engine.actions.PhysicsIDAction</text>
</g>
<!-- Node2 -->
<g id="node2" class="node"><title>Node2</title>
<g id="a_node2"><a xlink:href="../../d9/dd2/interfaceengine_1_1actions_1_1_action.html" target="_top" xlink:title="engine.actions.Action">
<polygon fill="white" stroke="black" points="206.5,-147.5 206.5,-166.5 325.5,-166.5 325.5,-147.5 206.5,-147.5"/>
<text text-anchor="middle" x="266" y="-154.5" font-family="Helvetica,sans-Serif" font-size="10.00">engine.actions.Action</text>
</a>
</g>
</g>
<!-- Node2&#45;&gt;Node1 -->
<g id="edge1" class="edge"><title>Node2&#45;&gt;Node1</title>
<path fill="none" stroke="midnightblue" d="M333.385,-145.766C375.855,-138.578 430.346,-129.357 470.694,-122.529"/>
<polygon fill="midnightblue" stroke="midnightblue" points="332.692,-142.333 323.416,-147.453 333.86,-149.235 332.692,-142.333"/>
</g>
<!-- Node3 -->
<g id="node3" class="node"><title>Node3</title>
<g id="a_node3"><a xlink:href="../../d2/d15/interfaceengine_1_1actions_1_1_initializable.html" target="_top" xlink:title="engine.actions.Initializable">
<polygon fill="white" stroke="black" points="0,-169.5 0,-188.5 142,-188.5 142,-169.5 0,-169.5"/>
<text text-anchor="middle" x="71" y="-176.5" font-family="Helvetica,sans-Serif" font-size="10.00">engine.actions.Initializable</text>
</a>
</g>
</g>
<!-- Node3&#45;&gt;Node1 -->
<g id="edge3" class="edge"><title>Node3&#45;&gt;Node1</title>
<path fill="none" stroke="midnightblue" d="M152.537,-181.07C155.733,-181.063 158.896,-181.041 162,-181 246.466,-179.889 268.95,-191.442 352,-176 387.242,-169.447 394.267,-161.125 428,-149 452.783,-140.092 481.01,-129.815 500.964,-122.527"/>
<polygon fill="midnightblue" stroke="midnightblue" points="152.266,-177.569 142.256,-181.041 152.246,-184.569 152.266,-177.569"/>
</g>
<!-- Node3&#45;&gt;Node2 -->
<g id="edge2" class="edge"><title>Node3&#45;&gt;Node2</title>
<path fill="none" stroke="midnightblue" d="M152.19,-169.859C170.307,-167.794 189.214,-165.639 206.255,-163.696"/>
<polygon fill="midnightblue" stroke="midnightblue" points="151.763,-166.385 142.223,-170.995 152.555,-173.34 151.763,-166.385"/>
</g>
<!-- Node4 -->
<g id="node4" class="node"><title>Node4</title>
<g id="a_node4"><a xlink:href="../../da/d1b/classengine_1_1collision_1_1objects_1_1_collision_composition.html" target="_top" xlink:title="engine.collision.objects.\lCollisionComposition">
<polygon fill="white" stroke="black" points="201,-98 201,-128 331,-128 331,-98 201,-98"/>
<text text-anchor="start" x="209" y="-116" font-family="Helvetica,sans-Serif" font-size="10.00">engine.collision.objects.</text>
<text text-anchor="middle" x="266" y="-105" font-family="Helvetica,sans-Serif" font-size="10.00">CollisionComposition</text>
</a>
</g>
</g>
<!-- Node4&#45;&gt;Node1 -->
<g id="edge4" class="edge"><title>Node4&#45;&gt;Node1</title>
<path fill="none" stroke="#9a32cd" stroke-dasharray="5,2" d="M341.63,-113C374.199,-113 412.469,-113 445.754,-113"/>
<polygon fill="#9a32cd" stroke="#9a32cd" points="341.27,-109.5 331.27,-113 341.27,-116.5 341.27,-109.5"/>
<text text-anchor="middle" x="399" y="-116" font-family="Helvetica,sans-Serif" font-size="10.00"> myCollision</text>
</g>
<!-- Node5 -->
<g id="node5" class="node"><title>Node5</title>
<polygon fill="white" stroke="#bfbfbf" points="195.5,-49 195.5,-79 336.5,-79 336.5,-49 195.5,-49"/>
<text text-anchor="start" x="203.5" y="-67" font-family="Helvetica,sans-Serif" font-size="10.00">List&lt; engine.gameObject.</text>
<text text-anchor="middle" x="266" y="-56" font-family="Helvetica,sans-Serif" font-size="10.00">Identifier &gt;</text>
</g>
<!-- Node5&#45;&gt;Node1 -->
<g id="edge5" class="edge"><title>Node5&#45;&gt;Node1</title>
<path fill="none" stroke="#9a32cd" stroke-dasharray="5,2" d="M346.673,-79.0154C388.966,-86.9859 439.662,-96.5401 476.515,-103.486"/>
<polygon fill="#9a32cd" stroke="#9a32cd" points="347.15,-75.5437 336.675,-77.1311 345.854,-82.4226 347.15,-75.5437"/>
<text text-anchor="middle" x="399" y="-98" font-family="Helvetica,sans-Serif" font-size="10.00"> myID</text>
</g>
<!-- Node6 -->
<g id="node6" class="node"><title>Node6</title>
<polygon fill="white" stroke="#bfbfbf" points="180.5,-0 180.5,-30 351.5,-30 351.5,-0 180.5,-0"/>
<text text-anchor="start" x="188.5" y="-18" font-family="Helvetica,sans-Serif" font-size="10.00">Collection&lt; engine.gameObject.</text>
<text text-anchor="middle" x="266" y="-7" font-family="Helvetica,sans-Serif" font-size="10.00">GameObject &gt;</text>
</g>
<!-- Node6&#45;&gt;Node1 -->
<g id="edge6" class="edge"><title>Node6&#45;&gt;Node1</title>
<path fill="none" stroke="#9a32cd" stroke-dasharray="5,2" d="M333.721,-33.068C339.929,-34.9807 346.1,-36.971 352,-39 409.396,-58.7392 474.69,-88.3318 506.879,-103.416"/>
<polygon fill="#9a32cd" stroke="#9a32cd" points="334.554,-29.6637 323.969,-30.132 332.536,-36.3665 334.554,-29.6637"/>
<text text-anchor="middle" x="399" y="-71" font-family="Helvetica,sans-Serif" font-size="10.00"> myObjects</text>
</g>
</g>
</svg>
