<?xml version="1.0" encoding="UTF-8" standalone="no"?>
<!DOCTYPE svg PUBLIC "-//W3C//DTD SVG 1.1//EN"
 "http://www.w3.org/Graphics/SVG/1.1/DTD/svg11.dtd">
<!-- Generated by graphviz version 2.36.0 (20140111.2315)
 -->
<!-- Title: authoring.view.icons.ConditionIcon Pages: 1 -->
<svg width="2162pt" height="743pt"
 viewBox="0.00 0.00 2162.00 743.00" xmlns="http://www.w3.org/2000/svg" xmlns:xlink="http://www.w3.org/1999/xlink">
<g id="graph0" class="graph" transform="scale(1 1) rotate(0) translate(4 739)">
<title>authoring.view.icons.ConditionIcon</title>
<polygon fill="white" stroke="none" points="-4,4 -4,-739 2158,-739 2158,4 -4,4"/>
<!-- Node1 -->
<g id="node1" class="node"><title>Node1</title>
<polygon fill="#bfbfbf" stroke="black" points="1974,-646.5 1974,-665.5 2154,-665.5 2154,-646.5 1974,-646.5"/>
<text text-anchor="middle" x="2064" y="-653.5" font-family="Helvetica,sans-Serif" font-size="10.00">authoring.view.icons.ConditionIcon</text>
</g>
<!-- Node2 -->
<g id="node2" class="node"><title>Node2</title>
<g id="a_node2"><a xlink:href="../../dd/db4/classauthoring_1_1view_1_1icons_1_1_base_icon.html" target="_top" xlink:title="authoring.view.icons.BaseIcon">
<polygon fill="white" stroke="black" points="1714.5,-685.5 1714.5,-704.5 1873.5,-704.5 1873.5,-685.5 1714.5,-685.5"/>
<text text-anchor="middle" x="1794" y="-692.5" font-family="Helvetica,sans-Serif" font-size="10.00">authoring.view.icons.BaseIcon</text>
</a>
</g>
</g>
<!-- Node2&#45;&gt;Node1 -->
<g id="edge1" class="edge"><title>Node2&#45;&gt;Node1</title>
<path fill="none" stroke="midnightblue" d="M1870.54,-684.007C1910.57,-678.182 1959.26,-671.096 1997.65,-665.509"/>
<polygon fill="midnightblue" stroke="midnightblue" points="1869.95,-680.556 1860.56,-685.46 1870.96,-687.483 1869.95,-680.556"/>
</g>
<!-- Node3 -->
<g id="node3" class="node"><title>Node3</title>
<polygon fill="white" stroke="#bfbfbf" points="1488.5,-715.5 1488.5,-734.5 1529.5,-734.5 1529.5,-715.5 1488.5,-715.5"/>
<text text-anchor="middle" x="1509" y="-722.5" font-family="Helvetica,sans-Serif" font-size="10.00">VBox</text>
</g>
<!-- Node3&#45;&gt;Node2 -->
<g id="edge2" class="edge"><title>Node3&#45;&gt;Node2</title>
<path fill="none" stroke="midnightblue" d="M1540.08,-721.811C1581.26,-717.446 1656.65,-709.454 1714.44,-703.327"/>
<polygon fill="midnightblue" stroke="midnightblue" points="1539.48,-718.356 1529.9,-722.89 1540.21,-725.317 1539.48,-718.356"/>
</g>
<!-- Node4 -->
<g id="node4" class="node"><title>Node4</title>
<g id="a_node4"><a xlink:href="../../d3/d6a/interfaceauthoring_1_1eventhandlers_1_1_game_handler.html" target="_top" xlink:title="authoring.eventhandlers.\lGameHandler\&lt; T extends\l Event \&gt;">
<polygon fill="white" stroke="black" points="1438.5,-655.5 1438.5,-696.5 1579.5,-696.5 1579.5,-655.5 1438.5,-655.5"/>
<text text-anchor="start" x="1446.5" y="-684.5" font-family="Helvetica,sans-Serif" font-size="10.00">authoring.eventhandlers.</text>
<text text-anchor="start" x="1446.5" y="-673.5" font-family="Helvetica,sans-Serif" font-size="10.00">GameHandler&lt; T extends</text>
<text text-anchor="middle" x="1509" y="-662.5" font-family="Helvetica,sans-Serif" font-size="10.00"> Event &gt;</text>
</a>
</g>
</g>
<!-- Node4&#45;&gt;Node1 -->
<g id="edge44" class="edge"><title>Node4&#45;&gt;Node1</title>
<path fill="none" stroke="#9a32cd" stroke-dasharray="5,2" d="M1590.23,-671.153C1627.8,-669.016 1673.18,-666.626 1714,-665 1802.27,-661.483 1903.16,-659.053 1973.68,-657.613"/>
<polygon fill="#9a32cd" stroke="#9a32cd" points="1589.63,-667.681 1579.84,-671.748 1590.03,-674.669 1589.63,-667.681"/>
<text text-anchor="middle" x="1794" y="-668" font-family="Helvetica,sans-Serif" font-size="10.00"> myEvents</text>
</g>
<!-- Node4&#45;&gt;Node2 -->
<g id="edge3" class="edge"><title>Node4&#45;&gt;Node2</title>
<path fill="none" stroke="#9a32cd" stroke-dasharray="5,2" d="M1589.85,-681.361C1628.85,-683.979 1675.61,-687.119 1714.43,-689.725"/>
<polygon fill="#9a32cd" stroke="#9a32cd" points="1589.8,-677.85 1579.59,-680.672 1589.34,-684.834 1589.8,-677.85"/>
<text text-anchor="middle" x="1651" y="-692" font-family="Helvetica,sans-Serif" font-size="10.00"> myOnClick</text>
</g>
<!-- Node5 -->
<g id="node5" class="node"><title>Node5</title>
<polygon fill="white" stroke="#bfbfbf" points="1132,-666.5 1132,-685.5 1308,-685.5 1308,-666.5 1132,-666.5"/>
<text text-anchor="middle" x="1220" y="-673.5" font-family="Helvetica,sans-Serif" font-size="10.00">javafx::event::EventHandler&lt; T &gt;</text>
</g>
<!-- Node5&#45;&gt;Node4 -->
<g id="edge4" class="edge"><title>Node5&#45;&gt;Node4</title>
<path fill="none" stroke="midnightblue" d="M1318.44,-676C1357.83,-676 1402.39,-676 1438.41,-676"/>
<polygon fill="midnightblue" stroke="midnightblue" points="1318.28,-672.5 1308.28,-676 1318.28,-679.5 1318.28,-672.5"/>
</g>
<!-- Node6 -->
<g id="node6" class="node"><title>Node6</title>
<g id="a_node6"><a xlink:href="../../d1/d3b/classengine_1_1conditions_1_1_condition.html" target="_top" xlink:title="engine.conditions.Condition">
<polygon fill="white" stroke="black" points="1719.5,-560.5 1719.5,-579.5 1868.5,-579.5 1868.5,-560.5 1719.5,-560.5"/>
<text text-anchor="middle" x="1794" y="-567.5" font-family="Helvetica,sans-Serif" font-size="10.00">engine.conditions.Condition</text>
</a>
</g>
</g>
<!-- Node6&#45;&gt;Node1 -->
<g id="edge5" class="edge"><title>Node6&#45;&gt;Node1</title>
<path fill="none" stroke="#9a32cd" stroke-dasharray="5,2" d="M1834.29,-582.609C1888.38,-599.965 1984.58,-630.835 2033.16,-646.425"/>
<polygon fill="#9a32cd" stroke="#9a32cd" points="1835.3,-579.255 1824.7,-579.532 1833.16,-585.92 1835.3,-579.255"/>
<text text-anchor="middle" x="1924" y="-624" font-family="Helvetica,sans-Serif" font-size="10.00"> myCondition</text>
</g>
<!-- Node7 -->
<g id="node7" class="node"><title>Node7</title>
<g id="a_node7"><a xlink:href="../../dc/df6/interfaceengine_1_1game_object_1_1_identifiable.html" target="_top" xlink:title="engine.gameObject.Identifiable">
<polygon fill="white" stroke="black" points="242.5,-264.5 242.5,-283.5 407.5,-283.5 407.5,-264.5 242.5,-264.5"/>
<text text-anchor="middle" x="325" y="-271.5" font-family="Helvetica,sans-Serif" font-size="10.00">engine.gameObject.Identifiable</text>
</a>
</g>
</g>
<!-- Node7&#45;&gt;Node6 -->
<g id="edge6" class="edge"><title>Node7&#45;&gt;Node6</title>
<path fill="none" stroke="midnightblue" d="M342.616,-290.842C397.056,-345.281 570.798,-513 645,-513 645,-513 645,-513 1510,-513 1604.97,-513 1714.41,-544.233 1764.86,-560.459"/>
<polygon fill="midnightblue" stroke="midnightblue" points="345.01,-288.285 335.475,-283.665 340.048,-293.223 345.01,-288.285"/>
</g>
<!-- Node17 -->
<g id="node17" class="node"><title>Node17</title>
<g id="a_node17"><a xlink:href="../../df/d84/classengine_1_1level_1_1_level.html" target="_top" xlink:title="engine.level.Level">
<polygon fill="white" stroke="black" points="595.5,-150.5 595.5,-169.5 696.5,-169.5 696.5,-150.5 595.5,-150.5"/>
<text text-anchor="middle" x="646" y="-157.5" font-family="Helvetica,sans-Serif" font-size="10.00">engine.level.Level</text>
</a>
</g>
</g>
<!-- Node7&#45;&gt;Node17 -->
<g id="edge20" class="edge"><title>Node7&#45;&gt;Node17</title>
<path fill="none" stroke="midnightblue" d="M417.59,-264.36C459.704,-256.07 508.145,-240.656 544,-212 557.051,-201.57 548.682,-189.087 562,-179 571.663,-171.681 583.651,-167.101 595.484,-164.257"/>
<polygon fill="midnightblue" stroke="midnightblue" points="416.784,-260.95 407.593,-266.22 418.064,-267.832 416.784,-260.95"/>
</g>
<!-- Node8 -->
<g id="node8" class="node"><title>Node8</title>
<g id="a_node8"><a xlink:href="../../d2/d15/interfaceengine_1_1actions_1_1_initializable.html" target="_top" xlink:title="engine.actions.Initializable">
<polygon fill="white" stroke="black" points="1438,-579.5 1438,-598.5 1580,-598.5 1580,-579.5 1438,-579.5"/>
<text text-anchor="middle" x="1509" y="-586.5" font-family="Helvetica,sans-Serif" font-size="10.00">engine.actions.Initializable</text>
</a>
</g>
</g>
<!-- Node8&#45;&gt;Node6 -->
<g id="edge7" class="edge"><title>Node8&#45;&gt;Node6</title>
<path fill="none" stroke="midnightblue" d="M1590.42,-583.601C1630.87,-580.885 1679.58,-577.615 1719.09,-574.962"/>
<polygon fill="midnightblue" stroke="midnightblue" points="1590.06,-580.117 1580.32,-584.279 1590.53,-587.101 1590.06,-580.117"/>
</g>
<!-- Node9 -->
<g id="node9" class="node"><title>Node9</title>
<g id="a_node9"><a xlink:href="../../d4/dac/classengine_1_1game_object_1_1_identifier.html" target="_top" xlink:title="engine.gameObject.Identifier">
<polygon fill="white" stroke="black" points="247.5,-364.5 247.5,-383.5 402.5,-383.5 402.5,-364.5 247.5,-364.5"/>
<text text-anchor="middle" x="325" y="-371.5" font-family="Helvetica,sans-Serif" font-size="10.00">engine.gameObject.Identifier</text>
</a>
</g>
</g>
<!-- Node9&#45;&gt;Node6 -->
<g id="edge8" class="edge"><title>Node9&#45;&gt;Node6</title>
<path fill="none" stroke="#9a32cd" stroke-dasharray="5,2" d="M362.543,-387.949C378.933,-396.043 397.012,-407.874 408,-424 434.168,-462.404 397.591,-490.223 426,-527 491.412,-611.678 538,-627 645,-627 645,-627 645,-627 1510,-627 1604.97,-627 1714.41,-595.767 1764.86,-579.541"/>
<polygon fill="#9a32cd" stroke="#9a32cd" points="363.701,-384.629 353.155,-383.612 360.765,-390.983 363.701,-384.629"/>
<text text-anchor="middle" x="1074" y="-630" font-family="Helvetica,sans-Serif" font-size="10.00"> myId</text>
</g>
<!-- Node9&#45;&gt;Node17 -->
<g id="edge21" class="edge"><title>Node9&#45;&gt;Node17</title>
<path fill="none" stroke="#9a32cd" stroke-dasharray="5,2" d="M369.664,-361.291C419.485,-344.499 499.763,-310.05 544,-252 564.254,-225.422 538.175,-202.431 562,-179 570.959,-170.19 583.119,-165.135 595.366,-162.314"/>
<polygon fill="#9a32cd" stroke="#9a32cd" points="368.539,-357.977 360.125,-364.416 370.718,-364.629 368.539,-357.977"/>
<text text-anchor="middle" x="485" y="-342" font-family="Helvetica,sans-Serif" font-size="10.00"> myId</text>
</g>
<!-- Node10 -->
<g id="node10" class="node"><title>Node10</title>
<g id="a_node10"><a xlink:href="../../d6/d94/classengine_1_1_game_manager.html" target="_top" xlink:title="engine.GameManager">
<polygon fill="white" stroke="black" points="1447.5,-331.5 1447.5,-350.5 1570.5,-350.5 1570.5,-331.5 1447.5,-331.5"/>
<text text-anchor="middle" x="1509" y="-338.5" font-family="Helvetica,sans-Serif" font-size="10.00">engine.GameManager</text>
</a>
</g>
</g>
<!-- Node10&#45;&gt;Node6 -->
<g id="edge9" class="edge"><title>Node10&#45;&gt;Node6</title>
<path fill="none" stroke="#9a32cd" stroke-dasharray="5,2" d="M1530.7,-356.999C1565.23,-383.771 1636.66,-439.49 1696,-488 1727.41,-513.68 1763.78,-544.806 1781.75,-560.284"/>
<polygon fill="#9a32cd" stroke="#9a32cd" points="1532.79,-354.195 1522.74,-350.839 1528.51,-359.729 1532.79,-354.195"/>
<text text-anchor="middle" x="1651" y="-491" font-family="Helvetica,sans-Serif" font-size="10.00"> myGameManager</text>
</g>
<!-- Node11 -->
<g id="node11" class="node"><title>Node11</title>
<g id="a_node11"><a xlink:href="../../df/de5/classauthoring_1_1model_1_1collections_1_1_levels_collection.html" target="_top" xlink:title="authoring.model.collections.\lLevelsCollection">
<polygon fill="white" stroke="black" points="570,-434 570,-464 722,-464 722,-434 570,-434"/>
<text text-anchor="start" x="578" y="-452" font-family="Helvetica,sans-Serif" font-size="10.00">authoring.model.collections.</text>
<text text-anchor="middle" x="646" y="-441" font-family="Helvetica,sans-Serif" font-size="10.00">LevelsCollection</text>
</a>
</g>
</g>
<!-- Node11&#45;&gt;Node10 -->
<g id="edge10" class="edge"><title>Node11&#45;&gt;Node10</title>
<path fill="none" stroke="#9a32cd" stroke-dasharray="5,2" d="M732.807,-454.143C858.991,-460.745 1101.96,-469.806 1308,-456 1354.53,-452.882 1370.47,-463.217 1412,-442 1454.87,-420.099 1489.1,-371.217 1502.22,-350.534"/>
<polygon fill="#9a32cd" stroke="#9a32cd" points="732.617,-450.628 722.446,-453.592 732.246,-457.618 732.617,-450.628"/>
<text text-anchor="middle" x="1074" y="-467" font-family="Helvetica,sans-Serif" font-size="10.00"> myLevels</text>
</g>
<!-- Node13 -->
<g id="node13" class="node"><title>Node13</title>
<g id="a_node13"><a xlink:href="../../df/d67/classengine_1_1level_1_1_level_manager.html" target="_top" xlink:title="engine.level.LevelManager">
<polygon fill="white" stroke="black" points="1148.5,-188.5 1148.5,-207.5 1291.5,-207.5 1291.5,-188.5 1148.5,-188.5"/>
<text text-anchor="middle" x="1220" y="-195.5" font-family="Helvetica,sans-Serif" font-size="10.00">engine.level.LevelManager</text>
</a>
</g>
</g>
<!-- Node11&#45;&gt;Node13 -->
<g id="edge14" class="edge"><title>Node11&#45;&gt;Node13</title>
<path fill="none" stroke="#9a32cd" stroke-dasharray="5,2" d="M732.485,-448.88C768.202,-446.888 809.744,-441.998 846,-431 975.799,-391.627 1001.7,-361.069 1114,-285 1151.04,-259.907 1190.62,-224.445 1208.8,-207.602"/>
<polygon fill="#9a32cd" stroke="#9a32cd" points="731.905,-445.404 722.088,-449.388 732.247,-452.396 731.905,-445.404"/>
<text text-anchor="middle" x="940" y="-428" font-family="Helvetica,sans-Serif" font-size="10.00"> myLevels</text>
</g>
<!-- Node25 -->
<g id="node25" class="node"><title>Node25</title>
<g id="a_node25"><a xlink:href="../../da/d90/classengine_1_1sound_1_1_sound_utility.html" target="_top" xlink:title="engine.sound.SoundUtility">
<polygon fill="white" stroke="black" points="869,-298.5 869,-317.5 1011,-317.5 1011,-298.5 869,-298.5"/>
<text text-anchor="middle" x="940" y="-305.5" font-family="Helvetica,sans-Serif" font-size="10.00">engine.sound.SoundUtility</text>
</a>
</g>
</g>
<!-- Node11&#45;&gt;Node25 -->
<g id="edge30" class="edge"><title>Node11&#45;&gt;Node25</title>
<path fill="none" stroke="#9a32cd" stroke-dasharray="5,2" d="M707.96,-430.699C715.423,-428.225 722.913,-425.63 730,-423 782.635,-403.472 796.962,-400.333 846,-373 876.627,-355.929 909.625,-331.173 926.89,-317.671"/>
<polygon fill="#9a32cd" stroke="#9a32cd" points="706.626,-427.452 698.199,-433.874 708.792,-434.109 706.626,-427.452"/>
<text text-anchor="middle" x="797" y="-419" font-family="Helvetica,sans-Serif" font-size="10.00"> myLevels</text>
</g>
<!-- Node12 -->
<g id="node12" class="node"><title>Node12</title>
<g id="a_node12"><a xlink:href="../../d4/d3b/classauthoring_1_1model_1_1collections_1_1_general_collection.html" target="_top" xlink:title="authoring.model.collections.\lGeneralCollection\&lt; Level \&gt;">
<polygon fill="white" stroke="black" points="249,-434 249,-464 401,-464 401,-434 249,-434"/>
<text text-anchor="start" x="257" y="-452" font-family="Helvetica,sans-Serif" font-size="10.00">authoring.model.collections.</text>
<text text-anchor="middle" x="325" y="-441" font-family="Helvetica,sans-Serif" font-size="10.00">GeneralCollection&lt; Level &gt;</text>
</a>
</g>
</g>
<!-- Node12&#45;&gt;Node11 -->
<g id="edge11" class="edge"><title>Node12&#45;&gt;Node11</title>
<path fill="none" stroke="midnightblue" d="M411.216,-449C460.588,-449 522.186,-449 569.758,-449"/>
<polygon fill="midnightblue" stroke="midnightblue" points="411.195,-445.5 401.195,-449 411.195,-452.5 411.195,-445.5"/>
</g>
<!-- Node13&#45;&gt;Node10 -->
<g id="edge12" class="edge"><title>Node13&#45;&gt;Node10</title>
<path fill="none" stroke="#9a32cd" stroke-dasharray="5,2" d="M1296.51,-209.64C1333.04,-217.444 1376.54,-230.061 1412,-250 1450.83,-271.836 1485.94,-312.836 1500.67,-331.415"/>
<polygon fill="#9a32cd" stroke="#9a32cd" points="1296.9,-206.148 1286.4,-207.564 1295.5,-213.005 1296.9,-206.148"/>
<text text-anchor="middle" x="1369" y="-253" font-family="Helvetica,sans-Serif" font-size="10.00"> myLevelManager</text>
</g>
<!-- Node14 -->
<g id="node14" class="node"><title>Node14</title>
<polygon fill="white" stroke="#bfbfbf" points="890,-172.5 890,-191.5 990,-191.5 990,-172.5 890,-172.5"/>
<text text-anchor="middle" x="940" y="-179.5" font-family="Helvetica,sans-Serif" font-size="10.00">Iterable&lt; Level &gt;</text>
</g>
<!-- Node14&#45;&gt;Node13 -->
<g id="edge13" class="edge"><title>Node14&#45;&gt;Node13</title>
<path fill="none" stroke="midnightblue" d="M1000.16,-185.405C1043.48,-187.898 1102.45,-191.292 1148.26,-193.928"/>
<polygon fill="midnightblue" stroke="midnightblue" points="1000.25,-181.904 990.061,-184.824 999.843,-188.893 1000.25,-181.904"/>
</g>
<!-- Node15 -->
<g id="node15" class="node"><title>Node15</title>
<g id="a_node15"><a xlink:href="../../df/de5/classengine_1_1render_1_1_game_object_renderer.html" target="_top" xlink:title="engine.render.GameObject\lRenderer">
<polygon fill="white" stroke="black" points="867,-212 867,-242 1013,-242 1013,-212 867,-212"/>
<text text-anchor="start" x="875" y="-230" font-family="Helvetica,sans-Serif" font-size="10.00">engine.render.GameObject</text>
<text text-anchor="middle" x="940" y="-219" font-family="Helvetica,sans-Serif" font-size="10.00">Renderer</text>
</a>
</g>
</g>
<!-- Node15&#45;&gt;Node10 -->
<g id="edge37" class="edge"><title>Node15&#45;&gt;Node10</title>
<path fill="none" stroke="#9a32cd" stroke-dasharray="5,2" d="M986.646,-245.66C1001.55,-251.219 1018.31,-256.911 1034,-261 1153.35,-292.095 1186.41,-284.296 1308,-305 1358.6,-313.617 1416.29,-324.068 1456.66,-331.485"/>
<polygon fill="#9a32cd" stroke="#9a32cd" points="987.74,-242.332 977.149,-242.045 985.249,-248.874 987.74,-242.332"/>
<text text-anchor="middle" x="1220" y="-308" font-family="Helvetica,sans-Serif" font-size="10.00"> myGameObjectRenderer</text>
</g>
<!-- Node15&#45;&gt;Node13 -->
<g id="edge15" class="edge"><title>Node15&#45;&gt;Node13</title>
<path fill="none" stroke="#9a32cd" stroke-dasharray="5,2" d="M1023.32,-217.171C1026.93,-216.769 1030.5,-216.377 1034,-216 1071.7,-211.937 1113.76,-207.812 1148.25,-204.537"/>
<polygon fill="#9a32cd" stroke="#9a32cd" points="1022.62,-213.727 1013.08,-218.325 1023.41,-220.683 1022.62,-213.727"/>
<text text-anchor="middle" x="1074" y="-219" font-family="Helvetica,sans-Serif" font-size="10.00"> myRenderer</text>
</g>
<!-- Node16 -->
<g id="node16" class="node"><title>Node16</title>
<polygon fill="white" stroke="#bfbfbf" points="570,-189 570,-219 722,-219 722,-189 570,-189"/>
<text text-anchor="start" x="578" y="-207" font-family="Helvetica,sans-Serif" font-size="10.00">Map&lt; String, engine.render.</text>
<text text-anchor="middle" x="646" y="-196" font-family="Helvetica,sans-Serif" font-size="10.00">RenderedNode &gt;</text>
</g>
<!-- Node16&#45;&gt;Node15 -->
<g id="edge16" class="edge"><title>Node16&#45;&gt;Node15</title>
<path fill="none" stroke="#9a32cd" stroke-dasharray="5,2" d="M732.39,-192.301C767.752,-189.482 809.056,-188.822 846,-195 846.697,-195.117 871.586,-203.685 895.438,-211.925"/>
<polygon fill="#9a32cd" stroke="#9a32cd" points="731.762,-188.842 722.102,-193.194 732.367,-195.816 731.762,-188.842"/>
<text text-anchor="middle" x="797" y="-198" font-family="Helvetica,sans-Serif" font-size="10.00"> myRenderedNodes</text>
</g>
<!-- Node17&#45;&gt;Node13 -->
<g id="edge28" class="edge"><title>Node17&#45;&gt;Node13</title>
<path fill="none" stroke="#9a32cd" stroke-dasharray="5,2" d="M706.87,-151.703C720.371,-150.162 734.656,-148.79 748,-148 866.916,-140.96 897.778,-137.363 1016,-152 1076.97,-159.548 1146.48,-177.356 1186.31,-188.47"/>
<polygon fill="#9a32cd" stroke="#9a32cd" points="706.244,-148.253 696.727,-152.907 707.069,-155.204 706.244,-148.253"/>
<text text-anchor="middle" x="940" y="-155" font-family="Helvetica,sans-Serif" font-size="10.00"> myCurrentLevel</text>
</g>
<!-- Node17&#45;&gt;Node15 -->
<g id="edge17" class="edge"><title>Node17&#45;&gt;Node15</title>
<path fill="none" stroke="#9a32cd" stroke-dasharray="5,2" d="M706.55,-152.194C748.213,-149.614 803.746,-152.17 846,-176 857.926,-182.726 853.02,-192.821 864,-201 869.747,-205.281 876.254,-208.896 882.974,-211.938"/>
<polygon fill="#9a32cd" stroke="#9a32cd" points="706.26,-148.705 696.543,-152.927 706.772,-155.687 706.26,-148.705"/>
<text text-anchor="middle" x="797" y="-179" font-family="Helvetica,sans-Serif" font-size="10.00"> myCurrentLevel</text>
</g>
<!-- Node18 -->
<g id="node18" class="node"><title>Node18</title>
<g id="a_node18"><a xlink:href="../../d3/d8d/classdata_1_1_observable.html" target="_top" xlink:title="data.Observable">
<polygon fill="white" stroke="black" points="277.5,-144.5 277.5,-163.5 372.5,-163.5 372.5,-144.5 277.5,-144.5"/>
<text text-anchor="middle" x="325" y="-151.5" font-family="Helvetica,sans-Serif" font-size="10.00">data.Observable</text>
</a>
</g>
</g>
<!-- Node18&#45;&gt;Node17 -->
<g id="edge18" class="edge"><title>Node18&#45;&gt;Node17</title>
<path fill="none" stroke="midnightblue" d="M382.85,-155.069C443.23,-156.205 537.733,-157.982 595.257,-159.064"/>
<polygon fill="midnightblue" stroke="midnightblue" points="382.791,-151.568 372.727,-154.879 382.659,-158.566 382.791,-151.568"/>
</g>
<!-- Node19 -->
<g id="node19" class="node"><title>Node19</title>
<polygon fill="white" stroke="#bfbfbf" points="23,-144.5 23,-163.5 161,-163.5 161,-144.5 23,-144.5"/>
<text text-anchor="middle" x="92" y="-151.5" font-family="Helvetica,sans-Serif" font-size="10.00">Vector&lt; data.Observer &gt;</text>
</g>
<!-- Node19&#45;&gt;Node18 -->
<g id="edge19" class="edge"><title>Node19&#45;&gt;Node18</title>
<path fill="none" stroke="#9a32cd" stroke-dasharray="5,2" d="M171.318,-154C206.521,-154 246.882,-154 277.262,-154"/>
<polygon fill="#9a32cd" stroke="#9a32cd" points="171.058,-150.5 161.058,-154 171.058,-157.5 171.058,-150.5"/>
<text text-anchor="middle" x="213" y="-157" font-family="Helvetica,sans-Serif" font-size="10.00"> obs</text>
</g>
<!-- Node20 -->
<g id="node20" class="node"><title>Node20</title>
<g id="a_node20"><a xlink:href="../../d1/d32/classauthoring_1_1model_1_1collections_1_1_game_objects_collection.html" target="_top" xlink:title="authoring.model.collections.\lGameObjectsCollection">
<polygon fill="white" stroke="black" points="249,-75 249,-105 401,-105 401,-75 249,-75"/>
<text text-anchor="start" x="257" y="-93" font-family="Helvetica,sans-Serif" font-size="10.00">authoring.model.collections.</text>
<text text-anchor="middle" x="325" y="-82" font-family="Helvetica,sans-Serif" font-size="10.00">GameObjectsCollection</text>
</a>
</g>
</g>
<!-- Node20&#45;&gt;Node10 -->
<g id="edge38" class="edge"><title>Node20&#45;&gt;Node10</title>
<path fill="none" stroke="#9a32cd" stroke-dasharray="5,2" d="M366.755,-70.6958C426.425,-44.2512 541.705,-0 645,-0 645,-0 645,-0 1221,-0 1398.97,-0 1488.81,-275.252 1505.23,-331.162"/>
<polygon fill="#9a32cd" stroke="#9a32cd" points="365.006,-67.6448 357.319,-74.936 367.875,-74.0299 365.006,-67.6448"/>
<text text-anchor="middle" x="940" y="-3" font-family="Helvetica,sans-Serif" font-size="10.00"> myGameObjects</text>
</g>
<!-- Node20&#45;&gt;Node13 -->
<g id="edge27" class="edge"><title>Node20&#45;&gt;Node13</title>
<path fill="none" stroke="#9a32cd" stroke-dasharray="5,2" d="M411.076,-92.5625C514.16,-96.0954 693.048,-103.599 846,-117 921.839,-123.645 940.487,-128.328 1016,-138 1059.58,-143.582 1071.73,-139.011 1114,-151 1146.28,-160.156 1181.41,-177.536 1201.75,-188.403"/>
<polygon fill="#9a32cd" stroke="#9a32cd" points="411.147,-89.0629 401.034,-92.2227 410.91,-96.0589 411.147,-89.0629"/>
<text text-anchor="middle" x="797" y="-131" font-family="Helvetica,sans-Serif" font-size="10.00"> myTemplateObjects</text>
<text text-anchor="middle" x="797" y="-120" font-family="Helvetica,sans-Serif" font-size="10.00">myGameObjects</text>
</g>
<!-- Node20&#45;&gt;Node17 -->
<g id="edge22" class="edge"><title>Node20&#45;&gt;Node17</title>
<path fill="none" stroke="#9a32cd" stroke-dasharray="5,2" d="M411.174,-103.448C451.631,-110.39 500.534,-119.589 544,-130 568.371,-135.837 595.583,-144.019 615.615,-150.363"/>
<polygon fill="#9a32cd" stroke="#9a32cd" points="411.523,-99.9569 401.078,-101.732 410.35,-106.858 411.523,-99.9569"/>
<text text-anchor="middle" x="485" y="-144" font-family="Helvetica,sans-Serif" font-size="10.00"> myDefaultGameObjects</text>
<text text-anchor="middle" x="485" y="-133" font-family="Helvetica,sans-Serif" font-size="10.00">myWorkingGameObjects</text>
</g>
<!-- Node21 -->
<g id="node21" class="node"><title>Node21</title>
<g id="a_node21"><a xlink:href="../../d4/d3b/classauthoring_1_1model_1_1collections_1_1_general_collection.html" target="_top" xlink:title="authoring.model.collections.\lGeneralCollection\&lt; GameObject \&gt;">
<polygon fill="white" stroke="black" points="0.5,-75 0.5,-105 183.5,-105 183.5,-75 0.5,-75"/>
<text text-anchor="start" x="8.5" y="-93" font-family="Helvetica,sans-Serif" font-size="10.00">authoring.model.collections.</text>
<text text-anchor="middle" x="92" y="-82" font-family="Helvetica,sans-Serif" font-size="10.00">GeneralCollection&lt; GameObject &gt;</text>
</a>
</g>
</g>
<!-- Node21&#45;&gt;Node20 -->
<g id="edge23" class="edge"><title>Node21&#45;&gt;Node20</title>
<path fill="none" stroke="midnightblue" d="M193.843,-90C212.335,-90 231.337,-90 248.91,-90"/>
<polygon fill="midnightblue" stroke="midnightblue" points="193.634,-86.5001 183.634,-90 193.634,-93.5001 193.634,-86.5001"/>
</g>
<!-- Node22 -->
<g id="node22" class="node"><title>Node22</title>
<polygon fill="white" stroke="#bfbfbf" points="254.5,-183 254.5,-213 395.5,-213 395.5,-183 254.5,-183"/>
<text text-anchor="start" x="262.5" y="-201" font-family="Helvetica,sans-Serif" font-size="10.00">List&lt; engine.gameObject.</text>
<text text-anchor="middle" x="325" y="-190" font-family="Helvetica,sans-Serif" font-size="10.00">Identifier &gt;</text>
</g>
<!-- Node22&#45;&gt;Node17 -->
<g id="edge24" class="edge"><title>Node22&#45;&gt;Node17</title>
<path fill="none" stroke="#9a32cd" stroke-dasharray="5,2" d="M405.726,-188.503C465.211,-181.417 544.633,-171.956 595.312,-165.919"/>
<polygon fill="#9a32cd" stroke="#9a32cd" points="405.127,-185.049 395.612,-189.708 405.956,-192 405.127,-185.049"/>
<text text-anchor="middle" x="485" y="-200" font-family="Helvetica,sans-Serif" font-size="10.00"> myConditionIdList</text>
<text text-anchor="middle" x="485" y="-189" font-family="Helvetica,sans-Serif" font-size="10.00">myGameObjectIdList</text>
</g>
<!-- Node23 -->
<g id="node23" class="node"><title>Node23</title>
<polygon fill="white" stroke="#bfbfbf" points="623,-394.5 623,-413.5 669,-413.5 669,-394.5 623,-394.5"/>
<text text-anchor="middle" x="646" y="-401.5" font-family="Helvetica,sans-Serif" font-size="10.00">Group</text>
</g>
<!-- Node23&#45;&gt;Node10 -->
<g id="edge40" class="edge"><title>Node23&#45;&gt;Node10</title>
<path fill="none" stroke="#9a32cd" stroke-dasharray="5,2" d="M679.384,-408.73C718.97,-413.652 787.87,-419.433 846,-410 854.324,-408.649 855.752,-405.755 864,-404 974.567,-380.476 1309.29,-355.004 1447.4,-345.184"/>
<polygon fill="#9a32cd" stroke="#9a32cd" points="679.634,-405.233 669.265,-407.41 678.729,-412.175 679.634,-405.233"/>
<text text-anchor="middle" x="1074" y="-383" font-family="Helvetica,sans-Serif" font-size="10.00"> myRootGroup</text>
</g>
<!-- Node23&#45;&gt;Node15 -->
<g id="edge25" class="edge"><title>Node23&#45;&gt;Node15</title>
<path fill="none" stroke="#9a32cd" stroke-dasharray="5,2" d="M679.244,-403.065C696.263,-400.95 716.38,-395.648 730,-383 748.538,-365.785 729.15,-345.872 748,-329 781.191,-299.292 807.162,-329.814 846,-308 856.142,-302.304 855.502,-296.943 864,-289 882.02,-272.158 903.88,-254.361 919.339,-242.176"/>
<polygon fill="#9a32cd" stroke="#9a32cd" points="678.767,-399.595 669.135,-404.008 679.416,-406.565 678.767,-399.595"/>
<text text-anchor="middle" x="797" y="-332" font-family="Helvetica,sans-Serif" font-size="10.00"> myCanvas</text>
</g>
<!-- Node24 -->
<g id="node24" class="node"><title>Node24</title>
<g id="a_node24"><a xlink:href="../../d9/db5/classengine_1_1_file_path_utility.html" target="_top" xlink:title="engine.FilePathUtility">
<polygon fill="white" stroke="black" points="588.5,-243.5 588.5,-262.5 703.5,-262.5 703.5,-243.5 588.5,-243.5"/>
<text text-anchor="middle" x="646" y="-250.5" font-family="Helvetica,sans-Serif" font-size="10.00">engine.FilePathUtility</text>
</a>
</g>
</g>
<!-- Node24&#45;&gt;Node15 -->
<g id="edge26" class="edge"><title>Node24&#45;&gt;Node15</title>
<path fill="none" stroke="#9a32cd" stroke-dasharray="5,2" d="M688.871,-240.84C706.899,-236.182 728.318,-231.411 748,-229 787.005,-224.222 830.825,-223.439 866.645,-223.976"/>
<polygon fill="#9a32cd" stroke="#9a32cd" points="687.727,-237.522 678.963,-243.475 689.527,-244.287 687.727,-237.522"/>
<text text-anchor="middle" x="797" y="-232" font-family="Helvetica,sans-Serif" font-size="10.00"> myFilePathUtility</text>
</g>
<!-- Node24&#45;&gt;Node25 -->
<g id="edge33" class="edge"><title>Node24&#45;&gt;Node25</title>
<path fill="none" stroke="#9a32cd" stroke-dasharray="5,2" d="M713.739,-259.398C752.593,-263.782 802.368,-270.534 846,-280 868.246,-284.826 892.892,-292.349 911.22,-298.382"/>
<polygon fill="#9a32cd" stroke="#9a32cd" points="713.92,-255.896 703.596,-258.279 713.152,-262.854 713.92,-255.896"/>
<text text-anchor="middle" x="797" y="-283" font-family="Helvetica,sans-Serif" font-size="10.00"> myFilePathUtility</text>
</g>
<!-- Node25&#45;&gt;Node10 -->
<g id="edge41" class="edge"><title>Node25&#45;&gt;Node10</title>
<path fill="none" stroke="#9a32cd" stroke-dasharray="5,2" d="M1021.22,-312.669C1135.91,-319.344 1344.24,-331.469 1447.14,-337.458"/>
<polygon fill="#9a32cd" stroke="#9a32cd" points="1021.28,-309.167 1011.09,-312.08 1020.87,-316.155 1021.28,-309.167"/>
<text text-anchor="middle" x="1220" y="-332" font-family="Helvetica,sans-Serif" font-size="10.00"> mySoundUtility</text>
</g>
<!-- Node25&#45;&gt;Node13 -->
<g id="edge29" class="edge"><title>Node25&#45;&gt;Node13</title>
<path fill="none" stroke="#9a32cd" stroke-dasharray="5,2" d="M974.782,-294.633C1031.6,-272.15 1144.95,-227.299 1194.67,-207.626"/>
<polygon fill="#9a32cd" stroke="#9a32cd" points="973.195,-291.497 965.184,-298.431 975.771,-298.006 973.195,-291.497"/>
<text text-anchor="middle" x="1074" y="-273" font-family="Helvetica,sans-Serif" font-size="10.00"> mySoundPlayer</text>
</g>
<!-- Node26 -->
<g id="node26" class="node"><title>Node26</title>
<polygon fill="white" stroke="#bfbfbf" points="570,-286.5 570,-305.5 722,-305.5 722,-286.5 570,-286.5"/>
<text text-anchor="middle" x="646" y="-293.5" font-family="Helvetica,sans-Serif" font-size="10.00">Map&lt; String, MediaPlayer &gt;</text>
</g>
<!-- Node26&#45;&gt;Node25 -->
<g id="edge31" class="edge"><title>Node26&#45;&gt;Node25</title>
<path fill="none" stroke="#9a32cd" stroke-dasharray="5,2" d="M732.431,-294.321C767.632,-294.177 808.808,-294.714 846,-297 853.465,-297.459 861.25,-298.108 868.999,-298.864"/>
<polygon fill="#9a32cd" stroke="#9a32cd" points="732.17,-290.822 722.191,-294.382 732.212,-297.822 732.17,-290.822"/>
<text text-anchor="middle" x="797" y="-300" font-family="Helvetica,sans-Serif" font-size="10.00"> myMediaPlayerMap</text>
</g>
<!-- Node27 -->
<g id="node27" class="node"><title>Node27</title>
<polygon fill="white" stroke="#bfbfbf" points="577,-354.5 577,-373.5 715,-373.5 715,-354.5 577,-354.5"/>
<text text-anchor="middle" x="646" y="-361.5" font-family="Helvetica,sans-Serif" font-size="10.00">Map&lt; String, AudioClip &gt;</text>
</g>
<!-- Node27&#45;&gt;Node25 -->
<g id="edge32" class="edge"><title>Node27&#45;&gt;Node25</title>
<path fill="none" stroke="#9a32cd" stroke-dasharray="5,2" d="M725.585,-359.686C762.49,-356.55 806.87,-351.175 846,-342 871.106,-336.114 898.72,-325.452 917.283,-317.633"/>
<polygon fill="#9a32cd" stroke="#9a32cd" points="725.07,-356.216 715.385,-360.512 725.635,-363.193 725.07,-356.216"/>
<text text-anchor="middle" x="797" y="-361" font-family="Helvetica,sans-Serif" font-size="10.00"> myAudioClipMap</text>
</g>
<!-- Node28 -->
<g id="node28" class="node"><title>Node28</title>
<g id="a_node28"><a xlink:href="../../db/d2a/classauthoring_1_1model_1_1collections_1_1_conditions_collection.html" target="_top" xlink:title="authoring.model.collections.\lConditionsCollection">
<polygon fill="white" stroke="black" points="864,-31 864,-61 1016,-61 1016,-31 864,-31"/>
<text text-anchor="start" x="872" y="-49" font-family="Helvetica,sans-Serif" font-size="10.00">authoring.model.collections.</text>
<text text-anchor="middle" x="940" y="-38" font-family="Helvetica,sans-Serif" font-size="10.00">ConditionsCollection</text>
</a>
</g>
</g>
<!-- Node28&#45;&gt;Node10 -->
<g id="edge42" class="edge"><title>Node28&#45;&gt;Node10</title>
<path fill="none" stroke="#9a32cd" stroke-dasharray="5,2" d="M1026.49,-46.2714C1054.77,-48.1085 1086.13,-52.0587 1114,-60 1257.18,-100.792 1298.21,-116.996 1412,-213 1455.1,-249.362 1490.21,-308.542 1502.9,-331.488"/>
<polygon fill="#9a32cd" stroke="#9a32cd" points="1026.41,-42.761 1016.23,-45.6867 1026.01,-49.7497 1026.41,-42.761"/>
<text text-anchor="middle" x="1220" y="-138" font-family="Helvetica,sans-Serif" font-size="10.00"> myGameConditions</text>
</g>
<!-- Node28&#45;&gt;Node13 -->
<g id="edge34" class="edge"><title>Node28&#45;&gt;Node13</title>
<path fill="none" stroke="#9a32cd" stroke-dasharray="5,2" d="M1026.14,-57.5417C1061.85,-63.4402 1098.63,-71.2247 1114,-80 1162.34,-107.604 1200.04,-165.628 1213.58,-188.471"/>
<polygon fill="#9a32cd" stroke="#9a32cd" points="1026.54,-54.0616 1016.11,-55.9288 1025.43,-60.9728 1026.54,-54.0616"/>
<text text-anchor="middle" x="1074" y="-83" font-family="Helvetica,sans-Serif" font-size="10.00"> myConditions</text>
</g>
<!-- Node29 -->
<g id="node29" class="node"><title>Node29</title>
<g id="a_node29"><a xlink:href="../../d4/d3b/classauthoring_1_1model_1_1collections_1_1_general_collection.html" target="_top" xlink:title="authoring.model.collections.\lGeneralCollection\&lt; Condition \&gt;">
<polygon fill="white" stroke="black" points="562,-31 562,-61 730,-61 730,-31 562,-31"/>
<text text-anchor="start" x="570" y="-49" font-family="Helvetica,sans-Serif" font-size="10.00">authoring.model.collections.</text>
<text text-anchor="middle" x="646" y="-38" font-family="Helvetica,sans-Serif" font-size="10.00">GeneralCollection&lt; Condition &gt;</text>
</a>
</g>
</g>
<!-- Node29&#45;&gt;Node28 -->
<g id="edge35" class="edge"><title>Node29&#45;&gt;Node28</title>
<path fill="none" stroke="midnightblue" d="M740.523,-46C780.286,-46 826.039,-46 863.588,-46"/>
<polygon fill="midnightblue" stroke="midnightblue" points="740.285,-42.5001 730.285,-46 740.285,-49.5001 740.285,-42.5001"/>
</g>
<!-- Node30 -->
<g id="node30" class="node"><title>Node30</title>
<polygon fill="white" stroke="#bfbfbf" points="1192,-427.5 1192,-446.5 1248,-446.5 1248,-427.5 1192,-427.5"/>
<text text-anchor="middle" x="1220" y="-434.5" font-family="Helvetica,sans-Serif" font-size="10.00">Timeline</text>
</g>
<!-- Node30&#45;&gt;Node10 -->
<g id="edge36" class="edge"><title>Node30&#45;&gt;Node10</title>
<path fill="none" stroke="#9a32cd" stroke-dasharray="5,2" d="M1258.43,-435.366C1297.86,-432.594 1361.17,-425.125 1412,-405 1445.9,-391.579 1480.12,-364.894 1497.07,-350.587"/>
<polygon fill="#9a32cd" stroke="#9a32cd" points="1257.97,-431.888 1248.21,-436.016 1258.41,-438.874 1257.97,-431.888"/>
<text text-anchor="middle" x="1369" y="-430" font-family="Helvetica,sans-Serif" font-size="10.00"> myAnimation</text>
</g>
<!-- Node31 -->
<g id="node31" class="node"><title>Node31</title>
<polygon fill="white" stroke="#bfbfbf" points="1139.5,-389.5 1139.5,-408.5 1300.5,-408.5 1300.5,-389.5 1139.5,-389.5"/>
<text text-anchor="middle" x="1220" y="-396.5" font-family="Helvetica,sans-Serif" font-size="10.00">EventHandler&lt; ActionEvent &gt;</text>
</g>
<!-- Node31&#45;&gt;Node10 -->
<g id="edge39" class="edge"><title>Node31&#45;&gt;Node10</title>
<path fill="none" stroke="#9a32cd" stroke-dasharray="5,2" d="M1310.95,-391.728C1343.11,-388.072 1379.43,-382.719 1412,-375 1437.81,-368.884 1466.33,-358.262 1485.53,-350.515"/>
<polygon fill="#9a32cd" stroke="#9a32cd" points="1310.23,-388.286 1300.67,-392.857 1310.99,-395.245 1310.23,-388.286"/>
<text text-anchor="middle" x="1369" y="-393" font-family="Helvetica,sans-Serif" font-size="10.00"> oneFrame</text>
</g>
<!-- Node32 -->
<g id="node32" class="node"><title>Node32</title>
<polygon fill="white" stroke="#bfbfbf" points="1430,-541.5 1430,-560.5 1588,-560.5 1588,-541.5 1430,-541.5"/>
<text text-anchor="middle" x="1509" y="-548.5" font-family="Helvetica,sans-Serif" font-size="10.00">List&lt; engine.actions.Action &gt;</text>
</g>
<!-- Node32&#45;&gt;Node6 -->
<g id="edge43" class="edge"><title>Node32&#45;&gt;Node6</title>
<path fill="none" stroke="#9a32cd" stroke-dasharray="5,2" d="M1598.6,-555.819C1629.44,-557.608 1664.26,-559.753 1696,-562 1703.58,-562.537 1711.5,-563.132 1719.4,-563.749"/>
<polygon fill="#9a32cd" stroke="#9a32cd" points="1598.49,-552.307 1588.31,-555.226 1598.09,-559.296 1598.49,-552.307"/>
<text text-anchor="middle" x="1651" y="-565" font-family="Helvetica,sans-Serif" font-size="10.00"> myActions</text>
</g>
</g>
</svg>
