<?xml version="1.0" encoding="UTF-8" standalone="no"?>
<!DOCTYPE svg PUBLIC "-//W3C//DTD SVG 1.1//EN"
 "http://www.w3.org/Graphics/SVG/1.1/DTD/svg11.dtd">
<!-- Generated by graphviz version 2.36.0 (20140111.2315)
 -->
<!-- Title: authoring.eventhandlers.DeleteConditionHandler.handle Pages: 1 -->
<svg width="608pt" height="77pt"
 viewBox="0.00 0.00 608.00 77.00" xmlns="http://www.w3.org/2000/svg" xmlns:xlink="http://www.w3.org/1999/xlink">
<g id="graph0" class="graph" transform="scale(1 1) rotate(0) translate(4 73)">
<title>authoring.eventhandlers.DeleteConditionHandler.handle</title>
<polygon fill="white" stroke="none" points="-4,4 -4,-73 604,-73 604,4 -4,4"/>
<!-- Node1 -->
<g id="node1" class="node"><title>Node1</title>
<polygon fill="#bfbfbf" stroke="black" points="0.5,-17 0.5,-47 165.5,-47 165.5,-17 0.5,-17"/>
<text text-anchor="start" x="8.5" y="-35" font-family="Helvetica,sans-Serif" font-size="10.00">authoring.eventhandlers.</text>
<text text-anchor="middle" x="83" y="-24" font-family="Helvetica,sans-Serif" font-size="10.00">DeleteConditionHandler.handle</text>
</g>
<!-- Node2 -->
<g id="node2" class="node"><title>Node2</title>
<g id="a_node2"><a xlink:href="../../d3/dac/classauthoring_1_1eventhandlers_1_1_delete_condition_handler.html#a546fb1ccbd7a604464ab23355f1c3ae3" target="_top" xlink:title="authoring.eventhandlers.\lDeleteConditionHandler.delete\lCondition">
<polygon fill="white" stroke="black" points="202.5,-11.5 202.5,-52.5 365.5,-52.5 365.5,-11.5 202.5,-11.5"/>
<text text-anchor="start" x="210.5" y="-40.5" font-family="Helvetica,sans-Serif" font-size="10.00">authoring.eventhandlers.</text>
<text text-anchor="start" x="210.5" y="-29.5" font-family="Helvetica,sans-Serif" font-size="10.00">DeleteConditionHandler.delete</text>
<text text-anchor="middle" x="284" y="-18.5" font-family="Helvetica,sans-Serif" font-size="10.00">Condition</text>
</a>
</g>
</g>
<!-- Node1&#45;&gt;Node2 -->
<g id="edge1" class="edge"><title>Node1&#45;&gt;Node2</title>
<path fill="none" stroke="midnightblue" d="M165.515,-32C174.328,-32 183.335,-32 192.248,-32"/>
<polygon fill="midnightblue" stroke="midnightblue" points="192.255,-35.5001 202.255,-32 192.255,-28.5001 192.255,-35.5001"/>
</g>
<!-- Node3 -->
<g id="node3" class="node"><title>Node3</title>
<g id="a_node3"><a xlink:href="../../df/d84/classengine_1_1level_1_1_level.html#a264b568258eafa3d2c664c94e7498621" target="_top" xlink:title="engine.level.Level.getCondition\lIdentifiers">
<polygon fill="white" stroke="black" points="418.5,-39 418.5,-69 583.5,-69 583.5,-39 418.5,-39"/>
<text text-anchor="start" x="426.5" y="-57" font-family="Helvetica,sans-Serif" font-size="10.00">engine.level.Level.getCondition</text>
<text text-anchor="middle" x="501" y="-46" font-family="Helvetica,sans-Serif" font-size="10.00">Identifiers</text>
</a>
</g>
</g>
<!-- Node2&#45;&gt;Node3 -->
<g id="edge2" class="edge"><title>Node2&#45;&gt;Node3</title>
<path fill="none" stroke="midnightblue" d="M365.67,-40.2546C379.477,-41.6674 393.915,-43.1448 407.991,-44.5851"/>
<polygon fill="midnightblue" stroke="midnightblue" points="407.858,-48.0897 418.162,-45.6259 408.57,-41.126 407.858,-48.0897"/>
</g>
<!-- Node4 -->
<g id="node4" class="node"><title>Node4</title>
<g id="a_node4"><a xlink:href="../../d6/d32/classauthoring_1_1view_1_1wizards_1_1_wizard.html#a0d419b2943c99507fca42fd769c24b0e" target="_top" xlink:title="authoring.view.wizards.Wizard.getMap">
<polygon fill="white" stroke="black" points="402.5,-0.5 402.5,-19.5 599.5,-19.5 599.5,-0.5 402.5,-0.5"/>
<text text-anchor="middle" x="501" y="-7.5" font-family="Helvetica,sans-Serif" font-size="10.00">authoring.view.wizards.Wizard.getMap</text>
</a>
</g>
</g>
<!-- Node2&#45;&gt;Node4 -->
<g id="edge3" class="edge"><title>Node2&#45;&gt;Node4</title>
<path fill="none" stroke="midnightblue" d="M365.67,-23.7454C375.873,-22.7013 386.421,-21.622 396.913,-20.5484"/>
<polygon fill="midnightblue" stroke="midnightblue" points="397.35,-24.022 406.942,-19.5222 396.638,-17.0584 397.35,-24.022"/>
</g>
</g>
</svg>
