<?xml version="1.0" encoding="UTF-8" standalone="no"?>
<!DOCTYPE svg PUBLIC "-//W3C//DTD SVG 1.1//EN"
 "http://www.w3.org/Graphics/SVG/1.1/DTD/svg11.dtd">
<!-- Generated by graphviz version 2.36.0 (20140111.2315)
 -->
<!-- Title: gamePlayer.view.PlayerView.close Pages: 1 -->
<svg width="652pt" height="38pt"
 viewBox="0.00 0.00 652.00 38.00" xmlns="http://www.w3.org/2000/svg" xmlns:xlink="http://www.w3.org/1999/xlink">
<g id="graph0" class="graph" transform="scale(1 1) rotate(0) translate(4 34)">
<title>gamePlayer.view.PlayerView.close</title>
<polygon fill="white" stroke="none" points="-4,4 -4,-34 648,-34 648,4 -4,4"/>
<!-- Node1 -->
<g id="node1" class="node"><title>Node1</title>
<polygon fill="#bfbfbf" stroke="black" points="0,-5.5 0,-24.5 176,-24.5 176,-5.5 0,-5.5"/>
<text text-anchor="middle" x="88" y="-12.5" font-family="Helvetica,sans-Serif" font-size="10.00">gamePlayer.view.PlayerView.close</text>
</g>
<!-- Node2 -->
<g id="node2" class="node"><title>Node2</title>
<g id="a_node2"><a xlink:href="../../d2/dc9/classgame_player_1_1model_1_1_player_model.html#aa7194f2aee9fcab0ae5f7ecc6ad1d58a" target="_top" xlink:title="gamePlayer.model.PlayerModel.exit\lFromGame">
<polygon fill="white" stroke="black" points="212.5,-0 212.5,-30 399.5,-30 399.5,-0 212.5,-0"/>
<text text-anchor="start" x="220.5" y="-18" font-family="Helvetica,sans-Serif" font-size="10.00">gamePlayer.model.PlayerModel.exit</text>
<text text-anchor="middle" x="306" y="-7" font-family="Helvetica,sans-Serif" font-size="10.00">FromGame</text>
</a>
</g>
</g>
<!-- Node1&#45;&gt;Node2 -->
<g id="edge1" class="edge"><title>Node1&#45;&gt;Node2</title>
<path fill="none" stroke="midnightblue" d="M186.279,-15C194.885,-15 203.582,-15 212.149,-15"/>
<polygon fill="midnightblue" stroke="midnightblue" points="186.233,-11.5001 176.233,-15 186.233,-18.5001 186.233,-11.5001"/>
</g>
<!-- Node3 -->
<g id="node3" class="node"><title>Node3</title>
<g id="a_node3"><a xlink:href="../../d9/dff/classgame_player_1_1view_1_1_menu_bar_controller.html#a03dbe0e614185dfd4b6eebabcca44219" target="_top" xlink:title="gamePlayer.view.MenuBarController.exit\lFromGame">
<polygon fill="white" stroke="black" points="436.5,-0 436.5,-30 643.5,-30 643.5,-0 436.5,-0"/>
<text text-anchor="start" x="444.5" y="-18" font-family="Helvetica,sans-Serif" font-size="10.00">gamePlayer.view.MenuBarController.exit</text>
<text text-anchor="middle" x="540" y="-7" font-family="Helvetica,sans-Serif" font-size="10.00">FromGame</text>
</a>
</g>
</g>
<!-- Node2&#45;&gt;Node3 -->
<g id="edge2" class="edge"><title>Node2&#45;&gt;Node3</title>
<path fill="none" stroke="midnightblue" d="M409.88,-15C418.607,-15 427.435,-15 436.162,-15"/>
<polygon fill="midnightblue" stroke="midnightblue" points="409.693,-11.5001 399.693,-15 409.693,-18.5001 409.693,-11.5001"/>
</g>
</g>
</svg>
