<?xml version="1.0" encoding="UTF-8" standalone="no"?>
<!DOCTYPE svg PUBLIC "-//W3C//DTD SVG 1.1//EN"
 "http://www.w3.org/Graphics/SVG/1.1/DTD/svg11.dtd">
<!-- Generated by graphviz version 2.36.0 (20140111.2315)
 -->
<!-- Title: authoring.view.levelview.LevelOptions.LevelOptions Pages: 1 -->
<svg width="574pt" height="38pt"
 viewBox="0.00 0.00 574.00 38.00" xmlns="http://www.w3.org/2000/svg" xmlns:xlink="http://www.w3.org/1999/xlink">
<g id="graph0" class="graph" transform="scale(1 1) rotate(0) translate(4 34)">
<title>authoring.view.levelview.LevelOptions.LevelOptions</title>
<polygon fill="white" stroke="none" points="-4,4 -4,-34 570,-34 570,4 -4,4"/>
<!-- Node1 -->
<g id="node1" class="node"><title>Node1</title>
<polygon fill="#bfbfbf" stroke="black" points="0.5,-0 0.5,-30 143.5,-30 143.5,-0 0.5,-0"/>
<text text-anchor="start" x="8.5" y="-18" font-family="Helvetica,sans-Serif" font-size="10.00">authoring.view.levelview.</text>
<text text-anchor="middle" x="72" y="-7" font-family="Helvetica,sans-Serif" font-size="10.00">LevelOptions.LevelOptions</text>
</g>
<!-- Node2 -->
<g id="node2" class="node"><title>Node2</title>
<g id="a_node2"><a xlink:href="../../d4/df1/classauthoring_1_1view_1_1levelview_1_1_level_options.html#a235d5573ce7c546033023c6f53f7d504" target="_top" xlink:title="authoring.view.levelview.\lLevelOptions.addNewButtons">
<polygon fill="white" stroke="black" points="180.5,-0 180.5,-30 337.5,-30 337.5,-0 180.5,-0"/>
<text text-anchor="start" x="188.5" y="-18" font-family="Helvetica,sans-Serif" font-size="10.00">authoring.view.levelview.</text>
<text text-anchor="middle" x="259" y="-7" font-family="Helvetica,sans-Serif" font-size="10.00">LevelOptions.addNewButtons</text>
</a>
</g>
</g>
<!-- Node1&#45;&gt;Node2 -->
<g id="edge1" class="edge"><title>Node1&#45;&gt;Node2</title>
<path fill="none" stroke="midnightblue" d="M143.732,-15C152.31,-15 161.153,-15 169.942,-15"/>
<polygon fill="midnightblue" stroke="midnightblue" points="170.216,-18.5001 180.216,-15 170.216,-11.5001 170.216,-18.5001"/>
</g>
<!-- Node3 -->
<g id="node3" class="node"><title>Node3</title>
<g id="a_node3"><a xlink:href="../../df/dee/classauthoring_1_1view_1_1generalcollectionview_1_1_collection_options.html#aa9e60e3c5350310c32dd6108cbcb3987" target="_top" xlink:title="authoring.view.generalcollectionview.\lCollectionOptions.makeButton">
<polygon fill="white" stroke="black" points="374.5,-0 374.5,-30 565.5,-30 565.5,-0 374.5,-0"/>
<text text-anchor="start" x="382.5" y="-18" font-family="Helvetica,sans-Serif" font-size="10.00">authoring.view.generalcollectionview.</text>
<text text-anchor="middle" x="470" y="-7" font-family="Helvetica,sans-Serif" font-size="10.00">CollectionOptions.makeButton</text>
</a>
</g>
</g>
<!-- Node2&#45;&gt;Node3 -->
<g id="edge2" class="edge"><title>Node2&#45;&gt;Node3</title>
<path fill="none" stroke="midnightblue" d="M337.527,-15C346.221,-15 355.182,-15 364.146,-15"/>
<polygon fill="midnightblue" stroke="midnightblue" points="364.255,-18.5001 374.255,-15 364.255,-11.5001 364.255,-18.5001"/>
</g>
</g>
</svg>
