<?xml version="1.0" encoding="UTF-8" standalone="no"?>
<!DOCTYPE svg PUBLIC "-//W3C//DTD SVG 1.1//EN"
 "http://www.w3.org/Graphics/SVG/1.1/DTD/svg11.dtd">
<!-- Generated by graphviz version 2.36.0 (20140111.2315)
 -->
<!-- Title: authoring.view.wizards.ActionChoiceWizard.getSelectedAction Pages: 1 -->
<svg width="556pt" height="38pt"
 viewBox="0.00 0.00 556.00 38.00" xmlns="http://www.w3.org/2000/svg" xmlns:xlink="http://www.w3.org/1999/xlink">
<g id="graph0" class="graph" transform="scale(1 1) rotate(0) translate(4 34)">
<title>authoring.view.wizards.ActionChoiceWizard.getSelectedAction</title>
<polygon fill="white" stroke="none" points="-4,4 -4,-34 552,-34 552,4 -4,4"/>
<!-- Node1 -->
<g id="node1" class="node"><title>Node1</title>
<polygon fill="#bfbfbf" stroke="black" points="0.5,-0 0.5,-30 171.5,-30 171.5,-0 0.5,-0"/>
<text text-anchor="start" x="8.5" y="-18" font-family="Helvetica,sans-Serif" font-size="10.00">authoring.view.wizards.Action</text>
<text text-anchor="middle" x="86" y="-7" font-family="Helvetica,sans-Serif" font-size="10.00">ChoiceWizard.getSelectedAction</text>
</g>
<!-- Node2 -->
<g id="node2" class="node"><title>Node2</title>
<g id="a_node2"><a xlink:href="../../d9/da4/classauthoring_1_1eventhandlers_1_1_add_action_handler.html#a9b96685d69e045a901bc1b55bc3fd327" target="_top" xlink:title="authoring.eventhandlers.\lAddActionHandler.createAction">
<polygon fill="white" stroke="black" points="208,-0 208,-30 374,-30 374,-0 208,-0"/>
<text text-anchor="start" x="216" y="-18" font-family="Helvetica,sans-Serif" font-size="10.00">authoring.eventhandlers.</text>
<text text-anchor="middle" x="291" y="-7" font-family="Helvetica,sans-Serif" font-size="10.00">AddActionHandler.createAction</text>
</a>
</g>
</g>
<!-- Node1&#45;&gt;Node2 -->
<g id="edge1" class="edge"><title>Node1&#45;&gt;Node2</title>
<path fill="none" stroke="midnightblue" d="M181.779,-15C190.471,-15 199.229,-15 207.797,-15"/>
<polygon fill="midnightblue" stroke="midnightblue" points="181.62,-11.5001 171.62,-15 181.62,-18.5001 181.62,-11.5001"/>
</g>
<!-- Node3 -->
<g id="node3" class="node"><title>Node3</title>
<g id="a_node3"><a xlink:href="../../d9/da4/classauthoring_1_1eventhandlers_1_1_add_action_handler.html#acbb13ad13aa3ac6617d6caaff858abdc" target="_top" xlink:title="authoring.eventhandlers.\lAddActionHandler.handle">
<polygon fill="white" stroke="black" points="410.5,-0 410.5,-30 547.5,-30 547.5,-0 410.5,-0"/>
<text text-anchor="start" x="418.5" y="-18" font-family="Helvetica,sans-Serif" font-size="10.00">authoring.eventhandlers.</text>
<text text-anchor="middle" x="479" y="-7" font-family="Helvetica,sans-Serif" font-size="10.00">AddActionHandler.handle</text>
</a>
</g>
</g>
<!-- Node2&#45;&gt;Node3 -->
<g id="edge2" class="edge"><title>Node2&#45;&gt;Node3</title>
<path fill="none" stroke="midnightblue" d="M384.346,-15C393.073,-15 401.807,-15 410.241,-15"/>
<polygon fill="midnightblue" stroke="midnightblue" points="384.124,-11.5001 374.124,-15 384.124,-18.5001 384.124,-11.5001"/>
</g>
</g>
</svg>
