<?xml version="1.0" encoding="UTF-8" standalone="no"?>
<!DOCTYPE svg PUBLIC "-//W3C//DTD SVG 1.1//EN"
 "http://www.w3.org/Graphics/SVG/1.1/DTD/svg11.dtd">
<!-- Generated by graphviz version 2.36.0 (20140111.2315)
 -->
<!-- Title: engine.gameObject.Identifier.setUniqueId Pages: 1 -->
<svg width="696pt" height="136pt"
 viewBox="0.00 0.00 696.00 136.00" xmlns="http://www.w3.org/2000/svg" xmlns:xlink="http://www.w3.org/1999/xlink">
<g id="graph0" class="graph" transform="scale(1 1) rotate(0) translate(4 132)">
<title>engine.gameObject.Identifier.setUniqueId</title>
<polygon fill="white" stroke="none" points="-4,4 -4,-132 692,-132 692,4 -4,4"/>
<!-- Node1 -->
<g id="node1" class="node"><title>Node1</title>
<polygon fill="#bfbfbf" stroke="black" points="0,-49 0,-79 172,-79 172,-49 0,-49"/>
<text text-anchor="start" x="8" y="-67" font-family="Helvetica,sans-Serif" font-size="10.00">engine.gameObject.Identifier.set</text>
<text text-anchor="middle" x="86" y="-56" font-family="Helvetica,sans-Serif" font-size="10.00">UniqueId</text>
</g>
<!-- Node2 -->
<g id="node2" class="node"><title>Node2</title>
<g id="a_node2"><a xlink:href="../../d5/dcb/classengine_1_1conditions_1_1_button_press_condition.html#a9a924ad4a74f3b809b04aaeaf08db82d" target="_top" xlink:title="engine.conditions.Button\lPressCondition.setKeyIdentifier">
<polygon fill="white" stroke="black" points="245,-98 245,-128 409,-128 409,-98 245,-98"/>
<text text-anchor="start" x="253" y="-116" font-family="Helvetica,sans-Serif" font-size="10.00">engine.conditions.Button</text>
<text text-anchor="middle" x="327" y="-105" font-family="Helvetica,sans-Serif" font-size="10.00">PressCondition.setKeyIdentifier</text>
</a>
</g>
</g>
<!-- Node1&#45;&gt;Node2 -->
<g id="edge1" class="edge"><title>Node1&#45;&gt;Node2</title>
<path fill="none" stroke="midnightblue" d="M170.468,-81.1127C197.289,-86.6115 226.781,-92.658 252.807,-97.9938"/>
<polygon fill="midnightblue" stroke="midnightblue" points="170.831,-77.6144 160.332,-79.0346 169.425,-84.4718 170.831,-77.6144"/>
</g>
<!-- Node3 -->
<g id="node3" class="node"><title>Node3</title>
<g id="a_node3"><a xlink:href="../../d5/df0/classengine_1_1conditions_1_1_button_release_condition.html#ae5085a16286ab906125ba7e3c996a795" target="_top" xlink:title="engine.conditions.Button\lReleaseCondition.setKeyIdentifier">
<polygon fill="white" stroke="black" points="240,-49 240,-79 414,-79 414,-49 240,-49"/>
<text text-anchor="start" x="248" y="-67" font-family="Helvetica,sans-Serif" font-size="10.00">engine.conditions.Button</text>
<text text-anchor="middle" x="327" y="-56" font-family="Helvetica,sans-Serif" font-size="10.00">ReleaseCondition.setKeyIdentifier</text>
</a>
</g>
</g>
<!-- Node1&#45;&gt;Node3 -->
<g id="edge2" class="edge"><title>Node1&#45;&gt;Node3</title>
<path fill="none" stroke="midnightblue" d="M182.426,-64C201.432,-64 221.286,-64 239.956,-64"/>
<polygon fill="midnightblue" stroke="midnightblue" points="182.272,-60.5001 172.272,-64 182.272,-67.5001 182.272,-60.5001"/>
</g>
<!-- Node4 -->
<g id="node4" class="node"><title>Node4</title>
<g id="a_node4"><a xlink:href="../../d0/df2/classauthoring_1_1eventhandlers_1_1_game_object_drag_to_level_handler.html#a98ccf77195ecfc7146cd1737da68b6b2" target="_top" xlink:title="authoring.eventhandlers.\lGameObjectDragToLevelHandler.updateName">
<polygon fill="white" stroke="black" points="208.5,-0 208.5,-30 445.5,-30 445.5,-0 208.5,-0"/>
<text text-anchor="start" x="216.5" y="-18" font-family="Helvetica,sans-Serif" font-size="10.00">authoring.eventhandlers.</text>
<text text-anchor="middle" x="327" y="-7" font-family="Helvetica,sans-Serif" font-size="10.00">GameObjectDragToLevelHandler.updateName</text>
</a>
</g>
</g>
<!-- Node1&#45;&gt;Node4 -->
<g id="edge3" class="edge"><title>Node1&#45;&gt;Node4</title>
<path fill="none" stroke="midnightblue" d="M170.468,-46.8873C197.289,-41.3885 226.781,-35.342 252.807,-30.0062"/>
<polygon fill="midnightblue" stroke="midnightblue" points="169.425,-43.5282 160.332,-48.9654 170.831,-50.3856 169.425,-43.5282"/>
</g>
<!-- Node5 -->
<g id="node5" class="node"><title>Node5</title>
<g id="a_node5"><a xlink:href="../../d0/df2/classauthoring_1_1eventhandlers_1_1_game_object_drag_to_level_handler.html#ad5002cd6b7781653104f1820a573f902" target="_top" xlink:title="authoring.eventhandlers.\lGameObjectDragToLevelHandler.handle">
<polygon fill="white" stroke="black" points="482,-0 482,-30 688,-30 688,-0 482,-0"/>
<text text-anchor="start" x="490" y="-18" font-family="Helvetica,sans-Serif" font-size="10.00">authoring.eventhandlers.</text>
<text text-anchor="middle" x="585" y="-7" font-family="Helvetica,sans-Serif" font-size="10.00">GameObjectDragToLevelHandler.handle</text>
</a>
</g>
</g>
<!-- Node4&#45;&gt;Node5 -->
<g id="edge4" class="edge"><title>Node4&#45;&gt;Node5</title>
<path fill="none" stroke="midnightblue" d="M455.734,-15C464.451,-15 473.171,-15 481.73,-15"/>
<polygon fill="midnightblue" stroke="midnightblue" points="455.511,-11.5001 445.51,-15 455.51,-18.5001 455.511,-11.5001"/>
</g>
</g>
</svg>
