<?xml version="1.0" encoding="UTF-8" standalone="no"?>
<!DOCTYPE svg PUBLIC "-//W3C//DTD SVG 1.1//EN"
 "http://www.w3.org/Graphics/SVG/1.1/DTD/svg11.dtd">
<!-- Generated by graphviz version 2.36.0 (20140111.2315)
 -->
<!-- Title: engine.gameObject.Identifier.getHash Pages: 1 -->
<svg width="430pt" height="77pt"
 viewBox="0.00 0.00 430.00 77.00" xmlns="http://www.w3.org/2000/svg" xmlns:xlink="http://www.w3.org/1999/xlink">
<g id="graph0" class="graph" transform="scale(1 1) rotate(0) translate(4 73)">
<title>engine.gameObject.Identifier.getHash</title>
<polygon fill="white" stroke="none" points="-4,4 -4,-73 426,-73 426,4 -4,4"/>
<!-- Node1 -->
<g id="node1" class="node"><title>Node1</title>
<polygon fill="#bfbfbf" stroke="black" points="0.5,-27.5 0.5,-46.5 197.5,-46.5 197.5,-27.5 0.5,-27.5"/>
<text text-anchor="middle" x="99" y="-34.5" font-family="Helvetica,sans-Serif" font-size="10.00">engine.gameObject.Identifier.getHash</text>
</g>
<!-- Node2 -->
<g id="node2" class="node"><title>Node2</title>
<g id="a_node2"><a xlink:href="../../d4/dac/classengine_1_1game_object_1_1_identifier.html#a38bdb0d76d613aa5850caaaa3a78d34d" target="_top" xlink:title="engine.gameObject.Identifier.equals">
<polygon fill="white" stroke="black" points="234,-49.5 234,-68.5 422,-68.5 422,-49.5 234,-49.5"/>
<text text-anchor="middle" x="328" y="-56.5" font-family="Helvetica,sans-Serif" font-size="10.00">engine.gameObject.Identifier.equals</text>
</a>
</g>
</g>
<!-- Node1&#45;&gt;Node2 -->
<g id="edge1" class="edge"><title>Node1&#45;&gt;Node2</title>
<path fill="none" stroke="midnightblue" d="M207.77,-47.4447C216.474,-48.2882 225.222,-49.1361 233.811,-49.9684"/>
<polygon fill="midnightblue" stroke="midnightblue" points="207.877,-43.9387 197.586,-46.4577 207.202,-50.9061 207.877,-43.9387"/>
</g>
<!-- Node3 -->
<g id="node3" class="node"><title>Node3</title>
<g id="a_node3"><a xlink:href="../../de/d27/classengine_1_1game_object_1_1components_1_1_component.html#a70fed05b4e9eeec4b51c0cd7c4402d14" target="_top" xlink:title="engine.gameObject.components.\lComponent.getID">
<polygon fill="white" stroke="black" points="240,-0 240,-30 416,-30 416,-0 240,-0"/>
<text text-anchor="start" x="248" y="-18" font-family="Helvetica,sans-Serif" font-size="10.00">engine.gameObject.components.</text>
<text text-anchor="middle" x="328" y="-7" font-family="Helvetica,sans-Serif" font-size="10.00">Component.getID</text>
</a>
</g>
</g>
<!-- Node1&#45;&gt;Node3 -->
<g id="edge2" class="edge"><title>Node1&#45;&gt;Node3</title>
<path fill="none" stroke="midnightblue" d="M207.847,-26.5479C218.584,-25.5073 229.388,-24.4602 239.875,-23.4438"/>
<polygon fill="midnightblue" stroke="midnightblue" points="207.202,-23.0939 197.586,-27.5423 207.877,-30.0613 207.202,-23.0939"/>
</g>
</g>
</svg>
