<?xml version="1.0" encoding="UTF-8" standalone="no"?>
<!DOCTYPE svg PUBLIC "-//W3C//DTD SVG 1.1//EN"
 "http://www.w3.org/Graphics/SVG/1.1/DTD/svg11.dtd">
<!-- Generated by graphviz version 2.36.0 (20140111.2315)
 -->
<!-- Title: engine.gameObject.Identifier.equals Pages: 1 -->
<svg width="430pt" height="77pt"
 viewBox="0.00 0.00 430.00 77.00" xmlns="http://www.w3.org/2000/svg" xmlns:xlink="http://www.w3.org/1999/xlink">
<g id="graph0" class="graph" transform="scale(1 1) rotate(0) translate(4 73)">
<title>engine.gameObject.Identifier.equals</title>
<polygon fill="white" stroke="none" points="-4,4 -4,-73 426,-73 426,4 -4,4"/>
<!-- Node1 -->
<g id="node1" class="node"><title>Node1</title>
<polygon fill="#bfbfbf" stroke="black" points="0,-27.5 0,-46.5 188,-46.5 188,-27.5 0,-27.5"/>
<text text-anchor="middle" x="94" y="-34.5" font-family="Helvetica,sans-Serif" font-size="10.00">engine.gameObject.Identifier.equals</text>
</g>
<!-- Node2 -->
<g id="node2" class="node"><title>Node2</title>
<g id="a_node2"><a xlink:href="../../d4/dac/classengine_1_1game_object_1_1_identifier.html#a0d748a8fe3e6f09a79b35bc3f81ac893" target="_top" xlink:title="engine.gameObject.Identifier.getHash">
<polygon fill="white" stroke="black" points="224.5,-49.5 224.5,-68.5 421.5,-68.5 421.5,-49.5 224.5,-49.5"/>
<text text-anchor="middle" x="323" y="-56.5" font-family="Helvetica,sans-Serif" font-size="10.00">engine.gameObject.Identifier.getHash</text>
</a>
</g>
</g>
<!-- Node1&#45;&gt;Node2 -->
<g id="edge1" class="edge"><title>Node1&#45;&gt;Node2</title>
<path fill="none" stroke="midnightblue" d="M188.312,-46.0435C196.838,-46.8697 205.52,-47.7112 214.159,-48.5485"/>
<polygon fill="midnightblue" stroke="midnightblue" points="213.977,-52.0471 224.268,-49.5282 214.652,-45.0798 213.977,-52.0471"/>
</g>
<!-- Node3 -->
<g id="node3" class="node"><title>Node3</title>
<g id="a_node3"><a xlink:href="../../d4/dac/classengine_1_1game_object_1_1_identifier.html#a157cdf565c19aee2729a601a9c480d67" target="_top" xlink:title="engine.gameObject.Identifier.\lIdentifier">
<polygon fill="white" stroke="black" points="244.5,-0 244.5,-30 401.5,-30 401.5,-0 244.5,-0"/>
<text text-anchor="start" x="252.5" y="-18" font-family="Helvetica,sans-Serif" font-size="10.00">engine.gameObject.Identifier.</text>
<text text-anchor="middle" x="323" y="-7" font-family="Helvetica,sans-Serif" font-size="10.00">Identifier</text>
</a>
</g>
</g>
<!-- Node1&#45;&gt;Node3 -->
<g id="edge2" class="edge"><title>Node1&#45;&gt;Node3</title>
<path fill="none" stroke="midnightblue" d="M188.312,-27.9565C203.414,-26.4929 219.009,-24.9815 233.98,-23.5305"/>
<polygon fill="midnightblue" stroke="midnightblue" points="234.616,-26.9854 244.232,-22.537 233.941,-20.0181 234.616,-26.9854"/>
</g>
</g>
</svg>
