<?xml version="1.0" encoding="UTF-8" standalone="no"?>
<!DOCTYPE svg PUBLIC "-//W3C//DTD SVG 1.1//EN"
 "http://www.w3.org/Graphics/SVG/1.1/DTD/svg11.dtd">
<!-- Generated by graphviz version 2.36.0 (20140111.2315)
 -->
<!-- Title: authoring.view.propertiesview.ConditionProperties Pages: 1 -->
<!--zoomable 786 -->
<svg id="main" version="1.1" xmlns="http://www.w3.org/2000/svg" xmlns:xlink="http://www.w3.org/1999/xlink" xml:space="preserve" onload="init(evt)">
<style type="text/css"><![CDATA[
.edge:hover path { stroke: red; }
.edge:hover polygon { stroke: red; fill: red; }
]]></style>
<script type="text/javascript"><![CDATA[
var edges = document.getElementsByTagName('g');
if (edges && edges.length) {
  for (var i=0;i<edges.length;i++) {
    if (edges[i].id.substr(0,4)=='edge') {
      edges[i].setAttribute('class','edge');
    }
  }
}
]]></script>
        <defs>
                <circle id="rim" cx="0" cy="0" r="7"/>
                <circle id="rim2" cx="0" cy="0" r="3.5"/>
                <g id="zoomPlus">
                        <use xlink:href="#rim" fill="#404040">
                                <set attributeName="fill" to="#808080" begin="zoomplus.mouseover" end="zoomplus.mouseout"/>
                        </use>
                        <path d="M-4,0h8M0,-4v8" fill="none" stroke="white" stroke-width="1.5" pointer-events="none"/>
                </g>
                <g id="zoomMin">
                        <use xlink:href="#rim" fill="#404040">
                                <set attributeName="fill" to="#808080" begin="zoomminus.mouseover" end="zoomminus.mouseout"/>
                        </use>
                        <path d="M-4,0h8" fill="none" stroke="white" stroke-width="1.5" pointer-events="none"/>
                </g>
                <g id="dirArrow">
                        <path fill="none" stroke="white" stroke-width="1.5" d="M0,-3.0v7 M-2.5,-0.5L0,-3.0L2.5,-0.5"/>
                </g>
               <g id="resetDef">
                       <use xlink:href="#rim2" fill="#404040">
                               <set attributeName="fill" to="#808080" begin="reset.mouseover" end="reset.mouseout"/>
                       </use>
               </g>
        </defs>

<script type="text/javascript">
var viewWidth = 2196;
var viewHeight = 786;
var sectionId = 'dynsection-1';
</script>
<script xlink:href="../../svgpan.js"/>
<svg id="graph" class="graph">
<g id="viewport">
<title>authoring.view.propertiesview.ConditionProperties</title>
<polygon fill="white" stroke="none" points="-4,4 -4,-782.269 2192,-782.269 2192,4 -4,4"/>
<!-- Node1 -->
<g id="node1" class="node"><title>Node1</title>
<polygon fill="#bfbfbf" stroke="black" points="2028.5,-589.269 2028.5,-619.269 2187.5,-619.269 2187.5,-589.269 2028.5,-589.269"/>
<text text-anchor="start" x="2036.5" y="-607.269" font-family="Helvetica,sans-Serif" font-size="10.00">authoring.view.propertiesview.</text>
<text text-anchor="middle" x="2108" y="-596.269" font-family="Helvetica,sans-Serif" font-size="10.00">ConditionProperties</text>
</g>
<!-- Node2 -->
<g id="node2" class="node"><title>Node2</title>
<g id="a_node2"><a xlink:href="../../de/d73/classauthoring_1_1view_1_1propertiesview_1_1_properties.html" target="_top" xlink:title="authoring.view.propertiesview.\lProperties">
<polygon fill="white" stroke="black" points="1768.5,-709.269 1768.5,-739.269 1927.5,-739.269 1927.5,-709.269 1768.5,-709.269"/>
<text text-anchor="start" x="1776.5" y="-727.269" font-family="Helvetica,sans-Serif" font-size="10.00">authoring.view.propertiesview.</text>
<text text-anchor="middle" x="1848" y="-716.269" font-family="Helvetica,sans-Serif" font-size="10.00">Properties</text>
</a>
</g>
</g>
<!-- Node2&#45;&gt;Node1 -->
<g id="edge1" class="edge"><title>Node2&#45;&gt;Node1</title>
<path fill="none" stroke="midnightblue" d="M1890.56,-704.938C1941.81,-681.101 2027.84,-641.086 2074.52,-619.378"/>
<polygon fill="midnightblue" stroke="midnightblue" points="1889.01,-701.802 1881.41,-709.192 1891.96,-708.149 1889.01,-701.802"/>
</g>
<!-- Node3 -->
<g id="node3" class="node"><title>Node3</title>
<polygon fill="white" stroke="#bfbfbf" points="1508.5,-758.769 1508.5,-777.769 1549.5,-777.769 1549.5,-758.769 1508.5,-758.769"/>
<text text-anchor="middle" x="1529" y="-765.769" font-family="Helvetica,sans-Serif" font-size="10.00">VBox</text>
</g>
<!-- Node3&#45;&gt;Node2 -->
<g id="edge2" class="edge"><title>Node3&#45;&gt;Node2</title>
<path fill="none" stroke="midnightblue" d="M1559.92,-764.541C1602.27,-759.214 1682.12,-748.991 1750,-739.269 1755.99,-738.411 1762.18,-737.503 1768.41,-736.575"/>
<polygon fill="midnightblue" stroke="midnightblue" points="1559.23,-761.1 1549.74,-765.817 1560.1,-768.045 1559.23,-761.1"/>
</g>
<!-- Node4 -->
<g id="node4" class="node"><title>Node4</title>
<polygon fill="white" stroke="#bfbfbf" points="1416.5,-709.269 1416.5,-739.269 1641.5,-739.269 1641.5,-709.269 1416.5,-709.269"/>
<text text-anchor="start" x="1424.5" y="-727.269" font-family="Helvetica,sans-Serif" font-size="10.00">Map&lt; String, authoring.view.propertiesview.</text>
<text text-anchor="middle" x="1529" y="-716.269" font-family="Helvetica,sans-Serif" font-size="10.00">PropertyField &gt;</text>
</g>
<!-- Node4&#45;&gt;Node2 -->
<g id="edge3" class="edge"><title>Node4&#45;&gt;Node2</title>
<path fill="none" stroke="#9a32cd" stroke-dasharray="5,2" d="M1652.12,-724.269C1691.04,-724.269 1733.06,-724.269 1768.08,-724.269"/>
<polygon fill="#9a32cd" stroke="#9a32cd" points="1651.76,-720.769 1641.76,-724.269 1651.76,-727.769 1651.76,-720.769"/>
<text text-anchor="middle" x="1705" y="-727.269" font-family="Helvetica,sans-Serif" font-size="10.00"> myMap</text>
</g>
<!-- Node5 -->
<g id="node5" class="node"><title>Node5</title>
<g id="a_node5"><a xlink:href="../../d1/d3b/classengine_1_1conditions_1_1_condition.html" target="_top" xlink:title="engine.conditions.Condition">
<polygon fill="white" stroke="black" points="1773.5,-594.769 1773.5,-613.769 1922.5,-613.769 1922.5,-594.769 1773.5,-594.769"/>
<text text-anchor="middle" x="1848" y="-601.769" font-family="Helvetica,sans-Serif" font-size="10.00">engine.conditions.Condition</text>
</a>
</g>
</g>
<!-- Node5&#45;&gt;Node1 -->
<g id="edge4" class="edge"><title>Node5&#45;&gt;Node1</title>
<path fill="none" stroke="#9a32cd" stroke-dasharray="5,2" d="M1932.84,-604.269C1963.53,-604.269 1998.13,-604.269 2028.36,-604.269"/>
<polygon fill="#9a32cd" stroke="#9a32cd" points="1932.59,-600.769 1922.59,-604.269 1932.59,-607.769 1932.59,-600.769"/>
<text text-anchor="middle" x="1978" y="-607.269" font-family="Helvetica,sans-Serif" font-size="10.00"> myCondition</text>
</g>
<!-- Node6 -->
<g id="node6" class="node"><title>Node6</title>
<g id="a_node6"><a xlink:href="../../dc/df6/interfaceengine_1_1game_object_1_1_identifiable.html" target="_top" xlink:title="engine.gameObject.Identifiable">
<polygon fill="white" stroke="black" points="242.5,-318.769 242.5,-337.769 407.5,-337.769 407.5,-318.769 242.5,-318.769"/>
<text text-anchor="middle" x="325" y="-325.769" font-family="Helvetica,sans-Serif" font-size="10.00">engine.gameObject.Identifiable</text>
</a>
</g>
</g>
<!-- Node6&#45;&gt;Node5 -->
<g id="edge5" class="edge"><title>Node6&#45;&gt;Node5</title>
<path fill="none" stroke="midnightblue" d="M342.625,-345.04C397.092,-399.252 570.909,-566.269 645,-566.269 645,-566.269 645,-566.269 1530,-566.269 1625.48,-566.269 1735.98,-583.473 1798.07,-594.729"/>
<polygon fill="midnightblue" stroke="midnightblue" points="345.026,-342.492 335.481,-337.894 340.075,-347.44 345.026,-342.492"/>
</g>
<!-- Node16 -->
<g id="node16" class="node"><title>Node16</title>
<g id="a_node16"><a xlink:href="../../df/d84/classengine_1_1level_1_1_level.html" target="_top" xlink:title="engine.level.Level">
<polygon fill="white" stroke="black" points="595.5,-204.769 595.5,-223.769 696.5,-223.769 696.5,-204.769 595.5,-204.769"/>
<text text-anchor="middle" x="646" y="-211.769" font-family="Helvetica,sans-Serif" font-size="10.00">engine.level.Level</text>
</a>
</g>
</g>
<!-- Node6&#45;&gt;Node16 -->
<g id="edge19" class="edge"><title>Node6&#45;&gt;Node16</title>
<path fill="none" stroke="midnightblue" d="M417.59,-318.629C459.704,-310.339 508.145,-294.925 544,-266.269 557.051,-255.839 548.682,-243.356 562,-233.269 571.663,-225.95 583.651,-221.371 595.484,-218.526"/>
<polygon fill="midnightblue" stroke="midnightblue" points="416.784,-315.219 407.593,-320.489 418.064,-322.101 416.784,-315.219"/>
</g>
<!-- Node7 -->
<g id="node7" class="node"><title>Node7</title>
<g id="a_node7"><a xlink:href="../../d2/d15/interfaceengine_1_1actions_1_1_initializable.html" target="_top" xlink:title="engine.actions.Initializable">
<polygon fill="white" stroke="black" points="1458,-632.769 1458,-651.769 1600,-651.769 1600,-632.769 1458,-632.769"/>
<text text-anchor="middle" x="1529" y="-639.769" font-family="Helvetica,sans-Serif" font-size="10.00">engine.actions.Initializable</text>
</a>
</g>
</g>
<!-- Node7&#45;&gt;Node5 -->
<g id="edge6" class="edge"><title>Node7&#45;&gt;Node5</title>
<path fill="none" stroke="midnightblue" d="M1610.55,-634.808C1652.23,-630.704 1703.91,-625.238 1750,-619.269 1762.51,-617.649 1775.89,-615.713 1788.59,-613.778"/>
<polygon fill="midnightblue" stroke="midnightblue" points="1610.06,-631.339 1600.45,-635.795 1610.74,-638.305 1610.06,-631.339"/>
</g>
<!-- Node8 -->
<g id="node8" class="node"><title>Node8</title>
<g id="a_node8"><a xlink:href="../../d4/dac/classengine_1_1game_object_1_1_identifier.html" target="_top" xlink:title="engine.gameObject.Identifier">
<polygon fill="white" stroke="black" points="247.5,-418.769 247.5,-437.769 402.5,-437.769 402.5,-418.769 247.5,-418.769"/>
<text text-anchor="middle" x="325" y="-425.769" font-family="Helvetica,sans-Serif" font-size="10.00">engine.gameObject.Identifier</text>
</a>
</g>
</g>
<!-- Node8&#45;&gt;Node5 -->
<g id="edge7" class="edge"><title>Node8&#45;&gt;Node5</title>
<path fill="none" stroke="#9a32cd" stroke-dasharray="5,2" d="M362.531,-442.227C378.919,-450.322 396.999,-462.152 408,-478.269 433.953,-516.29 397.828,-543.862 426,-580.269 491.482,-664.893 538,-680.269 645,-680.269 645,-680.269 645,-680.269 1530,-680.269 1642.62,-680.269 1771.7,-634.345 1823.6,-613.894"/>
<polygon fill="#9a32cd" stroke="#9a32cd" points="363.691,-438.907 353.145,-437.888 360.754,-445.261 363.691,-438.907"/>
<text text-anchor="middle" x="1074" y="-683.269" font-family="Helvetica,sans-Serif" font-size="10.00"> myId</text>
</g>
<!-- Node8&#45;&gt;Node16 -->
<g id="edge20" class="edge"><title>Node8&#45;&gt;Node16</title>
<path fill="none" stroke="#9a32cd" stroke-dasharray="5,2" d="M369.664,-415.56C419.485,-398.768 499.763,-364.319 544,-306.269 564.254,-279.691 538.175,-256.7 562,-233.269 570.959,-224.459 583.119,-219.404 595.366,-216.583"/>
<polygon fill="#9a32cd" stroke="#9a32cd" points="368.539,-412.246 360.125,-418.685 370.718,-418.898 368.539,-412.246"/>
<text text-anchor="middle" x="485" y="-396.269" font-family="Helvetica,sans-Serif" font-size="10.00"> myId</text>
</g>
<!-- Node9 -->
<g id="node9" class="node"><title>Node9</title>
<g id="a_node9"><a xlink:href="../../d6/d94/classengine_1_1_game_manager.html" target="_top" xlink:title="engine.GameManager">
<polygon fill="white" stroke="black" points="1467.5,-362.769 1467.5,-381.769 1590.5,-381.769 1590.5,-362.769 1467.5,-362.769"/>
<text text-anchor="middle" x="1529" y="-369.769" font-family="Helvetica,sans-Serif" font-size="10.00">engine.GameManager</text>
</a>
</g>
</g>
<!-- Node9&#45;&gt;Node5 -->
<g id="edge8" class="edge"><title>Node9&#45;&gt;Node5</title>
<path fill="none" stroke="#9a32cd" stroke-dasharray="5,2" d="M1551.33,-387.883C1612.04,-432.308 1784.49,-558.521 1833.73,-594.554"/>
<polygon fill="#9a32cd" stroke="#9a32cd" points="1553.35,-385.024 1543.22,-381.942 1549.22,-390.673 1553.35,-385.024"/>
<text text-anchor="middle" x="1705" y="-532.269" font-family="Helvetica,sans-Serif" font-size="10.00"> myGameManager</text>
</g>
<!-- Node10 -->
<g id="node10" class="node"><title>Node10</title>
<g id="a_node10"><a xlink:href="../../df/de5/classauthoring_1_1model_1_1collections_1_1_levels_collection.html" target="_top" xlink:title="authoring.model.collections.\lLevelsCollection">
<polygon fill="white" stroke="black" points="570,-488.269 570,-518.269 722,-518.269 722,-488.269 570,-488.269"/>
<text text-anchor="start" x="578" y="-506.269" font-family="Helvetica,sans-Serif" font-size="10.00">authoring.model.collections.</text>
<text text-anchor="middle" x="646" y="-495.269" font-family="Helvetica,sans-Serif" font-size="10.00">LevelsCollection</text>
</a>
</g>
</g>
<!-- Node10&#45;&gt;Node9 -->
<g id="edge9" class="edge"><title>Node10&#45;&gt;Node9</title>
<path fill="none" stroke="#9a32cd" stroke-dasharray="5,2" d="M732.45,-510.179C903.355,-522.681 1280.93,-543.302 1398,-492.269 1455.44,-467.23 1503.89,-405.896 1521.2,-382.012"/>
<polygon fill="#9a32cd" stroke="#9a32cd" points="732.469,-506.671 722.238,-509.424 731.953,-513.652 732.469,-506.671"/>
<text text-anchor="middle" x="1074" y="-528.269" font-family="Helvetica,sans-Serif" font-size="10.00"> myLevels</text>
</g>
<!-- Node12 -->
<g id="node12" class="node"><title>Node12</title>
<g id="a_node12"><a xlink:href="../../df/d67/classengine_1_1level_1_1_level_manager.html" target="_top" xlink:title="engine.level.LevelManager">
<polygon fill="white" stroke="black" points="1141.5,-239.769 1141.5,-258.769 1284.5,-258.769 1284.5,-239.769 1141.5,-239.769"/>
<text text-anchor="middle" x="1213" y="-246.769" font-family="Helvetica,sans-Serif" font-size="10.00">engine.level.LevelManager</text>
</a>
</g>
</g>
<!-- Node10&#45;&gt;Node12 -->
<g id="edge13" class="edge"><title>Node10&#45;&gt;Node12</title>
<path fill="none" stroke="#9a32cd" stroke-dasharray="5,2" d="M732.5,-503.2C768.22,-501.217 809.76,-496.319 846,-485.269 975.946,-445.648 1003.39,-417.149 1114,-338.269 1132.52,-325.058 1181.02,-279.042 1202.04,-258.87"/>
<polygon fill="#9a32cd" stroke="#9a32cd" points="731.921,-499.724 722.103,-503.706 732.261,-506.716 731.921,-499.724"/>
<text text-anchor="middle" x="940" y="-482.269" font-family="Helvetica,sans-Serif" font-size="10.00"> myLevels</text>
</g>
<!-- Node24 -->
<g id="node24" class="node"><title>Node24</title>
<g id="a_node24"><a xlink:href="../../da/d90/classengine_1_1sound_1_1_sound_utility.html" target="_top" xlink:title="engine.sound.SoundUtility">
<polygon fill="white" stroke="black" points="869,-352.769 869,-371.769 1011,-371.769 1011,-352.769 869,-352.769"/>
<text text-anchor="middle" x="940" y="-359.769" font-family="Helvetica,sans-Serif" font-size="10.00">engine.sound.SoundUtility</text>
</a>
</g>
</g>
<!-- Node10&#45;&gt;Node24 -->
<g id="edge29" class="edge"><title>Node10&#45;&gt;Node24</title>
<path fill="none" stroke="#9a32cd" stroke-dasharray="5,2" d="M707.96,-484.968C715.423,-482.494 722.913,-479.899 730,-477.269 782.635,-457.741 796.962,-454.602 846,-427.269 876.627,-410.198 909.625,-385.442 926.89,-371.94"/>
<polygon fill="#9a32cd" stroke="#9a32cd" points="706.626,-481.721 698.199,-488.143 708.792,-488.378 706.626,-481.721"/>
<text text-anchor="middle" x="797" y="-473.269" font-family="Helvetica,sans-Serif" font-size="10.00"> myLevels</text>
</g>
<!-- Node11 -->
<g id="node11" class="node"><title>Node11</title>
<g id="a_node11"><a xlink:href="../../d4/d3b/classauthoring_1_1model_1_1collections_1_1_general_collection.html" target="_top" xlink:title="authoring.model.collections.\lGeneralCollection\&lt; Level \&gt;">
<polygon fill="white" stroke="black" points="249,-488.269 249,-518.269 401,-518.269 401,-488.269 249,-488.269"/>
<text text-anchor="start" x="257" y="-506.269" font-family="Helvetica,sans-Serif" font-size="10.00">authoring.model.collections.</text>
<text text-anchor="middle" x="325" y="-495.269" font-family="Helvetica,sans-Serif" font-size="10.00">GeneralCollection&lt; Level &gt;</text>
</a>
</g>
</g>
<!-- Node11&#45;&gt;Node10 -->
<g id="edge10" class="edge"><title>Node11&#45;&gt;Node10</title>
<path fill="none" stroke="midnightblue" d="M411.216,-503.269C460.588,-503.269 522.186,-503.269 569.758,-503.269"/>
<polygon fill="midnightblue" stroke="midnightblue" points="411.195,-499.769 401.195,-503.269 411.195,-506.769 411.195,-499.769"/>
</g>
<!-- Node12&#45;&gt;Node9 -->
<g id="edge11" class="edge"><title>Node12&#45;&gt;Node9</title>
<path fill="none" stroke="#9a32cd" stroke-dasharray="5,2" d="M1294.59,-254.789C1330.22,-261.104 1370.25,-274.053 1398,-300.269 1416.08,-317.351 1397.07,-337.134 1416,-353.269 1430.19,-365.357 1449.16,-371.11 1467.45,-373.557"/>
<polygon fill="#9a32cd" stroke="#9a32cd" points="1295.1,-251.327 1284.67,-253.179 1293.98,-258.236 1295.1,-251.327"/>
<text text-anchor="middle" x="1355" y="-303.269" font-family="Helvetica,sans-Serif" font-size="10.00"> myLevelManager</text>
</g>
<!-- Node13 -->
<g id="node13" class="node"><title>Node13</title>
<polygon fill="white" stroke="#bfbfbf" points="890,-222.769 890,-241.769 990,-241.769 990,-222.769 890,-222.769"/>
<text text-anchor="middle" x="940" y="-229.769" font-family="Helvetica,sans-Serif" font-size="10.00">Iterable&lt; Level &gt;</text>
</g>
<!-- Node13&#45;&gt;Node12 -->
<g id="edge12" class="edge"><title>Node13&#45;&gt;Node12</title>
<path fill="none" stroke="midnightblue" d="M1000.31,-235.99C1041.85,-238.595 1097.53,-242.088 1141.36,-244.838"/>
<polygon fill="midnightblue" stroke="midnightblue" points="1000.28,-232.481 990.076,-235.348 999.837,-239.467 1000.28,-232.481"/>
</g>
<!-- Node14 -->
<g id="node14" class="node"><title>Node14</title>
<g id="a_node14"><a xlink:href="../../df/de5/classengine_1_1render_1_1_game_object_renderer.html" target="_top" xlink:title="engine.render.GameObject\lRenderer">
<polygon fill="white" stroke="black" points="867,-265.269 867,-295.269 1013,-295.269 1013,-265.269 867,-265.269"/>
<text text-anchor="start" x="875" y="-283.269" font-family="Helvetica,sans-Serif" font-size="10.00">engine.render.GameObject</text>
<text text-anchor="middle" x="940" y="-272.269" font-family="Helvetica,sans-Serif" font-size="10.00">Renderer</text>
</a>
</g>
</g>
<!-- Node14&#45;&gt;Node9 -->
<g id="edge36" class="edge"><title>Node14&#45;&gt;Node9</title>
<path fill="none" stroke="#9a32cd" stroke-dasharray="5,2" d="M989.834,-298.572C1003.93,-303.299 1019.43,-307.976 1034,-311.269 1115.23,-329.631 1354.19,-354.924 1467.31,-366.301"/>
<polygon fill="#9a32cd" stroke="#9a32cd" points="990.928,-295.247 980.333,-295.309 988.654,-301.868 990.928,-295.247"/>
<text text-anchor="middle" x="1213" y="-351.269" font-family="Helvetica,sans-Serif" font-size="10.00"> myGameObjectRenderer</text>
</g>
<!-- Node14&#45;&gt;Node12 -->
<g id="edge14" class="edge"><title>Node14&#45;&gt;Node12</title>
<path fill="none" stroke="#9a32cd" stroke-dasharray="5,2" d="M1022.96,-267.681C1026.69,-267.187 1030.38,-266.714 1034,-266.269 1069.28,-261.932 1108.61,-258.074 1141.31,-255.134"/>
<polygon fill="#9a32cd" stroke="#9a32cd" points="1022.48,-264.214 1013.04,-269.03 1023.42,-271.15 1022.48,-264.214"/>
<text text-anchor="middle" x="1074" y="-269.269" font-family="Helvetica,sans-Serif" font-size="10.00"> myRenderer</text>
</g>
<!-- Node15 -->
<g id="node15" class="node"><title>Node15</title>
<polygon fill="white" stroke="#bfbfbf" points="570,-243.269 570,-273.269 722,-273.269 722,-243.269 570,-243.269"/>
<text text-anchor="start" x="578" y="-261.269" font-family="Helvetica,sans-Serif" font-size="10.00">Map&lt; String, engine.render.</text>
<text text-anchor="middle" x="646" y="-250.269" font-family="Helvetica,sans-Serif" font-size="10.00">RenderedNode &gt;</text>
</g>
<!-- Node15&#45;&gt;Node14 -->
<g id="edge15" class="edge"><title>Node15&#45;&gt;Node14</title>
<path fill="none" stroke="#9a32cd" stroke-dasharray="5,2" d="M732.361,-246.748C767.718,-243.957 809.026,-243.269 846,-249.269 865.319,-252.404 886.049,-258.978 903.023,-265.269"/>
<polygon fill="#9a32cd" stroke="#9a32cd" points="731.738,-243.288 722.074,-247.631 732.337,-250.263 731.738,-243.288"/>
<text text-anchor="middle" x="797" y="-252.269" font-family="Helvetica,sans-Serif" font-size="10.00"> myRenderedNodes</text>
</g>
<!-- Node16&#45;&gt;Node12 -->
<g id="edge27" class="edge"><title>Node16&#45;&gt;Node12</title>
<path fill="none" stroke="#9a32cd" stroke-dasharray="5,2" d="M706.698,-207.546C720.26,-206.245 734.613,-205.046 748,-204.269 866.914,-197.369 897.709,-188.284 1016,-202.269 1075.77,-209.335 1143.7,-228.123 1181.85,-239.691"/>
<polygon fill="#9a32cd" stroke="#9a32cd" points="706.116,-204.086 696.51,-208.555 706.807,-211.052 706.116,-204.086"/>
<text text-anchor="middle" x="940" y="-205.269" font-family="Helvetica,sans-Serif" font-size="10.00"> myCurrentLevel</text>
</g>
<!-- Node16&#45;&gt;Node14 -->
<g id="edge16" class="edge"><title>Node16&#45;&gt;Node14</title>
<path fill="none" stroke="#9a32cd" stroke-dasharray="5,2" d="M707.036,-207.525C748.297,-205.572 803.152,-208.439 846,-230.269 856.953,-235.849 853.964,-244.171 864,-251.269 871.751,-256.75 880.675,-261.366 889.604,-265.189"/>
<polygon fill="#9a32cd" stroke="#9a32cd" points="706.634,-204.042 696.854,-208.116 707.04,-211.03 706.634,-204.042"/>
<text text-anchor="middle" x="797" y="-233.269" font-family="Helvetica,sans-Serif" font-size="10.00"> myCurrentLevel</text>
</g>
<!-- Node17 -->
<g id="node17" class="node"><title>Node17</title>
<g id="a_node17"><a xlink:href="../../d3/d8d/classdata_1_1_observable.html" target="_top" xlink:title="data.Observable">
<polygon fill="white" stroke="black" points="277.5,-198.769 277.5,-217.769 372.5,-217.769 372.5,-198.769 277.5,-198.769"/>
<text text-anchor="middle" x="325" y="-205.769" font-family="Helvetica,sans-Serif" font-size="10.00">data.Observable</text>
</a>
</g>
</g>
<!-- Node17&#45;&gt;Node16 -->
<g id="edge17" class="edge"><title>Node17&#45;&gt;Node16</title>
<path fill="none" stroke="midnightblue" d="M382.85,-209.338C443.23,-210.474 537.733,-212.251 595.257,-213.333"/>
<polygon fill="midnightblue" stroke="midnightblue" points="382.791,-205.837 372.727,-209.148 382.659,-212.835 382.791,-205.837"/>
</g>
<!-- Node18 -->
<g id="node18" class="node"><title>Node18</title>
<polygon fill="white" stroke="#bfbfbf" points="23,-198.769 23,-217.769 161,-217.769 161,-198.769 23,-198.769"/>
<text text-anchor="middle" x="92" y="-205.769" font-family="Helvetica,sans-Serif" font-size="10.00">Vector&lt; data.Observer &gt;</text>
</g>
<!-- Node18&#45;&gt;Node17 -->
<g id="edge18" class="edge"><title>Node18&#45;&gt;Node17</title>
<path fill="none" stroke="#9a32cd" stroke-dasharray="5,2" d="M171.318,-208.269C206.521,-208.269 246.882,-208.269 277.262,-208.269"/>
<polygon fill="#9a32cd" stroke="#9a32cd" points="171.058,-204.769 161.058,-208.269 171.058,-211.769 171.058,-204.769"/>
<text text-anchor="middle" x="213" y="-211.269" font-family="Helvetica,sans-Serif" font-size="10.00"> obs</text>
</g>
<!-- Node19 -->
<g id="node19" class="node"><title>Node19</title>
<g id="a_node19"><a xlink:href="../../d1/d32/classauthoring_1_1model_1_1collections_1_1_game_objects_collection.html" target="_top" xlink:title="authoring.model.collections.\lGameObjectsCollection">
<polygon fill="white" stroke="black" points="249,-129.269 249,-159.269 401,-159.269 401,-129.269 249,-129.269"/>
<text text-anchor="start" x="257" y="-147.269" font-family="Helvetica,sans-Serif" font-size="10.00">authoring.model.collections.</text>
<text text-anchor="middle" x="325" y="-136.269" font-family="Helvetica,sans-Serif" font-size="10.00">GameObjectsCollection</text>
</a>
</g>
</g>
<!-- Node19&#45;&gt;Node9 -->
<g id="edge37" class="edge"><title>Node19&#45;&gt;Node9</title>
<path fill="none" stroke="#9a32cd" stroke-dasharray="5,2" d="M367.252,-124.972C427.083,-98.7979 542.061,-55.269 645,-55.269 645,-55.269 645,-55.269 1214,-55.269 1310.91,-55.269 1347.2,-89.7404 1398,-172.269 1419.19,-206.691 1388.42,-323.72 1416,-353.269 1429.12,-367.327 1448.49,-373.432 1467.45,-375.604"/>
<polygon fill="#9a32cd" stroke="#9a32cd" points="365.506,-121.917 357.784,-129.171 368.344,-128.316 365.506,-121.917"/>
<text text-anchor="middle" x="940" y="-58.269" font-family="Helvetica,sans-Serif" font-size="10.00"> myGameObjects</text>
</g>
<!-- Node19&#45;&gt;Node12 -->
<g id="edge26" class="edge"><title>Node19&#45;&gt;Node12</title>
<path fill="none" stroke="#9a32cd" stroke-dasharray="5,2" d="M411.426,-139.002C558.272,-132.449 866.629,-129.702 1114,-201.269 1144.94,-210.22 1178,-228.45 1196.73,-239.688"/>
<polygon fill="#9a32cd" stroke="#9a32cd" points="410.963,-135.519 401.136,-139.479 411.287,-142.512 410.963,-135.519"/>
<text text-anchor="middle" x="797" y="-165.269" font-family="Helvetica,sans-Serif" font-size="10.00"> myTemplateObjects</text>
<text text-anchor="middle" x="797" y="-154.269" font-family="Helvetica,sans-Serif" font-size="10.00">myGameObjects</text>
</g>
<!-- Node19&#45;&gt;Node16 -->
<g id="edge21" class="edge"><title>Node19&#45;&gt;Node16</title>
<path fill="none" stroke="#9a32cd" stroke-dasharray="5,2" d="M411.174,-157.717C451.631,-164.659 500.534,-173.858 544,-184.269 568.371,-190.106 595.583,-198.288 615.615,-204.632"/>
<polygon fill="#9a32cd" stroke="#9a32cd" points="411.523,-154.226 401.078,-156.001 410.35,-161.127 411.523,-154.226"/>
<text text-anchor="middle" x="485" y="-198.269" font-family="Helvetica,sans-Serif" font-size="10.00"> myDefaultGameObjects</text>
<text text-anchor="middle" x="485" y="-187.269" font-family="Helvetica,sans-Serif" font-size="10.00">myWorkingGameObjects</text>
</g>
<!-- Node20 -->
<g id="node20" class="node"><title>Node20</title>
<g id="a_node20"><a xlink:href="../../d4/d3b/classauthoring_1_1model_1_1collections_1_1_general_collection.html" target="_top" xlink:title="authoring.model.collections.\lGeneralCollection\&lt; GameObject \&gt;">
<polygon fill="white" stroke="black" points="0.5,-129.269 0.5,-159.269 183.5,-159.269 183.5,-129.269 0.5,-129.269"/>
<text text-anchor="start" x="8.5" y="-147.269" font-family="Helvetica,sans-Serif" font-size="10.00">authoring.model.collections.</text>
<text text-anchor="middle" x="92" y="-136.269" font-family="Helvetica,sans-Serif" font-size="10.00">GeneralCollection&lt; GameObject &gt;</text>
</a>
</g>
</g>
<!-- Node20&#45;&gt;Node19 -->
<g id="edge22" class="edge"><title>Node20&#45;&gt;Node19</title>
<path fill="none" stroke="midnightblue" d="M193.843,-144.269C212.335,-144.269 231.337,-144.269 248.91,-144.269"/>
<polygon fill="midnightblue" stroke="midnightblue" points="193.634,-140.769 183.634,-144.269 193.634,-147.769 193.634,-140.769"/>
</g>
<!-- Node21 -->
<g id="node21" class="node"><title>Node21</title>
<polygon fill="white" stroke="#bfbfbf" points="254.5,-237.269 254.5,-267.269 395.5,-267.269 395.5,-237.269 254.5,-237.269"/>
<text text-anchor="start" x="262.5" y="-255.269" font-family="Helvetica,sans-Serif" font-size="10.00">List&lt; engine.gameObject.</text>
<text text-anchor="middle" x="325" y="-244.269" font-family="Helvetica,sans-Serif" font-size="10.00">Identifier &gt;</text>
</g>
<!-- Node21&#45;&gt;Node16 -->
<g id="edge23" class="edge"><title>Node21&#45;&gt;Node16</title>
<path fill="none" stroke="#9a32cd" stroke-dasharray="5,2" d="M405.726,-242.772C465.211,-235.686 544.633,-226.225 595.312,-220.188"/>
<polygon fill="#9a32cd" stroke="#9a32cd" points="405.127,-239.318 395.612,-243.977 405.956,-246.269 405.127,-239.318"/>
<text text-anchor="middle" x="485" y="-254.269" font-family="Helvetica,sans-Serif" font-size="10.00"> myConditionIdList</text>
<text text-anchor="middle" x="485" y="-243.269" font-family="Helvetica,sans-Serif" font-size="10.00">myGameObjectIdList</text>
</g>
<!-- Node22 -->
<g id="node22" class="node"><title>Node22</title>
<polygon fill="white" stroke="#bfbfbf" points="623,-448.769 623,-467.769 669,-467.769 669,-448.769 623,-448.769"/>
<text text-anchor="middle" x="646" y="-455.769" font-family="Helvetica,sans-Serif" font-size="10.00">Group</text>
</g>
<!-- Node22&#45;&gt;Node9 -->
<g id="edge39" class="edge"><title>Node22&#45;&gt;Node9</title>
<path fill="none" stroke="#9a32cd" stroke-dasharray="5,2" d="M679.148,-463.434C718.765,-468.841 787.964,-475.157 846,-464.269 854.436,-462.686 855.681,-459.385 864,-457.269 977.828,-428.312 1325.84,-392.093 1467.28,-378.131"/>
<polygon fill="#9a32cd" stroke="#9a32cd" points="679.424,-459.938 669.028,-461.984 678.431,-466.867 679.424,-459.938"/>
<text text-anchor="middle" x="1074" y="-430.269" font-family="Helvetica,sans-Serif" font-size="10.00"> myRootGroup</text>
</g>
<!-- Node22&#45;&gt;Node14 -->
<g id="edge24" class="edge"><title>Node22&#45;&gt;Node14</title>
<path fill="none" stroke="#9a32cd" stroke-dasharray="5,2" d="M679.244,-457.334C696.263,-455.219 716.38,-449.917 730,-437.269 748.538,-420.054 729.15,-400.141 748,-383.269 781.191,-353.561 807.162,-384.083 846,-362.269 856.142,-356.573 855.533,-351.245 864,-343.269 882.196,-326.129 904.224,-307.9 919.684,-295.485"/>
<polygon fill="#9a32cd" stroke="#9a32cd" points="678.767,-453.864 669.135,-458.277 679.416,-460.834 678.767,-453.864"/>
<text text-anchor="middle" x="797" y="-386.269" font-family="Helvetica,sans-Serif" font-size="10.00"> myCanvas</text>
</g>
<!-- Node23 -->
<g id="node23" class="node"><title>Node23</title>
<g id="a_node23"><a xlink:href="../../d9/db5/classengine_1_1_file_path_utility.html" target="_top" xlink:title="engine.FilePathUtility">
<polygon fill="white" stroke="black" points="588.5,-297.769 588.5,-316.769 703.5,-316.769 703.5,-297.769 588.5,-297.769"/>
<text text-anchor="middle" x="646" y="-304.769" font-family="Helvetica,sans-Serif" font-size="10.00">engine.FilePathUtility</text>
</a>
</g>
</g>
<!-- Node23&#45;&gt;Node14 -->
<g id="edge25" class="edge"><title>Node23&#45;&gt;Node14</title>
<path fill="none" stroke="#9a32cd" stroke-dasharray="5,2" d="M689.291,-295.053C707.233,-290.437 728.475,-285.713 748,-283.269 786.995,-278.389 830.814,-277.384 866.636,-277.712"/>
<polygon fill="#9a32cd" stroke="#9a32cd" points="688.193,-291.723 679.421,-297.665 689.983,-298.49 688.193,-291.723"/>
<text text-anchor="middle" x="797" y="-286.269" font-family="Helvetica,sans-Serif" font-size="10.00"> myFilePathUtility</text>
</g>
<!-- Node23&#45;&gt;Node24 -->
<g id="edge32" class="edge"><title>Node23&#45;&gt;Node24</title>
<path fill="none" stroke="#9a32cd" stroke-dasharray="5,2" d="M713.739,-313.667C752.593,-318.051 802.368,-324.803 846,-334.269 868.246,-339.095 892.892,-346.618 911.22,-352.651"/>
<polygon fill="#9a32cd" stroke="#9a32cd" points="713.92,-310.165 703.596,-312.548 713.152,-317.123 713.92,-310.165"/>
<text text-anchor="middle" x="797" y="-337.269" font-family="Helvetica,sans-Serif" font-size="10.00"> myFilePathUtility</text>
</g>
<!-- Node24&#45;&gt;Node9 -->
<g id="edge40" class="edge"><title>Node24&#45;&gt;Node9</title>
<path fill="none" stroke="#9a32cd" stroke-dasharray="5,2" d="M1021.37,-363.638C1140.43,-365.666 1361.02,-369.424 1467.45,-371.238"/>
<polygon fill="#9a32cd" stroke="#9a32cd" points="1021.28,-360.136 1011.22,-363.465 1021.16,-367.135 1021.28,-360.136"/>
<text text-anchor="middle" x="1213" y="-371.269" font-family="Helvetica,sans-Serif" font-size="10.00"> mySoundUtility</text>
</g>
<!-- Node24&#45;&gt;Node12 -->
<g id="edge28" class="edge"><title>Node24&#45;&gt;Node12</title>
<path fill="none" stroke="#9a32cd" stroke-dasharray="5,2" d="M973.466,-348.732C1028.95,-325.595 1140.7,-278.997 1188.95,-258.879"/>
<polygon fill="#9a32cd" stroke="#9a32cd" points="971.988,-345.556 964.105,-352.635 974.682,-352.016 971.988,-345.556"/>
<text text-anchor="middle" x="1074" y="-326.269" font-family="Helvetica,sans-Serif" font-size="10.00"> mySoundPlayer</text>
</g>
<!-- Node25 -->
<g id="node25" class="node"><title>Node25</title>
<polygon fill="white" stroke="#bfbfbf" points="570,-340.769 570,-359.769 722,-359.769 722,-340.769 570,-340.769"/>
<text text-anchor="middle" x="646" y="-347.769" font-family="Helvetica,sans-Serif" font-size="10.00">Map&lt; String, MediaPlayer &gt;</text>
</g>
<!-- Node25&#45;&gt;Node24 -->
<g id="edge30" class="edge"><title>Node25&#45;&gt;Node24</title>
<path fill="none" stroke="#9a32cd" stroke-dasharray="5,2" d="M732.431,-348.59C767.632,-348.446 808.808,-348.983 846,-351.269 853.465,-351.728 861.25,-352.377 868.999,-353.133"/>
<polygon fill="#9a32cd" stroke="#9a32cd" points="732.17,-345.091 722.191,-348.651 732.212,-352.091 732.17,-345.091"/>
<text text-anchor="middle" x="797" y="-354.269" font-family="Helvetica,sans-Serif" font-size="10.00"> myMediaPlayerMap</text>
</g>
<!-- Node26 -->
<g id="node26" class="node"><title>Node26</title>
<polygon fill="white" stroke="#bfbfbf" points="577,-408.769 577,-427.769 715,-427.769 715,-408.769 577,-408.769"/>
<text text-anchor="middle" x="646" y="-415.769" font-family="Helvetica,sans-Serif" font-size="10.00">Map&lt; String, AudioClip &gt;</text>
</g>
<!-- Node26&#45;&gt;Node24 -->
<g id="edge31" class="edge"><title>Node26&#45;&gt;Node24</title>
<path fill="none" stroke="#9a32cd" stroke-dasharray="5,2" d="M725.585,-413.955C762.49,-410.819 806.87,-405.444 846,-396.269 871.106,-390.383 898.72,-379.721 917.283,-371.902"/>
<polygon fill="#9a32cd" stroke="#9a32cd" points="725.07,-410.485 715.385,-414.781 725.635,-417.462 725.07,-410.485"/>
<text text-anchor="middle" x="797" y="-415.269" font-family="Helvetica,sans-Serif" font-size="10.00"> myAudioClipMap</text>
</g>
<!-- Node27 -->
<g id="node27" class="node"><title>Node27</title>
<g id="a_node27"><a xlink:href="../../db/d2a/classauthoring_1_1model_1_1collections_1_1_conditions_collection.html" target="_top" xlink:title="authoring.model.collections.\lConditionsCollection">
<polygon fill="white" stroke="black" points="864,-85.269 864,-115.269 1016,-115.269 1016,-85.269 864,-85.269"/>
<text text-anchor="start" x="872" y="-103.269" font-family="Helvetica,sans-Serif" font-size="10.00">authoring.model.collections.</text>
<text text-anchor="middle" x="940" y="-92.269" font-family="Helvetica,sans-Serif" font-size="10.00">ConditionsCollection</text>
</a>
</g>
</g>
<!-- Node27&#45;&gt;Node9 -->
<g id="edge41" class="edge"><title>Node27&#45;&gt;Node9</title>
<path fill="none" stroke="#9a32cd" stroke-dasharray="5,2" d="M1026.44,-100.715C1054.72,-102.564 1086.08,-106.477 1114,-114.269 1249.92,-152.209 1313.12,-143.526 1398,-256.269 1424.37,-291.299 1384.76,-322.505 1416,-353.269 1429.49,-366.553 1448.61,-372.546 1467.25,-374.848"/>
<polygon fill="#9a32cd" stroke="#9a32cd" points="1026.36,-97.2042 1016.18,-100.123 1025.96,-104.193 1026.36,-97.2042"/>
<text text-anchor="middle" x="1213" y="-168.269" font-family="Helvetica,sans-Serif" font-size="10.00"> myGameConditions</text>
</g>
<!-- Node27&#45;&gt;Node12 -->
<g id="edge33" class="edge"><title>Node27&#45;&gt;Node12</title>
<path fill="none" stroke="#9a32cd" stroke-dasharray="5,2" d="M1026.23,-111.663C1061.96,-117.529 1098.73,-125.33 1114,-134.269 1159.73,-161.035 1194.31,-217.162 1206.86,-239.65"/>
<polygon fill="#9a32cd" stroke="#9a32cd" points="1026.62,-108.182 1016.19,-110.06 1025.52,-115.094 1026.62,-108.182"/>
<text text-anchor="middle" x="1074" y="-137.269" font-family="Helvetica,sans-Serif" font-size="10.00"> myConditions</text>
</g>
<!-- Node28 -->
<g id="node28" class="node"><title>Node28</title>
<g id="a_node28"><a xlink:href="../../d4/d3b/classauthoring_1_1model_1_1collections_1_1_general_collection.html" target="_top" xlink:title="authoring.model.collections.\lGeneralCollection\&lt; Condition \&gt;">
<polygon fill="white" stroke="black" points="562,-85.269 562,-115.269 730,-115.269 730,-85.269 562,-85.269"/>
<text text-anchor="start" x="570" y="-103.269" font-family="Helvetica,sans-Serif" font-size="10.00">authoring.model.collections.</text>
<text text-anchor="middle" x="646" y="-92.269" font-family="Helvetica,sans-Serif" font-size="10.00">GeneralCollection&lt; Condition &gt;</text>
</a>
</g>
</g>
<!-- Node28&#45;&gt;Node27 -->
<g id="edge34" class="edge"><title>Node28&#45;&gt;Node27</title>
<path fill="none" stroke="midnightblue" d="M740.523,-100.269C780.286,-100.269 826.039,-100.269 863.588,-100.269"/>
<polygon fill="midnightblue" stroke="midnightblue" points="740.285,-96.7691 730.285,-100.269 740.285,-103.769 740.285,-96.7691"/>
</g>
<!-- Node29 -->
<g id="node29" class="node"><title>Node29</title>
<polygon fill="white" stroke="#bfbfbf" points="1185,-7.76902 1185,-26.769 1241,-26.769 1241,-7.76902 1185,-7.76902"/>
<text text-anchor="middle" x="1213" y="-14.769" font-family="Helvetica,sans-Serif" font-size="10.00">Timeline</text>
</g>
<!-- Node29&#45;&gt;Node9 -->
<g id="edge35" class="edge"><title>Node29&#45;&gt;Node9</title>
<path fill="none" stroke="#9a32cd" stroke-dasharray="5,2" d="M1251.14,-7.18391C1293.06,1.70214 1360.31,7.98116 1398,-30.269 1448.45,-81.4787 1368.1,-299.661 1416,-353.269 1428.88,-367.682 1448.31,-373.844 1467.39,-375.961"/>
<polygon fill="#9a32cd" stroke="#9a32cd" points="1250.29,-3.7864 1241.31,-9.41161 1251.84,-10.613 1250.29,-3.7864"/>
<text text-anchor="middle" x="1355" y="-33.269" font-family="Helvetica,sans-Serif" font-size="10.00"> myAnimation</text>
</g>
<!-- Node30 -->
<g id="node30" class="node"><title>Node30</title>
<polygon fill="white" stroke="#bfbfbf" points="1132.5,-471.769 1132.5,-490.769 1293.5,-490.769 1293.5,-471.769 1132.5,-471.769"/>
<text text-anchor="middle" x="1213" y="-478.769" font-family="Helvetica,sans-Serif" font-size="10.00">EventHandler&lt; ActionEvent &gt;</text>
</g>
<!-- Node30&#45;&gt;Node9 -->
<g id="edge38" class="edge"><title>Node30&#45;&gt;Node9</title>
<path fill="none" stroke="#9a32cd" stroke-dasharray="5,2" d="M1303.98,-477.64C1334.54,-474.301 1368.41,-468.217 1398,-457.269 1446.81,-439.209 1495.91,-400.068 1517.12,-381.897"/>
<polygon fill="#9a32cd" stroke="#9a32cd" points="1303.36,-474.185 1293.76,-478.67 1304.06,-481.15 1303.36,-474.185"/>
<text text-anchor="middle" x="1355" y="-480.269" font-family="Helvetica,sans-Serif" font-size="10.00"> oneFrame</text>
</g>
<!-- Node31 -->
<g id="node31" class="node"><title>Node31</title>
<polygon fill="white" stroke="#bfbfbf" points="1450,-594.769 1450,-613.769 1608,-613.769 1608,-594.769 1450,-594.769"/>
<text text-anchor="middle" x="1529" y="-601.769" font-family="Helvetica,sans-Serif" font-size="10.00">List&lt; engine.actions.Action &gt;</text>
</g>
<!-- Node31&#45;&gt;Node5 -->
<g id="edge42" class="edge"><title>Node31&#45;&gt;Node5</title>
<path fill="none" stroke="#9a32cd" stroke-dasharray="5,2" d="M1618.59,-604.269C1667.36,-604.269 1727.17,-604.269 1773.35,-604.269"/>
<polygon fill="#9a32cd" stroke="#9a32cd" points="1618.36,-600.769 1608.36,-604.269 1618.36,-607.769 1618.36,-600.769"/>
<text text-anchor="middle" x="1705" y="-607.269" font-family="Helvetica,sans-Serif" font-size="10.00"> myActions</text>
</g>
<!-- Node32 -->
<g id="node32" class="node"><title>Node32</title>
<g id="a_node32"><a xlink:href="../../d3/d6a/interfaceauthoring_1_1eventhandlers_1_1_game_handler.html" target="_top" xlink:title="authoring.eventhandlers.\lGameHandler\&lt; T extends\l Event \&gt;">
<polygon fill="white" stroke="black" points="1777.5,-424.769 1777.5,-465.769 1918.5,-465.769 1918.5,-424.769 1777.5,-424.769"/>
<text text-anchor="start" x="1785.5" y="-453.769" font-family="Helvetica,sans-Serif" font-size="10.00">authoring.eventhandlers.</text>
<text text-anchor="start" x="1785.5" y="-442.769" font-family="Helvetica,sans-Serif" font-size="10.00">GameHandler&lt; T extends</text>
<text text-anchor="middle" x="1848" y="-431.769" font-family="Helvetica,sans-Serif" font-size="10.00"> Event &gt;</text>
</a>
</g>
</g>
<!-- Node32&#45;&gt;Node1 -->
<g id="edge43" class="edge"><title>Node32&#45;&gt;Node1</title>
<path fill="none" stroke="#9a32cd" stroke-dasharray="5,2" d="M1891.18,-471.263C1945.58,-504.791 2038.44,-562.016 2082.46,-589.145"/>
<polygon fill="#9a32cd" stroke="#9a32cd" points="1892.81,-468.159 1882.46,-465.892 1889.14,-474.119 1892.81,-468.159"/>
<text text-anchor="middle" x="1978" y="-547.269" font-family="Helvetica,sans-Serif" font-size="10.00"> myHandler</text>
</g>
<!-- Node33 -->
<g id="node33" class="node"><title>Node33</title>
<polygon fill="white" stroke="#bfbfbf" points="1441,-324.769 1441,-343.769 1617,-343.769 1617,-324.769 1441,-324.769"/>
<text text-anchor="middle" x="1529" y="-331.769" font-family="Helvetica,sans-Serif" font-size="10.00">javafx::event::EventHandler&lt; T &gt;</text>
</g>
<!-- Node33&#45;&gt;Node32 -->
<g id="edge44" class="edge"><title>Node33&#45;&gt;Node32</title>
<path fill="none" stroke="midnightblue" d="M1612.6,-345.825C1622.59,-347.943 1632.59,-350.41 1642,-353.269 1702.47,-371.639 1768.5,-403.601 1808.84,-424.596"/>
<polygon fill="midnightblue" stroke="midnightblue" points="1613.12,-342.36 1602.63,-343.822 1611.74,-349.223 1613.12,-342.36"/>
</g>
</g>
</svg>
        <g id="navigator" transform="translate(0 0)" fill="#404254">
                <rect fill="#f2f5e9" fill-opacity="0.5" stroke="#606060" stroke-width=".5" x="0" y="0" width="60" height="60"/>
                <use id="zoomplus" xlink:href="#zoomPlus" x="17" y="9" onmousedown="handleZoom(evt,'in')"/>
                <use id="zoomminus" xlink:href="#zoomMin" x="42" y="9" onmousedown="handleZoom(evt,'out')"/>
                <use id="reset" xlink:href="#resetDef" x="30" y="36" onmousedown="handleReset()"/>
                <g id="arrowUp" xlink:href="#dirArrow" transform="translate(30 24)" onmousedown="handlePan(0,-1)">
                  <use xlink:href="#rim" fill="#404040">
                        <set attributeName="fill" to="#808080" begin="arrowUp.mouseover" end="arrowUp.mouseout"/>
                  </use>
                  <path fill="none" stroke="white" stroke-width="1.5" d="M0,-3.0v7 M-2.5,-0.5L0,-3.0L2.5,-0.5"/>
                </g>
                <g id="arrowRight" xlink:href="#dirArrow" transform="rotate(90) translate(36 -43)" onmousedown="handlePan(1,0)">
                  <use xlink:href="#rim" fill="#404040">
                        <set attributeName="fill" to="#808080" begin="arrowRight.mouseover" end="arrowRight.mouseout"/>
                  </use>
                  <path fill="none" stroke="white" stroke-width="1.5" d="M0,-3.0v7 M-2.5,-0.5L0,-3.0L2.5,-0.5"/>
                </g>
                <g id="arrowDown" xlink:href="#dirArrow" transform="rotate(180) translate(-30 -48)" onmousedown="handlePan(0,1)">
                  <use xlink:href="#rim" fill="#404040">
                        <set attributeName="fill" to="#808080" begin="arrowDown.mouseover" end="arrowDown.mouseout"/>
                  </use>
                  <path fill="none" stroke="white" stroke-width="1.5" d="M0,-3.0v7 M-2.5,-0.5L0,-3.0L2.5,-0.5"/>
                </g>
                <g id="arrowLeft" xlink:href="#dirArrow" transform="rotate(270) translate(-36 17)" onmousedown="handlePan(-1,0)">
                  <use xlink:href="#rim" fill="#404040">
                        <set attributeName="fill" to="#808080" begin="arrowLeft.mouseover" end="arrowLeft.mouseout"/>
                  </use>
                  <path fill="none" stroke="white" stroke-width="1.5" d="M0,-3.0v7 M-2.5,-0.5L0,-3.0L2.5,-0.5"/>
                </g>
        </g>
        <svg viewBox="0 0 15 15" width="100%" height="30px" preserveAspectRatio="xMaxYMin meet">
         <g id="arrow_out" transform="scale(0.3 0.3)">
          <a xlink:href="classauthoring_1_1view_1_1propertiesview_1_1_condition_properties__coll__graph_org.svg" target="_base">
           <rect id="button" ry="5" rx="5" y="6" x="6" height="38" width="38"
                fill="#f2f5e9" fill-opacity="0.5" stroke="#606060" stroke-width="1.0"/>
           <path id="arrow"
             d="M 11.500037,31.436501 C 11.940474,20.09759 22.043105,11.32322 32.158766,21.979434 L 37.068811,17.246167 C 37.068811,17.246167 37.088388,32 37.088388,32 L 22.160133,31.978069 C 22.160133,31.978069 26.997745,27.140456 26.997745,27.140456 C 18.528582,18.264221 13.291696,25.230495 11.500037,31.436501 z"
             style="fill:#404040;"/>
          </a>
         </g>
        </svg>
</svg>
