<?xml version="1.0" encoding="UTF-8" standalone="no"?>
<!DOCTYPE svg PUBLIC "-//W3C//DTD SVG 1.1//EN"
 "http://www.w3.org/Graphics/SVG/1.1/DTD/svg11.dtd">
<!-- Generated by graphviz version 2.36.0 (20140111.2315)
 -->
<!-- Title: /tmp/git/duke&#45;compsci308&#45;fall2014/voogasalad_BitsPlease/repository/src/engine Pages: 1 -->
<svg width="1013pt" height="111pt"
 viewBox="0.00 0.00 1013.00 111.00" xmlns="http://www.w3.org/2000/svg" xmlns:xlink="http://www.w3.org/1999/xlink">
<g id="graph0" class="graph" transform="scale(1 1) rotate(0) translate(4 107)">
<title>/tmp/git/duke&#45;compsci308&#45;fall2014/voogasalad_BitsPlease/repository/src/engine</title>
<polygon fill="white" stroke="none" points="-4,4 -4,-107 1009,-107 1009,4 -4,4"/>
<g id="clust1" class="cluster"><title>clusterdir_7d581705fb2e157baeb5a6c3aa09a437</title>
<g id="a_clust1"><a xlink:href="dir_7d581705fb2e157baeb5a6c3aa09a437.html" target="_top" xlink:title="src">
<polygon fill="#ddddee" stroke="black" points="8,-8 8,-95 997,-95 997,-8 8,-8"/>
<text text-anchor="middle" x="502.5" y="-83" font-family="Helvetica,sans-Serif" font-size="10.00">src</text>
</a>
</g>
</g>
<g id="clust2" class="cluster"><title>clusterdir_102b8755a958e578022b325253589ab8</title>
<g id="a_clust2"><a xlink:href="dir_102b8755a958e578022b325253589ab8.html" target="_top">
<polygon fill="#eeeeff" stroke="black" points="16,-16 16,-68 989,-68 989,-16 16,-16"/>
</a>
</g>
</g>
<!-- dir_102b8755a958e578022b325253589ab8 -->
<g id="node1" class="node"><title>dir_102b8755a958e578022b325253589ab8</title>
<text text-anchor="middle" x="954" y="-39.5" font-family="Helvetica,sans-Serif" font-size="10.00">engine</text>
</g>
<!-- dir_93f7b3fff18d48b78469de18e9362696 -->
<g id="node2" class="node"><title>dir_93f7b3fff18d48b78469de18e9362696</title>
<g id="a_node2"><a xlink:href="dir_93f7b3fff18d48b78469de18e9362696.html" target="_top" xlink:title="actions">
<polygon fill="white" stroke="red" points="909,-60 855,-60 855,-24 909,-24 909,-60"/>
<text text-anchor="middle" x="882" y="-39.5" font-family="Helvetica,sans-Serif" font-size="10.00">actions</text>
</a>
</g>
</g>
<!-- dir_9e1eef4108f7bab81680527c753d6c40 -->
<g id="node3" class="node"><title>dir_9e1eef4108f7bab81680527c753d6c40</title>
<g id="a_node3"><a xlink:href="dir_9e1eef4108f7bab81680527c753d6c40.html" target="_top" xlink:title="collision">
<polygon fill="white" stroke="red" points="837,-60 783,-60 783,-24 837,-24 837,-60"/>
<text text-anchor="middle" x="810" y="-39.5" font-family="Helvetica,sans-Serif" font-size="10.00">collision</text>
</a>
</g>
</g>
<!-- dir_01fa4b6dacc72f816568fc3c5351dcba -->
<g id="node4" class="node"><title>dir_01fa4b6dacc72f816568fc3c5351dcba</title>
<g id="a_node4"><a xlink:href="dir_01fa4b6dacc72f816568fc3c5351dcba.html" target="_top" xlink:title="conditions">
<polygon fill="white" stroke="black" points="764.25,-60 699.75,-60 699.75,-24 764.25,-24 764.25,-60"/>
<text text-anchor="middle" x="732" y="-39.5" font-family="Helvetica,sans-Serif" font-size="10.00">conditions</text>
</a>
</g>
</g>
<!-- dir_4e703d3a68dcfe9d77dea3d373f3905a -->
<g id="node5" class="node"><title>dir_4e703d3a68dcfe9d77dea3d373f3905a</title>
<g id="a_node5"><a xlink:href="dir_4e703d3a68dcfe9d77dea3d373f3905a.html" target="_top" xlink:title="factories">
<polygon fill="white" stroke="black" points="680.5,-60 623.5,-60 623.5,-24 680.5,-24 680.5,-60"/>
<text text-anchor="middle" x="652" y="-39.5" font-family="Helvetica,sans-Serif" font-size="10.00">factories</text>
</a>
</g>
</g>
<!-- dir_f080dc587ce5031562e2318414c06ba1 -->
<g id="node6" class="node"><title>dir_f080dc587ce5031562e2318414c06ba1</title>
<g id="a_node6"><a xlink:href="dir_f080dc587ce5031562e2318414c06ba1.html" target="_top" xlink:title="gameObject">
<polygon fill="white" stroke="red" points="605.25,-60 530.75,-60 530.75,-24 605.25,-24 605.25,-60"/>
<text text-anchor="middle" x="568" y="-39.5" font-family="Helvetica,sans-Serif" font-size="10.00">gameObject</text>
</a>
</g>
</g>
<!-- dir_e1ebb499088184c60164ac1e3659250c -->
<g id="node7" class="node"><title>dir_e1ebb499088184c60164ac1e3659250c</title>
<g id="a_node7"><a xlink:href="dir_e1ebb499088184c60164ac1e3659250c.html" target="_top" xlink:title="level">
<polygon fill="white" stroke="black" points="512,-60 458,-60 458,-24 512,-24 512,-60"/>
<text text-anchor="middle" x="485" y="-39.5" font-family="Helvetica,sans-Serif" font-size="10.00">level</text>
</a>
</g>
</g>
<!-- dir_2cfc083742e0164bad29cce8523ac978 -->
<g id="node8" class="node"><title>dir_2cfc083742e0164bad29cce8523ac978</title>
<g id="a_node8"><a xlink:href="dir_2cfc083742e0164bad29cce8523ac978.html" target="_top" xlink:title="physics">
<polygon fill="white" stroke="black" points="440,-60 386,-60 386,-24 440,-24 440,-60"/>
<text text-anchor="middle" x="413" y="-39.5" font-family="Helvetica,sans-Serif" font-size="10.00">physics</text>
</a>
</g>
</g>
<!-- dir_6ae4b5f50f73478cefbcb2eab2f2ea93 -->
<g id="node9" class="node"><title>dir_6ae4b5f50f73478cefbcb2eab2f2ea93</title>
<g id="a_node9"><a xlink:href="dir_6ae4b5f50f73478cefbcb2eab2f2ea93.html" target="_top" xlink:title="render">
<polygon fill="white" stroke="black" points="368,-60 314,-60 314,-24 368,-24 368,-60"/>
<text text-anchor="middle" x="341" y="-39.5" font-family="Helvetica,sans-Serif" font-size="10.00">render</text>
</a>
</g>
</g>
<!-- dir_939641bdd4da7aab2bde86dcc56b1819 -->
<g id="node10" class="node"><title>dir_939641bdd4da7aab2bde86dcc56b1819</title>
<g id="a_node10"><a xlink:href="dir_939641bdd4da7aab2bde86dcc56b1819.html" target="_top" xlink:title="scrolling">
<polygon fill="white" stroke="black" points="295.5,-60 240.5,-60 240.5,-24 295.5,-24 295.5,-60"/>
<text text-anchor="middle" x="268" y="-39.5" font-family="Helvetica,sans-Serif" font-size="10.00">scrolling</text>
</a>
</g>
</g>
<!-- dir_62f2e1fc643ba95eb0768326fceb3dca -->
<g id="node11" class="node"><title>dir_62f2e1fc643ba95eb0768326fceb3dca</title>
<g id="a_node11"><a xlink:href="dir_62f2e1fc643ba95eb0768326fceb3dca.html" target="_top" xlink:title="sound">
<polygon fill="white" stroke="black" points="222,-60 168,-60 168,-24 222,-24 222,-60"/>
<text text-anchor="middle" x="195" y="-39.5" font-family="Helvetica,sans-Serif" font-size="10.00">sound</text>
</a>
</g>
</g>
<!-- dir_dd806f4780d5200142b6fa7ed2ba7a90 -->
<g id="node12" class="node"><title>dir_dd806f4780d5200142b6fa7ed2ba7a90</title>
<g id="a_node12"><a xlink:href="dir_dd806f4780d5200142b6fa7ed2ba7a90.html" target="_top" xlink:title="states">
<polygon fill="white" stroke="black" points="150,-60 96,-60 96,-24 150,-24 150,-60"/>
<text text-anchor="middle" x="123" y="-39.5" font-family="Helvetica,sans-Serif" font-size="10.00">states</text>
</a>
</g>
</g>
<!-- dir_bfbc90ad0eb194f380aa12e4c0105d5b -->
<g id="node13" class="node"><title>dir_bfbc90ad0eb194f380aa12e4c0105d5b</title>
<g id="a_node13"><a xlink:href="dir_bfbc90ad0eb194f380aa12e4c0105d5b.html" target="_top" xlink:title="tests">
<polygon fill="white" stroke="black" points="78,-60 24,-60 24,-24 78,-24 78,-60"/>
<text text-anchor="middle" x="51" y="-39.5" font-family="Helvetica,sans-Serif" font-size="10.00">tests</text>
</a>
</g>
</g>
</g>
</svg>
