<?xml version="1.0" encoding="UTF-8" standalone="no"?>
<!DOCTYPE svg PUBLIC "-//W3C//DTD SVG 1.1//EN"
 "http://www.w3.org/Graphics/SVG/1.1/DTD/svg11.dtd">
<!-- Generated by graphviz version 2.36.0 (20140111.2315)
 -->
<!-- Title: /tmp/git/duke&#45;compsci308&#45;fall2014/voogasalad_BitsPlease/repository/src/gamePlayer Pages: 1 -->
<svg width="274pt" height="111pt"
 viewBox="0.00 0.00 274.00 111.00" xmlns="http://www.w3.org/2000/svg" xmlns:xlink="http://www.w3.org/1999/xlink">
<g id="graph0" class="graph" transform="scale(1 1) rotate(0) translate(4 107)">
<title>/tmp/git/duke&#45;compsci308&#45;fall2014/voogasalad_BitsPlease/repository/src/gamePlayer</title>
<polygon fill="white" stroke="none" points="-4,4 -4,-107 270,-107 270,4 -4,4"/>
<g id="clust1" class="cluster"><title>clusterdir_7d581705fb2e157baeb5a6c3aa09a437</title>
<g id="a_clust1"><a xlink:href="dir_7d581705fb2e157baeb5a6c3aa09a437.html" target="_top" xlink:title="src">
<polygon fill="#ddddee" stroke="black" points="8,-8 8,-95 258,-95 258,-8 8,-8"/>
<text text-anchor="middle" x="133" y="-83" font-family="Helvetica,sans-Serif" font-size="10.00">src</text>
</a>
</g>
</g>
<g id="clust2" class="cluster"><title>clusterdir_2f17f3461ebc697a1bb40318fda220c3</title>
<g id="a_clust2"><a xlink:href="dir_2f17f3461ebc697a1bb40318fda220c3.html" target="_top">
<polygon fill="#eeeeff" stroke="black" points="16,-16 16,-68 250,-68 250,-16 16,-16"/>
</a>
</g>
</g>
<!-- dir_2f17f3461ebc697a1bb40318fda220c3 -->
<g id="node1" class="node"><title>dir_2f17f3461ebc697a1bb40318fda220c3</title>
<text text-anchor="middle" x="205" y="-39.5" font-family="Helvetica,sans-Serif" font-size="10.00">gamePlayer</text>
</g>
<!-- dir_040438264f99a689c2c58ab29f34a7f2 -->
<g id="node2" class="node"><title>dir_040438264f99a689c2c58ab29f34a7f2</title>
<g id="a_node2"><a xlink:href="dir_040438264f99a689c2c58ab29f34a7f2.html" target="_top" xlink:title="model">
<polygon fill="white" stroke="black" points="150,-60 96,-60 96,-24 150,-24 150,-60"/>
<text text-anchor="middle" x="123" y="-39.5" font-family="Helvetica,sans-Serif" font-size="10.00">model</text>
</a>
</g>
</g>
<!-- dir_315d8317ff3b49db69b1de1ccd23325a -->
<g id="node3" class="node"><title>dir_315d8317ff3b49db69b1de1ccd23325a</title>
<g id="a_node3"><a xlink:href="dir_315d8317ff3b49db69b1de1ccd23325a.html" target="_top" xlink:title="view">
<polygon fill="white" stroke="red" points="78,-60 24,-60 24,-24 78,-24 78,-60"/>
<text text-anchor="middle" x="51" y="-39.5" font-family="Helvetica,sans-Serif" font-size="10.00">view</text>
</a>
</g>
</g>
</g>
</svg>
