<?xml version="1.0" encoding="UTF-8" standalone="no"?>
<!DOCTYPE svg PUBLIC "-//W3C//DTD SVG 1.1//EN"
 "http://www.w3.org/Graphics/SVG/1.1/DTD/svg11.dtd">
<!-- Generated by graphviz version 2.36.0 (20140111.2315)
 -->
<!-- Title: Graphical Class Hierarchy Pages: 1 -->
<svg width="316pt" height="185pt"
 viewBox="0.00 0.00 316.00 185.00" xmlns="http://www.w3.org/2000/svg" xmlns:xlink="http://www.w3.org/1999/xlink">
<g id="graph0" class="graph" transform="scale(1 1) rotate(0) translate(4 181)">
<title>Graphical Class Hierarchy</title>
<polygon fill="white" stroke="none" points="-4,4 -4,-181 312,-181 312,4 -4,4"/>
<!-- Node1 -->
<g id="node1" class="node"><title>Node1</title>
<g id="a_node1"><a xlink:href="da/dc7/classengine_1_1collision_1_1objects_1_1_collision_object.html" target="_top" xlink:title="engine.collision.objects.\lCollisionObject">
<polygon fill="white" stroke="black" points="0,-73 0,-103 130,-103 130,-73 0,-73"/>
<text text-anchor="start" x="8" y="-91" font-family="Helvetica,sans-Serif" font-size="10.00">engine.collision.objects.</text>
<text text-anchor="middle" x="65" y="-80" font-family="Helvetica,sans-Serif" font-size="10.00">CollisionObject</text>
</a>
</g>
</g>
<!-- Node2 -->
<g id="node2" class="node"><title>Node2</title>
<g id="a_node2"><a xlink:href="db/d3a/classengine_1_1collision_1_1objects_1_1_enemy_collision_object.html" target="_top" xlink:title="engine.collision.objects.\lEnemyCollisionObject">
<polygon fill="white" stroke="black" points="172,-147 172,-177 302,-177 302,-147 172,-147"/>
<text text-anchor="start" x="180" y="-165" font-family="Helvetica,sans-Serif" font-size="10.00">engine.collision.objects.</text>
<text text-anchor="middle" x="237" y="-154" font-family="Helvetica,sans-Serif" font-size="10.00">EnemyCollisionObject</text>
</a>
</g>
</g>
<!-- Node1&#45;&gt;Node2 -->
<g id="edge1" class="edge"><title>Node1&#45;&gt;Node2</title>
<path fill="none" stroke="midnightblue" d="M103.498,-107.62C122.072,-117.016 144.972,-128.126 166,-137 174.085,-140.412 182.813,-143.775 191.274,-146.875"/>
<polygon fill="midnightblue" stroke="midnightblue" points="104.983,-104.448 94.4849,-103.023 101.803,-110.684 104.983,-104.448"/>
</g>
<!-- Node3 -->
<g id="node3" class="node"><title>Node3</title>
<g id="a_node3"><a xlink:href="d4/daa/classengine_1_1collision_1_1objects_1_1_fixed_object_collision_object.html" target="_top" xlink:title="engine.collision.objects.\lFixedObjectCollisionObject">
<polygon fill="white" stroke="black" points="166.5,-98 166.5,-128 307.5,-128 307.5,-98 166.5,-98"/>
<text text-anchor="start" x="174.5" y="-116" font-family="Helvetica,sans-Serif" font-size="10.00">engine.collision.objects.</text>
<text text-anchor="middle" x="237" y="-105" font-family="Helvetica,sans-Serif" font-size="10.00">FixedObjectCollisionObject</text>
</a>
</g>
</g>
<!-- Node1&#45;&gt;Node3 -->
<g id="edge2" class="edge"><title>Node1&#45;&gt;Node3</title>
<path fill="none" stroke="midnightblue" d="M140.298,-98.9262C148.918,-100.194 157.687,-101.483 166.243,-102.742"/>
<polygon fill="midnightblue" stroke="midnightblue" points="140.673,-95.4437 130.27,-97.4514 139.654,-102.369 140.673,-95.4437"/>
</g>
<!-- Node4 -->
<g id="node4" class="node"><title>Node4</title>
<g id="a_node4"><a xlink:href="dc/d87/classengine_1_1collision_1_1objects_1_1_hero_collision_object.html" target="_top" xlink:title="engine.collision.objects.\lHeroCollisionObject">
<polygon fill="white" stroke="black" points="172,-49 172,-79 302,-79 302,-49 172,-49"/>
<text text-anchor="start" x="180" y="-67" font-family="Helvetica,sans-Serif" font-size="10.00">engine.collision.objects.</text>
<text text-anchor="middle" x="237" y="-56" font-family="Helvetica,sans-Serif" font-size="10.00">HeroCollisionObject</text>
</a>
</g>
</g>
<!-- Node1&#45;&gt;Node4 -->
<g id="edge3" class="edge"><title>Node1&#45;&gt;Node4</title>
<path fill="none" stroke="midnightblue" d="M140.287,-77.5124C150.829,-76.0241 161.595,-74.5042 171.921,-73.0464"/>
<polygon fill="midnightblue" stroke="midnightblue" points="139.682,-74.063 130.27,-78.9266 140.661,-80.9943 139.682,-74.063"/>
</g>
<!-- Node5 -->
<g id="node5" class="node"><title>Node5</title>
<g id="a_node5"><a xlink:href="d6/db8/classengine_1_1collision_1_1objects_1_1_powerup_collision_object.html" target="_top" xlink:title="engine.collision.objects.\lPowerupCollisionObject">
<polygon fill="white" stroke="black" points="172,-0 172,-30 302,-30 302,-0 172,-0"/>
<text text-anchor="start" x="180" y="-18" font-family="Helvetica,sans-Serif" font-size="10.00">engine.collision.objects.</text>
<text text-anchor="middle" x="237" y="-7" font-family="Helvetica,sans-Serif" font-size="10.00">PowerupCollisionObject</text>
</a>
</g>
</g>
<!-- Node1&#45;&gt;Node5 -->
<g id="edge4" class="edge"><title>Node1&#45;&gt;Node5</title>
<path fill="none" stroke="midnightblue" d="M104.35,-68.4333C122.786,-59.3268 145.323,-48.6272 166,-40 174.218,-36.5714 183.091,-33.1748 191.669,-30.0421"/>
<polygon fill="midnightblue" stroke="midnightblue" points="102.779,-65.3057 95.3857,-72.8948 105.898,-71.5724 102.779,-65.3057"/>
</g>
</g>
</svg>
