<?xml version="1.0" encoding="UTF-8" standalone="no"?>
<!DOCTYPE svg PUBLIC "-//W3C//DTD SVG 1.1//EN"
 "http://www.w3.org/Graphics/SVG/1.1/DTD/svg11.dtd">
<!-- Generated by graphviz version 2.36.0 (20140111.2315)
 -->
<!-- Title: Graphical Class Hierarchy Pages: 1 -->
<svg width="878pt" height="311pt"
 viewBox="0.00 0.00 878.00 311.00" xmlns="http://www.w3.org/2000/svg" xmlns:xlink="http://www.w3.org/1999/xlink">
<g id="graph0" class="graph" transform="scale(1 1) rotate(0) translate(4 307)">
<title>Graphical Class Hierarchy</title>
<polygon fill="white" stroke="none" points="-4,4 -4,-307 874,-307 874,4 -4,4"/>
<!-- Node1 -->
<g id="node1" class="node"><title>Node1</title>
<polygon fill="white" stroke="#bfbfbf" points="0.5,-78.5 0.5,-97.5 41.5,-97.5 41.5,-78.5 0.5,-78.5"/>
<text text-anchor="middle" x="21" y="-85.5" font-family="Helvetica,sans-Serif" font-size="10.00">VBox</text>
</g>
<!-- Node2 -->
<g id="node2" class="node"><title>Node2</title>
<g id="a_node2"><a xlink:href="dd/db4/classauthoring_1_1view_1_1icons_1_1_base_icon.html" target="_top" xlink:title="authoring.view.icons.BaseIcon">
<polygon fill="white" stroke="black" points="84.5,-215.5 84.5,-234.5 243.5,-234.5 243.5,-215.5 84.5,-215.5"/>
<text text-anchor="middle" x="164" y="-222.5" font-family="Helvetica,sans-Serif" font-size="10.00">authoring.view.icons.BaseIcon</text>
</a>
</g>
</g>
<!-- Node1&#45;&gt;Node2 -->
<g id="edge1" class="edge"><title>Node1&#45;&gt;Node2</title>
<path fill="none" stroke="midnightblue" d="M39.3606,-104.868C69.1676,-133.83 129.163,-192.123 152.952,-215.237"/>
<polygon fill="midnightblue" stroke="midnightblue" points="41.7515,-102.311 32.1404,-97.8527 36.8734,-107.332 41.7515,-102.311"/>
</g>
<!-- Node10 -->
<g id="node10" class="node"><title>Node10</title>
<g id="a_node10"><a xlink:href="de/d73/classauthoring_1_1view_1_1propertiesview_1_1_properties.html" target="_top" xlink:title="authoring.view.propertiesview.\lProperties">
<polygon fill="white" stroke="black" points="84.5,-98 84.5,-128 243.5,-128 243.5,-98 84.5,-98"/>
<text text-anchor="start" x="92.5" y="-116" font-family="Helvetica,sans-Serif" font-size="10.00">authoring.view.propertiesview.</text>
<text text-anchor="middle" x="164" y="-105" font-family="Helvetica,sans-Serif" font-size="10.00">Properties</text>
</a>
</g>
</g>
<!-- Node1&#45;&gt;Node10 -->
<g id="edge9" class="edge"><title>Node1&#45;&gt;Node10</title>
<path fill="none" stroke="midnightblue" d="M51.528,-93.2355C61.3129,-94.9704 72.7104,-96.9912 84.4091,-99.0654"/>
<polygon fill="midnightblue" stroke="midnightblue" points="52.0629,-89.7758 41.6054,-91.4761 50.8408,-96.6683 52.0629,-89.7758"/>
</g>
<!-- Node15 -->
<g id="node15" class="node"><title>Node15</title>
<g id="a_node15"><a xlink:href="d4/d31/classauthoring_1_1view_1_1wizards_1_1_action_choices_v_box.html" target="_top" xlink:title="authoring.view.wizards.Action\lChoicesVBox">
<polygon fill="white" stroke="black" points="86,-49 86,-79 242,-79 242,-49 86,-49"/>
<text text-anchor="start" x="94" y="-67" font-family="Helvetica,sans-Serif" font-size="10.00">authoring.view.wizards.Action</text>
<text text-anchor="middle" x="164" y="-56" font-family="Helvetica,sans-Serif" font-size="10.00">ChoicesVBox</text>
</a>
</g>
</g>
<!-- Node1&#45;&gt;Node15 -->
<g id="edge14" class="edge"><title>Node1&#45;&gt;Node15</title>
<path fill="none" stroke="midnightblue" d="M51.5547,-82.9694C61.772,-81.2303 73.7453,-79.1923 85.9828,-77.1093"/>
<polygon fill="midnightblue" stroke="midnightblue" points="50.8763,-79.5345 41.6054,-84.6629 52.051,-86.4352 50.8763,-79.5345"/>
</g>
<!-- Node16 -->
<g id="node16" class="node"><title>Node16</title>
<g id="a_node16"><a xlink:href="d2/d2f/classauthoring_1_1view_1_1wizards_1_1_condition_choices_v_box.html" target="_top" xlink:title="authoring.view.wizards.Condition\lChoicesVBox">
<polygon fill="white" stroke="black" points="78.5,-0 78.5,-30 249.5,-30 249.5,-0 78.5,-0"/>
<text text-anchor="start" x="86.5" y="-18" font-family="Helvetica,sans-Serif" font-size="10.00">authoring.view.wizards.Condition</text>
<text text-anchor="middle" x="164" y="-7" font-family="Helvetica,sans-Serif" font-size="10.00">ChoicesVBox</text>
</a>
</g>
</g>
<!-- Node1&#45;&gt;Node16 -->
<g id="edge15" class="edge"><title>Node1&#45;&gt;Node16</title>
<path fill="none" stroke="midnightblue" d="M37.6945,-70.8155C48.1808,-60.268 62.7977,-47.2461 78,-39 84.2002,-35.6369 90.9166,-32.7074 97.7636,-30.1645"/>
<polygon fill="midnightblue" stroke="midnightblue" points="34.9334,-68.6381 30.5395,-78.2788 39.9864,-73.4824 34.9334,-68.6381"/>
</g>
<!-- Node3 -->
<g id="node3" class="node"><title>Node3</title>
<g id="a_node3"><a xlink:href="d3/dcc/classauthoring_1_1view_1_1icons_1_1_condition_icon.html" target="_top" xlink:title="authoring.view.icons.ConditionIcon">
<polygon fill="white" stroke="black" points="286,-272.5 286,-291.5 466,-291.5 466,-272.5 286,-272.5"/>
<text text-anchor="middle" x="376" y="-279.5" font-family="Helvetica,sans-Serif" font-size="10.00">authoring.view.icons.ConditionIcon</text>
</a>
</g>
</g>
<!-- Node2&#45;&gt;Node3 -->
<g id="edge2" class="edge"><title>Node2&#45;&gt;Node3</title>
<path fill="none" stroke="midnightblue" d="M202.343,-237.726C226.126,-245.582 257.679,-255.548 286,-263 298.987,-266.418 313.162,-269.66 326.304,-272.468"/>
<polygon fill="midnightblue" stroke="midnightblue" points="203.252,-234.34 192.659,-234.502 201.041,-240.982 203.252,-234.34"/>
</g>
<!-- Node4 -->
<g id="node4" class="node"><title>Node4</title>
<g id="a_node4"><a xlink:href="de/d21/classauthoring_1_1view_1_1icons_1_1_file_icon.html" target="_top" xlink:title="authoring.view.icons.FileIcon">
<polygon fill="white" stroke="black" points="301,-234.5 301,-253.5 451,-253.5 451,-234.5 301,-234.5"/>
<text text-anchor="middle" x="376" y="-241.5" font-family="Helvetica,sans-Serif" font-size="10.00">authoring.view.icons.FileIcon</text>
</a>
</g>
</g>
<!-- Node2&#45;&gt;Node4 -->
<g id="edge3" class="edge"><title>Node2&#45;&gt;Node4</title>
<path fill="none" stroke="midnightblue" d="M253.995,-233.052C269.647,-234.468 285.786,-235.928 300.975,-237.302"/>
<polygon fill="midnightblue" stroke="midnightblue" points="254.068,-229.544 243.794,-232.129 253.438,-236.516 254.068,-229.544"/>
</g>
<!-- Node9 -->
<g id="node9" class="node"><title>Node9</title>
<g id="a_node9"><a xlink:href="d5/d37/classauthoring_1_1view_1_1icons_1_1_level_icon.html" target="_top" xlink:title="authoring.view.icons.LevelIcon">
<polygon fill="white" stroke="black" points="296,-196.5 296,-215.5 456,-215.5 456,-196.5 296,-196.5"/>
<text text-anchor="middle" x="376" y="-203.5" font-family="Helvetica,sans-Serif" font-size="10.00">authoring.view.icons.LevelIcon</text>
</a>
</g>
</g>
<!-- Node2&#45;&gt;Node9 -->
<g id="edge8" class="edge"><title>Node2&#45;&gt;Node9</title>
<path fill="none" stroke="midnightblue" d="M253.847,-216.961C267.769,-215.702 282.078,-214.407 295.765,-213.169"/>
<polygon fill="midnightblue" stroke="midnightblue" points="253.438,-213.484 243.794,-217.871 254.068,-220.456 253.438,-213.484"/>
</g>
<!-- Node5 -->
<g id="node5" class="node"><title>Node5</title>
<g id="a_node5"><a xlink:href="d5/d47/classauthoring_1_1view_1_1icons_1_1_image_based_icon.html" target="_top" xlink:title="authoring.view.icons.Image\lBasedIcon">
<polygon fill="white" stroke="black" points="512,-251 512,-281 658,-281 658,-251 512,-251"/>
<text text-anchor="start" x="520" y="-269" font-family="Helvetica,sans-Serif" font-size="10.00">authoring.view.icons.Image</text>
<text text-anchor="middle" x="585" y="-258" font-family="Helvetica,sans-Serif" font-size="10.00">BasedIcon</text>
</a>
</g>
</g>
<!-- Node4&#45;&gt;Node5 -->
<g id="edge4" class="edge"><title>Node4&#45;&gt;Node5</title>
<path fill="none" stroke="midnightblue" d="M461.437,-252.974C478.132,-254.748 495.512,-256.595 511.758,-258.322"/>
<polygon fill="midnightblue" stroke="midnightblue" points="461.461,-249.457 451.147,-251.88 460.721,-256.418 461.461,-249.457"/>
</g>
<!-- Node8 -->
<g id="node8" class="node"><title>Node8</title>
<g id="a_node8"><a xlink:href="d1/db7/classauthoring_1_1view_1_1icons_1_1_sound_icon.html" target="_top" xlink:title="authoring.view.icons.SoundIcon">
<polygon fill="white" stroke="black" points="502,-212.5 502,-231.5 668,-231.5 668,-212.5 502,-212.5"/>
<text text-anchor="middle" x="585" y="-219.5" font-family="Helvetica,sans-Serif" font-size="10.00">authoring.view.icons.SoundIcon</text>
</a>
</g>
</g>
<!-- Node4&#45;&gt;Node8 -->
<g id="edge7" class="edge"><title>Node4&#45;&gt;Node8</title>
<path fill="none" stroke="midnightblue" d="M461.304,-235.04C474.72,-233.614 488.581,-232.141 501.944,-230.721"/>
<polygon fill="midnightblue" stroke="midnightblue" points="460.721,-231.582 451.147,-236.12 461.461,-238.543 460.721,-231.582"/>
</g>
<!-- Node6 -->
<g id="node6" class="node"><title>Node6</title>
<g id="a_node6"><a xlink:href="de/de8/classauthoring_1_1view_1_1icons_1_1_game_object_icon.html" target="_top" xlink:title="authoring.view.icons.Game\lObjectIcon">
<polygon fill="white" stroke="black" points="714.5,-273 714.5,-303 859.5,-303 859.5,-273 714.5,-273"/>
<text text-anchor="start" x="722.5" y="-291" font-family="Helvetica,sans-Serif" font-size="10.00">authoring.view.icons.Game</text>
<text text-anchor="middle" x="787" y="-280" font-family="Helvetica,sans-Serif" font-size="10.00">ObjectIcon</text>
</a>
</g>
</g>
<!-- Node5&#45;&gt;Node6 -->
<g id="edge5" class="edge"><title>Node5&#45;&gt;Node6</title>
<path fill="none" stroke="midnightblue" d="M668.15,-275.037C683.434,-276.718 699.294,-278.462 714.237,-280.106"/>
<polygon fill="midnightblue" stroke="midnightblue" points="668.527,-271.557 658.205,-273.943 667.762,-278.515 668.527,-271.557"/>
</g>
<!-- Node7 -->
<g id="node7" class="node"><title>Node7</title>
<g id="a_node7"><a xlink:href="df/d69/classauthoring_1_1view_1_1icons_1_1_image_icon.html" target="_top" xlink:title="authoring.view.icons.ImageIcon">
<polygon fill="white" stroke="black" points="704.5,-234.5 704.5,-253.5 869.5,-253.5 869.5,-234.5 704.5,-234.5"/>
<text text-anchor="middle" x="787" y="-241.5" font-family="Helvetica,sans-Serif" font-size="10.00">authoring.view.icons.ImageIcon</text>
</a>
</g>
</g>
<!-- Node5&#45;&gt;Node7 -->
<g id="edge6" class="edge"><title>Node5&#45;&gt;Node7</title>
<path fill="none" stroke="midnightblue" d="M668.158,-256.963C680.125,-255.646 692.444,-254.291 704.4,-252.976"/>
<polygon fill="midnightblue" stroke="midnightblue" points="667.762,-253.485 658.205,-258.057 668.527,-260.443 667.762,-253.485"/>
</g>
<!-- Node11 -->
<g id="node11" class="node"><title>Node11</title>
<g id="a_node11"><a xlink:href="d2/da2/classauthoring_1_1view_1_1propertiesview_1_1_condition_properties.html" target="_top" xlink:title="authoring.view.propertiesview.\lConditionProperties">
<polygon fill="white" stroke="black" points="296.5,-147 296.5,-177 455.5,-177 455.5,-147 296.5,-147"/>
<text text-anchor="start" x="304.5" y="-165" font-family="Helvetica,sans-Serif" font-size="10.00">authoring.view.propertiesview.</text>
<text text-anchor="middle" x="376" y="-154" font-family="Helvetica,sans-Serif" font-size="10.00">ConditionProperties</text>
</a>
</g>
</g>
<!-- Node10&#45;&gt;Node11 -->
<g id="edge10" class="edge"><title>Node10&#45;&gt;Node11</title>
<path fill="none" stroke="midnightblue" d="M239.275,-130.331C262.591,-135.771 288.122,-141.729 310.688,-146.994"/>
<polygon fill="midnightblue" stroke="midnightblue" points="239.968,-126.899 229.434,-128.035 238.377,-133.715 239.968,-126.899"/>
</g>
<!-- Node12 -->
<g id="node12" class="node"><title>Node12</title>
<g id="a_node12"><a xlink:href="d1/d2f/classauthoring_1_1view_1_1propertiesview_1_1_file_properties.html" target="_top" xlink:title="authoring.view.propertiesview.\lFileProperties">
<polygon fill="white" stroke="black" points="296.5,-98 296.5,-128 455.5,-128 455.5,-98 296.5,-98"/>
<text text-anchor="start" x="304.5" y="-116" font-family="Helvetica,sans-Serif" font-size="10.00">authoring.view.propertiesview.</text>
<text text-anchor="middle" x="376" y="-105" font-family="Helvetica,sans-Serif" font-size="10.00">FileProperties</text>
</a>
</g>
</g>
<!-- Node10&#45;&gt;Node12 -->
<g id="edge11" class="edge"><title>Node10&#45;&gt;Node12</title>
<path fill="none" stroke="midnightblue" d="M253.986,-113C268.101,-113 282.611,-113 296.463,-113"/>
<polygon fill="midnightblue" stroke="midnightblue" points="253.794,-109.5 243.794,-113 253.794,-116.5 253.794,-109.5"/>
</g>
<!-- Node13 -->
<g id="node13" class="node"><title>Node13</title>
<g id="a_node13"><a xlink:href="da/d8d/classauthoring_1_1view_1_1propertiesview_1_1_game_object_properties.html" target="_top" xlink:title="authoring.view.propertiesview.\lGameObjectProperties">
<polygon fill="white" stroke="black" points="296.5,-49 296.5,-79 455.5,-79 455.5,-49 296.5,-49"/>
<text text-anchor="start" x="304.5" y="-67" font-family="Helvetica,sans-Serif" font-size="10.00">authoring.view.propertiesview.</text>
<text text-anchor="middle" x="376" y="-56" font-family="Helvetica,sans-Serif" font-size="10.00">GameObjectProperties</text>
</a>
</g>
</g>
<!-- Node10&#45;&gt;Node13 -->
<g id="edge12" class="edge"><title>Node10&#45;&gt;Node13</title>
<path fill="none" stroke="midnightblue" d="M239.275,-95.6691C262.591,-90.2288 288.122,-84.2715 310.688,-79.0062"/>
<polygon fill="midnightblue" stroke="midnightblue" points="238.377,-92.2846 229.434,-97.9654 239.968,-99.1015 238.377,-92.2846"/>
</g>
<!-- Node14 -->
<g id="node14" class="node"><title>Node14</title>
<g id="a_node14"><a xlink:href="d7/d69/classauthoring_1_1view_1_1propertiesview_1_1_level_properties.html" target="_top" xlink:title="authoring.view.propertiesview.\lLevelProperties">
<polygon fill="white" stroke="black" points="296.5,-0 296.5,-30 455.5,-30 455.5,-0 296.5,-0"/>
<text text-anchor="start" x="304.5" y="-18" font-family="Helvetica,sans-Serif" font-size="10.00">authoring.view.propertiesview.</text>
<text text-anchor="middle" x="376" y="-7" font-family="Helvetica,sans-Serif" font-size="10.00">LevelProperties</text>
</a>
</g>
</g>
<!-- Node10&#45;&gt;Node14 -->
<g id="edge13" class="edge"><title>Node10&#45;&gt;Node14</title>
<path fill="none" stroke="midnightblue" d="M240.996,-93.5473C244.124,-91.8488 247.143,-90.0038 250,-88 272.125,-72.4835 263.701,-54.2649 286,-39 291.018,-35.5649 296.507,-32.6207 302.218,-30.0975"/>
<polygon fill="midnightblue" stroke="midnightblue" points="239.392,-90.4355 231.93,-97.9569 242.453,-96.7304 239.392,-90.4355"/>
</g>
</g>
</svg>
