<?xml version="1.0" encoding="UTF-8" standalone="no"?>
<!DOCTYPE svg PUBLIC "-//W3C//DTD SVG 1.1//EN"
 "http://www.w3.org/Graphics/SVG/1.1/DTD/svg11.dtd">
<!-- Generated by graphviz version 2.36.0 (20140111.2315)
 -->
<!-- Title: Graphical Class Hierarchy Pages: 1 -->
<svg width="880pt" height="376pt"
 viewBox="0.00 0.00 880.00 376.00" xmlns="http://www.w3.org/2000/svg" xmlns:xlink="http://www.w3.org/1999/xlink">
<g id="graph0" class="graph" transform="scale(1 1) rotate(0) translate(4 372)">
<title>Graphical Class Hierarchy</title>
<polygon fill="white" stroke="none" points="-4,4 -4,-372 876,-372 876,4 -4,4"/>
<!-- Node1 -->
<g id="node1" class="node"><title>Node1</title>
<polygon fill="white" stroke="#bfbfbf" points="0.5,-78.5 0.5,-97.5 41.5,-97.5 41.5,-78.5 0.5,-78.5"/>
<text text-anchor="middle" x="21" y="-85.5" font-family="Helvetica,sans-Serif" font-size="10.00">VBox</text>
</g>
<!-- Node2 -->
<g id="node2" class="node"><title>Node2</title>
<g id="a_node2"><a xlink:href="dd/db4/classauthoring_1_1view_1_1icons_1_1_base_icon.html" target="_top" xlink:title="authoring.view.icons.BaseIcon">
<polygon fill="white" stroke="black" points="84.5,-196.5 84.5,-215.5 243.5,-215.5 243.5,-196.5 84.5,-196.5"/>
<text text-anchor="middle" x="164" y="-203.5" font-family="Helvetica,sans-Serif" font-size="10.00">authoring.view.icons.BaseIcon</text>
</a>
</g>
</g>
<!-- Node1&#45;&gt;Node2 -->
<g id="edge1" class="edge"><title>Node1&#45;&gt;Node2</title>
<path fill="none" stroke="midnightblue" d="M40.2402,-104.262C51.1171,-113.883 65.2484,-126.252 78,-137 103.578,-158.56 134.162,-183.088 150.779,-196.313"/>
<polygon fill="midnightblue" stroke="midnightblue" points="42.4365,-101.532 32.6337,-97.5123 37.7904,-106.768 42.4365,-101.532"/>
</g>
<!-- Node11 -->
<g id="node11" class="node"><title>Node11</title>
<g id="a_node11"><a xlink:href="de/d73/classauthoring_1_1view_1_1propertiesview_1_1_properties.html" target="_top" xlink:title="authoring.view.propertiesview.\lProperties">
<polygon fill="white" stroke="black" points="84.5,-98 84.5,-128 243.5,-128 243.5,-98 84.5,-98"/>
<text text-anchor="start" x="92.5" y="-116" font-family="Helvetica,sans-Serif" font-size="10.00">authoring.view.propertiesview.</text>
<text text-anchor="middle" x="164" y="-105" font-family="Helvetica,sans-Serif" font-size="10.00">Properties</text>
</a>
</g>
</g>
<!-- Node1&#45;&gt;Node11 -->
<g id="edge10" class="edge"><title>Node1&#45;&gt;Node11</title>
<path fill="none" stroke="midnightblue" d="M51.528,-93.2355C61.3129,-94.9704 72.7104,-96.9912 84.4091,-99.0654"/>
<polygon fill="midnightblue" stroke="midnightblue" points="52.0629,-89.7758 41.6054,-91.4761 50.8408,-96.6683 52.0629,-89.7758"/>
</g>
<!-- Node16 -->
<g id="node16" class="node"><title>Node16</title>
<g id="a_node16"><a xlink:href="d4/d31/classauthoring_1_1view_1_1wizards_1_1_action_choices_v_box.html" target="_top" xlink:title="authoring.view.wizards.Action\lChoicesVBox">
<polygon fill="white" stroke="black" points="86,-49 86,-79 242,-79 242,-49 86,-49"/>
<text text-anchor="start" x="94" y="-67" font-family="Helvetica,sans-Serif" font-size="10.00">authoring.view.wizards.Action</text>
<text text-anchor="middle" x="164" y="-56" font-family="Helvetica,sans-Serif" font-size="10.00">ChoicesVBox</text>
</a>
</g>
</g>
<!-- Node1&#45;&gt;Node16 -->
<g id="edge15" class="edge"><title>Node1&#45;&gt;Node16</title>
<path fill="none" stroke="midnightblue" d="M51.5547,-82.9694C61.772,-81.2303 73.7453,-79.1923 85.9828,-77.1093"/>
<polygon fill="midnightblue" stroke="midnightblue" points="50.8763,-79.5345 41.6054,-84.6629 52.051,-86.4352 50.8763,-79.5345"/>
</g>
<!-- Node17 -->
<g id="node17" class="node"><title>Node17</title>
<g id="a_node17"><a xlink:href="d2/d2f/classauthoring_1_1view_1_1wizards_1_1_condition_choices_v_box.html" target="_top" xlink:title="authoring.view.wizards.Condition\lChoicesVBox">
<polygon fill="white" stroke="black" points="78.5,-0 78.5,-30 249.5,-30 249.5,-0 78.5,-0"/>
<text text-anchor="start" x="86.5" y="-18" font-family="Helvetica,sans-Serif" font-size="10.00">authoring.view.wizards.Condition</text>
<text text-anchor="middle" x="164" y="-7" font-family="Helvetica,sans-Serif" font-size="10.00">ChoicesVBox</text>
</a>
</g>
</g>
<!-- Node1&#45;&gt;Node17 -->
<g id="edge16" class="edge"><title>Node1&#45;&gt;Node17</title>
<path fill="none" stroke="midnightblue" d="M37.6945,-70.8155C48.1808,-60.268 62.7977,-47.2461 78,-39 84.2002,-35.6369 90.9166,-32.7074 97.7636,-30.1645"/>
<polygon fill="midnightblue" stroke="midnightblue" points="34.9334,-68.6381 30.5395,-78.2788 39.9864,-73.4824 34.9334,-68.6381"/>
</g>
<!-- Node3 -->
<g id="node3" class="node"><title>Node3</title>
<g id="a_node3"><a xlink:href="de/d21/classauthoring_1_1view_1_1icons_1_1_file_icon.html" target="_top" xlink:title="authoring.view.icons.FileIcon">
<polygon fill="white" stroke="black" points="295,-196.5 295,-215.5 445,-215.5 445,-196.5 295,-196.5"/>
<text text-anchor="middle" x="370" y="-203.5" font-family="Helvetica,sans-Serif" font-size="10.00">authoring.view.icons.FileIcon</text>
</a>
</g>
</g>
<!-- Node2&#45;&gt;Node3 -->
<g id="edge2" class="edge"><title>Node2&#45;&gt;Node3</title>
<path fill="none" stroke="midnightblue" d="M253.934,-206C267.577,-206 281.537,-206 294.816,-206"/>
<polygon fill="midnightblue" stroke="midnightblue" points="253.58,-202.5 243.58,-206 253.58,-209.5 253.58,-202.5"/>
</g>
<!-- Node8 -->
<g id="node8" class="node"><title>Node8</title>
<g id="a_node8"><a xlink:href="d9/df7/classauthoring_1_1view_1_1icons_1_1_text_icon.html" target="_top" xlink:title="authoring.view.icons.TextIcon">
<polygon fill="white" stroke="black" points="496,-348.5 496,-367.5 650,-367.5 650,-348.5 496,-348.5"/>
<text text-anchor="middle" x="573" y="-355.5" font-family="Helvetica,sans-Serif" font-size="10.00">authoring.view.icons.TextIcon</text>
</a>
</g>
</g>
<!-- Node2&#45;&gt;Node8 -->
<g id="edge7" class="edge"><title>Node2&#45;&gt;Node8</title>
<path fill="none" stroke="midnightblue" d="M180.197,-223.135C201.466,-245.939 242.423,-285.737 286,-306 352.812,-337.067 436.44,-349.612 495.972,-354.656"/>
<polygon fill="midnightblue" stroke="midnightblue" points="182.614,-220.59 173.284,-215.57 177.446,-225.313 182.614,-220.59"/>
</g>
<!-- Node4 -->
<g id="node4" class="node"><title>Node4</title>
<g id="a_node4"><a xlink:href="d5/d47/classauthoring_1_1view_1_1icons_1_1_image_based_icon.html" target="_top" xlink:title="authoring.view.icons.Image\lBasedIcon">
<polygon fill="white" stroke="black" points="500,-147 500,-177 646,-177 646,-147 500,-147"/>
<text text-anchor="start" x="508" y="-165" font-family="Helvetica,sans-Serif" font-size="10.00">authoring.view.icons.Image</text>
<text text-anchor="middle" x="573" y="-154" font-family="Helvetica,sans-Serif" font-size="10.00">BasedIcon</text>
</a>
</g>
</g>
<!-- Node3&#45;&gt;Node4 -->
<g id="edge3" class="edge"><title>Node3&#45;&gt;Node4</title>
<path fill="none" stroke="midnightblue" d="M424.642,-194.258C448.754,-188.979 477.503,-182.686 503.179,-177.065"/>
<polygon fill="midnightblue" stroke="midnightblue" points="423.634,-190.895 414.614,-196.453 425.131,-197.733 423.634,-190.895"/>
</g>
<!-- Node7 -->
<g id="node7" class="node"><title>Node7</title>
<g id="a_node7"><a xlink:href="d1/db7/classauthoring_1_1view_1_1icons_1_1_sound_icon.html" target="_top" xlink:title="authoring.view.icons.SoundIcon">
<polygon fill="white" stroke="black" points="490,-196.5 490,-215.5 656,-215.5 656,-196.5 490,-196.5"/>
<text text-anchor="middle" x="573" y="-203.5" font-family="Helvetica,sans-Serif" font-size="10.00">authoring.view.icons.SoundIcon</text>
</a>
</g>
</g>
<!-- Node3&#45;&gt;Node7 -->
<g id="edge6" class="edge"><title>Node3&#45;&gt;Node7</title>
<path fill="none" stroke="midnightblue" d="M455.608,-206C466.965,-206 478.6,-206 489.913,-206"/>
<polygon fill="midnightblue" stroke="midnightblue" points="455.274,-202.5 445.274,-206 455.274,-209.5 455.274,-202.5"/>
</g>
<!-- Node5 -->
<g id="node5" class="node"><title>Node5</title>
<g id="a_node5"><a xlink:href="de/de8/classauthoring_1_1view_1_1icons_1_1_game_object_icon.html" target="_top" xlink:title="authoring.view.icons.Game\lObjectIcon">
<polygon fill="white" stroke="black" points="709.5,-147 709.5,-177 854.5,-177 854.5,-147 709.5,-147"/>
<text text-anchor="start" x="717.5" y="-165" font-family="Helvetica,sans-Serif" font-size="10.00">authoring.view.icons.Game</text>
<text text-anchor="middle" x="782" y="-154" font-family="Helvetica,sans-Serif" font-size="10.00">ObjectIcon</text>
</a>
</g>
</g>
<!-- Node4&#45;&gt;Node5 -->
<g id="edge4" class="edge"><title>Node4&#45;&gt;Node5</title>
<path fill="none" stroke="midnightblue" d="M656.346,-162C673.929,-162 692.364,-162 709.5,-162"/>
<polygon fill="midnightblue" stroke="midnightblue" points="656.108,-158.5 646.108,-162 656.108,-165.5 656.108,-158.5"/>
</g>
<!-- Node6 -->
<g id="node6" class="node"><title>Node6</title>
<g id="a_node6"><a xlink:href="df/d69/classauthoring_1_1view_1_1icons_1_1_image_icon.html" target="_top" xlink:title="authoring.view.icons.ImageIcon">
<polygon fill="white" stroke="black" points="699.5,-215.5 699.5,-234.5 864.5,-234.5 864.5,-215.5 699.5,-215.5"/>
<text text-anchor="middle" x="782" y="-222.5" font-family="Helvetica,sans-Serif" font-size="10.00">authoring.view.icons.ImageIcon</text>
</a>
</g>
</g>
<!-- Node4&#45;&gt;Node6 -->
<g id="edge5" class="edge"><title>Node4&#45;&gt;Node6</title>
<path fill="none" stroke="midnightblue" d="M633.244,-180.031C671.213,-191.587 718.972,-206.122 749.74,-215.486"/>
<polygon fill="midnightblue" stroke="midnightblue" points="633.905,-176.573 623.319,-177.01 631.866,-183.27 633.905,-176.573"/>
</g>
<!-- Node9 -->
<g id="node9" class="node"><title>Node9</title>
<g id="a_node9"><a xlink:href="d3/dcc/classauthoring_1_1view_1_1icons_1_1_condition_icon.html" target="_top" xlink:title="authoring.view.icons.ConditionIcon">
<polygon fill="white" stroke="black" points="692,-338.5 692,-357.5 872,-357.5 872,-338.5 692,-338.5"/>
<text text-anchor="middle" x="782" y="-345.5" font-family="Helvetica,sans-Serif" font-size="10.00">authoring.view.icons.ConditionIcon</text>
</a>
</g>
</g>
<!-- Node8&#45;&gt;Node9 -->
<g id="edge8" class="edge"><title>Node8&#45;&gt;Node9</title>
<path fill="none" stroke="midnightblue" d="M660.422,-353.825C670.74,-353.327 681.291,-352.817 691.65,-352.316"/>
<polygon fill="midnightblue" stroke="midnightblue" points="660.017,-350.34 650.197,-354.319 660.355,-357.332 660.017,-350.34"/>
</g>
<!-- Node10 -->
<g id="node10" class="node"><title>Node10</title>
<g id="a_node10"><a xlink:href="d5/d37/classauthoring_1_1view_1_1icons_1_1_level_icon.html" target="_top" xlink:title="authoring.view.icons.LevelIcon">
<polygon fill="white" stroke="black" points="702,-281.5 702,-300.5 862,-300.5 862,-281.5 702,-281.5"/>
<text text-anchor="middle" x="782" y="-288.5" font-family="Helvetica,sans-Serif" font-size="10.00">authoring.view.icons.LevelIcon</text>
</a>
</g>
</g>
<!-- Node8&#45;&gt;Node10 -->
<g id="edge9" class="edge"><title>Node8&#45;&gt;Node10</title>
<path fill="none" stroke="midnightblue" d="M613.397,-345.248C653.619,-332.23 715.146,-312.315 751.397,-300.582"/>
<polygon fill="midnightblue" stroke="midnightblue" points="612.094,-341.991 603.658,-348.401 614.25,-348.651 612.094,-341.991"/>
</g>
<!-- Node12 -->
<g id="node12" class="node"><title>Node12</title>
<g id="a_node12"><a xlink:href="d2/da2/classauthoring_1_1view_1_1propertiesview_1_1_condition_properties.html" target="_top" xlink:title="authoring.view.propertiesview.\lConditionProperties">
<polygon fill="white" stroke="black" points="290.5,-98 290.5,-128 449.5,-128 449.5,-98 290.5,-98"/>
<text text-anchor="start" x="298.5" y="-116" font-family="Helvetica,sans-Serif" font-size="10.00">authoring.view.propertiesview.</text>
<text text-anchor="middle" x="370" y="-105" font-family="Helvetica,sans-Serif" font-size="10.00">ConditionProperties</text>
</a>
</g>
</g>
<!-- Node11&#45;&gt;Node12 -->
<g id="edge11" class="edge"><title>Node11&#45;&gt;Node12</title>
<path fill="none" stroke="midnightblue" d="M253.763,-113C265.977,-113 278.448,-113 290.461,-113"/>
<polygon fill="midnightblue" stroke="midnightblue" points="253.58,-109.5 243.58,-113 253.58,-116.5 253.58,-109.5"/>
</g>
<!-- Node13 -->
<g id="node13" class="node"><title>Node13</title>
<g id="a_node13"><a xlink:href="d1/d2f/classauthoring_1_1view_1_1propertiesview_1_1_file_properties.html" target="_top" xlink:title="authoring.view.propertiesview.\lFileProperties">
<polygon fill="white" stroke="black" points="290.5,-49 290.5,-79 449.5,-79 449.5,-49 290.5,-49"/>
<text text-anchor="start" x="298.5" y="-67" font-family="Helvetica,sans-Serif" font-size="10.00">authoring.view.propertiesview.</text>
<text text-anchor="middle" x="370" y="-56" font-family="Helvetica,sans-Serif" font-size="10.00">FileProperties</text>
</a>
</g>
</g>
<!-- Node11&#45;&gt;Node13 -->
<g id="edge12" class="edge"><title>Node11&#45;&gt;Node13</title>
<path fill="none" stroke="midnightblue" d="M237.457,-95.5962C260.024,-90.1757 284.702,-84.248 306.525,-79.0062"/>
<polygon fill="midnightblue" stroke="midnightblue" points="236.499,-92.2266 227.593,-97.9654 238.134,-99.033 236.499,-92.2266"/>
</g>
<!-- Node14 -->
<g id="node14" class="node"><title>Node14</title>
<g id="a_node14"><a xlink:href="da/d8d/classauthoring_1_1view_1_1propertiesview_1_1_game_object_properties.html" target="_top" xlink:title="authoring.view.propertiesview.\lGameObjectProperties">
<polygon fill="white" stroke="black" points="290.5,-0 290.5,-30 449.5,-30 449.5,-0 290.5,-0"/>
<text text-anchor="start" x="298.5" y="-18" font-family="Helvetica,sans-Serif" font-size="10.00">authoring.view.propertiesview.</text>
<text text-anchor="middle" x="370" y="-7" font-family="Helvetica,sans-Serif" font-size="10.00">GameObjectProperties</text>
</a>
</g>
</g>
<!-- Node11&#45;&gt;Node14 -->
<g id="edge13" class="edge"><title>Node11&#45;&gt;Node14</title>
<path fill="none" stroke="midnightblue" d="M240.996,-93.5473C244.124,-91.8488 247.143,-90.0038 250,-88 272.125,-72.4835 263.84,-54.4659 286,-39 290.92,-35.5661 296.329,-32.6194 301.954,-30.0914"/>
<polygon fill="midnightblue" stroke="midnightblue" points="239.392,-90.4355 231.93,-97.9569 242.453,-96.7304 239.392,-90.4355"/>
</g>
<!-- Node15 -->
<g id="node15" class="node"><title>Node15</title>
<g id="a_node15"><a xlink:href="d7/d69/classauthoring_1_1view_1_1propertiesview_1_1_level_properties.html" target="_top" xlink:title="authoring.view.propertiesview.\lLevelProperties">
<polygon fill="white" stroke="black" points="290.5,-147 290.5,-177 449.5,-177 449.5,-147 290.5,-147"/>
<text text-anchor="start" x="298.5" y="-165" font-family="Helvetica,sans-Serif" font-size="10.00">authoring.view.propertiesview.</text>
<text text-anchor="middle" x="370" y="-154" font-family="Helvetica,sans-Serif" font-size="10.00">LevelProperties</text>
</a>
</g>
</g>
<!-- Node11&#45;&gt;Node15 -->
<g id="edge14" class="edge"><title>Node11&#45;&gt;Node15</title>
<path fill="none" stroke="midnightblue" d="M237.457,-130.404C260.024,-135.824 284.702,-141.752 306.525,-146.994"/>
<polygon fill="midnightblue" stroke="midnightblue" points="238.134,-126.967 227.593,-128.035 236.499,-133.773 238.134,-126.967"/>
</g>
<!-- Node18 -->
<g id="node18" class="node"><title>Node18</title>
<g id="a_node18"><a xlink:href="d7/d83/interfaceauthoring_1_1view_1_1icons_1_1_i_properties_maker.html" target="_top" xlink:title="authoring.view.icons.IProperties\lMaker">
<polygon fill="white" stroke="black" points="286.5,-267 286.5,-297 453.5,-297 453.5,-267 286.5,-267"/>
<text text-anchor="start" x="294.5" y="-285" font-family="Helvetica,sans-Serif" font-size="10.00">authoring.view.icons.IProperties</text>
<text text-anchor="middle" x="370" y="-274" font-family="Helvetica,sans-Serif" font-size="10.00">Maker</text>
</a>
</g>
</g>
<!-- Node18&#45;&gt;Node6 -->
<g id="edge18" class="edge"><title>Node18&#45;&gt;Node6</title>
<path fill="none" stroke="midnightblue" d="M463.962,-269.076C539.505,-258.574 644.346,-243.998 712.426,-234.533"/>
<polygon fill="midnightblue" stroke="midnightblue" points="463.392,-265.621 453.97,-270.465 464.356,-272.555 463.392,-265.621"/>
</g>
<!-- Node18&#45;&gt;Node7 -->
<g id="edge20" class="edge"><title>Node18&#45;&gt;Node7</title>
<path fill="none" stroke="midnightblue" d="M411.714,-262.675C434.459,-252.269 463.484,-239.63 490,-230 504.779,-224.633 521.378,-219.596 535.756,-215.535"/>
<polygon fill="midnightblue" stroke="midnightblue" points="409.99,-259.615 402.375,-266.982 412.922,-265.972 409.99,-259.615"/>
</g>
<!-- Node18&#45;&gt;Node8 -->
<g id="edge21" class="edge"><title>Node18&#45;&gt;Node8</title>
<path fill="none" stroke="midnightblue" d="M411.714,-301.325C434.459,-311.731 463.484,-324.37 490,-334 504.779,-339.367 521.378,-344.404 535.756,-348.465"/>
<polygon fill="midnightblue" stroke="midnightblue" points="412.922,-298.028 402.375,-297.018 409.99,-304.385 412.922,-298.028"/>
</g>
<!-- Node18&#45;&gt;Node9 -->
<g id="edge17" class="edge"><title>Node18&#45;&gt;Node9</title>
<path fill="none" stroke="midnightblue" d="M463.933,-296.96C542.999,-309.688 654.176,-327.584 721.701,-338.454"/>
<polygon fill="midnightblue" stroke="midnightblue" points="464.399,-293.49 453.97,-295.356 463.286,-300.401 464.399,-293.49"/>
</g>
<!-- Node18&#45;&gt;Node10 -->
<g id="edge19" class="edge"><title>Node18&#45;&gt;Node10</title>
<path fill="none" stroke="midnightblue" d="M464.358,-284.049C536.101,-285.624 634.094,-287.775 701.982,-289.265"/>
<polygon fill="midnightblue" stroke="midnightblue" points="464.044,-280.542 453.97,-283.821 463.89,-287.54 464.044,-280.542"/>
</g>
</g>
</svg>
