<?xml version="1.0" encoding="UTF-8" standalone="no"?>
<!DOCTYPE svg PUBLIC "-//W3C//DTD SVG 1.1//EN"
 "http://www.w3.org/Graphics/SVG/1.1/DTD/svg11.dtd">
<!-- Generated by graphviz version 2.36.0 (20140111.2315)
 -->
<!-- Title: Graphical Class Hierarchy Pages: 1 -->
<svg width="380pt" height="430pt"
 viewBox="0.00 0.00 380.00 430.00" xmlns="http://www.w3.org/2000/svg" xmlns:xlink="http://www.w3.org/1999/xlink">
<g id="graph0" class="graph" transform="scale(1 1) rotate(0) translate(4 426)">
<title>Graphical Class Hierarchy</title>
<polygon fill="white" stroke="none" points="-4,4 -4,-426 376,-426 376,4 -4,4"/>
<!-- Node1 -->
<g id="node1" class="node"><title>Node1</title>
<g id="a_node1"><a xlink:href="d3/d6a/interfaceauthoring_1_1eventhandlers_1_1_game_handler.html" target="_top" xlink:title="authoring.eventhandlers.\lGameHandler\&lt; MouseEvent \&gt;">
<polygon fill="white" stroke="black" points="0,-196 0,-226 164,-226 164,-196 0,-196"/>
<text text-anchor="start" x="8" y="-214" font-family="Helvetica,sans-Serif" font-size="10.00">authoring.eventhandlers.</text>
<text text-anchor="middle" x="82" y="-203" font-family="Helvetica,sans-Serif" font-size="10.00">GameHandler&lt; MouseEvent &gt;</text>
</a>
</g>
</g>
<!-- Node2 -->
<g id="node2" class="node"><title>Node2</title>
<g id="a_node2"><a xlink:href="d5/d30/classauthoring_1_1eventhandlers_1_1_condition_click_handler.html" target="_top" xlink:title="authoring.eventhandlers.\lConditionClickHandler">
<polygon fill="white" stroke="black" points="217.5,-392 217.5,-422 354.5,-422 354.5,-392 217.5,-392"/>
<text text-anchor="start" x="225.5" y="-410" font-family="Helvetica,sans-Serif" font-size="10.00">authoring.eventhandlers.</text>
<text text-anchor="middle" x="286" y="-399" font-family="Helvetica,sans-Serif" font-size="10.00">ConditionClickHandler</text>
</a>
</g>
</g>
<!-- Node1&#45;&gt;Node2 -->
<g id="edge1" class="edge"><title>Node1&#45;&gt;Node2</title>
<path fill="none" stroke="midnightblue" d="M93.3022,-235.739C110.102,-273.047 146.935,-343.439 200,-382 205.351,-385.888 211.302,-389.176 217.501,-391.954"/>
<polygon fill="midnightblue" stroke="midnightblue" points="96.3182,-233.901 89.0981,-226.147 89.907,-236.711 96.3182,-233.901"/>
</g>
<!-- Node3 -->
<g id="node3" class="node"><title>Node3</title>
<g id="a_node3"><a xlink:href="d9/db6/classauthoring_1_1eventhandlers_1_1_game_object_click_handler.html" target="_top" xlink:title="authoring.eventhandlers.\lGameObjectClickHandler">
<polygon fill="white" stroke="black" points="217.5,-343 217.5,-373 354.5,-373 354.5,-343 217.5,-343"/>
<text text-anchor="start" x="225.5" y="-361" font-family="Helvetica,sans-Serif" font-size="10.00">authoring.eventhandlers.</text>
<text text-anchor="middle" x="286" y="-350" font-family="Helvetica,sans-Serif" font-size="10.00">GameObjectClickHandler</text>
</a>
</g>
</g>
<!-- Node1&#45;&gt;Node3 -->
<g id="edge2" class="edge"><title>Node1&#45;&gt;Node3</title>
<path fill="none" stroke="midnightblue" d="M99.4372,-234.455C119.922,-261.981 157.459,-307.141 200,-333 206.309,-336.835 213.241,-340.111 220.339,-342.902"/>
<polygon fill="midnightblue" stroke="midnightblue" points="102.123,-232.199 93.4007,-226.185 96.4692,-236.326 102.123,-232.199"/>
</g>
<!-- Node4 -->
<g id="node4" class="node"><title>Node4</title>
<g id="a_node4"><a xlink:href="d1/da4/classauthoring_1_1eventhandlers_1_1_game_object_drag_handler.html" target="_top" xlink:title="authoring.eventhandlers.\lGameObjectDragHandler">
<polygon fill="white" stroke="black" points="217.5,-294 217.5,-324 354.5,-324 354.5,-294 217.5,-294"/>
<text text-anchor="start" x="225.5" y="-312" font-family="Helvetica,sans-Serif" font-size="10.00">authoring.eventhandlers.</text>
<text text-anchor="middle" x="286" y="-301" font-family="Helvetica,sans-Serif" font-size="10.00">GameObjectDragHandler</text>
</a>
</g>
</g>
<!-- Node1&#45;&gt;Node4 -->
<g id="edge3" class="edge"><title>Node1&#45;&gt;Node4</title>
<path fill="none" stroke="midnightblue" d="M111.851,-232.113C134.806,-248.126 168.237,-269.741 200,-284 208.279,-287.717 217.257,-291.048 226.172,-293.974"/>
<polygon fill="midnightblue" stroke="midnightblue" points="113.779,-229.189 103.592,-226.277 109.739,-234.906 113.779,-229.189"/>
</g>
<!-- Node5 -->
<g id="node5" class="node"><title>Node5</title>
<g id="a_node5"><a xlink:href="d0/df2/classauthoring_1_1eventhandlers_1_1_game_object_drag_to_level_handler.html" target="_top" xlink:title="authoring.eventhandlers.\lGameObjectDragToLevelHandler">
<polygon fill="white" stroke="black" points="200,-245 200,-275 372,-275 372,-245 200,-245"/>
<text text-anchor="start" x="208" y="-263" font-family="Helvetica,sans-Serif" font-size="10.00">authoring.eventhandlers.</text>
<text text-anchor="middle" x="286" y="-252" font-family="Helvetica,sans-Serif" font-size="10.00">GameObjectDragToLevelHandler</text>
</a>
</g>
</g>
<!-- Node1&#45;&gt;Node5 -->
<g id="edge4" class="edge"><title>Node1&#45;&gt;Node5</title>
<path fill="none" stroke="midnightblue" d="M154.746,-228.404C177.092,-233.824 201.529,-239.752 223.138,-244.994"/>
<polygon fill="midnightblue" stroke="midnightblue" points="155.523,-224.991 144.979,-226.035 153.872,-231.793 155.523,-224.991"/>
</g>
<!-- Node6 -->
<g id="node6" class="node"><title>Node6</title>
<g id="a_node6"><a xlink:href="d0/d8a/classauthoring_1_1eventhandlers_1_1_game_obj_graphic_drag_handler.html" target="_top" xlink:title="authoring.eventhandlers.\lGameObjGraphicDragHandler">
<polygon fill="white" stroke="black" points="206.5,-196 206.5,-226 365.5,-226 365.5,-196 206.5,-196"/>
<text text-anchor="start" x="214.5" y="-214" font-family="Helvetica,sans-Serif" font-size="10.00">authoring.eventhandlers.</text>
<text text-anchor="middle" x="286" y="-203" font-family="Helvetica,sans-Serif" font-size="10.00">GameObjGraphicDragHandler</text>
</a>
</g>
</g>
<!-- Node1&#45;&gt;Node6 -->
<g id="edge5" class="edge"><title>Node1&#45;&gt;Node6</title>
<path fill="none" stroke="midnightblue" d="M174.399,-211C185.006,-211 195.756,-211 206.175,-211"/>
<polygon fill="midnightblue" stroke="midnightblue" points="174.288,-207.5 164.288,-211 174.288,-214.5 174.288,-207.5"/>
</g>
<!-- Node7 -->
<g id="node7" class="node"><title>Node7</title>
<g id="a_node7"><a xlink:href="d2/d34/classauthoring_1_1eventhandlers_1_1_images_click_handler.html" target="_top" xlink:title="authoring.eventhandlers.\lImagesClickHandler">
<polygon fill="white" stroke="black" points="217.5,-147 217.5,-177 354.5,-177 354.5,-147 217.5,-147"/>
<text text-anchor="start" x="225.5" y="-165" font-family="Helvetica,sans-Serif" font-size="10.00">authoring.eventhandlers.</text>
<text text-anchor="middle" x="286" y="-154" font-family="Helvetica,sans-Serif" font-size="10.00">ImagesClickHandler</text>
</a>
</g>
</g>
<!-- Node1&#45;&gt;Node7 -->
<g id="edge6" class="edge"><title>Node1&#45;&gt;Node7</title>
<path fill="none" stroke="midnightblue" d="M154.746,-193.596C177.092,-188.176 201.529,-182.248 223.138,-177.006"/>
<polygon fill="midnightblue" stroke="midnightblue" points="153.872,-190.207 144.979,-195.965 155.523,-197.009 153.872,-190.207"/>
</g>
<!-- Node8 -->
<g id="node8" class="node"><title>Node8</title>
<g id="a_node8"><a xlink:href="d5/ddc/classauthoring_1_1eventhandlers_1_1_level_click_handler.html" target="_top" xlink:title="authoring.eventhandlers.\lLevelClickHandler">
<polygon fill="white" stroke="black" points="217.5,-98 217.5,-128 354.5,-128 354.5,-98 217.5,-98"/>
<text text-anchor="start" x="225.5" y="-116" font-family="Helvetica,sans-Serif" font-size="10.00">authoring.eventhandlers.</text>
<text text-anchor="middle" x="286" y="-105" font-family="Helvetica,sans-Serif" font-size="10.00">LevelClickHandler</text>
</a>
</g>
</g>
<!-- Node1&#45;&gt;Node8 -->
<g id="edge7" class="edge"><title>Node1&#45;&gt;Node8</title>
<path fill="none" stroke="midnightblue" d="M111.851,-189.887C134.806,-173.874 168.237,-152.259 200,-138 208.279,-134.283 217.257,-130.952 226.172,-128.026"/>
<polygon fill="midnightblue" stroke="midnightblue" points="109.739,-187.094 103.592,-195.723 113.779,-192.811 109.739,-187.094"/>
</g>
<!-- Node9 -->
<g id="node9" class="node"><title>Node9</title>
<g id="a_node9"><a xlink:href="dc/dc3/classauthoring_1_1eventhandlers_1_1_level_to_view_handler.html" target="_top" xlink:title="authoring.eventhandlers.\lLevelToViewHandler">
<polygon fill="white" stroke="black" points="217.5,-49 217.5,-79 354.5,-79 354.5,-49 217.5,-49"/>
<text text-anchor="start" x="225.5" y="-67" font-family="Helvetica,sans-Serif" font-size="10.00">authoring.eventhandlers.</text>
<text text-anchor="middle" x="286" y="-56" font-family="Helvetica,sans-Serif" font-size="10.00">LevelToViewHandler</text>
</a>
</g>
</g>
<!-- Node1&#45;&gt;Node9 -->
<g id="edge8" class="edge"><title>Node1&#45;&gt;Node9</title>
<path fill="none" stroke="midnightblue" d="M99.4372,-187.545C119.922,-160.019 157.459,-114.859 200,-89 206.309,-85.1649 213.241,-81.889 220.339,-79.0975"/>
<polygon fill="midnightblue" stroke="midnightblue" points="96.4692,-185.674 93.4007,-195.815 102.123,-189.801 96.4692,-185.674"/>
</g>
<!-- Node10 -->
<g id="node10" class="node"><title>Node10</title>
<g id="a_node10"><a xlink:href="d8/d71/classauthoring_1_1eventhandlers_1_1_sounds_click_handler.html" target="_top" xlink:title="authoring.eventhandlers.\lSoundsClickHandler">
<polygon fill="white" stroke="black" points="217.5,-0 217.5,-30 354.5,-30 354.5,-0 217.5,-0"/>
<text text-anchor="start" x="225.5" y="-18" font-family="Helvetica,sans-Serif" font-size="10.00">authoring.eventhandlers.</text>
<text text-anchor="middle" x="286" y="-7" font-family="Helvetica,sans-Serif" font-size="10.00">SoundsClickHandler</text>
</a>
</g>
</g>
<!-- Node1&#45;&gt;Node10 -->
<g id="edge9" class="edge"><title>Node1&#45;&gt;Node10</title>
<path fill="none" stroke="midnightblue" d="M93.3022,-186.261C110.102,-148.953 146.935,-78.5606 200,-40 205.351,-36.1118 211.302,-32.8245 217.501,-30.0458"/>
<polygon fill="midnightblue" stroke="midnightblue" points="89.907,-185.289 89.0981,-195.853 96.3182,-188.099 89.907,-185.289"/>
</g>
</g>
</svg>
