<?xml version="1.0" encoding="UTF-8" standalone="no"?>
<!DOCTYPE svg PUBLIC "-//W3C//DTD SVG 1.1//EN"
 "http://www.w3.org/Graphics/SVG/1.1/DTD/svg11.dtd">
<!-- Generated by graphviz version 2.36.0 (20140111.2315)
 -->
<!-- Title: Graphical Class Hierarchy Pages: 1 -->
<svg width="498pt" height="234pt"
 viewBox="0.00 0.00 498.00 234.00" xmlns="http://www.w3.org/2000/svg" xmlns:xlink="http://www.w3.org/1999/xlink">
<g id="graph0" class="graph" transform="scale(1 1) rotate(0) translate(4 230)">
<title>Graphical Class Hierarchy</title>
<polygon fill="white" stroke="none" points="-4,4 -4,-230 494,-230 494,4 -4,4"/>
<!-- Node1 -->
<g id="node1" class="node"><title>Node1</title>
<polygon fill="white" stroke="#bfbfbf" points="0.5,-103.5 0.5,-122.5 51.5,-122.5 51.5,-103.5 0.5,-103.5"/>
<text text-anchor="middle" x="26" y="-110.5" font-family="Helvetica,sans-Serif" font-size="10.00">ToolBar</text>
</g>
<!-- Node2 -->
<g id="node2" class="node"><title>Node2</title>
<g id="a_node2"><a xlink:href="df/dee/classauthoring_1_1view_1_1generalcollectionview_1_1_collection_options.html" target="_top" xlink:title="authoring.view.generalcollectionview.\lCollectionOptions">
<polygon fill="white" stroke="black" points="88.5,-98 88.5,-128 279.5,-128 279.5,-98 88.5,-98"/>
<text text-anchor="start" x="96.5" y="-116" font-family="Helvetica,sans-Serif" font-size="10.00">authoring.view.generalcollectionview.</text>
<text text-anchor="middle" x="184" y="-105" font-family="Helvetica,sans-Serif" font-size="10.00">CollectionOptions</text>
</a>
</g>
</g>
<!-- Node1&#45;&gt;Node2 -->
<g id="edge1" class="edge"><title>Node1&#45;&gt;Node2</title>
<path fill="none" stroke="midnightblue" d="M61.8457,-113C69.9874,-113 79.0445,-113 88.4375,-113"/>
<polygon fill="midnightblue" stroke="midnightblue" points="61.7187,-109.5 51.7187,-113 61.7186,-116.5 61.7187,-109.5"/>
</g>
<!-- Node3 -->
<g id="node3" class="node"><title>Node3</title>
<g id="a_node3"><a xlink:href="d1/dfb/classauthoring_1_1view_1_1conditionsview_1_1_condition_options.html" target="_top" xlink:title="authoring.view.conditionsview.\lConditionOptions">
<polygon fill="white" stroke="black" points="323.5,-196 323.5,-226 482.5,-226 482.5,-196 323.5,-196"/>
<text text-anchor="start" x="331.5" y="-214" font-family="Helvetica,sans-Serif" font-size="10.00">authoring.view.conditionsview.</text>
<text text-anchor="middle" x="403" y="-203" font-family="Helvetica,sans-Serif" font-size="10.00">ConditionOptions</text>
</a>
</g>
</g>
<!-- Node2&#45;&gt;Node3 -->
<g id="edge2" class="edge"><title>Node2&#45;&gt;Node3</title>
<path fill="none" stroke="midnightblue" d="M216.973,-133.507C242.885,-149.457 280.755,-171.279 316,-186 324.752,-189.655 334.216,-192.988 343.556,-195.945"/>
<polygon fill="midnightblue" stroke="midnightblue" points="218.67,-130.441 208.33,-128.132 214.973,-136.385 218.67,-130.441"/>
</g>
<!-- Node4 -->
<g id="node4" class="node"><title>Node4</title>
<g id="a_node4"><a xlink:href="d6/d03/classauthoring_1_1view_1_1gameobjectsview_1_1_game_object_options.html" target="_top" xlink:title="authoring.view.gameobjectsview.\lGameObjectOptions">
<polygon fill="white" stroke="black" points="316.5,-147 316.5,-177 489.5,-177 489.5,-147 316.5,-147"/>
<text text-anchor="start" x="324.5" y="-165" font-family="Helvetica,sans-Serif" font-size="10.00">authoring.view.gameobjectsview.</text>
<text text-anchor="middle" x="403" y="-154" font-family="Helvetica,sans-Serif" font-size="10.00">GameObjectOptions</text>
</a>
</g>
</g>
<!-- Node2&#45;&gt;Node4 -->
<g id="edge3" class="edge"><title>Node2&#45;&gt;Node4</title>
<path fill="none" stroke="midnightblue" d="M261.429,-130.258C285.608,-135.718 312.122,-141.705 335.544,-146.994"/>
<polygon fill="midnightblue" stroke="midnightblue" points="262.107,-126.823 251.582,-128.035 260.565,-133.651 262.107,-126.823"/>
</g>
<!-- Node5 -->
<g id="node5" class="node"><title>Node5</title>
<g id="a_node5"><a xlink:href="d7/dee/classauthoring_1_1view_1_1graphicsview_1_1_graphic_options.html" target="_top" xlink:title="authoring.view.graphicsview.\lGraphicOptions">
<polygon fill="white" stroke="black" points="327.5,-98 327.5,-128 478.5,-128 478.5,-98 327.5,-98"/>
<text text-anchor="start" x="335.5" y="-116" font-family="Helvetica,sans-Serif" font-size="10.00">authoring.view.graphicsview.</text>
<text text-anchor="middle" x="403" y="-105" font-family="Helvetica,sans-Serif" font-size="10.00">GraphicOptions</text>
</a>
</g>
</g>
<!-- Node2&#45;&gt;Node5 -->
<g id="edge4" class="edge"><title>Node2&#45;&gt;Node5</title>
<path fill="none" stroke="midnightblue" d="M289.708,-113C302.412,-113 315.185,-113 327.33,-113"/>
<polygon fill="midnightblue" stroke="midnightblue" points="289.548,-109.5 279.548,-113 289.548,-116.5 289.548,-109.5"/>
</g>
<!-- Node6 -->
<g id="node6" class="node"><title>Node6</title>
<g id="a_node6"><a xlink:href="d4/df1/classauthoring_1_1view_1_1levelview_1_1_level_options.html" target="_top" xlink:title="authoring.view.levelview.\lLevelOptions">
<polygon fill="white" stroke="black" points="337,-49 337,-79 469,-79 469,-49 337,-49"/>
<text text-anchor="start" x="345" y="-67" font-family="Helvetica,sans-Serif" font-size="10.00">authoring.view.levelview.</text>
<text text-anchor="middle" x="403" y="-56" font-family="Helvetica,sans-Serif" font-size="10.00">LevelOptions</text>
</a>
</g>
</g>
<!-- Node2&#45;&gt;Node6 -->
<g id="edge5" class="edge"><title>Node2&#45;&gt;Node6</title>
<path fill="none" stroke="midnightblue" d="M261.569,-95.7102C286.096,-90.1718 313.014,-84.0937 336.662,-78.7537"/>
<polygon fill="midnightblue" stroke="midnightblue" points="260.565,-92.3487 251.582,-97.9654 262.107,-99.1767 260.565,-92.3487"/>
</g>
<!-- Node7 -->
<g id="node7" class="node"><title>Node7</title>
<g id="a_node7"><a xlink:href="d0/d5e/classauthoring_1_1view_1_1soundsview_1_1_sound_options.html" target="_top" xlink:title="authoring.view.soundsview.\lSoundOptions">
<polygon fill="white" stroke="black" points="330.5,-0 330.5,-30 475.5,-30 475.5,-0 330.5,-0"/>
<text text-anchor="start" x="338.5" y="-18" font-family="Helvetica,sans-Serif" font-size="10.00">authoring.view.soundsview.</text>
<text text-anchor="middle" x="403" y="-7" font-family="Helvetica,sans-Serif" font-size="10.00">SoundOptions</text>
</a>
</g>
</g>
<!-- Node2&#45;&gt;Node7 -->
<g id="edge6" class="edge"><title>Node2&#45;&gt;Node7</title>
<path fill="none" stroke="midnightblue" d="M216.973,-92.4929C242.885,-76.5427 280.755,-54.7207 316,-40 324.752,-36.3446 334.216,-33.0117 343.556,-30.0553"/>
<polygon fill="midnightblue" stroke="midnightblue" points="214.973,-89.6149 208.33,-97.8685 218.67,-95.559 214.973,-89.6149"/>
</g>
</g>
</svg>
