<?xml version="1.0" encoding="UTF-8" standalone="no"?>
<!DOCTYPE svg PUBLIC "-//W3C//DTD SVG 1.1//EN"
 "http://www.w3.org/Graphics/SVG/1.1/DTD/svg11.dtd">
<!-- Generated by graphviz version 2.36.0 (20140111.2315)
 -->
<!-- Title: gamePlayer.view.keyboardUtility.KeyMapForm Pages: 1 -->
<!--zoomable 294 -->
<svg id="main" version="1.1" xmlns="http://www.w3.org/2000/svg" xmlns:xlink="http://www.w3.org/1999/xlink" xml:space="preserve" onload="init(evt)">
<style type="text/css"><![CDATA[
.edge:hover path { stroke: red; }
.edge:hover polygon { stroke: red; fill: red; }
]]></style>
<script type="text/javascript"><![CDATA[
var edges = document.getElementsByTagName('g');
if (edges && edges.length) {
  for (var i=0;i<edges.length;i++) {
    if (edges[i].id.substr(0,4)=='edge') {
      edges[i].setAttribute('class','edge');
    }
  }
}
]]></script>
        <defs>
                <circle id="rim" cx="0" cy="0" r="7"/>
                <circle id="rim2" cx="0" cy="0" r="3.5"/>
                <g id="zoomPlus">
                        <use xlink:href="#rim" fill="#404040">
                                <set attributeName="fill" to="#808080" begin="zoomplus.mouseover" end="zoomplus.mouseout"/>
                        </use>
                        <path d="M-4,0h8M0,-4v8" fill="none" stroke="white" stroke-width="1.5" pointer-events="none"/>
                </g>
                <g id="zoomMin">
                        <use xlink:href="#rim" fill="#404040">
                                <set attributeName="fill" to="#808080" begin="zoomminus.mouseover" end="zoomminus.mouseout"/>
                        </use>
                        <path d="M-4,0h8" fill="none" stroke="white" stroke-width="1.5" pointer-events="none"/>
                </g>
                <g id="dirArrow">
                        <path fill="none" stroke="white" stroke-width="1.5" d="M0,-3.0v7 M-2.5,-0.5L0,-3.0L2.5,-0.5"/>
                </g>
               <g id="resetDef">
                       <use xlink:href="#rim2" fill="#404040">
                               <set attributeName="fill" to="#808080" begin="reset.mouseover" end="reset.mouseout"/>
                       </use>
               </g>
        </defs>

<script type="text/javascript">
var viewWidth = 738;
var viewHeight = 294;
var sectionId = 'dynsection-0';
</script>
<script xlink:href="../../svgpan.js"/>
<svg id="graph" class="graph">
<g id="viewport">
<title>gamePlayer.view.keyboardUtility.KeyMapForm</title>
<polygon fill="white" stroke="none" points="-4,4 -4,-290 734,-290 734,4 -4,4"/>
<!-- Node1 -->
<g id="node1" class="node"><title>Node1</title>
<polygon fill="#bfbfbf" stroke="black" points="280.5,-33 280.5,-63 423.5,-63 423.5,-33 280.5,-33"/>
<text text-anchor="start" x="288.5" y="-51" font-family="Helvetica,sans-Serif" font-size="10.00">gamePlayer.view.keyboard</text>
<text text-anchor="middle" x="352" y="-40" font-family="Helvetica,sans-Serif" font-size="10.00">Utility.KeyMapForm</text>
</g>
<!-- Node3 -->
<g id="node3" class="node"><title>Node3</title>
<g id="a_node3"><a xlink:href="../../dc/d81/classgame_player_1_1view_1_1keyboard_utility_1_1_keyboard_view.html" target="_top" xlink:title="gamePlayer.view.keyboard\lUtility.KeyboardView">
<polygon fill="white" stroke="black" points="586.5,-121 586.5,-151 729.5,-151 729.5,-121 586.5,-121"/>
<text text-anchor="start" x="594.5" y="-139" font-family="Helvetica,sans-Serif" font-size="10.00">gamePlayer.view.keyboard</text>
<text text-anchor="middle" x="658" y="-128" font-family="Helvetica,sans-Serif" font-size="10.00">Utility.KeyboardView</text>
</a>
</g>
</g>
<!-- Node1&#45;&gt;Node3 -->
<g id="edge4" class="edge"><title>Node1&#45;&gt;Node3</title>
<path fill="none" stroke="#9a32cd" stroke-dasharray="5,2" d="M433.5,-58.1713C474.497,-64.7355 524.697,-74.9264 568,-90 590.833,-97.948 615.109,-110.826 632.53,-120.938"/>
<polygon fill="#9a32cd" stroke="#9a32cd" points="433.976,-54.7033 423.556,-56.6209 432.897,-61.6197 433.976,-54.7033"/>
<text text-anchor="middle" x="507" y="-93" font-family="Helvetica,sans-Serif" font-size="10.00"> myKeyMapForm</text>
</g>
<!-- Node2 -->
<g id="node2" class="node"><title>Node2</title>
<polygon fill="white" stroke="#bfbfbf" points="61.5,-183.5 61.5,-202.5 106.5,-202.5 106.5,-183.5 61.5,-183.5"/>
<text text-anchor="middle" x="84" y="-190.5" font-family="Helvetica,sans-Serif" font-size="10.00">Stage</text>
</g>
<!-- Node2&#45;&gt;Node1 -->
<g id="edge1" class="edge"><title>Node2&#45;&gt;Node1</title>
<path fill="none" stroke="#9a32cd" stroke-dasharray="5,2" d="M111.762,-178.408C146.441,-159.132 208.343,-123.459 258,-88 266.475,-81.9483 266.903,-78.0678 276,-73 282.715,-69.2596 290.08,-65.9593 297.491,-63.0856"/>
<polygon fill="#9a32cd" stroke="#9a32cd" points="109.794,-175.497 102.735,-183.397 113.18,-181.623 109.794,-175.497"/>
<text text-anchor="middle" x="222" y="-137" font-family="Helvetica,sans-Serif" font-size="10.00"> form</text>
</g>
<!-- Node2&#45;&gt;Node3 -->
<g id="edge3" class="edge"><title>Node2&#45;&gt;Node3</title>
<path fill="none" stroke="#9a32cd" stroke-dasharray="5,2" d="M117.114,-198.283C196.05,-210.011 404.99,-233.395 568,-183 591.872,-175.62 616.845,-161.819 634.24,-151.074"/>
<polygon fill="#9a32cd" stroke="#9a32cd" points="117.271,-194.766 106.857,-196.714 116.213,-201.686 117.271,-194.766"/>
<text text-anchor="middle" x="352" y="-217" font-family="Helvetica,sans-Serif" font-size="10.00"> myStage</text>
</g>
<!-- Node3&#45;&gt;Node1 -->
<g id="edge2" class="edge"><title>Node3&#45;&gt;Node1</title>
<path fill="none" stroke="#9a32cd" stroke-dasharray="5,2" d="M644.085,-111.976C629.357,-87.4099 602.751,-50.6959 568,-35 514.325,-10.7568 445.315,-21.2648 400.156,-32.94"/>
<polygon fill="#9a32cd" stroke="#9a32cd" points="641.107,-113.818 649.14,-120.727 647.169,-110.317 641.107,-113.818"/>
<text text-anchor="middle" x="507" y="-38" font-family="Helvetica,sans-Serif" font-size="10.00"> myKeyboardView</text>
</g>
<!-- Node4 -->
<g id="node4" class="node"><title>Node4</title>
<polygon fill="white" stroke="#bfbfbf" points="284.5,-170.5 284.5,-189.5 419.5,-189.5 419.5,-170.5 284.5,-170.5"/>
<text text-anchor="middle" x="352" y="-177.5" font-family="Helvetica,sans-Serif" font-size="10.00">Map&lt; KeyCode, String &gt;</text>
</g>
<!-- Node4&#45;&gt;Node3 -->
<g id="edge5" class="edge"><title>Node4&#45;&gt;Node3</title>
<path fill="none" stroke="#9a32cd" stroke-dasharray="5,2" d="M429.838,-170.259C470.884,-164.898 522.245,-157.94 568,-151 573.887,-150.107 579.987,-149.149 586.108,-148.164"/>
<polygon fill="#9a32cd" stroke="#9a32cd" points="429.369,-166.79 419.904,-171.551 430.272,-173.732 429.369,-166.79"/>
<text text-anchor="middle" x="507" y="-171" font-family="Helvetica,sans-Serif" font-size="10.00"> myButtonConditionsMap</text>
</g>
<!-- Node5 -->
<g id="node5" class="node"><title>Node5</title>
<g id="a_node5"><a xlink:href="../../d5/d37/classgame_player_1_1view_1_1keyboard_utility_1_1_mapped_keys.html" target="_top" xlink:title="gamePlayer.view.keyboard\lUtility.MappedKeys">
<polygon fill="white" stroke="black" points="280.5,-121 280.5,-151 423.5,-151 423.5,-121 280.5,-121"/>
<text text-anchor="start" x="288.5" y="-139" font-family="Helvetica,sans-Serif" font-size="10.00">gamePlayer.view.keyboard</text>
<text text-anchor="middle" x="352" y="-128" font-family="Helvetica,sans-Serif" font-size="10.00">Utility.MappedKeys</text>
</a>
</g>
</g>
<!-- Node5&#45;&gt;Node3 -->
<g id="edge6" class="edge"><title>Node5&#45;&gt;Node3</title>
<path fill="none" stroke="#9a32cd" stroke-dasharray="5,2" d="M433.758,-136C481.248,-136 540.728,-136 586.349,-136"/>
<polygon fill="#9a32cd" stroke="#9a32cd" points="433.508,-132.5 423.508,-136 433.508,-139.5 433.508,-132.5"/>
<text text-anchor="middle" x="507" y="-139" font-family="Helvetica,sans-Serif" font-size="10.00"> myMappedKeys</text>
</g>
<!-- Node6 -->
<g id="node6" class="node"><title>Node6</title>
<polygon fill="white" stroke="#bfbfbf" points="322.5,-82.5 322.5,-101.5 381.5,-101.5 381.5,-82.5 322.5,-82.5"/>
<text text-anchor="middle" x="352" y="-89.5" font-family="Helvetica,sans-Serif" font-size="10.00">GridPane</text>
</g>
<!-- Node6&#45;&gt;Node3 -->
<g id="edge7" class="edge"><title>Node6&#45;&gt;Node3</title>
<path fill="none" stroke="#9a32cd" stroke-dasharray="5,2" d="M391.609,-96.8191C434.685,-102.286 506.42,-111.66 568,-121 573.887,-121.893 579.987,-122.851 586.108,-123.836"/>
<polygon fill="#9a32cd" stroke="#9a32cd" points="391.921,-93.3306 381.561,-95.5487 391.043,-100.275 391.921,-93.3306"/>
<text text-anchor="middle" x="507" y="-124" font-family="Helvetica,sans-Serif" font-size="10.00"> myGrid</text>
</g>
<!-- Node7 -->
<g id="node7" class="node"><title>Node7</title>
<g id="a_node7"><a xlink:href="../../db/d2a/classauthoring_1_1model_1_1collections_1_1_conditions_collection.html" target="_top" xlink:title="authoring.model.collections.\lConditionsCollection">
<polygon fill="white" stroke="black" points="276,-256 276,-286 428,-286 428,-256 276,-256"/>
<text text-anchor="start" x="284" y="-274" font-family="Helvetica,sans-Serif" font-size="10.00">authoring.model.collections.</text>
<text text-anchor="middle" x="352" y="-263" font-family="Helvetica,sans-Serif" font-size="10.00">ConditionsCollection</text>
</a>
</g>
</g>
<!-- Node7&#45;&gt;Node3 -->
<g id="edge8" class="edge"><title>Node7&#45;&gt;Node3</title>
<path fill="none" stroke="#9a32cd" stroke-dasharray="5,2" d="M438.098,-272.454C479.508,-269.849 528.701,-261.626 568,-240 606.309,-218.918 635.526,-174.415 648.931,-151.049"/>
<polygon fill="#9a32cd" stroke="#9a32cd" points="437.824,-268.963 428.024,-272.988 438.195,-275.954 437.824,-268.963"/>
<text text-anchor="middle" x="507" y="-274" font-family="Helvetica,sans-Serif" font-size="10.00"> myButtonConditions</text>
</g>
<!-- Node8 -->
<g id="node8" class="node"><title>Node8</title>
<g id="a_node8"><a xlink:href="../../d4/d3b/classauthoring_1_1model_1_1collections_1_1_general_collection.html" target="_top" xlink:title="authoring.model.collections.\lGeneralCollection\&lt; Condition \&gt;">
<polygon fill="white" stroke="black" points="0,-256 0,-286 168,-286 168,-256 0,-256"/>
<text text-anchor="start" x="8" y="-274" font-family="Helvetica,sans-Serif" font-size="10.00">authoring.model.collections.</text>
<text text-anchor="middle" x="84" y="-263" font-family="Helvetica,sans-Serif" font-size="10.00">GeneralCollection&lt; Condition &gt;</text>
</a>
</g>
</g>
<!-- Node8&#45;&gt;Node7 -->
<g id="edge9" class="edge"><title>Node8&#45;&gt;Node7</title>
<path fill="none" stroke="midnightblue" d="M178.302,-271C210.212,-271 245.479,-271 275.779,-271"/>
<polygon fill="midnightblue" stroke="midnightblue" points="178.07,-267.5 168.07,-271 178.07,-274.5 178.07,-267.5"/>
</g>
<!-- Node9 -->
<g id="node9" class="node"><title>Node9</title>
<polygon fill="white" stroke="#bfbfbf" points="24,-0.5 24,-19.5 144,-19.5 144,-0.5 24,-0.5"/>
<text text-anchor="middle" x="84" y="-7.5" font-family="Helvetica,sans-Serif" font-size="10.00">ComboBox&lt; String &gt;</text>
</g>
<!-- Node9&#45;&gt;Node1 -->
<g id="edge10" class="edge"><title>Node9&#45;&gt;Node1</title>
<path fill="none" stroke="#9a32cd" stroke-dasharray="5,2" d="M154.346,-18.7726C185.986,-22.89 223.918,-27.9869 258,-33 265.281,-34.071 272.876,-35.2289 280.45,-36.4102"/>
<polygon fill="#9a32cd" stroke="#9a32cd" points="154.674,-15.2859 144.307,-17.4715 153.774,-22.2279 154.674,-15.2859"/>
<text text-anchor="middle" x="222" y="-36" font-family="Helvetica,sans-Serif" font-size="10.00"> myComboBox</text>
</g>
<!-- Node10 -->
<g id="node10" class="node"><title>Node10</title>
<polygon fill="white" stroke="#bfbfbf" points="3.5,-76.5 3.5,-95.5 164.5,-95.5 164.5,-76.5 3.5,-76.5"/>
<text text-anchor="middle" x="84" y="-83.5" font-family="Helvetica,sans-Serif" font-size="10.00">EventHandler&lt; ActionEvent &gt;</text>
</g>
<!-- Node10&#45;&gt;Node1 -->
<g id="edge11" class="edge"><title>Node10&#45;&gt;Node1</title>
<path fill="none" stroke="#9a32cd" stroke-dasharray="5,2" d="M170.158,-75.1561C198.162,-71.4626 229.433,-67.2019 258,-63 265.281,-61.929 272.876,-60.7711 280.45,-59.5898"/>
<polygon fill="#9a32cd" stroke="#9a32cd" points="169.458,-71.7178 159.999,-76.49 170.37,-78.6582 169.458,-71.7178"/>
<text text-anchor="middle" x="222" y="-76" font-family="Helvetica,sans-Serif" font-size="10.00"> mapKey</text>
</g>
<!-- Node11 -->
<g id="node11" class="node"><title>Node11</title>
<polygon fill="white" stroke="#bfbfbf" points="61,-38.5 61,-57.5 107,-57.5 107,-38.5 61,-38.5"/>
<text text-anchor="middle" x="84" y="-45.5" font-family="Helvetica,sans-Serif" font-size="10.00">Group</text>
</g>
<!-- Node11&#45;&gt;Node1 -->
<g id="edge12" class="edge"><title>Node11&#45;&gt;Node1</title>
<path fill="none" stroke="#9a32cd" stroke-dasharray="5,2" d="M117.264,-48C157.503,-48 227.439,-48 280.355,-48"/>
<polygon fill="#9a32cd" stroke="#9a32cd" points="117.222,-44.5001 107.221,-48 117.221,-51.5001 117.222,-44.5001"/>
<text text-anchor="middle" x="222" y="-51" font-family="Helvetica,sans-Serif" font-size="10.00"> root</text>
</g>
</g>
</svg>
        <g id="navigator" transform="translate(0 0)" fill="#404254">
                <rect fill="#f2f5e9" fill-opacity="0.5" stroke="#606060" stroke-width=".5" x="0" y="0" width="60" height="60"/>
                <use id="zoomplus" xlink:href="#zoomPlus" x="17" y="9" onmousedown="handleZoom(evt,'in')"/>
                <use id="zoomminus" xlink:href="#zoomMin" x="42" y="9" onmousedown="handleZoom(evt,'out')"/>
                <use id="reset" xlink:href="#resetDef" x="30" y="36" onmousedown="handleReset()"/>
                <g id="arrowUp" xlink:href="#dirArrow" transform="translate(30 24)" onmousedown="handlePan(0,-1)">
                  <use xlink:href="#rim" fill="#404040">
                        <set attributeName="fill" to="#808080" begin="arrowUp.mouseover" end="arrowUp.mouseout"/>
                  </use>
                  <path fill="none" stroke="white" stroke-width="1.5" d="M0,-3.0v7 M-2.5,-0.5L0,-3.0L2.5,-0.5"/>
                </g>
                <g id="arrowRight" xlink:href="#dirArrow" transform="rotate(90) translate(36 -43)" onmousedown="handlePan(1,0)">
                  <use xlink:href="#rim" fill="#404040">
                        <set attributeName="fill" to="#808080" begin="arrowRight.mouseover" end="arrowRight.mouseout"/>
                  </use>
                  <path fill="none" stroke="white" stroke-width="1.5" d="M0,-3.0v7 M-2.5,-0.5L0,-3.0L2.5,-0.5"/>
                </g>
                <g id="arrowDown" xlink:href="#dirArrow" transform="rotate(180) translate(-30 -48)" onmousedown="handlePan(0,1)">
                  <use xlink:href="#rim" fill="#404040">
                        <set attributeName="fill" to="#808080" begin="arrowDown.mouseover" end="arrowDown.mouseout"/>
                  </use>
                  <path fill="none" stroke="white" stroke-width="1.5" d="M0,-3.0v7 M-2.5,-0.5L0,-3.0L2.5,-0.5"/>
                </g>
                <g id="arrowLeft" xlink:href="#dirArrow" transform="rotate(270) translate(-36 17)" onmousedown="handlePan(-1,0)">
                  <use xlink:href="#rim" fill="#404040">
                        <set attributeName="fill" to="#808080" begin="arrowLeft.mouseover" end="arrowLeft.mouseout"/>
                  </use>
                  <path fill="none" stroke="white" stroke-width="1.5" d="M0,-3.0v7 M-2.5,-0.5L0,-3.0L2.5,-0.5"/>
                </g>
        </g>
        <svg viewBox="0 0 15 15" width="100%" height="30px" preserveAspectRatio="xMaxYMin meet">
         <g id="arrow_out" transform="scale(0.3 0.3)">
          <a xlink:href="classgame_player_1_1view_1_1keyboard_utility_1_1_key_map_form__coll__graph_org.svg" target="_base">
           <rect id="button" ry="5" rx="5" y="6" x="6" height="38" width="38"
                fill="#f2f5e9" fill-opacity="0.5" stroke="#606060" stroke-width="1.0"/>
           <path id="arrow"
             d="M 11.500037,31.436501 C 11.940474,20.09759 22.043105,11.32322 32.158766,21.979434 L 37.068811,17.246167 C 37.068811,17.246167 37.088388,32 37.088388,32 L 22.160133,31.978069 C 22.160133,31.978069 26.997745,27.140456 26.997745,27.140456 C 18.528582,18.264221 13.291696,25.230495 11.500037,31.436501 z"
             style="fill:#404040;"/>
          </a>
         </g>
        </svg>
</svg>
