<?xml version="1.0" encoding="UTF-8" standalone="no"?>
<!DOCTYPE svg PUBLIC "-//W3C//DTD SVG 1.1//EN"
 "http://www.w3.org/Graphics/SVG/1.1/DTD/svg11.dtd">
<!-- Generated by graphviz version 2.36.0 (20140111.2315)
 -->
<!-- Title: engine.conditions.TypeCollisionCondition.executeActions Pages: 1 -->
<svg width="560pt" height="38pt"
 viewBox="0.00 0.00 560.00 38.00" xmlns="http://www.w3.org/2000/svg" xmlns:xlink="http://www.w3.org/1999/xlink">
<g id="graph0" class="graph" transform="scale(1 1) rotate(0) translate(4 34)">
<title>engine.conditions.TypeCollisionCondition.executeActions</title>
<polygon fill="white" stroke="none" points="-4,4 -4,-34 556,-34 556,4 -4,4"/>
<!-- Node1 -->
<g id="node1" class="node"><title>Node1</title>
<polygon fill="#bfbfbf" stroke="black" points="0,-0 0,-30 164,-30 164,-0 0,-0"/>
<text text-anchor="start" x="8" y="-18" font-family="Helvetica,sans-Serif" font-size="10.00">engine.conditions.TypeCollision</text>
<text text-anchor="middle" x="82" y="-7" font-family="Helvetica,sans-Serif" font-size="10.00">Condition.executeActions</text>
</g>
<!-- Node2 -->
<g id="node2" class="node"><title>Node2</title>
<g id="a_node2"><a xlink:href="../../d0/d7d/classengine_1_1conditions_1_1_type_collision_condition.html#ae8aafd78eaa20c1fb0d9f308841af352" target="_top" xlink:title="engine.conditions.TypeCollision\lCondition.checkCollisions">
<polygon fill="white" stroke="black" points="200,-0 200,-30 364,-30 364,-0 200,-0"/>
<text text-anchor="start" x="208" y="-18" font-family="Helvetica,sans-Serif" font-size="10.00">engine.conditions.TypeCollision</text>
<text text-anchor="middle" x="282" y="-7" font-family="Helvetica,sans-Serif" font-size="10.00">Condition.checkCollisions</text>
</a>
</g>
</g>
<!-- Node1&#45;&gt;Node2 -->
<g id="edge1" class="edge"><title>Node1&#45;&gt;Node2</title>
<path fill="none" stroke="midnightblue" d="M164.105,-15C172.457,-15 180.985,-15 189.44,-15"/>
<polygon fill="midnightblue" stroke="midnightblue" points="189.7,-18.5001 199.7,-15 189.7,-11.5001 189.7,-18.5001"/>
</g>
<!-- Node3 -->
<g id="node3" class="node"><title>Node3</title>
<g id="a_node3"><a xlink:href="../../d4/d3b/classauthoring_1_1model_1_1collections_1_1_general_collection.html#a12a4d574bb60168d02aef3fa56d4ab5b" target="_top" xlink:title="authoring.model.collections.\lGeneralCollection.addAll">
<polygon fill="white" stroke="black" points="400,-0 400,-30 552,-30 552,-0 400,-0"/>
<text text-anchor="start" x="408" y="-18" font-family="Helvetica,sans-Serif" font-size="10.00">authoring.model.collections.</text>
<text text-anchor="middle" x="476" y="-7" font-family="Helvetica,sans-Serif" font-size="10.00">GeneralCollection.addAll</text>
</a>
</g>
</g>
<!-- Node2&#45;&gt;Node3 -->
<g id="edge2" class="edge"><title>Node2&#45;&gt;Node3</title>
<path fill="none" stroke="midnightblue" d="M364.147,-15C372.587,-15 381.185,-15 389.669,-15"/>
<polygon fill="midnightblue" stroke="midnightblue" points="389.945,-18.5001 399.945,-15 389.945,-11.5001 389.945,-18.5001"/>
</g>
</g>
</svg>
