<?xml version="1.0" encoding="UTF-8" standalone="no"?>
<!DOCTYPE svg PUBLIC "-//W3C//DTD SVG 1.1//EN"
 "http://www.w3.org/Graphics/SVG/1.1/DTD/svg11.dtd">
<!-- Generated by graphviz version 2.36.0 (20140111.2315)
 -->
<!-- Title: authoring.model.collections.GeneralCollection.get Pages: 1 -->
<svg width="608pt" height="87pt"
 viewBox="0.00 0.00 608.00 87.00" xmlns="http://www.w3.org/2000/svg" xmlns:xlink="http://www.w3.org/1999/xlink">
<g id="graph0" class="graph" transform="scale(1 1) rotate(0) translate(4 83)">
<title>authoring.model.collections.GeneralCollection.get</title>
<polygon fill="white" stroke="none" points="-4,4 -4,-83 604,-83 604,4 -4,4"/>
<!-- Node1 -->
<g id="node1" class="node"><title>Node1</title>
<polygon fill="#bfbfbf" stroke="black" points="0,-24 0,-54 152,-54 152,-24 0,-24"/>
<text text-anchor="start" x="8" y="-42" font-family="Helvetica,sans-Serif" font-size="10.00">authoring.model.collections.</text>
<text text-anchor="middle" x="76" y="-31" font-family="Helvetica,sans-Serif" font-size="10.00">GeneralCollection.get</text>
</g>
<!-- Node2 -->
<g id="node2" class="node"><title>Node2</title>
<g id="a_node2"><a xlink:href="../../d7/d00/classengine_1_1tests_1_1_main_engine_tests.html#ad06079aee97fd7ffd4f2b14a8f01b808" target="_top" xlink:title="engine.tests.MainEngineTests.create\lGameObject">
<polygon fill="white" stroke="black" points="188.5,-49 188.5,-79 379.5,-79 379.5,-49 188.5,-49"/>
<text text-anchor="start" x="196.5" y="-67" font-family="Helvetica,sans-Serif" font-size="10.00">engine.tests.MainEngineTests.create</text>
<text text-anchor="middle" x="284" y="-56" font-family="Helvetica,sans-Serif" font-size="10.00">GameObject</text>
</a>
</g>
</g>
<!-- Node1&#45;&gt;Node2 -->
<g id="edge1" class="edge"><title>Node1&#45;&gt;Node2</title>
<path fill="none" stroke="midnightblue" d="M162.245,-49.3452C170.842,-50.3886 179.61,-51.4527 188.299,-52.5071"/>
<polygon fill="midnightblue" stroke="midnightblue" points="162.594,-45.862 152.245,-48.1317 161.751,-52.811 162.594,-45.862"/>
</g>
<!-- Node4 -->
<g id="node4" class="node"><title>Node4</title>
<g id="a_node4"><a xlink:href="../../dc/d21/classgames_1_1_mario_game_test.html#aab9eed35cd4d8ae1d108ae914b6a73ff" target="_top" xlink:title="games.MarioGameTest.create\lGameObject">
<polygon fill="white" stroke="black" points="203.5,-0 203.5,-30 364.5,-30 364.5,-0 203.5,-0"/>
<text text-anchor="start" x="211.5" y="-18" font-family="Helvetica,sans-Serif" font-size="10.00">games.MarioGameTest.create</text>
<text text-anchor="middle" x="284" y="-7" font-family="Helvetica,sans-Serif" font-size="10.00">GameObject</text>
</a>
</g>
</g>
<!-- Node1&#45;&gt;Node4 -->
<g id="edge3" class="edge"><title>Node1&#45;&gt;Node4</title>
<path fill="none" stroke="midnightblue" d="M162.514,-29.0372C176.07,-27.4578 190.043,-25.83 203.455,-24.2674"/>
<polygon fill="midnightblue" stroke="midnightblue" points="161.773,-25.5998 152.245,-30.2336 162.583,-32.5528 161.773,-25.5998"/>
</g>
<!-- Node3 -->
<g id="node3" class="node"><title>Node3</title>
<g id="a_node3"><a xlink:href="../../d7/d00/classengine_1_1tests_1_1_main_engine_tests.html#ad1e78dcd3453ebdeb09141cba734c133" target="_top" xlink:title="engine.tests.MainEngineTests.start">
<polygon fill="white" stroke="black" points="416.5,-54.5 416.5,-73.5 599.5,-73.5 599.5,-54.5 416.5,-54.5"/>
<text text-anchor="middle" x="508" y="-61.5" font-family="Helvetica,sans-Serif" font-size="10.00">engine.tests.MainEngineTests.start</text>
</a>
</g>
</g>
<!-- Node2&#45;&gt;Node3 -->
<g id="edge2" class="edge"><title>Node2&#45;&gt;Node3</title>
<path fill="none" stroke="midnightblue" d="M389.796,-64C398.688,-64 407.633,-64 416.403,-64"/>
<polygon fill="midnightblue" stroke="midnightblue" points="389.792,-60.5001 379.792,-64 389.792,-67.5001 389.792,-60.5001"/>
</g>
<!-- Node5 -->
<g id="node5" class="node"><title>Node5</title>
<g id="a_node5"><a xlink:href="../../dc/d21/classgames_1_1_mario_game_test.html#a8b7c287ffdfcacefeb373e7430a608c8" target="_top" xlink:title="games.MarioGameTest.start">
<polygon fill="white" stroke="black" points="432,-5.5 432,-24.5 584,-24.5 584,-5.5 432,-5.5"/>
<text text-anchor="middle" x="508" y="-12.5" font-family="Helvetica,sans-Serif" font-size="10.00">games.MarioGameTest.start</text>
</a>
</g>
</g>
<!-- Node4&#45;&gt;Node5 -->
<g id="edge4" class="edge"><title>Node4&#45;&gt;Node5</title>
<path fill="none" stroke="midnightblue" d="M374.638,-8.36235C393.585,-8.16081 413.394,-8.23042 431.744,-8.5712"/>
<polygon fill="midnightblue" stroke="midnightblue" points="374.472,-4.86415 364.52,-8.4973 374.566,-11.8635 374.472,-4.86415"/>
</g>
<!-- Node5&#45;&gt;Node4 -->
<g id="edge5" class="edge"><title>Node5&#45;&gt;Node4</title>
<path fill="none" stroke="midnightblue" d="M421.722,-21.5863C402.923,-21.8296 383.081,-21.8017 364.52,-21.5027"/>
<polygon fill="midnightblue" stroke="midnightblue" points="421.8,-25.0856 431.744,-21.4288 421.69,-18.0864 421.8,-25.0856"/>
</g>
</g>
</svg>
