<?xml version="1.0" encoding="UTF-8" standalone="no"?>
<!DOCTYPE svg PUBLIC "-//W3C//DTD SVG 1.1//EN"
 "http://www.w3.org/Graphics/SVG/1.1/DTD/svg11.dtd">
<!-- Generated by graphviz version 2.36.0 (20140111.2315)
 -->
<!-- Title: authoring.model.collections.GeneralCollection.get Pages: 1 -->
<svg width="608pt" height="136pt"
 viewBox="0.00 0.00 608.00 136.00" xmlns="http://www.w3.org/2000/svg" xmlns:xlink="http://www.w3.org/1999/xlink">
<g id="graph0" class="graph" transform="scale(1 1) rotate(0) translate(4 132)">
<title>authoring.model.collections.GeneralCollection.get</title>
<polygon fill="white" stroke="none" points="-4,4 -4,-132 604,-132 604,4 -4,4"/>
<!-- Node1 -->
<g id="node1" class="node"><title>Node1</title>
<polygon fill="#bfbfbf" stroke="black" points="0,-49 0,-79 152,-79 152,-49 0,-49"/>
<text text-anchor="start" x="8" y="-67" font-family="Helvetica,sans-Serif" font-size="10.00">authoring.model.collections.</text>
<text text-anchor="middle" x="76" y="-56" font-family="Helvetica,sans-Serif" font-size="10.00">GeneralCollection.get</text>
</g>
<!-- Node2 -->
<g id="node2" class="node"><title>Node2</title>
<g id="a_node2"><a xlink:href="../../d7/d00/classengine_1_1tests_1_1_main_engine_tests.html#ad06079aee97fd7ffd4f2b14a8f01b808" target="_top" xlink:title="engine.tests.MainEngineTests.create\lGameObject">
<polygon fill="white" stroke="black" points="188.5,-98 188.5,-128 379.5,-128 379.5,-98 188.5,-98"/>
<text text-anchor="start" x="196.5" y="-116" font-family="Helvetica,sans-Serif" font-size="10.00">engine.tests.MainEngineTests.create</text>
<text text-anchor="middle" x="284" y="-105" font-family="Helvetica,sans-Serif" font-size="10.00">GameObject</text>
</a>
</g>
</g>
<!-- Node1&#45;&gt;Node2 -->
<g id="edge1" class="edge"><title>Node1&#45;&gt;Node2</title>
<path fill="none" stroke="midnightblue" d="M150.167,-81.4038C172.955,-86.8243 197.876,-92.752 219.913,-97.9938"/>
<polygon fill="midnightblue" stroke="midnightblue" points="150.745,-77.9438 140.207,-79.0346 149.125,-84.7538 150.745,-77.9438"/>
</g>
<!-- Node4 -->
<g id="node4" class="node"><title>Node4</title>
<g id="a_node4"><a xlink:href="../../dc/d21/classgames_1_1_mario_game_test.html#aab9eed35cd4d8ae1d108ae914b6a73ff" target="_top" xlink:title="games.MarioGameTest.create\lGameObject">
<polygon fill="white" stroke="black" points="203.5,-49 203.5,-79 364.5,-79 364.5,-49 203.5,-49"/>
<text text-anchor="start" x="211.5" y="-67" font-family="Helvetica,sans-Serif" font-size="10.00">games.MarioGameTest.create</text>
<text text-anchor="middle" x="284" y="-56" font-family="Helvetica,sans-Serif" font-size="10.00">GameObject</text>
</a>
</g>
</g>
<!-- Node1&#45;&gt;Node4 -->
<g id="edge3" class="edge"><title>Node1&#45;&gt;Node4</title>
<path fill="none" stroke="midnightblue" d="M162.514,-64C176.07,-64 190.043,-64 203.455,-64"/>
<polygon fill="midnightblue" stroke="midnightblue" points="162.245,-60.5001 152.245,-64 162.245,-67.5001 162.245,-60.5001"/>
</g>
<!-- Node6 -->
<g id="node6" class="node"><title>Node6</title>
<g id="a_node6"><a xlink:href="../../df/d28/classengine_1_1actions_1_1_make_new_object_from_list.html#a34b1e6cf53f30a0f31b57dc973fdeaf4" target="_top" xlink:title="engine.actions.MakeNewObject\lFromList.execute">
<polygon fill="white" stroke="black" points="201,-0 201,-30 367,-30 367,-0 201,-0"/>
<text text-anchor="start" x="209" y="-18" font-family="Helvetica,sans-Serif" font-size="10.00">engine.actions.MakeNewObject</text>
<text text-anchor="middle" x="284" y="-7" font-family="Helvetica,sans-Serif" font-size="10.00">FromList.execute</text>
</a>
</g>
</g>
<!-- Node1&#45;&gt;Node6 -->
<g id="edge5" class="edge"><title>Node1&#45;&gt;Node6</title>
<path fill="none" stroke="midnightblue" d="M150.167,-46.5962C172.955,-41.1757 197.876,-35.248 219.913,-30.0062"/>
<polygon fill="midnightblue" stroke="midnightblue" points="149.125,-43.2462 140.207,-48.9654 150.745,-50.0562 149.125,-43.2462"/>
</g>
<!-- Node3 -->
<g id="node3" class="node"><title>Node3</title>
<g id="a_node3"><a xlink:href="../../d7/d00/classengine_1_1tests_1_1_main_engine_tests.html#ad1e78dcd3453ebdeb09141cba734c133" target="_top" xlink:title="engine.tests.MainEngineTests.start">
<polygon fill="white" stroke="black" points="416.5,-103.5 416.5,-122.5 599.5,-122.5 599.5,-103.5 416.5,-103.5"/>
<text text-anchor="middle" x="508" y="-110.5" font-family="Helvetica,sans-Serif" font-size="10.00">engine.tests.MainEngineTests.start</text>
</a>
</g>
</g>
<!-- Node2&#45;&gt;Node3 -->
<g id="edge2" class="edge"><title>Node2&#45;&gt;Node3</title>
<path fill="none" stroke="midnightblue" d="M389.796,-113C398.688,-113 407.633,-113 416.403,-113"/>
<polygon fill="midnightblue" stroke="midnightblue" points="389.792,-109.5 379.792,-113 389.792,-116.5 389.792,-109.5"/>
</g>
<!-- Node5 -->
<g id="node5" class="node"><title>Node5</title>
<g id="a_node5"><a xlink:href="../../dc/d21/classgames_1_1_mario_game_test.html#a8b7c287ffdfcacefeb373e7430a608c8" target="_top" xlink:title="games.MarioGameTest.start">
<polygon fill="white" stroke="black" points="432,-54.5 432,-73.5 584,-73.5 584,-54.5 432,-54.5"/>
<text text-anchor="middle" x="508" y="-61.5" font-family="Helvetica,sans-Serif" font-size="10.00">games.MarioGameTest.start</text>
</a>
</g>
</g>
<!-- Node4&#45;&gt;Node5 -->
<g id="edge4" class="edge"><title>Node4&#45;&gt;Node5</title>
<path fill="none" stroke="midnightblue" d="M374.638,-64C393.585,-64 413.394,-64 431.744,-64"/>
<polygon fill="midnightblue" stroke="midnightblue" points="374.52,-60.5001 364.52,-64 374.52,-67.5001 374.52,-60.5001"/>
</g>
</g>
</svg>
