<?xml version="1.0" encoding="UTF-8" standalone="no"?>
<!DOCTYPE svg PUBLIC "-//W3C//DTD SVG 1.1//EN"
 "http://www.w3.org/Graphics/SVG/1.1/DTD/svg11.dtd">
<!-- Generated by graphviz version 2.36.0 (20140111.2315)
 -->
<!-- Title: gamePlayer.view.ProgressSelector.buildSaveWindow Pages: 1 -->
<svg width="762pt" height="185pt"
 viewBox="0.00 0.00 762.00 185.00" xmlns="http://www.w3.org/2000/svg" xmlns:xlink="http://www.w3.org/1999/xlink">
<g id="graph0" class="graph" transform="scale(1 1) rotate(0) translate(4 181)">
<title>gamePlayer.view.ProgressSelector.buildSaveWindow</title>
<polygon fill="white" stroke="none" points="-4,4 -4,-181 758,-181 758,4 -4,4"/>
<!-- Node1 -->
<g id="node1" class="node"><title>Node1</title>
<polygon fill="#bfbfbf" stroke="black" points="0,-73 0,-103 140,-103 140,-73 0,-73"/>
<text text-anchor="start" x="8" y="-91" font-family="Helvetica,sans-Serif" font-size="10.00">gamePlayer.view.Progress</text>
<text text-anchor="middle" x="70" y="-80" font-family="Helvetica,sans-Serif" font-size="10.00">Selector.buildSaveWindow</text>
</g>
<!-- Node2 -->
<g id="node2" class="node"><title>Node2</title>
<g id="a_node2"><a xlink:href="../../d9/dbd/classgame_player_1_1view_1_1_progress_selector.html#ae8bb8d76db91e1663a7244f10f438db6" target="_top" xlink:title="gamePlayer.view.Progress\lSelector.createButton">
<polygon fill="white" stroke="black" points="192,-147 192,-177 332,-177 332,-147 192,-147"/>
<text text-anchor="start" x="200" y="-165" font-family="Helvetica,sans-Serif" font-size="10.00">gamePlayer.view.Progress</text>
<text text-anchor="middle" x="262" y="-154" font-family="Helvetica,sans-Serif" font-size="10.00">Selector.createButton</text>
</a>
</g>
</g>
<!-- Node1&#45;&gt;Node2 -->
<g id="edge1" class="edge"><title>Node1&#45;&gt;Node2</title>
<path fill="none" stroke="midnightblue" d="M100.359,-103.155C121.136,-113.518 149.844,-127.115 176,-137 182.284,-139.375 188.897,-141.667 195.545,-143.836"/>
<polygon fill="midnightblue" stroke="midnightblue" points="194.685,-147.234 205.275,-146.919 196.8,-140.562 194.685,-147.234"/>
</g>
<!-- Node3 -->
<g id="node3" class="node"><title>Node3</title>
<g id="a_node3"><a xlink:href="../../d9/dbd/classgame_player_1_1view_1_1_progress_selector.html#a6a664023c1828d7dc03d05507c2049ed" target="_top" xlink:title="gamePlayer.view.Progress\lSelector.overwriteProgressEvent">
<polygon fill="white" stroke="black" points="176.5,-98 176.5,-128 347.5,-128 347.5,-98 176.5,-98"/>
<text text-anchor="start" x="184.5" y="-116" font-family="Helvetica,sans-Serif" font-size="10.00">gamePlayer.view.Progress</text>
<text text-anchor="middle" x="262" y="-105" font-family="Helvetica,sans-Serif" font-size="10.00">Selector.overwriteProgressEvent</text>
</a>
</g>
</g>
<!-- Node1&#45;&gt;Node3 -->
<g id="edge2" class="edge"><title>Node1&#45;&gt;Node3</title>
<path fill="none" stroke="midnightblue" d="M140.132,-97.0963C148.689,-98.2222 157.549,-99.3881 166.405,-100.553"/>
<polygon fill="midnightblue" stroke="midnightblue" points="166.014,-104.032 176.385,-101.866 166.927,-97.0917 166.014,-104.032"/>
</g>
<!-- Node6 -->
<g id="node6" class="node"><title>Node6</title>
<g id="a_node6"><a xlink:href="../../d9/dbd/classgame_player_1_1view_1_1_progress_selector.html#ad6c70f114f81a6e1739a019d500fab9f" target="_top" xlink:title="gamePlayer.view.Progress\lSelector.saveProgressEvent">
<polygon fill="white" stroke="black" points="187,-49 187,-79 337,-79 337,-49 187,-49"/>
<text text-anchor="start" x="195" y="-67" font-family="Helvetica,sans-Serif" font-size="10.00">gamePlayer.view.Progress</text>
<text text-anchor="middle" x="262" y="-56" font-family="Helvetica,sans-Serif" font-size="10.00">Selector.saveProgressEvent</text>
</a>
</g>
</g>
<!-- Node1&#45;&gt;Node6 -->
<g id="edge5" class="edge"><title>Node1&#45;&gt;Node6</title>
<path fill="none" stroke="midnightblue" d="M140.132,-79.2676C151.986,-77.7702 164.421,-76.1994 176.62,-74.6585"/>
<polygon fill="midnightblue" stroke="midnightblue" points="177.311,-78.0991 186.794,-73.3734 176.434,-71.1543 177.311,-78.0991"/>
</g>
<!-- Node7 -->
<g id="node7" class="node"><title>Node7</title>
<g id="a_node7"><a xlink:href="../../d9/dbd/classgame_player_1_1view_1_1_progress_selector.html#abdecb9a69426fb294cecf3d8a34a0ec0" target="_top" xlink:title="gamePlayer.view.Progress\lSelector.setupWindow">
<polygon fill="white" stroke="black" points="192,-0 192,-30 332,-30 332,-0 192,-0"/>
<text text-anchor="start" x="200" y="-18" font-family="Helvetica,sans-Serif" font-size="10.00">gamePlayer.view.Progress</text>
<text text-anchor="middle" x="262" y="-7" font-family="Helvetica,sans-Serif" font-size="10.00">Selector.setupWindow</text>
</a>
</g>
</g>
<!-- Node1&#45;&gt;Node7 -->
<g id="edge7" class="edge"><title>Node1&#45;&gt;Node7</title>
<path fill="none" stroke="midnightblue" d="M100.844,-72.9748C121.6,-62.8692 150.088,-49.677 176,-40 182.39,-37.6137 189.116,-35.3039 195.871,-33.1159"/>
<polygon fill="midnightblue" stroke="midnightblue" points="197.267,-36.346 205.752,-30.0024 195.163,-29.6695 197.267,-36.346"/>
</g>
<!-- Node4 -->
<g id="node4" class="node"><title>Node4</title>
<g id="a_node4"><a xlink:href="../../d1/d95/classdata_1_1_data_manager.html#a635a83b3bf3ae9c504c420c3794c47cc" target="_top" xlink:title="data.DataManager.writeProgressFile">
<polygon fill="white" stroke="black" points="384,-78.5 384,-97.5 572,-97.5 572,-78.5 384,-78.5"/>
<text text-anchor="middle" x="478" y="-85.5" font-family="Helvetica,sans-Serif" font-size="10.00">data.DataManager.writeProgressFile</text>
</a>
</g>
</g>
<!-- Node3&#45;&gt;Node4 -->
<g id="edge3" class="edge"><title>Node3&#45;&gt;Node4</title>
<path fill="none" stroke="midnightblue" d="M347.578,-103.119C360.024,-101.665 372.892,-100.162 385.47,-98.6928"/>
<polygon fill="midnightblue" stroke="midnightblue" points="385.954,-102.16 395.481,-97.5233 385.142,-95.2074 385.954,-102.16"/>
</g>
<!-- Node5 -->
<g id="node5" class="node"><title>Node5</title>
<g id="a_node5"><a xlink:href="../../d1/d95/classdata_1_1_data_manager.html#a1d751c9995395d782f423aed87a6e51e" target="_top" xlink:title="data.DataManager.writeFile">
<polygon fill="white" stroke="black" points="608,-78.5 608,-97.5 754,-97.5 754,-78.5 608,-78.5"/>
<text text-anchor="middle" x="681" y="-85.5" font-family="Helvetica,sans-Serif" font-size="10.00">data.DataManager.writeFile</text>
</a>
</g>
</g>
<!-- Node4&#45;&gt;Node5 -->
<g id="edge4" class="edge"><title>Node4&#45;&gt;Node5</title>
<path fill="none" stroke="midnightblue" d="M572.145,-88C580.687,-88 589.3,-88 597.736,-88"/>
<polygon fill="midnightblue" stroke="midnightblue" points="597.921,-91.5001 607.921,-88 597.921,-84.5001 597.921,-91.5001"/>
</g>
<!-- Node6&#45;&gt;Node4 -->
<g id="edge6" class="edge"><title>Node6&#45;&gt;Node4</title>
<path fill="none" stroke="midnightblue" d="M337.246,-72.3267C351.665,-73.9437 366.961,-75.6592 381.942,-77.3392"/>
<polygon fill="midnightblue" stroke="midnightblue" points="381.92,-80.8586 392.247,-78.495 382.7,-73.9023 381.92,-80.8586"/>
</g>
</g>
</svg>
