<?xml version="1.0" encoding="UTF-8" standalone="no"?>
<!DOCTYPE svg PUBLIC "-//W3C//DTD SVG 1.1//EN"
 "http://www.w3.org/Graphics/SVG/1.1/DTD/svg11.dtd">
<!-- Generated by graphviz version 2.36.0 (20140111.2315)
 -->
<!-- Title: gamePlayer.view.ProgressSelector.loadProgressState Pages: 1 -->
<svg width="528pt" height="111pt"
 viewBox="0.00 0.00 528.00 111.00" xmlns="http://www.w3.org/2000/svg" xmlns:xlink="http://www.w3.org/1999/xlink">
<g id="graph0" class="graph" transform="scale(1 1) rotate(0) translate(4 107)">
<title>gamePlayer.view.ProgressSelector.loadProgressState</title>
<polygon fill="white" stroke="none" points="-4,4 -4,-107 524,-107 524,4 -4,4"/>
<!-- Node1 -->
<g id="node1" class="node"><title>Node1</title>
<polygon fill="#bfbfbf" stroke="black" points="0.5,-24 0.5,-54 147.5,-54 147.5,-24 0.5,-24"/>
<text text-anchor="start" x="8.5" y="-42" font-family="Helvetica,sans-Serif" font-size="10.00">gamePlayer.view.Progress</text>
<text text-anchor="middle" x="74" y="-31" font-family="Helvetica,sans-Serif" font-size="10.00">Selector.loadProgressState</text>
</g>
<!-- Node2 -->
<g id="node2" class="node"><title>Node2</title>
<g id="a_node2"><a xlink:href="../../d9/dbd/classgame_player_1_1view_1_1_progress_selector.html#aab6a2ce8eba029cc2b0712983e6b3ea5" target="_top" xlink:title="gamePlayer.view.Progress\lSelector.buildLoadWindow">
<polygon fill="white" stroke="black" points="190,-49 190,-79 330,-79 330,-49 190,-49"/>
<text text-anchor="start" x="198" y="-67" font-family="Helvetica,sans-Serif" font-size="10.00">gamePlayer.view.Progress</text>
<text text-anchor="middle" x="260" y="-56" font-family="Helvetica,sans-Serif" font-size="10.00">Selector.buildLoadWindow</text>
</a>
</g>
</g>
<!-- Node1&#45;&gt;Node2 -->
<g id="edge1" class="edge"><title>Node1&#45;&gt;Node2</title>
<path fill="none" stroke="midnightblue" d="M147.722,-48.8807C158.227,-50.308 169.083,-51.783 179.708,-53.2267"/>
<polygon fill="midnightblue" stroke="midnightblue" points="179.426,-56.7204 189.806,-54.5987 180.368,-49.7841 179.426,-56.7204"/>
</g>
<!-- Node5 -->
<g id="node5" class="node"><title>Node5</title>
<g id="a_node5"><a xlink:href="../../d9/dbd/classgame_player_1_1view_1_1_progress_selector.html#ad47ec1215944a14051a1106be29d45df" target="_top" xlink:title="gamePlayer.view.Progress\lSelector.updateProgressList">
<polygon fill="white" stroke="black" points="184.5,-0 184.5,-30 335.5,-30 335.5,-0 184.5,-0"/>
<text text-anchor="start" x="192.5" y="-18" font-family="Helvetica,sans-Serif" font-size="10.00">gamePlayer.view.Progress</text>
<text text-anchor="middle" x="260" y="-7" font-family="Helvetica,sans-Serif" font-size="10.00">Selector.updateProgressList</text>
</a>
</g>
</g>
<!-- Node1&#45;&gt;Node5 -->
<g id="edge4" class="edge"><title>Node1&#45;&gt;Node5</title>
<path fill="none" stroke="midnightblue" d="M147.722,-29.5146C156.48,-28.3722 165.482,-27.198 174.391,-26.0359"/>
<polygon fill="midnightblue" stroke="midnightblue" points="174.929,-29.4955 184.392,-24.7314 174.024,-22.5543 174.929,-29.4955"/>
</g>
<!-- Node3 -->
<g id="node3" class="node"><title>Node3</title>
<g id="a_node3"><a xlink:href="../../d9/dbd/classgame_player_1_1view_1_1_progress_selector.html#afd924fe94651082d7b665a09d29df60c" target="_top" xlink:title="gamePlayer.view.Progress\lSelector.loadProgressEvent">
<polygon fill="white" stroke="black" points="372,-73 372,-103 520,-103 520,-73 372,-73"/>
<text text-anchor="start" x="380" y="-91" font-family="Helvetica,sans-Serif" font-size="10.00">gamePlayer.view.Progress</text>
<text text-anchor="middle" x="446" y="-80" font-family="Helvetica,sans-Serif" font-size="10.00">Selector.loadProgressEvent</text>
</a>
</g>
</g>
<!-- Node2&#45;&gt;Node3 -->
<g id="edge2" class="edge"><title>Node2&#45;&gt;Node3</title>
<path fill="none" stroke="midnightblue" d="M330.038,-73.005C340.393,-74.3557 351.163,-75.7604 361.776,-77.1447"/>
<polygon fill="midnightblue" stroke="midnightblue" points="361.515,-80.6402 371.884,-78.4631 362.421,-73.699 361.515,-80.6402"/>
</g>
<!-- Node4 -->
<g id="node4" class="node"><title>Node4</title>
<g id="a_node4"><a xlink:href="../../d9/dbd/classgame_player_1_1view_1_1_progress_selector.html#abdecb9a69426fb294cecf3d8a34a0ec0" target="_top" xlink:title="gamePlayer.view.Progress\lSelector.setupWindow">
<polygon fill="white" stroke="black" points="376,-24 376,-54 516,-54 516,-24 376,-24"/>
<text text-anchor="start" x="384" y="-42" font-family="Helvetica,sans-Serif" font-size="10.00">gamePlayer.view.Progress</text>
<text text-anchor="middle" x="446" y="-31" font-family="Helvetica,sans-Serif" font-size="10.00">Selector.setupWindow</text>
</a>
</g>
</g>
<!-- Node2&#45;&gt;Node4 -->
<g id="edge3" class="edge"><title>Node2&#45;&gt;Node4</title>
<path fill="none" stroke="midnightblue" d="M330.038,-54.6198C341.749,-53.0286 353.991,-51.3654 365.935,-49.7425"/>
<polygon fill="midnightblue" stroke="midnightblue" points="366.443,-53.2057 375.881,-48.3912 365.501,-46.2695 366.443,-53.2057"/>
</g>
</g>
</svg>
