<?xml version="1.0" encoding="UTF-8" standalone="no"?>
<!DOCTYPE svg PUBLIC "-//W3C//DTD SVG 1.1//EN"
 "http://www.w3.org/Graphics/SVG/1.1/DTD/svg11.dtd">
<!-- Generated by graphviz version 2.36.0 (20140111.2315)
 -->
<!-- Title: authoring.view.conditionsview.ConditionsAccordionView.ConditionsAccordionView Pages: 1 -->
<svg width="382pt" height="48pt"
 viewBox="0.00 0.00 382.00 48.00" xmlns="http://www.w3.org/2000/svg" xmlns:xlink="http://www.w3.org/1999/xlink">
<g id="graph0" class="graph" transform="scale(1 1) rotate(0) translate(4 44)">
<title>authoring.view.conditionsview.ConditionsAccordionView.ConditionsAccordionView</title>
<polygon fill="white" stroke="none" points="-4,4 -4,-44 378,-44 378,4 -4,4"/>
<!-- Node1 -->
<g id="node1" class="node"><title>Node1</title>
<polygon fill="#bfbfbf" stroke="black" points="0,0.5 0,-40.5 188,-40.5 188,0.5 0,0.5"/>
<text text-anchor="start" x="8" y="-28.5" font-family="Helvetica,sans-Serif" font-size="10.00">authoring.view.conditionsview.</text>
<text text-anchor="start" x="8" y="-17.5" font-family="Helvetica,sans-Serif" font-size="10.00">ConditionsAccordionView.Conditions</text>
<text text-anchor="middle" x="94" y="-6.5" font-family="Helvetica,sans-Serif" font-size="10.00">AccordionView</text>
</g>
<!-- Node2 -->
<g id="node2" class="node"><title>Node2</title>
<g id="a_node2"><a xlink:href="../../de/d93/classauthoring_1_1view_1_1baseclasses_1_1_collection_view.html#a4cd7ce0b64da7edab5119a427d173c3b" target="_top" xlink:title="authoring.view.baseclasses.\lCollectionView.setView">
<polygon fill="white" stroke="black" points="224.5,-5 224.5,-35 373.5,-35 373.5,-5 224.5,-5"/>
<text text-anchor="start" x="232.5" y="-23" font-family="Helvetica,sans-Serif" font-size="10.00">authoring.view.baseclasses.</text>
<text text-anchor="middle" x="299" y="-12" font-family="Helvetica,sans-Serif" font-size="10.00">CollectionView.setView</text>
</a>
</g>
</g>
<!-- Node1&#45;&gt;Node2 -->
<g id="edge1" class="edge"><title>Node1&#45;&gt;Node2</title>
<path fill="none" stroke="midnightblue" d="M188.182,-20C196.778,-20 205.454,-20 213.961,-20"/>
<polygon fill="midnightblue" stroke="midnightblue" points="214.237,-23.5001 224.237,-20 214.237,-16.5001 214.237,-23.5001"/>
</g>
</g>
</svg>
