<?xml version="1.0" encoding="UTF-8" standalone="no"?>
<!DOCTYPE svg PUBLIC "-//W3C//DTD SVG 1.1//EN"
 "http://www.w3.org/Graphics/SVG/1.1/DTD/svg11.dtd">
<!-- Generated by graphviz version 2.36.0 (20140111.2315)
 -->
<!-- Title: authoring.view.propertiesview.PropertiesView.makeProperties Pages: 1 -->
<svg width="416pt" height="381pt"
 viewBox="0.00 0.00 416.00 381.00" xmlns="http://www.w3.org/2000/svg" xmlns:xlink="http://www.w3.org/1999/xlink">
<g id="graph0" class="graph" transform="scale(1 1) rotate(0) translate(4 377)">
<title>authoring.view.propertiesview.PropertiesView.makeProperties</title>
<polygon fill="white" stroke="none" points="-4,4 -4,-377 412,-377 412,4 -4,4"/>
<!-- Node1 -->
<g id="node1" class="node"><title>Node1</title>
<polygon fill="#bfbfbf" stroke="black" points="0.5,-171 0.5,-201 165.5,-201 165.5,-171 0.5,-171"/>
<text text-anchor="start" x="8.5" y="-189" font-family="Helvetica,sans-Serif" font-size="10.00">authoring.view.propertiesview.</text>
<text text-anchor="middle" x="83" y="-178" font-family="Helvetica,sans-Serif" font-size="10.00">PropertiesView.makeProperties</text>
</g>
<!-- Node2 -->
<g id="node2" class="node"><title>Node2</title>
<g id="a_node2"><a xlink:href="../../d2/d34/classauthoring_1_1eventhandlers_1_1_images_click_handler.html#a8a0ddc0c9a2e47fe58328be86005cbaf" target="_top" xlink:title="authoring.eventhandlers.\lImagesClickHandler.handle">
<polygon fill="white" stroke="black" points="232,-343 232,-373 378,-373 378,-343 232,-343"/>
<text text-anchor="start" x="240" y="-361" font-family="Helvetica,sans-Serif" font-size="10.00">authoring.eventhandlers.</text>
<text text-anchor="middle" x="305" y="-350" font-family="Helvetica,sans-Serif" font-size="10.00">ImagesClickHandler.handle</text>
</a>
</g>
</g>
<!-- Node1&#45;&gt;Node2 -->
<g id="edge1" class="edge"><title>Node1&#45;&gt;Node2</title>
<path fill="none" stroke="midnightblue" d="M96.6691,-210.194C115.237,-243.197 153.018,-301.785 202,-333 211.072,-338.781 221.38,-343.225 231.872,-346.642"/>
<polygon fill="midnightblue" stroke="midnightblue" points="99.6217,-208.3 91.7397,-201.22 93.4863,-211.67 99.6217,-208.3"/>
</g>
<!-- Node3 -->
<g id="node3" class="node"><title>Node3</title>
<g id="a_node3"><a xlink:href="../../d5/d30/classauthoring_1_1eventhandlers_1_1_condition_click_handler.html#aff9c7e60dd18372eb4ff2b8b7096449b" target="_top" xlink:title="authoring.eventhandlers.\lConditionClickHandler.handle">
<polygon fill="white" stroke="black" points="227.5,-294 227.5,-324 382.5,-324 382.5,-294 227.5,-294"/>
<text text-anchor="start" x="235.5" y="-312" font-family="Helvetica,sans-Serif" font-size="10.00">authoring.eventhandlers.</text>
<text text-anchor="middle" x="305" y="-301" font-family="Helvetica,sans-Serif" font-size="10.00">ConditionClickHandler.handle</text>
</a>
</g>
</g>
<!-- Node1&#45;&gt;Node3 -->
<g id="edge2" class="edge"><title>Node1&#45;&gt;Node3</title>
<path fill="none" stroke="midnightblue" d="M104.864,-208.494C126.904,-230.914 163.707,-264.707 202,-284 209.978,-288.02 218.64,-291.417 227.43,-294.282"/>
<polygon fill="midnightblue" stroke="midnightblue" points="107.17,-205.843 97.7063,-201.081 102.134,-210.706 107.17,-205.843"/>
</g>
<!-- Node4 -->
<g id="node4" class="node"><title>Node4</title>
<g id="a_node4"><a xlink:href="../../d5/ddc/classauthoring_1_1eventhandlers_1_1_level_click_handler.html#a8d0d80e2314027b82f0f65b389c462fc" target="_top" xlink:title="authoring.eventhandlers.\lLevelClickHandler.handle">
<polygon fill="white" stroke="black" points="236.5,-245 236.5,-275 373.5,-275 373.5,-245 236.5,-245"/>
<text text-anchor="start" x="244.5" y="-263" font-family="Helvetica,sans-Serif" font-size="10.00">authoring.eventhandlers.</text>
<text text-anchor="middle" x="305" y="-252" font-family="Helvetica,sans-Serif" font-size="10.00">LevelClickHandler.handle</text>
</a>
</g>
</g>
<!-- Node1&#45;&gt;Node4 -->
<g id="edge3" class="edge"><title>Node1&#45;&gt;Node4</title>
<path fill="none" stroke="midnightblue" d="M125.736,-205.168C148.052,-214.947 176.181,-226.53 202,-235 213.001,-238.609 224.82,-241.965 236.375,-244.973"/>
<polygon fill="midnightblue" stroke="midnightblue" points="127.112,-201.95 116.551,-201.102 124.279,-208.351 127.112,-201.95"/>
</g>
<!-- Node5 -->
<g id="node5" class="node"><title>Node5</title>
<g id="a_node5"><a xlink:href="../../d9/db6/classauthoring_1_1eventhandlers_1_1_game_object_click_handler.html#a9e7e6751a84bd94acd86479da0b02ffe" target="_top" xlink:title="authoring.eventhandlers.\lGameObjectClickHandler.handle">
<polygon fill="white" stroke="black" points="220,-196 220,-226 390,-226 390,-196 220,-196"/>
<text text-anchor="start" x="228" y="-214" font-family="Helvetica,sans-Serif" font-size="10.00">authoring.eventhandlers.</text>
<text text-anchor="middle" x="305" y="-203" font-family="Helvetica,sans-Serif" font-size="10.00">GameObjectClickHandler.handle</text>
</a>
</g>
</g>
<!-- Node1&#45;&gt;Node5 -->
<g id="edge4" class="edge"><title>Node1&#45;&gt;Node5</title>
<path fill="none" stroke="midnightblue" d="M175.679,-196.418C190.35,-198.085 205.468,-199.803 219.95,-201.449"/>
<polygon fill="midnightblue" stroke="midnightblue" points="175.939,-192.925 165.607,-195.274 175.148,-199.88 175.939,-192.925"/>
</g>
<!-- Node6 -->
<g id="node6" class="node"><title>Node6</title>
<g id="a_node6"><a xlink:href="../../d6/df5/classauthoring_1_1eventhandlers_1_1_edit_game_object_handler.html#ac0a03e6b751068903df50296d9f1fbd7" target="_top" xlink:title="authoring.eventhandlers.\lEditGameObjectHandler.handle">
<polygon fill="white" stroke="black" points="221.5,-147 221.5,-177 388.5,-177 388.5,-147 221.5,-147"/>
<text text-anchor="start" x="229.5" y="-165" font-family="Helvetica,sans-Serif" font-size="10.00">authoring.eventhandlers.</text>
<text text-anchor="middle" x="305" y="-154" font-family="Helvetica,sans-Serif" font-size="10.00">EditGameObjectHandler.handle</text>
</a>
</g>
</g>
<!-- Node1&#45;&gt;Node6 -->
<g id="edge5" class="edge"><title>Node1&#45;&gt;Node6</title>
<path fill="none" stroke="midnightblue" d="M175.959,-175.968C191.041,-174.323 206.587,-172.627 221.423,-171.008"/>
<polygon fill="midnightblue" stroke="midnightblue" points="175.169,-172.533 165.607,-177.097 175.928,-179.492 175.169,-172.533"/>
</g>
<!-- Node7 -->
<g id="node7" class="node"><title>Node7</title>
<g id="a_node7"><a xlink:href="../../d8/d71/classauthoring_1_1eventhandlers_1_1_sounds_click_handler.html#a6b4bd8a5c35a9bf69bf9a14f96a957bc" target="_top" xlink:title="authoring.eventhandlers.\lSoundsClickHandler.handle">
<polygon fill="white" stroke="black" points="232,-98 232,-128 378,-128 378,-98 232,-98"/>
<text text-anchor="start" x="240" y="-116" font-family="Helvetica,sans-Serif" font-size="10.00">authoring.eventhandlers.</text>
<text text-anchor="middle" x="305" y="-105" font-family="Helvetica,sans-Serif" font-size="10.00">SoundsClickHandler.handle</text>
</a>
</g>
</g>
<!-- Node1&#45;&gt;Node7 -->
<g id="edge6" class="edge"><title>Node1&#45;&gt;Node7</title>
<path fill="none" stroke="midnightblue" d="M126.791,-166.832C148.951,-157.358 176.617,-146.225 202,-138 213.101,-134.403 225.026,-131.042 236.67,-128.024"/>
<polygon fill="midnightblue" stroke="midnightblue" points="125.133,-163.735 117.34,-170.914 127.909,-170.162 125.133,-163.735"/>
</g>
<!-- Node8 -->
<g id="node8" class="node"><title>Node8</title>
<g id="a_node8"><a xlink:href="../../d1/da4/classauthoring_1_1eventhandlers_1_1_game_object_drag_handler.html#a122ab06aa51a9961e85f5a457142f60c" target="_top" xlink:title="authoring.eventhandlers.\lGameObjectDragHandler.handle">
<polygon fill="white" stroke="black" points="219,-49 219,-79 391,-79 391,-49 219,-49"/>
<text text-anchor="start" x="227" y="-67" font-family="Helvetica,sans-Serif" font-size="10.00">authoring.eventhandlers.</text>
<text text-anchor="middle" x="305" y="-56" font-family="Helvetica,sans-Serif" font-size="10.00">GameObjectDragHandler.handle</text>
</a>
</g>
</g>
<!-- Node1&#45;&gt;Node8 -->
<g id="edge7" class="edge"><title>Node1&#45;&gt;Node8</title>
<path fill="none" stroke="midnightblue" d="M105.279,-163.373C127.395,-141.188 164.03,-108.011 202,-89 209.744,-85.1227 218.126,-81.8235 226.642,-79.0215"/>
<polygon fill="midnightblue" stroke="midnightblue" points="102.58,-161.127 98.0839,-170.721 107.581,-166.025 102.58,-161.127"/>
</g>
<!-- Node9 -->
<g id="node9" class="node"><title>Node9</title>
<g id="a_node9"><a xlink:href="../../d0/df2/classauthoring_1_1eventhandlers_1_1_game_object_drag_to_level_handler.html#ad5002cd6b7781653104f1820a573f902" target="_top" xlink:title="authoring.eventhandlers.\lGameObjectDragToLevelHandler.handle">
<polygon fill="white" stroke="black" points="202,-0 202,-30 408,-30 408,-0 202,-0"/>
<text text-anchor="start" x="210" y="-18" font-family="Helvetica,sans-Serif" font-size="10.00">authoring.eventhandlers.</text>
<text text-anchor="middle" x="305" y="-7" font-family="Helvetica,sans-Serif" font-size="10.00">GameObjectDragToLevelHandler.handle</text>
</a>
</g>
</g>
<!-- Node1&#45;&gt;Node9 -->
<g id="edge8" class="edge"><title>Node1&#45;&gt;Node9</title>
<path fill="none" stroke="midnightblue" d="M96.7116,-161.971C115.33,-129.193 153.169,-71.0045 202,-40 208.157,-36.0908 214.88,-32.7929 221.842,-30.0107"/>
<polygon fill="midnightblue" stroke="midnightblue" points="93.5575,-160.442 91.7679,-170.884 99.679,-163.837 93.5575,-160.442"/>
</g>
</g>
</svg>
