<?xml version="1.0" encoding="UTF-8" standalone="no"?>
<!DOCTYPE svg PUBLIC "-//W3C//DTD SVG 1.1//EN"
 "http://www.w3.org/Graphics/SVG/1.1/DTD/svg11.dtd">
<!-- Generated by graphviz version 2.36.0 (20140111.2315)
 -->
<!-- Title: engine.level.Level Pages: 1 -->
<svg width="672pt" height="203pt"
 viewBox="0.00 0.00 672.00 203.00" xmlns="http://www.w3.org/2000/svg" xmlns:xlink="http://www.w3.org/1999/xlink">
<g id="graph0" class="graph" transform="scale(1 1) rotate(0) translate(4 199)">
<title>engine.level.Level</title>
<polygon fill="white" stroke="none" points="-4,4 -4,-199 668,-199 668,4 -4,4"/>
<!-- Node1 -->
<g id="node1" class="node"><title>Node1</title>
<polygon fill="#bfbfbf" stroke="black" points="562.5,-99.5 562.5,-118.5 663.5,-118.5 663.5,-99.5 562.5,-99.5"/>
<text text-anchor="middle" x="613" y="-106.5" font-family="Helvetica,sans-Serif" font-size="10.00">engine.level.Level</text>
</g>
<!-- Node2 -->
<g id="node2" class="node"><title>Node2</title>
<g id="a_node2"><a xlink:href="../../d3/d8d/classdata_1_1_observable.html" target="_top" xlink:title="data.Observable">
<polygon fill="white" stroke="black" points="277.5,-174.5 277.5,-193.5 372.5,-193.5 372.5,-174.5 277.5,-174.5"/>
<text text-anchor="middle" x="325" y="-181.5" font-family="Helvetica,sans-Serif" font-size="10.00">data.Observable</text>
</a>
</g>
</g>
<!-- Node2&#45;&gt;Node1 -->
<g id="edge1" class="edge"><title>Node2&#45;&gt;Node1</title>
<path fill="none" stroke="midnightblue" d="M382.656,-178.732C427.385,-173.423 490.887,-163.309 544,-145 563.322,-138.339 583.837,-126.781 597.218,-118.559"/>
<polygon fill="midnightblue" stroke="midnightblue" points="382.096,-175.273 372.559,-179.887 382.892,-182.228 382.096,-175.273"/>
</g>
<!-- Node3 -->
<g id="node3" class="node"><title>Node3</title>
<polygon fill="white" stroke="#bfbfbf" points="23,-174.5 23,-193.5 161,-193.5 161,-174.5 23,-174.5"/>
<text text-anchor="middle" x="92" y="-181.5" font-family="Helvetica,sans-Serif" font-size="10.00">Vector&lt; data.Observer &gt;</text>
</g>
<!-- Node3&#45;&gt;Node2 -->
<g id="edge2" class="edge"><title>Node3&#45;&gt;Node2</title>
<path fill="none" stroke="#9a32cd" stroke-dasharray="5,2" d="M171.318,-184C206.521,-184 246.882,-184 277.262,-184"/>
<polygon fill="#9a32cd" stroke="#9a32cd" points="171.058,-180.5 161.058,-184 171.058,-187.5 171.058,-180.5"/>
<text text-anchor="middle" x="213" y="-187" font-family="Helvetica,sans-Serif" font-size="10.00"> obs</text>
</g>
<!-- Node4 -->
<g id="node4" class="node"><title>Node4</title>
<g id="a_node4"><a xlink:href="../../dc/df6/interfaceengine_1_1game_object_1_1_identifiable.html" target="_top" xlink:title="engine.gameObject.Identifiable">
<polygon fill="white" stroke="black" points="242.5,-136.5 242.5,-155.5 407.5,-155.5 407.5,-136.5 242.5,-136.5"/>
<text text-anchor="middle" x="325" y="-143.5" font-family="Helvetica,sans-Serif" font-size="10.00">engine.gameObject.Identifiable</text>
</a>
</g>
</g>
<!-- Node4&#45;&gt;Node1 -->
<g id="edge3" class="edge"><title>Node4&#45;&gt;Node1</title>
<path fill="none" stroke="midnightblue" d="M417.848,-139.124C456.877,-135.584 502.797,-130.6 544,-124 553.311,-122.508 563.261,-120.533 572.596,-118.508"/>
<polygon fill="midnightblue" stroke="midnightblue" points="417.209,-135.667 407.558,-140.039 417.829,-142.639 417.209,-135.667"/>
</g>
<!-- Node5 -->
<g id="node5" class="node"><title>Node5</title>
<g id="a_node5"><a xlink:href="../../d4/dac/classengine_1_1game_object_1_1_identifier.html" target="_top" xlink:title="engine.gameObject.Identifier">
<polygon fill="white" stroke="black" points="247.5,-98.5 247.5,-117.5 402.5,-117.5 402.5,-98.5 247.5,-98.5"/>
<text text-anchor="middle" x="325" y="-105.5" font-family="Helvetica,sans-Serif" font-size="10.00">engine.gameObject.Identifier</text>
</a>
</g>
</g>
<!-- Node5&#45;&gt;Node1 -->
<g id="edge4" class="edge"><title>Node5&#45;&gt;Node1</title>
<path fill="none" stroke="#9a32cd" stroke-dasharray="5,2" d="M412.908,-108.304C461.801,-108.475 521.089,-108.682 562.188,-108.826"/>
<polygon fill="#9a32cd" stroke="#9a32cd" points="412.655,-104.803 402.643,-108.268 412.63,-111.803 412.655,-104.803"/>
<text text-anchor="middle" x="485" y="-112" font-family="Helvetica,sans-Serif" font-size="10.00"> myId</text>
</g>
<!-- Node6 -->
<g id="node6" class="node"><title>Node6</title>
<polygon fill="white" stroke="#bfbfbf" points="64,-98.5 64,-117.5 120,-117.5 120,-98.5 64,-98.5"/>
<text text-anchor="middle" x="92" y="-105.5" font-family="Helvetica,sans-Serif" font-size="10.00">Random</text>
</g>
<!-- Node6&#45;&gt;Node5 -->
<g id="edge5" class="edge"><title>Node6&#45;&gt;Node5</title>
<path fill="none" stroke="#9a32cd" stroke-dasharray="5,2" d="M130.511,-108C162.046,-108 208.136,-108 247.423,-108"/>
<polygon fill="#9a32cd" stroke="#9a32cd" points="130.406,-104.5 120.406,-108 130.406,-111.5 130.406,-104.5"/>
<text text-anchor="middle" x="213" y="-111" font-family="Helvetica,sans-Serif" font-size="10.00"> r</text>
</g>
<!-- Node7 -->
<g id="node7" class="node"><title>Node7</title>
<g id="a_node7"><a xlink:href="../../d1/d32/classauthoring_1_1model_1_1collections_1_1_game_objects_collection.html" target="_top" xlink:title="authoring.model.collections.\lGameObjectsCollection">
<polygon fill="white" stroke="black" points="249,-49 249,-79 401,-79 401,-49 249,-49"/>
<text text-anchor="start" x="257" y="-67" font-family="Helvetica,sans-Serif" font-size="10.00">authoring.model.collections.</text>
<text text-anchor="middle" x="325" y="-56" font-family="Helvetica,sans-Serif" font-size="10.00">GameObjectsCollection</text>
</a>
</g>
</g>
<!-- Node7&#45;&gt;Node1 -->
<g id="edge6" class="edge"><title>Node7&#45;&gt;Node1</title>
<path fill="none" stroke="#9a32cd" stroke-dasharray="5,2" d="M411.345,-65.9461C451.94,-68.2627 500.909,-73.089 544,-83 560.505,-86.7963 578.363,-93.742 591.635,-99.4999"/>
<polygon fill="#9a32cd" stroke="#9a32cd" points="411.384,-62.4434 401.213,-65.4097 411.014,-69.4336 411.384,-62.4434"/>
<text text-anchor="middle" x="485" y="-97" font-family="Helvetica,sans-Serif" font-size="10.00"> myDefaultGameObjects</text>
<text text-anchor="middle" x="485" y="-86" font-family="Helvetica,sans-Serif" font-size="10.00">myWorkingGameObjects</text>
</g>
<!-- Node8 -->
<g id="node8" class="node"><title>Node8</title>
<g id="a_node8"><a xlink:href="../../d4/d3b/classauthoring_1_1model_1_1collections_1_1_general_collection.html" target="_top" xlink:title="authoring.model.collections.\lGeneralCollection\&lt; GameObject \&gt;">
<polygon fill="white" stroke="black" points="0.5,-49 0.5,-79 183.5,-79 183.5,-49 0.5,-49"/>
<text text-anchor="start" x="8.5" y="-67" font-family="Helvetica,sans-Serif" font-size="10.00">authoring.model.collections.</text>
<text text-anchor="middle" x="92" y="-56" font-family="Helvetica,sans-Serif" font-size="10.00">GeneralCollection&lt; GameObject &gt;</text>
</a>
</g>
</g>
<!-- Node8&#45;&gt;Node7 -->
<g id="edge7" class="edge"><title>Node8&#45;&gt;Node7</title>
<path fill="none" stroke="midnightblue" d="M193.843,-64C212.335,-64 231.337,-64 248.91,-64"/>
<polygon fill="midnightblue" stroke="midnightblue" points="193.634,-60.5001 183.634,-64 193.634,-67.5001 193.634,-60.5001"/>
</g>
<!-- Node9 -->
<g id="node9" class="node"><title>Node9</title>
<polygon fill="white" stroke="#bfbfbf" points="254.5,-0 254.5,-30 395.5,-30 395.5,-0 254.5,-0"/>
<text text-anchor="start" x="262.5" y="-18" font-family="Helvetica,sans-Serif" font-size="10.00">List&lt; engine.gameObject.</text>
<text text-anchor="middle" x="325" y="-7" font-family="Helvetica,sans-Serif" font-size="10.00">Identifier &gt;</text>
</g>
<!-- Node9&#45;&gt;Node1 -->
<g id="edge8" class="edge"><title>Node9&#45;&gt;Node1</title>
<path fill="none" stroke="#9a32cd" stroke-dasharray="5,2" d="M405.661,-12.1244C448.57,-13.5536 501.307,-20.2687 544,-41 571.634,-54.4188 594.673,-83.677 605.447,-99.0733"/>
<polygon fill="#9a32cd" stroke="#9a32cd" points="405.623,-8.62251 395.541,-11.8781 405.453,-15.6204 405.623,-8.62251"/>
<text text-anchor="middle" x="485" y="-55" font-family="Helvetica,sans-Serif" font-size="10.00"> myConditionIdList</text>
<text text-anchor="middle" x="485" y="-44" font-family="Helvetica,sans-Serif" font-size="10.00">myGameObjectIdList</text>
</g>
</g>
</svg>
