<?xml version="1.0" encoding="UTF-8" standalone="no"?>
<!DOCTYPE svg PUBLIC "-//W3C//DTD SVG 1.1//EN"
 "http://www.w3.org/Graphics/SVG/1.1/DTD/svg11.dtd">
<!-- Generated by graphviz version 2.36.0 (20140111.2315)
 -->
<!-- Title: engine.actions.XImpulseIDAction Pages: 1 -->
<svg width="201pt" height="388pt"
 viewBox="0.00 0.00 201.00 388.00" xmlns="http://www.w3.org/2000/svg" xmlns:xlink="http://www.w3.org/1999/xlink">
<g id="graph0" class="graph" transform="scale(1 1) rotate(0) translate(4 384)">
<title>engine.actions.XImpulseIDAction</title>
<polygon fill="white" stroke="none" points="-4,4 -4,-384 197,-384 197,4 -4,4"/>
<!-- Node1 -->
<g id="node1" class="node"><title>Node1</title>
<polygon fill="#bfbfbf" stroke="black" points="3.5,-0.5 3.5,-19.5 176.5,-19.5 176.5,-0.5 3.5,-0.5"/>
<text text-anchor="middle" x="90" y="-7.5" font-family="Helvetica,sans-Serif" font-size="10.00">engine.actions.XImpulseIDAction</text>
</g>
<!-- Node2 -->
<g id="node2" class="node"><title>Node2</title>
<g id="a_node2"><a xlink:href="../../d4/de0/classengine_1_1actions_1_1_impulse_action.html" target="_top" xlink:title="engine.actions.ImpulseAction">
<polygon fill="white" stroke="black" points="11.5,-56.5 11.5,-75.5 168.5,-75.5 168.5,-56.5 11.5,-56.5"/>
<text text-anchor="middle" x="90" y="-63.5" font-family="Helvetica,sans-Serif" font-size="10.00">engine.actions.ImpulseAction</text>
</a>
</g>
</g>
<!-- Node2&#45;&gt;Node1 -->
<g id="edge1" class="edge"><title>Node2&#45;&gt;Node1</title>
<path fill="none" stroke="midnightblue" d="M90,-45.8045C90,-36.9102 90,-26.7798 90,-19.7511"/>
<polygon fill="midnightblue" stroke="midnightblue" points="86.5001,-46.083 90,-56.083 93.5001,-46.083 86.5001,-46.083"/>
</g>
<!-- Node3 -->
<g id="node3" class="node"><title>Node3</title>
<g id="a_node3"><a xlink:href="../../d3/d7e/classengine_1_1actions_1_1_vector_physics_action.html" target="_top" xlink:title="engine.actions.VectorPhysics\lAction">
<polygon fill="white" stroke="black" points="12.5,-113 12.5,-143 167.5,-143 167.5,-113 12.5,-113"/>
<text text-anchor="start" x="20.5" y="-131" font-family="Helvetica,sans-Serif" font-size="10.00">engine.actions.VectorPhysics</text>
<text text-anchor="middle" x="90" y="-120" font-family="Helvetica,sans-Serif" font-size="10.00">Action</text>
</a>
</g>
</g>
<!-- Node3&#45;&gt;Node2 -->
<g id="edge2" class="edge"><title>Node3&#45;&gt;Node2</title>
<path fill="none" stroke="midnightblue" d="M90,-102.586C90,-93.0743 90,-82.7864 90,-75.7305"/>
<polygon fill="midnightblue" stroke="midnightblue" points="86.5001,-102.781 90,-112.781 93.5001,-102.781 86.5001,-102.781"/>
</g>
<!-- Node4 -->
<g id="node4" class="node"><title>Node4</title>
<g id="a_node4"><a xlink:href="../../de/d9e/classengine_1_1actions_1_1_physics_component_action.html" target="_top" xlink:title="engine.actions.PhysicsComponent\lAction">
<polygon fill="white" stroke="black" points="-0.5,-181 -0.5,-211 180.5,-211 180.5,-181 -0.5,-181"/>
<text text-anchor="start" x="7.5" y="-199" font-family="Helvetica,sans-Serif" font-size="10.00">engine.actions.PhysicsComponent</text>
<text text-anchor="middle" x="90" y="-188" font-family="Helvetica,sans-Serif" font-size="10.00">Action</text>
</a>
</g>
</g>
<!-- Node4&#45;&gt;Node3 -->
<g id="edge3" class="edge"><title>Node4&#45;&gt;Node3</title>
<path fill="none" stroke="midnightblue" d="M90,-170.532C90,-161.361 90,-151.245 90,-143.293"/>
<polygon fill="midnightblue" stroke="midnightblue" points="86.5001,-170.679 90,-180.679 93.5001,-170.679 86.5001,-170.679"/>
</g>
<!-- Node5 -->
<g id="node5" class="node"><title>Node5</title>
<g id="a_node5"><a xlink:href="../../de/d8e/classengine_1_1actions_1_1_physics_i_d_action.html" target="_top" xlink:title="engine.actions.PhysicsIDAction">
<polygon fill="white" stroke="black" points="8,-248.5 8,-267.5 172,-267.5 172,-248.5 8,-248.5"/>
<text text-anchor="middle" x="90" y="-255.5" font-family="Helvetica,sans-Serif" font-size="10.00">engine.actions.PhysicsIDAction</text>
</a>
</g>
</g>
<!-- Node5&#45;&gt;Node4 -->
<g id="edge4" class="edge"><title>Node5&#45;&gt;Node4</title>
<path fill="none" stroke="midnightblue" d="M90,-238.371C90,-229.585 90,-219.272 90,-211.141"/>
<polygon fill="midnightblue" stroke="midnightblue" points="86.5001,-238.403 90,-248.403 93.5001,-238.403 86.5001,-238.403"/>
</g>
<!-- Node6 -->
<g id="node6" class="node"><title>Node6</title>
<g id="a_node6"><a xlink:href="../../d9/dd2/interfaceengine_1_1actions_1_1_action.html" target="_top" xlink:title="engine.actions.Action">
<polygon fill="white" stroke="black" points="74.5,-304.5 74.5,-323.5 193.5,-323.5 193.5,-304.5 74.5,-304.5"/>
<text text-anchor="middle" x="134" y="-311.5" font-family="Helvetica,sans-Serif" font-size="10.00">engine.actions.Action</text>
</a>
</g>
</g>
<!-- Node6&#45;&gt;Node5 -->
<g id="edge5" class="edge"><title>Node6&#45;&gt;Node5</title>
<path fill="none" stroke="midnightblue" d="M120.265,-296.144C112.599,-286.736 103.367,-275.405 97.1305,-267.751"/>
<polygon fill="midnightblue" stroke="midnightblue" points="117.704,-298.541 126.734,-304.083 123.131,-294.12 117.704,-298.541"/>
</g>
<!-- Node7 -->
<g id="node7" class="node"><title>Node7</title>
<g id="a_node7"><a xlink:href="../../d2/d15/interfaceengine_1_1actions_1_1_initializable.html" target="_top" xlink:title="engine.actions.Initializable">
<polygon fill="white" stroke="black" points="19,-360.5 19,-379.5 161,-379.5 161,-360.5 19,-360.5"/>
<text text-anchor="middle" x="90" y="-367.5" font-family="Helvetica,sans-Serif" font-size="10.00">engine.actions.Initializable</text>
</a>
</g>
</g>
<!-- Node7&#45;&gt;Node5 -->
<g id="edge7" class="edge"><title>Node7&#45;&gt;Node5</title>
<path fill="none" stroke="midnightblue" d="M77.6997,-352.005C69.8316,-339.075 61.8211,-320.716 66,-304 69.393,-290.428 77.7398,-276.468 83.6332,-267.768"/>
<polygon fill="midnightblue" stroke="midnightblue" points="74.7905,-353.951 83.2273,-360.36 80.6285,-350.089 74.7905,-353.951"/>
</g>
<!-- Node7&#45;&gt;Node6 -->
<g id="edge6" class="edge"><title>Node7&#45;&gt;Node6</title>
<path fill="none" stroke="midnightblue" d="M103.735,-352.144C111.401,-342.736 120.633,-331.405 126.869,-323.751"/>
<polygon fill="midnightblue" stroke="midnightblue" points="100.869,-350.12 97.2657,-360.083 106.296,-354.541 100.869,-350.12"/>
</g>
</g>
</svg>
