<?xml version="1.0" encoding="UTF-8" standalone="no"?>
<!DOCTYPE svg PUBLIC "-//W3C//DTD SVG 1.1//EN"
 "http://www.w3.org/Graphics/SVG/1.1/DTD/svg11.dtd">
<!-- Generated by graphviz version 2.36.0 (20140111.2315)
 -->
<!-- Title: authoring.view.propertiesview.PropertyTextField.setString Pages: 1 -->
<svg width="396pt" height="48pt"
 viewBox="0.00 0.00 396.00 48.00" xmlns="http://www.w3.org/2000/svg" xmlns:xlink="http://www.w3.org/1999/xlink">
<g id="graph0" class="graph" transform="scale(1 1) rotate(0) translate(4 44)">
<title>authoring.view.propertiesview.PropertyTextField.setString</title>
<polygon fill="white" stroke="none" points="-4,4 -4,-44 392,-44 392,4 -4,4"/>
<!-- Node1 -->
<g id="node1" class="node"><title>Node1</title>
<polygon fill="#bfbfbf" stroke="black" points="0.5,-5 0.5,-35 159.5,-35 159.5,-5 0.5,-5"/>
<text text-anchor="start" x="8.5" y="-23" font-family="Helvetica,sans-Serif" font-size="10.00">authoring.view.propertiesview.</text>
<text text-anchor="middle" x="80" y="-12" font-family="Helvetica,sans-Serif" font-size="10.00">PropertyTextField.setString</text>
</g>
<!-- Node2 -->
<g id="node2" class="node"><title>Node2</title>
<g id="a_node2"><a xlink:href="../../da/d8d/classauthoring_1_1view_1_1propertiesview_1_1_game_object_properties.html#a56c819b26d5e46f6533e64d1fe32314e" target="_top" xlink:title="authoring.view.propertiesview.\lGameObjectProperties.setUpForNew\lObject">
<polygon fill="white" stroke="black" points="196,0.5 196,-40.5 388,-40.5 388,0.5 196,0.5"/>
<text text-anchor="start" x="204" y="-28.5" font-family="Helvetica,sans-Serif" font-size="10.00">authoring.view.propertiesview.</text>
<text text-anchor="start" x="204" y="-17.5" font-family="Helvetica,sans-Serif" font-size="10.00">GameObjectProperties.setUpForNew</text>
<text text-anchor="middle" x="292" y="-6.5" font-family="Helvetica,sans-Serif" font-size="10.00">Object</text>
</a>
</g>
</g>
<!-- Node1&#45;&gt;Node2 -->
<g id="edge1" class="edge"><title>Node1&#45;&gt;Node2</title>
<path fill="none" stroke="midnightblue" d="M169.809,-20C178.41,-20 187.16,-20 195.82,-20"/>
<polygon fill="midnightblue" stroke="midnightblue" points="169.794,-16.5001 159.794,-20 169.794,-23.5001 169.794,-16.5001"/>
</g>
</g>
</svg>
