<?xml version="1.0" encoding="UTF-8" standalone="no"?>
<!DOCTYPE svg PUBLIC "-//W3C//DTD SVG 1.1//EN"
 "http://www.w3.org/Graphics/SVG/1.1/DTD/svg11.dtd">
<!-- Generated by graphviz version 2.36.0 (20140111.2315)
 -->
<!-- Title: engine.actions.render.EraseCanvas Pages: 1 -->
<!--zoomable 298 -->
<svg id="main" version="1.1" xmlns="http://www.w3.org/2000/svg" xmlns:xlink="http://www.w3.org/1999/xlink" xml:space="preserve" onload="init(evt)">
<style type="text/css"><![CDATA[
.edge:hover path { stroke: red; }
.edge:hover polygon { stroke: red; fill: red; }
]]></style>
<script type="text/javascript"><![CDATA[
var edges = document.getElementsByTagName('g');
if (edges && edges.length) {
  for (var i=0;i<edges.length;i++) {
    if (edges[i].id.substr(0,4)=='edge') {
      edges[i].setAttribute('class','edge');
    }
  }
}
]]></script>
        <defs>
                <circle id="rim" cx="0" cy="0" r="7"/>
                <circle id="rim2" cx="0" cy="0" r="3.5"/>
                <g id="zoomPlus">
                        <use xlink:href="#rim" fill="#404040">
                                <set attributeName="fill" to="#808080" begin="zoomplus.mouseover" end="zoomplus.mouseout"/>
                        </use>
                        <path d="M-4,0h8M0,-4v8" fill="none" stroke="white" stroke-width="1.5" pointer-events="none"/>
                </g>
                <g id="zoomMin">
                        <use xlink:href="#rim" fill="#404040">
                                <set attributeName="fill" to="#808080" begin="zoomminus.mouseover" end="zoomminus.mouseout"/>
                        </use>
                        <path d="M-4,0h8" fill="none" stroke="white" stroke-width="1.5" pointer-events="none"/>
                </g>
                <g id="dirArrow">
                        <path fill="none" stroke="white" stroke-width="1.5" d="M0,-3.0v7 M-2.5,-0.5L0,-3.0L2.5,-0.5"/>
                </g>
               <g id="resetDef">
                       <use xlink:href="#rim2" fill="#404040">
                               <set attributeName="fill" to="#808080" begin="reset.mouseover" end="reset.mouseout"/>
                       </use>
               </g>
        </defs>

<script type="text/javascript">
var viewWidth = 1474;
var viewHeight = 298;
var sectionId = 'dynsection-1';
</script>
<script xlink:href="../../svgpan.js"/>
<svg id="graph" class="graph">
<g id="viewport">
<title>engine.actions.render.EraseCanvas</title>
<polygon fill="white" stroke="none" points="-4,4 -4,-294 1470,-294 1470,4 -4,4"/>
<!-- Node1 -->
<g id="node1" class="node"><title>Node1</title>
<polygon fill="#bfbfbf" stroke="black" points="1316,-183 1316,-213 1466,-213 1466,-183 1316,-183"/>
<text text-anchor="start" x="1324" y="-201" font-family="Helvetica,sans-Serif" font-size="10.00">engine.actions.render.Erase</text>
<text text-anchor="middle" x="1391" y="-190" font-family="Helvetica,sans-Serif" font-size="10.00">Canvas</text>
</g>
<!-- Node2 -->
<g id="node2" class="node"><title>Node2</title>
<g id="a_node2"><a xlink:href="../../da/d10/classengine_1_1actions_1_1render_1_1_render_action.html" target="_top" xlink:title="engine.actions.render.Render\lAction">
<polygon fill="white" stroke="black" points="1122,-183 1122,-213 1278,-213 1278,-183 1122,-183"/>
<text text-anchor="start" x="1130" y="-201" font-family="Helvetica,sans-Serif" font-size="10.00">engine.actions.render.Render</text>
<text text-anchor="middle" x="1200" y="-190" font-family="Helvetica,sans-Serif" font-size="10.00">Action</text>
</a>
</g>
</g>
<!-- Node2&#45;&gt;Node1 -->
<g id="edge1" class="edge"><title>Node2&#45;&gt;Node1</title>
<path fill="none" stroke="midnightblue" d="M1288.44,-198C1297.6,-198 1306.85,-198 1315.85,-198"/>
<polygon fill="midnightblue" stroke="midnightblue" points="1288.15,-194.5 1278.15,-198 1288.15,-201.5 1288.15,-194.5"/>
</g>
<!-- Node3 -->
<g id="node3" class="node"><title>Node3</title>
<g id="a_node3"><a xlink:href="../../d9/dd2/interfaceengine_1_1actions_1_1_action.html" target="_top" xlink:title="engine.actions.Action">
<polygon fill="white" stroke="black" points="869.5,-270.5 869.5,-289.5 988.5,-289.5 988.5,-270.5 869.5,-270.5"/>
<text text-anchor="middle" x="929" y="-277.5" font-family="Helvetica,sans-Serif" font-size="10.00">engine.actions.Action</text>
</a>
</g>
</g>
<!-- Node3&#45;&gt;Node2 -->
<g id="edge2" class="edge"><title>Node3&#45;&gt;Node2</title>
<path fill="none" stroke="midnightblue" d="M998.967,-277.011C1031.56,-273.967 1070.57,-267.924 1104,-256 1132.39,-245.873 1161.46,-226.551 1179.83,-213"/>
<polygon fill="midnightblue" stroke="midnightblue" points="998.289,-273.556 988.624,-277.897 998.887,-280.53 998.289,-273.556"/>
</g>
<!-- Node4 -->
<g id="node4" class="node"><title>Node4</title>
<g id="a_node4"><a xlink:href="../../d2/d15/interfaceengine_1_1actions_1_1_initializable.html" target="_top" xlink:title="engine.actions.Initializable">
<polygon fill="white" stroke="black" points="573,-244.5 573,-263.5 715,-263.5 715,-244.5 573,-244.5"/>
<text text-anchor="middle" x="644" y="-251.5" font-family="Helvetica,sans-Serif" font-size="10.00">engine.actions.Initializable</text>
</a>
</g>
</g>
<!-- Node4&#45;&gt;Node2 -->
<g id="edge4" class="edge"><title>Node4&#45;&gt;Node2</title>
<path fill="none" stroke="midnightblue" d="M725.19,-248.485C816.938,-241.794 971.598,-229.347 1104,-213 1109.8,-212.284 1115.79,-211.483 1121.81,-210.634"/>
<polygon fill="midnightblue" stroke="midnightblue" points="724.863,-245 715.142,-249.214 725.369,-251.982 724.863,-245"/>
</g>
<!-- Node4&#45;&gt;Node3 -->
<g id="edge3" class="edge"><title>Node4&#45;&gt;Node3</title>
<path fill="none" stroke="midnightblue" d="M725.536,-261.399C771.415,-265.614 827.866,-270.8 869.495,-274.625"/>
<polygon fill="midnightblue" stroke="midnightblue" points="725.597,-257.89 715.319,-260.46 724.956,-264.861 725.597,-257.89"/>
</g>
<!-- Node5 -->
<g id="node5" class="node"><title>Node5</title>
<polygon fill="white" stroke="#bfbfbf" points="858.5,-183 858.5,-213 999.5,-213 999.5,-183 858.5,-183"/>
<text text-anchor="start" x="866.5" y="-201" font-family="Helvetica,sans-Serif" font-size="10.00">List&lt; engine.gameObject.</text>
<text text-anchor="middle" x="929" y="-190" font-family="Helvetica,sans-Serif" font-size="10.00">GameObject &gt;</text>
</g>
<!-- Node5&#45;&gt;Node2 -->
<g id="edge5" class="edge"><title>Node5&#45;&gt;Node2</title>
<path fill="none" stroke="#9a32cd" stroke-dasharray="5,2" d="M1009.89,-198C1045.21,-198 1086.59,-198 1121.61,-198"/>
<polygon fill="#9a32cd" stroke="#9a32cd" points="1009.62,-194.5 999.624,-198 1009.62,-201.5 1009.62,-194.5"/>
<text text-anchor="middle" x="1062" y="-201" font-family="Helvetica,sans-Serif" font-size="10.00"> myGameObjects</text>
</g>
<!-- Node6 -->
<g id="node6" class="node"><title>Node6</title>
<g id="a_node6"><a xlink:href="../../df/de5/classengine_1_1render_1_1_game_object_renderer.html" target="_top" xlink:title="engine.render.GameObject\lRenderer">
<polygon fill="white" stroke="black" points="856,-78 856,-108 1002,-108 1002,-78 856,-78"/>
<text text-anchor="start" x="864" y="-96" font-family="Helvetica,sans-Serif" font-size="10.00">engine.render.GameObject</text>
<text text-anchor="middle" x="929" y="-85" font-family="Helvetica,sans-Serif" font-size="10.00">Renderer</text>
</a>
</g>
</g>
<!-- Node6&#45;&gt;Node2 -->
<g id="edge6" class="edge"><title>Node6&#45;&gt;Node2</title>
<path fill="none" stroke="#9a32cd" stroke-dasharray="5,2" d="M1012.36,-102.019C1042.11,-107.213 1075.39,-115.337 1104,-128 1134.91,-141.684 1165.44,-166.808 1183.24,-182.94"/>
<polygon fill="#9a32cd" stroke="#9a32cd" points="1012.86,-98.5538 1002.42,-100.368 1011.71,-105.459 1012.86,-98.5538"/>
<text text-anchor="middle" x="1062" y="-131" font-family="Helvetica,sans-Serif" font-size="10.00"> myRenderer</text>
</g>
<!-- Node7 -->
<g id="node7" class="node"><title>Node7</title>
<polygon fill="white" stroke="#bfbfbf" points="562,-39 562,-69 726,-69 726,-39 562,-39"/>
<text text-anchor="start" x="570" y="-57" font-family="Helvetica,sans-Serif" font-size="10.00">Map&lt; Identifier, engine.render.</text>
<text text-anchor="middle" x="644" y="-46" font-family="Helvetica,sans-Serif" font-size="10.00">RenderedNode &gt;</text>
</g>
<!-- Node7&#45;&gt;Node6 -->
<g id="edge7" class="edge"><title>Node7&#45;&gt;Node6</title>
<path fill="none" stroke="#9a32cd" stroke-dasharray="5,2" d="M736.597,-64.6027C768.705,-68.5278 804.985,-73.1982 838,-78 843.8,-78.8436 849.803,-79.7567 855.83,-80.7015"/>
<polygon fill="#9a32cd" stroke="#9a32cd" points="736.678,-61.0868 726.329,-63.3552 735.834,-68.0357 736.678,-61.0868"/>
<text text-anchor="middle" x="791" y="-81" font-family="Helvetica,sans-Serif" font-size="10.00"> myRenderedNodes</text>
</g>
<!-- Node8 -->
<g id="node8" class="node"><title>Node8</title>
<g id="a_node8"><a xlink:href="../../df/d84/classengine_1_1level_1_1_level.html" target="_top" xlink:title="engine.level.Level">
<polygon fill="white" stroke="black" points="593.5,-137.5 593.5,-156.5 694.5,-156.5 694.5,-137.5 593.5,-137.5"/>
<text text-anchor="middle" x="644" y="-144.5" font-family="Helvetica,sans-Serif" font-size="10.00">engine.level.Level</text>
</a>
</g>
</g>
<!-- Node8&#45;&gt;Node2 -->
<g id="edge19" class="edge"><title>Node8&#45;&gt;Node2</title>
<path fill="none" stroke="#9a32cd" stroke-dasharray="5,2" d="M704.644,-146.983C775.687,-147.545 897.848,-150.353 1002,-162 1044.84,-166.791 1092.4,-175.387 1130.06,-182.978"/>
<polygon fill="#9a32cd" stroke="#9a32cd" points="704.565,-143.483 694.542,-146.916 704.518,-150.483 704.565,-143.483"/>
<text text-anchor="middle" x="929" y="-165" font-family="Helvetica,sans-Serif" font-size="10.00"> myLevel</text>
</g>
<!-- Node8&#45;&gt;Node6 -->
<g id="edge8" class="edge"><title>Node8&#45;&gt;Node6</title>
<path fill="none" stroke="#9a32cd" stroke-dasharray="5,2" d="M704.794,-135.508C717.723,-133.028 731.318,-130.423 744,-128 780.89,-120.951 821.947,-113.139 855.901,-106.686"/>
<polygon fill="#9a32cd" stroke="#9a32cd" points="703.761,-132.142 694.6,-137.464 705.08,-139.017 703.761,-132.142"/>
<text text-anchor="middle" x="791" y="-131" font-family="Helvetica,sans-Serif" font-size="10.00"> myCurrentLevel</text>
</g>
<!-- Node9 -->
<g id="node9" class="node"><title>Node9</title>
<g id="a_node9"><a xlink:href="../../d3/d8d/classdata_1_1_observable.html" target="_top" xlink:title="data.Observable">
<polygon fill="white" stroke="black" points="277.5,-212.5 277.5,-231.5 372.5,-231.5 372.5,-212.5 277.5,-212.5"/>
<text text-anchor="middle" x="325" y="-219.5" font-family="Helvetica,sans-Serif" font-size="10.00">data.Observable</text>
</a>
</g>
</g>
<!-- Node9&#45;&gt;Node8 -->
<g id="edge9" class="edge"><title>Node9&#45;&gt;Node8</title>
<path fill="none" stroke="midnightblue" d="M382.875,-214.559C427.213,-208.104 490.095,-197.507 544,-183 570.667,-175.823 600.319,-164.588 620.157,-156.579"/>
<polygon fill="midnightblue" stroke="midnightblue" points="382.268,-211.11 372.865,-215.992 383.26,-218.039 382.268,-211.11"/>
</g>
<!-- Node10 -->
<g id="node10" class="node"><title>Node10</title>
<polygon fill="white" stroke="#bfbfbf" points="23,-212.5 23,-231.5 161,-231.5 161,-212.5 23,-212.5"/>
<text text-anchor="middle" x="92" y="-219.5" font-family="Helvetica,sans-Serif" font-size="10.00">Vector&lt; data.Observer &gt;</text>
</g>
<!-- Node10&#45;&gt;Node9 -->
<g id="edge10" class="edge"><title>Node10&#45;&gt;Node9</title>
<path fill="none" stroke="#9a32cd" stroke-dasharray="5,2" d="M171.318,-222C206.521,-222 246.882,-222 277.262,-222"/>
<polygon fill="#9a32cd" stroke="#9a32cd" points="171.058,-218.5 161.058,-222 171.058,-225.5 171.058,-218.5"/>
<text text-anchor="middle" x="213" y="-225" font-family="Helvetica,sans-Serif" font-size="10.00"> obs</text>
</g>
<!-- Node11 -->
<g id="node11" class="node"><title>Node11</title>
<g id="a_node11"><a xlink:href="../../dc/df6/interfaceengine_1_1game_object_1_1_identifiable.html" target="_top" xlink:title="engine.gameObject.Identifiable">
<polygon fill="white" stroke="black" points="242.5,-174.5 242.5,-193.5 407.5,-193.5 407.5,-174.5 242.5,-174.5"/>
<text text-anchor="middle" x="325" y="-181.5" font-family="Helvetica,sans-Serif" font-size="10.00">engine.gameObject.Identifiable</text>
</a>
</g>
</g>
<!-- Node11&#45;&gt;Node8 -->
<g id="edge11" class="edge"><title>Node11&#45;&gt;Node8</title>
<path fill="none" stroke="midnightblue" d="M417.9,-175.75C456.844,-171.988 502.686,-167.211 544,-162 560.126,-159.966 577.679,-157.417 593.465,-155"/>
<polygon fill="midnightblue" stroke="midnightblue" points="417.253,-172.296 407.633,-176.733 417.921,-179.264 417.253,-172.296"/>
</g>
<!-- Node12 -->
<g id="node12" class="node"><title>Node12</title>
<g id="a_node12"><a xlink:href="../../d4/dac/classengine_1_1game_object_1_1_identifier.html" target="_top" xlink:title="engine.gameObject.Identifier">
<polygon fill="white" stroke="black" points="247.5,-136.5 247.5,-155.5 402.5,-155.5 402.5,-136.5 247.5,-136.5"/>
<text text-anchor="middle" x="325" y="-143.5" font-family="Helvetica,sans-Serif" font-size="10.00">engine.gameObject.Identifier</text>
</a>
</g>
</g>
<!-- Node12&#45;&gt;Node8 -->
<g id="edge12" class="edge"><title>Node12&#45;&gt;Node8</title>
<path fill="none" stroke="#9a32cd" stroke-dasharray="5,2" d="M412.986,-146.274C470.906,-146.457 544.947,-146.691 593.147,-146.843"/>
<polygon fill="#9a32cd" stroke="#9a32cd" points="412.748,-142.774 402.737,-146.242 412.726,-149.774 412.748,-142.774"/>
<text text-anchor="middle" x="485" y="-150" font-family="Helvetica,sans-Serif" font-size="10.00"> myId</text>
</g>
<!-- Node13 -->
<g id="node13" class="node"><title>Node13</title>
<polygon fill="white" stroke="#bfbfbf" points="64,-136.5 64,-155.5 120,-155.5 120,-136.5 64,-136.5"/>
<text text-anchor="middle" x="92" y="-143.5" font-family="Helvetica,sans-Serif" font-size="10.00">Random</text>
</g>
<!-- Node13&#45;&gt;Node12 -->
<g id="edge13" class="edge"><title>Node13&#45;&gt;Node12</title>
<path fill="none" stroke="#9a32cd" stroke-dasharray="5,2" d="M130.511,-146C162.046,-146 208.136,-146 247.423,-146"/>
<polygon fill="#9a32cd" stroke="#9a32cd" points="130.406,-142.5 120.406,-146 130.406,-149.5 130.406,-142.5"/>
<text text-anchor="middle" x="213" y="-149" font-family="Helvetica,sans-Serif" font-size="10.00"> r</text>
</g>
<!-- Node14 -->
<g id="node14" class="node"><title>Node14</title>
<g id="a_node14"><a xlink:href="../../d1/d32/classauthoring_1_1model_1_1collections_1_1_game_objects_collection.html" target="_top" xlink:title="authoring.model.collections.\lGameObjectsCollection">
<polygon fill="white" stroke="black" points="249,-87 249,-117 401,-117 401,-87 249,-87"/>
<text text-anchor="start" x="257" y="-105" font-family="Helvetica,sans-Serif" font-size="10.00">authoring.model.collections.</text>
<text text-anchor="middle" x="325" y="-94" font-family="Helvetica,sans-Serif" font-size="10.00">GameObjectsCollection</text>
</a>
</g>
</g>
<!-- Node14&#45;&gt;Node8 -->
<g id="edge14" class="edge"><title>Node14&#45;&gt;Node8</title>
<path fill="none" stroke="#9a32cd" stroke-dasharray="5,2" d="M411.163,-106.058C451.618,-108.842 500.522,-113.452 544,-121 567.111,-125.012 592.71,-131.799 612.087,-137.433"/>
<polygon fill="#9a32cd" stroke="#9a32cd" points="411.278,-102.558 401.068,-105.389 410.815,-109.543 411.278,-102.558"/>
<text text-anchor="middle" x="485" y="-135" font-family="Helvetica,sans-Serif" font-size="10.00"> myDefaultGameObjects</text>
<text text-anchor="middle" x="485" y="-124" font-family="Helvetica,sans-Serif" font-size="10.00">myWorkingGameObjects</text>
</g>
<!-- Node15 -->
<g id="node15" class="node"><title>Node15</title>
<g id="a_node15"><a xlink:href="../../d4/d3b/classauthoring_1_1model_1_1collections_1_1_general_collection.html" target="_top" xlink:title="authoring.model.collections.\lGeneralCollection\&lt; GameObject \&gt;">
<polygon fill="white" stroke="black" points="0.5,-87 0.5,-117 183.5,-117 183.5,-87 0.5,-87"/>
<text text-anchor="start" x="8.5" y="-105" font-family="Helvetica,sans-Serif" font-size="10.00">authoring.model.collections.</text>
<text text-anchor="middle" x="92" y="-94" font-family="Helvetica,sans-Serif" font-size="10.00">GeneralCollection&lt; GameObject &gt;</text>
</a>
</g>
</g>
<!-- Node15&#45;&gt;Node14 -->
<g id="edge15" class="edge"><title>Node15&#45;&gt;Node14</title>
<path fill="none" stroke="midnightblue" d="M193.843,-102C212.335,-102 231.337,-102 248.91,-102"/>
<polygon fill="midnightblue" stroke="midnightblue" points="193.634,-98.5001 183.634,-102 193.634,-105.5 193.634,-98.5001"/>
</g>
<!-- Node16 -->
<g id="node16" class="node"><title>Node16</title>
<polygon fill="white" stroke="#bfbfbf" points="254.5,-38 254.5,-68 395.5,-68 395.5,-38 254.5,-38"/>
<text text-anchor="start" x="262.5" y="-56" font-family="Helvetica,sans-Serif" font-size="10.00">List&lt; engine.gameObject.</text>
<text text-anchor="middle" x="325" y="-45" font-family="Helvetica,sans-Serif" font-size="10.00">Identifier &gt;</text>
</g>
<!-- Node16&#45;&gt;Node8 -->
<g id="edge16" class="edge"><title>Node16&#45;&gt;Node8</title>
<path fill="none" stroke="#9a32cd" stroke-dasharray="5,2" d="M405.74,-46.3858C450.124,-46.6688 504.264,-53.9896 544,-82 558.297,-92.0782 548.91,-105.397 562,-117 572.549,-126.35 586.272,-132.879 599.416,-137.397"/>
<polygon fill="#9a32cd" stroke="#9a32cd" points="405.538,-42.8867 395.557,-46.4413 405.576,-49.8866 405.538,-42.8867"/>
<text text-anchor="middle" x="485" y="-96" font-family="Helvetica,sans-Serif" font-size="10.00"> myConditionIdList</text>
<text text-anchor="middle" x="485" y="-85" font-family="Helvetica,sans-Serif" font-size="10.00">myGameObjectIdList</text>
</g>
<!-- Node17 -->
<g id="node17" class="node"><title>Node17</title>
<polygon fill="white" stroke="#bfbfbf" points="621,-88.5 621,-107.5 667,-107.5 667,-88.5 621,-88.5"/>
<text text-anchor="middle" x="644" y="-95.5" font-family="Helvetica,sans-Serif" font-size="10.00">Group</text>
</g>
<!-- Node17&#45;&gt;Node6 -->
<g id="edge17" class="edge"><title>Node17&#45;&gt;Node6</title>
<path fill="none" stroke="#9a32cd" stroke-dasharray="5,2" d="M677.121,-96.4179C696.488,-95.5347 721.655,-94.512 744,-94 780.887,-93.1548 821.943,-92.8687 855.898,-92.8093"/>
<polygon fill="#9a32cd" stroke="#9a32cd" points="676.838,-92.9271 667.012,-96.89 677.165,-99.9195 676.838,-92.9271"/>
<text text-anchor="middle" x="791" y="-97" font-family="Helvetica,sans-Serif" font-size="10.00"> myCanvas</text>
</g>
<!-- Node18 -->
<g id="node18" class="node"><title>Node18</title>
<g id="a_node18"><a xlink:href="../../d9/db5/classengine_1_1_file_path_utility.html" target="_top" xlink:title="engine.FilePathUtility">
<polygon fill="white" stroke="black" points="586.5,-0.5 586.5,-19.5 701.5,-19.5 701.5,-0.5 586.5,-0.5"/>
<text text-anchor="middle" x="644" y="-7.5" font-family="Helvetica,sans-Serif" font-size="10.00">engine.FilePathUtility</text>
</a>
</g>
</g>
<!-- Node18&#45;&gt;Node6 -->
<g id="edge18" class="edge"><title>Node18&#45;&gt;Node6</title>
<path fill="none" stroke="#9a32cd" stroke-dasharray="5,2" d="M711.435,-20.8364C749.092,-27.8736 796.777,-38.2994 838,-52 859.019,-58.9857 881.708,-69.3419 899.046,-77.898"/>
<polygon fill="#9a32cd" stroke="#9a32cd" points="712.059,-17.3925 701.591,-19.0311 710.796,-24.2777 712.059,-17.3925"/>
<text text-anchor="middle" x="791" y="-55" font-family="Helvetica,sans-Serif" font-size="10.00"> myFilePathUtility</text>
</g>
</g>
</svg>
        <g id="navigator" transform="translate(0 0)" fill="#404254">
                <rect fill="#f2f5e9" fill-opacity="0.5" stroke="#606060" stroke-width=".5" x="0" y="0" width="60" height="60"/>
                <use id="zoomplus" xlink:href="#zoomPlus" x="17" y="9" onmousedown="handleZoom(evt,'in')"/>
                <use id="zoomminus" xlink:href="#zoomMin" x="42" y="9" onmousedown="handleZoom(evt,'out')"/>
                <use id="reset" xlink:href="#resetDef" x="30" y="36" onmousedown="handleReset()"/>
                <g id="arrowUp" xlink:href="#dirArrow" transform="translate(30 24)" onmousedown="handlePan(0,-1)">
                  <use xlink:href="#rim" fill="#404040">
                        <set attributeName="fill" to="#808080" begin="arrowUp.mouseover" end="arrowUp.mouseout"/>
                  </use>
                  <path fill="none" stroke="white" stroke-width="1.5" d="M0,-3.0v7 M-2.5,-0.5L0,-3.0L2.5,-0.5"/>
                </g>
                <g id="arrowRight" xlink:href="#dirArrow" transform="rotate(90) translate(36 -43)" onmousedown="handlePan(1,0)">
                  <use xlink:href="#rim" fill="#404040">
                        <set attributeName="fill" to="#808080" begin="arrowRight.mouseover" end="arrowRight.mouseout"/>
                  </use>
                  <path fill="none" stroke="white" stroke-width="1.5" d="M0,-3.0v7 M-2.5,-0.5L0,-3.0L2.5,-0.5"/>
                </g>
                <g id="arrowDown" xlink:href="#dirArrow" transform="rotate(180) translate(-30 -48)" onmousedown="handlePan(0,1)">
                  <use xlink:href="#rim" fill="#404040">
                        <set attributeName="fill" to="#808080" begin="arrowDown.mouseover" end="arrowDown.mouseout"/>
                  </use>
                  <path fill="none" stroke="white" stroke-width="1.5" d="M0,-3.0v7 M-2.5,-0.5L0,-3.0L2.5,-0.5"/>
                </g>
                <g id="arrowLeft" xlink:href="#dirArrow" transform="rotate(270) translate(-36 17)" onmousedown="handlePan(-1,0)">
                  <use xlink:href="#rim" fill="#404040">
                        <set attributeName="fill" to="#808080" begin="arrowLeft.mouseover" end="arrowLeft.mouseout"/>
                  </use>
                  <path fill="none" stroke="white" stroke-width="1.5" d="M0,-3.0v7 M-2.5,-0.5L0,-3.0L2.5,-0.5"/>
                </g>
        </g>
        <svg viewBox="0 0 15 15" width="100%" height="30px" preserveAspectRatio="xMaxYMin meet">
         <g id="arrow_out" transform="scale(0.3 0.3)">
          <a xlink:href="classengine_1_1actions_1_1render_1_1_erase_canvas__coll__graph_org.svg" target="_base">
           <rect id="button" ry="5" rx="5" y="6" x="6" height="38" width="38"
                fill="#f2f5e9" fill-opacity="0.5" stroke="#606060" stroke-width="1.0"/>
           <path id="arrow"
             d="M 11.500037,31.436501 C 11.940474,20.09759 22.043105,11.32322 32.158766,21.979434 L 37.068811,17.246167 C 37.068811,17.246167 37.088388,32 37.088388,32 L 22.160133,31.978069 C 22.160133,31.978069 26.997745,27.140456 26.997745,27.140456 C 18.528582,18.264221 13.291696,25.230495 11.500037,31.436501 z"
             style="fill:#404040;"/>
          </a>
         </g>
        </svg>
</svg>
