<?xml version="1.0" encoding="UTF-8" standalone="no"?>
<!DOCTYPE svg PUBLIC "-//W3C//DTD SVG 1.1//EN"
 "http://www.w3.org/Graphics/SVG/1.1/DTD/svg11.dtd">
<!-- Generated by graphviz version 2.36.0 (20140111.2315)
 -->
<!-- Title: authoring.view.graphicsview.ImagesView.setDragDrop Pages: 1 -->
<svg width="764pt" height="38pt"
 viewBox="0.00 0.00 764.00 38.00" xmlns="http://www.w3.org/2000/svg" xmlns:xlink="http://www.w3.org/1999/xlink">
<g id="graph0" class="graph" transform="scale(1 1) rotate(0) translate(4 34)">
<title>authoring.view.graphicsview.ImagesView.setDragDrop</title>
<polygon fill="white" stroke="none" points="-4,4 -4,-34 760,-34 760,4 -4,4"/>
<!-- Node1 -->
<g id="node1" class="node"><title>Node1</title>
<polygon fill="#bfbfbf" stroke="black" points="0.5,-0 0.5,-30 151.5,-30 151.5,-0 0.5,-0"/>
<text text-anchor="start" x="8.5" y="-18" font-family="Helvetica,sans-Serif" font-size="10.00">authoring.view.graphicsview.</text>
<text text-anchor="middle" x="76" y="-7" font-family="Helvetica,sans-Serif" font-size="10.00">ImagesView.setDragDrop</text>
</g>
<!-- Node2 -->
<g id="node2" class="node"><title>Node2</title>
<g id="a_node2"><a xlink:href="../../de/d41/classauthoring_1_1controller_1_1_authoring_controller.html#afa4d4de3a843b1f950f11839acfaef2b" target="_top" xlink:title="authoring.controller.Authoring\lController.initializeGameHandlers">
<polygon fill="white" stroke="black" points="188,-0 188,-30 364,-30 364,-0 188,-0"/>
<text text-anchor="start" x="196" y="-18" font-family="Helvetica,sans-Serif" font-size="10.00">authoring.controller.Authoring</text>
<text text-anchor="middle" x="276" y="-7" font-family="Helvetica,sans-Serif" font-size="10.00">Controller.initializeGameHandlers</text>
</a>
</g>
</g>
<!-- Node1&#45;&gt;Node2 -->
<g id="edge1" class="edge"><title>Node1&#45;&gt;Node2</title>
<path fill="none" stroke="midnightblue" d="M161.664,-15C170.333,-15 179.151,-15 187.846,-15"/>
<polygon fill="midnightblue" stroke="midnightblue" points="161.573,-11.5001 151.573,-15 161.573,-18.5001 161.573,-11.5001"/>
</g>
<!-- Node3 -->
<g id="node3" class="node"><title>Node3</title>
<g id="a_node3"><a xlink:href="../../de/d41/classauthoring_1_1controller_1_1_authoring_controller.html#a8efc17f104f4df42f385e8c7b25831e0" target="_top" xlink:title="authoring.controller.Authoring\lController.initializeView">
<polygon fill="white" stroke="black" points="400.5,-0 400.5,-30 559.5,-30 559.5,-0 400.5,-0"/>
<text text-anchor="start" x="408.5" y="-18" font-family="Helvetica,sans-Serif" font-size="10.00">authoring.controller.Authoring</text>
<text text-anchor="middle" x="480" y="-7" font-family="Helvetica,sans-Serif" font-size="10.00">Controller.initializeView</text>
</a>
</g>
</g>
<!-- Node2&#45;&gt;Node3 -->
<g id="edge2" class="edge"><title>Node2&#45;&gt;Node3</title>
<path fill="none" stroke="midnightblue" d="M374.361,-15C383.102,-15 391.879,-15 400.431,-15"/>
<polygon fill="midnightblue" stroke="midnightblue" points="374.132,-11.5001 364.132,-15 374.132,-18.5001 374.132,-11.5001"/>
</g>
<!-- Node4 -->
<g id="node4" class="node"><title>Node4</title>
<g id="a_node4"><a xlink:href="../../de/d41/classauthoring_1_1controller_1_1_authoring_controller.html#aa2e89dc7481c1e7deea1919eae007119" target="_top" xlink:title="authoring.controller.Authoring\lController.AuthoringController">
<polygon fill="white" stroke="black" points="596.5,-0 596.5,-30 755.5,-30 755.5,-0 596.5,-0"/>
<text text-anchor="start" x="604.5" y="-18" font-family="Helvetica,sans-Serif" font-size="10.00">authoring.controller.Authoring</text>
<text text-anchor="middle" x="676" y="-7" font-family="Helvetica,sans-Serif" font-size="10.00">Controller.AuthoringController</text>
</a>
</g>
</g>
<!-- Node3&#45;&gt;Node4 -->
<g id="edge3" class="edge"><title>Node3&#45;&gt;Node4</title>
<path fill="none" stroke="midnightblue" d="M569.895,-15C578.691,-15 587.577,-15 596.26,-15"/>
<polygon fill="midnightblue" stroke="midnightblue" points="569.628,-11.5001 559.628,-15 569.628,-18.5001 569.628,-11.5001"/>
</g>
</g>
</svg>
