<?xml version="1.0" encoding="UTF-8" standalone="no"?>
<!DOCTYPE svg PUBLIC "-//W3C//DTD SVG 1.1//EN"
 "http://www.w3.org/Graphics/SVG/1.1/DTD/svg11.dtd">
<!-- Generated by graphviz version 2.36.0 (20140111.2315)
 -->
<!-- Title: engine.actions.ScalarPhysicsAction Pages: 1 -->
<svg width="1114pt" height="136pt"
 viewBox="0.00 0.00 1114.00 136.00" xmlns="http://www.w3.org/2000/svg" xmlns:xlink="http://www.w3.org/1999/xlink">
<g id="graph0" class="graph" transform="scale(1 1) rotate(0) translate(4 132)">
<title>engine.actions.ScalarPhysicsAction</title>
<polygon fill="white" stroke="none" points="-4,4 -4,-132 1110,-132 1110,4 -4,4"/>
<!-- Node1 -->
<g id="node1" class="node"><title>Node1</title>
<polygon fill="#bfbfbf" stroke="black" points="752.5,-49 752.5,-79 907.5,-79 907.5,-49 752.5,-49"/>
<text text-anchor="start" x="760.5" y="-67" font-family="Helvetica,sans-Serif" font-size="10.00">engine.actions.ScalarPhysics</text>
<text text-anchor="middle" x="830" y="-56" font-family="Helvetica,sans-Serif" font-size="10.00">Action</text>
</g>
<!-- Node6 -->
<g id="node6" class="node"><title>Node6</title>
<g id="a_node6"><a xlink:href="../../da/d7b/classengine_1_1actions_1_1_density_physics_action.html" target="_top" xlink:title="engine.actions.DensityPhysics\lAction">
<polygon fill="white" stroke="black" points="944.5,-98 944.5,-128 1105.5,-128 1105.5,-98 944.5,-98"/>
<text text-anchor="start" x="952.5" y="-116" font-family="Helvetica,sans-Serif" font-size="10.00">engine.actions.DensityPhysics</text>
<text text-anchor="middle" x="1025" y="-105" font-family="Helvetica,sans-Serif" font-size="10.00">Action</text>
</a>
</g>
</g>
<!-- Node1&#45;&gt;Node6 -->
<g id="edge6" class="edge"><title>Node1&#45;&gt;Node6</title>
<path fill="none" stroke="midnightblue" d="M900.125,-81.5498C921.319,-86.9306 944.433,-92.799 964.894,-97.9938"/>
<polygon fill="midnightblue" stroke="midnightblue" points="900.772,-78.1031 890.218,-79.0346 899.049,-84.8879 900.772,-78.1031"/>
</g>
<!-- Node7 -->
<g id="node7" class="node"><title>Node7</title>
<g id="a_node7"><a xlink:href="../../d8/d27/classengine_1_1actions_1_1_mass_physics_action.html" target="_top" xlink:title="engine.actions.MassPhysics\lAction">
<polygon fill="white" stroke="black" points="950.5,-49 950.5,-79 1099.5,-79 1099.5,-49 950.5,-49"/>
<text text-anchor="start" x="958.5" y="-67" font-family="Helvetica,sans-Serif" font-size="10.00">engine.actions.MassPhysics</text>
<text text-anchor="middle" x="1025" y="-56" font-family="Helvetica,sans-Serif" font-size="10.00">Action</text>
</a>
</g>
</g>
<!-- Node1&#45;&gt;Node7 -->
<g id="edge7" class="edge"><title>Node1&#45;&gt;Node7</title>
<path fill="none" stroke="midnightblue" d="M917.889,-64C928.737,-64 939.749,-64 950.369,-64"/>
<polygon fill="midnightblue" stroke="midnightblue" points="917.556,-60.5001 907.556,-64 917.556,-67.5001 917.556,-60.5001"/>
</g>
<!-- Node8 -->
<g id="node8" class="node"><title>Node8</title>
<g id="a_node8"><a xlink:href="../../df/df6/classengine_1_1actions_1_1_volume_physics_action.html" target="_top" xlink:title="engine.actions.VolumePhysics\lAction">
<polygon fill="white" stroke="black" points="944.5,-0 944.5,-30 1105.5,-30 1105.5,-0 944.5,-0"/>
<text text-anchor="start" x="952.5" y="-18" font-family="Helvetica,sans-Serif" font-size="10.00">engine.actions.VolumePhysics</text>
<text text-anchor="middle" x="1025" y="-7" font-family="Helvetica,sans-Serif" font-size="10.00">Action</text>
</a>
</g>
</g>
<!-- Node1&#45;&gt;Node8 -->
<g id="edge8" class="edge"><title>Node1&#45;&gt;Node8</title>
<path fill="none" stroke="midnightblue" d="M900.125,-46.4502C921.319,-41.0694 944.433,-35.201 964.894,-30.0062"/>
<polygon fill="midnightblue" stroke="midnightblue" points="899.049,-43.1121 890.218,-48.9654 900.772,-49.8969 899.049,-43.1121"/>
</g>
<!-- Node2 -->
<g id="node2" class="node"><title>Node2</title>
<g id="a_node2"><a xlink:href="../../de/d9e/classengine_1_1actions_1_1_physics_component_action.html" target="_top" xlink:title="engine.actions.PhysicsComponent\lAction">
<polygon fill="white" stroke="black" points="534.5,-49 534.5,-79 715.5,-79 715.5,-49 534.5,-49"/>
<text text-anchor="start" x="542.5" y="-67" font-family="Helvetica,sans-Serif" font-size="10.00">engine.actions.PhysicsComponent</text>
<text text-anchor="middle" x="625" y="-56" font-family="Helvetica,sans-Serif" font-size="10.00">Action</text>
</a>
</g>
</g>
<!-- Node2&#45;&gt;Node1 -->
<g id="edge1" class="edge"><title>Node2&#45;&gt;Node1</title>
<path fill="none" stroke="midnightblue" d="M725.687,-64C734.615,-64 743.561,-64 752.25,-64"/>
<polygon fill="midnightblue" stroke="midnightblue" points="725.63,-60.5001 715.63,-64 725.63,-67.5001 725.63,-60.5001"/>
</g>
<!-- Node3 -->
<g id="node3" class="node"><title>Node3</title>
<g id="a_node3"><a xlink:href="../../de/d8e/classengine_1_1actions_1_1_physics_i_d_action.html" target="_top" xlink:title="engine.actions.PhysicsIDAction">
<polygon fill="white" stroke="black" points="334,-54.5 334,-73.5 498,-73.5 498,-54.5 334,-54.5"/>
<text text-anchor="middle" x="416" y="-61.5" font-family="Helvetica,sans-Serif" font-size="10.00">engine.actions.PhysicsIDAction</text>
</a>
</g>
</g>
<!-- Node3&#45;&gt;Node2 -->
<g id="edge2" class="edge"><title>Node3&#45;&gt;Node2</title>
<path fill="none" stroke="midnightblue" d="M508.335,-64C517.012,-64 525.804,-64 534.464,-64"/>
<polygon fill="midnightblue" stroke="midnightblue" points="508.218,-60.5001 498.218,-64 508.218,-67.5001 508.218,-60.5001"/>
</g>
<!-- Node4 -->
<g id="node4" class="node"><title>Node4</title>
<g id="a_node4"><a xlink:href="../../d9/dd2/interfaceengine_1_1actions_1_1_action.html" target="_top" xlink:title="engine.actions.Action">
<polygon fill="white" stroke="black" points="178.5,-35.5 178.5,-54.5 297.5,-54.5 297.5,-35.5 178.5,-35.5"/>
<text text-anchor="middle" x="238" y="-42.5" font-family="Helvetica,sans-Serif" font-size="10.00">engine.actions.Action</text>
</a>
</g>
</g>
<!-- Node4&#45;&gt;Node3 -->
<g id="edge3" class="edge"><title>Node4&#45;&gt;Node3</title>
<path fill="none" stroke="midnightblue" d="M307.554,-52.4008C316.149,-53.3286 325.004,-54.2846 333.77,-55.2308"/>
<polygon fill="midnightblue" stroke="midnightblue" points="307.923,-48.9203 297.605,-51.3267 307.172,-55.8799 307.923,-48.9203"/>
</g>
<!-- Node5 -->
<g id="node5" class="node"><title>Node5</title>
<g id="a_node5"><a xlink:href="../../d2/d15/interfaceengine_1_1actions_1_1_initializable.html" target="_top" xlink:title="engine.actions.Initializable">
<polygon fill="white" stroke="black" points="0,-54.5 0,-73.5 142,-73.5 142,-54.5 0,-54.5"/>
<text text-anchor="middle" x="71" y="-61.5" font-family="Helvetica,sans-Serif" font-size="10.00">engine.actions.Initializable</text>
</a>
</g>
</g>
<!-- Node5&#45;&gt;Node3 -->
<g id="edge5" class="edge"><title>Node5&#45;&gt;Node3</title>
<path fill="none" stroke="midnightblue" d="M152.565,-64C207.136,-64 278.989,-64 333.711,-64"/>
<polygon fill="midnightblue" stroke="midnightblue" points="152.239,-60.5001 142.239,-64 152.239,-67.5001 152.239,-60.5001"/>
</g>
<!-- Node5&#45;&gt;Node4 -->
<g id="edge4" class="edge"><title>Node5&#45;&gt;Node4</title>
<path fill="none" stroke="midnightblue" d="M152.638,-54.7145C161.344,-53.7119 170.077,-52.7062 178.451,-51.742"/>
<polygon fill="midnightblue" stroke="midnightblue" points="151.987,-51.2661 142.453,-55.8872 152.788,-58.2202 151.987,-51.2661"/>
</g>
</g>
</svg>
