<?xml version="1.0" encoding="UTF-8" standalone="no"?>
<!DOCTYPE svg PUBLIC "-//W3C//DTD SVG 1.1//EN"
 "http://www.w3.org/Graphics/SVG/1.1/DTD/svg11.dtd">
<!-- Generated by graphviz version 2.36.0 (20140111.2315)
 -->
<!-- Title: engine.actions.MakeNewRandomObjectAction.makeRandomObject Pages: 1 -->
<!--zoomable 647 -->
<svg id="main" version="1.1" xmlns="http://www.w3.org/2000/svg" xmlns:xlink="http://www.w3.org/1999/xlink" xml:space="preserve" onload="init(evt)">
<style type="text/css"><![CDATA[
.edge:hover path { stroke: red; }
.edge:hover polygon { stroke: red; fill: red; }
]]></style>
<script type="text/javascript"><![CDATA[
var edges = document.getElementsByTagName('g');
if (edges && edges.length) {
  for (var i=0;i<edges.length;i++) {
    if (edges[i].id.substr(0,4)=='edge') {
      edges[i].setAttribute('class','edge');
    }
  }
}
]]></script>
        <defs>
                <circle id="rim" cx="0" cy="0" r="7"/>
                <circle id="rim2" cx="0" cy="0" r="3.5"/>
                <g id="zoomPlus">
                        <use xlink:href="#rim" fill="#404040">
                                <set attributeName="fill" to="#808080" begin="zoomplus.mouseover" end="zoomplus.mouseout"/>
                        </use>
                        <path d="M-4,0h8M0,-4v8" fill="none" stroke="white" stroke-width="1.5" pointer-events="none"/>
                </g>
                <g id="zoomMin">
                        <use xlink:href="#rim" fill="#404040">
                                <set attributeName="fill" to="#808080" begin="zoomminus.mouseover" end="zoomminus.mouseout"/>
                        </use>
                        <path d="M-4,0h8" fill="none" stroke="white" stroke-width="1.5" pointer-events="none"/>
                </g>
                <g id="dirArrow">
                        <path fill="none" stroke="white" stroke-width="1.5" d="M0,-3.0v7 M-2.5,-0.5L0,-3.0L2.5,-0.5"/>
                </g>
               <g id="resetDef">
                       <use xlink:href="#rim2" fill="#404040">
                               <set attributeName="fill" to="#808080" begin="reset.mouseover" end="reset.mouseout"/>
                       </use>
               </g>
        </defs>

<script type="text/javascript">
var viewWidth = 902;
var viewHeight = 647;
var sectionId = 'dynsection-3';
</script>
<script xlink:href="../../svgpan.js"/>
<svg id="graph" class="graph">
<g id="viewport">
<title>engine.actions.MakeNewRandomObjectAction.makeRandomObject</title>
<polygon fill="white" stroke="none" points="-4,4 -4,-643 898,-643 898,4 -4,4"/>
<!-- Node1 -->
<g id="node1" class="node"><title>Node1</title>
<polygon fill="#bfbfbf" stroke="black" points="0,-247 0,-277 178,-277 178,-247 0,-247"/>
<text text-anchor="start" x="8" y="-265" font-family="Helvetica,sans-Serif" font-size="10.00">engine.actions.MakeNewRandom</text>
<text text-anchor="middle" x="89" y="-254" font-family="Helvetica,sans-Serif" font-size="10.00">ObjectAction.makeRandomObject</text>
</g>
<!-- Node2 -->
<g id="node2" class="node"><title>Node2</title>
<g id="a_node2"><a xlink:href="../../df/d84/classengine_1_1level_1_1_level.html#a0e3c5bae8948f49ede9e5a87f197581b" target="_top" xlink:title="engine.level.Level.addGame\lObject">
<polygon fill="white" stroke="black" points="245,-545 245,-575 397,-575 397,-545 245,-545"/>
<text text-anchor="start" x="253" y="-563" font-family="Helvetica,sans-Serif" font-size="10.00">engine.level.Level.addGame</text>
<text text-anchor="middle" x="321" y="-552" font-family="Helvetica,sans-Serif" font-size="10.00">Object</text>
</a>
</g>
</g>
<!-- Node1&#45;&gt;Node2 -->
<g id="edge1" class="edge"><title>Node1&#45;&gt;Node2</title>
<path fill="none" stroke="midnightblue" d="M101.722,-277.188C139.25,-325.811 256.621,-477.883 301.916,-536.57"/>
<polygon fill="midnightblue" stroke="midnightblue" points="299.421,-539.065 308.302,-544.843 304.962,-534.788 299.421,-539.065"/>
</g>
<!-- Node6 -->
<g id="node6" class="node"><title>Node6</title>
<g id="a_node6"><a xlink:href="../../df/de5/classengine_1_1render_1_1_game_object_renderer.html#a745cb65a5425a20a1b5063068ef1314a" target="_top" xlink:title="engine.render.GameObject\lRenderer.createAndAssignRenderedNode">
<polygon fill="white" stroke="black" points="214.5,-272 214.5,-302 427.5,-302 427.5,-272 214.5,-272"/>
<text text-anchor="start" x="222.5" y="-290" font-family="Helvetica,sans-Serif" font-size="10.00">engine.render.GameObject</text>
<text text-anchor="middle" x="321" y="-279" font-family="Helvetica,sans-Serif" font-size="10.00">Renderer.createAndAssignRenderedNode</text>
</a>
</g>
</g>
<!-- Node1&#45;&gt;Node6 -->
<g id="edge5" class="edge"><title>Node1&#45;&gt;Node6</title>
<path fill="none" stroke="midnightblue" d="M178.266,-271.594C186.734,-272.515 195.407,-273.457 204.086,-274.401"/>
<polygon fill="midnightblue" stroke="midnightblue" points="203.947,-277.906 214.267,-275.507 204.704,-270.947 203.947,-277.906"/>
</g>
<!-- Node26 -->
<g id="node26" class="node"><title>Node26</title>
<g id="a_node26"><a xlink:href="../../d0/d7f/classengine_1_1game_object_1_1_game_object.html#a9a4690b212ecad4060ce8f9abbcedba5" target="_top" xlink:title="engine.gameObject.GameObject.set\lIdentifier">
<polygon fill="white" stroke="black" points="225.5,-223 225.5,-253 416.5,-253 416.5,-223 225.5,-223"/>
<text text-anchor="start" x="233.5" y="-241" font-family="Helvetica,sans-Serif" font-size="10.00">engine.gameObject.GameObject.set</text>
<text text-anchor="middle" x="321" y="-230" font-family="Helvetica,sans-Serif" font-size="10.00">Identifier</text>
</a>
</g>
</g>
<!-- Node1&#45;&gt;Node26 -->
<g id="edge27" class="edge"><title>Node1&#45;&gt;Node26</title>
<path fill="none" stroke="midnightblue" d="M178.266,-252.79C190.341,-251.53 202.831,-250.226 215.165,-248.939"/>
<polygon fill="midnightblue" stroke="midnightblue" points="215.893,-252.382 225.475,-247.863 215.166,-245.42 215.893,-252.382"/>
</g>
<!-- Node27 -->
<g id="node27" class="node"><title>Node27</title>
<g id="a_node27"><a xlink:href="../../d0/d7f/classengine_1_1game_object_1_1_game_object.html#ab9b1029f6d5a8a7eb563d5e6e1dcf570" target="_top" xlink:title="engine.gameObject.GameObject.set\lPhysicsBody">
<polygon fill="white" stroke="black" points="225.5,-174 225.5,-204 416.5,-204 416.5,-174 225.5,-174"/>
<text text-anchor="start" x="233.5" y="-192" font-family="Helvetica,sans-Serif" font-size="10.00">engine.gameObject.GameObject.set</text>
<text text-anchor="middle" x="321" y="-181" font-family="Helvetica,sans-Serif" font-size="10.00">PhysicsBody</text>
</a>
</g>
</g>
<!-- Node1&#45;&gt;Node27 -->
<g id="edge28" class="edge"><title>Node1&#45;&gt;Node27</title>
<path fill="none" stroke="midnightblue" d="M123.97,-246.937C148.61,-236.418 182.925,-222.595 214,-213 221.352,-210.73 229.052,-208.574 236.802,-206.553"/>
<polygon fill="midnightblue" stroke="midnightblue" points="237.788,-209.914 246.623,-204.068 236.07,-203.128 237.788,-209.914"/>
</g>
<!-- Node3 -->
<g id="node3" class="node"><title>Node3</title>
<g id="a_node3"><a xlink:href="../../d4/d3b/classauthoring_1_1model_1_1collections_1_1_general_collection.html#a1bdc1047736bbb23259d6a7fe4c6deeb" target="_top" xlink:title="authoring.model.collections.\lGeneralCollection.add">
<polygon fill="white" stroke="black" points="489,-608 489,-638 641,-638 641,-608 489,-608"/>
<text text-anchor="start" x="497" y="-626" font-family="Helvetica,sans-Serif" font-size="10.00">authoring.model.collections.</text>
<text text-anchor="middle" x="565" y="-615" font-family="Helvetica,sans-Serif" font-size="10.00">GeneralCollection.add</text>
</a>
</g>
</g>
<!-- Node2&#45;&gt;Node3 -->
<g id="edge2" class="edge"><title>Node2&#45;&gt;Node3</title>
<path fill="none" stroke="midnightblue" d="M377.241,-575.01C403.498,-582.086 435.341,-590.583 464,-598 473.485,-600.455 483.487,-603.003 493.351,-605.492"/>
<polygon fill="midnightblue" stroke="midnightblue" points="492.593,-608.911 503.145,-607.956 494.301,-602.122 492.593,-608.911"/>
</g>
<!-- Node4 -->
<g id="node4" class="node"><title>Node4</title>
<g id="a_node4"><a xlink:href="../../d3/d8d/classdata_1_1_observable.html#a6da70e44050d139f40cf07384484f51d" target="_top" xlink:title="data.Observable.setChanged">
<polygon fill="white" stroke="black" points="487,-569.5 487,-588.5 643,-588.5 643,-569.5 487,-569.5"/>
<text text-anchor="middle" x="565" y="-576.5" font-family="Helvetica,sans-Serif" font-size="10.00">data.Observable.setChanged</text>
</a>
</g>
</g>
<!-- Node2&#45;&gt;Node4 -->
<g id="edge3" class="edge"><title>Node2&#45;&gt;Node4</title>
<path fill="none" stroke="midnightblue" d="M397.244,-565.908C422.354,-567.879 450.548,-570.093 476.507,-572.131"/>
<polygon fill="midnightblue" stroke="midnightblue" points="476.472,-575.639 486.715,-572.932 477.02,-568.66 476.472,-575.639"/>
</g>
<!-- Node5 -->
<g id="node5" class="node"><title>Node5</title>
<g id="a_node5"><a xlink:href="../../d3/d8d/classdata_1_1_observable.html#a120384f9a41245899f05bb1a4c36ac4d" target="_top" xlink:title="data.Observable.notifyObservers">
<polygon fill="white" stroke="black" points="478.5,-531.5 478.5,-550.5 651.5,-550.5 651.5,-531.5 478.5,-531.5"/>
<text text-anchor="middle" x="565" y="-538.5" font-family="Helvetica,sans-Serif" font-size="10.00">data.Observable.notifyObservers</text>
</a>
</g>
</g>
<!-- Node2&#45;&gt;Node5 -->
<g id="edge4" class="edge"><title>Node2&#45;&gt;Node5</title>
<path fill="none" stroke="midnightblue" d="M397.244,-554.092C419.704,-552.329 444.631,-550.372 468.219,-548.52"/>
<polygon fill="midnightblue" stroke="midnightblue" points="468.54,-552.006 478.235,-547.734 467.992,-545.027 468.54,-552.006"/>
</g>
<!-- Node7 -->
<g id="node7" class="node"><title>Node7</title>
<g id="a_node7"><a xlink:href="../../d2/d82/classengine_1_1render_1_1_rendered_node.html#a520a8c03b505d10c69e010e603cadfdd" target="_top" xlink:title="engine.render.RenderedNode.set\lImageView">
<polygon fill="white" stroke="black" points="478,-73 478,-103 652,-103 652,-73 478,-73"/>
<text text-anchor="start" x="486" y="-91" font-family="Helvetica,sans-Serif" font-size="10.00">engine.render.RenderedNode.set</text>
<text text-anchor="middle" x="565" y="-80" font-family="Helvetica,sans-Serif" font-size="10.00">ImageView</text>
</a>
</g>
</g>
<!-- Node6&#45;&gt;Node7 -->
<g id="edge6" class="edge"><title>Node6&#45;&gt;Node7</title>
<path fill="none" stroke="midnightblue" d="M415.547,-271.723C420.051,-268.954 424.249,-265.736 428,-262 476.574,-213.616 415.521,-160.479 464,-112 465.641,-110.359 467.374,-108.822 469.184,-107.384"/>
<polygon fill="midnightblue" stroke="midnightblue" points="471.267,-110.201 477.576,-101.69 467.336,-104.408 471.267,-110.201"/>
</g>
<!-- Node8 -->
<g id="node8" class="node"><title>Node8</title>
<g id="a_node8"><a xlink:href="../../df/de5/classengine_1_1render_1_1_game_object_renderer.html#a72580570f971246ef79428f21b6d25e9" target="_top" xlink:title="engine.render.GameObject\lRenderer.createImageAndView">
<polygon fill="white" stroke="black" points="483.5,-24 483.5,-54 646.5,-54 646.5,-24 483.5,-24"/>
<text text-anchor="start" x="491.5" y="-42" font-family="Helvetica,sans-Serif" font-size="10.00">engine.render.GameObject</text>
<text text-anchor="middle" x="565" y="-31" font-family="Helvetica,sans-Serif" font-size="10.00">Renderer.createImageAndView</text>
</a>
</g>
</g>
<!-- Node6&#45;&gt;Node8 -->
<g id="edge7" class="edge"><title>Node6&#45;&gt;Node8</title>
<path fill="none" stroke="midnightblue" d="M415.803,-271.971C420.242,-269.14 424.356,-265.841 428,-262 489.86,-196.794 402.268,-128.327 464,-63 467.19,-59.624 470.765,-56.6863 474.613,-54.1327"/>
<polygon fill="midnightblue" stroke="midnightblue" points="476.456,-57.1111 483.43,-49.1349 473.004,-51.0214 476.456,-57.1111"/>
</g>
<!-- Node13 -->
<g id="node13" class="node"><title>Node13</title>
<g id="a_node13"><a xlink:href="../../d2/d82/classengine_1_1render_1_1_rendered_node.html#ad73c81ad48b40faea3818c9a7bbfdcf0" target="_top" xlink:title="engine.render.RenderedNode.set\lCollisionBody">
<polygon fill="white" stroke="black" points="478,-433 478,-463 652,-463 652,-433 478,-433"/>
<text text-anchor="start" x="486" y="-451" font-family="Helvetica,sans-Serif" font-size="10.00">engine.render.RenderedNode.set</text>
<text text-anchor="middle" x="565" y="-440" font-family="Helvetica,sans-Serif" font-size="10.00">CollisionBody</text>
</a>
</g>
</g>
<!-- Node6&#45;&gt;Node13 -->
<g id="edge12" class="edge"><title>Node6&#45;&gt;Node13</title>
<path fill="none" stroke="midnightblue" d="M333.429,-302.311C355.436,-330.663 406.622,-391.326 464,-423 468.186,-425.311 472.587,-427.412 477.114,-429.321"/>
<polygon fill="midnightblue" stroke="midnightblue" points="475.962,-432.628 486.552,-432.977 478.491,-426.101 475.962,-432.628"/>
</g>
<!-- Node14 -->
<g id="node14" class="node"><title>Node14</title>
<g id="a_node14"><a xlink:href="../../df/de5/classengine_1_1render_1_1_game_object_renderer.html#a25493ea430dbd3c6094434ba60e98662" target="_top" xlink:title="engine.render.GameObject\lRenderer.createCollisionBody">
<polygon fill="white" stroke="black" points="487.5,-482 487.5,-512 642.5,-512 642.5,-482 487.5,-482"/>
<text text-anchor="start" x="495.5" y="-500" font-family="Helvetica,sans-Serif" font-size="10.00">engine.render.GameObject</text>
<text text-anchor="middle" x="565" y="-489" font-family="Helvetica,sans-Serif" font-size="10.00">Renderer.createCollisionBody</text>
</a>
</g>
</g>
<!-- Node6&#45;&gt;Node14 -->
<g id="edge13" class="edge"><title>Node6&#45;&gt;Node14</title>
<path fill="none" stroke="midnightblue" d="M329.161,-302.234C346.737,-337.89 395.613,-427.14 464,-472 468.377,-474.871 473.059,-477.412 477.919,-479.662"/>
<polygon fill="midnightblue" stroke="midnightblue" points="476.876,-483.019 487.453,-483.638 479.571,-476.558 476.876,-483.019"/>
</g>
<!-- Node18 -->
<g id="node18" class="node"><title>Node18</title>
<g id="a_node18"><a xlink:href="../../d2/d82/classengine_1_1render_1_1_rendered_node.html#a312c663dd1144ff206ecfa1ea8c95a81" target="_top" xlink:title="engine.render.RenderedNode.set\lLabel">
<polygon fill="white" stroke="black" points="478,-335 478,-365 652,-365 652,-335 478,-335"/>
<text text-anchor="start" x="486" y="-353" font-family="Helvetica,sans-Serif" font-size="10.00">engine.render.RenderedNode.set</text>
<text text-anchor="middle" x="565" y="-342" font-family="Helvetica,sans-Serif" font-size="10.00">Label</text>
</a>
</g>
</g>
<!-- Node6&#45;&gt;Node18 -->
<g id="edge17" class="edge"><title>Node6&#45;&gt;Node18</title>
<path fill="none" stroke="midnightblue" d="M377.241,-302.01C403.498,-309.086 435.341,-317.583 464,-325 473.485,-327.455 483.487,-330.003 493.351,-332.492"/>
<polygon fill="midnightblue" stroke="midnightblue" points="492.593,-335.911 503.145,-334.956 494.301,-329.122 492.593,-335.911"/>
</g>
<!-- Node19 -->
<g id="node19" class="node"><title>Node19</title>
<g id="a_node19"><a xlink:href="../../df/de5/classengine_1_1render_1_1_game_object_renderer.html#a1d5f0ad1a571faec3c1a364bccc4c038" target="_top" xlink:title="engine.render.GameObject\lRenderer.createLabel">
<polygon fill="white" stroke="black" points="492,-384 492,-414 638,-414 638,-384 492,-384"/>
<text text-anchor="start" x="500" y="-402" font-family="Helvetica,sans-Serif" font-size="10.00">engine.render.GameObject</text>
<text text-anchor="middle" x="565" y="-391" font-family="Helvetica,sans-Serif" font-size="10.00">Renderer.createLabel</text>
</a>
</g>
</g>
<!-- Node6&#45;&gt;Node19 -->
<g id="edge18" class="edge"><title>Node6&#45;&gt;Node19</title>
<path fill="none" stroke="midnightblue" d="M342.096,-302.068C368.683,-321.337 417.612,-354.533 464,-374 469.902,-376.477 476.106,-378.749 482.414,-380.827"/>
<polygon fill="midnightblue" stroke="midnightblue" points="481.794,-384.299 492.382,-383.931 483.875,-377.616 481.794,-384.299"/>
</g>
<!-- Node21 -->
<g id="node21" class="node"><title>Node21</title>
<g id="a_node21"><a xlink:href="../../d0/d7f/classengine_1_1game_object_1_1_game_object.html#a606c7293c2bfac0af1fb42143bf527f6" target="_top" xlink:title="engine.gameObject.GameObject.getX">
<polygon fill="white" stroke="black" points="466,-296.5 466,-315.5 664,-315.5 664,-296.5 466,-296.5"/>
<text text-anchor="middle" x="565" y="-303.5" font-family="Helvetica,sans-Serif" font-size="10.00">engine.gameObject.GameObject.getX</text>
</a>
</g>
</g>
<!-- Node6&#45;&gt;Node21 -->
<g id="edge22" class="edge"><title>Node6&#45;&gt;Node21</title>
<path fill="none" stroke="midnightblue" d="M427.793,-295.306C437.039,-296.032 446.406,-296.767 455.673,-297.495"/>
<polygon fill="midnightblue" stroke="midnightblue" points="455.436,-300.987 465.679,-298.281 455.984,-294.009 455.436,-300.987"/>
</g>
<!-- Node22 -->
<g id="node22" class="node"><title>Node22</title>
<g id="a_node22"><a xlink:href="../../d0/d7f/classengine_1_1game_object_1_1_game_object.html#a1988806ef560c9384f3844d0666a9450" target="_top" xlink:title="engine.gameObject.GameObject.getY">
<polygon fill="white" stroke="black" points="466.5,-258.5 466.5,-277.5 663.5,-277.5 663.5,-258.5 466.5,-258.5"/>
<text text-anchor="middle" x="565" y="-265.5" font-family="Helvetica,sans-Serif" font-size="10.00">engine.gameObject.GameObject.getY</text>
</a>
</g>
</g>
<!-- Node6&#45;&gt;Node22 -->
<g id="edge23" class="edge"><title>Node6&#45;&gt;Node22</title>
<path fill="none" stroke="midnightblue" d="M427.793,-278.694C437.226,-277.953 446.785,-277.203 456.235,-276.461"/>
<polygon fill="midnightblue" stroke="midnightblue" points="456.74,-279.932 466.435,-275.66 456.192,-272.954 456.74,-279.932"/>
</g>
<!-- Node23 -->
<g id="node23" class="node"><title>Node23</title>
<g id="a_node23"><a xlink:href="../../d0/d7f/classengine_1_1game_object_1_1_game_object.html#ae94fe532960bd29f64c2dc19ec0af798" target="_top" xlink:title="engine.gameObject.GameObject.getID">
<polygon fill="white" stroke="black" points="464,-220.5 464,-239.5 666,-239.5 666,-220.5 464,-220.5"/>
<text text-anchor="middle" x="565" y="-227.5" font-family="Helvetica,sans-Serif" font-size="10.00">engine.gameObject.GameObject.getID</text>
</a>
</g>
</g>
<!-- Node6&#45;&gt;Node23 -->
<g id="edge24" class="edge"><title>Node6&#45;&gt;Node23</title>
<path fill="none" stroke="midnightblue" d="M391.013,-271.937C403.394,-268.891 416.129,-265.53 428,-262 444.305,-257.151 447.592,-253.491 464,-249 474.075,-246.243 484.829,-243.745 495.411,-241.536"/>
<polygon fill="midnightblue" stroke="midnightblue" points="496.365,-244.914 505.476,-239.506 494.981,-238.052 496.365,-244.914"/>
</g>
<!-- Node24 -->
<g id="node24" class="node"><title>Node24</title>
<g id="a_node24"><a xlink:href="../../d0/d7f/classengine_1_1game_object_1_1_game_object.html#accd456b2eaab9c7056de825a28b066c8" target="_top" xlink:title="engine.gameObject.GameObject.get\lIdentifier">
<polygon fill="white" stroke="black" points="469,-171 469,-201 661,-201 661,-171 469,-171"/>
<text text-anchor="start" x="477" y="-189" font-family="Helvetica,sans-Serif" font-size="10.00">engine.gameObject.GameObject.get</text>
<text text-anchor="middle" x="565" y="-178" font-family="Helvetica,sans-Serif" font-size="10.00">Identifier</text>
</a>
</g>
</g>
<!-- Node6&#45;&gt;Node24 -->
<g id="edge25" class="edge"><title>Node6&#45;&gt;Node24</title>
<path fill="none" stroke="midnightblue" d="M409.535,-271.897C416.037,-269.131 422.28,-265.862 428,-262 450.994,-246.475 441.11,-226.679 464,-211 466.931,-208.992 470.009,-207.146 473.193,-205.448"/>
<polygon fill="midnightblue" stroke="midnightblue" points="474.899,-208.511 482.414,-201.043 471.882,-202.195 474.899,-208.511"/>
</g>
<!-- Node25 -->
<g id="node25" class="node"><title>Node25</title>
<g id="a_node25"><a xlink:href="../../d0/d7f/classengine_1_1game_object_1_1_game_object.html#ab09d473d8c2afe8cefb2ce2481bc66fd" target="_top" xlink:title="engine.gameObject.GameObject.set\lRenderedNode">
<polygon fill="white" stroke="black" points="469.5,-122 469.5,-152 660.5,-152 660.5,-122 469.5,-122"/>
<text text-anchor="start" x="477.5" y="-140" font-family="Helvetica,sans-Serif" font-size="10.00">engine.gameObject.GameObject.set</text>
<text text-anchor="middle" x="565" y="-129" font-family="Helvetica,sans-Serif" font-size="10.00">RenderedNode</text>
</a>
</g>
</g>
<!-- Node6&#45;&gt;Node25 -->
<g id="edge26" class="edge"><title>Node6&#45;&gt;Node25</title>
<path fill="none" stroke="midnightblue" d="M414.091,-271.794C419.081,-269.022 423.773,-265.783 428,-262 463.511,-230.22 428.551,-192.85 464,-161 465.162,-159.956 466.362,-158.955 467.594,-157.996"/>
<polygon fill="midnightblue" stroke="midnightblue" points="469.814,-160.722 476.176,-152.251 465.919,-154.905 469.814,-160.722"/>
</g>
<!-- Node9 -->
<g id="node9" class="node"><title>Node9</title>
<g id="a_node9"><a xlink:href="../../d0/d7f/classengine_1_1game_object_1_1_game_object.html#ae8b88e1cf489e935426e2e252defbae0" target="_top" xlink:title="engine.gameObject.GameObject.get\lCurrentImageName">
<polygon fill="white" stroke="black" points="702,-49 702,-79 894,-79 894,-49 702,-49"/>
<text text-anchor="start" x="710" y="-67" font-family="Helvetica,sans-Serif" font-size="10.00">engine.gameObject.GameObject.get</text>
<text text-anchor="middle" x="798" y="-56" font-family="Helvetica,sans-Serif" font-size="10.00">CurrentImageName</text>
</a>
</g>
</g>
<!-- Node8&#45;&gt;Node9 -->
<g id="edge8" class="edge"><title>Node8&#45;&gt;Node9</title>
<path fill="none" stroke="midnightblue" d="M646.793,-47.7438C661.275,-49.3111 676.56,-50.9653 691.614,-52.5946"/>
<polygon fill="midnightblue" stroke="midnightblue" points="691.668,-56.1207 701.986,-53.7171 692.421,-49.1614 691.668,-56.1207"/>
</g>
<!-- Node10 -->
<g id="node10" class="node"><title>Node10</title>
<g id="a_node10"><a xlink:href="../../d9/db5/classengine_1_1_file_path_utility.html#ad8a72da93bd719a750bd549ed92a37d7" target="_top" xlink:title="engine.FilePathUtility.get\lFilePath">
<polygon fill="white" stroke="black" points="732,-0 732,-30 864,-30 864,-0 732,-0"/>
<text text-anchor="start" x="740" y="-18" font-family="Helvetica,sans-Serif" font-size="10.00">engine.FilePathUtility.get</text>
<text text-anchor="middle" x="798" y="-7" font-family="Helvetica,sans-Serif" font-size="10.00">FilePath</text>
</a>
</g>
</g>
<!-- Node8&#45;&gt;Node10 -->
<g id="edge9" class="edge"><title>Node8&#45;&gt;Node10</title>
<path fill="none" stroke="midnightblue" d="M646.793,-30.606C671.155,-28.0748 697.788,-25.3077 721.773,-22.8158"/>
<polygon fill="midnightblue" stroke="midnightblue" points="722.291,-26.2809 731.875,-21.7662 721.567,-19.3184 722.291,-26.2809"/>
</g>
<!-- Node11 -->
<g id="node11" class="node"><title>Node11</title>
<g id="a_node11"><a xlink:href="../../d0/d7f/classengine_1_1game_object_1_1_game_object.html#aaeb5730a3b51fe9cb3d817ea7172cfc2" target="_top" xlink:title="engine.gameObject.GameObject.get\lHeight">
<polygon fill="white" stroke="black" points="702,-270 702,-300 894,-300 894,-270 702,-270"/>
<text text-anchor="start" x="710" y="-288" font-family="Helvetica,sans-Serif" font-size="10.00">engine.gameObject.GameObject.get</text>
<text text-anchor="middle" x="798" y="-277" font-family="Helvetica,sans-Serif" font-size="10.00">Height</text>
</a>
</g>
</g>
<!-- Node8&#45;&gt;Node11 -->
<g id="edge10" class="edge"><title>Node8&#45;&gt;Node11</title>
<path fill="none" stroke="midnightblue" d="M646.834,-50.3105C653.844,-53.6008 660.39,-57.7586 666,-63 705.133,-99.5645 675.634,-131.382 702,-178 720.625,-210.931 750.712,-242.549 772.031,-262.762"/>
<polygon fill="midnightblue" stroke="midnightblue" points="769.749,-265.419 779.451,-269.674 774.52,-260.297 769.749,-265.419"/>
</g>
<!-- Node12 -->
<g id="node12" class="node"><title>Node12</title>
<g id="a_node12"><a xlink:href="../../d0/d7f/classengine_1_1game_object_1_1_game_object.html#a31aa2c854220621b49fc5575b50b9342" target="_top" xlink:title="engine.gameObject.GameObject.get\lWidth">
<polygon fill="white" stroke="black" points="702,-139 702,-169 894,-169 894,-139 702,-139"/>
<text text-anchor="start" x="710" y="-157" font-family="Helvetica,sans-Serif" font-size="10.00">engine.gameObject.GameObject.get</text>
<text text-anchor="middle" x="798" y="-146" font-family="Helvetica,sans-Serif" font-size="10.00">Width</text>
</a>
</g>
</g>
<!-- Node8&#45;&gt;Node12 -->
<g id="edge11" class="edge"><title>Node8&#45;&gt;Node12</title>
<path fill="none" stroke="midnightblue" d="M641.814,-54.0078C650.126,-56.5873 658.342,-59.5681 666,-63 666.174,-63.0781 728.478,-106.374 767.089,-133.209"/>
<polygon fill="midnightblue" stroke="midnightblue" points="765.196,-136.157 775.405,-138.99 769.192,-130.409 765.196,-136.157"/>
</g>
<!-- Node15 -->
<g id="node15" class="node"><title>Node15</title>
<g id="a_node15"><a xlink:href="../../d0/d7f/classengine_1_1game_object_1_1_game_object.html#a60c5b6933aac9969491a3562a963c043" target="_top" xlink:title="engine.gameObject.GameObject.get\lPhysicsBody">
<polygon fill="white" stroke="black" points="702,-531 702,-561 894,-561 894,-531 702,-531"/>
<text text-anchor="start" x="710" y="-549" font-family="Helvetica,sans-Serif" font-size="10.00">engine.gameObject.GameObject.get</text>
<text text-anchor="middle" x="798" y="-538" font-family="Helvetica,sans-Serif" font-size="10.00">PhysicsBody</text>
</a>
</g>
</g>
<!-- Node14&#45;&gt;Node15 -->
<g id="edge14" class="edge"><title>Node14&#45;&gt;Node15</title>
<path fill="none" stroke="midnightblue" d="M636.877,-512.035C662.044,-517.373 690.55,-523.42 716.464,-528.917"/>
<polygon fill="midnightblue" stroke="midnightblue" points="715.748,-532.343 726.257,-530.994 717.201,-525.495 715.748,-532.343"/>
</g>
<!-- Node16 -->
<g id="node16" class="node"><title>Node16</title>
<g id="a_node16"><a xlink:href="../../d9/d9d/classengine_1_1game_object_1_1components_1_1_physics_body.html#aba2ed3bce8ee8e404907c88b144626fc" target="_top" xlink:title="engine.gameObject.components.\lPhysicsBody.getCollisionBodyHeight">
<polygon fill="white" stroke="black" points="704,-482 704,-512 892,-512 892,-482 704,-482"/>
<text text-anchor="start" x="712" y="-500" font-family="Helvetica,sans-Serif" font-size="10.00">engine.gameObject.components.</text>
<text text-anchor="middle" x="798" y="-489" font-family="Helvetica,sans-Serif" font-size="10.00">PhysicsBody.getCollisionBodyHeight</text>
</a>
</g>
</g>
<!-- Node14&#45;&gt;Node16 -->
<g id="edge15" class="edge"><title>Node14&#45;&gt;Node16</title>
<path fill="none" stroke="midnightblue" d="M642.599,-497C658.957,-497 676.494,-497 693.667,-497"/>
<polygon fill="midnightblue" stroke="midnightblue" points="693.726,-500.5 703.726,-497 693.726,-493.5 693.726,-500.5"/>
</g>
<!-- Node17 -->
<g id="node17" class="node"><title>Node17</title>
<g id="a_node17"><a xlink:href="../../d9/d9d/classengine_1_1game_object_1_1components_1_1_physics_body.html#ae64e43632570392c3118b3d00af853fc" target="_top" xlink:title="engine.gameObject.components.\lPhysicsBody.getCollisionBodyWidth">
<polygon fill="white" stroke="black" points="707,-433 707,-463 889,-463 889,-433 707,-433"/>
<text text-anchor="start" x="715" y="-451" font-family="Helvetica,sans-Serif" font-size="10.00">engine.gameObject.components.</text>
<text text-anchor="middle" x="798" y="-440" font-family="Helvetica,sans-Serif" font-size="10.00">PhysicsBody.getCollisionBodyWidth</text>
</a>
</g>
</g>
<!-- Node14&#45;&gt;Node17 -->
<g id="edge16" class="edge"><title>Node14&#45;&gt;Node17</title>
<path fill="none" stroke="midnightblue" d="M636.877,-481.965C662.044,-476.627 690.55,-470.58 716.464,-465.083"/>
<polygon fill="midnightblue" stroke="midnightblue" points="717.201,-468.505 726.257,-463.006 715.748,-461.657 717.201,-468.505"/>
</g>
<!-- Node19&#45;&gt;Node11 -->
<g id="edge20" class="edge"><title>Node19&#45;&gt;Node11</title>
<path fill="none" stroke="midnightblue" d="M638.054,-384.242C647.631,-381.343 657.18,-377.948 666,-374 705.457,-356.338 745.861,-326.8 771.166,-306.636"/>
<polygon fill="midnightblue" stroke="midnightblue" points="773.567,-309.195 779.145,-300.188 769.167,-303.751 773.567,-309.195"/>
</g>
<!-- Node19&#45;&gt;Node12 -->
<g id="edge21" class="edge"><title>Node19&#45;&gt;Node12</title>
<path fill="none" stroke="midnightblue" d="M638.089,-390.509C648.372,-386.728 658.115,-381.419 666,-374 704.697,-337.591 675.678,-306.155 702,-260 720.645,-227.307 750.728,-195.998 772.041,-175.996"/>
<polygon fill="midnightblue" stroke="midnightblue" points="774.479,-178.509 779.459,-169.157 769.734,-173.362 774.479,-178.509"/>
</g>
<!-- Node20 -->
<g id="node20" class="node"><title>Node20</title>
<g id="a_node20"><a xlink:href="../../d0/d7f/classengine_1_1game_object_1_1_game_object.html#a5c379828f3bb19a91935f965c48a91a5" target="_top" xlink:title="engine.gameObject.GameObject.get\lLabel">
<polygon fill="white" stroke="black" points="702,-384 702,-414 894,-414 894,-384 702,-384"/>
<text text-anchor="start" x="710" y="-402" font-family="Helvetica,sans-Serif" font-size="10.00">engine.gameObject.GameObject.get</text>
<text text-anchor="middle" x="798" y="-391" font-family="Helvetica,sans-Serif" font-size="10.00">Label</text>
</a>
</g>
</g>
<!-- Node19&#45;&gt;Node20 -->
<g id="edge19" class="edge"><title>Node19&#45;&gt;Node20</title>
<path fill="none" stroke="midnightblue" d="M638.14,-399C655.117,-399 673.557,-399 691.661,-399"/>
<polygon fill="midnightblue" stroke="midnightblue" points="691.673,-402.5 701.673,-399 691.673,-395.5 691.673,-402.5"/>
</g>
</g>
</svg>
        <g id="navigator" transform="translate(0 0)" fill="#404254">
                <rect fill="#f2f5e9" fill-opacity="0.5" stroke="#606060" stroke-width=".5" x="0" y="0" width="60" height="60"/>
                <use id="zoomplus" xlink:href="#zoomPlus" x="17" y="9" onmousedown="handleZoom(evt,'in')"/>
                <use id="zoomminus" xlink:href="#zoomMin" x="42" y="9" onmousedown="handleZoom(evt,'out')"/>
                <use id="reset" xlink:href="#resetDef" x="30" y="36" onmousedown="handleReset()"/>
                <g id="arrowUp" xlink:href="#dirArrow" transform="translate(30 24)" onmousedown="handlePan(0,-1)">
                  <use xlink:href="#rim" fill="#404040">
                        <set attributeName="fill" to="#808080" begin="arrowUp.mouseover" end="arrowUp.mouseout"/>
                  </use>
                  <path fill="none" stroke="white" stroke-width="1.5" d="M0,-3.0v7 M-2.5,-0.5L0,-3.0L2.5,-0.5"/>
                </g>
                <g id="arrowRight" xlink:href="#dirArrow" transform="rotate(90) translate(36 -43)" onmousedown="handlePan(1,0)">
                  <use xlink:href="#rim" fill="#404040">
                        <set attributeName="fill" to="#808080" begin="arrowRight.mouseover" end="arrowRight.mouseout"/>
                  </use>
                  <path fill="none" stroke="white" stroke-width="1.5" d="M0,-3.0v7 M-2.5,-0.5L0,-3.0L2.5,-0.5"/>
                </g>
                <g id="arrowDown" xlink:href="#dirArrow" transform="rotate(180) translate(-30 -48)" onmousedown="handlePan(0,1)">
                  <use xlink:href="#rim" fill="#404040">
                        <set attributeName="fill" to="#808080" begin="arrowDown.mouseover" end="arrowDown.mouseout"/>
                  </use>
                  <path fill="none" stroke="white" stroke-width="1.5" d="M0,-3.0v7 M-2.5,-0.5L0,-3.0L2.5,-0.5"/>
                </g>
                <g id="arrowLeft" xlink:href="#dirArrow" transform="rotate(270) translate(-36 17)" onmousedown="handlePan(-1,0)">
                  <use xlink:href="#rim" fill="#404040">
                        <set attributeName="fill" to="#808080" begin="arrowLeft.mouseover" end="arrowLeft.mouseout"/>
                  </use>
                  <path fill="none" stroke="white" stroke-width="1.5" d="M0,-3.0v7 M-2.5,-0.5L0,-3.0L2.5,-0.5"/>
                </g>
        </g>
        <svg viewBox="0 0 15 15" width="100%" height="30px" preserveAspectRatio="xMaxYMin meet">
         <g id="arrow_out" transform="scale(0.3 0.3)">
          <a xlink:href="classengine_1_1actions_1_1_make_new_random_object_action_a82ccd5604bd05170e416e41b32020f00_cgraph_org.svg" target="_base">
           <rect id="button" ry="5" rx="5" y="6" x="6" height="38" width="38"
                fill="#f2f5e9" fill-opacity="0.5" stroke="#606060" stroke-width="1.0"/>
           <path id="arrow"
             d="M 11.500037,31.436501 C 11.940474,20.09759 22.043105,11.32322 32.158766,21.979434 L 37.068811,17.246167 C 37.068811,17.246167 37.088388,32 37.088388,32 L 22.160133,31.978069 C 22.160133,31.978069 26.997745,27.140456 26.997745,27.140456 C 18.528582,18.264221 13.291696,25.230495 11.500037,31.436501 z"
             style="fill:#404040;"/>
          </a>
         </g>
        </svg>
</svg>
