<?xml version="1.0" encoding="UTF-8" standalone="no"?>
<!DOCTYPE svg PUBLIC "-//W3C//DTD SVG 1.1//EN"
 "http://www.w3.org/Graphics/SVG/1.1/DTD/svg11.dtd">
<!-- Generated by graphviz version 2.36.0 (20140111.2315)
 -->
<!-- Title: engine.actions.MakeNewRandomObjectAction.execute Pages: 1 -->
<!--zoomable 671 -->
<svg id="main" version="1.1" xmlns="http://www.w3.org/2000/svg" xmlns:xlink="http://www.w3.org/1999/xlink" xml:space="preserve" onload="init(evt)">
<style type="text/css"><![CDATA[
.edge:hover path { stroke: red; }
.edge:hover polygon { stroke: red; fill: red; }
]]></style>
<script type="text/javascript"><![CDATA[
var edges = document.getElementsByTagName('g');
if (edges && edges.length) {
  for (var i=0;i<edges.length;i++) {
    if (edges[i].id.substr(0,4)=='edge') {
      edges[i].setAttribute('class','edge');
    }
  }
}
]]></script>
        <defs>
                <circle id="rim" cx="0" cy="0" r="7"/>
                <circle id="rim2" cx="0" cy="0" r="3.5"/>
                <g id="zoomPlus">
                        <use xlink:href="#rim" fill="#404040">
                                <set attributeName="fill" to="#808080" begin="zoomplus.mouseover" end="zoomplus.mouseout"/>
                        </use>
                        <path d="M-4,0h8M0,-4v8" fill="none" stroke="white" stroke-width="1.5" pointer-events="none"/>
                </g>
                <g id="zoomMin">
                        <use xlink:href="#rim" fill="#404040">
                                <set attributeName="fill" to="#808080" begin="zoomminus.mouseover" end="zoomminus.mouseout"/>
                        </use>
                        <path d="M-4,0h8" fill="none" stroke="white" stroke-width="1.5" pointer-events="none"/>
                </g>
                <g id="dirArrow">
                        <path fill="none" stroke="white" stroke-width="1.5" d="M0,-3.0v7 M-2.5,-0.5L0,-3.0L2.5,-0.5"/>
                </g>
               <g id="resetDef">
                       <use xlink:href="#rim2" fill="#404040">
                               <set attributeName="fill" to="#808080" begin="reset.mouseover" end="reset.mouseout"/>
                       </use>
               </g>
        </defs>

<script type="text/javascript">
var viewWidth = 1114;
var viewHeight = 671;
var sectionId = 'dynsection-2';
</script>
<script xlink:href="../../svgpan.js"/>
<svg id="graph" class="graph">
<g id="viewport">
<title>engine.actions.MakeNewRandomObjectAction.execute</title>
<polygon fill="white" stroke="none" points="-4,4 -4,-667 1110,-667 1110,4 -4,4"/>
<!-- Node1 -->
<g id="node1" class="node"><title>Node1</title>
<polygon fill="#bfbfbf" stroke="black" points="0.5,-360 0.5,-390 175.5,-390 175.5,-360 0.5,-360"/>
<text text-anchor="start" x="8.5" y="-378" font-family="Helvetica,sans-Serif" font-size="10.00">engine.actions.MakeNewRandom</text>
<text text-anchor="middle" x="88" y="-367" font-family="Helvetica,sans-Serif" font-size="10.00">ObjectAction.execute</text>
</g>
<!-- Node2 -->
<g id="node2" class="node"><title>Node2</title>
<g id="a_node2"><a xlink:href="../../da/d16/classengine_1_1actions_1_1_make_new_random_object_action.html#a82ccd5604bd05170e416e41b32020f00" target="_top" xlink:title="engine.actions.MakeNewRandom\lObjectAction.makeRandomObject">
<polygon fill="white" stroke="black" points="212,-360 212,-390 390,-390 390,-360 212,-360"/>
<text text-anchor="start" x="220" y="-378" font-family="Helvetica,sans-Serif" font-size="10.00">engine.actions.MakeNewRandom</text>
<text text-anchor="middle" x="301" y="-367" font-family="Helvetica,sans-Serif" font-size="10.00">ObjectAction.makeRandomObject</text>
</a>
</g>
</g>
<!-- Node1&#45;&gt;Node2 -->
<g id="edge1" class="edge"><title>Node1&#45;&gt;Node2</title>
<path fill="none" stroke="midnightblue" d="M175.735,-375C184.313,-375 193.063,-375 201.746,-375"/>
<polygon fill="midnightblue" stroke="midnightblue" points="201.895,-378.5 211.895,-375 201.895,-371.5 201.895,-378.5"/>
</g>
<!-- Node3 -->
<g id="node3" class="node"><title>Node3</title>
<g id="a_node3"><a xlink:href="../../d0/d7f/classengine_1_1game_object_1_1_game_object.html#a9a4690b212ecad4060ce8f9abbcedba5" target="_top" xlink:title="engine.gameObject.GameObject.set\lIdentifier">
<polygon fill="white" stroke="black" points="437.5,-434 437.5,-464 628.5,-464 628.5,-434 437.5,-434"/>
<text text-anchor="start" x="445.5" y="-452" font-family="Helvetica,sans-Serif" font-size="10.00">engine.gameObject.GameObject.set</text>
<text text-anchor="middle" x="533" y="-441" font-family="Helvetica,sans-Serif" font-size="10.00">Identifier</text>
</a>
</g>
</g>
<!-- Node2&#45;&gt;Node3 -->
<g id="edge2" class="edge"><title>Node2&#45;&gt;Node3</title>
<path fill="none" stroke="midnightblue" d="M336.26,-390.09C360.893,-400.555 395.079,-414.3 426,-424 434.323,-426.611 443.09,-429.093 451.869,-431.407"/>
<polygon fill="midnightblue" stroke="midnightblue" points="451.207,-434.851 461.763,-433.947 452.947,-428.071 451.207,-434.851"/>
</g>
<!-- Node4 -->
<g id="node4" class="node"><title>Node4</title>
<g id="a_node4"><a xlink:href="../../d0/d7f/classengine_1_1game_object_1_1_game_object.html#ab9b1029f6d5a8a7eb563d5e6e1dcf570" target="_top" xlink:title="engine.gameObject.GameObject.set\lPhysicsBody">
<polygon fill="white" stroke="black" points="437.5,-385 437.5,-415 628.5,-415 628.5,-385 437.5,-385"/>
<text text-anchor="start" x="445.5" y="-403" font-family="Helvetica,sans-Serif" font-size="10.00">engine.gameObject.GameObject.set</text>
<text text-anchor="middle" x="533" y="-392" font-family="Helvetica,sans-Serif" font-size="10.00">PhysicsBody</text>
</a>
</g>
</g>
<!-- Node2&#45;&gt;Node4 -->
<g id="edge3" class="edge"><title>Node2&#45;&gt;Node4</title>
<path fill="none" stroke="midnightblue" d="M390.266,-384.594C402.341,-385.907 414.831,-387.264 427.165,-388.605"/>
<polygon fill="midnightblue" stroke="midnightblue" points="427.156,-392.124 437.475,-389.726 427.912,-385.165 427.156,-392.124"/>
</g>
<!-- Node5 -->
<g id="node5" class="node"><title>Node5</title>
<g id="a_node5"><a xlink:href="../../df/de5/classengine_1_1render_1_1_game_object_renderer.html#a745cb65a5425a20a1b5063068ef1314a" target="_top" xlink:title="engine.render.GameObject\lRenderer.createAndAssignRenderedNode">
<polygon fill="white" stroke="black" points="426.5,-336 426.5,-366 639.5,-366 639.5,-336 426.5,-336"/>
<text text-anchor="start" x="434.5" y="-354" font-family="Helvetica,sans-Serif" font-size="10.00">engine.render.GameObject</text>
<text text-anchor="middle" x="533" y="-343" font-family="Helvetica,sans-Serif" font-size="10.00">Renderer.createAndAssignRenderedNode</text>
</a>
</g>
</g>
<!-- Node2&#45;&gt;Node5 -->
<g id="edge4" class="edge"><title>Node2&#45;&gt;Node5</title>
<path fill="none" stroke="midnightblue" d="M390.266,-365.79C398.734,-364.906 407.407,-364.001 416.086,-363.095"/>
<polygon fill="midnightblue" stroke="midnightblue" points="416.684,-366.552 426.267,-362.033 415.957,-359.59 416.684,-366.552"/>
</g>
<!-- Node25 -->
<g id="node25" class="node"><title>Node25</title>
<g id="a_node25"><a xlink:href="../../df/d84/classengine_1_1level_1_1_level.html#a0e3c5bae8948f49ede9e5a87f197581b" target="_top" xlink:title="engine.level.Level.addGame\lObject">
<polygon fill="white" stroke="black" points="457,-55 457,-85 609,-85 609,-55 457,-55"/>
<text text-anchor="start" x="465" y="-73" font-family="Helvetica,sans-Serif" font-size="10.00">engine.level.Level.addGame</text>
<text text-anchor="middle" x="533" y="-62" font-family="Helvetica,sans-Serif" font-size="10.00">Object</text>
</a>
</g>
</g>
<!-- Node2&#45;&gt;Node25 -->
<g id="edge26" class="edge"><title>Node2&#45;&gt;Node25</title>
<path fill="none" stroke="midnightblue" d="M313.406,-359.875C350.728,-310.382 469.394,-153.021 514.433,-93.2954"/>
<polygon fill="midnightblue" stroke="midnightblue" points="517.299,-95.3079 520.525,-85.2163 511.71,-91.0932 517.299,-95.3079"/>
</g>
<!-- Node6 -->
<g id="node6" class="node"><title>Node6</title>
<g id="a_node6"><a xlink:href="../../d2/d82/classengine_1_1render_1_1_rendered_node.html#a520a8c03b505d10c69e010e603cadfdd" target="_top" xlink:title="engine.render.RenderedNode.set\lImageView">
<polygon fill="white" stroke="black" points="690,-175 690,-205 864,-205 864,-175 690,-175"/>
<text text-anchor="start" x="698" y="-193" font-family="Helvetica,sans-Serif" font-size="10.00">engine.render.RenderedNode.set</text>
<text text-anchor="middle" x="777" y="-182" font-family="Helvetica,sans-Serif" font-size="10.00">ImageView</text>
</a>
</g>
</g>
<!-- Node5&#45;&gt;Node6 -->
<g id="edge5" class="edge"><title>Node5&#45;&gt;Node6</title>
<path fill="none" stroke="midnightblue" d="M545.034,-335.967C566.757,-307.511 618.027,-245.784 676,-214 679.327,-212.176 682.79,-210.489 686.345,-208.93"/>
<polygon fill="midnightblue" stroke="midnightblue" points="687.952,-212.057 695.936,-205.093 685.351,-205.558 687.952,-212.057"/>
</g>
<!-- Node7 -->
<g id="node7" class="node"><title>Node7</title>
<g id="a_node7"><a xlink:href="../../df/de5/classengine_1_1render_1_1_game_object_renderer.html#a72580570f971246ef79428f21b6d25e9" target="_top" xlink:title="engine.render.GameObject\lRenderer.createImageAndView">
<polygon fill="white" stroke="black" points="695.5,-126 695.5,-156 858.5,-156 858.5,-126 695.5,-126"/>
<text text-anchor="start" x="703.5" y="-144" font-family="Helvetica,sans-Serif" font-size="10.00">engine.render.GameObject</text>
<text text-anchor="middle" x="777" y="-133" font-family="Helvetica,sans-Serif" font-size="10.00">Renderer.createImageAndView</text>
</a>
</g>
</g>
<!-- Node5&#45;&gt;Node7 -->
<g id="edge6" class="edge"><title>Node5&#45;&gt;Node7</title>
<path fill="none" stroke="midnightblue" d="M540.98,-335.906C558.334,-300.143 607.057,-209.889 676,-165 679.179,-162.93 682.52,-161.038 685.973,-159.309"/>
<polygon fill="midnightblue" stroke="midnightblue" points="687.654,-162.391 695.343,-155.103 684.787,-156.005 687.654,-162.391"/>
</g>
<!-- Node12 -->
<g id="node12" class="node"><title>Node12</title>
<g id="a_node12"><a xlink:href="../../d2/d82/classengine_1_1render_1_1_rendered_node.html#ad73c81ad48b40faea3818c9a7bbfdcf0" target="_top" xlink:title="engine.render.RenderedNode.set\lCollisionBody">
<polygon fill="white" stroke="black" points="690,-535 690,-565 864,-565 864,-535 690,-535"/>
<text text-anchor="start" x="698" y="-553" font-family="Helvetica,sans-Serif" font-size="10.00">engine.render.RenderedNode.set</text>
<text text-anchor="middle" x="777" y="-542" font-family="Helvetica,sans-Serif" font-size="10.00">CollisionBody</text>
</a>
</g>
</g>
<!-- Node5&#45;&gt;Node12 -->
<g id="edge11" class="edge"><title>Node5&#45;&gt;Node12</title>
<path fill="none" stroke="midnightblue" d="M628.965,-366.263C632.931,-368.79 636.643,-371.686 640,-375 688.79,-423.166 627.75,-476.293 676,-525 677.637,-526.653 679.366,-528.202 681.173,-529.654"/>
<polygon fill="midnightblue" stroke="midnightblue" points="679.331,-532.635 689.554,-535.419 683.298,-526.868 679.331,-532.635"/>
</g>
<!-- Node13 -->
<g id="node13" class="node"><title>Node13</title>
<g id="a_node13"><a xlink:href="../../df/de5/classengine_1_1render_1_1_game_object_renderer.html#a25493ea430dbd3c6094434ba60e98662" target="_top" xlink:title="engine.render.GameObject\lRenderer.createCollisionBody">
<polygon fill="white" stroke="black" points="699.5,-584 699.5,-614 854.5,-614 854.5,-584 699.5,-584"/>
<text text-anchor="start" x="707.5" y="-602" font-family="Helvetica,sans-Serif" font-size="10.00">engine.render.GameObject</text>
<text text-anchor="middle" x="777" y="-591" font-family="Helvetica,sans-Serif" font-size="10.00">Renderer.createCollisionBody</text>
</a>
</g>
</g>
<!-- Node5&#45;&gt;Node13 -->
<g id="edge12" class="edge"><title>Node5&#45;&gt;Node13</title>
<path fill="none" stroke="midnightblue" d="M629.197,-366.034C633.102,-368.621 636.738,-371.592 640,-375 702.151,-439.928 614.577,-508.383 676,-574 680.152,-578.436 684.962,-582.135 690.182,-585.214"/>
<polygon fill="midnightblue" stroke="midnightblue" points="688.808,-588.441 699.311,-589.833 691.968,-582.195 688.808,-588.441"/>
</g>
<!-- Node17 -->
<g id="node17" class="node"><title>Node17</title>
<g id="a_node17"><a xlink:href="../../d2/d82/classengine_1_1render_1_1_rendered_node.html#a312c663dd1144ff206ecfa1ea8c95a81" target="_top" xlink:title="engine.render.RenderedNode.set\lLabel">
<polygon fill="white" stroke="black" points="690,-437 690,-467 864,-467 864,-437 690,-437"/>
<text text-anchor="start" x="698" y="-455" font-family="Helvetica,sans-Serif" font-size="10.00">engine.render.RenderedNode.set</text>
<text text-anchor="middle" x="777" y="-444" font-family="Helvetica,sans-Serif" font-size="10.00">Label</text>
</a>
</g>
</g>
<!-- Node5&#45;&gt;Node17 -->
<g id="edge16" class="edge"><title>Node5&#45;&gt;Node17</title>
<path fill="none" stroke="midnightblue" d="M623.688,-366.09C629.418,-368.621 634.918,-371.568 640,-375 663.295,-390.731 652.882,-411.01 676,-427 678.884,-428.995 681.912,-430.83 685.045,-432.52"/>
<polygon fill="midnightblue" stroke="midnightblue" points="683.596,-435.707 694.123,-436.905 686.641,-429.403 683.596,-435.707"/>
</g>
<!-- Node18 -->
<g id="node18" class="node"><title>Node18</title>
<g id="a_node18"><a xlink:href="../../df/de5/classengine_1_1render_1_1_game_object_renderer.html#a1d5f0ad1a571faec3c1a364bccc4c038" target="_top" xlink:title="engine.render.GameObject\lRenderer.createLabel">
<polygon fill="white" stroke="black" points="704,-486 704,-516 850,-516 850,-486 704,-486"/>
<text text-anchor="start" x="712" y="-504" font-family="Helvetica,sans-Serif" font-size="10.00">engine.render.GameObject</text>
<text text-anchor="middle" x="777" y="-493" font-family="Helvetica,sans-Serif" font-size="10.00">Renderer.createLabel</text>
</a>
</g>
</g>
<!-- Node5&#45;&gt;Node18 -->
<g id="edge17" class="edge"><title>Node5&#45;&gt;Node18</title>
<path fill="none" stroke="midnightblue" d="M627.562,-366.141C632.002,-368.685 636.189,-371.62 640,-375 675.653,-406.621 640.702,-443.983 676,-476 681.468,-480.959 687.77,-484.97 694.495,-488.208"/>
<polygon fill="midnightblue" stroke="midnightblue" points="693.316,-491.509 703.89,-492.162 696.031,-485.057 693.316,-491.509"/>
</g>
<!-- Node20 -->
<g id="node20" class="node"><title>Node20</title>
<g id="a_node20"><a xlink:href="../../d0/d7f/classengine_1_1game_object_1_1_game_object.html#a606c7293c2bfac0af1fb42143bf527f6" target="_top" xlink:title="engine.gameObject.GameObject.getX">
<polygon fill="white" stroke="black" points="678,-398.5 678,-417.5 876,-417.5 876,-398.5 678,-398.5"/>
<text text-anchor="middle" x="777" y="-405.5" font-family="Helvetica,sans-Serif" font-size="10.00">engine.gameObject.GameObject.getX</text>
</a>
</g>
</g>
<!-- Node5&#45;&gt;Node20 -->
<g id="edge21" class="edge"><title>Node5&#45;&gt;Node20</title>
<path fill="none" stroke="midnightblue" d="M607.076,-366.049C618.178,-368.766 629.444,-371.772 640,-375 656.417,-380.02 659.498,-384.267 676,-389 685.619,-391.759 695.875,-394.227 706.016,-396.398"/>
<polygon fill="midnightblue" stroke="midnightblue" points="705.591,-399.883 716.091,-398.469 707,-393.027 705.591,-399.883"/>
</g>
<!-- Node21 -->
<g id="node21" class="node"><title>Node21</title>
<g id="a_node21"><a xlink:href="../../d0/d7f/classengine_1_1game_object_1_1_game_object.html#a1988806ef560c9384f3844d0666a9450" target="_top" xlink:title="engine.gameObject.GameObject.getY">
<polygon fill="white" stroke="black" points="678.5,-360.5 678.5,-379.5 875.5,-379.5 875.5,-360.5 678.5,-360.5"/>
<text text-anchor="middle" x="777" y="-367.5" font-family="Helvetica,sans-Serif" font-size="10.00">engine.gameObject.GameObject.getY</text>
</a>
</g>
</g>
<!-- Node5&#45;&gt;Node21 -->
<g id="edge22" class="edge"><title>Node5&#45;&gt;Node21</title>
<path fill="none" stroke="midnightblue" d="M639.793,-359.306C649.226,-360.047 658.785,-360.797 668.235,-361.539"/>
<polygon fill="midnightblue" stroke="midnightblue" points="668.192,-365.046 678.435,-362.34 668.74,-358.068 668.192,-365.046"/>
</g>
<!-- Node22 -->
<g id="node22" class="node"><title>Node22</title>
<g id="a_node22"><a xlink:href="../../d0/d7f/classengine_1_1game_object_1_1_game_object.html#ae94fe532960bd29f64c2dc19ec0af798" target="_top" xlink:title="engine.gameObject.GameObject.getID">
<polygon fill="white" stroke="black" points="676,-322.5 676,-341.5 878,-341.5 878,-322.5 676,-322.5"/>
<text text-anchor="middle" x="777" y="-329.5" font-family="Helvetica,sans-Serif" font-size="10.00">engine.gameObject.GameObject.getID</text>
</a>
</g>
</g>
<!-- Node5&#45;&gt;Node22 -->
<g id="edge23" class="edge"><title>Node5&#45;&gt;Node22</title>
<path fill="none" stroke="midnightblue" d="M639.793,-342.694C648.386,-342.019 657.082,-341.337 665.706,-340.659"/>
<polygon fill="midnightblue" stroke="midnightblue" points="666.09,-344.14 675.786,-339.868 665.542,-337.162 666.09,-344.14"/>
</g>
<!-- Node23 -->
<g id="node23" class="node"><title>Node23</title>
<g id="a_node23"><a xlink:href="../../d0/d7f/classengine_1_1game_object_1_1_game_object.html#accd456b2eaab9c7056de825a28b066c8" target="_top" xlink:title="engine.gameObject.GameObject.get\lIdentifier">
<polygon fill="white" stroke="black" points="681,-273 681,-303 873,-303 873,-273 681,-273"/>
<text text-anchor="start" x="689" y="-291" font-family="Helvetica,sans-Serif" font-size="10.00">engine.gameObject.GameObject.get</text>
<text text-anchor="middle" x="777" y="-280" font-family="Helvetica,sans-Serif" font-size="10.00">Identifier</text>
</a>
</g>
</g>
<!-- Node5&#45;&gt;Node23 -->
<g id="edge24" class="edge"><title>Node5&#45;&gt;Node23</title>
<path fill="none" stroke="midnightblue" d="M589.241,-335.99C615.498,-328.914 647.341,-320.417 676,-313 685.485,-310.545 695.487,-307.997 705.351,-305.508"/>
<polygon fill="midnightblue" stroke="midnightblue" points="706.301,-308.878 715.145,-303.044 704.593,-302.089 706.301,-308.878"/>
</g>
<!-- Node24 -->
<g id="node24" class="node"><title>Node24</title>
<g id="a_node24"><a xlink:href="../../d0/d7f/classengine_1_1game_object_1_1_game_object.html#ab09d473d8c2afe8cefb2ce2481bc66fd" target="_top" xlink:title="engine.gameObject.GameObject.set\lRenderedNode">
<polygon fill="white" stroke="black" points="681.5,-224 681.5,-254 872.5,-254 872.5,-224 681.5,-224"/>
<text text-anchor="start" x="689.5" y="-242" font-family="Helvetica,sans-Serif" font-size="10.00">engine.gameObject.GameObject.set</text>
<text text-anchor="middle" x="777" y="-231" font-family="Helvetica,sans-Serif" font-size="10.00">RenderedNode</text>
</a>
</g>
</g>
<!-- Node5&#45;&gt;Node24 -->
<g id="edge25" class="edge"><title>Node5&#45;&gt;Node24</title>
<path fill="none" stroke="midnightblue" d="M554.038,-335.677C580.562,-316.099 629.424,-282.427 676,-263 681.098,-260.874 686.424,-258.911 691.849,-257.103"/>
<polygon fill="midnightblue" stroke="midnightblue" points="693.199,-260.347 701.692,-254.014 691.103,-253.669 693.199,-260.347"/>
</g>
<!-- Node8 -->
<g id="node8" class="node"><title>Node8</title>
<g id="a_node8"><a xlink:href="../../d0/d7f/classengine_1_1game_object_1_1_game_object.html#ae8b88e1cf489e935426e2e252defbae0" target="_top" xlink:title="engine.gameObject.GameObject.get\lCurrentImageName">
<polygon fill="white" stroke="black" points="914,-151 914,-181 1106,-181 1106,-151 914,-151"/>
<text text-anchor="start" x="922" y="-169" font-family="Helvetica,sans-Serif" font-size="10.00">engine.gameObject.GameObject.get</text>
<text text-anchor="middle" x="1010" y="-158" font-family="Helvetica,sans-Serif" font-size="10.00">CurrentImageName</text>
</a>
</g>
</g>
<!-- Node7&#45;&gt;Node8 -->
<g id="edge7" class="edge"><title>Node7&#45;&gt;Node8</title>
<path fill="none" stroke="midnightblue" d="M858.793,-149.744C873.275,-151.311 888.56,-152.965 903.614,-154.595"/>
<polygon fill="midnightblue" stroke="midnightblue" points="903.668,-158.121 913.986,-155.717 904.421,-151.161 903.668,-158.121"/>
</g>
<!-- Node9 -->
<g id="node9" class="node"><title>Node9</title>
<g id="a_node9"><a xlink:href="../../d9/db5/classengine_1_1_file_path_utility.html#ad8a72da93bd719a750bd549ed92a37d7" target="_top" xlink:title="engine.FilePathUtility.get\lFilePath">
<polygon fill="white" stroke="black" points="944,-102 944,-132 1076,-132 1076,-102 944,-102"/>
<text text-anchor="start" x="952" y="-120" font-family="Helvetica,sans-Serif" font-size="10.00">engine.FilePathUtility.get</text>
<text text-anchor="middle" x="1010" y="-109" font-family="Helvetica,sans-Serif" font-size="10.00">FilePath</text>
</a>
</g>
</g>
<!-- Node7&#45;&gt;Node9 -->
<g id="edge8" class="edge"><title>Node7&#45;&gt;Node9</title>
<path fill="none" stroke="midnightblue" d="M858.793,-132.606C883.155,-130.075 909.788,-127.308 933.773,-124.816"/>
<polygon fill="midnightblue" stroke="midnightblue" points="934.291,-128.281 943.875,-123.766 933.567,-121.318 934.291,-128.281"/>
</g>
<!-- Node10 -->
<g id="node10" class="node"><title>Node10</title>
<g id="a_node10"><a xlink:href="../../d0/d7f/classengine_1_1game_object_1_1_game_object.html#aaeb5730a3b51fe9cb3d817ea7172cfc2" target="_top" xlink:title="engine.gameObject.GameObject.get\lHeight">
<polygon fill="white" stroke="black" points="914,-390 914,-420 1106,-420 1106,-390 914,-390"/>
<text text-anchor="start" x="922" y="-408" font-family="Helvetica,sans-Serif" font-size="10.00">engine.gameObject.GameObject.get</text>
<text text-anchor="middle" x="1010" y="-397" font-family="Helvetica,sans-Serif" font-size="10.00">Height</text>
</a>
</g>
</g>
<!-- Node7&#45;&gt;Node10 -->
<g id="edge9" class="edge"><title>Node7&#45;&gt;Node10</title>
<path fill="none" stroke="midnightblue" d="M858.911,-152.228C865.906,-155.535 872.428,-159.719 878,-165 918.724,-203.596 888.019,-236.271 914,-286 933.382,-323.098 965.129,-359.827 986.531,-382.453"/>
<polygon fill="midnightblue" stroke="midnightblue" points="984.181,-385.059 993.633,-389.845 989.229,-380.209 984.181,-385.059"/>
</g>
<!-- Node11 -->
<g id="node11" class="node"><title>Node11</title>
<g id="a_node11"><a xlink:href="../../d0/d7f/classengine_1_1game_object_1_1_game_object.html#a31aa2c854220621b49fc5575b50b9342" target="_top" xlink:title="engine.gameObject.GameObject.get\lWidth">
<polygon fill="white" stroke="black" points="914,-247 914,-277 1106,-277 1106,-247 914,-247"/>
<text text-anchor="start" x="922" y="-265" font-family="Helvetica,sans-Serif" font-size="10.00">engine.gameObject.GameObject.get</text>
<text text-anchor="middle" x="1010" y="-254" font-family="Helvetica,sans-Serif" font-size="10.00">Width</text>
</a>
</g>
</g>
<!-- Node7&#45;&gt;Node11 -->
<g id="edge10" class="edge"><title>Node7&#45;&gt;Node11</title>
<path fill="none" stroke="midnightblue" d="M854.713,-156.029C862.734,-158.594 870.638,-161.566 878,-165 883.669,-167.644 944.006,-212.914 980.786,-240.663"/>
<polygon fill="midnightblue" stroke="midnightblue" points="979.047,-243.736 989.137,-246.968 983.265,-238.149 979.047,-243.736"/>
</g>
<!-- Node14 -->
<g id="node14" class="node"><title>Node14</title>
<g id="a_node14"><a xlink:href="../../d0/d7f/classengine_1_1game_object_1_1_game_object.html#a60c5b6933aac9969491a3562a963c043" target="_top" xlink:title="engine.gameObject.GameObject.get\lPhysicsBody">
<polygon fill="white" stroke="black" points="914,-633 914,-663 1106,-663 1106,-633 914,-633"/>
<text text-anchor="start" x="922" y="-651" font-family="Helvetica,sans-Serif" font-size="10.00">engine.gameObject.GameObject.get</text>
<text text-anchor="middle" x="1010" y="-640" font-family="Helvetica,sans-Serif" font-size="10.00">PhysicsBody</text>
</a>
</g>
</g>
<!-- Node13&#45;&gt;Node14 -->
<g id="edge13" class="edge"><title>Node13&#45;&gt;Node14</title>
<path fill="none" stroke="midnightblue" d="M848.877,-614.035C874.044,-619.373 902.55,-625.42 928.464,-630.917"/>
<polygon fill="midnightblue" stroke="midnightblue" points="927.748,-634.343 938.257,-632.994 929.201,-627.495 927.748,-634.343"/>
</g>
<!-- Node15 -->
<g id="node15" class="node"><title>Node15</title>
<g id="a_node15"><a xlink:href="../../d9/d9d/classengine_1_1game_object_1_1components_1_1_physics_body.html#aba2ed3bce8ee8e404907c88b144626fc" target="_top" xlink:title="engine.gameObject.components.\lPhysicsBody.getCollisionBodyHeight">
<polygon fill="white" stroke="black" points="916,-584 916,-614 1104,-614 1104,-584 916,-584"/>
<text text-anchor="start" x="924" y="-602" font-family="Helvetica,sans-Serif" font-size="10.00">engine.gameObject.components.</text>
<text text-anchor="middle" x="1010" y="-591" font-family="Helvetica,sans-Serif" font-size="10.00">PhysicsBody.getCollisionBodyHeight</text>
</a>
</g>
</g>
<!-- Node13&#45;&gt;Node15 -->
<g id="edge14" class="edge"><title>Node13&#45;&gt;Node15</title>
<path fill="none" stroke="midnightblue" d="M854.599,-599C870.957,-599 888.494,-599 905.667,-599"/>
<polygon fill="midnightblue" stroke="midnightblue" points="905.726,-602.5 915.726,-599 905.726,-595.5 905.726,-602.5"/>
</g>
<!-- Node16 -->
<g id="node16" class="node"><title>Node16</title>
<g id="a_node16"><a xlink:href="../../d9/d9d/classengine_1_1game_object_1_1components_1_1_physics_body.html#ae64e43632570392c3118b3d00af853fc" target="_top" xlink:title="engine.gameObject.components.\lPhysicsBody.getCollisionBodyWidth">
<polygon fill="white" stroke="black" points="919,-535 919,-565 1101,-565 1101,-535 919,-535"/>
<text text-anchor="start" x="927" y="-553" font-family="Helvetica,sans-Serif" font-size="10.00">engine.gameObject.components.</text>
<text text-anchor="middle" x="1010" y="-542" font-family="Helvetica,sans-Serif" font-size="10.00">PhysicsBody.getCollisionBodyWidth</text>
</a>
</g>
</g>
<!-- Node13&#45;&gt;Node16 -->
<g id="edge15" class="edge"><title>Node13&#45;&gt;Node16</title>
<path fill="none" stroke="midnightblue" d="M848.877,-583.965C874.044,-578.627 902.55,-572.58 928.464,-567.083"/>
<polygon fill="midnightblue" stroke="midnightblue" points="929.201,-570.505 938.257,-565.006 927.748,-563.657 929.201,-570.505"/>
</g>
<!-- Node18&#45;&gt;Node10 -->
<g id="edge19" class="edge"><title>Node18&#45;&gt;Node10</title>
<path fill="none" stroke="midnightblue" d="M847.833,-485.943C858.082,-483.044 868.41,-479.729 878,-476 913.155,-462.331 950.761,-441.2 976.621,-425.542"/>
<polygon fill="midnightblue" stroke="midnightblue" points="978.556,-428.461 985.255,-420.253 974.9,-422.492 978.556,-428.461"/>
</g>
<!-- Node18&#45;&gt;Node11 -->
<g id="edge20" class="edge"><title>Node18&#45;&gt;Node11</title>
<path fill="none" stroke="midnightblue" d="M850.006,-492.047C860.239,-488.319 869.988,-483.148 878,-476 912.002,-445.663 891.425,-419.583 914,-380 934.63,-343.827 966.081,-307.262 987.076,-284.626"/>
<polygon fill="midnightblue" stroke="midnightblue" points="989.734,-286.908 994.032,-277.223 984.633,-282.114 989.734,-286.908"/>
</g>
<!-- Node19 -->
<g id="node19" class="node"><title>Node19</title>
<g id="a_node19"><a xlink:href="../../d0/d7f/classengine_1_1game_object_1_1_game_object.html#a5c379828f3bb19a91935f965c48a91a5" target="_top" xlink:title="engine.gameObject.GameObject.get\lLabel">
<polygon fill="white" stroke="black" points="914,-486 914,-516 1106,-516 1106,-486 914,-486"/>
<text text-anchor="start" x="922" y="-504" font-family="Helvetica,sans-Serif" font-size="10.00">engine.gameObject.GameObject.get</text>
<text text-anchor="middle" x="1010" y="-493" font-family="Helvetica,sans-Serif" font-size="10.00">Label</text>
</a>
</g>
</g>
<!-- Node18&#45;&gt;Node19 -->
<g id="edge18" class="edge"><title>Node18&#45;&gt;Node19</title>
<path fill="none" stroke="midnightblue" d="M850.14,-501C867.117,-501 885.557,-501 903.661,-501"/>
<polygon fill="midnightblue" stroke="midnightblue" points="903.673,-504.5 913.673,-501 903.673,-497.5 903.673,-504.5"/>
</g>
<!-- Node26 -->
<g id="node26" class="node"><title>Node26</title>
<g id="a_node26"><a xlink:href="../../d4/d3b/classauthoring_1_1model_1_1collections_1_1_general_collection.html#a1bdc1047736bbb23259d6a7fe4c6deeb" target="_top" xlink:title="authoring.model.collections.\lGeneralCollection.add">
<polygon fill="white" stroke="black" points="701,-77 701,-107 853,-107 853,-77 701,-77"/>
<text text-anchor="start" x="709" y="-95" font-family="Helvetica,sans-Serif" font-size="10.00">authoring.model.collections.</text>
<text text-anchor="middle" x="777" y="-84" font-family="Helvetica,sans-Serif" font-size="10.00">GeneralCollection.add</text>
</a>
</g>
</g>
<!-- Node25&#45;&gt;Node26 -->
<g id="edge27" class="edge"><title>Node25&#45;&gt;Node26</title>
<path fill="none" stroke="midnightblue" d="M609.244,-76.8403C635.08,-79.1891 664.181,-81.8346 690.754,-84.2504"/>
<polygon fill="midnightblue" stroke="midnightblue" points="690.527,-87.7441 700.803,-85.1639 691.161,-80.7728 690.527,-87.7441"/>
</g>
<!-- Node27 -->
<g id="node27" class="node"><title>Node27</title>
<g id="a_node27"><a xlink:href="../../d3/d8d/classdata_1_1_observable.html#a6da70e44050d139f40cf07384484f51d" target="_top" xlink:title="data.Observable.setChanged">
<polygon fill="white" stroke="black" points="699,-38.5 699,-57.5 855,-57.5 855,-38.5 699,-38.5"/>
<text text-anchor="middle" x="777" y="-45.5" font-family="Helvetica,sans-Serif" font-size="10.00">data.Observable.setChanged</text>
</a>
</g>
</g>
<!-- Node25&#45;&gt;Node27 -->
<g id="edge28" class="edge"><title>Node25&#45;&gt;Node27</title>
<path fill="none" stroke="midnightblue" d="M609.244,-63.1597C634.354,-60.8769 662.548,-58.3138 688.507,-55.9539"/>
<polygon fill="midnightblue" stroke="midnightblue" points="689.073,-59.417 698.715,-55.0259 688.439,-52.4457 689.073,-59.417"/>
</g>
<!-- Node28 -->
<g id="node28" class="node"><title>Node28</title>
<g id="a_node28"><a xlink:href="../../d3/d8d/classdata_1_1_observable.html#a120384f9a41245899f05bb1a4c36ac4d" target="_top" xlink:title="data.Observable.notifyObservers">
<polygon fill="white" stroke="black" points="690.5,-0.5 690.5,-19.5 863.5,-19.5 863.5,-0.5 690.5,-0.5"/>
<text text-anchor="middle" x="777" y="-7.5" font-family="Helvetica,sans-Serif" font-size="10.00">data.Observable.notifyObservers</text>
</a>
</g>
</g>
<!-- Node25&#45;&gt;Node28 -->
<g id="edge29" class="edge"><title>Node25&#45;&gt;Node28</title>
<path fill="none" stroke="midnightblue" d="M582.011,-54.9279C609.385,-46.6394 644.428,-36.5398 676,-29 687.167,-26.3331 699.107,-23.7962 710.708,-21.4949"/>
<polygon fill="midnightblue" stroke="midnightblue" points="711.639,-24.8796 720.787,-19.536 710.303,-18.0081 711.639,-24.8796"/>
</g>
</g>
</svg>
        <g id="navigator" transform="translate(0 0)" fill="#404254">
                <rect fill="#f2f5e9" fill-opacity="0.5" stroke="#606060" stroke-width=".5" x="0" y="0" width="60" height="60"/>
                <use id="zoomplus" xlink:href="#zoomPlus" x="17" y="9" onmousedown="handleZoom(evt,'in')"/>
                <use id="zoomminus" xlink:href="#zoomMin" x="42" y="9" onmousedown="handleZoom(evt,'out')"/>
                <use id="reset" xlink:href="#resetDef" x="30" y="36" onmousedown="handleReset()"/>
                <g id="arrowUp" xlink:href="#dirArrow" transform="translate(30 24)" onmousedown="handlePan(0,-1)">
                  <use xlink:href="#rim" fill="#404040">
                        <set attributeName="fill" to="#808080" begin="arrowUp.mouseover" end="arrowUp.mouseout"/>
                  </use>
                  <path fill="none" stroke="white" stroke-width="1.5" d="M0,-3.0v7 M-2.5,-0.5L0,-3.0L2.5,-0.5"/>
                </g>
                <g id="arrowRight" xlink:href="#dirArrow" transform="rotate(90) translate(36 -43)" onmousedown="handlePan(1,0)">
                  <use xlink:href="#rim" fill="#404040">
                        <set attributeName="fill" to="#808080" begin="arrowRight.mouseover" end="arrowRight.mouseout"/>
                  </use>
                  <path fill="none" stroke="white" stroke-width="1.5" d="M0,-3.0v7 M-2.5,-0.5L0,-3.0L2.5,-0.5"/>
                </g>
                <g id="arrowDown" xlink:href="#dirArrow" transform="rotate(180) translate(-30 -48)" onmousedown="handlePan(0,1)">
                  <use xlink:href="#rim" fill="#404040">
                        <set attributeName="fill" to="#808080" begin="arrowDown.mouseover" end="arrowDown.mouseout"/>
                  </use>
                  <path fill="none" stroke="white" stroke-width="1.5" d="M0,-3.0v7 M-2.5,-0.5L0,-3.0L2.5,-0.5"/>
                </g>
                <g id="arrowLeft" xlink:href="#dirArrow" transform="rotate(270) translate(-36 17)" onmousedown="handlePan(-1,0)">
                  <use xlink:href="#rim" fill="#404040">
                        <set attributeName="fill" to="#808080" begin="arrowLeft.mouseover" end="arrowLeft.mouseout"/>
                  </use>
                  <path fill="none" stroke="white" stroke-width="1.5" d="M0,-3.0v7 M-2.5,-0.5L0,-3.0L2.5,-0.5"/>
                </g>
        </g>
        <svg viewBox="0 0 15 15" width="100%" height="30px" preserveAspectRatio="xMaxYMin meet">
         <g id="arrow_out" transform="scale(0.3 0.3)">
          <a xlink:href="classengine_1_1actions_1_1_make_new_random_object_action_aa831c4b818ed75f812bf8ba0d453c942_cgraph_org.svg" target="_base">
           <rect id="button" ry="5" rx="5" y="6" x="6" height="38" width="38"
                fill="#f2f5e9" fill-opacity="0.5" stroke="#606060" stroke-width="1.0"/>
           <path id="arrow"
             d="M 11.500037,31.436501 C 11.940474,20.09759 22.043105,11.32322 32.158766,21.979434 L 37.068811,17.246167 C 37.068811,17.246167 37.088388,32 37.088388,32 L 22.160133,31.978069 C 22.160133,31.978069 26.997745,27.140456 26.997745,27.140456 C 18.528582,18.264221 13.291696,25.230495 11.500037,31.436501 z"
             style="fill:#404040;"/>
          </a>
         </g>
        </svg>
</svg>
