<?xml version="1.0" encoding="UTF-8" standalone="no"?>
<!DOCTYPE svg PUBLIC "-//W3C//DTD SVG 1.1//EN"
 "http://www.w3.org/Graphics/SVG/1.1/DTD/svg11.dtd">
<!-- Generated by graphviz version 2.36.0 (20140111.2315)
 -->
<!-- Title: authoring.view.levelview.LevelsView.getCurrentLevel Pages: 1 -->
<svg width="398pt" height="234pt"
 viewBox="0.00 0.00 398.00 234.00" xmlns="http://www.w3.org/2000/svg" xmlns:xlink="http://www.w3.org/1999/xlink">
<g id="graph0" class="graph" transform="scale(1 1) rotate(0) translate(4 230)">
<title>authoring.view.levelview.LevelsView.getCurrentLevel</title>
<polygon fill="white" stroke="none" points="-4,4 -4,-230 394,-230 394,4 -4,4"/>
<!-- Node1 -->
<g id="node1" class="node"><title>Node1</title>
<polygon fill="#bfbfbf" stroke="black" points="0.5,-98 0.5,-128 147.5,-128 147.5,-98 0.5,-98"/>
<text text-anchor="start" x="8.5" y="-116" font-family="Helvetica,sans-Serif" font-size="10.00">authoring.view.levelview.</text>
<text text-anchor="middle" x="74" y="-105" font-family="Helvetica,sans-Serif" font-size="10.00">LevelsView.getCurrentLevel</text>
</g>
<!-- Node2 -->
<g id="node2" class="node"><title>Node2</title>
<g id="a_node2"><a xlink:href="../../d0/d8a/classauthoring_1_1eventhandlers_1_1_game_obj_graphic_drag_handler.html#ab2dc9f9a31c07b645b449b5f5ce4325f" target="_top" xlink:title="authoring.eventhandlers.\lGameObjGraphicDragHandler.handle">
<polygon fill="white" stroke="black" points="190,-196 190,-226 384,-226 384,-196 190,-196"/>
<text text-anchor="start" x="198" y="-214" font-family="Helvetica,sans-Serif" font-size="10.00">authoring.eventhandlers.</text>
<text text-anchor="middle" x="287" y="-203" font-family="Helvetica,sans-Serif" font-size="10.00">GameObjGraphicDragHandler.handle</text>
</a>
</g>
</g>
<!-- Node1&#45;&gt;Node2 -->
<g id="edge1" class="edge"><title>Node1&#45;&gt;Node2</title>
<path fill="none" stroke="midnightblue" d="M100.989,-134.238C122.166,-150.565 153.46,-172.536 184,-186 192.675,-189.825 202.035,-193.127 211.442,-195.962"/>
<polygon fill="midnightblue" stroke="midnightblue" points="103.146,-131.482 93.1162,-128.068 98.8281,-136.992 103.146,-131.482"/>
</g>
<!-- Node3 -->
<g id="node3" class="node"><title>Node3</title>
<g id="a_node3"><a xlink:href="../../d5/d71/classauthoring_1_1eventhandlers_1_1_delete_game_object_handler.html#accab3889f56825006dc927d15f7c2957" target="_top" xlink:title="authoring.eventhandlers.\lDeleteGameObjectHandler.handle">
<polygon fill="white" stroke="black" points="197,-147 197,-177 377,-177 377,-147 197,-147"/>
<text text-anchor="start" x="205" y="-165" font-family="Helvetica,sans-Serif" font-size="10.00">authoring.eventhandlers.</text>
<text text-anchor="middle" x="287" y="-154" font-family="Helvetica,sans-Serif" font-size="10.00">DeleteGameObjectHandler.handle</text>
</a>
</g>
</g>
<!-- Node1&#45;&gt;Node3 -->
<g id="edge2" class="edge"><title>Node1&#45;&gt;Node3</title>
<path fill="none" stroke="midnightblue" d="M149.629,-130.331C173.055,-135.771 198.709,-141.729 221.382,-146.994"/>
<polygon fill="midnightblue" stroke="midnightblue" points="150.273,-126.887 139.741,-128.035 148.69,-133.706 150.273,-126.887"/>
</g>
<!-- Node4 -->
<g id="node4" class="node"><title>Node4</title>
<g id="a_node4"><a xlink:href="../../d6/df5/classauthoring_1_1eventhandlers_1_1_edit_game_object_handler.html#ac0a03e6b751068903df50296d9f1fbd7" target="_top" xlink:title="authoring.eventhandlers.\lEditGameObjectHandler.handle">
<polygon fill="white" stroke="black" points="203.5,-98 203.5,-128 370.5,-128 370.5,-98 203.5,-98"/>
<text text-anchor="start" x="211.5" y="-116" font-family="Helvetica,sans-Serif" font-size="10.00">authoring.eventhandlers.</text>
<text text-anchor="middle" x="287" y="-105" font-family="Helvetica,sans-Serif" font-size="10.00">EditGameObjectHandler.handle</text>
</a>
</g>
</g>
<!-- Node1&#45;&gt;Node4 -->
<g id="edge3" class="edge"><title>Node1&#45;&gt;Node4</title>
<path fill="none" stroke="midnightblue" d="M157.873,-113C172.863,-113 188.491,-113 203.47,-113"/>
<polygon fill="midnightblue" stroke="midnightblue" points="157.614,-109.5 147.614,-113 157.614,-116.5 157.614,-109.5"/>
</g>
<!-- Node5 -->
<g id="node5" class="node"><title>Node5</title>
<g id="a_node5"><a xlink:href="../../d1/da4/classauthoring_1_1eventhandlers_1_1_game_object_drag_handler.html#a122ab06aa51a9961e85f5a457142f60c" target="_top" xlink:title="authoring.eventhandlers.\lGameObjectDragHandler.handle">
<polygon fill="white" stroke="black" points="201,-49 201,-79 373,-79 373,-49 201,-49"/>
<text text-anchor="start" x="209" y="-67" font-family="Helvetica,sans-Serif" font-size="10.00">authoring.eventhandlers.</text>
<text text-anchor="middle" x="287" y="-56" font-family="Helvetica,sans-Serif" font-size="10.00">GameObjectDragHandler.handle</text>
</a>
</g>
</g>
<!-- Node1&#45;&gt;Node5 -->
<g id="edge4" class="edge"><title>Node1&#45;&gt;Node5</title>
<path fill="none" stroke="midnightblue" d="M149.629,-95.6691C173.055,-90.2288 198.709,-84.2715 221.382,-79.0062"/>
<polygon fill="midnightblue" stroke="midnightblue" points="148.69,-92.294 139.741,-97.9654 150.273,-99.1125 148.69,-92.294"/>
</g>
<!-- Node6 -->
<g id="node6" class="node"><title>Node6</title>
<g id="a_node6"><a xlink:href="../../d0/df2/classauthoring_1_1eventhandlers_1_1_game_object_drag_to_level_handler.html#ad5002cd6b7781653104f1820a573f902" target="_top" xlink:title="authoring.eventhandlers.\lGameObjectDragToLevelHandler.handle">
<polygon fill="white" stroke="black" points="184,-0 184,-30 390,-30 390,-0 184,-0"/>
<text text-anchor="start" x="192" y="-18" font-family="Helvetica,sans-Serif" font-size="10.00">authoring.eventhandlers.</text>
<text text-anchor="middle" x="287" y="-7" font-family="Helvetica,sans-Serif" font-size="10.00">GameObjectDragToLevelHandler.handle</text>
</a>
</g>
</g>
<!-- Node1&#45;&gt;Node6 -->
<g id="edge5" class="edge"><title>Node1&#45;&gt;Node6</title>
<path fill="none" stroke="midnightblue" d="M100.989,-91.7615C122.166,-75.4354 153.46,-53.4645 184,-40 192.675,-36.1753 202.035,-32.8729 211.442,-30.0385"/>
<polygon fill="midnightblue" stroke="midnightblue" points="98.8281,-89.0083 93.1162,-97.9316 103.146,-94.5179 98.8281,-89.0083"/>
</g>
</g>
</svg>
