<?xml version="1.0" encoding="UTF-8" standalone="no"?>
<!DOCTYPE svg PUBLIC "-//W3C//DTD SVG 1.1//EN"
 "http://www.w3.org/Graphics/SVG/1.1/DTD/svg11.dtd">
<!-- Generated by graphviz version 2.36.0 (20140111.2315)
 -->
<!-- Title: authoring.view.levelview.LevelsView.addNewLevel Pages: 1 -->
<svg width="902pt" height="38pt"
 viewBox="0.00 0.00 902.00 38.00" xmlns="http://www.w3.org/2000/svg" xmlns:xlink="http://www.w3.org/1999/xlink">
<g id="graph0" class="graph" transform="scale(1 1) rotate(0) translate(4 34)">
<title>authoring.view.levelview.LevelsView.addNewLevel</title>
<polygon fill="white" stroke="none" points="-4,4 -4,-34 898,-34 898,4 -4,4"/>
<!-- Node1 -->
<g id="node1" class="node"><title>Node1</title>
<polygon fill="#bfbfbf" stroke="black" points="0,-0 0,-30 134,-30 134,-0 0,-0"/>
<text text-anchor="start" x="8" y="-18" font-family="Helvetica,sans-Serif" font-size="10.00">authoring.view.levelview.</text>
<text text-anchor="middle" x="67" y="-7" font-family="Helvetica,sans-Serif" font-size="10.00">LevelsView.addNewLevel</text>
</g>
<!-- Node2 -->
<g id="node2" class="node"><title>Node2</title>
<g id="a_node2"><a xlink:href="../../d4/d95/classauthoring_1_1eventhandlers_1_1_add_level_handler.html#a661a922286bb73b71fae0c5f17e076eb" target="_top" xlink:title="authoring.eventhandlers.\lAddLevelHandler.createLevel">
<polygon fill="white" stroke="black" points="170.5,-0 170.5,-30 325.5,-30 325.5,-0 170.5,-0"/>
<text text-anchor="start" x="178.5" y="-18" font-family="Helvetica,sans-Serif" font-size="10.00">authoring.eventhandlers.</text>
<text text-anchor="middle" x="248" y="-7" font-family="Helvetica,sans-Serif" font-size="10.00">AddLevelHandler.createLevel</text>
</a>
</g>
</g>
<!-- Node1&#45;&gt;Node2 -->
<g id="edge1" class="edge"><title>Node1&#45;&gt;Node2</title>
<path fill="none" stroke="midnightblue" d="M144.177,-15C152.807,-15 161.605,-15 170.242,-15"/>
<polygon fill="midnightblue" stroke="midnightblue" points="144.144,-11.5001 134.144,-15 144.144,-18.5001 144.144,-11.5001"/>
</g>
<!-- Node3 -->
<g id="node3" class="node"><title>Node3</title>
<g id="a_node3"><a xlink:href="../../d4/d95/classauthoring_1_1eventhandlers_1_1_add_level_handler.html#a5a230a4a3782a8abc4e950d761b3ca4c" target="_top" xlink:title="authoring.eventhandlers.\lAddLevelHandler.getPrompt">
<polygon fill="white" stroke="black" points="362.5,-0 362.5,-30 513.5,-30 513.5,-0 362.5,-0"/>
<text text-anchor="start" x="370.5" y="-18" font-family="Helvetica,sans-Serif" font-size="10.00">authoring.eventhandlers.</text>
<text text-anchor="middle" x="438" y="-7" font-family="Helvetica,sans-Serif" font-size="10.00">AddLevelHandler.getPrompt</text>
</a>
</g>
</g>
<!-- Node2&#45;&gt;Node3 -->
<g id="edge2" class="edge"><title>Node2&#45;&gt;Node3</title>
<path fill="none" stroke="midnightblue" d="M336.007,-15C344.803,-15 353.681,-15 362.331,-15"/>
<polygon fill="midnightblue" stroke="midnightblue" points="335.738,-11.5001 325.738,-15 335.738,-18.5001 335.738,-11.5001"/>
</g>
<!-- Node4 -->
<g id="node4" class="node"><title>Node4</title>
<g id="a_node4"><a xlink:href="../../d4/d95/classauthoring_1_1eventhandlers_1_1_add_level_handler.html#a23ded002286606515b56a80a315ece08" target="_top" xlink:title="authoring.eventhandlers.\lAddLevelHandler.promptLevelID">
<polygon fill="white" stroke="black" points="550,-0 550,-30 720,-30 720,-0 550,-0"/>
<text text-anchor="start" x="558" y="-18" font-family="Helvetica,sans-Serif" font-size="10.00">authoring.eventhandlers.</text>
<text text-anchor="middle" x="635" y="-7" font-family="Helvetica,sans-Serif" font-size="10.00">AddLevelHandler.promptLevelID</text>
</a>
</g>
</g>
<!-- Node3&#45;&gt;Node4 -->
<g id="edge3" class="edge"><title>Node3&#45;&gt;Node4</title>
<path fill="none" stroke="midnightblue" d="M523.631,-15C532.282,-15 541.071,-15 549.718,-15"/>
<polygon fill="midnightblue" stroke="midnightblue" points="523.556,-11.5001 513.556,-15 523.556,-18.5001 523.556,-11.5001"/>
</g>
<!-- Node5 -->
<g id="node5" class="node"><title>Node5</title>
<g id="a_node5"><a xlink:href="../../d4/d95/classauthoring_1_1eventhandlers_1_1_add_level_handler.html#a9a0d2dde9cdac11aa5914db24e516b1a" target="_top" xlink:title="authoring.eventhandlers.\lAddLevelHandler.handle">
<polygon fill="white" stroke="black" points="756.5,-0 756.5,-30 893.5,-30 893.5,-0 756.5,-0"/>
<text text-anchor="start" x="764.5" y="-18" font-family="Helvetica,sans-Serif" font-size="10.00">authoring.eventhandlers.</text>
<text text-anchor="middle" x="825" y="-7" font-family="Helvetica,sans-Serif" font-size="10.00">AddLevelHandler.handle</text>
</a>
</g>
</g>
<!-- Node4&#45;&gt;Node5 -->
<g id="edge4" class="edge"><title>Node4&#45;&gt;Node5</title>
<path fill="none" stroke="midnightblue" d="M730.365,-15C739.122,-15 747.874,-15 756.319,-15"/>
<polygon fill="midnightblue" stroke="midnightblue" points="730.102,-11.5001 720.102,-15 730.102,-18.5001 730.102,-11.5001"/>
</g>
</g>
</svg>
