<?xml version="1.0" encoding="UTF-8" standalone="no"?>
<!DOCTYPE svg PUBLIC "-//W3C//DTD SVG 1.1//EN"
 "http://www.w3.org/Graphics/SVG/1.1/DTD/svg11.dtd">
<!-- Generated by graphviz version 2.36.0 (20140111.2315)
 -->
<!-- Title: authoring.model.collections.GeneralCollection&lt; T &gt; Pages: 1 -->
<svg width="302pt" height="176pt"
 viewBox="0.00 0.00 302.00 176.00" xmlns="http://www.w3.org/2000/svg" xmlns:xlink="http://www.w3.org/1999/xlink">
<g id="graph0" class="graph" transform="scale(1 1) rotate(0) translate(4 172)">
<title>authoring.model.collections.GeneralCollection&lt; T &gt;</title>
<polygon fill="white" stroke="none" points="-4,4 -4,-172 298,-172 298,4 -4,4"/>
<!-- Node1 -->
<g id="node1" class="node"><title>Node1</title>
<polygon fill="#bfbfbf" stroke="black" points="99,-1 99,-31 251,-31 251,-1 99,-1"/>
<text text-anchor="start" x="107" y="-19" font-family="Helvetica,sans-Serif" font-size="10.00">authoring.model.collections.</text>
<text text-anchor="middle" x="175" y="-8" font-family="Helvetica,sans-Serif" font-size="10.00">GeneralCollection&lt; T &gt;</text>
</g>
<!-- Node2 -->
<g id="node2" class="node"><title>Node2</title>
<g id="a_node2"><a xlink:href="../../d3/d8d/classdata_1_1_observable.html" target="_top" xlink:title="data.Observable">
<polygon fill="white" stroke="black" points="21.5,-80.5 21.5,-99.5 116.5,-99.5 116.5,-80.5 21.5,-80.5"/>
<text text-anchor="middle" x="69" y="-87.5" font-family="Helvetica,sans-Serif" font-size="10.00">data.Observable</text>
</a>
</g>
</g>
<!-- Node2&#45;&gt;Node1 -->
<g id="edge1" class="edge"><title>Node2&#45;&gt;Node1</title>
<path fill="none" stroke="midnightblue" d="M89.9408,-74.7761C108.506,-62.1655 135.479,-43.8444 154.048,-31.2316"/>
<polygon fill="midnightblue" stroke="midnightblue" points="87.8814,-71.9438 81.5758,-80.4579 91.8146,-77.7343 87.8814,-71.9438"/>
</g>
<!-- Node3 -->
<g id="node3" class="node"><title>Node3</title>
<polygon fill="white" stroke="#bfbfbf" points="0,-148.5 0,-167.5 138,-167.5 138,-148.5 0,-148.5"/>
<text text-anchor="middle" x="69" y="-155.5" font-family="Helvetica,sans-Serif" font-size="10.00">Vector&lt; data.Observer &gt;</text>
</g>
<!-- Node3&#45;&gt;Node2 -->
<g id="edge2" class="edge"><title>Node3&#45;&gt;Node2</title>
<path fill="none" stroke="#9a32cd" stroke-dasharray="5,2" d="M69,-138.041C69,-125.472 69,-109.563 69,-99.8411"/>
<polygon fill="#9a32cd" stroke="#9a32cd" points="65.5001,-138.372 69,-148.372 72.5001,-138.372 65.5001,-138.372"/>
<text text-anchor="middle" x="79.5" y="-121.5" font-family="Helvetica,sans-Serif" font-size="10.00"> obs</text>
</g>
<!-- Node4 -->
<g id="node4" class="node"><title>Node4</title>
<polygon fill="white" stroke="#bfbfbf" points="135,-80.5 135,-99.5 215,-99.5 215,-80.5 135,-80.5"/>
<text text-anchor="middle" x="175" y="-87.5" font-family="Helvetica,sans-Serif" font-size="10.00">Iterable&lt; T &gt;</text>
</g>
<!-- Node4&#45;&gt;Node1 -->
<g id="edge3" class="edge"><title>Node4&#45;&gt;Node1</title>
<path fill="none" stroke="midnightblue" d="M175,-70.0846C175,-57.9148 175,-42.3538 175,-31.2316"/>
<polygon fill="midnightblue" stroke="midnightblue" points="171.5,-70.4579 175,-80.4579 178.5,-70.4579 171.5,-70.4579"/>
</g>
<!-- Node5 -->
<g id="node5" class="node"><title>Node5</title>
<polygon fill="white" stroke="#bfbfbf" points="233.5,-80.5 233.5,-99.5 294.5,-99.5 294.5,-80.5 233.5,-80.5"/>
<text text-anchor="middle" x="264" y="-87.5" font-family="Helvetica,sans-Serif" font-size="10.00">List&lt; T &gt;</text>
</g>
<!-- Node5&#45;&gt;Node1 -->
<g id="edge4" class="edge"><title>Node5&#45;&gt;Node1</title>
<path fill="none" stroke="#9a32cd" stroke-dasharray="5,2" d="M245.56,-74.0826C230.008,-61.5012 207.899,-43.6151 192.592,-31.2316"/>
<polygon fill="#9a32cd" stroke="#9a32cd" points="243.465,-76.8895 253.441,-80.4579 247.868,-71.4473 243.465,-76.8895"/>
<text text-anchor="middle" x="258.5" y="-53.5" font-family="Helvetica,sans-Serif" font-size="10.00"> myObjects</text>
</g>
</g>
</svg>
