<?xml version="1.0" encoding="UTF-8" standalone="no"?>
<!DOCTYPE svg PUBLIC "-//W3C//DTD SVG 1.1//EN"
 "http://www.w3.org/Graphics/SVG/1.1/DTD/svg11.dtd">
<!-- Generated by graphviz version 2.36.0 (20140111.2315)
 -->
<!-- Title: authoring.eventhandlers.IconClickHandler Pages: 1 -->
<!--zoomable 893 -->
<svg id="main" version="1.1" xmlns="http://www.w3.org/2000/svg" xmlns:xlink="http://www.w3.org/1999/xlink" xml:space="preserve" onload="init(evt)">
<style type="text/css"><![CDATA[
.edge:hover path { stroke: red; }
.edge:hover polygon { stroke: red; fill: red; }
]]></style>
<script type="text/javascript"><![CDATA[
var edges = document.getElementsByTagName('g');
if (edges && edges.length) {
  for (var i=0;i<edges.length;i++) {
    if (edges[i].id.substr(0,4)=='edge') {
      edges[i].setAttribute('class','edge');
    }
  }
}
]]></script>
        <defs>
                <circle id="rim" cx="0" cy="0" r="7"/>
                <circle id="rim2" cx="0" cy="0" r="3.5"/>
                <g id="zoomPlus">
                        <use xlink:href="#rim" fill="#404040">
                                <set attributeName="fill" to="#808080" begin="zoomplus.mouseover" end="zoomplus.mouseout"/>
                        </use>
                        <path d="M-4,0h8M0,-4v8" fill="none" stroke="white" stroke-width="1.5" pointer-events="none"/>
                </g>
                <g id="zoomMin">
                        <use xlink:href="#rim" fill="#404040">
                                <set attributeName="fill" to="#808080" begin="zoomminus.mouseover" end="zoomminus.mouseout"/>
                        </use>
                        <path d="M-4,0h8" fill="none" stroke="white" stroke-width="1.5" pointer-events="none"/>
                </g>
                <g id="dirArrow">
                        <path fill="none" stroke="white" stroke-width="1.5" d="M0,-3.0v7 M-2.5,-0.5L0,-3.0L2.5,-0.5"/>
                </g>
               <g id="resetDef">
                       <use xlink:href="#rim2" fill="#404040">
                               <set attributeName="fill" to="#808080" begin="reset.mouseover" end="reset.mouseout"/>
                       </use>
               </g>
        </defs>

<script type="text/javascript">
var viewWidth = 1728;
var viewHeight = 893;
var sectionId = 'dynsection-1';
</script>
<script xlink:href="../../svgpan.js"/>
<svg id="graph" class="graph">
<g id="viewport">
<title>authoring.eventhandlers.IconClickHandler</title>
<polygon fill="white" stroke="none" points="-4,4 -4,-889 1724,-889 1724,4 -4,4"/>
<!-- Node1 -->
<g id="node1" class="node"><title>Node1</title>
<polygon fill="#bfbfbf" stroke="black" points="1582.5,-739 1582.5,-769 1719.5,-769 1719.5,-739 1582.5,-739"/>
<text text-anchor="start" x="1590.5" y="-757" font-family="Helvetica,sans-Serif" font-size="10.00">authoring.eventhandlers.</text>
<text text-anchor="middle" x="1651" y="-746" font-family="Helvetica,sans-Serif" font-size="10.00">IconClickHandler</text>
</g>
<!-- Node2 -->
<g id="node2" class="node"><title>Node2</title>
<g id="a_node2"><a xlink:href="../../d3/d6a/interfaceauthoring_1_1eventhandlers_1_1_game_handler.html" target="_top" xlink:title="authoring.eventhandlers.\lGameHandler\&lt; MouseEvent \&gt;">
<polygon fill="white" stroke="black" points="1314,-758 1314,-788 1478,-788 1478,-758 1314,-758"/>
<text text-anchor="start" x="1322" y="-776" font-family="Helvetica,sans-Serif" font-size="10.00">authoring.eventhandlers.</text>
<text text-anchor="middle" x="1396" y="-765" font-family="Helvetica,sans-Serif" font-size="10.00">GameHandler&lt; MouseEvent &gt;</text>
</a>
</g>
</g>
<!-- Node2&#45;&gt;Node1 -->
<g id="edge1" class="edge"><title>Node2&#45;&gt;Node1</title>
<path fill="none" stroke="midnightblue" d="M1488.09,-766.159C1519.25,-763.819 1553.53,-761.245 1582.49,-759.07"/>
<polygon fill="midnightblue" stroke="midnightblue" points="1487.8,-762.671 1478.09,-766.91 1488.33,-769.651 1487.8,-762.671"/>
</g>
<!-- Node3 -->
<g id="node3" class="node"><title>Node3</title>
<g id="a_node3"><a xlink:href="../../d4/d9e/classauthoring_1_1view_1_1propertiesview_1_1_properties_view.html" target="_top" xlink:title="authoring.view.propertiesview.\lPropertiesView">
<polygon fill="white" stroke="black" points="1316.5,-709 1316.5,-739 1475.5,-739 1475.5,-709 1316.5,-709"/>
<text text-anchor="start" x="1324.5" y="-727" font-family="Helvetica,sans-Serif" font-size="10.00">authoring.view.propertiesview.</text>
<text text-anchor="middle" x="1396" y="-716" font-family="Helvetica,sans-Serif" font-size="10.00">PropertiesView</text>
</a>
</g>
</g>
<!-- Node3&#45;&gt;Node1 -->
<g id="edge2" class="edge"><title>Node3&#45;&gt;Node1</title>
<path fill="none" stroke="#9a32cd" stroke-dasharray="5,2" d="M1485.84,-734.534C1517.59,-738.299 1552.82,-742.477 1582.48,-745.994"/>
<polygon fill="#9a32cd" stroke="#9a32cd" points="1486.01,-731.03 1475.66,-733.328 1485.18,-737.981 1486.01,-731.03"/>
<text text-anchor="middle" x="1530" y="-746" font-family="Helvetica,sans-Serif" font-size="10.00"> myProperties</text>
</g>
<!-- Node4 -->
<g id="node4" class="node"><title>Node4</title>
<g id="a_node4"><a xlink:href="../../de/d93/classauthoring_1_1view_1_1baseclasses_1_1_collection_view.html" target="_top" xlink:title="authoring.view.baseclasses.\lCollectionView">
<polygon fill="white" stroke="black" points="982.5,-811 982.5,-841 1131.5,-841 1131.5,-811 982.5,-811"/>
<text text-anchor="start" x="990.5" y="-829" font-family="Helvetica,sans-Serif" font-size="10.00">authoring.view.baseclasses.</text>
<text text-anchor="middle" x="1057" y="-818" font-family="Helvetica,sans-Serif" font-size="10.00">CollectionView</text>
</a>
</g>
</g>
<!-- Node4&#45;&gt;Node3 -->
<g id="edge3" class="edge"><title>Node4&#45;&gt;Node3</title>
<path fill="none" stroke="midnightblue" d="M1142.04,-829.026C1191.19,-826.728 1252.01,-816.424 1296,-784 1310.08,-773.621 1300.59,-760.236 1314,-749 1318.62,-745.124 1323.85,-741.848 1329.35,-739.08"/>
<polygon fill="midnightblue" stroke="midnightblue" points="1141.6,-825.539 1131.73,-829.4 1141.86,-832.535 1141.6,-825.539"/>
</g>
<!-- Node5 -->
<g id="node5" class="node"><title>Node5</title>
<polygon fill="white" stroke="#bfbfbf" points="678,-865.5 678,-884.5 744,-884.5 744,-865.5 678,-865.5"/>
<text text-anchor="middle" x="711" y="-872.5" font-family="Helvetica,sans-Serif" font-size="10.00">ScrollPane</text>
</g>
<!-- Node5&#45;&gt;Node4 -->
<g id="edge4" class="edge"><title>Node5&#45;&gt;Node4</title>
<path fill="none" stroke="midnightblue" d="M754.374,-871.131C802.443,-866.493 883.105,-857.955 952,-847 962.915,-845.264 974.426,-843.189 985.655,-841.028"/>
<polygon fill="midnightblue" stroke="midnightblue" points="753.959,-867.655 744.337,-872.088 754.624,-874.623 753.959,-867.655"/>
</g>
<!-- Node6 -->
<g id="node6" class="node"><title>Node6</title>
<polygon fill="white" stroke="#bfbfbf" points="664.5,-827.5 664.5,-846.5 757.5,-846.5 757.5,-827.5 664.5,-827.5"/>
<text text-anchor="middle" x="711" y="-834.5" font-family="Helvetica,sans-Serif" font-size="10.00">ResourceBundle</text>
</g>
<!-- Node6&#45;&gt;Node4 -->
<g id="edge5" class="edge"><title>Node6&#45;&gt;Node4</title>
<path fill="none" stroke="#9a32cd" stroke-dasharray="5,2" d="M767.821,-835.215C826.206,-833.348 918.128,-830.409 982.411,-828.353"/>
<polygon fill="#9a32cd" stroke="#9a32cd" points="767.564,-831.721 757.681,-835.539 767.787,-838.718 767.564,-831.721"/>
<text text-anchor="middle" x="897" y="-835" font-family="Helvetica,sans-Serif" font-size="10.00"> myLanguage</text>
</g>
<!-- Node7 -->
<g id="node7" class="node"><title>Node7</title>
<g id="a_node7"><a xlink:href="../../d3/d6a/interfaceauthoring_1_1eventhandlers_1_1_game_handler.html" target="_top" xlink:title="authoring.eventhandlers.\lGameHandler\&lt; T extends\l Event \&gt;">
<polygon fill="white" stroke="black" points="640.5,-752.5 640.5,-793.5 781.5,-793.5 781.5,-752.5 640.5,-752.5"/>
<text text-anchor="start" x="648.5" y="-781.5" font-family="Helvetica,sans-Serif" font-size="10.00">authoring.eventhandlers.</text>
<text text-anchor="start" x="648.5" y="-770.5" font-family="Helvetica,sans-Serif" font-size="10.00">GameHandler&lt; T extends</text>
<text text-anchor="middle" x="711" y="-759.5" font-family="Helvetica,sans-Serif" font-size="10.00"> Event &gt;</text>
</a>
</g>
</g>
<!-- Node7&#45;&gt;Node3 -->
<g id="edge40" class="edge"><title>Node7&#45;&gt;Node3</title>
<path fill="none" stroke="#9a32cd" stroke-dasharray="5,2" d="M792.074,-770.246C904.748,-765.906 1116.41,-756.05 1296,-738 1302.65,-737.332 1309.54,-736.548 1316.44,-735.698"/>
<polygon fill="#9a32cd" stroke="#9a32cd" points="791.674,-766.759 781.815,-770.636 791.941,-773.754 791.674,-766.759"/>
<text text-anchor="middle" x="1057" y="-765" font-family="Helvetica,sans-Serif" font-size="10.00"> myButtonBehaviors</text>
</g>
<!-- Node7&#45;&gt;Node4 -->
<g id="edge6" class="edge"><title>Node7&#45;&gt;Node4</title>
<path fill="none" stroke="#9a32cd" stroke-dasharray="5,2" d="M791.75,-785.287C849.247,-794.146 926.277,-806.014 982.329,-814.649"/>
<polygon fill="#9a32cd" stroke="#9a32cd" points="792.03,-781.789 781.614,-783.725 790.964,-788.707 792.03,-781.789"/>
<text text-anchor="middle" x="897" y="-811" font-family="Helvetica,sans-Serif" font-size="10.00"> myIconEvents</text>
</g>
<!-- Node10 -->
<g id="node10" class="node"><title>Node10</title>
<g id="a_node10"><a xlink:href="../../da/d8d/classauthoring_1_1view_1_1propertiesview_1_1_game_object_properties.html" target="_top" xlink:title="authoring.view.propertiesview.\lGameObjectProperties">
<polygon fill="white" stroke="black" points="977.5,-607 977.5,-637 1136.5,-637 1136.5,-607 977.5,-607"/>
<text text-anchor="start" x="985.5" y="-625" font-family="Helvetica,sans-Serif" font-size="10.00">authoring.view.propertiesview.</text>
<text text-anchor="middle" x="1057" y="-614" font-family="Helvetica,sans-Serif" font-size="10.00">GameObjectProperties</text>
</a>
</g>
</g>
<!-- Node7&#45;&gt;Node10 -->
<g id="edge17" class="edge"><title>Node7&#45;&gt;Node10</title>
<path fill="none" stroke="#9a32cd" stroke-dasharray="5,2" d="M745.094,-745.893C781.761,-715.955 836.485,-671.599 842,-669 887.18,-647.706 903.219,-656.727 952,-646 964.849,-643.174 978.571,-640.07 991.693,-637.059"/>
<polygon fill="#9a32cd" stroke="#9a32cd" points="742.643,-743.376 737.114,-752.413 747.072,-748.796 742.643,-743.376"/>
<text text-anchor="middle" x="897" y="-694" font-family="Helvetica,sans-Serif" font-size="10.00"> myDeleteHandler</text>
<text text-anchor="middle" x="897" y="-683" font-family="Helvetica,sans-Serif" font-size="10.00">mySaveAsNewHandler</text>
<text text-anchor="middle" x="897" y="-672" font-family="Helvetica,sans-Serif" font-size="10.00">myEditHandler</text>
</g>
<!-- Node8 -->
<g id="node8" class="node"><title>Node8</title>
<polygon fill="white" stroke="#bfbfbf" points="245,-763.5 245,-782.5 421,-782.5 421,-763.5 245,-763.5"/>
<text text-anchor="middle" x="333" y="-770.5" font-family="Helvetica,sans-Serif" font-size="10.00">javafx::event::EventHandler&lt; T &gt;</text>
</g>
<!-- Node8&#45;&gt;Node7 -->
<g id="edge7" class="edge"><title>Node8&#45;&gt;Node7</title>
<path fill="none" stroke="midnightblue" d="M431.532,-773C496.932,-773 581.511,-773 640.213,-773"/>
<polygon fill="midnightblue" stroke="midnightblue" points="431.207,-769.5 421.207,-773 431.207,-776.5 431.207,-769.5"/>
</g>
<!-- Node9 -->
<g id="node9" class="node"><title>Node9</title>
<polygon fill="white" stroke="#bfbfbf" points="312.5,-701.5 312.5,-720.5 353.5,-720.5 353.5,-701.5 312.5,-701.5"/>
<text text-anchor="middle" x="333" y="-708.5" font-family="Helvetica,sans-Serif" font-size="10.00">VBox</text>
</g>
<!-- Node9&#45;&gt;Node3 -->
<g id="edge8" class="edge"><title>Node9&#45;&gt;Node3</title>
<path fill="none" stroke="#9a32cd" stroke-dasharray="5,2" d="M363.794,-711.365C503.955,-713.082 1099.91,-720.384 1316.19,-723.034"/>
<polygon fill="#9a32cd" stroke="#9a32cd" points="363.824,-707.865 353.782,-711.242 363.738,-714.865 363.824,-707.865"/>
<text text-anchor="middle" x="897" y="-721" font-family="Helvetica,sans-Serif" font-size="10.00"> myContents</text>
</g>
<!-- Node11 -->
<g id="node11" class="node"><title>Node11</title>
<g id="a_node11"><a xlink:href="../../de/d73/classauthoring_1_1view_1_1propertiesview_1_1_properties.html" target="_top" xlink:title="authoring.view.propertiesview.\lProperties">
<polygon fill="white" stroke="black" points="631.5,-643 631.5,-673 790.5,-673 790.5,-643 631.5,-643"/>
<text text-anchor="start" x="639.5" y="-661" font-family="Helvetica,sans-Serif" font-size="10.00">authoring.view.propertiesview.</text>
<text text-anchor="middle" x="711" y="-650" font-family="Helvetica,sans-Serif" font-size="10.00">Properties</text>
</a>
</g>
</g>
<!-- Node9&#45;&gt;Node11 -->
<g id="edge11" class="edge"><title>Node9&#45;&gt;Node11</title>
<path fill="none" stroke="midnightblue" d="M363.866,-706.79C421.167,-698.713 548.224,-680.803 631.423,-669.076"/>
<polygon fill="midnightblue" stroke="midnightblue" points="363.1,-703.364 353.686,-708.225 364.077,-710.295 363.1,-703.364"/>
</g>
<!-- Node10&#45;&gt;Node3 -->
<g id="edge9" class="edge"><title>Node10&#45;&gt;Node3</title>
<path fill="none" stroke="#9a32cd" stroke-dasharray="5,2" d="M1117.39,-639.976C1182.17,-659.582 1284.69,-690.611 1345.35,-708.971"/>
<polygon fill="#9a32cd" stroke="#9a32cd" points="1118.31,-636.598 1107.73,-637.05 1116.28,-643.297 1118.31,-636.598"/>
<text text-anchor="middle" x="1229" y="-696" font-family="Helvetica,sans-Serif" font-size="10.00"> myGameObjectsProperties</text>
</g>
<!-- Node11&#45;&gt;Node10 -->
<g id="edge10" class="edge"><title>Node11&#45;&gt;Node10</title>
<path fill="none" stroke="midnightblue" d="M800.939,-648.692C855.551,-642.977 924.864,-635.724 977.447,-630.221"/>
<polygon fill="midnightblue" stroke="midnightblue" points="800.502,-645.219 790.921,-649.741 801.231,-652.181 800.502,-645.219"/>
</g>
<!-- Node12 -->
<g id="node12" class="node"><title>Node12</title>
<polygon fill="white" stroke="#bfbfbf" points="220.5,-643 220.5,-673 445.5,-673 445.5,-643 220.5,-643"/>
<text text-anchor="start" x="228.5" y="-661" font-family="Helvetica,sans-Serif" font-size="10.00">Map&lt; String, authoring.view.propertiesview.</text>
<text text-anchor="middle" x="333" y="-650" font-family="Helvetica,sans-Serif" font-size="10.00">PropertyField &gt;</text>
</g>
<!-- Node12&#45;&gt;Node11 -->
<g id="edge12" class="edge"><title>Node12&#45;&gt;Node11</title>
<path fill="none" stroke="#9a32cd" stroke-dasharray="5,2" d="M455.808,-658C513.415,-658 580.528,-658 631.323,-658"/>
<polygon fill="#9a32cd" stroke="#9a32cd" points="455.54,-654.5 445.54,-658 455.54,-661.5 455.54,-654.5"/>
<text text-anchor="middle" x="522" y="-661" font-family="Helvetica,sans-Serif" font-size="10.00"> myMap</text>
</g>
<!-- Node13 -->
<g id="node13" class="node"><title>Node13</title>
<polygon fill="white" stroke="#bfbfbf" points="640.5,-599.5 640.5,-618.5 781.5,-618.5 781.5,-599.5 640.5,-599.5"/>
<text text-anchor="middle" x="711" y="-606.5" font-family="Helvetica,sans-Serif" font-size="10.00">Map&lt; String, CheckBox &gt;</text>
</g>
<!-- Node13&#45;&gt;Node10 -->
<g id="edge13" class="edge"><title>Node13&#45;&gt;Node10</title>
<path fill="none" stroke="#9a32cd" stroke-dasharray="5,2" d="M791.706,-607.125C838.448,-606.576 898.622,-606.819 952,-610 960.255,-610.492 968.861,-611.188 977.433,-612"/>
<polygon fill="#9a32cd" stroke="#9a32cd" points="791.595,-603.626 781.642,-607.258 791.687,-610.625 791.595,-603.626"/>
<text text-anchor="middle" x="897" y="-613" font-family="Helvetica,sans-Serif" font-size="10.00"> booleanProperties</text>
</g>
<!-- Node14 -->
<g id="node14" class="node"><title>Node14</title>
<polygon fill="white" stroke="#bfbfbf" points="598.5,-531 598.5,-561 823.5,-561 823.5,-531 598.5,-531"/>
<text text-anchor="start" x="606.5" y="-549" font-family="Helvetica,sans-Serif" font-size="10.00">Map&lt; String, authoring.view.propertiesview.</text>
<text text-anchor="middle" x="711" y="-538" font-family="Helvetica,sans-Serif" font-size="10.00">PropertyTextField &gt;</text>
</g>
<!-- Node14&#45;&gt;Node10 -->
<g id="edge14" class="edge"><title>Node14&#45;&gt;Node10</title>
<path fill="none" stroke="#9a32cd" stroke-dasharray="5,2" d="M833.831,-541.138C872.331,-542.62 914.576,-547.449 952,-559 984.677,-569.086 1017.64,-591.635 1037.45,-606.835"/>
<polygon fill="#9a32cd" stroke="#9a32cd" points="833.711,-537.632 823.606,-540.818 833.492,-544.629 833.711,-537.632"/>
<text text-anchor="middle" x="897" y="-595" font-family="Helvetica,sans-Serif" font-size="10.00"> physicsProperties</text>
<text text-anchor="middle" x="897" y="-584" font-family="Helvetica,sans-Serif" font-size="10.00">wizardProperties</text>
<text text-anchor="middle" x="897" y="-573" font-family="Helvetica,sans-Serif" font-size="10.00">concreteTextProperties</text>
<text text-anchor="middle" x="897" y="-562" font-family="Helvetica,sans-Serif" font-size="10.00">inherentTextProperties</text>
</g>
<!-- Node15 -->
<g id="node15" class="node"><title>Node15</title>
<g id="a_node15"><a xlink:href="../../dd/db2/classauthoring_1_1view_1_1baseclasses_1_1_accordion_container.html" target="_top" xlink:title="authoring.view.baseclasses.\lAccordionContainer">
<polygon fill="white" stroke="black" points="636.5,-482 636.5,-512 785.5,-512 785.5,-482 636.5,-482"/>
<text text-anchor="start" x="644.5" y="-500" font-family="Helvetica,sans-Serif" font-size="10.00">authoring.view.baseclasses.</text>
<text text-anchor="middle" x="711" y="-489" font-family="Helvetica,sans-Serif" font-size="10.00">AccordionContainer</text>
</a>
</g>
</g>
<!-- Node15&#45;&gt;Node10 -->
<g id="edge15" class="edge"><title>Node15&#45;&gt;Node10</title>
<path fill="none" stroke="#9a32cd" stroke-dasharray="5,2" d="M795.506,-495.116C843.287,-496.994 903.233,-504.5 952,-527 991.969,-545.441 1027.15,-584.916 1044.51,-606.729"/>
<polygon fill="#9a32cd" stroke="#9a32cd" points="795.61,-491.618 785.503,-494.798 795.387,-498.614 795.61,-491.618"/>
<text text-anchor="middle" x="897" y="-530" font-family="Helvetica,sans-Serif" font-size="10.00"> myAccordion</text>
</g>
<!-- Node16 -->
<g id="node16" class="node"><title>Node16</title>
<polygon fill="white" stroke="#bfbfbf" points="301,-501.5 301,-520.5 365,-520.5 365,-501.5 301,-501.5"/>
<text text-anchor="middle" x="333" y="-508.5" font-family="Helvetica,sans-Serif" font-size="10.00">Accordion</text>
</g>
<!-- Node16&#45;&gt;Node15 -->
<g id="edge16" class="edge"><title>Node16&#45;&gt;Node15</title>
<path fill="none" stroke="midnightblue" d="M375.39,-509.459C438.172,-507.121 558.396,-502.645 636.34,-499.743"/>
<polygon fill="midnightblue" stroke="midnightblue" points="374.952,-505.973 365.09,-509.842 375.213,-512.968 374.952,-505.973"/>
</g>
<!-- Node17 -->
<g id="node17" class="node"><title>Node17</title>
<g id="a_node17"><a xlink:href="../../d0/d7f/classengine_1_1game_object_1_1_game_object.html" target="_top" xlink:title="engine.gameObject.GameObject">
<polygon fill="white" stroke="black" points="970.5,-236.5 970.5,-255.5 1143.5,-255.5 1143.5,-236.5 970.5,-236.5"/>
<text text-anchor="middle" x="1057" y="-243.5" font-family="Helvetica,sans-Serif" font-size="10.00">engine.gameObject.GameObject</text>
</a>
</g>
</g>
<!-- Node17&#45;&gt;Node3 -->
<g id="edge18" class="edge"><title>Node17&#45;&gt;Node3</title>
<path fill="none" stroke="#9a32cd" stroke-dasharray="5,2" d="M1070.79,-264.144C1124.85,-340.823 1334.1,-637.618 1384.18,-708.658"/>
<polygon fill="#9a32cd" stroke="#9a32cd" points="1073.35,-261.704 1064.73,-255.548 1067.63,-265.738 1073.35,-261.704"/>
<text text-anchor="middle" x="1229" y="-586" font-family="Helvetica,sans-Serif" font-size="10.00"> myCurrentGameObject</text>
</g>
<!-- Node18 -->
<g id="node18" class="node"><title>Node18</title>
<g id="a_node18"><a xlink:href="../../d7/de6/interfaceengine_1_1game_object_1_1_i_enabled.html" target="_top" xlink:title="engine.gameObject.IEnabled">
<polygon fill="white" stroke="black" points="634,-213.5 634,-232.5 788,-232.5 788,-213.5 634,-213.5"/>
<text text-anchor="middle" x="711" y="-220.5" font-family="Helvetica,sans-Serif" font-size="10.00">engine.gameObject.IEnabled</text>
</a>
</g>
</g>
<!-- Node18&#45;&gt;Node17 -->
<g id="edge19" class="edge"><title>Node18&#45;&gt;Node17</title>
<path fill="none" stroke="midnightblue" d="M798.646,-228.793C851.142,-232.303 917.848,-236.763 970.192,-240.263"/>
<polygon fill="midnightblue" stroke="midnightblue" points="798.556,-225.279 788.345,-228.104 798.089,-232.264 798.556,-225.279"/>
</g>
<!-- Node19 -->
<g id="node19" class="node"><title>Node19</title>
<polygon fill="white" stroke="#bfbfbf" points="645.5,-175.5 645.5,-194.5 776.5,-194.5 776.5,-175.5 645.5,-175.5"/>
<text text-anchor="middle" x="711" y="-182.5" font-family="Helvetica,sans-Serif" font-size="10.00">Iterable&lt; Component &gt;</text>
</g>
<!-- Node19&#45;&gt;Node17 -->
<g id="edge20" class="edge"><title>Node19&#45;&gt;Node17</title>
<path fill="none" stroke="midnightblue" d="M779.092,-196.258C793.889,-198.775 809.479,-201.454 824,-204 886.089,-214.886 957.433,-227.874 1004.43,-236.495"/>
<polygon fill="midnightblue" stroke="midnightblue" points="779.443,-192.767 768.998,-194.544 778.271,-199.668 779.443,-192.767"/>
</g>
<!-- Node20 -->
<g id="node20" class="node"><title>Node20</title>
<g id="a_node20"><a xlink:href="../../dc/df6/interfaceengine_1_1game_object_1_1_identifiable.html" target="_top" xlink:title="engine.gameObject.Identifiable">
<polygon fill="white" stroke="black" points="628.5,-137.5 628.5,-156.5 793.5,-156.5 793.5,-137.5 628.5,-137.5"/>
<text text-anchor="middle" x="711" y="-144.5" font-family="Helvetica,sans-Serif" font-size="10.00">engine.gameObject.Identifiable</text>
</a>
</g>
</g>
<!-- Node20&#45;&gt;Node17 -->
<g id="edge21" class="edge"><title>Node20&#45;&gt;Node17</title>
<path fill="none" stroke="midnightblue" d="M786.278,-158.305C798.917,-160.599 811.873,-163.182 824,-166 881.803,-179.431 895.979,-184.423 952,-204 980.676,-214.021 1013.02,-227.425 1033.92,-236.368"/>
<polygon fill="midnightblue" stroke="midnightblue" points="786.688,-154.824 776.232,-156.53 785.47,-161.717 786.688,-154.824"/>
</g>
<!-- Node21 -->
<g id="node21" class="node"><title>Node21</title>
<g id="a_node21"><a xlink:href="../../d4/dac/classengine_1_1game_object_1_1_identifier.html" target="_top" xlink:title="engine.gameObject.Identifier">
<polygon fill="white" stroke="black" points="633.5,-25.5 633.5,-44.5 788.5,-44.5 788.5,-25.5 633.5,-25.5"/>
<text text-anchor="middle" x="711" y="-32.5" font-family="Helvetica,sans-Serif" font-size="10.00">engine.gameObject.Identifier</text>
</a>
</g>
</g>
<!-- Node21&#45;&gt;Node17 -->
<g id="edge22" class="edge"><title>Node21&#45;&gt;Node17</title>
<path fill="none" stroke="#9a32cd" stroke-dasharray="5,2" d="M796.812,-46.4131C845.587,-56.1582 906.094,-73.9324 952,-106 1003.13,-141.719 1039.32,-210.606 1051.5,-236.152"/>
<polygon fill="#9a32cd" stroke="#9a32cd" points="797.388,-42.9598 786.907,-44.5113 796.068,-49.8342 797.388,-42.9598"/>
<text text-anchor="middle" x="897" y="-109" font-family="Helvetica,sans-Serif" font-size="10.00"> myId</text>
</g>
<!-- Node22 -->
<g id="node22" class="node"><title>Node22</title>
<polygon fill="white" stroke="#bfbfbf" points="305,-0.5 305,-19.5 361,-19.5 361,-0.5 305,-0.5"/>
<text text-anchor="middle" x="333" y="-7.5" font-family="Helvetica,sans-Serif" font-size="10.00">Random</text>
</g>
<!-- Node22&#45;&gt;Node21 -->
<g id="edge23" class="edge"><title>Node22&#45;&gt;Node21</title>
<path fill="none" stroke="#9a32cd" stroke-dasharray="5,2" d="M371.618,-10.9505C419.915,-12.3388 506.287,-15.3883 580,-21 597.315,-22.3182 615.891,-24.0987 633.427,-25.9476"/>
<polygon fill="#9a32cd" stroke="#9a32cd" points="371.429,-7.44399 361.336,-10.6637 371.234,-14.4413 371.429,-7.44399"/>
<text text-anchor="middle" x="522" y="-24" font-family="Helvetica,sans-Serif" font-size="10.00"> r</text>
</g>
<!-- Node23 -->
<g id="node23" class="node"><title>Node23</title>
<g id="a_node23"><a xlink:href="../../da/d35/classengine_1_1scrolling_1_1_scrolling_utility.html" target="_top" xlink:title="engine.scrolling.Scrolling\lUtility">
<polygon fill="white" stroke="black" points="644,-419 644,-449 778,-449 778,-419 644,-419"/>
<text text-anchor="start" x="652" y="-437" font-family="Helvetica,sans-Serif" font-size="10.00">engine.scrolling.Scrolling</text>
<text text-anchor="middle" x="711" y="-426" font-family="Helvetica,sans-Serif" font-size="10.00">Utility</text>
</a>
</g>
</g>
<!-- Node23&#45;&gt;Node17 -->
<g id="edge24" class="edge"><title>Node23&#45;&gt;Node17</title>
<path fill="none" stroke="#9a32cd" stroke-dasharray="5,2" d="M788.177,-421.756C837.708,-411.259 902.116,-392.654 952,-361 997.685,-332.011 1035.74,-277.65 1049.99,-255.629"/>
<polygon fill="#9a32cd" stroke="#9a32cd" points="787.253,-418.372 778.161,-423.812 788.66,-425.229 787.253,-418.372"/>
<text text-anchor="middle" x="897" y="-411" font-family="Helvetica,sans-Serif" font-size="10.00"> myScrollingUtility</text>
</g>
<!-- Node24 -->
<g id="node24" class="node"><title>Node24</title>
<polygon fill="white" stroke="#bfbfbf" points="305.5,-463.5 305.5,-482.5 360.5,-482.5 360.5,-463.5 305.5,-463.5"/>
<text text-anchor="middle" x="333" y="-470.5" font-family="Helvetica,sans-Serif" font-size="10.00">Camera</text>
</g>
<!-- Node24&#45;&gt;Node23 -->
<g id="edge25" class="edge"><title>Node24&#45;&gt;Node23</title>
<path fill="none" stroke="#9a32cd" stroke-dasharray="5,2" d="M370.833,-469.894C418.966,-465.759 505.86,-458.027 580,-450 600.799,-447.748 623.438,-445.049 643.909,-442.514"/>
<polygon fill="#9a32cd" stroke="#9a32cd" points="370.265,-466.43 360.6,-470.77 370.862,-473.405 370.265,-466.43"/>
<text text-anchor="middle" x="522" y="-465" font-family="Helvetica,sans-Serif" font-size="10.00"> myCamera</text>
</g>
<!-- Node25 -->
<g id="node25" class="node"><title>Node25</title>
<polygon fill="white" stroke="#bfbfbf" points="231,-258 231,-288 435,-288 435,-258 231,-258"/>
<text text-anchor="start" x="239" y="-276" font-family="Helvetica,sans-Serif" font-size="10.00">List&lt; engine.gameObject.components.</text>
<text text-anchor="middle" x="333" y="-265" font-family="Helvetica,sans-Serif" font-size="10.00">Component &gt;</text>
</g>
<!-- Node25&#45;&gt;Node17 -->
<g id="edge26" class="edge"><title>Node25&#45;&gt;Node17</title>
<path fill="none" stroke="#9a32cd" stroke-dasharray="5,2" d="M445.401,-268.896C569.145,-264.327 774.857,-256.703 952,-250 957.958,-249.775 964.109,-249.541 970.303,-249.304"/>
<polygon fill="#9a32cd" stroke="#9a32cd" points="445.026,-265.407 435.162,-269.274 445.284,-272.402 445.026,-265.407"/>
<text text-anchor="middle" x="711" y="-267" font-family="Helvetica,sans-Serif" font-size="10.00"> myComponents</text>
</g>
<!-- Node37 -->
<g id="node37" class="node"><title>Node37</title>
<g id="a_node37"><a xlink:href="../../d6/d66/classengine_1_1game_object_1_1_default_data.html" target="_top" xlink:title="engine.gameObject.DefaultData">
<polygon fill="white" stroke="black" points="625.5,-298.5 625.5,-317.5 796.5,-317.5 796.5,-298.5 625.5,-298.5"/>
<text text-anchor="middle" x="711" y="-305.5" font-family="Helvetica,sans-Serif" font-size="10.00">engine.gameObject.DefaultData</text>
</a>
</g>
</g>
<!-- Node25&#45;&gt;Node37 -->
<g id="edge39" class="edge"><title>Node25&#45;&gt;Node37</title>
<path fill="none" stroke="#9a32cd" stroke-dasharray="5,2" d="M445.501,-283.379C503.108,-288.741 572.267,-295.179 625.417,-300.127"/>
<polygon fill="#9a32cd" stroke="#9a32cd" points="445.537,-279.867 435.256,-282.425 444.888,-286.837 445.537,-279.867"/>
<text text-anchor="middle" x="522" y="-299" font-family="Helvetica,sans-Serif" font-size="10.00"> myComponents</text>
</g>
<!-- Node26 -->
<g id="node26" class="node"><title>Node26</title>
<g id="a_node26"><a xlink:href="../../d2/d82/classengine_1_1render_1_1_rendered_node.html" target="_top" xlink:title="engine.render.RenderedNode">
<polygon fill="white" stroke="black" points="633,-352.5 633,-371.5 789,-371.5 789,-352.5 633,-352.5"/>
<text text-anchor="middle" x="711" y="-359.5" font-family="Helvetica,sans-Serif" font-size="10.00">engine.render.RenderedNode</text>
</a>
</g>
</g>
<!-- Node26&#45;&gt;Node17 -->
<g id="edge27" class="edge"><title>Node26&#45;&gt;Node17</title>
<path fill="none" stroke="#9a32cd" stroke-dasharray="5,2" d="M799.144,-353.295C845.769,-346.587 903.425,-334.944 952,-315 988.882,-299.858 1026.47,-270.837 1044.7,-255.711"/>
<polygon fill="#9a32cd" stroke="#9a32cd" points="798.491,-349.852 789.067,-354.693 799.453,-356.786 798.491,-349.852"/>
<text text-anchor="middle" x="897" y="-349" font-family="Helvetica,sans-Serif" font-size="10.00"> myRenderedNode</text>
</g>
<!-- Node27 -->
<g id="node27" class="node"><title>Node27</title>
<polygon fill="white" stroke="#bfbfbf" points="310,-349.5 310,-368.5 356,-368.5 356,-349.5 310,-349.5"/>
<text text-anchor="middle" x="333" y="-356.5" font-family="Helvetica,sans-Serif" font-size="10.00">Group</text>
</g>
<!-- Node27&#45;&gt;Node26 -->
<g id="edge28" class="edge"><title>Node27&#45;&gt;Node26</title>
<path fill="none" stroke="midnightblue" d="M366.275,-359.258C424.996,-359.726 550.8,-360.73 632.827,-361.384"/>
<polygon fill="midnightblue" stroke="midnightblue" points="366.144,-355.756 356.117,-359.176 366.088,-362.756 366.144,-355.756"/>
</g>
<!-- Node28 -->
<g id="node28" class="node"><title>Node28</title>
<polygon fill="white" stroke="#bfbfbf" points="312,-311.5 312,-330.5 354,-330.5 354,-311.5 312,-311.5"/>
<text text-anchor="middle" x="333" y="-318.5" font-family="Helvetica,sans-Serif" font-size="10.00">Label</text>
</g>
<!-- Node28&#45;&gt;Node26 -->
<g id="edge29" class="edge"><title>Node28&#45;&gt;Node26</title>
<path fill="none" stroke="#9a32cd" stroke-dasharray="5,2" d="M364.09,-323.851C410.476,-328.292 502.231,-337.264 580,-346 597.739,-347.993 616.823,-350.268 634.759,-352.465"/>
<polygon fill="#9a32cd" stroke="#9a32cd" points="364.392,-320.364 354.104,-322.898 363.727,-327.332 364.392,-320.364"/>
<text text-anchor="middle" x="522" y="-349" font-family="Helvetica,sans-Serif" font-size="10.00"> myLabel</text>
</g>
<!-- Node29 -->
<g id="node29" class="node"><title>Node29</title>
<polygon fill="white" stroke="#bfbfbf" points="299,-425.5 299,-444.5 367,-444.5 367,-425.5 299,-425.5"/>
<text text-anchor="middle" x="333" y="-432.5" font-family="Helvetica,sans-Serif" font-size="10.00">ImageView</text>
</g>
<!-- Node29&#45;&gt;Node26 -->
<g id="edge30" class="edge"><title>Node29&#45;&gt;Node26</title>
<path fill="none" stroke="#9a32cd" stroke-dasharray="5,2" d="M377.329,-431.052C426.75,-426.079 509.797,-416.287 580,-401 615.917,-393.179 656.334,-380.408 682.429,-371.624"/>
<polygon fill="#9a32cd" stroke="#9a32cd" points="376.919,-427.576 367.311,-432.04 377.606,-434.542 376.919,-427.576"/>
<text text-anchor="middle" x="522" y="-424" font-family="Helvetica,sans-Serif" font-size="10.00"> myImageView</text>
</g>
<!-- Node30 -->
<g id="node30" class="node"><title>Node30</title>
<polygon fill="white" stroke="#bfbfbf" points="312,-387.5 312,-406.5 354,-406.5 354,-387.5 312,-387.5"/>
<text text-anchor="middle" x="333" y="-394.5" font-family="Helvetica,sans-Serif" font-size="10.00">Node</text>
</g>
<!-- Node30&#45;&gt;Node26 -->
<g id="edge31" class="edge"><title>Node30&#45;&gt;Node26</title>
<path fill="none" stroke="#9a32cd" stroke-dasharray="5,2" d="M364.078,-394.412C410.446,-390.4 502.18,-382.371 580,-375 597.049,-373.385 615.348,-371.592 632.679,-369.867"/>
<polygon fill="#9a32cd" stroke="#9a32cd" points="363.757,-390.927 354.096,-395.275 364.36,-397.901 363.757,-390.927"/>
<text text-anchor="middle" x="522" y="-389" font-family="Helvetica,sans-Serif" font-size="10.00"> myCollisionBody</text>
</g>
<!-- Node31 -->
<g id="node31" class="node"><title>Node31</title>
<g id="a_node31"><a xlink:href="../../d9/d9d/classengine_1_1game_object_1_1components_1_1_physics_body.html" target="_top" xlink:title="engine.gameObject.components.\lPhysicsBody">
<polygon fill="white" stroke="black" points="623,-88 623,-118 799,-118 799,-88 623,-88"/>
<text text-anchor="start" x="631" y="-106" font-family="Helvetica,sans-Serif" font-size="10.00">engine.gameObject.components.</text>
<text text-anchor="middle" x="711" y="-95" font-family="Helvetica,sans-Serif" font-size="10.00">PhysicsBody</text>
</a>
</g>
</g>
<!-- Node31&#45;&gt;Node17 -->
<g id="edge32" class="edge"><title>Node31&#45;&gt;Node17</title>
<path fill="none" stroke="#9a32cd" stroke-dasharray="5,2" d="M809.163,-113.291C854.361,-120.829 907.774,-133.793 952,-156 993.397,-176.787 1031.78,-217.754 1047.94,-236.378"/>
<polygon fill="#9a32cd" stroke="#9a32cd" points="809.484,-109.798 799.056,-111.673 808.377,-116.71 809.484,-109.798"/>
<text text-anchor="middle" x="897" y="-159" font-family="Helvetica,sans-Serif" font-size="10.00"> myPhysicsBody</text>
</g>
<!-- Node32 -->
<g id="node32" class="node"><title>Node32</title>
<polygon fill="white" stroke="#bfbfbf" points="255,-88 255,-118 411,-118 411,-88 255,-88"/>
<text text-anchor="start" x="263" y="-106" font-family="Helvetica,sans-Serif" font-size="10.00">Map&lt; String, engine.physics.</text>
<text text-anchor="middle" x="333" y="-95" font-family="Helvetica,sans-Serif" font-size="10.00">Scalar &gt;</text>
</g>
<!-- Node32&#45;&gt;Node31 -->
<g id="edge33" class="edge"><title>Node32&#45;&gt;Node31</title>
<path fill="none" stroke="#9a32cd" stroke-dasharray="5,2" d="M421.751,-103C482.27,-103 562.38,-103 622.784,-103"/>
<polygon fill="#9a32cd" stroke="#9a32cd" points="421.452,-99.5001 411.452,-103 421.452,-106.5 421.452,-99.5001"/>
<text text-anchor="middle" x="522" y="-106" font-family="Helvetica,sans-Serif" font-size="10.00"> myConstants</text>
</g>
<!-- Node33 -->
<g id="node33" class="node"><title>Node33</title>
<polygon fill="white" stroke="#bfbfbf" points="255,-39 255,-69 411,-69 411,-39 255,-39"/>
<text text-anchor="start" x="263" y="-57" font-family="Helvetica,sans-Serif" font-size="10.00">Map&lt; String, engine.physics.</text>
<text text-anchor="middle" x="333" y="-46" font-family="Helvetica,sans-Serif" font-size="10.00">Force &gt;</text>
</g>
<!-- Node33&#45;&gt;Node31 -->
<g id="edge34" class="edge"><title>Node33&#45;&gt;Node31</title>
<path fill="none" stroke="#9a32cd" stroke-dasharray="5,2" d="M421.376,-65.3867C481.939,-73.2793 562.255,-83.746 622.784,-91.634"/>
<polygon fill="#9a32cd" stroke="#9a32cd" points="421.82,-61.9151 411.452,-64.0934 420.915,-68.8564 421.82,-61.9151"/>
<text text-anchor="middle" x="522" y="-89" font-family="Helvetica,sans-Serif" font-size="10.00"> myActiveForces</text>
</g>
<!-- Node34 -->
<g id="node34" class="node"><title>Node34</title>
<polygon fill="white" stroke="#bfbfbf" points="249.5,-183.5 249.5,-202.5 416.5,-202.5 416.5,-183.5 249.5,-183.5"/>
<text text-anchor="middle" x="333" y="-190.5" font-family="Helvetica,sans-Serif" font-size="10.00">List&lt; engine.physics.Impulse &gt;</text>
</g>
<!-- Node34&#45;&gt;Node31 -->
<g id="edge35" class="edge"><title>Node34&#45;&gt;Node31</title>
<path fill="none" stroke="#9a32cd" stroke-dasharray="5,2" d="M399.469,-203.555C453.014,-208.506 528.101,-206.617 580,-169 596.114,-157.321 582.631,-140.643 598,-128 605.385,-121.925 613.939,-117.249 622.963,-113.661"/>
<polygon fill="#9a32cd" stroke="#9a32cd" points="399.701,-200.061 389.396,-202.52 398.986,-207.024 399.701,-200.061"/>
<text text-anchor="middle" x="522" y="-208" font-family="Helvetica,sans-Serif" font-size="10.00"> myImpulses</text>
</g>
<!-- Node35 -->
<g id="node35" class="node"><title>Node35</title>
<g id="a_node35"><a xlink:href="../../d5/d1f/classengine_1_1physics_1_1_vector.html" target="_top" xlink:title="engine.physics.Vector">
<polygon fill="white" stroke="black" points="272.5,-137.5 272.5,-156.5 393.5,-156.5 393.5,-137.5 272.5,-137.5"/>
<text text-anchor="middle" x="333" y="-144.5" font-family="Helvetica,sans-Serif" font-size="10.00">engine.physics.Vector</text>
</a>
</g>
</g>
<!-- Node35&#45;&gt;Node31 -->
<g id="edge36" class="edge"><title>Node35&#45;&gt;Node31</title>
<path fill="none" stroke="#9a32cd" stroke-dasharray="5,2" d="M403.627,-138.852C465.45,-131.618 556.064,-121.014 622.715,-113.214"/>
<polygon fill="#9a32cd" stroke="#9a32cd" points="403.104,-135.389 393.578,-140.028 403.917,-142.342 403.104,-135.389"/>
<text text-anchor="middle" x="522" y="-157" font-family="Helvetica,sans-Serif" font-size="10.00"> myBalancedForcesMag</text>
<text text-anchor="middle" x="522" y="-146" font-family="Helvetica,sans-Serif" font-size="10.00">myVelocity</text>
<text text-anchor="middle" x="522" y="-135" font-family="Helvetica,sans-Serif" font-size="10.00">myAcceleration</text>
</g>
<!-- Node36 -->
<g id="node36" class="node"><title>Node36</title>
<g id="a_node36"><a xlink:href="../../dc/db5/classengine_1_1physics_1_1_physics_component.html" target="_top" xlink:title="engine.physics.PhysicsComponent">
<polygon fill="white" stroke="black" points="0,-137.5 0,-156.5 182,-156.5 182,-137.5 0,-137.5"/>
<text text-anchor="middle" x="91" y="-144.5" font-family="Helvetica,sans-Serif" font-size="10.00">engine.physics.PhysicsComponent</text>
</a>
</g>
</g>
<!-- Node36&#45;&gt;Node35 -->
<g id="edge37" class="edge"><title>Node36&#45;&gt;Node35</title>
<path fill="none" stroke="midnightblue" d="M192.403,-147C219.624,-147 248.228,-147 272.406,-147"/>
<polygon fill="midnightblue" stroke="midnightblue" points="192.05,-143.5 182.05,-147 192.05,-150.5 192.05,-143.5"/>
</g>
<!-- Node37&#45;&gt;Node17 -->
<g id="edge38" class="edge"><title>Node37&#45;&gt;Node17</title>
<path fill="none" stroke="#9a32cd" stroke-dasharray="5,2" d="M806.877,-303.336C851.346,-299.825 904.809,-293.692 952,-283 981.157,-276.394 1013.4,-264.1 1034.14,-255.503"/>
<polygon fill="#9a32cd" stroke="#9a32cd" points="806.363,-299.865 796.656,-304.11 806.892,-306.845 806.363,-299.865"/>
<text text-anchor="middle" x="897" y="-303" font-family="Helvetica,sans-Serif" font-size="10.00"> myDefaultData</text>
</g>
</g>
</svg>
        <g id="navigator" transform="translate(0 0)" fill="#404254">
                <rect fill="#f2f5e9" fill-opacity="0.5" stroke="#606060" stroke-width=".5" x="0" y="0" width="60" height="60"/>
                <use id="zoomplus" xlink:href="#zoomPlus" x="17" y="9" onmousedown="handleZoom(evt,'in')"/>
                <use id="zoomminus" xlink:href="#zoomMin" x="42" y="9" onmousedown="handleZoom(evt,'out')"/>
                <use id="reset" xlink:href="#resetDef" x="30" y="36" onmousedown="handleReset()"/>
                <g id="arrowUp" xlink:href="#dirArrow" transform="translate(30 24)" onmousedown="handlePan(0,-1)">
                  <use xlink:href="#rim" fill="#404040">
                        <set attributeName="fill" to="#808080" begin="arrowUp.mouseover" end="arrowUp.mouseout"/>
                  </use>
                  <path fill="none" stroke="white" stroke-width="1.5" d="M0,-3.0v7 M-2.5,-0.5L0,-3.0L2.5,-0.5"/>
                </g>
                <g id="arrowRight" xlink:href="#dirArrow" transform="rotate(90) translate(36 -43)" onmousedown="handlePan(1,0)">
                  <use xlink:href="#rim" fill="#404040">
                        <set attributeName="fill" to="#808080" begin="arrowRight.mouseover" end="arrowRight.mouseout"/>
                  </use>
                  <path fill="none" stroke="white" stroke-width="1.5" d="M0,-3.0v7 M-2.5,-0.5L0,-3.0L2.5,-0.5"/>
                </g>
                <g id="arrowDown" xlink:href="#dirArrow" transform="rotate(180) translate(-30 -48)" onmousedown="handlePan(0,1)">
                  <use xlink:href="#rim" fill="#404040">
                        <set attributeName="fill" to="#808080" begin="arrowDown.mouseover" end="arrowDown.mouseout"/>
                  </use>
                  <path fill="none" stroke="white" stroke-width="1.5" d="M0,-3.0v7 M-2.5,-0.5L0,-3.0L2.5,-0.5"/>
                </g>
                <g id="arrowLeft" xlink:href="#dirArrow" transform="rotate(270) translate(-36 17)" onmousedown="handlePan(-1,0)">
                  <use xlink:href="#rim" fill="#404040">
                        <set attributeName="fill" to="#808080" begin="arrowLeft.mouseover" end="arrowLeft.mouseout"/>
                  </use>
                  <path fill="none" stroke="white" stroke-width="1.5" d="M0,-3.0v7 M-2.5,-0.5L0,-3.0L2.5,-0.5"/>
                </g>
        </g>
        <svg viewBox="0 0 15 15" width="100%" height="30px" preserveAspectRatio="xMaxYMin meet">
         <g id="arrow_out" transform="scale(0.3 0.3)">
          <a xlink:href="classauthoring_1_1eventhandlers_1_1_icon_click_handler__coll__graph_org.svg" target="_base">
           <rect id="button" ry="5" rx="5" y="6" x="6" height="38" width="38"
                fill="#f2f5e9" fill-opacity="0.5" stroke="#606060" stroke-width="1.0"/>
           <path id="arrow"
             d="M 11.500037,31.436501 C 11.940474,20.09759 22.043105,11.32322 32.158766,21.979434 L 37.068811,17.246167 C 37.068811,17.246167 37.088388,32 37.088388,32 L 22.160133,31.978069 C 22.160133,31.978069 26.997745,27.140456 26.997745,27.140456 C 18.528582,18.264221 13.291696,25.230495 11.500037,31.436501 z"
             style="fill:#404040;"/>
          </a>
         </g>
        </svg>
</svg>
