<?xml version="1.0" encoding="UTF-8" standalone="no"?>
<!DOCTYPE svg PUBLIC "-//W3C//DTD SVG 1.1//EN"
 "http://www.w3.org/Graphics/SVG/1.1/DTD/svg11.dtd">
<!-- Generated by graphviz version 2.36.0 (20140111.2315)
 -->
<!-- Title: engine.level.Level.removeGameObject Pages: 1 -->
<svg width="360pt" height="116pt"
 viewBox="0.00 0.00 360.00 116.00" xmlns="http://www.w3.org/2000/svg" xmlns:xlink="http://www.w3.org/1999/xlink">
<g id="graph0" class="graph" transform="scale(1 1) rotate(0) translate(4 112)">
<title>engine.level.Level.removeGameObject</title>
<polygon fill="white" stroke="none" points="-4,4 -4,-112 356,-112 356,4 -4,4"/>
<!-- Node1 -->
<g id="node1" class="node"><title>Node1</title>
<polygon fill="#bfbfbf" stroke="black" points="0.5,-39 0.5,-69 141.5,-69 141.5,-39 0.5,-39"/>
<text text-anchor="start" x="8.5" y="-57" font-family="Helvetica,sans-Serif" font-size="10.00">engine.level.Level.remove</text>
<text text-anchor="middle" x="71" y="-46" font-family="Helvetica,sans-Serif" font-size="10.00">GameObject</text>
</g>
<!-- Node2 -->
<g id="node2" class="node"><title>Node2</title>
<g id="a_node2"><a xlink:href="../../d3/d8d/classdata_1_1_observable.html#a120384f9a41245899f05bb1a4c36ac4d" target="_top" xlink:title="data.Observable.notifyObservers">
<polygon fill="white" stroke="black" points="178.5,-88.5 178.5,-107.5 351.5,-107.5 351.5,-88.5 178.5,-88.5"/>
<text text-anchor="middle" x="265" y="-95.5" font-family="Helvetica,sans-Serif" font-size="10.00">data.Observable.notifyObservers</text>
</a>
</g>
</g>
<!-- Node1&#45;&gt;Node2 -->
<g id="edge1" class="edge"><title>Node1&#45;&gt;Node2</title>
<path fill="none" stroke="midnightblue" d="M137.539,-69.0192C162.048,-74.636 189.513,-80.93 212.569,-86.2137"/>
<polygon fill="midnightblue" stroke="midnightblue" points="211.962,-89.6653 222.491,-88.4876 213.526,-82.8422 211.962,-89.6653"/>
</g>
<!-- Node3 -->
<g id="node3" class="node"><title>Node3</title>
<g id="a_node3"><a xlink:href="../../d4/d3b/classauthoring_1_1model_1_1collections_1_1_general_collection.html#ac1a07043ac0a440791b84cee1604745c" target="_top" xlink:title="authoring.model.collections.\lGeneralCollection.remove">
<polygon fill="white" stroke="black" points="189,-39 189,-69 341,-69 341,-39 189,-39"/>
<text text-anchor="start" x="197" y="-57" font-family="Helvetica,sans-Serif" font-size="10.00">authoring.model.collections.</text>
<text text-anchor="middle" x="265" y="-46" font-family="Helvetica,sans-Serif" font-size="10.00">GeneralCollection.remove</text>
</a>
</g>
</g>
<!-- Node1&#45;&gt;Node3 -->
<g id="edge2" class="edge"><title>Node1&#45;&gt;Node3</title>
<path fill="none" stroke="midnightblue" d="M141.588,-54C153.577,-54 166.163,-54 178.513,-54"/>
<polygon fill="midnightblue" stroke="midnightblue" points="178.814,-57.5001 188.814,-54 178.814,-50.5001 178.814,-57.5001"/>
</g>
<!-- Node4 -->
<g id="node4" class="node"><title>Node4</title>
<g id="a_node4"><a xlink:href="../../d3/d8d/classdata_1_1_observable.html#a6da70e44050d139f40cf07384484f51d" target="_top" xlink:title="data.Observable.setChanged">
<polygon fill="white" stroke="black" points="187,-0.5 187,-19.5 343,-19.5 343,-0.5 187,-0.5"/>
<text text-anchor="middle" x="265" y="-7.5" font-family="Helvetica,sans-Serif" font-size="10.00">data.Observable.setChanged</text>
</a>
</g>
</g>
<!-- Node1&#45;&gt;Node4 -->
<g id="edge3" class="edge"><title>Node1&#45;&gt;Node4</title>
<path fill="none" stroke="midnightblue" d="M137.539,-38.9808C162.048,-33.364 189.513,-27.07 212.569,-21.7863"/>
<polygon fill="midnightblue" stroke="midnightblue" points="213.526,-25.1578 222.491,-19.5124 211.962,-18.3347 213.526,-25.1578"/>
</g>
</g>
</svg>
