<?xml version="1.0" encoding="UTF-8" standalone="no"?>
<!DOCTYPE svg PUBLIC "-//W3C//DTD SVG 1.1//EN"
 "http://www.w3.org/Graphics/SVG/1.1/DTD/svg11.dtd">
<!-- Generated by graphviz version 2.36.0 (20140111.2315)
 -->
<!-- Title: engine.level.Level.getBackgroundImage Pages: 1 -->
<svg width="1432pt" height="137pt"
 viewBox="0.00 0.00 1432.00 137.00" xmlns="http://www.w3.org/2000/svg" xmlns:xlink="http://www.w3.org/1999/xlink">
<g id="graph0" class="graph" transform="scale(1 1) rotate(0) translate(4 133)">
<title>engine.level.Level.getBackgroundImage</title>
<polygon fill="white" stroke="none" points="-4,4 -4,-133 1428,-133 1428,4 -4,4"/>
<!-- Node1 -->
<g id="node1" class="node"><title>Node1</title>
<polygon fill="#bfbfbf" stroke="black" points="0.5,-50 0.5,-80 177.5,-80 177.5,-50 0.5,-50"/>
<text text-anchor="start" x="8.5" y="-68" font-family="Helvetica,sans-Serif" font-size="10.00">engine.level.Level.getBackground</text>
<text text-anchor="middle" x="89" y="-57" font-family="Helvetica,sans-Serif" font-size="10.00">Image</text>
</g>
<!-- Node2 -->
<g id="node2" class="node"><title>Node2</title>
<g id="a_node2"><a xlink:href="../../d7/d69/classauthoring_1_1view_1_1propertiesview_1_1_level_properties.html#adfccccc49f33be4065112eaa53887038" target="_top" xlink:title="authoring.view.propertiesview.\lLevelProperties.initializeProperties">
<polygon fill="white" stroke="black" points="214,-99 214,-129 394,-129 394,-99 214,-99"/>
<text text-anchor="start" x="222" y="-117" font-family="Helvetica,sans-Serif" font-size="10.00">authoring.view.propertiesview.</text>
<text text-anchor="middle" x="304" y="-106" font-family="Helvetica,sans-Serif" font-size="10.00">LevelProperties.initializeProperties</text>
</a>
</g>
</g>
<!-- Node1&#45;&gt;Node2 -->
<g id="edge1" class="edge"><title>Node1&#45;&gt;Node2</title>
<path fill="none" stroke="midnightblue" d="M165.337,-82.3309C188.985,-87.7712 214.881,-93.7285 237.769,-98.9938"/>
<polygon fill="midnightblue" stroke="midnightblue" points="165.885,-78.8657 155.355,-80.0346 164.315,-85.6875 165.885,-78.8657"/>
</g>
<!-- Node4 -->
<g id="node4" class="node"><title>Node4</title>
<g id="a_node4"><a xlink:href="../../df/de5/classengine_1_1render_1_1_game_object_renderer.html#ad1dadb54349f33bce5bb60cd8d5cac64" target="_top" xlink:title="engine.render.GameObject\lRenderer.setBackGroundImage">
<polygon fill="white" stroke="black" points="221.5,-50 221.5,-80 386.5,-80 386.5,-50 221.5,-50"/>
<text text-anchor="start" x="229.5" y="-68" font-family="Helvetica,sans-Serif" font-size="10.00">engine.render.GameObject</text>
<text text-anchor="middle" x="304" y="-57" font-family="Helvetica,sans-Serif" font-size="10.00">Renderer.setBackGroundImage</text>
</a>
</g>
</g>
<!-- Node1&#45;&gt;Node4 -->
<g id="edge3" class="edge"><title>Node1&#45;&gt;Node4</title>
<path fill="none" stroke="midnightblue" d="M187.788,-65C198.983,-65 210.307,-65 221.261,-65"/>
<polygon fill="midnightblue" stroke="midnightblue" points="187.557,-61.5001 177.557,-65 187.557,-68.5001 187.557,-61.5001"/>
</g>
<!-- Node12 -->
<g id="node12" class="node"><title>Node12</title>
<g id="a_node12"><a xlink:href="../../d1/d00/classauthoring_1_1view_1_1levelview_1_1_single_level_view.html#a532ba7c58ed4434fb218478ced7c9528" target="_top" xlink:title="authoring.view.levelview.\lSingleLevelView.SingleLevelView">
<polygon fill="white" stroke="black" points="219,-1 219,-31 389,-31 389,-1 219,-1"/>
<text text-anchor="start" x="227" y="-19" font-family="Helvetica,sans-Serif" font-size="10.00">authoring.view.levelview.</text>
<text text-anchor="middle" x="304" y="-8" font-family="Helvetica,sans-Serif" font-size="10.00">SingleLevelView.SingleLevelView</text>
</a>
</g>
</g>
<!-- Node1&#45;&gt;Node12 -->
<g id="edge11" class="edge"><title>Node1&#45;&gt;Node12</title>
<path fill="none" stroke="midnightblue" d="M165.337,-47.6691C188.985,-42.2288 214.881,-36.2715 237.769,-31.0062"/>
<polygon fill="midnightblue" stroke="midnightblue" points="164.315,-44.3125 155.355,-49.9654 165.885,-51.1343 164.315,-44.3125"/>
</g>
<!-- Node3 -->
<g id="node3" class="node"><title>Node3</title>
<g id="a_node3"><a xlink:href="../../d7/d69/classauthoring_1_1view_1_1propertiesview_1_1_level_properties.html#a44c79e27fd8919f64839d9210c8bd41a" target="_top" xlink:title="authoring.view.propertiesview.\lLevelProperties.LevelProperties">
<polygon fill="white" stroke="black" points="430.5,-99 430.5,-129 597.5,-129 597.5,-99 430.5,-99"/>
<text text-anchor="start" x="438.5" y="-117" font-family="Helvetica,sans-Serif" font-size="10.00">authoring.view.propertiesview.</text>
<text text-anchor="middle" x="514" y="-106" font-family="Helvetica,sans-Serif" font-size="10.00">LevelProperties.LevelProperties</text>
</a>
</g>
</g>
<!-- Node2&#45;&gt;Node3 -->
<g id="edge2" class="edge"><title>Node2&#45;&gt;Node3</title>
<path fill="none" stroke="midnightblue" d="M404.306,-114C413.017,-114 421.771,-114 430.324,-114"/>
<polygon fill="midnightblue" stroke="midnightblue" points="404.116,-110.5 394.116,-114 404.116,-117.5 404.116,-110.5"/>
</g>
<!-- Node5 -->
<g id="node5" class="node"><title>Node5</title>
<g id="a_node5"><a xlink:href="../../df/de5/classengine_1_1render_1_1_game_object_renderer.html#a610545384a337edcd3bffb9f0c6ecf18" target="_top" xlink:title="engine.render.GameObject\lRenderer.renderGameObjects">
<polygon fill="white" stroke="black" points="435,-50 435,-80 593,-80 593,-50 435,-50"/>
<text text-anchor="start" x="443" y="-68" font-family="Helvetica,sans-Serif" font-size="10.00">engine.render.GameObject</text>
<text text-anchor="middle" x="514" y="-57" font-family="Helvetica,sans-Serif" font-size="10.00">Renderer.renderGameObjects</text>
</a>
</g>
</g>
<!-- Node4&#45;&gt;Node5 -->
<g id="edge4" class="edge"><title>Node4&#45;&gt;Node5</title>
<path fill="none" stroke="midnightblue" d="M396.703,-65C409.373,-65 422.29,-65 434.687,-65"/>
<polygon fill="midnightblue" stroke="midnightblue" points="396.61,-61.5001 386.61,-65 396.61,-68.5001 396.61,-61.5001"/>
</g>
<!-- Node6 -->
<g id="node6" class="node"><title>Node6</title>
<g id="a_node6"><a xlink:href="../../df/d67/classengine_1_1level_1_1_level_manager.html#a523599892453015eed0f1b506979af8a" target="_top" xlink:title="engine.level.LevelManager.initialize\lCurrentLevel">
<polygon fill="white" stroke="black" points="634,-50 634,-80 818,-80 818,-50 634,-50"/>
<text text-anchor="start" x="642" y="-68" font-family="Helvetica,sans-Serif" font-size="10.00">engine.level.LevelManager.initialize</text>
<text text-anchor="middle" x="726" y="-57" font-family="Helvetica,sans-Serif" font-size="10.00">CurrentLevel</text>
</a>
</g>
</g>
<!-- Node5&#45;&gt;Node6 -->
<g id="edge5" class="edge"><title>Node5&#45;&gt;Node6</title>
<path fill="none" stroke="midnightblue" d="M603.267,-65C613.424,-65 623.796,-65 633.988,-65"/>
<polygon fill="midnightblue" stroke="midnightblue" points="603.196,-61.5001 593.196,-65 603.196,-68.5001 603.196,-61.5001"/>
</g>
<!-- Node7 -->
<g id="node7" class="node"><title>Node7</title>
<g id="a_node7"><a xlink:href="../../df/d67/classengine_1_1level_1_1_level_manager.html#a1d0f314bbf304bf86067ab87b832d2e0" target="_top" xlink:title="engine.level.LevelManager.find\lAndSetStartLevel">
<polygon fill="white" stroke="black" points="854.5,-75 854.5,-105 1017.5,-105 1017.5,-75 854.5,-75"/>
<text text-anchor="start" x="862.5" y="-93" font-family="Helvetica,sans-Serif" font-size="10.00">engine.level.LevelManager.find</text>
<text text-anchor="middle" x="936" y="-82" font-family="Helvetica,sans-Serif" font-size="10.00">AndSetStartLevel</text>
</a>
</g>
</g>
<!-- Node6&#45;&gt;Node7 -->
<g id="edge6" class="edge"><title>Node6&#45;&gt;Node7</title>
<path fill="none" stroke="midnightblue" d="M828.403,-77.1878C837.089,-78.2318 845.799,-79.2787 854.291,-80.2994"/>
<polygon fill="midnightblue" stroke="midnightblue" points="828.578,-73.6838 818.232,-75.9654 827.743,-80.6338 828.578,-73.6838"/>
</g>
<!-- Node9 -->
<g id="node9" class="node"><title>Node9</title>
<g id="a_node9"><a xlink:href="../../df/d67/classengine_1_1level_1_1_level_manager.html#ad89101547413fe335873b050fd091c79" target="_top" xlink:title="engine.level.LevelManager.set\lCurrentLevel">
<polygon fill="white" stroke="black" points="855.5,-26 855.5,-56 1016.5,-56 1016.5,-26 855.5,-26"/>
<text text-anchor="start" x="863.5" y="-44" font-family="Helvetica,sans-Serif" font-size="10.00">engine.level.LevelManager.set</text>
<text text-anchor="middle" x="936" y="-33" font-family="Helvetica,sans-Serif" font-size="10.00">CurrentLevel</text>
</a>
</g>
</g>
<!-- Node6&#45;&gt;Node9 -->
<g id="edge8" class="edge"><title>Node6&#45;&gt;Node9</title>
<path fill="none" stroke="midnightblue" d="M828.39,-53.3012C837.41,-52.2604 846.456,-51.2166 855.257,-50.2011"/>
<polygon fill="midnightblue" stroke="midnightblue" points="827.765,-49.85 818.232,-54.4733 828.567,-56.8039 827.765,-49.85"/>
</g>
<!-- Node8 -->
<g id="node8" class="node"><title>Node8</title>
<g id="a_node8"><a xlink:href="../../df/d67/classengine_1_1level_1_1_level_manager.html#a0ea71eb9396652850db0d2da44c4ca81" target="_top" xlink:title="engine.level.LevelManager.\lLevelManager">
<polygon fill="white" stroke="black" points="1072,-75 1072,-105 1218,-105 1218,-75 1072,-75"/>
<text text-anchor="start" x="1080" y="-93" font-family="Helvetica,sans-Serif" font-size="10.00">engine.level.LevelManager.</text>
<text text-anchor="middle" x="1145" y="-82" font-family="Helvetica,sans-Serif" font-size="10.00">LevelManager</text>
</a>
</g>
</g>
<!-- Node7&#45;&gt;Node8 -->
<g id="edge7" class="edge"><title>Node7&#45;&gt;Node8</title>
<path fill="none" stroke="midnightblue" d="M1027.74,-90C1042.44,-90 1057.5,-90 1071.69,-90"/>
<polygon fill="midnightblue" stroke="midnightblue" points="1027.62,-86.5001 1017.62,-90 1027.62,-93.5001 1027.62,-86.5001"/>
</g>
<!-- Node10 -->
<g id="node10" class="node"><title>Node10</title>
<g id="a_node10"><a xlink:href="../../df/d67/classengine_1_1level_1_1_level_manager.html#ad3c392cf6260c53428255fb596442692" target="_top" xlink:title="engine.level.LevelManager.change\lToLevel">
<polygon fill="white" stroke="black" points="1054.5,-26 1054.5,-56 1235.5,-56 1235.5,-26 1054.5,-26"/>
<text text-anchor="start" x="1062.5" y="-44" font-family="Helvetica,sans-Serif" font-size="10.00">engine.level.LevelManager.change</text>
<text text-anchor="middle" x="1145" y="-33" font-family="Helvetica,sans-Serif" font-size="10.00">ToLevel</text>
</a>
</g>
</g>
<!-- Node9&#45;&gt;Node10 -->
<g id="edge9" class="edge"><title>Node9&#45;&gt;Node10</title>
<path fill="none" stroke="midnightblue" d="M1026.92,-41C1036,-41 1045.23,-41 1054.31,-41"/>
<polygon fill="midnightblue" stroke="midnightblue" points="1026.74,-37.5001 1016.74,-41 1026.74,-44.5001 1026.74,-37.5001"/>
</g>
<!-- Node11 -->
<g id="node11" class="node"><title>Node11</title>
<g id="a_node11"><a xlink:href="../../d1/d73/classengine_1_1actions_1_1_change_level_action.html#a8190adf308768b0d12f6432d0cf0fbc4" target="_top" xlink:title="engine.actions.ChangeLevel\lAction.execute">
<polygon fill="white" stroke="black" points="1272.5,-26 1272.5,-56 1423.5,-56 1423.5,-26 1272.5,-26"/>
<text text-anchor="start" x="1280.5" y="-44" font-family="Helvetica,sans-Serif" font-size="10.00">engine.actions.ChangeLevel</text>
<text text-anchor="middle" x="1348" y="-33" font-family="Helvetica,sans-Serif" font-size="10.00">Action.execute</text>
</a>
</g>
</g>
<!-- Node10&#45;&gt;Node11 -->
<g id="edge10" class="edge"><title>Node10&#45;&gt;Node11</title>
<path fill="none" stroke="midnightblue" d="M1245.71,-41C1254.65,-41 1263.61,-41 1272.29,-41"/>
<polygon fill="midnightblue" stroke="midnightblue" points="1245.62,-37.5001 1235.62,-41 1245.62,-44.5001 1245.62,-37.5001"/>
</g>
</g>
</svg>
