<?xml version="1.0" encoding="UTF-8" standalone="no"?>
<!DOCTYPE svg PUBLIC "-//W3C//DTD SVG 1.1//EN"
 "http://www.w3.org/Graphics/SVG/1.1/DTD/svg11.dtd">
<!-- Generated by graphviz version 2.36.0 (20140111.2315)
 -->
<!-- Title: engine.level.Level.setIdentifier Pages: 1 -->
<!--zoomable 136 -->
<svg id="main" version="1.1" xmlns="http://www.w3.org/2000/svg" xmlns:xlink="http://www.w3.org/1999/xlink" xml:space="preserve" onload="init(evt)">
<style type="text/css"><![CDATA[
.edge:hover path { stroke: red; }
.edge:hover polygon { stroke: red; fill: red; }
]]></style>
<script type="text/javascript"><![CDATA[
var edges = document.getElementsByTagName('g');
if (edges && edges.length) {
  for (var i=0;i<edges.length;i++) {
    if (edges[i].id.substr(0,4)=='edge') {
      edges[i].setAttribute('class','edge');
    }
  }
}
]]></script>
        <defs>
                <circle id="rim" cx="0" cy="0" r="7"/>
                <circle id="rim2" cx="0" cy="0" r="3.5"/>
                <g id="zoomPlus">
                        <use xlink:href="#rim" fill="#404040">
                                <set attributeName="fill" to="#808080" begin="zoomplus.mouseover" end="zoomplus.mouseout"/>
                        </use>
                        <path d="M-4,0h8M0,-4v8" fill="none" stroke="white" stroke-width="1.5" pointer-events="none"/>
                </g>
                <g id="zoomMin">
                        <use xlink:href="#rim" fill="#404040">
                                <set attributeName="fill" to="#808080" begin="zoomminus.mouseover" end="zoomminus.mouseout"/>
                        </use>
                        <path d="M-4,0h8" fill="none" stroke="white" stroke-width="1.5" pointer-events="none"/>
                </g>
                <g id="dirArrow">
                        <path fill="none" stroke="white" stroke-width="1.5" d="M0,-3.0v7 M-2.5,-0.5L0,-3.0L2.5,-0.5"/>
                </g>
               <g id="resetDef">
                       <use xlink:href="#rim2" fill="#404040">
                               <set attributeName="fill" to="#808080" begin="reset.mouseover" end="reset.mouseout"/>
                       </use>
               </g>
        </defs>

<script type="text/javascript">
var viewWidth = 938;
var viewHeight = 136;
var sectionId = 'dynsection-21';
</script>
<script xlink:href="../../svgpan.js"/>
<svg id="graph" class="graph">
<g id="viewport">
<title>engine.level.Level.setIdentifier</title>
<polygon fill="white" stroke="none" points="-4,4 -4,-132 934,-132 934,4 -4,4"/>
<!-- Node1 -->
<g id="node1" class="node"><title>Node1</title>
<polygon fill="#bfbfbf" stroke="black" points="0.5,-54.5 0.5,-73.5 161.5,-73.5 161.5,-54.5 0.5,-54.5"/>
<text text-anchor="middle" x="81" y="-61.5" font-family="Helvetica,sans-Serif" font-size="10.00">engine.level.Level.setIdentifier</text>
</g>
<!-- Node2 -->
<g id="node2" class="node"><title>Node2</title>
<g id="a_node2"><a xlink:href="../../d4/d68/classauthoring_1_1model_1_1_authoring_model.html#a11495359850ef25b7338f7e7ba0554d0" target="_top" xlink:title="authoring.model.Authoring\lModel.convertFromSerializable">
<polygon fill="white" stroke="black" points="198.5,-98 198.5,-128 361.5,-128 361.5,-98 198.5,-98"/>
<text text-anchor="start" x="206.5" y="-116" font-family="Helvetica,sans-Serif" font-size="10.00">authoring.model.Authoring</text>
<text text-anchor="middle" x="280" y="-105" font-family="Helvetica,sans-Serif" font-size="10.00">Model.convertFromSerializable</text>
</a>
</g>
</g>
<!-- Node1&#45;&gt;Node2 -->
<g id="edge1" class="edge"><title>Node1&#45;&gt;Node2</title>
<path fill="none" stroke="midnightblue" d="M130.302,-76.0142C156.92,-82.635 190.214,-90.9161 218.545,-97.963"/>
<polygon fill="midnightblue" stroke="midnightblue" points="131,-72.5813 120.451,-73.564 129.311,-79.3744 131,-72.5813"/>
</g>
<!-- Node5 -->
<g id="node5" class="node"><title>Node5</title>
<g id="a_node5"><a xlink:href="../../d4/d68/classauthoring_1_1model_1_1_authoring_model.html#ab3e6b375a2e8fdc73b351fc873ce214e" target="_top" xlink:title="authoring.model.Authoring\lModel.convertToSerializable">
<polygon fill="white" stroke="black" points="205.5,-49 205.5,-79 354.5,-79 354.5,-49 205.5,-49"/>
<text text-anchor="start" x="213.5" y="-67" font-family="Helvetica,sans-Serif" font-size="10.00">authoring.model.Authoring</text>
<text text-anchor="middle" x="280" y="-56" font-family="Helvetica,sans-Serif" font-size="10.00">Model.convertToSerializable</text>
</a>
</g>
</g>
<!-- Node1&#45;&gt;Node5 -->
<g id="edge4" class="edge"><title>Node1&#45;&gt;Node5</title>
<path fill="none" stroke="midnightblue" d="M171.772,-64C182.957,-64 194.293,-64 205.197,-64"/>
<polygon fill="midnightblue" stroke="midnightblue" points="171.56,-60.5001 161.56,-64 171.56,-67.5001 171.56,-60.5001"/>
</g>
<!-- Node8 -->
<g id="node8" class="node"><title>Node8</title>
<g id="a_node8"><a xlink:href="../../d4/d95/classauthoring_1_1eventhandlers_1_1_add_level_handler.html#a661a922286bb73b71fae0c5f17e076eb" target="_top" xlink:title="authoring.eventhandlers.\lAddLevelHandler.createLevel">
<polygon fill="white" stroke="black" points="202.5,-0 202.5,-30 357.5,-30 357.5,-0 202.5,-0"/>
<text text-anchor="start" x="210.5" y="-18" font-family="Helvetica,sans-Serif" font-size="10.00">authoring.eventhandlers.</text>
<text text-anchor="middle" x="280" y="-7" font-family="Helvetica,sans-Serif" font-size="10.00">AddLevelHandler.createLevel</text>
</a>
</g>
</g>
<!-- Node1&#45;&gt;Node8 -->
<g id="edge7" class="edge"><title>Node1&#45;&gt;Node8</title>
<path fill="none" stroke="midnightblue" d="M130.302,-51.9858C156.92,-45.365 190.214,-37.0839 218.545,-30.037"/>
<polygon fill="midnightblue" stroke="midnightblue" points="129.311,-48.6256 120.451,-54.436 131,-55.4187 129.311,-48.6256"/>
</g>
<!-- Node3 -->
<g id="node3" class="node"><title>Node3</title>
<g id="a_node3"><a xlink:href="../../d4/d68/classauthoring_1_1model_1_1_authoring_model.html#a3935f1a8c2e6b6fcd4609ffb4b1b8cf0" target="_top" xlink:title="authoring.model.Authoring\lModel.load">
<polygon fill="white" stroke="black" points="401.5,-98 401.5,-128 546.5,-128 546.5,-98 401.5,-98"/>
<text text-anchor="start" x="409.5" y="-116" font-family="Helvetica,sans-Serif" font-size="10.00">authoring.model.Authoring</text>
<text text-anchor="middle" x="474" y="-105" font-family="Helvetica,sans-Serif" font-size="10.00">Model.load</text>
</a>
</g>
</g>
<!-- Node2&#45;&gt;Node3 -->
<g id="edge2" class="edge"><title>Node2&#45;&gt;Node3</title>
<path fill="none" stroke="midnightblue" d="M371.892,-113C381.819,-113 391.82,-113 401.467,-113"/>
<polygon fill="midnightblue" stroke="midnightblue" points="371.591,-109.5 361.591,-113 371.591,-116.5 371.591,-109.5"/>
</g>
<!-- Node4 -->
<g id="node4" class="node"><title>Node4</title>
<g id="a_node4"><a xlink:href="../../de/d41/classauthoring_1_1controller_1_1_authoring_controller.html#a78ad41cfba48debac79f09f1211cb108" target="_top" xlink:title="authoring.controller.Authoring\lController.loadData">
<polygon fill="white" stroke="black" points="591.5,-98 591.5,-128 750.5,-128 750.5,-98 591.5,-98"/>
<text text-anchor="start" x="599.5" y="-116" font-family="Helvetica,sans-Serif" font-size="10.00">authoring.controller.Authoring</text>
<text text-anchor="middle" x="671" y="-105" font-family="Helvetica,sans-Serif" font-size="10.00">Controller.loadData</text>
</a>
</g>
</g>
<!-- Node3&#45;&gt;Node4 -->
<g id="edge3" class="edge"><title>Node3&#45;&gt;Node4</title>
<path fill="none" stroke="midnightblue" d="M556.515,-113C568.016,-113 579.823,-113 591.27,-113"/>
<polygon fill="midnightblue" stroke="midnightblue" points="556.504,-109.5 546.504,-113 556.503,-116.5 556.504,-109.5"/>
</g>
<!-- Node6 -->
<g id="node6" class="node"><title>Node6</title>
<g id="a_node6"><a xlink:href="../../d4/d68/classauthoring_1_1model_1_1_authoring_model.html#abf284ecb1804cc5b8ca9cbaea475c2fd" target="_top" xlink:title="authoring.model.Authoring\lModel.save">
<polygon fill="white" stroke="black" points="401.5,-49 401.5,-79 546.5,-79 546.5,-49 401.5,-49"/>
<text text-anchor="start" x="409.5" y="-67" font-family="Helvetica,sans-Serif" font-size="10.00">authoring.model.Authoring</text>
<text text-anchor="middle" x="474" y="-56" font-family="Helvetica,sans-Serif" font-size="10.00">Model.save</text>
</a>
</g>
</g>
<!-- Node5&#45;&gt;Node6 -->
<g id="edge5" class="edge"><title>Node5&#45;&gt;Node6</title>
<path fill="none" stroke="midnightblue" d="M364.844,-64C377.035,-64 389.493,-64 401.412,-64"/>
<polygon fill="midnightblue" stroke="midnightblue" points="364.683,-60.5001 354.683,-64 364.683,-67.5001 364.683,-60.5001"/>
</g>
<!-- Node7 -->
<g id="node7" class="node"><title>Node7</title>
<g id="a_node7"><a xlink:href="../../de/d41/classauthoring_1_1controller_1_1_authoring_controller.html#adbe015f9624bd3077b0eba208ece1966" target="_top" xlink:title="authoring.controller.Authoring\lController.saveData">
<polygon fill="white" stroke="black" points="591.5,-49 591.5,-79 750.5,-79 750.5,-49 591.5,-49"/>
<text text-anchor="start" x="599.5" y="-67" font-family="Helvetica,sans-Serif" font-size="10.00">authoring.controller.Authoring</text>
<text text-anchor="middle" x="671" y="-56" font-family="Helvetica,sans-Serif" font-size="10.00">Controller.saveData</text>
</a>
</g>
</g>
<!-- Node6&#45;&gt;Node7 -->
<g id="edge6" class="edge"><title>Node6&#45;&gt;Node7</title>
<path fill="none" stroke="midnightblue" d="M556.515,-64C568.016,-64 579.823,-64 591.27,-64"/>
<polygon fill="midnightblue" stroke="midnightblue" points="556.504,-60.5001 546.504,-64 556.503,-67.5001 556.504,-60.5001"/>
</g>
<!-- Node9 -->
<g id="node9" class="node"><title>Node9</title>
<g id="a_node9"><a xlink:href="../../d4/d95/classauthoring_1_1eventhandlers_1_1_add_level_handler.html#a5a230a4a3782a8abc4e950d761b3ca4c" target="_top" xlink:title="authoring.eventhandlers.\lAddLevelHandler.getPrompt">
<polygon fill="white" stroke="black" points="398.5,-0 398.5,-30 549.5,-30 549.5,-0 398.5,-0"/>
<text text-anchor="start" x="406.5" y="-18" font-family="Helvetica,sans-Serif" font-size="10.00">authoring.eventhandlers.</text>
<text text-anchor="middle" x="474" y="-7" font-family="Helvetica,sans-Serif" font-size="10.00">AddLevelHandler.getPrompt</text>
</a>
</g>
</g>
<!-- Node8&#45;&gt;Node9 -->
<g id="edge8" class="edge"><title>Node8&#45;&gt;Node9</title>
<path fill="none" stroke="midnightblue" d="M367.819,-15C377.99,-15 388.3,-15 398.287,-15"/>
<polygon fill="midnightblue" stroke="midnightblue" points="367.711,-11.5001 357.711,-15 367.711,-18.5001 367.711,-11.5001"/>
</g>
<!-- Node10 -->
<g id="node10" class="node"><title>Node10</title>
<g id="a_node10"><a xlink:href="../../d4/d95/classauthoring_1_1eventhandlers_1_1_add_level_handler.html#a23ded002286606515b56a80a315ece08" target="_top" xlink:title="authoring.eventhandlers.\lAddLevelHandler.promptLevelID">
<polygon fill="white" stroke="black" points="586,-0 586,-30 756,-30 756,-0 586,-0"/>
<text text-anchor="start" x="594" y="-18" font-family="Helvetica,sans-Serif" font-size="10.00">authoring.eventhandlers.</text>
<text text-anchor="middle" x="671" y="-7" font-family="Helvetica,sans-Serif" font-size="10.00">AddLevelHandler.promptLevelID</text>
</a>
</g>
</g>
<!-- Node9&#45;&gt;Node10 -->
<g id="edge9" class="edge"><title>Node9&#45;&gt;Node10</title>
<path fill="none" stroke="midnightblue" d="M559.631,-15C568.282,-15 577.071,-15 585.718,-15"/>
<polygon fill="midnightblue" stroke="midnightblue" points="559.556,-11.5001 549.556,-15 559.556,-18.5001 559.556,-11.5001"/>
</g>
<!-- Node11 -->
<g id="node11" class="node"><title>Node11</title>
<g id="a_node11"><a xlink:href="../../d4/d95/classauthoring_1_1eventhandlers_1_1_add_level_handler.html#a9a0d2dde9cdac11aa5914db24e516b1a" target="_top" xlink:title="authoring.eventhandlers.\lAddLevelHandler.handle">
<polygon fill="white" stroke="black" points="792.5,-0 792.5,-30 929.5,-30 929.5,-0 792.5,-0"/>
<text text-anchor="start" x="800.5" y="-18" font-family="Helvetica,sans-Serif" font-size="10.00">authoring.eventhandlers.</text>
<text text-anchor="middle" x="861" y="-7" font-family="Helvetica,sans-Serif" font-size="10.00">AddLevelHandler.handle</text>
</a>
</g>
</g>
<!-- Node10&#45;&gt;Node11 -->
<g id="edge10" class="edge"><title>Node10&#45;&gt;Node11</title>
<path fill="none" stroke="midnightblue" d="M766.365,-15C775.122,-15 783.874,-15 792.319,-15"/>
<polygon fill="midnightblue" stroke="midnightblue" points="766.102,-11.5001 756.102,-15 766.102,-18.5001 766.102,-11.5001"/>
</g>
</g>
</svg>
        <g id="navigator" transform="translate(0 0)" fill="#404254">
                <rect fill="#f2f5e9" fill-opacity="0.5" stroke="#606060" stroke-width=".5" x="0" y="0" width="60" height="60"/>
                <use id="zoomplus" xlink:href="#zoomPlus" x="17" y="9" onmousedown="handleZoom(evt,'in')"/>
                <use id="zoomminus" xlink:href="#zoomMin" x="42" y="9" onmousedown="handleZoom(evt,'out')"/>
                <use id="reset" xlink:href="#resetDef" x="30" y="36" onmousedown="handleReset()"/>
                <g id="arrowUp" xlink:href="#dirArrow" transform="translate(30 24)" onmousedown="handlePan(0,-1)">
                  <use xlink:href="#rim" fill="#404040">
                        <set attributeName="fill" to="#808080" begin="arrowUp.mouseover" end="arrowUp.mouseout"/>
                  </use>
                  <path fill="none" stroke="white" stroke-width="1.5" d="M0,-3.0v7 M-2.5,-0.5L0,-3.0L2.5,-0.5"/>
                </g>
                <g id="arrowRight" xlink:href="#dirArrow" transform="rotate(90) translate(36 -43)" onmousedown="handlePan(1,0)">
                  <use xlink:href="#rim" fill="#404040">
                        <set attributeName="fill" to="#808080" begin="arrowRight.mouseover" end="arrowRight.mouseout"/>
                  </use>
                  <path fill="none" stroke="white" stroke-width="1.5" d="M0,-3.0v7 M-2.5,-0.5L0,-3.0L2.5,-0.5"/>
                </g>
                <g id="arrowDown" xlink:href="#dirArrow" transform="rotate(180) translate(-30 -48)" onmousedown="handlePan(0,1)">
                  <use xlink:href="#rim" fill="#404040">
                        <set attributeName="fill" to="#808080" begin="arrowDown.mouseover" end="arrowDown.mouseout"/>
                  </use>
                  <path fill="none" stroke="white" stroke-width="1.5" d="M0,-3.0v7 M-2.5,-0.5L0,-3.0L2.5,-0.5"/>
                </g>
                <g id="arrowLeft" xlink:href="#dirArrow" transform="rotate(270) translate(-36 17)" onmousedown="handlePan(-1,0)">
                  <use xlink:href="#rim" fill="#404040">
                        <set attributeName="fill" to="#808080" begin="arrowLeft.mouseover" end="arrowLeft.mouseout"/>
                  </use>
                  <path fill="none" stroke="white" stroke-width="1.5" d="M0,-3.0v7 M-2.5,-0.5L0,-3.0L2.5,-0.5"/>
                </g>
        </g>
        <svg viewBox="0 0 15 15" width="100%" height="30px" preserveAspectRatio="xMaxYMin meet">
         <g id="arrow_out" transform="scale(0.3 0.3)">
          <a xlink:href="classengine_1_1level_1_1_level_a978e8f0a732aecf29203b898e27b16b0_icgraph_org.svg" target="_base">
           <rect id="button" ry="5" rx="5" y="6" x="6" height="38" width="38"
                fill="#f2f5e9" fill-opacity="0.5" stroke="#606060" stroke-width="1.0"/>
           <path id="arrow"
             d="M 11.500037,31.436501 C 11.940474,20.09759 22.043105,11.32322 32.158766,21.979434 L 37.068811,17.246167 C 37.068811,17.246167 37.088388,32 37.088388,32 L 22.160133,31.978069 C 22.160133,31.978069 26.997745,27.140456 26.997745,27.140456 C 18.528582,18.264221 13.291696,25.230495 11.500037,31.436501 z"
             style="fill:#404040;"/>
          </a>
         </g>
        </svg>
</svg>
