<?xml version="1.0" encoding="UTF-8" standalone="no"?>
<!DOCTYPE svg PUBLIC "-//W3C//DTD SVG 1.1//EN"
 "http://www.w3.org/Graphics/SVG/1.1/DTD/svg11.dtd">
<!-- Generated by graphviz version 2.36.0 (20140111.2315)
 -->
<!-- Title: engine.level.Level.getGameObjectsCollection Pages: 1 -->
<!--zoomable 577 -->
<svg id="main" version="1.1" xmlns="http://www.w3.org/2000/svg" xmlns:xlink="http://www.w3.org/1999/xlink" xml:space="preserve" onload="init(evt)">
<style type="text/css"><![CDATA[
.edge:hover path { stroke: red; }
.edge:hover polygon { stroke: red; fill: red; }
]]></style>
<script type="text/javascript"><![CDATA[
var edges = document.getElementsByTagName('g');
if (edges && edges.length) {
  for (var i=0;i<edges.length;i++) {
    if (edges[i].id.substr(0,4)=='edge') {
      edges[i].setAttribute('class','edge');
    }
  }
}
]]></script>
        <defs>
                <circle id="rim" cx="0" cy="0" r="7"/>
                <circle id="rim2" cx="0" cy="0" r="3.5"/>
                <g id="zoomPlus">
                        <use xlink:href="#rim" fill="#404040">
                                <set attributeName="fill" to="#808080" begin="zoomplus.mouseover" end="zoomplus.mouseout"/>
                        </use>
                        <path d="M-4,0h8M0,-4v8" fill="none" stroke="white" stroke-width="1.5" pointer-events="none"/>
                </g>
                <g id="zoomMin">
                        <use xlink:href="#rim" fill="#404040">
                                <set attributeName="fill" to="#808080" begin="zoomminus.mouseover" end="zoomminus.mouseout"/>
                        </use>
                        <path d="M-4,0h8" fill="none" stroke="white" stroke-width="1.5" pointer-events="none"/>
                </g>
                <g id="dirArrow">
                        <path fill="none" stroke="white" stroke-width="1.5" d="M0,-3.0v7 M-2.5,-0.5L0,-3.0L2.5,-0.5"/>
                </g>
               <g id="resetDef">
                       <use xlink:href="#rim2" fill="#404040">
                               <set attributeName="fill" to="#808080" begin="reset.mouseover" end="reset.mouseout"/>
                       </use>
               </g>
        </defs>

<script type="text/javascript">
var viewWidth = 584;
var viewHeight = 577;
var sectionId = 'dynsection-11';
</script>
<script xlink:href="../../svgpan.js"/>
<svg id="graph" class="graph">
<g id="viewport">
<title>engine.level.Level.getGameObjectsCollection</title>
<polygon fill="white" stroke="none" points="-4,4 -4,-573 580,-573 580,4 -4,4"/>
<!-- Node1 -->
<g id="node1" class="node"><title>Node1</title>
<polygon fill="#bfbfbf" stroke="black" points="0.5,-294 0.5,-324 149.5,-324 149.5,-294 0.5,-294"/>
<text text-anchor="start" x="8.5" y="-312" font-family="Helvetica,sans-Serif" font-size="10.00">engine.level.Level.getGame</text>
<text text-anchor="middle" x="75" y="-301" font-family="Helvetica,sans-Serif" font-size="10.00">ObjectsCollection</text>
</g>
<!-- Node2 -->
<g id="node2" class="node"><title>Node2</title>
<g id="a_node2"><a xlink:href="../../d3/d17/classengine_1_1actions_1_1_translate_y_type.html#a68441c0bc8fb8c065c302a9f0f5ef7bf" target="_top" xlink:title="engine.actions.Translate\lYType.execute">
<polygon fill="white" stroke="black" points="209,-539 209,-569 341,-569 341,-539 209,-539"/>
<text text-anchor="start" x="217" y="-557" font-family="Helvetica,sans-Serif" font-size="10.00">engine.actions.Translate</text>
<text text-anchor="middle" x="275" y="-546" font-family="Helvetica,sans-Serif" font-size="10.00">YType.execute</text>
</a>
</g>
</g>
<!-- Node1&#45;&gt;Node2 -->
<g id="edge1" class="edge"><title>Node1&#45;&gt;Node2</title>
<path fill="none" stroke="midnightblue" d="M81.4963,-334.157C92.8211,-379.932 123.141,-476.911 186,-529 192.726,-534.574 200.624,-538.906 208.88,-542.274"/>
<polygon fill="midnightblue" stroke="midnightblue" points="84.8445,-333.107 79.1318,-324.184 78.0333,-334.722 84.8445,-333.107"/>
</g>
<!-- Node3 -->
<g id="node3" class="node"><title>Node3</title>
<g id="a_node3"><a xlink:href="../../db/db5/classengine_1_1actions_1_1render_1_1_change_image_type_action.html#a09110a0a08bac229b9e2feddf1d3378c" target="_top" xlink:title="engine.actions.render.Change\lImageTypeAction.execute">
<polygon fill="white" stroke="black" points="195,-490 195,-520 355,-520 355,-490 195,-490"/>
<text text-anchor="start" x="203" y="-508" font-family="Helvetica,sans-Serif" font-size="10.00">engine.actions.render.Change</text>
<text text-anchor="middle" x="275" y="-497" font-family="Helvetica,sans-Serif" font-size="10.00">ImageTypeAction.execute</text>
</a>
</g>
</g>
<!-- Node1&#45;&gt;Node3 -->
<g id="edge2" class="edge"><title>Node1&#45;&gt;Node3</title>
<path fill="none" stroke="midnightblue" d="M85.2344,-333.794C100.435,-371.176 134.291,-441.663 186,-480 191.231,-483.878 197.043,-487.155 203.117,-489.925"/>
<polygon fill="midnightblue" stroke="midnightblue" points="88.3683,-332.2 81.4426,-324.183 81.8567,-334.769 88.3683,-332.2"/>
</g>
<!-- Node4 -->
<g id="node4" class="node"><title>Node4</title>
<g id="a_node4"><a xlink:href="../../dd/d57/classengine_1_1actions_1_1_make_new_object_from_location_action.html#a2ebd225d5e10817ac79f4044867afa98" target="_top" xlink:title="engine.actions.MakeNewObject\lFromLocationAction.execute">
<polygon fill="white" stroke="black" points="192,-441 192,-471 358,-471 358,-441 192,-441"/>
<text text-anchor="start" x="200" y="-459" font-family="Helvetica,sans-Serif" font-size="10.00">engine.actions.MakeNewObject</text>
<text text-anchor="middle" x="275" y="-448" font-family="Helvetica,sans-Serif" font-size="10.00">FromLocationAction.execute</text>
</a>
</g>
</g>
<!-- Node1&#45;&gt;Node4 -->
<g id="edge3" class="edge"><title>Node1&#45;&gt;Node4</title>
<path fill="none" stroke="midnightblue" d="M91.3339,-332.913C110.292,-360.566 145.11,-405.538 186,-431 192.202,-434.862 199.016,-438.143 206.023,-440.927"/>
<polygon fill="midnightblue" stroke="midnightblue" points="94.0029,-330.609 85.5268,-324.252 88.1889,-334.507 94.0029,-330.609"/>
</g>
<!-- Node5 -->
<g id="node5" class="node"><title>Node5</title>
<g id="a_node5"><a xlink:href="../../d9/d3b/classengine_1_1actions_1_1_velocity_type_action.html#aa6767abcb43632713fdc097d4865f949" target="_top" xlink:title="engine.actions.VelocityType\lAction.execute">
<polygon fill="white" stroke="black" points="201.5,-392 201.5,-422 348.5,-422 348.5,-392 201.5,-392"/>
<text text-anchor="start" x="209.5" y="-410" font-family="Helvetica,sans-Serif" font-size="10.00">engine.actions.VelocityType</text>
<text text-anchor="middle" x="275" y="-399" font-family="Helvetica,sans-Serif" font-size="10.00">Action.execute</text>
</a>
</g>
</g>
<!-- Node1&#45;&gt;Node5 -->
<g id="edge4" class="edge"><title>Node1&#45;&gt;Node5</title>
<path fill="none" stroke="midnightblue" d="M102.786,-330.214C124.244,-346.333 155.672,-368.041 186,-382 194.079,-385.719 202.835,-389.007 211.584,-391.874"/>
<polygon fill="midnightblue" stroke="midnightblue" points="104.868,-327.4 94.7939,-324.121 100.625,-332.967 104.868,-327.4"/>
</g>
<!-- Node6 -->
<g id="node6" class="node"><title>Node6</title>
<g id="a_node6"><a xlink:href="../../db/d61/classengine_1_1actions_1_1_make_new_object_from_object_action.html#a01ffb165d6169f7b0a22733e2b6c61a9" target="_top" xlink:title="engine.actions.MakeNewObject\lFromObjectAction.execute">
<polygon fill="white" stroke="black" points="192,-343 192,-373 358,-373 358,-343 192,-343"/>
<text text-anchor="start" x="200" y="-361" font-family="Helvetica,sans-Serif" font-size="10.00">engine.actions.MakeNewObject</text>
<text text-anchor="middle" x="275" y="-350" font-family="Helvetica,sans-Serif" font-size="10.00">FromObjectAction.execute</text>
</a>
</g>
</g>
<!-- Node1&#45;&gt;Node6 -->
<g id="edge5" class="edge"><title>Node1&#45;&gt;Node6</title>
<path fill="none" stroke="midnightblue" d="M146.621,-326.477C168.444,-331.877 192.277,-337.776 213.363,-342.994"/>
<polygon fill="midnightblue" stroke="midnightblue" points="147.3,-323.039 136.752,-324.035 145.618,-329.834 147.3,-323.039"/>
</g>
<!-- Node7 -->
<g id="node7" class="node"><title>Node7</title>
<g id="a_node7"><a xlink:href="../../da/d60/classengine_1_1actions_1_1_delete_type_action.html#a087b7d237e7e6527a701a0db7eec7825" target="_top" xlink:title="engine.actions.DeleteType\lAction.execute">
<polygon fill="white" stroke="black" points="204,-294 204,-324 346,-324 346,-294 204,-294"/>
<text text-anchor="start" x="212" y="-312" font-family="Helvetica,sans-Serif" font-size="10.00">engine.actions.DeleteType</text>
<text text-anchor="middle" x="275" y="-301" font-family="Helvetica,sans-Serif" font-size="10.00">Action.execute</text>
</a>
</g>
</g>
<!-- Node1&#45;&gt;Node7 -->
<g id="edge6" class="edge"><title>Node1&#45;&gt;Node7</title>
<path fill="none" stroke="midnightblue" d="M159.791,-309C174.455,-309 189.575,-309 203.822,-309"/>
<polygon fill="midnightblue" stroke="midnightblue" points="159.728,-305.5 149.728,-309 159.728,-312.5 159.728,-305.5"/>
</g>
<!-- Node8 -->
<g id="node8" class="node"><title>Node8</title>
<g id="a_node8"><a xlink:href="../../de/dcd/classengine_1_1actions_1_1_translate_type_action.html#a94e5be4d9ae6925a10929120abbb36ba" target="_top" xlink:title="engine.actions.Translate\lTypeAction.initialize">
<polygon fill="white" stroke="black" points="209,-245 209,-275 341,-275 341,-245 209,-245"/>
<text text-anchor="start" x="217" y="-263" font-family="Helvetica,sans-Serif" font-size="10.00">engine.actions.Translate</text>
<text text-anchor="middle" x="275" y="-252" font-family="Helvetica,sans-Serif" font-size="10.00">TypeAction.initialize</text>
</a>
</g>
</g>
<!-- Node1&#45;&gt;Node8 -->
<g id="edge7" class="edge"><title>Node1&#45;&gt;Node8</title>
<path fill="none" stroke="midnightblue" d="M146.621,-291.523C168.444,-286.123 192.277,-280.224 213.363,-275.006"/>
<polygon fill="midnightblue" stroke="midnightblue" points="145.618,-288.166 136.752,-293.965 147.3,-294.961 145.618,-288.166"/>
</g>
<!-- Node9 -->
<g id="node9" class="node"><title>Node9</title>
<g id="a_node9"><a xlink:href="../../d0/d0d/classengine_1_1actions_1_1_physics_type_action.html#a564ebf97b22a1fe571200fcccef03a08" target="_top" xlink:title="engine.actions.PhysicsType\lAction.initialize">
<polygon fill="white" stroke="black" points="202,-196 202,-226 348,-226 348,-196 202,-196"/>
<text text-anchor="start" x="210" y="-214" font-family="Helvetica,sans-Serif" font-size="10.00">engine.actions.PhysicsType</text>
<text text-anchor="middle" x="275" y="-203" font-family="Helvetica,sans-Serif" font-size="10.00">Action.initialize</text>
</a>
</g>
</g>
<!-- Node1&#45;&gt;Node9 -->
<g id="edge8" class="edge"><title>Node1&#45;&gt;Node9</title>
<path fill="none" stroke="midnightblue" d="M102.786,-287.786C124.244,-271.667 155.672,-249.959 186,-236 194.079,-232.281 202.835,-228.993 211.584,-226.126"/>
<polygon fill="midnightblue" stroke="midnightblue" points="100.625,-285.033 94.7939,-293.879 104.868,-290.6 100.625,-285.033"/>
</g>
<!-- Node10 -->
<g id="node10" class="node"><title>Node10</title>
<g id="a_node10"><a xlink:href="../../d0/d7d/classengine_1_1conditions_1_1_type_collision_condition.html#aa8c4f215bc53bae3df044fc3dab3c1d4" target="_top" xlink:title="engine.conditions.TypeCollision\lCondition.initialize">
<polygon fill="white" stroke="black" points="193,-147 193,-177 357,-177 357,-147 193,-147"/>
<text text-anchor="start" x="201" y="-165" font-family="Helvetica,sans-Serif" font-size="10.00">engine.conditions.TypeCollision</text>
<text text-anchor="middle" x="275" y="-154" font-family="Helvetica,sans-Serif" font-size="10.00">Condition.initialize</text>
</a>
</g>
</g>
<!-- Node1&#45;&gt;Node10 -->
<g id="edge9" class="edge"><title>Node1&#45;&gt;Node10</title>
<path fill="none" stroke="midnightblue" d="M91.3339,-285.087C110.292,-257.434 145.11,-212.462 186,-187 192.202,-183.138 199.016,-179.857 206.023,-177.073"/>
<polygon fill="midnightblue" stroke="midnightblue" points="88.1889,-283.493 85.5268,-293.748 94.0029,-287.391 88.1889,-283.493"/>
</g>
<!-- Node11 -->
<g id="node11" class="node"><title>Node11</title>
<g id="a_node11"><a xlink:href="../../da/d16/classengine_1_1actions_1_1_make_new_random_object_action.html#a82ccd5604bd05170e416e41b32020f00" target="_top" xlink:title="engine.actions.MakeNewRandom\lObjectAction.makeRandomObject">
<polygon fill="white" stroke="black" points="186,-98 186,-128 364,-128 364,-98 186,-98"/>
<text text-anchor="start" x="194" y="-116" font-family="Helvetica,sans-Serif" font-size="10.00">engine.actions.MakeNewRandom</text>
<text text-anchor="middle" x="275" y="-105" font-family="Helvetica,sans-Serif" font-size="10.00">ObjectAction.makeRandomObject</text>
</a>
</g>
</g>
<!-- Node1&#45;&gt;Node11 -->
<g id="edge10" class="edge"><title>Node1&#45;&gt;Node11</title>
<path fill="none" stroke="midnightblue" d="M85.2344,-284.206C100.435,-246.824 134.291,-176.337 186,-138 191.231,-134.122 197.043,-130.845 203.117,-128.075"/>
<polygon fill="midnightblue" stroke="midnightblue" points="81.8567,-283.231 81.4426,-293.817 88.3683,-285.8 81.8567,-283.231"/>
</g>
<!-- Node13 -->
<g id="node13" class="node"><title>Node13</title>
<g id="a_node13"><a xlink:href="../../d1/d00/classauthoring_1_1view_1_1levelview_1_1_single_level_view.html#a7c75d7c9307941b2da3fb690eebe2cd1" target="_top" xlink:title="authoring.view.levelview.\lSingleLevelView.recreateLevel">
<polygon fill="white" stroke="black" points="195,-49 195,-79 355,-79 355,-49 195,-49"/>
<text text-anchor="start" x="203" y="-67" font-family="Helvetica,sans-Serif" font-size="10.00">authoring.view.levelview.</text>
<text text-anchor="middle" x="275" y="-56" font-family="Helvetica,sans-Serif" font-size="10.00">SingleLevelView.recreateLevel</text>
</a>
</g>
</g>
<!-- Node1&#45;&gt;Node13 -->
<g id="edge12" class="edge"><title>Node1&#45;&gt;Node13</title>
<path fill="none" stroke="midnightblue" d="M81.4963,-283.843C92.8211,-238.068 123.141,-141.089 186,-89 190.647,-85.1491 195.854,-81.8907 201.351,-79.1335"/>
<polygon fill="midnightblue" stroke="midnightblue" points="78.0333,-283.278 79.1318,-293.816 84.8445,-284.893 78.0333,-283.278"/>
</g>
<!-- Node12 -->
<g id="node12" class="node"><title>Node12</title>
<g id="a_node12"><a xlink:href="../../da/d16/classengine_1_1actions_1_1_make_new_random_object_action.html#aa831c4b818ed75f812bf8ba0d453c942" target="_top" xlink:title="engine.actions.MakeNewRandom\lObjectAction.execute">
<polygon fill="white" stroke="black" points="400.5,-98 400.5,-128 575.5,-128 575.5,-98 400.5,-98"/>
<text text-anchor="start" x="408.5" y="-116" font-family="Helvetica,sans-Serif" font-size="10.00">engine.actions.MakeNewRandom</text>
<text text-anchor="middle" x="488" y="-105" font-family="Helvetica,sans-Serif" font-size="10.00">ObjectAction.execute</text>
</a>
</g>
</g>
<!-- Node11&#45;&gt;Node12 -->
<g id="edge11" class="edge"><title>Node11&#45;&gt;Node12</title>
<path fill="none" stroke="midnightblue" d="M374.418,-113C383.109,-113 391.864,-113 400.446,-113"/>
<polygon fill="midnightblue" stroke="midnightblue" points="374.26,-109.5 364.26,-113 374.26,-116.5 374.26,-109.5"/>
</g>
<!-- Node14 -->
<g id="node14" class="node"><title>Node14</title>
<g id="a_node14"><a xlink:href="../../d1/d00/classauthoring_1_1view_1_1levelview_1_1_single_level_view.html#a532ba7c58ed4434fb218478ced7c9528" target="_top" xlink:title="authoring.view.levelview.\lSingleLevelView.SingleLevelView">
<polygon fill="white" stroke="black" points="403,-49 403,-79 573,-79 573,-49 403,-49"/>
<text text-anchor="start" x="411" y="-67" font-family="Helvetica,sans-Serif" font-size="10.00">authoring.view.levelview.</text>
<text text-anchor="middle" x="488" y="-56" font-family="Helvetica,sans-Serif" font-size="10.00">SingleLevelView.SingleLevelView</text>
</a>
</g>
</g>
<!-- Node13&#45;&gt;Node14 -->
<g id="edge13" class="edge"><title>Node13&#45;&gt;Node14</title>
<path fill="none" stroke="midnightblue" d="M365.477,-64C377.851,-64 390.527,-64 402.801,-64"/>
<polygon fill="midnightblue" stroke="midnightblue" points="365.169,-60.5001 355.169,-64 365.169,-67.5001 365.169,-60.5001"/>
</g>
<!-- Node15 -->
<g id="node15" class="node"><title>Node15</title>
<g id="a_node15"><a xlink:href="../../d1/d00/classauthoring_1_1view_1_1levelview_1_1_single_level_view.html#ae0049506bc1805b24296e3e24e51519c" target="_top" xlink:title="authoring.view.levelview.\lSingleLevelView.update">
<polygon fill="white" stroke="black" points="422,-0 422,-30 554,-30 554,-0 422,-0"/>
<text text-anchor="start" x="430" y="-18" font-family="Helvetica,sans-Serif" font-size="10.00">authoring.view.levelview.</text>
<text text-anchor="middle" x="488" y="-7" font-family="Helvetica,sans-Serif" font-size="10.00">SingleLevelView.update</text>
</a>
</g>
</g>
<!-- Node13&#45;&gt;Node15 -->
<g id="edge14" class="edge"><title>Node13&#45;&gt;Node15</title>
<path fill="none" stroke="midnightblue" d="M350.629,-46.6691C374.055,-41.2288 399.709,-35.2715 422.382,-30.0062"/>
<polygon fill="midnightblue" stroke="midnightblue" points="349.69,-43.294 340.741,-48.9654 351.273,-50.1125 349.69,-43.294"/>
</g>
</g>
</svg>
        <g id="navigator" transform="translate(0 0)" fill="#404254">
                <rect fill="#f2f5e9" fill-opacity="0.5" stroke="#606060" stroke-width=".5" x="0" y="0" width="60" height="60"/>
                <use id="zoomplus" xlink:href="#zoomPlus" x="17" y="9" onmousedown="handleZoom(evt,'in')"/>
                <use id="zoomminus" xlink:href="#zoomMin" x="42" y="9" onmousedown="handleZoom(evt,'out')"/>
                <use id="reset" xlink:href="#resetDef" x="30" y="36" onmousedown="handleReset()"/>
                <g id="arrowUp" xlink:href="#dirArrow" transform="translate(30 24)" onmousedown="handlePan(0,-1)">
                  <use xlink:href="#rim" fill="#404040">
                        <set attributeName="fill" to="#808080" begin="arrowUp.mouseover" end="arrowUp.mouseout"/>
                  </use>
                  <path fill="none" stroke="white" stroke-width="1.5" d="M0,-3.0v7 M-2.5,-0.5L0,-3.0L2.5,-0.5"/>
                </g>
                <g id="arrowRight" xlink:href="#dirArrow" transform="rotate(90) translate(36 -43)" onmousedown="handlePan(1,0)">
                  <use xlink:href="#rim" fill="#404040">
                        <set attributeName="fill" to="#808080" begin="arrowRight.mouseover" end="arrowRight.mouseout"/>
                  </use>
                  <path fill="none" stroke="white" stroke-width="1.5" d="M0,-3.0v7 M-2.5,-0.5L0,-3.0L2.5,-0.5"/>
                </g>
                <g id="arrowDown" xlink:href="#dirArrow" transform="rotate(180) translate(-30 -48)" onmousedown="handlePan(0,1)">
                  <use xlink:href="#rim" fill="#404040">
                        <set attributeName="fill" to="#808080" begin="arrowDown.mouseover" end="arrowDown.mouseout"/>
                  </use>
                  <path fill="none" stroke="white" stroke-width="1.5" d="M0,-3.0v7 M-2.5,-0.5L0,-3.0L2.5,-0.5"/>
                </g>
                <g id="arrowLeft" xlink:href="#dirArrow" transform="rotate(270) translate(-36 17)" onmousedown="handlePan(-1,0)">
                  <use xlink:href="#rim" fill="#404040">
                        <set attributeName="fill" to="#808080" begin="arrowLeft.mouseover" end="arrowLeft.mouseout"/>
                  </use>
                  <path fill="none" stroke="white" stroke-width="1.5" d="M0,-3.0v7 M-2.5,-0.5L0,-3.0L2.5,-0.5"/>
                </g>
        </g>
        <svg viewBox="0 0 15 15" width="100%" height="30px" preserveAspectRatio="xMaxYMin meet">
         <g id="arrow_out" transform="scale(0.3 0.3)">
          <a xlink:href="classengine_1_1level_1_1_level_ac927326f1a3d7e17b5d577c336a5cfc1_icgraph_org.svg" target="_base">
           <rect id="button" ry="5" rx="5" y="6" x="6" height="38" width="38"
                fill="#f2f5e9" fill-opacity="0.5" stroke="#606060" stroke-width="1.0"/>
           <path id="arrow"
             d="M 11.500037,31.436501 C 11.940474,20.09759 22.043105,11.32322 32.158766,21.979434 L 37.068811,17.246167 C 37.068811,17.246167 37.088388,32 37.088388,32 L 22.160133,31.978069 C 22.160133,31.978069 26.997745,27.140456 26.997745,27.140456 C 18.528582,18.264221 13.291696,25.230495 11.500037,31.436501 z"
             style="fill:#404040;"/>
          </a>
         </g>
        </svg>
</svg>
