<?xml version="1.0" encoding="UTF-8" standalone="no"?>
<!DOCTYPE svg PUBLIC "-//W3C//DTD SVG 1.1//EN"
 "http://www.w3.org/Graphics/SVG/1.1/DTD/svg11.dtd">
<!-- Generated by graphviz version 2.36.0 (20140111.2315)
 -->
<!-- Title: engine.level.Level.getWidth Pages: 1 -->
<svg width="522pt" height="38pt"
 viewBox="0.00 0.00 522.00 38.00" xmlns="http://www.w3.org/2000/svg" xmlns:xlink="http://www.w3.org/1999/xlink">
<g id="graph0" class="graph" transform="scale(1 1) rotate(0) translate(4 34)">
<title>engine.level.Level.getWidth</title>
<polygon fill="white" stroke="none" points="-4,4 -4,-34 518,-34 518,4 -4,4"/>
<!-- Node1 -->
<g id="node1" class="node"><title>Node1</title>
<polygon fill="#bfbfbf" stroke="black" points="0,-5.5 0,-24.5 146,-24.5 146,-5.5 0,-5.5"/>
<text text-anchor="middle" x="73" y="-12.5" font-family="Helvetica,sans-Serif" font-size="10.00">engine.level.Level.getWidth</text>
</g>
<!-- Node2 -->
<g id="node2" class="node"><title>Node2</title>
<g id="a_node2"><a xlink:href="../../d4/d04/classauthoring_1_1view_1_1levelview_1_1_levels_view.html#aa2b5fcd2823037e5a304a2179a75d2ec" target="_top" xlink:title="authoring.view.levelview.\lLevelsView.addExistingLevel">
<polygon fill="white" stroke="black" points="182,-0 182,-30 332,-30 332,-0 182,-0"/>
<text text-anchor="start" x="190" y="-18" font-family="Helvetica,sans-Serif" font-size="10.00">authoring.view.levelview.</text>
<text text-anchor="middle" x="257" y="-7" font-family="Helvetica,sans-Serif" font-size="10.00">LevelsView.addExistingLevel</text>
</a>
</g>
</g>
<!-- Node1&#45;&gt;Node2 -->
<g id="edge1" class="edge"><title>Node1&#45;&gt;Node2</title>
<path fill="none" stroke="midnightblue" d="M156.437,-15C164.893,-15 173.448,-15 181.807,-15"/>
<polygon fill="midnightblue" stroke="midnightblue" points="156.193,-11.5001 146.193,-15 156.193,-18.5001 156.193,-11.5001"/>
</g>
<!-- Node3 -->
<g id="node3" class="node"><title>Node3</title>
<g id="a_node3"><a xlink:href="../../dc/dc3/classauthoring_1_1eventhandlers_1_1_level_to_view_handler.html#a8385015925539b6ae2762a0e453bf629" target="_top" xlink:title="authoring.eventhandlers.\lLevelToViewHandler.handle">
<polygon fill="white" stroke="black" points="368.5,-0 368.5,-30 513.5,-30 513.5,-0 368.5,-0"/>
<text text-anchor="start" x="376.5" y="-18" font-family="Helvetica,sans-Serif" font-size="10.00">authoring.eventhandlers.</text>
<text text-anchor="middle" x="441" y="-7" font-family="Helvetica,sans-Serif" font-size="10.00">LevelToViewHandler.handle</text>
</a>
</g>
</g>
<!-- Node2&#45;&gt;Node3 -->
<g id="edge2" class="edge"><title>Node2&#45;&gt;Node3</title>
<path fill="none" stroke="midnightblue" d="M342.234,-15C350.979,-15 359.808,-15 368.395,-15"/>
<polygon fill="midnightblue" stroke="midnightblue" points="342.026,-11.5001 332.026,-15 342.026,-18.5001 342.026,-11.5001"/>
</g>
</g>
</svg>
