<?xml version="1.0" encoding="UTF-8" standalone="no"?>
<!DOCTYPE svg PUBLIC "-//W3C//DTD SVG 1.1//EN"
 "http://www.w3.org/Graphics/SVG/1.1/DTD/svg11.dtd">
<!-- Generated by graphviz version 2.36.0 (20140111.2315)
 -->
<!-- Title: engine.level.Level.getIdentifier Pages: 1 -->
<svg width="556pt" height="126pt"
 viewBox="0.00 0.00 556.00 126.00" xmlns="http://www.w3.org/2000/svg" xmlns:xlink="http://www.w3.org/1999/xlink">
<g id="graph0" class="graph" transform="scale(1 1) rotate(0) translate(4 122)">
<title>engine.level.Level.getIdentifier</title>
<polygon fill="white" stroke="none" points="-4,4 -4,-122 552,-122 552,4 -4,4"/>
<!-- Node1 -->
<g id="node1" class="node"><title>Node1</title>
<polygon fill="#bfbfbf" stroke="black" points="0.5,-49.5 0.5,-68.5 161.5,-68.5 161.5,-49.5 0.5,-49.5"/>
<text text-anchor="middle" x="81" y="-56.5" font-family="Helvetica,sans-Serif" font-size="10.00">engine.level.Level.getIdentifier</text>
</g>
<!-- Node2 -->
<g id="node2" class="node"><title>Node2</title>
<g id="a_node2"><a xlink:href="../../d4/d04/classauthoring_1_1view_1_1levelview_1_1_levels_view.html#aa2b5fcd2823037e5a304a2179a75d2ec" target="_top" xlink:title="authoring.view.levelview.\lLevelsView.addExistingLevel">
<polygon fill="white" stroke="black" points="204,-88 204,-118 354,-118 354,-88 204,-88"/>
<text text-anchor="start" x="212" y="-106" font-family="Helvetica,sans-Serif" font-size="10.00">authoring.view.levelview.</text>
<text text-anchor="middle" x="279" y="-95" font-family="Helvetica,sans-Serif" font-size="10.00">LevelsView.addExistingLevel</text>
</a>
</g>
</g>
<!-- Node1&#45;&gt;Node2 -->
<g id="edge1" class="edge"><title>Node1&#45;&gt;Node2</title>
<path fill="none" stroke="midnightblue" d="M134.307,-70.7424C157.82,-76.0207 185.853,-82.314 210.891,-87.9346"/>
<polygon fill="midnightblue" stroke="midnightblue" points="135.053,-67.3228 124.529,-68.5473 133.52,-74.1528 135.053,-67.3228"/>
</g>
<!-- Node3 -->
<g id="node3" class="node"><title>Node3</title>
<g id="a_node3"><a xlink:href="../../dc/dc3/classauthoring_1_1eventhandlers_1_1_level_to_view_handler.html#a8385015925539b6ae2762a0e453bf629" target="_top" xlink:title="authoring.eventhandlers.\lLevelToViewHandler.handle">
<polygon fill="white" stroke="black" points="399.5,-68 399.5,-98 544.5,-98 544.5,-68 399.5,-68"/>
<text text-anchor="start" x="407.5" y="-86" font-family="Helvetica,sans-Serif" font-size="10.00">authoring.eventhandlers.</text>
<text text-anchor="middle" x="472" y="-75" font-family="Helvetica,sans-Serif" font-size="10.00">LevelToViewHandler.handle</text>
</a>
</g>
</g>
<!-- Node1&#45;&gt;Node3 -->
<g id="edge5" class="edge"><title>Node1&#45;&gt;Node3</title>
<path fill="none" stroke="midnightblue" d="M171.67,-64.5323C240.807,-68.7978 335.144,-74.6182 399.308,-78.5768"/>
<polygon fill="midnightblue" stroke="midnightblue" points="171.855,-61.0372 161.659,-63.9147 171.424,-68.0239 171.855,-61.0372"/>
</g>
<!-- Node4 -->
<g id="node4" class="node"><title>Node4</title>
<g id="a_node4"><a xlink:href="../../d9/d7c/classauthoring_1_1view_1_1levelview_1_1_levels_accordion_view.html#a9ef72a816ee64e1e386b80f174c8b867" target="_top" xlink:title="authoring.view.levelview.\lLevelsAccordionView.addLevel">
<polygon fill="white" stroke="black" points="198.5,-0 198.5,-30 359.5,-30 359.5,-0 198.5,-0"/>
<text text-anchor="start" x="206.5" y="-18" font-family="Helvetica,sans-Serif" font-size="10.00">authoring.view.levelview.</text>
<text text-anchor="middle" x="279" y="-7" font-family="Helvetica,sans-Serif" font-size="10.00">LevelsAccordionView.addLevel</text>
</a>
</g>
</g>
<!-- Node1&#45;&gt;Node4 -->
<g id="edge3" class="edge"><title>Node1&#45;&gt;Node4</title>
<path fill="none" stroke="midnightblue" d="M134.307,-47.2576C157.82,-41.9793 185.853,-35.686 210.891,-30.0654"/>
<polygon fill="midnightblue" stroke="midnightblue" points="133.52,-43.8472 124.529,-49.4527 135.053,-50.6772 133.52,-43.8472"/>
</g>
<!-- Node2&#45;&gt;Node3 -->
<g id="edge2" class="edge"><title>Node2&#45;&gt;Node3</title>
<path fill="none" stroke="midnightblue" d="M364.334,-94.1692C376.045,-92.9429 387.984,-91.6928 399.432,-90.494"/>
<polygon fill="midnightblue" stroke="midnightblue" points="363.7,-90.7164 354.119,-95.2389 364.429,-97.6783 363.7,-90.7164"/>
</g>
<!-- Node5 -->
<g id="node5" class="node"><title>Node5</title>
<g id="a_node5"><a xlink:href="../../d9/d7c/classauthoring_1_1view_1_1levelview_1_1_levels_accordion_view.html#a1fceb7d0ce7748c69f55fb45c61498cc" target="_top" xlink:title="authoring.view.levelview.\lLevelsAccordionView.update">
<polygon fill="white" stroke="black" points="396,-0 396,-30 548,-30 548,-0 396,-0"/>
<text text-anchor="start" x="404" y="-18" font-family="Helvetica,sans-Serif" font-size="10.00">authoring.view.levelview.</text>
<text text-anchor="middle" x="472" y="-7" font-family="Helvetica,sans-Serif" font-size="10.00">LevelsAccordionView.update</text>
</a>
</g>
</g>
<!-- Node4&#45;&gt;Node5 -->
<g id="edge4" class="edge"><title>Node4&#45;&gt;Node5</title>
<path fill="none" stroke="midnightblue" d="M369.787,-15C378.489,-15 387.254,-15 395.793,-15"/>
<polygon fill="midnightblue" stroke="midnightblue" points="369.618,-11.5001 359.618,-15 369.618,-18.5001 369.618,-11.5001"/>
</g>
</g>
</svg>
