<?xml version="1.0" encoding="UTF-8" standalone="no"?>
<!DOCTYPE svg PUBLIC "-//W3C//DTD SVG 1.1//EN"
 "http://www.w3.org/Graphics/SVG/1.1/DTD/svg11.dtd">
<!-- Generated by graphviz version 2.36.0 (20140111.2315)
 -->
<!-- Title: engine.level.Level.setStartIndicator Pages: 1 -->
<svg width="730pt" height="87pt"
 viewBox="0.00 0.00 730.00 87.00" xmlns="http://www.w3.org/2000/svg" xmlns:xlink="http://www.w3.org/1999/xlink">
<g id="graph0" class="graph" transform="scale(1 1) rotate(0) translate(4 83)">
<title>engine.level.Level.setStartIndicator</title>
<polygon fill="white" stroke="none" points="-4,4 -4,-83 726,-83 726,4 -4,4"/>
<!-- Node1 -->
<g id="node1" class="node"><title>Node1</title>
<polygon fill="#bfbfbf" stroke="black" points="0.5,-24 0.5,-54 143.5,-54 143.5,-24 0.5,-24"/>
<text text-anchor="start" x="8.5" y="-42" font-family="Helvetica,sans-Serif" font-size="10.00">engine.level.Level.setStart</text>
<text text-anchor="middle" x="72" y="-31" font-family="Helvetica,sans-Serif" font-size="10.00">Indicator</text>
</g>
<!-- Node2 -->
<g id="node2" class="node"><title>Node2</title>
<g id="a_node2"><a xlink:href="../../d4/d68/classauthoring_1_1model_1_1_authoring_model.html#a11495359850ef25b7338f7e7ba0554d0" target="_top" xlink:title="authoring.model.Authoring\lModel.convertFromSerializable">
<polygon fill="white" stroke="black" points="180.5,-49 180.5,-79 343.5,-79 343.5,-49 180.5,-49"/>
<text text-anchor="start" x="188.5" y="-67" font-family="Helvetica,sans-Serif" font-size="10.00">authoring.model.Authoring</text>
<text text-anchor="middle" x="262" y="-56" font-family="Helvetica,sans-Serif" font-size="10.00">Model.convertFromSerializable</text>
</a>
</g>
</g>
<!-- Node1&#45;&gt;Node2 -->
<g id="edge1" class="edge"><title>Node1&#45;&gt;Node2</title>
<path fill="none" stroke="midnightblue" d="M153.473,-49.7011C162.348,-50.8814 171.388,-52.0835 180.266,-53.2641"/>
<polygon fill="midnightblue" stroke="midnightblue" points="153.913,-46.229 143.539,-48.3802 152.99,-53.1679 153.913,-46.229"/>
</g>
<!-- Node5 -->
<g id="node5" class="node"><title>Node5</title>
<g id="a_node5"><a xlink:href="../../d4/d68/classauthoring_1_1model_1_1_authoring_model.html#ab3e6b375a2e8fdc73b351fc873ce214e" target="_top" xlink:title="authoring.model.Authoring\lModel.convertToSerializable">
<polygon fill="white" stroke="black" points="187.5,-0 187.5,-30 336.5,-30 336.5,-0 187.5,-0"/>
<text text-anchor="start" x="195.5" y="-18" font-family="Helvetica,sans-Serif" font-size="10.00">authoring.model.Authoring</text>
<text text-anchor="middle" x="262" y="-7" font-family="Helvetica,sans-Serif" font-size="10.00">Model.convertToSerializable</text>
</a>
</g>
</g>
<!-- Node1&#45;&gt;Node5 -->
<g id="edge4" class="edge"><title>Node1&#45;&gt;Node5</title>
<path fill="none" stroke="midnightblue" d="M153.684,-28.6999C164.829,-27.2771 176.229,-25.8218 187.24,-24.4161"/>
<polygon fill="midnightblue" stroke="midnightblue" points="153.015,-25.2568 143.539,-29.995 153.902,-32.2004 153.015,-25.2568"/>
</g>
<!-- Node3 -->
<g id="node3" class="node"><title>Node3</title>
<g id="a_node3"><a xlink:href="../../d4/d68/classauthoring_1_1model_1_1_authoring_model.html#a3935f1a8c2e6b6fcd4609ffb4b1b8cf0" target="_top" xlink:title="authoring.model.Authoring\lModel.load">
<polygon fill="white" stroke="black" points="380.5,-49 380.5,-79 525.5,-79 525.5,-49 380.5,-49"/>
<text text-anchor="start" x="388.5" y="-67" font-family="Helvetica,sans-Serif" font-size="10.00">authoring.model.Authoring</text>
<text text-anchor="middle" x="453" y="-56" font-family="Helvetica,sans-Serif" font-size="10.00">Model.load</text>
</a>
</g>
</g>
<!-- Node2&#45;&gt;Node3 -->
<g id="edge2" class="edge"><title>Node2&#45;&gt;Node3</title>
<path fill="none" stroke="midnightblue" d="M353.713,-64C362.612,-64 371.556,-64 380.228,-64"/>
<polygon fill="midnightblue" stroke="midnightblue" points="353.701,-60.5001 343.701,-64 353.701,-67.5001 353.701,-60.5001"/>
</g>
<!-- Node4 -->
<g id="node4" class="node"><title>Node4</title>
<g id="a_node4"><a xlink:href="../../de/d41/classauthoring_1_1controller_1_1_authoring_controller.html#a78ad41cfba48debac79f09f1211cb108" target="_top" xlink:title="authoring.controller.Authoring\lController.loadData">
<polygon fill="white" stroke="black" points="562.5,-49 562.5,-79 721.5,-79 721.5,-49 562.5,-49"/>
<text text-anchor="start" x="570.5" y="-67" font-family="Helvetica,sans-Serif" font-size="10.00">authoring.controller.Authoring</text>
<text text-anchor="middle" x="642" y="-56" font-family="Helvetica,sans-Serif" font-size="10.00">Controller.loadData</text>
</a>
</g>
</g>
<!-- Node3&#45;&gt;Node4 -->
<g id="edge3" class="edge"><title>Node3&#45;&gt;Node4</title>
<path fill="none" stroke="midnightblue" d="M535.945,-64C544.688,-64 553.567,-64 562.271,-64"/>
<polygon fill="midnightblue" stroke="midnightblue" points="535.764,-60.5001 525.764,-64 535.764,-67.5001 535.764,-60.5001"/>
</g>
<!-- Node6 -->
<g id="node6" class="node"><title>Node6</title>
<g id="a_node6"><a xlink:href="../../d4/d68/classauthoring_1_1model_1_1_authoring_model.html#abf284ecb1804cc5b8ca9cbaea475c2fd" target="_top" xlink:title="authoring.model.Authoring\lModel.save">
<polygon fill="white" stroke="black" points="380.5,-0 380.5,-30 525.5,-30 525.5,-0 380.5,-0"/>
<text text-anchor="start" x="388.5" y="-18" font-family="Helvetica,sans-Serif" font-size="10.00">authoring.model.Authoring</text>
<text text-anchor="middle" x="453" y="-7" font-family="Helvetica,sans-Serif" font-size="10.00">Model.save</text>
</a>
</g>
</g>
<!-- Node5&#45;&gt;Node6 -->
<g id="edge5" class="edge"><title>Node5&#45;&gt;Node6</title>
<path fill="none" stroke="midnightblue" d="M346.837,-15C358.052,-15 369.47,-15 380.448,-15"/>
<polygon fill="midnightblue" stroke="midnightblue" points="346.614,-11.5001 336.614,-15 346.613,-18.5001 346.614,-11.5001"/>
</g>
<!-- Node7 -->
<g id="node7" class="node"><title>Node7</title>
<g id="a_node7"><a xlink:href="../../de/d41/classauthoring_1_1controller_1_1_authoring_controller.html#adbe015f9624bd3077b0eba208ece1966" target="_top" xlink:title="authoring.controller.Authoring\lController.saveData">
<polygon fill="white" stroke="black" points="562.5,-0 562.5,-30 721.5,-30 721.5,-0 562.5,-0"/>
<text text-anchor="start" x="570.5" y="-18" font-family="Helvetica,sans-Serif" font-size="10.00">authoring.controller.Authoring</text>
<text text-anchor="middle" x="642" y="-7" font-family="Helvetica,sans-Serif" font-size="10.00">Controller.saveData</text>
</a>
</g>
</g>
<!-- Node6&#45;&gt;Node7 -->
<g id="edge6" class="edge"><title>Node6&#45;&gt;Node7</title>
<path fill="none" stroke="midnightblue" d="M535.945,-15C544.688,-15 553.567,-15 562.271,-15"/>
<polygon fill="midnightblue" stroke="midnightblue" points="535.764,-11.5001 525.764,-15 535.764,-18.5001 535.764,-11.5001"/>
</g>
</g>
</svg>
