<?xml version="1.0" encoding="UTF-8" standalone="no"?>
<!DOCTYPE svg PUBLIC "-//W3C//DTD SVG 1.1//EN"
 "http://www.w3.org/Graphics/SVG/1.1/DTD/svg11.dtd">
<!-- Generated by graphviz version 2.36.0 (20140111.2315)
 -->
<!-- Title: authoring.eventhandlers.GameHandler&lt; T extends Event &gt; Pages: 1 -->
<svg width="182pt" height="174pt"
 viewBox="0.00 0.00 182.00 174.00" xmlns="http://www.w3.org/2000/svg" xmlns:xlink="http://www.w3.org/1999/xlink">
<g id="graph0" class="graph" transform="scale(1 1) rotate(0) translate(4 170)">
<title>authoring.eventhandlers.GameHandler&lt; T extends Event &gt;</title>
<polygon fill="white" stroke="none" points="-4,4 -4,-170 178,-170 178,4 -4,4"/>
<!-- Node1 -->
<g id="node1" class="node"><title>Node1</title>
<polygon fill="#bfbfbf" stroke="black" points="16.5,-68.5 16.5,-109.5 157.5,-109.5 157.5,-68.5 16.5,-68.5"/>
<text text-anchor="start" x="24.5" y="-97.5" font-family="Helvetica,sans-Serif" font-size="10.00">authoring.eventhandlers.</text>
<text text-anchor="start" x="24.5" y="-86.5" font-family="Helvetica,sans-Serif" font-size="10.00">GameHandler&lt; T extends</text>
<text text-anchor="middle" x="87" y="-75.5" font-family="Helvetica,sans-Serif" font-size="10.00"> Event &gt;</text>
</g>
<!-- Node3 -->
<g id="node3" class="node"><title>Node3</title>
<g id="a_node3"><a xlink:href="../../d9/d71/classauthoring_1_1eventhandlers_1_1_save_game_data_handler.html" target="_top" xlink:title="authoring.eventhandlers.\lSaveGameDataHandler">
<polygon fill="white" stroke="black" points="18.5,-1 18.5,-31 155.5,-31 155.5,-1 18.5,-1"/>
<text text-anchor="start" x="26.5" y="-19" font-family="Helvetica,sans-Serif" font-size="10.00">authoring.eventhandlers.</text>
<text text-anchor="middle" x="87" y="-8" font-family="Helvetica,sans-Serif" font-size="10.00">SaveGameDataHandler</text>
</a>
</g>
</g>
<!-- Node1&#45;&gt;Node3 -->
<g id="edge2" class="edge"><title>Node1&#45;&gt;Node3</title>
<path fill="none" stroke="midnightblue" d="M87,-58.0188C87,-48.6567 87,-38.7696 87,-31.0485"/>
<polygon fill="midnightblue" stroke="midnightblue" points="83.5001,-58.2225 87,-68.2225 90.5001,-58.2226 83.5001,-58.2225"/>
</g>
<!-- Node2 -->
<g id="node2" class="node"><title>Node2</title>
<polygon fill="white" stroke="#bfbfbf" points="-1,-146.5 -1,-165.5 175,-165.5 175,-146.5 -1,-146.5"/>
<text text-anchor="middle" x="87" y="-153.5" font-family="Helvetica,sans-Serif" font-size="10.00">javafx::event::EventHandler&lt; T &gt;</text>
</g>
<!-- Node2&#45;&gt;Node1 -->
<g id="edge1" class="edge"><title>Node2&#45;&gt;Node1</title>
<path fill="none" stroke="midnightblue" d="M87,-136.037C87,-127.708 87,-117.936 87,-109.542"/>
<polygon fill="midnightblue" stroke="midnightblue" points="83.5001,-136.234 87,-146.234 90.5001,-136.234 83.5001,-136.234"/>
</g>
</g>
</svg>
