<?xml version="1.0" encoding="UTF-8" standalone="no"?>
<!DOCTYPE svg PUBLIC "-//W3C//DTD SVG 1.1//EN"
 "http://www.w3.org/Graphics/SVG/1.1/DTD/svg11.dtd">
<!-- Generated by graphviz version 2.36.0 (20140111.2315)
 -->
<!-- Title: engine.sound.SoundUtility.playBackGroundMusic Pages: 1 -->
<svg width="998pt" height="111pt"
 viewBox="0.00 0.00 998.00 111.00" xmlns="http://www.w3.org/2000/svg" xmlns:xlink="http://www.w3.org/1999/xlink">
<g id="graph0" class="graph" transform="scale(1 1) rotate(0) translate(4 107)">
<title>engine.sound.SoundUtility.playBackGroundMusic</title>
<polygon fill="white" stroke="none" points="-4,4 -4,-107 994,-107 994,4 -4,4"/>
<!-- Node1 -->
<g id="node1" class="node"><title>Node1</title>
<polygon fill="#bfbfbf" stroke="black" points="0.5,-48 0.5,-78 163.5,-78 163.5,-48 0.5,-48"/>
<text text-anchor="start" x="8.5" y="-66" font-family="Helvetica,sans-Serif" font-size="10.00">engine.sound.SoundUtility.play</text>
<text text-anchor="middle" x="82" y="-55" font-family="Helvetica,sans-Serif" font-size="10.00">BackGroundMusic</text>
</g>
<!-- Node2 -->
<g id="node2" class="node"><title>Node2</title>
<g id="a_node2"><a xlink:href="../../d4/d45/classengine_1_1actions_1_1_play_background_music.html#a60394918fee9b87aca1c52542865c8a8" target="_top" xlink:title="engine.actions.PlayBackground\lMusic.execute">
<polygon fill="white" stroke="black" points="209,-73 209,-103 375,-103 375,-73 209,-73"/>
<text text-anchor="start" x="217" y="-91" font-family="Helvetica,sans-Serif" font-size="10.00">engine.actions.PlayBackground</text>
<text text-anchor="middle" x="292" y="-80" font-family="Helvetica,sans-Serif" font-size="10.00">Music.execute</text>
</a>
</g>
</g>
<!-- Node1&#45;&gt;Node2 -->
<g id="edge1" class="edge"><title>Node1&#45;&gt;Node2</title>
<path fill="none" stroke="midnightblue" d="M173.894,-73.9247C185.558,-75.3267 197.446,-76.7555 208.957,-78.1391"/>
<polygon fill="midnightblue" stroke="midnightblue" points="174.062,-70.4199 163.716,-72.7014 173.227,-77.3698 174.062,-70.4199"/>
</g>
<!-- Node3 -->
<g id="node3" class="node"><title>Node3</title>
<g id="a_node3"><a xlink:href="../../df/d67/classengine_1_1level_1_1_level_manager.html#a523599892453015eed0f1b506979af8a" target="_top" xlink:title="engine.level.LevelManager.initialize\lCurrentLevel">
<polygon fill="white" stroke="black" points="200,-24 200,-54 384,-54 384,-24 200,-24"/>
<text text-anchor="start" x="208" y="-42" font-family="Helvetica,sans-Serif" font-size="10.00">engine.level.LevelManager.initialize</text>
<text text-anchor="middle" x="292" y="-31" font-family="Helvetica,sans-Serif" font-size="10.00">CurrentLevel</text>
</a>
</g>
</g>
<!-- Node1&#45;&gt;Node3 -->
<g id="edge2" class="edge"><title>Node1&#45;&gt;Node3</title>
<path fill="none" stroke="midnightblue" d="M173.823,-52.5204C182.494,-51.5199 191.289,-50.5051 199.962,-49.5044"/>
<polygon fill="midnightblue" stroke="midnightblue" points="173.249,-49.0634 163.716,-53.6866 174.051,-56.0172 173.249,-49.0634"/>
</g>
<!-- Node4 -->
<g id="node4" class="node"><title>Node4</title>
<g id="a_node4"><a xlink:href="../../df/d67/classengine_1_1level_1_1_level_manager.html#a1d0f314bbf304bf86067ab87b832d2e0" target="_top" xlink:title="engine.level.LevelManager.find\lAndSetStartLevel">
<polygon fill="white" stroke="black" points="420.5,-49 420.5,-79 583.5,-79 583.5,-49 420.5,-49"/>
<text text-anchor="start" x="428.5" y="-67" font-family="Helvetica,sans-Serif" font-size="10.00">engine.level.LevelManager.find</text>
<text text-anchor="middle" x="502" y="-56" font-family="Helvetica,sans-Serif" font-size="10.00">AndSetStartLevel</text>
</a>
</g>
</g>
<!-- Node3&#45;&gt;Node4 -->
<g id="edge3" class="edge"><title>Node3&#45;&gt;Node4</title>
<path fill="none" stroke="midnightblue" d="M394.403,-51.1878C403.089,-52.2318 411.799,-53.2787 420.291,-54.2994"/>
<polygon fill="midnightblue" stroke="midnightblue" points="394.578,-47.6838 384.232,-49.9654 393.743,-54.6338 394.578,-47.6838"/>
</g>
<!-- Node6 -->
<g id="node6" class="node"><title>Node6</title>
<g id="a_node6"><a xlink:href="../../df/d67/classengine_1_1level_1_1_level_manager.html#ad89101547413fe335873b050fd091c79" target="_top" xlink:title="engine.level.LevelManager.set\lCurrentLevel">
<polygon fill="white" stroke="black" points="421.5,-0 421.5,-30 582.5,-30 582.5,-0 421.5,-0"/>
<text text-anchor="start" x="429.5" y="-18" font-family="Helvetica,sans-Serif" font-size="10.00">engine.level.LevelManager.set</text>
<text text-anchor="middle" x="502" y="-7" font-family="Helvetica,sans-Serif" font-size="10.00">CurrentLevel</text>
</a>
</g>
</g>
<!-- Node3&#45;&gt;Node6 -->
<g id="edge5" class="edge"><title>Node3&#45;&gt;Node6</title>
<path fill="none" stroke="midnightblue" d="M394.39,-27.3012C403.41,-26.2604 412.456,-25.2166 421.257,-24.2011"/>
<polygon fill="midnightblue" stroke="midnightblue" points="393.765,-23.85 384.232,-28.4733 394.567,-30.8039 393.765,-23.85"/>
</g>
<!-- Node5 -->
<g id="node5" class="node"><title>Node5</title>
<g id="a_node5"><a xlink:href="../../df/d67/classengine_1_1level_1_1_level_manager.html#a0ea71eb9396652850db0d2da44c4ca81" target="_top" xlink:title="engine.level.LevelManager.\lLevelManager">
<polygon fill="white" stroke="black" points="638,-49 638,-79 784,-79 784,-49 638,-49"/>
<text text-anchor="start" x="646" y="-67" font-family="Helvetica,sans-Serif" font-size="10.00">engine.level.LevelManager.</text>
<text text-anchor="middle" x="711" y="-56" font-family="Helvetica,sans-Serif" font-size="10.00">LevelManager</text>
</a>
</g>
</g>
<!-- Node4&#45;&gt;Node5 -->
<g id="edge4" class="edge"><title>Node4&#45;&gt;Node5</title>
<path fill="none" stroke="midnightblue" d="M593.735,-64C608.442,-64 623.497,-64 637.69,-64"/>
<polygon fill="midnightblue" stroke="midnightblue" points="593.624,-60.5001 583.624,-64 593.624,-67.5001 593.624,-60.5001"/>
</g>
<!-- Node7 -->
<g id="node7" class="node"><title>Node7</title>
<g id="a_node7"><a xlink:href="../../df/d67/classengine_1_1level_1_1_level_manager.html#ad3c392cf6260c53428255fb596442692" target="_top" xlink:title="engine.level.LevelManager.change\lToLevel">
<polygon fill="white" stroke="black" points="620.5,-0 620.5,-30 801.5,-30 801.5,-0 620.5,-0"/>
<text text-anchor="start" x="628.5" y="-18" font-family="Helvetica,sans-Serif" font-size="10.00">engine.level.LevelManager.change</text>
<text text-anchor="middle" x="711" y="-7" font-family="Helvetica,sans-Serif" font-size="10.00">ToLevel</text>
</a>
</g>
</g>
<!-- Node6&#45;&gt;Node7 -->
<g id="edge6" class="edge"><title>Node6&#45;&gt;Node7</title>
<path fill="none" stroke="midnightblue" d="M592.917,-15C602.001,-15 611.228,-15 620.31,-15"/>
<polygon fill="midnightblue" stroke="midnightblue" points="592.736,-11.5001 582.736,-15 592.735,-18.5001 592.736,-11.5001"/>
</g>
<!-- Node8 -->
<g id="node8" class="node"><title>Node8</title>
<g id="a_node8"><a xlink:href="../../d1/d73/classengine_1_1actions_1_1_change_level_action.html#a8190adf308768b0d12f6432d0cf0fbc4" target="_top" xlink:title="engine.actions.ChangeLevel\lAction.execute">
<polygon fill="white" stroke="black" points="838.5,-0 838.5,-30 989.5,-30 989.5,-0 838.5,-0"/>
<text text-anchor="start" x="846.5" y="-18" font-family="Helvetica,sans-Serif" font-size="10.00">engine.actions.ChangeLevel</text>
<text text-anchor="middle" x="914" y="-7" font-family="Helvetica,sans-Serif" font-size="10.00">Action.execute</text>
</a>
</g>
</g>
<!-- Node7&#45;&gt;Node8 -->
<g id="edge7" class="edge"><title>Node7&#45;&gt;Node8</title>
<path fill="none" stroke="midnightblue" d="M811.706,-15C820.652,-15 829.606,-15 838.285,-15"/>
<polygon fill="midnightblue" stroke="midnightblue" points="811.625,-11.5001 801.625,-15 811.625,-18.5001 811.625,-11.5001"/>
</g>
</g>
</svg>
