<?xml version="1.0" encoding="UTF-8" standalone="no"?>
<!DOCTYPE svg PUBLIC "-//W3C//DTD SVG 1.1//EN"
 "http://www.w3.org/Graphics/SVG/1.1/DTD/svg11.dtd">
<!-- Generated by graphviz version 2.36.0 (20140111.2315)
 -->
<!-- Title: errorsAndExceptions.ErrorPopUp Pages: 1 -->
<svg width="296pt" height="108pt"
 viewBox="0.00 0.00 296.00 108.00" xmlns="http://www.w3.org/2000/svg" xmlns:xlink="http://www.w3.org/1999/xlink">
<g id="graph0" class="graph" transform="scale(1 1) rotate(0) translate(4 104)">
<title>errorsAndExceptions.ErrorPopUp</title>
<polygon fill="white" stroke="none" points="-4,4 -4,-104 292,-104 292,4 -4,4"/>
<!-- Node1 -->
<g id="node1" class="node"><title>Node1</title>
<polygon fill="#bfbfbf" stroke="black" points="72,-1 72,-31 214,-31 214,-1 72,-1"/>
<text text-anchor="start" x="80" y="-19" font-family="Helvetica,sans-Serif" font-size="10.00">errorsAndExceptions.Error</text>
<text text-anchor="middle" x="143" y="-8" font-family="Helvetica,sans-Serif" font-size="10.00">PopUp</text>
</g>
<!-- Node2 -->
<g id="node2" class="node"><title>Node2</title>
<polygon fill="white" stroke="#bfbfbf" points="-0.5,-80.5 -0.5,-99.5 44.5,-99.5 44.5,-80.5 -0.5,-80.5"/>
<text text-anchor="middle" x="22" y="-87.5" font-family="Helvetica,sans-Serif" font-size="10.00">Stage</text>
</g>
<!-- Node2&#45;&gt;Node1 -->
<g id="edge1" class="edge"><title>Node2&#45;&gt;Node1</title>
<path fill="none" stroke="#9a32cd" stroke-dasharray="5,2" d="M40.5048,-74.0885C50.4299,-66.4283 63.0482,-57.2147 75,-50 86.3465,-43.1507 99.3244,-36.5693 110.88,-31.1106"/>
<polygon fill="#9a32cd" stroke="#9a32cd" points="38.261,-71.4003 32.5605,-80.3309 42.586,-76.9044 38.261,-71.4003"/>
<text text-anchor="middle" x="107" y="-53.5" font-family="Helvetica,sans-Serif" font-size="10.00"> popUpStage</text>
</g>
<!-- Node3 -->
<g id="node3" class="node"><title>Node3</title>
<polygon fill="white" stroke="#bfbfbf" points="62.5,-80.5 62.5,-99.5 223.5,-99.5 223.5,-80.5 62.5,-80.5"/>
<text text-anchor="middle" x="143" y="-87.5" font-family="Helvetica,sans-Serif" font-size="10.00">EventHandler&lt; ActionEvent &gt;</text>
</g>
<!-- Node3&#45;&gt;Node1 -->
<g id="edge2" class="edge"><title>Node3&#45;&gt;Node1</title>
<path fill="none" stroke="#9a32cd" stroke-dasharray="5,2" d="M143,-70.0846C143,-57.9148 143,-42.3538 143,-31.2316"/>
<polygon fill="#9a32cd" stroke="#9a32cd" points="139.5,-70.4579 143,-80.4579 146.5,-70.4579 139.5,-70.4579"/>
<text text-anchor="middle" x="173" y="-53.5" font-family="Helvetica,sans-Serif" font-size="10.00"> closePopUp</text>
</g>
<!-- Node4 -->
<g id="node4" class="node"><title>Node4</title>
<polygon fill="white" stroke="#bfbfbf" points="242,-80.5 242,-99.5 288,-99.5 288,-80.5 242,-80.5"/>
<text text-anchor="middle" x="265" y="-87.5" font-family="Helvetica,sans-Serif" font-size="10.00">Group</text>
</g>
<!-- Node4&#45;&gt;Node1 -->
<g id="edge3" class="edge"><title>Node4&#45;&gt;Node1</title>
<path fill="none" stroke="#9a32cd" stroke-dasharray="5,2" d="M244.403,-74.3001C233.484,-66.7267 219.729,-57.5273 207,-50 195.809,-43.3824 183.148,-36.6953 172.059,-31.0873"/>
<polygon fill="#9a32cd" stroke="#9a32cd" points="242.626,-77.3291 252.823,-80.2069 246.646,-71.5986 242.626,-77.3291"/>
<text text-anchor="middle" x="236.5" y="-53.5" font-family="Helvetica,sans-Serif" font-size="10.00"> root</text>
</g>
</g>
</svg>
