<?xml version="1.0" encoding="UTF-8" standalone="no"?>
<!DOCTYPE svg PUBLIC "-//W3C//DTD SVG 1.1//EN"
 "http://www.w3.org/Graphics/SVG/1.1/DTD/svg11.dtd">
<!-- Generated by graphviz version 2.36.0 (20140111.2315)
 -->
<!-- Title: engine.gameObject.components.PhysicsBody.setVelocity Pages: 1 -->
<svg width="892pt" height="749pt"
 viewBox="0.00 0.00 892.00 749.00" xmlns="http://www.w3.org/2000/svg" xmlns:xlink="http://www.w3.org/1999/xlink">
<g id="graph0" class="graph" transform="scale(1 1) rotate(0) translate(4 745)">
<title>engine.gameObject.components.PhysicsBody.setVelocity</title>
<polygon fill="white" stroke="none" points="-4,4 -4,-745 888,-745 888,4 -4,4"/>
<!-- Node1 -->
<g id="node1" class="node"><title>Node1</title>
<polygon fill="#bfbfbf" stroke="black" points="0,-498 0,-528 176,-528 176,-498 0,-498"/>
<text text-anchor="start" x="8" y="-516" font-family="Helvetica,sans-Serif" font-size="10.00">engine.gameObject.components.</text>
<text text-anchor="middle" x="88" y="-505" font-family="Helvetica,sans-Serif" font-size="10.00">PhysicsBody.setVelocity</text>
</g>
<!-- Node2 -->
<g id="node2" class="node"><title>Node2</title>
<g id="a_node2"><a xlink:href="../../da/d4c/classauthoring_1_1eventhandlers_1_1_add_object_handler.html#ad31ca6859bb6a874f9c1a1106fc9b03b" target="_top" xlink:title="authoring.eventhandlers.\lAddObjectHandler.createGameObject">
<polygon fill="white" stroke="black" points="212.5,-683 212.5,-713 409.5,-713 409.5,-683 212.5,-683"/>
<text text-anchor="start" x="220.5" y="-701" font-family="Helvetica,sans-Serif" font-size="10.00">authoring.eventhandlers.</text>
<text text-anchor="middle" x="311" y="-690" font-family="Helvetica,sans-Serif" font-size="10.00">AddObjectHandler.createGameObject</text>
</a>
</g>
</g>
<!-- Node1&#45;&gt;Node2 -->
<g id="edge1" class="edge"><title>Node1&#45;&gt;Node2</title>
<path fill="none" stroke="midnightblue" d="M114.737,-534.905C139.574,-556.01 178.267,-588.8 212,-617 239.604,-640.077 271.786,-666.605 291.526,-682.834"/>
<polygon fill="midnightblue" stroke="midnightblue" points="116.759,-532.03 106.873,-528.22 112.225,-537.363 116.759,-532.03"/>
</g>
<!-- Node4 -->
<g id="node4" class="node"><title>Node4</title>
<g id="a_node4"><a xlink:href="../../da/d8d/classauthoring_1_1view_1_1propertiesview_1_1_game_object_properties.html#a6f1aeaddb6956053690488c8ddaa38ba" target="_top" xlink:title="authoring.view.propertiesview.\lGameObjectProperties.edit">
<polygon fill="white" stroke="black" points="231.5,-578 231.5,-608 390.5,-608 390.5,-578 231.5,-578"/>
<text text-anchor="start" x="239.5" y="-596" font-family="Helvetica,sans-Serif" font-size="10.00">authoring.view.propertiesview.</text>
<text text-anchor="middle" x="311" y="-585" font-family="Helvetica,sans-Serif" font-size="10.00">GameObjectProperties.edit</text>
</a>
</g>
</g>
<!-- Node1&#45;&gt;Node4 -->
<g id="edge3" class="edge"><title>Node1&#45;&gt;Node4</title>
<path fill="none" stroke="midnightblue" d="M140.137,-531.511C179.03,-545.59 231.877,-564.72 268.243,-577.884"/>
<polygon fill="midnightblue" stroke="midnightblue" points="141.163,-528.16 130.568,-528.047 138.78,-534.742 141.163,-528.16"/>
</g>
<!-- Node8 -->
<g id="node8" class="node"><title>Node8</title>
<g id="a_node8"><a xlink:href="../../da/d1b/classengine_1_1collision_1_1objects_1_1_collision_composition.html#a7ec4687ad9367279088b965c0e009cd0" target="_top" xlink:title="engine.collision.objects.\lCollisionComposition.fixedCollision">
<polygon fill="white" stroke="black" points="221,-418 221,-448 401,-448 401,-418 221,-418"/>
<text text-anchor="start" x="229" y="-436" font-family="Helvetica,sans-Serif" font-size="10.00">engine.collision.objects.</text>
<text text-anchor="middle" x="311" y="-425" font-family="Helvetica,sans-Serif" font-size="10.00">CollisionComposition.fixedCollision</text>
</a>
</g>
</g>
<!-- Node1&#45;&gt;Node8 -->
<g id="edge7" class="edge"><title>Node1&#45;&gt;Node8</title>
<path fill="none" stroke="midnightblue" d="M140.137,-494.489C179.03,-480.41 231.877,-461.28 268.243,-448.116"/>
<polygon fill="midnightblue" stroke="midnightblue" points="138.78,-491.258 130.568,-497.953 141.163,-497.84 138.78,-491.258"/>
</g>
<!-- Node18 -->
<g id="node18" class="node"><title>Node18</title>
<g id="a_node18"><a xlink:href="../../d9/d9d/classengine_1_1game_object_1_1components_1_1_physics_body.html#a7c386f4896156b36cb73670842806b71" target="_top" xlink:title="engine.gameObject.components.\lPhysicsBody.reverseVelocity">
<polygon fill="white" stroke="black" points="223,-247 223,-277 399,-277 399,-247 223,-247"/>
<text text-anchor="start" x="231" y="-265" font-family="Helvetica,sans-Serif" font-size="10.00">engine.gameObject.components.</text>
<text text-anchor="middle" x="311" y="-254" font-family="Helvetica,sans-Serif" font-size="10.00">PhysicsBody.reverseVelocity</text>
</a>
</g>
</g>
<!-- Node1&#45;&gt;Node18 -->
<g id="edge17" class="edge"><title>Node1&#45;&gt;Node18</title>
<path fill="none" stroke="midnightblue" d="M109.358,-489.878C153.991,-439.186 259.437,-319.427 296.685,-277.123"/>
<polygon fill="midnightblue" stroke="midnightblue" points="106.473,-487.858 102.492,-497.677 111.727,-492.484 106.473,-487.858"/>
</g>
<!-- Node3 -->
<g id="node3" class="node"><title>Node3</title>
<g id="a_node3"><a xlink:href="../../da/d4c/classauthoring_1_1eventhandlers_1_1_add_object_handler.html#ae0c51e52da299a8a98ac0c9aec97efcd" target="_top" xlink:title="authoring.eventhandlers.\lAddObjectHandler.handle">
<polygon fill="white" stroke="black" points="476,-711 476,-741 614,-741 614,-711 476,-711"/>
<text text-anchor="start" x="484" y="-729" font-family="Helvetica,sans-Serif" font-size="10.00">authoring.eventhandlers.</text>
<text text-anchor="middle" x="545" y="-718" font-family="Helvetica,sans-Serif" font-size="10.00">AddObjectHandler.handle</text>
</a>
</g>
</g>
<!-- Node2&#45;&gt;Node3 -->
<g id="edge2" class="edge"><title>Node2&#45;&gt;Node3</title>
<path fill="none" stroke="midnightblue" d="M419.693,-710.997C438.844,-713.309 458.299,-715.657 475.955,-717.788"/>
<polygon fill="midnightblue" stroke="midnightblue" points="420.064,-707.517 409.716,-709.793 419.225,-714.466 420.064,-707.517"/>
</g>
<!-- Node5 -->
<g id="node5" class="node"><title>Node5</title>
<g id="a_node5"><a xlink:href="../../d4/d9e/classauthoring_1_1view_1_1propertiesview_1_1_properties_view.html#aeed3bf20185eabcf870ee4c649bc1d4e" target="_top" xlink:title="authoring.view.propertiesview.\lPropertiesView.getEditedGameObject">
<polygon fill="white" stroke="black" points="447.5,-662 447.5,-692 642.5,-692 642.5,-662 447.5,-662"/>
<text text-anchor="start" x="455.5" y="-680" font-family="Helvetica,sans-Serif" font-size="10.00">authoring.view.propertiesview.</text>
<text text-anchor="middle" x="545" y="-669" font-family="Helvetica,sans-Serif" font-size="10.00">PropertiesView.getEditedGameObject</text>
</a>
</g>
</g>
<!-- Node4&#45;&gt;Node5 -->
<g id="edge4" class="edge"><title>Node4&#45;&gt;Node5</title>
<path fill="none" stroke="midnightblue" d="M351.55,-612.477C377.874,-624.924 413.471,-640.776 446,-652 456.457,-655.608 467.702,-658.955 478.715,-661.95"/>
<polygon fill="midnightblue" stroke="midnightblue" points="352.826,-609.208 342.294,-608.06 349.811,-615.526 352.826,-609.208"/>
</g>
<!-- Node6 -->
<g id="node6" class="node"><title>Node6</title>
<g id="a_node6"><a xlink:href="../../d6/df5/classauthoring_1_1eventhandlers_1_1_edit_game_object_handler.html#ac0a03e6b751068903df50296d9f1fbd7" target="_top" xlink:title="authoring.eventhandlers.\lEditGameObjectHandler.handle">
<polygon fill="white" stroke="black" points="698.5,-686 698.5,-716 865.5,-716 865.5,-686 698.5,-686"/>
<text text-anchor="start" x="706.5" y="-704" font-family="Helvetica,sans-Serif" font-size="10.00">authoring.eventhandlers.</text>
<text text-anchor="middle" x="782" y="-693" font-family="Helvetica,sans-Serif" font-size="10.00">EditGameObjectHandler.handle</text>
</a>
</g>
</g>
<!-- Node5&#45;&gt;Node6 -->
<g id="edge5" class="edge"><title>Node5&#45;&gt;Node6</title>
<path fill="none" stroke="midnightblue" d="M652.622,-687.889C667.943,-689.454 683.513,-691.044 698.278,-692.552"/>
<polygon fill="midnightblue" stroke="midnightblue" points="652.905,-684.4 642.601,-686.866 652.193,-691.364 652.905,-684.4"/>
</g>
<!-- Node7 -->
<g id="node7" class="node"><title>Node7</title>
<g id="a_node7"><a xlink:href="../../df/d81/classauthoring_1_1eventhandlers_1_1_save_as_new_handler.html#a912458649a9a99cded7c346f9d8b40f5" target="_top" xlink:title="authoring.eventhandlers.\lSaveAsNewHandler.handle">
<polygon fill="white" stroke="black" points="709.5,-637 709.5,-667 854.5,-667 854.5,-637 709.5,-637"/>
<text text-anchor="start" x="717.5" y="-655" font-family="Helvetica,sans-Serif" font-size="10.00">authoring.eventhandlers.</text>
<text text-anchor="middle" x="782" y="-644" font-family="Helvetica,sans-Serif" font-size="10.00">SaveAsNewHandler.handle</text>
</a>
</g>
</g>
<!-- Node5&#45;&gt;Node7 -->
<g id="edge6" class="edge"><title>Node5&#45;&gt;Node7</title>
<path fill="none" stroke="midnightblue" d="M652.58,-665.662C671.753,-663.622 691.316,-661.541 709.205,-659.638"/>
<polygon fill="midnightblue" stroke="midnightblue" points="652.174,-662.185 642.601,-666.723 652.915,-669.146 652.174,-662.185"/>
</g>
<!-- Node9 -->
<g id="node9" class="node"><title>Node9</title>
<g id="a_node9"><a xlink:href="../../db/dbb/classengine_1_1actions_1_1_fixed_collision_type_action.html#a4335f03e3a33ba714562e4e187cf0ae2" target="_top" xlink:title="engine.actions.FixedCollision\lTypeAction.applyPhysics">
<polygon fill="white" stroke="black" points="469,-613 469,-643 621,-643 621,-613 469,-613"/>
<text text-anchor="start" x="477" y="-631" font-family="Helvetica,sans-Serif" font-size="10.00">engine.actions.FixedCollision</text>
<text text-anchor="middle" x="545" y="-620" font-family="Helvetica,sans-Serif" font-size="10.00">TypeAction.applyPhysics</text>
</a>
</g>
</g>
<!-- Node8&#45;&gt;Node9 -->
<g id="edge8" class="edge"><title>Node8&#45;&gt;Node9</title>
<path fill="none" stroke="midnightblue" d="M327.716,-456.539C356.138,-498.446 415.914,-583.438 446,-603 452.992,-607.546 460.764,-611.266 468.784,-614.31"/>
<polygon fill="midnightblue" stroke="midnightblue" points="330.485,-454.385 321.991,-448.053 324.682,-458.3 330.485,-454.385"/>
</g>
<!-- Node10 -->
<g id="node10" class="node"><title>Node10</title>
<g id="a_node10"><a xlink:href="../../d7/de2/classengine_1_1actions_1_1_fixed_collision_action.html#a9d8b1ea6e0e71b027fcaa18f52ba3908" target="_top" xlink:title="engine.actions.FixedCollision\lAction.applyPhysics">
<polygon fill="white" stroke="black" points="469,-564 469,-594 621,-594 621,-564 469,-564"/>
<text text-anchor="start" x="477" y="-582" font-family="Helvetica,sans-Serif" font-size="10.00">engine.actions.FixedCollision</text>
<text text-anchor="middle" x="545" y="-571" font-family="Helvetica,sans-Serif" font-size="10.00">Action.applyPhysics</text>
</a>
</g>
</g>
<!-- Node8&#45;&gt;Node10 -->
<g id="edge9" class="edge"><title>Node8&#45;&gt;Node10</title>
<path fill="none" stroke="midnightblue" d="M331.148,-456.086C355.163,-483.526 398.933,-528.767 446,-554 453.196,-557.858 461.011,-561.139 468.983,-563.926"/>
<polygon fill="midnightblue" stroke="midnightblue" points="333.523,-453.48 324.348,-448.183 328.217,-458.046 333.523,-453.48"/>
</g>
<!-- Node11 -->
<g id="node11" class="node"><title>Node11</title>
<g id="a_node11"><a xlink:href="../../d4/daa/classengine_1_1collision_1_1objects_1_1_fixed_object_collision_object.html#a21a31d8fafaaa37c7ca7d92ed0b015f1" target="_top" xlink:title="engine.collision.objects.\lFixedObjectCollisionObject.handle\lEnemyCollisionObject">
<polygon fill="white" stroke="black" points="457,-504.5 457,-545.5 633,-545.5 633,-504.5 457,-504.5"/>
<text text-anchor="start" x="465" y="-533.5" font-family="Helvetica,sans-Serif" font-size="10.00">engine.collision.objects.</text>
<text text-anchor="start" x="465" y="-522.5" font-family="Helvetica,sans-Serif" font-size="10.00">FixedObjectCollisionObject.handle</text>
<text text-anchor="middle" x="545" y="-511.5" font-family="Helvetica,sans-Serif" font-size="10.00">EnemyCollisionObject</text>
</a>
</g>
</g>
<!-- Node8&#45;&gt;Node11 -->
<g id="edge10" class="edge"><title>Node8&#45;&gt;Node11</title>
<path fill="none" stroke="midnightblue" d="M351.701,-452.602C378.088,-465.248 413.698,-481.591 446,-494 455.412,-497.616 465.443,-501.145 475.361,-504.451"/>
<polygon fill="midnightblue" stroke="midnightblue" points="352.947,-449.317 342.42,-448.124 349.906,-455.622 352.947,-449.317"/>
</g>
<!-- Node12 -->
<g id="node12" class="node"><title>Node12</title>
<g id="a_node12"><a xlink:href="../../d4/daa/classengine_1_1collision_1_1objects_1_1_fixed_object_collision_object.html#a2e8390b2a80569d4462e04c5706831cb" target="_top" xlink:title="engine.collision.objects.\lFixedObjectCollisionObject.handle\lFixedObjectCollisionObject">
<polygon fill="white" stroke="black" points="457,-444.5 457,-485.5 633,-485.5 633,-444.5 457,-444.5"/>
<text text-anchor="start" x="465" y="-473.5" font-family="Helvetica,sans-Serif" font-size="10.00">engine.collision.objects.</text>
<text text-anchor="start" x="465" y="-462.5" font-family="Helvetica,sans-Serif" font-size="10.00">FixedObjectCollisionObject.handle</text>
<text text-anchor="middle" x="545" y="-451.5" font-family="Helvetica,sans-Serif" font-size="10.00">FixedObjectCollisionObject</text>
</a>
</g>
</g>
<!-- Node8&#45;&gt;Node12 -->
<g id="edge11" class="edge"><title>Node8&#45;&gt;Node12</title>
<path fill="none" stroke="midnightblue" d="M410.964,-446.65C426.181,-448.749 441.797,-450.903 456.735,-452.963"/>
<polygon fill="midnightblue" stroke="midnightblue" points="411.418,-443.18 401.034,-445.281 410.462,-450.114 411.418,-443.18"/>
</g>
<!-- Node13 -->
<g id="node13" class="node"><title>Node13</title>
<g id="a_node13"><a xlink:href="../../dc/d87/classengine_1_1collision_1_1objects_1_1_hero_collision_object.html#a3dc5a68b37238352c99bca91dfc8f9a1" target="_top" xlink:title="engine.collision.objects.\lHeroCollisionObject.handleFixed\lObjectCollisionObject">
<polygon fill="white" stroke="black" points="460.5,-384.5 460.5,-425.5 629.5,-425.5 629.5,-384.5 460.5,-384.5"/>
<text text-anchor="start" x="468.5" y="-413.5" font-family="Helvetica,sans-Serif" font-size="10.00">engine.collision.objects.</text>
<text text-anchor="start" x="468.5" y="-402.5" font-family="Helvetica,sans-Serif" font-size="10.00">HeroCollisionObject.handleFixed</text>
<text text-anchor="middle" x="545" y="-391.5" font-family="Helvetica,sans-Serif" font-size="10.00">ObjectCollisionObject</text>
</a>
</g>
</g>
<!-- Node8&#45;&gt;Node13 -->
<g id="edge12" class="edge"><title>Node8&#45;&gt;Node13</title>
<path fill="none" stroke="midnightblue" d="M411.132,-421.036C427.463,-419.065 444.25,-417.039 460.161,-415.119"/>
<polygon fill="midnightblue" stroke="midnightblue" points="410.542,-417.581 401.034,-422.255 411.381,-424.531 410.542,-417.581"/>
</g>
<!-- Node14 -->
<g id="node14" class="node"><title>Node14</title>
<g id="a_node14"><a xlink:href="../../d6/db8/classengine_1_1collision_1_1objects_1_1_powerup_collision_object.html#a4e09b2b8b7cfbcdd6def8332de2025b7" target="_top" xlink:title="engine.collision.objects.\lPowerupCollisionObject.handleFixed\lObjectCollisionObject">
<polygon fill="white" stroke="black" points="452,-324.5 452,-365.5 638,-365.5 638,-324.5 452,-324.5"/>
<text text-anchor="start" x="460" y="-353.5" font-family="Helvetica,sans-Serif" font-size="10.00">engine.collision.objects.</text>
<text text-anchor="start" x="460" y="-342.5" font-family="Helvetica,sans-Serif" font-size="10.00">PowerupCollisionObject.handleFixed</text>
<text text-anchor="middle" x="545" y="-331.5" font-family="Helvetica,sans-Serif" font-size="10.00">ObjectCollisionObject</text>
</a>
</g>
</g>
<!-- Node8&#45;&gt;Node14 -->
<g id="edge13" class="edge"><title>Node8&#45;&gt;Node14</title>
<path fill="none" stroke="midnightblue" d="M353.341,-413.686C379.585,-401.781 414.432,-386.623 446,-375 454.85,-371.742 464.235,-368.547 473.556,-365.528"/>
<polygon fill="midnightblue" stroke="midnightblue" points="351.727,-410.575 344.083,-417.912 354.634,-416.943 351.727,-410.575"/>
</g>
<!-- Node15 -->
<g id="node15" class="node"><title>Node15</title>
<g id="a_node15"><a xlink:href="../../db/d3a/classengine_1_1collision_1_1objects_1_1_enemy_collision_object.html#a8cf5b65593cec2850e2f94a8d6deb670" target="_top" xlink:title="engine.collision.objects.\lEnemyCollisionObject.handleFixed\lObjectCollisionObject">
<polygon fill="white" stroke="black" points="455.5,-264.5 455.5,-305.5 634.5,-305.5 634.5,-264.5 455.5,-264.5"/>
<text text-anchor="start" x="463.5" y="-293.5" font-family="Helvetica,sans-Serif" font-size="10.00">engine.collision.objects.</text>
<text text-anchor="start" x="463.5" y="-282.5" font-family="Helvetica,sans-Serif" font-size="10.00">EnemyCollisionObject.handleFixed</text>
<text text-anchor="middle" x="545" y="-271.5" font-family="Helvetica,sans-Serif" font-size="10.00">ObjectCollisionObject</text>
</a>
</g>
</g>
<!-- Node8&#45;&gt;Node15 -->
<g id="edge14" class="edge"><title>Node8&#45;&gt;Node15</title>
<path fill="none" stroke="midnightblue" d="M332.254,-410.026C356.745,-383.569 400.386,-340.486 446,-315 452.291,-311.485 459.044,-308.331 465.956,-305.513"/>
<polygon fill="midnightblue" stroke="midnightblue" points="329.44,-407.918 325.288,-417.665 334.612,-412.635 329.44,-407.918"/>
</g>
<!-- Node16 -->
<g id="node16" class="node"><title>Node16</title>
<g id="a_node16"><a xlink:href="../../d4/daa/classengine_1_1collision_1_1objects_1_1_fixed_object_collision_object.html#af3d610bd55f501a9d616abaf648dd870" target="_top" xlink:title="engine.collision.objects.\lFixedObjectCollisionObject.handle\lHeroCollisionObject">
<polygon fill="white" stroke="black" points="457,-204.5 457,-245.5 633,-245.5 633,-204.5 457,-204.5"/>
<text text-anchor="start" x="465" y="-233.5" font-family="Helvetica,sans-Serif" font-size="10.00">engine.collision.objects.</text>
<text text-anchor="start" x="465" y="-222.5" font-family="Helvetica,sans-Serif" font-size="10.00">FixedObjectCollisionObject.handle</text>
<text text-anchor="middle" x="545" y="-211.5" font-family="Helvetica,sans-Serif" font-size="10.00">HeroCollisionObject</text>
</a>
</g>
</g>
<!-- Node8&#45;&gt;Node16 -->
<g id="edge15" class="edge"><title>Node8&#45;&gt;Node16</title>
<path fill="none" stroke="midnightblue" d="M327.095,-409.4C355.22,-366.079 415.54,-276.347 446,-255 450.954,-251.528 456.321,-248.449 461.904,-245.72"/>
<polygon fill="midnightblue" stroke="midnightblue" points="324.091,-407.6 321.605,-417.899 329.971,-411.398 324.091,-407.6"/>
</g>
<!-- Node17 -->
<g id="node17" class="node"><title>Node17</title>
<g id="a_node17"><a xlink:href="../../d4/daa/classengine_1_1collision_1_1objects_1_1_fixed_object_collision_object.html#aabbf81a8ea0fca531c76cb6355553303" target="_top" xlink:title="engine.collision.objects.\lFixedObjectCollisionObject.handle\lPowerupCollisionObject">
<polygon fill="white" stroke="black" points="457,-144.5 457,-185.5 633,-185.5 633,-144.5 457,-144.5"/>
<text text-anchor="start" x="465" y="-173.5" font-family="Helvetica,sans-Serif" font-size="10.00">engine.collision.objects.</text>
<text text-anchor="start" x="465" y="-162.5" font-family="Helvetica,sans-Serif" font-size="10.00">FixedObjectCollisionObject.handle</text>
<text text-anchor="middle" x="545" y="-151.5" font-family="Helvetica,sans-Serif" font-size="10.00">PowerupCollisionObject</text>
</a>
</g>
</g>
<!-- Node8&#45;&gt;Node17 -->
<g id="edge16" class="edge"><title>Node8&#45;&gt;Node17</title>
<path fill="none" stroke="midnightblue" d="M329.756,-409.752C350.754,-381.55 385.888,-332.049 410,-286 430.176,-247.468 414.045,-224.506 446,-195 449.791,-191.499 453.981,-188.407 458.43,-185.675"/>
<polygon fill="midnightblue" stroke="midnightblue" points="326.925,-407.694 323.722,-417.794 332.524,-411.896 326.925,-407.694"/>
</g>
<!-- Node19 -->
<g id="node19" class="node"><title>Node19</title>
<g id="a_node19"><a xlink:href="../../da/d1b/classengine_1_1collision_1_1objects_1_1_collision_composition.html#a18ddea9b9a7eb7e0b581645e7c42b439" target="_top" xlink:title="engine.collision.objects.\lCollisionComposition.reverseVelocites">
<polygon fill="white" stroke="black" points="446.5,-96 446.5,-126 643.5,-126 643.5,-96 446.5,-96"/>
<text text-anchor="start" x="454.5" y="-114" font-family="Helvetica,sans-Serif" font-size="10.00">engine.collision.objects.</text>
<text text-anchor="middle" x="545" y="-103" font-family="Helvetica,sans-Serif" font-size="10.00">CollisionComposition.reverseVelocites</text>
</a>
</g>
</g>
<!-- Node18&#45;&gt;Node19 -->
<g id="edge18" class="edge"><title>Node18&#45;&gt;Node19</title>
<path fill="none" stroke="midnightblue" d="M329.801,-238.946C353.275,-210.178 397.341,-161.543 446,-135 452.305,-131.561 459.104,-128.608 466.077,-126.073"/>
<polygon fill="midnightblue" stroke="midnightblue" points="326.993,-236.853 323.467,-246.844 332.454,-241.232 326.993,-236.853"/>
</g>
<!-- Node20 -->
<g id="node20" class="node"><title>Node20</title>
<g id="a_node20"><a xlink:href="../../db/d3a/classengine_1_1collision_1_1objects_1_1_enemy_collision_object.html#a3fe5a215c527ee4263f5f1c2c851f58b" target="_top" xlink:title="engine.collision.objects.\lEnemyCollisionObject.handleEnemy\lCollisionObject">
<polygon fill="white" stroke="black" points="688,-180.5 688,-221.5 876,-221.5 876,-180.5 688,-180.5"/>
<text text-anchor="start" x="696" y="-209.5" font-family="Helvetica,sans-Serif" font-size="10.00">engine.collision.objects.</text>
<text text-anchor="start" x="696" y="-198.5" font-family="Helvetica,sans-Serif" font-size="10.00">EnemyCollisionObject.handleEnemy</text>
<text text-anchor="middle" x="782" y="-187.5" font-family="Helvetica,sans-Serif" font-size="10.00">CollisionObject</text>
</a>
</g>
</g>
<!-- Node19&#45;&gt;Node20 -->
<g id="edge19" class="edge"><title>Node19&#45;&gt;Node20</title>
<path fill="none" stroke="midnightblue" d="M633.741,-129.924C637.268,-131.486 640.703,-133.174 644,-135 663.522,-145.811 660.798,-158.631 680,-170 686.629,-173.925 693.801,-177.396 701.16,-180.457"/>
<polygon fill="midnightblue" stroke="midnightblue" points="634.807,-126.58 624.224,-126.082 632.187,-133.071 634.807,-126.58"/>
</g>
<!-- Node21 -->
<g id="node21" class="node"><title>Node21</title>
<g id="a_node21"><a xlink:href="../../d6/db8/classengine_1_1collision_1_1objects_1_1_powerup_collision_object.html#a76f3d506523e34f32efeca2f2957c2f3" target="_top" xlink:title="engine.collision.objects.\lPowerupCollisionObject.handleEnemy\lCollisionObject">
<polygon fill="white" stroke="black" points="684.5,-120.5 684.5,-161.5 879.5,-161.5 879.5,-120.5 684.5,-120.5"/>
<text text-anchor="start" x="692.5" y="-149.5" font-family="Helvetica,sans-Serif" font-size="10.00">engine.collision.objects.</text>
<text text-anchor="start" x="692.5" y="-138.5" font-family="Helvetica,sans-Serif" font-size="10.00">PowerupCollisionObject.handleEnemy</text>
<text text-anchor="middle" x="782" y="-127.5" font-family="Helvetica,sans-Serif" font-size="10.00">CollisionObject</text>
</a>
</g>
</g>
<!-- Node19&#45;&gt;Node21 -->
<g id="edge20" class="edge"><title>Node19&#45;&gt;Node21</title>
<path fill="none" stroke="midnightblue" d="M653.796,-124.761C664.016,-126.066 674.335,-127.383 684.44,-128.673"/>
<polygon fill="midnightblue" stroke="midnightblue" points="653.982,-121.257 643.62,-123.462 653.096,-128.2 653.982,-121.257"/>
</g>
<!-- Node22 -->
<g id="node22" class="node"><title>Node22</title>
<g id="a_node22"><a xlink:href="../../d6/db8/classengine_1_1collision_1_1objects_1_1_powerup_collision_object.html#a2bfd0d14c115bfbf39c23435d6660535" target="_top" xlink:title="engine.collision.objects.\lPowerupCollisionObject.handlePowerup\lCollisionObject">
<polygon fill="white" stroke="black" points="680.5,-60.5 680.5,-101.5 883.5,-101.5 883.5,-60.5 680.5,-60.5"/>
<text text-anchor="start" x="688.5" y="-89.5" font-family="Helvetica,sans-Serif" font-size="10.00">engine.collision.objects.</text>
<text text-anchor="start" x="688.5" y="-78.5" font-family="Helvetica,sans-Serif" font-size="10.00">PowerupCollisionObject.handlePowerup</text>
<text text-anchor="middle" x="782" y="-67.5" font-family="Helvetica,sans-Serif" font-size="10.00">CollisionObject</text>
</a>
</g>
</g>
<!-- Node19&#45;&gt;Node22 -->
<g id="edge21" class="edge"><title>Node19&#45;&gt;Node22</title>
<path fill="none" stroke="midnightblue" d="M653.605,-97.2633C662.487,-96.1294 671.445,-94.9858 680.274,-93.8587"/>
<polygon fill="midnightblue" stroke="midnightblue" points="653.096,-93.7997 643.62,-98.5379 653.982,-100.743 653.096,-93.7997"/>
</g>
<!-- Node23 -->
<g id="node23" class="node"><title>Node23</title>
<g id="a_node23"><a xlink:href="../../db/d3a/classengine_1_1collision_1_1objects_1_1_enemy_collision_object.html#aaf077e8098fd696546883adbb1081c04" target="_top" xlink:title="engine.collision.objects.\lEnemyCollisionObject.handlePowerup\lCollisionObject">
<polygon fill="white" stroke="black" points="684.5,-0.5 684.5,-41.5 879.5,-41.5 879.5,-0.5 684.5,-0.5"/>
<text text-anchor="start" x="692.5" y="-29.5" font-family="Helvetica,sans-Serif" font-size="10.00">engine.collision.objects.</text>
<text text-anchor="start" x="692.5" y="-18.5" font-family="Helvetica,sans-Serif" font-size="10.00">EnemyCollisionObject.handlePowerup</text>
<text text-anchor="middle" x="782" y="-7.5" font-family="Helvetica,sans-Serif" font-size="10.00">CollisionObject</text>
</a>
</g>
</g>
<!-- Node19&#45;&gt;Node23 -->
<g id="edge22" class="edge"><title>Node19&#45;&gt;Node23</title>
<path fill="none" stroke="midnightblue" d="M585.925,-91.4523C612.27,-78.9713 647.75,-62.9501 680,-51 688.833,-47.7268 698.2,-44.5565 707.528,-41.5801"/>
<polygon fill="midnightblue" stroke="midnightblue" points="584.172,-88.4105 576.655,-95.8763 587.187,-94.7279 584.172,-88.4105"/>
</g>
</g>
</svg>
