<?xml version="1.0" encoding="UTF-8" standalone="no"?>
<!DOCTYPE svg PUBLIC "-//W3C//DTD SVG 1.1//EN"
 "http://www.w3.org/Graphics/SVG/1.1/DTD/svg11.dtd">
<!-- Generated by graphviz version 2.36.0 (20140111.2315)
 -->
<!-- Title: engine.gameObject.components.PhysicsBody.getCollisionBodyWidth Pages: 1 -->
<svg width="1696pt" height="728pt"
 viewBox="0.00 0.00 1696.00 728.00" xmlns="http://www.w3.org/2000/svg" xmlns:xlink="http://www.w3.org/1999/xlink">
<g id="graph0" class="graph" transform="scale(1 1) rotate(0) translate(4 724)">
<title>engine.gameObject.components.PhysicsBody.getCollisionBodyWidth</title>
<polygon fill="white" stroke="none" points="-4,4 -4,-724 1692,-724 1692,4 -4,4"/>
<!-- Node1 -->
<g id="node1" class="node"><title>Node1</title>
<polygon fill="#bfbfbf" stroke="black" points="0,-251 0,-281 182,-281 182,-251 0,-251"/>
<text text-anchor="start" x="8" y="-269" font-family="Helvetica,sans-Serif" font-size="10.00">engine.gameObject.components.</text>
<text text-anchor="middle" x="91" y="-258" font-family="Helvetica,sans-Serif" font-size="10.00">PhysicsBody.getCollisionBodyWidth</text>
</g>
<!-- Node2 -->
<g id="node2" class="node"><title>Node2</title>
<g id="a_node2"><a xlink:href="../../df/de5/classengine_1_1render_1_1_game_object_renderer.html#a25493ea430dbd3c6094434ba60e98662" target="_top" xlink:title="engine.render.GameObject\lRenderer.createCollisionBody">
<polygon fill="white" stroke="black" points="230.5,-406 230.5,-436 385.5,-436 385.5,-406 230.5,-406"/>
<text text-anchor="start" x="238.5" y="-424" font-family="Helvetica,sans-Serif" font-size="10.00">engine.render.GameObject</text>
<text text-anchor="middle" x="308" y="-413" font-family="Helvetica,sans-Serif" font-size="10.00">Renderer.createCollisionBody</text>
</a>
</g>
</g>
<!-- Node1&#45;&gt;Node2 -->
<g id="edge1" class="edge"><title>Node1&#45;&gt;Node2</title>
<path fill="none" stroke="midnightblue" d="M121.27,-287.101C165.245,-318.804 247.31,-377.968 285.908,-405.794"/>
<polygon fill="midnightblue" stroke="midnightblue" points="123.165,-284.153 113.007,-281.144 119.072,-289.831 123.165,-284.153"/>
</g>
<!-- Node19 -->
<g id="node19" class="node"><title>Node19</title>
<g id="a_node19"><a xlink:href="../../da/d1b/classengine_1_1collision_1_1objects_1_1_collision_composition.html#a7ec4687ad9367279088b965c0e009cd0" target="_top" xlink:title="engine.collision.objects.\lCollisionComposition.fixedCollision">
<polygon fill="white" stroke="black" points="218,-276 218,-306 398,-306 398,-276 218,-276"/>
<text text-anchor="start" x="226" y="-294" font-family="Helvetica,sans-Serif" font-size="10.00">engine.collision.objects.</text>
<text text-anchor="middle" x="308" y="-283" font-family="Helvetica,sans-Serif" font-size="10.00">CollisionComposition.fixedCollision</text>
</a>
</g>
</g>
<!-- Node1&#45;&gt;Node19 -->
<g id="edge18" class="edge"><title>Node1&#45;&gt;Node19</title>
<path fill="none" stroke="midnightblue" d="M192.189,-277.65C200.694,-278.639 209.261,-279.635 217.675,-280.613"/>
<polygon fill="midnightblue" stroke="midnightblue" points="192.582,-274.172 182.245,-276.494 191.774,-281.125 192.582,-274.172"/>
</g>
<!-- Node29 -->
<g id="node29" class="node"><title>Node29</title>
<g id="a_node29"><a xlink:href="../../d9/d9d/classengine_1_1game_object_1_1components_1_1_physics_body.html#a6df6a3a8e4dde3aea1de4127f93935aa" target="_top" xlink:title="engine.gameObject.components.\lPhysicsBody.handleCollision">
<polygon fill="white" stroke="black" points="220,-227 220,-257 396,-257 396,-227 220,-227"/>
<text text-anchor="start" x="228" y="-245" font-family="Helvetica,sans-Serif" font-size="10.00">engine.gameObject.components.</text>
<text text-anchor="middle" x="308" y="-234" font-family="Helvetica,sans-Serif" font-size="10.00">PhysicsBody.handleCollision</text>
</a>
</g>
</g>
<!-- Node1&#45;&gt;Node29 -->
<g id="edge28" class="edge"><title>Node1&#45;&gt;Node29</title>
<path fill="none" stroke="midnightblue" d="M192.189,-254.816C201.39,-253.789 210.664,-252.754 219.738,-251.741"/>
<polygon fill="midnightblue" stroke="midnightblue" points="191.795,-251.338 182.245,-255.926 192.571,-258.295 191.795,-251.338"/>
</g>
<!-- Node30 -->
<g id="node30" class="node"><title>Node30</title>
<g id="a_node30"><a xlink:href="../../d9/d9d/classengine_1_1game_object_1_1components_1_1_physics_body.html#a3166b39b1bdc33bdc3063031d68b58f3" target="_top" xlink:title="engine.gameObject.components.\lPhysicsBody.PhysicsBody">
<polygon fill="white" stroke="black" points="220,-178 220,-208 396,-208 396,-178 220,-178"/>
<text text-anchor="start" x="228" y="-196" font-family="Helvetica,sans-Serif" font-size="10.00">engine.gameObject.components.</text>
<text text-anchor="middle" x="308" y="-185" font-family="Helvetica,sans-Serif" font-size="10.00">PhysicsBody.PhysicsBody</text>
</a>
</g>
</g>
<!-- Node1&#45;&gt;Node30 -->
<g id="edge29" class="edge"><title>Node1&#45;&gt;Node30</title>
<path fill="none" stroke="midnightblue" d="M137.223,-247.054C161.035,-237.425 190.854,-225.91 218,-217 227.427,-213.906 237.508,-210.903 247.374,-208.128"/>
<polygon fill="midnightblue" stroke="midnightblue" points="135.686,-243.901 127.745,-250.915 138.327,-250.384 135.686,-243.901"/>
</g>
<!-- Node3 -->
<g id="node3" class="node"><title>Node3</title>
<g id="a_node3"><a xlink:href="../../df/de5/classengine_1_1render_1_1_game_object_renderer.html#a745cb65a5425a20a1b5063068ef1314a" target="_top" xlink:title="engine.render.GameObject\lRenderer.createAndAssignRenderedNode">
<polygon fill="white" stroke="black" points="434.5,-518 434.5,-548 647.5,-548 647.5,-518 434.5,-518"/>
<text text-anchor="start" x="442.5" y="-536" font-family="Helvetica,sans-Serif" font-size="10.00">engine.render.GameObject</text>
<text text-anchor="middle" x="541" y="-525" font-family="Helvetica,sans-Serif" font-size="10.00">Renderer.createAndAssignRenderedNode</text>
</a>
</g>
</g>
<!-- Node2&#45;&gt;Node3 -->
<g id="edge2" class="edge"><title>Node2&#45;&gt;Node3</title>
<path fill="none" stroke="midnightblue" d="M334.241,-442.892C358.329,-462.688 396.42,-491.226 434,-508 442.633,-511.853 451.937,-515.155 461.321,-517.974"/>
<polygon fill="midnightblue" stroke="midnightblue" points="336.248,-440.009 326.328,-436.288 331.763,-445.383 336.248,-440.009"/>
</g>
<!-- Node4 -->
<g id="node4" class="node"><title>Node4</title>
<g id="a_node4"><a xlink:href="../../d4/d9f/classengine_1_1actions_1_1_label_int_increment_action.html#ac110c3332e6d26e169e7e45d537a8d3f" target="_top" xlink:title="engine.actions.LabelIntIncrement\lAction.execute">
<polygon fill="white" stroke="black" points="685,-690 685,-720 861,-720 861,-690 685,-690"/>
<text text-anchor="start" x="693" y="-708" font-family="Helvetica,sans-Serif" font-size="10.00">engine.actions.LabelIntIncrement</text>
<text text-anchor="middle" x="773" y="-697" font-family="Helvetica,sans-Serif" font-size="10.00">Action.execute</text>
</a>
</g>
</g>
<!-- Node3&#45;&gt;Node4 -->
<g id="edge3" class="edge"><title>Node3&#45;&gt;Node4</title>
<path fill="none" stroke="midnightblue" d="M558.327,-556.451C582.203,-588.993 629.745,-647.496 684,-680 690.404,-683.836 697.422,-687.107 704.614,-689.889"/>
<polygon fill="midnightblue" stroke="midnightblue" points="560.923,-554.067 552.235,-548.005 555.246,-558.162 560.923,-554.067"/>
</g>
<!-- Node5 -->
<g id="node5" class="node"><title>Node5</title>
<g id="a_node5"><a xlink:href="../../dd/d57/classengine_1_1actions_1_1_make_new_object_from_location_action.html#a2ebd225d5e10817ac79f4044867afa98" target="_top" xlink:title="engine.actions.MakeNewObject\lFromLocationAction.execute">
<polygon fill="white" stroke="black" points="690,-641 690,-671 856,-671 856,-641 690,-641"/>
<text text-anchor="start" x="698" y="-659" font-family="Helvetica,sans-Serif" font-size="10.00">engine.actions.MakeNewObject</text>
<text text-anchor="middle" x="773" y="-648" font-family="Helvetica,sans-Serif" font-size="10.00">FromLocationAction.execute</text>
</a>
</g>
</g>
<!-- Node3&#45;&gt;Node5 -->
<g id="edge4" class="edge"><title>Node3&#45;&gt;Node5</title>
<path fill="none" stroke="midnightblue" d="M567.512,-554.479C594.779,-576.472 640.047,-610.284 684,-631 691.902,-634.724 700.47,-638.002 709.054,-640.854"/>
<polygon fill="midnightblue" stroke="midnightblue" points="569.609,-551.673 559.648,-548.06 565.182,-557.095 569.609,-551.673"/>
</g>
<!-- Node6 -->
<g id="node6" class="node"><title>Node6</title>
<g id="a_node6"><a xlink:href="../../db/d61/classengine_1_1actions_1_1_make_new_object_from_object_action.html#a01ffb165d6169f7b0a22733e2b6c61a9" target="_top" xlink:title="engine.actions.MakeNewObject\lFromObjectAction.execute">
<polygon fill="white" stroke="black" points="690,-592 690,-622 856,-622 856,-592 690,-592"/>
<text text-anchor="start" x="698" y="-610" font-family="Helvetica,sans-Serif" font-size="10.00">engine.actions.MakeNewObject</text>
<text text-anchor="middle" x="773" y="-599" font-family="Helvetica,sans-Serif" font-size="10.00">FromObjectAction.execute</text>
</a>
</g>
</g>
<!-- Node3&#45;&gt;Node6 -->
<g id="edge5" class="edge"><title>Node3&#45;&gt;Node6</title>
<path fill="none" stroke="midnightblue" d="M593.325,-551.48C620.212,-560.966 653.754,-572.493 684,-582 694.758,-585.381 706.317,-588.81 717.406,-592"/>
<polygon fill="midnightblue" stroke="midnightblue" points="594.333,-548.124 583.738,-548.085 591.997,-554.723 594.333,-548.124"/>
</g>
<!-- Node7 -->
<g id="node7" class="node"><title>Node7</title>
<g id="a_node7"><a xlink:href="../../da/d16/classengine_1_1actions_1_1_make_new_random_object_action.html#a82ccd5604bd05170e416e41b32020f00" target="_top" xlink:title="engine.actions.MakeNewRandom\lObjectAction.makeRandomObject">
<polygon fill="white" stroke="black" points="684,-543 684,-573 862,-573 862,-543 684,-543"/>
<text text-anchor="start" x="692" y="-561" font-family="Helvetica,sans-Serif" font-size="10.00">engine.actions.MakeNewRandom</text>
<text text-anchor="middle" x="773" y="-550" font-family="Helvetica,sans-Serif" font-size="10.00">ObjectAction.makeRandomObject</text>
</a>
</g>
</g>
<!-- Node3&#45;&gt;Node7 -->
<g id="edge6" class="edge"><title>Node3&#45;&gt;Node7</title>
<path fill="none" stroke="midnightblue" d="M657.574,-545.562C666.438,-546.526 675.298,-547.489 683.942,-548.428"/>
<polygon fill="midnightblue" stroke="midnightblue" points="657.895,-542.077 647.576,-544.476 657.139,-549.036 657.895,-542.077"/>
</g>
<!-- Node9 -->
<g id="node9" class="node"><title>Node9</title>
<g id="a_node9"><a xlink:href="../../d5/da2/classengine_1_1actions_1_1render_1_1_change_image_i_d_action.html#a7fe8769783e7338aa33561e0777d9a3e" target="_top" xlink:title="engine.actions.render.Change\lImageIDAction.execute">
<polygon fill="white" stroke="black" points="693,-494 693,-524 853,-524 853,-494 693,-494"/>
<text text-anchor="start" x="701" y="-512" font-family="Helvetica,sans-Serif" font-size="10.00">engine.actions.render.Change</text>
<text text-anchor="middle" x="773" y="-501" font-family="Helvetica,sans-Serif" font-size="10.00">ImageIDAction.execute</text>
</a>
</g>
</g>
<!-- Node3&#45;&gt;Node9 -->
<g id="edge8" class="edge"><title>Node3&#45;&gt;Node9</title>
<path fill="none" stroke="midnightblue" d="M657.594,-520.938C669.531,-519.692 681.459,-518.448 692.865,-517.258"/>
<polygon fill="midnightblue" stroke="midnightblue" points="657.159,-517.464 647.576,-521.983 657.885,-524.427 657.159,-517.464"/>
</g>
<!-- Node10 -->
<g id="node10" class="node"><title>Node10</title>
<g id="a_node10"><a xlink:href="../../db/db5/classengine_1_1actions_1_1render_1_1_change_image_type_action.html#a09110a0a08bac229b9e2feddf1d3378c" target="_top" xlink:title="engine.actions.render.Change\lImageTypeAction.execute">
<polygon fill="white" stroke="black" points="693,-445 693,-475 853,-475 853,-445 693,-445"/>
<text text-anchor="start" x="701" y="-463" font-family="Helvetica,sans-Serif" font-size="10.00">engine.actions.render.Change</text>
<text text-anchor="middle" x="773" y="-452" font-family="Helvetica,sans-Serif" font-size="10.00">ImageTypeAction.execute</text>
</a>
</g>
</g>
<!-- Node3&#45;&gt;Node10 -->
<g id="edge9" class="edge"><title>Node3&#45;&gt;Node10</title>
<path fill="none" stroke="midnightblue" d="M629.005,-515.025C635.518,-512.909 641.916,-510.573 648,-508 665.487,-500.605 666.684,-492.788 684,-485 692.256,-481.287 701.199,-477.987 710.112,-475.102"/>
<polygon fill="midnightblue" stroke="midnightblue" points="627.939,-511.692 619.405,-517.971 629.992,-518.384 627.939,-511.692"/>
</g>
<!-- Node11 -->
<g id="node11" class="node"><title>Node11</title>
<g id="a_node11"><a xlink:href="../../d3/dbb/classengine_1_1actions_1_1render_1_1_paint_canvas.html#a3f4cb25dfb09aa686debf838e806b010" target="_top" xlink:title="engine.actions.render.Paint\lCanvas.applyRender">
<polygon fill="white" stroke="black" points="700,-396 700,-426 846,-426 846,-396 700,-396"/>
<text text-anchor="start" x="708" y="-414" font-family="Helvetica,sans-Serif" font-size="10.00">engine.actions.render.Paint</text>
<text text-anchor="middle" x="773" y="-403" font-family="Helvetica,sans-Serif" font-size="10.00">Canvas.applyRender</text>
</a>
</g>
</g>
<!-- Node3&#45;&gt;Node11 -->
<g id="edge10" class="edge"><title>Node3&#45;&gt;Node11</title>
<path fill="none" stroke="midnightblue" d="M640.811,-513.069C643.303,-511.502 645.706,-509.815 648,-508 676.057,-485.8 656.452,-458.828 684,-436 688.769,-432.048 694.128,-428.72 699.786,-425.917"/>
<polygon fill="midnightblue" stroke="midnightblue" points="639.069,-510.033 632.031,-517.953 642.472,-516.151 639.069,-510.033"/>
</g>
<!-- Node12 -->
<g id="node12" class="node"><title>Node12</title>
<g id="a_node12"><a xlink:href="../../df/de5/classengine_1_1render_1_1_game_object_renderer.html#a610545384a337edcd3bffb9f0c6ecf18" target="_top" xlink:title="engine.render.GameObject\lRenderer.renderGameObjects">
<polygon fill="white" stroke="black" points="694,-347 694,-377 852,-377 852,-347 694,-347"/>
<text text-anchor="start" x="702" y="-365" font-family="Helvetica,sans-Serif" font-size="10.00">engine.render.GameObject</text>
<text text-anchor="middle" x="773" y="-354" font-family="Helvetica,sans-Serif" font-size="10.00">Renderer.renderGameObjects</text>
</a>
</g>
</g>
<!-- Node3&#45;&gt;Node12 -->
<g id="edge11" class="edge"><title>Node3&#45;&gt;Node12</title>
<path fill="none" stroke="midnightblue" d="M643.33,-512.014C644.945,-510.748 646.505,-509.412 648,-508 688.799,-469.484 644.081,-426.428 684,-387 687.842,-383.205 692.216,-379.978 696.912,-377.233"/>
<polygon fill="midnightblue" stroke="midnightblue" points="641.144,-509.267 634.822,-517.768 645.066,-515.065 641.144,-509.267"/>
</g>
<!-- Node8 -->
<g id="node8" class="node"><title>Node8</title>
<g id="a_node8"><a xlink:href="../../da/d16/classengine_1_1actions_1_1_make_new_random_object_action.html#aa831c4b818ed75f812bf8ba0d453c942" target="_top" xlink:title="engine.actions.MakeNewRandom\lObjectAction.execute">
<polygon fill="white" stroke="black" points="902.5,-543 902.5,-573 1077.5,-573 1077.5,-543 902.5,-543"/>
<text text-anchor="start" x="910.5" y="-561" font-family="Helvetica,sans-Serif" font-size="10.00">engine.actions.MakeNewRandom</text>
<text text-anchor="middle" x="990" y="-550" font-family="Helvetica,sans-Serif" font-size="10.00">ObjectAction.execute</text>
</a>
</g>
</g>
<!-- Node7&#45;&gt;Node8 -->
<g id="edge7" class="edge"><title>Node7&#45;&gt;Node8</title>
<path fill="none" stroke="midnightblue" d="M872.135,-558C882.252,-558 892.48,-558 902.458,-558"/>
<polygon fill="midnightblue" stroke="midnightblue" points="872.069,-554.5 862.069,-558 872.069,-561.5 872.069,-554.5"/>
</g>
<!-- Node13 -->
<g id="node13" class="node"><title>Node13</title>
<g id="a_node13"><a xlink:href="../../df/d67/classengine_1_1level_1_1_level_manager.html#a523599892453015eed0f1b506979af8a" target="_top" xlink:title="engine.level.LevelManager.initialize\lCurrentLevel">
<polygon fill="white" stroke="black" points="898,-347 898,-377 1082,-377 1082,-347 898,-347"/>
<text text-anchor="start" x="906" y="-365" font-family="Helvetica,sans-Serif" font-size="10.00">engine.level.LevelManager.initialize</text>
<text text-anchor="middle" x="990" y="-354" font-family="Helvetica,sans-Serif" font-size="10.00">CurrentLevel</text>
</a>
</g>
</g>
<!-- Node12&#45;&gt;Node13 -->
<g id="edge12" class="edge"><title>Node12&#45;&gt;Node13</title>
<path fill="none" stroke="midnightblue" d="M862.374,-362C874.027,-362 885.99,-362 897.69,-362"/>
<polygon fill="midnightblue" stroke="midnightblue" points="862.228,-358.5 852.228,-362 862.228,-365.5 862.228,-358.5"/>
</g>
<!-- Node14 -->
<g id="node14" class="node"><title>Node14</title>
<g id="a_node14"><a xlink:href="../../df/d67/classengine_1_1level_1_1_level_manager.html#a1d0f314bbf304bf86067ab87b832d2e0" target="_top" xlink:title="engine.level.LevelManager.find\lAndSetStartLevel">
<polygon fill="white" stroke="black" points="1118.5,-372 1118.5,-402 1281.5,-402 1281.5,-372 1118.5,-372"/>
<text text-anchor="start" x="1126.5" y="-390" font-family="Helvetica,sans-Serif" font-size="10.00">engine.level.LevelManager.find</text>
<text text-anchor="middle" x="1200" y="-379" font-family="Helvetica,sans-Serif" font-size="10.00">AndSetStartLevel</text>
</a>
</g>
</g>
<!-- Node13&#45;&gt;Node14 -->
<g id="edge13" class="edge"><title>Node13&#45;&gt;Node14</title>
<path fill="none" stroke="midnightblue" d="M1092.4,-374.188C1101.09,-375.232 1109.8,-376.279 1118.29,-377.299"/>
<polygon fill="midnightblue" stroke="midnightblue" points="1092.58,-370.684 1082.23,-372.965 1091.74,-377.634 1092.58,-370.684"/>
</g>
<!-- Node16 -->
<g id="node16" class="node"><title>Node16</title>
<g id="a_node16"><a xlink:href="../../df/d67/classengine_1_1level_1_1_level_manager.html#ad89101547413fe335873b050fd091c79" target="_top" xlink:title="engine.level.LevelManager.set\lCurrentLevel">
<polygon fill="white" stroke="black" points="1119.5,-323 1119.5,-353 1280.5,-353 1280.5,-323 1119.5,-323"/>
<text text-anchor="start" x="1127.5" y="-341" font-family="Helvetica,sans-Serif" font-size="10.00">engine.level.LevelManager.set</text>
<text text-anchor="middle" x="1200" y="-330" font-family="Helvetica,sans-Serif" font-size="10.00">CurrentLevel</text>
</a>
</g>
</g>
<!-- Node13&#45;&gt;Node16 -->
<g id="edge15" class="edge"><title>Node13&#45;&gt;Node16</title>
<path fill="none" stroke="midnightblue" d="M1092.39,-350.301C1101.41,-349.26 1110.46,-348.217 1119.26,-347.201"/>
<polygon fill="midnightblue" stroke="midnightblue" points="1091.76,-346.85 1082.23,-351.473 1092.57,-353.804 1091.76,-346.85"/>
</g>
<!-- Node15 -->
<g id="node15" class="node"><title>Node15</title>
<g id="a_node15"><a xlink:href="../../df/d67/classengine_1_1level_1_1_level_manager.html#a0ea71eb9396652850db0d2da44c4ca81" target="_top" xlink:title="engine.level.LevelManager.\lLevelManager">
<polygon fill="white" stroke="black" points="1336,-372 1336,-402 1482,-402 1482,-372 1336,-372"/>
<text text-anchor="start" x="1344" y="-390" font-family="Helvetica,sans-Serif" font-size="10.00">engine.level.LevelManager.</text>
<text text-anchor="middle" x="1409" y="-379" font-family="Helvetica,sans-Serif" font-size="10.00">LevelManager</text>
</a>
</g>
</g>
<!-- Node14&#45;&gt;Node15 -->
<g id="edge14" class="edge"><title>Node14&#45;&gt;Node15</title>
<path fill="none" stroke="midnightblue" d="M1291.74,-387C1306.44,-387 1321.5,-387 1335.69,-387"/>
<polygon fill="midnightblue" stroke="midnightblue" points="1291.62,-383.5 1281.62,-387 1291.62,-390.5 1291.62,-383.5"/>
</g>
<!-- Node17 -->
<g id="node17" class="node"><title>Node17</title>
<g id="a_node17"><a xlink:href="../../df/d67/classengine_1_1level_1_1_level_manager.html#ad3c392cf6260c53428255fb596442692" target="_top" xlink:title="engine.level.LevelManager.change\lToLevel">
<polygon fill="white" stroke="black" points="1318.5,-323 1318.5,-353 1499.5,-353 1499.5,-323 1318.5,-323"/>
<text text-anchor="start" x="1326.5" y="-341" font-family="Helvetica,sans-Serif" font-size="10.00">engine.level.LevelManager.change</text>
<text text-anchor="middle" x="1409" y="-330" font-family="Helvetica,sans-Serif" font-size="10.00">ToLevel</text>
</a>
</g>
</g>
<!-- Node16&#45;&gt;Node17 -->
<g id="edge16" class="edge"><title>Node16&#45;&gt;Node17</title>
<path fill="none" stroke="midnightblue" d="M1290.92,-338C1300,-338 1309.23,-338 1318.31,-338"/>
<polygon fill="midnightblue" stroke="midnightblue" points="1290.74,-334.5 1280.74,-338 1290.74,-341.5 1290.74,-334.5"/>
</g>
<!-- Node18 -->
<g id="node18" class="node"><title>Node18</title>
<g id="a_node18"><a xlink:href="../../d1/d73/classengine_1_1actions_1_1_change_level_action.html#a8190adf308768b0d12f6432d0cf0fbc4" target="_top" xlink:title="engine.actions.ChangeLevel\lAction.execute">
<polygon fill="white" stroke="black" points="1536.5,-323 1536.5,-353 1687.5,-353 1687.5,-323 1536.5,-323"/>
<text text-anchor="start" x="1544.5" y="-341" font-family="Helvetica,sans-Serif" font-size="10.00">engine.actions.ChangeLevel</text>
<text text-anchor="middle" x="1612" y="-330" font-family="Helvetica,sans-Serif" font-size="10.00">Action.execute</text>
</a>
</g>
</g>
<!-- Node17&#45;&gt;Node18 -->
<g id="edge17" class="edge"><title>Node17&#45;&gt;Node18</title>
<path fill="none" stroke="midnightblue" d="M1509.71,-338C1518.65,-338 1527.61,-338 1536.29,-338"/>
<polygon fill="midnightblue" stroke="midnightblue" points="1509.62,-334.5 1499.62,-338 1509.62,-341.5 1509.62,-334.5"/>
</g>
<!-- Node20 -->
<g id="node20" class="node"><title>Node20</title>
<g id="a_node20"><a xlink:href="../../db/dbb/classengine_1_1actions_1_1_fixed_collision_type_action.html#a4335f03e3a33ba714562e4e187cf0ae2" target="_top" xlink:title="engine.actions.FixedCollision\lTypeAction.applyPhysics">
<polygon fill="white" stroke="black" points="465,-469 465,-499 617,-499 617,-469 465,-469"/>
<text text-anchor="start" x="473" y="-487" font-family="Helvetica,sans-Serif" font-size="10.00">engine.actions.FixedCollision</text>
<text text-anchor="middle" x="541" y="-476" font-family="Helvetica,sans-Serif" font-size="10.00">TypeAction.applyPhysics</text>
</a>
</g>
</g>
<!-- Node19&#45;&gt;Node20 -->
<g id="edge19" class="edge"><title>Node19&#45;&gt;Node20</title>
<path fill="none" stroke="midnightblue" d="M329.893,-313.534C348.741,-334.388 376.693,-366.66 398,-397 416.313,-423.076 408.407,-440.018 434,-459 443.112,-465.758 453.775,-470.722 464.762,-474.361"/>
<polygon fill="midnightblue" stroke="midnightblue" points="332.469,-311.164 323.148,-306.128 327.294,-315.878 332.469,-311.164"/>
</g>
<!-- Node21 -->
<g id="node21" class="node"><title>Node21</title>
<g id="a_node21"><a xlink:href="../../d7/de2/classengine_1_1actions_1_1_fixed_collision_action.html#a9d8b1ea6e0e71b027fcaa18f52ba3908" target="_top" xlink:title="engine.actions.FixedCollision\lAction.applyPhysics">
<polygon fill="white" stroke="black" points="465,-420 465,-450 617,-450 617,-420 465,-420"/>
<text text-anchor="start" x="473" y="-438" font-family="Helvetica,sans-Serif" font-size="10.00">engine.actions.FixedCollision</text>
<text text-anchor="middle" x="541" y="-427" font-family="Helvetica,sans-Serif" font-size="10.00">Action.applyPhysics</text>
</a>
</g>
</g>
<!-- Node19&#45;&gt;Node21 -->
<g id="edge20" class="edge"><title>Node19&#45;&gt;Node21</title>
<path fill="none" stroke="midnightblue" d="M326.531,-313.876C348.604,-341.033 389.108,-385.695 434,-410 443.561,-415.176 454.174,-419.288 464.885,-422.553"/>
<polygon fill="midnightblue" stroke="midnightblue" points="329.261,-311.685 320.288,-306.051 323.789,-316.051 329.261,-311.685"/>
</g>
<!-- Node22 -->
<g id="node22" class="node"><title>Node22</title>
<g id="a_node22"><a xlink:href="../../d4/daa/classengine_1_1collision_1_1objects_1_1_fixed_object_collision_object.html#a21a31d8fafaaa37c7ca7d92ed0b015f1" target="_top" xlink:title="engine.collision.objects.\lFixedObjectCollisionObject.handle\lEnemyCollisionObject">
<polygon fill="white" stroke="black" points="453,-360.5 453,-401.5 629,-401.5 629,-360.5 453,-360.5"/>
<text text-anchor="start" x="461" y="-389.5" font-family="Helvetica,sans-Serif" font-size="10.00">engine.collision.objects.</text>
<text text-anchor="start" x="461" y="-378.5" font-family="Helvetica,sans-Serif" font-size="10.00">FixedObjectCollisionObject.handle</text>
<text text-anchor="middle" x="541" y="-367.5" font-family="Helvetica,sans-Serif" font-size="10.00">EnemyCollisionObject</text>
</a>
</g>
</g>
<!-- Node19&#45;&gt;Node22 -->
<g id="edge21" class="edge"><title>Node19&#45;&gt;Node22</title>
<path fill="none" stroke="midnightblue" d="M346.683,-310.682C371.149,-322.983 403.96,-338.598 434,-350 443.68,-353.674 453.993,-357.177 464.24,-360.419"/>
<polygon fill="midnightblue" stroke="midnightblue" points="348.24,-307.547 337.738,-306.145 345.073,-313.79 348.24,-307.547"/>
</g>
<!-- Node23 -->
<g id="node23" class="node"><title>Node23</title>
<g id="a_node23"><a xlink:href="../../d4/daa/classengine_1_1collision_1_1objects_1_1_fixed_object_collision_object.html#a2e8390b2a80569d4462e04c5706831cb" target="_top" xlink:title="engine.collision.objects.\lFixedObjectCollisionObject.handle\lFixedObjectCollisionObject">
<polygon fill="white" stroke="black" points="453,-300.5 453,-341.5 629,-341.5 629,-300.5 453,-300.5"/>
<text text-anchor="start" x="461" y="-329.5" font-family="Helvetica,sans-Serif" font-size="10.00">engine.collision.objects.</text>
<text text-anchor="start" x="461" y="-318.5" font-family="Helvetica,sans-Serif" font-size="10.00">FixedObjectCollisionObject.handle</text>
<text text-anchor="middle" x="541" y="-307.5" font-family="Helvetica,sans-Serif" font-size="10.00">FixedObjectCollisionObject</text>
</a>
</g>
</g>
<!-- Node19&#45;&gt;Node23 -->
<g id="edge22" class="edge"><title>Node19&#45;&gt;Node23</title>
<path fill="none" stroke="midnightblue" d="M408.461,-303.917C423.223,-305.834 438.342,-307.798 452.827,-309.679"/>
<polygon fill="midnightblue" stroke="midnightblue" points="408.678,-300.416 398.311,-302.599 407.777,-307.358 408.678,-300.416"/>
</g>
<!-- Node24 -->
<g id="node24" class="node"><title>Node24</title>
<g id="a_node24"><a xlink:href="../../dc/d87/classengine_1_1collision_1_1objects_1_1_hero_collision_object.html#a3dc5a68b37238352c99bca91dfc8f9a1" target="_top" xlink:title="engine.collision.objects.\lHeroCollisionObject.handleFixed\lObjectCollisionObject">
<polygon fill="white" stroke="black" points="456.5,-240.5 456.5,-281.5 625.5,-281.5 625.5,-240.5 456.5,-240.5"/>
<text text-anchor="start" x="464.5" y="-269.5" font-family="Helvetica,sans-Serif" font-size="10.00">engine.collision.objects.</text>
<text text-anchor="start" x="464.5" y="-258.5" font-family="Helvetica,sans-Serif" font-size="10.00">HeroCollisionObject.handleFixed</text>
<text text-anchor="middle" x="541" y="-247.5" font-family="Helvetica,sans-Serif" font-size="10.00">ObjectCollisionObject</text>
</a>
</g>
</g>
<!-- Node19&#45;&gt;Node24 -->
<g id="edge23" class="edge"><title>Node19&#45;&gt;Node24</title>
<path fill="none" stroke="midnightblue" d="M408.661,-278.057C424.519,-275.997 440.784,-273.885 456.229,-271.879"/>
<polygon fill="midnightblue" stroke="midnightblue" points="407.777,-274.642 398.311,-279.401 408.678,-281.584 407.777,-274.642"/>
</g>
<!-- Node25 -->
<g id="node25" class="node"><title>Node25</title>
<g id="a_node25"><a xlink:href="../../d6/db8/classengine_1_1collision_1_1objects_1_1_powerup_collision_object.html#a4e09b2b8b7cfbcdd6def8332de2025b7" target="_top" xlink:title="engine.collision.objects.\lPowerupCollisionObject.handleFixed\lObjectCollisionObject">
<polygon fill="white" stroke="black" points="448,-180.5 448,-221.5 634,-221.5 634,-180.5 448,-180.5"/>
<text text-anchor="start" x="456" y="-209.5" font-family="Helvetica,sans-Serif" font-size="10.00">engine.collision.objects.</text>
<text text-anchor="start" x="456" y="-198.5" font-family="Helvetica,sans-Serif" font-size="10.00">PowerupCollisionObject.handleFixed</text>
<text text-anchor="middle" x="541" y="-187.5" font-family="Helvetica,sans-Serif" font-size="10.00">ObjectCollisionObject</text>
</a>
</g>
</g>
<!-- Node19&#45;&gt;Node25 -->
<g id="edge24" class="edge"><title>Node19&#45;&gt;Node25</title>
<path fill="none" stroke="midnightblue" d="M385.886,-272.119C390.072,-270.258 394.141,-268.223 398,-266 417.337,-254.862 414.674,-242.157 434,-231 440.129,-227.462 446.7,-224.32 453.458,-221.534"/>
<polygon fill="midnightblue" stroke="midnightblue" points="384.502,-268.903 376.566,-275.922 387.147,-275.384 384.502,-268.903"/>
</g>
<!-- Node26 -->
<g id="node26" class="node"><title>Node26</title>
<g id="a_node26"><a xlink:href="../../db/d3a/classengine_1_1collision_1_1objects_1_1_enemy_collision_object.html#a8cf5b65593cec2850e2f94a8d6deb670" target="_top" xlink:title="engine.collision.objects.\lEnemyCollisionObject.handleFixed\lObjectCollisionObject">
<polygon fill="white" stroke="black" points="451.5,-120.5 451.5,-161.5 630.5,-161.5 630.5,-120.5 451.5,-120.5"/>
<text text-anchor="start" x="459.5" y="-149.5" font-family="Helvetica,sans-Serif" font-size="10.00">engine.collision.objects.</text>
<text text-anchor="start" x="459.5" y="-138.5" font-family="Helvetica,sans-Serif" font-size="10.00">EnemyCollisionObject.handleFixed</text>
<text text-anchor="middle" x="541" y="-127.5" font-family="Helvetica,sans-Serif" font-size="10.00">ObjectCollisionObject</text>
</a>
</g>
</g>
<!-- Node19&#45;&gt;Node26 -->
<g id="edge25" class="edge"><title>Node19&#45;&gt;Node26</title>
<path fill="none" stroke="midnightblue" d="M392.544,-270.462C394.444,-269.07 396.269,-267.585 398,-266 431.307,-235.514 400.723,-201.518 434,-171 439.215,-166.217 445.137,-162.19 451.453,-158.8"/>
<polygon fill="midnightblue" stroke="midnightblue" points="390.368,-267.696 383.772,-275.987 394.099,-273.619 390.368,-267.696"/>
</g>
<!-- Node27 -->
<g id="node27" class="node"><title>Node27</title>
<g id="a_node27"><a xlink:href="../../d4/daa/classengine_1_1collision_1_1objects_1_1_fixed_object_collision_object.html#af3d610bd55f501a9d616abaf648dd870" target="_top" xlink:title="engine.collision.objects.\lFixedObjectCollisionObject.handle\lHeroCollisionObject">
<polygon fill="white" stroke="black" points="453,-60.5 453,-101.5 629,-101.5 629,-60.5 453,-60.5"/>
<text text-anchor="start" x="461" y="-89.5" font-family="Helvetica,sans-Serif" font-size="10.00">engine.collision.objects.</text>
<text text-anchor="start" x="461" y="-78.5" font-family="Helvetica,sans-Serif" font-size="10.00">FixedObjectCollisionObject.handle</text>
<text text-anchor="middle" x="541" y="-67.5" font-family="Helvetica,sans-Serif" font-size="10.00">HeroCollisionObject</text>
</a>
</g>
</g>
<!-- Node19&#45;&gt;Node27 -->
<g id="edge26" class="edge"><title>Node19&#45;&gt;Node27</title>
<path fill="none" stroke="midnightblue" d="M394.045,-269.75C395.421,-268.565 396.742,-267.316 398,-266 446.855,-214.864 385.196,-162.184 434,-111 439.477,-105.256 445.964,-100.585 452.99,-96.7918"/>
<polygon fill="midnightblue" stroke="midnightblue" points="391.661,-267.155 385.616,-275.857 395.768,-272.824 391.661,-267.155"/>
</g>
<!-- Node28 -->
<g id="node28" class="node"><title>Node28</title>
<g id="a_node28"><a xlink:href="../../d4/daa/classengine_1_1collision_1_1objects_1_1_fixed_object_collision_object.html#aabbf81a8ea0fca531c76cb6355553303" target="_top" xlink:title="engine.collision.objects.\lFixedObjectCollisionObject.handle\lPowerupCollisionObject">
<polygon fill="white" stroke="black" points="453,-0.5 453,-41.5 629,-41.5 629,-0.5 453,-0.5"/>
<text text-anchor="start" x="461" y="-29.5" font-family="Helvetica,sans-Serif" font-size="10.00">engine.collision.objects.</text>
<text text-anchor="start" x="461" y="-18.5" font-family="Helvetica,sans-Serif" font-size="10.00">FixedObjectCollisionObject.handle</text>
<text text-anchor="middle" x="541" y="-7.5" font-family="Helvetica,sans-Serif" font-size="10.00">PowerupCollisionObject</text>
</a>
</g>
</g>
<!-- Node19&#45;&gt;Node28 -->
<g id="edge27" class="edge"><title>Node19&#45;&gt;Node28</title>
<path fill="none" stroke="midnightblue" d="M394.281,-269.745C395.579,-268.561 396.821,-267.314 398,-266 462.713,-193.896 369.358,-123.168 434,-51 439.359,-45.0166 445.814,-40.189 452.859,-36.299"/>
<polygon fill="midnightblue" stroke="midnightblue" points="392.112,-266.997 386.297,-275.853 396.366,-272.557 392.112,-266.997"/>
</g>
</g>
</svg>
