<?xml version="1.0" encoding="UTF-8" standalone="no"?>
<!DOCTYPE svg PUBLIC "-//W3C//DTD SVG 1.1//EN"
 "http://www.w3.org/Graphics/SVG/1.1/DTD/svg11.dtd">
<!-- Generated by graphviz version 2.36.0 (20140111.2315)
 -->
<!-- Title: engine.gameObject.components.PhysicsBody.balanceForces Pages: 1 -->
<!--zoomable 273 -->
<svg id="main" version="1.1" xmlns="http://www.w3.org/2000/svg" xmlns:xlink="http://www.w3.org/1999/xlink" xml:space="preserve" onload="init(evt)">
<style type="text/css"><![CDATA[
.edge:hover path { stroke: red; }
.edge:hover polygon { stroke: red; fill: red; }
]]></style>
<script type="text/javascript"><![CDATA[
var edges = document.getElementsByTagName('g');
if (edges && edges.length) {
  for (var i=0;i<edges.length;i++) {
    if (edges[i].id.substr(0,4)=='edge') {
      edges[i].setAttribute('class','edge');
    }
  }
}
]]></script>
        <defs>
                <circle id="rim" cx="0" cy="0" r="7"/>
                <circle id="rim2" cx="0" cy="0" r="3.5"/>
                <g id="zoomPlus">
                        <use xlink:href="#rim" fill="#404040">
                                <set attributeName="fill" to="#808080" begin="zoomplus.mouseover" end="zoomplus.mouseout"/>
                        </use>
                        <path d="M-4,0h8M0,-4v8" fill="none" stroke="white" stroke-width="1.5" pointer-events="none"/>
                </g>
                <g id="zoomMin">
                        <use xlink:href="#rim" fill="#404040">
                                <set attributeName="fill" to="#808080" begin="zoomminus.mouseover" end="zoomminus.mouseout"/>
                        </use>
                        <path d="M-4,0h8" fill="none" stroke="white" stroke-width="1.5" pointer-events="none"/>
                </g>
                <g id="dirArrow">
                        <path fill="none" stroke="white" stroke-width="1.5" d="M0,-3.0v7 M-2.5,-0.5L0,-3.0L2.5,-0.5"/>
                </g>
               <g id="resetDef">
                       <use xlink:href="#rim2" fill="#404040">
                               <set attributeName="fill" to="#808080" begin="reset.mouseover" end="reset.mouseout"/>
                       </use>
               </g>
        </defs>

<script type="text/javascript">
var viewWidth = 1124;
var viewHeight = 273;
var sectionId = 'dynsection-8';
</script>
<script xlink:href="../../svgpan.js"/>
<svg id="graph" class="graph">
<g id="viewport">
<title>engine.gameObject.components.PhysicsBody.balanceForces</title>
<polygon fill="white" stroke="none" points="-4,4 -4,-269 1120,-269 1120,4 -4,4"/>
<!-- Node1 -->
<g id="node1" class="node"><title>Node1</title>
<polygon fill="#bfbfbf" stroke="black" points="0,-112 0,-142 176,-142 176,-112 0,-112"/>
<text text-anchor="start" x="8" y="-130" font-family="Helvetica,sans-Serif" font-size="10.00">engine.gameObject.components.</text>
<text text-anchor="middle" x="88" y="-119" font-family="Helvetica,sans-Serif" font-size="10.00">PhysicsBody.balanceForces</text>
</g>
<!-- Node2 -->
<g id="node2" class="node"><title>Node2</title>
<g id="a_node2"><a xlink:href="../../d9/d9d/classengine_1_1game_object_1_1components_1_1_physics_body.html#a5241a38b82aed5ed11e7b3674ecb83ce" target="_top" xlink:title="engine.gameObject.components.\lPhysicsBody.addForce">
<polygon fill="white" stroke="black" points="235,-186 235,-216 411,-216 411,-186 235,-186"/>
<text text-anchor="start" x="243" y="-204" font-family="Helvetica,sans-Serif" font-size="10.00">engine.gameObject.components.</text>
<text text-anchor="middle" x="323" y="-193" font-family="Helvetica,sans-Serif" font-size="10.00">PhysicsBody.addForce</text>
</a>
</g>
</g>
<!-- Node1&#45;&gt;Node2 -->
<g id="edge1" class="edge"><title>Node1&#45;&gt;Node2</title>
<path fill="none" stroke="midnightblue" d="M131.963,-146.025C155.318,-155.878 184.894,-167.577 212,-176 223.689,-179.632 236.227,-182.981 248.502,-185.968"/>
<polygon fill="midnightblue" stroke="midnightblue" points="133.258,-142.772 122.686,-142.07 130.513,-149.211 133.258,-142.772"/>
</g>
<!-- Node8 -->
<g id="node8" class="node"><title>Node8</title>
<g id="a_node8"><a xlink:href="../../d9/d9d/classengine_1_1game_object_1_1components_1_1_physics_body.html#a69d3fe175f40fdc40ca6e414cac727a5" target="_top" xlink:title="engine.gameObject.components.\lPhysicsBody.addScalar">
<polygon fill="white" stroke="black" points="235,-137 235,-167 411,-167 411,-137 235,-137"/>
<text text-anchor="start" x="243" y="-155" font-family="Helvetica,sans-Serif" font-size="10.00">engine.gameObject.components.</text>
<text text-anchor="middle" x="323" y="-144" font-family="Helvetica,sans-Serif" font-size="10.00">PhysicsBody.addScalar</text>
</a>
</g>
</g>
<!-- Node1&#45;&gt;Node8 -->
<g id="edge8" class="edge"><title>Node1&#45;&gt;Node8</title>
<path fill="none" stroke="midnightblue" d="M186.045,-137.413C202.154,-139.141 218.774,-140.924 234.626,-142.625"/>
<polygon fill="midnightblue" stroke="midnightblue" points="186.408,-133.932 176.092,-136.345 185.661,-140.892 186.408,-133.932"/>
</g>
<!-- Node15 -->
<g id="node15" class="node"><title>Node15</title>
<g id="a_node15"><a xlink:href="../../d9/d9d/classengine_1_1game_object_1_1components_1_1_physics_body.html#a174b00895d24511a8280844ae1e1ddc6" target="_top" xlink:title="engine.gameObject.components.\lPhysicsBody.PhysicsBody">
<polygon fill="white" stroke="black" points="235,-88 235,-118 411,-118 411,-88 235,-88"/>
<text text-anchor="start" x="243" y="-106" font-family="Helvetica,sans-Serif" font-size="10.00">engine.gameObject.components.</text>
<text text-anchor="middle" x="323" y="-95" font-family="Helvetica,sans-Serif" font-size="10.00">PhysicsBody.PhysicsBody</text>
</a>
</g>
</g>
<!-- Node1&#45;&gt;Node15 -->
<g id="edge18" class="edge"><title>Node1&#45;&gt;Node15</title>
<path fill="none" stroke="midnightblue" d="M186.045,-117.004C202.154,-115.345 218.774,-113.633 234.626,-112"/>
<polygon fill="midnightblue" stroke="midnightblue" points="185.681,-113.523 176.092,-118.029 186.398,-120.486 185.681,-113.523"/>
</g>
<!-- Node16 -->
<g id="node16" class="node"><title>Node16</title>
<g id="a_node16"><a xlink:href="../../d9/d9d/classengine_1_1game_object_1_1components_1_1_physics_body.html#a322c2d4e1205c1fc9bafabe04f394cb6" target="_top" xlink:title="engine.gameObject.components.\lPhysicsBody.updatePhysicalCharacteristics">
<polygon fill="white" stroke="black" points="212.5,-17 212.5,-47 433.5,-47 433.5,-17 212.5,-17"/>
<text text-anchor="start" x="220.5" y="-35" font-family="Helvetica,sans-Serif" font-size="10.00">engine.gameObject.components.</text>
<text text-anchor="middle" x="323" y="-24" font-family="Helvetica,sans-Serif" font-size="10.00">PhysicsBody.updatePhysicalCharacteristics</text>
</a>
</g>
</g>
<!-- Node1&#45;&gt;Node16 -->
<g id="edge19" class="edge"><title>Node1&#45;&gt;Node16</title>
<path fill="none" stroke="midnightblue" d="M135.22,-108.155C179.112,-90.2591 244.256,-63.6983 284.868,-47.1396"/>
<polygon fill="midnightblue" stroke="midnightblue" points="133.858,-104.93 125.92,-111.947 136.501,-111.412 133.858,-104.93"/>
</g>
<!-- Node3 -->
<g id="node3" class="node"><title>Node3</title>
<g id="a_node3"><a xlink:href="../../d7/d00/classengine_1_1tests_1_1_main_engine_tests.html#ad06079aee97fd7ffd4f2b14a8f01b808" target="_top" xlink:title="engine.tests.MainEngineTests.create\lGameObject">
<polygon fill="white" stroke="black" points="479.5,-235 479.5,-265 670.5,-265 670.5,-235 479.5,-235"/>
<text text-anchor="start" x="487.5" y="-253" font-family="Helvetica,sans-Serif" font-size="10.00">engine.tests.MainEngineTests.create</text>
<text text-anchor="middle" x="575" y="-242" font-family="Helvetica,sans-Serif" font-size="10.00">GameObject</text>
</a>
</g>
</g>
<!-- Node2&#45;&gt;Node3 -->
<g id="edge2" class="edge"><title>Node2&#45;&gt;Node3</title>
<path fill="none" stroke="midnightblue" d="M410.569,-217.967C438.821,-223.505 469.974,-229.611 497.438,-234.994"/>
<polygon fill="midnightblue" stroke="midnightblue" points="411.194,-214.523 400.707,-216.035 409.847,-221.393 411.194,-214.523"/>
</g>
<!-- Node5 -->
<g id="node5" class="node"><title>Node5</title>
<g id="a_node5"><a xlink:href="../../dc/d21/classgames_1_1_mario_game_test.html#aab9eed35cd4d8ae1d108ae914b6a73ff" target="_top" xlink:title="games.MarioGameTest.create\lGameObject">
<polygon fill="white" stroke="black" points="494.5,-186 494.5,-216 655.5,-216 655.5,-186 494.5,-186"/>
<text text-anchor="start" x="502.5" y="-204" font-family="Helvetica,sans-Serif" font-size="10.00">games.MarioGameTest.create</text>
<text text-anchor="middle" x="575" y="-193" font-family="Helvetica,sans-Serif" font-size="10.00">GameObject</text>
</a>
</g>
</g>
<!-- Node2&#45;&gt;Node5 -->
<g id="edge4" class="edge"><title>Node2&#45;&gt;Node5</title>
<path fill="none" stroke="midnightblue" d="M421.344,-201C445.512,-201 471.132,-201 494.34,-201"/>
<polygon fill="midnightblue" stroke="midnightblue" points="421.087,-197.5 411.087,-201 421.087,-204.5 421.087,-197.5"/>
</g>
<!-- Node7 -->
<g id="node7" class="node"><title>Node7</title>
<g id="a_node7"><a xlink:href="../../df/d71/classengine_1_1tests_1_1_physics_body_testing.html#a972062e773bb78d10114b5c8d0ee9be3" target="_top" xlink:title="engine.tests.PhysicsBody\lTesting.main">
<polygon fill="white" stroke="black" points="506,-137 506,-167 644,-167 644,-137 506,-137"/>
<text text-anchor="start" x="514" y="-155" font-family="Helvetica,sans-Serif" font-size="10.00">engine.tests.PhysicsBody</text>
<text text-anchor="middle" x="575" y="-144" font-family="Helvetica,sans-Serif" font-size="10.00">Testing.main</text>
</a>
</g>
</g>
<!-- Node2&#45;&gt;Node7 -->
<g id="edge7" class="edge"><title>Node2&#45;&gt;Node7</title>
<path fill="none" stroke="midnightblue" d="M410.693,-184.008C441.865,-177.898 476.555,-171.099 505.917,-165.344"/>
<polygon fill="midnightblue" stroke="midnightblue" points="409.847,-180.607 400.707,-185.965 411.194,-187.477 409.847,-180.607"/>
</g>
<!-- Node4 -->
<g id="node4" class="node"><title>Node4</title>
<g id="a_node4"><a xlink:href="../../d7/d00/classengine_1_1tests_1_1_main_engine_tests.html#ad1e78dcd3453ebdeb09141cba734c133" target="_top" xlink:title="engine.tests.MainEngineTests.start">
<polygon fill="white" stroke="black" points="722.5,-240.5 722.5,-259.5 905.5,-259.5 905.5,-240.5 722.5,-240.5"/>
<text text-anchor="middle" x="814" y="-247.5" font-family="Helvetica,sans-Serif" font-size="10.00">engine.tests.MainEngineTests.start</text>
</a>
</g>
</g>
<!-- Node3&#45;&gt;Node4 -->
<g id="edge3" class="edge"><title>Node3&#45;&gt;Node4</title>
<path fill="none" stroke="midnightblue" d="M680.73,-250C694.594,-250 708.713,-250 722.315,-250"/>
<polygon fill="midnightblue" stroke="midnightblue" points="680.69,-246.5 670.69,-250 680.69,-253.5 680.69,-246.5"/>
</g>
<!-- Node6 -->
<g id="node6" class="node"><title>Node6</title>
<g id="a_node6"><a xlink:href="../../dc/d21/classgames_1_1_mario_game_test.html#a8b7c287ffdfcacefeb373e7430a608c8" target="_top" xlink:title="games.MarioGameTest.start">
<polygon fill="white" stroke="black" points="738,-191.5 738,-210.5 890,-210.5 890,-191.5 738,-191.5"/>
<text text-anchor="middle" x="814" y="-198.5" font-family="Helvetica,sans-Serif" font-size="10.00">games.MarioGameTest.start</text>
</a>
</g>
</g>
<!-- Node5&#45;&gt;Node6 -->
<g id="edge5" class="edge"><title>Node5&#45;&gt;Node6</title>
<path fill="none" stroke="midnightblue" d="M665.636,-194.431C689.37,-194.128 714.75,-194.205 737.642,-194.664"/>
<polygon fill="midnightblue" stroke="midnightblue" points="665.522,-190.932 655.577,-194.585 665.629,-197.932 665.522,-190.932"/>
</g>
<!-- Node6&#45;&gt;Node5 -->
<g id="edge6" class="edge"><title>Node6&#45;&gt;Node5</title>
<path fill="none" stroke="midnightblue" d="M727.375,-207.514C703.945,-207.859 678.653,-207.826 655.577,-207.415"/>
<polygon fill="midnightblue" stroke="midnightblue" points="727.704,-211.009 737.642,-207.336 727.582,-204.01 727.704,-211.009"/>
</g>
<!-- Node8&#45;&gt;Node3 -->
<g id="edge11" class="edge"><title>Node8&#45;&gt;Node3</title>
<path fill="none" stroke="midnightblue" d="M420.371,-169.518C425.118,-171.725 429.695,-174.208 434,-177 456.373,-191.511 447.718,-210.35 470,-225 475.896,-228.877 482.334,-232.153 489.022,-234.922"/>
<polygon fill="midnightblue" stroke="midnightblue" points="421.634,-166.252 411.059,-165.604 418.922,-172.705 421.634,-166.252"/>
</g>
<!-- Node8&#45;&gt;Node5 -->
<g id="edge12" class="edge"><title>Node8&#45;&gt;Node5</title>
<path fill="none" stroke="midnightblue" d="M410.569,-168.967C438.821,-174.505 469.974,-180.611 497.438,-185.994"/>
<polygon fill="midnightblue" stroke="midnightblue" points="411.194,-165.523 400.707,-167.035 409.847,-172.393 411.194,-165.523"/>
</g>
<!-- Node8&#45;&gt;Node7 -->
<g id="edge17" class="edge"><title>Node8&#45;&gt;Node7</title>
<path fill="none" stroke="midnightblue" d="M421.371,-152C449.559,-152 479.721,-152 505.725,-152"/>
<polygon fill="midnightblue" stroke="midnightblue" points="421.087,-148.5 411.087,-152 421.087,-155.5 421.087,-148.5"/>
</g>
<!-- Node9 -->
<g id="node9" class="node"><title>Node9</title>
<g id="a_node9"><a xlink:href="../../da/d4c/classauthoring_1_1eventhandlers_1_1_add_object_handler.html#ad31ca6859bb6a874f9c1a1106fc9b03b" target="_top" xlink:title="authoring.eventhandlers.\lAddObjectHandler.createGameObject">
<polygon fill="white" stroke="black" points="476.5,-88 476.5,-118 673.5,-118 673.5,-88 476.5,-88"/>
<text text-anchor="start" x="484.5" y="-106" font-family="Helvetica,sans-Serif" font-size="10.00">authoring.eventhandlers.</text>
<text text-anchor="middle" x="575" y="-95" font-family="Helvetica,sans-Serif" font-size="10.00">AddObjectHandler.createGameObject</text>
</a>
</g>
</g>
<!-- Node8&#45;&gt;Node9 -->
<g id="edge9" class="edge"><title>Node8&#45;&gt;Node9</title>
<path fill="none" stroke="midnightblue" d="M410.569,-135.033C438.821,-129.495 469.974,-123.389 497.438,-118.006"/>
<polygon fill="midnightblue" stroke="midnightblue" points="409.847,-131.607 400.707,-136.965 411.194,-138.477 409.847,-131.607"/>
</g>
<!-- Node11 -->
<g id="node11" class="node"><title>Node11</title>
<g id="a_node11"><a xlink:href="../../da/d8d/classauthoring_1_1view_1_1propertiesview_1_1_game_object_properties.html#a6f1aeaddb6956053690488c8ddaa38ba" target="_top" xlink:title="authoring.view.propertiesview.\lGameObjectProperties.edit">
<polygon fill="white" stroke="black" points="495.5,-39 495.5,-69 654.5,-69 654.5,-39 495.5,-39"/>
<text text-anchor="start" x="503.5" y="-57" font-family="Helvetica,sans-Serif" font-size="10.00">authoring.view.propertiesview.</text>
<text text-anchor="middle" x="575" y="-46" font-family="Helvetica,sans-Serif" font-size="10.00">GameObjectProperties.edit</text>
</a>
</g>
</g>
<!-- Node8&#45;&gt;Node11 -->
<g id="edge13" class="edge"><title>Node8&#45;&gt;Node11</title>
<path fill="none" stroke="midnightblue" d="M420.405,-134.534C425.143,-132.313 429.708,-129.814 434,-127 456.599,-112.183 447.425,-92.8543 470,-78 477.74,-72.9072 486.424,-68.8882 495.387,-65.7179"/>
<polygon fill="midnightblue" stroke="midnightblue" points="418.951,-131.348 411.106,-138.468 421.679,-137.795 418.951,-131.348"/>
</g>
<!-- Node10 -->
<g id="node10" class="node"><title>Node10</title>
<g id="a_node10"><a xlink:href="../../da/d4c/classauthoring_1_1eventhandlers_1_1_add_object_handler.html#ae0c51e52da299a8a98ac0c9aec97efcd" target="_top" xlink:title="authoring.eventhandlers.\lAddObjectHandler.handle">
<polygon fill="white" stroke="black" points="745,-88 745,-118 883,-118 883,-88 745,-88"/>
<text text-anchor="start" x="753" y="-106" font-family="Helvetica,sans-Serif" font-size="10.00">authoring.eventhandlers.</text>
<text text-anchor="middle" x="814" y="-95" font-family="Helvetica,sans-Serif" font-size="10.00">AddObjectHandler.handle</text>
</a>
</g>
</g>
<!-- Node9&#45;&gt;Node10 -->
<g id="edge10" class="edge"><title>Node9&#45;&gt;Node10</title>
<path fill="none" stroke="midnightblue" d="M683.882,-103C704.584,-103 725.722,-103 744.74,-103"/>
<polygon fill="midnightblue" stroke="midnightblue" points="683.765,-99.5001 673.765,-103 683.765,-106.5 683.765,-99.5001"/>
</g>
<!-- Node12 -->
<g id="node12" class="node"><title>Node12</title>
<g id="a_node12"><a xlink:href="../../d4/d9e/classauthoring_1_1view_1_1propertiesview_1_1_properties_view.html#aeed3bf20185eabcf870ee4c649bc1d4e" target="_top" xlink:title="authoring.view.propertiesview.\lPropertiesView.getEditedGameObject">
<polygon fill="white" stroke="black" points="716.5,-39 716.5,-69 911.5,-69 911.5,-39 716.5,-39"/>
<text text-anchor="start" x="724.5" y="-57" font-family="Helvetica,sans-Serif" font-size="10.00">authoring.view.propertiesview.</text>
<text text-anchor="middle" x="814" y="-46" font-family="Helvetica,sans-Serif" font-size="10.00">PropertiesView.getEditedGameObject</text>
</a>
</g>
</g>
<!-- Node11&#45;&gt;Node12 -->
<g id="edge14" class="edge"><title>Node11&#45;&gt;Node12</title>
<path fill="none" stroke="midnightblue" d="M664.938,-54C681.756,-54 699.424,-54 716.464,-54"/>
<polygon fill="midnightblue" stroke="midnightblue" points="664.588,-50.5001 654.588,-54 664.588,-57.5001 664.588,-50.5001"/>
</g>
<!-- Node13 -->
<g id="node13" class="node"><title>Node13</title>
<g id="a_node13"><a xlink:href="../../d6/df5/classauthoring_1_1eventhandlers_1_1_edit_game_object_handler.html#ac0a03e6b751068903df50296d9f1fbd7" target="_top" xlink:title="authoring.eventhandlers.\lEditGameObjectHandler.handle">
<polygon fill="white" stroke="black" points="948.5,-64 948.5,-94 1115.5,-94 1115.5,-64 948.5,-64"/>
<text text-anchor="start" x="956.5" y="-82" font-family="Helvetica,sans-Serif" font-size="10.00">authoring.eventhandlers.</text>
<text text-anchor="middle" x="1032" y="-71" font-family="Helvetica,sans-Serif" font-size="10.00">EditGameObjectHandler.handle</text>
</a>
</g>
</g>
<!-- Node12&#45;&gt;Node13 -->
<g id="edge15" class="edge"><title>Node12&#45;&gt;Node13</title>
<path fill="none" stroke="midnightblue" d="M921.703,-66.3499C930.642,-67.3845 939.593,-68.4205 948.311,-69.4296"/>
<polygon fill="midnightblue" stroke="midnightblue" points="921.964,-62.8568 911.628,-65.1838 921.159,-69.8104 921.964,-62.8568"/>
</g>
<!-- Node14 -->
<g id="node14" class="node"><title>Node14</title>
<g id="a_node14"><a xlink:href="../../df/d81/classauthoring_1_1eventhandlers_1_1_save_as_new_handler.html#a912458649a9a99cded7c346f9d8b40f5" target="_top" xlink:title="authoring.eventhandlers.\lSaveAsNewHandler.handle">
<polygon fill="white" stroke="black" points="959.5,-15 959.5,-45 1104.5,-45 1104.5,-15 959.5,-15"/>
<text text-anchor="start" x="967.5" y="-33" font-family="Helvetica,sans-Serif" font-size="10.00">authoring.eventhandlers.</text>
<text text-anchor="middle" x="1032" y="-22" font-family="Helvetica,sans-Serif" font-size="10.00">SaveAsNewHandler.handle</text>
</a>
</g>
</g>
<!-- Node12&#45;&gt;Node14 -->
<g id="edge16" class="edge"><title>Node12&#45;&gt;Node14</title>
<path fill="none" stroke="midnightblue" d="M921.825,-42.1306C934.561,-40.7154 947.32,-39.2978 959.392,-37.9565"/>
<polygon fill="midnightblue" stroke="midnightblue" points="921.18,-38.6805 911.628,-43.2635 921.954,-45.6377 921.18,-38.6805"/>
</g>
<!-- Node17 -->
<g id="node17" class="node"><title>Node17</title>
<g id="a_node17"><a xlink:href="../../d0/d7f/classengine_1_1game_object_1_1_game_object.html#ac7465f9b7adb414a894231d97e4ae91c" target="_top" xlink:title="engine.gameObject.GameObject.update">
<polygon fill="white" stroke="black" points="470,-0.5 470,-19.5 680,-19.5 680,-0.5 470,-0.5"/>
<text text-anchor="middle" x="575" y="-7.5" font-family="Helvetica,sans-Serif" font-size="10.00">engine.gameObject.GameObject.update</text>
</a>
</g>
</g>
<!-- Node16&#45;&gt;Node17 -->
<g id="edge20" class="edge"><title>Node16&#45;&gt;Node17</title>
<path fill="none" stroke="midnightblue" d="M443.873,-21.4511C452.601,-20.6831 461.362,-19.9122 469.986,-19.1533"/>
<polygon fill="midnightblue" stroke="midnightblue" points="443.308,-17.9873 433.654,-22.3505 443.922,-24.9603 443.308,-17.9873"/>
</g>
</g>
</svg>
        <g id="navigator" transform="translate(0 0)" fill="#404254">
                <rect fill="#f2f5e9" fill-opacity="0.5" stroke="#606060" stroke-width=".5" x="0" y="0" width="60" height="60"/>
                <use id="zoomplus" xlink:href="#zoomPlus" x="17" y="9" onmousedown="handleZoom(evt,'in')"/>
                <use id="zoomminus" xlink:href="#zoomMin" x="42" y="9" onmousedown="handleZoom(evt,'out')"/>
                <use id="reset" xlink:href="#resetDef" x="30" y="36" onmousedown="handleReset()"/>
                <g id="arrowUp" xlink:href="#dirArrow" transform="translate(30 24)" onmousedown="handlePan(0,-1)">
                  <use xlink:href="#rim" fill="#404040">
                        <set attributeName="fill" to="#808080" begin="arrowUp.mouseover" end="arrowUp.mouseout"/>
                  </use>
                  <path fill="none" stroke="white" stroke-width="1.5" d="M0,-3.0v7 M-2.5,-0.5L0,-3.0L2.5,-0.5"/>
                </g>
                <g id="arrowRight" xlink:href="#dirArrow" transform="rotate(90) translate(36 -43)" onmousedown="handlePan(1,0)">
                  <use xlink:href="#rim" fill="#404040">
                        <set attributeName="fill" to="#808080" begin="arrowRight.mouseover" end="arrowRight.mouseout"/>
                  </use>
                  <path fill="none" stroke="white" stroke-width="1.5" d="M0,-3.0v7 M-2.5,-0.5L0,-3.0L2.5,-0.5"/>
                </g>
                <g id="arrowDown" xlink:href="#dirArrow" transform="rotate(180) translate(-30 -48)" onmousedown="handlePan(0,1)">
                  <use xlink:href="#rim" fill="#404040">
                        <set attributeName="fill" to="#808080" begin="arrowDown.mouseover" end="arrowDown.mouseout"/>
                  </use>
                  <path fill="none" stroke="white" stroke-width="1.5" d="M0,-3.0v7 M-2.5,-0.5L0,-3.0L2.5,-0.5"/>
                </g>
                <g id="arrowLeft" xlink:href="#dirArrow" transform="rotate(270) translate(-36 17)" onmousedown="handlePan(-1,0)">
                  <use xlink:href="#rim" fill="#404040">
                        <set attributeName="fill" to="#808080" begin="arrowLeft.mouseover" end="arrowLeft.mouseout"/>
                  </use>
                  <path fill="none" stroke="white" stroke-width="1.5" d="M0,-3.0v7 M-2.5,-0.5L0,-3.0L2.5,-0.5"/>
                </g>
        </g>
        <svg viewBox="0 0 15 15" width="100%" height="30px" preserveAspectRatio="xMaxYMin meet">
         <g id="arrow_out" transform="scale(0.3 0.3)">
          <a xlink:href="classengine_1_1game_object_1_1components_1_1_physics_body_aec651bb9ed66c5c0db0bbbd0c2f445ae_icgraph_org.svg" target="_base">
           <rect id="button" ry="5" rx="5" y="6" x="6" height="38" width="38"
                fill="#f2f5e9" fill-opacity="0.5" stroke="#606060" stroke-width="1.0"/>
           <path id="arrow"
             d="M 11.500037,31.436501 C 11.940474,20.09759 22.043105,11.32322 32.158766,21.979434 L 37.068811,17.246167 C 37.068811,17.246167 37.088388,32 37.088388,32 L 22.160133,31.978069 C 22.160133,31.978069 26.997745,27.140456 26.997745,27.140456 C 18.528582,18.264221 13.291696,25.230495 11.500037,31.436501 z"
             style="fill:#404040;"/>
          </a>
         </g>
        </svg>
</svg>
