<?xml version="1.0" encoding="UTF-8" standalone="no"?>
<!DOCTYPE svg PUBLIC "-//W3C//DTD SVG 1.1//EN"
 "http://www.w3.org/Graphics/SVG/1.1/DTD/svg11.dtd">
<!-- Generated by graphviz version 2.36.0 (20140111.2315)
 -->
<!-- Title: engine.gameObject.components.PhysicsBody.addScalar Pages: 1 -->
<!--zoomable 137 -->
<svg id="main" version="1.1" xmlns="http://www.w3.org/2000/svg" xmlns:xlink="http://www.w3.org/1999/xlink" xml:space="preserve" onload="init(evt)">
<style type="text/css"><![CDATA[
.edge:hover path { stroke: red; }
.edge:hover polygon { stroke: red; fill: red; }
]]></style>
<script type="text/javascript"><![CDATA[
var edges = document.getElementsByTagName('g');
if (edges && edges.length) {
  for (var i=0;i<edges.length;i++) {
    if (edges[i].id.substr(0,4)=='edge') {
      edges[i].setAttribute('class','edge');
    }
  }
}
]]></script>
        <defs>
                <circle id="rim" cx="0" cy="0" r="7"/>
                <circle id="rim2" cx="0" cy="0" r="3.5"/>
                <g id="zoomPlus">
                        <use xlink:href="#rim" fill="#404040">
                                <set attributeName="fill" to="#808080" begin="zoomplus.mouseover" end="zoomplus.mouseout"/>
                        </use>
                        <path d="M-4,0h8M0,-4v8" fill="none" stroke="white" stroke-width="1.5" pointer-events="none"/>
                </g>
                <g id="zoomMin">
                        <use xlink:href="#rim" fill="#404040">
                                <set attributeName="fill" to="#808080" begin="zoomminus.mouseover" end="zoomminus.mouseout"/>
                        </use>
                        <path d="M-4,0h8" fill="none" stroke="white" stroke-width="1.5" pointer-events="none"/>
                </g>
                <g id="dirArrow">
                        <path fill="none" stroke="white" stroke-width="1.5" d="M0,-3.0v7 M-2.5,-0.5L0,-3.0L2.5,-0.5"/>
                </g>
               <g id="resetDef">
                       <use xlink:href="#rim2" fill="#404040">
                               <set attributeName="fill" to="#808080" begin="reset.mouseover" end="reset.mouseout"/>
                       </use>
               </g>
        </defs>

<script type="text/javascript">
var viewWidth = 848;
var viewHeight = 137;
var sectionId = 'dynsection-5';
</script>
<script xlink:href="../../svgpan.js"/>
<svg id="graph" class="graph">
<g id="viewport">
<title>engine.gameObject.components.PhysicsBody.addScalar</title>
<polygon fill="white" stroke="none" points="-4,4 -4,-133 844,-133 844,4 -4,4"/>
<!-- Node1 -->
<g id="node1" class="node"><title>Node1</title>
<polygon fill="#bfbfbf" stroke="black" points="0,-50 0,-80 176,-80 176,-50 0,-50"/>
<text text-anchor="start" x="8" y="-68" font-family="Helvetica,sans-Serif" font-size="10.00">engine.gameObject.components.</text>
<text text-anchor="middle" x="88" y="-57" font-family="Helvetica,sans-Serif" font-size="10.00">PhysicsBody.addScalar</text>
</g>
<!-- Node2 -->
<g id="node2" class="node"><title>Node2</title>
<g id="a_node2"><a xlink:href="../../d7/d00/classengine_1_1tests_1_1_main_engine_tests.html#ad06079aee97fd7ffd4f2b14a8f01b808" target="_top" xlink:title="engine.tests.MainEngineTests.create\lGameObject">
<polygon fill="white" stroke="black" points="212.5,-99 212.5,-129 403.5,-129 403.5,-99 212.5,-99"/>
<text text-anchor="start" x="220.5" y="-117" font-family="Helvetica,sans-Serif" font-size="10.00">engine.tests.MainEngineTests.create</text>
<text text-anchor="middle" x="308" y="-106" font-family="Helvetica,sans-Serif" font-size="10.00">GameObject</text>
</a>
</g>
</g>
<!-- Node1&#45;&gt;Node2 -->
<g id="edge1" class="edge"><title>Node1&#45;&gt;Node2</title>
<path fill="none" stroke="midnightblue" d="M165.781,-82.2581C190.072,-87.718 216.708,-93.705 240.238,-98.9938"/>
<polygon fill="midnightblue" stroke="midnightblue" points="166.413,-78.8129 155.889,-80.0346 164.878,-85.6425 166.413,-78.8129"/>
</g>
<!-- Node4 -->
<g id="node4" class="node"><title>Node4</title>
<g id="a_node4"><a xlink:href="../../da/d8d/classauthoring_1_1view_1_1propertiesview_1_1_game_object_properties.html#a6f1aeaddb6956053690488c8ddaa38ba" target="_top" xlink:title="authoring.view.propertiesview.\lGameObjectProperties.edit">
<polygon fill="white" stroke="black" points="228.5,-50 228.5,-80 387.5,-80 387.5,-50 228.5,-50"/>
<text text-anchor="start" x="236.5" y="-68" font-family="Helvetica,sans-Serif" font-size="10.00">authoring.view.propertiesview.</text>
<text text-anchor="middle" x="308" y="-57" font-family="Helvetica,sans-Serif" font-size="10.00">GameObjectProperties.edit</text>
</a>
</g>
</g>
<!-- Node1&#45;&gt;Node4 -->
<g id="edge3" class="edge"><title>Node1&#45;&gt;Node4</title>
<path fill="none" stroke="midnightblue" d="M186.249,-65C200.269,-65 214.553,-65 228.156,-65"/>
<polygon fill="midnightblue" stroke="midnightblue" points="186.099,-61.5001 176.099,-65 186.099,-68.5001 186.099,-61.5001"/>
</g>
<!-- Node8 -->
<g id="node8" class="node"><title>Node8</title>
<g id="a_node8"><a xlink:href="../../df/d71/classengine_1_1tests_1_1_physics_body_testing.html#a972062e773bb78d10114b5c8d0ee9be3" target="_top" xlink:title="engine.tests.PhysicsBody\lTesting.main">
<polygon fill="white" stroke="black" points="239,-1 239,-31 377,-31 377,-1 239,-1"/>
<text text-anchor="start" x="247" y="-19" font-family="Helvetica,sans-Serif" font-size="10.00">engine.tests.PhysicsBody</text>
<text text-anchor="middle" x="308" y="-8" font-family="Helvetica,sans-Serif" font-size="10.00">Testing.main</text>
</a>
</g>
</g>
<!-- Node1&#45;&gt;Node8 -->
<g id="edge7" class="edge"><title>Node1&#45;&gt;Node8</title>
<path fill="none" stroke="midnightblue" d="M165.781,-47.7419C190.072,-42.282 216.708,-36.295 240.238,-31.0062"/>
<polygon fill="midnightblue" stroke="midnightblue" points="164.878,-44.3575 155.889,-49.9654 166.413,-51.1871 164.878,-44.3575"/>
</g>
<!-- Node3 -->
<g id="node3" class="node"><title>Node3</title>
<g id="a_node3"><a xlink:href="../../d7/d00/classengine_1_1tests_1_1_main_engine_tests.html#ad1e78dcd3453ebdeb09141cba734c133" target="_top" xlink:title="engine.tests.MainEngineTests.start">
<polygon fill="white" stroke="black" points="446.5,-104.5 446.5,-123.5 629.5,-123.5 629.5,-104.5 446.5,-104.5"/>
<text text-anchor="middle" x="538" y="-111.5" font-family="Helvetica,sans-Serif" font-size="10.00">engine.tests.MainEngineTests.start</text>
</a>
</g>
</g>
<!-- Node2&#45;&gt;Node3 -->
<g id="edge2" class="edge"><title>Node2&#45;&gt;Node3</title>
<path fill="none" stroke="midnightblue" d="M413.993,-114C424.764,-114 435.643,-114 446.242,-114"/>
<polygon fill="midnightblue" stroke="midnightblue" points="413.712,-110.5 403.712,-114 413.712,-117.5 413.712,-110.5"/>
</g>
<!-- Node5 -->
<g id="node5" class="node"><title>Node5</title>
<g id="a_node5"><a xlink:href="../../d4/d9e/classauthoring_1_1view_1_1propertiesview_1_1_properties_view.html#aeed3bf20185eabcf870ee4c649bc1d4e" target="_top" xlink:title="authoring.view.propertiesview.\lPropertiesView.getEditedGameObject">
<polygon fill="white" stroke="black" points="440.5,-50 440.5,-80 635.5,-80 635.5,-50 440.5,-50"/>
<text text-anchor="start" x="448.5" y="-68" font-family="Helvetica,sans-Serif" font-size="10.00">authoring.view.propertiesview.</text>
<text text-anchor="middle" x="538" y="-57" font-family="Helvetica,sans-Serif" font-size="10.00">PropertiesView.getEditedGameObject</text>
</a>
</g>
</g>
<!-- Node4&#45;&gt;Node5 -->
<g id="edge4" class="edge"><title>Node4&#45;&gt;Node5</title>
<path fill="none" stroke="midnightblue" d="M398.186,-65C411.936,-65 426.193,-65 440.102,-65"/>
<polygon fill="midnightblue" stroke="midnightblue" points="397.784,-61.5001 387.784,-65 397.784,-68.5001 397.784,-61.5001"/>
</g>
<!-- Node6 -->
<g id="node6" class="node"><title>Node6</title>
<g id="a_node6"><a xlink:href="../../d6/df5/classauthoring_1_1eventhandlers_1_1_edit_game_object_handler.html#ac0a03e6b751068903df50296d9f1fbd7" target="_top" xlink:title="authoring.eventhandlers.\lEditGameObjectHandler.handle">
<polygon fill="white" stroke="black" points="672.5,-75 672.5,-105 839.5,-105 839.5,-75 672.5,-75"/>
<text text-anchor="start" x="680.5" y="-93" font-family="Helvetica,sans-Serif" font-size="10.00">authoring.eventhandlers.</text>
<text text-anchor="middle" x="756" y="-82" font-family="Helvetica,sans-Serif" font-size="10.00">EditGameObjectHandler.handle</text>
</a>
</g>
</g>
<!-- Node5&#45;&gt;Node6 -->
<g id="edge5" class="edge"><title>Node5&#45;&gt;Node6</title>
<path fill="none" stroke="midnightblue" d="M645.703,-77.3499C654.642,-78.3845 663.593,-79.4205 672.311,-80.4296"/>
<polygon fill="midnightblue" stroke="midnightblue" points="645.964,-73.8568 635.628,-76.1838 645.159,-80.8104 645.964,-73.8568"/>
</g>
<!-- Node7 -->
<g id="node7" class="node"><title>Node7</title>
<g id="a_node7"><a xlink:href="../../df/d81/classauthoring_1_1eventhandlers_1_1_save_as_new_handler.html#a912458649a9a99cded7c346f9d8b40f5" target="_top" xlink:title="authoring.eventhandlers.\lSaveAsNewHandler.handle">
<polygon fill="white" stroke="black" points="683.5,-26 683.5,-56 828.5,-56 828.5,-26 683.5,-26"/>
<text text-anchor="start" x="691.5" y="-44" font-family="Helvetica,sans-Serif" font-size="10.00">authoring.eventhandlers.</text>
<text text-anchor="middle" x="756" y="-33" font-family="Helvetica,sans-Serif" font-size="10.00">SaveAsNewHandler.handle</text>
</a>
</g>
</g>
<!-- Node5&#45;&gt;Node7 -->
<g id="edge6" class="edge"><title>Node5&#45;&gt;Node7</title>
<path fill="none" stroke="midnightblue" d="M645.825,-53.1306C658.561,-51.7154 671.32,-50.2978 683.392,-48.9565"/>
<polygon fill="midnightblue" stroke="midnightblue" points="645.18,-49.6805 635.628,-54.2635 645.954,-56.6377 645.18,-49.6805"/>
</g>
</g>
</svg>
        <g id="navigator" transform="translate(0 0)" fill="#404254">
                <rect fill="#f2f5e9" fill-opacity="0.5" stroke="#606060" stroke-width=".5" x="0" y="0" width="60" height="60"/>
                <use id="zoomplus" xlink:href="#zoomPlus" x="17" y="9" onmousedown="handleZoom(evt,'in')"/>
                <use id="zoomminus" xlink:href="#zoomMin" x="42" y="9" onmousedown="handleZoom(evt,'out')"/>
                <use id="reset" xlink:href="#resetDef" x="30" y="36" onmousedown="handleReset()"/>
                <g id="arrowUp" xlink:href="#dirArrow" transform="translate(30 24)" onmousedown="handlePan(0,-1)">
                  <use xlink:href="#rim" fill="#404040">
                        <set attributeName="fill" to="#808080" begin="arrowUp.mouseover" end="arrowUp.mouseout"/>
                  </use>
                  <path fill="none" stroke="white" stroke-width="1.5" d="M0,-3.0v7 M-2.5,-0.5L0,-3.0L2.5,-0.5"/>
                </g>
                <g id="arrowRight" xlink:href="#dirArrow" transform="rotate(90) translate(36 -43)" onmousedown="handlePan(1,0)">
                  <use xlink:href="#rim" fill="#404040">
                        <set attributeName="fill" to="#808080" begin="arrowRight.mouseover" end="arrowRight.mouseout"/>
                  </use>
                  <path fill="none" stroke="white" stroke-width="1.5" d="M0,-3.0v7 M-2.5,-0.5L0,-3.0L2.5,-0.5"/>
                </g>
                <g id="arrowDown" xlink:href="#dirArrow" transform="rotate(180) translate(-30 -48)" onmousedown="handlePan(0,1)">
                  <use xlink:href="#rim" fill="#404040">
                        <set attributeName="fill" to="#808080" begin="arrowDown.mouseover" end="arrowDown.mouseout"/>
                  </use>
                  <path fill="none" stroke="white" stroke-width="1.5" d="M0,-3.0v7 M-2.5,-0.5L0,-3.0L2.5,-0.5"/>
                </g>
                <g id="arrowLeft" xlink:href="#dirArrow" transform="rotate(270) translate(-36 17)" onmousedown="handlePan(-1,0)">
                  <use xlink:href="#rim" fill="#404040">
                        <set attributeName="fill" to="#808080" begin="arrowLeft.mouseover" end="arrowLeft.mouseout"/>
                  </use>
                  <path fill="none" stroke="white" stroke-width="1.5" d="M0,-3.0v7 M-2.5,-0.5L0,-3.0L2.5,-0.5"/>
                </g>
        </g>
        <svg viewBox="0 0 15 15" width="100%" height="30px" preserveAspectRatio="xMaxYMin meet">
         <g id="arrow_out" transform="scale(0.3 0.3)">
          <a xlink:href="classengine_1_1game_object_1_1components_1_1_physics_body_a69d3fe175f40fdc40ca6e414cac727a5_icgraph_org.svg" target="_base">
           <rect id="button" ry="5" rx="5" y="6" x="6" height="38" width="38"
                fill="#f2f5e9" fill-opacity="0.5" stroke="#606060" stroke-width="1.0"/>
           <path id="arrow"
             d="M 11.500037,31.436501 C 11.940474,20.09759 22.043105,11.32322 32.158766,21.979434 L 37.068811,17.246167 C 37.068811,17.246167 37.088388,32 37.088388,32 L 22.160133,31.978069 C 22.160133,31.978069 26.997745,27.140456 26.997745,27.140456 C 18.528582,18.264221 13.291696,25.230495 11.500037,31.436501 z"
             style="fill:#404040;"/>
          </a>
         </g>
        </svg>
</svg>
