<?xml version="1.0" encoding="UTF-8" standalone="no"?>
<!DOCTYPE svg PUBLIC "-//W3C//DTD SVG 1.1//EN"
 "http://www.w3.org/Graphics/SVG/1.1/DTD/svg11.dtd">
<!-- Generated by graphviz version 2.36.0 (20140111.2315)
 -->
<!-- Title: engine.gameObject.components.PhysicsBody.getScalar Pages: 1 -->
<!--zoomable 747 -->
<svg id="main" version="1.1" xmlns="http://www.w3.org/2000/svg" xmlns:xlink="http://www.w3.org/1999/xlink" xml:space="preserve" onload="init(evt)">
<style type="text/css"><![CDATA[
.edge:hover path { stroke: red; }
.edge:hover polygon { stroke: red; fill: red; }
]]></style>
<script type="text/javascript"><![CDATA[
var edges = document.getElementsByTagName('g');
if (edges && edges.length) {
  for (var i=0;i<edges.length;i++) {
    if (edges[i].id.substr(0,4)=='edge') {
      edges[i].setAttribute('class','edge');
    }
  }
}
]]></script>
        <defs>
                <circle id="rim" cx="0" cy="0" r="7"/>
                <circle id="rim2" cx="0" cy="0" r="3.5"/>
                <g id="zoomPlus">
                        <use xlink:href="#rim" fill="#404040">
                                <set attributeName="fill" to="#808080" begin="zoomplus.mouseover" end="zoomplus.mouseout"/>
                        </use>
                        <path d="M-4,0h8M0,-4v8" fill="none" stroke="white" stroke-width="1.5" pointer-events="none"/>
                </g>
                <g id="zoomMin">
                        <use xlink:href="#rim" fill="#404040">
                                <set attributeName="fill" to="#808080" begin="zoomminus.mouseover" end="zoomminus.mouseout"/>
                        </use>
                        <path d="M-4,0h8" fill="none" stroke="white" stroke-width="1.5" pointer-events="none"/>
                </g>
                <g id="dirArrow">
                        <path fill="none" stroke="white" stroke-width="1.5" d="M0,-3.0v7 M-2.5,-0.5L0,-3.0L2.5,-0.5"/>
                </g>
               <g id="resetDef">
                       <use xlink:href="#rim2" fill="#404040">
                               <set attributeName="fill" to="#808080" begin="reset.mouseover" end="reset.mouseout"/>
                       </use>
               </g>
        </defs>

<script type="text/javascript">
var viewWidth = 950;
var viewHeight = 747;
var sectionId = 'dynsection-18';
</script>
<script xlink:href="../../svgpan.js"/>
<svg id="graph" class="graph">
<g id="viewport">
<title>engine.gameObject.components.PhysicsBody.getScalar</title>
<polygon fill="white" stroke="none" points="-4,4 -4,-743 946,-743 946,4 -4,4"/>
<!-- Node1 -->
<g id="node1" class="node"><title>Node1</title>
<polygon fill="#bfbfbf" stroke="black" points="0,-444 0,-474 176,-474 176,-444 0,-444"/>
<text text-anchor="start" x="8" y="-462" font-family="Helvetica,sans-Serif" font-size="10.00">engine.gameObject.components.</text>
<text text-anchor="middle" x="88" y="-451" font-family="Helvetica,sans-Serif" font-size="10.00">PhysicsBody.getScalar</text>
</g>
<!-- Node2 -->
<g id="node2" class="node"><title>Node2</title>
<g id="a_node2"><a xlink:href="../../da/d1b/classengine_1_1collision_1_1objects_1_1_collision_composition.html#a7ec4687ad9367279088b965c0e009cd0" target="_top" xlink:title="engine.collision.objects.\lCollisionComposition.fixedCollision">
<polygon fill="white" stroke="black" points="493,-444 493,-474 673,-474 673,-444 493,-444"/>
<text text-anchor="start" x="501" y="-462" font-family="Helvetica,sans-Serif" font-size="10.00">engine.collision.objects.</text>
<text text-anchor="middle" x="583" y="-451" font-family="Helvetica,sans-Serif" font-size="10.00">CollisionComposition.fixedCollision</text>
</a>
</g>
</g>
<!-- Node1&#45;&gt;Node2 -->
<g id="edge1" class="edge"><title>Node1&#45;&gt;Node2</title>
<path fill="none" stroke="midnightblue" d="M186.125,-459C275.322,-459 406.409,-459 492.957,-459"/>
<polygon fill="midnightblue" stroke="midnightblue" points="186.004,-455.5 176.004,-459 186.004,-462.5 186.004,-455.5"/>
</g>
<!-- Node12 -->
<g id="node12" class="node"><title>Node12</title>
<g id="a_node12"><a xlink:href="../../da/d8d/classauthoring_1_1view_1_1propertiesview_1_1_game_object_properties.html#a296e97b9faeabc086f698730de09a5c9" target="_top" xlink:title="authoring.view.propertiesview.\lGameObjectProperties.initializeProperties">
<polygon fill="white" stroke="black" points="212.5,-490 212.5,-520 427.5,-520 427.5,-490 212.5,-490"/>
<text text-anchor="start" x="220.5" y="-508" font-family="Helvetica,sans-Serif" font-size="10.00">authoring.view.propertiesview.</text>
<text text-anchor="middle" x="320" y="-497" font-family="Helvetica,sans-Serif" font-size="10.00">GameObjectProperties.initializeProperties</text>
</a>
</g>
</g>
<!-- Node1&#45;&gt;Node12 -->
<g id="edge11" class="edge"><title>Node1&#45;&gt;Node12</title>
<path fill="none" stroke="midnightblue" d="M174.326,-476.065C197.162,-480.632 221.674,-485.535 243.913,-489.983"/>
<polygon fill="midnightblue" stroke="midnightblue" points="174.803,-472.591 164.311,-474.062 173.43,-479.455 174.803,-472.591"/>
</g>
<!-- Node14 -->
<g id="node14" class="node"><title>Node14</title>
<g id="a_node14"><a xlink:href="../../da/d1b/classengine_1_1collision_1_1objects_1_1_collision_composition.html#a16ad6d1ec6082599cf72870f5cd3dd03" target="_top" xlink:title="engine.collision.objects.\lCollisionComposition.isOnXAxis">
<polygon fill="white" stroke="black" points="237.5,-397 237.5,-427 402.5,-427 402.5,-397 237.5,-397"/>
<text text-anchor="start" x="245.5" y="-415" font-family="Helvetica,sans-Serif" font-size="10.00">engine.collision.objects.</text>
<text text-anchor="middle" x="320" y="-404" font-family="Helvetica,sans-Serif" font-size="10.00">CollisionComposition.isOnXAxis</text>
</a>
</g>
</g>
<!-- Node1&#45;&gt;Node14 -->
<g id="edge13" class="edge"><title>Node1&#45;&gt;Node14</title>
<path fill="none" stroke="midnightblue" d="M172.511,-441.935C196.403,-437.052 222.259,-431.769 245.503,-427.019"/>
<polygon fill="midnightblue" stroke="midnightblue" points="171.503,-438.568 162.406,-444 172.904,-445.427 171.503,-438.568"/>
</g>
<!-- Node3 -->
<g id="node3" class="node"><title>Node3</title>
<g id="a_node3"><a xlink:href="../../db/dbb/classengine_1_1actions_1_1_fixed_collision_type_action.html#a4335f03e3a33ba714562e4e187cf0ae2" target="_top" xlink:title="engine.actions.FixedCollision\lTypeAction.applyPhysics">
<polygon fill="white" stroke="black" points="764,-469 764,-499 916,-499 916,-469 764,-469"/>
<text text-anchor="start" x="772" y="-487" font-family="Helvetica,sans-Serif" font-size="10.00">engine.actions.FixedCollision</text>
<text text-anchor="middle" x="840" y="-476" font-family="Helvetica,sans-Serif" font-size="10.00">TypeAction.applyPhysics</text>
</a>
</g>
</g>
<!-- Node2&#45;&gt;Node3 -->
<g id="edge2" class="edge"><title>Node2&#45;&gt;Node3</title>
<path fill="none" stroke="midnightblue" d="M683.348,-468.74C710.11,-471.364 738.613,-474.158 763.817,-476.629"/>
<polygon fill="midnightblue" stroke="midnightblue" points="683.48,-465.236 673.187,-467.744 682.797,-472.203 683.48,-465.236"/>
</g>
<!-- Node4 -->
<g id="node4" class="node"><title>Node4</title>
<g id="a_node4"><a xlink:href="../../d7/de2/classengine_1_1actions_1_1_fixed_collision_action.html#a9d8b1ea6e0e71b027fcaa18f52ba3908" target="_top" xlink:title="engine.actions.FixedCollision\lAction.applyPhysics">
<polygon fill="white" stroke="black" points="764,-420 764,-450 916,-450 916,-420 764,-420"/>
<text text-anchor="start" x="772" y="-438" font-family="Helvetica,sans-Serif" font-size="10.00">engine.actions.FixedCollision</text>
<text text-anchor="middle" x="840" y="-427" font-family="Helvetica,sans-Serif" font-size="10.00">Action.applyPhysics</text>
</a>
</g>
</g>
<!-- Node2&#45;&gt;Node4 -->
<g id="edge3" class="edge"><title>Node2&#45;&gt;Node4</title>
<path fill="none" stroke="midnightblue" d="M683.348,-449.65C710.11,-447.131 738.613,-444.448 763.817,-442.076"/>
<polygon fill="midnightblue" stroke="midnightblue" points="682.815,-446.184 673.187,-450.606 683.471,-453.153 682.815,-446.184"/>
</g>
<!-- Node5 -->
<g id="node5" class="node"><title>Node5</title>
<g id="a_node5"><a xlink:href="../../d4/daa/classengine_1_1collision_1_1objects_1_1_fixed_object_collision_object.html#a21a31d8fafaaa37c7ca7d92ed0b015f1" target="_top" xlink:title="engine.collision.objects.\lFixedObjectCollisionObject.handle\lEnemyCollisionObject">
<polygon fill="white" stroke="black" points="752,-360.5 752,-401.5 928,-401.5 928,-360.5 752,-360.5"/>
<text text-anchor="start" x="760" y="-389.5" font-family="Helvetica,sans-Serif" font-size="10.00">engine.collision.objects.</text>
<text text-anchor="start" x="760" y="-378.5" font-family="Helvetica,sans-Serif" font-size="10.00">FixedObjectCollisionObject.handle</text>
<text text-anchor="middle" x="840" y="-367.5" font-family="Helvetica,sans-Serif" font-size="10.00">EnemyCollisionObject</text>
</a>
</g>
</g>
<!-- Node2&#45;&gt;Node5 -->
<g id="edge4" class="edge"><title>Node2&#45;&gt;Node5</title>
<path fill="none" stroke="midnightblue" d="M682.797,-441.028C689.383,-438.927 695.84,-436.593 702,-434 719.724,-426.54 720.552,-418.083 738,-410 744.621,-406.933 751.639,-404.116 758.768,-401.546"/>
<polygon fill="midnightblue" stroke="midnightblue" points="681.65,-437.718 673.076,-443.942 683.66,-444.423 681.65,-437.718"/>
</g>
<!-- Node6 -->
<g id="node6" class="node"><title>Node6</title>
<g id="a_node6"><a xlink:href="../../d4/daa/classengine_1_1collision_1_1objects_1_1_fixed_object_collision_object.html#a2e8390b2a80569d4462e04c5706831cb" target="_top" xlink:title="engine.collision.objects.\lFixedObjectCollisionObject.handle\lFixedObjectCollisionObject">
<polygon fill="white" stroke="black" points="752,-300.5 752,-341.5 928,-341.5 928,-300.5 752,-300.5"/>
<text text-anchor="start" x="760" y="-329.5" font-family="Helvetica,sans-Serif" font-size="10.00">engine.collision.objects.</text>
<text text-anchor="start" x="760" y="-318.5" font-family="Helvetica,sans-Serif" font-size="10.00">FixedObjectCollisionObject.handle</text>
<text text-anchor="middle" x="840" y="-307.5" font-family="Helvetica,sans-Serif" font-size="10.00">FixedObjectCollisionObject</text>
</a>
</g>
</g>
<!-- Node2&#45;&gt;Node6 -->
<g id="edge5" class="edge"><title>Node2&#45;&gt;Node6</title>
<path fill="none" stroke="midnightblue" d="M682.669,-445.939C689.6,-442.714 696.147,-438.783 702,-434 733.135,-408.556 707.907,-377.668 738,-351 742.244,-347.239 746.941,-343.949 751.919,-341.071"/>
<polygon fill="midnightblue" stroke="midnightblue" points="680.927,-442.871 673.01,-449.911 683.589,-449.344 680.927,-442.871"/>
</g>
<!-- Node7 -->
<g id="node7" class="node"><title>Node7</title>
<g id="a_node7"><a xlink:href="../../dc/d87/classengine_1_1collision_1_1objects_1_1_hero_collision_object.html#a3dc5a68b37238352c99bca91dfc8f9a1" target="_top" xlink:title="engine.collision.objects.\lHeroCollisionObject.handleFixed\lObjectCollisionObject">
<polygon fill="white" stroke="black" points="755.5,-240.5 755.5,-281.5 924.5,-281.5 924.5,-240.5 755.5,-240.5"/>
<text text-anchor="start" x="763.5" y="-269.5" font-family="Helvetica,sans-Serif" font-size="10.00">engine.collision.objects.</text>
<text text-anchor="start" x="763.5" y="-258.5" font-family="Helvetica,sans-Serif" font-size="10.00">HeroCollisionObject.handleFixed</text>
<text text-anchor="middle" x="840" y="-247.5" font-family="Helvetica,sans-Serif" font-size="10.00">ObjectCollisionObject</text>
</a>
</g>
</g>
<!-- Node2&#45;&gt;Node7 -->
<g id="edge6" class="edge"><title>Node2&#45;&gt;Node7</title>
<path fill="none" stroke="midnightblue" d="M682.519,-447.487C689.648,-443.944 696.272,-439.515 702,-434 749.211,-388.542 692.643,-338.308 738,-291 743.064,-285.719 749.011,-281.355 755.442,-277.752"/>
<polygon fill="midnightblue" stroke="midnightblue" points="681.024,-444.321 673.249,-451.518 683.815,-450.741 681.024,-444.321"/>
</g>
<!-- Node8 -->
<g id="node8" class="node"><title>Node8</title>
<g id="a_node8"><a xlink:href="../../d6/db8/classengine_1_1collision_1_1objects_1_1_powerup_collision_object.html#a4e09b2b8b7cfbcdd6def8332de2025b7" target="_top" xlink:title="engine.collision.objects.\lPowerupCollisionObject.handleFixed\lObjectCollisionObject">
<polygon fill="white" stroke="black" points="747,-697.5 747,-738.5 933,-738.5 933,-697.5 747,-697.5"/>
<text text-anchor="start" x="755" y="-726.5" font-family="Helvetica,sans-Serif" font-size="10.00">engine.collision.objects.</text>
<text text-anchor="start" x="755" y="-715.5" font-family="Helvetica,sans-Serif" font-size="10.00">PowerupCollisionObject.handleFixed</text>
<text text-anchor="middle" x="840" y="-704.5" font-family="Helvetica,sans-Serif" font-size="10.00">ObjectCollisionObject</text>
</a>
</g>
</g>
<!-- Node2&#45;&gt;Node8 -->
<g id="edge7" class="edge"><title>Node2&#45;&gt;Node8</title>
<path fill="none" stroke="midnightblue" d="M682.537,-469.003C689.728,-472.621 696.358,-477.21 702,-483 766.25,-548.942 677.027,-618.016 738,-687 741.401,-690.848 745.267,-694.225 749.454,-697.189"/>
<polygon fill="midnightblue" stroke="midnightblue" points="683.727,-465.704 673.161,-464.922 680.933,-472.122 683.727,-465.704"/>
</g>
<!-- Node9 -->
<g id="node9" class="node"><title>Node9</title>
<g id="a_node9"><a xlink:href="../../db/d3a/classengine_1_1collision_1_1objects_1_1_enemy_collision_object.html#a8cf5b65593cec2850e2f94a8d6deb670" target="_top" xlink:title="engine.collision.objects.\lEnemyCollisionObject.handleFixed\lObjectCollisionObject">
<polygon fill="white" stroke="black" points="750.5,-637.5 750.5,-678.5 929.5,-678.5 929.5,-637.5 750.5,-637.5"/>
<text text-anchor="start" x="758.5" y="-666.5" font-family="Helvetica,sans-Serif" font-size="10.00">engine.collision.objects.</text>
<text text-anchor="start" x="758.5" y="-655.5" font-family="Helvetica,sans-Serif" font-size="10.00">EnemyCollisionObject.handleFixed</text>
<text text-anchor="middle" x="840" y="-644.5" font-family="Helvetica,sans-Serif" font-size="10.00">ObjectCollisionObject</text>
</a>
</g>
</g>
<!-- Node2&#45;&gt;Node9 -->
<g id="edge8" class="edge"><title>Node2&#45;&gt;Node9</title>
<path fill="none" stroke="midnightblue" d="M682.501,-469.633C689.634,-473.126 696.264,-477.513 702,-483 749.67,-528.602 692.601,-579.137 738,-627 741.661,-630.859 745.788,-634.242 750.229,-637.207"/>
<polygon fill="midnightblue" stroke="midnightblue" points="683.798,-466.381 673.227,-465.671 681.048,-472.818 683.798,-466.381"/>
</g>
<!-- Node10 -->
<g id="node10" class="node"><title>Node10</title>
<g id="a_node10"><a xlink:href="../../d4/daa/classengine_1_1collision_1_1objects_1_1_fixed_object_collision_object.html#af3d610bd55f501a9d616abaf648dd870" target="_top" xlink:title="engine.collision.objects.\lFixedObjectCollisionObject.handle\lHeroCollisionObject">
<polygon fill="white" stroke="black" points="752,-577.5 752,-618.5 928,-618.5 928,-577.5 752,-577.5"/>
<text text-anchor="start" x="760" y="-606.5" font-family="Helvetica,sans-Serif" font-size="10.00">engine.collision.objects.</text>
<text text-anchor="start" x="760" y="-595.5" font-family="Helvetica,sans-Serif" font-size="10.00">FixedObjectCollisionObject.handle</text>
<text text-anchor="middle" x="840" y="-584.5" font-family="Helvetica,sans-Serif" font-size="10.00">HeroCollisionObject</text>
</a>
</g>
</g>
<!-- Node2&#45;&gt;Node10 -->
<g id="edge9" class="edge"><title>Node2&#45;&gt;Node10</title>
<path fill="none" stroke="midnightblue" d="M682.671,-471.158C689.601,-474.339 696.148,-478.236 702,-483 733.499,-508.643 707.783,-539.857 738,-567 742.367,-570.922 747.22,-574.348 752.369,-577.341"/>
<polygon fill="midnightblue" stroke="midnightblue" points="683.595,-467.756 673.012,-467.25 680.97,-474.245 683.595,-467.756"/>
</g>
<!-- Node11 -->
<g id="node11" class="node"><title>Node11</title>
<g id="a_node11"><a xlink:href="../../d4/daa/classengine_1_1collision_1_1objects_1_1_fixed_object_collision_object.html#aabbf81a8ea0fca531c76cb6355553303" target="_top" xlink:title="engine.collision.objects.\lFixedObjectCollisionObject.handle\lPowerupCollisionObject">
<polygon fill="white" stroke="black" points="752,-517.5 752,-558.5 928,-558.5 928,-517.5 752,-517.5"/>
<text text-anchor="start" x="760" y="-546.5" font-family="Helvetica,sans-Serif" font-size="10.00">engine.collision.objects.</text>
<text text-anchor="start" x="760" y="-535.5" font-family="Helvetica,sans-Serif" font-size="10.00">FixedObjectCollisionObject.handle</text>
<text text-anchor="middle" x="840" y="-524.5" font-family="Helvetica,sans-Serif" font-size="10.00">PowerupCollisionObject</text>
</a>
</g>
</g>
<!-- Node2&#45;&gt;Node11 -->
<g id="edge10" class="edge"><title>Node2&#45;&gt;Node11</title>
<path fill="none" stroke="midnightblue" d="M682.853,-475.948C689.425,-478.037 695.865,-480.378 702,-483 719.913,-490.654 720.442,-499.565 738,-508 745.172,-511.446 752.823,-514.587 760.583,-517.427"/>
<polygon fill="midnightblue" stroke="midnightblue" points="683.731,-472.558 673.149,-473.063 681.737,-479.268 683.731,-472.558"/>
</g>
<!-- Node13 -->
<g id="node13" class="node"><title>Node13</title>
<g id="a_node13"><a xlink:href="../../da/d8d/classauthoring_1_1view_1_1propertiesview_1_1_game_object_properties.html#a666800a7063c728f47a848ab730362d3" target="_top" xlink:title="authoring.view.propertiesview.\lGameObjectProperties.GameObjectProperties">
<polygon fill="white" stroke="black" points="464.5,-493 464.5,-523 701.5,-523 701.5,-493 464.5,-493"/>
<text text-anchor="start" x="472.5" y="-511" font-family="Helvetica,sans-Serif" font-size="10.00">authoring.view.propertiesview.</text>
<text text-anchor="middle" x="583" y="-500" font-family="Helvetica,sans-Serif" font-size="10.00">GameObjectProperties.GameObjectProperties</text>
</a>
</g>
</g>
<!-- Node12&#45;&gt;Node13 -->
<g id="edge12" class="edge"><title>Node12&#45;&gt;Node13</title>
<path fill="none" stroke="midnightblue" d="M437.821,-506.343C446.625,-506.444 455.512,-506.546 464.321,-506.647"/>
<polygon fill="midnightblue" stroke="midnightblue" points="437.575,-502.84 427.535,-506.225 437.494,-509.839 437.575,-502.84"/>
</g>
<!-- Node14&#45;&gt;Node2 -->
<g id="edge15" class="edge"><title>Node14&#45;&gt;Node2</title>
<path fill="none" stroke="midnightblue" d="M412.66,-428.506C440.562,-433.53 471.071,-439.024 498.411,-443.948"/>
<polygon fill="midnightblue" stroke="midnightblue" points="412.97,-425.006 402.508,-426.678 411.73,-431.895 412.97,-425.006"/>
</g>
<!-- Node15 -->
<g id="node15" class="node"><title>Node15</title>
<g id="a_node15"><a xlink:href="../../df/d04/classengine_1_1actions_1_1_reverse_velocity_i_d_action.html#a68591c8a222c853219a8e380671d42be" target="_top" xlink:title="engine.actions.ReverseVelocity\lIDAction.applyPhysics">
<polygon fill="white" stroke="black" points="501,-395 501,-425 665,-425 665,-395 501,-395"/>
<text text-anchor="start" x="509" y="-413" font-family="Helvetica,sans-Serif" font-size="10.00">engine.actions.ReverseVelocity</text>
<text text-anchor="middle" x="583" y="-402" font-family="Helvetica,sans-Serif" font-size="10.00">IDAction.applyPhysics</text>
</a>
</g>
</g>
<!-- Node14&#45;&gt;Node15 -->
<g id="edge14" class="edge"><title>Node14&#45;&gt;Node15</title>
<path fill="none" stroke="midnightblue" d="M412.536,-411.299C441.239,-411.079 472.712,-410.837 500.661,-410.623"/>
<polygon fill="midnightblue" stroke="midnightblue" points="412.481,-407.799 402.508,-411.375 412.535,-414.799 412.481,-407.799"/>
</g>
<!-- Node16 -->
<g id="node16" class="node"><title>Node16</title>
<g id="a_node16"><a xlink:href="../../da/d1b/classengine_1_1collision_1_1objects_1_1_collision_composition.html#a18ddea9b9a7eb7e0b581645e7c42b439" target="_top" xlink:title="engine.collision.objects.\lCollisionComposition.reverseVelocites">
<polygon fill="white" stroke="black" points="484.5,-126 484.5,-156 681.5,-156 681.5,-126 484.5,-126"/>
<text text-anchor="start" x="492.5" y="-144" font-family="Helvetica,sans-Serif" font-size="10.00">engine.collision.objects.</text>
<text text-anchor="middle" x="583" y="-133" font-family="Helvetica,sans-Serif" font-size="10.00">CollisionComposition.reverseVelocites</text>
</a>
</g>
</g>
<!-- Node14&#45;&gt;Node16 -->
<g id="edge16" class="edge"><title>Node14&#45;&gt;Node16</title>
<path fill="none" stroke="midnightblue" d="M342.841,-389.322C394.632,-335.547 523.808,-201.422 567.382,-156.178"/>
<polygon fill="midnightblue" stroke="midnightblue" points="340.196,-387.023 335.78,-396.653 345.238,-391.879 340.196,-387.023"/>
</g>
<!-- Node17 -->
<g id="node17" class="node"><title>Node17</title>
<g id="a_node17"><a xlink:href="../../db/d3a/classengine_1_1collision_1_1objects_1_1_enemy_collision_object.html#a3fe5a215c527ee4263f5f1c2c851f58b" target="_top" xlink:title="engine.collision.objects.\lEnemyCollisionObject.handleEnemy\lCollisionObject">
<polygon fill="white" stroke="black" points="746,-120.5 746,-161.5 934,-161.5 934,-120.5 746,-120.5"/>
<text text-anchor="start" x="754" y="-149.5" font-family="Helvetica,sans-Serif" font-size="10.00">engine.collision.objects.</text>
<text text-anchor="start" x="754" y="-138.5" font-family="Helvetica,sans-Serif" font-size="10.00">EnemyCollisionObject.handleEnemy</text>
<text text-anchor="middle" x="840" y="-127.5" font-family="Helvetica,sans-Serif" font-size="10.00">CollisionObject</text>
</a>
</g>
</g>
<!-- Node16&#45;&gt;Node17 -->
<g id="edge17" class="edge"><title>Node16&#45;&gt;Node17</title>
<path fill="none" stroke="midnightblue" d="M692.241,-141C709.99,-141 728.248,-141 745.597,-141"/>
<polygon fill="midnightblue" stroke="midnightblue" points="691.86,-137.5 681.86,-141 691.86,-144.5 691.86,-137.5"/>
</g>
<!-- Node18 -->
<g id="node18" class="node"><title>Node18</title>
<g id="a_node18"><a xlink:href="../../d6/db8/classengine_1_1collision_1_1objects_1_1_powerup_collision_object.html#a76f3d506523e34f32efeca2f2957c2f3" target="_top" xlink:title="engine.collision.objects.\lPowerupCollisionObject.handleEnemy\lCollisionObject">
<polygon fill="white" stroke="black" points="742.5,-60.5 742.5,-101.5 937.5,-101.5 937.5,-60.5 742.5,-60.5"/>
<text text-anchor="start" x="750.5" y="-89.5" font-family="Helvetica,sans-Serif" font-size="10.00">engine.collision.objects.</text>
<text text-anchor="start" x="750.5" y="-78.5" font-family="Helvetica,sans-Serif" font-size="10.00">PowerupCollisionObject.handleEnemy</text>
<text text-anchor="middle" x="840" y="-67.5" font-family="Helvetica,sans-Serif" font-size="10.00">CollisionObject</text>
</a>
</g>
</g>
<!-- Node16&#45;&gt;Node18 -->
<g id="edge18" class="edge"><title>Node16&#45;&gt;Node18</title>
<path fill="none" stroke="midnightblue" d="M657.795,-123.637C687.184,-116.721 721.232,-108.71 751.827,-101.511"/>
<polygon fill="midnightblue" stroke="midnightblue" points="656.951,-120.239 648.018,-125.937 658.554,-127.053 656.951,-120.239"/>
</g>
<!-- Node19 -->
<g id="node19" class="node"><title>Node19</title>
<g id="a_node19"><a xlink:href="../../d6/db8/classengine_1_1collision_1_1objects_1_1_powerup_collision_object.html#a2bfd0d14c115bfbf39c23435d6660535" target="_top" xlink:title="engine.collision.objects.\lPowerupCollisionObject.handlePowerup\lCollisionObject">
<polygon fill="white" stroke="black" points="738.5,-0.5 738.5,-41.5 941.5,-41.5 941.5,-0.5 738.5,-0.5"/>
<text text-anchor="start" x="746.5" y="-29.5" font-family="Helvetica,sans-Serif" font-size="10.00">engine.collision.objects.</text>
<text text-anchor="start" x="746.5" y="-18.5" font-family="Helvetica,sans-Serif" font-size="10.00">PowerupCollisionObject.handlePowerup</text>
<text text-anchor="middle" x="840" y="-7.5" font-family="Helvetica,sans-Serif" font-size="10.00">CollisionObject</text>
</a>
</g>
</g>
<!-- Node16&#45;&gt;Node19 -->
<g id="edge19" class="edge"><title>Node16&#45;&gt;Node19</title>
<path fill="none" stroke="midnightblue" d="M614.477,-120.22C644.741,-100.312 693,-70.4947 738,-51 745.889,-47.5825 754.285,-44.4087 762.737,-41.5042"/>
<polygon fill="midnightblue" stroke="midnightblue" points="612.457,-117.36 606.061,-125.806 616.328,-123.192 612.457,-117.36"/>
</g>
<!-- Node20 -->
<g id="node20" class="node"><title>Node20</title>
<g id="a_node20"><a xlink:href="../../db/d3a/classengine_1_1collision_1_1objects_1_1_enemy_collision_object.html#aaf077e8098fd696546883adbb1081c04" target="_top" xlink:title="engine.collision.objects.\lEnemyCollisionObject.handlePowerup\lCollisionObject">
<polygon fill="white" stroke="black" points="742.5,-180.5 742.5,-221.5 937.5,-221.5 937.5,-180.5 742.5,-180.5"/>
<text text-anchor="start" x="750.5" y="-209.5" font-family="Helvetica,sans-Serif" font-size="10.00">engine.collision.objects.</text>
<text text-anchor="start" x="750.5" y="-198.5" font-family="Helvetica,sans-Serif" font-size="10.00">EnemyCollisionObject.handlePowerup</text>
<text text-anchor="middle" x="840" y="-187.5" font-family="Helvetica,sans-Serif" font-size="10.00">CollisionObject</text>
</a>
</g>
</g>
<!-- Node16&#45;&gt;Node20 -->
<g id="edge20" class="edge"><title>Node16&#45;&gt;Node20</title>
<path fill="none" stroke="midnightblue" d="M657.795,-158.363C687.184,-165.279 721.232,-173.29 751.827,-180.489"/>
<polygon fill="midnightblue" stroke="midnightblue" points="658.554,-154.947 648.018,-156.063 656.951,-161.761 658.554,-154.947"/>
</g>
</g>
</svg>
        <g id="navigator" transform="translate(0 0)" fill="#404254">
                <rect fill="#f2f5e9" fill-opacity="0.5" stroke="#606060" stroke-width=".5" x="0" y="0" width="60" height="60"/>
                <use id="zoomplus" xlink:href="#zoomPlus" x="17" y="9" onmousedown="handleZoom(evt,'in')"/>
                <use id="zoomminus" xlink:href="#zoomMin" x="42" y="9" onmousedown="handleZoom(evt,'out')"/>
                <use id="reset" xlink:href="#resetDef" x="30" y="36" onmousedown="handleReset()"/>
                <g id="arrowUp" xlink:href="#dirArrow" transform="translate(30 24)" onmousedown="handlePan(0,-1)">
                  <use xlink:href="#rim" fill="#404040">
                        <set attributeName="fill" to="#808080" begin="arrowUp.mouseover" end="arrowUp.mouseout"/>
                  </use>
                  <path fill="none" stroke="white" stroke-width="1.5" d="M0,-3.0v7 M-2.5,-0.5L0,-3.0L2.5,-0.5"/>
                </g>
                <g id="arrowRight" xlink:href="#dirArrow" transform="rotate(90) translate(36 -43)" onmousedown="handlePan(1,0)">
                  <use xlink:href="#rim" fill="#404040">
                        <set attributeName="fill" to="#808080" begin="arrowRight.mouseover" end="arrowRight.mouseout"/>
                  </use>
                  <path fill="none" stroke="white" stroke-width="1.5" d="M0,-3.0v7 M-2.5,-0.5L0,-3.0L2.5,-0.5"/>
                </g>
                <g id="arrowDown" xlink:href="#dirArrow" transform="rotate(180) translate(-30 -48)" onmousedown="handlePan(0,1)">
                  <use xlink:href="#rim" fill="#404040">
                        <set attributeName="fill" to="#808080" begin="arrowDown.mouseover" end="arrowDown.mouseout"/>
                  </use>
                  <path fill="none" stroke="white" stroke-width="1.5" d="M0,-3.0v7 M-2.5,-0.5L0,-3.0L2.5,-0.5"/>
                </g>
                <g id="arrowLeft" xlink:href="#dirArrow" transform="rotate(270) translate(-36 17)" onmousedown="handlePan(-1,0)">
                  <use xlink:href="#rim" fill="#404040">
                        <set attributeName="fill" to="#808080" begin="arrowLeft.mouseover" end="arrowLeft.mouseout"/>
                  </use>
                  <path fill="none" stroke="white" stroke-width="1.5" d="M0,-3.0v7 M-2.5,-0.5L0,-3.0L2.5,-0.5"/>
                </g>
        </g>
        <svg viewBox="0 0 15 15" width="100%" height="30px" preserveAspectRatio="xMaxYMin meet">
         <g id="arrow_out" transform="scale(0.3 0.3)">
          <a xlink:href="classengine_1_1game_object_1_1components_1_1_physics_body_ae282c9fc52683cc7b976cf4a57129573_icgraph_org.svg" target="_base">
           <rect id="button" ry="5" rx="5" y="6" x="6" height="38" width="38"
                fill="#f2f5e9" fill-opacity="0.5" stroke="#606060" stroke-width="1.0"/>
           <path id="arrow"
             d="M 11.500037,31.436501 C 11.940474,20.09759 22.043105,11.32322 32.158766,21.979434 L 37.068811,17.246167 C 37.068811,17.246167 37.088388,32 37.088388,32 L 22.160133,31.978069 C 22.160133,31.978069 26.997745,27.140456 26.997745,27.140456 C 18.528582,18.264221 13.291696,25.230495 11.500037,31.436501 z"
             style="fill:#404040;"/>
          </a>
         </g>
        </svg>
</svg>
