<?xml version="1.0" encoding="UTF-8" standalone="no"?>
<!DOCTYPE svg PUBLIC "-//W3C//DTD SVG 1.1//EN"
 "http://www.w3.org/Graphics/SVG/1.1/DTD/svg11.dtd">
<!-- Generated by graphviz version 2.36.0 (20140111.2315)
 -->
<!-- Title: engine.gameObject.components.PhysicsBody.addForce Pages: 1 -->
<svg width="828pt" height="262pt"
 viewBox="0.00 0.00 828.00 262.00" xmlns="http://www.w3.org/2000/svg" xmlns:xlink="http://www.w3.org/1999/xlink">
<g id="graph0" class="graph" transform="scale(1 1) rotate(0) translate(4 258)">
<title>engine.gameObject.components.PhysicsBody.addForce</title>
<polygon fill="white" stroke="none" points="-4,4 -4,-258 824,-258 824,4 -4,4"/>
<!-- Node1 -->
<g id="node1" class="node"><title>Node1</title>
<polygon fill="#bfbfbf" stroke="black" points="0,-90 0,-120 176,-120 176,-90 0,-90"/>
<text text-anchor="start" x="8" y="-108" font-family="Helvetica,sans-Serif" font-size="10.00">engine.gameObject.components.</text>
<text text-anchor="middle" x="88" y="-97" font-family="Helvetica,sans-Serif" font-size="10.00">PhysicsBody.addForce</text>
</g>
<!-- Node2 -->
<g id="node2" class="node"><title>Node2</title>
<g id="a_node2"><a xlink:href="../../da/d09/classengine_1_1physics_1_1_force.html#a74549d9d00eace015d869eb197607f8a" target="_top" xlink:title="engine.physics.Force.add\lOrChangeValue">
<polygon fill="white" stroke="black" points="231.5,-126 231.5,-156 368.5,-156 368.5,-126 231.5,-126"/>
<text text-anchor="start" x="239.5" y="-144" font-family="Helvetica,sans-Serif" font-size="10.00">engine.physics.Force.add</text>
<text text-anchor="middle" x="300" y="-133" font-family="Helvetica,sans-Serif" font-size="10.00">OrChangeValue</text>
</a>
</g>
</g>
<!-- Node1&#45;&gt;Node2 -->
<g id="edge1" class="edge"><title>Node1&#45;&gt;Node2</title>
<path fill="none" stroke="midnightblue" d="M176.235,-119.954C191.159,-122.513 206.576,-125.156 221.233,-127.669"/>
<polygon fill="midnightblue" stroke="midnightblue" points="220.796,-131.145 231.244,-129.385 221.979,-124.245 220.796,-131.145"/>
</g>
<!-- Node3 -->
<g id="node3" class="node"><title>Node3</title>
<g id="a_node3"><a xlink:href="../../dc/db5/classengine_1_1physics_1_1_physics_component.html#aabe6f17a9d86eaf42e9df5769182dfa5" target="_top" xlink:title="engine.physics.PhysicsComponent.to\lString">
<polygon fill="white" stroke="black" points="424,-224 424,-254 618,-254 618,-224 424,-224"/>
<text text-anchor="start" x="432" y="-242" font-family="Helvetica,sans-Serif" font-size="10.00">engine.physics.PhysicsComponent.to</text>
<text text-anchor="middle" x="521" y="-231" font-family="Helvetica,sans-Serif" font-size="10.00">String</text>
</a>
</g>
</g>
<!-- Node1&#45;&gt;Node3 -->
<g id="edge12" class="edge"><title>Node1&#45;&gt;Node3</title>
<path fill="none" stroke="midnightblue" d="M115.619,-120.095C140.048,-133.432 177.564,-152.632 212,-165 281.987,-190.137 363.972,-209.365 425.754,-221.913"/>
<polygon fill="midnightblue" stroke="midnightblue" points="425.385,-225.409 435.879,-223.947 426.763,-218.546 425.385,-225.409"/>
</g>
<!-- Node7 -->
<g id="node7" class="node"><title>Node7</title>
<g id="a_node7"><a xlink:href="../../d9/d9d/classengine_1_1game_object_1_1components_1_1_physics_body.html#aec651bb9ed66c5c0db0bbbd0c2f445ae" target="_top" xlink:title="engine.gameObject.components.\lPhysicsBody.balanceForces">
<polygon fill="white" stroke="black" points="212,-55 212,-85 388,-85 388,-55 212,-55"/>
<text text-anchor="start" x="220" y="-73" font-family="Helvetica,sans-Serif" font-size="10.00">engine.gameObject.components.</text>
<text text-anchor="middle" x="300" y="-62" font-family="Helvetica,sans-Serif" font-size="10.00">PhysicsBody.balanceForces</text>
</a>
</g>
</g>
<!-- Node1&#45;&gt;Node7 -->
<g id="edge6" class="edge"><title>Node1&#45;&gt;Node7</title>
<path fill="none" stroke="midnightblue" d="M176.235,-90.4609C184.658,-89.057 193.239,-87.6269 201.751,-86.2081"/>
<polygon fill="midnightblue" stroke="midnightblue" points="202.411,-89.6466 211.699,-84.5502 201.26,-82.7419 202.411,-89.6466"/>
</g>
<!-- Node11 -->
<g id="node11" class="node"><title>Node11</title>
<g id="a_node11"><a xlink:href="../../da/d09/classengine_1_1physics_1_1_force.html#a4cdc8c3b864f740daf42db4466aee3c7" target="_top" xlink:title="engine.physics.Force.iterator">
<polygon fill="white" stroke="black" points="222.5,-16.5 222.5,-35.5 377.5,-35.5 377.5,-16.5 222.5,-16.5"/>
<text text-anchor="middle" x="300" y="-23.5" font-family="Helvetica,sans-Serif" font-size="10.00">engine.physics.Force.iterator</text>
</a>
</g>
</g>
<!-- Node1&#45;&gt;Node11 -->
<g id="edge11" class="edge"><title>Node1&#45;&gt;Node11</title>
<path fill="none" stroke="midnightblue" d="M115.085,-89.996C139.46,-76.5335 177.213,-57.0877 212,-45 219.579,-42.3664 227.661,-40.0198 235.73,-37.9519"/>
<polygon fill="midnightblue" stroke="midnightblue" points="236.642,-41.3322 245.531,-35.5674 234.987,-34.5305 236.642,-41.3322"/>
</g>
<!-- Node2&#45;&gt;Node3 -->
<g id="edge2" class="edge"><title>Node2&#45;&gt;Node3</title>
<path fill="none" stroke="midnightblue" d="M322.242,-156.135C346.02,-172.46 386.185,-198.226 424,-214 429.894,-216.458 436.094,-218.729 442.388,-220.815"/>
<polygon fill="midnightblue" stroke="midnightblue" points="441.737,-224.279 452.326,-223.941 443.837,-217.602 441.737,-224.279"/>
</g>
<!-- Node4 -->
<g id="node4" class="node"><title>Node4</title>
<g id="a_node4"><a xlink:href="../../d0/de5/classengine_1_1physics_1_1_scalar.html#a676fb6b37fae2e642fcdec1109b4b233" target="_top" xlink:title="engine.physics.Scalar.get\lValue">
<polygon fill="white" stroke="black" points="452,-175 452,-205 590,-205 590,-175 452,-175"/>
<text text-anchor="start" x="460" y="-193" font-family="Helvetica,sans-Serif" font-size="10.00">engine.physics.Scalar.get</text>
<text text-anchor="middle" x="521" y="-182" font-family="Helvetica,sans-Serif" font-size="10.00">Value</text>
</a>
</g>
</g>
<!-- Node2&#45;&gt;Node4 -->
<g id="edge3" class="edge"><title>Node2&#45;&gt;Node4</title>
<path fill="none" stroke="midnightblue" d="M368.196,-156.035C391.844,-161.326 418.604,-167.313 442.998,-172.771"/>
<polygon fill="midnightblue" stroke="midnightblue" points="442.409,-176.226 452.932,-174.994 443.937,-169.395 442.409,-176.226"/>
</g>
<!-- Node5 -->
<g id="node5" class="node"><title>Node5</title>
<g id="a_node5"><a xlink:href="../../da/d09/classengine_1_1physics_1_1_force.html#af4e5e84df07e6613da4d81ee5d7777ca" target="_top" xlink:title="engine.physics.Force.calculate\lForce">
<polygon fill="white" stroke="black" points="440,-126 440,-156 602,-156 602,-126 440,-126"/>
<text text-anchor="start" x="448" y="-144" font-family="Helvetica,sans-Serif" font-size="10.00">engine.physics.Force.calculate</text>
<text text-anchor="middle" x="521" y="-133" font-family="Helvetica,sans-Serif" font-size="10.00">Force</text>
</a>
</g>
</g>
<!-- Node2&#45;&gt;Node5 -->
<g id="edge4" class="edge"><title>Node2&#45;&gt;Node5</title>
<path fill="none" stroke="midnightblue" d="M368.793,-141C388.029,-141 409.285,-141 429.63,-141"/>
<polygon fill="midnightblue" stroke="midnightblue" points="429.851,-144.5 439.851,-141 429.851,-137.5 429.851,-144.5"/>
</g>
<!-- Node6 -->
<g id="node6" class="node"><title>Node6</title>
<g id="a_node6"><a xlink:href="../../da/d09/classengine_1_1physics_1_1_force.html#a198437861f88d7351509aa4e947679e0" target="_top" xlink:title="engine.physics.Force.calculate\lMagnitude">
<polygon fill="white" stroke="black" points="440,-77 440,-107 602,-107 602,-77 440,-77"/>
<text text-anchor="start" x="448" y="-95" font-family="Helvetica,sans-Serif" font-size="10.00">engine.physics.Force.calculate</text>
<text text-anchor="middle" x="521" y="-84" font-family="Helvetica,sans-Serif" font-size="10.00">Magnitude</text>
</a>
</g>
</g>
<!-- Node2&#45;&gt;Node6 -->
<g id="edge5" class="edge"><title>Node2&#45;&gt;Node6</title>
<path fill="none" stroke="midnightblue" d="M368.196,-125.965C391.844,-120.674 418.604,-114.687 442.998,-109.229"/>
<polygon fill="midnightblue" stroke="midnightblue" points="443.937,-112.605 452.932,-107.006 442.409,-105.774 443.937,-112.605"/>
</g>
<!-- Node8 -->
<g id="node8" class="node"><title>Node8</title>
<g id="a_node8"><a xlink:href="../../d5/d1f/classengine_1_1physics_1_1_vector.html#a0ad05574ba8b82b2f265ebfa5869d27b" target="_top" xlink:title="engine.physics.Vector.setX">
<polygon fill="white" stroke="black" points="449,-38.5 449,-57.5 593,-57.5 593,-38.5 449,-38.5"/>
<text text-anchor="middle" x="521" y="-45.5" font-family="Helvetica,sans-Serif" font-size="10.00">engine.physics.Vector.setX</text>
</a>
</g>
</g>
<!-- Node7&#45;&gt;Node8 -->
<g id="edge7" class="edge"><title>Node7&#45;&gt;Node8</title>
<path fill="none" stroke="midnightblue" d="M388.184,-61.2418C404.878,-59.5648 422.294,-57.8152 438.791,-56.158"/>
<polygon fill="midnightblue" stroke="midnightblue" points="439.329,-59.6217 448.929,-55.1396 438.629,-52.6567 439.329,-59.6217"/>
</g>
<!-- Node10 -->
<g id="node10" class="node"><title>Node10</title>
<g id="a_node10"><a xlink:href="../../d5/d1f/classengine_1_1physics_1_1_vector.html#a4e646d4b9bf5a3904817560725776cec" target="_top" xlink:title="engine.physics.Vector.setY">
<polygon fill="white" stroke="black" points="449.5,-0.5 449.5,-19.5 592.5,-19.5 592.5,-0.5 449.5,-0.5"/>
<text text-anchor="middle" x="521" y="-7.5" font-family="Helvetica,sans-Serif" font-size="10.00">engine.physics.Vector.setY</text>
</a>
</g>
</g>
<!-- Node7&#45;&gt;Node10 -->
<g id="edge9" class="edge"><title>Node7&#45;&gt;Node10</title>
<path fill="none" stroke="midnightblue" d="M357.527,-54.9898C367.749,-51.9268 378.253,-48.547 388,-45 404.453,-39.0123 407.309,-34.288 424,-29 432.683,-26.2492 441.939,-23.8172 451.148,-21.6913"/>
<polygon fill="midnightblue" stroke="midnightblue" points="452.077,-25.0705 461.092,-19.5039 450.574,-18.234 452.077,-25.0705"/>
</g>
<!-- Node9 -->
<g id="node9" class="node"><title>Node9</title>
<g id="a_node9"><a xlink:href="../../d5/d1f/classengine_1_1physics_1_1_vector.html#a33c635f15f2f2e16f9b57542c6c3182f" target="_top" xlink:title="engine.physics.Vector.calculate\lMagnitude">
<polygon fill="white" stroke="black" points="654,-14 654,-44 820,-44 820,-14 654,-14"/>
<text text-anchor="start" x="662" y="-32" font-family="Helvetica,sans-Serif" font-size="10.00">engine.physics.Vector.calculate</text>
<text text-anchor="middle" x="737" y="-21" font-family="Helvetica,sans-Serif" font-size="10.00">Magnitude</text>
</a>
</g>
</g>
<!-- Node8&#45;&gt;Node9 -->
<g id="edge8" class="edge"><title>Node8&#45;&gt;Node9</title>
<path fill="none" stroke="midnightblue" d="M593.259,-41.6733C609.369,-40.2429 626.701,-38.7041 643.543,-37.2088"/>
<polygon fill="midnightblue" stroke="midnightblue" points="644.299,-40.6555 653.95,-36.2848 643.68,-33.6829 644.299,-40.6555"/>
</g>
<!-- Node10&#45;&gt;Node9 -->
<g id="edge10" class="edge"><title>Node10&#45;&gt;Node9</title>
<path fill="none" stroke="midnightblue" d="M592.665,-16.274C609.05,-17.7287 626.725,-19.298 643.88,-20.8211"/>
<polygon fill="midnightblue" stroke="midnightblue" points="643.636,-24.3131 653.906,-21.7113 644.255,-17.3406 643.636,-24.3131"/>
</g>
</g>
</svg>
