<?xml version="1.0" encoding="UTF-8" standalone="no"?>
<!DOCTYPE svg PUBLIC "-//W3C//DTD SVG 1.1//EN"
 "http://www.w3.org/Graphics/SVG/1.1/DTD/svg11.dtd">
<!-- Generated by graphviz version 2.36.0 (20140111.2315)
 -->
<!-- Title: engine.gameObject.components.PhysicsBody.changeVelocity Pages: 1 -->
<svg width="688pt" height="38pt"
 viewBox="0.00 0.00 688.00 38.00" xmlns="http://www.w3.org/2000/svg" xmlns:xlink="http://www.w3.org/1999/xlink">
<g id="graph0" class="graph" transform="scale(1 1) rotate(0) translate(4 34)">
<title>engine.gameObject.components.PhysicsBody.changeVelocity</title>
<polygon fill="white" stroke="none" points="-4,4 -4,-34 684,-34 684,4 -4,4"/>
<!-- Node1 -->
<g id="node1" class="node"><title>Node1</title>
<polygon fill="#bfbfbf" stroke="black" points="0,-0 0,-30 176,-30 176,-0 0,-0"/>
<text text-anchor="start" x="8" y="-18" font-family="Helvetica,sans-Serif" font-size="10.00">engine.gameObject.components.</text>
<text text-anchor="middle" x="88" y="-7" font-family="Helvetica,sans-Serif" font-size="10.00">PhysicsBody.changeVelocity</text>
</g>
<!-- Node2 -->
<g id="node2" class="node"><title>Node2</title>
<g id="a_node2"><a xlink:href="../../d9/d9d/classengine_1_1game_object_1_1components_1_1_physics_body.html#a322c2d4e1205c1fc9bafabe04f394cb6" target="_top" xlink:title="engine.gameObject.components.\lPhysicsBody.updatePhysicalCharacteristics">
<polygon fill="white" stroke="black" points="212.5,-0 212.5,-30 433.5,-30 433.5,-0 212.5,-0"/>
<text text-anchor="start" x="220.5" y="-18" font-family="Helvetica,sans-Serif" font-size="10.00">engine.gameObject.components.</text>
<text text-anchor="middle" x="323" y="-7" font-family="Helvetica,sans-Serif" font-size="10.00">PhysicsBody.updatePhysicalCharacteristics</text>
</a>
</g>
</g>
<!-- Node1&#45;&gt;Node2 -->
<g id="edge1" class="edge"><title>Node1&#45;&gt;Node2</title>
<path fill="none" stroke="midnightblue" d="M186.106,-15C194.704,-15 203.447,-15 212.14,-15"/>
<polygon fill="midnightblue" stroke="midnightblue" points="186.092,-11.5001 176.092,-15 186.092,-18.5001 186.092,-11.5001"/>
</g>
<!-- Node3 -->
<g id="node3" class="node"><title>Node3</title>
<g id="a_node3"><a xlink:href="../../d0/d7f/classengine_1_1game_object_1_1_game_object.html#ac7465f9b7adb414a894231d97e4ae91c" target="_top" xlink:title="engine.gameObject.GameObject.update">
<polygon fill="white" stroke="black" points="470,-5.5 470,-24.5 680,-24.5 680,-5.5 470,-5.5"/>
<text text-anchor="middle" x="575" y="-12.5" font-family="Helvetica,sans-Serif" font-size="10.00">engine.gameObject.GameObject.update</text>
</a>
</g>
</g>
<!-- Node2&#45;&gt;Node3 -->
<g id="edge2" class="edge"><title>Node2&#45;&gt;Node3</title>
<path fill="none" stroke="midnightblue" d="M443.873,-15C452.601,-15 461.362,-15 469.986,-15"/>
<polygon fill="midnightblue" stroke="midnightblue" points="443.654,-11.5001 433.654,-15 443.654,-18.5001 443.654,-11.5001"/>
</g>
</g>
</svg>
