<?xml version="1.0" encoding="UTF-8" standalone="no"?>
<!DOCTYPE svg PUBLIC "-//W3C//DTD SVG 1.1//EN"
 "http://www.w3.org/Graphics/SVG/1.1/DTD/svg11.dtd">
<!-- Generated by graphviz version 2.36.0 (20140111.2315)
 -->
<!-- Title: authoring.view.wizards.ActionChoicesVBox.getSelected Pages: 1 -->
<svg width="748pt" height="38pt"
 viewBox="0.00 0.00 748.00 38.00" xmlns="http://www.w3.org/2000/svg" xmlns:xlink="http://www.w3.org/1999/xlink">
<g id="graph0" class="graph" transform="scale(1 1) rotate(0) translate(4 34)">
<title>authoring.view.wizards.ActionChoicesVBox.getSelected</title>
<polygon fill="white" stroke="none" points="-4,4 -4,-34 744,-34 744,4 -4,4"/>
<!-- Node1 -->
<g id="node1" class="node"><title>Node1</title>
<polygon fill="#bfbfbf" stroke="black" points="0,-0 0,-30 156,-30 156,-0 0,-0"/>
<text text-anchor="start" x="8" y="-18" font-family="Helvetica,sans-Serif" font-size="10.00">authoring.view.wizards.Action</text>
<text text-anchor="middle" x="78" y="-7" font-family="Helvetica,sans-Serif" font-size="10.00">ChoicesVBox.getSelected</text>
</g>
<!-- Node2 -->
<g id="node2" class="node"><title>Node2</title>
<g id="a_node2"><a xlink:href="../../d2/d02/classauthoring_1_1view_1_1wizards_1_1_action_choice_wizard.html#aa2dc1f8614d6d90b0b1fedf46e29d877" target="_top" xlink:title="authoring.view.wizards.Action\lChoiceWizard.getSelectedAction">
<polygon fill="white" stroke="black" points="192.5,-0 192.5,-30 363.5,-30 363.5,-0 192.5,-0"/>
<text text-anchor="start" x="200.5" y="-18" font-family="Helvetica,sans-Serif" font-size="10.00">authoring.view.wizards.Action</text>
<text text-anchor="middle" x="278" y="-7" font-family="Helvetica,sans-Serif" font-size="10.00">ChoiceWizard.getSelectedAction</text>
</a>
</g>
</g>
<!-- Node1&#45;&gt;Node2 -->
<g id="edge1" class="edge"><title>Node1&#45;&gt;Node2</title>
<path fill="none" stroke="midnightblue" d="M166.193,-15C174.837,-15 183.602,-15 192.22,-15"/>
<polygon fill="midnightblue" stroke="midnightblue" points="166.119,-11.5001 156.119,-15 166.119,-18.5001 166.119,-11.5001"/>
</g>
<!-- Node3 -->
<g id="node3" class="node"><title>Node3</title>
<g id="a_node3"><a xlink:href="../../d9/da4/classauthoring_1_1eventhandlers_1_1_add_action_handler.html#a9b96685d69e045a901bc1b55bc3fd327" target="_top" xlink:title="authoring.eventhandlers.\lAddActionHandler.createAction">
<polygon fill="white" stroke="black" points="400,-0 400,-30 566,-30 566,-0 400,-0"/>
<text text-anchor="start" x="408" y="-18" font-family="Helvetica,sans-Serif" font-size="10.00">authoring.eventhandlers.</text>
<text text-anchor="middle" x="483" y="-7" font-family="Helvetica,sans-Serif" font-size="10.00">AddActionHandler.createAction</text>
</a>
</g>
</g>
<!-- Node2&#45;&gt;Node3 -->
<g id="edge2" class="edge"><title>Node2&#45;&gt;Node3</title>
<path fill="none" stroke="midnightblue" d="M373.779,-15C382.471,-15 391.229,-15 399.797,-15"/>
<polygon fill="midnightblue" stroke="midnightblue" points="373.62,-11.5001 363.62,-15 373.62,-18.5001 373.62,-11.5001"/>
</g>
<!-- Node4 -->
<g id="node4" class="node"><title>Node4</title>
<g id="a_node4"><a xlink:href="../../d9/da4/classauthoring_1_1eventhandlers_1_1_add_action_handler.html#acbb13ad13aa3ac6617d6caaff858abdc" target="_top" xlink:title="authoring.eventhandlers.\lAddActionHandler.handle">
<polygon fill="white" stroke="black" points="602.5,-0 602.5,-30 739.5,-30 739.5,-0 602.5,-0"/>
<text text-anchor="start" x="610.5" y="-18" font-family="Helvetica,sans-Serif" font-size="10.00">authoring.eventhandlers.</text>
<text text-anchor="middle" x="671" y="-7" font-family="Helvetica,sans-Serif" font-size="10.00">AddActionHandler.handle</text>
</a>
</g>
</g>
<!-- Node3&#45;&gt;Node4 -->
<g id="edge3" class="edge"><title>Node3&#45;&gt;Node4</title>
<path fill="none" stroke="midnightblue" d="M576.346,-15C585.073,-15 593.807,-15 602.241,-15"/>
<polygon fill="midnightblue" stroke="midnightblue" points="576.124,-11.5001 566.124,-15 576.124,-18.5001 576.124,-11.5001"/>
</g>
</g>
</svg>
