<?xml version="1.0" encoding="UTF-8" standalone="no"?>
<!DOCTYPE svg PUBLIC "-//W3C//DTD SVG 1.1//EN"
 "http://www.w3.org/Graphics/SVG/1.1/DTD/svg11.dtd">
<!-- Generated by graphviz version 2.36.0 (20140111.2315)
 -->
<!-- Title: authoring.view.wizards.ActionChoicesVBox.initializeGroup Pages: 1 -->
<svg width="374pt" height="38pt"
 viewBox="0.00 0.00 374.00 38.00" xmlns="http://www.w3.org/2000/svg" xmlns:xlink="http://www.w3.org/1999/xlink">
<g id="graph0" class="graph" transform="scale(1 1) rotate(0) translate(4 34)">
<title>authoring.view.wizards.ActionChoicesVBox.initializeGroup</title>
<polygon fill="white" stroke="none" points="-4,4 -4,-34 370,-34 370,4 -4,4"/>
<!-- Node1 -->
<g id="node1" class="node"><title>Node1</title>
<polygon fill="#bfbfbf" stroke="black" points="0,-0 0,-30 156,-30 156,-0 0,-0"/>
<text text-anchor="start" x="8" y="-18" font-family="Helvetica,sans-Serif" font-size="10.00">authoring.view.wizards.Action</text>
<text text-anchor="middle" x="78" y="-7" font-family="Helvetica,sans-Serif" font-size="10.00">ChoicesVBox.initializeGroup</text>
</g>
<!-- Node2 -->
<g id="node2" class="node"><title>Node2</title>
<g id="a_node2"><a xlink:href="../../d4/d31/classauthoring_1_1view_1_1wizards_1_1_action_choices_v_box.html#a3b6115113d10b98fa51bf75fc9fd45a5" target="_top" xlink:title="authoring.view.wizards.Action\lChoicesVBox.ActionChoicesVBox">
<polygon fill="white" stroke="black" points="192,-0 192,-30 366,-30 366,-0 192,-0"/>
<text text-anchor="start" x="200" y="-18" font-family="Helvetica,sans-Serif" font-size="10.00">authoring.view.wizards.Action</text>
<text text-anchor="middle" x="279" y="-7" font-family="Helvetica,sans-Serif" font-size="10.00">ChoicesVBox.ActionChoicesVBox</text>
</a>
</g>
</g>
<!-- Node1&#45;&gt;Node2 -->
<g id="edge1" class="edge"><title>Node1&#45;&gt;Node2</title>
<path fill="none" stroke="midnightblue" d="M166.453,-15C174.9,-15 183.465,-15 191.9,-15"/>
<polygon fill="midnightblue" stroke="midnightblue" points="166.223,-11.5001 156.223,-15 166.223,-18.5001 166.223,-11.5001"/>
</g>
</g>
</svg>
