<?xml version="1.0" encoding="UTF-8" standalone="no"?>
<!DOCTYPE svg PUBLIC "-//W3C//DTD SVG 1.1//EN"
 "http://www.w3.org/Graphics/SVG/1.1/DTD/svg11.dtd">
<!-- Generated by graphviz version 2.36.0 (20140111.2315)
 -->
<!-- Title: authoring.view.conditionsview.ConditionOptions.ConditionOptions Pages: 1 -->
<svg width="628pt" height="38pt"
 viewBox="0.00 0.00 628.00 38.00" xmlns="http://www.w3.org/2000/svg" xmlns:xlink="http://www.w3.org/1999/xlink">
<g id="graph0" class="graph" transform="scale(1 1) rotate(0) translate(4 34)">
<title>authoring.view.conditionsview.ConditionOptions.ConditionOptions</title>
<polygon fill="white" stroke="none" points="-4,4 -4,-34 624,-34 624,4 -4,4"/>
<!-- Node1 -->
<g id="node1" class="node"><title>Node1</title>
<polygon fill="#bfbfbf" stroke="black" points="0.5,-0 0.5,-30 183.5,-30 183.5,-0 0.5,-0"/>
<text text-anchor="start" x="8.5" y="-18" font-family="Helvetica,sans-Serif" font-size="10.00">authoring.view.conditionsview.</text>
<text text-anchor="middle" x="92" y="-7" font-family="Helvetica,sans-Serif" font-size="10.00">ConditionOptions.ConditionOptions</text>
</g>
<!-- Node2 -->
<g id="node2" class="node"><title>Node2</title>
<g id="a_node2"><a xlink:href="../../d1/dfb/classauthoring_1_1view_1_1conditionsview_1_1_condition_options.html#a5e70e2d69023ac0405ce0f9f1e5daead" target="_top" xlink:title="authoring.view.conditionsview.\lConditionOptions.addNewButton">
<polygon fill="white" stroke="black" points="220,-0 220,-30 392,-30 392,-0 220,-0"/>
<text text-anchor="start" x="228" y="-18" font-family="Helvetica,sans-Serif" font-size="10.00">authoring.view.conditionsview.</text>
<text text-anchor="middle" x="306" y="-7" font-family="Helvetica,sans-Serif" font-size="10.00">ConditionOptions.addNewButton</text>
</a>
</g>
</g>
<!-- Node1&#45;&gt;Node2 -->
<g id="edge1" class="edge"><title>Node1&#45;&gt;Node2</title>
<path fill="none" stroke="midnightblue" d="M183.522,-15C192.177,-15 200.973,-15 209.672,-15"/>
<polygon fill="midnightblue" stroke="midnightblue" points="209.825,-18.5001 219.825,-15 209.825,-11.5001 209.825,-18.5001"/>
</g>
<!-- Node3 -->
<g id="node3" class="node"><title>Node3</title>
<g id="a_node3"><a xlink:href="../../df/dee/classauthoring_1_1view_1_1generalcollectionview_1_1_collection_options.html#aa9e60e3c5350310c32dd6108cbcb3987" target="_top" xlink:title="authoring.view.generalcollectionview.\lCollectionOptions.makeButton">
<polygon fill="white" stroke="black" points="428.5,-0 428.5,-30 619.5,-30 619.5,-0 428.5,-0"/>
<text text-anchor="start" x="436.5" y="-18" font-family="Helvetica,sans-Serif" font-size="10.00">authoring.view.generalcollectionview.</text>
<text text-anchor="middle" x="524" y="-7" font-family="Helvetica,sans-Serif" font-size="10.00">CollectionOptions.makeButton</text>
</a>
</g>
</g>
<!-- Node2&#45;&gt;Node3 -->
<g id="edge2" class="edge"><title>Node2&#45;&gt;Node3</title>
<path fill="none" stroke="midnightblue" d="M392.059,-15C400.629,-15 409.401,-15 418.146,-15"/>
<polygon fill="midnightblue" stroke="midnightblue" points="418.385,-18.5001 428.385,-15 418.385,-11.5001 418.385,-18.5001"/>
</g>
</g>
</svg>
