<?xml version="1.0" encoding="UTF-8" standalone="no"?>
<!DOCTYPE svg PUBLIC "-//W3C//DTD SVG 1.1//EN"
 "http://www.w3.org/Graphics/SVG/1.1/DTD/svg11.dtd">
<!-- Generated by graphviz version 2.36.0 (20140111.2315)
 -->
<!-- Title: engine.gameObject.Identifiable Pages: 1 -->
<svg width="798pt" height="279pt"
 viewBox="0.00 0.00 798.00 279.00" xmlns="http://www.w3.org/2000/svg" xmlns:xlink="http://www.w3.org/1999/xlink">
<g id="graph0" class="graph" transform="scale(1 1) rotate(0) translate(4 275)">
<title>engine.gameObject.Identifiable</title>
<polygon fill="white" stroke="none" points="-4,4 -4,-275 794,-275 794,4 -4,4"/>
<!-- Node1 -->
<g id="node1" class="node"><title>Node1</title>
<polygon fill="#bfbfbf" stroke="black" points="0.5,-60.5 0.5,-79.5 165.5,-79.5 165.5,-60.5 0.5,-60.5"/>
<text text-anchor="middle" x="83" y="-67.5" font-family="Helvetica,sans-Serif" font-size="10.00">engine.gameObject.Identifiable</text>
</g>
<!-- Node2 -->
<g id="node2" class="node"><title>Node2</title>
<g id="a_node2"><a xlink:href="../../d1/d3b/classengine_1_1conditions_1_1_condition.html" target="_top" xlink:title="engine.conditions.Condition">
<polygon fill="white" stroke="black" points="215.5,-148.5 215.5,-167.5 364.5,-167.5 364.5,-148.5 215.5,-148.5"/>
<text text-anchor="middle" x="290" y="-155.5" font-family="Helvetica,sans-Serif" font-size="10.00">engine.conditions.Condition</text>
</a>
</g>
</g>
<!-- Node1&#45;&gt;Node2 -->
<g id="edge1" class="edge"><title>Node1&#45;&gt;Node2</title>
<path fill="none" stroke="midnightblue" d="M115.77,-83.6379C157.631,-101.608 230.21,-132.763 266.699,-148.427"/>
<polygon fill="midnightblue" stroke="midnightblue" points="116.899,-80.3135 106.329,-79.5851 114.137,-86.7459 116.899,-80.3135"/>
</g>
<!-- Node11 -->
<g id="node11" class="node"><title>Node11</title>
<g id="a_node11"><a xlink:href="../../de/d27/classengine_1_1game_object_1_1components_1_1_component.html" target="_top" xlink:title="engine.gameObject.components.\lComponent">
<polygon fill="white" stroke="black" points="202,-77 202,-107 378,-107 378,-77 202,-77"/>
<text text-anchor="start" x="210" y="-95" font-family="Helvetica,sans-Serif" font-size="10.00">engine.gameObject.components.</text>
<text text-anchor="middle" x="290" y="-84" font-family="Helvetica,sans-Serif" font-size="10.00">Component</text>
</a>
</g>
</g>
<!-- Node1&#45;&gt;Node11 -->
<g id="edge10" class="edge"><title>Node1&#45;&gt;Node11</title>
<path fill="none" stroke="midnightblue" d="M175.769,-79.8484C184.477,-80.7829 193.29,-81.7286 201.951,-82.6582"/>
<polygon fill="midnightblue" stroke="midnightblue" points="175.927,-76.3453 165.61,-78.7582 175.18,-83.3053 175.927,-76.3453"/>
</g>
<!-- Node13 -->
<g id="node13" class="node"><title>Node13</title>
<g id="a_node13"><a xlink:href="../../d0/d7f/classengine_1_1game_object_1_1_game_object.html" target="_top" xlink:title="engine.gameObject.GameObject">
<polygon fill="white" stroke="black" points="203.5,-38.5 203.5,-57.5 376.5,-57.5 376.5,-38.5 203.5,-38.5"/>
<text text-anchor="middle" x="290" y="-45.5" font-family="Helvetica,sans-Serif" font-size="10.00">engine.gameObject.GameObject</text>
</a>
</g>
</g>
<!-- Node1&#45;&gt;Node13 -->
<g id="edge12" class="edge"><title>Node1&#45;&gt;Node13</title>
<path fill="none" stroke="midnightblue" d="M175.562,-60.1738C184.79,-59.1835 194.138,-58.1803 203.302,-57.1969"/>
<polygon fill="midnightblue" stroke="midnightblue" points="175.18,-56.6947 165.61,-61.2418 175.927,-63.6547 175.18,-56.6947"/>
</g>
<!-- Node14 -->
<g id="node14" class="node"><title>Node14</title>
<g id="a_node14"><a xlink:href="../../df/d84/classengine_1_1level_1_1_level.html" target="_top" xlink:title="engine.level.Level">
<polygon fill="white" stroke="black" points="239.5,-0.5 239.5,-19.5 340.5,-19.5 340.5,-0.5 239.5,-0.5"/>
<text text-anchor="middle" x="290" y="-7.5" font-family="Helvetica,sans-Serif" font-size="10.00">engine.level.Level</text>
</a>
</g>
</g>
<!-- Node1&#45;&gt;Node14 -->
<g id="edge13" class="edge"><title>Node1&#45;&gt;Node14</title>
<path fill="none" stroke="midnightblue" d="M118.058,-56.9543C141.445,-48.2965 173.324,-37.082 202,-29 214.351,-25.5191 227.838,-22.2981 240.427,-19.5344"/>
<polygon fill="midnightblue" stroke="midnightblue" points="116.732,-53.7133 108.589,-60.4916 119.181,-60.2707 116.732,-53.7133"/>
</g>
<!-- Node3 -->
<g id="node3" class="node"><title>Node3</title>
<g id="a_node3"><a xlink:href="../../d5/dcb/classengine_1_1conditions_1_1_button_press_condition.html" target="_top" xlink:title="engine.conditions.Button\lPressCondition">
<polygon fill="white" stroke="black" points="434,-241 434,-271 570,-271 570,-241 434,-241"/>
<text text-anchor="start" x="442" y="-259" font-family="Helvetica,sans-Serif" font-size="10.00">engine.conditions.Button</text>
<text text-anchor="middle" x="502" y="-248" font-family="Helvetica,sans-Serif" font-size="10.00">PressCondition</text>
</a>
</g>
</g>
<!-- Node2&#45;&gt;Node3 -->
<g id="edge2" class="edge"><title>Node2&#45;&gt;Node3</title>
<path fill="none" stroke="midnightblue" d="M312.735,-173.238C336.629,-189.421 376.604,-214.848 414,-231 422.512,-234.677 431.722,-237.986 440.855,-240.903"/>
<polygon fill="midnightblue" stroke="midnightblue" points="314.631,-170.295 304.404,-167.527 310.673,-176.068 314.631,-170.295"/>
</g>
<!-- Node4 -->
<g id="node4" class="node"><title>Node4</title>
<g id="a_node4"><a xlink:href="../../d5/df0/classengine_1_1conditions_1_1_button_release_condition.html" target="_top" xlink:title="engine.conditions.Button\lReleaseCondition">
<polygon fill="white" stroke="black" points="434,-192 434,-222 570,-222 570,-192 434,-192"/>
<text text-anchor="start" x="442" y="-210" font-family="Helvetica,sans-Serif" font-size="10.00">engine.conditions.Button</text>
<text text-anchor="middle" x="502" y="-199" font-family="Helvetica,sans-Serif" font-size="10.00">ReleaseCondition</text>
</a>
</g>
</g>
<!-- Node2&#45;&gt;Node4 -->
<g id="edge3" class="edge"><title>Node2&#45;&gt;Node4</title>
<path fill="none" stroke="midnightblue" d="M341.487,-169.78C369.98,-176.429 405.883,-184.806 436.409,-191.929"/>
<polygon fill="midnightblue" stroke="midnightblue" points="342.273,-166.37 331.739,-167.506 340.682,-173.187 342.273,-166.37"/>
</g>
<!-- Node5 -->
<g id="node5" class="node"><title>Node5</title>
<g id="a_node5"><a xlink:href="../../db/dfc/classengine_1_1conditions_1_1_game_object_condition.html" target="_top" xlink:title="engine.conditions.GameObject\lCondition">
<polygon fill="white" stroke="black" points="420,-143 420,-173 584,-173 584,-143 420,-143"/>
<text text-anchor="start" x="428" y="-161" font-family="Helvetica,sans-Serif" font-size="10.00">engine.conditions.GameObject</text>
<text text-anchor="middle" x="502" y="-150" font-family="Helvetica,sans-Serif" font-size="10.00">Condition</text>
</a>
</g>
</g>
<!-- Node2&#45;&gt;Node5 -->
<g id="edge4" class="edge"><title>Node2&#45;&gt;Node5</title>
<path fill="none" stroke="midnightblue" d="M374.905,-158C389.742,-158 405.165,-158 419.922,-158"/>
<polygon fill="midnightblue" stroke="midnightblue" points="374.743,-154.5 364.743,-158 374.743,-161.5 374.743,-154.5"/>
</g>
<!-- Node9 -->
<g id="node9" class="node"><title>Node9</title>
<g id="a_node9"><a xlink:href="../../d7/d6b/classengine_1_1conditions_1_1_time_condition.html" target="_top" xlink:title="engine.conditions.TimeCondition">
<polygon fill="white" stroke="black" points="416,-104.5 416,-123.5 588,-123.5 588,-104.5 416,-104.5"/>
<text text-anchor="middle" x="502" y="-111.5" font-family="Helvetica,sans-Serif" font-size="10.00">engine.conditions.TimeCondition</text>
</a>
</g>
</g>
<!-- Node2&#45;&gt;Node9 -->
<g id="edge8" class="edge"><title>Node2&#45;&gt;Node9</title>
<path fill="none" stroke="midnightblue" d="M346.364,-146.4C380.403,-139.268 423.483,-130.242 455.522,-123.529"/>
<polygon fill="midnightblue" stroke="midnightblue" points="345.637,-142.976 336.567,-148.453 347.072,-149.827 345.637,-142.976"/>
</g>
<!-- Node6 -->
<g id="node6" class="node"><title>Node6</title>
<g id="a_node6"><a xlink:href="../../d0/d3a/classengine_1_1conditions_1_1_boundary_condition_x.html" target="_top" xlink:title="engine.conditions.Boundary\lConditionX">
<polygon fill="white" stroke="black" points="633.5,-217 633.5,-247 782.5,-247 782.5,-217 633.5,-217"/>
<text text-anchor="start" x="641.5" y="-235" font-family="Helvetica,sans-Serif" font-size="10.00">engine.conditions.Boundary</text>
<text text-anchor="middle" x="708" y="-224" font-family="Helvetica,sans-Serif" font-size="10.00">ConditionX</text>
</a>
</g>
</g>
<!-- Node5&#45;&gt;Node6 -->
<g id="edge5" class="edge"><title>Node5&#45;&gt;Node6</title>
<path fill="none" stroke="midnightblue" d="M573.713,-176.299C579.302,-178.354 584.793,-180.587 590,-183 607.448,-191.085 608.632,-198.745 626,-207 633.842,-210.727 642.372,-214.065 650.856,-216.993"/>
<polygon fill="midnightblue" stroke="midnightblue" points="574.842,-172.986 564.248,-173.007 572.543,-179.598 574.842,-172.986"/>
</g>
<!-- Node7 -->
<g id="node7" class="node"><title>Node7</title>
<g id="a_node7"><a xlink:href="../../d2/dd3/classengine_1_1conditions_1_1_boundary_condition_y.html" target="_top" xlink:title="engine.conditions.Boundary\lConditionY">
<polygon fill="white" stroke="black" points="633.5,-168 633.5,-198 782.5,-198 782.5,-168 633.5,-168"/>
<text text-anchor="start" x="641.5" y="-186" font-family="Helvetica,sans-Serif" font-size="10.00">engine.conditions.Boundary</text>
<text text-anchor="middle" x="708" y="-175" font-family="Helvetica,sans-Serif" font-size="10.00">ConditionY</text>
</a>
</g>
</g>
<!-- Node5&#45;&gt;Node7 -->
<g id="edge6" class="edge"><title>Node5&#45;&gt;Node7</title>
<path fill="none" stroke="midnightblue" d="M594.174,-169.173C607.281,-170.78 620.629,-172.415 633.34,-173.973"/>
<polygon fill="midnightblue" stroke="midnightblue" points="594.564,-165.695 584.212,-167.952 593.712,-172.643 594.564,-165.695"/>
</g>
<!-- Node8 -->
<g id="node8" class="node"><title>Node8</title>
<g id="a_node8"><a xlink:href="../../d9/dd2/classengine_1_1conditions_1_1_movement_condition.html" target="_top" xlink:title="engine.conditions.Movement\lCondition">
<polygon fill="white" stroke="black" points="630.5,-119 630.5,-149 785.5,-149 785.5,-119 630.5,-119"/>
<text text-anchor="start" x="638.5" y="-137" font-family="Helvetica,sans-Serif" font-size="10.00">engine.conditions.Movement</text>
<text text-anchor="middle" x="708" y="-126" font-family="Helvetica,sans-Serif" font-size="10.00">Condition</text>
</a>
</g>
</g>
<!-- Node5&#45;&gt;Node8 -->
<g id="edge7" class="edge"><title>Node5&#45;&gt;Node8</title>
<path fill="none" stroke="midnightblue" d="M594.28,-147.261C606.339,-145.842 618.6,-144.4 630.379,-143.014"/>
<polygon fill="midnightblue" stroke="midnightblue" points="593.735,-143.801 584.212,-148.446 594.553,-150.753 593.735,-143.801"/>
</g>
<!-- Node10 -->
<g id="node10" class="node"><title>Node10</title>
<g id="a_node10"><a xlink:href="../../d0/d7d/classengine_1_1conditions_1_1_type_collision_condition.html" target="_top" xlink:title="engine.conditions.TypeCollision\lCondition">
<polygon fill="white" stroke="black" points="626,-70 626,-100 790,-100 790,-70 626,-70"/>
<text text-anchor="start" x="634" y="-88" font-family="Helvetica,sans-Serif" font-size="10.00">engine.conditions.TypeCollision</text>
<text text-anchor="middle" x="708" y="-77" font-family="Helvetica,sans-Serif" font-size="10.00">Condition</text>
</a>
</g>
</g>
<!-- Node9&#45;&gt;Node10 -->
<g id="edge9" class="edge"><title>Node9&#45;&gt;Node10</title>
<path fill="none" stroke="midnightblue" d="M580.227,-103.022C595.08,-100.91 610.68,-98.6926 625.659,-96.5632"/>
<polygon fill="midnightblue" stroke="midnightblue" points="579.488,-99.5915 570.08,-104.464 580.473,-106.522 579.488,-99.5915"/>
</g>
<!-- Node12 -->
<g id="node12" class="node"><title>Node12</title>
<g id="a_node12"><a xlink:href="../../d5/d46/classengine_1_1game_object_1_1components_1_1_null_component.html" target="_top" xlink:title="engine.gameObject.components.\lNullComponent">
<polygon fill="white" stroke="black" points="414,-55 414,-85 590,-85 590,-55 414,-55"/>
<text text-anchor="start" x="422" y="-73" font-family="Helvetica,sans-Serif" font-size="10.00">engine.gameObject.components.</text>
<text text-anchor="middle" x="502" y="-62" font-family="Helvetica,sans-Serif" font-size="10.00">NullComponent</text>
</a>
</g>
</g>
<!-- Node11&#45;&gt;Node12 -->
<g id="edge11" class="edge"><title>Node11&#45;&gt;Node12</title>
<path fill="none" stroke="midnightblue" d="M388.182,-81.8191C396.694,-80.9273 405.275,-80.0284 413.699,-79.1458"/>
<polygon fill="midnightblue" stroke="midnightblue" points="387.815,-78.3382 378.235,-82.8611 388.545,-85.3001 387.815,-78.3382"/>
</g>
</g>
</svg>
