<?xml version="1.0" encoding="UTF-8" standalone="no"?>
<!DOCTYPE svg PUBLIC "-//W3C//DTD SVG 1.1//EN"
 "http://www.w3.org/Graphics/SVG/1.1/DTD/svg11.dtd">
<!-- Generated by graphviz version 2.36.0 (20140111.2315)
 -->
<!-- Title: engine.actions.AudioClipAction.initialize Pages: 1 -->
<svg width="724pt" height="87pt"
 viewBox="0.00 0.00 724.00 87.00" xmlns="http://www.w3.org/2000/svg" xmlns:xlink="http://www.w3.org/1999/xlink">
<g id="graph0" class="graph" transform="scale(1 1) rotate(0) translate(4 83)">
<title>engine.actions.AudioClipAction.initialize</title>
<polygon fill="white" stroke="none" points="-4,4 -4,-83 720,-83 720,4 -4,4"/>
<!-- Node1 -->
<g id="node1" class="node"><title>Node1</title>
<polygon fill="#bfbfbf" stroke="black" points="0,-24 0,-54 134,-54 134,-24 0,-24"/>
<text text-anchor="start" x="8" y="-42" font-family="Helvetica,sans-Serif" font-size="10.00">engine.actions.AudioClip</text>
<text text-anchor="middle" x="67" y="-31" font-family="Helvetica,sans-Serif" font-size="10.00">Action.initialize</text>
</g>
<!-- Node2 -->
<g id="node2" class="node"><title>Node2</title>
<g id="a_node2"><a xlink:href="../../da/d90/classengine_1_1sound_1_1_sound_utility.html#a59253967753035aaf21c8537a1804593" target="_top" xlink:title="engine.sound.SoundUtility.add\lAudioClip">
<polygon fill="white" stroke="black" points="175.5,-49 175.5,-79 336.5,-79 336.5,-49 175.5,-49"/>
<text text-anchor="start" x="183.5" y="-67" font-family="Helvetica,sans-Serif" font-size="10.00">engine.sound.SoundUtility.add</text>
<text text-anchor="middle" x="256" y="-56" font-family="Helvetica,sans-Serif" font-size="10.00">AudioClip</text>
</a>
</g>
</g>
<!-- Node1&#45;&gt;Node2 -->
<g id="edge1" class="edge"><title>Node1&#45;&gt;Node2</title>
<path fill="none" stroke="midnightblue" d="M134.192,-47.8492C144.304,-49.2011 154.883,-50.6154 165.396,-52.0209"/>
<polygon fill="midnightblue" stroke="midnightblue" points="165.063,-55.5074 175.438,-53.3634 165.99,-48.5691 165.063,-55.5074"/>
</g>
<!-- Node5 -->
<g id="node5" class="node"><title>Node5</title>
<g id="a_node5"><a xlink:href="../../d6/d94/classengine_1_1_game_manager.html#aea63d2fcd3650f700da943e9ad2d8fa4" target="_top" xlink:title="engine.GameManager.getSound\lUtility">
<polygon fill="white" stroke="black" points="170,-0 170,-30 342,-30 342,-0 170,-0"/>
<text text-anchor="start" x="178" y="-18" font-family="Helvetica,sans-Serif" font-size="10.00">engine.GameManager.getSound</text>
<text text-anchor="middle" x="256" y="-7" font-family="Helvetica,sans-Serif" font-size="10.00">Utility</text>
</a>
</g>
</g>
<!-- Node1&#45;&gt;Node5 -->
<g id="edge4" class="edge"><title>Node1&#45;&gt;Node5</title>
<path fill="none" stroke="midnightblue" d="M134.192,-30.5047C142.499,-29.4386 151.121,-28.332 159.763,-27.2229"/>
<polygon fill="midnightblue" stroke="midnightblue" points="160.426,-30.6666 169.899,-25.922 159.535,-23.7236 160.426,-30.6666"/>
</g>
<!-- Node3 -->
<g id="node3" class="node"><title>Node3</title>
<g id="a_node3"><a xlink:href="../../da/d90/classengine_1_1sound_1_1_sound_utility.html#a235ca79c125952cfc650d8bc8f2effb0" target="_top" xlink:title="engine.sound.SoundUtility.make\lAudioClip">
<polygon fill="white" stroke="black" points="378,-49 378,-79 548,-79 548,-49 378,-49"/>
<text text-anchor="start" x="386" y="-67" font-family="Helvetica,sans-Serif" font-size="10.00">engine.sound.SoundUtility.make</text>
<text text-anchor="middle" x="463" y="-56" font-family="Helvetica,sans-Serif" font-size="10.00">AudioClip</text>
</a>
</g>
</g>
<!-- Node2&#45;&gt;Node3 -->
<g id="edge2" class="edge"><title>Node2&#45;&gt;Node3</title>
<path fill="none" stroke="midnightblue" d="M336.552,-64C346.681,-64 357.125,-64 367.461,-64"/>
<polygon fill="midnightblue" stroke="midnightblue" points="367.745,-67.5001 377.745,-64 367.745,-60.5001 367.745,-67.5001"/>
</g>
<!-- Node4 -->
<g id="node4" class="node"><title>Node4</title>
<g id="a_node4"><a xlink:href="../../d9/db5/classengine_1_1_file_path_utility.html#ad8a72da93bd719a750bd549ed92a37d7" target="_top" xlink:title="engine.FilePathUtility.get\lFilePath">
<polygon fill="white" stroke="black" points="584,-49 584,-79 716,-79 716,-49 584,-49"/>
<text text-anchor="start" x="592" y="-67" font-family="Helvetica,sans-Serif" font-size="10.00">engine.FilePathUtility.get</text>
<text text-anchor="middle" x="650" y="-56" font-family="Helvetica,sans-Serif" font-size="10.00">FilePath</text>
</a>
</g>
</g>
<!-- Node3&#45;&gt;Node4 -->
<g id="edge3" class="edge"><title>Node3&#45;&gt;Node4</title>
<path fill="none" stroke="midnightblue" d="M548.109,-64C556.66,-64 565.306,-64 573.754,-64"/>
<polygon fill="midnightblue" stroke="midnightblue" points="573.94,-67.5001 583.94,-64 573.94,-60.5001 573.94,-67.5001"/>
</g>
</g>
</svg>
