<?xml version="1.0" encoding="UTF-8" standalone="no"?>
<!DOCTYPE svg PUBLIC "-//W3C//DTD SVG 1.1//EN"
 "http://www.w3.org/Graphics/SVG/1.1/DTD/svg11.dtd">
<!-- Generated by graphviz version 2.36.0 (20140111.2315)
 -->
<!-- Title: authoring.view.wizards.GameObjectWizard Pages: 1 -->
<svg width="419pt" height="178pt"
 viewBox="0.00 0.00 419.00 178.00" xmlns="http://www.w3.org/2000/svg" xmlns:xlink="http://www.w3.org/1999/xlink">
<g id="graph0" class="graph" transform="scale(1 1) rotate(0) translate(4 174)">
<title>authoring.view.wizards.GameObjectWizard</title>
<polygon fill="white" stroke="none" points="-4,4 -4,-174 415,-174 415,4 -4,4"/>
<!-- Node1 -->
<g id="node1" class="node"><title>Node1</title>
<polygon fill="#bfbfbf" stroke="black" points="80.5,-1 80.5,-31 235.5,-31 235.5,-1 80.5,-1"/>
<text text-anchor="start" x="88.5" y="-19" font-family="Helvetica,sans-Serif" font-size="10.00">authoring.view.wizards.Game</text>
<text text-anchor="middle" x="158" y="-8" font-family="Helvetica,sans-Serif" font-size="10.00">ObjectWizard</text>
</g>
<!-- Node2 -->
<g id="node2" class="node"><title>Node2</title>
<g id="a_node2"><a xlink:href="../../d6/d32/classauthoring_1_1view_1_1wizards_1_1_wizard.html" target="_top" xlink:title="authoring.view.wizards.Wizard">
<polygon fill="white" stroke="black" points="79,-70.5 79,-89.5 237,-89.5 237,-70.5 79,-70.5"/>
<text text-anchor="middle" x="158" y="-77.5" font-family="Helvetica,sans-Serif" font-size="10.00">authoring.view.wizards.Wizard</text>
</a>
</g>
</g>
<!-- Node2&#45;&gt;Node1 -->
<g id="edge1" class="edge"><title>Node2&#45;&gt;Node1</title>
<path fill="none" stroke="midnightblue" d="M158,-60.1826C158,-50.8859 158,-39.8507 158,-31.263"/>
<polygon fill="midnightblue" stroke="midnightblue" points="154.5,-60.3791 158,-70.3792 161.5,-60.3792 154.5,-60.3791"/>
</g>
<!-- Node3 -->
<g id="node3" class="node"><title>Node3</title>
<polygon fill="white" stroke="#bfbfbf" points="-0.5,-144.5 -0.5,-163.5 44.5,-163.5 44.5,-144.5 -0.5,-144.5"/>
<text text-anchor="middle" x="22" y="-151.5" font-family="Helvetica,sans-Serif" font-size="10.00">Stage</text>
</g>
<!-- Node3&#45;&gt;Node2 -->
<g id="edge2" class="edge"><title>Node3&#45;&gt;Node2</title>
<path fill="none" stroke="midnightblue" d="M47.1999,-139.659C74.874,-125.008 118.484,-101.92 141.886,-89.531"/>
<polygon fill="midnightblue" stroke="midnightblue" points="45.3353,-136.686 38.135,-144.458 48.6106,-142.872 45.3353,-136.686"/>
</g>
<!-- Node4 -->
<g id="node4" class="node"><title>Node4</title>
<polygon fill="white" stroke="#bfbfbf" points="62.5,-144.5 62.5,-163.5 103.5,-163.5 103.5,-144.5 62.5,-144.5"/>
<text text-anchor="middle" x="83" y="-151.5" font-family="Helvetica,sans-Serif" font-size="10.00">VBox</text>
</g>
<!-- Node4&#45;&gt;Node2 -->
<g id="edge3" class="edge"><title>Node4&#45;&gt;Node2</title>
<path fill="none" stroke="#9a32cd" stroke-dasharray="5,2" d="M99.1549,-137.491C114.443,-122.815 136.828,-101.325 149.114,-89.531"/>
<polygon fill="#9a32cd" stroke="#9a32cd" points="96.688,-135.008 91.898,-144.458 101.536,-140.057 96.688,-135.008"/>
<text text-anchor="middle" x="157" y="-111.5" font-family="Helvetica,sans-Serif" font-size="10.00"> myWindow</text>
</g>
<!-- Node5 -->
<g id="node5" class="node"><title>Node5</title>
<polygon fill="white" stroke="#bfbfbf" points="121.5,-139 121.5,-169 346.5,-169 346.5,-139 121.5,-139"/>
<text text-anchor="start" x="129.5" y="-157" font-family="Helvetica,sans-Serif" font-size="10.00">Map&lt; String, authoring.view.propertiesview.</text>
<text text-anchor="middle" x="234" y="-146" font-family="Helvetica,sans-Serif" font-size="10.00">PropertyTextField &gt;</text>
</g>
<!-- Node5&#45;&gt;Node2 -->
<g id="edge4" class="edge"><title>Node5&#45;&gt;Node2</title>
<path fill="none" stroke="#9a32cd" stroke-dasharray="5,2" d="M212.418,-131.524C204.772,-124.013 196.065,-115.568 188,-108 181.357,-101.767 173.725,-94.9016 167.821,-89.6536"/>
<polygon fill="#9a32cd" stroke="#9a32cd" points="210.07,-134.125 219.647,-138.657 214.987,-129.142 210.07,-134.125"/>
<text text-anchor="middle" x="219.5" y="-111.5" font-family="Helvetica,sans-Serif" font-size="10.00"> myMap</text>
</g>
<!-- Node6 -->
<g id="node6" class="node"><title>Node6</title>
<polygon fill="white" stroke="#bfbfbf" points="365,-144.5 365,-163.5 411,-163.5 411,-144.5 365,-144.5"/>
<text text-anchor="middle" x="388" y="-151.5" font-family="Helvetica,sans-Serif" font-size="10.00">Group</text>
</g>
<!-- Node6&#45;&gt;Node2 -->
<g id="edge5" class="edge"><title>Node6&#45;&gt;Node2</title>
<path fill="none" stroke="#9a32cd" stroke-dasharray="5,2" d="M360.802,-140.267C358.851,-139.468 356.904,-138.704 355,-138 299.565,-117.504 233.189,-99.622 193.371,-89.5818"/>
<polygon fill="#9a32cd" stroke="#9a32cd" points="359.819,-143.656 370.386,-144.424 362.604,-137.234 359.819,-143.656"/>
<text text-anchor="middle" x="322" y="-111.5" font-family="Helvetica,sans-Serif" font-size="10.00"> myRoot</text>
</g>
</g>
</svg>
