<?xml version="1.0" encoding="UTF-8" standalone="no"?>
<!DOCTYPE svg PUBLIC "-//W3C//DTD SVG 1.1//EN"
 "http://www.w3.org/Graphics/SVG/1.1/DTD/svg11.dtd">
<!-- Generated by graphviz version 2.36.0 (20140111.2315)
 -->
<!-- Title: authoring.view.wizards.ConditionParameterWizard Pages: 1 -->
<svg width="419pt" height="188pt"
 viewBox="0.00 0.00 419.00 188.00" xmlns="http://www.w3.org/2000/svg" xmlns:xlink="http://www.w3.org/1999/xlink">
<g id="graph0" class="graph" transform="scale(1 1) rotate(0) translate(4 184)">
<title>authoring.view.wizards.ConditionParameterWizard</title>
<polygon fill="white" stroke="none" points="-4,4 -4,-184 415,-184 415,4 -4,4"/>
<!-- Node1 -->
<g id="node1" class="node"><title>Node1</title>
<polygon fill="#bfbfbf" stroke="black" points="170.5,-1 170.5,-31 341.5,-31 341.5,-1 170.5,-1"/>
<text text-anchor="start" x="178.5" y="-19" font-family="Helvetica,sans-Serif" font-size="10.00">authoring.view.wizards.Condition</text>
<text text-anchor="middle" x="256" y="-8" font-family="Helvetica,sans-Serif" font-size="10.00">ParameterWizard</text>
</g>
<!-- Node2 -->
<g id="node2" class="node"><title>Node2</title>
<g id="a_node2"><a xlink:href="../../d6/d32/classauthoring_1_1view_1_1wizards_1_1_wizard.html" target="_top" xlink:title="authoring.view.wizards.Wizard">
<polygon fill="white" stroke="black" points="79,-80.5 79,-99.5 237,-99.5 237,-80.5 79,-80.5"/>
<text text-anchor="middle" x="158" y="-87.5" font-family="Helvetica,sans-Serif" font-size="10.00">authoring.view.wizards.Wizard</text>
</a>
</g>
</g>
<!-- Node2&#45;&gt;Node1 -->
<g id="edge1" class="edge"><title>Node2&#45;&gt;Node1</title>
<path fill="none" stroke="midnightblue" d="M177.83,-74.4307C194.977,-61.8329 219.618,-43.7298 236.629,-31.2316"/>
<polygon fill="midnightblue" stroke="midnightblue" points="175.613,-71.7165 169.627,-80.4579 179.758,-77.3577 175.613,-71.7165"/>
</g>
<!-- Node3 -->
<g id="node3" class="node"><title>Node3</title>
<polygon fill="white" stroke="#bfbfbf" points="-0.5,-154.5 -0.5,-173.5 44.5,-173.5 44.5,-154.5 -0.5,-154.5"/>
<text text-anchor="middle" x="22" y="-161.5" font-family="Helvetica,sans-Serif" font-size="10.00">Stage</text>
</g>
<!-- Node3&#45;&gt;Node2 -->
<g id="edge2" class="edge"><title>Node3&#45;&gt;Node2</title>
<path fill="none" stroke="midnightblue" d="M47.1999,-149.659C74.874,-135.008 118.484,-111.92 141.886,-99.531"/>
<polygon fill="midnightblue" stroke="midnightblue" points="45.3353,-146.686 38.135,-154.458 48.6106,-152.872 45.3353,-146.686"/>
</g>
<!-- Node4 -->
<g id="node4" class="node"><title>Node4</title>
<polygon fill="white" stroke="#bfbfbf" points="62.5,-154.5 62.5,-173.5 103.5,-173.5 103.5,-154.5 62.5,-154.5"/>
<text text-anchor="middle" x="83" y="-161.5" font-family="Helvetica,sans-Serif" font-size="10.00">VBox</text>
</g>
<!-- Node4&#45;&gt;Node2 -->
<g id="edge3" class="edge"><title>Node4&#45;&gt;Node2</title>
<path fill="none" stroke="#9a32cd" stroke-dasharray="5,2" d="M99.1549,-147.491C114.443,-132.815 136.828,-111.325 149.114,-99.531"/>
<polygon fill="#9a32cd" stroke="#9a32cd" points="96.688,-145.008 91.898,-154.458 101.536,-150.057 96.688,-145.008"/>
<text text-anchor="middle" x="157" y="-121.5" font-family="Helvetica,sans-Serif" font-size="10.00"> myWindow</text>
</g>
<!-- Node5 -->
<g id="node5" class="node"><title>Node5</title>
<polygon fill="white" stroke="#bfbfbf" points="121.5,-149 121.5,-179 346.5,-179 346.5,-149 121.5,-149"/>
<text text-anchor="start" x="129.5" y="-167" font-family="Helvetica,sans-Serif" font-size="10.00">Map&lt; String, authoring.view.propertiesview.</text>
<text text-anchor="middle" x="234" y="-156" font-family="Helvetica,sans-Serif" font-size="10.00">PropertyTextField &gt;</text>
</g>
<!-- Node5&#45;&gt;Node2 -->
<g id="edge4" class="edge"><title>Node5&#45;&gt;Node2</title>
<path fill="none" stroke="#9a32cd" stroke-dasharray="5,2" d="M212.418,-141.524C204.772,-134.013 196.065,-125.568 188,-118 181.357,-111.767 173.725,-104.902 167.821,-99.6536"/>
<polygon fill="#9a32cd" stroke="#9a32cd" points="210.07,-144.125 219.647,-148.657 214.987,-139.142 210.07,-144.125"/>
<text text-anchor="middle" x="219.5" y="-121.5" font-family="Helvetica,sans-Serif" font-size="10.00"> myMap</text>
</g>
<!-- Node6 -->
<g id="node6" class="node"><title>Node6</title>
<polygon fill="white" stroke="#bfbfbf" points="365,-154.5 365,-173.5 411,-173.5 411,-154.5 365,-154.5"/>
<text text-anchor="middle" x="388" y="-161.5" font-family="Helvetica,sans-Serif" font-size="10.00">Group</text>
</g>
<!-- Node6&#45;&gt;Node2 -->
<g id="edge5" class="edge"><title>Node6&#45;&gt;Node2</title>
<path fill="none" stroke="#9a32cd" stroke-dasharray="5,2" d="M360.802,-150.267C358.851,-149.468 356.904,-148.704 355,-148 299.565,-127.504 233.189,-109.622 193.371,-99.5818"/>
<polygon fill="#9a32cd" stroke="#9a32cd" points="359.819,-153.656 370.386,-154.424 362.604,-147.234 359.819,-153.656"/>
<text text-anchor="middle" x="322" y="-121.5" font-family="Helvetica,sans-Serif" font-size="10.00"> myRoot</text>
</g>
<!-- Node7 -->
<g id="node7" class="node"><title>Node7</title>
<polygon fill="white" stroke="#bfbfbf" points="255.5,-80.5 255.5,-99.5 322.5,-99.5 322.5,-80.5 255.5,-80.5"/>
<text text-anchor="middle" x="289" y="-87.5" font-family="Helvetica,sans-Serif" font-size="10.00">Parameter</text>
</g>
<!-- Node7&#45;&gt;Node1 -->
<g id="edge6" class="edge"><title>Node7&#45;&gt;Node1</title>
<path fill="none" stroke="#9a32cd" stroke-dasharray="5,2" d="M280.843,-71.2038C275.196,-58.8816 267.778,-42.6978 262.523,-31.2316"/>
<polygon fill="#9a32cd" stroke="#9a32cd" points="277.737,-72.8256 285.085,-80.4579 284.1,-69.9089 277.737,-72.8256"/>
<text text-anchor="middle" x="324.5" y="-53.5" font-family="Helvetica,sans-Serif" font-size="10.00"> myParameterTypes</text>
</g>
</g>
</svg>
