<?xml version="1.0" encoding="UTF-8" standalone="no"?>
<!DOCTYPE svg PUBLIC "-//W3C//DTD SVG 1.1//EN"
 "http://www.w3.org/Graphics/SVG/1.1/DTD/svg11.dtd">
<!-- Generated by graphviz version 2.36.0 (20140111.2315)
 -->
<!-- Title: engine.actions.MakeNewObjectAction.initialize Pages: 1 -->
<svg width="394pt" height="175pt"
 viewBox="0.00 0.00 394.00 175.00" xmlns="http://www.w3.org/2000/svg" xmlns:xlink="http://www.w3.org/1999/xlink">
<g id="graph0" class="graph" transform="scale(1 1) rotate(0) translate(4 171)">
<title>engine.actions.MakeNewObjectAction.initialize</title>
<polygon fill="white" stroke="none" points="-4,4 -4,-171 390,-171 390,4 -4,4"/>
<!-- Node1 -->
<g id="node1" class="node"><title>Node1</title>
<polygon fill="#bfbfbf" stroke="black" points="0,-66 0,-96 166,-96 166,-66 0,-66"/>
<text text-anchor="start" x="8" y="-84" font-family="Helvetica,sans-Serif" font-size="10.00">engine.actions.MakeNewObject</text>
<text text-anchor="middle" x="83" y="-73" font-family="Helvetica,sans-Serif" font-size="10.00">Action.initialize</text>
</g>
<!-- Node2 -->
<g id="node2" class="node"><title>Node2</title>
<g id="a_node2"><a xlink:href="../../df/d67/classengine_1_1level_1_1_level_manager.html#a0b41aada08e898db8cc4bcd7646e39e1" target="_top" xlink:title="engine.level.LevelManager.get\lCurrentLevel">
<polygon fill="white" stroke="black" points="213.5,-137 213.5,-167 374.5,-167 374.5,-137 213.5,-137"/>
<text text-anchor="start" x="221.5" y="-155" font-family="Helvetica,sans-Serif" font-size="10.00">engine.level.LevelManager.get</text>
<text text-anchor="middle" x="294" y="-144" font-family="Helvetica,sans-Serif" font-size="10.00">CurrentLevel</text>
</a>
</g>
</g>
<!-- Node1&#45;&gt;Node2 -->
<g id="edge1" class="edge"><title>Node1&#45;&gt;Node2</title>
<path fill="none" stroke="midnightblue" d="M119.799,-96.0709C143.012,-105.565 174.031,-117.734 202,-127 209.327,-129.427 217.039,-131.808 224.746,-134.077"/>
<polygon fill="midnightblue" stroke="midnightblue" points="223.898,-137.475 234.476,-136.886 225.839,-130.749 223.898,-137.475"/>
</g>
<!-- Node3 -->
<g id="node3" class="node"><title>Node3</title>
<g id="a_node3"><a xlink:href="../../d6/d94/classengine_1_1_game_manager.html#a6d1ae727d1d306393aada5a5178e8191" target="_top" xlink:title="engine.GameManager.getLevel\lManager">
<polygon fill="white" stroke="black" points="211,-88 211,-118 377,-118 377,-88 211,-88"/>
<text text-anchor="start" x="219" y="-106" font-family="Helvetica,sans-Serif" font-size="10.00">engine.GameManager.getLevel</text>
<text text-anchor="middle" x="294" y="-95" font-family="Helvetica,sans-Serif" font-size="10.00">Manager</text>
</a>
</g>
</g>
<!-- Node1&#45;&gt;Node3 -->
<g id="edge2" class="edge"><title>Node1&#45;&gt;Node3</title>
<path fill="none" stroke="midnightblue" d="M166.002,-89.6318C177.413,-90.8329 189.198,-92.0735 200.78,-93.2926"/>
<polygon fill="midnightblue" stroke="midnightblue" points="200.579,-96.7908 210.891,-94.3569 201.312,-89.8292 200.579,-96.7908"/>
</g>
<!-- Node4 -->
<g id="node4" class="node"><title>Node4</title>
<g id="a_node4"><a xlink:href="../../d6/d94/classengine_1_1_game_manager.html#aaab3c598c58a48fa1b065f8d010f174a" target="_top" xlink:title="engine.GameManager.getRenderer">
<polygon fill="white" stroke="black" points="202,-49.5 202,-68.5 386,-68.5 386,-49.5 202,-49.5"/>
<text text-anchor="middle" x="294" y="-56.5" font-family="Helvetica,sans-Serif" font-size="10.00">engine.GameManager.getRenderer</text>
</a>
</g>
</g>
<!-- Node1&#45;&gt;Node4 -->
<g id="edge3" class="edge"><title>Node1&#45;&gt;Node4</title>
<path fill="none" stroke="midnightblue" d="M166.002,-72.3682C174.727,-71.4498 183.671,-70.5083 192.576,-69.571"/>
<polygon fill="midnightblue" stroke="midnightblue" points="193.02,-73.0437 202.598,-68.5159 192.287,-66.0821 193.02,-73.0437"/>
</g>
<!-- Node5 -->
<g id="node5" class="node"><title>Node5</title>
<g id="a_node5"><a xlink:href="../../df/d67/classengine_1_1level_1_1_level_manager.html#aefe3f2edb2b0adf4b9619f9df1e9ad9f" target="_top" xlink:title="engine.level.LevelManager.get\lTemplates">
<polygon fill="white" stroke="black" points="213.5,-0 213.5,-30 374.5,-30 374.5,-0 213.5,-0"/>
<text text-anchor="start" x="221.5" y="-18" font-family="Helvetica,sans-Serif" font-size="10.00">engine.level.LevelManager.get</text>
<text text-anchor="middle" x="294" y="-7" font-family="Helvetica,sans-Serif" font-size="10.00">Templates</text>
</a>
</g>
</g>
<!-- Node1&#45;&gt;Node5 -->
<g id="edge4" class="edge"><title>Node1&#45;&gt;Node5</title>
<path fill="none" stroke="midnightblue" d="M125.281,-65.904C147.831,-57.8484 176.319,-47.9796 202,-40 209.872,-37.5541 218.165,-35.1039 226.409,-32.7457"/>
<polygon fill="midnightblue" stroke="midnightblue" points="227.364,-36.1127 236.036,-30.0253 225.461,-29.3765 227.364,-36.1127"/>
</g>
</g>
</svg>
