<?xml version="1.0" encoding="UTF-8" standalone="no"?>
<!DOCTYPE svg PUBLIC "-//W3C//DTD SVG 1.1//EN"
 "http://www.w3.org/Graphics/SVG/1.1/DTD/svg11.dtd">
<!-- Generated by graphviz version 2.36.0 (20140111.2315)
 -->
<!-- Title: authoring.view.graphicsview.GraphicOptions.GraphicOptions Pages: 1 -->
<svg width="620pt" height="38pt"
 viewBox="0.00 0.00 620.00 38.00" xmlns="http://www.w3.org/2000/svg" xmlns:xlink="http://www.w3.org/1999/xlink">
<g id="graph0" class="graph" transform="scale(1 1) rotate(0) translate(4 34)">
<title>authoring.view.graphicsview.GraphicOptions.GraphicOptions</title>
<polygon fill="white" stroke="none" points="-4,4 -4,-34 616,-34 616,4 -4,4"/>
<!-- Node1 -->
<g id="node1" class="node"><title>Node1</title>
<polygon fill="#bfbfbf" stroke="black" points="0.5,-0 0.5,-30 167.5,-30 167.5,-0 0.5,-0"/>
<text text-anchor="start" x="8.5" y="-18" font-family="Helvetica,sans-Serif" font-size="10.00">authoring.view.graphicsview.</text>
<text text-anchor="middle" x="84" y="-7" font-family="Helvetica,sans-Serif" font-size="10.00">GraphicOptions.GraphicOptions</text>
</g>
<!-- Node2 -->
<g id="node2" class="node"><title>Node2</title>
<g id="a_node2"><a xlink:href="../../d7/dee/classauthoring_1_1view_1_1graphicsview_1_1_graphic_options.html#a9563f873091fe6eb53ae7713262e7435" target="_top" xlink:title="authoring.view.graphicsview.\lGraphicOptions.addNewTabButton">
<polygon fill="white" stroke="black" points="204.5,-0 204.5,-30 383.5,-30 383.5,-0 204.5,-0"/>
<text text-anchor="start" x="212.5" y="-18" font-family="Helvetica,sans-Serif" font-size="10.00">authoring.view.graphicsview.</text>
<text text-anchor="middle" x="294" y="-7" font-family="Helvetica,sans-Serif" font-size="10.00">GraphicOptions.addNewTabButton</text>
</a>
</g>
</g>
<!-- Node1&#45;&gt;Node2 -->
<g id="edge1" class="edge"><title>Node1&#45;&gt;Node2</title>
<path fill="none" stroke="midnightblue" d="M167.506,-15C176.324,-15 185.357,-15 194.337,-15"/>
<polygon fill="midnightblue" stroke="midnightblue" points="194.439,-18.5001 204.439,-15 194.439,-11.5001 194.439,-18.5001"/>
</g>
<!-- Node3 -->
<g id="node3" class="node"><title>Node3</title>
<g id="a_node3"><a xlink:href="../../df/dee/classauthoring_1_1view_1_1generalcollectionview_1_1_collection_options.html#aa9e60e3c5350310c32dd6108cbcb3987" target="_top" xlink:title="authoring.view.generalcollectionview.\lCollectionOptions.makeButton">
<polygon fill="white" stroke="black" points="420.5,-0 420.5,-30 611.5,-30 611.5,-0 420.5,-0"/>
<text text-anchor="start" x="428.5" y="-18" font-family="Helvetica,sans-Serif" font-size="10.00">authoring.view.generalcollectionview.</text>
<text text-anchor="middle" x="516" y="-7" font-family="Helvetica,sans-Serif" font-size="10.00">CollectionOptions.makeButton</text>
</a>
</g>
</g>
<!-- Node2&#45;&gt;Node3 -->
<g id="edge2" class="edge"><title>Node2&#45;&gt;Node3</title>
<path fill="none" stroke="midnightblue" d="M383.531,-15C392.293,-15 401.244,-15 410.15,-15"/>
<polygon fill="midnightblue" stroke="midnightblue" points="410.173,-18.5001 420.173,-15 410.173,-11.5001 410.173,-18.5001"/>
</g>
</g>
</svg>
