<?xml version="1.0" encoding="UTF-8" standalone="no"?>
<!DOCTYPE svg PUBLIC "-//W3C//DTD SVG 1.1//EN"
 "http://www.w3.org/Graphics/SVG/1.1/DTD/svg11.dtd">
<!-- Generated by graphviz version 2.36.0 (20140111.2315)
 -->
<!-- Title: authoring.view.levelview.LevelsAccordionView.addLevel Pages: 1 -->
<svg width="380pt" height="77pt"
 viewBox="0.00 0.00 380.00 77.00" xmlns="http://www.w3.org/2000/svg" xmlns:xlink="http://www.w3.org/1999/xlink">
<g id="graph0" class="graph" transform="scale(1 1) rotate(0) translate(4 73)">
<title>authoring.view.levelview.LevelsAccordionView.addLevel</title>
<polygon fill="white" stroke="none" points="-4,4 -4,-73 376,-73 376,4 -4,4"/>
<!-- Node1 -->
<g id="node1" class="node"><title>Node1</title>
<polygon fill="#bfbfbf" stroke="black" points="0.5,-22 0.5,-52 161.5,-52 161.5,-22 0.5,-22"/>
<text text-anchor="start" x="8.5" y="-40" font-family="Helvetica,sans-Serif" font-size="10.00">authoring.view.levelview.</text>
<text text-anchor="middle" x="81" y="-29" font-family="Helvetica,sans-Serif" font-size="10.00">LevelsAccordionView.addLevel</text>
</g>
<!-- Node2 -->
<g id="node2" class="node"><title>Node2</title>
<g id="a_node2"><a xlink:href="../../df/d84/classengine_1_1level_1_1_level.html#a3f515393a7ff1540b372822415262c24" target="_top" xlink:title="engine.level.Level.getIdentifier">
<polygon fill="white" stroke="black" points="204.5,-49.5 204.5,-68.5 365.5,-68.5 365.5,-49.5 204.5,-49.5"/>
<text text-anchor="middle" x="285" y="-56.5" font-family="Helvetica,sans-Serif" font-size="10.00">engine.level.Level.getIdentifier</text>
</a>
</g>
</g>
<!-- Node1&#45;&gt;Node2 -->
<g id="edge1" class="edge"><title>Node1&#45;&gt;Node2</title>
<path fill="none" stroke="midnightblue" d="M161.546,-45.6634C172.281,-46.8326 183.355,-48.0387 194.252,-49.2255"/>
<polygon fill="midnightblue" stroke="midnightblue" points="193.875,-52.705 204.195,-50.3084 194.633,-45.7462 193.875,-52.705"/>
</g>
<!-- Node3 -->
<g id="node3" class="node"><title>Node3</title>
<g id="a_node3"><a xlink:href="../../d4/dac/classengine_1_1game_object_1_1_identifier.html#aa2630b5024b9595e43afe0bf53229433" target="_top" xlink:title="engine.gameObject.Identifier.get\lUniqueId">
<polygon fill="white" stroke="black" points="198.5,-0 198.5,-30 371.5,-30 371.5,-0 198.5,-0"/>
<text text-anchor="start" x="206.5" y="-18" font-family="Helvetica,sans-Serif" font-size="10.00">engine.gameObject.Identifier.get</text>
<text text-anchor="middle" x="285" y="-7" font-family="Helvetica,sans-Serif" font-size="10.00">UniqueId</text>
</a>
</g>
</g>
<!-- Node1&#45;&gt;Node3 -->
<g id="edge2" class="edge"><title>Node1&#45;&gt;Node3</title>
<path fill="none" stroke="midnightblue" d="M161.546,-28.3366C170.289,-27.3843 179.258,-26.4076 188.172,-25.4367"/>
<polygon fill="midnightblue" stroke="midnightblue" points="188.637,-28.9068 198.199,-24.3446 187.879,-21.948 188.637,-28.9068"/>
</g>
</g>
</svg>
