<?xml version="1.0" encoding="UTF-8" standalone="no"?>
<!DOCTYPE svg PUBLIC "-//W3C//DTD SVG 1.1//EN"
 "http://www.w3.org/Graphics/SVG/1.1/DTD/svg11.dtd">
<!-- Generated by graphviz version 2.36.0 (20140111.2315)
 -->
<!-- Title: engine.actions.MakeNewObjectFromLocationAction Pages: 1 -->
<svg width="194pt" height="220pt"
 viewBox="0.00 0.00 194.00 220.00" xmlns="http://www.w3.org/2000/svg" xmlns:xlink="http://www.w3.org/1999/xlink">
<g id="graph0" class="graph" transform="scale(1 1) rotate(0) translate(4 216)">
<title>engine.actions.MakeNewObjectFromLocationAction</title>
<polygon fill="white" stroke="none" points="-4,4 -4,-216 190,-216 190,4 -4,4"/>
<!-- Node1 -->
<g id="node1" class="node"><title>Node1</title>
<polygon fill="#bfbfbf" stroke="black" points="0,-1 0,-31 166,-31 166,-1 0,-1"/>
<text text-anchor="start" x="8" y="-19" font-family="Helvetica,sans-Serif" font-size="10.00">engine.actions.MakeNewObject</text>
<text text-anchor="middle" x="83" y="-8" font-family="Helvetica,sans-Serif" font-size="10.00">FromLocationAction</text>
</g>
<!-- Node2 -->
<g id="node2" class="node"><title>Node2</title>
<g id="a_node2"><a xlink:href="../../d2/dc5/classengine_1_1actions_1_1_make_new_object_action.html" target="_top" xlink:title="engine.actions.MakeNewObject\lAction">
<polygon fill="white" stroke="black" points="0,-69 0,-99 166,-99 166,-69 0,-69"/>
<text text-anchor="start" x="8" y="-87" font-family="Helvetica,sans-Serif" font-size="10.00">engine.actions.MakeNewObject</text>
<text text-anchor="middle" x="83" y="-76" font-family="Helvetica,sans-Serif" font-size="10.00">Action</text>
</a>
</g>
</g>
<!-- Node2&#45;&gt;Node1 -->
<g id="edge1" class="edge"><title>Node2&#45;&gt;Node1</title>
<path fill="none" stroke="midnightblue" d="M83,-58.5322C83,-49.3606 83,-39.2449 83,-31.2931"/>
<polygon fill="midnightblue" stroke="midnightblue" points="79.5001,-58.6789 83,-68.679 86.5001,-58.679 79.5001,-58.6789"/>
</g>
<!-- Node3 -->
<g id="node3" class="node"><title>Node3</title>
<g id="a_node3"><a xlink:href="../../d9/dd2/interfaceengine_1_1actions_1_1_action.html" target="_top" xlink:title="engine.actions.Action">
<polygon fill="white" stroke="black" points="67.5,-136.5 67.5,-155.5 186.5,-155.5 186.5,-136.5 67.5,-136.5"/>
<text text-anchor="middle" x="127" y="-143.5" font-family="Helvetica,sans-Serif" font-size="10.00">engine.actions.Action</text>
</a>
</g>
</g>
<!-- Node3&#45;&gt;Node2 -->
<g id="edge2" class="edge"><title>Node3&#45;&gt;Node2</title>
<path fill="none" stroke="midnightblue" d="M114.611,-128.106C107.911,-118.97 99.7304,-107.814 93.3699,-99.1408"/>
<polygon fill="midnightblue" stroke="midnightblue" points="111.96,-130.409 120.696,-136.403 117.605,-126.27 111.96,-130.409"/>
</g>
<!-- Node4 -->
<g id="node4" class="node"><title>Node4</title>
<g id="a_node4"><a xlink:href="../../d2/d15/interfaceengine_1_1actions_1_1_initializable.html" target="_top" xlink:title="engine.actions.Initializable">
<polygon fill="white" stroke="black" points="12,-192.5 12,-211.5 154,-211.5 154,-192.5 12,-192.5"/>
<text text-anchor="middle" x="83" y="-199.5" font-family="Helvetica,sans-Serif" font-size="10.00">engine.actions.Initializable</text>
</a>
</g>
</g>
<!-- Node4&#45;&gt;Node2 -->
<g id="edge4" class="edge"><title>Node4&#45;&gt;Node2</title>
<path fill="none" stroke="midnightblue" d="M71.2432,-183.769C66.4366,-175.71 61.4387,-165.755 59,-156 53.9823,-135.929 64.4557,-113.401 73.113,-99.211"/>
<polygon fill="midnightblue" stroke="midnightblue" points="68.3091,-185.678 76.6332,-192.232 74.2134,-181.917 68.3091,-185.678"/>
</g>
<!-- Node4&#45;&gt;Node3 -->
<g id="edge3" class="edge"><title>Node4&#45;&gt;Node3</title>
<path fill="none" stroke="midnightblue" d="M96.7345,-184.144C104.401,-174.736 113.633,-163.405 119.869,-155.751"/>
<polygon fill="midnightblue" stroke="midnightblue" points="93.8691,-182.12 90.2657,-192.083 99.2958,-186.541 93.8691,-182.12"/>
</g>
</g>
</svg>
