<?xml version="1.0" encoding="UTF-8" standalone="no"?>
<!DOCTYPE svg PUBLIC "-//W3C//DTD SVG 1.1//EN"
 "http://www.w3.org/Graphics/SVG/1.1/DTD/svg11.dtd">
<!-- Generated by graphviz version 2.36.0 (20140111.2315)
 -->
<!-- Title: engine.collision.objects.PowerupCollisionObject.handleFixedObjectCollisionObject Pages: 1 -->
<!--zoomable 616 -->
<svg id="main" version="1.1" xmlns="http://www.w3.org/2000/svg" xmlns:xlink="http://www.w3.org/1999/xlink" xml:space="preserve" onload="init(evt)">
<style type="text/css"><![CDATA[
.edge:hover path { stroke: red; }
.edge:hover polygon { stroke: red; fill: red; }
]]></style>
<script type="text/javascript"><![CDATA[
var edges = document.getElementsByTagName('g');
if (edges && edges.length) {
  for (var i=0;i<edges.length;i++) {
    if (edges[i].id.substr(0,4)=='edge') {
      edges[i].setAttribute('class','edge');
    }
  }
}
]]></script>
        <defs>
                <circle id="rim" cx="0" cy="0" r="7"/>
                <circle id="rim2" cx="0" cy="0" r="3.5"/>
                <g id="zoomPlus">
                        <use xlink:href="#rim" fill="#404040">
                                <set attributeName="fill" to="#808080" begin="zoomplus.mouseover" end="zoomplus.mouseout"/>
                        </use>
                        <path d="M-4,0h8M0,-4v8" fill="none" stroke="white" stroke-width="1.5" pointer-events="none"/>
                </g>
                <g id="zoomMin">
                        <use xlink:href="#rim" fill="#404040">
                                <set attributeName="fill" to="#808080" begin="zoomminus.mouseover" end="zoomminus.mouseout"/>
                        </use>
                        <path d="M-4,0h8" fill="none" stroke="white" stroke-width="1.5" pointer-events="none"/>
                </g>
                <g id="dirArrow">
                        <path fill="none" stroke="white" stroke-width="1.5" d="M0,-3.0v7 M-2.5,-0.5L0,-3.0L2.5,-0.5"/>
                </g>
               <g id="resetDef">
                       <use xlink:href="#rim2" fill="#404040">
                               <set attributeName="fill" to="#808080" begin="reset.mouseover" end="reset.mouseout"/>
                       </use>
               </g>
        </defs>

<script type="text/javascript">
var viewWidth = 890;
var viewHeight = 616;
var sectionId = 'dynsection-3';
</script>
<script xlink:href="../../svgpan.js"/>
<svg id="graph" class="graph">
<g id="viewport">
<title>engine.collision.objects.PowerupCollisionObject.handleFixedObjectCollisionObject</title>
<polygon fill="white" stroke="none" points="-4,4 -4,-612 886,-612 886,4 -4,4"/>
<!-- Node1 -->
<g id="node1" class="node"><title>Node1</title>
<polygon fill="#bfbfbf" stroke="black" points="0,-283.5 0,-324.5 186,-324.5 186,-283.5 0,-283.5"/>
<text text-anchor="start" x="8" y="-312.5" font-family="Helvetica,sans-Serif" font-size="10.00">engine.collision.objects.</text>
<text text-anchor="start" x="8" y="-301.5" font-family="Helvetica,sans-Serif" font-size="10.00">PowerupCollisionObject.handleFixed</text>
<text text-anchor="middle" x="93" y="-290.5" font-family="Helvetica,sans-Serif" font-size="10.00">ObjectCollisionObject</text>
</g>
<!-- Node2 -->
<g id="node2" class="node"><title>Node2</title>
<g id="a_node2"><a xlink:href="../../da/d1b/classengine_1_1collision_1_1objects_1_1_collision_composition.html#a7ec4687ad9367279088b965c0e009cd0" target="_top" xlink:title="engine.collision.objects.\lCollisionComposition.fixedCollision">
<polygon fill="white" stroke="black" points="222,-289 222,-319 402,-319 402,-289 222,-289"/>
<text text-anchor="start" x="230" y="-307" font-family="Helvetica,sans-Serif" font-size="10.00">engine.collision.objects.</text>
<text text-anchor="middle" x="312" y="-296" font-family="Helvetica,sans-Serif" font-size="10.00">CollisionComposition.fixedCollision</text>
</a>
</g>
</g>
<!-- Node1&#45;&gt;Node2 -->
<g id="edge1" class="edge"><title>Node1&#45;&gt;Node2</title>
<path fill="none" stroke="midnightblue" d="M186.028,-304C194.579,-304 203.271,-304 211.883,-304"/>
<polygon fill="midnightblue" stroke="midnightblue" points="211.943,-307.5 221.943,-304 211.943,-300.5 211.943,-307.5"/>
</g>
<!-- Node3 -->
<g id="node3" class="node"><title>Node3</title>
<g id="a_node3"><a xlink:href="../../d9/d9d/classengine_1_1game_object_1_1components_1_1_physics_body.html#aba2ed3bce8ee8e404907c88b144626fc" target="_top" xlink:title="engine.gameObject.components.\lPhysicsBody.getCollisionBodyHeight">
<polygon fill="white" stroke="black" points="445,-578 445,-608 633,-608 633,-578 445,-578"/>
<text text-anchor="start" x="453" y="-596" font-family="Helvetica,sans-Serif" font-size="10.00">engine.gameObject.components.</text>
<text text-anchor="middle" x="539" y="-585" font-family="Helvetica,sans-Serif" font-size="10.00">PhysicsBody.getCollisionBodyHeight</text>
</a>
</g>
</g>
<!-- Node2&#45;&gt;Node3 -->
<g id="edge2" class="edge"><title>Node2&#45;&gt;Node3</title>
<path fill="none" stroke="midnightblue" d="M315.559,-319.315C323.994,-364.804 355.257,-500.156 438,-568 440.058,-569.688 442.215,-571.264 444.452,-572.736"/>
<polygon fill="midnightblue" stroke="midnightblue" points="443.025,-575.953 453.438,-577.909 446.518,-569.886 443.025,-575.953"/>
</g>
<!-- Node4 -->
<g id="node4" class="node"><title>Node4</title>
<g id="a_node4"><a xlink:href="../../d9/d9d/classengine_1_1game_object_1_1components_1_1_physics_body.html#ae64e43632570392c3118b3d00af853fc" target="_top" xlink:title="engine.gameObject.components.\lPhysicsBody.getCollisionBodyWidth">
<polygon fill="white" stroke="black" points="448,-529 448,-559 630,-559 630,-529 448,-529"/>
<text text-anchor="start" x="456" y="-547" font-family="Helvetica,sans-Serif" font-size="10.00">engine.gameObject.components.</text>
<text text-anchor="middle" x="539" y="-536" font-family="Helvetica,sans-Serif" font-size="10.00">PhysicsBody.getCollisionBodyWidth</text>
</a>
</g>
</g>
<!-- Node2&#45;&gt;Node4 -->
<g id="edge3" class="edge"><title>Node2&#45;&gt;Node4</title>
<path fill="none" stroke="midnightblue" d="M317.306,-319.285C329.287,-358.907 366.902,-465.558 438,-519 440.494,-520.875 443.113,-522.611 445.827,-524.217"/>
<polygon fill="midnightblue" stroke="midnightblue" points="444.305,-527.371 454.786,-528.92 447.559,-521.173 444.305,-527.371"/>
</g>
<!-- Node5 -->
<g id="node5" class="node"><title>Node5</title>
<g id="a_node5"><a xlink:href="../../d0/d7f/classengine_1_1game_object_1_1_game_object.html#ae94fe532960bd29f64c2dc19ec0af798" target="_top" xlink:title="engine.gameObject.GameObject.getID">
<polygon fill="white" stroke="black" points="438,-490.5 438,-509.5 640,-509.5 640,-490.5 438,-490.5"/>
<text text-anchor="middle" x="539" y="-497.5" font-family="Helvetica,sans-Serif" font-size="10.00">engine.gameObject.GameObject.getID</text>
</a>
</g>
</g>
<!-- Node2&#45;&gt;Node5 -->
<g id="edge4" class="edge"><title>Node2&#45;&gt;Node5</title>
<path fill="none" stroke="midnightblue" d="M319.515,-319.203C334.848,-353.078 376.61,-434.99 438,-476 444.755,-480.513 452.268,-484.179 460.056,-487.158"/>
<polygon fill="midnightblue" stroke="midnightblue" points="459.064,-490.518 469.659,-490.461 461.341,-483.899 459.064,-490.518"/>
</g>
<!-- Node6 -->
<g id="node6" class="node"><title>Node6</title>
<g id="a_node6"><a xlink:href="../../d0/d7f/classengine_1_1game_object_1_1_game_object.html#a60c5b6933aac9969491a3562a963c043" target="_top" xlink:title="engine.gameObject.GameObject.get\lPhysicsBody">
<polygon fill="white" stroke="black" points="683,-578 683,-608 875,-608 875,-578 683,-578"/>
<text text-anchor="start" x="691" y="-596" font-family="Helvetica,sans-Serif" font-size="10.00">engine.gameObject.GameObject.get</text>
<text text-anchor="middle" x="779" y="-585" font-family="Helvetica,sans-Serif" font-size="10.00">PhysicsBody</text>
</a>
</g>
</g>
<!-- Node2&#45;&gt;Node6 -->
<g id="edge5" class="edge"><title>Node2&#45;&gt;Node6</title>
<path fill="none" stroke="midnightblue" d="M322.563,-319.297C341.106,-347.584 384.837,-407.917 438,-438 517.886,-483.204 569.448,-422.283 640,-481 672.164,-507.769 644.249,-540.742 676,-568 677.798,-569.544 679.677,-570.996 681.624,-572.36"/>
<polygon fill="midnightblue" stroke="midnightblue" points="680.191,-575.586 690.551,-577.803 683.835,-569.609 680.191,-575.586"/>
</g>
<!-- Node7 -->
<g id="node7" class="node"><title>Node7</title>
<g id="a_node7"><a xlink:href="../../d9/d9d/classengine_1_1game_object_1_1components_1_1_physics_body.html#ae282c9fc52683cc7b976cf4a57129573" target="_top" xlink:title="engine.gameObject.components.\lPhysicsBody.getScalar">
<polygon fill="white" stroke="black" points="691,-529 691,-559 867,-559 867,-529 691,-529"/>
<text text-anchor="start" x="699" y="-547" font-family="Helvetica,sans-Serif" font-size="10.00">engine.gameObject.components.</text>
<text text-anchor="middle" x="779" y="-536" font-family="Helvetica,sans-Serif" font-size="10.00">PhysicsBody.getScalar</text>
</a>
</g>
</g>
<!-- Node2&#45;&gt;Node7 -->
<g id="edge6" class="edge"><title>Node2&#45;&gt;Node7</title>
<path fill="none" stroke="midnightblue" d="M328.074,-319.312C350.179,-340.863 393.604,-379.867 438,-401 521.228,-440.617 567.469,-391.117 640,-448 667.84,-469.834 648.289,-497.003 676,-519 678.124,-520.686 680.346,-522.261 682.647,-523.731"/>
<polygon fill="midnightblue" stroke="midnightblue" points="681.439,-527.066 691.873,-528.901 684.86,-520.959 681.439,-527.066"/>
</g>
<!-- Node8 -->
<g id="node8" class="node"><title>Node8</title>
<g id="a_node8"><a xlink:href="../../d0/d7f/classengine_1_1game_object_1_1_game_object.html#ac7639843418dea4d3ac30a8f2d3a3a9b" target="_top" xlink:title="engine.gameObject.GameObject.get\lTranslateX">
<polygon fill="white" stroke="black" points="683,-480 683,-510 875,-510 875,-480 683,-480"/>
<text text-anchor="start" x="691" y="-498" font-family="Helvetica,sans-Serif" font-size="10.00">engine.gameObject.GameObject.get</text>
<text text-anchor="middle" x="779" y="-487" font-family="Helvetica,sans-Serif" font-size="10.00">TranslateX</text>
</a>
</g>
</g>
<!-- Node2&#45;&gt;Node8 -->
<g id="edge7" class="edge"><title>Node2&#45;&gt;Node8</title>
<path fill="none" stroke="midnightblue" d="M339.521,-319.22C364.3,-332.884 402.672,-352.638 438,-365 524.817,-395.378 565.397,-356.2 640,-410 665.224,-428.19 650.97,-451.544 676,-470 678.641,-471.948 681.416,-473.745 684.291,-475.404"/>
<polygon fill="midnightblue" stroke="midnightblue" points="682.694,-478.518 693.188,-479.975 685.893,-472.292 682.694,-478.518"/>
</g>
<!-- Node9 -->
<g id="node9" class="node"><title>Node9</title>
<g id="a_node9"><a xlink:href="../../d0/d7f/classengine_1_1game_object_1_1_game_object.html#a3a4561bfee95913ae91cc635fdf1167d" target="_top" xlink:title="engine.gameObject.GameObject.get\lTranslateY">
<polygon fill="white" stroke="black" points="683,-431 683,-461 875,-461 875,-431 683,-431"/>
<text text-anchor="start" x="691" y="-449" font-family="Helvetica,sans-Serif" font-size="10.00">engine.gameObject.GameObject.get</text>
<text text-anchor="middle" x="779" y="-438" font-family="Helvetica,sans-Serif" font-size="10.00">TranslateY</text>
</a>
</g>
</g>
<!-- Node2&#45;&gt;Node9 -->
<g id="edge8" class="edge"><title>Node2&#45;&gt;Node9</title>
<path fill="none" stroke="midnightblue" d="M388.485,-319.004C483.385,-337.967 634.657,-368.567 640,-372 662.735,-386.608 653.526,-405.993 676,-421 679.101,-423.071 682.358,-424.97 685.726,-426.713"/>
<polygon fill="midnightblue" stroke="midnightblue" points="684.325,-429.922 694.868,-430.968 687.279,-423.575 684.325,-429.922"/>
</g>
<!-- Node10 -->
<g id="node10" class="node"><title>Node10</title>
<g id="a_node10"><a xlink:href="../../d9/d9d/classengine_1_1game_object_1_1components_1_1_physics_body.html#a65baef953a922146f81d923aff4ae8cf" target="_top" xlink:title="engine.gameObject.components.\lPhysicsBody.getVelocity">
<polygon fill="white" stroke="black" points="691,-245 691,-275 867,-275 867,-245 691,-245"/>
<text text-anchor="start" x="699" y="-263" font-family="Helvetica,sans-Serif" font-size="10.00">engine.gameObject.components.</text>
<text text-anchor="middle" x="779" y="-252" font-family="Helvetica,sans-Serif" font-size="10.00">PhysicsBody.getVelocity</text>
</a>
</g>
</g>
<!-- Node2&#45;&gt;Node10 -->
<g id="edge9" class="edge"><title>Node2&#45;&gt;Node10</title>
<path fill="none" stroke="midnightblue" d="M379.206,-288.943C398.109,-285.14 418.79,-281.445 438,-279 519.304,-268.651 612.259,-263.939 680.402,-261.793"/>
<polygon fill="midnightblue" stroke="midnightblue" points="680.806,-265.283 690.696,-261.483 680.595,-258.286 680.806,-265.283"/>
</g>
<!-- Node11 -->
<g id="node11" class="node"><title>Node11</title>
<g id="a_node11"><a xlink:href="../../d5/d1f/classengine_1_1physics_1_1_vector.html#a1bc7c00d836a738d45eb584223973dec" target="_top" xlink:title="engine.physics.Vector.getX">
<polygon fill="white" stroke="black" points="706.5,-206.5 706.5,-225.5 851.5,-225.5 851.5,-206.5 706.5,-206.5"/>
<text text-anchor="middle" x="779" y="-213.5" font-family="Helvetica,sans-Serif" font-size="10.00">engine.physics.Vector.getX</text>
</a>
</g>
</g>
<!-- Node2&#45;&gt;Node11 -->
<g id="edge10" class="edge"><title>Node2&#45;&gt;Node11</title>
<path fill="none" stroke="midnightblue" d="M349.312,-288.94C373.939,-279.295 407.449,-267.269 438,-260 524.923,-239.319 626.816,-227.763 696.233,-221.741"/>
<polygon fill="midnightblue" stroke="midnightblue" points="696.565,-225.226 706.233,-220.892 695.973,-218.251 696.565,-225.226"/>
</g>
<!-- Node12 -->
<g id="node12" class="node"><title>Node12</title>
<g id="a_node12"><a xlink:href="../../d5/d1f/classengine_1_1physics_1_1_vector.html#a6f71261863fa29e27f1b3f1051529321" target="_top" xlink:title="engine.physics.Vector.getY">
<polygon fill="white" stroke="black" points="707,-168.5 707,-187.5 851,-187.5 851,-168.5 707,-168.5"/>
<text text-anchor="middle" x="779" y="-175.5" font-family="Helvetica,sans-Serif" font-size="10.00">engine.physics.Vector.getY</text>
</a>
</g>
</g>
<!-- Node2&#45;&gt;Node12 -->
<g id="edge11" class="edge"><title>Node2&#45;&gt;Node12</title>
<path fill="none" stroke="midnightblue" d="M331.106,-288.746C354.273,-270.137 396.399,-239.275 438,-224 522.738,-192.886 626.299,-182.49 696.702,-179.185"/>
<polygon fill="midnightblue" stroke="midnightblue" points="697.003,-182.676 706.843,-178.748 696.701,-175.682 697.003,-182.676"/>
</g>
<!-- Node13 -->
<g id="node13" class="node"><title>Node13</title>
<g id="a_node13"><a xlink:href="../../da/d1b/classengine_1_1collision_1_1objects_1_1_collision_composition.html#a16ad6d1ec6082599cf72870f5cd3dd03" target="_top" xlink:title="engine.collision.objects.\lCollisionComposition.isOnXAxis">
<polygon fill="white" stroke="black" points="456.5,-289 456.5,-319 621.5,-319 621.5,-289 456.5,-289"/>
<text text-anchor="start" x="464.5" y="-307" font-family="Helvetica,sans-Serif" font-size="10.00">engine.collision.objects.</text>
<text text-anchor="middle" x="539" y="-296" font-family="Helvetica,sans-Serif" font-size="10.00">CollisionComposition.isOnXAxis</text>
</a>
</g>
</g>
<!-- Node2&#45;&gt;Node13 -->
<g id="edge12" class="edge"><title>Node2&#45;&gt;Node13</title>
<path fill="none" stroke="midnightblue" d="M402.249,-304C416.565,-304 431.406,-304 445.789,-304"/>
<polygon fill="midnightblue" stroke="midnightblue" points="446.168,-307.5 456.168,-304 446.168,-300.5 446.168,-307.5"/>
</g>
<!-- Node17 -->
<g id="node17" class="node"><title>Node17</title>
<g id="a_node17"><a xlink:href="../../d0/d7f/classengine_1_1game_object_1_1_game_object.html#ac1d82901c7db3b23772dfe3931e9a53d" target="_top" xlink:title="engine.gameObject.GameObject.set\lTranslateX">
<polygon fill="white" stroke="black" points="683.5,-119 683.5,-149 874.5,-149 874.5,-119 683.5,-119"/>
<text text-anchor="start" x="691.5" y="-137" font-family="Helvetica,sans-Serif" font-size="10.00">engine.gameObject.GameObject.set</text>
<text text-anchor="middle" x="779" y="-126" font-family="Helvetica,sans-Serif" font-size="10.00">TranslateX</text>
</a>
</g>
</g>
<!-- Node2&#45;&gt;Node17 -->
<g id="edge25" class="edge"><title>Node2&#45;&gt;Node17</title>
<path fill="none" stroke="midnightblue" d="M323.253,-288.644C342.283,-261.544 385.905,-205.676 438,-180 511.076,-143.983 603.119,-133.321 673.002,-131.202"/>
<polygon fill="midnightblue" stroke="midnightblue" points="673.237,-134.698 683.147,-130.95 673.063,-127.7 673.237,-134.698"/>
</g>
<!-- Node18 -->
<g id="node18" class="node"><title>Node18</title>
<g id="a_node18"><a xlink:href="../../d0/d7f/classengine_1_1game_object_1_1_game_object.html#a80eaf3afeb78a2502bb3c6affd73bdd7" target="_top" xlink:title="engine.gameObject.GameObject.set\lTranslateY">
<polygon fill="white" stroke="black" points="683.5,-70 683.5,-100 874.5,-100 874.5,-70 683.5,-70"/>
<text text-anchor="start" x="691.5" y="-88" font-family="Helvetica,sans-Serif" font-size="10.00">engine.gameObject.GameObject.set</text>
<text text-anchor="middle" x="779" y="-77" font-family="Helvetica,sans-Serif" font-size="10.00">TranslateY</text>
</a>
</g>
</g>
<!-- Node2&#45;&gt;Node18 -->
<g id="edge26" class="edge"><title>Node2&#45;&gt;Node18</title>
<path fill="none" stroke="midnightblue" d="M318.842,-288.936C333.182,-254.199 373.705,-168.515 438,-130 476.592,-106.882 588.085,-95.3769 672.971,-89.8299"/>
<polygon fill="midnightblue" stroke="midnightblue" points="673.426,-93.3082 683.185,-89.1826 672.983,-86.3222 673.426,-93.3082"/>
</g>
<!-- Node19 -->
<g id="node19" class="node"><title>Node19</title>
<g id="a_node19"><a xlink:href="../../d9/d9d/classengine_1_1game_object_1_1components_1_1_physics_body.html#a5f54f878a7fef4a77a58bbee39e8c9d3" target="_top" xlink:title="engine.gameObject.components.\lPhysicsBody.setVelocity">
<polygon fill="white" stroke="black" points="451,-49 451,-79 627,-79 627,-49 451,-49"/>
<text text-anchor="start" x="459" y="-67" font-family="Helvetica,sans-Serif" font-size="10.00">engine.gameObject.components.</text>
<text text-anchor="middle" x="539" y="-56" font-family="Helvetica,sans-Serif" font-size="10.00">PhysicsBody.setVelocity</text>
</a>
</g>
</g>
<!-- Node2&#45;&gt;Node19 -->
<g id="edge27" class="edge"><title>Node2&#45;&gt;Node19</title>
<path fill="none" stroke="midnightblue" d="M317.649,-288.971C330.333,-250.484 369.264,-147.642 438,-94 443.28,-89.8793 449.12,-86.3231 455.247,-83.2543"/>
<polygon fill="midnightblue" stroke="midnightblue" points="456.741,-86.42 464.399,-79.098 453.846,-80.0465 456.741,-86.42"/>
</g>
<!-- Node20 -->
<g id="node20" class="node"><title>Node20</title>
<g id="a_node20"><a xlink:href="../../dc/db5/classengine_1_1physics_1_1_physics_component.html#aabe6f17a9d86eaf42e9df5769182dfa5" target="_top" xlink:title="engine.physics.PhysicsComponent.to\lString">
<polygon fill="white" stroke="black" points="442,-0 442,-30 636,-30 636,-0 442,-0"/>
<text text-anchor="start" x="450" y="-18" font-family="Helvetica,sans-Serif" font-size="10.00">engine.physics.PhysicsComponent.to</text>
<text text-anchor="middle" x="539" y="-7" font-family="Helvetica,sans-Serif" font-size="10.00">String</text>
</a>
</g>
</g>
<!-- Node2&#45;&gt;Node20 -->
<g id="edge28" class="edge"><title>Node2&#45;&gt;Node20</title>
<path fill="none" stroke="midnightblue" d="M315.452,-288.915C323.662,-243.478 354.533,-106.883 438,-39 439.558,-37.7327 441.173,-36.5303 442.835,-35.3898"/>
<polygon fill="midnightblue" stroke="midnightblue" points="444.737,-38.3307 451.514,-30.1867 441.137,-32.3271 444.737,-38.3307"/>
</g>
<!-- Node13&#45;&gt;Node6 -->
<g id="edge13" class="edge"><title>Node13&#45;&gt;Node6</title>
<path fill="none" stroke="midnightblue" d="M553.167,-319.381C574.213,-344.664 615.547,-397.278 640,-448 664.181,-498.157 635.634,-529.646 676,-568 677.487,-569.413 679.04,-570.75 680.651,-572.015"/>
<polygon fill="midnightblue" stroke="midnightblue" points="678.901,-575.056 689.145,-577.758 682.822,-569.257 678.901,-575.056"/>
</g>
<!-- Node13&#45;&gt;Node7 -->
<g id="edge15" class="edge"><title>Node13&#45;&gt;Node7</title>
<path fill="none" stroke="midnightblue" d="M558.425,-319.008C580.669,-338.029 617.845,-372.841 640,-410 666.127,-453.821 638.534,-484.371 676,-519 677.933,-520.787 679.972,-522.451 682.1,-524.002"/>
<polygon fill="midnightblue" stroke="midnightblue" points="680.382,-527.056 690.706,-529.436 684.119,-521.138 680.382,-527.056"/>
</g>
<!-- Node13&#45;&gt;Node8 -->
<g id="edge16" class="edge"><title>Node13&#45;&gt;Node8</title>
<path fill="none" stroke="midnightblue" d="M572.318,-319.213C594.104,-330.926 622.042,-348.997 640,-372 668.553,-408.576 641.409,-439.072 676,-470 677.712,-471.53 679.502,-472.971 681.359,-474.326"/>
<polygon fill="midnightblue" stroke="midnightblue" points="679.571,-477.337 689.889,-479.741 683.322,-471.427 679.571,-477.337"/>
</g>
<!-- Node13&#45;&gt;Node9 -->
<g id="edge17" class="edge"><title>Node13&#45;&gt;Node9</title>
<path fill="none" stroke="midnightblue" d="M616.734,-319.093C625.207,-322.978 633.209,-327.862 640,-334 671.044,-362.06 644.249,-393.742 676,-421 677.798,-422.544 679.677,-423.996 681.624,-425.36"/>
<polygon fill="midnightblue" stroke="midnightblue" points="680.191,-428.586 690.551,-430.803 683.835,-422.609 680.191,-428.586"/>
</g>
<!-- Node13&#45;&gt;Node10 -->
<g id="edge19" class="edge"><title>Node13&#45;&gt;Node10</title>
<path fill="none" stroke="midnightblue" d="M621.24,-288.981C642.282,-285.091 665.08,-280.876 686.604,-276.897"/>
<polygon fill="midnightblue" stroke="midnightblue" points="687.525,-280.286 696.722,-275.026 686.252,-273.403 687.525,-280.286"/>
</g>
<!-- Node13&#45;&gt;Node11 -->
<g id="edge20" class="edge"><title>Node13&#45;&gt;Node11</title>
<path fill="none" stroke="midnightblue" d="M564.623,-288.783C591.168,-273.04 635.129,-248.855 676,-235 684.181,-232.227 692.875,-229.826 701.605,-227.755"/>
<polygon fill="midnightblue" stroke="midnightblue" points="702.453,-231.152 711.449,-225.555 700.927,-224.32 702.453,-231.152"/>
</g>
<!-- Node13&#45;&gt;Node12 -->
<g id="edge21" class="edge"><title>Node13&#45;&gt;Node12</title>
<path fill="none" stroke="midnightblue" d="M554.273,-288.783C577.419,-265.108 625.648,-219.812 676,-197 682.655,-193.985 689.762,-191.448 697.011,-189.314"/>
<polygon fill="midnightblue" stroke="midnightblue" points="698.203,-192.618 706.954,-186.646 696.388,-185.857 698.203,-192.618"/>
</g>
<!-- Node14 -->
<g id="node14" class="node"><title>Node14</title>
<g id="a_node14"><a xlink:href="../../d0/d7f/classengine_1_1game_object_1_1_game_object.html#a901e42e4b26176a748b42879941eb4f4" target="_top" xlink:title="engine.gameObject.GameObject.get\lRenderedNode">
<polygon fill="white" stroke="black" points="683,-382 683,-412 875,-412 875,-382 683,-382"/>
<text text-anchor="start" x="691" y="-400" font-family="Helvetica,sans-Serif" font-size="10.00">engine.gameObject.GameObject.get</text>
<text text-anchor="middle" x="779" y="-389" font-family="Helvetica,sans-Serif" font-size="10.00">RenderedNode</text>
</a>
</g>
</g>
<!-- Node13&#45;&gt;Node14 -->
<g id="edge14" class="edge"><title>Node13&#45;&gt;Node14</title>
<path fill="none" stroke="midnightblue" d="M607.706,-319.048C618.933,-323.001 630.122,-327.917 640,-334 659.81,-346.198 655.885,-360.312 676,-372 679.873,-374.251 683.943,-376.3 688.135,-378.165"/>
<polygon fill="midnightblue" stroke="midnightblue" points="686.898,-381.44 697.48,-381.962 689.533,-374.955 686.898,-381.44"/>
</g>
<!-- Node15 -->
<g id="node15" class="node"><title>Node15</title>
<g id="a_node15"><a xlink:href="../../d0/de5/classengine_1_1physics_1_1_scalar.html#a676fb6b37fae2e642fcdec1109b4b233" target="_top" xlink:title="engine.physics.Scalar.get\lValue">
<polygon fill="white" stroke="black" points="710,-333 710,-363 848,-363 848,-333 710,-333"/>
<text text-anchor="start" x="718" y="-351" font-family="Helvetica,sans-Serif" font-size="10.00">engine.physics.Scalar.get</text>
<text text-anchor="middle" x="779" y="-340" font-family="Helvetica,sans-Serif" font-size="10.00">Value</text>
</a>
</g>
</g>
<!-- Node13&#45;&gt;Node15 -->
<g id="edge18" class="edge"><title>Node13&#45;&gt;Node15</title>
<path fill="none" stroke="midnightblue" d="M621.24,-319.019C646.681,-323.723 674.69,-328.901 699.909,-333.563"/>
<polygon fill="midnightblue" stroke="midnightblue" points="699.322,-337.014 709.791,-335.39 700.594,-330.13 699.322,-337.014"/>
</g>
<!-- Node16 -->
<g id="node16" class="node"><title>Node16</title>
<g id="a_node16"><a xlink:href="../../d2/d82/classengine_1_1render_1_1_rendered_node.html#ac199ac1cb9b6509d685d2aca157e5a3d" target="_top" xlink:title="engine.render.RenderedNode.intersects">
<polygon fill="white" stroke="black" points="676,-294.5 676,-313.5 882,-313.5 882,-294.5 676,-294.5"/>
<text text-anchor="middle" x="779" y="-301.5" font-family="Helvetica,sans-Serif" font-size="10.00">engine.render.RenderedNode.intersects</text>
</a>
</g>
</g>
<!-- Node13&#45;&gt;Node16 -->
<g id="edge22" class="edge"><title>Node13&#45;&gt;Node16</title>
<path fill="none" stroke="midnightblue" d="M621.573,-304C635.786,-304 650.793,-304 665.66,-304"/>
<polygon fill="midnightblue" stroke="midnightblue" points="665.919,-307.5 675.919,-304 665.919,-300.5 665.919,-307.5"/>
</g>
<!-- Node13&#45;&gt;Node17 -->
<g id="edge23" class="edge"><title>Node13&#45;&gt;Node17</title>
<path fill="none" stroke="midnightblue" d="M549.895,-288.55C569.897,-258.635 618.192,-192.785 676,-159 679.868,-156.74 683.933,-154.683 688.121,-152.811"/>
<polygon fill="midnightblue" stroke="midnightblue" points="689.522,-156.02 697.46,-149.003 686.878,-149.538 689.522,-156.02"/>
</g>
<!-- Node13&#45;&gt;Node18 -->
<g id="edge24" class="edge"><title>Node13&#45;&gt;Node18</title>
<path fill="none" stroke="midnightblue" d="M545.932,-288.986C561.338,-252.041 606.338,-156.295 676,-109 678.399,-107.371 680.894,-105.853 683.465,-104.436"/>
<polygon fill="midnightblue" stroke="midnightblue" points="685.04,-107.562 692.465,-100.004 681.947,-101.282 685.04,-107.562"/>
</g>
</g>
</svg>
        <g id="navigator" transform="translate(0 0)" fill="#404254">
                <rect fill="#f2f5e9" fill-opacity="0.5" stroke="#606060" stroke-width=".5" x="0" y="0" width="60" height="60"/>
                <use id="zoomplus" xlink:href="#zoomPlus" x="17" y="9" onmousedown="handleZoom(evt,'in')"/>
                <use id="zoomminus" xlink:href="#zoomMin" x="42" y="9" onmousedown="handleZoom(evt,'out')"/>
                <use id="reset" xlink:href="#resetDef" x="30" y="36" onmousedown="handleReset()"/>
                <g id="arrowUp" xlink:href="#dirArrow" transform="translate(30 24)" onmousedown="handlePan(0,-1)">
                  <use xlink:href="#rim" fill="#404040">
                        <set attributeName="fill" to="#808080" begin="arrowUp.mouseover" end="arrowUp.mouseout"/>
                  </use>
                  <path fill="none" stroke="white" stroke-width="1.5" d="M0,-3.0v7 M-2.5,-0.5L0,-3.0L2.5,-0.5"/>
                </g>
                <g id="arrowRight" xlink:href="#dirArrow" transform="rotate(90) translate(36 -43)" onmousedown="handlePan(1,0)">
                  <use xlink:href="#rim" fill="#404040">
                        <set attributeName="fill" to="#808080" begin="arrowRight.mouseover" end="arrowRight.mouseout"/>
                  </use>
                  <path fill="none" stroke="white" stroke-width="1.5" d="M0,-3.0v7 M-2.5,-0.5L0,-3.0L2.5,-0.5"/>
                </g>
                <g id="arrowDown" xlink:href="#dirArrow" transform="rotate(180) translate(-30 -48)" onmousedown="handlePan(0,1)">
                  <use xlink:href="#rim" fill="#404040">
                        <set attributeName="fill" to="#808080" begin="arrowDown.mouseover" end="arrowDown.mouseout"/>
                  </use>
                  <path fill="none" stroke="white" stroke-width="1.5" d="M0,-3.0v7 M-2.5,-0.5L0,-3.0L2.5,-0.5"/>
                </g>
                <g id="arrowLeft" xlink:href="#dirArrow" transform="rotate(270) translate(-36 17)" onmousedown="handlePan(-1,0)">
                  <use xlink:href="#rim" fill="#404040">
                        <set attributeName="fill" to="#808080" begin="arrowLeft.mouseover" end="arrowLeft.mouseout"/>
                  </use>
                  <path fill="none" stroke="white" stroke-width="1.5" d="M0,-3.0v7 M-2.5,-0.5L0,-3.0L2.5,-0.5"/>
                </g>
        </g>
        <svg viewBox="0 0 15 15" width="100%" height="30px" preserveAspectRatio="xMaxYMin meet">
         <g id="arrow_out" transform="scale(0.3 0.3)">
          <a xlink:href="classengine_1_1collision_1_1objects_1_1_powerup_collision_object_a4e09b2b8b7cfbcdd6def8332de2025b7_cgraph_org.svg" target="_base">
           <rect id="button" ry="5" rx="5" y="6" x="6" height="38" width="38"
                fill="#f2f5e9" fill-opacity="0.5" stroke="#606060" stroke-width="1.0"/>
           <path id="arrow"
             d="M 11.500037,31.436501 C 11.940474,20.09759 22.043105,11.32322 32.158766,21.979434 L 37.068811,17.246167 C 37.068811,17.246167 37.088388,32 37.088388,32 L 22.160133,31.978069 C 22.160133,31.978069 26.997745,27.140456 26.997745,27.140456 C 18.528582,18.264221 13.291696,25.230495 11.500037,31.436501 z"
             style="fill:#404040;"/>
          </a>
         </g>
        </svg>
</svg>
