<?xml version="1.0" encoding="UTF-8" standalone="no"?>
<!DOCTYPE svg PUBLIC "-//W3C//DTD SVG 1.1//EN"
 "http://www.w3.org/Graphics/SVG/1.1/DTD/svg11.dtd">
<!-- Generated by graphviz version 2.36.0 (20140111.2315)
 -->
<!-- Title: engine.level.LevelManager.initializeCurrentLevel Pages: 1 -->
<svg width="1124pt" height="633pt"
 viewBox="0.00 0.00 1124.00 633.00" xmlns="http://www.w3.org/2000/svg" xmlns:xlink="http://www.w3.org/1999/xlink">
<g id="graph0" class="graph" transform="scale(1 1) rotate(0) translate(4 629)">
<title>engine.level.LevelManager.initializeCurrentLevel</title>
<polygon fill="white" stroke="none" points="-4,4 -4,-629 1120,-629 1120,4 -4,4"/>
<!-- Node1 -->
<g id="node1" class="node"><title>Node1</title>
<polygon fill="#bfbfbf" stroke="black" points="0,-343 0,-373 184,-373 184,-343 0,-343"/>
<text text-anchor="start" x="8" y="-361" font-family="Helvetica,sans-Serif" font-size="10.00">engine.level.LevelManager.initialize</text>
<text text-anchor="middle" x="92" y="-350" font-family="Helvetica,sans-Serif" font-size="10.00">CurrentLevel</text>
</g>
<!-- Node2 -->
<g id="node2" class="node"><title>Node2</title>
<g id="a_node2"><a xlink:href="../../df/d67/classengine_1_1level_1_1_level_manager.html#af00a1d61217dd801bb7a8b16ad829cf0" target="_top" xlink:title="engine.level.LevelManager.disable\lAllConditions">
<polygon fill="white" stroke="black" points="220.5,-502 220.5,-532 399.5,-532 399.5,-502 220.5,-502"/>
<text text-anchor="start" x="228.5" y="-520" font-family="Helvetica,sans-Serif" font-size="10.00">engine.level.LevelManager.disable</text>
<text text-anchor="middle" x="310" y="-509" font-family="Helvetica,sans-Serif" font-size="10.00">AllConditions</text>
</a>
</g>
</g>
<!-- Node1&#45;&gt;Node2 -->
<g id="edge1" class="edge"><title>Node1&#45;&gt;Node2</title>
<path fill="none" stroke="midnightblue" d="M103.268,-373.411C122.689,-401.344 167.587,-460.366 220,-492 223.457,-494.086 227.093,-496.004 230.841,-497.766"/>
<polygon fill="midnightblue" stroke="midnightblue" points="229.777,-501.117 240.348,-501.833 232.53,-494.682 229.777,-501.117"/>
</g>
<!-- Node3 -->
<g id="node3" class="node"><title>Node3</title>
<g id="a_node3"><a xlink:href="../../df/d84/classengine_1_1level_1_1_level.html#a368275ed98c802fbf59a11423b9b9a0d" target="_top" xlink:title="engine.level.Level.getBackground\lMusic">
<polygon fill="white" stroke="black" points="221.5,-453 221.5,-483 398.5,-483 398.5,-453 221.5,-453"/>
<text text-anchor="start" x="229.5" y="-471" font-family="Helvetica,sans-Serif" font-size="10.00">engine.level.Level.getBackground</text>
<text text-anchor="middle" x="310" y="-460" font-family="Helvetica,sans-Serif" font-size="10.00">Music</text>
</a>
</g>
</g>
<!-- Node1&#45;&gt;Node3 -->
<g id="edge2" class="edge"><title>Node1&#45;&gt;Node3</title>
<path fill="none" stroke="midnightblue" d="M111.661,-373.28C135.472,-392.096 178.555,-423.901 220,-443 225.229,-445.41 230.741,-447.635 236.352,-449.68"/>
<polygon fill="midnightblue" stroke="midnightblue" points="235.265,-453.008 245.859,-452.953 237.543,-446.389 235.265,-453.008"/>
</g>
<!-- Node4 -->
<g id="node4" class="node"><title>Node4</title>
<g id="a_node4"><a xlink:href="../../df/d84/classengine_1_1level_1_1_level.html#ace23cd4ed278a5bb85e964ff3c8818b5" target="_top" xlink:title="engine.level.Level.initialize">
<polygon fill="white" stroke="black" points="238.5,-414.5 238.5,-433.5 381.5,-433.5 381.5,-414.5 238.5,-414.5"/>
<text text-anchor="middle" x="310" y="-421.5" font-family="Helvetica,sans-Serif" font-size="10.00">engine.level.Level.initialize</text>
</a>
</g>
</g>
<!-- Node1&#45;&gt;Node4 -->
<g id="edge3" class="edge"><title>Node1&#45;&gt;Node4</title>
<path fill="none" stroke="midnightblue" d="M142.284,-373.059C180.297,-384.674 232.254,-400.55 268.009,-411.475"/>
<polygon fill="midnightblue" stroke="midnightblue" points="267.053,-414.843 277.64,-414.418 269.099,-408.148 267.053,-414.843"/>
</g>
<!-- Node9 -->
<g id="node9" class="node"><title>Node9</title>
<g id="a_node9"><a xlink:href="../../da/d90/classengine_1_1sound_1_1_sound_utility.html#ab8cd26d71aa7b20d07350105a4254c92" target="_top" xlink:title="engine.sound.SoundUtility.play\lBackGroundMusic">
<polygon fill="white" stroke="black" points="228.5,-294 228.5,-324 391.5,-324 391.5,-294 228.5,-294"/>
<text text-anchor="start" x="236.5" y="-312" font-family="Helvetica,sans-Serif" font-size="10.00">engine.sound.SoundUtility.play</text>
<text text-anchor="middle" x="310" y="-301" font-family="Helvetica,sans-Serif" font-size="10.00">BackGroundMusic</text>
</a>
</g>
</g>
<!-- Node1&#45;&gt;Node9 -->
<g id="edge8" class="edge"><title>Node1&#45;&gt;Node9</title>
<path fill="none" stroke="midnightblue" d="M159.275,-342.965C182.6,-337.674 208.993,-331.687 233.053,-326.229"/>
<polygon fill="midnightblue" stroke="midnightblue" points="233.872,-329.632 242.85,-324.006 232.324,-322.805 233.872,-329.632"/>
</g>
<!-- Node10 -->
<g id="node10" class="node"><title>Node10</title>
<g id="a_node10"><a xlink:href="../../df/de5/classengine_1_1render_1_1_game_object_renderer.html#a610545384a337edcd3bffb9f0c6ecf18" target="_top" xlink:title="engine.render.GameObject\lRenderer.renderGameObjects">
<polygon fill="white" stroke="black" points="231,-343 231,-373 389,-373 389,-343 231,-343"/>
<text text-anchor="start" x="239" y="-361" font-family="Helvetica,sans-Serif" font-size="10.00">engine.render.GameObject</text>
<text text-anchor="middle" x="310" y="-350" font-family="Helvetica,sans-Serif" font-size="10.00">Renderer.renderGameObjects</text>
</a>
</g>
</g>
<!-- Node1&#45;&gt;Node10 -->
<g id="edge9" class="edge"><title>Node1&#45;&gt;Node10</title>
<path fill="none" stroke="midnightblue" d="M184.29,-358C196.223,-358 208.435,-358 220.325,-358"/>
<polygon fill="midnightblue" stroke="midnightblue" points="220.674,-361.5 230.674,-358 220.674,-354.5 220.674,-361.5"/>
</g>
<!-- Node34 -->
<g id="node34" class="node"><title>Node34</title>
<g id="a_node34"><a xlink:href="../../df/d67/classengine_1_1level_1_1_level_manager.html#a5d79217e53b1e3804476ba6b366ad066" target="_top" xlink:title="engine.level.LevelManager.set\lLevelEnabledConditions">
<polygon fill="white" stroke="black" points="229.5,-209 229.5,-239 390.5,-239 390.5,-209 229.5,-209"/>
<text text-anchor="start" x="237.5" y="-227" font-family="Helvetica,sans-Serif" font-size="10.00">engine.level.LevelManager.set</text>
<text text-anchor="middle" x="310" y="-216" font-family="Helvetica,sans-Serif" font-size="10.00">LevelEnabledConditions</text>
</a>
</g>
</g>
<!-- Node1&#45;&gt;Node34 -->
<g id="edge39" class="edge"><title>Node1&#45;&gt;Node34</title>
<path fill="none" stroke="midnightblue" d="M117.358,-342.889C156.272,-318.748 232.515,-271.449 276.191,-244.354"/>
<polygon fill="midnightblue" stroke="midnightblue" points="278.078,-247.302 284.731,-239.056 274.388,-241.353 278.078,-247.302"/>
</g>
<!-- Node37 -->
<g id="node37" class="node"><title>Node37</title>
<g id="a_node37"><a xlink:href="../../da/d90/classengine_1_1sound_1_1_sound_utility.html#a53a82805b12b2b8f68b8396b9795d092" target="_top" xlink:title="engine.sound.SoundUtility.stop\lBackGroundMusic">
<polygon fill="white" stroke="black" points="228,-160 228,-190 392,-190 392,-160 228,-160"/>
<text text-anchor="start" x="236" y="-178" font-family="Helvetica,sans-Serif" font-size="10.00">engine.sound.SoundUtility.stop</text>
<text text-anchor="middle" x="310" y="-167" font-family="Helvetica,sans-Serif" font-size="10.00">BackGroundMusic</text>
</a>
</g>
</g>
<!-- Node1&#45;&gt;Node37 -->
<g id="edge42" class="edge"><title>Node1&#45;&gt;Node37</title>
<path fill="none" stroke="midnightblue" d="M100.852,-342.635C117.961,-310.74 161.788,-237.148 220,-199 222.447,-197.396 224.998,-195.899 227.627,-194.502"/>
<polygon fill="midnightblue" stroke="midnightblue" points="229.296,-197.584 236.82,-190.125 226.286,-191.264 229.296,-197.584"/>
</g>
<!-- Node5 -->
<g id="node5" class="node"><title>Node5</title>
<g id="a_node5"><a xlink:href="../../d4/d3b/classauthoring_1_1model_1_1collections_1_1_general_collection.html#a1bdc1047736bbb23259d6a7fe4c6deeb" target="_top" xlink:title="authoring.model.collections.\lGeneralCollection.add">
<polygon fill="white" stroke="black" points="467,-458 467,-488 619,-488 619,-458 467,-458"/>
<text text-anchor="start" x="475" y="-476" font-family="Helvetica,sans-Serif" font-size="10.00">authoring.model.collections.</text>
<text text-anchor="middle" x="543" y="-465" font-family="Helvetica,sans-Serif" font-size="10.00">GeneralCollection.add</text>
</a>
</g>
</g>
<!-- Node4&#45;&gt;Node5 -->
<g id="edge4" class="edge"><title>Node4&#45;&gt;Node5</title>
<path fill="none" stroke="midnightblue" d="M355.813,-433.506C385.675,-439.84 425.78,-448.347 461.121,-455.844"/>
<polygon fill="midnightblue" stroke="midnightblue" points="460.441,-459.277 470.95,-457.929 461.894,-452.43 460.441,-459.277"/>
</g>
<!-- Node6 -->
<g id="node6" class="node"><title>Node6</title>
<g id="a_node6"><a xlink:href="../../d0/d7f/classengine_1_1game_object_1_1_game_object.html#accd456b2eaab9c7056de825a28b066c8" target="_top" xlink:title="engine.gameObject.GameObject.get\lIdentifier">
<polygon fill="white" stroke="black" points="691,-595 691,-625 883,-625 883,-595 691,-595"/>
<text text-anchor="start" x="699" y="-613" font-family="Helvetica,sans-Serif" font-size="10.00">engine.gameObject.GameObject.get</text>
<text text-anchor="middle" x="787" y="-602" font-family="Helvetica,sans-Serif" font-size="10.00">Identifier</text>
</a>
</g>
</g>
<!-- Node4&#45;&gt;Node6 -->
<g id="edge5" class="edge"><title>Node4&#45;&gt;Node6</title>
<path fill="none" stroke="midnightblue" d="M381.847,-431.864C388.458,-434.663 394.666,-438.299 400,-443 436.379,-475.065 399.152,-514.475 436,-546 503.044,-603.359 604.233,-616.635 680.593,-617.163"/>
<polygon fill="midnightblue" stroke="midnightblue" points="680.723,-620.663 690.722,-617.16 680.721,-613.663 680.723,-620.663"/>
</g>
<!-- Node7 -->
<g id="node7" class="node"><title>Node7</title>
<g id="a_node7"><a xlink:href="../../d4/dac/classengine_1_1game_object_1_1_identifier.html#aa2630b5024b9595e43afe0bf53229433" target="_top" xlink:title="engine.gameObject.Identifier.get\lUniqueId">
<polygon fill="white" stroke="black" points="456.5,-409 456.5,-439 629.5,-439 629.5,-409 456.5,-409"/>
<text text-anchor="start" x="464.5" y="-427" font-family="Helvetica,sans-Serif" font-size="10.00">engine.gameObject.Identifier.get</text>
<text text-anchor="middle" x="543" y="-416" font-family="Helvetica,sans-Serif" font-size="10.00">UniqueId</text>
</a>
</g>
</g>
<!-- Node4&#45;&gt;Node7 -->
<g id="edge6" class="edge"><title>Node4&#45;&gt;Node7</title>
<path fill="none" stroke="midnightblue" d="M381.563,-424C401.951,-424 424.553,-424 446.203,-424"/>
<polygon fill="midnightblue" stroke="midnightblue" points="446.405,-427.5 456.405,-424 446.405,-420.5 446.405,-427.5"/>
</g>
<!-- Node8 -->
<g id="node8" class="node"><title>Node8</title>
<g id="a_node8"><a xlink:href="../../df/d67/classengine_1_1level_1_1_level_manager.html#a6e15411e375d875fa72058d499bec766" target="_top" xlink:title="engine.level.LevelManager.object\lForIdentifier">
<polygon fill="white" stroke="black" points="455.5,-507 455.5,-537 630.5,-537 630.5,-507 455.5,-507"/>
<text text-anchor="start" x="463.5" y="-525" font-family="Helvetica,sans-Serif" font-size="10.00">engine.level.LevelManager.object</text>
<text text-anchor="middle" x="543" y="-514" font-family="Helvetica,sans-Serif" font-size="10.00">ForIdentifier</text>
</a>
</g>
</g>
<!-- Node4&#45;&gt;Node8 -->
<g id="edge7" class="edge"><title>Node4&#45;&gt;Node8</title>
<path fill="none" stroke="midnightblue" d="M381.638,-433.645C388.136,-436.113 394.38,-439.183 400,-443 423.862,-459.205 412.312,-480.542 436,-497 439.269,-499.271 442.718,-501.338 446.294,-503.219"/>
<polygon fill="midnightblue" stroke="midnightblue" points="444.879,-506.421 455.417,-507.521 447.865,-500.09 444.879,-506.421"/>
</g>
<!-- Node10&#45;&gt;Node6 -->
<g id="edge15" class="edge"><title>Node10&#45;&gt;Node6</title>
<path fill="none" stroke="midnightblue" d="M389.29,-362.651C483.448,-368.98 631.266,-381.548 650,-399 711.61,-456.394 628.084,-523.881 686,-585 687.227,-586.295 688.51,-587.527 689.843,-588.699"/>
<polygon fill="midnightblue" stroke="midnightblue" points="687.873,-591.596 697.979,-594.775 692.062,-585.987 687.873,-591.596"/>
</g>
<!-- Node10&#45;&gt;Node7 -->
<g id="edge16" class="edge"><title>Node10&#45;&gt;Node7</title>
<path fill="none" stroke="midnightblue" d="M362.983,-373.029C385.434,-379.505 412.004,-387.149 436,-394 449.896,-397.968 464.824,-402.207 478.964,-406.211"/>
<polygon fill="midnightblue" stroke="midnightblue" points="478.03,-409.584 488.605,-408.94 479.936,-402.849 478.03,-409.584"/>
</g>
<!-- Node11 -->
<g id="node11" class="node"><title>Node11</title>
<g id="a_node11"><a xlink:href="../../df/de5/classengine_1_1render_1_1_game_object_renderer.html#ad1dadb54349f33bce5bb60cd8d5cac64" target="_top" xlink:title="engine.render.GameObject\lRenderer.setBackGroundImage">
<polygon fill="white" stroke="black" points="460.5,-223 460.5,-253 625.5,-253 625.5,-223 460.5,-223"/>
<text text-anchor="start" x="468.5" y="-241" font-family="Helvetica,sans-Serif" font-size="10.00">engine.render.GameObject</text>
<text text-anchor="middle" x="543" y="-230" font-family="Helvetica,sans-Serif" font-size="10.00">Renderer.setBackGroundImage</text>
</a>
</g>
</g>
<!-- Node10&#45;&gt;Node11 -->
<g id="edge10" class="edge"><title>Node10&#45;&gt;Node11</title>
<path fill="none" stroke="midnightblue" d="M384.447,-342.911C390.013,-340.144 395.287,-336.871 400,-333 427.339,-310.542 408.096,-283.751 436,-262 440.671,-258.359 445.791,-255.25 451.179,-252.597"/>
<polygon fill="midnightblue" stroke="midnightblue" points="452.697,-255.753 460.467,-248.55 449.901,-249.336 452.697,-255.753"/>
</g>
<!-- Node14 -->
<g id="node14" class="node"><title>Node14</title>
<g id="a_node14"><a xlink:href="../../df/d84/classengine_1_1level_1_1_level.html#af2921158eda86e1f909575ee468eec5c" target="_top" xlink:title="engine.level.Level.getGame\lObjectIterator">
<polygon fill="white" stroke="black" points="468.5,-272 468.5,-302 617.5,-302 617.5,-272 468.5,-272"/>
<text text-anchor="start" x="476.5" y="-290" font-family="Helvetica,sans-Serif" font-size="10.00">engine.level.Level.getGame</text>
<text text-anchor="middle" x="543" y="-279" font-family="Helvetica,sans-Serif" font-size="10.00">ObjectIterator</text>
</a>
</g>
</g>
<!-- Node10&#45;&gt;Node14 -->
<g id="edge13" class="edge"><title>Node10&#45;&gt;Node14</title>
<path fill="none" stroke="midnightblue" d="M373.052,-342.946C382.233,-340.039 391.467,-336.721 400,-333 417.188,-325.505 418.626,-318.053 436,-311 443.191,-308.081 450.808,-305.48 458.528,-303.171"/>
<polygon fill="midnightblue" stroke="midnightblue" points="459.666,-306.487 468.338,-300.4 457.763,-299.75 459.666,-306.487"/>
</g>
<!-- Node16 -->
<g id="node16" class="node"><title>Node16</title>
<g id="a_node16"><a xlink:href="../../df/de5/classengine_1_1render_1_1_game_object_renderer.html#a745cb65a5425a20a1b5063068ef1314a" target="_top" xlink:title="engine.render.GameObject\lRenderer.createAndAssignRenderedNode">
<polygon fill="white" stroke="black" points="436.5,-321 436.5,-351 649.5,-351 649.5,-321 436.5,-321"/>
<text text-anchor="start" x="444.5" y="-339" font-family="Helvetica,sans-Serif" font-size="10.00">engine.render.GameObject</text>
<text text-anchor="middle" x="543" y="-328" font-family="Helvetica,sans-Serif" font-size="10.00">Renderer.createAndAssignRenderedNode</text>
</a>
</g>
</g>
<!-- Node10&#45;&gt;Node16 -->
<g id="edge17" class="edge"><title>Node10&#45;&gt;Node16</title>
<path fill="none" stroke="midnightblue" d="M389.206,-350.552C401.186,-349.411 413.767,-348.213 426.349,-347.014"/>
<polygon fill="midnightblue" stroke="midnightblue" points="426.806,-350.487 436.429,-346.054 426.142,-343.518 426.806,-350.487"/>
</g>
<!-- Node12 -->
<g id="node12" class="node"><title>Node12</title>
<g id="a_node12"><a xlink:href="../../d9/db5/classengine_1_1_file_path_utility.html#ad8a72da93bd719a750bd549ed92a37d7" target="_top" xlink:title="engine.FilePathUtility.get\lFilePath">
<polygon fill="white" stroke="black" points="954,-66 954,-96 1086,-96 1086,-66 954,-66"/>
<text text-anchor="start" x="962" y="-84" font-family="Helvetica,sans-Serif" font-size="10.00">engine.FilePathUtility.get</text>
<text text-anchor="middle" x="1020" y="-73" font-family="Helvetica,sans-Serif" font-size="10.00">FilePath</text>
</a>
</g>
</g>
<!-- Node11&#45;&gt;Node12 -->
<g id="edge11" class="edge"><title>Node11&#45;&gt;Node12</title>
<path fill="none" stroke="midnightblue" d="M625.749,-228.507C634.716,-224.753 643.083,-219.719 650,-213 694.541,-169.732 636.758,-115.832 686,-78 724.863,-48.142 858.3,-59.147 944.001,-69.9867"/>
<polygon fill="midnightblue" stroke="midnightblue" points="943.582,-73.4615 953.948,-71.2709 944.478,-66.5191 943.582,-73.4615"/>
</g>
<!-- Node13 -->
<g id="node13" class="node"><title>Node13</title>
<g id="a_node13"><a xlink:href="../../df/d84/classengine_1_1level_1_1_level.html#a5dc36c31fcc8e0b5cbe2a942ec101fdb" target="_top" xlink:title="engine.level.Level.getBackground\lImage">
<polygon fill="white" stroke="black" points="698.5,-0 698.5,-30 875.5,-30 875.5,-0 698.5,-0"/>
<text text-anchor="start" x="706.5" y="-18" font-family="Helvetica,sans-Serif" font-size="10.00">engine.level.Level.getBackground</text>
<text text-anchor="middle" x="787" y="-7" font-family="Helvetica,sans-Serif" font-size="10.00">Image</text>
</a>
</g>
</g>
<!-- Node11&#45;&gt;Node13 -->
<g id="edge12" class="edge"><title>Node11&#45;&gt;Node13</title>
<path fill="none" stroke="midnightblue" d="M625.548,-229.055C634.661,-225.225 643.119,-220.023 650,-213 703.439,-158.453 634.217,-101.121 686,-45 689.357,-41.3616 693.136,-38.1582 697.209,-35.3382"/>
<polygon fill="midnightblue" stroke="midnightblue" points="699.185,-38.2338 705.94,-30.0719 695.569,-32.2397 699.185,-38.2338"/>
</g>
<!-- Node15 -->
<g id="node15" class="node"><title>Node15</title>
<g id="a_node15"><a xlink:href="../../d4/d3b/classauthoring_1_1model_1_1collections_1_1_general_collection.html#a79482ff667a22bb0d5b702c03261fe8d" target="_top" xlink:title="authoring.model.collections.\lGeneralCollection.iterator">
<polygon fill="white" stroke="black" points="711,-88 711,-118 863,-118 863,-88 711,-88"/>
<text text-anchor="start" x="719" y="-106" font-family="Helvetica,sans-Serif" font-size="10.00">authoring.model.collections.</text>
<text text-anchor="middle" x="787" y="-95" font-family="Helvetica,sans-Serif" font-size="10.00">GeneralCollection.iterator</text>
</a>
</g>
</g>
<!-- Node14&#45;&gt;Node15 -->
<g id="edge14" class="edge"><title>Node14&#45;&gt;Node15</title>
<path fill="none" stroke="midnightblue" d="M617.705,-280.497C629.668,-276.569 641.049,-270.695 650,-262 694.541,-218.732 641.544,-170.355 686,-127 690.613,-122.501 695.914,-118.793 701.616,-115.743"/>
<polygon fill="midnightblue" stroke="midnightblue" points="703.253,-118.842 710.865,-111.473 700.319,-112.487 703.253,-118.842"/>
</g>
<!-- Node16&#45;&gt;Node6 -->
<g id="edge37" class="edge"><title>Node16&#45;&gt;Node6</title>
<path fill="none" stroke="midnightblue" d="M630.656,-351.006C637.894,-354.946 644.522,-359.866 650,-366 715.703,-439.572 619.171,-512.449 686,-585 687.209,-586.312 688.475,-587.56 689.792,-588.747"/>
<polygon fill="midnightblue" stroke="midnightblue" points="687.779,-591.613 697.853,-594.894 692.023,-586.046 687.779,-591.613"/>
</g>
<!-- Node17 -->
<g id="node17" class="node"><title>Node17</title>
<g id="a_node17"><a xlink:href="../../d2/d82/classengine_1_1render_1_1_rendered_node.html#a520a8c03b505d10c69e010e603cadfdd" target="_top" xlink:title="engine.render.RenderedNode.set\lImageView">
<polygon fill="white" stroke="black" points="700,-497 700,-527 874,-527 874,-497 700,-497"/>
<text text-anchor="start" x="708" y="-515" font-family="Helvetica,sans-Serif" font-size="10.00">engine.render.RenderedNode.set</text>
<text text-anchor="middle" x="787" y="-504" font-family="Helvetica,sans-Serif" font-size="10.00">ImageView</text>
</a>
</g>
</g>
<!-- Node16&#45;&gt;Node17 -->
<g id="edge18" class="edge"><title>Node16&#45;&gt;Node17</title>
<path fill="none" stroke="midnightblue" d="M628.58,-351.096C636.465,-355.001 643.806,-359.888 650,-366 689.938,-405.408 645.459,-448.212 686,-487 687.681,-488.608 689.449,-490.118 691.291,-491.534"/>
<polygon fill="midnightblue" stroke="midnightblue" points="689.53,-494.566 699.801,-497.167 693.394,-488.729 689.53,-494.566"/>
</g>
<!-- Node18 -->
<g id="node18" class="node"><title>Node18</title>
<g id="a_node18"><a xlink:href="../../df/de5/classengine_1_1render_1_1_game_object_renderer.html#a72580570f971246ef79428f21b6d25e9" target="_top" xlink:title="engine.render.GameObject\lRenderer.createImageAndView">
<polygon fill="white" stroke="black" points="705.5,-137 705.5,-167 868.5,-167 868.5,-137 705.5,-137"/>
<text text-anchor="start" x="713.5" y="-155" font-family="Helvetica,sans-Serif" font-size="10.00">engine.render.GameObject</text>
<text text-anchor="middle" x="787" y="-144" font-family="Helvetica,sans-Serif" font-size="10.00">Renderer.createImageAndView</text>
</a>
</g>
</g>
<!-- Node16&#45;&gt;Node18 -->
<g id="edge19" class="edge"><title>Node16&#45;&gt;Node18</title>
<path fill="none" stroke="midnightblue" d="M636.95,-320.902C641.665,-318.096 646.067,-314.821 650,-311 694.541,-267.732 641.544,-219.355 686,-176 689.164,-172.915 692.65,-170.202 696.368,-167.818"/>
<polygon fill="midnightblue" stroke="midnightblue" points="698.348,-170.723 705.418,-162.832 694.97,-164.592 698.348,-170.723"/>
</g>
<!-- Node22 -->
<g id="node22" class="node"><title>Node22</title>
<g id="a_node22"><a xlink:href="../../d2/d82/classengine_1_1render_1_1_rendered_node.html#ad73c81ad48b40faea3818c9a7bbfdcf0" target="_top" xlink:title="engine.render.RenderedNode.set\lCollisionBody">
<polygon fill="white" stroke="black" points="700,-448 700,-478 874,-478 874,-448 700,-448"/>
<text text-anchor="start" x="708" y="-466" font-family="Helvetica,sans-Serif" font-size="10.00">engine.render.RenderedNode.set</text>
<text text-anchor="middle" x="787" y="-455" font-family="Helvetica,sans-Serif" font-size="10.00">CollisionBody</text>
</a>
</g>
</g>
<!-- Node16&#45;&gt;Node22 -->
<g id="edge24" class="edge"><title>Node16&#45;&gt;Node22</title>
<path fill="none" stroke="midnightblue" d="M624.87,-351.052C633.931,-354.945 642.56,-359.841 650,-366 677.559,-388.814 658.092,-415.613 686,-438 688.076,-439.666 690.249,-441.222 692.5,-442.677"/>
<polygon fill="midnightblue" stroke="midnightblue" points="691.105,-445.909 701.531,-447.795 694.557,-439.819 691.105,-445.909"/>
</g>
<!-- Node23 -->
<g id="node23" class="node"><title>Node23</title>
<g id="a_node23"><a xlink:href="../../df/de5/classengine_1_1render_1_1_game_object_renderer.html#a25493ea430dbd3c6094434ba60e98662" target="_top" xlink:title="engine.render.GameObject\lRenderer.createCollisionBody">
<polygon fill="white" stroke="black" points="709.5,-546 709.5,-576 864.5,-576 864.5,-546 709.5,-546"/>
<text text-anchor="start" x="717.5" y="-564" font-family="Helvetica,sans-Serif" font-size="10.00">engine.render.GameObject</text>
<text text-anchor="middle" x="787" y="-553" font-family="Helvetica,sans-Serif" font-size="10.00">Renderer.createCollisionBody</text>
</a>
</g>
</g>
<!-- Node16&#45;&gt;Node23 -->
<g id="edge25" class="edge"><title>Node16&#45;&gt;Node23</title>
<path fill="none" stroke="midnightblue" d="M630.113,-351.134C637.506,-355.045 644.318,-359.923 650,-366 702.747,-422.412 632.389,-480.407 686,-536 690.138,-540.291 694.893,-543.889 700.033,-546.901"/>
<polygon fill="midnightblue" stroke="midnightblue" points="698.504,-550.05 709.007,-551.436 701.661,-543.802 698.504,-550.05"/>
</g>
<!-- Node27 -->
<g id="node27" class="node"><title>Node27</title>
<g id="a_node27"><a xlink:href="../../d2/d82/classengine_1_1render_1_1_rendered_node.html#a312c663dd1144ff206ecfa1ea8c95a81" target="_top" xlink:title="engine.render.RenderedNode.set\lLabel">
<polygon fill="white" stroke="black" points="700,-350 700,-380 874,-380 874,-350 700,-350"/>
<text text-anchor="start" x="708" y="-368" font-family="Helvetica,sans-Serif" font-size="10.00">engine.render.RenderedNode.set</text>
<text text-anchor="middle" x="787" y="-357" font-family="Helvetica,sans-Serif" font-size="10.00">Label</text>
</a>
</g>
</g>
<!-- Node16&#45;&gt;Node27 -->
<g id="edge29" class="edge"><title>Node16&#45;&gt;Node27</title>
<path fill="none" stroke="midnightblue" d="M649.793,-348.678C663.07,-350.269 676.595,-351.889 689.715,-353.462"/>
<polygon fill="midnightblue" stroke="midnightblue" points="689.313,-356.938 699.658,-354.653 690.146,-349.988 689.313,-356.938"/>
</g>
<!-- Node28 -->
<g id="node28" class="node"><title>Node28</title>
<g id="a_node28"><a xlink:href="../../df/de5/classengine_1_1render_1_1_game_object_renderer.html#a1d5f0ad1a571faec3c1a364bccc4c038" target="_top" xlink:title="engine.render.GameObject\lRenderer.createLabel">
<polygon fill="white" stroke="black" points="714,-399 714,-429 860,-429 860,-399 714,-399"/>
<text text-anchor="start" x="722" y="-417" font-family="Helvetica,sans-Serif" font-size="10.00">engine.render.GameObject</text>
<text text-anchor="middle" x="787" y="-406" font-family="Helvetica,sans-Serif" font-size="10.00">Renderer.createLabel</text>
</a>
</g>
</g>
<!-- Node16&#45;&gt;Node28 -->
<g id="edge30" class="edge"><title>Node16&#45;&gt;Node28</title>
<path fill="none" stroke="midnightblue" d="M608.693,-351.053C622.593,-355.181 637.002,-360.162 650,-366 667.32,-373.78 668.562,-381.488 686,-389 691.77,-391.486 697.839,-393.76 704.015,-395.834"/>
<polygon fill="midnightblue" stroke="midnightblue" points="703.192,-399.244 713.782,-398.929 705.307,-392.571 703.192,-399.244"/>
</g>
<!-- Node30 -->
<g id="node30" class="node"><title>Node30</title>
<g id="a_node30"><a xlink:href="../../d0/d7f/classengine_1_1game_object_1_1_game_object.html#a606c7293c2bfac0af1fb42143bf527f6" target="_top" xlink:title="engine.gameObject.GameObject.getX">
<polygon fill="white" stroke="black" points="688,-311.5 688,-330.5 886,-330.5 886,-311.5 688,-311.5"/>
<text text-anchor="middle" x="787" y="-318.5" font-family="Helvetica,sans-Serif" font-size="10.00">engine.gameObject.GameObject.getX</text>
</a>
</g>
</g>
<!-- Node16&#45;&gt;Node30 -->
<g id="edge34" class="edge"><title>Node16&#45;&gt;Node30</title>
<path fill="none" stroke="midnightblue" d="M649.793,-329.443C659.039,-328.869 668.406,-328.289 677.673,-327.714"/>
<polygon fill="midnightblue" stroke="midnightblue" points="677.915,-331.206 687.679,-327.094 677.482,-324.22 677.915,-331.206"/>
</g>
<!-- Node31 -->
<g id="node31" class="node"><title>Node31</title>
<g id="a_node31"><a xlink:href="../../d0/d7f/classengine_1_1game_object_1_1_game_object.html#a1988806ef560c9384f3844d0666a9450" target="_top" xlink:title="engine.gameObject.GameObject.getY">
<polygon fill="white" stroke="black" points="688.5,-273.5 688.5,-292.5 885.5,-292.5 885.5,-273.5 688.5,-273.5"/>
<text text-anchor="middle" x="787" y="-280.5" font-family="Helvetica,sans-Serif" font-size="10.00">engine.gameObject.GameObject.getY</text>
</a>
</g>
</g>
<!-- Node16&#45;&gt;Node31 -->
<g id="edge35" class="edge"><title>Node16&#45;&gt;Node31</title>
<path fill="none" stroke="midnightblue" d="M608.496,-320.934C622.205,-317.691 636.587,-314.258 650,-311 666.026,-307.107 669.892,-305.541 686,-302 697.799,-299.407 710.426,-296.843 722.6,-294.479"/>
<polygon fill="midnightblue" stroke="midnightblue" points="723.528,-297.865 732.69,-292.544 722.209,-290.99 723.528,-297.865"/>
</g>
<!-- Node32 -->
<g id="node32" class="node"><title>Node32</title>
<g id="a_node32"><a xlink:href="../../d0/d7f/classengine_1_1game_object_1_1_game_object.html#ae94fe532960bd29f64c2dc19ec0af798" target="_top" xlink:title="engine.gameObject.GameObject.getID">
<polygon fill="white" stroke="black" points="686,-235.5 686,-254.5 888,-254.5 888,-235.5 686,-235.5"/>
<text text-anchor="middle" x="787" y="-242.5" font-family="Helvetica,sans-Serif" font-size="10.00">engine.gameObject.GameObject.getID</text>
</a>
</g>
</g>
<!-- Node16&#45;&gt;Node32 -->
<g id="edge36" class="edge"><title>Node16&#45;&gt;Node32</title>
<path fill="none" stroke="midnightblue" d="M630.564,-320.981C637.391,-318.199 643.968,-314.904 650,-311 672.09,-296.704 663.602,-277.808 686,-264 689.414,-261.895 693.009,-260.014 696.725,-258.334"/>
<polygon fill="midnightblue" stroke="midnightblue" points="698.192,-261.517 706.18,-254.558 695.595,-255.017 698.192,-261.517"/>
</g>
<!-- Node33 -->
<g id="node33" class="node"><title>Node33</title>
<g id="a_node33"><a xlink:href="../../d0/d7f/classengine_1_1game_object_1_1_game_object.html#ab09d473d8c2afe8cefb2ce2481bc66fd" target="_top" xlink:title="engine.gameObject.GameObject.set\lRenderedNode">
<polygon fill="white" stroke="black" points="691.5,-186 691.5,-216 882.5,-216 882.5,-186 691.5,-186"/>
<text text-anchor="start" x="699.5" y="-204" font-family="Helvetica,sans-Serif" font-size="10.00">engine.gameObject.GameObject.set</text>
<text text-anchor="middle" x="787" y="-193" font-family="Helvetica,sans-Serif" font-size="10.00">RenderedNode</text>
</a>
</g>
</g>
<!-- Node16&#45;&gt;Node33 -->
<g id="edge38" class="edge"><title>Node16&#45;&gt;Node33</title>
<path fill="none" stroke="midnightblue" d="M635.078,-320.904C640.411,-318.115 645.448,-314.841 650,-311 681.355,-284.542 654.822,-252.667 686,-226 687.963,-224.321 690.023,-222.751 692.163,-221.285"/>
<polygon fill="midnightblue" stroke="midnightblue" points="693.996,-224.267 700.773,-216.123 690.396,-218.263 693.996,-224.267"/>
</g>
<!-- Node18&#45;&gt;Node12 -->
<g id="edge21" class="edge"><title>Node18&#45;&gt;Node12</title>
<path fill="none" stroke="midnightblue" d="M851.99,-136.941C864.009,-133.848 876.43,-130.47 888,-127 915.313,-118.81 945.357,-108.366 969.775,-99.5009"/>
<polygon fill="midnightblue" stroke="midnightblue" points="970.991,-102.783 979.182,-96.0628 968.588,-96.2082 970.991,-102.783"/>
</g>
<!-- Node19 -->
<g id="node19" class="node"><title>Node19</title>
<g id="a_node19"><a xlink:href="../../d0/d7f/classengine_1_1game_object_1_1_game_object.html#ae8b88e1cf489e935426e2e252defbae0" target="_top" xlink:title="engine.gameObject.GameObject.get\lCurrentImageName">
<polygon fill="white" stroke="black" points="924,-137 924,-167 1116,-167 1116,-137 924,-137"/>
<text text-anchor="start" x="932" y="-155" font-family="Helvetica,sans-Serif" font-size="10.00">engine.gameObject.GameObject.get</text>
<text text-anchor="middle" x="1020" y="-144" font-family="Helvetica,sans-Serif" font-size="10.00">CurrentImageName</text>
</a>
</g>
</g>
<!-- Node18&#45;&gt;Node19 -->
<g id="edge20" class="edge"><title>Node18&#45;&gt;Node19</title>
<path fill="none" stroke="midnightblue" d="M868.793,-152C883.275,-152 898.56,-152 913.614,-152"/>
<polygon fill="midnightblue" stroke="midnightblue" points="913.986,-155.5 923.986,-152 913.986,-148.5 913.986,-155.5"/>
</g>
<!-- Node20 -->
<g id="node20" class="node"><title>Node20</title>
<g id="a_node20"><a xlink:href="../../d0/d7f/classengine_1_1game_object_1_1_game_object.html#a31aa2c854220621b49fc5575b50b9342" target="_top" xlink:title="engine.gameObject.GameObject.get\lWidth">
<polygon fill="white" stroke="black" points="924,-321 924,-351 1116,-351 1116,-321 924,-321"/>
<text text-anchor="start" x="932" y="-339" font-family="Helvetica,sans-Serif" font-size="10.00">engine.gameObject.GameObject.get</text>
<text text-anchor="middle" x="1020" y="-328" font-family="Helvetica,sans-Serif" font-size="10.00">Width</text>
</a>
</g>
</g>
<!-- Node18&#45;&gt;Node20 -->
<g id="edge22" class="edge"><title>Node18&#45;&gt;Node20</title>
<path fill="none" stroke="midnightblue" d="M868.654,-164.304C875.615,-167.403 882.202,-171.244 888,-176 917.52,-200.214 901.029,-223.503 924,-254 942.007,-277.907 968.045,-299.769 988.309,-314.896"/>
<polygon fill="midnightblue" stroke="midnightblue" points="986.46,-317.88 996.6,-320.954 990.59,-312.228 986.46,-317.88"/>
</g>
<!-- Node21 -->
<g id="node21" class="node"><title>Node21</title>
<g id="a_node21"><a xlink:href="../../d0/d7f/classengine_1_1game_object_1_1_game_object.html#aaeb5730a3b51fe9cb3d817ea7172cfc2" target="_top" xlink:title="engine.gameObject.GameObject.get\lHeight">
<polygon fill="white" stroke="black" points="924,-215 924,-245 1116,-245 1116,-215 924,-215"/>
<text text-anchor="start" x="932" y="-233" font-family="Helvetica,sans-Serif" font-size="10.00">engine.gameObject.GameObject.get</text>
<text text-anchor="middle" x="1020" y="-222" font-family="Helvetica,sans-Serif" font-size="10.00">Height</text>
</a>
</g>
</g>
<!-- Node18&#45;&gt;Node21 -->
<g id="edge23" class="edge"><title>Node18&#45;&gt;Node21</title>
<path fill="none" stroke="midnightblue" d="M856.979,-167.066C867.447,-169.78 878.064,-172.781 888,-176 918.401,-185.848 951.68,-199.606 977.089,-210.77"/>
<polygon fill="midnightblue" stroke="midnightblue" points="975.859,-214.053 986.419,-214.908 978.697,-207.655 975.859,-214.053"/>
</g>
<!-- Node24 -->
<g id="node24" class="node"><title>Node24</title>
<g id="a_node24"><a xlink:href="../../d0/d7f/classengine_1_1game_object_1_1_game_object.html#a60c5b6933aac9969491a3562a963c043" target="_top" xlink:title="engine.gameObject.GameObject.get\lPhysicsBody">
<polygon fill="white" stroke="black" points="924,-497 924,-527 1116,-527 1116,-497 924,-497"/>
<text text-anchor="start" x="932" y="-515" font-family="Helvetica,sans-Serif" font-size="10.00">engine.gameObject.GameObject.get</text>
<text text-anchor="middle" x="1020" y="-504" font-family="Helvetica,sans-Serif" font-size="10.00">PhysicsBody</text>
</a>
</g>
</g>
<!-- Node23&#45;&gt;Node24 -->
<g id="edge26" class="edge"><title>Node23&#45;&gt;Node24</title>
<path fill="none" stroke="midnightblue" d="M858.877,-545.965C884.044,-540.627 912.55,-534.58 938.464,-529.083"/>
<polygon fill="midnightblue" stroke="midnightblue" points="939.201,-532.505 948.257,-527.006 937.748,-525.657 939.201,-532.505"/>
</g>
<!-- Node25 -->
<g id="node25" class="node"><title>Node25</title>
<g id="a_node25"><a xlink:href="../../d9/d9d/classengine_1_1game_object_1_1components_1_1_physics_body.html#aba2ed3bce8ee8e404907c88b144626fc" target="_top" xlink:title="engine.gameObject.components.\lPhysicsBody.getCollisionBodyHeight">
<polygon fill="white" stroke="black" points="926,-595 926,-625 1114,-625 1114,-595 926,-595"/>
<text text-anchor="start" x="934" y="-613" font-family="Helvetica,sans-Serif" font-size="10.00">engine.gameObject.components.</text>
<text text-anchor="middle" x="1020" y="-602" font-family="Helvetica,sans-Serif" font-size="10.00">PhysicsBody.getCollisionBodyHeight</text>
</a>
</g>
</g>
<!-- Node23&#45;&gt;Node25 -->
<g id="edge27" class="edge"><title>Node23&#45;&gt;Node25</title>
<path fill="none" stroke="midnightblue" d="M858.877,-576.035C884.044,-581.373 912.55,-587.42 938.464,-592.917"/>
<polygon fill="midnightblue" stroke="midnightblue" points="937.748,-596.343 948.257,-594.994 939.201,-589.495 937.748,-596.343"/>
</g>
<!-- Node26 -->
<g id="node26" class="node"><title>Node26</title>
<g id="a_node26"><a xlink:href="../../d9/d9d/classengine_1_1game_object_1_1components_1_1_physics_body.html#ae64e43632570392c3118b3d00af853fc" target="_top" xlink:title="engine.gameObject.components.\lPhysicsBody.getCollisionBodyWidth">
<polygon fill="white" stroke="black" points="929,-546 929,-576 1111,-576 1111,-546 929,-546"/>
<text text-anchor="start" x="937" y="-564" font-family="Helvetica,sans-Serif" font-size="10.00">engine.gameObject.components.</text>
<text text-anchor="middle" x="1020" y="-553" font-family="Helvetica,sans-Serif" font-size="10.00">PhysicsBody.getCollisionBodyWidth</text>
</a>
</g>
</g>
<!-- Node23&#45;&gt;Node26 -->
<g id="edge28" class="edge"><title>Node23&#45;&gt;Node26</title>
<path fill="none" stroke="midnightblue" d="M864.599,-561C881.996,-561 900.727,-561 918.936,-561"/>
<polygon fill="midnightblue" stroke="midnightblue" points="918.987,-564.5 928.987,-561 918.987,-557.5 918.987,-564.5"/>
</g>
<!-- Node28&#45;&gt;Node20 -->
<g id="edge33" class="edge"><title>Node28&#45;&gt;Node20</title>
<path fill="none" stroke="midnightblue" d="M853.73,-398.959C865.231,-395.932 877.024,-392.573 888,-389 917.995,-379.236 950.905,-365.91 976.236,-355.064"/>
<polygon fill="midnightblue" stroke="midnightblue" points="977.758,-358.219 985.551,-351.041 974.983,-351.793 977.758,-358.219"/>
</g>
<!-- Node28&#45;&gt;Node21 -->
<g id="edge32" class="edge"><title>Node28&#45;&gt;Node21</title>
<path fill="none" stroke="midnightblue" d="M860.067,-404.336C870.173,-400.693 879.868,-395.734 888,-389 917.406,-364.647 900.936,-341.428 924,-311 941.872,-287.422 967.694,-265.959 987.907,-251.059"/>
<polygon fill="midnightblue" stroke="midnightblue" points="990.123,-253.776 996.187,-245.088 986.029,-248.098 990.123,-253.776"/>
</g>
<!-- Node29 -->
<g id="node29" class="node"><title>Node29</title>
<g id="a_node29"><a xlink:href="../../d0/d7f/classengine_1_1game_object_1_1_game_object.html#a5c379828f3bb19a91935f965c48a91a5" target="_top" xlink:title="engine.gameObject.GameObject.get\lLabel">
<polygon fill="white" stroke="black" points="924,-399 924,-429 1116,-429 1116,-399 924,-399"/>
<text text-anchor="start" x="932" y="-417" font-family="Helvetica,sans-Serif" font-size="10.00">engine.gameObject.GameObject.get</text>
<text text-anchor="middle" x="1020" y="-406" font-family="Helvetica,sans-Serif" font-size="10.00">Label</text>
</a>
</g>
</g>
<!-- Node28&#45;&gt;Node29 -->
<g id="edge31" class="edge"><title>Node28&#45;&gt;Node29</title>
<path fill="none" stroke="midnightblue" d="M860.14,-414C877.117,-414 895.557,-414 913.661,-414"/>
<polygon fill="midnightblue" stroke="midnightblue" points="913.673,-417.5 923.673,-414 913.673,-410.5 913.673,-417.5"/>
</g>
<!-- Node35 -->
<g id="node35" class="node"><title>Node35</title>
<g id="a_node35"><a xlink:href="../../df/d84/classengine_1_1level_1_1_level.html#a264b568258eafa3d2c664c94e7498621" target="_top" xlink:title="engine.level.Level.getCondition\lIdentifiers">
<polygon fill="white" stroke="black" points="460.5,-174 460.5,-204 625.5,-204 625.5,-174 460.5,-174"/>
<text text-anchor="start" x="468.5" y="-192" font-family="Helvetica,sans-Serif" font-size="10.00">engine.level.Level.getCondition</text>
<text text-anchor="middle" x="543" y="-181" font-family="Helvetica,sans-Serif" font-size="10.00">Identifiers</text>
</a>
</g>
</g>
<!-- Node34&#45;&gt;Node35 -->
<g id="edge40" class="edge"><title>Node34&#45;&gt;Node35</title>
<path fill="none" stroke="midnightblue" d="M390.821,-211.906C409.921,-209.012 430.466,-205.899 450.065,-202.93"/>
<polygon fill="midnightblue" stroke="midnightblue" points="450.852,-206.35 460.215,-201.392 449.804,-199.429 450.852,-206.35"/>
</g>
<!-- Node36 -->
<g id="node36" class="node"><title>Node36</title>
<g id="a_node36"><a xlink:href="../../df/d67/classengine_1_1level_1_1_level_manager.html#a766cb6198dd991f0bdf6386dace3a65b" target="_top" xlink:title="engine.level.LevelManager.enable\lCondition">
<polygon fill="white" stroke="black" points="454,-125 454,-155 632,-155 632,-125 454,-125"/>
<text text-anchor="start" x="462" y="-143" font-family="Helvetica,sans-Serif" font-size="10.00">engine.level.LevelManager.enable</text>
<text text-anchor="middle" x="543" y="-132" font-family="Helvetica,sans-Serif" font-size="10.00">Condition</text>
</a>
</g>
</g>
<!-- Node34&#45;&gt;Node36 -->
<g id="edge41" class="edge"><title>Node34&#45;&gt;Node36</title>
<path fill="none" stroke="midnightblue" d="M378.566,-208.922C386.023,-206.127 393.324,-202.845 400,-199 419.337,-187.862 416.384,-174.64 436,-164 439.492,-162.106 443.127,-160.361 446.857,-158.754"/>
<polygon fill="midnightblue" stroke="midnightblue" points="448.278,-161.956 456.299,-155.035 445.712,-155.443 448.278,-161.956"/>
</g>
</g>
</svg>
