<?xml version="1.0" encoding="UTF-8" standalone="no"?>
<!DOCTYPE svg PUBLIC "-//W3C//DTD SVG 1.1//EN"
 "http://www.w3.org/Graphics/SVG/1.1/DTD/svg11.dtd">
<!-- Generated by graphviz version 2.36.0 (20140111.2315)
 -->
<!-- Title: engine.level.LevelManager.setLevelEnabledConditions Pages: 1 -->
<svg width="796pt" height="87pt"
 viewBox="0.00 0.00 796.00 87.00" xmlns="http://www.w3.org/2000/svg" xmlns:xlink="http://www.w3.org/1999/xlink">
<g id="graph0" class="graph" transform="scale(1 1) rotate(0) translate(4 83)">
<title>engine.level.LevelManager.setLevelEnabledConditions</title>
<polygon fill="white" stroke="none" points="-4,4 -4,-83 792,-83 792,4 -4,4"/>
<!-- Node1 -->
<g id="node1" class="node"><title>Node1</title>
<polygon fill="#bfbfbf" stroke="black" points="0.5,-24 0.5,-54 161.5,-54 161.5,-24 0.5,-24"/>
<text text-anchor="start" x="8.5" y="-42" font-family="Helvetica,sans-Serif" font-size="10.00">engine.level.LevelManager.set</text>
<text text-anchor="middle" x="81" y="-31" font-family="Helvetica,sans-Serif" font-size="10.00">LevelEnabledConditions</text>
</g>
<!-- Node2 -->
<g id="node2" class="node"><title>Node2</title>
<g id="a_node2"><a xlink:href="../../df/d67/classengine_1_1level_1_1_level_manager.html#a523599892453015eed0f1b506979af8a" target="_top" xlink:title="engine.level.LevelManager.initialize\lCurrentLevel">
<polygon fill="white" stroke="black" points="198,-24 198,-54 382,-54 382,-24 198,-24"/>
<text text-anchor="start" x="206" y="-42" font-family="Helvetica,sans-Serif" font-size="10.00">engine.level.LevelManager.initialize</text>
<text text-anchor="middle" x="290" y="-31" font-family="Helvetica,sans-Serif" font-size="10.00">CurrentLevel</text>
</a>
</g>
</g>
<!-- Node1&#45;&gt;Node2 -->
<g id="edge1" class="edge"><title>Node1&#45;&gt;Node2</title>
<path fill="none" stroke="midnightblue" d="M171.819,-39C180.472,-39 189.255,-39 197.92,-39"/>
<polygon fill="midnightblue" stroke="midnightblue" points="171.736,-35.5001 161.736,-39 171.735,-42.5001 171.736,-35.5001"/>
</g>
<!-- Node3 -->
<g id="node3" class="node"><title>Node3</title>
<g id="a_node3"><a xlink:href="../../df/d67/classengine_1_1level_1_1_level_manager.html#ad3c392cf6260c53428255fb596442692" target="_top" xlink:title="engine.level.LevelManager.change\lToLevel">
<polygon fill="white" stroke="black" points="418.5,-49 418.5,-79 599.5,-79 599.5,-49 418.5,-49"/>
<text text-anchor="start" x="426.5" y="-67" font-family="Helvetica,sans-Serif" font-size="10.00">engine.level.LevelManager.change</text>
<text text-anchor="middle" x="509" y="-56" font-family="Helvetica,sans-Serif" font-size="10.00">ToLevel</text>
</a>
</g>
</g>
<!-- Node2&#45;&gt;Node3 -->
<g id="edge2" class="edge"><title>Node2&#45;&gt;Node3</title>
<path fill="none" stroke="midnightblue" d="M392.219,-50.6612C400.889,-51.66 409.62,-52.6659 418.192,-53.6534"/>
<polygon fill="midnightblue" stroke="midnightblue" points="392.419,-47.1612 382.084,-49.4936 391.618,-54.1152 392.419,-47.1612"/>
</g>
<!-- Node5 -->
<g id="node5" class="node"><title>Node5</title>
<g id="a_node5"><a xlink:href="../../df/d67/classengine_1_1level_1_1_level_manager.html#a1d0f314bbf304bf86067ab87b832d2e0" target="_top" xlink:title="engine.level.LevelManager.find\lAndSetStartLevel">
<polygon fill="white" stroke="black" points="427.5,-0 427.5,-30 590.5,-30 590.5,-0 427.5,-0"/>
<text text-anchor="start" x="435.5" y="-18" font-family="Helvetica,sans-Serif" font-size="10.00">engine.level.LevelManager.find</text>
<text text-anchor="middle" x="509" y="-7" font-family="Helvetica,sans-Serif" font-size="10.00">AndSetStartLevel</text>
</a>
</g>
</g>
<!-- Node2&#45;&gt;Node5 -->
<g id="edge4" class="edge"><title>Node2&#45;&gt;Node5</title>
<path fill="none" stroke="midnightblue" d="M392.033,-27.8259C403.925,-26.5106 415.937,-25.182 427.495,-23.9038"/>
<polygon fill="midnightblue" stroke="midnightblue" points="391.639,-24.348 382.084,-28.9262 392.409,-31.3056 391.639,-24.348"/>
</g>
<!-- Node4 -->
<g id="node4" class="node"><title>Node4</title>
<g id="a_node4"><a xlink:href="../../d1/d73/classengine_1_1actions_1_1_change_level_action.html#a8190adf308768b0d12f6432d0cf0fbc4" target="_top" xlink:title="engine.actions.ChangeLevel\lAction.execute">
<polygon fill="white" stroke="black" points="636.5,-49 636.5,-79 787.5,-79 787.5,-49 636.5,-49"/>
<text text-anchor="start" x="644.5" y="-67" font-family="Helvetica,sans-Serif" font-size="10.00">engine.actions.ChangeLevel</text>
<text text-anchor="middle" x="712" y="-56" font-family="Helvetica,sans-Serif" font-size="10.00">Action.execute</text>
</a>
</g>
</g>
<!-- Node3&#45;&gt;Node4 -->
<g id="edge3" class="edge"><title>Node3&#45;&gt;Node4</title>
<path fill="none" stroke="midnightblue" d="M609.706,-64C618.652,-64 627.606,-64 636.285,-64"/>
<polygon fill="midnightblue" stroke="midnightblue" points="609.625,-60.5001 599.625,-64 609.625,-67.5001 609.625,-60.5001"/>
</g>
<!-- Node6 -->
<g id="node6" class="node"><title>Node6</title>
<g id="a_node6"><a xlink:href="../../df/d67/classengine_1_1level_1_1_level_manager.html#a0ea71eb9396652850db0d2da44c4ca81" target="_top" xlink:title="engine.level.LevelManager.\lLevelManager">
<polygon fill="white" stroke="black" points="639,-0 639,-30 785,-30 785,-0 639,-0"/>
<text text-anchor="start" x="647" y="-18" font-family="Helvetica,sans-Serif" font-size="10.00">engine.level.LevelManager.</text>
<text text-anchor="middle" x="712" y="-7" font-family="Helvetica,sans-Serif" font-size="10.00">LevelManager</text>
</a>
</g>
</g>
<!-- Node5&#45;&gt;Node6 -->
<g id="edge5" class="edge"><title>Node5&#45;&gt;Node6</title>
<path fill="none" stroke="midnightblue" d="M600.764,-15C613.519,-15 626.484,-15 638.829,-15"/>
<polygon fill="midnightblue" stroke="midnightblue" points="600.596,-11.5001 590.596,-15 600.596,-18.5001 600.596,-11.5001"/>
</g>
</g>
</svg>
