<?xml version="1.0" encoding="UTF-8" standalone="no"?>
<!DOCTYPE svg PUBLIC "-//W3C//DTD SVG 1.1//EN"
 "http://www.w3.org/Graphics/SVG/1.1/DTD/svg11.dtd">
<!-- Generated by graphviz version 2.36.0 (20140111.2315)
 -->
<!-- Title: engine.level.LevelManager.getCurrentLevel Pages: 1 -->
<svg width="388pt" height="273pt"
 viewBox="0.00 0.00 388.00 273.00" xmlns="http://www.w3.org/2000/svg" xmlns:xlink="http://www.w3.org/1999/xlink">
<g id="graph0" class="graph" transform="scale(1 1) rotate(0) translate(4 269)">
<title>engine.level.LevelManager.getCurrentLevel</title>
<polygon fill="white" stroke="none" points="-4,4 -4,-269 384,-269 384,4 -4,4"/>
<!-- Node1 -->
<g id="node1" class="node"><title>Node1</title>
<polygon fill="#bfbfbf" stroke="black" points="0.5,-122 0.5,-152 161.5,-152 161.5,-122 0.5,-122"/>
<text text-anchor="start" x="8.5" y="-140" font-family="Helvetica,sans-Serif" font-size="10.00">engine.level.LevelManager.get</text>
<text text-anchor="middle" x="81" y="-129" font-family="Helvetica,sans-Serif" font-size="10.00">CurrentLevel</text>
</g>
<!-- Node2 -->
<g id="node2" class="node"><title>Node2</title>
<g id="a_node2"><a xlink:href="../../da/dd3/classengine_1_1actions_1_1_reset_level_action.html#af75c19eeea304cf874ae7a82df54d23b" target="_top" xlink:title="engine.actions.ResetLevel\lAction.initialize">
<polygon fill="white" stroke="black" points="219,-235 219,-265 359,-265 359,-235 219,-235"/>
<text text-anchor="start" x="227" y="-253" font-family="Helvetica,sans-Serif" font-size="10.00">engine.actions.ResetLevel</text>
<text text-anchor="middle" x="289" y="-242" font-family="Helvetica,sans-Serif" font-size="10.00">Action.initialize</text>
</a>
</g>
</g>
<!-- Node1&#45;&gt;Node2 -->
<g id="edge1" class="edge"><title>Node1&#45;&gt;Node2</title>
<path fill="none" stroke="midnightblue" d="M105.539,-159.175C127.786,-179.027 162.898,-207.61 198,-225 205.702,-228.815 214.072,-232.123 222.504,-234.968"/>
<polygon fill="midnightblue" stroke="midnightblue" points="107.708,-156.417 97.9492,-152.292 103.006,-161.602 107.708,-156.417"/>
</g>
<!-- Node3 -->
<g id="node3" class="node"><title>Node3</title>
<g id="a_node3"><a xlink:href="../../d4/d87/classengine_1_1actions_1_1_type_action.html#a549c8daf218ca5538cb9b2c086942454" target="_top" xlink:title="engine.actions.TypeAction.initialize">
<polygon fill="white" stroke="black" points="198,-196.5 198,-215.5 380,-215.5 380,-196.5 198,-196.5"/>
<text text-anchor="middle" x="289" y="-203.5" font-family="Helvetica,sans-Serif" font-size="10.00">engine.actions.TypeAction.initialize</text>
</a>
</g>
</g>
<!-- Node1&#45;&gt;Node3 -->
<g id="edge2" class="edge"><title>Node1&#45;&gt;Node3</title>
<path fill="none" stroke="midnightblue" d="M122.749,-156.352C144.685,-166.22 172.421,-177.83 198,-186 210.655,-190.042 224.565,-193.566 237.585,-196.482"/>
<polygon fill="midnightblue" stroke="midnightblue" points="123.969,-153.062 113.418,-152.102 121.068,-159.432 123.969,-153.062"/>
</g>
<!-- Node4 -->
<g id="node4" class="node"><title>Node4</title>
<g id="a_node4"><a xlink:href="../../de/dcd/classengine_1_1actions_1_1_translate_type_action.html#a94e5be4d9ae6925a10929120abbb36ba" target="_top" xlink:title="engine.actions.Translate\lTypeAction.initialize">
<polygon fill="white" stroke="black" points="223,-147 223,-177 355,-177 355,-147 223,-147"/>
<text text-anchor="start" x="231" y="-165" font-family="Helvetica,sans-Serif" font-size="10.00">engine.actions.Translate</text>
<text text-anchor="middle" x="289" y="-154" font-family="Helvetica,sans-Serif" font-size="10.00">TypeAction.initialize</text>
</a>
</g>
</g>
<!-- Node1&#45;&gt;Node4 -->
<g id="edge3" class="edge"><title>Node1&#45;&gt;Node4</title>
<path fill="none" stroke="midnightblue" d="M171.708,-147.887C188.923,-149.976 206.641,-152.126 222.897,-154.099"/>
<polygon fill="midnightblue" stroke="midnightblue" points="171.994,-144.396 161.645,-146.666 171.15,-151.345 171.994,-144.396"/>
</g>
<!-- Node5 -->
<g id="node5" class="node"><title>Node5</title>
<g id="a_node5"><a xlink:href="../../d0/d0d/classengine_1_1actions_1_1_physics_type_action.html#a564ebf97b22a1fe571200fcccef03a08" target="_top" xlink:title="engine.actions.PhysicsType\lAction.initialize">
<polygon fill="white" stroke="black" points="216,-98 216,-128 362,-128 362,-98 216,-98"/>
<text text-anchor="start" x="224" y="-116" font-family="Helvetica,sans-Serif" font-size="10.00">engine.actions.PhysicsType</text>
<text text-anchor="middle" x="289" y="-105" font-family="Helvetica,sans-Serif" font-size="10.00">Action.initialize</text>
</a>
</g>
</g>
<!-- Node1&#45;&gt;Node5 -->
<g id="edge4" class="edge"><title>Node1&#45;&gt;Node5</title>
<path fill="none" stroke="midnightblue" d="M171.797,-126.538C186.567,-124.817 201.706,-123.054 215.972,-121.392"/>
<polygon fill="midnightblue" stroke="midnightblue" points="171.173,-123.087 161.645,-127.721 171.983,-130.04 171.173,-123.087"/>
</g>
<!-- Node6 -->
<g id="node6" class="node"><title>Node6</title>
<g id="a_node6"><a xlink:href="../../d2/dc5/classengine_1_1actions_1_1_make_new_object_action.html#a018cd5d9effcf200aae29205606eff04" target="_top" xlink:title="engine.actions.MakeNewObject\lAction.initialize">
<polygon fill="white" stroke="black" points="206,-49 206,-79 372,-79 372,-49 206,-49"/>
<text text-anchor="start" x="214" y="-67" font-family="Helvetica,sans-Serif" font-size="10.00">engine.actions.MakeNewObject</text>
<text text-anchor="middle" x="289" y="-56" font-family="Helvetica,sans-Serif" font-size="10.00">Action.initialize</text>
</a>
</g>
</g>
<!-- Node1&#45;&gt;Node6 -->
<g id="edge5" class="edge"><title>Node1&#45;&gt;Node6</title>
<path fill="none" stroke="midnightblue" d="M124.615,-117.91C146.339,-108.553 173.318,-97.4997 198,-89 208.12,-85.5151 219.004,-82.1655 229.585,-79.1129"/>
<polygon fill="midnightblue" stroke="midnightblue" points="123.118,-114.745 115.341,-121.939 125.907,-121.165 123.118,-114.745"/>
</g>
<!-- Node7 -->
<g id="node7" class="node"><title>Node7</title>
<g id="a_node7"><a xlink:href="../../d0/d7d/classengine_1_1conditions_1_1_type_collision_condition.html#aa8c4f215bc53bae3df044fc3dab3c1d4" target="_top" xlink:title="engine.conditions.TypeCollision\lCondition.initialize">
<polygon fill="white" stroke="black" points="207,-0 207,-30 371,-30 371,-0 207,-0"/>
<text text-anchor="start" x="215" y="-18" font-family="Helvetica,sans-Serif" font-size="10.00">engine.conditions.TypeCollision</text>
<text text-anchor="middle" x="289" y="-7" font-family="Helvetica,sans-Serif" font-size="10.00">Condition.initialize</text>
</a>
</g>
</g>
<!-- Node1&#45;&gt;Node7 -->
<g id="edge6" class="edge"><title>Node1&#45;&gt;Node7</title>
<path fill="none" stroke="midnightblue" d="M102.966,-114.599C124.744,-92.5908 160.787,-59.5483 198,-40 205.322,-36.1538 213.298,-32.8479 221.378,-30.0196"/>
<polygon fill="midnightblue" stroke="midnightblue" points="100.344,-112.275 95.8795,-121.884 105.361,-117.157 100.344,-112.275"/>
</g>
</g>
</svg>
