<?xml version="1.0" encoding="UTF-8" standalone="no"?>
<!DOCTYPE svg PUBLIC "-//W3C//DTD SVG 1.1//EN"
 "http://www.w3.org/Graphics/SVG/1.1/DTD/svg11.dtd">
<!-- Generated by graphviz version 2.36.0 (20140111.2315)
 -->
<!-- Title: engine.level.LevelManager.findAndSetStartLevel Pages: 1 -->
<!--zoomable 793 -->
<svg id="main" version="1.1" xmlns="http://www.w3.org/2000/svg" xmlns:xlink="http://www.w3.org/1999/xlink" xml:space="preserve" onload="init(evt)">
<style type="text/css"><![CDATA[
.edge:hover path { stroke: red; }
.edge:hover polygon { stroke: red; fill: red; }
]]></style>
<script type="text/javascript"><![CDATA[
var edges = document.getElementsByTagName('g');
if (edges && edges.length) {
  for (var i=0;i<edges.length;i++) {
    if (edges[i].id.substr(0,4)=='edge') {
      edges[i].setAttribute('class','edge');
    }
  }
}
]]></script>
        <defs>
                <circle id="rim" cx="0" cy="0" r="7"/>
                <circle id="rim2" cx="0" cy="0" r="3.5"/>
                <g id="zoomPlus">
                        <use xlink:href="#rim" fill="#404040">
                                <set attributeName="fill" to="#808080" begin="zoomplus.mouseover" end="zoomplus.mouseout"/>
                        </use>
                        <path d="M-4,0h8M0,-4v8" fill="none" stroke="white" stroke-width="1.5" pointer-events="none"/>
                </g>
                <g id="zoomMin">
                        <use xlink:href="#rim" fill="#404040">
                                <set attributeName="fill" to="#808080" begin="zoomminus.mouseover" end="zoomminus.mouseout"/>
                        </use>
                        <path d="M-4,0h8" fill="none" stroke="white" stroke-width="1.5" pointer-events="none"/>
                </g>
                <g id="dirArrow">
                        <path fill="none" stroke="white" stroke-width="1.5" d="M0,-3.0v7 M-2.5,-0.5L0,-3.0L2.5,-0.5"/>
                </g>
               <g id="resetDef">
                       <use xlink:href="#rim2" fill="#404040">
                               <set attributeName="fill" to="#808080" begin="reset.mouseover" end="reset.mouseout"/>
                       </use>
               </g>
        </defs>

<script type="text/javascript">
var viewWidth = 1324;
var viewHeight = 793;
var sectionId = 'dynsection-7';
</script>
<script xlink:href="../../svgpan.js"/>
<svg id="graph" class="graph">
<g id="viewport">
<title>engine.level.LevelManager.findAndSetStartLevel</title>
<polygon fill="white" stroke="none" points="-4,4 -4,-789 1320,-789 1320,4 -4,4"/>
<!-- Node1 -->
<g id="node1" class="node"><title>Node1</title>
<polygon fill="#bfbfbf" stroke="black" points="0.5,-608 0.5,-638 163.5,-638 163.5,-608 0.5,-608"/>
<text text-anchor="start" x="8.5" y="-626" font-family="Helvetica,sans-Serif" font-size="10.00">engine.level.LevelManager.find</text>
<text text-anchor="middle" x="82" y="-615" font-family="Helvetica,sans-Serif" font-size="10.00">AndSetStartLevel</text>
</g>
<!-- Node2 -->
<g id="node2" class="node"><title>Node2</title>
<g id="a_node2"><a xlink:href="../../df/d67/classengine_1_1level_1_1_level_manager.html#a523599892453015eed0f1b506979af8a" target="_top" xlink:title="engine.level.LevelManager.initialize\lCurrentLevel">
<polygon fill="white" stroke="black" points="200,-608 200,-638 384,-638 384,-608 200,-608"/>
<text text-anchor="start" x="208" y="-626" font-family="Helvetica,sans-Serif" font-size="10.00">engine.level.LevelManager.initialize</text>
<text text-anchor="middle" x="292" y="-615" font-family="Helvetica,sans-Serif" font-size="10.00">CurrentLevel</text>
</a>
</g>
</g>
<!-- Node1&#45;&gt;Node2 -->
<g id="edge1" class="edge"><title>Node1&#45;&gt;Node2</title>
<path fill="none" stroke="midnightblue" d="M163.716,-623C172.252,-623 181.009,-623 189.739,-623"/>
<polygon fill="midnightblue" stroke="midnightblue" points="189.962,-626.5 199.962,-623 189.962,-619.5 189.962,-626.5"/>
</g>
<!-- Node3 -->
<g id="node3" class="node"><title>Node3</title>
<g id="a_node3"><a xlink:href="../../df/d67/classengine_1_1level_1_1_level_manager.html#af00a1d61217dd801bb7a8b16ad829cf0" target="_top" xlink:title="engine.level.LevelManager.disable\lAllConditions">
<polygon fill="white" stroke="black" points="420.5,-755 420.5,-785 599.5,-785 599.5,-755 420.5,-755"/>
<text text-anchor="start" x="428.5" y="-773" font-family="Helvetica,sans-Serif" font-size="10.00">engine.level.LevelManager.disable</text>
<text text-anchor="middle" x="510" y="-762" font-family="Helvetica,sans-Serif" font-size="10.00">AllConditions</text>
</a>
</g>
</g>
<!-- Node2&#45;&gt;Node3 -->
<g id="edge2" class="edge"><title>Node2&#45;&gt;Node3</title>
<path fill="none" stroke="midnightblue" d="M304.561,-638.21C325.002,-664.043 370.107,-716.461 420,-745 423.866,-747.211 427.94,-749.237 432.13,-751.091"/>
<polygon fill="midnightblue" stroke="midnightblue" points="430.875,-754.359 441.457,-754.882 433.511,-747.874 430.875,-754.359"/>
</g>
<!-- Node4 -->
<g id="node4" class="node"><title>Node4</title>
<g id="a_node4"><a xlink:href="../../df/d67/classengine_1_1level_1_1_level_manager.html#a5d79217e53b1e3804476ba6b366ad066" target="_top" xlink:title="engine.level.LevelManager.set\lLevelEnabledConditions">
<polygon fill="white" stroke="black" points="429.5,-706 429.5,-736 590.5,-736 590.5,-706 429.5,-706"/>
<text text-anchor="start" x="437.5" y="-724" font-family="Helvetica,sans-Serif" font-size="10.00">engine.level.LevelManager.set</text>
<text text-anchor="middle" x="510" y="-713" font-family="Helvetica,sans-Serif" font-size="10.00">LevelEnabledConditions</text>
</a>
</g>
</g>
<!-- Node2&#45;&gt;Node4 -->
<g id="edge3" class="edge"><title>Node2&#45;&gt;Node4</title>
<path fill="none" stroke="midnightblue" d="M315.519,-638.248C340.242,-654.429 381.548,-679.844 420,-696 425.729,-698.407 431.761,-700.658 437.873,-702.745"/>
<polygon fill="midnightblue" stroke="midnightblue" points="436.919,-706.115 447.512,-705.888 439.09,-699.46 436.919,-706.115"/>
</g>
<!-- Node7 -->
<g id="node7" class="node"><title>Node7</title>
<g id="a_node7"><a xlink:href="../../da/d90/classengine_1_1sound_1_1_sound_utility.html#a53a82805b12b2b8f68b8396b9795d092" target="_top" xlink:title="engine.sound.SoundUtility.stop\lBackGroundMusic">
<polygon fill="white" stroke="black" points="428,-657 428,-687 592,-687 592,-657 428,-657"/>
<text text-anchor="start" x="436" y="-675" font-family="Helvetica,sans-Serif" font-size="10.00">engine.sound.SoundUtility.stop</text>
<text text-anchor="middle" x="510" y="-664" font-family="Helvetica,sans-Serif" font-size="10.00">BackGroundMusic</text>
</a>
</g>
</g>
<!-- Node2&#45;&gt;Node7 -->
<g id="edge6" class="edge"><title>Node2&#45;&gt;Node7</title>
<path fill="none" stroke="midnightblue" d="M359.275,-638.035C382.6,-643.326 408.993,-649.313 433.053,-654.771"/>
<polygon fill="midnightblue" stroke="midnightblue" points="432.324,-658.195 442.85,-656.994 433.872,-651.368 432.324,-658.195"/>
</g>
<!-- Node8 -->
<g id="node8" class="node"><title>Node8</title>
<g id="a_node8"><a xlink:href="../../da/d90/classengine_1_1sound_1_1_sound_utility.html#ab8cd26d71aa7b20d07350105a4254c92" target="_top" xlink:title="engine.sound.SoundUtility.play\lBackGroundMusic">
<polygon fill="white" stroke="black" points="428.5,-608 428.5,-638 591.5,-638 591.5,-608 428.5,-608"/>
<text text-anchor="start" x="436.5" y="-626" font-family="Helvetica,sans-Serif" font-size="10.00">engine.sound.SoundUtility.play</text>
<text text-anchor="middle" x="510" y="-615" font-family="Helvetica,sans-Serif" font-size="10.00">BackGroundMusic</text>
</a>
</g>
</g>
<!-- Node2&#45;&gt;Node8 -->
<g id="edge7" class="edge"><title>Node2&#45;&gt;Node8</title>
<path fill="none" stroke="midnightblue" d="M384.29,-623C395.486,-623 406.927,-623 418.116,-623"/>
<polygon fill="midnightblue" stroke="midnightblue" points="418.307,-626.5 428.307,-623 418.307,-619.5 418.307,-626.5"/>
</g>
<!-- Node9 -->
<g id="node9" class="node"><title>Node9</title>
<g id="a_node9"><a xlink:href="../../df/d84/classengine_1_1level_1_1_level.html#a368275ed98c802fbf59a11423b9b9a0d" target="_top" xlink:title="engine.level.Level.getBackground\lMusic">
<polygon fill="white" stroke="black" points="421.5,-559 421.5,-589 598.5,-589 598.5,-559 421.5,-559"/>
<text text-anchor="start" x="429.5" y="-577" font-family="Helvetica,sans-Serif" font-size="10.00">engine.level.Level.getBackground</text>
<text text-anchor="middle" x="510" y="-566" font-family="Helvetica,sans-Serif" font-size="10.00">Music</text>
</a>
</g>
</g>
<!-- Node2&#45;&gt;Node9 -->
<g id="edge8" class="edge"><title>Node2&#45;&gt;Node9</title>
<path fill="none" stroke="midnightblue" d="M359.275,-607.965C382.6,-602.674 408.993,-596.687 433.053,-591.229"/>
<polygon fill="midnightblue" stroke="midnightblue" points="433.872,-594.632 442.85,-589.006 432.324,-587.805 433.872,-594.632"/>
</g>
<!-- Node10 -->
<g id="node10" class="node"><title>Node10</title>
<g id="a_node10"><a xlink:href="../../df/d84/classengine_1_1level_1_1_level.html#ace23cd4ed278a5bb85e964ff3c8818b5" target="_top" xlink:title="engine.level.Level.initialize">
<polygon fill="white" stroke="black" points="438.5,-520.5 438.5,-539.5 581.5,-539.5 581.5,-520.5 438.5,-520.5"/>
<text text-anchor="middle" x="510" y="-527.5" font-family="Helvetica,sans-Serif" font-size="10.00">engine.level.Level.initialize</text>
</a>
</g>
</g>
<!-- Node2&#45;&gt;Node10 -->
<g id="edge9" class="edge"><title>Node2&#45;&gt;Node10</title>
<path fill="none" stroke="midnightblue" d="M314.467,-607.957C338.94,-591.466 380.661,-565.32 420,-550 427.849,-546.943 436.278,-544.293 444.708,-542.013"/>
<polygon fill="midnightblue" stroke="midnightblue" points="445.741,-545.362 454.569,-539.504 444.015,-538.578 445.741,-545.362"/>
</g>
<!-- Node15 -->
<g id="node15" class="node"><title>Node15</title>
<g id="a_node15"><a xlink:href="../../df/de5/classengine_1_1render_1_1_game_object_renderer.html#a610545384a337edcd3bffb9f0c6ecf18" target="_top" xlink:title="engine.render.GameObject\lRenderer.renderGameObjects">
<polygon fill="white" stroke="black" points="431,-441 431,-471 589,-471 589,-441 431,-441"/>
<text text-anchor="start" x="439" y="-459" font-family="Helvetica,sans-Serif" font-size="10.00">engine.render.GameObject</text>
<text text-anchor="middle" x="510" y="-448" font-family="Helvetica,sans-Serif" font-size="10.00">Renderer.renderGameObjects</text>
</a>
</g>
</g>
<!-- Node2&#45;&gt;Node15 -->
<g id="edge14" class="edge"><title>Node2&#45;&gt;Node15</title>
<path fill="none" stroke="midnightblue" d="M308.31,-607.955C331.471,-585.56 377.261,-542.697 420,-511 436.741,-498.584 456.356,-486.248 472.905,-476.415"/>
<polygon fill="midnightblue" stroke="midnightblue" points="474.894,-479.306 481.746,-471.225 471.35,-473.27 474.894,-479.306"/>
</g>
<!-- Node5 -->
<g id="node5" class="node"><title>Node5</title>
<g id="a_node5"><a xlink:href="../../df/d84/classengine_1_1level_1_1_level.html#a264b568258eafa3d2c664c94e7498621" target="_top" xlink:title="engine.level.Level.getCondition\lIdentifiers">
<polygon fill="white" stroke="black" points="660.5,-684 660.5,-714 825.5,-714 825.5,-684 660.5,-684"/>
<text text-anchor="start" x="668.5" y="-702" font-family="Helvetica,sans-Serif" font-size="10.00">engine.level.Level.getCondition</text>
<text text-anchor="middle" x="743" y="-691" font-family="Helvetica,sans-Serif" font-size="10.00">Identifiers</text>
</a>
</g>
</g>
<!-- Node4&#45;&gt;Node5 -->
<g id="edge4" class="edge"><title>Node4&#45;&gt;Node5</title>
<path fill="none" stroke="midnightblue" d="M590.821,-713.398C609.921,-711.579 630.466,-709.622 650.065,-707.756"/>
<polygon fill="midnightblue" stroke="midnightblue" points="650.592,-711.221 660.215,-706.789 649.928,-704.253 650.592,-711.221"/>
</g>
<!-- Node6 -->
<g id="node6" class="node"><title>Node6</title>
<g id="a_node6"><a xlink:href="../../df/d67/classengine_1_1level_1_1_level_manager.html#a766cb6198dd991f0bdf6386dace3a65b" target="_top" xlink:title="engine.level.LevelManager.enable\lCondition">
<polygon fill="white" stroke="black" points="654,-733 654,-763 832,-763 832,-733 654,-733"/>
<text text-anchor="start" x="662" y="-751" font-family="Helvetica,sans-Serif" font-size="10.00">engine.level.LevelManager.enable</text>
<text text-anchor="middle" x="743" y="-740" font-family="Helvetica,sans-Serif" font-size="10.00">Condition</text>
</a>
</g>
</g>
<!-- Node4&#45;&gt;Node6 -->
<g id="edge5" class="edge"><title>Node4&#45;&gt;Node6</title>
<path fill="none" stroke="midnightblue" d="M590.821,-730.33C607.827,-732.317 625.977,-734.439 643.586,-736.497"/>
<polygon fill="midnightblue" stroke="midnightblue" points="643.54,-740.015 653.878,-737.7 644.352,-733.063 643.54,-740.015"/>
</g>
<!-- Node11 -->
<g id="node11" class="node"><title>Node11</title>
<g id="a_node11"><a xlink:href="../../d4/d3b/classauthoring_1_1model_1_1collections_1_1_general_collection.html#a1bdc1047736bbb23259d6a7fe4c6deeb" target="_top" xlink:title="authoring.model.collections.\lGeneralCollection.add">
<polygon fill="white" stroke="black" points="667,-564 667,-594 819,-594 819,-564 667,-564"/>
<text text-anchor="start" x="675" y="-582" font-family="Helvetica,sans-Serif" font-size="10.00">authoring.model.collections.</text>
<text text-anchor="middle" x="743" y="-571" font-family="Helvetica,sans-Serif" font-size="10.00">GeneralCollection.add</text>
</a>
</g>
</g>
<!-- Node10&#45;&gt;Node11 -->
<g id="edge10" class="edge"><title>Node10&#45;&gt;Node11</title>
<path fill="none" stroke="midnightblue" d="M555.813,-539.506C585.675,-545.84 625.78,-554.347 661.121,-561.844"/>
<polygon fill="midnightblue" stroke="midnightblue" points="660.441,-565.277 670.95,-563.929 661.894,-558.43 660.441,-565.277"/>
</g>
<!-- Node12 -->
<g id="node12" class="node"><title>Node12</title>
<g id="a_node12"><a xlink:href="../../d0/d7f/classengine_1_1game_object_1_1_game_object.html#accd456b2eaab9c7056de825a28b066c8" target="_top" xlink:title="engine.gameObject.GameObject.get\lIdentifier">
<polygon fill="white" stroke="black" points="647,-466 647,-496 839,-496 839,-466 647,-466"/>
<text text-anchor="start" x="655" y="-484" font-family="Helvetica,sans-Serif" font-size="10.00">engine.gameObject.GameObject.get</text>
<text text-anchor="middle" x="743" y="-473" font-family="Helvetica,sans-Serif" font-size="10.00">Identifier</text>
</a>
</g>
</g>
<!-- Node10&#45;&gt;Node12 -->
<g id="edge11" class="edge"><title>Node10&#45;&gt;Node12</title>
<path fill="none" stroke="midnightblue" d="M555.813,-520.494C585.675,-514.16 625.78,-505.653 661.121,-498.156"/>
<polygon fill="midnightblue" stroke="midnightblue" points="661.894,-501.57 670.95,-496.071 660.441,-494.723 661.894,-501.57"/>
</g>
<!-- Node13 -->
<g id="node13" class="node"><title>Node13</title>
<g id="a_node13"><a xlink:href="../../d4/dac/classengine_1_1game_object_1_1_identifier.html#aa2630b5024b9595e43afe0bf53229433" target="_top" xlink:title="engine.gameObject.Identifier.get\lUniqueId">
<polygon fill="white" stroke="black" points="656.5,-515 656.5,-545 829.5,-545 829.5,-515 656.5,-515"/>
<text text-anchor="start" x="664.5" y="-533" font-family="Helvetica,sans-Serif" font-size="10.00">engine.gameObject.Identifier.get</text>
<text text-anchor="middle" x="743" y="-522" font-family="Helvetica,sans-Serif" font-size="10.00">UniqueId</text>
</a>
</g>
</g>
<!-- Node10&#45;&gt;Node13 -->
<g id="edge12" class="edge"><title>Node10&#45;&gt;Node13</title>
<path fill="none" stroke="midnightblue" d="M581.563,-530C601.951,-530 624.553,-530 646.203,-530"/>
<polygon fill="midnightblue" stroke="midnightblue" points="646.405,-533.5 656.405,-530 646.405,-526.5 646.405,-533.5"/>
</g>
<!-- Node14 -->
<g id="node14" class="node"><title>Node14</title>
<g id="a_node14"><a xlink:href="../../df/d67/classengine_1_1level_1_1_level_manager.html#a6e15411e375d875fa72058d499bec766" target="_top" xlink:title="engine.level.LevelManager.object\lForIdentifier">
<polygon fill="white" stroke="black" points="655.5,-613 655.5,-643 830.5,-643 830.5,-613 655.5,-613"/>
<text text-anchor="start" x="663.5" y="-631" font-family="Helvetica,sans-Serif" font-size="10.00">engine.level.LevelManager.object</text>
<text text-anchor="middle" x="743" y="-620" font-family="Helvetica,sans-Serif" font-size="10.00">ForIdentifier</text>
</a>
</g>
</g>
<!-- Node10&#45;&gt;Node14 -->
<g id="edge13" class="edge"><title>Node10&#45;&gt;Node14</title>
<path fill="none" stroke="midnightblue" d="M578.883,-539.518C586.365,-542.206 593.585,-545.634 600,-550 623.541,-566.022 612.544,-586.854 636,-603 639.279,-605.257 642.736,-607.312 646.319,-609.183"/>
<polygon fill="midnightblue" stroke="midnightblue" points="644.916,-612.391 655.456,-613.464 647.886,-606.052 644.916,-612.391"/>
</g>
<!-- Node15&#45;&gt;Node12 -->
<g id="edge20" class="edge"><title>Node15&#45;&gt;Node12</title>
<path fill="none" stroke="midnightblue" d="M589.206,-464.464C604.345,-466.102 620.442,-467.844 636.291,-469.56"/>
<polygon fill="midnightblue" stroke="midnightblue" points="636.339,-473.085 646.658,-470.682 637.092,-466.126 636.339,-473.085"/>
</g>
<!-- Node15&#45;&gt;Node13 -->
<g id="edge21" class="edge"><title>Node15&#45;&gt;Node13</title>
<path fill="none" stroke="midnightblue" d="M545.549,-471.075C570.386,-481.532 604.85,-495.275 636,-505 644.393,-507.62 653.234,-510.113 662.083,-512.439"/>
<polygon fill="midnightblue" stroke="midnightblue" points="661.499,-515.902 672.055,-514.992 663.235,-509.121 661.499,-515.902"/>
</g>
<!-- Node16 -->
<g id="node16" class="node"><title>Node16</title>
<g id="a_node16"><a xlink:href="../../df/de5/classengine_1_1render_1_1_game_object_renderer.html#ad1dadb54349f33bce5bb60cd8d5cac64" target="_top" xlink:title="engine.render.GameObject\lRenderer.setBackGroundImage">
<polygon fill="white" stroke="black" points="660.5,-417 660.5,-447 825.5,-447 825.5,-417 660.5,-417"/>
<text text-anchor="start" x="668.5" y="-435" font-family="Helvetica,sans-Serif" font-size="10.00">engine.render.GameObject</text>
<text text-anchor="middle" x="743" y="-424" font-family="Helvetica,sans-Serif" font-size="10.00">Renderer.setBackGroundImage</text>
</a>
</g>
</g>
<!-- Node15&#45;&gt;Node16 -->
<g id="edge15" class="edge"><title>Node15&#45;&gt;Node16</title>
<path fill="none" stroke="midnightblue" d="M589.206,-447.875C608.801,-445.839 630,-443.636 650.19,-441.539"/>
<polygon fill="midnightblue" stroke="midnightblue" points="650.74,-445.001 660.324,-440.486 650.016,-438.038 650.74,-445.001"/>
</g>
<!-- Node19 -->
<g id="node19" class="node"><title>Node19</title>
<g id="a_node19"><a xlink:href="../../df/d84/classengine_1_1level_1_1_level.html#af2921158eda86e1f909575ee468eec5c" target="_top" xlink:title="engine.level.Level.getGame\lObjectIterator">
<polygon fill="white" stroke="black" points="668.5,-118 668.5,-148 817.5,-148 817.5,-118 668.5,-118"/>
<text text-anchor="start" x="676.5" y="-136" font-family="Helvetica,sans-Serif" font-size="10.00">engine.level.Level.getGame</text>
<text text-anchor="middle" x="743" y="-125" font-family="Helvetica,sans-Serif" font-size="10.00">ObjectIterator</text>
</a>
</g>
</g>
<!-- Node15&#45;&gt;Node19 -->
<g id="edge18" class="edge"><title>Node15&#45;&gt;Node19</title>
<path fill="none" stroke="midnightblue" d="M521.154,-440.747C542.172,-409.282 592.149,-335.006 636,-274 666.161,-232.039 702.614,-184.135 723.961,-156.353"/>
<polygon fill="midnightblue" stroke="midnightblue" points="727.008,-158.133 730.334,-148.073 721.461,-153.863 727.008,-158.133"/>
</g>
<!-- Node21 -->
<g id="node21" class="node"><title>Node21</title>
<g id="a_node21"><a xlink:href="../../df/de5/classengine_1_1render_1_1_game_object_renderer.html#a745cb65a5425a20a1b5063068ef1314a" target="_top" xlink:title="engine.render.GameObject\lRenderer.createAndAssignRenderedNode">
<polygon fill="white" stroke="black" points="636.5,-284 636.5,-314 849.5,-314 849.5,-284 636.5,-284"/>
<text text-anchor="start" x="644.5" y="-302" font-family="Helvetica,sans-Serif" font-size="10.00">engine.render.GameObject</text>
<text text-anchor="middle" x="743" y="-291" font-family="Helvetica,sans-Serif" font-size="10.00">Renderer.createAndAssignRenderedNode</text>
</a>
</g>
</g>
<!-- Node15&#45;&gt;Node21 -->
<g id="edge22" class="edge"><title>Node15&#45;&gt;Node21</title>
<path fill="none" stroke="midnightblue" d="M533.149,-440.946C574.716,-412.695 664.461,-351.7 711.628,-319.643"/>
<polygon fill="midnightblue" stroke="midnightblue" points="713.615,-322.524 719.918,-314.008 709.68,-316.735 713.615,-322.524"/>
</g>
<!-- Node17 -->
<g id="node17" class="node"><title>Node17</title>
<g id="a_node17"><a xlink:href="../../d9/db5/classengine_1_1_file_path_utility.html#ad8a72da93bd719a750bd549ed92a37d7" target="_top" xlink:title="engine.FilePathUtility.get\lFilePath">
<polygon fill="white" stroke="black" points="1154,-466 1154,-496 1286,-496 1286,-466 1154,-466"/>
<text text-anchor="start" x="1162" y="-484" font-family="Helvetica,sans-Serif" font-size="10.00">engine.FilePathUtility.get</text>
<text text-anchor="middle" x="1220" y="-473" font-family="Helvetica,sans-Serif" font-size="10.00">FilePath</text>
</a>
</g>
</g>
<!-- Node16&#45;&gt;Node17 -->
<g id="edge16" class="edge"><title>Node16&#45;&gt;Node17</title>
<path fill="none" stroke="midnightblue" d="M825.681,-444.812C834.204,-447.795 842.485,-451.471 850,-456 871.057,-468.691 863.664,-487.727 886,-498 976.353,-539.557 1095.41,-517.68 1163.95,-498.794"/>
<polygon fill="midnightblue" stroke="midnightblue" points="1165.02,-502.129 1173.69,-496.037 1163.11,-495.394 1165.02,-502.129"/>
</g>
<!-- Node18 -->
<g id="node18" class="node"><title>Node18</title>
<g id="a_node18"><a xlink:href="../../df/d84/classengine_1_1level_1_1_level.html#a5dc36c31fcc8e0b5cbe2a942ec101fdb" target="_top" xlink:title="engine.level.Level.getBackground\lImage">
<polygon fill="white" stroke="black" points="898.5,-546 898.5,-576 1075.5,-576 1075.5,-546 898.5,-546"/>
<text text-anchor="start" x="906.5" y="-564" font-family="Helvetica,sans-Serif" font-size="10.00">engine.level.Level.getBackground</text>
<text text-anchor="middle" x="987" y="-553" font-family="Helvetica,sans-Serif" font-size="10.00">Image</text>
</a>
</g>
</g>
<!-- Node16&#45;&gt;Node18 -->
<g id="edge17" class="edge"><title>Node16&#45;&gt;Node18</title>
<path fill="none" stroke="midnightblue" d="M825.655,-442.395C834.425,-445.801 842.77,-450.237 850,-456 878.913,-479.047 857.897,-506.973 886,-531 890.747,-535.058 896.027,-538.567 901.611,-541.602"/>
<polygon fill="midnightblue" stroke="midnightblue" points="900.081,-544.75 910.603,-545.99 903.151,-538.459 900.081,-544.75"/>
</g>
<!-- Node20 -->
<g id="node20" class="node"><title>Node20</title>
<g id="a_node20"><a xlink:href="../../d4/d3b/classauthoring_1_1model_1_1collections_1_1_general_collection.html#a79482ff667a22bb0d5b702c03261fe8d" target="_top" xlink:title="authoring.model.collections.\lGeneralCollection.iterator">
<polygon fill="white" stroke="black" points="911,-0 911,-30 1063,-30 1063,-0 911,-0"/>
<text text-anchor="start" x="919" y="-18" font-family="Helvetica,sans-Serif" font-size="10.00">authoring.model.collections.</text>
<text text-anchor="middle" x="987" y="-7" font-family="Helvetica,sans-Serif" font-size="10.00">GeneralCollection.iterator</text>
</a>
</g>
</g>
<!-- Node19&#45;&gt;Node20 -->
<g id="edge19" class="edge"><title>Node19&#45;&gt;Node20</title>
<path fill="none" stroke="midnightblue" d="M762.57,-117.87C788.624,-97.3614 838.212,-60.9068 886,-40 891.702,-37.5052 897.701,-35.2269 903.811,-33.1522"/>
<polygon fill="midnightblue" stroke="midnightblue" points="905.019,-36.4404 913.475,-30.0578 902.884,-29.7738 905.019,-36.4404"/>
</g>
<!-- Node22 -->
<g id="node22" class="node"><title>Node22</title>
<g id="a_node22"><a xlink:href="../../d2/d82/classengine_1_1render_1_1_rendered_node.html#a520a8c03b505d10c69e010e603cadfdd" target="_top" xlink:title="engine.render.RenderedNode.set\lImageView">
<polygon fill="white" stroke="black" points="900,-235 900,-265 1074,-265 1074,-235 900,-235"/>
<text text-anchor="start" x="908" y="-253" font-family="Helvetica,sans-Serif" font-size="10.00">engine.render.RenderedNode.set</text>
<text text-anchor="middle" x="987" y="-242" font-family="Helvetica,sans-Serif" font-size="10.00">ImageView</text>
</a>
</g>
</g>
<!-- Node21&#45;&gt;Node22 -->
<g id="edge23" class="edge"><title>Node21&#45;&gt;Node22</title>
<path fill="none" stroke="midnightblue" d="M818.253,-283.965C844.734,-278.604 874.744,-272.527 901.988,-267.011"/>
<polygon fill="midnightblue" stroke="midnightblue" points="902.781,-270.421 911.888,-265.006 901.392,-263.56 902.781,-270.421"/>
</g>
<!-- Node23 -->
<g id="node23" class="node"><title>Node23</title>
<g id="a_node23"><a xlink:href="../../df/de5/classengine_1_1render_1_1_game_object_renderer.html#a72580570f971246ef79428f21b6d25e9" target="_top" xlink:title="engine.render.GameObject\lRenderer.createImageAndView">
<polygon fill="white" stroke="black" points="905.5,-333 905.5,-363 1068.5,-363 1068.5,-333 905.5,-333"/>
<text text-anchor="start" x="913.5" y="-351" font-family="Helvetica,sans-Serif" font-size="10.00">engine.render.GameObject</text>
<text text-anchor="middle" x="987" y="-340" font-family="Helvetica,sans-Serif" font-size="10.00">Renderer.createImageAndView</text>
</a>
</g>
</g>
<!-- Node21&#45;&gt;Node23 -->
<g id="edge24" class="edge"><title>Node21&#45;&gt;Node23</title>
<path fill="none" stroke="midnightblue" d="M818.253,-314.035C844.734,-319.396 874.744,-325.473 901.988,-330.989"/>
<polygon fill="midnightblue" stroke="midnightblue" points="901.392,-334.44 911.888,-332.994 902.781,-327.579 901.392,-334.44"/>
</g>
<!-- Node27 -->
<g id="node27" class="node"><title>Node27</title>
<g id="a_node27"><a xlink:href="../../d2/d82/classengine_1_1render_1_1_rendered_node.html#ad73c81ad48b40faea3818c9a7bbfdcf0" target="_top" xlink:title="engine.render.RenderedNode.set\lCollisionBody">
<polygon fill="white" stroke="black" points="900,-186 900,-216 1074,-216 1074,-186 900,-186"/>
<text text-anchor="start" x="908" y="-204" font-family="Helvetica,sans-Serif" font-size="10.00">engine.render.RenderedNode.set</text>
<text text-anchor="middle" x="987" y="-193" font-family="Helvetica,sans-Serif" font-size="10.00">CollisionBody</text>
</a>
</g>
</g>
<!-- Node21&#45;&gt;Node27 -->
<g id="edge29" class="edge"><title>Node21&#45;&gt;Node27</title>
<path fill="none" stroke="midnightblue" d="M768.286,-283.988C795.903,-267.484 842.778,-241.169 886,-225 891.871,-222.804 898.013,-220.758 904.24,-218.864"/>
<polygon fill="midnightblue" stroke="midnightblue" points="905.442,-222.16 914.07,-216.011 903.491,-215.437 905.442,-222.16"/>
</g>
<!-- Node28 -->
<g id="node28" class="node"><title>Node28</title>
<g id="a_node28"><a xlink:href="../../df/de5/classengine_1_1render_1_1_game_object_renderer.html#a25493ea430dbd3c6094434ba60e98662" target="_top" xlink:title="engine.render.GameObject\lRenderer.createCollisionBody">
<polygon fill="white" stroke="black" points="909.5,-137 909.5,-167 1064.5,-167 1064.5,-137 909.5,-137"/>
<text text-anchor="start" x="917.5" y="-155" font-family="Helvetica,sans-Serif" font-size="10.00">engine.render.GameObject</text>
<text text-anchor="middle" x="987" y="-144" font-family="Helvetica,sans-Serif" font-size="10.00">Renderer.createCollisionBody</text>
</a>
</g>
</g>
<!-- Node21&#45;&gt;Node28 -->
<g id="edge30" class="edge"><title>Node21&#45;&gt;Node28</title>
<path fill="none" stroke="midnightblue" d="M756.822,-283.924C779.903,-257.79 831.172,-204.174 886,-176 890.337,-173.771 894.887,-171.745 899.555,-169.903"/>
<polygon fill="midnightblue" stroke="midnightblue" points="901.067,-173.078 909.273,-166.376 898.678,-166.498 901.067,-173.078"/>
</g>
<!-- Node32 -->
<g id="node32" class="node"><title>Node32</title>
<g id="a_node32"><a xlink:href="../../d2/d82/classengine_1_1render_1_1_rendered_node.html#a312c663dd1144ff206ecfa1ea8c95a81" target="_top" xlink:title="engine.render.RenderedNode.set\lLabel">
<polygon fill="white" stroke="black" points="900,-88 900,-118 1074,-118 1074,-88 900,-88"/>
<text text-anchor="start" x="908" y="-106" font-family="Helvetica,sans-Serif" font-size="10.00">engine.render.RenderedNode.set</text>
<text text-anchor="middle" x="987" y="-95" font-family="Helvetica,sans-Serif" font-size="10.00">Label</text>
</a>
</g>
</g>
<!-- Node21&#45;&gt;Node32 -->
<g id="edge34" class="edge"><title>Node21&#45;&gt;Node32</title>
<path fill="none" stroke="midnightblue" d="M754.653,-283.743C781.528,-245.67 852.332,-148.019 886,-127 888.678,-125.328 891.462,-123.773 894.327,-122.326"/>
<polygon fill="midnightblue" stroke="midnightblue" points="896.053,-125.386 903.711,-118.064 893.159,-119.013 896.053,-125.386"/>
</g>
<!-- Node33 -->
<g id="node33" class="node"><title>Node33</title>
<g id="a_node33"><a xlink:href="../../df/de5/classengine_1_1render_1_1_game_object_renderer.html#a1d5f0ad1a571faec3c1a364bccc4c038" target="_top" xlink:title="engine.render.GameObject\lRenderer.createLabel">
<polygon fill="white" stroke="black" points="914,-284 914,-314 1060,-314 1060,-284 914,-284"/>
<text text-anchor="start" x="922" y="-302" font-family="Helvetica,sans-Serif" font-size="10.00">engine.render.GameObject</text>
<text text-anchor="middle" x="987" y="-291" font-family="Helvetica,sans-Serif" font-size="10.00">Renderer.createLabel</text>
</a>
</g>
</g>
<!-- Node21&#45;&gt;Node33 -->
<g id="edge35" class="edge"><title>Node21&#45;&gt;Node33</title>
<path fill="none" stroke="midnightblue" d="M849.793,-299C867.867,-299 886.401,-299 903.747,-299"/>
<polygon fill="midnightblue" stroke="midnightblue" points="903.811,-302.5 913.811,-299 903.811,-295.5 903.811,-302.5"/>
</g>
<!-- Node35 -->
<g id="node35" class="node"><title>Node35</title>
<g id="a_node35"><a xlink:href="../../d0/d7f/classengine_1_1game_object_1_1_game_object.html#a606c7293c2bfac0af1fb42143bf527f6" target="_top" xlink:title="engine.gameObject.GameObject.getX">
<polygon fill="white" stroke="black" points="888,-49.5 888,-68.5 1086,-68.5 1086,-49.5 888,-49.5"/>
<text text-anchor="middle" x="987" y="-56.5" font-family="Helvetica,sans-Serif" font-size="10.00">engine.gameObject.GameObject.getX</text>
</a>
</g>
</g>
<!-- Node21&#45;&gt;Node35 -->
<g id="edge39" class="edge"><title>Node21&#45;&gt;Node35</title>
<path fill="none" stroke="midnightblue" d="M757.249,-283.593C778.564,-258.324 821.012,-205.978 850,-157 869.653,-123.795 855.649,-101.824 886,-78 888.068,-76.3769 890.233,-74.8784 892.477,-73.4953"/>
<polygon fill="midnightblue" stroke="midnightblue" points="894.294,-76.4936 901.486,-68.714 891.012,-70.3104 894.294,-76.4936"/>
</g>
<!-- Node36 -->
<g id="node36" class="node"><title>Node36</title>
<g id="a_node36"><a xlink:href="../../d0/d7f/classengine_1_1game_object_1_1_game_object.html#a1988806ef560c9384f3844d0666a9450" target="_top" xlink:title="engine.gameObject.GameObject.getY">
<polygon fill="white" stroke="black" points="888.5,-469.5 888.5,-488.5 1085.5,-488.5 1085.5,-469.5 888.5,-469.5"/>
<text text-anchor="middle" x="987" y="-476.5" font-family="Helvetica,sans-Serif" font-size="10.00">engine.gameObject.GameObject.getY</text>
</a>
</g>
</g>
<!-- Node21&#45;&gt;Node36 -->
<g id="edge40" class="edge"><title>Node21&#45;&gt;Node36</title>
<path fill="none" stroke="midnightblue" d="M760.743,-314.259C782.472,-334.453 821.03,-371.638 850,-407 868.046,-429.028 862.196,-444.372 886,-460 889.009,-461.975 892.172,-463.757 895.445,-465.362"/>
<polygon fill="midnightblue" stroke="midnightblue" points="894.358,-468.704 904.928,-469.437 897.122,-462.273 894.358,-468.704"/>
</g>
<!-- Node37 -->
<g id="node37" class="node"><title>Node37</title>
<g id="a_node37"><a xlink:href="../../d0/d7f/classengine_1_1game_object_1_1_game_object.html#ae94fe532960bd29f64c2dc19ec0af798" target="_top" xlink:title="engine.gameObject.GameObject.getID">
<polygon fill="white" stroke="black" points="886,-431.5 886,-450.5 1088,-450.5 1088,-431.5 886,-431.5"/>
<text text-anchor="middle" x="987" y="-438.5" font-family="Helvetica,sans-Serif" font-size="10.00">engine.gameObject.GameObject.getID</text>
</a>
</g>
</g>
<!-- Node21&#45;&gt;Node37 -->
<g id="edge41" class="edge"><title>Node21&#45;&gt;Node37</title>
<path fill="none" stroke="midnightblue" d="M756.742,-314.164C779.699,-340.413 830.783,-394.082 886,-421 892.041,-423.945 898.49,-426.457 905.092,-428.598"/>
<polygon fill="midnightblue" stroke="midnightblue" points="904.263,-432.003 914.845,-431.479 906.246,-425.289 904.263,-432.003"/>
</g>
<!-- Node38 -->
<g id="node38" class="node"><title>Node38</title>
<g id="a_node38"><a xlink:href="../../d0/d7f/classengine_1_1game_object_1_1_game_object.html#ab09d473d8c2afe8cefb2ce2481bc66fd" target="_top" xlink:title="engine.gameObject.GameObject.set\lRenderedNode">
<polygon fill="white" stroke="black" points="891.5,-382 891.5,-412 1082.5,-412 1082.5,-382 891.5,-382"/>
<text text-anchor="start" x="899.5" y="-400" font-family="Helvetica,sans-Serif" font-size="10.00">engine.gameObject.GameObject.set</text>
<text text-anchor="middle" x="987" y="-389" font-family="Helvetica,sans-Serif" font-size="10.00">RenderedNode</text>
</a>
</g>
</g>
<!-- Node21&#45;&gt;Node38 -->
<g id="edge42" class="edge"><title>Node21&#45;&gt;Node38</title>
<path fill="none" stroke="midnightblue" d="M768.845,-314.008C796.577,-330.222 843.193,-355.892 886,-372 892.794,-374.557 899.945,-376.931 907.17,-379.116"/>
<polygon fill="midnightblue" stroke="midnightblue" points="906.463,-382.555 917.042,-381.978 908.412,-375.831 906.463,-382.555"/>
</g>
<!-- Node23&#45;&gt;Node17 -->
<g id="edge26" class="edge"><title>Node23&#45;&gt;Node17</title>
<path fill="none" stroke="midnightblue" d="M1068.73,-361.986C1075.52,-364.746 1082.05,-368.048 1088,-372 1110.51,-386.953 1104.23,-402.575 1124,-421 1140.65,-436.517 1161.85,-450.352 1180,-460.815"/>
<polygon fill="midnightblue" stroke="midnightblue" points="1178.74,-464.122 1189.17,-465.971 1182.17,-458.02 1178.74,-464.122"/>
</g>
<!-- Node24 -->
<g id="node24" class="node"><title>Node24</title>
<g id="a_node24"><a xlink:href="../../d0/d7f/classengine_1_1game_object_1_1_game_object.html#ae8b88e1cf489e935426e2e252defbae0" target="_top" xlink:title="engine.gameObject.GameObject.get\lCurrentImageName">
<polygon fill="white" stroke="black" points="1124,-382 1124,-412 1316,-412 1316,-382 1124,-382"/>
<text text-anchor="start" x="1132" y="-400" font-family="Helvetica,sans-Serif" font-size="10.00">engine.gameObject.GameObject.get</text>
<text text-anchor="middle" x="1220" y="-389" font-family="Helvetica,sans-Serif" font-size="10.00">CurrentImageName</text>
</a>
</g>
</g>
<!-- Node23&#45;&gt;Node24 -->
<g id="edge25" class="edge"><title>Node23&#45;&gt;Node24</title>
<path fill="none" stroke="midnightblue" d="M1058.88,-363.035C1084.04,-368.373 1112.55,-374.42 1138.46,-379.917"/>
<polygon fill="midnightblue" stroke="midnightblue" points="1137.75,-383.343 1148.26,-381.994 1139.2,-376.495 1137.75,-383.343"/>
</g>
<!-- Node25 -->
<g id="node25" class="node"><title>Node25</title>
<g id="a_node25"><a xlink:href="../../d0/d7f/classengine_1_1game_object_1_1_game_object.html#aaeb5730a3b51fe9cb3d817ea7172cfc2" target="_top" xlink:title="engine.gameObject.GameObject.get\lHeight">
<polygon fill="white" stroke="black" points="1124,-333 1124,-363 1316,-363 1316,-333 1124,-333"/>
<text text-anchor="start" x="1132" y="-351" font-family="Helvetica,sans-Serif" font-size="10.00">engine.gameObject.GameObject.get</text>
<text text-anchor="middle" x="1220" y="-340" font-family="Helvetica,sans-Serif" font-size="10.00">Height</text>
</a>
</g>
</g>
<!-- Node23&#45;&gt;Node25 -->
<g id="edge27" class="edge"><title>Node23&#45;&gt;Node25</title>
<path fill="none" stroke="midnightblue" d="M1068.79,-348C1083.27,-348 1098.56,-348 1113.61,-348"/>
<polygon fill="midnightblue" stroke="midnightblue" points="1113.99,-351.5 1123.99,-348 1113.99,-344.5 1113.99,-351.5"/>
</g>
<!-- Node26 -->
<g id="node26" class="node"><title>Node26</title>
<g id="a_node26"><a xlink:href="../../d0/d7f/classengine_1_1game_object_1_1_game_object.html#a31aa2c854220621b49fc5575b50b9342" target="_top" xlink:title="engine.gameObject.GameObject.get\lWidth">
<polygon fill="white" stroke="black" points="1124,-284 1124,-314 1316,-314 1316,-284 1124,-284"/>
<text text-anchor="start" x="1132" y="-302" font-family="Helvetica,sans-Serif" font-size="10.00">engine.gameObject.GameObject.get</text>
<text text-anchor="middle" x="1220" y="-291" font-family="Helvetica,sans-Serif" font-size="10.00">Width</text>
</a>
</g>
</g>
<!-- Node23&#45;&gt;Node26 -->
<g id="edge28" class="edge"><title>Node23&#45;&gt;Node26</title>
<path fill="none" stroke="midnightblue" d="M1058.88,-332.965C1084.04,-327.627 1112.55,-321.58 1138.46,-316.083"/>
<polygon fill="midnightblue" stroke="midnightblue" points="1139.2,-319.505 1148.26,-314.006 1137.75,-312.657 1139.2,-319.505"/>
</g>
<!-- Node29 -->
<g id="node29" class="node"><title>Node29</title>
<g id="a_node29"><a xlink:href="../../d0/d7f/classengine_1_1game_object_1_1_game_object.html#a60c5b6933aac9969491a3562a963c043" target="_top" xlink:title="engine.gameObject.GameObject.get\lPhysicsBody">
<polygon fill="white" stroke="black" points="1124,-88 1124,-118 1316,-118 1316,-88 1124,-88"/>
<text text-anchor="start" x="1132" y="-106" font-family="Helvetica,sans-Serif" font-size="10.00">engine.gameObject.GameObject.get</text>
<text text-anchor="middle" x="1220" y="-95" font-family="Helvetica,sans-Serif" font-size="10.00">PhysicsBody</text>
</a>
</g>
</g>
<!-- Node28&#45;&gt;Node29 -->
<g id="edge31" class="edge"><title>Node28&#45;&gt;Node29</title>
<path fill="none" stroke="midnightblue" d="M1058.88,-136.965C1084.04,-131.627 1112.55,-125.58 1138.46,-120.083"/>
<polygon fill="midnightblue" stroke="midnightblue" points="1139.2,-123.505 1148.26,-118.006 1137.75,-116.657 1139.2,-123.505"/>
</g>
<!-- Node30 -->
<g id="node30" class="node"><title>Node30</title>
<g id="a_node30"><a xlink:href="../../d9/d9d/classengine_1_1game_object_1_1components_1_1_physics_body.html#aba2ed3bce8ee8e404907c88b144626fc" target="_top" xlink:title="engine.gameObject.components.\lPhysicsBody.getCollisionBodyHeight">
<polygon fill="white" stroke="black" points="1126,-186 1126,-216 1314,-216 1314,-186 1126,-186"/>
<text text-anchor="start" x="1134" y="-204" font-family="Helvetica,sans-Serif" font-size="10.00">engine.gameObject.components.</text>
<text text-anchor="middle" x="1220" y="-193" font-family="Helvetica,sans-Serif" font-size="10.00">PhysicsBody.getCollisionBodyHeight</text>
</a>
</g>
</g>
<!-- Node28&#45;&gt;Node30 -->
<g id="edge32" class="edge"><title>Node28&#45;&gt;Node30</title>
<path fill="none" stroke="midnightblue" d="M1058.88,-167.035C1084.04,-172.373 1112.55,-178.42 1138.46,-183.917"/>
<polygon fill="midnightblue" stroke="midnightblue" points="1137.75,-187.343 1148.26,-185.994 1139.2,-180.495 1137.75,-187.343"/>
</g>
<!-- Node31 -->
<g id="node31" class="node"><title>Node31</title>
<g id="a_node31"><a xlink:href="../../d9/d9d/classengine_1_1game_object_1_1components_1_1_physics_body.html#ae64e43632570392c3118b3d00af853fc" target="_top" xlink:title="engine.gameObject.components.\lPhysicsBody.getCollisionBodyWidth">
<polygon fill="white" stroke="black" points="1129,-137 1129,-167 1311,-167 1311,-137 1129,-137"/>
<text text-anchor="start" x="1137" y="-155" font-family="Helvetica,sans-Serif" font-size="10.00">engine.gameObject.components.</text>
<text text-anchor="middle" x="1220" y="-144" font-family="Helvetica,sans-Serif" font-size="10.00">PhysicsBody.getCollisionBodyWidth</text>
</a>
</g>
</g>
<!-- Node28&#45;&gt;Node31 -->
<g id="edge33" class="edge"><title>Node28&#45;&gt;Node31</title>
<path fill="none" stroke="midnightblue" d="M1064.6,-152C1082,-152 1100.73,-152 1118.94,-152"/>
<polygon fill="midnightblue" stroke="midnightblue" points="1118.99,-155.5 1128.99,-152 1118.99,-148.5 1118.99,-155.5"/>
</g>
<!-- Node33&#45;&gt;Node25 -->
<g id="edge37" class="edge"><title>Node33&#45;&gt;Node25</title>
<path fill="none" stroke="midnightblue" d="M1058.88,-314.035C1084.04,-319.373 1112.55,-325.42 1138.46,-330.917"/>
<polygon fill="midnightblue" stroke="midnightblue" points="1137.75,-334.343 1148.26,-332.994 1139.2,-327.495 1137.75,-334.343"/>
</g>
<!-- Node33&#45;&gt;Node26 -->
<g id="edge38" class="edge"><title>Node33&#45;&gt;Node26</title>
<path fill="none" stroke="midnightblue" d="M1060.14,-299C1077.12,-299 1095.56,-299 1113.66,-299"/>
<polygon fill="midnightblue" stroke="midnightblue" points="1113.67,-302.5 1123.67,-299 1113.67,-295.5 1113.67,-302.5"/>
</g>
<!-- Node34 -->
<g id="node34" class="node"><title>Node34</title>
<g id="a_node34"><a xlink:href="../../d0/d7f/classengine_1_1game_object_1_1_game_object.html#a5c379828f3bb19a91935f965c48a91a5" target="_top" xlink:title="engine.gameObject.GameObject.get\lLabel">
<polygon fill="white" stroke="black" points="1124,-235 1124,-265 1316,-265 1316,-235 1124,-235"/>
<text text-anchor="start" x="1132" y="-253" font-family="Helvetica,sans-Serif" font-size="10.00">engine.gameObject.GameObject.get</text>
<text text-anchor="middle" x="1220" y="-242" font-family="Helvetica,sans-Serif" font-size="10.00">Label</text>
</a>
</g>
</g>
<!-- Node33&#45;&gt;Node34 -->
<g id="edge36" class="edge"><title>Node33&#45;&gt;Node34</title>
<path fill="none" stroke="midnightblue" d="M1058.88,-283.965C1084.04,-278.627 1112.55,-272.58 1138.46,-267.083"/>
<polygon fill="midnightblue" stroke="midnightblue" points="1139.2,-270.505 1148.26,-265.006 1137.75,-263.657 1139.2,-270.505"/>
</g>
</g>
</svg>
        <g id="navigator" transform="translate(0 0)" fill="#404254">
                <rect fill="#f2f5e9" fill-opacity="0.5" stroke="#606060" stroke-width=".5" x="0" y="0" width="60" height="60"/>
                <use id="zoomplus" xlink:href="#zoomPlus" x="17" y="9" onmousedown="handleZoom(evt,'in')"/>
                <use id="zoomminus" xlink:href="#zoomMin" x="42" y="9" onmousedown="handleZoom(evt,'out')"/>
                <use id="reset" xlink:href="#resetDef" x="30" y="36" onmousedown="handleReset()"/>
                <g id="arrowUp" xlink:href="#dirArrow" transform="translate(30 24)" onmousedown="handlePan(0,-1)">
                  <use xlink:href="#rim" fill="#404040">
                        <set attributeName="fill" to="#808080" begin="arrowUp.mouseover" end="arrowUp.mouseout"/>
                  </use>
                  <path fill="none" stroke="white" stroke-width="1.5" d="M0,-3.0v7 M-2.5,-0.5L0,-3.0L2.5,-0.5"/>
                </g>
                <g id="arrowRight" xlink:href="#dirArrow" transform="rotate(90) translate(36 -43)" onmousedown="handlePan(1,0)">
                  <use xlink:href="#rim" fill="#404040">
                        <set attributeName="fill" to="#808080" begin="arrowRight.mouseover" end="arrowRight.mouseout"/>
                  </use>
                  <path fill="none" stroke="white" stroke-width="1.5" d="M0,-3.0v7 M-2.5,-0.5L0,-3.0L2.5,-0.5"/>
                </g>
                <g id="arrowDown" xlink:href="#dirArrow" transform="rotate(180) translate(-30 -48)" onmousedown="handlePan(0,1)">
                  <use xlink:href="#rim" fill="#404040">
                        <set attributeName="fill" to="#808080" begin="arrowDown.mouseover" end="arrowDown.mouseout"/>
                  </use>
                  <path fill="none" stroke="white" stroke-width="1.5" d="M0,-3.0v7 M-2.5,-0.5L0,-3.0L2.5,-0.5"/>
                </g>
                <g id="arrowLeft" xlink:href="#dirArrow" transform="rotate(270) translate(-36 17)" onmousedown="handlePan(-1,0)">
                  <use xlink:href="#rim" fill="#404040">
                        <set attributeName="fill" to="#808080" begin="arrowLeft.mouseover" end="arrowLeft.mouseout"/>
                  </use>
                  <path fill="none" stroke="white" stroke-width="1.5" d="M0,-3.0v7 M-2.5,-0.5L0,-3.0L2.5,-0.5"/>
                </g>
        </g>
        <svg viewBox="0 0 15 15" width="100%" height="30px" preserveAspectRatio="xMaxYMin meet">
         <g id="arrow_out" transform="scale(0.3 0.3)">
          <a xlink:href="classengine_1_1level_1_1_level_manager_a1d0f314bbf304bf86067ab87b832d2e0_cgraph_org.svg" target="_base">
           <rect id="button" ry="5" rx="5" y="6" x="6" height="38" width="38"
                fill="#f2f5e9" fill-opacity="0.5" stroke="#606060" stroke-width="1.0"/>
           <path id="arrow"
             d="M 11.500037,31.436501 C 11.940474,20.09759 22.043105,11.32322 32.158766,21.979434 L 37.068811,17.246167 C 37.068811,17.246167 37.088388,32 37.088388,32 L 22.160133,31.978069 C 22.160133,31.978069 26.997745,27.140456 26.997745,27.140456 C 18.528582,18.264221 13.291696,25.230495 11.500037,31.436501 z"
             style="fill:#404040;"/>
          </a>
         </g>
        </svg>
</svg>
