<?xml version="1.0" encoding="UTF-8" standalone="no"?>
<!DOCTYPE svg PUBLIC "-//W3C//DTD SVG 1.1//EN"
 "http://www.w3.org/Graphics/SVG/1.1/DTD/svg11.dtd">
<!-- Generated by graphviz version 2.36.0 (20140111.2315)
 -->
<!-- Title: engine.level.LevelManager.changeToLevel Pages: 1 -->
<svg width="1342pt" height="923pt"
 viewBox="0.00 0.00 1342.00 923.00" xmlns="http://www.w3.org/2000/svg" xmlns:xlink="http://www.w3.org/1999/xlink">
<g id="graph0" class="graph" transform="scale(1 1) rotate(0) translate(4 919)">
<title>engine.level.LevelManager.changeToLevel</title>
<polygon fill="white" stroke="none" points="-4,4 -4,-919 1338,-919 1338,4 -4,4"/>
<!-- Node1 -->
<g id="node1" class="node"><title>Node1</title>
<polygon fill="#bfbfbf" stroke="black" points="0.5,-696 0.5,-726 181.5,-726 181.5,-696 0.5,-696"/>
<text text-anchor="start" x="8.5" y="-714" font-family="Helvetica,sans-Serif" font-size="10.00">engine.level.LevelManager.change</text>
<text text-anchor="middle" x="91" y="-703" font-family="Helvetica,sans-Serif" font-size="10.00">ToLevel</text>
</g>
<!-- Node2 -->
<g id="node2" class="node"><title>Node2</title>
<g id="a_node2"><a xlink:href="../../df/d67/classengine_1_1level_1_1_level_manager.html#a523599892453015eed0f1b506979af8a" target="_top" xlink:title="engine.level.LevelManager.initialize\lCurrentLevel">
<polygon fill="white" stroke="black" points="218,-726 218,-756 402,-756 402,-726 218,-726"/>
<text text-anchor="start" x="226" y="-744" font-family="Helvetica,sans-Serif" font-size="10.00">engine.level.LevelManager.initialize</text>
<text text-anchor="middle" x="310" y="-733" font-family="Helvetica,sans-Serif" font-size="10.00">CurrentLevel</text>
</a>
</g>
</g>
<!-- Node1&#45;&gt;Node2 -->
<g id="edge1" class="edge"><title>Node1&#45;&gt;Node2</title>
<path fill="none" stroke="midnightblue" d="M181.515,-723.375C190.252,-724.583 199.158,-725.815 207.998,-727.037"/>
<polygon fill="midnightblue" stroke="midnightblue" points="207.553,-730.508 217.938,-728.411 208.511,-723.574 207.553,-730.508"/>
</g>
<!-- Node43 -->
<g id="node43" class="node"><title>Node43</title>
<g id="a_node43"><a xlink:href="../../df/d67/classengine_1_1level_1_1_level_manager.html#ad89101547413fe335873b050fd091c79" target="_top" xlink:title="engine.level.LevelManager.set\lCurrentLevel">
<polygon fill="white" stroke="black" points="229.5,-666 229.5,-696 390.5,-696 390.5,-666 229.5,-666"/>
<text text-anchor="start" x="237.5" y="-684" font-family="Helvetica,sans-Serif" font-size="10.00">engine.level.LevelManager.set</text>
<text text-anchor="middle" x="310" y="-673" font-family="Helvetica,sans-Serif" font-size="10.00">CurrentLevel</text>
</a>
</g>
</g>
<!-- Node1&#45;&gt;Node43 -->
<g id="edge50" class="edge"><title>Node1&#45;&gt;Node43</title>
<path fill="none" stroke="midnightblue" d="M181.515,-698.625C194.044,-696.893 206.921,-695.112 219.45,-693.38"/>
<polygon fill="midnightblue" stroke="midnightblue" points="219.984,-696.84 229.41,-692.003 219.025,-689.906 219.984,-696.84"/>
</g>
<!-- Node3 -->
<g id="node3" class="node"><title>Node3</title>
<g id="a_node3"><a xlink:href="../../df/d67/classengine_1_1level_1_1_level_manager.html#af00a1d61217dd801bb7a8b16ad829cf0" target="_top" xlink:title="engine.level.LevelManager.disable\lAllConditions">
<polygon fill="white" stroke="black" points="438.5,-884 438.5,-914 617.5,-914 617.5,-884 438.5,-884"/>
<text text-anchor="start" x="446.5" y="-902" font-family="Helvetica,sans-Serif" font-size="10.00">engine.level.LevelManager.disable</text>
<text text-anchor="middle" x="528" y="-891" font-family="Helvetica,sans-Serif" font-size="10.00">AllConditions</text>
</a>
</g>
</g>
<!-- Node2&#45;&gt;Node3 -->
<g id="edge2" class="edge"><title>Node2&#45;&gt;Node3</title>
<path fill="none" stroke="midnightblue" d="M321.296,-756.293C340.763,-784.013 385.734,-842.588 438,-874 441.637,-876.186 445.472,-878.187 449.425,-880.018"/>
<polygon fill="midnightblue" stroke="midnightblue" points="448.252,-883.322 458.826,-883.988 450.976,-876.873 448.252,-883.322"/>
</g>
<!-- Node4 -->
<g id="node4" class="node"><title>Node4</title>
<g id="a_node4"><a xlink:href="../../df/d67/classengine_1_1level_1_1_level_manager.html#a5d79217e53b1e3804476ba6b366ad066" target="_top" xlink:title="engine.level.LevelManager.set\lLevelEnabledConditions">
<polygon fill="white" stroke="black" points="447.5,-835 447.5,-865 608.5,-865 608.5,-835 447.5,-835"/>
<text text-anchor="start" x="455.5" y="-853" font-family="Helvetica,sans-Serif" font-size="10.00">engine.level.LevelManager.set</text>
<text text-anchor="middle" x="528" y="-842" font-family="Helvetica,sans-Serif" font-size="10.00">LevelEnabledConditions</text>
</a>
</g>
</g>
<!-- Node2&#45;&gt;Node4 -->
<g id="edge3" class="edge"><title>Node2&#45;&gt;Node4</title>
<path fill="none" stroke="midnightblue" d="M329.693,-756.087C353.537,-774.667 396.654,-806.083 438,-825 443.236,-827.396 448.752,-829.611 454.367,-831.649"/>
<polygon fill="midnightblue" stroke="midnightblue" points="453.283,-834.977 463.878,-834.912 455.555,-828.356 453.283,-834.977"/>
</g>
<!-- Node7 -->
<g id="node7" class="node"><title>Node7</title>
<g id="a_node7"><a xlink:href="../../da/d90/classengine_1_1sound_1_1_sound_utility.html#a53a82805b12b2b8f68b8396b9795d092" target="_top" xlink:title="engine.sound.SoundUtility.stop\lBackGroundMusic">
<polygon fill="white" stroke="black" points="446,-786 446,-816 610,-816 610,-786 446,-786"/>
<text text-anchor="start" x="454" y="-804" font-family="Helvetica,sans-Serif" font-size="10.00">engine.sound.SoundUtility.stop</text>
<text text-anchor="middle" x="528" y="-793" font-family="Helvetica,sans-Serif" font-size="10.00">BackGroundMusic</text>
</a>
</g>
</g>
<!-- Node2&#45;&gt;Node7 -->
<g id="edge6" class="edge"><title>Node2&#45;&gt;Node7</title>
<path fill="none" stroke="midnightblue" d="M365.227,-756.063C394.884,-764.301 431.804,-774.557 462.882,-783.189"/>
<polygon fill="midnightblue" stroke="midnightblue" points="462.179,-786.627 472.751,-785.931 464.052,-779.882 462.179,-786.627"/>
</g>
<!-- Node8 -->
<g id="node8" class="node"><title>Node8</title>
<g id="a_node8"><a xlink:href="../../da/d90/classengine_1_1sound_1_1_sound_utility.html#ab8cd26d71aa7b20d07350105a4254c92" target="_top" xlink:title="engine.sound.SoundUtility.play\lBackGroundMusic">
<polygon fill="white" stroke="black" points="446.5,-737 446.5,-767 609.5,-767 609.5,-737 446.5,-737"/>
<text text-anchor="start" x="454.5" y="-755" font-family="Helvetica,sans-Serif" font-size="10.00">engine.sound.SoundUtility.play</text>
<text text-anchor="middle" x="528" y="-744" font-family="Helvetica,sans-Serif" font-size="10.00">BackGroundMusic</text>
</a>
</g>
</g>
<!-- Node2&#45;&gt;Node8 -->
<g id="edge7" class="edge"><title>Node2&#45;&gt;Node8</title>
<path fill="none" stroke="midnightblue" d="M402.29,-745.649C413.486,-746.219 424.927,-746.802 436.116,-747.372"/>
<polygon fill="midnightblue" stroke="midnightblue" points="436.142,-750.877 446.307,-747.891 436.498,-743.886 436.142,-750.877"/>
</g>
<!-- Node9 -->
<g id="node9" class="node"><title>Node9</title>
<g id="a_node9"><a xlink:href="../../df/d84/classengine_1_1level_1_1_level.html#a368275ed98c802fbf59a11423b9b9a0d" target="_top" xlink:title="engine.level.Level.getBackground\lMusic">
<polygon fill="white" stroke="black" points="439.5,-688 439.5,-718 616.5,-718 616.5,-688 439.5,-688"/>
<text text-anchor="start" x="447.5" y="-706" font-family="Helvetica,sans-Serif" font-size="10.00">engine.level.Level.getBackground</text>
<text text-anchor="middle" x="528" y="-695" font-family="Helvetica,sans-Serif" font-size="10.00">Music</text>
</a>
</g>
</g>
<!-- Node2&#45;&gt;Node9 -->
<g id="edge8" class="edge"><title>Node2&#45;&gt;Node9</title>
<path fill="none" stroke="midnightblue" d="M396.369,-725.981C407.861,-723.96 419.71,-721.875 431.366,-719.825"/>
<polygon fill="midnightblue" stroke="midnightblue" points="432.302,-723.214 441.544,-718.034 431.089,-716.32 432.302,-723.214"/>
</g>
<!-- Node10 -->
<g id="node10" class="node"><title>Node10</title>
<g id="a_node10"><a xlink:href="../../df/d84/classengine_1_1level_1_1_level.html#ace23cd4ed278a5bb85e964ff3c8818b5" target="_top" xlink:title="engine.level.Level.initialize">
<polygon fill="white" stroke="black" points="456.5,-649.5 456.5,-668.5 599.5,-668.5 599.5,-649.5 456.5,-649.5"/>
<text text-anchor="middle" x="528" y="-656.5" font-family="Helvetica,sans-Serif" font-size="10.00">engine.level.Level.initialize</text>
</a>
</g>
</g>
<!-- Node2&#45;&gt;Node10 -->
<g id="edge9" class="edge"><title>Node2&#45;&gt;Node10</title>
<path fill="none" stroke="midnightblue" d="M356.062,-725.901C371.07,-720.164 387.618,-713.047 402,-705 419.454,-695.235 419.795,-686.281 438,-678 443.436,-675.527 449.207,-673.371 455.095,-671.49"/>
<polygon fill="midnightblue" stroke="midnightblue" points="456.456,-674.739 465.077,-668.581 454.497,-668.019 456.456,-674.739"/>
</g>
<!-- Node15 -->
<g id="node15" class="node"><title>Node15</title>
<g id="a_node15"><a xlink:href="../../df/de5/classengine_1_1render_1_1_game_object_renderer.html#a610545384a337edcd3bffb9f0c6ecf18" target="_top" xlink:title="engine.render.GameObject\lRenderer.renderGameObjects">
<polygon fill="white" stroke="black" points="449,-529 449,-559 607,-559 607,-529 449,-529"/>
<text text-anchor="start" x="457" y="-547" font-family="Helvetica,sans-Serif" font-size="10.00">engine.render.GameObject</text>
<text text-anchor="middle" x="528" y="-536" font-family="Helvetica,sans-Serif" font-size="10.00">Renderer.renderGameObjects</text>
</a>
</g>
</g>
<!-- Node2&#45;&gt;Node15 -->
<g id="edge14" class="edge"><title>Node2&#45;&gt;Node15</title>
<path fill="none" stroke="midnightblue" d="M366.89,-725.874C379.391,-720.679 391.917,-713.859 402,-705 426.809,-683.203 418.633,-666.748 438,-640 457.681,-612.819 484.267,-585.056 503.245,-566.425"/>
<polygon fill="midnightblue" stroke="midnightblue" points="505.879,-568.745 510.618,-559.269 501.004,-563.722 505.879,-568.745"/>
</g>
<!-- Node5 -->
<g id="node5" class="node"><title>Node5</title>
<g id="a_node5"><a xlink:href="../../df/d84/classengine_1_1level_1_1_level.html#a264b568258eafa3d2c664c94e7498621" target="_top" xlink:title="engine.level.Level.getCondition\lIdentifiers">
<polygon fill="white" stroke="black" points="678.5,-859 678.5,-889 843.5,-889 843.5,-859 678.5,-859"/>
<text text-anchor="start" x="686.5" y="-877" font-family="Helvetica,sans-Serif" font-size="10.00">engine.level.Level.getCondition</text>
<text text-anchor="middle" x="761" y="-866" font-family="Helvetica,sans-Serif" font-size="10.00">Identifiers</text>
</a>
</g>
</g>
<!-- Node4&#45;&gt;Node5 -->
<g id="edge4" class="edge"><title>Node4&#45;&gt;Node5</title>
<path fill="none" stroke="midnightblue" d="M608.821,-858.293C627.921,-860.278 648.466,-862.412 668.065,-864.448"/>
<polygon fill="midnightblue" stroke="midnightblue" points="667.907,-867.951 678.215,-865.503 668.63,-860.988 667.907,-867.951"/>
</g>
<!-- Node6 -->
<g id="node6" class="node"><title>Node6</title>
<g id="a_node6"><a xlink:href="../../df/d67/classengine_1_1level_1_1_level_manager.html#a766cb6198dd991f0bdf6386dace3a65b" target="_top" xlink:title="engine.level.LevelManager.enable\lCondition">
<polygon fill="white" stroke="black" points="672,-810 672,-840 850,-840 850,-810 672,-810"/>
<text text-anchor="start" x="680" y="-828" font-family="Helvetica,sans-Serif" font-size="10.00">engine.level.LevelManager.enable</text>
<text text-anchor="middle" x="761" y="-817" font-family="Helvetica,sans-Serif" font-size="10.00">Condition</text>
</a>
</g>
</g>
<!-- Node4&#45;&gt;Node6 -->
<g id="edge5" class="edge"><title>Node4&#45;&gt;Node6</title>
<path fill="none" stroke="midnightblue" d="M608.821,-841.361C625.827,-839.521 643.977,-837.557 661.586,-835.651"/>
<polygon fill="midnightblue" stroke="midnightblue" points="662.313,-839.093 671.878,-834.537 661.56,-832.133 662.313,-839.093"/>
</g>
<!-- Node11 -->
<g id="node11" class="node"><title>Node11</title>
<g id="a_node11"><a xlink:href="../../d4/d3b/classauthoring_1_1model_1_1collections_1_1_general_collection.html#a1bdc1047736bbb23259d6a7fe4c6deeb" target="_top" xlink:title="authoring.model.collections.\lGeneralCollection.add">
<polygon fill="white" stroke="black" points="685,-732 685,-762 837,-762 837,-732 685,-732"/>
<text text-anchor="start" x="693" y="-750" font-family="Helvetica,sans-Serif" font-size="10.00">authoring.model.collections.</text>
<text text-anchor="middle" x="761" y="-739" font-family="Helvetica,sans-Serif" font-size="10.00">GeneralCollection.add</text>
</a>
</g>
</g>
<!-- Node10&#45;&gt;Node11 -->
<g id="edge10" class="edge"><title>Node10&#45;&gt;Node11</title>
<path fill="none" stroke="midnightblue" d="M595.807,-668.512C603.558,-670.982 611.136,-674.089 618,-678 638.496,-689.677 633.897,-704.658 654,-717 661.146,-721.387 668.954,-725.152 676.986,-728.378"/>
<polygon fill="midnightblue" stroke="midnightblue" points="675.901,-731.708 686.494,-731.923 678.347,-725.15 675.901,-731.708"/>
</g>
<!-- Node12 -->
<g id="node12" class="node"><title>Node12</title>
<g id="a_node12"><a xlink:href="../../d0/d7f/classengine_1_1game_object_1_1_game_object.html#accd456b2eaab9c7056de825a28b066c8" target="_top" xlink:title="engine.gameObject.GameObject.get\lIdentifier">
<polygon fill="white" stroke="black" points="909,-703 909,-733 1101,-733 1101,-703 909,-703"/>
<text text-anchor="start" x="917" y="-721" font-family="Helvetica,sans-Serif" font-size="10.00">engine.gameObject.GameObject.get</text>
<text text-anchor="middle" x="1005" y="-710" font-family="Helvetica,sans-Serif" font-size="10.00">Identifier</text>
</a>
</g>
</g>
<!-- Node10&#45;&gt;Node12 -->
<g id="edge11" class="edge"><title>Node10&#45;&gt;Node12</title>
<path fill="none" stroke="midnightblue" d="M573.381,-668.53C597.197,-673.388 627.104,-679.081 654,-683 735.787,-694.916 828.923,-704.015 898.547,-709.945"/>
<polygon fill="midnightblue" stroke="midnightblue" points="898.386,-713.444 908.645,-710.797 898.975,-706.469 898.386,-713.444"/>
</g>
<!-- Node13 -->
<g id="node13" class="node"><title>Node13</title>
<g id="a_node13"><a xlink:href="../../d4/dac/classengine_1_1game_object_1_1_identifier.html#aa2630b5024b9595e43afe0bf53229433" target="_top" xlink:title="engine.gameObject.Identifier.get\lUniqueId">
<polygon fill="white" stroke="black" points="674.5,-595 674.5,-625 847.5,-625 847.5,-595 674.5,-595"/>
<text text-anchor="start" x="682.5" y="-613" font-family="Helvetica,sans-Serif" font-size="10.00">engine.gameObject.Identifier.get</text>
<text text-anchor="middle" x="761" y="-602" font-family="Helvetica,sans-Serif" font-size="10.00">UniqueId</text>
</a>
</g>
</g>
<!-- Node10&#45;&gt;Node13 -->
<g id="edge12" class="edge"><title>Node10&#45;&gt;Node13</title>
<path fill="none" stroke="midnightblue" d="M573.813,-649.494C603.675,-643.16 643.78,-634.653 679.121,-627.156"/>
<polygon fill="midnightblue" stroke="midnightblue" points="679.894,-630.57 688.95,-625.071 678.441,-623.723 679.894,-630.57"/>
</g>
<!-- Node14 -->
<g id="node14" class="node"><title>Node14</title>
<g id="a_node14"><a xlink:href="../../df/d67/classengine_1_1level_1_1_level_manager.html#a6e15411e375d875fa72058d499bec766" target="_top" xlink:title="engine.level.LevelManager.object\lForIdentifier">
<polygon fill="white" stroke="black" points="673.5,-644 673.5,-674 848.5,-674 848.5,-644 673.5,-644"/>
<text text-anchor="start" x="681.5" y="-662" font-family="Helvetica,sans-Serif" font-size="10.00">engine.level.LevelManager.object</text>
<text text-anchor="middle" x="761" y="-651" font-family="Helvetica,sans-Serif" font-size="10.00">ForIdentifier</text>
</a>
</g>
</g>
<!-- Node10&#45;&gt;Node14 -->
<g id="edge13" class="edge"><title>Node10&#45;&gt;Node14</title>
<path fill="none" stroke="midnightblue" d="M599.563,-659C619.608,-659 641.792,-659 663.107,-659"/>
<polygon fill="midnightblue" stroke="midnightblue" points="663.157,-662.5 673.157,-659 663.157,-655.5 663.157,-662.5"/>
</g>
<!-- Node15&#45;&gt;Node12 -->
<g id="edge30" class="edge"><title>Node15&#45;&gt;Node12</title>
<path fill="none" stroke="midnightblue" d="M607.349,-549.08C701.16,-555.836 848.197,-568.831 868,-585 907.192,-616.999 866.876,-658.622 904,-693 905.526,-694.413 907.12,-695.75 908.773,-697.014"/>
<polygon fill="midnightblue" stroke="midnightblue" points="907.2,-700.169 917.477,-702.746 911.05,-694.323 907.2,-700.169"/>
</g>
<!-- Node15&#45;&gt;Node13 -->
<g id="edge31" class="edge"><title>Node15&#45;&gt;Node13</title>
<path fill="none" stroke="midnightblue" d="M580.983,-559.029C603.434,-565.505 630.004,-573.149 654,-580 667.896,-583.968 682.824,-588.207 696.964,-592.211"/>
<polygon fill="midnightblue" stroke="midnightblue" points="696.03,-595.584 706.605,-594.94 697.936,-588.849 696.03,-595.584"/>
</g>
<!-- Node16 -->
<g id="node16" class="node"><title>Node16</title>
<g id="a_node16"><a xlink:href="../../df/de5/classengine_1_1render_1_1_game_object_renderer.html#ad1dadb54349f33bce5bb60cd8d5cac64" target="_top" xlink:title="engine.render.GameObject\lRenderer.setBackGroundImage">
<polygon fill="white" stroke="black" points="678.5,-507 678.5,-537 843.5,-537 843.5,-507 678.5,-507"/>
<text text-anchor="start" x="686.5" y="-525" font-family="Helvetica,sans-Serif" font-size="10.00">engine.render.GameObject</text>
<text text-anchor="middle" x="761" y="-514" font-family="Helvetica,sans-Serif" font-size="10.00">Renderer.setBackGroundImage</text>
</a>
</g>
</g>
<!-- Node15&#45;&gt;Node16 -->
<g id="edge15" class="edge"><title>Node15&#45;&gt;Node16</title>
<path fill="none" stroke="midnightblue" d="M607.206,-536.552C626.801,-534.686 648,-532.667 668.19,-530.744"/>
<polygon fill="midnightblue" stroke="midnightblue" points="668.701,-534.211 678.324,-529.779 668.038,-527.243 668.701,-534.211"/>
</g>
<!-- Node29 -->
<g id="node29" class="node"><title>Node29</title>
<g id="a_node29"><a xlink:href="../../df/d84/classengine_1_1level_1_1_level.html#af2921158eda86e1f909575ee468eec5c" target="_top" xlink:title="engine.level.Level.getGame\lObjectIterator">
<polygon fill="white" stroke="black" points="686.5,-107 686.5,-137 835.5,-137 835.5,-107 686.5,-107"/>
<text text-anchor="start" x="694.5" y="-125" font-family="Helvetica,sans-Serif" font-size="10.00">engine.level.Level.getGame</text>
<text text-anchor="middle" x="761" y="-114" font-family="Helvetica,sans-Serif" font-size="10.00">ObjectIterator</text>
</a>
</g>
</g>
<!-- Node15&#45;&gt;Node29 -->
<g id="edge28" class="edge"><title>Node15&#45;&gt;Node29</title>
<path fill="none" stroke="midnightblue" d="M535.089,-528.812C551.922,-487.361 601.337,-369.227 654,-277 681.808,-228.301 720.106,-175.063 742.24,-145.375"/>
<polygon fill="midnightblue" stroke="midnightblue" points="745.097,-147.399 748.297,-137.299 739.497,-143.199 745.097,-147.399"/>
</g>
<!-- Node31 -->
<g id="node31" class="node"><title>Node31</title>
<g id="a_node31"><a xlink:href="../../df/de5/classengine_1_1render_1_1_game_object_renderer.html#a745cb65a5425a20a1b5063068ef1314a" target="_top" xlink:title="engine.render.GameObject\lRenderer.createAndAssignRenderedNode">
<polygon fill="white" stroke="black" points="654.5,-287 654.5,-317 867.5,-317 867.5,-287 654.5,-287"/>
<text text-anchor="start" x="662.5" y="-305" font-family="Helvetica,sans-Serif" font-size="10.00">engine.render.GameObject</text>
<text text-anchor="middle" x="761" y="-294" font-family="Helvetica,sans-Serif" font-size="10.00">Renderer.createAndAssignRenderedNode</text>
</a>
</g>
</g>
<!-- Node15&#45;&gt;Node31 -->
<g id="edge32" class="edge"><title>Node15&#45;&gt;Node31</title>
<path fill="none" stroke="midnightblue" d="M543.45,-528.862C582.747,-487.694 691.728,-373.523 738.368,-324.662"/>
<polygon fill="midnightblue" stroke="midnightblue" points="741.182,-326.783 745.555,-317.132 736.119,-321.949 741.182,-326.783"/>
</g>
<!-- Node17 -->
<g id="node17" class="node"><title>Node17</title>
<g id="a_node17"><a xlink:href="../../d0/d7f/classengine_1_1game_object_1_1_game_object.html#a9a4690b212ecad4060ce8f9abbcedba5" target="_top" xlink:title="engine.gameObject.GameObject.set\lIdentifier">
<polygon fill="white" stroke="black" points="909.5,-654 909.5,-684 1100.5,-684 1100.5,-654 909.5,-654"/>
<text text-anchor="start" x="917.5" y="-672" font-family="Helvetica,sans-Serif" font-size="10.00">engine.gameObject.GameObject.set</text>
<text text-anchor="middle" x="1005" y="-661" font-family="Helvetica,sans-Serif" font-size="10.00">Identifier</text>
</a>
</g>
</g>
<!-- Node16&#45;&gt;Node17 -->
<g id="edge16" class="edge"><title>Node16&#45;&gt;Node17</title>
<path fill="none" stroke="midnightblue" d="M843.691,-536.532C852.558,-540.515 860.918,-545.574 868,-552 900.519,-581.503 871.03,-615.002 904,-644 905.747,-645.536 907.574,-646.981 909.469,-648.34"/>
<polygon fill="midnightblue" stroke="midnightblue" points="907.835,-651.445 918.173,-653.761 911.535,-645.503 907.835,-651.445"/>
</g>
<!-- Node18 -->
<g id="node18" class="node"><title>Node18</title>
<g id="a_node18"><a xlink:href="../../d0/d7f/classengine_1_1game_object_1_1_game_object.html#a077db8b746f3cdc580e5954ec5c02060" target="_top" xlink:title="engine.gameObject.GameObject.set\lCurrentImagePath">
<polygon fill="white" stroke="black" points="909.5,-605 909.5,-635 1100.5,-635 1100.5,-605 909.5,-605"/>
<text text-anchor="start" x="917.5" y="-623" font-family="Helvetica,sans-Serif" font-size="10.00">engine.gameObject.GameObject.set</text>
<text text-anchor="middle" x="1005" y="-612" font-family="Helvetica,sans-Serif" font-size="10.00">CurrentImagePath</text>
</a>
</g>
</g>
<!-- Node16&#45;&gt;Node18 -->
<g id="edge17" class="edge"><title>Node16&#45;&gt;Node18</title>
<path fill="none" stroke="midnightblue" d="M836.879,-537.056C847.794,-540.965 858.529,-545.865 868,-552 888.919,-565.55 882.874,-581.774 904,-595 907.401,-597.129 910.973,-599.077 914.661,-600.86"/>
<polygon fill="midnightblue" stroke="midnightblue" points="913.468,-604.158 924.033,-604.957 916.272,-597.744 913.468,-604.158"/>
</g>
<!-- Node20 -->
<g id="node20" class="node"><title>Node20</title>
<g id="a_node20"><a xlink:href="../../df/d84/classengine_1_1level_1_1_level.html#a5dc36c31fcc8e0b5cbe2a942ec101fdb" target="_top" xlink:title="engine.level.Level.getBackground\lImage">
<polygon fill="white" stroke="black" points="916.5,-556 916.5,-586 1093.5,-586 1093.5,-556 916.5,-556"/>
<text text-anchor="start" x="924.5" y="-574" font-family="Helvetica,sans-Serif" font-size="10.00">engine.level.Level.getBackground</text>
<text text-anchor="middle" x="1005" y="-563" font-family="Helvetica,sans-Serif" font-size="10.00">Image</text>
</a>
</g>
</g>
<!-- Node16&#45;&gt;Node20 -->
<g id="edge19" class="edge"><title>Node16&#45;&gt;Node20</title>
<path fill="none" stroke="midnightblue" d="M836.253,-537.035C862.734,-542.396 892.744,-548.473 919.988,-553.989"/>
<polygon fill="midnightblue" stroke="midnightblue" points="919.392,-557.44 929.888,-555.994 920.781,-550.579 919.392,-557.44"/>
</g>
<!-- Node21 -->
<g id="node21" class="node"><title>Node21</title>
<g id="a_node21"><a xlink:href="../../df/de5/classengine_1_1render_1_1_game_object_renderer.html#a72580570f971246ef79428f21b6d25e9" target="_top" xlink:title="engine.render.GameObject\lRenderer.createImageAndView">
<polygon fill="white" stroke="black" points="923.5,-458 923.5,-488 1086.5,-488 1086.5,-458 923.5,-458"/>
<text text-anchor="start" x="931.5" y="-476" font-family="Helvetica,sans-Serif" font-size="10.00">engine.render.GameObject</text>
<text text-anchor="middle" x="1005" y="-465" font-family="Helvetica,sans-Serif" font-size="10.00">Renderer.createImageAndView</text>
</a>
</g>
</g>
<!-- Node16&#45;&gt;Node21 -->
<g id="edge20" class="edge"><title>Node16&#45;&gt;Node21</title>
<path fill="none" stroke="midnightblue" d="M836.253,-506.965C862.734,-501.604 892.744,-495.527 919.988,-490.011"/>
<polygon fill="midnightblue" stroke="midnightblue" points="920.781,-493.421 929.888,-488.006 919.392,-486.56 920.781,-493.421"/>
</g>
<!-- Node26 -->
<g id="node26" class="node"><title>Node26</title>
<g id="a_node26"><a xlink:href="../../d0/d7f/classengine_1_1game_object_1_1_game_object.html#a25787d700465cb1e5956383d1b5bd602" target="_top" xlink:title="engine.gameObject.GameObject.set\lHeight">
<polygon fill="white" stroke="black" points="909.5,-507 909.5,-537 1100.5,-537 1100.5,-507 909.5,-507"/>
<text text-anchor="start" x="917.5" y="-525" font-family="Helvetica,sans-Serif" font-size="10.00">engine.gameObject.GameObject.set</text>
<text text-anchor="middle" x="1005" y="-514" font-family="Helvetica,sans-Serif" font-size="10.00">Height</text>
</a>
</g>
</g>
<!-- Node16&#45;&gt;Node26 -->
<g id="edge25" class="edge"><title>Node16&#45;&gt;Node26</title>
<path fill="none" stroke="midnightblue" d="M843.593,-522C861.505,-522 880.711,-522 899.386,-522"/>
<polygon fill="midnightblue" stroke="midnightblue" points="899.393,-525.5 909.393,-522 899.393,-518.5 899.393,-525.5"/>
</g>
<!-- Node27 -->
<g id="node27" class="node"><title>Node27</title>
<g id="a_node27"><a xlink:href="../../d2/d82/classengine_1_1render_1_1_rendered_node.html#a520a8c03b505d10c69e010e603cadfdd" target="_top" xlink:title="engine.render.RenderedNode.set\lImageView">
<polygon fill="white" stroke="black" points="918,-409 918,-439 1092,-439 1092,-409 918,-409"/>
<text text-anchor="start" x="926" y="-427" font-family="Helvetica,sans-Serif" font-size="10.00">engine.render.RenderedNode.set</text>
<text text-anchor="middle" x="1005" y="-416" font-family="Helvetica,sans-Serif" font-size="10.00">ImageView</text>
</a>
</g>
</g>
<!-- Node16&#45;&gt;Node27 -->
<g id="edge26" class="edge"><title>Node16&#45;&gt;Node27</title>
<path fill="none" stroke="midnightblue" d="M786.286,-506.988C813.903,-490.484 860.778,-464.169 904,-448 909.871,-445.804 916.013,-443.758 922.24,-441.864"/>
<polygon fill="midnightblue" stroke="midnightblue" points="923.442,-445.16 932.07,-439.011 921.491,-438.437 923.442,-445.16"/>
</g>
<!-- Node28 -->
<g id="node28" class="node"><title>Node28</title>
<g id="a_node28"><a xlink:href="../../d0/d7f/classengine_1_1game_object_1_1_game_object.html#ab09d473d8c2afe8cefb2ce2481bc66fd" target="_top" xlink:title="engine.gameObject.GameObject.set\lRenderedNode">
<polygon fill="white" stroke="black" points="909.5,-360 909.5,-390 1100.5,-390 1100.5,-360 909.5,-360"/>
<text text-anchor="start" x="917.5" y="-378" font-family="Helvetica,sans-Serif" font-size="10.00">engine.gameObject.GameObject.set</text>
<text text-anchor="middle" x="1005" y="-367" font-family="Helvetica,sans-Serif" font-size="10.00">RenderedNode</text>
</a>
</g>
</g>
<!-- Node16&#45;&gt;Node28 -->
<g id="edge27" class="edge"><title>Node16&#45;&gt;Node28</title>
<path fill="none" stroke="midnightblue" d="M774.822,-506.924C797.903,-480.79 849.172,-427.174 904,-399 907.752,-397.072 911.663,-395.296 915.671,-393.659"/>
<polygon fill="midnightblue" stroke="midnightblue" points="917.044,-396.882 925.174,-390.089 914.582,-390.33 917.044,-396.882"/>
</g>
<!-- Node19 -->
<g id="node19" class="node"><title>Node19</title>
<g id="a_node19"><a xlink:href="../../d2/d82/classengine_1_1render_1_1_rendered_node.html#a5e38d50cbd80bfbb0dd674596610c790" target="_top" xlink:title="engine.render.RenderedNode.get\lImageView">
<polygon fill="white" stroke="black" points="1150.5,-605 1150.5,-635 1325.5,-635 1325.5,-605 1150.5,-605"/>
<text text-anchor="start" x="1158.5" y="-623" font-family="Helvetica,sans-Serif" font-size="10.00">engine.render.RenderedNode.get</text>
<text text-anchor="middle" x="1238" y="-612" font-family="Helvetica,sans-Serif" font-size="10.00">ImageView</text>
</a>
</g>
</g>
<!-- Node18&#45;&gt;Node19 -->
<g id="edge18" class="edge"><title>Node18&#45;&gt;Node19</title>
<path fill="none" stroke="midnightblue" d="M1100.62,-620C1113.6,-620 1126.94,-620 1139.96,-620"/>
<polygon fill="midnightblue" stroke="midnightblue" points="1140.32,-623.5 1150.32,-620 1140.32,-616.5 1140.32,-623.5"/>
</g>
<!-- Node22 -->
<g id="node22" class="node"><title>Node22</title>
<g id="a_node22"><a xlink:href="../../d0/d7f/classengine_1_1game_object_1_1_game_object.html#ae8b88e1cf489e935426e2e252defbae0" target="_top" xlink:title="engine.gameObject.GameObject.get\lCurrentImageName">
<polygon fill="white" stroke="black" points="1142,-507 1142,-537 1334,-537 1334,-507 1142,-507"/>
<text text-anchor="start" x="1150" y="-525" font-family="Helvetica,sans-Serif" font-size="10.00">engine.gameObject.GameObject.get</text>
<text text-anchor="middle" x="1238" y="-514" font-family="Helvetica,sans-Serif" font-size="10.00">CurrentImageName</text>
</a>
</g>
</g>
<!-- Node21&#45;&gt;Node22 -->
<g id="edge21" class="edge"><title>Node21&#45;&gt;Node22</title>
<path fill="none" stroke="midnightblue" d="M1076.88,-488.035C1102.04,-493.373 1130.55,-499.42 1156.46,-504.917"/>
<polygon fill="midnightblue" stroke="midnightblue" points="1155.75,-508.343 1166.26,-506.994 1157.2,-501.495 1155.75,-508.343"/>
</g>
<!-- Node23 -->
<g id="node23" class="node"><title>Node23</title>
<g id="a_node23"><a xlink:href="../../d9/db5/classengine_1_1_file_path_utility.html#ad8a72da93bd719a750bd549ed92a37d7" target="_top" xlink:title="engine.FilePathUtility.get\lFilePath">
<polygon fill="white" stroke="black" points="1172,-458 1172,-488 1304,-488 1304,-458 1172,-458"/>
<text text-anchor="start" x="1180" y="-476" font-family="Helvetica,sans-Serif" font-size="10.00">engine.FilePathUtility.get</text>
<text text-anchor="middle" x="1238" y="-465" font-family="Helvetica,sans-Serif" font-size="10.00">FilePath</text>
</a>
</g>
</g>
<!-- Node21&#45;&gt;Node23 -->
<g id="edge22" class="edge"><title>Node21&#45;&gt;Node23</title>
<path fill="none" stroke="midnightblue" d="M1086.79,-473C1111.15,-473 1137.79,-473 1161.77,-473"/>
<polygon fill="midnightblue" stroke="midnightblue" points="1161.88,-476.5 1171.88,-473 1161.88,-469.5 1161.88,-476.5"/>
</g>
<!-- Node24 -->
<g id="node24" class="node"><title>Node24</title>
<g id="a_node24"><a xlink:href="../../d0/d7f/classengine_1_1game_object_1_1_game_object.html#aaeb5730a3b51fe9cb3d817ea7172cfc2" target="_top" xlink:title="engine.gameObject.GameObject.get\lHeight">
<polygon fill="white" stroke="black" points="1142,-409 1142,-439 1334,-439 1334,-409 1142,-409"/>
<text text-anchor="start" x="1150" y="-427" font-family="Helvetica,sans-Serif" font-size="10.00">engine.gameObject.GameObject.get</text>
<text text-anchor="middle" x="1238" y="-416" font-family="Helvetica,sans-Serif" font-size="10.00">Height</text>
</a>
</g>
</g>
<!-- Node21&#45;&gt;Node24 -->
<g id="edge23" class="edge"><title>Node21&#45;&gt;Node24</title>
<path fill="none" stroke="midnightblue" d="M1076.88,-457.965C1102.04,-452.627 1130.55,-446.58 1156.46,-441.083"/>
<polygon fill="midnightblue" stroke="midnightblue" points="1157.2,-444.505 1166.26,-439.006 1155.75,-437.657 1157.2,-444.505"/>
</g>
<!-- Node25 -->
<g id="node25" class="node"><title>Node25</title>
<g id="a_node25"><a xlink:href="../../d0/d7f/classengine_1_1game_object_1_1_game_object.html#a31aa2c854220621b49fc5575b50b9342" target="_top" xlink:title="engine.gameObject.GameObject.get\lWidth">
<polygon fill="white" stroke="black" points="1142,-360 1142,-390 1334,-390 1334,-360 1142,-360"/>
<text text-anchor="start" x="1150" y="-378" font-family="Helvetica,sans-Serif" font-size="10.00">engine.gameObject.GameObject.get</text>
<text text-anchor="middle" x="1238" y="-367" font-family="Helvetica,sans-Serif" font-size="10.00">Width</text>
</a>
</g>
</g>
<!-- Node21&#45;&gt;Node25 -->
<g id="edge24" class="edge"><title>Node21&#45;&gt;Node25</title>
<path fill="none" stroke="midnightblue" d="M1086.74,-458.16C1093.53,-455.342 1100.06,-451.989 1106,-448 1128.44,-432.941 1119.58,-414.087 1142,-399 1144.3,-397.451 1146.7,-396.002 1149.16,-394.646"/>
<polygon fill="midnightblue" stroke="midnightblue" points="1150.93,-397.679 1158.36,-390.135 1147.84,-391.394 1150.93,-397.679"/>
</g>
<!-- Node30 -->
<g id="node30" class="node"><title>Node30</title>
<g id="a_node30"><a xlink:href="../../d4/d3b/classauthoring_1_1model_1_1collections_1_1_general_collection.html#a79482ff667a22bb0d5b702c03261fe8d" target="_top" xlink:title="authoring.model.collections.\lGeneralCollection.iterator">
<polygon fill="white" stroke="black" points="929,-0 929,-30 1081,-30 1081,-0 929,-0"/>
<text text-anchor="start" x="937" y="-18" font-family="Helvetica,sans-Serif" font-size="10.00">authoring.model.collections.</text>
<text text-anchor="middle" x="1005" y="-7" font-family="Helvetica,sans-Serif" font-size="10.00">GeneralCollection.iterator</text>
</a>
</g>
</g>
<!-- Node29&#45;&gt;Node30 -->
<g id="edge29" class="edge"><title>Node29&#45;&gt;Node30</title>
<path fill="none" stroke="midnightblue" d="M783.643,-106.92C810.674,-88.7075 858.871,-58.2522 904,-40 910.242,-37.4755 916.809,-35.153 923.471,-33.0277"/>
<polygon fill="midnightblue" stroke="midnightblue" points="924.72,-36.3066 933.273,-30.0544 922.688,-29.608 924.72,-36.3066"/>
</g>
<!-- Node31&#45;&gt;Node12 -->
<g id="edge48" class="edge"><title>Node31&#45;&gt;Node12</title>
<path fill="none" stroke="midnightblue" d="M772.591,-317.379C794.066,-349.317 842.829,-425.794 868,-497 897.518,-580.505 843.387,-628.421 904,-693 905.221,-694.301 906.498,-695.538 907.826,-696.715"/>
<polygon fill="midnightblue" stroke="midnightblue" points="905.841,-699.602 915.937,-702.815 910.049,-694.007 905.841,-699.602"/>
</g>
<!-- Node31&#45;&gt;Node21 -->
<g id="edge34" class="edge"><title>Node31&#45;&gt;Node21</title>
<path fill="none" stroke="midnightblue" d="M772.166,-317.061C793.129,-346.901 844.237,-413.613 904,-448 907.901,-450.244 912,-452.289 916.222,-454.152"/>
<polygon fill="midnightblue" stroke="midnightblue" points="915.045,-457.451 925.628,-457.945 917.663,-450.959 915.045,-457.451"/>
</g>
<!-- Node31&#45;&gt;Node27 -->
<g id="edge33" class="edge"><title>Node31&#45;&gt;Node27</title>
<path fill="none" stroke="midnightblue" d="M779.581,-317.105C805.249,-338.405 855.25,-377.105 904,-399 909.438,-401.442 915.154,-403.673 920.984,-405.704"/>
<polygon fill="midnightblue" stroke="midnightblue" points="920.28,-409.157 930.873,-408.939 922.456,-402.503 920.28,-409.157"/>
</g>
<!-- Node31&#45;&gt;Node28 -->
<g id="edge49" class="edge"><title>Node31&#45;&gt;Node28</title>
<path fill="none" stroke="midnightblue" d="M803.658,-317.074C831.808,-327.014 869.916,-339.997 904,-350 912.638,-352.535 921.742,-355.039 930.797,-357.427"/>
<polygon fill="midnightblue" stroke="midnightblue" points="930.018,-360.841 940.577,-359.968 931.778,-354.066 930.018,-360.841"/>
</g>
<!-- Node32 -->
<g id="node32" class="node"><title>Node32</title>
<g id="a_node32"><a xlink:href="../../d2/d82/classengine_1_1render_1_1_rendered_node.html#ad73c81ad48b40faea3818c9a7bbfdcf0" target="_top" xlink:title="engine.render.RenderedNode.set\lCollisionBody">
<polygon fill="white" stroke="black" points="918,-262 918,-292 1092,-292 1092,-262 918,-262"/>
<text text-anchor="start" x="926" y="-280" font-family="Helvetica,sans-Serif" font-size="10.00">engine.render.RenderedNode.set</text>
<text text-anchor="middle" x="1005" y="-269" font-family="Helvetica,sans-Serif" font-size="10.00">CollisionBody</text>
</a>
</g>
</g>
<!-- Node31&#45;&gt;Node32 -->
<g id="edge35" class="edge"><title>Node31&#45;&gt;Node32</title>
<path fill="none" stroke="midnightblue" d="M867.793,-291.071C880.939,-289.713 894.329,-288.33 907.329,-286.987"/>
<polygon fill="midnightblue" stroke="midnightblue" points="908.071,-290.429 917.658,-285.92 907.351,-283.466 908.071,-290.429"/>
</g>
<!-- Node33 -->
<g id="node33" class="node"><title>Node33</title>
<g id="a_node33"><a xlink:href="../../df/de5/classengine_1_1render_1_1_game_object_renderer.html#a25493ea430dbd3c6094434ba60e98662" target="_top" xlink:title="engine.render.GameObject\lRenderer.createCollisionBody">
<polygon fill="white" stroke="black" points="927.5,-213 927.5,-243 1082.5,-243 1082.5,-213 927.5,-213"/>
<text text-anchor="start" x="935.5" y="-231" font-family="Helvetica,sans-Serif" font-size="10.00">engine.render.GameObject</text>
<text text-anchor="middle" x="1005" y="-220" font-family="Helvetica,sans-Serif" font-size="10.00">Renderer.createCollisionBody</text>
</a>
</g>
</g>
<!-- Node31&#45;&gt;Node33 -->
<g id="edge36" class="edge"><title>Node31&#45;&gt;Node33</title>
<path fill="none" stroke="midnightblue" d="M801.125,-286.999C829.448,-276.442 868.781,-262.397 904,-252 911.465,-249.796 919.287,-247.647 927.129,-245.598"/>
<polygon fill="midnightblue" stroke="midnightblue" points="928.226,-248.93 937.046,-243.059 926.49,-242.149 928.226,-248.93"/>
</g>
<!-- Node37 -->
<g id="node37" class="node"><title>Node37</title>
<g id="a_node37"><a xlink:href="../../d2/d82/classengine_1_1render_1_1_rendered_node.html#a312c663dd1144ff206ecfa1ea8c95a81" target="_top" xlink:title="engine.render.RenderedNode.set\lLabel">
<polygon fill="white" stroke="black" points="918,-164 918,-194 1092,-194 1092,-164 918,-164"/>
<text text-anchor="start" x="926" y="-182" font-family="Helvetica,sans-Serif" font-size="10.00">engine.render.RenderedNode.set</text>
<text text-anchor="middle" x="1005" y="-171" font-family="Helvetica,sans-Serif" font-size="10.00">Label</text>
</a>
</g>
</g>
<!-- Node31&#45;&gt;Node37 -->
<g id="edge40" class="edge"><title>Node31&#45;&gt;Node37</title>
<path fill="none" stroke="midnightblue" d="M779.067,-286.865C804.499,-265.105 854.655,-225.166 904,-203 908.615,-200.927 913.433,-199.019 918.354,-197.264"/>
<polygon fill="midnightblue" stroke="midnightblue" points="919.535,-200.56 927.915,-194.077 917.321,-193.919 919.535,-200.56"/>
</g>
<!-- Node38 -->
<g id="node38" class="node"><title>Node38</title>
<g id="a_node38"><a xlink:href="../../df/de5/classengine_1_1render_1_1_game_object_renderer.html#a1d5f0ad1a571faec3c1a364bccc4c038" target="_top" xlink:title="engine.render.GameObject\lRenderer.createLabel">
<polygon fill="white" stroke="black" points="932,-311 932,-341 1078,-341 1078,-311 932,-311"/>
<text text-anchor="start" x="940" y="-329" font-family="Helvetica,sans-Serif" font-size="10.00">engine.render.GameObject</text>
<text text-anchor="middle" x="1005" y="-318" font-family="Helvetica,sans-Serif" font-size="10.00">Renderer.createLabel</text>
</a>
</g>
</g>
<!-- Node31&#45;&gt;Node38 -->
<g id="edge41" class="edge"><title>Node31&#45;&gt;Node38</title>
<path fill="none" stroke="midnightblue" d="M867.793,-312.492C885.867,-314.284 904.401,-316.122 921.747,-317.843"/>
<polygon fill="midnightblue" stroke="midnightblue" points="921.514,-321.337 931.811,-318.841 922.205,-314.371 921.514,-321.337"/>
</g>
<!-- Node40 -->
<g id="node40" class="node"><title>Node40</title>
<g id="a_node40"><a xlink:href="../../d0/d7f/classengine_1_1game_object_1_1_game_object.html#a606c7293c2bfac0af1fb42143bf527f6" target="_top" xlink:title="engine.gameObject.GameObject.getX">
<polygon fill="white" stroke="black" points="906,-125.5 906,-144.5 1104,-144.5 1104,-125.5 906,-125.5"/>
<text text-anchor="middle" x="1005" y="-132.5" font-family="Helvetica,sans-Serif" font-size="10.00">engine.gameObject.GameObject.getX</text>
</a>
</g>
</g>
<!-- Node31&#45;&gt;Node40 -->
<g id="edge45" class="edge"><title>Node31&#45;&gt;Node40</title>
<path fill="none" stroke="midnightblue" d="M771.634,-286.904C792.004,-256.351 842.649,-187.272 904,-154 908.243,-151.699 912.719,-149.673 917.329,-147.889"/>
<polygon fill="midnightblue" stroke="midnightblue" points="918.647,-151.136 926.951,-144.557 916.357,-144.522 918.647,-151.136"/>
</g>
<!-- Node41 -->
<g id="node41" class="node"><title>Node41</title>
<g id="a_node41"><a xlink:href="../../d0/d7f/classengine_1_1game_object_1_1_game_object.html#a1988806ef560c9384f3844d0666a9450" target="_top" xlink:title="engine.gameObject.GameObject.getY">
<polygon fill="white" stroke="black" points="906.5,-87.5 906.5,-106.5 1103.5,-106.5 1103.5,-87.5 906.5,-87.5"/>
<text text-anchor="middle" x="1005" y="-94.5" font-family="Helvetica,sans-Serif" font-size="10.00">engine.gameObject.GameObject.getY</text>
</a>
</g>
</g>
<!-- Node31&#45;&gt;Node41 -->
<g id="edge46" class="edge"><title>Node31&#45;&gt;Node41</title>
<path fill="none" stroke="midnightblue" d="M771.497,-286.886C797.12,-246.591 868.138,-138.148 904,-116 907.412,-113.893 911.006,-112.009 914.721,-110.327"/>
<polygon fill="midnightblue" stroke="midnightblue" points="916.188,-113.51 924.174,-106.548 913.589,-107.011 916.188,-113.51"/>
</g>
<!-- Node42 -->
<g id="node42" class="node"><title>Node42</title>
<g id="a_node42"><a xlink:href="../../d0/d7f/classengine_1_1game_object_1_1_game_object.html#ae94fe532960bd29f64c2dc19ec0af798" target="_top" xlink:title="engine.gameObject.GameObject.getID">
<polygon fill="white" stroke="black" points="904,-49.5 904,-68.5 1106,-68.5 1106,-49.5 904,-49.5"/>
<text text-anchor="middle" x="1005" y="-56.5" font-family="Helvetica,sans-Serif" font-size="10.00">engine.gameObject.GameObject.getID</text>
</a>
</g>
</g>
<!-- Node31&#45;&gt;Node42 -->
<g id="edge47" class="edge"><title>Node31&#45;&gt;Node42</title>
<path fill="none" stroke="midnightblue" d="M773.106,-286.868C793.067,-259.415 835.914,-199.301 868,-146 885.636,-116.702 876.486,-98.3073 904,-78 906.399,-76.2291 908.917,-74.6091 911.527,-73.1278"/>
<polygon fill="midnightblue" stroke="midnightblue" points="913.288,-76.162 920.717,-68.6082 910.199,-69.8805 913.288,-76.162"/>
</g>
<!-- Node34 -->
<g id="node34" class="node"><title>Node34</title>
<g id="a_node34"><a xlink:href="../../d0/d7f/classengine_1_1game_object_1_1_game_object.html#a60c5b6933aac9969491a3562a963c043" target="_top" xlink:title="engine.gameObject.GameObject.get\lPhysicsBody">
<polygon fill="white" stroke="black" points="1142,-262 1142,-292 1334,-292 1334,-262 1142,-262"/>
<text text-anchor="start" x="1150" y="-280" font-family="Helvetica,sans-Serif" font-size="10.00">engine.gameObject.GameObject.get</text>
<text text-anchor="middle" x="1238" y="-269" font-family="Helvetica,sans-Serif" font-size="10.00">PhysicsBody</text>
</a>
</g>
</g>
<!-- Node33&#45;&gt;Node34 -->
<g id="edge37" class="edge"><title>Node33&#45;&gt;Node34</title>
<path fill="none" stroke="midnightblue" d="M1076.88,-243.035C1102.04,-248.373 1130.55,-254.42 1156.46,-259.917"/>
<polygon fill="midnightblue" stroke="midnightblue" points="1155.75,-263.343 1166.26,-261.994 1157.2,-256.495 1155.75,-263.343"/>
</g>
<!-- Node35 -->
<g id="node35" class="node"><title>Node35</title>
<g id="a_node35"><a xlink:href="../../d9/d9d/classengine_1_1game_object_1_1components_1_1_physics_body.html#aba2ed3bce8ee8e404907c88b144626fc" target="_top" xlink:title="engine.gameObject.components.\lPhysicsBody.getCollisionBodyHeight">
<polygon fill="white" stroke="black" points="1144,-213 1144,-243 1332,-243 1332,-213 1144,-213"/>
<text text-anchor="start" x="1152" y="-231" font-family="Helvetica,sans-Serif" font-size="10.00">engine.gameObject.components.</text>
<text text-anchor="middle" x="1238" y="-220" font-family="Helvetica,sans-Serif" font-size="10.00">PhysicsBody.getCollisionBodyHeight</text>
</a>
</g>
</g>
<!-- Node33&#45;&gt;Node35 -->
<g id="edge38" class="edge"><title>Node33&#45;&gt;Node35</title>
<path fill="none" stroke="midnightblue" d="M1082.6,-228C1098.96,-228 1116.49,-228 1133.67,-228"/>
<polygon fill="midnightblue" stroke="midnightblue" points="1133.73,-231.5 1143.73,-228 1133.73,-224.5 1133.73,-231.5"/>
</g>
<!-- Node36 -->
<g id="node36" class="node"><title>Node36</title>
<g id="a_node36"><a xlink:href="../../d9/d9d/classengine_1_1game_object_1_1components_1_1_physics_body.html#ae64e43632570392c3118b3d00af853fc" target="_top" xlink:title="engine.gameObject.components.\lPhysicsBody.getCollisionBodyWidth">
<polygon fill="white" stroke="black" points="1147,-164 1147,-194 1329,-194 1329,-164 1147,-164"/>
<text text-anchor="start" x="1155" y="-182" font-family="Helvetica,sans-Serif" font-size="10.00">engine.gameObject.components.</text>
<text text-anchor="middle" x="1238" y="-171" font-family="Helvetica,sans-Serif" font-size="10.00">PhysicsBody.getCollisionBodyWidth</text>
</a>
</g>
</g>
<!-- Node33&#45;&gt;Node36 -->
<g id="edge39" class="edge"><title>Node33&#45;&gt;Node36</title>
<path fill="none" stroke="midnightblue" d="M1076.88,-212.965C1102.04,-207.627 1130.55,-201.58 1156.46,-196.083"/>
<polygon fill="midnightblue" stroke="midnightblue" points="1157.2,-199.505 1166.26,-194.006 1155.75,-192.657 1157.2,-199.505"/>
</g>
<!-- Node38&#45;&gt;Node24 -->
<g id="edge43" class="edge"><title>Node38&#45;&gt;Node24</title>
<path fill="none" stroke="midnightblue" d="M1078.23,-336.839C1088.03,-340.131 1097.6,-344.418 1106,-350 1128.51,-364.953 1119.65,-383.803 1142,-399 1144.91,-400.978 1147.97,-402.8 1151.13,-404.477"/>
<polygon fill="midnightblue" stroke="midnightblue" points="1149.75,-407.697 1160.28,-408.834 1152.76,-401.376 1149.75,-407.697"/>
</g>
<!-- Node38&#45;&gt;Node25 -->
<g id="edge44" class="edge"><title>Node38&#45;&gt;Node25</title>
<path fill="none" stroke="midnightblue" d="M1076.88,-341.035C1102.04,-346.373 1130.55,-352.42 1156.46,-357.917"/>
<polygon fill="midnightblue" stroke="midnightblue" points="1155.75,-361.343 1166.26,-359.994 1157.2,-354.495 1155.75,-361.343"/>
</g>
<!-- Node39 -->
<g id="node39" class="node"><title>Node39</title>
<g id="a_node39"><a xlink:href="../../d0/d7f/classengine_1_1game_object_1_1_game_object.html#a5c379828f3bb19a91935f965c48a91a5" target="_top" xlink:title="engine.gameObject.GameObject.get\lLabel">
<polygon fill="white" stroke="black" points="1142,-311 1142,-341 1334,-341 1334,-311 1142,-311"/>
<text text-anchor="start" x="1150" y="-329" font-family="Helvetica,sans-Serif" font-size="10.00">engine.gameObject.GameObject.get</text>
<text text-anchor="middle" x="1238" y="-318" font-family="Helvetica,sans-Serif" font-size="10.00">Label</text>
</a>
</g>
</g>
<!-- Node38&#45;&gt;Node39 -->
<g id="edge42" class="edge"><title>Node38&#45;&gt;Node39</title>
<path fill="none" stroke="midnightblue" d="M1078.14,-326C1095.12,-326 1113.56,-326 1131.66,-326"/>
<polygon fill="midnightblue" stroke="midnightblue" points="1131.67,-329.5 1141.67,-326 1131.67,-322.5 1131.67,-329.5"/>
</g>
<!-- Node43&#45;&gt;Node10 -->
<g id="edge51" class="edge"><title>Node43&#45;&gt;Node10</title>
<path fill="none" stroke="midnightblue" d="M390.51,-672.902C408.678,-671.051 428.004,-669.083 446.224,-667.227"/>
<polygon fill="midnightblue" stroke="midnightblue" points="446.624,-670.705 456.218,-666.209 445.915,-663.741 446.624,-670.705"/>
</g>
</g>
</svg>
