<?xml version="1.0" encoding="UTF-8" standalone="no"?>
<!DOCTYPE svg PUBLIC "-//W3C//DTD SVG 1.1//EN"
 "http://www.w3.org/Graphics/SVG/1.1/DTD/svg11.dtd">
<!-- Generated by graphviz version 2.36.0 (20140111.2315)
 -->
<!-- Title: gamePlayer.model.PlayerModel.extractButtonConditions Pages: 1 -->
<svg width="684pt" height="38pt"
 viewBox="0.00 0.00 684.00 38.00" xmlns="http://www.w3.org/2000/svg" xmlns:xlink="http://www.w3.org/1999/xlink">
<g id="graph0" class="graph" transform="scale(1 1) rotate(0) translate(4 34)">
<title>gamePlayer.model.PlayerModel.extractButtonConditions</title>
<polygon fill="white" stroke="none" points="-4,4 -4,-34 680,-34 680,4 -4,4"/>
<!-- Node1 -->
<g id="node1" class="node"><title>Node1</title>
<polygon fill="#bfbfbf" stroke="black" points="0.5,-0 0.5,-30 203.5,-30 203.5,-0 0.5,-0"/>
<text text-anchor="start" x="8.5" y="-18" font-family="Helvetica,sans-Serif" font-size="10.00">gamePlayer.model.PlayerModel.extract</text>
<text text-anchor="middle" x="102" y="-7" font-family="Helvetica,sans-Serif" font-size="10.00">ButtonConditions</text>
</g>
<!-- Node2 -->
<g id="node2" class="node"><title>Node2</title>
<g id="a_node2"><a xlink:href="../../d2/dc9/classgame_player_1_1model_1_1_player_model.html#a810c0b28ae81f5a27c5df5f83f907088" target="_top" xlink:title="gamePlayer.model.PlayerModel.load\lGameFile">
<polygon fill="white" stroke="black" points="240,-0 240,-30 430,-30 430,-0 240,-0"/>
<text text-anchor="start" x="248" y="-18" font-family="Helvetica,sans-Serif" font-size="10.00">gamePlayer.model.PlayerModel.load</text>
<text text-anchor="middle" x="335" y="-7" font-family="Helvetica,sans-Serif" font-size="10.00">GameFile</text>
</a>
</g>
</g>
<!-- Node1&#45;&gt;Node2 -->
<g id="edge1" class="edge"><title>Node1&#45;&gt;Node2</title>
<path fill="none" stroke="midnightblue" d="M213.844,-15C222.553,-15 231.298,-15 239.879,-15"/>
<polygon fill="midnightblue" stroke="midnightblue" points="213.648,-11.5001 203.648,-15 213.648,-18.5001 213.648,-11.5001"/>
</g>
<!-- Node3 -->
<g id="node3" class="node"><title>Node3</title>
<g id="a_node3"><a xlink:href="../../d9/dff/classgame_player_1_1view_1_1_menu_bar_controller.html#af1f1b493dce9b79a0f464c4f1a6dfd09" target="_top" xlink:title="gamePlayer.view.MenuBarController.load\lGameFile">
<polygon fill="white" stroke="black" points="466,-0 466,-30 676,-30 676,-0 466,-0"/>
<text text-anchor="start" x="474" y="-18" font-family="Helvetica,sans-Serif" font-size="10.00">gamePlayer.view.MenuBarController.load</text>
<text text-anchor="middle" x="571" y="-7" font-family="Helvetica,sans-Serif" font-size="10.00">GameFile</text>
</a>
</g>
</g>
<!-- Node2&#45;&gt;Node3 -->
<g id="edge2" class="edge"><title>Node2&#45;&gt;Node3</title>
<path fill="none" stroke="midnightblue" d="M440.365,-15C448.772,-15 457.267,-15 465.674,-15"/>
<polygon fill="midnightblue" stroke="midnightblue" points="440.165,-11.5001 430.165,-15 440.165,-18.5001 440.165,-11.5001"/>
</g>
</g>
</svg>
