<?xml version="1.0" encoding="UTF-8" standalone="no"?>
<!DOCTYPE svg PUBLIC "-//W3C//DTD SVG 1.1//EN"
 "http://www.w3.org/Graphics/SVG/1.1/DTD/svg11.dtd">
<!-- Generated by graphviz version 2.36.0 (20140111.2315)
 -->
<!-- Title: gamePlayer.model.PlayerModel.initializeView Pages: 1 -->
<svg width="1170pt" height="225pt"
 viewBox="0.00 0.00 1170.00 225.00" xmlns="http://www.w3.org/2000/svg" xmlns:xlink="http://www.w3.org/1999/xlink">
<g id="graph0" class="graph" transform="scale(1 1) rotate(0) translate(4 221)">
<title>gamePlayer.model.PlayerModel.initializeView</title>
<polygon fill="white" stroke="none" points="-4,4 -4,-221 1166,-221 1166,4 -4,4"/>
<!-- Node1 -->
<g id="node1" class="node"><title>Node1</title>
<polygon fill="#bfbfbf" stroke="black" points="0,-143.5 0,-162.5 230,-162.5 230,-143.5 0,-143.5"/>
<text text-anchor="middle" x="115" y="-150.5" font-family="Helvetica,sans-Serif" font-size="10.00">gamePlayer.model.PlayerModel.initializeView</text>
</g>
<!-- Node2 -->
<g id="node2" class="node"><title>Node2</title>
<g id="a_node2"><a xlink:href="../../d7/d3c/classgame_player_1_1view_1_1_player_view.html#ab5225b160ab16323a5485bd1c3f62303" target="_top" xlink:title="gamePlayer.view.PlayerView.initialize">
<polygon fill="white" stroke="black" points="266,-143.5 266,-162.5 456,-162.5 456,-143.5 266,-143.5"/>
<text text-anchor="middle" x="361" y="-150.5" font-family="Helvetica,sans-Serif" font-size="10.00">gamePlayer.view.PlayerView.initialize</text>
</a>
</g>
</g>
<!-- Node1&#45;&gt;Node2 -->
<g id="edge1" class="edge"><title>Node1&#45;&gt;Node2</title>
<path fill="none" stroke="midnightblue" d="M230.142,-153C238.607,-153 247.122,-153 255.525,-153"/>
<polygon fill="midnightblue" stroke="midnightblue" points="255.707,-156.5 265.707,-153 255.707,-149.5 255.707,-156.5"/>
</g>
<!-- Node3 -->
<g id="node3" class="node"><title>Node3</title>
<g id="a_node3"><a xlink:href="../../d9/dff/classgame_player_1_1view_1_1_menu_bar_controller.html#ab4abbcee902ab2c855f544253f38d26d" target="_top" xlink:title="gamePlayer.view.MenuBarController.set\lModel">
<polygon fill="white" stroke="black" points="492.5,-187 492.5,-217 697.5,-217 697.5,-187 492.5,-187"/>
<text text-anchor="start" x="500.5" y="-205" font-family="Helvetica,sans-Serif" font-size="10.00">gamePlayer.view.MenuBarController.set</text>
<text text-anchor="middle" x="595" y="-194" font-family="Helvetica,sans-Serif" font-size="10.00">Model</text>
</a>
</g>
</g>
<!-- Node2&#45;&gt;Node3 -->
<g id="edge2" class="edge"><title>Node2&#45;&gt;Node3</title>
<path fill="none" stroke="midnightblue" d="M407.007,-162.506C436.998,-168.84 477.277,-177.347 512.771,-184.844"/>
<polygon fill="midnightblue" stroke="midnightblue" points="512.135,-188.287 522.642,-186.929 513.581,-181.438 512.135,-188.287"/>
</g>
<!-- Node4 -->
<g id="node4" class="node"><title>Node4</title>
<g id="a_node4"><a xlink:href="../../d9/dff/classgame_player_1_1view_1_1_menu_bar_controller.html#a697f93e09ded58d03b51bf4bf4951c45" target="_top" xlink:title="gamePlayer.view.MenuBarController.set\lKeyboard">
<polygon fill="white" stroke="black" points="492.5,-138 492.5,-168 697.5,-168 697.5,-138 492.5,-138"/>
<text text-anchor="start" x="500.5" y="-156" font-family="Helvetica,sans-Serif" font-size="10.00">gamePlayer.view.MenuBarController.set</text>
<text text-anchor="middle" x="595" y="-145" font-family="Helvetica,sans-Serif" font-size="10.00">Keyboard</text>
</a>
</g>
</g>
<!-- Node2&#45;&gt;Node4 -->
<g id="edge3" class="edge"><title>Node2&#45;&gt;Node4</title>
<path fill="none" stroke="midnightblue" d="M456.029,-153C464.605,-153 473.348,-153 482.06,-153"/>
<polygon fill="midnightblue" stroke="midnightblue" points="482.262,-156.5 492.262,-153 482.262,-149.5 482.262,-156.5"/>
</g>
<!-- Node6 -->
<g id="node6" class="node"><title>Node6</title>
<g id="a_node6"><a xlink:href="../../d7/d3c/classgame_player_1_1view_1_1_player_view.html#a1819e3a1d44b1db95bdf3a4bc6df7ebc" target="_top" xlink:title="gamePlayer.view.PlayerView.initialize\lGUIComponents">
<polygon fill="white" stroke="black" points="500,-62 500,-92 690,-92 690,-62 500,-62"/>
<text text-anchor="start" x="508" y="-80" font-family="Helvetica,sans-Serif" font-size="10.00">gamePlayer.view.PlayerView.initialize</text>
<text text-anchor="middle" x="595" y="-69" font-family="Helvetica,sans-Serif" font-size="10.00">GUIComponents</text>
</a>
</g>
</g>
<!-- Node2&#45;&gt;Node6 -->
<g id="edge5" class="edge"><title>Node2&#45;&gt;Node6</title>
<path fill="none" stroke="midnightblue" d="M391.383,-143.375C428.265,-131.293 492.288,-110.32 538.509,-95.1779"/>
<polygon fill="midnightblue" stroke="midnightblue" points="539.673,-98.4799 548.086,-92.0407 537.494,-91.8278 539.673,-98.4799"/>
</g>
<!-- Node5 -->
<g id="node5" class="node"><title>Node5</title>
<g id="a_node5"><a xlink:href="../../d2/dc9/classgame_player_1_1model_1_1_player_model.html#a41f9fb103afe731f32e642a5eff1e2c4" target="_top" xlink:title="gamePlayer.model.PlayerModel.get\lButtonConditions">
<polygon fill="white" stroke="black" points="745.5,-152 745.5,-182 930.5,-182 930.5,-152 745.5,-152"/>
<text text-anchor="start" x="753.5" y="-170" font-family="Helvetica,sans-Serif" font-size="10.00">gamePlayer.model.PlayerModel.get</text>
<text text-anchor="middle" x="838" y="-159" font-family="Helvetica,sans-Serif" font-size="10.00">ButtonConditions</text>
</a>
</g>
</g>
<!-- Node4&#45;&gt;Node5 -->
<g id="edge4" class="edge"><title>Node4&#45;&gt;Node5</title>
<path fill="none" stroke="midnightblue" d="M697.507,-158.897C709.869,-159.615 722.504,-160.349 734.874,-161.067"/>
<polygon fill="midnightblue" stroke="midnightblue" points="735.005,-164.581 745.191,-161.667 735.411,-157.593 735.005,-164.581"/>
</g>
<!-- Node7 -->
<g id="node7" class="node"><title>Node7</title>
<g id="a_node7"><a xlink:href="../../d9/d10/classengine_1_1conditions_1_1_button_condition_manager.html#acf0bbdb37a1c9d9cdfa827f114a50766" target="_top" xlink:title="engine.conditions.Button\lConditionManager.getInstance">
<polygon fill="white" stroke="black" points="757,-103 757,-133 919,-133 919,-103 757,-103"/>
<text text-anchor="start" x="765" y="-121" font-family="Helvetica,sans-Serif" font-size="10.00">engine.conditions.Button</text>
<text text-anchor="middle" x="838" y="-110" font-family="Helvetica,sans-Serif" font-size="10.00">ConditionManager.getInstance</text>
</a>
</g>
</g>
<!-- Node6&#45;&gt;Node7 -->
<g id="edge6" class="edge"><title>Node6&#45;&gt;Node7</title>
<path fill="none" stroke="midnightblue" d="M684.371,-92.0341C704.69,-95.4908 726.323,-99.1712 746.722,-102.641"/>
<polygon fill="midnightblue" stroke="midnightblue" points="746.179,-106.099 756.625,-104.326 747.354,-99.1986 746.179,-106.099"/>
</g>
<!-- Node9 -->
<g id="node9" class="node"><title>Node9</title>
<g id="a_node9"><a xlink:href="../../d9/d10/classengine_1_1conditions_1_1_button_condition_manager.html#af8a4f0078c3bd2347bb067ea1ca6f789" target="_top" xlink:title="engine.conditions.Button\lConditionManager.beginListening\lToScene">
<polygon fill="white" stroke="black" points="750.5,-43.5 750.5,-84.5 925.5,-84.5 925.5,-43.5 750.5,-43.5"/>
<text text-anchor="start" x="758.5" y="-72.5" font-family="Helvetica,sans-Serif" font-size="10.00">engine.conditions.Button</text>
<text text-anchor="start" x="758.5" y="-61.5" font-family="Helvetica,sans-Serif" font-size="10.00">ConditionManager.beginListening</text>
<text text-anchor="middle" x="838" y="-50.5" font-family="Helvetica,sans-Serif" font-size="10.00">ToScene</text>
</a>
</g>
</g>
<!-- Node6&#45;&gt;Node9 -->
<g id="edge8" class="edge"><title>Node6&#45;&gt;Node9</title>
<path fill="none" stroke="midnightblue" d="M690.212,-71.918C706.612,-71.0334 723.694,-70.112 740.162,-69.2236"/>
<polygon fill="midnightblue" stroke="midnightblue" points="740.528,-72.7091 750.325,-68.6754 740.151,-65.7192 740.528,-72.7091"/>
</g>
<!-- Node12 -->
<g id="node12" class="node"><title>Node12</title>
<g id="a_node12"><a xlink:href="../../db/d19/classgame_player_1_1view_1_1_game_canvas.html#aaf62ddebd656a3ec3174e6845851e2d9" target="_top" xlink:title="gamePlayer.view.GameCanvas.getNode">
<polygon fill="white" stroke="black" points="734.5,-5.5 734.5,-24.5 941.5,-24.5 941.5,-5.5 734.5,-5.5"/>
<text text-anchor="middle" x="838" y="-12.5" font-family="Helvetica,sans-Serif" font-size="10.00">gamePlayer.view.GameCanvas.getNode</text>
</a>
</g>
</g>
<!-- Node6&#45;&gt;Node12 -->
<g id="edge11" class="edge"><title>Node6&#45;&gt;Node12</title>
<path fill="none" stroke="midnightblue" d="M639.44,-61.9982C666.428,-53.0452 701.964,-41.9157 734,-34 745.059,-31.2674 756.874,-28.7344 768.412,-26.4669"/>
<polygon fill="midnightblue" stroke="midnightblue" points="769.291,-29.8622 778.455,-24.5443 767.975,-22.9871 769.291,-29.8622"/>
</g>
<!-- Node8 -->
<g id="node8" class="node"><title>Node8</title>
<g id="a_node8"><a xlink:href="../../d9/d10/classengine_1_1conditions_1_1_button_condition_manager.html#ae9501a9a4b3fbc32cd49920845a49bef" target="_top" xlink:title="engine.conditions.Button\lConditionManager.ButtonCondition\lManager">
<polygon fill="white" stroke="black" points="978.5,-97.5 978.5,-138.5 1161.5,-138.5 1161.5,-97.5 978.5,-97.5"/>
<text text-anchor="start" x="986.5" y="-126.5" font-family="Helvetica,sans-Serif" font-size="10.00">engine.conditions.Button</text>
<text text-anchor="start" x="986.5" y="-115.5" font-family="Helvetica,sans-Serif" font-size="10.00">ConditionManager.ButtonCondition</text>
<text text-anchor="middle" x="1070" y="-104.5" font-family="Helvetica,sans-Serif" font-size="10.00">Manager</text>
</a>
</g>
</g>
<!-- Node7&#45;&gt;Node8 -->
<g id="edge7" class="edge"><title>Node7&#45;&gt;Node8</title>
<path fill="none" stroke="midnightblue" d="M919.12,-118C934.902,-118 951.652,-118 968.018,-118"/>
<polygon fill="midnightblue" stroke="midnightblue" points="968.146,-121.5 978.146,-118 968.146,-114.5 968.146,-121.5"/>
</g>
<!-- Node10 -->
<g id="node10" class="node"><title>Node10</title>
<g id="a_node10"><a xlink:href="../../d9/d10/classengine_1_1conditions_1_1_button_condition_manager.html#a7250e158819df1055783c7c5792df2b8" target="_top" xlink:title="engine.conditions.Button\lConditionManager.keyPressed">
<polygon fill="white" stroke="black" points="989.5,-49 989.5,-79 1150.5,-79 1150.5,-49 989.5,-49"/>
<text text-anchor="start" x="997.5" y="-67" font-family="Helvetica,sans-Serif" font-size="10.00">engine.conditions.Button</text>
<text text-anchor="middle" x="1070" y="-56" font-family="Helvetica,sans-Serif" font-size="10.00">ConditionManager.keyPressed</text>
</a>
</g>
</g>
<!-- Node9&#45;&gt;Node10 -->
<g id="edge9" class="edge"><title>Node9&#45;&gt;Node10</title>
<path fill="none" stroke="midnightblue" d="M925.625,-64C943.083,-64 961.471,-64 979.04,-64"/>
<polygon fill="midnightblue" stroke="midnightblue" points="979.276,-67.5001 989.276,-64 979.276,-60.5001 979.276,-67.5001"/>
</g>
<!-- Node11 -->
<g id="node11" class="node"><title>Node11</title>
<g id="a_node11"><a xlink:href="../../d9/d10/classengine_1_1conditions_1_1_button_condition_manager.html#af721ec94336669669bf9b13aabc8e21c" target="_top" xlink:title="engine.conditions.Button\lConditionManager.keyReleased">
<polygon fill="white" stroke="black" points="987.5,-0 987.5,-30 1152.5,-30 1152.5,-0 987.5,-0"/>
<text text-anchor="start" x="995.5" y="-18" font-family="Helvetica,sans-Serif" font-size="10.00">engine.conditions.Button</text>
<text text-anchor="middle" x="1070" y="-7" font-family="Helvetica,sans-Serif" font-size="10.00">ConditionManager.keyReleased</text>
</a>
</g>
</g>
<!-- Node9&#45;&gt;Node11 -->
<g id="edge10" class="edge"><title>Node9&#45;&gt;Node11</title>
<path fill="none" stroke="midnightblue" d="M925.625,-45.545C946.308,-41.1387 968.297,-36.4541 988.682,-32.1112"/>
<polygon fill="midnightblue" stroke="midnightblue" points="989.496,-35.5164 998.547,-30.0094 988.038,-28.67 989.496,-35.5164"/>
</g>
</g>
</svg>
