<?xml version="1.0" encoding="UTF-8" standalone="no"?>
<!DOCTYPE svg PUBLIC "-//W3C//DTD SVG 1.1//EN"
 "http://www.w3.org/Graphics/SVG/1.1/DTD/svg11.dtd">
<!-- Generated by graphviz version 2.36.0 (20140111.2315)
 -->
<!-- Title: gamePlayer.model.PlayerModel.exitFromGame Pages: 1 -->
<svg width="632pt" height="91pt"
 viewBox="0.00 0.00 632.00 91.00" xmlns="http://www.w3.org/2000/svg" xmlns:xlink="http://www.w3.org/1999/xlink">
<g id="graph0" class="graph" transform="scale(1 1) rotate(0) translate(4 87)">
<title>gamePlayer.model.PlayerModel.exitFromGame</title>
<polygon fill="white" stroke="none" points="-4,4 -4,-87 628,-87 628,4 -4,4"/>
<!-- Node1 -->
<g id="node1" class="node"><title>Node1</title>
<polygon fill="#bfbfbf" stroke="black" points="0.5,-36 0.5,-66 187.5,-66 187.5,-36 0.5,-36"/>
<text text-anchor="start" x="8.5" y="-54" font-family="Helvetica,sans-Serif" font-size="10.00">gamePlayer.model.PlayerModel.exit</text>
<text text-anchor="middle" x="94" y="-43" font-family="Helvetica,sans-Serif" font-size="10.00">FromGame</text>
</g>
<!-- Node2 -->
<g id="node2" class="node"><title>Node2</title>
<g id="a_node2"><a xlink:href="../../d6/d94/classengine_1_1_game_manager.html#a653982a63107934de111e71c46c9c903" target="_top" xlink:title="engine.GameManager.clear">
<polygon fill="white" stroke="black" points="243.5,-63.5 243.5,-82.5 392.5,-82.5 392.5,-63.5 243.5,-63.5"/>
<text text-anchor="middle" x="318" y="-70.5" font-family="Helvetica,sans-Serif" font-size="10.00">engine.GameManager.clear</text>
</a>
</g>
</g>
<!-- Node1&#45;&gt;Node2 -->
<g id="edge1" class="edge"><title>Node1&#45;&gt;Node2</title>
<path fill="none" stroke="midnightblue" d="M187.54,-60.1707C202.62,-61.6651 218.168,-63.2058 233.027,-64.6784"/>
<polygon fill="midnightblue" stroke="midnightblue" points="232.894,-68.1822 243.19,-65.6855 233.584,-61.2164 232.894,-68.1822"/>
</g>
<!-- Node3 -->
<g id="node3" class="node"><title>Node3</title>
<g id="a_node3"><a xlink:href="../../d2/dc9/classgame_player_1_1model_1_1_player_model.html#ac90d7c2ad8fc1ced17ffb9c288665600" target="_top" xlink:title="gamePlayer.model.PlayerModel.exit\lFromGamePlayer">
<polygon fill="white" stroke="black" points="224.5,-14 224.5,-44 411.5,-44 411.5,-14 224.5,-14"/>
<text text-anchor="start" x="232.5" y="-32" font-family="Helvetica,sans-Serif" font-size="10.00">gamePlayer.model.PlayerModel.exit</text>
<text text-anchor="middle" x="318" y="-21" font-family="Helvetica,sans-Serif" font-size="10.00">FromGamePlayer</text>
</a>
</g>
</g>
<!-- Node1&#45;&gt;Node3 -->
<g id="edge2" class="edge"><title>Node1&#45;&gt;Node3</title>
<path fill="none" stroke="midnightblue" d="M187.54,-41.8293C196.357,-40.9556 205.334,-40.066 214.24,-39.1834"/>
<polygon fill="midnightblue" stroke="midnightblue" points="214.646,-42.6604 224.253,-38.1912 213.956,-35.6945 214.646,-42.6604"/>
</g>
<!-- Node4 -->
<g id="node4" class="node"><title>Node4</title>
<g id="a_node4"><a xlink:href="../../d7/d3c/classgame_player_1_1view_1_1_player_view.html#a9d3915901e4a9908d3b634178f9e2f8f" target="_top" xlink:title="gamePlayer.view.PlayerView.close">
<polygon fill="white" stroke="black" points="448,-38.5 448,-57.5 624,-57.5 624,-38.5 448,-38.5"/>
<text text-anchor="middle" x="536" y="-45.5" font-family="Helvetica,sans-Serif" font-size="10.00">gamePlayer.view.PlayerView.close</text>
</a>
</g>
</g>
<!-- Node3&#45;&gt;Node4 -->
<g id="edge3" class="edge"><title>Node3&#45;&gt;Node4</title>
<path fill="none" stroke="midnightblue" d="M411.543,-37.1404C420.185,-37.9005 428.961,-38.6725 437.645,-39.4363"/>
<polygon fill="midnightblue" stroke="midnightblue" points="437.514,-42.9383 447.782,-40.3281 438.128,-35.9652 437.514,-42.9383"/>
</g>
<!-- Node5 -->
<g id="node5" class="node"><title>Node5</title>
<g id="a_node5"><a xlink:href="../../d6/d99/classapplication_1_1_splash_screen.html#a187cc6d68984a50192358e4dd7491b44" target="_top" xlink:title="application.SplashScreen.show">
<polygon fill="white" stroke="black" points="454,-0.5 454,-19.5 618,-19.5 618,-0.5 454,-0.5"/>
<text text-anchor="middle" x="536" y="-7.5" font-family="Helvetica,sans-Serif" font-size="10.00">application.SplashScreen.show</text>
</a>
</g>
</g>
<!-- Node3&#45;&gt;Node5 -->
<g id="edge4" class="edge"><title>Node3&#45;&gt;Node5</title>
<path fill="none" stroke="midnightblue" d="M411.543,-20.8596C422.216,-19.9208 433.095,-18.9639 443.751,-18.0266"/>
<polygon fill="midnightblue" stroke="midnightblue" points="444.23,-21.498 453.885,-17.1351 443.617,-14.5249 444.23,-21.498"/>
</g>
</g>
</svg>
