<?xml version="1.0" encoding="UTF-8" standalone="no"?>
<!DOCTYPE svg PUBLIC "-//W3C//DTD SVG 1.1//EN"
 "http://www.w3.org/Graphics/SVG/1.1/DTD/svg11.dtd">
<!-- Generated by graphviz version 2.36.0 (20140111.2315)
 -->
<!-- Title: engine.gameObject.GameObject.setRenderedNode Pages: 1 -->
<svg width="1490pt" height="356pt"
 viewBox="0.00 0.00 1490.00 356.00" xmlns="http://www.w3.org/2000/svg" xmlns:xlink="http://www.w3.org/1999/xlink">
<g id="graph0" class="graph" transform="scale(1 1) rotate(0) translate(4 352)">
<title>engine.gameObject.GameObject.setRenderedNode</title>
<polygon fill="white" stroke="none" points="-4,4 -4,-352 1486,-352 1486,4 -4,4"/>
<!-- Node1 -->
<g id="node1" class="node"><title>Node1</title>
<polygon fill="#bfbfbf" stroke="black" points="0.5,-171 0.5,-201 191.5,-201 191.5,-171 0.5,-171"/>
<text text-anchor="start" x="8.5" y="-189" font-family="Helvetica,sans-Serif" font-size="10.00">engine.gameObject.GameObject.set</text>
<text text-anchor="middle" x="96" y="-178" font-family="Helvetica,sans-Serif" font-size="10.00">RenderedNode</text>
</g>
<!-- Node2 -->
<g id="node2" class="node"><title>Node2</title>
<g id="a_node2"><a xlink:href="../../df/de5/classengine_1_1render_1_1_game_object_renderer.html#a745cb65a5425a20a1b5063068ef1314a" target="_top" xlink:title="engine.render.GameObject\lRenderer.createAndAssignRenderedNode">
<polygon fill="white" stroke="black" points="228.5,-171 228.5,-201 441.5,-201 441.5,-171 228.5,-171"/>
<text text-anchor="start" x="236.5" y="-189" font-family="Helvetica,sans-Serif" font-size="10.00">engine.render.GameObject</text>
<text text-anchor="middle" x="335" y="-178" font-family="Helvetica,sans-Serif" font-size="10.00">Renderer.createAndAssignRenderedNode</text>
</a>
</g>
</g>
<!-- Node1&#45;&gt;Node2 -->
<g id="edge1" class="edge"><title>Node1&#45;&gt;Node2</title>
<path fill="none" stroke="midnightblue" d="M201.877,-186C210.603,-186 219.429,-186 228.162,-186"/>
<polygon fill="midnightblue" stroke="midnightblue" points="201.69,-182.5 191.69,-186 201.69,-189.5 201.69,-182.5"/>
</g>
<!-- Node3 -->
<g id="node3" class="node"><title>Node3</title>
<g id="a_node3"><a xlink:href="../../dd/d57/classengine_1_1actions_1_1_make_new_object_from_location_action.html#a2ebd225d5e10817ac79f4044867afa98" target="_top" xlink:title="engine.actions.MakeNewObject\lFromLocationAction.execute">
<polygon fill="white" stroke="black" points="484,-318 484,-348 650,-348 650,-318 484,-318"/>
<text text-anchor="start" x="492" y="-336" font-family="Helvetica,sans-Serif" font-size="10.00">engine.actions.MakeNewObject</text>
<text text-anchor="middle" x="567" y="-325" font-family="Helvetica,sans-Serif" font-size="10.00">FromLocationAction.execute</text>
</a>
</g>
</g>
<!-- Node2&#45;&gt;Node3 -->
<g id="edge2" class="edge"><title>Node2&#45;&gt;Node3</title>
<path fill="none" stroke="midnightblue" d="M356.329,-208.661C382.075,-236.031 429.016,-281.665 478,-308 485.134,-311.836 492.919,-315.135 500.811,-317.96"/>
<polygon fill="midnightblue" stroke="midnightblue" points="358.708,-206.08 349.343,-201.126 353.575,-210.839 358.708,-206.08"/>
</g>
<!-- Node4 -->
<g id="node4" class="node"><title>Node4</title>
<g id="a_node4"><a xlink:href="../../db/d61/classengine_1_1actions_1_1_make_new_object_from_object_action.html#a01ffb165d6169f7b0a22733e2b6c61a9" target="_top" xlink:title="engine.actions.MakeNewObject\lFromObjectAction.execute">
<polygon fill="white" stroke="black" points="484,-269 484,-299 650,-299 650,-269 484,-269"/>
<text text-anchor="start" x="492" y="-287" font-family="Helvetica,sans-Serif" font-size="10.00">engine.actions.MakeNewObject</text>
<text text-anchor="middle" x="567" y="-276" font-family="Helvetica,sans-Serif" font-size="10.00">FromObjectAction.execute</text>
</a>
</g>
</g>
<!-- Node2&#45;&gt;Node4 -->
<g id="edge3" class="edge"><title>Node2&#45;&gt;Node4</title>
<path fill="none" stroke="midnightblue" d="M370.495,-206.187C398.709,-222.092 440.007,-244.009 478,-259 487.16,-262.614 497.044,-265.944 506.766,-268.916"/>
<polygon fill="midnightblue" stroke="midnightblue" points="371.875,-202.945 361.452,-201.043 368.413,-209.03 371.875,-202.945"/>
</g>
<!-- Node5 -->
<g id="node5" class="node"><title>Node5</title>
<g id="a_node5"><a xlink:href="../../da/d16/classengine_1_1actions_1_1_make_new_random_object_action.html#a82ccd5604bd05170e416e41b32020f00" target="_top" xlink:title="engine.actions.MakeNewRandom\lObjectAction.makeRandomObject">
<polygon fill="white" stroke="black" points="478,-220 478,-250 656,-250 656,-220 478,-220"/>
<text text-anchor="start" x="486" y="-238" font-family="Helvetica,sans-Serif" font-size="10.00">engine.actions.MakeNewRandom</text>
<text text-anchor="middle" x="567" y="-227" font-family="Helvetica,sans-Serif" font-size="10.00">ObjectAction.makeRandomObject</text>
</a>
</g>
</g>
<!-- Node2&#45;&gt;Node5 -->
<g id="edge4" class="edge"><title>Node2&#45;&gt;Node5</title>
<path fill="none" stroke="midnightblue" d="M416.666,-203.185C442.385,-208.665 470.627,-214.682 495.563,-219.994"/>
<polygon fill="midnightblue" stroke="midnightblue" points="417.08,-199.695 406.571,-201.035 415.622,-206.542 417.08,-199.695"/>
</g>
<!-- Node7 -->
<g id="node7" class="node"><title>Node7</title>
<g id="a_node7"><a xlink:href="../../d5/da2/classengine_1_1actions_1_1render_1_1_change_image_i_d_action.html#a7fe8769783e7338aa33561e0777d9a3e" target="_top" xlink:title="engine.actions.render.Change\lImageIDAction.execute">
<polygon fill="white" stroke="black" points="487,-171 487,-201 647,-201 647,-171 487,-171"/>
<text text-anchor="start" x="495" y="-189" font-family="Helvetica,sans-Serif" font-size="10.00">engine.actions.render.Change</text>
<text text-anchor="middle" x="567" y="-178" font-family="Helvetica,sans-Serif" font-size="10.00">ImageIDAction.execute</text>
</a>
</g>
</g>
<!-- Node2&#45;&gt;Node7 -->
<g id="edge6" class="edge"><title>Node2&#45;&gt;Node7</title>
<path fill="none" stroke="midnightblue" d="M451.594,-186C463.531,-186 475.459,-186 486.865,-186"/>
<polygon fill="midnightblue" stroke="midnightblue" points="451.576,-182.5 441.576,-186 451.576,-189.5 451.576,-182.5"/>
</g>
<!-- Node8 -->
<g id="node8" class="node"><title>Node8</title>
<g id="a_node8"><a xlink:href="../../db/db5/classengine_1_1actions_1_1render_1_1_change_image_type_action.html#a09110a0a08bac229b9e2feddf1d3378c" target="_top" xlink:title="engine.actions.render.Change\lImageTypeAction.execute">
<polygon fill="white" stroke="black" points="487,-122 487,-152 647,-152 647,-122 487,-122"/>
<text text-anchor="start" x="495" y="-140" font-family="Helvetica,sans-Serif" font-size="10.00">engine.actions.render.Change</text>
<text text-anchor="middle" x="567" y="-129" font-family="Helvetica,sans-Serif" font-size="10.00">ImageTypeAction.execute</text>
</a>
</g>
</g>
<!-- Node2&#45;&gt;Node8 -->
<g id="edge7" class="edge"><title>Node2&#45;&gt;Node8</title>
<path fill="none" stroke="midnightblue" d="M416.666,-168.815C442.385,-163.335 470.627,-157.318 495.563,-152.006"/>
<polygon fill="midnightblue" stroke="midnightblue" points="415.622,-165.458 406.571,-170.965 417.08,-172.305 415.622,-165.458"/>
</g>
<!-- Node9 -->
<g id="node9" class="node"><title>Node9</title>
<g id="a_node9"><a xlink:href="../../d3/dbb/classengine_1_1actions_1_1render_1_1_paint_canvas.html#a3f4cb25dfb09aa686debf838e806b010" target="_top" xlink:title="engine.actions.render.Paint\lCanvas.applyRender">
<polygon fill="white" stroke="black" points="494,-73 494,-103 640,-103 640,-73 494,-73"/>
<text text-anchor="start" x="502" y="-91" font-family="Helvetica,sans-Serif" font-size="10.00">engine.actions.render.Paint</text>
<text text-anchor="middle" x="567" y="-80" font-family="Helvetica,sans-Serif" font-size="10.00">Canvas.applyRender</text>
</a>
</g>
</g>
<!-- Node2&#45;&gt;Node9 -->
<g id="edge8" class="edge"><title>Node2&#45;&gt;Node9</title>
<path fill="none" stroke="midnightblue" d="M370.495,-165.813C398.709,-149.908 440.007,-127.991 478,-113 487.16,-109.386 497.044,-106.056 506.766,-103.084"/>
<polygon fill="midnightblue" stroke="midnightblue" points="368.413,-162.97 361.452,-170.957 371.875,-169.055 368.413,-162.97"/>
</g>
<!-- Node10 -->
<g id="node10" class="node"><title>Node10</title>
<g id="a_node10"><a xlink:href="../../df/de5/classengine_1_1render_1_1_game_object_renderer.html#a610545384a337edcd3bffb9f0c6ecf18" target="_top" xlink:title="engine.render.GameObject\lRenderer.renderGameObjects">
<polygon fill="white" stroke="black" points="488,-24 488,-54 646,-54 646,-24 488,-24"/>
<text text-anchor="start" x="496" y="-42" font-family="Helvetica,sans-Serif" font-size="10.00">engine.render.GameObject</text>
<text text-anchor="middle" x="567" y="-31" font-family="Helvetica,sans-Serif" font-size="10.00">Renderer.renderGameObjects</text>
</a>
</g>
</g>
<!-- Node2&#45;&gt;Node10 -->
<g id="edge9" class="edge"><title>Node2&#45;&gt;Node10</title>
<path fill="none" stroke="midnightblue" d="M356.329,-163.339C382.075,-135.969 429.016,-90.3347 478,-64 485.134,-60.1644 492.919,-56.8649 500.811,-54.04"/>
<polygon fill="midnightblue" stroke="midnightblue" points="353.575,-161.161 349.343,-170.874 358.708,-165.92 353.575,-161.161"/>
</g>
<!-- Node6 -->
<g id="node6" class="node"><title>Node6</title>
<g id="a_node6"><a xlink:href="../../da/d16/classengine_1_1actions_1_1_make_new_random_object_action.html#aa831c4b818ed75f812bf8ba0d453c942" target="_top" xlink:title="engine.actions.MakeNewRandom\lObjectAction.execute">
<polygon fill="white" stroke="black" points="696.5,-220 696.5,-250 871.5,-250 871.5,-220 696.5,-220"/>
<text text-anchor="start" x="704.5" y="-238" font-family="Helvetica,sans-Serif" font-size="10.00">engine.actions.MakeNewRandom</text>
<text text-anchor="middle" x="784" y="-227" font-family="Helvetica,sans-Serif" font-size="10.00">ObjectAction.execute</text>
</a>
</g>
</g>
<!-- Node5&#45;&gt;Node6 -->
<g id="edge5" class="edge"><title>Node5&#45;&gt;Node6</title>
<path fill="none" stroke="midnightblue" d="M666.135,-235C676.252,-235 686.48,-235 696.458,-235"/>
<polygon fill="midnightblue" stroke="midnightblue" points="666.069,-231.5 656.069,-235 666.069,-238.5 666.069,-231.5"/>
</g>
<!-- Node11 -->
<g id="node11" class="node"><title>Node11</title>
<g id="a_node11"><a xlink:href="../../df/d67/classengine_1_1level_1_1_level_manager.html#a523599892453015eed0f1b506979af8a" target="_top" xlink:title="engine.level.LevelManager.initialize\lCurrentLevel">
<polygon fill="white" stroke="black" points="692,-24 692,-54 876,-54 876,-24 692,-24"/>
<text text-anchor="start" x="700" y="-42" font-family="Helvetica,sans-Serif" font-size="10.00">engine.level.LevelManager.initialize</text>
<text text-anchor="middle" x="784" y="-31" font-family="Helvetica,sans-Serif" font-size="10.00">CurrentLevel</text>
</a>
</g>
</g>
<!-- Node10&#45;&gt;Node11 -->
<g id="edge10" class="edge"><title>Node10&#45;&gt;Node11</title>
<path fill="none" stroke="midnightblue" d="M656.374,-39C668.027,-39 679.99,-39 691.69,-39"/>
<polygon fill="midnightblue" stroke="midnightblue" points="656.228,-35.5001 646.228,-39 656.228,-42.5001 656.228,-35.5001"/>
</g>
<!-- Node12 -->
<g id="node12" class="node"><title>Node12</title>
<g id="a_node12"><a xlink:href="../../df/d67/classengine_1_1level_1_1_level_manager.html#a1d0f314bbf304bf86067ab87b832d2e0" target="_top" xlink:title="engine.level.LevelManager.find\lAndSetStartLevel">
<polygon fill="white" stroke="black" points="912.5,-49 912.5,-79 1075.5,-79 1075.5,-49 912.5,-49"/>
<text text-anchor="start" x="920.5" y="-67" font-family="Helvetica,sans-Serif" font-size="10.00">engine.level.LevelManager.find</text>
<text text-anchor="middle" x="994" y="-56" font-family="Helvetica,sans-Serif" font-size="10.00">AndSetStartLevel</text>
</a>
</g>
</g>
<!-- Node11&#45;&gt;Node12 -->
<g id="edge11" class="edge"><title>Node11&#45;&gt;Node12</title>
<path fill="none" stroke="midnightblue" d="M886.403,-51.1878C895.089,-52.2318 903.799,-53.2787 912.291,-54.2994"/>
<polygon fill="midnightblue" stroke="midnightblue" points="886.578,-47.6838 876.232,-49.9654 885.743,-54.6338 886.578,-47.6838"/>
</g>
<!-- Node14 -->
<g id="node14" class="node"><title>Node14</title>
<g id="a_node14"><a xlink:href="../../df/d67/classengine_1_1level_1_1_level_manager.html#ad89101547413fe335873b050fd091c79" target="_top" xlink:title="engine.level.LevelManager.set\lCurrentLevel">
<polygon fill="white" stroke="black" points="913.5,-0 913.5,-30 1074.5,-30 1074.5,-0 913.5,-0"/>
<text text-anchor="start" x="921.5" y="-18" font-family="Helvetica,sans-Serif" font-size="10.00">engine.level.LevelManager.set</text>
<text text-anchor="middle" x="994" y="-7" font-family="Helvetica,sans-Serif" font-size="10.00">CurrentLevel</text>
</a>
</g>
</g>
<!-- Node11&#45;&gt;Node14 -->
<g id="edge13" class="edge"><title>Node11&#45;&gt;Node14</title>
<path fill="none" stroke="midnightblue" d="M886.39,-27.3012C895.41,-26.2604 904.456,-25.2166 913.257,-24.2011"/>
<polygon fill="midnightblue" stroke="midnightblue" points="885.765,-23.85 876.232,-28.4733 886.567,-30.8039 885.765,-23.85"/>
</g>
<!-- Node13 -->
<g id="node13" class="node"><title>Node13</title>
<g id="a_node13"><a xlink:href="../../df/d67/classengine_1_1level_1_1_level_manager.html#a0ea71eb9396652850db0d2da44c4ca81" target="_top" xlink:title="engine.level.LevelManager.\lLevelManager">
<polygon fill="white" stroke="black" points="1130,-49 1130,-79 1276,-79 1276,-49 1130,-49"/>
<text text-anchor="start" x="1138" y="-67" font-family="Helvetica,sans-Serif" font-size="10.00">engine.level.LevelManager.</text>
<text text-anchor="middle" x="1203" y="-56" font-family="Helvetica,sans-Serif" font-size="10.00">LevelManager</text>
</a>
</g>
</g>
<!-- Node12&#45;&gt;Node13 -->
<g id="edge12" class="edge"><title>Node12&#45;&gt;Node13</title>
<path fill="none" stroke="midnightblue" d="M1085.74,-64C1100.44,-64 1115.5,-64 1129.69,-64"/>
<polygon fill="midnightblue" stroke="midnightblue" points="1085.62,-60.5001 1075.62,-64 1085.62,-67.5001 1085.62,-60.5001"/>
</g>
<!-- Node15 -->
<g id="node15" class="node"><title>Node15</title>
<g id="a_node15"><a xlink:href="../../df/d67/classengine_1_1level_1_1_level_manager.html#ad3c392cf6260c53428255fb596442692" target="_top" xlink:title="engine.level.LevelManager.change\lToLevel">
<polygon fill="white" stroke="black" points="1112.5,-0 1112.5,-30 1293.5,-30 1293.5,-0 1112.5,-0"/>
<text text-anchor="start" x="1120.5" y="-18" font-family="Helvetica,sans-Serif" font-size="10.00">engine.level.LevelManager.change</text>
<text text-anchor="middle" x="1203" y="-7" font-family="Helvetica,sans-Serif" font-size="10.00">ToLevel</text>
</a>
</g>
</g>
<!-- Node14&#45;&gt;Node15 -->
<g id="edge14" class="edge"><title>Node14&#45;&gt;Node15</title>
<path fill="none" stroke="midnightblue" d="M1084.92,-15C1094,-15 1103.23,-15 1112.31,-15"/>
<polygon fill="midnightblue" stroke="midnightblue" points="1084.74,-11.5001 1074.74,-15 1084.74,-18.5001 1084.74,-11.5001"/>
</g>
<!-- Node16 -->
<g id="node16" class="node"><title>Node16</title>
<g id="a_node16"><a xlink:href="../../d1/d73/classengine_1_1actions_1_1_change_level_action.html#a8190adf308768b0d12f6432d0cf0fbc4" target="_top" xlink:title="engine.actions.ChangeLevel\lAction.execute">
<polygon fill="white" stroke="black" points="1330.5,-0 1330.5,-30 1481.5,-30 1481.5,-0 1330.5,-0"/>
<text text-anchor="start" x="1338.5" y="-18" font-family="Helvetica,sans-Serif" font-size="10.00">engine.actions.ChangeLevel</text>
<text text-anchor="middle" x="1406" y="-7" font-family="Helvetica,sans-Serif" font-size="10.00">Action.execute</text>
</a>
</g>
</g>
<!-- Node15&#45;&gt;Node16 -->
<g id="edge15" class="edge"><title>Node15&#45;&gt;Node16</title>
<path fill="none" stroke="midnightblue" d="M1303.71,-15C1312.65,-15 1321.61,-15 1330.29,-15"/>
<polygon fill="midnightblue" stroke="midnightblue" points="1303.62,-11.5001 1293.62,-15 1303.62,-18.5001 1303.62,-11.5001"/>
</g>
</g>
</svg>
