<?xml version="1.0" encoding="UTF-8" standalone="no"?>
<!DOCTYPE svg PUBLIC "-//W3C//DTD SVG 1.1//EN"
 "http://www.w3.org/Graphics/SVG/1.1/DTD/svg11.dtd">
<!-- Generated by graphviz version 2.36.0 (20140111.2315)
 -->
<!-- Title: engine.gameObject.GameObject.GameObject Pages: 1 -->
<svg width="412pt" height="234pt"
 viewBox="0.00 0.00 412.00 234.00" xmlns="http://www.w3.org/2000/svg" xmlns:xlink="http://www.w3.org/1999/xlink">
<g id="graph0" class="graph" transform="scale(1 1) rotate(0) translate(4 230)">
<title>engine.gameObject.GameObject.GameObject</title>
<polygon fill="white" stroke="none" points="-4,4 -4,-230 408,-230 408,4 -4,4"/>
<!-- Node1 -->
<g id="node1" class="node"><title>Node1</title>
<polygon fill="#bfbfbf" stroke="black" points="0,-98 0,-128 176,-128 176,-98 0,-98"/>
<text text-anchor="start" x="8" y="-116" font-family="Helvetica,sans-Serif" font-size="10.00">engine.gameObject.GameObject.</text>
<text text-anchor="middle" x="88" y="-105" font-family="Helvetica,sans-Serif" font-size="10.00">GameObject</text>
</g>
<!-- Node2 -->
<g id="node2" class="node"><title>Node2</title>
<g id="a_node2"><a xlink:href="../../d0/d7f/classengine_1_1game_object_1_1_game_object.html#aaa9e6a91ab34565c61a227deff620b5b" target="_top" xlink:title="engine.gameObject.GameObject.get\lComponents">
<polygon fill="white" stroke="black" points="212,-196 212,-226 404,-226 404,-196 212,-196"/>
<text text-anchor="start" x="220" y="-214" font-family="Helvetica,sans-Serif" font-size="10.00">engine.gameObject.GameObject.get</text>
<text text-anchor="middle" x="308" y="-203" font-family="Helvetica,sans-Serif" font-size="10.00">Components</text>
</a>
</g>
</g>
<!-- Node1&#45;&gt;Node2 -->
<g id="edge1" class="edge"><title>Node1&#45;&gt;Node2</title>
<path fill="none" stroke="midnightblue" d="M110.25,-128.117C134.034,-144.426 174.206,-170.178 212,-186 217.885,-188.464 224.078,-190.741 230.364,-192.834"/>
<polygon fill="midnightblue" stroke="midnightblue" points="229.697,-196.294 240.287,-195.971 231.808,-189.62 229.697,-196.294"/>
</g>
<!-- Node3 -->
<g id="node3" class="node"><title>Node3</title>
<g id="a_node3"><a xlink:href="../../d0/d7f/classengine_1_1game_object_1_1_game_object.html#ae8b88e1cf489e935426e2e252defbae0" target="_top" xlink:title="engine.gameObject.GameObject.get\lCurrentImageName">
<polygon fill="white" stroke="black" points="212,-147 212,-177 404,-177 404,-147 212,-147"/>
<text text-anchor="start" x="220" y="-165" font-family="Helvetica,sans-Serif" font-size="10.00">engine.gameObject.GameObject.get</text>
<text text-anchor="middle" x="308" y="-154" font-family="Helvetica,sans-Serif" font-size="10.00">CurrentImageName</text>
</a>
</g>
</g>
<!-- Node1&#45;&gt;Node3 -->
<g id="edge2" class="edge"><title>Node1&#45;&gt;Node3</title>
<path fill="none" stroke="midnightblue" d="M155.889,-128.035C179.43,-133.326 206.067,-139.313 230.349,-144.771"/>
<polygon fill="midnightblue" stroke="midnightblue" points="229.714,-148.216 240.238,-146.994 231.249,-141.386 229.714,-148.216"/>
</g>
<!-- Node4 -->
<g id="node4" class="node"><title>Node4</title>
<g id="a_node4"><a xlink:href="../../d0/d7f/classengine_1_1game_object_1_1_game_object.html#aaeb5730a3b51fe9cb3d817ea7172cfc2" target="_top" xlink:title="engine.gameObject.GameObject.get\lHeight">
<polygon fill="white" stroke="black" points="212,-98 212,-128 404,-128 404,-98 212,-98"/>
<text text-anchor="start" x="220" y="-116" font-family="Helvetica,sans-Serif" font-size="10.00">engine.gameObject.GameObject.get</text>
<text text-anchor="middle" x="308" y="-105" font-family="Helvetica,sans-Serif" font-size="10.00">Height</text>
</a>
</g>
</g>
<!-- Node1&#45;&gt;Node4 -->
<g id="edge3" class="edge"><title>Node1&#45;&gt;Node4</title>
<path fill="none" stroke="midnightblue" d="M176.099,-113C184.538,-113 193.16,-113 201.75,-113"/>
<polygon fill="midnightblue" stroke="midnightblue" points="201.808,-116.5 211.808,-113 201.807,-109.5 201.808,-116.5"/>
</g>
<!-- Node5 -->
<g id="node5" class="node"><title>Node5</title>
<g id="a_node5"><a xlink:href="../../d0/d7f/classengine_1_1game_object_1_1_game_object.html#acdb2cff95ddb4ab047d24c7edd046817" target="_top" xlink:title="engine.gameObject.GameObject.get\lRotation">
<polygon fill="white" stroke="black" points="212,-49 212,-79 404,-79 404,-49 212,-49"/>
<text text-anchor="start" x="220" y="-67" font-family="Helvetica,sans-Serif" font-size="10.00">engine.gameObject.GameObject.get</text>
<text text-anchor="middle" x="308" y="-56" font-family="Helvetica,sans-Serif" font-size="10.00">Rotation</text>
</a>
</g>
</g>
<!-- Node1&#45;&gt;Node5 -->
<g id="edge4" class="edge"><title>Node1&#45;&gt;Node5</title>
<path fill="none" stroke="midnightblue" d="M155.889,-97.9654C179.43,-92.6741 206.067,-86.6867 230.349,-81.2288"/>
<polygon fill="midnightblue" stroke="midnightblue" points="231.249,-84.6141 240.238,-79.0062 229.714,-77.7845 231.249,-84.6141"/>
</g>
<!-- Node6 -->
<g id="node6" class="node"><title>Node6</title>
<g id="a_node6"><a xlink:href="../../d0/d7f/classengine_1_1game_object_1_1_game_object.html#a31aa2c854220621b49fc5575b50b9342" target="_top" xlink:title="engine.gameObject.GameObject.get\lWidth">
<polygon fill="white" stroke="black" points="212,-0 212,-30 404,-30 404,-0 212,-0"/>
<text text-anchor="start" x="220" y="-18" font-family="Helvetica,sans-Serif" font-size="10.00">engine.gameObject.GameObject.get</text>
<text text-anchor="middle" x="308" y="-7" font-family="Helvetica,sans-Serif" font-size="10.00">Width</text>
</a>
</g>
</g>
<!-- Node1&#45;&gt;Node6 -->
<g id="edge5" class="edge"><title>Node1&#45;&gt;Node6</title>
<path fill="none" stroke="midnightblue" d="M110.25,-97.8832C134.034,-81.5744 174.206,-55.8223 212,-40 217.885,-37.5364 224.078,-35.2591 230.364,-33.1661"/>
<polygon fill="midnightblue" stroke="midnightblue" points="231.808,-36.3804 240.287,-30.0286 229.697,-29.7061 231.808,-36.3804"/>
</g>
</g>
</svg>
