<?xml version="1.0" encoding="UTF-8" standalone="no"?>
<!DOCTYPE svg PUBLIC "-//W3C//DTD SVG 1.1//EN"
 "http://www.w3.org/Graphics/SVG/1.1/DTD/svg11.dtd">
<!-- Generated by graphviz version 2.36.0 (20140111.2315)
 -->
<!-- Title: engine.gameObject.GameObject.getIdentifier Pages: 1 -->
<svg width="1574pt" height="687pt"
 viewBox="0.00 0.00 1574.00 687.00" xmlns="http://www.w3.org/2000/svg" xmlns:xlink="http://www.w3.org/1999/xlink">
<g id="graph0" class="graph" transform="scale(1 1) rotate(0) translate(4 683)">
<title>engine.gameObject.GameObject.getIdentifier</title>
<polygon fill="white" stroke="none" points="-4,4 -4,-683 1570,-683 1570,4 -4,4"/>
<!-- Node1 -->
<g id="node1" class="node"><title>Node1</title>
<polygon fill="#bfbfbf" stroke="black" points="0,-267 0,-297 192,-297 192,-267 0,-267"/>
<text text-anchor="start" x="8" y="-285" font-family="Helvetica,sans-Serif" font-size="10.00">engine.gameObject.GameObject.get</text>
<text text-anchor="middle" x="96" y="-274" font-family="Helvetica,sans-Serif" font-size="10.00">Identifier</text>
</g>
<!-- Node2 -->
<g id="node2" class="node"><title>Node2</title>
<g id="a_node2"><a xlink:href="../../df/de5/classengine_1_1render_1_1_game_object_renderer.html#a745cb65a5425a20a1b5063068ef1314a" target="_top" xlink:title="engine.render.GameObject\lRenderer.createAndAssignRenderedNode">
<polygon fill="white" stroke="black" points="240.5,-527 240.5,-557 453.5,-557 453.5,-527 240.5,-527"/>
<text text-anchor="start" x="248.5" y="-545" font-family="Helvetica,sans-Serif" font-size="10.00">engine.render.GameObject</text>
<text text-anchor="middle" x="347" y="-534" font-family="Helvetica,sans-Serif" font-size="10.00">Renderer.createAndAssignRenderedNode</text>
</a>
</g>
</g>
<!-- Node1&#45;&gt;Node2 -->
<g id="edge1" class="edge"><title>Node1&#45;&gt;Node2</title>
<path fill="none" stroke="midnightblue" d="M107.799,-306.417C126.905,-347.293 170.171,-430.179 228,-482 250.079,-501.785 279.87,-516.866 303.993,-526.96"/>
<polygon fill="midnightblue" stroke="midnightblue" points="110.923,-304.833 103.571,-297.204 104.561,-307.753 110.923,-304.833"/>
</g>
<!-- Node8 -->
<g id="node8" class="node"><title>Node8</title>
<g id="a_node8"><a xlink:href="../../df/de5/classengine_1_1render_1_1_game_object_renderer.html#a610545384a337edcd3bffb9f0c6ecf18" target="_top" xlink:title="engine.render.GameObject\lRenderer.renderGameObjects">
<polygon fill="white" stroke="black" points="542,-453 542,-483 700,-483 700,-453 542,-453"/>
<text text-anchor="start" x="550" y="-471" font-family="Helvetica,sans-Serif" font-size="10.00">engine.render.GameObject</text>
<text text-anchor="middle" x="621" y="-460" font-family="Helvetica,sans-Serif" font-size="10.00">Renderer.renderGameObjects</text>
</a>
</g>
</g>
<!-- Node1&#45;&gt;Node8 -->
<g id="edge32" class="edge"><title>Node1&#45;&gt;Node8</title>
<path fill="none" stroke="midnightblue" d="M107.811,-306.492C126.214,-344.812 167.6,-417.783 228,-449 326.814,-500.071 459.01,-493.733 541.83,-482.436"/>
<polygon fill="midnightblue" stroke="midnightblue" points="110.831,-304.686 103.431,-297.104 104.487,-307.646 110.831,-304.686"/>
</g>
<!-- Node15 -->
<g id="node15" class="node"><title>Node15</title>
<g id="a_node15"><a xlink:href="../../d7/d00/classengine_1_1tests_1_1_main_engine_tests.html#ad06079aee97fd7ffd4f2b14a8f01b808" target="_top" xlink:title="engine.tests.MainEngineTests.create\lGameObject">
<polygon fill="white" stroke="black" points="525.5,-360 525.5,-390 716.5,-390 716.5,-360 525.5,-360"/>
<text text-anchor="start" x="533.5" y="-378" font-family="Helvetica,sans-Serif" font-size="10.00">engine.tests.MainEngineTests.create</text>
<text text-anchor="middle" x="621" y="-367" font-family="Helvetica,sans-Serif" font-size="10.00">GameObject</text>
</a>
</g>
</g>
<!-- Node1&#45;&gt;Node15 -->
<g id="edge14" class="edge"><title>Node1&#45;&gt;Node15</title>
<path fill="none" stroke="midnightblue" d="M119.896,-304.181C144.37,-326.22 185.433,-358.608 228,-372 325.868,-402.79 444.405,-398.358 525.331,-389.509"/>
<polygon fill="midnightblue" stroke="midnightblue" points="121.982,-301.344 112.255,-297.146 117.241,-306.494 121.982,-301.344"/>
</g>
<!-- Node17 -->
<g id="node17" class="node"><title>Node17</title>
<g id="a_node17"><a xlink:href="../../dc/d21/classgames_1_1_mario_game_test.html#aab9eed35cd4d8ae1d108ae914b6a73ff" target="_top" xlink:title="games.MarioGameTest.create\lGameObject">
<polygon fill="white" stroke="black" points="540.5,-300 540.5,-330 701.5,-330 701.5,-300 540.5,-300"/>
<text text-anchor="start" x="548.5" y="-318" font-family="Helvetica,sans-Serif" font-size="10.00">games.MarioGameTest.create</text>
<text text-anchor="middle" x="621" y="-307" font-family="Helvetica,sans-Serif" font-size="10.00">GameObject</text>
</a>
</g>
</g>
<!-- Node1&#45;&gt;Node17 -->
<g id="edge16" class="edge"><title>Node1&#45;&gt;Node17</title>
<path fill="none" stroke="midnightblue" d="M202.123,-288.633C301.924,-294.93 449.754,-304.258 540.212,-309.966"/>
<polygon fill="midnightblue" stroke="midnightblue" points="202.215,-285.132 192.015,-287.995 201.774,-292.118 202.215,-285.132"/>
</g>
<!-- Node19 -->
<g id="node19" class="node"><title>Node19</title>
<g id="a_node19"><a xlink:href="../../da/d8d/classauthoring_1_1view_1_1propertiesview_1_1_game_object_properties.html#a6f1aeaddb6956053690488c8ddaa38ba" target="_top" xlink:title="authoring.view.propertiesview.\lGameObjectProperties.edit">
<polygon fill="white" stroke="black" points="267.5,-245 267.5,-275 426.5,-275 426.5,-245 267.5,-245"/>
<text text-anchor="start" x="275.5" y="-263" font-family="Helvetica,sans-Serif" font-size="10.00">authoring.view.propertiesview.</text>
<text text-anchor="middle" x="347" y="-252" font-family="Helvetica,sans-Serif" font-size="10.00">GameObjectProperties.edit</text>
</a>
</g>
</g>
<!-- Node1&#45;&gt;Node19 -->
<g id="edge18" class="edge"><title>Node1&#45;&gt;Node19</title>
<path fill="none" stroke="midnightblue" d="M202.181,-272.707C224.045,-270.775 246.724,-268.771 267.432,-266.942"/>
<polygon fill="midnightblue" stroke="midnightblue" points="201.855,-269.222 192.202,-273.589 202.471,-276.195 201.855,-269.222"/>
</g>
<!-- Node23 -->
<g id="node23" class="node"><title>Node23</title>
<g id="a_node23"><a xlink:href="../../db/d42/classauthoring_1_1view_1_1wizards_1_1_game_object_type_wizard.html#adec8e9760a289bb75386c966f7e3c46f" target="_top" xlink:title="authoring.view.wizards.Game\lObjectTypeWizard.getIdentifierComponent">
<polygon fill="white" stroke="black" points="239,-196 239,-226 455,-226 455,-196 239,-196"/>
<text text-anchor="start" x="247" y="-214" font-family="Helvetica,sans-Serif" font-size="10.00">authoring.view.wizards.Game</text>
<text text-anchor="middle" x="347" y="-203" font-family="Helvetica,sans-Serif" font-size="10.00">ObjectTypeWizard.getIdentifierComponent</text>
</a>
</g>
</g>
<!-- Node1&#45;&gt;Node23 -->
<g id="edge22" class="edge"><title>Node1&#45;&gt;Node23</title>
<path fill="none" stroke="midnightblue" d="M143.871,-263.332C168.615,-253.951 199.65,-242.924 228,-235 239.678,-231.736 252.121,-228.719 264.383,-226.005"/>
<polygon fill="midnightblue" stroke="midnightblue" points="142.458,-260.125 134.371,-266.97 144.961,-266.662 142.458,-260.125"/>
</g>
<!-- Node24 -->
<g id="node24" class="node"><title>Node24</title>
<g id="a_node24"><a xlink:href="../../d8/df6/classauthoring_1_1view_1_1wizards_1_1_game_object_unique_i_d_wizard.html#aac9e106bc9b5421d89a406ce46ade1b5" target="_top" xlink:title="authoring.view.wizards.Game\lObjectUniqueIDWizard.getIdentifier\lComponent">
<polygon fill="white" stroke="black" points="256,-136.5 256,-177.5 438,-177.5 438,-136.5 256,-136.5"/>
<text text-anchor="start" x="264" y="-165.5" font-family="Helvetica,sans-Serif" font-size="10.00">authoring.view.wizards.Game</text>
<text text-anchor="start" x="264" y="-154.5" font-family="Helvetica,sans-Serif" font-size="10.00">ObjectUniqueIDWizard.getIdentifier</text>
<text text-anchor="middle" x="347" y="-143.5" font-family="Helvetica,sans-Serif" font-size="10.00">Component</text>
</a>
</g>
</g>
<!-- Node1&#45;&gt;Node24 -->
<g id="edge23" class="edge"><title>Node1&#45;&gt;Node24</title>
<path fill="none" stroke="midnightblue" d="M120.496,-260.295C145.39,-238.434 186.732,-205.262 228,-186 236.793,-181.896 246.236,-178.33 255.812,-175.242"/>
<polygon fill="midnightblue" stroke="midnightblue" points="118.15,-257.697 113.012,-266.963 122.807,-262.924 118.15,-257.697"/>
</g>
<!-- Node25 -->
<g id="node25" class="node"><title>Node25</title>
<g id="a_node25"><a xlink:href="../../d1/d32/classauthoring_1_1model_1_1collections_1_1_game_objects_collection.html#a018eb6b1b97cc2753fe1f3e5748644b9" target="_top" xlink:title="authoring.model.collections.\lGameObjectsCollection.getIdentifierList">
<polygon fill="white" stroke="black" points="244.5,-333 244.5,-363 449.5,-363 449.5,-333 244.5,-333"/>
<text text-anchor="start" x="252.5" y="-351" font-family="Helvetica,sans-Serif" font-size="10.00">authoring.model.collections.</text>
<text text-anchor="middle" x="347" y="-340" font-family="Helvetica,sans-Serif" font-size="10.00">GameObjectsCollection.getIdentifierList</text>
</a>
</g>
</g>
<!-- Node1&#45;&gt;Node25 -->
<g id="edge24" class="edge"><title>Node1&#45;&gt;Node25</title>
<path fill="none" stroke="midnightblue" d="M160.438,-299.698C181.871,-305.606 205.952,-312.168 228,-318 246.8,-322.973 267.328,-328.246 285.913,-332.961"/>
<polygon fill="midnightblue" stroke="midnightblue" points="161.365,-296.322 150.794,-297.034 159.501,-303.07 161.365,-296.322"/>
</g>
<!-- Node26 -->
<g id="node26" class="node"><title>Node26</title>
<g id="a_node26"><a xlink:href="../../d0/df2/classauthoring_1_1eventhandlers_1_1_game_object_drag_to_level_handler.html#ad5002cd6b7781653104f1820a573f902" target="_top" xlink:title="authoring.eventhandlers.\lGameObjectDragToLevelHandler.handle">
<polygon fill="white" stroke="black" points="518,-71 518,-101 724,-101 724,-71 518,-71"/>
<text text-anchor="start" x="526" y="-89" font-family="Helvetica,sans-Serif" font-size="10.00">authoring.eventhandlers.</text>
<text text-anchor="middle" x="621" y="-78" font-family="Helvetica,sans-Serif" font-size="10.00">GameObjectDragToLevelHandler.handle</text>
</a>
</g>
</g>
<!-- Node1&#45;&gt;Node26 -->
<g id="edge27" class="edge"><title>Node1&#45;&gt;Node26</title>
<path fill="none" stroke="midnightblue" d="M109.634,-257.554C129.493,-221.948 171.637,-156.822 228,-127 276.613,-101.278 418.739,-91.6934 517.77,-88.1216"/>
<polygon fill="midnightblue" stroke="midnightblue" points="106.331,-256.303 104.63,-266.761 112.481,-259.646 106.331,-256.303"/>
</g>
<!-- Node27 -->
<g id="node27" class="node"><title>Node27</title>
<g id="a_node27"><a xlink:href="../../df/d84/classengine_1_1level_1_1_level.html#ace23cd4ed278a5bb85e964ff3c8818b5" target="_top" xlink:title="engine.level.Level.initialize">
<polygon fill="white" stroke="black" points="275.5,-420.5 275.5,-439.5 418.5,-439.5 418.5,-420.5 275.5,-420.5"/>
<text text-anchor="middle" x="347" y="-427.5" font-family="Helvetica,sans-Serif" font-size="10.00">engine.level.Level.initialize</text>
</a>
</g>
</g>
<!-- Node1&#45;&gt;Node27 -->
<g id="edge28" class="edge"><title>Node1&#45;&gt;Node27</title>
<path fill="none" stroke="midnightblue" d="M114.545,-305.174C137.407,-333.62 180.154,-381.133 228,-406 242.562,-413.568 259.288,-418.751 275.483,-422.301"/>
<polygon fill="midnightblue" stroke="midnightblue" points="117.044,-302.691 108.104,-297.005 111.547,-307.025 117.044,-302.691"/>
</g>
<!-- Node28 -->
<g id="node28" class="node"><title>Node28</title>
<g id="a_node28"><a xlink:href="../../da/d8d/classauthoring_1_1view_1_1propertiesview_1_1_game_object_properties.html#a296e97b9faeabc086f698730de09a5c9" target="_top" xlink:title="authoring.view.propertiesview.\lGameObjectProperties.initializeProperties">
<polygon fill="white" stroke="black" points="239.5,-0 239.5,-30 454.5,-30 454.5,-0 239.5,-0"/>
<text text-anchor="start" x="247.5" y="-18" font-family="Helvetica,sans-Serif" font-size="10.00">authoring.view.propertiesview.</text>
<text text-anchor="middle" x="347" y="-7" font-family="Helvetica,sans-Serif" font-size="10.00">GameObjectProperties.initializeProperties</text>
</a>
</g>
</g>
<!-- Node1&#45;&gt;Node28 -->
<g id="edge30" class="edge"><title>Node1&#45;&gt;Node28</title>
<path fill="none" stroke="midnightblue" d="M102.95,-256.809C116.161,-206.742 152.886,-94.7521 228,-39 232.616,-35.5736 237.603,-32.6064 242.826,-30.0392"/>
<polygon fill="midnightblue" stroke="midnightblue" points="99.4861,-256.23 100.416,-266.784 106.271,-257.953 99.4861,-256.23"/>
</g>
<!-- Node30 -->
<g id="node30" class="node"><title>Node30</title>
<g id="a_node30"><a xlink:href="../../d0/df2/classauthoring_1_1eventhandlers_1_1_game_object_drag_to_level_handler.html#a98ccf77195ecfc7146cd1737da68b6b2" target="_top" xlink:title="authoring.eventhandlers.\lGameObjectDragToLevelHandler.updateName">
<polygon fill="white" stroke="black" points="228.5,-49 228.5,-79 465.5,-79 465.5,-49 228.5,-49"/>
<text text-anchor="start" x="236.5" y="-67" font-family="Helvetica,sans-Serif" font-size="10.00">authoring.eventhandlers.</text>
<text text-anchor="middle" x="347" y="-56" font-family="Helvetica,sans-Serif" font-size="10.00">GameObjectDragToLevelHandler.updateName</text>
</a>
</g>
</g>
<!-- Node1&#45;&gt;Node30 -->
<g id="edge33" class="edge"><title>Node1&#45;&gt;Node30</title>
<path fill="none" stroke="midnightblue" d="M107.183,-257.41C125.273,-216.865 166.943,-136.274 228,-94 236.863,-87.8634 246.878,-82.9811 257.234,-79.0971"/>
<polygon fill="midnightblue" stroke="midnightblue" points="103.875,-256.242 103.095,-266.808 110.294,-259.034 103.875,-256.242"/>
</g>
<!-- Node3 -->
<g id="node3" class="node"><title>Node3</title>
<g id="a_node3"><a xlink:href="../../dd/d57/classengine_1_1actions_1_1_make_new_object_from_location_action.html#a2ebd225d5e10817ac79f4044867afa98" target="_top" xlink:title="engine.actions.MakeNewObject\lFromLocationAction.execute">
<polygon fill="white" stroke="black" points="538,-649 538,-679 704,-679 704,-649 538,-649"/>
<text text-anchor="start" x="546" y="-667" font-family="Helvetica,sans-Serif" font-size="10.00">engine.actions.MakeNewObject</text>
<text text-anchor="middle" x="621" y="-656" font-family="Helvetica,sans-Serif" font-size="10.00">FromLocationAction.execute</text>
</a>
</g>
</g>
<!-- Node2&#45;&gt;Node3 -->
<g id="edge2" class="edge"><title>Node2&#45;&gt;Node3</title>
<path fill="none" stroke="midnightblue" d="M375.354,-563.47C404.941,-585.64 454.298,-619.646 502,-639 513.352,-643.606 525.677,-647.412 537.939,-650.544"/>
<polygon fill="midnightblue" stroke="midnightblue" points="377.273,-560.533 367.191,-557.276 373.042,-566.109 377.273,-560.533"/>
</g>
<!-- Node4 -->
<g id="node4" class="node"><title>Node4</title>
<g id="a_node4"><a xlink:href="../../db/d61/classengine_1_1actions_1_1_make_new_object_from_object_action.html#a01ffb165d6169f7b0a22733e2b6c61a9" target="_top" xlink:title="engine.actions.MakeNewObject\lFromObjectAction.execute">
<polygon fill="white" stroke="black" points="538,-600 538,-630 704,-630 704,-600 538,-600"/>
<text text-anchor="start" x="546" y="-618" font-family="Helvetica,sans-Serif" font-size="10.00">engine.actions.MakeNewObject</text>
<text text-anchor="middle" x="621" y="-607" font-family="Helvetica,sans-Serif" font-size="10.00">FromObjectAction.execute</text>
</a>
</g>
</g>
<!-- Node2&#45;&gt;Node4 -->
<g id="edge3" class="edge"><title>Node2&#45;&gt;Node4</title>
<path fill="none" stroke="midnightblue" d="M402.141,-560.233C431.499,-569.776 468.527,-581.258 502,-590 515.474,-593.519 529.91,-596.897 543.899,-599.969"/>
<polygon fill="midnightblue" stroke="midnightblue" points="403.087,-556.861 392.495,-557.078 400.911,-563.514 403.087,-556.861"/>
</g>
<!-- Node5 -->
<g id="node5" class="node"><title>Node5</title>
<g id="a_node5"><a xlink:href="../../da/d16/classengine_1_1actions_1_1_make_new_random_object_action.html#a82ccd5604bd05170e416e41b32020f00" target="_top" xlink:title="engine.actions.MakeNewRandom\lObjectAction.makeRandomObject">
<polygon fill="white" stroke="black" points="532,-551 532,-581 710,-581 710,-551 532,-551"/>
<text text-anchor="start" x="540" y="-569" font-family="Helvetica,sans-Serif" font-size="10.00">engine.actions.MakeNewRandom</text>
<text text-anchor="middle" x="621" y="-558" font-family="Helvetica,sans-Serif" font-size="10.00">ObjectAction.makeRandomObject</text>
</a>
</g>
</g>
<!-- Node2&#45;&gt;Node5 -->
<g id="edge4" class="edge"><title>Node2&#45;&gt;Node5</title>
<path fill="none" stroke="midnightblue" d="M463.611,-552.201C486.404,-554.212 509.979,-556.292 531.696,-558.208"/>
<polygon fill="midnightblue" stroke="midnightblue" points="463.821,-548.706 453.552,-551.313 463.205,-555.679 463.821,-548.706"/>
</g>
<!-- Node7 -->
<g id="node7" class="node"><title>Node7</title>
<g id="a_node7"><a xlink:href="../../d3/dbb/classengine_1_1actions_1_1render_1_1_paint_canvas.html#a3f4cb25dfb09aa686debf838e806b010" target="_top" xlink:title="engine.actions.render.Paint\lCanvas.applyRender">
<polygon fill="white" stroke="black" points="548,-502 548,-532 694,-532 694,-502 548,-502"/>
<text text-anchor="start" x="556" y="-520" font-family="Helvetica,sans-Serif" font-size="10.00">engine.actions.render.Paint</text>
<text text-anchor="middle" x="621" y="-509" font-family="Helvetica,sans-Serif" font-size="10.00">Canvas.applyRender</text>
</a>
</g>
</g>
<!-- Node2&#45;&gt;Node7 -->
<g id="edge6" class="edge"><title>Node2&#45;&gt;Node7</title>
<path fill="none" stroke="midnightblue" d="M463.589,-531.376C492.137,-528.752 521.911,-526.015 547.728,-523.643"/>
<polygon fill="midnightblue" stroke="midnightblue" points="463.189,-527.898 453.552,-532.299 463.83,-534.869 463.189,-527.898"/>
</g>
<!-- Node2&#45;&gt;Node8 -->
<g id="edge7" class="edge"><title>Node2&#45;&gt;Node8</title>
<path fill="none" stroke="midnightblue" d="M401.154,-523.652C430.653,-513.833 468.125,-501.954 502,-493 515.362,-489.468 529.677,-486.096 543.566,-483.035"/>
<polygon fill="midnightblue" stroke="midnightblue" points="399.842,-520.4 391.472,-526.896 402.066,-527.037 399.842,-520.4"/>
</g>
<!-- Node6 -->
<g id="node6" class="node"><title>Node6</title>
<g id="a_node6"><a xlink:href="../../da/d16/classengine_1_1actions_1_1_make_new_random_object_action.html#aa831c4b818ed75f812bf8ba0d453c942" target="_top" xlink:title="engine.actions.MakeNewRandom\lObjectAction.execute">
<polygon fill="white" stroke="black" points="780.5,-551 780.5,-581 955.5,-581 955.5,-551 780.5,-551"/>
<text text-anchor="start" x="788.5" y="-569" font-family="Helvetica,sans-Serif" font-size="10.00">engine.actions.MakeNewRandom</text>
<text text-anchor="middle" x="868" y="-558" font-family="Helvetica,sans-Serif" font-size="10.00">ObjectAction.execute</text>
</a>
</g>
</g>
<!-- Node5&#45;&gt;Node6 -->
<g id="edge5" class="edge"><title>Node5&#45;&gt;Node6</title>
<path fill="none" stroke="midnightblue" d="M720.137,-566C740.104,-566 760.97,-566 780.498,-566"/>
<polygon fill="midnightblue" stroke="midnightblue" points="720.105,-562.5 710.104,-566 720.104,-569.5 720.105,-562.5"/>
</g>
<!-- Node9 -->
<g id="node9" class="node"><title>Node9</title>
<g id="a_node9"><a xlink:href="../../df/d67/classengine_1_1level_1_1_level_manager.html#a523599892453015eed0f1b506979af8a" target="_top" xlink:title="engine.level.LevelManager.initialize\lCurrentLevel">
<polygon fill="white" stroke="black" points="776,-431 776,-461 960,-461 960,-431 776,-431"/>
<text text-anchor="start" x="784" y="-449" font-family="Helvetica,sans-Serif" font-size="10.00">engine.level.LevelManager.initialize</text>
<text text-anchor="middle" x="868" y="-438" font-family="Helvetica,sans-Serif" font-size="10.00">CurrentLevel</text>
</a>
</g>
</g>
<!-- Node8&#45;&gt;Node9 -->
<g id="edge8" class="edge"><title>Node8&#45;&gt;Node9</title>
<path fill="none" stroke="midnightblue" d="M710.209,-460.079C731.554,-458.162 754.41,-456.11 775.885,-454.182"/>
<polygon fill="midnightblue" stroke="midnightblue" points="709.84,-456.598 700.193,-460.979 710.466,-463.57 709.84,-456.598"/>
</g>
<!-- Node10 -->
<g id="node10" class="node"><title>Node10</title>
<g id="a_node10"><a xlink:href="../../df/d67/classengine_1_1level_1_1_level_manager.html#a1d0f314bbf304bf86067ab87b832d2e0" target="_top" xlink:title="engine.level.LevelManager.find\lAndSetStartLevel">
<polygon fill="white" stroke="black" points="996.5,-456 996.5,-486 1159.5,-486 1159.5,-456 996.5,-456"/>
<text text-anchor="start" x="1004.5" y="-474" font-family="Helvetica,sans-Serif" font-size="10.00">engine.level.LevelManager.find</text>
<text text-anchor="middle" x="1078" y="-463" font-family="Helvetica,sans-Serif" font-size="10.00">AndSetStartLevel</text>
</a>
</g>
</g>
<!-- Node9&#45;&gt;Node10 -->
<g id="edge9" class="edge"><title>Node9&#45;&gt;Node10</title>
<path fill="none" stroke="midnightblue" d="M970.403,-458.188C979.089,-459.232 987.799,-460.279 996.291,-461.299"/>
<polygon fill="midnightblue" stroke="midnightblue" points="970.578,-454.684 960.232,-456.965 969.743,-461.634 970.578,-454.684"/>
</g>
<!-- Node12 -->
<g id="node12" class="node"><title>Node12</title>
<g id="a_node12"><a xlink:href="../../df/d67/classengine_1_1level_1_1_level_manager.html#ad89101547413fe335873b050fd091c79" target="_top" xlink:title="engine.level.LevelManager.set\lCurrentLevel">
<polygon fill="white" stroke="black" points="997.5,-407 997.5,-437 1158.5,-437 1158.5,-407 997.5,-407"/>
<text text-anchor="start" x="1005.5" y="-425" font-family="Helvetica,sans-Serif" font-size="10.00">engine.level.LevelManager.set</text>
<text text-anchor="middle" x="1078" y="-414" font-family="Helvetica,sans-Serif" font-size="10.00">CurrentLevel</text>
</a>
</g>
</g>
<!-- Node9&#45;&gt;Node12 -->
<g id="edge11" class="edge"><title>Node9&#45;&gt;Node12</title>
<path fill="none" stroke="midnightblue" d="M970.39,-434.301C979.41,-433.26 988.456,-432.217 997.257,-431.201"/>
<polygon fill="midnightblue" stroke="midnightblue" points="969.765,-430.85 960.232,-435.473 970.567,-437.804 969.765,-430.85"/>
</g>
<!-- Node11 -->
<g id="node11" class="node"><title>Node11</title>
<g id="a_node11"><a xlink:href="../../df/d67/classengine_1_1level_1_1_level_manager.html#a0ea71eb9396652850db0d2da44c4ca81" target="_top" xlink:title="engine.level.LevelManager.\lLevelManager">
<polygon fill="white" stroke="black" points="1214,-456 1214,-486 1360,-486 1360,-456 1214,-456"/>
<text text-anchor="start" x="1222" y="-474" font-family="Helvetica,sans-Serif" font-size="10.00">engine.level.LevelManager.</text>
<text text-anchor="middle" x="1287" y="-463" font-family="Helvetica,sans-Serif" font-size="10.00">LevelManager</text>
</a>
</g>
</g>
<!-- Node10&#45;&gt;Node11 -->
<g id="edge10" class="edge"><title>Node10&#45;&gt;Node11</title>
<path fill="none" stroke="midnightblue" d="M1169.74,-471C1184.44,-471 1199.5,-471 1213.69,-471"/>
<polygon fill="midnightblue" stroke="midnightblue" points="1169.62,-467.5 1159.62,-471 1169.62,-474.5 1169.62,-467.5"/>
</g>
<!-- Node13 -->
<g id="node13" class="node"><title>Node13</title>
<g id="a_node13"><a xlink:href="../../df/d67/classengine_1_1level_1_1_level_manager.html#ad3c392cf6260c53428255fb596442692" target="_top" xlink:title="engine.level.LevelManager.change\lToLevel">
<polygon fill="white" stroke="black" points="1196.5,-407 1196.5,-437 1377.5,-437 1377.5,-407 1196.5,-407"/>
<text text-anchor="start" x="1204.5" y="-425" font-family="Helvetica,sans-Serif" font-size="10.00">engine.level.LevelManager.change</text>
<text text-anchor="middle" x="1287" y="-414" font-family="Helvetica,sans-Serif" font-size="10.00">ToLevel</text>
</a>
</g>
</g>
<!-- Node12&#45;&gt;Node13 -->
<g id="edge12" class="edge"><title>Node12&#45;&gt;Node13</title>
<path fill="none" stroke="midnightblue" d="M1168.92,-422C1178,-422 1187.23,-422 1196.31,-422"/>
<polygon fill="midnightblue" stroke="midnightblue" points="1168.74,-418.5 1158.74,-422 1168.74,-425.5 1168.74,-418.5"/>
</g>
<!-- Node14 -->
<g id="node14" class="node"><title>Node14</title>
<g id="a_node14"><a xlink:href="../../d1/d73/classengine_1_1actions_1_1_change_level_action.html#a8190adf308768b0d12f6432d0cf0fbc4" target="_top" xlink:title="engine.actions.ChangeLevel\lAction.execute">
<polygon fill="white" stroke="black" points="1414.5,-407 1414.5,-437 1565.5,-437 1565.5,-407 1414.5,-407"/>
<text text-anchor="start" x="1422.5" y="-425" font-family="Helvetica,sans-Serif" font-size="10.00">engine.actions.ChangeLevel</text>
<text text-anchor="middle" x="1490" y="-414" font-family="Helvetica,sans-Serif" font-size="10.00">Action.execute</text>
</a>
</g>
</g>
<!-- Node13&#45;&gt;Node14 -->
<g id="edge13" class="edge"><title>Node13&#45;&gt;Node14</title>
<path fill="none" stroke="midnightblue" d="M1387.71,-422C1396.65,-422 1405.61,-422 1414.29,-422"/>
<polygon fill="midnightblue" stroke="midnightblue" points="1387.62,-418.5 1377.62,-422 1387.62,-425.5 1387.62,-418.5"/>
</g>
<!-- Node16 -->
<g id="node16" class="node"><title>Node16</title>
<g id="a_node16"><a xlink:href="../../d7/d00/classengine_1_1tests_1_1_main_engine_tests.html#ad1e78dcd3453ebdeb09141cba734c133" target="_top" xlink:title="engine.tests.MainEngineTests.start">
<polygon fill="white" stroke="black" points="776.5,-365.5 776.5,-384.5 959.5,-384.5 959.5,-365.5 776.5,-365.5"/>
<text text-anchor="middle" x="868" y="-372.5" font-family="Helvetica,sans-Serif" font-size="10.00">engine.tests.MainEngineTests.start</text>
</a>
</g>
</g>
<!-- Node15&#45;&gt;Node16 -->
<g id="edge15" class="edge"><title>Node15&#45;&gt;Node16</title>
<path fill="none" stroke="midnightblue" d="M726.868,-375C743.268,-375 760.098,-375 776.15,-375"/>
<polygon fill="midnightblue" stroke="midnightblue" points="726.723,-371.5 716.723,-375 726.723,-378.5 726.723,-371.5"/>
</g>
<!-- Node18 -->
<g id="node18" class="node"><title>Node18</title>
<g id="a_node18"><a xlink:href="../../dc/d21/classgames_1_1_mario_game_test.html#a8b7c287ffdfcacefeb373e7430a608c8" target="_top" xlink:title="games.MarioGameTest.start">
<polygon fill="white" stroke="black" points="792,-305.5 792,-324.5 944,-324.5 944,-305.5 792,-305.5"/>
<text text-anchor="middle" x="868" y="-312.5" font-family="Helvetica,sans-Serif" font-size="10.00">games.MarioGameTest.start</text>
</a>
</g>
</g>
<!-- Node17&#45;&gt;Node18 -->
<g id="edge17" class="edge"><title>Node17&#45;&gt;Node18</title>
<path fill="none" stroke="midnightblue" d="M711.851,-315C738.048,-315 766.394,-315 791.601,-315"/>
<polygon fill="midnightblue" stroke="midnightblue" points="711.545,-311.5 701.544,-315 711.544,-318.5 711.545,-311.5"/>
</g>
<!-- Node20 -->
<g id="node20" class="node"><title>Node20</title>
<g id="a_node20"><a xlink:href="../../d4/d9e/classauthoring_1_1view_1_1propertiesview_1_1_properties_view.html#aeed3bf20185eabcf870ee4c649bc1d4e" target="_top" xlink:title="authoring.view.propertiesview.\lPropertiesView.getEditedGameObject">
<polygon fill="white" stroke="black" points="523.5,-245 523.5,-275 718.5,-275 718.5,-245 523.5,-245"/>
<text text-anchor="start" x="531.5" y="-263" font-family="Helvetica,sans-Serif" font-size="10.00">authoring.view.propertiesview.</text>
<text text-anchor="middle" x="621" y="-252" font-family="Helvetica,sans-Serif" font-size="10.00">PropertiesView.getEditedGameObject</text>
</a>
</g>
</g>
<!-- Node19&#45;&gt;Node20 -->
<g id="edge19" class="edge"><title>Node19&#45;&gt;Node20</title>
<path fill="none" stroke="midnightblue" d="M436.713,-260C464.356,-260 494.975,-260 523.145,-260"/>
<polygon fill="midnightblue" stroke="midnightblue" points="436.674,-256.5 426.674,-260 436.674,-263.5 436.674,-256.5"/>
</g>
<!-- Node21 -->
<g id="node21" class="node"><title>Node21</title>
<g id="a_node21"><a xlink:href="../../d6/df5/classauthoring_1_1eventhandlers_1_1_edit_game_object_handler.html#ac0a03e6b751068903df50296d9f1fbd7" target="_top" xlink:title="authoring.eventhandlers.\lEditGameObjectHandler.handle">
<polygon fill="white" stroke="black" points="784.5,-251 784.5,-281 951.5,-281 951.5,-251 784.5,-251"/>
<text text-anchor="start" x="792.5" y="-269" font-family="Helvetica,sans-Serif" font-size="10.00">authoring.eventhandlers.</text>
<text text-anchor="middle" x="868" y="-258" font-family="Helvetica,sans-Serif" font-size="10.00">EditGameObjectHandler.handle</text>
</a>
</g>
</g>
<!-- Node20&#45;&gt;Node21 -->
<g id="edge20" class="edge"><title>Node20&#45;&gt;Node21</title>
<path fill="none" stroke="midnightblue" d="M729.059,-262.622C747.577,-263.075 766.575,-263.541 784.321,-263.975"/>
<polygon fill="midnightblue" stroke="midnightblue" points="728.913,-259.117 718.83,-262.371 728.742,-266.115 728.913,-259.117"/>
</g>
<!-- Node22 -->
<g id="node22" class="node"><title>Node22</title>
<g id="a_node22"><a xlink:href="../../df/d81/classauthoring_1_1eventhandlers_1_1_save_as_new_handler.html#a912458649a9a99cded7c346f9d8b40f5" target="_top" xlink:title="authoring.eventhandlers.\lSaveAsNewHandler.handle">
<polygon fill="white" stroke="black" points="795.5,-202 795.5,-232 940.5,-232 940.5,-202 795.5,-202"/>
<text text-anchor="start" x="803.5" y="-220" font-family="Helvetica,sans-Serif" font-size="10.00">authoring.eventhandlers.</text>
<text text-anchor="middle" x="868" y="-209" font-family="Helvetica,sans-Serif" font-size="10.00">SaveAsNewHandler.handle</text>
</a>
</g>
</g>
<!-- Node20&#45;&gt;Node22 -->
<g id="edge21" class="edge"><title>Node20&#45;&gt;Node22</title>
<path fill="none" stroke="midnightblue" d="M717.841,-243.179C743.581,-238.661 770.972,-233.854 795.163,-229.608"/>
<polygon fill="midnightblue" stroke="midnightblue" points="716.933,-239.785 707.689,-244.961 718.144,-246.679 716.933,-239.785"/>
</g>
<!-- Node25&#45;&gt;Node15 -->
<g id="edge25" class="edge"><title>Node25&#45;&gt;Node15</title>
<path fill="none" stroke="midnightblue" d="M459.901,-359.108C481.59,-361.261 504.123,-363.498 525.199,-365.59"/>
<polygon fill="midnightblue" stroke="midnightblue" points="459.966,-355.597 449.67,-358.092 459.275,-362.563 459.966,-355.597"/>
</g>
<!-- Node25&#45;&gt;Node17 -->
<g id="edge26" class="edge"><title>Node25&#45;&gt;Node17</title>
<path fill="none" stroke="midnightblue" d="M459.905,-334.423C486.801,-331.16 514.996,-327.739 540.099,-324.694"/>
<polygon fill="midnightblue" stroke="midnightblue" points="459.175,-330.986 449.67,-335.665 460.018,-337.935 459.175,-330.986"/>
</g>
<!-- Node27&#45;&gt;Node9 -->
<g id="edge29" class="edge"><title>Node27&#45;&gt;Node9</title>
<path fill="none" stroke="midnightblue" d="M428.552,-432.483C522.466,-435.379 677.328,-440.153 775.643,-443.184"/>
<polygon fill="midnightblue" stroke="midnightblue" points="428.638,-428.984 418.535,-432.174 428.422,-435.981 428.638,-428.984"/>
</g>
<!-- Node29 -->
<g id="node29" class="node"><title>Node29</title>
<g id="a_node29"><a xlink:href="../../da/d8d/classauthoring_1_1view_1_1propertiesview_1_1_game_object_properties.html#a666800a7063c728f47a848ab730362d3" target="_top" xlink:title="authoring.view.propertiesview.\lGameObjectProperties.GameObjectProperties">
<polygon fill="white" stroke="black" points="502.5,-0 502.5,-30 739.5,-30 739.5,-0 502.5,-0"/>
<text text-anchor="start" x="510.5" y="-18" font-family="Helvetica,sans-Serif" font-size="10.00">authoring.view.propertiesview.</text>
<text text-anchor="middle" x="621" y="-7" font-family="Helvetica,sans-Serif" font-size="10.00">GameObjectProperties.GameObjectProperties</text>
</a>
</g>
</g>
<!-- Node28&#45;&gt;Node29 -->
<g id="edge31" class="edge"><title>Node28&#45;&gt;Node29</title>
<path fill="none" stroke="midnightblue" d="M465.045,-15C477.406,-15 489.98,-15 502.348,-15"/>
<polygon fill="midnightblue" stroke="midnightblue" points="464.721,-11.5001 454.721,-15 464.721,-18.5001 464.721,-11.5001"/>
</g>
<!-- Node30&#45;&gt;Node26 -->
<g id="edge34" class="edge"><title>Node30&#45;&gt;Node26</title>
<path fill="none" stroke="midnightblue" d="M475.938,-74.3479C490.01,-75.4861 504.196,-76.6335 517.893,-77.7414"/>
<polygon fill="midnightblue" stroke="midnightblue" points="475.971,-70.8392 465.721,-73.5216 475.406,-77.8165 475.971,-70.8392"/>
</g>
</g>
</svg>
