<?xml version="1.0" encoding="UTF-8" standalone="no"?>
<!DOCTYPE svg PUBLIC "-//W3C//DTD SVG 1.1//EN"
 "http://www.w3.org/Graphics/SVG/1.1/DTD/svg11.dtd">
<!-- Generated by graphviz version 2.36.0 (20140111.2315)
 -->
<!-- Title: engine.gameObject.GameObject.setTranslateY Pages: 1 -->
<!--zoomable 747 -->
<svg id="main" version="1.1" xmlns="http://www.w3.org/2000/svg" xmlns:xlink="http://www.w3.org/1999/xlink" xml:space="preserve" onload="init(evt)">
<style type="text/css"><![CDATA[
.edge:hover path { stroke: red; }
.edge:hover polygon { stroke: red; fill: red; }
]]></style>
<script type="text/javascript"><![CDATA[
var edges = document.getElementsByTagName('g');
if (edges && edges.length) {
  for (var i=0;i<edges.length;i++) {
    if (edges[i].id.substr(0,4)=='edge') {
      edges[i].setAttribute('class','edge');
    }
  }
}
]]></script>
        <defs>
                <circle id="rim" cx="0" cy="0" r="7"/>
                <circle id="rim2" cx="0" cy="0" r="3.5"/>
                <g id="zoomPlus">
                        <use xlink:href="#rim" fill="#404040">
                                <set attributeName="fill" to="#808080" begin="zoomplus.mouseover" end="zoomplus.mouseout"/>
                        </use>
                        <path d="M-4,0h8M0,-4v8" fill="none" stroke="white" stroke-width="1.5" pointer-events="none"/>
                </g>
                <g id="zoomMin">
                        <use xlink:href="#rim" fill="#404040">
                                <set attributeName="fill" to="#808080" begin="zoomminus.mouseover" end="zoomminus.mouseout"/>
                        </use>
                        <path d="M-4,0h8" fill="none" stroke="white" stroke-width="1.5" pointer-events="none"/>
                </g>
                <g id="dirArrow">
                        <path fill="none" stroke="white" stroke-width="1.5" d="M0,-3.0v7 M-2.5,-0.5L0,-3.0L2.5,-0.5"/>
                </g>
               <g id="resetDef">
                       <use xlink:href="#rim2" fill="#404040">
                               <set attributeName="fill" to="#808080" begin="reset.mouseover" end="reset.mouseout"/>
                       </use>
               </g>
        </defs>

<script type="text/javascript">
var viewWidth = 944;
var viewHeight = 747;
var sectionId = 'dynsection-32';
</script>
<script xlink:href="../../svgpan.js"/>
<svg id="graph" class="graph">
<g id="viewport">
<title>engine.gameObject.GameObject.setTranslateY</title>
<polygon fill="white" stroke="none" points="-4,4 -4,-743 940,-743 940,4 -4,4"/>
<!-- Node1 -->
<g id="node1" class="node"><title>Node1</title>
<polygon fill="#bfbfbf" stroke="black" points="0.5,-258 0.5,-288 191.5,-288 191.5,-258 0.5,-258"/>
<text text-anchor="start" x="8.5" y="-276" font-family="Helvetica,sans-Serif" font-size="10.00">engine.gameObject.GameObject.set</text>
<text text-anchor="middle" x="96" y="-265" font-family="Helvetica,sans-Serif" font-size="10.00">TranslateY</text>
</g>
<!-- Node2 -->
<g id="node2" class="node"><title>Node2</title>
<g id="a_node2"><a xlink:href="../../da/d1b/classengine_1_1collision_1_1objects_1_1_collision_composition.html#a7ec4687ad9367279088b965c0e009cd0" target="_top" xlink:title="engine.collision.objects.\lCollisionComposition.fixedCollision">
<polygon fill="white" stroke="black" points="501,-426 501,-456 681,-456 681,-426 501,-426"/>
<text text-anchor="start" x="509" y="-444" font-family="Helvetica,sans-Serif" font-size="10.00">engine.collision.objects.</text>
<text text-anchor="middle" x="591" y="-433" font-family="Helvetica,sans-Serif" font-size="10.00">CollisionComposition.fixedCollision</text>
</a>
</g>
</g>
<!-- Node1&#45;&gt;Node2 -->
<g id="edge1" class="edge"><title>Node1&#45;&gt;Node2</title>
<path fill="none" stroke="midnightblue" d="M145.589,-291.707C170.198,-301.046 200.595,-312.375 228,-322 339.884,-361.297 472.566,-403.905 542.066,-425.922"/>
<polygon fill="midnightblue" stroke="midnightblue" points="146.707,-288.388 136.116,-288.102 144.217,-294.93 146.707,-288.388"/>
</g>
<!-- Node12 -->
<g id="node12" class="node"><title>Node12</title>
<g id="a_node12"><a xlink:href="../../d9/d9d/classengine_1_1game_object_1_1components_1_1_physics_body.html#a6df6a3a8e4dde3aea1de4127f93935aa" target="_top" xlink:title="engine.gameObject.components.\lPhysicsBody.handleCollision">
<polygon fill="white" stroke="black" points="251,-283 251,-313 427,-313 427,-283 251,-283"/>
<text text-anchor="start" x="259" y="-301" font-family="Helvetica,sans-Serif" font-size="10.00">engine.gameObject.components.</text>
<text text-anchor="middle" x="339" y="-290" font-family="Helvetica,sans-Serif" font-size="10.00">PhysicsBody.handleCollision</text>
</a>
</g>
</g>
<!-- Node1&#45;&gt;Node12 -->
<g id="edge11" class="edge"><title>Node1&#45;&gt;Node12</title>
<path fill="none" stroke="midnightblue" d="M201.695,-283.86C218.075,-285.56 234.852,-287.3 250.786,-288.953"/>
<polygon fill="midnightblue" stroke="midnightblue" points="201.866,-280.359 191.558,-282.809 201.143,-287.322 201.866,-280.359"/>
</g>
<!-- Node13 -->
<g id="node13" class="node"><title>Node13</title>
<g id="a_node13"><a xlink:href="../../da/d1b/classengine_1_1collision_1_1objects_1_1_collision_composition.html#a16ad6d1ec6082599cf72870f5cd3dd03" target="_top" xlink:title="engine.collision.objects.\lCollisionComposition.isOnXAxis">
<polygon fill="white" stroke="black" points="256.5,-234 256.5,-264 421.5,-264 421.5,-234 256.5,-234"/>
<text text-anchor="start" x="264.5" y="-252" font-family="Helvetica,sans-Serif" font-size="10.00">engine.collision.objects.</text>
<text text-anchor="middle" x="339" y="-241" font-family="Helvetica,sans-Serif" font-size="10.00">CollisionComposition.isOnXAxis</text>
</a>
</g>
</g>
<!-- Node1&#45;&gt;Node13 -->
<g id="edge12" class="edge"><title>Node1&#45;&gt;Node13</title>
<path fill="none" stroke="midnightblue" d="M201.644,-262.579C219.912,-260.76 238.674,-258.891 256.211,-257.145"/>
<polygon fill="midnightblue" stroke="midnightblue" points="201.162,-259.11 191.558,-263.583 201.856,-266.075 201.162,-259.11"/>
</g>
<!-- Node20 -->
<g id="node20" class="node"><title>Node20</title>
<g id="a_node20"><a xlink:href="../../d9/d9d/classengine_1_1game_object_1_1components_1_1_physics_body.html#a322c2d4e1205c1fc9bafabe04f394cb6" target="_top" xlink:title="engine.gameObject.components.\lPhysicsBody.updatePhysicalCharacteristics">
<polygon fill="white" stroke="black" points="228.5,-163 228.5,-193 449.5,-193 449.5,-163 228.5,-163"/>
<text text-anchor="start" x="236.5" y="-181" font-family="Helvetica,sans-Serif" font-size="10.00">engine.gameObject.components.</text>
<text text-anchor="middle" x="339" y="-170" font-family="Helvetica,sans-Serif" font-size="10.00">PhysicsBody.updatePhysicalCharacteristics</text>
</a>
</g>
</g>
<!-- Node1&#45;&gt;Node20 -->
<g id="edge20" class="edge"><title>Node1&#45;&gt;Node20</title>
<path fill="none" stroke="midnightblue" d="M144.522,-254.267C189.923,-236.371 257.498,-209.733 299.593,-193.14"/>
<polygon fill="midnightblue" stroke="midnightblue" points="143.207,-251.023 135.187,-257.947 145.774,-257.536 143.207,-251.023"/>
</g>
<!-- Node3 -->
<g id="node3" class="node"><title>Node3</title>
<g id="a_node3"><a xlink:href="../../db/dbb/classengine_1_1actions_1_1_fixed_collision_type_action.html#a4335f03e3a33ba714562e4e187cf0ae2" target="_top" xlink:title="engine.actions.FixedCollision\lTypeAction.applyPhysics">
<polygon fill="white" stroke="black" points="758,-709 758,-739 910,-739 910,-709 758,-709"/>
<text text-anchor="start" x="766" y="-727" font-family="Helvetica,sans-Serif" font-size="10.00">engine.actions.FixedCollision</text>
<text text-anchor="middle" x="834" y="-716" font-family="Helvetica,sans-Serif" font-size="10.00">TypeAction.applyPhysics</text>
</a>
</g>
</g>
<!-- Node2&#45;&gt;Node3 -->
<g id="edge2" class="edge"><title>Node2&#45;&gt;Node3</title>
<path fill="none" stroke="midnightblue" d="M598.138,-465.695C612.322,-517.427 652.414,-637.47 732,-699 739.646,-704.911 748.507,-709.443 757.741,-712.915"/>
<polygon fill="midnightblue" stroke="midnightblue" points="601.518,-464.785 595.571,-456.017 594.752,-466.58 601.518,-464.785"/>
</g>
<!-- Node4 -->
<g id="node4" class="node"><title>Node4</title>
<g id="a_node4"><a xlink:href="../../d7/de2/classengine_1_1actions_1_1_fixed_collision_action.html#a9d8b1ea6e0e71b027fcaa18f52ba3908" target="_top" xlink:title="engine.actions.FixedCollision\lAction.applyPhysics">
<polygon fill="white" stroke="black" points="758,-660 758,-690 910,-690 910,-660 758,-660"/>
<text text-anchor="start" x="766" y="-678" font-family="Helvetica,sans-Serif" font-size="10.00">engine.actions.FixedCollision</text>
<text text-anchor="middle" x="834" y="-667" font-family="Helvetica,sans-Serif" font-size="10.00">Action.applyPhysics</text>
</a>
</g>
</g>
<!-- Node2&#45;&gt;Node4 -->
<g id="edge3" class="edge"><title>Node2&#45;&gt;Node4</title>
<path fill="none" stroke="midnightblue" d="M601.385,-465.559C619.55,-509.677 663.831,-602.191 732,-650 739.838,-655.497 748.76,-659.79 757.981,-663.141"/>
<polygon fill="midnightblue" stroke="midnightblue" points="604.591,-464.15 597.616,-456.174 598.095,-466.758 604.591,-464.15"/>
</g>
<!-- Node5 -->
<g id="node5" class="node"><title>Node5</title>
<g id="a_node5"><a xlink:href="../../d4/daa/classengine_1_1collision_1_1objects_1_1_fixed_object_collision_object.html#a21a31d8fafaaa37c7ca7d92ed0b015f1" target="_top" xlink:title="engine.collision.objects.\lFixedObjectCollisionObject.handle\lEnemyCollisionObject">
<polygon fill="white" stroke="black" points="746,-600.5 746,-641.5 922,-641.5 922,-600.5 746,-600.5"/>
<text text-anchor="start" x="754" y="-629.5" font-family="Helvetica,sans-Serif" font-size="10.00">engine.collision.objects.</text>
<text text-anchor="start" x="754" y="-618.5" font-family="Helvetica,sans-Serif" font-size="10.00">FixedObjectCollisionObject.handle</text>
<text text-anchor="middle" x="834" y="-607.5" font-family="Helvetica,sans-Serif" font-size="10.00">EnemyCollisionObject</text>
</a>
</g>
</g>
<!-- Node2&#45;&gt;Node5 -->
<g id="edge4" class="edge"><title>Node2&#45;&gt;Node5</title>
<path fill="none" stroke="midnightblue" d="M608.04,-464.629C631.51,-497.445 678.301,-556.545 732,-590 738.305,-593.928 745.143,-597.389 752.187,-600.433"/>
<polygon fill="midnightblue" stroke="midnightblue" points="610.667,-462.281 602.052,-456.114 604.941,-466.307 610.667,-462.281"/>
</g>
<!-- Node6 -->
<g id="node6" class="node"><title>Node6</title>
<g id="a_node6"><a xlink:href="../../d4/daa/classengine_1_1collision_1_1objects_1_1_fixed_object_collision_object.html#a2e8390b2a80569d4462e04c5706831cb" target="_top" xlink:title="engine.collision.objects.\lFixedObjectCollisionObject.handle\lFixedObjectCollisionObject">
<polygon fill="white" stroke="black" points="746,-540.5 746,-581.5 922,-581.5 922,-540.5 746,-540.5"/>
<text text-anchor="start" x="754" y="-569.5" font-family="Helvetica,sans-Serif" font-size="10.00">engine.collision.objects.</text>
<text text-anchor="start" x="754" y="-558.5" font-family="Helvetica,sans-Serif" font-size="10.00">FixedObjectCollisionObject.handle</text>
<text text-anchor="middle" x="834" y="-547.5" font-family="Helvetica,sans-Serif" font-size="10.00">FixedObjectCollisionObject</text>
</a>
</g>
</g>
<!-- Node2&#45;&gt;Node6 -->
<g id="edge5" class="edge"><title>Node2&#45;&gt;Node6</title>
<path fill="none" stroke="midnightblue" d="M620.191,-462.138C647.58,-481.879 690.935,-511.065 732,-530 740.245,-533.802 749.078,-537.292 757.963,-540.45"/>
<polygon fill="midnightblue" stroke="midnightblue" points="622.026,-459.145 611.882,-456.086 617.904,-464.803 622.026,-459.145"/>
</g>
<!-- Node7 -->
<g id="node7" class="node"><title>Node7</title>
<g id="a_node7"><a xlink:href="../../dc/d87/classengine_1_1collision_1_1objects_1_1_hero_collision_object.html#a3dc5a68b37238352c99bca91dfc8f9a1" target="_top" xlink:title="engine.collision.objects.\lHeroCollisionObject.handleFixed\lObjectCollisionObject">
<polygon fill="white" stroke="black" points="749.5,-480.5 749.5,-521.5 918.5,-521.5 918.5,-480.5 749.5,-480.5"/>
<text text-anchor="start" x="757.5" y="-509.5" font-family="Helvetica,sans-Serif" font-size="10.00">engine.collision.objects.</text>
<text text-anchor="start" x="757.5" y="-498.5" font-family="Helvetica,sans-Serif" font-size="10.00">HeroCollisionObject.handleFixed</text>
<text text-anchor="middle" x="834" y="-487.5" font-family="Helvetica,sans-Serif" font-size="10.00">ObjectCollisionObject</text>
</a>
</g>
</g>
<!-- Node2&#45;&gt;Node7 -->
<g id="edge6" class="edge"><title>Node2&#45;&gt;Node7</title>
<path fill="none" stroke="midnightblue" d="M662.469,-458.544C690.079,-465.418 721.949,-473.352 750.613,-480.489"/>
<polygon fill="midnightblue" stroke="midnightblue" points="663.053,-455.083 652.503,-456.063 661.362,-461.875 663.053,-455.083"/>
</g>
<!-- Node8 -->
<g id="node8" class="node"><title>Node8</title>
<g id="a_node8"><a xlink:href="../../d6/db8/classengine_1_1collision_1_1objects_1_1_powerup_collision_object.html#a4e09b2b8b7cfbcdd6def8332de2025b7" target="_top" xlink:title="engine.collision.objects.\lPowerupCollisionObject.handleFixed\lObjectCollisionObject">
<polygon fill="white" stroke="black" points="741,-420.5 741,-461.5 927,-461.5 927,-420.5 741,-420.5"/>
<text text-anchor="start" x="749" y="-449.5" font-family="Helvetica,sans-Serif" font-size="10.00">engine.collision.objects.</text>
<text text-anchor="start" x="749" y="-438.5" font-family="Helvetica,sans-Serif" font-size="10.00">PowerupCollisionObject.handleFixed</text>
<text text-anchor="middle" x="834" y="-427.5" font-family="Helvetica,sans-Serif" font-size="10.00">ObjectCollisionObject</text>
</a>
</g>
</g>
<!-- Node2&#45;&gt;Node8 -->
<g id="edge7" class="edge"><title>Node2&#45;&gt;Node8</title>
<path fill="none" stroke="midnightblue" d="M691.173,-441C707.553,-441 724.477,-441 740.68,-441"/>
<polygon fill="midnightblue" stroke="midnightblue" points="691.055,-437.5 681.055,-441 691.055,-444.5 691.055,-437.5"/>
</g>
<!-- Node9 -->
<g id="node9" class="node"><title>Node9</title>
<g id="a_node9"><a xlink:href="../../db/d3a/classengine_1_1collision_1_1objects_1_1_enemy_collision_object.html#a8cf5b65593cec2850e2f94a8d6deb670" target="_top" xlink:title="engine.collision.objects.\lEnemyCollisionObject.handleFixed\lObjectCollisionObject">
<polygon fill="white" stroke="black" points="744.5,-360.5 744.5,-401.5 923.5,-401.5 923.5,-360.5 744.5,-360.5"/>
<text text-anchor="start" x="752.5" y="-389.5" font-family="Helvetica,sans-Serif" font-size="10.00">engine.collision.objects.</text>
<text text-anchor="start" x="752.5" y="-378.5" font-family="Helvetica,sans-Serif" font-size="10.00">EnemyCollisionObject.handleFixed</text>
<text text-anchor="middle" x="834" y="-367.5" font-family="Helvetica,sans-Serif" font-size="10.00">ObjectCollisionObject</text>
</a>
</g>
</g>
<!-- Node2&#45;&gt;Node9 -->
<g id="edge8" class="edge"><title>Node2&#45;&gt;Node9</title>
<path fill="none" stroke="midnightblue" d="M662.469,-423.456C690.079,-416.582 721.949,-408.648 750.613,-401.511"/>
<polygon fill="midnightblue" stroke="midnightblue" points="661.362,-420.125 652.503,-425.937 663.053,-426.917 661.362,-420.125"/>
</g>
<!-- Node10 -->
<g id="node10" class="node"><title>Node10</title>
<g id="a_node10"><a xlink:href="../../d4/daa/classengine_1_1collision_1_1objects_1_1_fixed_object_collision_object.html#af3d610bd55f501a9d616abaf648dd870" target="_top" xlink:title="engine.collision.objects.\lFixedObjectCollisionObject.handle\lHeroCollisionObject">
<polygon fill="white" stroke="black" points="746,-300.5 746,-341.5 922,-341.5 922,-300.5 746,-300.5"/>
<text text-anchor="start" x="754" y="-329.5" font-family="Helvetica,sans-Serif" font-size="10.00">engine.collision.objects.</text>
<text text-anchor="start" x="754" y="-318.5" font-family="Helvetica,sans-Serif" font-size="10.00">FixedObjectCollisionObject.handle</text>
<text text-anchor="middle" x="834" y="-307.5" font-family="Helvetica,sans-Serif" font-size="10.00">HeroCollisionObject</text>
</a>
</g>
</g>
<!-- Node2&#45;&gt;Node10 -->
<g id="edge9" class="edge"><title>Node2&#45;&gt;Node10</title>
<path fill="none" stroke="midnightblue" d="M620.114,-419.519C647.448,-399.481 690.764,-369.913 732,-351 739.482,-347.568 747.454,-344.416 755.513,-341.551"/>
<polygon fill="midnightblue" stroke="midnightblue" points="617.773,-416.898 611.824,-425.665 621.942,-422.521 617.773,-416.898"/>
</g>
<!-- Node11 -->
<g id="node11" class="node"><title>Node11</title>
<g id="a_node11"><a xlink:href="../../d4/daa/classengine_1_1collision_1_1objects_1_1_fixed_object_collision_object.html#aabbf81a8ea0fca531c76cb6355553303" target="_top" xlink:title="engine.collision.objects.\lFixedObjectCollisionObject.handle\lPowerupCollisionObject">
<polygon fill="white" stroke="black" points="746,-240.5 746,-281.5 922,-281.5 922,-240.5 746,-240.5"/>
<text text-anchor="start" x="754" y="-269.5" font-family="Helvetica,sans-Serif" font-size="10.00">engine.collision.objects.</text>
<text text-anchor="start" x="754" y="-258.5" font-family="Helvetica,sans-Serif" font-size="10.00">FixedObjectCollisionObject.handle</text>
<text text-anchor="middle" x="834" y="-247.5" font-family="Helvetica,sans-Serif" font-size="10.00">PowerupCollisionObject</text>
</a>
</g>
</g>
<!-- Node2&#45;&gt;Node11 -->
<g id="edge10" class="edge"><title>Node2&#45;&gt;Node11</title>
<path fill="none" stroke="midnightblue" d="M607.96,-417.14C631.335,-384.018 678.013,-324.42 732,-291 737.677,-287.486 743.788,-284.364 750.094,-281.594"/>
<polygon fill="midnightblue" stroke="midnightblue" points="604.821,-415.524 601.998,-425.736 610.573,-419.514 604.821,-415.524"/>
</g>
<!-- Node13&#45;&gt;Node2 -->
<g id="edge14" class="edge"><title>Node13&#45;&gt;Node2</title>
<path fill="none" stroke="midnightblue" d="M431.35,-264.752C437.867,-267.375 444.161,-270.434 450,-274 514.413,-313.342 563.455,-392.785 581.965,-425.936"/>
<polygon fill="midnightblue" stroke="midnightblue" points="432.265,-261.36 421.671,-261.212 429.861,-267.934 432.265,-261.36"/>
</g>
<!-- Node14 -->
<g id="node14" class="node"><title>Node14</title>
<g id="a_node14"><a xlink:href="../../df/d04/classengine_1_1actions_1_1_reverse_velocity_i_d_action.html#a68591c8a222c853219a8e380671d42be" target="_top" xlink:title="engine.actions.ReverseVelocity\lIDAction.applyPhysics">
<polygon fill="white" stroke="black" points="509,-234 509,-264 673,-264 673,-234 509,-234"/>
<text text-anchor="start" x="517" y="-252" font-family="Helvetica,sans-Serif" font-size="10.00">engine.actions.ReverseVelocity</text>
<text text-anchor="middle" x="591" y="-241" font-family="Helvetica,sans-Serif" font-size="10.00">IDAction.applyPhysics</text>
</a>
</g>
</g>
<!-- Node13&#45;&gt;Node14 -->
<g id="edge13" class="edge"><title>Node13&#45;&gt;Node14</title>
<path fill="none" stroke="midnightblue" d="M431.793,-249C456.958,-249 484.059,-249 508.597,-249"/>
<polygon fill="midnightblue" stroke="midnightblue" points="431.513,-245.5 421.513,-249 431.513,-252.5 431.513,-245.5"/>
</g>
<!-- Node15 -->
<g id="node15" class="node"><title>Node15</title>
<g id="a_node15"><a xlink:href="../../da/d1b/classengine_1_1collision_1_1objects_1_1_collision_composition.html#a18ddea9b9a7eb7e0b581645e7c42b439" target="_top" xlink:title="engine.collision.objects.\lCollisionComposition.reverseVelocites">
<polygon fill="white" stroke="black" points="492.5,-146 492.5,-176 689.5,-176 689.5,-146 492.5,-146"/>
<text text-anchor="start" x="500.5" y="-164" font-family="Helvetica,sans-Serif" font-size="10.00">engine.collision.objects.</text>
<text text-anchor="middle" x="591" y="-153" font-family="Helvetica,sans-Serif" font-size="10.00">CollisionComposition.reverseVelocites</text>
</a>
</g>
</g>
<!-- Node13&#45;&gt;Node15 -->
<g id="edge15" class="edge"><title>Node13&#45;&gt;Node15</title>
<path fill="none" stroke="midnightblue" d="M392.17,-230.636C438.088,-214.473 504.143,-191.222 547.065,-176.113"/>
<polygon fill="midnightblue" stroke="midnightblue" points="390.963,-227.35 382.692,-233.972 393.287,-233.953 390.963,-227.35"/>
</g>
<!-- Node16 -->
<g id="node16" class="node"><title>Node16</title>
<g id="a_node16"><a xlink:href="../../db/d3a/classengine_1_1collision_1_1objects_1_1_enemy_collision_object.html#a3fe5a215c527ee4263f5f1c2c851f58b" target="_top" xlink:title="engine.collision.objects.\lEnemyCollisionObject.handleEnemy\lCollisionObject">
<polygon fill="white" stroke="black" points="740,-180.5 740,-221.5 928,-221.5 928,-180.5 740,-180.5"/>
<text text-anchor="start" x="748" y="-209.5" font-family="Helvetica,sans-Serif" font-size="10.00">engine.collision.objects.</text>
<text text-anchor="start" x="748" y="-198.5" font-family="Helvetica,sans-Serif" font-size="10.00">EnemyCollisionObject.handleEnemy</text>
<text text-anchor="middle" x="834" y="-187.5" font-family="Helvetica,sans-Serif" font-size="10.00">CollisionObject</text>
</a>
</g>
</g>
<!-- Node15&#45;&gt;Node16 -->
<g id="edge16" class="edge"><title>Node15&#45;&gt;Node16</title>
<path fill="none" stroke="midnightblue" d="M692.594,-177.696C708.185,-180.284 724.234,-182.947 739.656,-185.507"/>
<polygon fill="midnightblue" stroke="midnightblue" points="692.863,-174.193 682.425,-176.008 691.717,-181.099 692.863,-174.193"/>
</g>
<!-- Node17 -->
<g id="node17" class="node"><title>Node17</title>
<g id="a_node17"><a xlink:href="../../d6/db8/classengine_1_1collision_1_1objects_1_1_powerup_collision_object.html#a76f3d506523e34f32efeca2f2957c2f3" target="_top" xlink:title="engine.collision.objects.\lPowerupCollisionObject.handleEnemy\lCollisionObject">
<polygon fill="white" stroke="black" points="736.5,-120.5 736.5,-161.5 931.5,-161.5 931.5,-120.5 736.5,-120.5"/>
<text text-anchor="start" x="744.5" y="-149.5" font-family="Helvetica,sans-Serif" font-size="10.00">engine.collision.objects.</text>
<text text-anchor="start" x="744.5" y="-138.5" font-family="Helvetica,sans-Serif" font-size="10.00">PowerupCollisionObject.handleEnemy</text>
<text text-anchor="middle" x="834" y="-127.5" font-family="Helvetica,sans-Serif" font-size="10.00">CollisionObject</text>
</a>
</g>
</g>
<!-- Node15&#45;&gt;Node17 -->
<g id="edge17" class="edge"><title>Node15&#45;&gt;Node17</title>
<path fill="none" stroke="midnightblue" d="M699.843,-152.05C712.009,-151.041 724.348,-150.017 736.358,-149.02"/>
<polygon fill="midnightblue" stroke="midnightblue" points="699.353,-148.579 689.677,-152.894 699.932,-155.555 699.353,-148.579"/>
</g>
<!-- Node18 -->
<g id="node18" class="node"><title>Node18</title>
<g id="a_node18"><a xlink:href="../../d6/db8/classengine_1_1collision_1_1objects_1_1_powerup_collision_object.html#a2bfd0d14c115bfbf39c23435d6660535" target="_top" xlink:title="engine.collision.objects.\lPowerupCollisionObject.handlePowerup\lCollisionObject">
<polygon fill="white" stroke="black" points="732.5,-60.5 732.5,-101.5 935.5,-101.5 935.5,-60.5 732.5,-60.5"/>
<text text-anchor="start" x="740.5" y="-89.5" font-family="Helvetica,sans-Serif" font-size="10.00">engine.collision.objects.</text>
<text text-anchor="start" x="740.5" y="-78.5" font-family="Helvetica,sans-Serif" font-size="10.00">PowerupCollisionObject.handlePowerup</text>
<text text-anchor="middle" x="834" y="-67.5" font-family="Helvetica,sans-Serif" font-size="10.00">CollisionObject</text>
</a>
</g>
</g>
<!-- Node15&#45;&gt;Node18 -->
<g id="edge18" class="edge"><title>Node15&#45;&gt;Node18</title>
<path fill="none" stroke="midnightblue" d="M678.455,-142.872C684.48,-140.802 690.384,-138.518 696,-136 713.775,-128.031 714.442,-119.435 732,-111 739.172,-107.554 746.823,-104.413 754.583,-101.573"/>
<polygon fill="midnightblue" stroke="midnightblue" points="677.355,-139.549 668.913,-145.951 679.505,-146.211 677.355,-139.549"/>
</g>
<!-- Node19 -->
<g id="node19" class="node"><title>Node19</title>
<g id="a_node19"><a xlink:href="../../db/d3a/classengine_1_1collision_1_1objects_1_1_enemy_collision_object.html#aaf077e8098fd696546883adbb1081c04" target="_top" xlink:title="engine.collision.objects.\lEnemyCollisionObject.handlePowerup\lCollisionObject">
<polygon fill="white" stroke="black" points="736.5,-0.5 736.5,-41.5 931.5,-41.5 931.5,-0.5 736.5,-0.5"/>
<text text-anchor="start" x="744.5" y="-29.5" font-family="Helvetica,sans-Serif" font-size="10.00">engine.collision.objects.</text>
<text text-anchor="start" x="744.5" y="-18.5" font-family="Helvetica,sans-Serif" font-size="10.00">EnemyCollisionObject.handlePowerup</text>
<text text-anchor="middle" x="834" y="-7.5" font-family="Helvetica,sans-Serif" font-size="10.00">CollisionObject</text>
</a>
</g>
</g>
<!-- Node15&#45;&gt;Node19 -->
<g id="edge19" class="edge"><title>Node15&#45;&gt;Node19</title>
<path fill="none" stroke="midnightblue" d="M689.784,-140.722C691.939,-139.253 694.017,-137.681 696,-136 727.298,-109.475 701.413,-78.3424 732,-51 735.955,-47.4647 740.31,-44.3453 744.923,-41.5931"/>
<polygon fill="midnightblue" stroke="midnightblue" points="687.909,-137.766 681.119,-145.899 691.499,-143.775 687.909,-137.766"/>
</g>
<!-- Node21 -->
<g id="node21" class="node"><title>Node21</title>
<g id="a_node21"><a xlink:href="../../d0/d7f/classengine_1_1game_object_1_1_game_object.html#ac7465f9b7adb414a894231d97e4ae91c" target="_top" xlink:title="engine.gameObject.GameObject.update">
<polygon fill="white" stroke="black" points="486,-107.5 486,-126.5 696,-126.5 696,-107.5 486,-107.5"/>
<text text-anchor="middle" x="591" y="-114.5" font-family="Helvetica,sans-Serif" font-size="10.00">engine.gameObject.GameObject.update</text>
</a>
</g>
</g>
<!-- Node20&#45;&gt;Node21 -->
<g id="edge21" class="edge"><title>Node20&#45;&gt;Node21</title>
<path fill="none" stroke="midnightblue" d="M397.285,-160.093C424.07,-152.088 456.498,-142.92 486,-136 500.832,-132.521 516.978,-129.301 532.028,-126.537"/>
<polygon fill="midnightblue" stroke="midnightblue" points="396.254,-156.748 387.688,-162.983 398.272,-163.451 396.254,-156.748"/>
</g>
</g>
</svg>
        <g id="navigator" transform="translate(0 0)" fill="#404254">
                <rect fill="#f2f5e9" fill-opacity="0.5" stroke="#606060" stroke-width=".5" x="0" y="0" width="60" height="60"/>
                <use id="zoomplus" xlink:href="#zoomPlus" x="17" y="9" onmousedown="handleZoom(evt,'in')"/>
                <use id="zoomminus" xlink:href="#zoomMin" x="42" y="9" onmousedown="handleZoom(evt,'out')"/>
                <use id="reset" xlink:href="#resetDef" x="30" y="36" onmousedown="handleReset()"/>
                <g id="arrowUp" xlink:href="#dirArrow" transform="translate(30 24)" onmousedown="handlePan(0,-1)">
                  <use xlink:href="#rim" fill="#404040">
                        <set attributeName="fill" to="#808080" begin="arrowUp.mouseover" end="arrowUp.mouseout"/>
                  </use>
                  <path fill="none" stroke="white" stroke-width="1.5" d="M0,-3.0v7 M-2.5,-0.5L0,-3.0L2.5,-0.5"/>
                </g>
                <g id="arrowRight" xlink:href="#dirArrow" transform="rotate(90) translate(36 -43)" onmousedown="handlePan(1,0)">
                  <use xlink:href="#rim" fill="#404040">
                        <set attributeName="fill" to="#808080" begin="arrowRight.mouseover" end="arrowRight.mouseout"/>
                  </use>
                  <path fill="none" stroke="white" stroke-width="1.5" d="M0,-3.0v7 M-2.5,-0.5L0,-3.0L2.5,-0.5"/>
                </g>
                <g id="arrowDown" xlink:href="#dirArrow" transform="rotate(180) translate(-30 -48)" onmousedown="handlePan(0,1)">
                  <use xlink:href="#rim" fill="#404040">
                        <set attributeName="fill" to="#808080" begin="arrowDown.mouseover" end="arrowDown.mouseout"/>
                  </use>
                  <path fill="none" stroke="white" stroke-width="1.5" d="M0,-3.0v7 M-2.5,-0.5L0,-3.0L2.5,-0.5"/>
                </g>
                <g id="arrowLeft" xlink:href="#dirArrow" transform="rotate(270) translate(-36 17)" onmousedown="handlePan(-1,0)">
                  <use xlink:href="#rim" fill="#404040">
                        <set attributeName="fill" to="#808080" begin="arrowLeft.mouseover" end="arrowLeft.mouseout"/>
                  </use>
                  <path fill="none" stroke="white" stroke-width="1.5" d="M0,-3.0v7 M-2.5,-0.5L0,-3.0L2.5,-0.5"/>
                </g>
        </g>
        <svg viewBox="0 0 15 15" width="100%" height="30px" preserveAspectRatio="xMaxYMin meet">
         <g id="arrow_out" transform="scale(0.3 0.3)">
          <a xlink:href="classengine_1_1game_object_1_1_game_object_a80eaf3afeb78a2502bb3c6affd73bdd7_icgraph_org.svg" target="_base">
           <rect id="button" ry="5" rx="5" y="6" x="6" height="38" width="38"
                fill="#f2f5e9" fill-opacity="0.5" stroke="#606060" stroke-width="1.0"/>
           <path id="arrow"
             d="M 11.500037,31.436501 C 11.940474,20.09759 22.043105,11.32322 32.158766,21.979434 L 37.068811,17.246167 C 37.068811,17.246167 37.088388,32 37.088388,32 L 22.160133,31.978069 C 22.160133,31.978069 26.997745,27.140456 26.997745,27.140456 C 18.528582,18.264221 13.291696,25.230495 11.500037,31.436501 z"
             style="fill:#404040;"/>
          </a>
         </g>
        </svg>
</svg>
