<?xml version="1.0" encoding="UTF-8" standalone="no"?>
<!DOCTYPE svg PUBLIC "-//W3C//DTD SVG 1.1//EN"
 "http://www.w3.org/Graphics/SVG/1.1/DTD/svg11.dtd">
<!-- Generated by graphviz version 2.36.0 (20140111.2315)
 -->
<!-- Title: engine.gameObject.GameObject.getIdentifier Pages: 1 -->
<!--zoomable 533 -->
<svg id="main" version="1.1" xmlns="http://www.w3.org/2000/svg" xmlns:xlink="http://www.w3.org/1999/xlink" xml:space="preserve" onload="init(evt)">
<style type="text/css"><![CDATA[
.edge:hover path { stroke: red; }
.edge:hover polygon { stroke: red; fill: red; }
]]></style>
<script type="text/javascript"><![CDATA[
var edges = document.getElementsByTagName('g');
if (edges && edges.length) {
  for (var i=0;i<edges.length;i++) {
    if (edges[i].id.substr(0,4)=='edge') {
      edges[i].setAttribute('class','edge');
    }
  }
}
]]></script>
        <defs>
                <circle id="rim" cx="0" cy="0" r="7"/>
                <circle id="rim2" cx="0" cy="0" r="3.5"/>
                <g id="zoomPlus">
                        <use xlink:href="#rim" fill="#404040">
                                <set attributeName="fill" to="#808080" begin="zoomplus.mouseover" end="zoomplus.mouseout"/>
                        </use>
                        <path d="M-4,0h8M0,-4v8" fill="none" stroke="white" stroke-width="1.5" pointer-events="none"/>
                </g>
                <g id="zoomMin">
                        <use xlink:href="#rim" fill="#404040">
                                <set attributeName="fill" to="#808080" begin="zoomminus.mouseover" end="zoomminus.mouseout"/>
                        </use>
                        <path d="M-4,0h8" fill="none" stroke="white" stroke-width="1.5" pointer-events="none"/>
                </g>
                <g id="dirArrow">
                        <path fill="none" stroke="white" stroke-width="1.5" d="M0,-3.0v7 M-2.5,-0.5L0,-3.0L2.5,-0.5"/>
                </g>
               <g id="resetDef">
                       <use xlink:href="#rim2" fill="#404040">
                               <set attributeName="fill" to="#808080" begin="reset.mouseover" end="reset.mouseout"/>
                       </use>
               </g>
        </defs>

<script type="text/javascript">
var viewWidth = 1156;
var viewHeight = 533;
var sectionId = 'dynsection-10';
</script>
<script xlink:href="../../svgpan.js"/>
<svg id="graph" class="graph">
<g id="viewport">
<title>engine.gameObject.GameObject.getIdentifier</title>
<polygon fill="white" stroke="none" points="-4,4 -4,-529 1152,-529 1152,4 -4,4"/>
<!-- Node1 -->
<g id="node1" class="node"><title>Node1</title>
<polygon fill="#bfbfbf" stroke="black" points="0,-219 0,-249 192,-249 192,-219 0,-219"/>
<text text-anchor="start" x="8" y="-237" font-family="Helvetica,sans-Serif" font-size="10.00">engine.gameObject.GameObject.get</text>
<text text-anchor="middle" x="96" y="-226" font-family="Helvetica,sans-Serif" font-size="10.00">Identifier</text>
</g>
<!-- Node2 -->
<g id="node2" class="node"><title>Node2</title>
<g id="a_node2"><a xlink:href="../../d7/d00/classengine_1_1tests_1_1_main_engine_tests.html#ad06079aee97fd7ffd4f2b14a8f01b808" target="_top" xlink:title="engine.tests.MainEngineTests.create\lGameObject">
<polygon fill="white" stroke="black" points="525.5,-390 525.5,-420 716.5,-420 716.5,-390 525.5,-390"/>
<text text-anchor="start" x="533.5" y="-408" font-family="Helvetica,sans-Serif" font-size="10.00">engine.tests.MainEngineTests.create</text>
<text text-anchor="middle" x="621" y="-397" font-family="Helvetica,sans-Serif" font-size="10.00">GameObject</text>
</a>
</g>
</g>
<!-- Node1&#45;&gt;Node2 -->
<g id="edge1" class="edge"><title>Node1&#45;&gt;Node2</title>
<path fill="none" stroke="midnightblue" d="M106.509,-258.407C123.727,-298.736 164.301,-378.005 228,-410 338.541,-465.522 489.708,-439.687 568.097,-420.03"/>
<polygon fill="midnightblue" stroke="midnightblue" points="109.693,-256.946 102.635,-249.045 103.225,-259.623 109.693,-256.946"/>
</g>
<!-- Node4 -->
<g id="node4" class="node"><title>Node4</title>
<g id="a_node4"><a xlink:href="../../dc/d21/classgames_1_1_mario_game_test.html#aab9eed35cd4d8ae1d108ae914b6a73ff" target="_top" xlink:title="games.MarioGameTest.create\lGameObject">
<polygon fill="white" stroke="black" points="540.5,-292 540.5,-322 701.5,-322 701.5,-292 540.5,-292"/>
<text text-anchor="start" x="548.5" y="-310" font-family="Helvetica,sans-Serif" font-size="10.00">games.MarioGameTest.create</text>
<text text-anchor="middle" x="621" y="-299" font-family="Helvetica,sans-Serif" font-size="10.00">GameObject</text>
</a>
</g>
</g>
<!-- Node1&#45;&gt;Node4 -->
<g id="edge3" class="edge"><title>Node1&#45;&gt;Node4</title>
<path fill="none" stroke="midnightblue" d="M202.629,-231.487C276.95,-231.646 378.386,-235.755 466,-253 508.532,-261.372 555.233,-279.025 585.927,-291.875"/>
<polygon fill="midnightblue" stroke="midnightblue" points="202.325,-227.987 192.326,-231.49 202.327,-234.987 202.325,-227.987"/>
</g>
<!-- Node6 -->
<g id="node6" class="node"><title>Node6</title>
<g id="a_node6"><a xlink:href="../../da/d8d/classauthoring_1_1view_1_1propertiesview_1_1_game_object_properties.html#a6f1aeaddb6956053690488c8ddaa38ba" target="_top" xlink:title="authoring.view.propertiesview.\lGameObjectProperties.edit">
<polygon fill="white" stroke="black" points="267.5,-459 267.5,-489 426.5,-489 426.5,-459 267.5,-459"/>
<text text-anchor="start" x="275.5" y="-477" font-family="Helvetica,sans-Serif" font-size="10.00">authoring.view.propertiesview.</text>
<text text-anchor="middle" x="347" y="-466" font-family="Helvetica,sans-Serif" font-size="10.00">GameObjectProperties.edit</text>
</a>
</g>
</g>
<!-- Node1&#45;&gt;Node6 -->
<g id="edge5" class="edge"><title>Node1&#45;&gt;Node6</title>
<path fill="none" stroke="midnightblue" d="M105.423,-258.899C121.744,-303.246 161.992,-395.771 228,-444 239.606,-452.48 253.372,-458.572 267.331,-462.945"/>
<polygon fill="midnightblue" stroke="midnightblue" points="108.621,-257.447 101.958,-249.21 102.03,-259.804 108.621,-257.447"/>
</g>
<!-- Node10 -->
<g id="node10" class="node"><title>Node10</title>
<g id="a_node10"><a xlink:href="../../db/d42/classauthoring_1_1view_1_1wizards_1_1_game_object_type_wizard.html#adec8e9760a289bb75386c966f7e3c46f" target="_top" xlink:title="authoring.view.wizards.Game\lObjectTypeWizard.getIdentifierComponent">
<polygon fill="white" stroke="black" points="239,-322 239,-352 455,-352 455,-322 239,-322"/>
<text text-anchor="start" x="247" y="-340" font-family="Helvetica,sans-Serif" font-size="10.00">authoring.view.wizards.Game</text>
<text text-anchor="middle" x="347" y="-329" font-family="Helvetica,sans-Serif" font-size="10.00">ObjectTypeWizard.getIdentifierComponent</text>
</a>
</g>
</g>
<!-- Node1&#45;&gt;Node10 -->
<g id="edge9" class="edge"><title>Node1&#45;&gt;Node10</title>
<path fill="none" stroke="midnightblue" d="M126.161,-255.191C151.799,-272.86 190.735,-297.421 228,-312 237.848,-315.853 248.403,-319.158 259.002,-321.983"/>
<polygon fill="midnightblue" stroke="midnightblue" points="127.873,-252.117 117.672,-249.256 123.862,-257.854 127.873,-252.117"/>
</g>
<!-- Node11 -->
<g id="node11" class="node"><title>Node11</title>
<g id="a_node11"><a xlink:href="../../d8/df6/classauthoring_1_1view_1_1wizards_1_1_game_object_unique_i_d_wizard.html#aac9e106bc9b5421d89a406ce46ade1b5" target="_top" xlink:title="authoring.view.wizards.Game\lObjectUniqueIDWizard.getIdentifier\lComponent">
<polygon fill="white" stroke="black" points="256,-262.5 256,-303.5 438,-303.5 438,-262.5 256,-262.5"/>
<text text-anchor="start" x="264" y="-291.5" font-family="Helvetica,sans-Serif" font-size="10.00">authoring.view.wizards.Game</text>
<text text-anchor="start" x="264" y="-280.5" font-family="Helvetica,sans-Serif" font-size="10.00">ObjectUniqueIDWizard.getIdentifier</text>
<text text-anchor="middle" x="347" y="-269.5" font-family="Helvetica,sans-Serif" font-size="10.00">Component</text>
</a>
</g>
</g>
<!-- Node1&#45;&gt;Node11 -->
<g id="edge10" class="edge"><title>Node1&#45;&gt;Node11</title>
<path fill="none" stroke="midnightblue" d="M183.302,-250.983C206.715,-255.59 232.124,-260.591 255.749,-265.24"/>
<polygon fill="midnightblue" stroke="midnightblue" points="183.888,-247.531 173.4,-249.035 182.536,-254.4 183.888,-247.531"/>
</g>
<!-- Node12 -->
<g id="node12" class="node"><title>Node12</title>
<g id="a_node12"><a xlink:href="../../d1/d32/classauthoring_1_1model_1_1collections_1_1_game_objects_collection.html#a018eb6b1b97cc2753fe1f3e5748644b9" target="_top" xlink:title="authoring.model.collections.\lGameObjectsCollection.getIdentifierList">
<polygon fill="white" stroke="black" points="244.5,-371 244.5,-401 449.5,-401 449.5,-371 244.5,-371"/>
<text text-anchor="start" x="252.5" y="-389" font-family="Helvetica,sans-Serif" font-size="10.00">authoring.model.collections.</text>
<text text-anchor="middle" x="347" y="-378" font-family="Helvetica,sans-Serif" font-size="10.00">GameObjectsCollection.getIdentifierList</text>
</a>
</g>
</g>
<!-- Node1&#45;&gt;Node12 -->
<g id="edge11" class="edge"><title>Node1&#45;&gt;Node12</title>
<path fill="none" stroke="midnightblue" d="M114.156,-257.306C136.845,-286.339 179.651,-335.252 228,-361 235.301,-364.888 243.158,-368.171 251.226,-370.944"/>
<polygon fill="midnightblue" stroke="midnightblue" points="116.903,-255.135 108.039,-249.331 111.348,-259.395 116.903,-255.135"/>
</g>
<!-- Node13 -->
<g id="node13" class="node"><title>Node13</title>
<g id="a_node13"><a xlink:href="../../d0/df2/classauthoring_1_1eventhandlers_1_1_game_object_drag_to_level_handler.html#ad5002cd6b7781653104f1820a573f902" target="_top" xlink:title="authoring.eventhandlers.\lGameObjectDragToLevelHandler.handle">
<polygon fill="white" stroke="black" points="518,-161 518,-191 724,-191 724,-161 518,-161"/>
<text text-anchor="start" x="526" y="-179" font-family="Helvetica,sans-Serif" font-size="10.00">authoring.eventhandlers.</text>
<text text-anchor="middle" x="621" y="-168" font-family="Helvetica,sans-Serif" font-size="10.00">GameObjectDragToLevelHandler.handle</text>
</a>
</g>
</g>
<!-- Node1&#45;&gt;Node13 -->
<g id="edge14" class="edge"><title>Node1&#45;&gt;Node13</title>
<path fill="none" stroke="midnightblue" d="M126.384,-213.161C151.883,-196.436 190.5,-174.272 228,-165 332.26,-139.221 456.876,-149.389 537.172,-160.992"/>
<polygon fill="midnightblue" stroke="midnightblue" points="124.296,-210.347 117.935,-218.82 128.192,-216.163 124.296,-210.347"/>
</g>
<!-- Node14 -->
<g id="node14" class="node"><title>Node14</title>
<g id="a_node14"><a xlink:href="../../df/d84/classengine_1_1level_1_1_level.html#ace23cd4ed278a5bb85e964ff3c8818b5" target="_top" xlink:title="engine.level.Level.initialize">
<polygon fill="white" stroke="black" points="275.5,-98.5 275.5,-117.5 418.5,-117.5 418.5,-98.5 275.5,-98.5"/>
<text text-anchor="middle" x="347" y="-105.5" font-family="Helvetica,sans-Serif" font-size="10.00">engine.level.Level.initialize</text>
</a>
</g>
</g>
<!-- Node1&#45;&gt;Node14 -->
<g id="edge15" class="edge"><title>Node1&#45;&gt;Node14</title>
<path fill="none" stroke="midnightblue" d="M118.855,-211.7C143.255,-188.159 184.994,-151.781 228,-132 242.719,-125.23 259.341,-120.359 275.364,-116.858"/>
<polygon fill="midnightblue" stroke="midnightblue" points="116.25,-209.352 111.563,-218.854 121.152,-214.349 116.25,-209.352"/>
</g>
<!-- Node21 -->
<g id="node21" class="node"><title>Node21</title>
<g id="a_node21"><a xlink:href="../../da/d8d/classauthoring_1_1view_1_1propertiesview_1_1_game_object_properties.html#a296e97b9faeabc086f698730de09a5c9" target="_top" xlink:title="authoring.view.propertiesview.\lGameObjectProperties.initializeProperties">
<polygon fill="white" stroke="black" points="239.5,-0 239.5,-30 454.5,-30 454.5,-0 239.5,-0"/>
<text text-anchor="start" x="247.5" y="-18" font-family="Helvetica,sans-Serif" font-size="10.00">authoring.view.propertiesview.</text>
<text text-anchor="middle" x="347" y="-7" font-family="Helvetica,sans-Serif" font-size="10.00">GameObjectProperties.initializeProperties</text>
</a>
</g>
</g>
<!-- Node1&#45;&gt;Node21 -->
<g id="edge23" class="edge"><title>Node1&#45;&gt;Node21</title>
<path fill="none" stroke="midnightblue" d="M106.206,-209.372C123.303,-167.243 164.13,-81.7601 228,-39 233.125,-35.5691 238.635,-32.6102 244.375,-30.0601"/>
<polygon fill="midnightblue" stroke="midnightblue" points="102.877,-208.274 102.462,-218.861 109.388,-210.844 102.877,-208.274"/>
</g>
<!-- Node23 -->
<g id="node23" class="node"><title>Node23</title>
<g id="a_node23"><a xlink:href="../../df/de5/classengine_1_1render_1_1_game_object_renderer.html#a610545384a337edcd3bffb9f0c6ecf18" target="_top" xlink:title="engine.render.GameObject\lRenderer.renderGameObjects">
<polygon fill="white" stroke="black" points="268,-49 268,-79 426,-79 426,-49 268,-49"/>
<text text-anchor="start" x="276" y="-67" font-family="Helvetica,sans-Serif" font-size="10.00">engine.render.GameObject</text>
<text text-anchor="middle" x="347" y="-56" font-family="Helvetica,sans-Serif" font-size="10.00">Renderer.renderGameObjects</text>
</a>
</g>
</g>
<!-- Node1&#45;&gt;Node23 -->
<g id="edge25" class="edge"><title>Node1&#45;&gt;Node23</title>
<path fill="none" stroke="midnightblue" d="M111.412,-210.345C132.66,-177.623 175.596,-119.174 228,-89 240.159,-81.999 254.036,-76.9502 267.899,-73.3113"/>
<polygon fill="midnightblue" stroke="midnightblue" points="108.417,-208.532 106.004,-218.848 114.324,-212.288 108.417,-208.532"/>
</g>
<!-- Node24 -->
<g id="node24" class="node"><title>Node24</title>
<g id="a_node24"><a xlink:href="../../d0/df2/classauthoring_1_1eventhandlers_1_1_game_object_drag_to_level_handler.html#a98ccf77195ecfc7146cd1737da68b6b2" target="_top" xlink:title="authoring.eventhandlers.\lGameObjectDragToLevelHandler.updateName">
<polygon fill="white" stroke="black" points="228.5,-175 228.5,-205 465.5,-205 465.5,-175 228.5,-175"/>
<text text-anchor="start" x="236.5" y="-193" font-family="Helvetica,sans-Serif" font-size="10.00">authoring.eventhandlers.</text>
<text text-anchor="middle" x="347" y="-182" font-family="Helvetica,sans-Serif" font-size="10.00">GameObjectDragToLevelHandler.updateName</text>
</a>
</g>
</g>
<!-- Node1&#45;&gt;Node24 -->
<g id="edge27" class="edge"><title>Node1&#45;&gt;Node24</title>
<path fill="none" stroke="midnightblue" d="M191.969,-217.218C214.665,-213.208 238.75,-208.952 260.965,-205.026"/>
<polygon fill="midnightblue" stroke="midnightblue" points="191.234,-213.794 181.995,-218.981 192.452,-220.687 191.234,-213.794"/>
</g>
<!-- Node3 -->
<g id="node3" class="node"><title>Node3</title>
<g id="a_node3"><a xlink:href="../../d7/d00/classengine_1_1tests_1_1_main_engine_tests.html#ad1e78dcd3453ebdeb09141cba734c133" target="_top" xlink:title="engine.tests.MainEngineTests.start">
<polygon fill="white" stroke="black" points="776.5,-395.5 776.5,-414.5 959.5,-414.5 959.5,-395.5 776.5,-395.5"/>
<text text-anchor="middle" x="868" y="-402.5" font-family="Helvetica,sans-Serif" font-size="10.00">engine.tests.MainEngineTests.start</text>
</a>
</g>
</g>
<!-- Node2&#45;&gt;Node3 -->
<g id="edge2" class="edge"><title>Node2&#45;&gt;Node3</title>
<path fill="none" stroke="midnightblue" d="M726.868,-405C743.268,-405 760.098,-405 776.15,-405"/>
<polygon fill="midnightblue" stroke="midnightblue" points="726.723,-401.5 716.723,-405 726.723,-408.5 726.723,-401.5"/>
</g>
<!-- Node5 -->
<g id="node5" class="node"><title>Node5</title>
<g id="a_node5"><a xlink:href="../../dc/d21/classgames_1_1_mario_game_test.html#a8b7c287ffdfcacefeb373e7430a608c8" target="_top" xlink:title="games.MarioGameTest.start">
<polygon fill="white" stroke="black" points="792,-297.5 792,-316.5 944,-316.5 944,-297.5 792,-297.5"/>
<text text-anchor="middle" x="868" y="-304.5" font-family="Helvetica,sans-Serif" font-size="10.00">games.MarioGameTest.start</text>
</a>
</g>
</g>
<!-- Node4&#45;&gt;Node5 -->
<g id="edge4" class="edge"><title>Node4&#45;&gt;Node5</title>
<path fill="none" stroke="midnightblue" d="M711.851,-307C738.048,-307 766.394,-307 791.601,-307"/>
<polygon fill="midnightblue" stroke="midnightblue" points="711.545,-303.5 701.544,-307 711.544,-310.5 711.545,-303.5"/>
</g>
<!-- Node7 -->
<g id="node7" class="node"><title>Node7</title>
<g id="a_node7"><a xlink:href="../../d4/d9e/classauthoring_1_1view_1_1propertiesview_1_1_properties_view.html#aeed3bf20185eabcf870ee4c649bc1d4e" target="_top" xlink:title="authoring.view.propertiesview.\lPropertiesView.getEditedGameObject">
<polygon fill="white" stroke="black" points="523.5,-459 523.5,-489 718.5,-489 718.5,-459 523.5,-459"/>
<text text-anchor="start" x="531.5" y="-477" font-family="Helvetica,sans-Serif" font-size="10.00">authoring.view.propertiesview.</text>
<text text-anchor="middle" x="621" y="-466" font-family="Helvetica,sans-Serif" font-size="10.00">PropertiesView.getEditedGameObject</text>
</a>
</g>
</g>
<!-- Node6&#45;&gt;Node7 -->
<g id="edge6" class="edge"><title>Node6&#45;&gt;Node7</title>
<path fill="none" stroke="midnightblue" d="M436.713,-474C464.356,-474 494.975,-474 523.145,-474"/>
<polygon fill="midnightblue" stroke="midnightblue" points="436.674,-470.5 426.674,-474 436.674,-477.5 436.674,-470.5"/>
</g>
<!-- Node8 -->
<g id="node8" class="node"><title>Node8</title>
<g id="a_node8"><a xlink:href="../../d6/df5/classauthoring_1_1eventhandlers_1_1_edit_game_object_handler.html#ac0a03e6b751068903df50296d9f1fbd7" target="_top" xlink:title="authoring.eventhandlers.\lEditGameObjectHandler.handle">
<polygon fill="white" stroke="black" points="784.5,-495 784.5,-525 951.5,-525 951.5,-495 784.5,-495"/>
<text text-anchor="start" x="792.5" y="-513" font-family="Helvetica,sans-Serif" font-size="10.00">authoring.eventhandlers.</text>
<text text-anchor="middle" x="868" y="-502" font-family="Helvetica,sans-Serif" font-size="10.00">EditGameObjectHandler.handle</text>
</a>
</g>
</g>
<!-- Node7&#45;&gt;Node8 -->
<g id="edge7" class="edge"><title>Node7&#45;&gt;Node8</title>
<path fill="none" stroke="midnightblue" d="M728.801,-489.693C747.402,-492.426 766.493,-495.232 784.321,-497.851"/>
<polygon fill="midnightblue" stroke="midnightblue" points="729.233,-486.219 718.83,-488.228 728.215,-493.145 729.233,-486.219"/>
</g>
<!-- Node9 -->
<g id="node9" class="node"><title>Node9</title>
<g id="a_node9"><a xlink:href="../../df/d81/classauthoring_1_1eventhandlers_1_1_save_as_new_handler.html#a912458649a9a99cded7c346f9d8b40f5" target="_top" xlink:title="authoring.eventhandlers.\lSaveAsNewHandler.handle">
<polygon fill="white" stroke="black" points="795.5,-446 795.5,-476 940.5,-476 940.5,-446 795.5,-446"/>
<text text-anchor="start" x="803.5" y="-464" font-family="Helvetica,sans-Serif" font-size="10.00">authoring.eventhandlers.</text>
<text text-anchor="middle" x="868" y="-453" font-family="Helvetica,sans-Serif" font-size="10.00">SaveAsNewHandler.handle</text>
</a>
</g>
</g>
<!-- Node7&#45;&gt;Node9 -->
<g id="edge8" class="edge"><title>Node7&#45;&gt;Node9</title>
<path fill="none" stroke="midnightblue" d="M729.081,-468.318C751.522,-467.127 774.664,-465.899 795.431,-464.798"/>
<polygon fill="midnightblue" stroke="midnightblue" points="728.631,-464.837 718.83,-468.862 729.002,-471.827 728.631,-464.837"/>
</g>
<!-- Node12&#45;&gt;Node2 -->
<g id="edge12" class="edge"><title>Node12&#45;&gt;Node2</title>
<path fill="none" stroke="midnightblue" d="M459.901,-393.817C481.59,-395.332 504.123,-396.906 525.199,-398.378"/>
<polygon fill="midnightblue" stroke="midnightblue" points="459.889,-390.307 449.67,-393.102 459.401,-397.29 459.889,-390.307"/>
</g>
<!-- Node12&#45;&gt;Node4 -->
<g id="edge13" class="edge"><title>Node12&#45;&gt;Node4</title>
<path fill="none" stroke="midnightblue" d="M435.864,-368.693C446.071,-366.296 456.296,-363.717 466,-361 505.969,-349.808 550.626,-333.742 581.515,-322.044"/>
<polygon fill="midnightblue" stroke="midnightblue" points="435.064,-365.285 426.1,-370.933 436.63,-372.108 435.064,-365.285"/>
</g>
<!-- Node15 -->
<g id="node15" class="node"><title>Node15</title>
<g id="a_node15"><a xlink:href="../../df/d67/classengine_1_1level_1_1_level_manager.html#ad89101547413fe335873b050fd091c79" target="_top" xlink:title="engine.level.LevelManager.set\lCurrentLevel">
<polygon fill="white" stroke="black" points="540.5,-98 540.5,-128 701.5,-128 701.5,-98 540.5,-98"/>
<text text-anchor="start" x="548.5" y="-116" font-family="Helvetica,sans-Serif" font-size="10.00">engine.level.LevelManager.set</text>
<text text-anchor="middle" x="621" y="-105" font-family="Helvetica,sans-Serif" font-size="10.00">CurrentLevel</text>
</a>
</g>
</g>
<!-- Node14&#45;&gt;Node15 -->
<g id="edge16" class="edge"><title>Node14&#45;&gt;Node15</title>
<path fill="none" stroke="midnightblue" d="M429.006,-109.489C464.247,-110.137 505.411,-110.894 540.482,-111.538"/>
<polygon fill="midnightblue" stroke="midnightblue" points="428.817,-105.985 418.755,-109.301 428.689,-112.984 428.817,-105.985"/>
</g>
<!-- Node18 -->
<g id="node18" class="node"><title>Node18</title>
<g id="a_node18"><a xlink:href="../../df/d67/classengine_1_1level_1_1_level_manager.html#a523599892453015eed0f1b506979af8a" target="_top" xlink:title="engine.level.LevelManager.initialize\lCurrentLevel">
<polygon fill="white" stroke="black" points="529,-49 529,-79 713,-79 713,-49 529,-49"/>
<text text-anchor="start" x="537" y="-67" font-family="Helvetica,sans-Serif" font-size="10.00">engine.level.LevelManager.initialize</text>
<text text-anchor="middle" x="621" y="-56" font-family="Helvetica,sans-Serif" font-size="10.00">CurrentLevel</text>
</a>
</g>
</g>
<!-- Node14&#45;&gt;Node18 -->
<g id="edge19" class="edge"><title>Node14&#45;&gt;Node18</title>
<path fill="none" stroke="midnightblue" d="M417.303,-96.7893C451.241,-91.2992 492.545,-84.6177 528.991,-78.7221"/>
<polygon fill="midnightblue" stroke="midnightblue" points="416.333,-93.4006 407.02,-98.4527 417.451,-100.311 416.333,-93.4006"/>
</g>
<!-- Node16 -->
<g id="node16" class="node"><title>Node16</title>
<g id="a_node16"><a xlink:href="../../df/d67/classengine_1_1level_1_1_level_manager.html#ad3c392cf6260c53428255fb596442692" target="_top" xlink:title="engine.level.LevelManager.change\lToLevel">
<polygon fill="white" stroke="black" points="777.5,-98 777.5,-128 958.5,-128 958.5,-98 777.5,-98"/>
<text text-anchor="start" x="785.5" y="-116" font-family="Helvetica,sans-Serif" font-size="10.00">engine.level.LevelManager.change</text>
<text text-anchor="middle" x="868" y="-105" font-family="Helvetica,sans-Serif" font-size="10.00">ToLevel</text>
</a>
</g>
</g>
<!-- Node15&#45;&gt;Node16 -->
<g id="edge17" class="edge"><title>Node15&#45;&gt;Node16</title>
<path fill="none" stroke="midnightblue" d="M711.591,-113C732.989,-113 755.834,-113 777.24,-113"/>
<polygon fill="midnightblue" stroke="midnightblue" points="711.545,-109.5 701.544,-113 711.544,-116.5 711.545,-109.5"/>
</g>
<!-- Node17 -->
<g id="node17" class="node"><title>Node17</title>
<g id="a_node17"><a xlink:href="../../d1/d73/classengine_1_1actions_1_1_change_level_action.html#a8190adf308768b0d12f6432d0cf0fbc4" target="_top" xlink:title="engine.actions.ChangeLevel\lAction.execute">
<polygon fill="white" stroke="black" points="996.5,-98 996.5,-128 1147.5,-128 1147.5,-98 996.5,-98"/>
<text text-anchor="start" x="1004.5" y="-116" font-family="Helvetica,sans-Serif" font-size="10.00">engine.actions.ChangeLevel</text>
<text text-anchor="middle" x="1072" y="-105" font-family="Helvetica,sans-Serif" font-size="10.00">Action.execute</text>
</a>
</g>
</g>
<!-- Node16&#45;&gt;Node17 -->
<g id="edge18" class="edge"><title>Node16&#45;&gt;Node17</title>
<path fill="none" stroke="midnightblue" d="M968.803,-113C978.062,-113 987.334,-113 996.308,-113"/>
<polygon fill="midnightblue" stroke="midnightblue" points="968.777,-109.5 958.777,-113 968.776,-116.5 968.777,-109.5"/>
</g>
<!-- Node18&#45;&gt;Node16 -->
<g id="edge22" class="edge"><title>Node18&#45;&gt;Node16</title>
<path fill="none" stroke="midnightblue" d="M707.2,-81.04C734.791,-86.5582 765.172,-92.6345 791.969,-97.9938"/>
<polygon fill="midnightblue" stroke="midnightblue" points="707.665,-77.5638 697.173,-79.0346 706.292,-84.4279 707.665,-77.5638"/>
</g>
<!-- Node19 -->
<g id="node19" class="node"><title>Node19</title>
<g id="a_node19"><a xlink:href="../../df/d67/classengine_1_1level_1_1_level_manager.html#a1d0f314bbf304bf86067ab87b832d2e0" target="_top" xlink:title="engine.level.LevelManager.find\lAndSetStartLevel">
<polygon fill="white" stroke="black" points="786.5,-49 786.5,-79 949.5,-79 949.5,-49 786.5,-49"/>
<text text-anchor="start" x="794.5" y="-67" font-family="Helvetica,sans-Serif" font-size="10.00">engine.level.LevelManager.find</text>
<text text-anchor="middle" x="868" y="-56" font-family="Helvetica,sans-Serif" font-size="10.00">AndSetStartLevel</text>
</a>
</g>
</g>
<!-- Node18&#45;&gt;Node19 -->
<g id="edge20" class="edge"><title>Node18&#45;&gt;Node19</title>
<path fill="none" stroke="midnightblue" d="M723.421,-64C744.343,-64 766.111,-64 786.184,-64"/>
<polygon fill="midnightblue" stroke="midnightblue" points="723.229,-60.5001 713.229,-64 723.229,-67.5001 723.229,-60.5001"/>
</g>
<!-- Node20 -->
<g id="node20" class="node"><title>Node20</title>
<g id="a_node20"><a xlink:href="../../df/d67/classengine_1_1level_1_1_level_manager.html#a0ea71eb9396652850db0d2da44c4ca81" target="_top" xlink:title="engine.level.LevelManager.\lLevelManager">
<polygon fill="white" stroke="black" points="999,-49 999,-79 1145,-79 1145,-49 999,-49"/>
<text text-anchor="start" x="1007" y="-67" font-family="Helvetica,sans-Serif" font-size="10.00">engine.level.LevelManager.</text>
<text text-anchor="middle" x="1072" y="-56" font-family="Helvetica,sans-Serif" font-size="10.00">LevelManager</text>
</a>
</g>
</g>
<!-- Node19&#45;&gt;Node20 -->
<g id="edge21" class="edge"><title>Node19&#45;&gt;Node20</title>
<path fill="none" stroke="midnightblue" d="M960.08,-64C973.094,-64 986.331,-64 998.913,-64"/>
<polygon fill="midnightblue" stroke="midnightblue" points="959.707,-60.5001 949.707,-64 959.707,-67.5001 959.707,-60.5001"/>
</g>
<!-- Node22 -->
<g id="node22" class="node"><title>Node22</title>
<g id="a_node22"><a xlink:href="../../da/d8d/classauthoring_1_1view_1_1propertiesview_1_1_game_object_properties.html#a666800a7063c728f47a848ab730362d3" target="_top" xlink:title="authoring.view.propertiesview.\lGameObjectProperties.GameObjectProperties">
<polygon fill="white" stroke="black" points="502.5,-0 502.5,-30 739.5,-30 739.5,-0 502.5,-0"/>
<text text-anchor="start" x="510.5" y="-18" font-family="Helvetica,sans-Serif" font-size="10.00">authoring.view.propertiesview.</text>
<text text-anchor="middle" x="621" y="-7" font-family="Helvetica,sans-Serif" font-size="10.00">GameObjectProperties.GameObjectProperties</text>
</a>
</g>
</g>
<!-- Node21&#45;&gt;Node22 -->
<g id="edge24" class="edge"><title>Node21&#45;&gt;Node22</title>
<path fill="none" stroke="midnightblue" d="M465.045,-15C477.406,-15 489.98,-15 502.348,-15"/>
<polygon fill="midnightblue" stroke="midnightblue" points="464.721,-11.5001 454.721,-15 464.721,-18.5001 464.721,-11.5001"/>
</g>
<!-- Node23&#45;&gt;Node18 -->
<g id="edge26" class="edge"><title>Node23&#45;&gt;Node18</title>
<path fill="none" stroke="midnightblue" d="M436.603,-64C466.138,-64 499.082,-64 528.81,-64"/>
<polygon fill="midnightblue" stroke="midnightblue" points="436.309,-60.5001 426.309,-64 436.309,-67.5001 436.309,-60.5001"/>
</g>
<!-- Node24&#45;&gt;Node13 -->
<g id="edge28" class="edge"><title>Node24&#45;&gt;Node13</title>
<path fill="none" stroke="midnightblue" d="M475.938,-183.415C490.01,-182.691 504.196,-181.96 517.893,-181.255"/>
<polygon fill="midnightblue" stroke="midnightblue" points="475.528,-179.931 465.721,-183.941 475.888,-186.922 475.528,-179.931"/>
</g>
</g>
</svg>
        <g id="navigator" transform="translate(0 0)" fill="#404254">
                <rect fill="#f2f5e9" fill-opacity="0.5" stroke="#606060" stroke-width=".5" x="0" y="0" width="60" height="60"/>
                <use id="zoomplus" xlink:href="#zoomPlus" x="17" y="9" onmousedown="handleZoom(evt,'in')"/>
                <use id="zoomminus" xlink:href="#zoomMin" x="42" y="9" onmousedown="handleZoom(evt,'out')"/>
                <use id="reset" xlink:href="#resetDef" x="30" y="36" onmousedown="handleReset()"/>
                <g id="arrowUp" xlink:href="#dirArrow" transform="translate(30 24)" onmousedown="handlePan(0,-1)">
                  <use xlink:href="#rim" fill="#404040">
                        <set attributeName="fill" to="#808080" begin="arrowUp.mouseover" end="arrowUp.mouseout"/>
                  </use>
                  <path fill="none" stroke="white" stroke-width="1.5" d="M0,-3.0v7 M-2.5,-0.5L0,-3.0L2.5,-0.5"/>
                </g>
                <g id="arrowRight" xlink:href="#dirArrow" transform="rotate(90) translate(36 -43)" onmousedown="handlePan(1,0)">
                  <use xlink:href="#rim" fill="#404040">
                        <set attributeName="fill" to="#808080" begin="arrowRight.mouseover" end="arrowRight.mouseout"/>
                  </use>
                  <path fill="none" stroke="white" stroke-width="1.5" d="M0,-3.0v7 M-2.5,-0.5L0,-3.0L2.5,-0.5"/>
                </g>
                <g id="arrowDown" xlink:href="#dirArrow" transform="rotate(180) translate(-30 -48)" onmousedown="handlePan(0,1)">
                  <use xlink:href="#rim" fill="#404040">
                        <set attributeName="fill" to="#808080" begin="arrowDown.mouseover" end="arrowDown.mouseout"/>
                  </use>
                  <path fill="none" stroke="white" stroke-width="1.5" d="M0,-3.0v7 M-2.5,-0.5L0,-3.0L2.5,-0.5"/>
                </g>
                <g id="arrowLeft" xlink:href="#dirArrow" transform="rotate(270) translate(-36 17)" onmousedown="handlePan(-1,0)">
                  <use xlink:href="#rim" fill="#404040">
                        <set attributeName="fill" to="#808080" begin="arrowLeft.mouseover" end="arrowLeft.mouseout"/>
                  </use>
                  <path fill="none" stroke="white" stroke-width="1.5" d="M0,-3.0v7 M-2.5,-0.5L0,-3.0L2.5,-0.5"/>
                </g>
        </g>
        <svg viewBox="0 0 15 15" width="100%" height="30px" preserveAspectRatio="xMaxYMin meet">
         <g id="arrow_out" transform="scale(0.3 0.3)">
          <a xlink:href="classengine_1_1game_object_1_1_game_object_accd456b2eaab9c7056de825a28b066c8_icgraph_org.svg" target="_base">
           <rect id="button" ry="5" rx="5" y="6" x="6" height="38" width="38"
                fill="#f2f5e9" fill-opacity="0.5" stroke="#606060" stroke-width="1.0"/>
           <path id="arrow"
             d="M 11.500037,31.436501 C 11.940474,20.09759 22.043105,11.32322 32.158766,21.979434 L 37.068811,17.246167 C 37.068811,17.246167 37.088388,32 37.088388,32 L 22.160133,31.978069 C 22.160133,31.978069 26.997745,27.140456 26.997745,27.140456 C 18.528582,18.264221 13.291696,25.230495 11.500037,31.436501 z"
             style="fill:#404040;"/>
          </a>
         </g>
        </svg>
</svg>
