<?xml version="1.0" encoding="UTF-8" standalone="no"?>
<!DOCTYPE svg PUBLIC "-//W3C//DTD SVG 1.1//EN"
 "http://www.w3.org/Graphics/SVG/1.1/DTD/svg11.dtd">
<!-- Generated by graphviz version 2.36.0 (20140111.2315)
 -->
<!-- Title: engine.gameObject.GameObject.getComponents Pages: 1 -->
<svg width="848pt" height="113pt"
 viewBox="0.00 0.00 848.00 113.00" xmlns="http://www.w3.org/2000/svg" xmlns:xlink="http://www.w3.org/1999/xlink">
<g id="graph0" class="graph" transform="scale(1 1) rotate(0) translate(4 109)">
<title>engine.gameObject.GameObject.getComponents</title>
<polygon fill="white" stroke="none" points="-4,4 -4,-109 844,-109 844,4 -4,4"/>
<!-- Node1 -->
<g id="node1" class="node"><title>Node1</title>
<polygon fill="#bfbfbf" stroke="black" points="0,-25 0,-55 192,-55 192,-25 0,-25"/>
<text text-anchor="start" x="8" y="-43" font-family="Helvetica,sans-Serif" font-size="10.00">engine.gameObject.GameObject.get</text>
<text text-anchor="middle" x="96" y="-32" font-family="Helvetica,sans-Serif" font-size="10.00">Components</text>
</g>
<!-- Node2 -->
<g id="node2" class="node"><title>Node2</title>
<g id="a_node2"><a xlink:href="../../da/d8d/classauthoring_1_1view_1_1propertiesview_1_1_game_object_properties.html#a6f1aeaddb6956053690488c8ddaa38ba" target="_top" xlink:title="authoring.view.propertiesview.\lGameObjectProperties.edit">
<polygon fill="white" stroke="black" points="236.5,-50 236.5,-80 395.5,-80 395.5,-50 236.5,-50"/>
<text text-anchor="start" x="244.5" y="-68" font-family="Helvetica,sans-Serif" font-size="10.00">authoring.view.propertiesview.</text>
<text text-anchor="middle" x="316" y="-57" font-family="Helvetica,sans-Serif" font-size="10.00">GameObjectProperties.edit</text>
</a>
</g>
</g>
<!-- Node1&#45;&gt;Node2 -->
<g id="edge1" class="edge"><title>Node1&#45;&gt;Node2</title>
<path fill="none" stroke="midnightblue" d="M202.308,-52.0766C213.725,-53.3859 225.196,-54.7014 236.22,-55.9656"/>
<polygon fill="midnightblue" stroke="midnightblue" points="202.635,-48.5912 192.301,-50.929 201.837,-55.5456 202.635,-48.5912"/>
</g>
<!-- Node6 -->
<g id="node6" class="node"><title>Node6</title>
<g id="a_node6"><a xlink:href="../../d0/d7f/classengine_1_1game_object_1_1_game_object.html#aa99b0343da84d676c7709cee3cfbc4e1" target="_top" xlink:title="engine.gameObject.GameObject.\lGameObject">
<polygon fill="white" stroke="black" points="228,-1 228,-31 404,-31 404,-1 228,-1"/>
<text text-anchor="start" x="236" y="-19" font-family="Helvetica,sans-Serif" font-size="10.00">engine.gameObject.GameObject.</text>
<text text-anchor="middle" x="316" y="-8" font-family="Helvetica,sans-Serif" font-size="10.00">GameObject</text>
</a>
</g>
</g>
<!-- Node1&#45;&gt;Node6 -->
<g id="edge5" class="edge"><title>Node1&#45;&gt;Node6</title>
<path fill="none" stroke="midnightblue" d="M202.297,-28.4077C210.835,-27.4678 219.403,-26.5245 227.791,-25.601"/>
<polygon fill="midnightblue" stroke="midnightblue" points="201.858,-24.9348 192.301,-29.5082 202.624,-31.8928 201.858,-24.9348"/>
</g>
<!-- Node3 -->
<g id="node3" class="node"><title>Node3</title>
<g id="a_node3"><a xlink:href="../../d4/d9e/classauthoring_1_1view_1_1propertiesview_1_1_properties_view.html#aeed3bf20185eabcf870ee4c649bc1d4e" target="_top" xlink:title="authoring.view.propertiesview.\lPropertiesView.getEditedGameObject">
<polygon fill="white" stroke="black" points="440.5,-50 440.5,-80 635.5,-80 635.5,-50 440.5,-50"/>
<text text-anchor="start" x="448.5" y="-68" font-family="Helvetica,sans-Serif" font-size="10.00">authoring.view.propertiesview.</text>
<text text-anchor="middle" x="538" y="-57" font-family="Helvetica,sans-Serif" font-size="10.00">PropertiesView.getEditedGameObject</text>
</a>
</g>
</g>
<!-- Node2&#45;&gt;Node3 -->
<g id="edge2" class="edge"><title>Node2&#45;&gt;Node3</title>
<path fill="none" stroke="midnightblue" d="M406.061,-65C417.339,-65 428.921,-65 440.311,-65"/>
<polygon fill="midnightblue" stroke="midnightblue" points="405.804,-61.5001 395.804,-65 405.804,-68.5001 405.804,-61.5001"/>
</g>
<!-- Node4 -->
<g id="node4" class="node"><title>Node4</title>
<g id="a_node4"><a xlink:href="../../d6/df5/classauthoring_1_1eventhandlers_1_1_edit_game_object_handler.html#ac0a03e6b751068903df50296d9f1fbd7" target="_top" xlink:title="authoring.eventhandlers.\lEditGameObjectHandler.handle">
<polygon fill="white" stroke="black" points="672.5,-75 672.5,-105 839.5,-105 839.5,-75 672.5,-75"/>
<text text-anchor="start" x="680.5" y="-93" font-family="Helvetica,sans-Serif" font-size="10.00">authoring.eventhandlers.</text>
<text text-anchor="middle" x="756" y="-82" font-family="Helvetica,sans-Serif" font-size="10.00">EditGameObjectHandler.handle</text>
</a>
</g>
</g>
<!-- Node3&#45;&gt;Node4 -->
<g id="edge3" class="edge"><title>Node3&#45;&gt;Node4</title>
<path fill="none" stroke="midnightblue" d="M645.703,-77.3499C654.642,-78.3845 663.593,-79.4205 672.311,-80.4296"/>
<polygon fill="midnightblue" stroke="midnightblue" points="645.964,-73.8568 635.628,-76.1838 645.159,-80.8104 645.964,-73.8568"/>
</g>
<!-- Node5 -->
<g id="node5" class="node"><title>Node5</title>
<g id="a_node5"><a xlink:href="../../df/d81/classauthoring_1_1eventhandlers_1_1_save_as_new_handler.html#a912458649a9a99cded7c346f9d8b40f5" target="_top" xlink:title="authoring.eventhandlers.\lSaveAsNewHandler.handle">
<polygon fill="white" stroke="black" points="683.5,-26 683.5,-56 828.5,-56 828.5,-26 683.5,-26"/>
<text text-anchor="start" x="691.5" y="-44" font-family="Helvetica,sans-Serif" font-size="10.00">authoring.eventhandlers.</text>
<text text-anchor="middle" x="756" y="-33" font-family="Helvetica,sans-Serif" font-size="10.00">SaveAsNewHandler.handle</text>
</a>
</g>
</g>
<!-- Node3&#45;&gt;Node5 -->
<g id="edge4" class="edge"><title>Node3&#45;&gt;Node5</title>
<path fill="none" stroke="midnightblue" d="M645.825,-53.1306C658.561,-51.7154 671.32,-50.2978 683.392,-48.9565"/>
<polygon fill="midnightblue" stroke="midnightblue" points="645.18,-49.6805 635.628,-54.2635 645.954,-56.6377 645.18,-49.6805"/>
</g>
</g>
</svg>
