<?xml version="1.0" encoding="UTF-8" standalone="no"?>
<!DOCTYPE svg PUBLIC "-//W3C//DTD SVG 1.1//EN"
 "http://www.w3.org/Graphics/SVG/1.1/DTD/svg11.dtd">
<!-- Generated by graphviz version 2.36.0 (20140111.2315)
 -->
<!-- Title: engine.conditions.TypeCollisionCondition Pages: 1 -->
<!--zoomable 653 -->
<svg id="main" version="1.1" xmlns="http://www.w3.org/2000/svg" xmlns:xlink="http://www.w3.org/1999/xlink" xml:space="preserve" onload="init(evt)">
<style type="text/css"><![CDATA[
.edge:hover path { stroke: red; }
.edge:hover polygon { stroke: red; fill: red; }
]]></style>
<script type="text/javascript"><![CDATA[
var edges = document.getElementsByTagName('g');
if (edges && edges.length) {
  for (var i=0;i<edges.length;i++) {
    if (edges[i].id.substr(0,4)=='edge') {
      edges[i].setAttribute('class','edge');
    }
  }
}
]]></script>
        <defs>
                <circle id="rim" cx="0" cy="0" r="7"/>
                <circle id="rim2" cx="0" cy="0" r="3.5"/>
                <g id="zoomPlus">
                        <use xlink:href="#rim" fill="#404040">
                                <set attributeName="fill" to="#808080" begin="zoomplus.mouseover" end="zoomplus.mouseout"/>
                        </use>
                        <path d="M-4,0h8M0,-4v8" fill="none" stroke="white" stroke-width="1.5" pointer-events="none"/>
                </g>
                <g id="zoomMin">
                        <use xlink:href="#rim" fill="#404040">
                                <set attributeName="fill" to="#808080" begin="zoomminus.mouseover" end="zoomminus.mouseout"/>
                        </use>
                        <path d="M-4,0h8" fill="none" stroke="white" stroke-width="1.5" pointer-events="none"/>
                </g>
                <g id="dirArrow">
                        <path fill="none" stroke="white" stroke-width="1.5" d="M0,-3.0v7 M-2.5,-0.5L0,-3.0L2.5,-0.5"/>
                </g>
               <g id="resetDef">
                       <use xlink:href="#rim2" fill="#404040">
                               <set attributeName="fill" to="#808080" begin="reset.mouseover" end="reset.mouseout"/>
                       </use>
               </g>
        </defs>

<script type="text/javascript">
var viewWidth = 2346;
var viewHeight = 653;
var sectionId = 'dynsection-1';
</script>
<script xlink:href="../../svgpan.js"/>
<svg id="graph" class="graph">
<g id="viewport">
<title>engine.conditions.TypeCollisionCondition</title>
<polygon fill="white" stroke="none" points="-4,4 -4,-649 2342,-649 2342,4 -4,4"/>
<!-- Node1 -->
<g id="node1" class="node"><title>Node1</title>
<polygon fill="#bfbfbf" stroke="black" points="2174,-341 2174,-371 2338,-371 2338,-341 2174,-341"/>
<text text-anchor="start" x="2182" y="-359" font-family="Helvetica,sans-Serif" font-size="10.00">engine.conditions.TypeCollision</text>
<text text-anchor="middle" x="2256" y="-348" font-family="Helvetica,sans-Serif" font-size="10.00">Condition</text>
</g>
<!-- Node2 -->
<g id="node2" class="node"><title>Node2</title>
<g id="a_node2"><a xlink:href="../../d7/d6b/classengine_1_1conditions_1_1_time_condition.html" target="_top" xlink:title="engine.conditions.TimeCondition">
<polygon fill="white" stroke="black" points="1888,-346.5 1888,-365.5 2060,-365.5 2060,-346.5 1888,-346.5"/>
<text text-anchor="middle" x="1974" y="-353.5" font-family="Helvetica,sans-Serif" font-size="10.00">engine.conditions.TimeCondition</text>
</a>
</g>
</g>
<!-- Node2&#45;&gt;Node1 -->
<g id="edge1" class="edge"><title>Node2&#45;&gt;Node1</title>
<path fill="none" stroke="midnightblue" d="M2070.43,-356C2103.97,-356 2141.33,-356 2173.61,-356"/>
<polygon fill="midnightblue" stroke="midnightblue" points="2070.15,-352.5 2060.15,-356 2070.15,-359.5 2070.15,-352.5"/>
</g>
<!-- Node3 -->
<g id="node3" class="node"><title>Node3</title>
<g id="a_node3"><a xlink:href="../../d1/d3b/classengine_1_1conditions_1_1_condition.html" target="_top" xlink:title="engine.conditions.Condition">
<polygon fill="white" stroke="black" points="1700.5,-104.5 1700.5,-123.5 1849.5,-123.5 1849.5,-104.5 1700.5,-104.5"/>
<text text-anchor="middle" x="1775" y="-111.5" font-family="Helvetica,sans-Serif" font-size="10.00">engine.conditions.Condition</text>
</a>
</g>
</g>
<!-- Node3&#45;&gt;Node2 -->
<g id="edge2" class="edge"><title>Node3&#45;&gt;Node2</title>
<path fill="none" stroke="midnightblue" d="M1779.98,-133.941C1789.87,-177.97 1819.82,-283.795 1888,-337 1892.89,-340.814 1898.39,-343.894 1904.18,-346.376"/>
<polygon fill="midnightblue" stroke="midnightblue" points="1783.36,-132.972 1777.85,-123.923 1776.51,-134.433 1783.36,-132.972"/>
</g>
<!-- Node4 -->
<g id="node4" class="node"><title>Node4</title>
<g id="a_node4"><a xlink:href="../../dc/df6/interfaceengine_1_1game_object_1_1_identifiable.html" target="_top" xlink:title="engine.gameObject.Identifiable">
<polygon fill="white" stroke="black" points="242.5,-3.5 242.5,-22.5 407.5,-22.5 407.5,-3.5 242.5,-3.5"/>
<text text-anchor="middle" x="325" y="-10.5" font-family="Helvetica,sans-Serif" font-size="10.00">engine.gameObject.Identifiable</text>
</a>
</g>
</g>
<!-- Node4&#45;&gt;Node3 -->
<g id="edge3" class="edge"><title>Node4&#45;&gt;Node3</title>
<path fill="none" stroke="midnightblue" d="M417.61,-7.28656C481.349,-3.79676 568.316,-0 645,-0 645,-0 645,-0 1496,-0 1580.56,-0 1605.66,-3.63192 1682,-40 1716.6,-56.4863 1749.74,-88.3724 1765.09,-104.363"/>
<polygon fill="midnightblue" stroke="midnightblue" points="417.375,-3.7941 407.585,-7.84338 417.764,-10.7833 417.375,-3.7941"/>
</g>
<!-- Node15 -->
<g id="node15" class="node"><title>Node15</title>
<g id="a_node15"><a xlink:href="../../df/d84/classengine_1_1level_1_1_level.html" target="_top" xlink:title="engine.level.Level">
<polygon fill="white" stroke="black" points="595.5,-268.5 595.5,-287.5 696.5,-287.5 696.5,-268.5 595.5,-268.5"/>
<text text-anchor="middle" x="646" y="-275.5" font-family="Helvetica,sans-Serif" font-size="10.00">engine.level.Level</text>
</a>
</g>
</g>
<!-- Node4&#45;&gt;Node15 -->
<g id="edge18" class="edge"><title>Node4&#45;&gt;Node15</title>
<path fill="none" stroke="midnightblue" d="M353.148,-27.4473C399.301,-53.3942 493.003,-112.313 544,-188 559.557,-211.089 542.866,-227.776 562,-248 570.951,-257.461 583.108,-263.946 595.356,-268.389"/>
<polygon fill="midnightblue" stroke="midnightblue" points="354.76,-24.3392 344.315,-22.5594 351.37,-30.4638 354.76,-24.3392"/>
</g>
<!-- Node5 -->
<g id="node5" class="node"><title>Node5</title>
<g id="a_node5"><a xlink:href="../../d2/d15/interfaceengine_1_1actions_1_1_initializable.html" target="_top" xlink:title="engine.actions.Initializable">
<polygon fill="white" stroke="black" points="1424,-28.5 1424,-47.5 1566,-47.5 1566,-28.5 1424,-28.5"/>
<text text-anchor="middle" x="1495" y="-35.5" font-family="Helvetica,sans-Serif" font-size="10.00">engine.actions.Initializable</text>
</a>
</g>
</g>
<!-- Node5&#45;&gt;Node3 -->
<g id="edge4" class="edge"><title>Node5&#45;&gt;Node3</title>
<path fill="none" stroke="midnightblue" d="M1576.48,-41.5851C1609.79,-44.802 1648.4,-50.8151 1682,-62 1712.12,-72.0262 1743.54,-92.2488 1760.76,-104.308"/>
<polygon fill="midnightblue" stroke="midnightblue" points="1576.59,-38.0816 1566.32,-40.6739 1575.97,-45.0536 1576.59,-38.0816"/>
</g>
<!-- Node6 -->
<g id="node6" class="node"><title>Node6</title>
<g id="a_node6"><a xlink:href="../../d4/dac/classengine_1_1game_object_1_1_identifier.html" target="_top" xlink:title="engine.gameObject.Identifier">
<polygon fill="white" stroke="black" points="247.5,-172.5 247.5,-191.5 402.5,-191.5 402.5,-172.5 247.5,-172.5"/>
<text text-anchor="middle" x="325" y="-179.5" font-family="Helvetica,sans-Serif" font-size="10.00">engine.gameObject.Identifier</text>
</a>
</g>
</g>
<!-- Node6&#45;&gt;Node3 -->
<g id="edge5" class="edge"><title>Node6&#45;&gt;Node3</title>
<path fill="none" stroke="#9a32cd" stroke-dasharray="5,2" d="M361.18,-168.909C437.923,-140.555 615.852,-76 645,-76 645,-76 645,-76 1496,-76 1579.79,-76 1676.48,-93.1538 1730.91,-104.411"/>
<polygon fill="#9a32cd" stroke="#9a32cd" points="359.641,-165.746 351.477,-172.5 362.07,-172.311 359.641,-165.746"/>
<text text-anchor="middle" x="1074" y="-79" font-family="Helvetica,sans-Serif" font-size="10.00"> myId</text>
</g>
<!-- Node6&#45;&gt;Node15 -->
<g id="edge19" class="edge"><title>Node6&#45;&gt;Node15</title>
<path fill="none" stroke="#9a32cd" stroke-dasharray="5,2" d="M412.77,-188.684C454.544,-194.817 504.097,-206.555 544,-229 554.138,-234.703 552.268,-241.629 562,-248 575.717,-256.98 592.467,-263.694 607.319,-268.467"/>
<polygon fill="#9a32cd" stroke="#9a32cd" points="412.99,-185.181 402.605,-187.278 412.031,-192.115 412.99,-185.181"/>
<text text-anchor="middle" x="485" y="-232" font-family="Helvetica,sans-Serif" font-size="10.00"> myId</text>
</g>
<!-- Node7 -->
<g id="node7" class="node"><title>Node7</title>
<polygon fill="white" stroke="#bfbfbf" points="64,-172.5 64,-191.5 120,-191.5 120,-172.5 64,-172.5"/>
<text text-anchor="middle" x="92" y="-179.5" font-family="Helvetica,sans-Serif" font-size="10.00">Random</text>
</g>
<!-- Node7&#45;&gt;Node6 -->
<g id="edge6" class="edge"><title>Node7&#45;&gt;Node6</title>
<path fill="none" stroke="#9a32cd" stroke-dasharray="5,2" d="M130.511,-182C162.046,-182 208.136,-182 247.423,-182"/>
<polygon fill="#9a32cd" stroke="#9a32cd" points="130.406,-178.5 120.406,-182 130.406,-185.5 130.406,-178.5"/>
<text text-anchor="middle" x="213" y="-185" font-family="Helvetica,sans-Serif" font-size="10.00"> r</text>
</g>
<!-- Node8 -->
<g id="node8" class="node"><title>Node8</title>
<g id="a_node8"><a xlink:href="../../d6/d94/classengine_1_1_game_manager.html" target="_top" xlink:title="engine.GameManager">
<polygon fill="white" stroke="black" points="1433.5,-369.5 1433.5,-388.5 1556.5,-388.5 1556.5,-369.5 1433.5,-369.5"/>
<text text-anchor="middle" x="1495" y="-376.5" font-family="Helvetica,sans-Serif" font-size="10.00">engine.GameManager</text>
</a>
</g>
</g>
<!-- Node8&#45;&gt;Node3 -->
<g id="edge7" class="edge"><title>Node8&#45;&gt;Node3</title>
<path fill="none" stroke="#9a32cd" stroke-dasharray="5,2" d="M1513.5,-362.315C1566.29,-312.001 1722.79,-162.814 1763.98,-123.555"/>
<polygon fill="#9a32cd" stroke="#9a32cd" points="1511.05,-359.821 1506.22,-369.254 1515.88,-364.888 1511.05,-359.821"/>
<text text-anchor="middle" x="1637" y="-289" font-family="Helvetica,sans-Serif" font-size="10.00"> myGameManager</text>
</g>
<!-- Node9 -->
<g id="node9" class="node"><title>Node9</title>
<g id="a_node9"><a xlink:href="../../df/de5/classauthoring_1_1model_1_1collections_1_1_levels_collection.html" target="_top" xlink:title="authoring.model.collections.\lLevelsCollection">
<polygon fill="white" stroke="black" points="570,-111 570,-141 722,-141 722,-111 570,-111"/>
<text text-anchor="start" x="578" y="-129" font-family="Helvetica,sans-Serif" font-size="10.00">authoring.model.collections.</text>
<text text-anchor="middle" x="646" y="-118" font-family="Helvetica,sans-Serif" font-size="10.00">LevelsCollection</text>
</a>
</g>
</g>
<!-- Node9&#45;&gt;Node8 -->
<g id="edge8" class="edge"><title>Node9&#45;&gt;Node8</title>
<path fill="none" stroke="#9a32cd" stroke-dasharray="5,2" d="M732.252,-116.244C906.265,-98.1808 1294.64,-67.9009 1398,-144 1417.83,-158.6 1476.21,-326.827 1490.71,-369.305"/>
<polygon fill="#9a32cd" stroke="#9a32cd" points="731.692,-112.783 722.112,-117.308 732.422,-119.745 731.692,-112.783"/>
<text text-anchor="middle" x="1074" y="-99" font-family="Helvetica,sans-Serif" font-size="10.00"> myLevels</text>
</g>
<!-- Node11 -->
<g id="node11" class="node"><title>Node11</title>
<g id="a_node11"><a xlink:href="../../df/d67/classengine_1_1level_1_1_level_manager.html" target="_top" xlink:title="engine.level.LevelManager">
<polygon fill="white" stroke="black" points="1141.5,-328.5 1141.5,-347.5 1284.5,-347.5 1284.5,-328.5 1141.5,-328.5"/>
<text text-anchor="middle" x="1213" y="-335.5" font-family="Helvetica,sans-Serif" font-size="10.00">engine.level.LevelManager</text>
</a>
</g>
</g>
<!-- Node9&#45;&gt;Node11 -->
<g id="edge12" class="edge"><title>Node9&#45;&gt;Node11</title>
<path fill="none" stroke="#9a32cd" stroke-dasharray="5,2" d="M732.669,-134.224C767.907,-138.153 809.045,-143.445 846,-150 969.578,-171.921 1034.79,-141.643 1114,-239 1133.73,-263.251 1111.15,-283.702 1132,-307 1140.94,-316.99 1153.48,-323.787 1165.99,-328.402"/>
<polygon fill="#9a32cd" stroke="#9a32cd" points="732.738,-130.711 722.417,-133.1 731.976,-137.669 732.738,-130.711"/>
<text text-anchor="middle" x="940" y="-174" font-family="Helvetica,sans-Serif" font-size="10.00"> myLevels</text>
</g>
<!-- Node23 -->
<g id="node23" class="node"><title>Node23</title>
<g id="a_node23"><a xlink:href="../../da/d90/classengine_1_1sound_1_1_sound_utility.html" target="_top" xlink:title="engine.sound.SoundUtility">
<polygon fill="white" stroke="black" points="869,-210.5 869,-229.5 1011,-229.5 1011,-210.5 869,-210.5"/>
<text text-anchor="middle" x="940" y="-217.5" font-family="Helvetica,sans-Serif" font-size="10.00">engine.sound.SoundUtility</text>
</a>
</g>
</g>
<!-- Node9&#45;&gt;Node23 -->
<g id="edge28" class="edge"><title>Node9&#45;&gt;Node23</title>
<path fill="none" stroke="#9a32cd" stroke-dasharray="5,2" d="M713.231,-143.769C752.153,-154.592 802.166,-169.158 846,-184 870.106,-192.162 897.193,-202.821 915.888,-210.417"/>
<polygon fill="#9a32cd" stroke="#9a32cd" points="714.156,-140.393 703.585,-141.1 712.29,-147.14 714.156,-140.393"/>
<text text-anchor="middle" x="797" y="-187" font-family="Helvetica,sans-Serif" font-size="10.00"> myLevels</text>
</g>
<!-- Node10 -->
<g id="node10" class="node"><title>Node10</title>
<g id="a_node10"><a xlink:href="../../d4/d3b/classauthoring_1_1model_1_1collections_1_1_general_collection.html" target="_top" xlink:title="authoring.model.collections.\lGeneralCollection\&lt; Level \&gt;">
<polygon fill="white" stroke="black" points="249,-111 249,-141 401,-141 401,-111 249,-111"/>
<text text-anchor="start" x="257" y="-129" font-family="Helvetica,sans-Serif" font-size="10.00">authoring.model.collections.</text>
<text text-anchor="middle" x="325" y="-118" font-family="Helvetica,sans-Serif" font-size="10.00">GeneralCollection&lt; Level &gt;</text>
</a>
</g>
</g>
<!-- Node10&#45;&gt;Node9 -->
<g id="edge9" class="edge"><title>Node10&#45;&gt;Node9</title>
<path fill="none" stroke="midnightblue" d="M411.216,-126C460.588,-126 522.186,-126 569.758,-126"/>
<polygon fill="midnightblue" stroke="midnightblue" points="411.195,-122.5 401.195,-126 411.195,-129.5 411.195,-122.5"/>
</g>
<!-- Node11&#45;&gt;Node8 -->
<g id="edge10" class="edge"><title>Node11&#45;&gt;Node8</title>
<path fill="none" stroke="#9a32cd" stroke-dasharray="5,2" d="M1288.98,-348.979C1334.14,-355.592 1390.9,-363.903 1433.24,-370.104"/>
<polygon fill="#9a32cd" stroke="#9a32cd" points="1289.34,-345.495 1278.94,-347.509 1288.33,-352.421 1289.34,-345.495"/>
<text text-anchor="middle" x="1355" y="-368" font-family="Helvetica,sans-Serif" font-size="10.00"> myLevelManager</text>
</g>
<!-- Node12 -->
<g id="node12" class="node"><title>Node12</title>
<polygon fill="white" stroke="#bfbfbf" points="890,-354.5 890,-373.5 990,-373.5 990,-354.5 890,-354.5"/>
<text text-anchor="middle" x="940" y="-361.5" font-family="Helvetica,sans-Serif" font-size="10.00">Iterable&lt; Level &gt;</text>
</g>
<!-- Node12&#45;&gt;Node11 -->
<g id="edge11" class="edge"><title>Node12&#45;&gt;Node11</title>
<path fill="none" stroke="midnightblue" d="M1000.05,-358.335C1041.61,-354.347 1097.44,-348.991 1141.36,-344.777"/>
<polygon fill="midnightblue" stroke="midnightblue" points="999.696,-354.852 990.076,-359.292 1000.36,-361.82 999.696,-354.852"/>
</g>
<!-- Node13 -->
<g id="node13" class="node"><title>Node13</title>
<g id="a_node13"><a xlink:href="../../df/de5/classengine_1_1render_1_1_game_object_renderer.html" target="_top" xlink:title="engine.render.GameObject\lRenderer">
<polygon fill="white" stroke="black" points="867,-402 867,-432 1013,-432 1013,-402 867,-402"/>
<text text-anchor="start" x="875" y="-420" font-family="Helvetica,sans-Serif" font-size="10.00">engine.render.GameObject</text>
<text text-anchor="middle" x="940" y="-409" font-family="Helvetica,sans-Serif" font-size="10.00">Renderer</text>
</a>
</g>
</g>
<!-- Node13&#45;&gt;Node8 -->
<g id="edge35" class="edge"><title>Node13&#45;&gt;Node8</title>
<path fill="none" stroke="#9a32cd" stroke-dasharray="5,2" d="M1023.39,-429.133C1026.97,-429.466 1030.52,-429.758 1034,-430 1189.1,-440.788 1372.54,-406.13 1452.87,-388.564"/>
<polygon fill="#9a32cd" stroke="#9a32cd" points="1023.55,-425.631 1013.25,-428.097 1022.84,-432.595 1023.55,-425.631"/>
<text text-anchor="middle" x="1213" y="-435" font-family="Helvetica,sans-Serif" font-size="10.00"> myGameObjectRenderer</text>
</g>
<!-- Node13&#45;&gt;Node11 -->
<g id="edge13" class="edge"><title>Node13&#45;&gt;Node11</title>
<path fill="none" stroke="#9a32cd" stroke-dasharray="5,2" d="M992.489,-398.531C1005.94,-393.915 1020.46,-389.112 1034,-385 1081.25,-370.654 1136.3,-356.505 1172.53,-347.541"/>
<polygon fill="#9a32cd" stroke="#9a32cd" points="991.22,-395.267 982.917,-401.847 993.511,-401.881 991.22,-395.267"/>
<text text-anchor="middle" x="1074" y="-388" font-family="Helvetica,sans-Serif" font-size="10.00"> myRenderer</text>
</g>
<!-- Node14 -->
<g id="node14" class="node"><title>Node14</title>
<polygon fill="white" stroke="#bfbfbf" points="564,-418 564,-448 728,-448 728,-418 564,-418"/>
<text text-anchor="start" x="572" y="-436" font-family="Helvetica,sans-Serif" font-size="10.00">Map&lt; Identifier, engine.render.</text>
<text text-anchor="middle" x="646" y="-425" font-family="Helvetica,sans-Serif" font-size="10.00">RenderedNode &gt;</text>
</g>
<!-- Node14&#45;&gt;Node13 -->
<g id="edge14" class="edge"><title>Node14&#45;&gt;Node13</title>
<path fill="none" stroke="#9a32cd" stroke-dasharray="5,2" d="M738.406,-427.991C779.704,-425.729 827.81,-423.093 866.559,-420.969"/>
<polygon fill="#9a32cd" stroke="#9a32cd" points="738.132,-424.501 728.338,-428.543 738.515,-431.491 738.132,-424.501"/>
<text text-anchor="middle" x="797" y="-431" font-family="Helvetica,sans-Serif" font-size="10.00"> myRenderedNodes</text>
</g>
<!-- Node15&#45;&gt;Node11 -->
<g id="edge26" class="edge"><title>Node15&#45;&gt;Node11</title>
<path fill="none" stroke="#9a32cd" stroke-dasharray="5,2" d="M706.764,-278.058C796.124,-279.108 969.517,-284.879 1114,-312 1136.66,-316.254 1161.79,-322.963 1180.93,-328.5"/>
<polygon fill="#9a32cd" stroke="#9a32cd" points="706.587,-274.556 696.552,-277.954 706.516,-281.556 706.587,-274.556"/>
<text text-anchor="middle" x="940" y="-301" font-family="Helvetica,sans-Serif" font-size="10.00"> myCurrentLevel</text>
</g>
<!-- Node15&#45;&gt;Node13 -->
<g id="edge15" class="edge"><title>Node15&#45;&gt;Node13</title>
<path fill="none" stroke="#9a32cd" stroke-dasharray="5,2" d="M703.953,-289.578C761.817,-301.449 843.34,-318.52 846,-321 866.984,-340.57 845.213,-361.312 864,-383 870.833,-390.888 879.868,-397.042 889.293,-401.81"/>
<polygon fill="#9a32cd" stroke="#9a32cd" points="704.307,-286.078 693.808,-287.5 702.903,-292.936 704.307,-286.078"/>
<text text-anchor="middle" x="797" y="-324" font-family="Helvetica,sans-Serif" font-size="10.00"> myCurrentLevel</text>
</g>
<!-- Node16 -->
<g id="node16" class="node"><title>Node16</title>
<g id="a_node16"><a xlink:href="../../d3/d8d/classdata_1_1_observable.html" target="_top" xlink:title="data.Observable">
<polygon fill="white" stroke="black" points="277.5,-274.5 277.5,-293.5 372.5,-293.5 372.5,-274.5 277.5,-274.5"/>
<text text-anchor="middle" x="325" y="-281.5" font-family="Helvetica,sans-Serif" font-size="10.00">data.Observable</text>
</a>
</g>
</g>
<!-- Node16&#45;&gt;Node15 -->
<g id="edge16" class="edge"><title>Node16&#45;&gt;Node15</title>
<path fill="none" stroke="midnightblue" d="M382.85,-282.931C443.23,-281.795 537.733,-280.018 595.257,-278.936"/>
<polygon fill="midnightblue" stroke="midnightblue" points="382.659,-279.434 372.727,-283.121 382.791,-286.432 382.659,-279.434"/>
</g>
<!-- Node17 -->
<g id="node17" class="node"><title>Node17</title>
<polygon fill="white" stroke="#bfbfbf" points="23,-274.5 23,-293.5 161,-293.5 161,-274.5 23,-274.5"/>
<text text-anchor="middle" x="92" y="-281.5" font-family="Helvetica,sans-Serif" font-size="10.00">Vector&lt; data.Observer &gt;</text>
</g>
<!-- Node17&#45;&gt;Node16 -->
<g id="edge17" class="edge"><title>Node17&#45;&gt;Node16</title>
<path fill="none" stroke="#9a32cd" stroke-dasharray="5,2" d="M171.318,-284C206.521,-284 246.882,-284 277.262,-284"/>
<polygon fill="#9a32cd" stroke="#9a32cd" points="171.058,-280.5 161.058,-284 171.058,-287.5 171.058,-280.5"/>
<text text-anchor="middle" x="213" y="-287" font-family="Helvetica,sans-Serif" font-size="10.00"> obs</text>
</g>
<!-- Node18 -->
<g id="node18" class="node"><title>Node18</title>
<g id="a_node18"><a xlink:href="../../d1/d32/classauthoring_1_1model_1_1collections_1_1_game_objects_collection.html" target="_top" xlink:title="authoring.model.collections.\lGameObjectsCollection">
<polygon fill="white" stroke="black" points="249,-444 249,-474 401,-474 401,-444 249,-444"/>
<text text-anchor="start" x="257" y="-462" font-family="Helvetica,sans-Serif" font-size="10.00">authoring.model.collections.</text>
<text text-anchor="middle" x="325" y="-451" font-family="Helvetica,sans-Serif" font-size="10.00">GameObjectsCollection</text>
</a>
</g>
</g>
<!-- Node18&#45;&gt;Node1 -->
<g id="edge43" class="edge"><title>Node18&#45;&gt;Node1</title>
<path fill="none" stroke="#9a32cd" stroke-dasharray="5,2" d="M347.807,-481.262C396.434,-528.401 519.383,-634 645,-634 645,-634 645,-634 1975,-634 2125.36,-634 2223.72,-429.622 2248.72,-371.342"/>
<polygon fill="#9a32cd" stroke="#9a32cd" points="350.236,-478.742 340.652,-474.224 345.327,-483.732 350.236,-478.742"/>
<text text-anchor="middle" x="1355" y="-637" font-family="Helvetica,sans-Serif" font-size="10.00"> myGameObjects</text>
</g>
<!-- Node18&#45;&gt;Node8 -->
<g id="edge36" class="edge"><title>Node18&#45;&gt;Node8</title>
<path fill="none" stroke="#9a32cd" stroke-dasharray="5,2" d="M366.028,-478.5C412.037,-499.739 490.436,-532.367 562,-545 882.705,-601.613 975.986,-582.171 1294,-512 1341.35,-501.551 1356.82,-504.616 1398,-479 1438.05,-454.083 1473.05,-408.702 1487.25,-388.798"/>
<polygon fill="#9a32cd" stroke="#9a32cd" points="367.257,-475.212 356.715,-474.153 364.296,-481.555 367.257,-475.212"/>
<text text-anchor="middle" x="940" y="-582" font-family="Helvetica,sans-Serif" font-size="10.00"> myGameObjects</text>
</g>
<!-- Node18&#45;&gt;Node11 -->
<g id="edge25" class="edge"><title>Node18&#45;&gt;Node11</title>
<path fill="none" stroke="#9a32cd" stroke-dasharray="5,2" d="M382.091,-440.832C462.251,-415.747 614.644,-371.307 748,-351 799.036,-343.229 812.409,-346.853 864,-345 960.02,-341.552 1071.01,-339.687 1141.33,-338.768"/>
<polygon fill="#9a32cd" stroke="#9a32cd" points="380.698,-437.601 372.21,-443.941 382.799,-444.278 380.698,-437.601"/>
<text text-anchor="middle" x="797" y="-365" font-family="Helvetica,sans-Serif" font-size="10.00"> myTemplateObjects</text>
<text text-anchor="middle" x="797" y="-354" font-family="Helvetica,sans-Serif" font-size="10.00">myGameObjects</text>
</g>
<!-- Node18&#45;&gt;Node15 -->
<g id="edge20" class="edge"><title>Node18&#45;&gt;Node15</title>
<path fill="none" stroke="#9a32cd" stroke-dasharray="5,2" d="M336.19,-434.509C350.959,-402.264 381.502,-346.352 426,-318 433.13,-313.457 532.851,-296.433 595.242,-286.115"/>
<polygon fill="#9a32cd" stroke="#9a32cd" points="332.969,-433.14 332.115,-443.7 339.368,-435.977 332.969,-433.14"/>
<text text-anchor="middle" x="485" y="-332" font-family="Helvetica,sans-Serif" font-size="10.00"> myDefaultGameObjects</text>
<text text-anchor="middle" x="485" y="-321" font-family="Helvetica,sans-Serif" font-size="10.00">myWorkingGameObjects</text>
</g>
<!-- Node19 -->
<g id="node19" class="node"><title>Node19</title>
<g id="a_node19"><a xlink:href="../../d4/d3b/classauthoring_1_1model_1_1collections_1_1_general_collection.html" target="_top" xlink:title="authoring.model.collections.\lGeneralCollection\&lt; GameObject \&gt;">
<polygon fill="white" stroke="black" points="0.5,-444 0.5,-474 183.5,-474 183.5,-444 0.5,-444"/>
<text text-anchor="start" x="8.5" y="-462" font-family="Helvetica,sans-Serif" font-size="10.00">authoring.model.collections.</text>
<text text-anchor="middle" x="92" y="-451" font-family="Helvetica,sans-Serif" font-size="10.00">GeneralCollection&lt; GameObject &gt;</text>
</a>
</g>
</g>
<!-- Node19&#45;&gt;Node18 -->
<g id="edge21" class="edge"><title>Node19&#45;&gt;Node18</title>
<path fill="none" stroke="midnightblue" d="M193.843,-459C212.335,-459 231.337,-459 248.91,-459"/>
<polygon fill="midnightblue" stroke="midnightblue" points="193.634,-455.5 183.634,-459 193.634,-462.5 193.634,-455.5"/>
</g>
<!-- Node20 -->
<g id="node20" class="node"><title>Node20</title>
<polygon fill="white" stroke="#bfbfbf" points="254.5,-225 254.5,-255 395.5,-255 395.5,-225 254.5,-225"/>
<text text-anchor="start" x="262.5" y="-243" font-family="Helvetica,sans-Serif" font-size="10.00">List&lt; engine.gameObject.</text>
<text text-anchor="middle" x="325" y="-232" font-family="Helvetica,sans-Serif" font-size="10.00">Identifier &gt;</text>
</g>
<!-- Node20&#45;&gt;Node15 -->
<g id="edge22" class="edge"><title>Node20&#45;&gt;Node15</title>
<path fill="none" stroke="#9a32cd" stroke-dasharray="5,2" d="M405.575,-241.88C447.024,-243.673 498.436,-247.174 544,-254 566.637,-257.391 591.67,-263.325 611.152,-268.443"/>
<polygon fill="#9a32cd" stroke="#9a32cd" points="405.669,-238.381 395.535,-241.47 405.384,-245.375 405.669,-238.381"/>
<text text-anchor="middle" x="485" y="-268" font-family="Helvetica,sans-Serif" font-size="10.00"> myConditionIdList</text>
<text text-anchor="middle" x="485" y="-257" font-family="Helvetica,sans-Serif" font-size="10.00">myGameObjectIdList</text>
</g>
<!-- Node21 -->
<g id="node21" class="node"><title>Node21</title>
<polygon fill="white" stroke="#bfbfbf" points="623,-516.5 623,-535.5 669,-535.5 669,-516.5 623,-516.5"/>
<text text-anchor="middle" x="646" y="-523.5" font-family="Helvetica,sans-Serif" font-size="10.00">Group</text>
</g>
<!-- Node21&#45;&gt;Node8 -->
<g id="edge38" class="edge"><title>Node21&#45;&gt;Node8</title>
<path fill="none" stroke="#9a32cd" stroke-dasharray="5,2" d="M679.223,-527.189C774.423,-530.017 1062.25,-533.622 1294,-485 1342.16,-474.896 1354.43,-469.869 1398,-447 1430.73,-429.821 1465.17,-402.941 1482.54,-388.666"/>
<polygon fill="#9a32cd" stroke="#9a32cd" points="679.194,-523.687 669.088,-526.869 678.973,-530.683 679.194,-523.687"/>
<text text-anchor="middle" x="1074" y="-523" font-family="Helvetica,sans-Serif" font-size="10.00"> myRootGroup</text>
</g>
<!-- Node21&#45;&gt;Node13 -->
<g id="edge23" class="edge"><title>Node21&#45;&gt;Node13</title>
<path fill="none" stroke="#9a32cd" stroke-dasharray="5,2" d="M679.123,-521.274C694.931,-518.204 713.982,-513.365 730,-506 738.966,-501.878 739.35,-497.749 748,-493 794.925,-467.237 852.435,-445.572 892.014,-432.049"/>
<polygon fill="#9a32cd" stroke="#9a32cd" points="678.491,-517.831 669.268,-523.044 679.729,-524.721 678.491,-517.831"/>
<text text-anchor="middle" x="797" y="-496" font-family="Helvetica,sans-Serif" font-size="10.00"> myCanvas</text>
</g>
<!-- Node22 -->
<g id="node22" class="node"><title>Node22</title>
<g id="a_node22"><a xlink:href="../../d9/db5/classengine_1_1_file_path_utility.html" target="_top" xlink:title="engine.FilePathUtility">
<polygon fill="white" stroke="black" points="588.5,-306.5 588.5,-325.5 703.5,-325.5 703.5,-306.5 588.5,-306.5"/>
<text text-anchor="middle" x="646" y="-313.5" font-family="Helvetica,sans-Serif" font-size="10.00">engine.FilePathUtility</text>
</a>
</g>
</g>
<!-- Node22&#45;&gt;Node13 -->
<g id="edge24" class="edge"><title>Node22&#45;&gt;Node13</title>
<path fill="none" stroke="#9a32cd" stroke-dasharray="5,2" d="M667.875,-331.503C687.57,-345.406 718.411,-365.357 748,-377 785.831,-391.886 830.164,-401.606 866.59,-407.731"/>
<polygon fill="#9a32cd" stroke="#9a32cd" points="669.817,-328.588 659.655,-325.592 665.731,-334.272 669.817,-328.588"/>
<text text-anchor="middle" x="797" y="-407" font-family="Helvetica,sans-Serif" font-size="10.00"> myFilePathUtility</text>
</g>
<!-- Node22&#45;&gt;Node23 -->
<g id="edge31" class="edge"><title>Node22&#45;&gt;Node23</title>
<path fill="none" stroke="#9a32cd" stroke-dasharray="5,2" d="M708.858,-303.884C716.077,-301.871 723.262,-299.583 730,-297 738.545,-293.724 739.652,-290.75 748,-287 802.172,-262.663 868.059,-241.259 906.585,-229.522"/>
<polygon fill="#9a32cd" stroke="#9a32cd" points="707.82,-300.538 699.035,-306.46 709.595,-307.309 707.82,-300.538"/>
<text text-anchor="middle" x="797" y="-290" font-family="Helvetica,sans-Serif" font-size="10.00"> myFilePathUtility</text>
</g>
<!-- Node23&#45;&gt;Node8 -->
<g id="edge39" class="edge"><title>Node23&#45;&gt;Node8</title>
<path fill="none" stroke="#9a32cd" stroke-dasharray="5,2" d="M1021.35,-222.948C1050.77,-225.199 1084.16,-229.136 1114,-236 1257.23,-268.944 1419.22,-343.082 1474.4,-369.46"/>
<polygon fill="#9a32cd" stroke="#9a32cd" points="1021.35,-219.439 1011.12,-222.22 1020.85,-226.421 1021.35,-219.439"/>
<text text-anchor="middle" x="1213" y="-295" font-family="Helvetica,sans-Serif" font-size="10.00"> mySoundUtility</text>
</g>
<!-- Node23&#45;&gt;Node11 -->
<g id="edge27" class="edge"><title>Node23&#45;&gt;Node11</title>
<path fill="none" stroke="#9a32cd" stroke-dasharray="5,2" d="M999.889,-231.545C1041.75,-240.268 1093.96,-252.345 1114,-262 1150.47,-279.566 1186.23,-312.319 1202.65,-328.48"/>
<polygon fill="#9a32cd" stroke="#9a32cd" points="1000.54,-228.107 990.043,-229.515 999.13,-234.962 1000.54,-228.107"/>
<text text-anchor="middle" x="1074" y="-265" font-family="Helvetica,sans-Serif" font-size="10.00"> mySoundPlayer</text>
</g>
<!-- Node24 -->
<g id="node24" class="node"><title>Node24</title>
<polygon fill="white" stroke="#bfbfbf" points="570,-219.5 570,-238.5 722,-238.5 722,-219.5 570,-219.5"/>
<text text-anchor="middle" x="646" y="-226.5" font-family="Helvetica,sans-Serif" font-size="10.00">Map&lt; String, MediaPlayer &gt;</text>
</g>
<!-- Node24&#45;&gt;Node23 -->
<g id="edge29" class="edge"><title>Node24&#45;&gt;Node23</title>
<path fill="none" stroke="#9a32cd" stroke-dasharray="5,2" d="M732.43,-226.367C775.708,-225.033 827.618,-223.433 868.574,-222.171"/>
<polygon fill="#9a32cd" stroke="#9a32cd" points="732.085,-222.876 722.197,-226.682 732.3,-229.872 732.085,-222.876"/>
<text text-anchor="middle" x="797" y="-229" font-family="Helvetica,sans-Serif" font-size="10.00"> myMediaPlayerMap</text>
</g>
<!-- Node25 -->
<g id="node25" class="node"><title>Node25</title>
<polygon fill="white" stroke="#bfbfbf" points="577,-181.5 577,-200.5 715,-200.5 715,-181.5 577,-181.5"/>
<text text-anchor="middle" x="646" y="-188.5" font-family="Helvetica,sans-Serif" font-size="10.00">Map&lt; String, AudioClip &gt;</text>
</g>
<!-- Node25&#45;&gt;Node23 -->
<g id="edge30" class="edge"><title>Node25&#45;&gt;Node23</title>
<path fill="none" stroke="#9a32cd" stroke-dasharray="5,2" d="M725.358,-196.91C762.035,-199.877 806.292,-203.744 846,-208 853.446,-208.798 861.219,-209.697 868.961,-210.634"/>
<polygon fill="#9a32cd" stroke="#9a32cd" points="725.473,-193.408 715.225,-196.097 724.913,-200.385 725.473,-193.408"/>
<text text-anchor="middle" x="797" y="-211" font-family="Helvetica,sans-Serif" font-size="10.00"> myAudioClipMap</text>
</g>
<!-- Node26 -->
<g id="node26" class="node"><title>Node26</title>
<g id="a_node26"><a xlink:href="../../db/d2a/classauthoring_1_1model_1_1collections_1_1_conditions_collection.html" target="_top" xlink:title="authoring.model.collections.\lConditionsCollection">
<polygon fill="white" stroke="black" points="864,-459 864,-489 1016,-489 1016,-459 864,-459"/>
<text text-anchor="start" x="872" y="-477" font-family="Helvetica,sans-Serif" font-size="10.00">authoring.model.collections.</text>
<text text-anchor="middle" x="940" y="-466" font-family="Helvetica,sans-Serif" font-size="10.00">ConditionsCollection</text>
</a>
</g>
</g>
<!-- Node26&#45;&gt;Node8 -->
<g id="edge40" class="edge"><title>Node26&#45;&gt;Node8</title>
<path fill="none" stroke="#9a32cd" stroke-dasharray="5,2" d="M1026.62,-474.785C1120.26,-473.213 1273.58,-463.434 1398,-421 1425.2,-411.721 1455.4,-397.897 1474.53,-388.673"/>
<polygon fill="#9a32cd" stroke="#9a32cd" points="1026.29,-471.289 1016.34,-474.929 1026.39,-478.289 1026.29,-471.289"/>
<text text-anchor="middle" x="1213" y="-473" font-family="Helvetica,sans-Serif" font-size="10.00"> myGameConditions</text>
</g>
<!-- Node26&#45;&gt;Node11 -->
<g id="edge32" class="edge"><title>Node26&#45;&gt;Node11</title>
<path fill="none" stroke="#9a32cd" stroke-dasharray="5,2" d="M984.943,-454.805C995.152,-450.307 1005.97,-445.51 1016,-441 1059.71,-421.348 1071.54,-418.235 1114,-396 1144.12,-380.224 1178.01,-359.465 1197,-347.54"/>
<polygon fill="#9a32cd" stroke="#9a32cd" points="983.522,-451.606 975.777,-458.836 986.34,-458.014 983.522,-451.606"/>
<text text-anchor="middle" x="1074" y="-436" font-family="Helvetica,sans-Serif" font-size="10.00"> myConditions</text>
</g>
<!-- Node27 -->
<g id="node27" class="node"><title>Node27</title>
<g id="a_node27"><a xlink:href="../../d4/d3b/classauthoring_1_1model_1_1collections_1_1_general_collection.html" target="_top" xlink:title="authoring.model.collections.\lGeneralCollection\&lt; Condition \&gt;">
<polygon fill="white" stroke="black" points="562,-467 562,-497 730,-497 730,-467 562,-467"/>
<text text-anchor="start" x="570" y="-485" font-family="Helvetica,sans-Serif" font-size="10.00">authoring.model.collections.</text>
<text text-anchor="middle" x="646" y="-474" font-family="Helvetica,sans-Serif" font-size="10.00">GeneralCollection&lt; Condition &gt;</text>
</a>
</g>
</g>
<!-- Node27&#45;&gt;Node26 -->
<g id="edge33" class="edge"><title>Node27&#45;&gt;Node26</title>
<path fill="none" stroke="midnightblue" d="M740.472,-481.335C773.786,-480.901 811.576,-480.184 846,-479 851.817,-478.8 857.838,-478.557 863.889,-478.288"/>
<polygon fill="midnightblue" stroke="midnightblue" points="740.241,-477.838 730.285,-481.461 740.328,-484.837 740.241,-477.838"/>
</g>
<!-- Node28 -->
<g id="node28" class="node"><title>Node28</title>
<polygon fill="white" stroke="#bfbfbf" points="1185,-144.5 1185,-163.5 1241,-163.5 1241,-144.5 1185,-144.5"/>
<text text-anchor="middle" x="1213" y="-151.5" font-family="Helvetica,sans-Serif" font-size="10.00">Timeline</text>
</g>
<!-- Node28&#45;&gt;Node8 -->
<g id="edge34" class="edge"><title>Node28&#45;&gt;Node8</title>
<path fill="none" stroke="#9a32cd" stroke-dasharray="5,2" d="M1251.38,-148.302C1291.45,-144.29 1355.07,-144.205 1398,-175 1466.7,-224.283 1487.81,-335.631 1492.73,-369.225"/>
<polygon fill="#9a32cd" stroke="#9a32cd" points="1250.78,-144.848 1241.23,-149.452 1251.56,-151.803 1250.78,-144.848"/>
<text text-anchor="middle" x="1355" y="-178" font-family="Helvetica,sans-Serif" font-size="10.00"> myAnimation</text>
</g>
<!-- Node29 -->
<g id="node29" class="node"><title>Node29</title>
<polygon fill="white" stroke="#bfbfbf" points="1132.5,-586.5 1132.5,-605.5 1293.5,-605.5 1293.5,-586.5 1132.5,-586.5"/>
<text text-anchor="middle" x="1213" y="-593.5" font-family="Helvetica,sans-Serif" font-size="10.00">EventHandler&lt; ActionEvent &gt;</text>
</g>
<!-- Node29&#45;&gt;Node8 -->
<g id="edge37" class="edge"><title>Node29&#45;&gt;Node8</title>
<path fill="none" stroke="#9a32cd" stroke-dasharray="5,2" d="M1304.21,-601.134C1336.32,-598.826 1371.14,-591.156 1398,-572 1463.51,-525.285 1486.7,-420.907 1492.44,-388.671"/>
<polygon fill="#9a32cd" stroke="#9a32cd" points="1303.69,-597.658 1293.89,-601.703 1304.07,-604.647 1303.69,-597.658"/>
<text text-anchor="middle" x="1355" y="-604" font-family="Helvetica,sans-Serif" font-size="10.00"> oneFrame</text>
</g>
<!-- Node30 -->
<g id="node30" class="node"><title>Node30</title>
<polygon fill="white" stroke="#bfbfbf" points="1416,-142.5 1416,-161.5 1574,-161.5 1574,-142.5 1416,-142.5"/>
<text text-anchor="middle" x="1495" y="-149.5" font-family="Helvetica,sans-Serif" font-size="10.00">List&lt; engine.actions.Action &gt;</text>
</g>
<!-- Node30&#45;&gt;Node3 -->
<g id="edge41" class="edge"><title>Node30&#45;&gt;Node3</title>
<path fill="none" stroke="#9a32cd" stroke-dasharray="5,2" d="M1584.67,-141.743C1615.51,-137.988 1650.31,-133.541 1682,-129 1693.53,-127.347 1705.86,-125.438 1717.61,-123.546"/>
<polygon fill="#9a32cd" stroke="#9a32cd" points="1583.88,-138.313 1574.37,-142.989 1584.72,-145.263 1583.88,-138.313"/>
<text text-anchor="middle" x="1637" y="-144" font-family="Helvetica,sans-Serif" font-size="10.00"> myActions</text>
</g>
<!-- Node31 -->
<g id="node31" class="node"><title>Node31</title>
<polygon fill="white" stroke="#bfbfbf" points="1434,-104.5 1434,-123.5 1556,-123.5 1556,-104.5 1434,-104.5"/>
<text text-anchor="middle" x="1495" y="-111.5" font-family="Helvetica,sans-Serif" font-size="10.00">Map&lt; String, String &gt;</text>
</g>
<!-- Node31&#45;&gt;Node3 -->
<g id="edge42" class="edge"><title>Node31&#45;&gt;Node3</title>
<path fill="none" stroke="#9a32cd" stroke-dasharray="5,2" d="M1566.49,-114C1607.45,-114 1658.98,-114 1700.44,-114"/>
<polygon fill="#9a32cd" stroke="#9a32cd" points="1566.32,-110.5 1556.32,-114 1566.32,-117.5 1566.32,-110.5"/>
<text text-anchor="middle" x="1637" y="-117" font-family="Helvetica,sans-Serif" font-size="10.00"> myInputs</text>
</g>
<!-- Node32 -->
<g id="node32" class="node"><title>Node32</title>
<polygon fill="white" stroke="#bfbfbf" points="1910,-308.5 1910,-327.5 2038,-327.5 2038,-308.5 1910,-308.5"/>
<text text-anchor="middle" x="1974" y="-315.5" font-family="Helvetica,sans-Serif" font-size="10.00">Map&lt; String, Integer &gt;</text>
</g>
<!-- Node32&#45;&gt;Node1 -->
<g id="edge44" class="edge"><title>Node32&#45;&gt;Node1</title>
<path fill="none" stroke="#9a32cd" stroke-dasharray="5,2" d="M2048.3,-326.909C2081.25,-331.018 2120.6,-336.07 2156,-341 2161.85,-341.815 2167.9,-342.679 2173.98,-343.563"/>
<polygon fill="#9a32cd" stroke="#9a32cd" points="2048.65,-323.425 2038.29,-325.665 2047.78,-330.372 2048.65,-323.425"/>
<text text-anchor="middle" x="2117" y="-344" font-family="Helvetica,sans-Serif" font-size="10.00"> myCollisionMap</text>
</g>
</g>
</svg>
        <g id="navigator" transform="translate(0 0)" fill="#404254">
                <rect fill="#f2f5e9" fill-opacity="0.5" stroke="#606060" stroke-width=".5" x="0" y="0" width="60" height="60"/>
                <use id="zoomplus" xlink:href="#zoomPlus" x="17" y="9" onmousedown="handleZoom(evt,'in')"/>
                <use id="zoomminus" xlink:href="#zoomMin" x="42" y="9" onmousedown="handleZoom(evt,'out')"/>
                <use id="reset" xlink:href="#resetDef" x="30" y="36" onmousedown="handleReset()"/>
                <g id="arrowUp" xlink:href="#dirArrow" transform="translate(30 24)" onmousedown="handlePan(0,-1)">
                  <use xlink:href="#rim" fill="#404040">
                        <set attributeName="fill" to="#808080" begin="arrowUp.mouseover" end="arrowUp.mouseout"/>
                  </use>
                  <path fill="none" stroke="white" stroke-width="1.5" d="M0,-3.0v7 M-2.5,-0.5L0,-3.0L2.5,-0.5"/>
                </g>
                <g id="arrowRight" xlink:href="#dirArrow" transform="rotate(90) translate(36 -43)" onmousedown="handlePan(1,0)">
                  <use xlink:href="#rim" fill="#404040">
                        <set attributeName="fill" to="#808080" begin="arrowRight.mouseover" end="arrowRight.mouseout"/>
                  </use>
                  <path fill="none" stroke="white" stroke-width="1.5" d="M0,-3.0v7 M-2.5,-0.5L0,-3.0L2.5,-0.5"/>
                </g>
                <g id="arrowDown" xlink:href="#dirArrow" transform="rotate(180) translate(-30 -48)" onmousedown="handlePan(0,1)">
                  <use xlink:href="#rim" fill="#404040">
                        <set attributeName="fill" to="#808080" begin="arrowDown.mouseover" end="arrowDown.mouseout"/>
                  </use>
                  <path fill="none" stroke="white" stroke-width="1.5" d="M0,-3.0v7 M-2.5,-0.5L0,-3.0L2.5,-0.5"/>
                </g>
                <g id="arrowLeft" xlink:href="#dirArrow" transform="rotate(270) translate(-36 17)" onmousedown="handlePan(-1,0)">
                  <use xlink:href="#rim" fill="#404040">
                        <set attributeName="fill" to="#808080" begin="arrowLeft.mouseover" end="arrowLeft.mouseout"/>
                  </use>
                  <path fill="none" stroke="white" stroke-width="1.5" d="M0,-3.0v7 M-2.5,-0.5L0,-3.0L2.5,-0.5"/>
                </g>
        </g>
        <svg viewBox="0 0 15 15" width="100%" height="30px" preserveAspectRatio="xMaxYMin meet">
         <g id="arrow_out" transform="scale(0.3 0.3)">
          <a xlink:href="classengine_1_1conditions_1_1_type_collision_condition__coll__graph_org.svg" target="_base">
           <rect id="button" ry="5" rx="5" y="6" x="6" height="38" width="38"
                fill="#f2f5e9" fill-opacity="0.5" stroke="#606060" stroke-width="1.0"/>
           <path id="arrow"
             d="M 11.500037,31.436501 C 11.940474,20.09759 22.043105,11.32322 32.158766,21.979434 L 37.068811,17.246167 C 37.068811,17.246167 37.088388,32 37.088388,32 L 22.160133,31.978069 C 22.160133,31.978069 26.997745,27.140456 26.997745,27.140456 C 18.528582,18.264221 13.291696,25.230495 11.500037,31.436501 z"
             style="fill:#404040;"/>
          </a>
         </g>
        </svg>
</svg>
