<?xml version="1.0" encoding="UTF-8" standalone="no"?>
<!DOCTYPE svg PUBLIC "-//W3C//DTD SVG 1.1//EN"
 "http://www.w3.org/Graphics/SVG/1.1/DTD/svg11.dtd">
<!-- Generated by graphviz version 2.36.0 (20140111.2315)
 -->
<!-- Title: authoring.controller.AuthoringController.initializeViewComponents Pages: 1 -->
<svg width="588pt" height="38pt"
 viewBox="0.00 0.00 588.00 38.00" xmlns="http://www.w3.org/2000/svg" xmlns:xlink="http://www.w3.org/1999/xlink">
<g id="graph0" class="graph" transform="scale(1 1) rotate(0) translate(4 34)">
<title>authoring.controller.AuthoringController.initializeViewComponents</title>
<polygon fill="white" stroke="none" points="-4,4 -4,-34 584,-34 584,4 -4,4"/>
<!-- Node1 -->
<g id="node1" class="node"><title>Node1</title>
<polygon fill="#bfbfbf" stroke="black" points="0.5,-0 0.5,-30 187.5,-30 187.5,-0 0.5,-0"/>
<text text-anchor="start" x="8.5" y="-18" font-family="Helvetica,sans-Serif" font-size="10.00">authoring.controller.Authoring</text>
<text text-anchor="middle" x="94" y="-7" font-family="Helvetica,sans-Serif" font-size="10.00">Controller.initializeViewComponents</text>
</g>
<!-- Node2 -->
<g id="node2" class="node"><title>Node2</title>
<g id="a_node2"><a xlink:href="../../de/d41/classauthoring_1_1controller_1_1_authoring_controller.html#a8efc17f104f4df42f385e8c7b25831e0" target="_top" xlink:title="authoring.controller.Authoring\lController.initializeView">
<polygon fill="white" stroke="black" points="224.5,-0 224.5,-30 383.5,-30 383.5,-0 224.5,-0"/>
<text text-anchor="start" x="232.5" y="-18" font-family="Helvetica,sans-Serif" font-size="10.00">authoring.controller.Authoring</text>
<text text-anchor="middle" x="304" y="-7" font-family="Helvetica,sans-Serif" font-size="10.00">Controller.initializeView</text>
</a>
</g>
</g>
<!-- Node1&#45;&gt;Node2 -->
<g id="edge1" class="edge"><title>Node1&#45;&gt;Node2</title>
<path fill="none" stroke="midnightblue" d="M197.821,-15C206.762,-15 215.714,-15 224.413,-15"/>
<polygon fill="midnightblue" stroke="midnightblue" points="197.746,-11.5001 187.746,-15 197.746,-18.5001 197.746,-11.5001"/>
</g>
<!-- Node3 -->
<g id="node3" class="node"><title>Node3</title>
<g id="a_node3"><a xlink:href="../../de/d41/classauthoring_1_1controller_1_1_authoring_controller.html#aa2e89dc7481c1e7deea1919eae007119" target="_top" xlink:title="authoring.controller.Authoring\lController.AuthoringController">
<polygon fill="white" stroke="black" points="420.5,-0 420.5,-30 579.5,-30 579.5,-0 420.5,-0"/>
<text text-anchor="start" x="428.5" y="-18" font-family="Helvetica,sans-Serif" font-size="10.00">authoring.controller.Authoring</text>
<text text-anchor="middle" x="500" y="-7" font-family="Helvetica,sans-Serif" font-size="10.00">Controller.AuthoringController</text>
</a>
</g>
</g>
<!-- Node2&#45;&gt;Node3 -->
<g id="edge2" class="edge"><title>Node2&#45;&gt;Node3</title>
<path fill="none" stroke="midnightblue" d="M393.895,-15C402.691,-15 411.577,-15 420.26,-15"/>
<polygon fill="midnightblue" stroke="midnightblue" points="393.628,-11.5001 383.628,-15 393.628,-18.5001 393.628,-11.5001"/>
</g>
</g>
</svg>
