<?xml version="1.0" encoding="UTF-8" standalone="no"?>
<!DOCTYPE svg PUBLIC "-//W3C//DTD SVG 1.1//EN"
 "http://www.w3.org/Graphics/SVG/1.1/DTD/svg11.dtd">
<!-- Generated by graphviz version 2.36.0 (20140111.2315)
 -->
<!-- Title: authoring.controller.AuthoringController.saveData Pages: 1 -->
<svg width="788pt" height="742pt"
 viewBox="0.00 0.00 788.00 742.00" xmlns="http://www.w3.org/2000/svg" xmlns:xlink="http://www.w3.org/1999/xlink">
<g id="graph0" class="graph" transform="scale(1 1) rotate(0) translate(4 738)">
<title>authoring.controller.AuthoringController.saveData</title>
<polygon fill="white" stroke="none" points="-4,4 -4,-738 784,-738 784,4 -4,4"/>
<!-- Node1 -->
<g id="node1" class="node"><title>Node1</title>
<polygon fill="#bfbfbf" stroke="black" points="0.5,-112 0.5,-142 159.5,-142 159.5,-112 0.5,-112"/>
<text text-anchor="start" x="8.5" y="-130" font-family="Helvetica,sans-Serif" font-size="10.00">authoring.controller.Authoring</text>
<text text-anchor="middle" x="80" y="-119" font-family="Helvetica,sans-Serif" font-size="10.00">Controller.saveData</text>
</g>
<!-- Node2 -->
<g id="node2" class="node"><title>Node2</title>
<g id="a_node2"><a xlink:href="../../d4/d68/classauthoring_1_1model_1_1_authoring_model.html#a1cdb75c271642f158391ccecc24a539c" target="_top" xlink:title="authoring.model.Authoring\lModel.save">
<polygon fill="white" stroke="black" points="196.5,-112 196.5,-142 341.5,-142 341.5,-112 196.5,-112"/>
<text text-anchor="start" x="204.5" y="-130" font-family="Helvetica,sans-Serif" font-size="10.00">authoring.model.Authoring</text>
<text text-anchor="middle" x="269" y="-119" font-family="Helvetica,sans-Serif" font-size="10.00">Model.save</text>
</a>
</g>
</g>
<!-- Node1&#45;&gt;Node2 -->
<g id="edge1" class="edge"><title>Node1&#45;&gt;Node2</title>
<path fill="none" stroke="midnightblue" d="M159.763,-127C168.515,-127 177.445,-127 186.234,-127"/>
<polygon fill="midnightblue" stroke="midnightblue" points="186.467,-130.5 196.467,-127 186.467,-123.5 186.467,-130.5"/>
</g>
<!-- Node3 -->
<g id="node3" class="node"><title>Node3</title>
<g id="a_node3"><a xlink:href="../../d4/d68/classauthoring_1_1model_1_1_authoring_model.html#ab3e6b375a2e8fdc73b351fc873ce214e" target="_top" xlink:title="authoring.model.Authoring\lModel.convertToSerializable">
<polygon fill="white" stroke="black" points="397.5,-404 397.5,-434 546.5,-434 546.5,-404 397.5,-404"/>
<text text-anchor="start" x="405.5" y="-422" font-family="Helvetica,sans-Serif" font-size="10.00">authoring.model.Authoring</text>
<text text-anchor="middle" x="472" y="-411" font-family="Helvetica,sans-Serif" font-size="10.00">Model.convertToSerializable</text>
</a>
</g>
</g>
<!-- Node2&#45;&gt;Node3 -->
<g id="edge2" class="edge"><title>Node2&#45;&gt;Node3</title>
<path fill="none" stroke="midnightblue" d="M280.524,-142.288C313.493,-190.185 414.948,-337.571 454.743,-395.383"/>
<polygon fill="midnightblue" stroke="midnightblue" points="452.027,-397.611 460.581,-403.863 457.793,-393.642 452.027,-397.611"/>
</g>
<!-- Node17 -->
<g id="node17" class="node"><title>Node17</title>
<g id="a_node17"><a xlink:href="../../d1/d95/classdata_1_1_data_manager.html#a138b23f88dcdd16ef1a2a095638963dc" target="_top" xlink:title="data.DataManager.writeGameFile">
<polygon fill="white" stroke="black" points="384,-136.5 384,-155.5 560,-155.5 560,-136.5 384,-136.5"/>
<text text-anchor="middle" x="472" y="-143.5" font-family="Helvetica,sans-Serif" font-size="10.00">data.DataManager.writeGameFile</text>
</a>
</g>
</g>
<!-- Node2&#45;&gt;Node17 -->
<g id="edge16" class="edge"><title>Node2&#45;&gt;Node17</title>
<path fill="none" stroke="midnightblue" d="M341.714,-133.779C352.052,-134.756 362.834,-135.775 373.569,-136.79"/>
<polygon fill="midnightblue" stroke="midnightblue" points="373.546,-140.303 383.831,-137.76 374.205,-133.335 373.546,-140.303"/>
</g>
<!-- Node19 -->
<g id="node19" class="node"><title>Node19</title>
<g id="a_node19"><a xlink:href="../../d1/d95/classdata_1_1_data_manager.html#a635a83b3bf3ae9c504c420c3794c47cc" target="_top" xlink:title="data.DataManager.writeProgressFile">
<polygon fill="white" stroke="black" points="378,-98.5 378,-117.5 566,-117.5 566,-98.5 378,-98.5"/>
<text text-anchor="middle" x="472" y="-105.5" font-family="Helvetica,sans-Serif" font-size="10.00">data.DataManager.writeProgressFile</text>
</a>
</g>
</g>
<!-- Node2&#45;&gt;Node19 -->
<g id="edge18" class="edge"><title>Node2&#45;&gt;Node19</title>
<path fill="none" stroke="midnightblue" d="M341.714,-120.221C350.233,-119.416 359.054,-118.582 367.901,-117.746"/>
<polygon fill="midnightblue" stroke="midnightblue" points="368.261,-121.227 377.887,-116.802 367.602,-114.258 368.261,-121.227"/>
</g>
<!-- Node20 -->
<g id="node20" class="node"><title>Node20</title>
<g id="a_node20"><a xlink:href="../../de/d50/classerrors_and_exceptions_1_1_error_pop_up.html#a879c9fa857c162edfab75ecf1558c944" target="_top" xlink:title="errorsAndExceptions.Error\lPopUp.display">
<polygon fill="white" stroke="black" points="401,-49 401,-79 543,-79 543,-49 401,-49"/>
<text text-anchor="start" x="409" y="-67" font-family="Helvetica,sans-Serif" font-size="10.00">errorsAndExceptions.Error</text>
<text text-anchor="middle" x="472" y="-56" font-family="Helvetica,sans-Serif" font-size="10.00">PopUp.display</text>
</a>
</g>
</g>
<!-- Node2&#45;&gt;Node20 -->
<g id="edge20" class="edge"><title>Node2&#45;&gt;Node20</title>
<path fill="none" stroke="midnightblue" d="M310.529,-111.922C330.691,-104.631 355.501,-95.9712 378,-89 385.92,-86.546 394.262,-84.1045 402.565,-81.7629"/>
<polygon fill="midnightblue" stroke="midnightblue" points="403.569,-85.1164 412.266,-79.065 401.694,-78.3723 403.569,-85.1164"/>
</g>
<!-- Node4 -->
<g id="node4" class="node"><title>Node4</title>
<g id="a_node4"><a xlink:href="../../d7/dbf/classauthoring_1_1model_1_1_game_data.html#a5646a2267289545d487d4fe4a8a6298e" target="_top" xlink:title="authoring.model.GameData.get\lImages">
<polygon fill="white" stroke="black" points="606,-704 606,-734 776,-734 776,-704 606,-704"/>
<text text-anchor="start" x="614" y="-722" font-family="Helvetica,sans-Serif" font-size="10.00">authoring.model.GameData.get</text>
<text text-anchor="middle" x="691" y="-711" font-family="Helvetica,sans-Serif" font-size="10.00">Images</text>
</a>
</g>
</g>
<!-- Node3&#45;&gt;Node4 -->
<g id="edge3" class="edge"><title>Node3&#45;&gt;Node4</title>
<path fill="none" stroke="midnightblue" d="M475.573,-434.162C484.251,-480.518 516.816,-621.595 602,-694 604.012,-695.71 606.134,-697.303 608.342,-698.788"/>
<polygon fill="midnightblue" stroke="midnightblue" points="606.846,-701.967 617.245,-703.992 610.378,-695.924 606.846,-701.967"/>
</g>
<!-- Node5 -->
<g id="node5" class="node"><title>Node5</title>
<g id="a_node5"><a xlink:href="../../d4/d3b/classauthoring_1_1model_1_1collections_1_1_general_collection.html#a1bdc1047736bbb23259d6a7fe4c6deeb" target="_top" xlink:title="authoring.model.collections.\lGeneralCollection.add">
<polygon fill="white" stroke="black" points="615,-655 615,-685 767,-685 767,-655 615,-655"/>
<text text-anchor="start" x="623" y="-673" font-family="Helvetica,sans-Serif" font-size="10.00">authoring.model.collections.</text>
<text text-anchor="middle" x="691" y="-662" font-family="Helvetica,sans-Serif" font-size="10.00">GeneralCollection.add</text>
</a>
</g>
</g>
<!-- Node3&#45;&gt;Node5 -->
<g id="edge4" class="edge"><title>Node3&#45;&gt;Node5</title>
<path fill="none" stroke="midnightblue" d="M477.189,-434.037C489.286,-474.618 528.2,-587.194 602,-645 604.286,-646.79 606.694,-648.453 609.195,-649.996"/>
<polygon fill="midnightblue" stroke="midnightblue" points="607.56,-653.09 618.016,-654.797 610.906,-646.942 607.56,-653.09"/>
</g>
<!-- Node6 -->
<g id="node6" class="node"><title>Node6</title>
<g id="a_node6"><a xlink:href="../../d7/dbf/classauthoring_1_1model_1_1_game_data.html#ab6eab149af02a9649d0e2b162daf3600" target="_top" xlink:title="authoring.model.GameData.get\lGameObjects">
<polygon fill="white" stroke="black" points="606,-606 606,-636 776,-636 776,-606 606,-606"/>
<text text-anchor="start" x="614" y="-624" font-family="Helvetica,sans-Serif" font-size="10.00">authoring.model.GameData.get</text>
<text text-anchor="middle" x="691" y="-613" font-family="Helvetica,sans-Serif" font-size="10.00">GameObjects</text>
</a>
</g>
</g>
<!-- Node3&#45;&gt;Node6 -->
<g id="edge5" class="edge"><title>Node3&#45;&gt;Node6</title>
<path fill="none" stroke="midnightblue" d="M479.742,-434.202C495.755,-468.52 539.463,-552.394 602,-596 604.889,-598.014 607.937,-599.867 611.096,-601.571"/>
<polygon fill="midnightblue" stroke="midnightblue" points="609.722,-604.794 620.249,-605.991 612.766,-598.491 609.722,-604.794"/>
</g>
<!-- Node7 -->
<g id="node7" class="node"><title>Node7</title>
<g id="a_node7"><a xlink:href="../../d7/dbf/classauthoring_1_1model_1_1_game_data.html#a5188274f1af76c8d2e05a7c8dcba3805" target="_top" xlink:title="authoring.model.GameData.get\lLevels">
<polygon fill="white" stroke="black" points="606,-557 606,-587 776,-587 776,-557 606,-557"/>
<text text-anchor="start" x="614" y="-575" font-family="Helvetica,sans-Serif" font-size="10.00">authoring.model.GameData.get</text>
<text text-anchor="middle" x="691" y="-564" font-family="Helvetica,sans-Serif" font-size="10.00">Levels</text>
</a>
</g>
</g>
<!-- Node3&#45;&gt;Node7 -->
<g id="edge6" class="edge"><title>Node3&#45;&gt;Node7</title>
<path fill="none" stroke="midnightblue" d="M483.983,-434.103C504.26,-460.889 550.253,-516.74 602,-547 605.702,-549.165 609.602,-551.151 613.616,-552.972"/>
<polygon fill="midnightblue" stroke="midnightblue" points="612.576,-556.33 623.154,-556.929 615.259,-549.864 612.576,-556.33"/>
</g>
<!-- Node8 -->
<g id="node8" class="node"><title>Node8</title>
<g id="a_node8"><a xlink:href="../../df/d84/classengine_1_1level_1_1_level.html#ac6aa999d5ea5fa90274d0d201dab1f8c" target="_top" xlink:title="engine.level.Level.setStart\lIndicator">
<polygon fill="white" stroke="black" points="619.5,-508 619.5,-538 762.5,-538 762.5,-508 619.5,-508"/>
<text text-anchor="start" x="627.5" y="-526" font-family="Helvetica,sans-Serif" font-size="10.00">engine.level.Level.setStart</text>
<text text-anchor="middle" x="691" y="-515" font-family="Helvetica,sans-Serif" font-size="10.00">Indicator</text>
</a>
</g>
</g>
<!-- Node3&#45;&gt;Node8 -->
<g id="edge7" class="edge"><title>Node3&#45;&gt;Node8</title>
<path fill="none" stroke="midnightblue" d="M493.926,-434.308C518.664,-451.799 561.592,-480.286 602,-498 607.405,-500.369 613.094,-502.577 618.872,-504.621"/>
<polygon fill="midnightblue" stroke="midnightblue" points="618.051,-508.038 628.645,-507.906 620.281,-501.402 618.051,-508.038"/>
</g>
<!-- Node9 -->
<g id="node9" class="node"><title>Node9</title>
<g id="a_node9"><a xlink:href="../../df/d84/classengine_1_1level_1_1_level.html#a978e8f0a732aecf29203b898e27b16b0" target="_top" xlink:title="engine.level.Level.setIdentifier">
<polygon fill="white" stroke="black" points="610.5,-469.5 610.5,-488.5 771.5,-488.5 771.5,-469.5 610.5,-469.5"/>
<text text-anchor="middle" x="691" y="-476.5" font-family="Helvetica,sans-Serif" font-size="10.00">engine.level.Level.setIdentifier</text>
</a>
</g>
</g>
<!-- Node3&#45;&gt;Node9 -->
<g id="edge8" class="edge"><title>Node3&#45;&gt;Node9</title>
<path fill="none" stroke="midnightblue" d="M516.876,-434.087C541.69,-442.331 573.387,-452.383 602,-460 611.629,-462.563 621.919,-465.028 631.944,-467.285"/>
<polygon fill="midnightblue" stroke="midnightblue" points="631.328,-470.733 641.847,-469.468 632.835,-463.897 631.328,-470.733"/>
</g>
<!-- Node10 -->
<g id="node10" class="node"><title>Node10</title>
<g id="a_node10"><a xlink:href="../../df/d84/classengine_1_1level_1_1_level.html#a1b07e6b160c4d26c8f02c1d57ef117bc" target="_top" xlink:title="engine.level.Level.setConditionIds">
<polygon fill="white" stroke="black" points="602,-431.5 602,-450.5 780,-450.5 780,-431.5 602,-431.5"/>
<text text-anchor="middle" x="691" y="-438.5" font-family="Helvetica,sans-Serif" font-size="10.00">engine.level.Level.setConditionIds</text>
</a>
</g>
</g>
<!-- Node3&#45;&gt;Node10 -->
<g id="edge9" class="edge"><title>Node3&#45;&gt;Node10</title>
<path fill="none" stroke="midnightblue" d="M546.769,-426.479C561.145,-427.936 576.43,-429.486 591.458,-431.01"/>
<polygon fill="midnightblue" stroke="midnightblue" points="591.504,-434.532 601.806,-432.059 592.21,-427.568 591.504,-434.532"/>
</g>
<!-- Node11 -->
<g id="node11" class="node"><title>Node11</title>
<g id="a_node11"><a xlink:href="../../df/d84/classengine_1_1level_1_1_level.html#a0a4cb515a5d4c8144a881486189ecb4c" target="_top" xlink:title="engine.level.Level.setBackground\lImage">
<polygon fill="white" stroke="black" points="603,-382 603,-412 779,-412 779,-382 603,-382"/>
<text text-anchor="start" x="611" y="-400" font-family="Helvetica,sans-Serif" font-size="10.00">engine.level.Level.setBackground</text>
<text text-anchor="middle" x="691" y="-389" font-family="Helvetica,sans-Serif" font-size="10.00">Image</text>
</a>
</g>
</g>
<!-- Node3&#45;&gt;Node11 -->
<g id="edge10" class="edge"><title>Node3&#45;&gt;Node11</title>
<path fill="none" stroke="midnightblue" d="M546.769,-411.521C561.585,-410.019 577.367,-408.419 592.839,-406.85"/>
<polygon fill="midnightblue" stroke="midnightblue" points="593.351,-410.317 602.947,-405.826 592.645,-403.352 593.351,-410.317"/>
</g>
<!-- Node12 -->
<g id="node12" class="node"><title>Node12</title>
<g id="a_node12"><a xlink:href="../../df/d84/classengine_1_1level_1_1_level.html#a7d156d06e5396af71c3d69b47dedcc66" target="_top" xlink:title="engine.level.Level.setBackground\lMusic">
<polygon fill="white" stroke="black" points="603,-333 603,-363 779,-363 779,-333 603,-333"/>
<text text-anchor="start" x="611" y="-351" font-family="Helvetica,sans-Serif" font-size="10.00">engine.level.Level.setBackground</text>
<text text-anchor="middle" x="691" y="-340" font-family="Helvetica,sans-Serif" font-size="10.00">Music</text>
</a>
</g>
</g>
<!-- Node3&#45;&gt;Node12 -->
<g id="edge11" class="edge"><title>Node3&#45;&gt;Node12</title>
<path fill="none" stroke="midnightblue" d="M513.15,-403.916C538.491,-394.586 571.994,-382.601 602,-373 609.445,-370.618 617.281,-368.228 625.081,-365.92"/>
<polygon fill="midnightblue" stroke="midnightblue" points="626.292,-369.213 634.91,-363.049 624.33,-362.493 626.292,-369.213"/>
</g>
<!-- Node13 -->
<g id="node13" class="node"><title>Node13</title>
<g id="a_node13"><a xlink:href="../../df/de5/classauthoring_1_1model_1_1collections_1_1_levels_collection.html#ab355be93ea3c8a0f359099c4bf93ae10" target="_top" xlink:title="authoring.model.collections.\lLevelsCollection.add">
<polygon fill="white" stroke="black" points="615,-284 615,-314 767,-314 767,-284 615,-284"/>
<text text-anchor="start" x="623" y="-302" font-family="Helvetica,sans-Serif" font-size="10.00">authoring.model.collections.</text>
<text text-anchor="middle" x="691" y="-291" font-family="Helvetica,sans-Serif" font-size="10.00">LevelsCollection.add</text>
</a>
</g>
</g>
<!-- Node3&#45;&gt;Node13 -->
<g id="edge12" class="edge"><title>Node3&#45;&gt;Node13</title>
<path fill="none" stroke="midnightblue" d="M489.249,-403.985C512.544,-383.208 557.546,-345.792 602,-324 606.813,-321.641 611.887,-319.469 617.068,-317.476"/>
<polygon fill="midnightblue" stroke="midnightblue" points="618.26,-320.767 626.479,-314.081 615.885,-314.182 618.26,-320.767"/>
</g>
<!-- Node14 -->
<g id="node14" class="node"><title>Node14</title>
<g id="a_node14"><a xlink:href="../../d7/dbf/classauthoring_1_1model_1_1_game_data.html#a4a3bfa5ed2418ba59bdf3e73b4ce310a" target="_top" xlink:title="authoring.model.GameData.get\lConditions">
<polygon fill="white" stroke="black" points="606,-235 606,-265 776,-265 776,-235 606,-235"/>
<text text-anchor="start" x="614" y="-253" font-family="Helvetica,sans-Serif" font-size="10.00">authoring.model.GameData.get</text>
<text text-anchor="middle" x="691" y="-242" font-family="Helvetica,sans-Serif" font-size="10.00">Conditions</text>
</a>
</g>
</g>
<!-- Node3&#45;&gt;Node14 -->
<g id="edge13" class="edge"><title>Node3&#45;&gt;Node14</title>
<path fill="none" stroke="midnightblue" d="M482.318,-403.824C501.171,-374.411 546.781,-309.508 602,-275 605.388,-272.883 608.96,-270.94 612.647,-269.158"/>
<polygon fill="midnightblue" stroke="midnightblue" points="614.258,-272.274 622.01,-265.052 611.446,-265.863 614.258,-272.274"/>
</g>
<!-- Node15 -->
<g id="node15" class="node"><title>Node15</title>
<g id="a_node15"><a xlink:href="../../db/d2a/classauthoring_1_1model_1_1collections_1_1_conditions_collection.html#af4aa1e8459d542b7f0e78ffe3b004d77" target="_top" xlink:title="authoring.model.collections.\lConditionsCollection.add">
<polygon fill="white" stroke="black" points="615,-186 615,-216 767,-216 767,-186 615,-186"/>
<text text-anchor="start" x="623" y="-204" font-family="Helvetica,sans-Serif" font-size="10.00">authoring.model.collections.</text>
<text text-anchor="middle" x="691" y="-193" font-family="Helvetica,sans-Serif" font-size="10.00">ConditionsCollection.add</text>
</a>
</g>
</g>
<!-- Node3&#45;&gt;Node15 -->
<g id="edge14" class="edge"><title>Node3&#45;&gt;Node15</title>
<path fill="none" stroke="midnightblue" d="M478.793,-403.799C493.496,-367.294 535.853,-274.147 602,-226 604.55,-224.144 607.234,-222.425 610.016,-220.834"/>
<polygon fill="midnightblue" stroke="midnightblue" points="611.859,-223.823 619.189,-216.173 608.688,-217.583 611.859,-223.823"/>
</g>
<!-- Node16 -->
<g id="node16" class="node"><title>Node16</title>
<g id="a_node16"><a xlink:href="../../d7/dbf/classauthoring_1_1model_1_1_game_data.html#a4c24125abc447d6793b3d31091d7912a" target="_top" xlink:title="authoring.model.GameData.get\lSounds">
<polygon fill="white" stroke="black" points="606,-137 606,-167 776,-167 776,-137 606,-137"/>
<text text-anchor="start" x="614" y="-155" font-family="Helvetica,sans-Serif" font-size="10.00">authoring.model.GameData.get</text>
<text text-anchor="middle" x="691" y="-144" font-family="Helvetica,sans-Serif" font-size="10.00">Sounds</text>
</a>
</g>
</g>
<!-- Node3&#45;&gt;Node16 -->
<g id="edge15" class="edge"><title>Node3&#45;&gt;Node16</title>
<path fill="none" stroke="midnightblue" d="M476.617,-403.843C487.584,-361.241 524.56,-239.485 602,-177 604.26,-175.177 606.645,-173.486 609.127,-171.919"/>
<polygon fill="midnightblue" stroke="midnightblue" points="610.851,-174.965 617.896,-167.052 607.454,-168.845 610.851,-174.965"/>
</g>
<!-- Node18 -->
<g id="node18" class="node"><title>Node18</title>
<g id="a_node18"><a xlink:href="../../d1/d95/classdata_1_1_data_manager.html#a1d751c9995395d782f423aed87a6e51e" target="_top" xlink:title="data.DataManager.writeFile">
<polygon fill="white" stroke="black" points="618,-98.5 618,-117.5 764,-117.5 764,-98.5 618,-98.5"/>
<text text-anchor="middle" x="691" y="-105.5" font-family="Helvetica,sans-Serif" font-size="10.00">data.DataManager.writeFile</text>
</a>
</g>
</g>
<!-- Node17&#45;&gt;Node18 -->
<g id="edge17" class="edge"><title>Node17&#45;&gt;Node18</title>
<path fill="none" stroke="midnightblue" d="M527.478,-136.46C557.272,-131.243 594.363,-124.747 625.585,-119.28"/>
<polygon fill="midnightblue" stroke="midnightblue" points="626.253,-122.716 635.499,-117.544 625.046,-115.821 626.253,-122.716"/>
</g>
<!-- Node19&#45;&gt;Node18 -->
<g id="edge19" class="edge"><title>Node19&#45;&gt;Node18</title>
<path fill="none" stroke="midnightblue" d="M566.287,-108C580.018,-108 594.08,-108 607.571,-108"/>
<polygon fill="midnightblue" stroke="midnightblue" points="607.761,-111.5 617.761,-108 607.761,-104.5 607.761,-111.5"/>
</g>
<!-- Node21 -->
<g id="node21" class="node"><title>Node21</title>
<g id="a_node21"><a xlink:href="../../de/d50/classerrors_and_exceptions_1_1_error_pop_up.html#adecc4a2ab81e607673649e10e6d7da52" target="_top" xlink:title="errorsAndExceptions.Error\lPopUp.createButton">
<polygon fill="white" stroke="black" points="620,-49 620,-79 762,-79 762,-49 620,-49"/>
<text text-anchor="start" x="628" y="-67" font-family="Helvetica,sans-Serif" font-size="10.00">errorsAndExceptions.Error</text>
<text text-anchor="middle" x="691" y="-56" font-family="Helvetica,sans-Serif" font-size="10.00">PopUp.createButton</text>
</a>
</g>
</g>
<!-- Node20&#45;&gt;Node21 -->
<g id="edge21" class="edge"><title>Node20&#45;&gt;Node21</title>
<path fill="none" stroke="midnightblue" d="M543.154,-64C564.32,-64 587.72,-64 609.503,-64"/>
<polygon fill="midnightblue" stroke="midnightblue" points="609.716,-67.5001 619.716,-64 609.716,-60.5001 609.716,-67.5001"/>
</g>
<!-- Node22 -->
<g id="node22" class="node"><title>Node22</title>
<g id="a_node22"><a xlink:href="../../de/d50/classerrors_and_exceptions_1_1_error_pop_up.html#a98549e423869b27d7ee3c87270786f60" target="_top" xlink:title="errorsAndExceptions.Error\lPopUp.chooseStageWidth">
<polygon fill="white" stroke="black" points="620,-0 620,-30 762,-30 762,-0 620,-0"/>
<text text-anchor="start" x="628" y="-18" font-family="Helvetica,sans-Serif" font-size="10.00">errorsAndExceptions.Error</text>
<text text-anchor="middle" x="691" y="-7" font-family="Helvetica,sans-Serif" font-size="10.00">PopUp.chooseStageWidth</text>
</a>
</g>
</g>
<!-- Node20&#45;&gt;Node22 -->
<g id="edge22" class="edge"><title>Node20&#45;&gt;Node22</title>
<path fill="none" stroke="midnightblue" d="M539.582,-48.9654C563.015,-43.6741 589.53,-37.6867 613.701,-32.2288"/>
<polygon fill="midnightblue" stroke="midnightblue" points="614.561,-35.6229 623.544,-30.0062 613.019,-28.7948 614.561,-35.6229"/>
</g>
</g>
</svg>
