<?xml version="1.0" encoding="UTF-8" standalone="no"?>
<!DOCTYPE svg PUBLIC "-//W3C//DTD SVG 1.1//EN"
 "http://www.w3.org/Graphics/SVG/1.1/DTD/svg11.dtd">
<!-- Generated by graphviz version 2.36.0 (20140111.2315)
 -->
<!-- Title: authoring.controller.AuthoringController.initializeObs Pages: 1 -->
<svg width="580pt" height="234pt"
 viewBox="0.00 0.00 580.00 234.00" xmlns="http://www.w3.org/2000/svg" xmlns:xlink="http://www.w3.org/1999/xlink">
<g id="graph0" class="graph" transform="scale(1 1) rotate(0) translate(4 230)">
<title>authoring.controller.AuthoringController.initializeObs</title>
<polygon fill="white" stroke="none" points="-4,4 -4,-230 576,-230 576,4 -4,4"/>
<!-- Node1 -->
<g id="node1" class="node"><title>Node1</title>
<polygon fill="#bfbfbf" stroke="black" points="0.5,-98 0.5,-128 159.5,-128 159.5,-98 0.5,-98"/>
<text text-anchor="start" x="8.5" y="-116" font-family="Helvetica,sans-Serif" font-size="10.00">authoring.controller.Authoring</text>
<text text-anchor="middle" x="80" y="-105" font-family="Helvetica,sans-Serif" font-size="10.00">Controller.initializeObs</text>
</g>
<!-- Node2 -->
<g id="node2" class="node"><title>Node2</title>
<g id="a_node2"><a xlink:href="../../d4/d68/classauthoring_1_1model_1_1_authoring_model.html#add8c0f47d979f36f05c4a50eaf56be05" target="_top" xlink:title="authoring.model.Authoring\lModel.getConditions">
<polygon fill="white" stroke="black" points="208.5,-196 208.5,-226 353.5,-226 353.5,-196 208.5,-196"/>
<text text-anchor="start" x="216.5" y="-214" font-family="Helvetica,sans-Serif" font-size="10.00">authoring.model.Authoring</text>
<text text-anchor="middle" x="281" y="-203" font-family="Helvetica,sans-Serif" font-size="10.00">Model.getConditions</text>
</a>
</g>
</g>
<!-- Node1&#45;&gt;Node2 -->
<g id="edge1" class="edge"><title>Node1&#45;&gt;Node2</title>
<path fill="none" stroke="midnightblue" d="M101.207,-128.279C123.437,-144.485 160.706,-169.923 196,-186 201.234,-188.384 206.753,-190.609 212.359,-192.67"/>
<polygon fill="midnightblue" stroke="midnightblue" points="211.247,-195.989 221.842,-195.983 213.556,-189.381 211.247,-195.989"/>
</g>
<!-- Node4 -->
<g id="node4" class="node"><title>Node4</title>
<g id="a_node4"><a xlink:href="../../d4/d68/classauthoring_1_1model_1_1_authoring_model.html#a87180f6e7da3deba3c362fb21b5b9a92" target="_top" xlink:title="authoring.model.Authoring\lModel.getGameObjectCollection">
<polygon fill="white" stroke="black" points="196,-147 196,-177 366,-177 366,-147 196,-147"/>
<text text-anchor="start" x="204" y="-165" font-family="Helvetica,sans-Serif" font-size="10.00">authoring.model.Authoring</text>
<text text-anchor="middle" x="281" y="-154" font-family="Helvetica,sans-Serif" font-size="10.00">Model.getGameObjectCollection</text>
</a>
</g>
</g>
<!-- Node1&#45;&gt;Node4 -->
<g id="edge3" class="edge"><title>Node1&#45;&gt;Node4</title>
<path fill="none" stroke="midnightblue" d="M142.059,-128.035C163.262,-133.255 187.216,-139.154 209.142,-144.553"/>
<polygon fill="midnightblue" stroke="midnightblue" points="208.51,-148.001 219.057,-146.994 210.183,-141.204 208.51,-148.001"/>
</g>
<!-- Node6 -->
<g id="node6" class="node"><title>Node6</title>
<g id="a_node6"><a xlink:href="../../d4/d68/classauthoring_1_1model_1_1_authoring_model.html#a0ff287c01f790618e3a61e5a879bca1b" target="_top" xlink:title="authoring.model.Authoring\lModel.getImages">
<polygon fill="white" stroke="black" points="208.5,-98 208.5,-128 353.5,-128 353.5,-98 208.5,-98"/>
<text text-anchor="start" x="216.5" y="-116" font-family="Helvetica,sans-Serif" font-size="10.00">authoring.model.Authoring</text>
<text text-anchor="middle" x="281" y="-105" font-family="Helvetica,sans-Serif" font-size="10.00">Model.getImages</text>
</a>
</g>
</g>
<!-- Node1&#45;&gt;Node6 -->
<g id="edge5" class="edge"><title>Node1&#45;&gt;Node6</title>
<path fill="none" stroke="midnightblue" d="M159.65,-113C172.337,-113 185.498,-113 198.256,-113"/>
<polygon fill="midnightblue" stroke="midnightblue" points="198.385,-116.5 208.385,-113 198.385,-109.5 198.385,-116.5"/>
</g>
<!-- Node8 -->
<g id="node8" class="node"><title>Node8</title>
<g id="a_node8"><a xlink:href="../../d4/d68/classauthoring_1_1model_1_1_authoring_model.html#a56085978a2f30a7d9ae50138b5b98e78" target="_top" xlink:title="authoring.model.Authoring\lModel.getLevels">
<polygon fill="white" stroke="black" points="208.5,-49 208.5,-79 353.5,-79 353.5,-49 208.5,-49"/>
<text text-anchor="start" x="216.5" y="-67" font-family="Helvetica,sans-Serif" font-size="10.00">authoring.model.Authoring</text>
<text text-anchor="middle" x="281" y="-56" font-family="Helvetica,sans-Serif" font-size="10.00">Model.getLevels</text>
</a>
</g>
</g>
<!-- Node1&#45;&gt;Node8 -->
<g id="edge7" class="edge"><title>Node1&#45;&gt;Node8</title>
<path fill="none" stroke="midnightblue" d="M142.059,-97.9654C163.262,-92.7446 187.216,-86.8463 209.142,-81.4474"/>
<polygon fill="midnightblue" stroke="midnightblue" points="210.183,-84.7957 219.057,-79.0062 208.51,-77.9987 210.183,-84.7957"/>
</g>
<!-- Node10 -->
<g id="node10" class="node"><title>Node10</title>
<g id="a_node10"><a xlink:href="../../d4/d68/classauthoring_1_1model_1_1_authoring_model.html#a36b0bf5dc987000328b00a660f686a3b" target="_top" xlink:title="authoring.model.Authoring\lModel.getSounds">
<polygon fill="white" stroke="black" points="208.5,-0 208.5,-30 353.5,-30 353.5,-0 208.5,-0"/>
<text text-anchor="start" x="216.5" y="-18" font-family="Helvetica,sans-Serif" font-size="10.00">authoring.model.Authoring</text>
<text text-anchor="middle" x="281" y="-7" font-family="Helvetica,sans-Serif" font-size="10.00">Model.getSounds</text>
</a>
</g>
</g>
<!-- Node1&#45;&gt;Node10 -->
<g id="edge9" class="edge"><title>Node1&#45;&gt;Node10</title>
<path fill="none" stroke="midnightblue" d="M101.207,-97.7215C123.437,-81.5146 160.706,-56.0771 196,-40 201.234,-37.616 206.753,-35.391 212.359,-33.33"/>
<polygon fill="midnightblue" stroke="midnightblue" points="213.556,-36.6195 221.842,-30.0172 211.247,-30.0111 213.556,-36.6195"/>
</g>
<!-- Node3 -->
<g id="node3" class="node"><title>Node3</title>
<g id="a_node3"><a xlink:href="../../d7/dbf/classauthoring_1_1model_1_1_game_data.html#a4a3bfa5ed2418ba59bdf3e73b4ce310a" target="_top" xlink:title="authoring.model.GameData.get\lConditions">
<polygon fill="white" stroke="black" points="402,-196 402,-226 572,-226 572,-196 402,-196"/>
<text text-anchor="start" x="410" y="-214" font-family="Helvetica,sans-Serif" font-size="10.00">authoring.model.GameData.get</text>
<text text-anchor="middle" x="487" y="-203" font-family="Helvetica,sans-Serif" font-size="10.00">Conditions</text>
</a>
</g>
</g>
<!-- Node2&#45;&gt;Node3 -->
<g id="edge2" class="edge"><title>Node2&#45;&gt;Node3</title>
<path fill="none" stroke="midnightblue" d="M353.636,-211C365.956,-211 378.926,-211 391.733,-211"/>
<polygon fill="midnightblue" stroke="midnightblue" points="391.954,-214.5 401.954,-211 391.953,-207.5 391.954,-214.5"/>
</g>
<!-- Node5 -->
<g id="node5" class="node"><title>Node5</title>
<g id="a_node5"><a xlink:href="../../d7/dbf/classauthoring_1_1model_1_1_game_data.html#ab6eab149af02a9649d0e2b162daf3600" target="_top" xlink:title="authoring.model.GameData.get\lGameObjects">
<polygon fill="white" stroke="black" points="402,-147 402,-177 572,-177 572,-147 402,-147"/>
<text text-anchor="start" x="410" y="-165" font-family="Helvetica,sans-Serif" font-size="10.00">authoring.model.GameData.get</text>
<text text-anchor="middle" x="487" y="-154" font-family="Helvetica,sans-Serif" font-size="10.00">GameObjects</text>
</a>
</g>
</g>
<!-- Node4&#45;&gt;Node5 -->
<g id="edge4" class="edge"><title>Node4&#45;&gt;Node5</title>
<path fill="none" stroke="midnightblue" d="M366.152,-162C374.501,-162 383.015,-162 391.46,-162"/>
<polygon fill="midnightblue" stroke="midnightblue" points="391.712,-165.5 401.712,-162 391.712,-158.5 391.712,-165.5"/>
</g>
<!-- Node7 -->
<g id="node7" class="node"><title>Node7</title>
<g id="a_node7"><a xlink:href="../../d7/dbf/classauthoring_1_1model_1_1_game_data.html#a5646a2267289545d487d4fe4a8a6298e" target="_top" xlink:title="authoring.model.GameData.get\lImages">
<polygon fill="white" stroke="black" points="402,-98 402,-128 572,-128 572,-98 402,-98"/>
<text text-anchor="start" x="410" y="-116" font-family="Helvetica,sans-Serif" font-size="10.00">authoring.model.GameData.get</text>
<text text-anchor="middle" x="487" y="-105" font-family="Helvetica,sans-Serif" font-size="10.00">Images</text>
</a>
</g>
</g>
<!-- Node6&#45;&gt;Node7 -->
<g id="edge6" class="edge"><title>Node6&#45;&gt;Node7</title>
<path fill="none" stroke="midnightblue" d="M353.636,-113C365.956,-113 378.926,-113 391.733,-113"/>
<polygon fill="midnightblue" stroke="midnightblue" points="391.954,-116.5 401.954,-113 391.953,-109.5 391.954,-116.5"/>
</g>
<!-- Node9 -->
<g id="node9" class="node"><title>Node9</title>
<g id="a_node9"><a xlink:href="../../d7/dbf/classauthoring_1_1model_1_1_game_data.html#a5188274f1af76c8d2e05a7c8dcba3805" target="_top" xlink:title="authoring.model.GameData.get\lLevels">
<polygon fill="white" stroke="black" points="402,-49 402,-79 572,-79 572,-49 402,-49"/>
<text text-anchor="start" x="410" y="-67" font-family="Helvetica,sans-Serif" font-size="10.00">authoring.model.GameData.get</text>
<text text-anchor="middle" x="487" y="-56" font-family="Helvetica,sans-Serif" font-size="10.00">Levels</text>
</a>
</g>
</g>
<!-- Node8&#45;&gt;Node9 -->
<g id="edge8" class="edge"><title>Node8&#45;&gt;Node9</title>
<path fill="none" stroke="midnightblue" d="M353.636,-64C365.956,-64 378.926,-64 391.733,-64"/>
<polygon fill="midnightblue" stroke="midnightblue" points="391.954,-67.5001 401.954,-64 391.953,-60.5001 391.954,-67.5001"/>
</g>
<!-- Node11 -->
<g id="node11" class="node"><title>Node11</title>
<g id="a_node11"><a xlink:href="../../d7/dbf/classauthoring_1_1model_1_1_game_data.html#a4c24125abc447d6793b3d31091d7912a" target="_top" xlink:title="authoring.model.GameData.get\lSounds">
<polygon fill="white" stroke="black" points="402,-0 402,-30 572,-30 572,-0 402,-0"/>
<text text-anchor="start" x="410" y="-18" font-family="Helvetica,sans-Serif" font-size="10.00">authoring.model.GameData.get</text>
<text text-anchor="middle" x="487" y="-7" font-family="Helvetica,sans-Serif" font-size="10.00">Sounds</text>
</a>
</g>
</g>
<!-- Node10&#45;&gt;Node11 -->
<g id="edge10" class="edge"><title>Node10&#45;&gt;Node11</title>
<path fill="none" stroke="midnightblue" d="M353.636,-15C365.956,-15 378.926,-15 391.733,-15"/>
<polygon fill="midnightblue" stroke="midnightblue" points="391.954,-18.5001 401.954,-15 391.953,-11.5001 391.954,-18.5001"/>
</g>
</g>
</svg>
