<?xml version="1.0" encoding="UTF-8" standalone="no"?>
<!DOCTYPE svg PUBLIC "-//W3C//DTD SVG 1.1//EN"
 "http://www.w3.org/Graphics/SVG/1.1/DTD/svg11.dtd">
<!-- Generated by graphviz version 2.36.0 (20140111.2315)
 -->
<!-- Title: authoring.controller.AuthoringController.initializeGameHandlers Pages: 1 -->
<!--zoomable 1109 -->
<svg id="main" version="1.1" xmlns="http://www.w3.org/2000/svg" xmlns:xlink="http://www.w3.org/1999/xlink" xml:space="preserve" onload="init(evt)">
<style type="text/css"><![CDATA[
.edge:hover path { stroke: red; }
.edge:hover polygon { stroke: red; fill: red; }
]]></style>
<script type="text/javascript"><![CDATA[
var edges = document.getElementsByTagName('g');
if (edges && edges.length) {
  for (var i=0;i<edges.length;i++) {
    if (edges[i].id.substr(0,4)=='edge') {
      edges[i].setAttribute('class','edge');
    }
  }
}
]]></script>
        <defs>
                <circle id="rim" cx="0" cy="0" r="7"/>
                <circle id="rim2" cx="0" cy="0" r="3.5"/>
                <g id="zoomPlus">
                        <use xlink:href="#rim" fill="#404040">
                                <set attributeName="fill" to="#808080" begin="zoomplus.mouseover" end="zoomplus.mouseout"/>
                        </use>
                        <path d="M-4,0h8M0,-4v8" fill="none" stroke="white" stroke-width="1.5" pointer-events="none"/>
                </g>
                <g id="zoomMin">
                        <use xlink:href="#rim" fill="#404040">
                                <set attributeName="fill" to="#808080" begin="zoomminus.mouseover" end="zoomminus.mouseout"/>
                        </use>
                        <path d="M-4,0h8" fill="none" stroke="white" stroke-width="1.5" pointer-events="none"/>
                </g>
                <g id="dirArrow">
                        <path fill="none" stroke="white" stroke-width="1.5" d="M0,-3.0v7 M-2.5,-0.5L0,-3.0L2.5,-0.5"/>
                </g>
               <g id="resetDef">
                       <use xlink:href="#rim2" fill="#404040">
                               <set attributeName="fill" to="#808080" begin="reset.mouseover" end="reset.mouseout"/>
                       </use>
               </g>
        </defs>

<script type="text/javascript">
var viewWidth = 632;
var viewHeight = 1109;
var sectionId = 'dynsection-2';
</script>
<script xlink:href="../../svgpan.js"/>
<svg id="graph" class="graph">
<g id="viewport">
<title>authoring.controller.AuthoringController.initializeGameHandlers</title>
<polygon fill="white" stroke="none" points="-4,4 -4,-1105 628,-1105 628,4 -4,4"/>
<!-- Node1 -->
<g id="node1" class="node"><title>Node1</title>
<polygon fill="#bfbfbf" stroke="black" points="0,-533 0,-563 176,-563 176,-533 0,-533"/>
<text text-anchor="start" x="8" y="-551" font-family="Helvetica,sans-Serif" font-size="10.00">authoring.controller.Authoring</text>
<text text-anchor="middle" x="88" y="-540" font-family="Helvetica,sans-Serif" font-size="10.00">Controller.initializeGameHandlers</text>
</g>
<!-- Node2 -->
<g id="node2" class="node"><title>Node2</title>
<g id="a_node2"><a xlink:href="../../d4/d68/classauthoring_1_1model_1_1_authoring_model.html#add8c0f47d979f36f05c4a50eaf56be05" target="_top" xlink:title="authoring.model.Authoring\lModel.getConditions">
<polygon fill="white" stroke="black" points="242.5,-1071 242.5,-1101 387.5,-1101 387.5,-1071 242.5,-1071"/>
<text text-anchor="start" x="250.5" y="-1089" font-family="Helvetica,sans-Serif" font-size="10.00">authoring.model.Authoring</text>
<text text-anchor="middle" x="315" y="-1078" font-family="Helvetica,sans-Serif" font-size="10.00">Model.getConditions</text>
</a>
</g>
</g>
<!-- Node1&#45;&gt;Node2 -->
<g id="edge1" class="edge"><title>Node1&#45;&gt;Node2</title>
<path fill="none" stroke="midnightblue" d="M90.5283,-563.166C98.5893,-640.185 138.6,-987.23 212,-1061 218.008,-1067.04 225.22,-1071.71 232.997,-1075.3"/>
<polygon fill="midnightblue" stroke="midnightblue" points="231.763,-1078.58 242.347,-1079.05 234.366,-1072.08 231.763,-1078.58"/>
</g>
<!-- Node4 -->
<g id="node4" class="node"><title>Node4</title>
<g id="a_node4"><a xlink:href="../../d4/d68/classauthoring_1_1model_1_1_authoring_model.html#a87180f6e7da3deba3c362fb21b5b9a92" target="_top" xlink:title="authoring.model.Authoring\lModel.getGameObjectCollection">
<polygon fill="white" stroke="black" points="230,-1022 230,-1052 400,-1052 400,-1022 230,-1022"/>
<text text-anchor="start" x="238" y="-1040" font-family="Helvetica,sans-Serif" font-size="10.00">authoring.model.Authoring</text>
<text text-anchor="middle" x="315" y="-1029" font-family="Helvetica,sans-Serif" font-size="10.00">Model.getGameObjectCollection</text>
</a>
</g>
</g>
<!-- Node1&#45;&gt;Node4 -->
<g id="edge3" class="edge"><title>Node1&#45;&gt;Node4</title>
<path fill="none" stroke="midnightblue" d="M90.966,-563.387C100.583,-636.294 144.937,-946.184 212,-1012 214.765,-1014.71 217.774,-1017.15 220.967,-1019.33"/>
<polygon fill="midnightblue" stroke="midnightblue" points="219.418,-1022.48 229.809,-1024.55 222.975,-1016.45 219.418,-1022.48"/>
</g>
<!-- Node6 -->
<g id="node6" class="node"><title>Node6</title>
<g id="a_node6"><a xlink:href="../../d4/d68/classauthoring_1_1model_1_1_authoring_model.html#a0ff287c01f790618e3a61e5a879bca1b" target="_top" xlink:title="authoring.model.Authoring\lModel.getImages">
<polygon fill="white" stroke="black" points="242.5,-973 242.5,-1003 387.5,-1003 387.5,-973 242.5,-973"/>
<text text-anchor="start" x="250.5" y="-991" font-family="Helvetica,sans-Serif" font-size="10.00">authoring.model.Authoring</text>
<text text-anchor="middle" x="315" y="-980" font-family="Helvetica,sans-Serif" font-size="10.00">Model.getImages</text>
</a>
</g>
</g>
<!-- Node1&#45;&gt;Node6 -->
<g id="edge5" class="edge"><title>Node1&#45;&gt;Node6</title>
<path fill="none" stroke="midnightblue" d="M88.521,-563.132C87.4857,-623.407 92.0685,-848.666 212,-963 218.118,-968.832 225.365,-973.372 233.132,-976.896"/>
<polygon fill="midnightblue" stroke="midnightblue" points="231.865,-980.159 242.451,-980.583 234.44,-973.65 231.865,-980.159"/>
</g>
<!-- Node8 -->
<g id="node8" class="node"><title>Node8</title>
<g id="a_node8"><a xlink:href="../../d4/d68/classauthoring_1_1model_1_1_authoring_model.html#a56085978a2f30a7d9ae50138b5b98e78" target="_top" xlink:title="authoring.model.Authoring\lModel.getLevels">
<polygon fill="white" stroke="black" points="242.5,-924 242.5,-954 387.5,-954 387.5,-924 242.5,-924"/>
<text text-anchor="start" x="250.5" y="-942" font-family="Helvetica,sans-Serif" font-size="10.00">authoring.model.Authoring</text>
<text text-anchor="middle" x="315" y="-931" font-family="Helvetica,sans-Serif" font-size="10.00">Model.getLevels</text>
</a>
</g>
</g>
<!-- Node1&#45;&gt;Node8 -->
<g id="edge7" class="edge"><title>Node1&#45;&gt;Node8</title>
<path fill="none" stroke="midnightblue" d="M89.2152,-563.261C90.87,-619.228 104.428,-815.089 212,-914 218.107,-919.615 225.265,-924.024 232.908,-927.478"/>
<polygon fill="midnightblue" stroke="midnightblue" points="231.846,-930.821 242.433,-931.234 234.414,-924.309 231.846,-930.821"/>
</g>
<!-- Node10 -->
<g id="node10" class="node"><title>Node10</title>
<g id="a_node10"><a xlink:href="../../d4/d68/classauthoring_1_1model_1_1_authoring_model.html#a36b0bf5dc987000328b00a660f686a3b" target="_top" xlink:title="authoring.model.Authoring\lModel.getSounds">
<polygon fill="white" stroke="black" points="242.5,-875 242.5,-905 387.5,-905 387.5,-875 242.5,-875"/>
<text text-anchor="start" x="250.5" y="-893" font-family="Helvetica,sans-Serif" font-size="10.00">authoring.model.Authoring</text>
<text text-anchor="middle" x="315" y="-882" font-family="Helvetica,sans-Serif" font-size="10.00">Model.getSounds</text>
</a>
</g>
</g>
<!-- Node1&#45;&gt;Node10 -->
<g id="edge9" class="edge"><title>Node1&#45;&gt;Node10</title>
<path fill="none" stroke="midnightblue" d="M90.1151,-563.345C94.6934,-614.586 116.624,-781.262 212,-865 218.185,-870.431 225.361,-874.723 232.986,-878.11"/>
<polygon fill="midnightblue" stroke="midnightblue" points="231.884,-881.437 242.472,-881.809 234.426,-874.916 231.884,-881.437"/>
</g>
<!-- Node12 -->
<g id="node12" class="node"><title>Node12</title>
<g id="a_node12"><a xlink:href="../../d1/dfb/classauthoring_1_1view_1_1conditionsview_1_1_condition_options.html#a8bc3200f7ebf96756884fcfedc5cad15" target="_top" xlink:title="authoring.view.conditionsview.\lConditionOptions.setAddCondition\lButtonBehavior">
<polygon fill="white" stroke="black" points="225,-815.5 225,-856.5 405,-856.5 405,-815.5 225,-815.5"/>
<text text-anchor="start" x="233" y="-844.5" font-family="Helvetica,sans-Serif" font-size="10.00">authoring.view.conditionsview.</text>
<text text-anchor="start" x="233" y="-833.5" font-family="Helvetica,sans-Serif" font-size="10.00">ConditionOptions.setAddCondition</text>
<text text-anchor="middle" x="315" y="-822.5" font-family="Helvetica,sans-Serif" font-size="10.00">ButtonBehavior</text>
</a>
</g>
</g>
<!-- Node1&#45;&gt;Node12 -->
<g id="edge11" class="edge"><title>Node1&#45;&gt;Node12</title>
<path fill="none" stroke="midnightblue" d="M91.7904,-563.04C100.762,-607.118 133.019,-737.15 212,-805 214.027,-806.741 216.15,-808.385 218.351,-809.936"/>
<polygon fill="midnightblue" stroke="midnightblue" points="216.861,-813.132 227.194,-815.473 220.576,-807.199 216.861,-813.132"/>
</g>
<!-- Node13 -->
<g id="node13" class="node"><title>Node13</title>
<g id="a_node13"><a xlink:href="../../d4/df1/classauthoring_1_1view_1_1levelview_1_1_level_options.html#a81adef99687136df955085330b696fe2" target="_top" xlink:title="authoring.view.levelview.\lLevelOptions.setAddLevelButton\lBehavior">
<polygon fill="white" stroke="black" points="229,-755.5 229,-796.5 401,-796.5 401,-755.5 229,-755.5"/>
<text text-anchor="start" x="237" y="-784.5" font-family="Helvetica,sans-Serif" font-size="10.00">authoring.view.levelview.</text>
<text text-anchor="start" x="237" y="-773.5" font-family="Helvetica,sans-Serif" font-size="10.00">LevelOptions.setAddLevelButton</text>
<text text-anchor="middle" x="315" y="-762.5" font-family="Helvetica,sans-Serif" font-size="10.00">Behavior</text>
</a>
</g>
</g>
<!-- Node1&#45;&gt;Node13 -->
<g id="edge12" class="edge"><title>Node1&#45;&gt;Node13</title>
<path fill="none" stroke="midnightblue" d="M94.0314,-563.001C107.205,-599.958 146.304,-696.007 212,-746 214.607,-747.984 217.343,-749.837 220.178,-751.568"/>
<polygon fill="midnightblue" stroke="midnightblue" points="218.499,-754.639 228.946,-756.402 221.879,-748.509 218.499,-754.639"/>
</g>
<!-- Node14 -->
<g id="node14" class="node"><title>Node14</title>
<g id="a_node14"><a xlink:href="../../d7/dee/classauthoring_1_1view_1_1graphicsview_1_1_graphic_options.html#add1317ccea15353263c6590fa461e9dd" target="_top" xlink:title="authoring.view.graphicsview.\lGraphicOptions.setButtonBehavior">
<polygon fill="white" stroke="black" points="224,-707 224,-737 406,-737 406,-707 224,-707"/>
<text text-anchor="start" x="232" y="-725" font-family="Helvetica,sans-Serif" font-size="10.00">authoring.view.graphicsview.</text>
<text text-anchor="middle" x="315" y="-714" font-family="Helvetica,sans-Serif" font-size="10.00">GraphicOptions.setButtonBehavior</text>
</a>
</g>
</g>
<!-- Node1&#45;&gt;Node14 -->
<g id="edge13" class="edge"><title>Node1&#45;&gt;Node14</title>
<path fill="none" stroke="midnightblue" d="M97.1864,-563.425C114.232,-593.976 156.6,-662.226 212,-697 215.378,-699.12 218.924,-701.061 222.583,-702.837"/>
<polygon fill="midnightblue" stroke="midnightblue" points="221.322,-706.105 231.885,-706.921 224.136,-699.696 221.322,-706.105"/>
</g>
<!-- Node15 -->
<g id="node15" class="node"><title>Node15</title>
<g id="a_node15"><a xlink:href="../../d0/d5e/classauthoring_1_1view_1_1soundsview_1_1_sound_options.html#a98ce38c993d2010aaba971a12c521449" target="_top" xlink:title="authoring.view.soundsview.\lSoundOptions.setButtonBehavior">
<polygon fill="white" stroke="black" points="227,-658 227,-688 403,-688 403,-658 227,-658"/>
<text text-anchor="start" x="235" y="-676" font-family="Helvetica,sans-Serif" font-size="10.00">authoring.view.soundsview.</text>
<text text-anchor="middle" x="315" y="-665" font-family="Helvetica,sans-Serif" font-size="10.00">SoundOptions.setButtonBehavior</text>
</a>
</g>
</g>
<!-- Node1&#45;&gt;Node15 -->
<g id="edge14" class="edge"><title>Node1&#45;&gt;Node15</title>
<path fill="none" stroke="midnightblue" d="M103.001,-563.009C124.379,-585.014 167.398,-625.819 212,-648 216.847,-650.41 221.941,-652.598 227.16,-654.582"/>
<polygon fill="midnightblue" stroke="midnightblue" points="226.068,-657.908 236.663,-657.937 228.399,-651.307 226.068,-657.908"/>
</g>
<!-- Node16 -->
<g id="node16" class="node"><title>Node16</title>
<g id="a_node16"><a xlink:href="../../d6/d03/classauthoring_1_1view_1_1gameobjectsview_1_1_game_object_options.html#a71c7fa3c38b7d2b105ce1940d72a7711" target="_top" xlink:title="authoring.view.gameobjectsview.\lGameObjectOptions.setButtonBehavior">
<polygon fill="white" stroke="black" points="212,-609 212,-639 418,-639 418,-609 212,-609"/>
<text text-anchor="start" x="220" y="-627" font-family="Helvetica,sans-Serif" font-size="10.00">authoring.view.gameobjectsview.</text>
<text text-anchor="middle" x="315" y="-616" font-family="Helvetica,sans-Serif" font-size="10.00">GameObjectOptions.setButtonBehavior</text>
</a>
</g>
</g>
<!-- Node1&#45;&gt;Node16 -->
<g id="edge15" class="edge"><title>Node1&#45;&gt;Node16</title>
<path fill="none" stroke="midnightblue" d="M121.377,-563.02C145.889,-573.998 180.587,-588.705 212,-599 219.908,-601.592 228.238,-604.054 236.588,-606.35"/>
<polygon fill="midnightblue" stroke="midnightblue" points="235.812,-609.766 246.376,-608.968 237.62,-603.003 235.812,-609.766"/>
</g>
<!-- Node17 -->
<g id="node17" class="node"><title>Node17</title>
<g id="a_node17"><a xlink:href="../../d4/d9e/classauthoring_1_1view_1_1propertiesview_1_1_properties_view.html#a0f34460f58194a1360fe94b49c48ee22" target="_top" xlink:title="authoring.view.propertiesview.\lPropertiesView.setButtonBehaviors">
<polygon fill="white" stroke="black" points="223,-560 223,-590 407,-590 407,-560 223,-560"/>
<text text-anchor="start" x="231" y="-578" font-family="Helvetica,sans-Serif" font-size="10.00">authoring.view.propertiesview.</text>
<text text-anchor="middle" x="315" y="-567" font-family="Helvetica,sans-Serif" font-size="10.00">PropertiesView.setButtonBehaviors</text>
</a>
</g>
</g>
<!-- Node1&#45;&gt;Node17 -->
<g id="edge16" class="edge"><title>Node1&#45;&gt;Node17</title>
<path fill="none" stroke="midnightblue" d="M176.313,-558.478C188.183,-559.902 200.448,-561.374 212.54,-562.825"/>
<polygon fill="midnightblue" stroke="midnightblue" points="212.3,-566.321 222.645,-564.037 213.134,-559.371 212.3,-566.321"/>
</g>
<!-- Node18 -->
<g id="node18" class="node"><title>Node18</title>
<g id="a_node18"><a xlink:href="../../d1/dfb/classauthoring_1_1view_1_1conditionsview_1_1_condition_options.html#a78f715f319bb0a5858a6cc8a9050c69d" target="_top" xlink:title="authoring.view.conditionsview.\lConditionOptions.setDeleteCondition\lButtonBehavior">
<polygon fill="white" stroke="black" points="218.5,-500.5 218.5,-541.5 411.5,-541.5 411.5,-500.5 218.5,-500.5"/>
<text text-anchor="start" x="226.5" y="-529.5" font-family="Helvetica,sans-Serif" font-size="10.00">authoring.view.conditionsview.</text>
<text text-anchor="start" x="226.5" y="-518.5" font-family="Helvetica,sans-Serif" font-size="10.00">ConditionOptions.setDeleteCondition</text>
<text text-anchor="middle" x="315" y="-507.5" font-family="Helvetica,sans-Serif" font-size="10.00">ButtonBehavior</text>
</a>
</g>
</g>
<!-- Node1&#45;&gt;Node18 -->
<g id="edge17" class="edge"><title>Node1&#45;&gt;Node18</title>
<path fill="none" stroke="midnightblue" d="M176.313,-537.522C186.704,-536.276 197.397,-534.992 208.012,-533.719"/>
<polygon fill="midnightblue" stroke="midnightblue" points="208.642,-537.168 218.153,-532.502 207.808,-530.218 208.642,-537.168"/>
</g>
<!-- Node19 -->
<g id="node19" class="node"><title>Node19</title>
<g id="a_node19"><a xlink:href="../../d4/df1/classauthoring_1_1view_1_1levelview_1_1_level_options.html#aef5b45e4236183f97229c9ecd0cfa6f3" target="_top" xlink:title="authoring.view.levelview.\lLevelOptions.setDeleteLevelButton\lBehavior">
<polygon fill="white" stroke="black" points="222.5,-440.5 222.5,-481.5 407.5,-481.5 407.5,-440.5 222.5,-440.5"/>
<text text-anchor="start" x="230.5" y="-469.5" font-family="Helvetica,sans-Serif" font-size="10.00">authoring.view.levelview.</text>
<text text-anchor="start" x="230.5" y="-458.5" font-family="Helvetica,sans-Serif" font-size="10.00">LevelOptions.setDeleteLevelButton</text>
<text text-anchor="middle" x="315" y="-447.5" font-family="Helvetica,sans-Serif" font-size="10.00">Behavior</text>
</a>
</g>
</g>
<!-- Node1&#45;&gt;Node19 -->
<g id="edge18" class="edge"><title>Node1&#45;&gt;Node19</title>
<path fill="none" stroke="midnightblue" d="M118.3,-532.925C142.897,-520.636 179.18,-503.354 212,-491 217.782,-488.824 223.795,-486.704 229.881,-484.662"/>
<polygon fill="midnightblue" stroke="midnightblue" points="231.064,-487.958 239.48,-481.523 228.888,-481.305 231.064,-487.958"/>
</g>
<!-- Node20 -->
<g id="node20" class="node"><title>Node20</title>
<g id="a_node20"><a xlink:href="../../d5/da2/classauthoring_1_1view_1_1soundsview_1_1_sounds_view.html#ae8833869f5a2658455947ff51cb5804b" target="_top" xlink:title="authoring.view.soundsview.\lSoundsView.setDragDrop">
<polygon fill="white" stroke="black" points="242.5,-392 242.5,-422 387.5,-422 387.5,-392 242.5,-392"/>
<text text-anchor="start" x="250.5" y="-410" font-family="Helvetica,sans-Serif" font-size="10.00">authoring.view.soundsview.</text>
<text text-anchor="middle" x="315" y="-399" font-family="Helvetica,sans-Serif" font-size="10.00">SoundsView.setDragDrop</text>
</a>
</g>
</g>
<!-- Node1&#45;&gt;Node20 -->
<g id="edge19" class="edge"><title>Node1&#45;&gt;Node20</title>
<path fill="none" stroke="midnightblue" d="M100.425,-532.796C120.237,-507.562 163.522,-457.216 212,-431 218.436,-427.52 225.367,-424.54 232.479,-421.991"/>
<polygon fill="midnightblue" stroke="midnightblue" points="233.854,-425.223 242.26,-418.774 231.667,-418.574 233.854,-425.223"/>
</g>
<!-- Node21 -->
<g id="node21" class="node"><title>Node21</title>
<g id="a_node21"><a xlink:href="../../d6/d5f/classauthoring_1_1view_1_1graphicsview_1_1_images_view.html#afdb0ea228fb68e93238ef602e46db168" target="_top" xlink:title="authoring.view.graphicsview.\lImagesView.setDragDrop">
<polygon fill="white" stroke="black" points="239.5,-343 239.5,-373 390.5,-373 390.5,-343 239.5,-343"/>
<text text-anchor="start" x="247.5" y="-361" font-family="Helvetica,sans-Serif" font-size="10.00">authoring.view.graphicsview.</text>
<text text-anchor="middle" x="315" y="-350" font-family="Helvetica,sans-Serif" font-size="10.00">ImagesView.setDragDrop</text>
</a>
</g>
</g>
<!-- Node1&#45;&gt;Node21 -->
<g id="edge20" class="edge"><title>Node1&#45;&gt;Node21</title>
<path fill="none" stroke="midnightblue" d="M95.7634,-532.945C111.283,-500.195 152.733,-422.279 212,-383 217.565,-379.312 223.625,-376.167 229.924,-373.486"/>
<polygon fill="midnightblue" stroke="midnightblue" points="231.219,-376.738 239.295,-369.881 228.705,-370.205 231.219,-376.738"/>
</g>
<!-- Node22 -->
<g id="node22" class="node"><title>Node22</title>
<g id="a_node22"><a xlink:href="../../d5/da2/classauthoring_1_1view_1_1soundsview_1_1_sounds_view.html#a717384d7c3fc85472f948b9beedb52f9" target="_top" xlink:title="authoring.view.soundsview.\lSoundsView.setDragOver">
<polygon fill="white" stroke="black" points="242.5,-294 242.5,-324 387.5,-324 387.5,-294 242.5,-294"/>
<text text-anchor="start" x="250.5" y="-312" font-family="Helvetica,sans-Serif" font-size="10.00">authoring.view.soundsview.</text>
<text text-anchor="middle" x="315" y="-301" font-family="Helvetica,sans-Serif" font-size="10.00">SoundsView.setDragOver</text>
</a>
</g>
</g>
<!-- Node1&#45;&gt;Node22 -->
<g id="edge21" class="edge"><title>Node1&#45;&gt;Node22</title>
<path fill="none" stroke="midnightblue" d="M93.1691,-532.77C104.794,-493.294 141.445,-387.054 212,-334 218.301,-329.262 225.384,-325.411 232.805,-322.283"/>
<polygon fill="midnightblue" stroke="midnightblue" points="234.222,-325.489 242.351,-318.695 231.759,-318.937 234.222,-325.489"/>
</g>
<!-- Node23 -->
<g id="node23" class="node"><title>Node23</title>
<g id="a_node23"><a xlink:href="../../d6/d5f/classauthoring_1_1view_1_1graphicsview_1_1_images_view.html#a473f9428000bb280928044f89a4081ec" target="_top" xlink:title="authoring.view.graphicsview.\lImagesView.setDragOver">
<polygon fill="white" stroke="black" points="239.5,-245 239.5,-275 390.5,-275 390.5,-245 239.5,-245"/>
<text text-anchor="start" x="247.5" y="-263" font-family="Helvetica,sans-Serif" font-size="10.00">authoring.view.graphicsview.</text>
<text text-anchor="middle" x="315" y="-252" font-family="Helvetica,sans-Serif" font-size="10.00">ImagesView.setDragOver</text>
</a>
</g>
</g>
<!-- Node1&#45;&gt;Node23 -->
<g id="edge22" class="edge"><title>Node1&#45;&gt;Node23</title>
<path fill="none" stroke="midnightblue" d="M91.4421,-532.729C99.5288,-487.375 129.759,-352.442 212,-285 217.399,-280.572 223.466,-276.91 229.879,-273.883"/>
<polygon fill="midnightblue" stroke="midnightblue" points="231.597,-276.959 239.486,-269.888 228.909,-270.496 231.597,-276.959"/>
</g>
<!-- Node24 -->
<g id="node24" class="node"><title>Node24</title>
<g id="a_node24"><a xlink:href="../../d4/d04/classauthoring_1_1view_1_1levelview_1_1_levels_view.html#a47aa53da88c08070771e46e1621b3628" target="_top" xlink:title="authoring.view.levelview.\lLevelsView.setEventHandlers">
<polygon fill="white" stroke="black" points="237.5,-196 237.5,-226 392.5,-226 392.5,-196 237.5,-196"/>
<text text-anchor="start" x="245.5" y="-214" font-family="Helvetica,sans-Serif" font-size="10.00">authoring.view.levelview.</text>
<text text-anchor="middle" x="315" y="-203" font-family="Helvetica,sans-Serif" font-size="10.00">LevelsView.setEventHandlers</text>
</a>
</g>
</g>
<!-- Node1&#45;&gt;Node24 -->
<g id="edge23" class="edge"><title>Node1&#45;&gt;Node24</title>
<path fill="none" stroke="midnightblue" d="M90.1985,-532.891C95.0405,-482.439 117.708,-318.337 212,-236 216.822,-231.79 222.239,-228.264 227.999,-225.314"/>
<polygon fill="midnightblue" stroke="midnightblue" points="229.607,-228.429 237.294,-221.137 226.738,-222.044 229.607,-228.429"/>
</g>
<!-- Node25 -->
<g id="node25" class="node"><title>Node25</title>
<g id="a_node25"><a xlink:href="../../de/d93/classauthoring_1_1view_1_1baseclasses_1_1_collection_view.html#a37bef6993a766139c76bc695cd3a311b" target="_top" xlink:title="authoring.view.baseclasses.\lCollectionView.setIconEvents">
<polygon fill="white" stroke="black" points="238,-147 238,-177 392,-177 392,-147 238,-147"/>
<text text-anchor="start" x="246" y="-165" font-family="Helvetica,sans-Serif" font-size="10.00">authoring.view.baseclasses.</text>
<text text-anchor="middle" x="315" y="-154" font-family="Helvetica,sans-Serif" font-size="10.00">CollectionView.setIconEvents</text>
</a>
</g>
</g>
<!-- Node1&#45;&gt;Node25 -->
<g id="edge24" class="edge"><title>Node1&#45;&gt;Node25</title>
<path fill="none" stroke="midnightblue" d="M89.289,-532.942C91.2012,-477.72 105.543,-284.475 212,-187 216.854,-182.556 222.366,-178.868 228.255,-175.811"/>
<polygon fill="midnightblue" stroke="midnightblue" points="230.106,-178.816 237.779,-171.51 227.225,-172.436 230.106,-178.816"/>
</g>
<!-- Node26 -->
<g id="node26" class="node"><title>Node26</title>
<g id="a_node26"><a xlink:href="../../d0/db6/classauthoring_1_1view_1_1conditionsview_1_1_conditions_accordion_view.html#ab870b9ee125701132e2019add721c8cc" target="_top" xlink:title="authoring.view.conditionsview.\lConditionsAccordionView.setIconEvents">
<polygon fill="white" stroke="black" points="212.5,-98 212.5,-128 417.5,-128 417.5,-98 212.5,-98"/>
<text text-anchor="start" x="220.5" y="-116" font-family="Helvetica,sans-Serif" font-size="10.00">authoring.view.conditionsview.</text>
<text text-anchor="middle" x="315" y="-105" font-family="Helvetica,sans-Serif" font-size="10.00">ConditionsAccordionView.setIconEvents</text>
</a>
</g>
</g>
<!-- Node1&#45;&gt;Node26 -->
<g id="edge25" class="edge"><title>Node1&#45;&gt;Node26</title>
<path fill="none" stroke="midnightblue" d="M88.5816,-532.638C87.8271,-472.469 93.478,-250.616 212,-138 213.487,-136.587 215.04,-135.25 216.651,-133.985"/>
<polygon fill="midnightblue" stroke="midnightblue" points="218.822,-136.743 225.145,-128.242 214.901,-130.944 218.822,-136.743"/>
</g>
<!-- Node27 -->
<g id="node27" class="node"><title>Node27</title>
<g id="a_node27"><a xlink:href="../../d9/d7c/classauthoring_1_1view_1_1levelview_1_1_levels_accordion_view.html#a112897ff8403b5bd13a8a285513b0256" target="_top" xlink:title="authoring.view.levelview.\lLevelsAccordionView.setIconEvents">
<polygon fill="white" stroke="black" points="222.5,-49 222.5,-79 407.5,-79 407.5,-49 222.5,-49"/>
<text text-anchor="start" x="230.5" y="-67" font-family="Helvetica,sans-Serif" font-size="10.00">authoring.view.levelview.</text>
<text text-anchor="middle" x="315" y="-56" font-family="Helvetica,sans-Serif" font-size="10.00">LevelsAccordionView.setIconEvents</text>
</a>
</g>
</g>
<!-- Node1&#45;&gt;Node27 -->
<g id="edge26" class="edge"><title>Node1&#45;&gt;Node27</title>
<path fill="none" stroke="midnightblue" d="M90.991,-532.777C100.723,-460.648 145.525,-154.064 212,-89 213.466,-87.5653 215,-86.2083 216.593,-84.9252"/>
<polygon fill="midnightblue" stroke="midnightblue" points="218.777,-87.6703 225.013,-79.1051 214.797,-81.9119 218.777,-87.6703"/>
</g>
<!-- Node28 -->
<g id="node28" class="node"><title>Node28</title>
<g id="a_node28"><a xlink:href="../../d9/d7c/classauthoring_1_1view_1_1levelview_1_1_levels_accordion_view.html#a465701064b2dfc09d6fc26b96c4fb506" target="_top" xlink:title="authoring.view.levelview.\lLevelsAccordionView.setLevelEvents">
<polygon fill="white" stroke="black" points="220,-0 220,-30 410,-30 410,-0 220,-0"/>
<text text-anchor="start" x="228" y="-18" font-family="Helvetica,sans-Serif" font-size="10.00">authoring.view.levelview.</text>
<text text-anchor="middle" x="315" y="-7" font-family="Helvetica,sans-Serif" font-size="10.00">LevelsAccordionView.setLevelEvents</text>
</a>
</g>
</g>
<!-- Node1&#45;&gt;Node28 -->
<g id="edge27" class="edge"><title>Node1&#45;&gt;Node28</title>
<path fill="none" stroke="midnightblue" d="M90.5508,-532.98C98.723,-456.704 139.195,-113.01 212,-40 213.283,-38.713 214.622,-37.4883 216.008,-36.3231"/>
<polygon fill="midnightblue" stroke="midnightblue" points="218.35,-38.9506 224.437,-30.2788 214.271,-33.2621 218.35,-38.9506"/>
</g>
<!-- Node3 -->
<g id="node3" class="node"><title>Node3</title>
<g id="a_node3"><a xlink:href="../../d7/dbf/classauthoring_1_1model_1_1_game_data.html#a4a3bfa5ed2418ba59bdf3e73b4ce310a" target="_top" xlink:title="authoring.model.GameData.get\lConditions">
<polygon fill="white" stroke="black" points="454,-1071 454,-1101 624,-1101 624,-1071 454,-1071"/>
<text text-anchor="start" x="462" y="-1089" font-family="Helvetica,sans-Serif" font-size="10.00">authoring.model.GameData.get</text>
<text text-anchor="middle" x="539" y="-1078" font-family="Helvetica,sans-Serif" font-size="10.00">Conditions</text>
</a>
</g>
</g>
<!-- Node2&#45;&gt;Node3 -->
<g id="edge2" class="edge"><title>Node2&#45;&gt;Node3</title>
<path fill="none" stroke="midnightblue" d="M387.77,-1086C405.596,-1086 424.97,-1086 443.696,-1086"/>
<polygon fill="midnightblue" stroke="midnightblue" points="443.716,-1089.5 453.716,-1086 443.716,-1082.5 443.716,-1089.5"/>
</g>
<!-- Node5 -->
<g id="node5" class="node"><title>Node5</title>
<g id="a_node5"><a xlink:href="../../d7/dbf/classauthoring_1_1model_1_1_game_data.html#ab6eab149af02a9649d0e2b162daf3600" target="_top" xlink:title="authoring.model.GameData.get\lGameObjects">
<polygon fill="white" stroke="black" points="454,-1022 454,-1052 624,-1052 624,-1022 454,-1022"/>
<text text-anchor="start" x="462" y="-1040" font-family="Helvetica,sans-Serif" font-size="10.00">authoring.model.GameData.get</text>
<text text-anchor="middle" x="539" y="-1029" font-family="Helvetica,sans-Serif" font-size="10.00">GameObjects</text>
</a>
</g>
</g>
<!-- Node4&#45;&gt;Node5 -->
<g id="edge4" class="edge"><title>Node4&#45;&gt;Node5</title>
<path fill="none" stroke="midnightblue" d="M400.245,-1037C414.36,-1037 429.088,-1037 443.441,-1037"/>
<polygon fill="midnightblue" stroke="midnightblue" points="443.812,-1040.5 453.812,-1037 443.812,-1033.5 443.812,-1040.5"/>
</g>
<!-- Node7 -->
<g id="node7" class="node"><title>Node7</title>
<g id="a_node7"><a xlink:href="../../d7/dbf/classauthoring_1_1model_1_1_game_data.html#a5646a2267289545d487d4fe4a8a6298e" target="_top" xlink:title="authoring.model.GameData.get\lImages">
<polygon fill="white" stroke="black" points="454,-973 454,-1003 624,-1003 624,-973 454,-973"/>
<text text-anchor="start" x="462" y="-991" font-family="Helvetica,sans-Serif" font-size="10.00">authoring.model.GameData.get</text>
<text text-anchor="middle" x="539" y="-980" font-family="Helvetica,sans-Serif" font-size="10.00">Images</text>
</a>
</g>
</g>
<!-- Node6&#45;&gt;Node7 -->
<g id="edge6" class="edge"><title>Node6&#45;&gt;Node7</title>
<path fill="none" stroke="midnightblue" d="M387.77,-988C405.596,-988 424.97,-988 443.696,-988"/>
<polygon fill="midnightblue" stroke="midnightblue" points="443.716,-991.5 453.716,-988 443.716,-984.5 443.716,-991.5"/>
</g>
<!-- Node9 -->
<g id="node9" class="node"><title>Node9</title>
<g id="a_node9"><a xlink:href="../../d7/dbf/classauthoring_1_1model_1_1_game_data.html#a5188274f1af76c8d2e05a7c8dcba3805" target="_top" xlink:title="authoring.model.GameData.get\lLevels">
<polygon fill="white" stroke="black" points="454,-924 454,-954 624,-954 624,-924 454,-924"/>
<text text-anchor="start" x="462" y="-942" font-family="Helvetica,sans-Serif" font-size="10.00">authoring.model.GameData.get</text>
<text text-anchor="middle" x="539" y="-931" font-family="Helvetica,sans-Serif" font-size="10.00">Levels</text>
</a>
</g>
</g>
<!-- Node8&#45;&gt;Node9 -->
<g id="edge8" class="edge"><title>Node8&#45;&gt;Node9</title>
<path fill="none" stroke="midnightblue" d="M387.77,-939C405.596,-939 424.97,-939 443.696,-939"/>
<polygon fill="midnightblue" stroke="midnightblue" points="443.716,-942.5 453.716,-939 443.716,-935.5 443.716,-942.5"/>
</g>
<!-- Node11 -->
<g id="node11" class="node"><title>Node11</title>
<g id="a_node11"><a xlink:href="../../d7/dbf/classauthoring_1_1model_1_1_game_data.html#a4c24125abc447d6793b3d31091d7912a" target="_top" xlink:title="authoring.model.GameData.get\lSounds">
<polygon fill="white" stroke="black" points="454,-875 454,-905 624,-905 624,-875 454,-875"/>
<text text-anchor="start" x="462" y="-893" font-family="Helvetica,sans-Serif" font-size="10.00">authoring.model.GameData.get</text>
<text text-anchor="middle" x="539" y="-882" font-family="Helvetica,sans-Serif" font-size="10.00">Sounds</text>
</a>
</g>
</g>
<!-- Node10&#45;&gt;Node11 -->
<g id="edge10" class="edge"><title>Node10&#45;&gt;Node11</title>
<path fill="none" stroke="midnightblue" d="M387.77,-890C405.596,-890 424.97,-890 443.696,-890"/>
<polygon fill="midnightblue" stroke="midnightblue" points="443.716,-893.5 453.716,-890 443.716,-886.5 443.716,-893.5"/>
</g>
</g>
</svg>
        <g id="navigator" transform="translate(0 0)" fill="#404254">
                <rect fill="#f2f5e9" fill-opacity="0.5" stroke="#606060" stroke-width=".5" x="0" y="0" width="60" height="60"/>
                <use id="zoomplus" xlink:href="#zoomPlus" x="17" y="9" onmousedown="handleZoom(evt,'in')"/>
                <use id="zoomminus" xlink:href="#zoomMin" x="42" y="9" onmousedown="handleZoom(evt,'out')"/>
                <use id="reset" xlink:href="#resetDef" x="30" y="36" onmousedown="handleReset()"/>
                <g id="arrowUp" xlink:href="#dirArrow" transform="translate(30 24)" onmousedown="handlePan(0,-1)">
                  <use xlink:href="#rim" fill="#404040">
                        <set attributeName="fill" to="#808080" begin="arrowUp.mouseover" end="arrowUp.mouseout"/>
                  </use>
                  <path fill="none" stroke="white" stroke-width="1.5" d="M0,-3.0v7 M-2.5,-0.5L0,-3.0L2.5,-0.5"/>
                </g>
                <g id="arrowRight" xlink:href="#dirArrow" transform="rotate(90) translate(36 -43)" onmousedown="handlePan(1,0)">
                  <use xlink:href="#rim" fill="#404040">
                        <set attributeName="fill" to="#808080" begin="arrowRight.mouseover" end="arrowRight.mouseout"/>
                  </use>
                  <path fill="none" stroke="white" stroke-width="1.5" d="M0,-3.0v7 M-2.5,-0.5L0,-3.0L2.5,-0.5"/>
                </g>
                <g id="arrowDown" xlink:href="#dirArrow" transform="rotate(180) translate(-30 -48)" onmousedown="handlePan(0,1)">
                  <use xlink:href="#rim" fill="#404040">
                        <set attributeName="fill" to="#808080" begin="arrowDown.mouseover" end="arrowDown.mouseout"/>
                  </use>
                  <path fill="none" stroke="white" stroke-width="1.5" d="M0,-3.0v7 M-2.5,-0.5L0,-3.0L2.5,-0.5"/>
                </g>
                <g id="arrowLeft" xlink:href="#dirArrow" transform="rotate(270) translate(-36 17)" onmousedown="handlePan(-1,0)">
                  <use xlink:href="#rim" fill="#404040">
                        <set attributeName="fill" to="#808080" begin="arrowLeft.mouseover" end="arrowLeft.mouseout"/>
                  </use>
                  <path fill="none" stroke="white" stroke-width="1.5" d="M0,-3.0v7 M-2.5,-0.5L0,-3.0L2.5,-0.5"/>
                </g>
        </g>
        <svg viewBox="0 0 15 15" width="100%" height="30px" preserveAspectRatio="xMaxYMin meet">
         <g id="arrow_out" transform="scale(0.3 0.3)">
          <a xlink:href="classauthoring_1_1controller_1_1_authoring_controller_afa4d4de3a843b1f950f11839acfaef2b_cgraph_org.svg" target="_base">
           <rect id="button" ry="5" rx="5" y="6" x="6" height="38" width="38"
                fill="#f2f5e9" fill-opacity="0.5" stroke="#606060" stroke-width="1.0"/>
           <path id="arrow"
             d="M 11.500037,31.436501 C 11.940474,20.09759 22.043105,11.32322 32.158766,21.979434 L 37.068811,17.246167 C 37.068811,17.246167 37.088388,32 37.088388,32 L 22.160133,31.978069 C 22.160133,31.978069 26.997745,27.140456 26.997745,27.140456 C 18.528582,18.264221 13.291696,25.230495 11.500037,31.436501 z"
             style="fill:#404040;"/>
          </a>
         </g>
        </svg>
</svg>
