<?xml version="1.0" encoding="UTF-8" standalone="no"?>
<!DOCTYPE svg PUBLIC "-//W3C//DTD SVG 1.1//EN"
 "http://www.w3.org/Graphics/SVG/1.1/DTD/svg11.dtd">
<!-- Generated by graphviz version 2.36.0 (20140111.2315)
 -->
<!-- Title: authoring.controller.AuthoringController.loadData Pages: 1 -->
<svg width="764pt" height="458pt"
 viewBox="0.00 0.00 764.00 458.00" xmlns="http://www.w3.org/2000/svg" xmlns:xlink="http://www.w3.org/1999/xlink">
<g id="graph0" class="graph" transform="scale(1 1) rotate(0) translate(4 454)">
<title>authoring.controller.AuthoringController.loadData</title>
<polygon fill="white" stroke="none" points="-4,4 -4,-454 760,-454 760,4 -4,4"/>
<!-- Node1 -->
<g id="node1" class="node"><title>Node1</title>
<polygon fill="#bfbfbf" stroke="black" points="0.5,-199 0.5,-229 159.5,-229 159.5,-199 0.5,-199"/>
<text text-anchor="start" x="8.5" y="-217" font-family="Helvetica,sans-Serif" font-size="10.00">authoring.controller.Authoring</text>
<text text-anchor="middle" x="80" y="-206" font-family="Helvetica,sans-Serif" font-size="10.00">Controller.loadData</text>
</g>
<!-- Node2 -->
<g id="node2" class="node"><title>Node2</title>
<g id="a_node2"><a xlink:href="../../d4/d68/classauthoring_1_1model_1_1_authoring_model.html#a3935f1a8c2e6b6fcd4609ffb4b1b8cf0" target="_top" xlink:title="authoring.model.Authoring\lModel.load">
<polygon fill="white" stroke="black" points="196.5,-199 196.5,-229 341.5,-229 341.5,-199 196.5,-199"/>
<text text-anchor="start" x="204.5" y="-217" font-family="Helvetica,sans-Serif" font-size="10.00">authoring.model.Authoring</text>
<text text-anchor="middle" x="269" y="-206" font-family="Helvetica,sans-Serif" font-size="10.00">Model.load</text>
</a>
</g>
</g>
<!-- Node1&#45;&gt;Node2 -->
<g id="edge1" class="edge"><title>Node1&#45;&gt;Node2</title>
<path fill="none" stroke="midnightblue" d="M159.763,-214C168.515,-214 177.445,-214 186.234,-214"/>
<polygon fill="midnightblue" stroke="midnightblue" points="186.467,-217.5 196.467,-214 186.467,-210.5 186.467,-217.5"/>
</g>
<!-- Node3 -->
<g id="node3" class="node"><title>Node3</title>
<g id="a_node3"><a xlink:href="../../d4/d68/classauthoring_1_1model_1_1_authoring_model.html#a11495359850ef25b7338f7e7ba0554d0" target="_top" xlink:title="authoring.model.Authoring\lModel.convertFromSerializable">
<polygon fill="white" stroke="black" points="378.5,-199 378.5,-229 541.5,-229 541.5,-199 378.5,-199"/>
<text text-anchor="start" x="386.5" y="-217" font-family="Helvetica,sans-Serif" font-size="10.00">authoring.model.Authoring</text>
<text text-anchor="middle" x="460" y="-206" font-family="Helvetica,sans-Serif" font-size="10.00">Model.convertFromSerializable</text>
</a>
</g>
</g>
<!-- Node2&#45;&gt;Node3 -->
<g id="edge2" class="edge"><title>Node2&#45;&gt;Node3</title>
<path fill="none" stroke="midnightblue" d="M341.722,-214C350.448,-214 359.449,-214 368.403,-214"/>
<polygon fill="midnightblue" stroke="midnightblue" points="368.475,-217.5 378.475,-214 368.475,-210.5 368.475,-217.5"/>
</g>
<!-- Node4 -->
<g id="node4" class="node"><title>Node4</title>
<g id="a_node4"><a xlink:href="../../d7/dbf/classauthoring_1_1model_1_1_game_data.html#a5646a2267289545d487d4fe4a8a6298e" target="_top" xlink:title="authoring.model.GameData.get\lImages">
<polygon fill="white" stroke="black" points="582,-420 582,-450 752,-450 752,-420 582,-420"/>
<text text-anchor="start" x="590" y="-438" font-family="Helvetica,sans-Serif" font-size="10.00">authoring.model.GameData.get</text>
<text text-anchor="middle" x="667" y="-427" font-family="Helvetica,sans-Serif" font-size="10.00">Images</text>
</a>
</g>
</g>
<!-- Node3&#45;&gt;Node4 -->
<g id="edge3" class="edge"><title>Node3&#45;&gt;Node4</title>
<path fill="none" stroke="midnightblue" d="M465.673,-229.153C477.83,-266.006 514.03,-360.892 578,-410 580.441,-411.874 583.016,-413.607 585.692,-415.211"/>
<polygon fill="midnightblue" stroke="midnightblue" points="584.062,-418.308 594.537,-419.902 587.343,-412.124 584.062,-418.308"/>
</g>
<!-- Node5 -->
<g id="node5" class="node"><title>Node5</title>
<g id="a_node5"><a xlink:href="../../d4/d3b/classauthoring_1_1model_1_1collections_1_1_general_collection.html#a1bdc1047736bbb23259d6a7fe4c6deeb" target="_top" xlink:title="authoring.model.collections.\lGeneralCollection.add">
<polygon fill="white" stroke="black" points="591,-371 591,-401 743,-401 743,-371 591,-371"/>
<text text-anchor="start" x="599" y="-389" font-family="Helvetica,sans-Serif" font-size="10.00">authoring.model.collections.</text>
<text text-anchor="middle" x="667" y="-378" font-family="Helvetica,sans-Serif" font-size="10.00">GeneralCollection.add</text>
</a>
</g>
</g>
<!-- Node3&#45;&gt;Node5 -->
<g id="edge4" class="edge"><title>Node3&#45;&gt;Node5</title>
<path fill="none" stroke="midnightblue" d="M468.747,-229.055C484.889,-258.903 525.066,-325.736 578,-361 581.09,-363.058 584.349,-364.949 587.721,-366.686"/>
<polygon fill="midnightblue" stroke="midnightblue" points="586.326,-369.897 596.871,-370.933 589.274,-363.548 586.326,-369.897"/>
</g>
<!-- Node6 -->
<g id="node6" class="node"><title>Node6</title>
<g id="a_node6"><a xlink:href="../../d7/dbf/classauthoring_1_1model_1_1_game_data.html#a5188274f1af76c8d2e05a7c8dcba3805" target="_top" xlink:title="authoring.model.GameData.get\lLevels">
<polygon fill="white" stroke="black" points="582,-322 582,-352 752,-352 752,-322 582,-322"/>
<text text-anchor="start" x="590" y="-340" font-family="Helvetica,sans-Serif" font-size="10.00">authoring.model.GameData.get</text>
<text text-anchor="middle" x="667" y="-329" font-family="Helvetica,sans-Serif" font-size="10.00">Levels</text>
</a>
</g>
</g>
<!-- Node3&#45;&gt;Node6 -->
<g id="edge5" class="edge"><title>Node3&#45;&gt;Node6</title>
<path fill="none" stroke="midnightblue" d="M475.011,-229.24C495.584,-250.734 536.086,-289.803 578,-312 582.25,-314.251 586.726,-316.319 591.315,-318.216"/>
<polygon fill="midnightblue" stroke="midnightblue" points="590.266,-321.562 600.857,-321.874 592.772,-315.026 590.266,-321.562"/>
</g>
<!-- Node7 -->
<g id="node7" class="node"><title>Node7</title>
<g id="a_node7"><a xlink:href="../../d7/dbf/classauthoring_1_1model_1_1_game_data.html#ab6eab149af02a9649d0e2b162daf3600" target="_top" xlink:title="authoring.model.GameData.get\lGameObjects">
<polygon fill="white" stroke="black" points="582,-273 582,-303 752,-303 752,-273 582,-273"/>
<text text-anchor="start" x="590" y="-291" font-family="Helvetica,sans-Serif" font-size="10.00">authoring.model.GameData.get</text>
<text text-anchor="middle" x="667" y="-280" font-family="Helvetica,sans-Serif" font-size="10.00">GameObjects</text>
</a>
</g>
</g>
<!-- Node3&#45;&gt;Node7 -->
<g id="edge6" class="edge"><title>Node3&#45;&gt;Node7</title>
<path fill="none" stroke="midnightblue" d="M493.873,-229.012C517.098,-239.31 549.108,-252.887 578,-263 584.905,-265.417 592.174,-267.774 599.453,-270.013"/>
<polygon fill="midnightblue" stroke="midnightblue" points="598.767,-273.462 609.351,-272.99 600.783,-266.758 598.767,-273.462"/>
</g>
<!-- Node8 -->
<g id="node8" class="node"><title>Node8</title>
<g id="a_node8"><a xlink:href="../../d4/d3b/classauthoring_1_1model_1_1collections_1_1_general_collection.html#ac1a07043ac0a440791b84cee1604745c" target="_top" xlink:title="authoring.model.collections.\lGeneralCollection.remove">
<polygon fill="white" stroke="black" points="591,-224 591,-254 743,-254 743,-224 591,-224"/>
<text text-anchor="start" x="599" y="-242" font-family="Helvetica,sans-Serif" font-size="10.00">authoring.model.collections.</text>
<text text-anchor="middle" x="667" y="-231" font-family="Helvetica,sans-Serif" font-size="10.00">GeneralCollection.remove</text>
</a>
</g>
</g>
<!-- Node3&#45;&gt;Node8 -->
<g id="edge7" class="edge"><title>Node3&#45;&gt;Node8</title>
<path fill="none" stroke="midnightblue" d="M541.727,-223.845C554.458,-225.397 567.659,-227.007 580.494,-228.572"/>
<polygon fill="midnightblue" stroke="midnightblue" points="580.343,-232.08 590.693,-229.816 581.191,-225.131 580.343,-232.08"/>
</g>
<!-- Node9 -->
<g id="node9" class="node"><title>Node9</title>
<g id="a_node9"><a xlink:href="../../df/d84/classengine_1_1level_1_1_level.html#ac6aa999d5ea5fa90274d0d201dab1f8c" target="_top" xlink:title="engine.level.Level.setStart\lIndicator">
<polygon fill="white" stroke="black" points="595.5,-175 595.5,-205 738.5,-205 738.5,-175 595.5,-175"/>
<text text-anchor="start" x="603.5" y="-193" font-family="Helvetica,sans-Serif" font-size="10.00">engine.level.Level.setStart</text>
<text text-anchor="middle" x="667" y="-182" font-family="Helvetica,sans-Serif" font-size="10.00">Indicator</text>
</a>
</g>
</g>
<!-- Node3&#45;&gt;Node9 -->
<g id="edge8" class="edge"><title>Node3&#45;&gt;Node9</title>
<path fill="none" stroke="midnightblue" d="M541.727,-204.549C555.973,-202.881 570.806,-201.145 585.057,-199.476"/>
<polygon fill="midnightblue" stroke="midnightblue" points="585.79,-202.914 595.315,-198.275 584.976,-195.962 585.79,-202.914"/>
</g>
<!-- Node10 -->
<g id="node10" class="node"><title>Node10</title>
<g id="a_node10"><a xlink:href="../../df/d84/classengine_1_1level_1_1_level.html#a978e8f0a732aecf29203b898e27b16b0" target="_top" xlink:title="engine.level.Level.setIdentifier">
<polygon fill="white" stroke="black" points="586.5,-136.5 586.5,-155.5 747.5,-155.5 747.5,-136.5 586.5,-136.5"/>
<text text-anchor="middle" x="667" y="-143.5" font-family="Helvetica,sans-Serif" font-size="10.00">engine.level.Level.setIdentifier</text>
</a>
</g>
</g>
<!-- Node3&#45;&gt;Node10 -->
<g id="edge9" class="edge"><title>Node3&#45;&gt;Node10</title>
<path fill="none" stroke="midnightblue" d="M493.495,-198.965C516.68,-188.661 548.799,-175.238 578,-166 587.411,-163.023 597.519,-160.3 607.412,-157.886"/>
<polygon fill="midnightblue" stroke="midnightblue" points="608.269,-161.28 617.199,-155.577 606.662,-154.467 608.269,-161.28"/>
</g>
<!-- Node11 -->
<g id="node11" class="node"><title>Node11</title>
<g id="a_node11"><a xlink:href="../../df/d84/classengine_1_1level_1_1_level.html#a1b07e6b160c4d26c8f02c1d57ef117bc" target="_top" xlink:title="engine.level.Level.setConditionIds">
<polygon fill="white" stroke="black" points="578,-98.5 578,-117.5 756,-117.5 756,-98.5 578,-98.5"/>
<text text-anchor="middle" x="667" y="-105.5" font-family="Helvetica,sans-Serif" font-size="10.00">engine.level.Level.setConditionIds</text>
</a>
</g>
</g>
<!-- Node3&#45;&gt;Node11 -->
<g id="edge10" class="edge"><title>Node3&#45;&gt;Node11</title>
<path fill="none" stroke="midnightblue" d="M476.612,-198.88C497.799,-179.239 537.662,-145.306 578,-127 583.604,-124.457 589.566,-122.246 595.644,-120.327"/>
<polygon fill="midnightblue" stroke="midnightblue" points="596.622,-123.687 605.253,-117.543 594.674,-116.964 596.622,-123.687"/>
</g>
<!-- Node12 -->
<g id="node12" class="node"><title>Node12</title>
<g id="a_node12"><a xlink:href="../../d7/dbf/classauthoring_1_1model_1_1_game_data.html#a4a3bfa5ed2418ba59bdf3e73b4ce310a" target="_top" xlink:title="authoring.model.GameData.get\lConditions">
<polygon fill="white" stroke="black" points="582,-49 582,-79 752,-79 752,-49 582,-49"/>
<text text-anchor="start" x="590" y="-67" font-family="Helvetica,sans-Serif" font-size="10.00">authoring.model.GameData.get</text>
<text text-anchor="middle" x="667" y="-56" font-family="Helvetica,sans-Serif" font-size="10.00">Conditions</text>
</a>
</g>
</g>
<!-- Node3&#45;&gt;Node12 -->
<g id="edge11" class="edge"><title>Node3&#45;&gt;Node12</title>
<path fill="none" stroke="midnightblue" d="M470.991,-198.806C489.122,-172.443 530.036,-118.25 578,-89 581.585,-86.8138 585.368,-84.8125 589.27,-82.9813"/>
<polygon fill="midnightblue" stroke="midnightblue" points="590.735,-86.1612 598.553,-79.01 587.982,-79.7254 590.735,-86.1612"/>
</g>
<!-- Node13 -->
<g id="node13" class="node"><title>Node13</title>
<g id="a_node13"><a xlink:href="../../d7/dbf/classauthoring_1_1model_1_1_game_data.html#a4c24125abc447d6793b3d31091d7912a" target="_top" xlink:title="authoring.model.GameData.get\lSounds">
<polygon fill="white" stroke="black" points="582,-0 582,-30 752,-30 752,-0 582,-0"/>
<text text-anchor="start" x="590" y="-18" font-family="Helvetica,sans-Serif" font-size="10.00">authoring.model.GameData.get</text>
<text text-anchor="middle" x="667" y="-7" font-family="Helvetica,sans-Serif" font-size="10.00">Sounds</text>
</a>
</g>
</g>
<!-- Node3&#45;&gt;Node13 -->
<g id="edge12" class="edge"><title>Node3&#45;&gt;Node13</title>
<path fill="none" stroke="midnightblue" d="M466.888,-198.803C480.81,-164.91 519.078,-82.7638 578,-40 580.553,-38.1473 583.239,-36.4317 586.023,-34.8429"/>
<polygon fill="midnightblue" stroke="midnightblue" points="587.865,-37.8331 595.2,-30.1882 584.698,-31.5901 587.865,-37.8331"/>
</g>
</g>
</svg>
