<?xml version="1.0" encoding="UTF-8" standalone="no"?>
<!DOCTYPE svg PUBLIC "-//W3C//DTD SVG 1.1//EN"
 "http://www.w3.org/Graphics/SVG/1.1/DTD/svg11.dtd">
<!-- Generated by graphviz version 2.36.0 (20140111.2315)
 -->
<!-- Title: authoring.controller.AuthoringController.initializeView Pages: 1 -->
<svg width="840pt" height="1110pt"
 viewBox="0.00 0.00 840.00 1110.00" xmlns="http://www.w3.org/2000/svg" xmlns:xlink="http://www.w3.org/1999/xlink">
<g id="graph0" class="graph" transform="scale(1 1) rotate(0) translate(4 1106)">
<title>authoring.controller.AuthoringController.initializeView</title>
<polygon fill="white" stroke="none" points="-4,4 -4,-1106 836,-1106 836,4 -4,4"/>
<!-- Node1 -->
<g id="node1" class="node"><title>Node1</title>
<polygon fill="#bfbfbf" stroke="black" points="0.5,-740 0.5,-770 159.5,-770 159.5,-740 0.5,-740"/>
<text text-anchor="start" x="8.5" y="-758" font-family="Helvetica,sans-Serif" font-size="10.00">authoring.controller.Authoring</text>
<text text-anchor="middle" x="80" y="-747" font-family="Helvetica,sans-Serif" font-size="10.00">Controller.initializeView</text>
</g>
<!-- Node2 -->
<g id="node2" class="node"><title>Node2</title>
<g id="a_node2"><a xlink:href="../../d4/d68/classauthoring_1_1model_1_1_authoring_model.html#add8c0f47d979f36f05c4a50eaf56be05" target="_top" xlink:title="authoring.model.Authoring\lModel.getConditions">
<polygon fill="white" stroke="black" points="450.5,-1072 450.5,-1102 595.5,-1102 595.5,-1072 450.5,-1072"/>
<text text-anchor="start" x="458.5" y="-1090" font-family="Helvetica,sans-Serif" font-size="10.00">authoring.model.Authoring</text>
<text text-anchor="middle" x="523" y="-1079" font-family="Helvetica,sans-Serif" font-size="10.00">Model.getConditions</text>
</a>
</g>
</g>
<!-- Node1&#45;&gt;Node2 -->
<g id="edge1" class="edge"><title>Node1&#45;&gt;Node2</title>
<path fill="none" stroke="midnightblue" d="M83.9457,-770.023C92.9035,-811.699 123.746,-929.775 196,-992 264.547,-1051.03 368.052,-1073.43 439.976,-1081.9"/>
<polygon fill="midnightblue" stroke="midnightblue" points="440.025,-1085.43 450.35,-1083.05 440.797,-1078.47 440.025,-1085.43"/>
</g>
<!-- Node4 -->
<g id="node4" class="node"><title>Node4</title>
<g id="a_node4"><a xlink:href="../../d4/d68/classauthoring_1_1model_1_1_authoring_model.html#a87180f6e7da3deba3c362fb21b5b9a92" target="_top" xlink:title="authoring.model.Authoring\lModel.getGameObjectCollection">
<polygon fill="white" stroke="black" points="438,-1023 438,-1053 608,-1053 608,-1023 438,-1023"/>
<text text-anchor="start" x="446" y="-1041" font-family="Helvetica,sans-Serif" font-size="10.00">authoring.model.Authoring</text>
<text text-anchor="middle" x="523" y="-1030" font-family="Helvetica,sans-Serif" font-size="10.00">Model.getGameObjectCollection</text>
</a>
</g>
</g>
<!-- Node1&#45;&gt;Node4 -->
<g id="edge3" class="edge"><title>Node1&#45;&gt;Node4</title>
<path fill="none" stroke="midnightblue" d="M86.2995,-770.094C99.3328,-805.045 136.298,-892.124 196,-939 262.956,-991.572 357.664,-1016.32 427.758,-1027.92"/>
<polygon fill="midnightblue" stroke="midnightblue" points="427.488,-1031.42 437.914,-1029.54 428.589,-1024.51 427.488,-1031.42"/>
</g>
<!-- Node6 -->
<g id="node6" class="node"><title>Node6</title>
<g id="a_node6"><a xlink:href="../../d4/d68/classauthoring_1_1model_1_1_authoring_model.html#a0ff287c01f790618e3a61e5a879bca1b" target="_top" xlink:title="authoring.model.Authoring\lModel.getImages">
<polygon fill="white" stroke="black" points="450.5,-974 450.5,-1004 595.5,-1004 595.5,-974 450.5,-974"/>
<text text-anchor="start" x="458.5" y="-992" font-family="Helvetica,sans-Serif" font-size="10.00">authoring.model.Authoring</text>
<text text-anchor="middle" x="523" y="-981" font-family="Helvetica,sans-Serif" font-size="10.00">Model.getImages</text>
</a>
</g>
</g>
<!-- Node1&#45;&gt;Node6 -->
<g id="edge5" class="edge"><title>Node1&#45;&gt;Node6</title>
<path fill="none" stroke="midnightblue" d="M90.4383,-770.366C107.954,-797.658 148.098,-854.746 196,-887 270.43,-937.117 370.761,-963.623 440.374,-976.921"/>
<polygon fill="midnightblue" stroke="midnightblue" points="439.944,-980.401 450.415,-978.789 441.224,-973.519 439.944,-980.401"/>
</g>
<!-- Node8 -->
<g id="node8" class="node"><title>Node8</title>
<g id="a_node8"><a xlink:href="../../d4/d68/classauthoring_1_1model_1_1_authoring_model.html#a56085978a2f30a7d9ae50138b5b98e78" target="_top" xlink:title="authoring.model.Authoring\lModel.getLevels">
<polygon fill="white" stroke="black" points="450.5,-925 450.5,-955 595.5,-955 595.5,-925 450.5,-925"/>
<text text-anchor="start" x="458.5" y="-943" font-family="Helvetica,sans-Serif" font-size="10.00">authoring.model.Authoring</text>
<text text-anchor="middle" x="523" y="-932" font-family="Helvetica,sans-Serif" font-size="10.00">Model.getLevels</text>
</a>
</g>
</g>
<!-- Node1&#45;&gt;Node8 -->
<g id="edge7" class="edge"><title>Node1&#45;&gt;Node8</title>
<path fill="none" stroke="midnightblue" d="M98.206,-770.188C119.773,-788.581 158.479,-819.515 196,-839 274.686,-879.863 372.771,-907.464 440.69,-923.345"/>
<polygon fill="midnightblue" stroke="midnightblue" points="439.955,-926.768 450.486,-925.603 441.528,-919.946 439.955,-926.768"/>
</g>
<!-- Node10 -->
<g id="node10" class="node"><title>Node10</title>
<g id="a_node10"><a xlink:href="../../d4/d68/classauthoring_1_1model_1_1_authoring_model.html#a36b0bf5dc987000328b00a660f686a3b" target="_top" xlink:title="authoring.model.Authoring\lModel.getSounds">
<polygon fill="white" stroke="black" points="450.5,-876 450.5,-906 595.5,-906 595.5,-876 450.5,-876"/>
<text text-anchor="start" x="458.5" y="-894" font-family="Helvetica,sans-Serif" font-size="10.00">authoring.model.Authoring</text>
<text text-anchor="middle" x="523" y="-883" font-family="Helvetica,sans-Serif" font-size="10.00">Model.getSounds</text>
</a>
</g>
</g>
<!-- Node1&#45;&gt;Node10 -->
<g id="edge9" class="edge"><title>Node1&#45;&gt;Node10</title>
<path fill="none" stroke="midnightblue" d="M123.49,-770.067C187.387,-792.463 312.225,-835.196 420,-866 428.819,-868.521 438.11,-871.016 447.348,-873.398"/>
<polygon fill="midnightblue" stroke="midnightblue" points="446.772,-876.863 457.326,-875.935 448.497,-870.079 446.772,-876.863"/>
</g>
<!-- Node12 -->
<g id="node12" class="node"><title>Node12</title>
<g id="a_node12"><a xlink:href="../../de/d41/classauthoring_1_1controller_1_1_authoring_controller.html#afa4d4de3a843b1f950f11839acfaef2b" target="_top" xlink:title="authoring.controller.Authoring\lController.initializeGameHandlers">
<polygon fill="white" stroke="black" points="202,-680 202,-710 378,-710 378,-680 202,-680"/>
<text text-anchor="start" x="210" y="-698" font-family="Helvetica,sans-Serif" font-size="10.00">authoring.controller.Authoring</text>
<text text-anchor="middle" x="290" y="-687" font-family="Helvetica,sans-Serif" font-size="10.00">Controller.initializeGameHandlers</text>
</a>
</g>
</g>
<!-- Node1&#45;&gt;Node12 -->
<g id="edge11" class="edge"><title>Node1&#45;&gt;Node12</title>
<path fill="none" stroke="midnightblue" d="M133.219,-739.937C161.654,-731.735 197.022,-721.532 226.868,-712.923"/>
<polygon fill="midnightblue" stroke="midnightblue" points="228.122,-716.204 236.76,-710.069 226.181,-709.478 228.122,-716.204"/>
</g>
<!-- Node30 -->
<g id="node30" class="node"><title>Node30</title>
<g id="a_node30"><a xlink:href="../../de/d41/classauthoring_1_1controller_1_1_authoring_controller.html#a7f5fa6773f15936633fb3c9178e121e4" target="_top" xlink:title="authoring.controller.Authoring\lController.initializeLeft">
<polygon fill="white" stroke="black" points="210.5,-631 210.5,-661 369.5,-661 369.5,-631 210.5,-631"/>
<text text-anchor="start" x="218.5" y="-649" font-family="Helvetica,sans-Serif" font-size="10.00">authoring.controller.Authoring</text>
<text text-anchor="middle" x="290" y="-638" font-family="Helvetica,sans-Serif" font-size="10.00">Controller.initializeLeft</text>
</a>
</g>
</g>
<!-- Node1&#45;&gt;Node30 -->
<g id="edge34" class="edge"><title>Node1&#45;&gt;Node30</title>
<path fill="none" stroke="midnightblue" d="M97.1987,-739.813C118.338,-720.795 157.224,-688.47 196,-670 200.091,-668.052 204.36,-666.246 208.726,-664.576"/>
<polygon fill="midnightblue" stroke="midnightblue" points="210.154,-667.783 218.401,-661.131 207.806,-661.188 210.154,-667.783"/>
</g>
<!-- Node31 -->
<g id="node31" class="node"><title>Node31</title>
<g id="a_node31"><a xlink:href="../../de/d41/classauthoring_1_1controller_1_1_authoring_controller.html#a77c720b9688f6a21086b9a43b3225afd" target="_top" xlink:title="authoring.controller.Authoring\lController.initializeRight">
<polygon fill="white" stroke="black" points="210.5,-582 210.5,-612 369.5,-612 369.5,-582 210.5,-582"/>
<text text-anchor="start" x="218.5" y="-600" font-family="Helvetica,sans-Serif" font-size="10.00">authoring.controller.Authoring</text>
<text text-anchor="middle" x="290" y="-589" font-family="Helvetica,sans-Serif" font-size="10.00">Controller.initializeRight</text>
</a>
</g>
</g>
<!-- Node1&#45;&gt;Node31 -->
<g id="edge35" class="edge"><title>Node1&#45;&gt;Node31</title>
<path fill="none" stroke="midnightblue" d="M89.6009,-739.897C106.332,-711.934 146.038,-652.119 196,-621 198.674,-619.335 201.459,-617.784 204.326,-616.341"/>
<polygon fill="midnightblue" stroke="midnightblue" points="206.051,-619.402 213.716,-612.088 203.163,-613.026 206.051,-619.402"/>
</g>
<!-- Node32 -->
<g id="node32" class="node"><title>Node32</title>
<g id="a_node32"><a xlink:href="../../de/d41/classauthoring_1_1controller_1_1_authoring_controller.html#a1924724b87a2a7a61f3bbe306835aaad" target="_top" xlink:title="authoring.controller.Authoring\lController.initializeViewComponents">
<polygon fill="white" stroke="black" points="196.5,-533 196.5,-563 383.5,-563 383.5,-533 196.5,-533"/>
<text text-anchor="start" x="204.5" y="-551" font-family="Helvetica,sans-Serif" font-size="10.00">authoring.controller.Authoring</text>
<text text-anchor="middle" x="290" y="-540" font-family="Helvetica,sans-Serif" font-size="10.00">Controller.initializeViewComponents</text>
</a>
</g>
</g>
<!-- Node1&#45;&gt;Node32 -->
<g id="edge36" class="edge"><title>Node1&#45;&gt;Node32</title>
<path fill="none" stroke="midnightblue" d="M86.0235,-739.978C98.5822,-704.808 134.805,-616.726 196,-572 198.061,-570.493 200.209,-569.081 202.425,-567.757"/>
<polygon fill="midnightblue" stroke="midnightblue" points="204.071,-570.846 211.274,-563.077 200.798,-564.658 204.071,-570.846"/>
</g>
<!-- Node33 -->
<g id="node33" class="node"><title>Node33</title>
<g id="a_node33"><a xlink:href="../../de/d41/classauthoring_1_1controller_1_1_authoring_controller.html#a77c6a857711dd70a6c908b1325382c61" target="_top" xlink:title="authoring.controller.Authoring\lController.intitializeCenter">
<polygon fill="white" stroke="black" points="210.5,-484 210.5,-514 369.5,-514 369.5,-484 210.5,-484"/>
<text text-anchor="start" x="218.5" y="-502" font-family="Helvetica,sans-Serif" font-size="10.00">authoring.controller.Authoring</text>
<text text-anchor="middle" x="290" y="-491" font-family="Helvetica,sans-Serif" font-size="10.00">Controller.intitializeCenter</text>
</a>
</g>
</g>
<!-- Node1&#45;&gt;Node33 -->
<g id="edge37" class="edge"><title>Node1&#45;&gt;Node33</title>
<path fill="none" stroke="midnightblue" d="M83.9542,-739.803C92.8516,-698.248 123.386,-581.91 196,-523 197.789,-521.549 199.655,-520.185 201.585,-518.902"/>
<polygon fill="midnightblue" stroke="midnightblue" points="203.52,-521.826 210.418,-513.784 200.011,-515.769 203.52,-521.826"/>
</g>
<!-- Node3 -->
<g id="node3" class="node"><title>Node3</title>
<g id="a_node3"><a xlink:href="../../d7/dbf/classauthoring_1_1model_1_1_game_data.html#a4a3bfa5ed2418ba59bdf3e73b4ce310a" target="_top" xlink:title="authoring.model.GameData.get\lConditions">
<polygon fill="white" stroke="black" points="662,-1072 662,-1102 832,-1102 832,-1072 662,-1072"/>
<text text-anchor="start" x="670" y="-1090" font-family="Helvetica,sans-Serif" font-size="10.00">authoring.model.GameData.get</text>
<text text-anchor="middle" x="747" y="-1079" font-family="Helvetica,sans-Serif" font-size="10.00">Conditions</text>
</a>
</g>
</g>
<!-- Node2&#45;&gt;Node3 -->
<g id="edge2" class="edge"><title>Node2&#45;&gt;Node3</title>
<path fill="none" stroke="midnightblue" d="M595.77,-1087C613.596,-1087 632.97,-1087 651.696,-1087"/>
<polygon fill="midnightblue" stroke="midnightblue" points="651.716,-1090.5 661.716,-1087 651.716,-1083.5 651.716,-1090.5"/>
</g>
<!-- Node5 -->
<g id="node5" class="node"><title>Node5</title>
<g id="a_node5"><a xlink:href="../../d7/dbf/classauthoring_1_1model_1_1_game_data.html#ab6eab149af02a9649d0e2b162daf3600" target="_top" xlink:title="authoring.model.GameData.get\lGameObjects">
<polygon fill="white" stroke="black" points="662,-1023 662,-1053 832,-1053 832,-1023 662,-1023"/>
<text text-anchor="start" x="670" y="-1041" font-family="Helvetica,sans-Serif" font-size="10.00">authoring.model.GameData.get</text>
<text text-anchor="middle" x="747" y="-1030" font-family="Helvetica,sans-Serif" font-size="10.00">GameObjects</text>
</a>
</g>
</g>
<!-- Node4&#45;&gt;Node5 -->
<g id="edge4" class="edge"><title>Node4&#45;&gt;Node5</title>
<path fill="none" stroke="midnightblue" d="M608.245,-1038C622.36,-1038 637.088,-1038 651.441,-1038"/>
<polygon fill="midnightblue" stroke="midnightblue" points="651.812,-1041.5 661.812,-1038 651.812,-1034.5 651.812,-1041.5"/>
</g>
<!-- Node7 -->
<g id="node7" class="node"><title>Node7</title>
<g id="a_node7"><a xlink:href="../../d7/dbf/classauthoring_1_1model_1_1_game_data.html#a5646a2267289545d487d4fe4a8a6298e" target="_top" xlink:title="authoring.model.GameData.get\lImages">
<polygon fill="white" stroke="black" points="662,-974 662,-1004 832,-1004 832,-974 662,-974"/>
<text text-anchor="start" x="670" y="-992" font-family="Helvetica,sans-Serif" font-size="10.00">authoring.model.GameData.get</text>
<text text-anchor="middle" x="747" y="-981" font-family="Helvetica,sans-Serif" font-size="10.00">Images</text>
</a>
</g>
</g>
<!-- Node6&#45;&gt;Node7 -->
<g id="edge6" class="edge"><title>Node6&#45;&gt;Node7</title>
<path fill="none" stroke="midnightblue" d="M595.77,-989C613.596,-989 632.97,-989 651.696,-989"/>
<polygon fill="midnightblue" stroke="midnightblue" points="651.716,-992.5 661.716,-989 651.716,-985.5 651.716,-992.5"/>
</g>
<!-- Node9 -->
<g id="node9" class="node"><title>Node9</title>
<g id="a_node9"><a xlink:href="../../d7/dbf/classauthoring_1_1model_1_1_game_data.html#a5188274f1af76c8d2e05a7c8dcba3805" target="_top" xlink:title="authoring.model.GameData.get\lLevels">
<polygon fill="white" stroke="black" points="662,-925 662,-955 832,-955 832,-925 662,-925"/>
<text text-anchor="start" x="670" y="-943" font-family="Helvetica,sans-Serif" font-size="10.00">authoring.model.GameData.get</text>
<text text-anchor="middle" x="747" y="-932" font-family="Helvetica,sans-Serif" font-size="10.00">Levels</text>
</a>
</g>
</g>
<!-- Node8&#45;&gt;Node9 -->
<g id="edge8" class="edge"><title>Node8&#45;&gt;Node9</title>
<path fill="none" stroke="midnightblue" d="M595.77,-940C613.596,-940 632.97,-940 651.696,-940"/>
<polygon fill="midnightblue" stroke="midnightblue" points="651.716,-943.5 661.716,-940 651.716,-936.5 651.716,-943.5"/>
</g>
<!-- Node11 -->
<g id="node11" class="node"><title>Node11</title>
<g id="a_node11"><a xlink:href="../../d7/dbf/classauthoring_1_1model_1_1_game_data.html#a4c24125abc447d6793b3d31091d7912a" target="_top" xlink:title="authoring.model.GameData.get\lSounds">
<polygon fill="white" stroke="black" points="662,-876 662,-906 832,-906 832,-876 662,-876"/>
<text text-anchor="start" x="670" y="-894" font-family="Helvetica,sans-Serif" font-size="10.00">authoring.model.GameData.get</text>
<text text-anchor="middle" x="747" y="-883" font-family="Helvetica,sans-Serif" font-size="10.00">Sounds</text>
</a>
</g>
</g>
<!-- Node10&#45;&gt;Node11 -->
<g id="edge10" class="edge"><title>Node10&#45;&gt;Node11</title>
<path fill="none" stroke="midnightblue" d="M595.77,-891C613.596,-891 632.97,-891 651.696,-891"/>
<polygon fill="midnightblue" stroke="midnightblue" points="651.716,-894.5 661.716,-891 651.716,-887.5 651.716,-894.5"/>
</g>
<!-- Node12&#45;&gt;Node2 -->
<g id="edge12" class="edge"><title>Node12&#45;&gt;Node2</title>
<path fill="none" stroke="midnightblue" d="M291.474,-710.321C294.076,-766.505 310.936,-963.098 420,-1062 426.097,-1067.53 433.216,-1071.89 440.807,-1075.31"/>
<polygon fill="midnightblue" stroke="midnightblue" points="439.675,-1078.63 450.262,-1079.04 442.246,-1072.12 439.675,-1078.63"/>
</g>
<!-- Node12&#45;&gt;Node4 -->
<g id="edge13" class="edge"><title>Node12&#45;&gt;Node4</title>
<path fill="none" stroke="midnightblue" d="M292.372,-710.054C297.857,-761.089 322.876,-929.03 420,-1013 422.858,-1015.47 425.921,-1017.71 429.138,-1019.73"/>
<polygon fill="midnightblue" stroke="midnightblue" points="427.527,-1022.83 437.975,-1024.59 430.901,-1016.7 427.527,-1022.83"/>
</g>
<!-- Node12&#45;&gt;Node6 -->
<g id="edge14" class="edge"><title>Node12&#45;&gt;Node6</title>
<path fill="none" stroke="midnightblue" d="M293.63,-710.299C302.385,-756.386 334.96,-894.949 420,-964 426.22,-969.051 433.31,-973.104 440.789,-976.353"/>
<polygon fill="midnightblue" stroke="midnightblue" points="439.843,-979.739 450.433,-980.054 442.351,-973.204 439.843,-979.739"/>
</g>
<!-- Node12&#45;&gt;Node8 -->
<g id="edge15" class="edge"><title>Node12&#45;&gt;Node8</title>
<path fill="none" stroke="midnightblue" d="M295.292,-710.075C307.523,-750.194 346.509,-860.236 420,-915 426.322,-919.711 433.418,-923.544 440.847,-926.661"/>
<polygon fill="midnightblue" stroke="midnightblue" points="439.81,-930.009 450.402,-930.238 442.264,-923.454 439.81,-930.009"/>
</g>
<!-- Node12&#45;&gt;Node10 -->
<g id="edge16" class="edge"><title>Node12&#45;&gt;Node10</title>
<path fill="none" stroke="midnightblue" d="M306.305,-710.278C325.729,-730.129 359.634,-766.358 384,-801 402.999,-828.011 393.764,-845.944 420,-866 426.264,-870.788 433.321,-874.672 440.727,-877.821"/>
<polygon fill="midnightblue" stroke="midnightblue" points="439.667,-881.162 450.258,-881.428 442.145,-874.615 439.667,-881.162"/>
</g>
<!-- Node13 -->
<g id="node13" class="node"><title>Node13</title>
<g id="a_node13"><a xlink:href="../../d1/dfb/classauthoring_1_1view_1_1conditionsview_1_1_condition_options.html#a8bc3200f7ebf96756884fcfedc5cad15" target="_top" xlink:title="authoring.view.conditionsview.\lConditionOptions.setAddCondition\lButtonBehavior">
<polygon fill="white" stroke="black" points="433,-60.5 433,-101.5 613,-101.5 613,-60.5 433,-60.5"/>
<text text-anchor="start" x="441" y="-89.5" font-family="Helvetica,sans-Serif" font-size="10.00">authoring.view.conditionsview.</text>
<text text-anchor="start" x="441" y="-78.5" font-family="Helvetica,sans-Serif" font-size="10.00">ConditionOptions.setAddCondition</text>
<text text-anchor="middle" x="523" y="-67.5" font-family="Helvetica,sans-Serif" font-size="10.00">ButtonBehavior</text>
</a>
</g>
</g>
<!-- Node12&#45;&gt;Node13 -->
<g id="edge17" class="edge"><title>Node12&#45;&gt;Node13</title>
<path fill="none" stroke="midnightblue" d="M373.444,-679.738C377.359,-676.973 380.928,-673.751 384,-670 463.01,-573.523 341.686,-207.043 420,-110 421.503,-108.138 423.116,-106.389 424.825,-104.749"/>
<polygon fill="midnightblue" stroke="midnightblue" points="427.313,-107.238 432.881,-98.2237 422.907,-101.798 427.313,-107.238"/>
</g>
<!-- Node14 -->
<g id="node14" class="node"><title>Node14</title>
<g id="a_node14"><a xlink:href="../../d4/df1/classauthoring_1_1view_1_1levelview_1_1_level_options.html#a81adef99687136df955085330b696fe2" target="_top" xlink:title="authoring.view.levelview.\lLevelOptions.setAddLevelButton\lBehavior">
<polygon fill="white" stroke="black" points="437,-0.5 437,-41.5 609,-41.5 609,-0.5 437,-0.5"/>
<text text-anchor="start" x="445" y="-29.5" font-family="Helvetica,sans-Serif" font-size="10.00">authoring.view.levelview.</text>
<text text-anchor="start" x="445" y="-18.5" font-family="Helvetica,sans-Serif" font-size="10.00">LevelOptions.setAddLevelButton</text>
<text text-anchor="middle" x="523" y="-7.5" font-family="Helvetica,sans-Serif" font-size="10.00">Behavior</text>
</a>
</g>
</g>
<!-- Node12&#45;&gt;Node14 -->
<g id="edge18" class="edge"><title>Node12&#45;&gt;Node14</title>
<path fill="none" stroke="midnightblue" d="M373.471,-679.76C377.379,-676.99 380.939,-673.76 384,-670 470.976,-563.132 334.282,-158.88 420,-51 422.575,-47.7596 425.481,-44.8568 428.641,-42.2571"/>
<polygon fill="midnightblue" stroke="midnightblue" points="430.805,-45.0141 436.973,-36.4001 426.779,-39.2874 430.805,-45.0141"/>
</g>
<!-- Node15 -->
<g id="node15" class="node"><title>Node15</title>
<g id="a_node15"><a xlink:href="../../d7/dee/classauthoring_1_1view_1_1graphicsview_1_1_graphic_options.html#add1317ccea15353263c6590fa461e9dd" target="_top" xlink:title="authoring.view.graphicsview.\lGraphicOptions.setButtonBehavior">
<polygon fill="white" stroke="black" points="432,-827 432,-857 614,-857 614,-827 432,-827"/>
<text text-anchor="start" x="440" y="-845" font-family="Helvetica,sans-Serif" font-size="10.00">authoring.view.graphicsview.</text>
<text text-anchor="middle" x="523" y="-834" font-family="Helvetica,sans-Serif" font-size="10.00">GraphicOptions.setButtonBehavior</text>
</a>
</g>
</g>
<!-- Node12&#45;&gt;Node15 -->
<g id="edge19" class="edge"><title>Node12&#45;&gt;Node15</title>
<path fill="none" stroke="midnightblue" d="M302.699,-710.381C323.396,-736.473 369.114,-789.271 420,-817 424.23,-819.305 428.674,-821.401 433.241,-823.305"/>
<polygon fill="midnightblue" stroke="midnightblue" points="432.173,-826.644 442.763,-826.953 434.677,-820.107 432.173,-826.644"/>
</g>
<!-- Node16 -->
<g id="node16" class="node"><title>Node16</title>
<g id="a_node16"><a xlink:href="../../d0/d5e/classauthoring_1_1view_1_1soundsview_1_1_sound_options.html#a98ce38c993d2010aaba971a12c521449" target="_top" xlink:title="authoring.view.soundsview.\lSoundOptions.setButtonBehavior">
<polygon fill="white" stroke="black" points="435,-778 435,-808 611,-808 611,-778 435,-778"/>
<text text-anchor="start" x="443" y="-796" font-family="Helvetica,sans-Serif" font-size="10.00">authoring.view.soundsview.</text>
<text text-anchor="middle" x="523" y="-785" font-family="Helvetica,sans-Serif" font-size="10.00">SoundOptions.setButtonBehavior</text>
</a>
</g>
</g>
<!-- Node12&#45;&gt;Node16 -->
<g id="edge20" class="edge"><title>Node12&#45;&gt;Node16</title>
<path fill="none" stroke="midnightblue" d="M313.351,-710.18C338.352,-726.543 380.532,-752.343 420,-768 426.377,-770.53 433.082,-772.856 439.882,-774.983"/>
<polygon fill="midnightblue" stroke="midnightblue" points="439.302,-778.462 449.885,-777.959 441.298,-771.753 439.302,-778.462"/>
</g>
<!-- Node17 -->
<g id="node17" class="node"><title>Node17</title>
<g id="a_node17"><a xlink:href="../../d6/d03/classauthoring_1_1view_1_1gameobjectsview_1_1_game_object_options.html#a71c7fa3c38b7d2b105ce1940d72a7711" target="_top" xlink:title="authoring.view.gameobjectsview.\lGameObjectOptions.setButtonBehavior">
<polygon fill="white" stroke="black" points="420,-729 420,-759 626,-759 626,-729 420,-729"/>
<text text-anchor="start" x="428" y="-747" font-family="Helvetica,sans-Serif" font-size="10.00">authoring.view.gameobjectsview.</text>
<text text-anchor="middle" x="523" y="-736" font-family="Helvetica,sans-Serif" font-size="10.00">GameObjectOptions.setButtonBehavior</text>
</a>
</g>
</g>
<!-- Node12&#45;&gt;Node17 -->
<g id="edge21" class="edge"><title>Node12&#45;&gt;Node17</title>
<path fill="none" stroke="midnightblue" d="M361.877,-710.035C387.044,-715.373 415.55,-721.42 441.464,-726.917"/>
<polygon fill="midnightblue" stroke="midnightblue" points="440.748,-730.343 451.257,-728.994 442.201,-723.495 440.748,-730.343"/>
</g>
<!-- Node18 -->
<g id="node18" class="node"><title>Node18</title>
<g id="a_node18"><a xlink:href="../../d4/d9e/classauthoring_1_1view_1_1propertiesview_1_1_properties_view.html#a0f34460f58194a1360fe94b49c48ee22" target="_top" xlink:title="authoring.view.propertiesview.\lPropertiesView.setButtonBehaviors">
<polygon fill="white" stroke="black" points="431,-680 431,-710 615,-710 615,-680 431,-680"/>
<text text-anchor="start" x="439" y="-698" font-family="Helvetica,sans-Serif" font-size="10.00">authoring.view.propertiesview.</text>
<text text-anchor="middle" x="523" y="-687" font-family="Helvetica,sans-Serif" font-size="10.00">PropertiesView.setButtonBehaviors</text>
</a>
</g>
</g>
<!-- Node12&#45;&gt;Node18 -->
<g id="edge22" class="edge"><title>Node12&#45;&gt;Node18</title>
<path fill="none" stroke="midnightblue" d="M378.002,-695C391.895,-695 406.376,-695 420.568,-695"/>
<polygon fill="midnightblue" stroke="midnightblue" points="420.839,-698.5 430.839,-695 420.839,-691.5 420.839,-698.5"/>
</g>
<!-- Node19 -->
<g id="node19" class="node"><title>Node19</title>
<g id="a_node19"><a xlink:href="../../d1/dfb/classauthoring_1_1view_1_1conditionsview_1_1_condition_options.html#a78f715f319bb0a5858a6cc8a9050c69d" target="_top" xlink:title="authoring.view.conditionsview.\lConditionOptions.setDeleteCondition\lButtonBehavior">
<polygon fill="white" stroke="black" points="426.5,-620.5 426.5,-661.5 619.5,-661.5 619.5,-620.5 426.5,-620.5"/>
<text text-anchor="start" x="434.5" y="-649.5" font-family="Helvetica,sans-Serif" font-size="10.00">authoring.view.conditionsview.</text>
<text text-anchor="start" x="434.5" y="-638.5" font-family="Helvetica,sans-Serif" font-size="10.00">ConditionOptions.setDeleteCondition</text>
<text text-anchor="middle" x="523" y="-627.5" font-family="Helvetica,sans-Serif" font-size="10.00">ButtonBehavior</text>
</a>
</g>
</g>
<!-- Node12&#45;&gt;Node19 -->
<g id="edge23" class="edge"><title>Node12&#45;&gt;Node19</title>
<path fill="none" stroke="midnightblue" d="M355.346,-679.958C376.723,-674.961 401.029,-669.279 424.341,-663.829"/>
<polygon fill="midnightblue" stroke="midnightblue" points="425.319,-667.195 434.26,-661.511 423.725,-660.379 425.319,-667.195"/>
</g>
<!-- Node20 -->
<g id="node20" class="node"><title>Node20</title>
<g id="a_node20"><a xlink:href="../../d4/df1/classauthoring_1_1view_1_1levelview_1_1_level_options.html#aef5b45e4236183f97229c9ecd0cfa6f3" target="_top" xlink:title="authoring.view.levelview.\lLevelOptions.setDeleteLevelButton\lBehavior">
<polygon fill="white" stroke="black" points="430.5,-560.5 430.5,-601.5 615.5,-601.5 615.5,-560.5 430.5,-560.5"/>
<text text-anchor="start" x="438.5" y="-589.5" font-family="Helvetica,sans-Serif" font-size="10.00">authoring.view.levelview.</text>
<text text-anchor="start" x="438.5" y="-578.5" font-family="Helvetica,sans-Serif" font-size="10.00">LevelOptions.setDeleteLevelButton</text>
<text text-anchor="middle" x="523" y="-567.5" font-family="Helvetica,sans-Serif" font-size="10.00">Behavior</text>
</a>
</g>
</g>
<!-- Node12&#45;&gt;Node20 -->
<g id="edge24" class="edge"><title>Node12&#45;&gt;Node20</title>
<path fill="none" stroke="midnightblue" d="M366.932,-679.989C372.993,-677.206 378.781,-673.908 384,-670 408.588,-651.587 395.63,-629.7 420,-611 421.844,-609.585 423.754,-608.236 425.718,-606.951"/>
<polygon fill="midnightblue" stroke="midnightblue" points="427.791,-609.793 434.645,-601.714 424.249,-603.756 427.791,-609.793"/>
</g>
<!-- Node21 -->
<g id="node21" class="node"><title>Node21</title>
<g id="a_node21"><a xlink:href="../../d5/da2/classauthoring_1_1view_1_1soundsview_1_1_sounds_view.html#ae8833869f5a2658455947ff51cb5804b" target="_top" xlink:title="authoring.view.soundsview.\lSoundsView.setDragDrop">
<polygon fill="white" stroke="black" points="450.5,-512 450.5,-542 595.5,-542 595.5,-512 450.5,-512"/>
<text text-anchor="start" x="458.5" y="-530" font-family="Helvetica,sans-Serif" font-size="10.00">authoring.view.soundsview.</text>
<text text-anchor="middle" x="523" y="-519" font-family="Helvetica,sans-Serif" font-size="10.00">SoundsView.setDragDrop</text>
</a>
</g>
</g>
<!-- Node12&#45;&gt;Node21 -->
<g id="edge25" class="edge"><title>Node12&#45;&gt;Node21</title>
<path fill="none" stroke="midnightblue" d="M370.744,-679.881C375.553,-677.106 380.038,-673.84 384,-670 423.676,-631.541 379.723,-588.829 420,-551 426.033,-545.333 433.144,-540.923 440.759,-537.501"/>
<polygon fill="midnightblue" stroke="midnightblue" points="442.212,-540.691 450.259,-533.799 439.67,-534.169 442.212,-540.691"/>
</g>
<!-- Node22 -->
<g id="node22" class="node"><title>Node22</title>
<g id="a_node22"><a xlink:href="../../d6/d5f/classauthoring_1_1view_1_1graphicsview_1_1_images_view.html#afdb0ea228fb68e93238ef602e46db168" target="_top" xlink:title="authoring.view.graphicsview.\lImagesView.setDragDrop">
<polygon fill="white" stroke="black" points="447.5,-463 447.5,-493 598.5,-493 598.5,-463 447.5,-463"/>
<text text-anchor="start" x="455.5" y="-481" font-family="Helvetica,sans-Serif" font-size="10.00">authoring.view.graphicsview.</text>
<text text-anchor="middle" x="523" y="-470" font-family="Helvetica,sans-Serif" font-size="10.00">ImagesView.setDragDrop</text>
</a>
</g>
</g>
<!-- Node12&#45;&gt;Node22 -->
<g id="edge26" class="edge"><title>Node12&#45;&gt;Node22</title>
<path fill="none" stroke="midnightblue" d="M371.541,-679.984C376.099,-677.179 380.316,-673.879 384,-670 436.587,-614.631 366.547,-556.533 420,-502 425.209,-496.686 431.358,-492.457 438.013,-489.102"/>
<polygon fill="midnightblue" stroke="midnightblue" points="439.578,-492.239 447.361,-485.05 436.794,-485.816 439.578,-492.239"/>
</g>
<!-- Node23 -->
<g id="node23" class="node"><title>Node23</title>
<g id="a_node23"><a xlink:href="../../d5/da2/classauthoring_1_1view_1_1soundsview_1_1_sounds_view.html#a717384d7c3fc85472f948b9beedb52f9" target="_top" xlink:title="authoring.view.soundsview.\lSoundsView.setDragOver">
<polygon fill="white" stroke="black" points="450.5,-414 450.5,-444 595.5,-444 595.5,-414 450.5,-414"/>
<text text-anchor="start" x="458.5" y="-432" font-family="Helvetica,sans-Serif" font-size="10.00">authoring.view.soundsview.</text>
<text text-anchor="middle" x="523" y="-421" font-family="Helvetica,sans-Serif" font-size="10.00">SoundsView.setDragOver</text>
</a>
</g>
</g>
<!-- Node12&#45;&gt;Node23 -->
<g id="edge27" class="edge"><title>Node12&#45;&gt;Node23</title>
<path fill="none" stroke="midnightblue" d="M372.173,-679.911C376.518,-677.117 380.519,-673.84 384,-670 449.652,-597.562 353.214,-524.395 420,-453 425.895,-446.698 433.108,-441.907 440.948,-438.284"/>
<polygon fill="midnightblue" stroke="midnightblue" points="442.386,-441.479 450.398,-434.547 439.811,-434.97 442.386,-441.479"/>
</g>
<!-- Node24 -->
<g id="node24" class="node"><title>Node24</title>
<g id="a_node24"><a xlink:href="../../d6/d5f/classauthoring_1_1view_1_1graphicsview_1_1_images_view.html#a473f9428000bb280928044f89a4081ec" target="_top" xlink:title="authoring.view.graphicsview.\lImagesView.setDragOver">
<polygon fill="white" stroke="black" points="447.5,-365 447.5,-395 598.5,-395 598.5,-365 447.5,-365"/>
<text text-anchor="start" x="455.5" y="-383" font-family="Helvetica,sans-Serif" font-size="10.00">authoring.view.graphicsview.</text>
<text text-anchor="middle" x="523" y="-372" font-family="Helvetica,sans-Serif" font-size="10.00">ImagesView.setDragOver</text>
</a>
</g>
</g>
<!-- Node12&#45;&gt;Node24 -->
<g id="edge28" class="edge"><title>Node12&#45;&gt;Node24</title>
<path fill="none" stroke="midnightblue" d="M372.723,-679.756C376.874,-676.993 380.688,-673.766 384,-670 462.786,-580.416 339.812,-492.331 420,-404 425.086,-398.398 431.212,-393.982 437.906,-390.516"/>
<polygon fill="midnightblue" stroke="midnightblue" points="439.603,-393.592 447.341,-386.355 436.779,-387.187 439.603,-393.592"/>
</g>
<!-- Node25 -->
<g id="node25" class="node"><title>Node25</title>
<g id="a_node25"><a xlink:href="../../d4/d04/classauthoring_1_1view_1_1levelview_1_1_levels_view.html#a47aa53da88c08070771e46e1621b3628" target="_top" xlink:title="authoring.view.levelview.\lLevelsView.setEventHandlers">
<polygon fill="white" stroke="black" points="445.5,-316 445.5,-346 600.5,-346 600.5,-316 445.5,-316"/>
<text text-anchor="start" x="453.5" y="-334" font-family="Helvetica,sans-Serif" font-size="10.00">authoring.view.levelview.</text>
<text text-anchor="middle" x="523" y="-323" font-family="Helvetica,sans-Serif" font-size="10.00">LevelsView.setEventHandlers</text>
</a>
</g>
</g>
<!-- Node12&#45;&gt;Node25 -->
<g id="edge29" class="edge"><title>Node12&#45;&gt;Node25</title>
<path fill="none" stroke="midnightblue" d="M372.815,-679.835C376.944,-677.054 380.727,-673.8 384,-670 475.956,-563.229 326.372,-460.308 420,-355 424.629,-349.793 430.156,-345.607 436.208,-342.253"/>
<polygon fill="midnightblue" stroke="midnightblue" points="437.858,-345.345 445.408,-337.912 434.871,-339.014 437.858,-345.345"/>
</g>
<!-- Node26 -->
<g id="node26" class="node"><title>Node26</title>
<g id="a_node26"><a xlink:href="../../de/d93/classauthoring_1_1view_1_1baseclasses_1_1_collection_view.html#a37bef6993a766139c76bc695cd3a311b" target="_top" xlink:title="authoring.view.baseclasses.\lCollectionView.setIconEvents">
<polygon fill="white" stroke="black" points="446,-267 446,-297 600,-297 600,-267 446,-267"/>
<text text-anchor="start" x="454" y="-285" font-family="Helvetica,sans-Serif" font-size="10.00">authoring.view.baseclasses.</text>
<text text-anchor="middle" x="523" y="-274" font-family="Helvetica,sans-Serif" font-size="10.00">CollectionView.setIconEvents</text>
</a>
</g>
</g>
<!-- Node12&#45;&gt;Node26 -->
<g id="edge30" class="edge"><title>Node12&#45;&gt;Node26</title>
<path fill="none" stroke="midnightblue" d="M372.883,-679.893C376.995,-677.097 380.756,-673.825 384,-670 436.574,-608.008 366.455,-367.155 420,-306 424.67,-300.666 430.282,-296.4 436.44,-293.001"/>
<polygon fill="midnightblue" stroke="midnightblue" points="438.235,-296.025 445.808,-288.616 435.268,-289.685 438.235,-296.025"/>
</g>
<!-- Node27 -->
<g id="node27" class="node"><title>Node27</title>
<g id="a_node27"><a xlink:href="../../d0/db6/classauthoring_1_1view_1_1conditionsview_1_1_conditions_accordion_view.html#ab870b9ee125701132e2019add721c8cc" target="_top" xlink:title="authoring.view.conditionsview.\lConditionsAccordionView.setIconEvents">
<polygon fill="white" stroke="black" points="420.5,-218 420.5,-248 625.5,-248 625.5,-218 420.5,-218"/>
<text text-anchor="start" x="428.5" y="-236" font-family="Helvetica,sans-Serif" font-size="10.00">authoring.view.conditionsview.</text>
<text text-anchor="middle" x="523" y="-225" font-family="Helvetica,sans-Serif" font-size="10.00">ConditionsAccordionView.setIconEvents</text>
</a>
</g>
</g>
<!-- Node12&#45;&gt;Node27 -->
<g id="edge31" class="edge"><title>Node12&#45;&gt;Node27</title>
<path fill="none" stroke="midnightblue" d="M372.935,-679.937C377.034,-677.131 380.778,-673.844 384,-670 443.177,-599.394 359.717,-326.665 420,-257 420.625,-256.278 421.267,-255.575 421.926,-254.891"/>
<polygon fill="midnightblue" stroke="midnightblue" points="424.298,-257.467 429.56,-248.272 419.712,-252.178 424.298,-257.467"/>
</g>
<!-- Node28 -->
<g id="node28" class="node"><title>Node28</title>
<g id="a_node28"><a xlink:href="../../d9/d7c/classauthoring_1_1view_1_1levelview_1_1_levels_accordion_view.html#a112897ff8403b5bd13a8a285513b0256" target="_top" xlink:title="authoring.view.levelview.\lLevelsAccordionView.setIconEvents">
<polygon fill="white" stroke="black" points="430.5,-169 430.5,-199 615.5,-199 615.5,-169 430.5,-169"/>
<text text-anchor="start" x="438.5" y="-187" font-family="Helvetica,sans-Serif" font-size="10.00">authoring.view.levelview.</text>
<text text-anchor="middle" x="523" y="-176" font-family="Helvetica,sans-Serif" font-size="10.00">LevelsAccordionView.setIconEvents</text>
</a>
</g>
</g>
<!-- Node12&#45;&gt;Node28 -->
<g id="edge32" class="edge"><title>Node12&#45;&gt;Node28</title>
<path fill="none" stroke="midnightblue" d="M372.976,-679.972C377.065,-677.157 380.796,-673.859 384,-670 449.785,-590.774 352.974,-286.179 420,-208 420.866,-206.99 421.765,-206.018 422.696,-205.083"/>
<polygon fill="midnightblue" stroke="midnightblue" points="424.993,-207.725 430.398,-198.612 420.49,-202.365 424.993,-207.725"/>
</g>
<!-- Node29 -->
<g id="node29" class="node"><title>Node29</title>
<g id="a_node29"><a xlink:href="../../d9/d7c/classauthoring_1_1view_1_1levelview_1_1_levels_accordion_view.html#a465701064b2dfc09d6fc26b96c4fb506" target="_top" xlink:title="authoring.view.levelview.\lLevelsAccordionView.setLevelEvents">
<polygon fill="white" stroke="black" points="428,-120 428,-150 618,-150 618,-120 428,-120"/>
<text text-anchor="start" x="436" y="-138" font-family="Helvetica,sans-Serif" font-size="10.00">authoring.view.levelview.</text>
<text text-anchor="middle" x="523" y="-127" font-family="Helvetica,sans-Serif" font-size="10.00">LevelsAccordionView.setLevelEvents</text>
</a>
</g>
</g>
<!-- Node12&#45;&gt;Node29 -->
<g id="edge33" class="edge"><title>Node12&#45;&gt;Node29</title>
<path fill="none" stroke="midnightblue" d="M373.01,-679.999C377.091,-677.178 380.81,-673.871 384,-670 456.397,-582.15 346.228,-245.698 420,-159 420.619,-158.273 421.255,-157.565 421.908,-156.877"/>
<polygon fill="midnightblue" stroke="midnightblue" points="424.29,-159.443 429.493,-150.214 419.67,-154.184 424.29,-159.443"/>
</g>
</g>
</svg>
