<?xml version="1.0" encoding="UTF-8" standalone="no"?>
<!DOCTYPE svg PUBLIC "-//W3C//DTD SVG 1.1//EN"
 "http://www.w3.org/Graphics/SVG/1.1/DTD/svg11.dtd">
<!-- Generated by graphviz version 2.36.0 (20140111.2315)
 -->
<!-- Title: authoring.controller.AuthoringController.loadData Pages: 1 -->
<svg width="764pt" height="556pt"
 viewBox="0.00 0.00 764.00 556.00" xmlns="http://www.w3.org/2000/svg" xmlns:xlink="http://www.w3.org/1999/xlink">
<g id="graph0" class="graph" transform="scale(1 1) rotate(0) translate(4 552)">
<title>authoring.controller.AuthoringController.loadData</title>
<polygon fill="white" stroke="none" points="-4,4 -4,-552 760,-552 760,4 -4,4"/>
<!-- Node1 -->
<g id="node1" class="node"><title>Node1</title>
<polygon fill="#bfbfbf" stroke="black" points="0.5,-251 0.5,-281 159.5,-281 159.5,-251 0.5,-251"/>
<text text-anchor="start" x="8.5" y="-269" font-family="Helvetica,sans-Serif" font-size="10.00">authoring.controller.Authoring</text>
<text text-anchor="middle" x="80" y="-258" font-family="Helvetica,sans-Serif" font-size="10.00">Controller.loadData</text>
</g>
<!-- Node2 -->
<g id="node2" class="node"><title>Node2</title>
<g id="a_node2"><a xlink:href="../../d4/d68/classauthoring_1_1model_1_1_authoring_model.html#a3935f1a8c2e6b6fcd4609ffb4b1b8cf0" target="_top" xlink:title="authoring.model.Authoring\lModel.load">
<polygon fill="white" stroke="black" points="196.5,-251 196.5,-281 341.5,-281 341.5,-251 196.5,-251"/>
<text text-anchor="start" x="204.5" y="-269" font-family="Helvetica,sans-Serif" font-size="10.00">authoring.model.Authoring</text>
<text text-anchor="middle" x="269" y="-258" font-family="Helvetica,sans-Serif" font-size="10.00">Model.load</text>
</a>
</g>
</g>
<!-- Node1&#45;&gt;Node2 -->
<g id="edge1" class="edge"><title>Node1&#45;&gt;Node2</title>
<path fill="none" stroke="midnightblue" d="M159.763,-266C168.515,-266 177.445,-266 186.234,-266"/>
<polygon fill="midnightblue" stroke="midnightblue" points="186.467,-269.5 196.467,-266 186.467,-262.5 186.467,-269.5"/>
</g>
<!-- Node3 -->
<g id="node3" class="node"><title>Node3</title>
<g id="a_node3"><a xlink:href="../../d4/d68/classauthoring_1_1model_1_1_authoring_model.html#a11495359850ef25b7338f7e7ba0554d0" target="_top" xlink:title="authoring.model.Authoring\lModel.convertFromSerializable">
<polygon fill="white" stroke="black" points="378.5,-251 378.5,-281 541.5,-281 541.5,-251 378.5,-251"/>
<text text-anchor="start" x="386.5" y="-269" font-family="Helvetica,sans-Serif" font-size="10.00">authoring.model.Authoring</text>
<text text-anchor="middle" x="460" y="-258" font-family="Helvetica,sans-Serif" font-size="10.00">Model.convertFromSerializable</text>
</a>
</g>
</g>
<!-- Node2&#45;&gt;Node3 -->
<g id="edge2" class="edge"><title>Node2&#45;&gt;Node3</title>
<path fill="none" stroke="midnightblue" d="M341.722,-266C350.448,-266 359.449,-266 368.403,-266"/>
<polygon fill="midnightblue" stroke="midnightblue" points="368.475,-269.5 378.475,-266 368.475,-262.5 368.475,-269.5"/>
</g>
<!-- Node4 -->
<g id="node4" class="node"><title>Node4</title>
<g id="a_node4"><a xlink:href="../../d7/dbf/classauthoring_1_1model_1_1_game_data.html#a5646a2267289545d487d4fe4a8a6298e" target="_top" xlink:title="authoring.model.GameData.get\lImages">
<polygon fill="white" stroke="black" points="582,-518 582,-548 752,-548 752,-518 582,-518"/>
<text text-anchor="start" x="590" y="-536" font-family="Helvetica,sans-Serif" font-size="10.00">authoring.model.GameData.get</text>
<text text-anchor="middle" x="667" y="-525" font-family="Helvetica,sans-Serif" font-size="10.00">Images</text>
</a>
</g>
</g>
<!-- Node3&#45;&gt;Node4 -->
<g id="edge3" class="edge"><title>Node3&#45;&gt;Node4</title>
<path fill="none" stroke="midnightblue" d="M463.831,-281.133C472.594,-323.669 503.317,-445.27 578,-508 580.022,-509.698 582.152,-511.281 584.369,-512.757"/>
<polygon fill="midnightblue" stroke="midnightblue" points="582.888,-515.945 593.295,-517.934 586.4,-509.889 582.888,-515.945"/>
</g>
<!-- Node5 -->
<g id="node5" class="node"><title>Node5</title>
<g id="a_node5"><a xlink:href="../../d4/d3b/classauthoring_1_1model_1_1collections_1_1_general_collection.html#a1bdc1047736bbb23259d6a7fe4c6deeb" target="_top" xlink:title="authoring.model.collections.\lGeneralCollection.add">
<polygon fill="white" stroke="black" points="591,-469 591,-499 743,-499 743,-469 591,-469"/>
<text text-anchor="start" x="599" y="-487" font-family="Helvetica,sans-Serif" font-size="10.00">authoring.model.collections.</text>
<text text-anchor="middle" x="667" y="-476" font-family="Helvetica,sans-Serif" font-size="10.00">GeneralCollection.add</text>
</a>
</g>
</g>
<!-- Node3&#45;&gt;Node5 -->
<g id="edge4" class="edge"><title>Node3&#45;&gt;Node5</title>
<path fill="none" stroke="midnightblue" d="M465.834,-281.191C478.237,-317.675 514.741,-410.78 578,-459 580.447,-460.865 583.028,-462.592 585.708,-464.189"/>
<polygon fill="midnightblue" stroke="midnightblue" points="584.087,-467.291 594.565,-468.866 587.356,-461.101 584.087,-467.291"/>
</g>
<!-- Node6 -->
<g id="node6" class="node"><title>Node6</title>
<g id="a_node6"><a xlink:href="../../d7/dbf/classauthoring_1_1model_1_1_game_data.html#a5188274f1af76c8d2e05a7c8dcba3805" target="_top" xlink:title="authoring.model.GameData.get\lLevels">
<polygon fill="white" stroke="black" points="582,-420 582,-450 752,-450 752,-420 582,-420"/>
<text text-anchor="start" x="590" y="-438" font-family="Helvetica,sans-Serif" font-size="10.00">authoring.model.GameData.get</text>
<text text-anchor="middle" x="667" y="-427" font-family="Helvetica,sans-Serif" font-size="10.00">Levels</text>
</a>
</g>
</g>
<!-- Node3&#45;&gt;Node6 -->
<g id="edge5" class="edge"><title>Node3&#45;&gt;Node6</title>
<path fill="none" stroke="midnightblue" d="M469.082,-281.197C485.534,-310.649 525.819,-375.616 578,-410 581.1,-412.043 584.368,-413.921 587.746,-415.647"/>
<polygon fill="midnightblue" stroke="midnightblue" points="586.364,-418.864 596.911,-419.873 589.295,-412.507 586.364,-418.864"/>
</g>
<!-- Node7 -->
<g id="node7" class="node"><title>Node7</title>
<g id="a_node7"><a xlink:href="../../d7/dbf/classauthoring_1_1model_1_1_game_data.html#ab6eab149af02a9649d0e2b162daf3600" target="_top" xlink:title="authoring.model.GameData.get\lGameObjects">
<polygon fill="white" stroke="black" points="582,-371 582,-401 752,-401 752,-371 582,-371"/>
<text text-anchor="start" x="590" y="-389" font-family="Helvetica,sans-Serif" font-size="10.00">authoring.model.GameData.get</text>
<text text-anchor="middle" x="667" y="-378" font-family="Helvetica,sans-Serif" font-size="10.00">GameObjects</text>
</a>
</g>
</g>
<!-- Node3&#45;&gt;Node7 -->
<g id="edge6" class="edge"><title>Node3&#45;&gt;Node7</title>
<path fill="none" stroke="midnightblue" d="M475.457,-281.101C496.253,-301.981 536.676,-339.518 578,-361 582.465,-363.321 587.174,-365.451 591.996,-367.401"/>
<polygon fill="midnightblue" stroke="midnightblue" points="590.785,-370.685 601.377,-370.932 593.251,-364.134 590.785,-370.685"/>
</g>
<!-- Node8 -->
<g id="node8" class="node"><title>Node8</title>
<g id="a_node8"><a xlink:href="../../d4/d3b/classauthoring_1_1model_1_1collections_1_1_general_collection.html#ac1a07043ac0a440791b84cee1604745c" target="_top" xlink:title="authoring.model.collections.\lGeneralCollection.remove">
<polygon fill="white" stroke="black" points="591,-322 591,-352 743,-352 743,-322 591,-322"/>
<text text-anchor="start" x="599" y="-340" font-family="Helvetica,sans-Serif" font-size="10.00">authoring.model.collections.</text>
<text text-anchor="middle" x="667" y="-329" font-family="Helvetica,sans-Serif" font-size="10.00">GeneralCollection.remove</text>
</a>
</g>
</g>
<!-- Node3&#45;&gt;Node8 -->
<g id="edge7" class="edge"><title>Node3&#45;&gt;Node8</title>
<path fill="none" stroke="midnightblue" d="M496.51,-281.008C519.533,-290.477 550.291,-302.642 578,-312 585.115,-314.403 592.603,-316.771 600.084,-319.035"/>
<polygon fill="midnightblue" stroke="midnightblue" points="599.301,-322.453 609.883,-321.946 601.294,-315.743 599.301,-322.453"/>
</g>
<!-- Node9 -->
<g id="node9" class="node"><title>Node9</title>
<g id="a_node9"><a xlink:href="../../df/d84/classengine_1_1level_1_1_level.html#ac6aa999d5ea5fa90274d0d201dab1f8c" target="_top" xlink:title="engine.level.Level.setStart\lIndicator">
<polygon fill="white" stroke="black" points="595.5,-273 595.5,-303 738.5,-303 738.5,-273 595.5,-273"/>
<text text-anchor="start" x="603.5" y="-291" font-family="Helvetica,sans-Serif" font-size="10.00">engine.level.Level.setStart</text>
<text text-anchor="middle" x="667" y="-280" font-family="Helvetica,sans-Serif" font-size="10.00">Indicator</text>
</a>
</g>
</g>
<!-- Node3&#45;&gt;Node9 -->
<g id="edge8" class="edge"><title>Node3&#45;&gt;Node9</title>
<path fill="none" stroke="midnightblue" d="M541.727,-274.663C555.973,-276.192 570.806,-277.784 585.057,-279.313"/>
<polygon fill="midnightblue" stroke="midnightblue" points="584.999,-282.827 595.315,-280.414 585.746,-275.867 584.999,-282.827"/>
</g>
<!-- Node10 -->
<g id="node10" class="node"><title>Node10</title>
<g id="a_node10"><a xlink:href="../../df/d84/classengine_1_1level_1_1_level.html#a978e8f0a732aecf29203b898e27b16b0" target="_top" xlink:title="engine.level.Level.setIdentifier">
<polygon fill="white" stroke="black" points="586.5,-234.5 586.5,-253.5 747.5,-253.5 747.5,-234.5 586.5,-234.5"/>
<text text-anchor="middle" x="667" y="-241.5" font-family="Helvetica,sans-Serif" font-size="10.00">engine.level.Level.setIdentifier</text>
</a>
</g>
</g>
<!-- Node3&#45;&gt;Node10 -->
<g id="edge9" class="edge"><title>Node3&#45;&gt;Node10</title>
<path fill="none" stroke="midnightblue" d="M541.727,-257.337C553.08,-256.118 564.805,-254.86 576.313,-253.625"/>
<polygon fill="midnightblue" stroke="midnightblue" points="576.784,-257.095 586.354,-252.547 576.037,-250.135 576.784,-257.095"/>
</g>
<!-- Node11 -->
<g id="node11" class="node"><title>Node11</title>
<g id="a_node11"><a xlink:href="../../df/d84/classengine_1_1level_1_1_level.html#a1b07e6b160c4d26c8f02c1d57ef117bc" target="_top" xlink:title="engine.level.Level.setConditionIds">
<polygon fill="white" stroke="black" points="578,-196.5 578,-215.5 756,-215.5 756,-196.5 578,-196.5"/>
<text text-anchor="middle" x="667" y="-203.5" font-family="Helvetica,sans-Serif" font-size="10.00">engine.level.Level.setConditionIds</text>
</a>
</g>
</g>
<!-- Node3&#45;&gt;Node11 -->
<g id="edge10" class="edge"><title>Node3&#45;&gt;Node11</title>
<path fill="none" stroke="midnightblue" d="M500.144,-250.911C522.691,-242.567 551.691,-232.419 578,-225 587.155,-222.418 596.931,-219.99 606.515,-217.789"/>
<polygon fill="midnightblue" stroke="midnightblue" points="607.403,-221.177 616.398,-215.58 605.876,-214.345 607.403,-221.177"/>
</g>
<!-- Node12 -->
<g id="node12" class="node"><title>Node12</title>
<g id="a_node12"><a xlink:href="../../df/de5/classauthoring_1_1model_1_1collections_1_1_levels_collection.html#ab355be93ea3c8a0f359099c4bf93ae10" target="_top" xlink:title="authoring.model.collections.\lLevelsCollection.add">
<polygon fill="white" stroke="black" points="591,-147 591,-177 743,-177 743,-147 591,-147"/>
<text text-anchor="start" x="599" y="-165" font-family="Helvetica,sans-Serif" font-size="10.00">authoring.model.collections.</text>
<text text-anchor="middle" x="667" y="-154" font-family="Helvetica,sans-Serif" font-size="10.00">LevelsCollection.add</text>
</a>
</g>
</g>
<!-- Node3&#45;&gt;Node12 -->
<g id="edge11" class="edge"><title>Node3&#45;&gt;Node12</title>
<path fill="none" stroke="midnightblue" d="M479.341,-250.882C501.484,-233.302 540.443,-204.468 578,-187 583.04,-184.656 588.347,-182.485 593.754,-180.485"/>
<polygon fill="midnightblue" stroke="midnightblue" points="595.267,-183.664 603.557,-177.066 592.962,-177.054 595.267,-183.664"/>
</g>
<!-- Node13 -->
<g id="node13" class="node"><title>Node13</title>
<g id="a_node13"><a xlink:href="../../d7/dbf/classauthoring_1_1model_1_1_game_data.html#a4a3bfa5ed2418ba59bdf3e73b4ce310a" target="_top" xlink:title="authoring.model.GameData.get\lConditions">
<polygon fill="white" stroke="black" points="582,-98 582,-128 752,-128 752,-98 582,-98"/>
<text text-anchor="start" x="590" y="-116" font-family="Helvetica,sans-Serif" font-size="10.00">authoring.model.GameData.get</text>
<text text-anchor="middle" x="667" y="-105" font-family="Helvetica,sans-Serif" font-size="10.00">Conditions</text>
</a>
</g>
</g>
<!-- Node3&#45;&gt;Node13 -->
<g id="edge12" class="edge"><title>Node3&#45;&gt;Node13</title>
<path fill="none" stroke="midnightblue" d="M470.617,-250.86C488.461,-224.013 529.339,-168.071 578,-138 581.399,-135.9 584.979,-133.971 588.673,-132.2"/>
<polygon fill="midnightblue" stroke="midnightblue" points="590.279,-135.318 598.049,-128.115 587.483,-128.9 590.279,-135.318"/>
</g>
<!-- Node14 -->
<g id="node14" class="node"><title>Node14</title>
<g id="a_node14"><a xlink:href="../../db/d2a/classauthoring_1_1model_1_1collections_1_1_conditions_collection.html#af4aa1e8459d542b7f0e78ffe3b004d77" target="_top" xlink:title="authoring.model.collections.\lConditionsCollection.add">
<polygon fill="white" stroke="black" points="591,-49 591,-79 743,-79 743,-49 591,-49"/>
<text text-anchor="start" x="599" y="-67" font-family="Helvetica,sans-Serif" font-size="10.00">authoring.model.collections.</text>
<text text-anchor="middle" x="667" y="-56" font-family="Helvetica,sans-Serif" font-size="10.00">ConditionsCollection.add</text>
</a>
</g>
</g>
<!-- Node3&#45;&gt;Node14 -->
<g id="edge13" class="edge"><title>Node3&#45;&gt;Node14</title>
<path fill="none" stroke="midnightblue" d="M466.709,-250.8C480.389,-216.485 518.399,-132.617 578,-89 580.545,-87.1373 583.225,-85.4131 586.004,-83.8172"/>
<polygon fill="midnightblue" stroke="midnightblue" points="587.849,-86.805 595.168,-79.1443 584.669,-80.5689 587.849,-86.805"/>
</g>
<!-- Node15 -->
<g id="node15" class="node"><title>Node15</title>
<g id="a_node15"><a xlink:href="../../d7/dbf/classauthoring_1_1model_1_1_game_data.html#a4c24125abc447d6793b3d31091d7912a" target="_top" xlink:title="authoring.model.GameData.get\lSounds">
<polygon fill="white" stroke="black" points="582,-0 582,-30 752,-30 752,-0 582,-0"/>
<text text-anchor="start" x="590" y="-18" font-family="Helvetica,sans-Serif" font-size="10.00">authoring.model.GameData.get</text>
<text text-anchor="middle" x="667" y="-7" font-family="Helvetica,sans-Serif" font-size="10.00">Sounds</text>
</a>
</g>
</g>
<!-- Node3&#45;&gt;Node15 -->
<g id="edge14" class="edge"><title>Node3&#45;&gt;Node15</title>
<path fill="none" stroke="midnightblue" d="M464.362,-250.984C474.23,-210.455 506.999,-97.9983 578,-40 580.045,-38.3296 582.195,-36.7707 584.429,-35.3159"/>
<polygon fill="midnightblue" stroke="midnightblue" points="586.45,-38.193 593.41,-30.2048 582.987,-32.1093 586.45,-38.193"/>
</g>
</g>
</svg>
