<?xml version="1.0" encoding="UTF-8" standalone="no"?>
<!DOCTYPE svg PUBLIC "-//W3C//DTD SVG 1.1//EN"
 "http://www.w3.org/Graphics/SVG/1.1/DTD/svg11.dtd">
<!-- Generated by graphviz version 2.36.0 (20140111.2315)
 -->
<!-- Title: gamePlayer.view.MenuBarController.loadGameFile Pages: 1 -->
<svg width="1154pt" height="311pt"
 viewBox="0.00 0.00 1154.00 311.00" xmlns="http://www.w3.org/2000/svg" xmlns:xlink="http://www.w3.org/1999/xlink">
<g id="graph0" class="graph" transform="scale(1 1) rotate(0) translate(4 307)">
<title>gamePlayer.view.MenuBarController.loadGameFile</title>
<polygon fill="white" stroke="none" points="-4,4 -4,-307 1150,-307 1150,4 -4,4"/>
<!-- Node1 -->
<g id="node1" class="node"><title>Node1</title>
<polygon fill="#bfbfbf" stroke="black" points="0,-44 0,-74 210,-74 210,-44 0,-44"/>
<text text-anchor="start" x="8" y="-62" font-family="Helvetica,sans-Serif" font-size="10.00">gamePlayer.view.MenuBarController.load</text>
<text text-anchor="middle" x="105" y="-51" font-family="Helvetica,sans-Serif" font-size="10.00">GameFile</text>
</g>
<!-- Node2 -->
<g id="node2" class="node"><title>Node2</title>
<g id="a_node2"><a xlink:href="../../d2/dc9/classgame_player_1_1model_1_1_player_model.html#a810c0b28ae81f5a27c5df5f83f907088" target="_top" xlink:title="gamePlayer.model.PlayerModel.load\lGameFile">
<polygon fill="white" stroke="black" points="246,-44 246,-74 436,-74 436,-44 246,-44"/>
<text text-anchor="start" x="254" y="-62" font-family="Helvetica,sans-Serif" font-size="10.00">gamePlayer.model.PlayerModel.load</text>
<text text-anchor="middle" x="341" y="-51" font-family="Helvetica,sans-Serif" font-size="10.00">GameFile</text>
</a>
</g>
</g>
<!-- Node1&#45;&gt;Node2 -->
<g id="edge1" class="edge"><title>Node1&#45;&gt;Node2</title>
<path fill="none" stroke="midnightblue" d="M210.339,-59C218.744,-59 227.237,-59 235.642,-59"/>
<polygon fill="midnightblue" stroke="midnightblue" points="235.838,-62.5001 245.838,-59 235.838,-55.5001 235.838,-62.5001"/>
</g>
<!-- Node3 -->
<g id="node3" class="node"><title>Node3</title>
<g id="a_node3"><a xlink:href="../../d2/dc9/classgame_player_1_1model_1_1_player_model.html#a98f00ab471bdab4f36e313a78fe6ceab" target="_top" xlink:title="gamePlayer.model.PlayerModel.load\lGameData">
<polygon fill="white" stroke="black" points="472,-131 472,-161 662,-161 662,-131 472,-131"/>
<text text-anchor="start" x="480" y="-149" font-family="Helvetica,sans-Serif" font-size="10.00">gamePlayer.model.PlayerModel.load</text>
<text text-anchor="middle" x="567" y="-138" font-family="Helvetica,sans-Serif" font-size="10.00">GameData</text>
</a>
</g>
</g>
<!-- Node2&#45;&gt;Node3 -->
<g id="edge2" class="edge"><title>Node2&#45;&gt;Node3</title>
<path fill="none" stroke="midnightblue" d="M380.762,-74.0549C418.785,-88.8229 476.863,-111.38 517.833,-127.292"/>
<polygon fill="midnightblue" stroke="midnightblue" points="516.749,-130.626 527.338,-130.984 519.283,-124.101 516.749,-130.626"/>
</g>
<!-- Node14 -->
<g id="node14" class="node"><title>Node14</title>
<g id="a_node14"><a xlink:href="../../d1/d95/classdata_1_1_data_manager.html#adf2d2f38be8e2b2934f3ec7e944e2c3a" target="_top" xlink:title="data.DataManager.readGameFile">
<polygon fill="white" stroke="black" points="479.5,-49.5 479.5,-68.5 654.5,-68.5 654.5,-49.5 479.5,-49.5"/>
<text text-anchor="middle" x="567" y="-56.5" font-family="Helvetica,sans-Serif" font-size="10.00">data.DataManager.readGameFile</text>
</a>
</g>
</g>
<!-- Node2&#45;&gt;Node14 -->
<g id="edge14" class="edge"><title>Node2&#45;&gt;Node14</title>
<path fill="none" stroke="midnightblue" d="M436.023,-59C447.022,-59 458.26,-59 469.295,-59"/>
<polygon fill="midnightblue" stroke="midnightblue" points="469.361,-62.5001 479.361,-59 469.361,-55.5001 469.361,-62.5001"/>
</g>
<!-- Node16 -->
<g id="node16" class="node"><title>Node16</title>
<g id="a_node16"><a xlink:href="../../d5/d03/classgame_player_1_1view_1_1_file_selection_wizard.html#afa33a926429327d822f1bd5ef47bae5a" target="_top" xlink:title="gamePlayer.view.FileSelection\lWizard.selectFile">
<polygon fill="white" stroke="black" points="488,-0 488,-30 646,-30 646,-0 488,-0"/>
<text text-anchor="start" x="496" y="-18" font-family="Helvetica,sans-Serif" font-size="10.00">gamePlayer.view.FileSelection</text>
<text text-anchor="middle" x="567" y="-7" font-family="Helvetica,sans-Serif" font-size="10.00">Wizard.selectFile</text>
</a>
</g>
</g>
<!-- Node2&#45;&gt;Node16 -->
<g id="edge16" class="edge"><title>Node2&#45;&gt;Node16</title>
<path fill="none" stroke="midnightblue" d="M418.462,-43.9808C438.086,-40.126 459.334,-35.9522 479.43,-32.0049"/>
<polygon fill="midnightblue" stroke="midnightblue" points="480.365,-35.3881 489.503,-30.0262 479.016,-28.5194 480.365,-35.3881"/>
</g>
<!-- Node4 -->
<g id="node4" class="node"><title>Node4</title>
<g id="a_node4"><a xlink:href="../../d2/dc9/classgame_player_1_1model_1_1_player_model.html#aca43542fe4bf7439f60a3e173cd56b9f" target="_top" xlink:title="gamePlayer.model.PlayerModel.extract\lButtonConditions">
<polygon fill="white" stroke="black" points="698.5,-268 698.5,-298 901.5,-298 901.5,-268 698.5,-268"/>
<text text-anchor="start" x="706.5" y="-286" font-family="Helvetica,sans-Serif" font-size="10.00">gamePlayer.model.PlayerModel.extract</text>
<text text-anchor="middle" x="800" y="-275" font-family="Helvetica,sans-Serif" font-size="10.00">ButtonConditions</text>
</a>
</g>
</g>
<!-- Node3&#45;&gt;Node4 -->
<g id="edge3" class="edge"><title>Node3&#45;&gt;Node4</title>
<path fill="none" stroke="midnightblue" d="M582.162,-161.014C604.633,-184 650.768,-227.887 698,-253 706.331,-257.43 715.405,-261.292 724.585,-264.636"/>
<polygon fill="midnightblue" stroke="midnightblue" points="723.568,-267.988 734.163,-267.936 725.848,-261.369 723.568,-267.988"/>
</g>
<!-- Node6 -->
<g id="node6" class="node"><title>Node6</title>
<g id="a_node6"><a xlink:href="../../d7/dbf/classauthoring_1_1model_1_1_game_data.html#a4a3bfa5ed2418ba59bdf3e73b4ce310a" target="_top" xlink:title="authoring.model.GameData.get\lConditions">
<polygon fill="white" stroke="black" points="957,-224 957,-254 1127,-254 1127,-224 957,-224"/>
<text text-anchor="start" x="965" y="-242" font-family="Helvetica,sans-Serif" font-size="10.00">authoring.model.GameData.get</text>
<text text-anchor="middle" x="1042" y="-231" font-family="Helvetica,sans-Serif" font-size="10.00">Conditions</text>
</a>
</g>
</g>
<!-- Node3&#45;&gt;Node6 -->
<g id="edge6" class="edge"><title>Node3&#45;&gt;Node6</title>
<path fill="none" stroke="midnightblue" d="M588.292,-161.302C612.811,-178.828 656.019,-206.703 698,-219 779.569,-242.893 876.6,-246.384 946.609,-244.783"/>
<polygon fill="midnightblue" stroke="midnightblue" points="946.835,-248.278 956.738,-244.512 946.647,-241.281 946.835,-248.278"/>
</g>
<!-- Node7 -->
<g id="node7" class="node"><title>Node7</title>
<g id="a_node7"><a xlink:href="../../d7/dbf/classauthoring_1_1model_1_1_game_data.html#ab6eab149af02a9649d0e2b162daf3600" target="_top" xlink:title="authoring.model.GameData.get\lGameObjects">
<polygon fill="white" stroke="black" points="715,-180 715,-210 885,-210 885,-180 715,-180"/>
<text text-anchor="start" x="723" y="-198" font-family="Helvetica,sans-Serif" font-size="10.00">authoring.model.GameData.get</text>
<text text-anchor="middle" x="800" y="-187" font-family="Helvetica,sans-Serif" font-size="10.00">GameObjects</text>
</a>
</g>
</g>
<!-- Node3&#45;&gt;Node7 -->
<g id="edge7" class="edge"><title>Node3&#45;&gt;Node7</title>
<path fill="none" stroke="midnightblue" d="M638.877,-161.035C664.044,-166.373 692.55,-172.42 718.464,-177.917"/>
<polygon fill="midnightblue" stroke="midnightblue" points="717.748,-181.343 728.257,-179.994 719.201,-174.495 717.748,-181.343"/>
</g>
<!-- Node8 -->
<g id="node8" class="node"><title>Node8</title>
<g id="a_node8"><a xlink:href="../../d7/d3c/classgame_player_1_1view_1_1_player_view.html#afce0dda0a14523caaf59ad98ab7988ec" target="_top" xlink:title="gamePlayer.view.PlayerView.get\lGroup">
<polygon fill="white" stroke="black" points="716.5,-131 716.5,-161 883.5,-161 883.5,-131 716.5,-131"/>
<text text-anchor="start" x="724.5" y="-149" font-family="Helvetica,sans-Serif" font-size="10.00">gamePlayer.view.PlayerView.get</text>
<text text-anchor="middle" x="800" y="-138" font-family="Helvetica,sans-Serif" font-size="10.00">Group</text>
</a>
</g>
</g>
<!-- Node3&#45;&gt;Node8 -->
<g id="edge8" class="edge"><title>Node3&#45;&gt;Node8</title>
<path fill="none" stroke="midnightblue" d="M662.29,-146C676.746,-146 691.66,-146 706.086,-146"/>
<polygon fill="midnightblue" stroke="midnightblue" points="706.49,-149.5 716.49,-146 706.49,-142.5 706.49,-149.5"/>
</g>
<!-- Node10 -->
<g id="node10" class="node"><title>Node10</title>
<g id="a_node10"><a xlink:href="../../d7/dbf/classauthoring_1_1model_1_1_game_data.html#a5188274f1af76c8d2e05a7c8dcba3805" target="_top" xlink:title="authoring.model.GameData.get\lLevels">
<polygon fill="white" stroke="black" points="715,-82 715,-112 885,-112 885,-82 715,-82"/>
<text text-anchor="start" x="723" y="-100" font-family="Helvetica,sans-Serif" font-size="10.00">authoring.model.GameData.get</text>
<text text-anchor="middle" x="800" y="-89" font-family="Helvetica,sans-Serif" font-size="10.00">Levels</text>
</a>
</g>
</g>
<!-- Node3&#45;&gt;Node10 -->
<g id="edge10" class="edge"><title>Node3&#45;&gt;Node10</title>
<path fill="none" stroke="midnightblue" d="M638.877,-130.965C664.044,-125.627 692.55,-119.58 718.464,-114.083"/>
<polygon fill="midnightblue" stroke="midnightblue" points="719.201,-117.505 728.257,-112.006 717.748,-110.657 719.201,-117.505"/>
</g>
<!-- Node11 -->
<g id="node11" class="node"><title>Node11</title>
<g id="a_node11"><a xlink:href="../../d6/d94/classengine_1_1_game_manager.html#a9211b5f8cd80af33e24a2fcc886135e8" target="_top" xlink:title="engine.GameManager.initialize">
<polygon fill="white" stroke="black" points="718,-43.5 718,-62.5 882,-62.5 882,-43.5 718,-43.5"/>
<text text-anchor="middle" x="800" y="-50.5" font-family="Helvetica,sans-Serif" font-size="10.00">engine.GameManager.initialize</text>
</a>
</g>
</g>
<!-- Node3&#45;&gt;Node11 -->
<g id="edge11" class="edge"><title>Node3&#45;&gt;Node11</title>
<path fill="none" stroke="midnightblue" d="M589.449,-130.804C614.369,-113.88 657.285,-86.9413 698,-72 705.502,-69.2469 713.471,-66.8755 721.513,-64.8366"/>
<polygon fill="midnightblue" stroke="midnightblue" points="722.409,-68.2214 731.333,-62.5112 720.796,-61.4098 722.409,-68.2214"/>
</g>
<!-- Node5 -->
<g id="node5" class="node"><title>Node5</title>
<g id="a_node5"><a xlink:href="../../d4/d3b/classauthoring_1_1model_1_1collections_1_1_general_collection.html#a1bdc1047736bbb23259d6a7fe4c6deeb" target="_top" xlink:title="authoring.model.collections.\lGeneralCollection.add">
<polygon fill="white" stroke="black" points="966,-273 966,-303 1118,-303 1118,-273 966,-273"/>
<text text-anchor="start" x="974" y="-291" font-family="Helvetica,sans-Serif" font-size="10.00">authoring.model.collections.</text>
<text text-anchor="middle" x="1042" y="-280" font-family="Helvetica,sans-Serif" font-size="10.00">GeneralCollection.add</text>
</a>
</g>
</g>
<!-- Node4&#45;&gt;Node5 -->
<g id="edge4" class="edge"><title>Node4&#45;&gt;Node5</title>
<path fill="none" stroke="midnightblue" d="M901.738,-285.099C919.646,-285.472 938.142,-285.857 955.573,-286.22"/>
<polygon fill="midnightblue" stroke="midnightblue" points="955.63,-289.722 965.701,-286.431 955.776,-282.724 955.63,-289.722"/>
</g>
<!-- Node4&#45;&gt;Node6 -->
<g id="edge5" class="edge"><title>Node4&#45;&gt;Node6</title>
<path fill="none" stroke="midnightblue" d="M882.923,-267.981C904.237,-264.073 927.34,-259.838 949.13,-255.843"/>
<polygon fill="midnightblue" stroke="midnightblue" points="949.834,-259.272 959.039,-254.026 948.572,-252.387 949.834,-259.272"/>
</g>
<!-- Node9 -->
<g id="node9" class="node"><title>Node9</title>
<g id="a_node9"><a xlink:href="../../db/d19/classgame_player_1_1view_1_1_game_canvas.html#aaf62ddebd656a3ec3174e6845851e2d9" target="_top" xlink:title="gamePlayer.view.GameCanvas.getNode">
<polygon fill="white" stroke="black" points="938.5,-136.5 938.5,-155.5 1145.5,-155.5 1145.5,-136.5 938.5,-136.5"/>
<text text-anchor="middle" x="1042" y="-143.5" font-family="Helvetica,sans-Serif" font-size="10.00">gamePlayer.view.GameCanvas.getNode</text>
</a>
</g>
</g>
<!-- Node8&#45;&gt;Node9 -->
<g id="edge9" class="edge"><title>Node8&#45;&gt;Node9</title>
<path fill="none" stroke="midnightblue" d="M883.594,-146C897.916,-146 913.028,-146 927.994,-146"/>
<polygon fill="midnightblue" stroke="midnightblue" points="928.321,-149.5 938.321,-146 928.321,-142.5 928.321,-149.5"/>
</g>
<!-- Node12 -->
<g id="node12" class="node"><title>Node12</title>
<g id="a_node12"><a xlink:href="../../d6/d94/classengine_1_1_game_manager.html#a5b9c3b1993da4d9a2e7e0397e1f57596" target="_top" xlink:title="engine.GameManager.addFrames\lToGroup">
<polygon fill="white" stroke="black" points="952.5,-63 952.5,-93 1131.5,-93 1131.5,-63 952.5,-63"/>
<text text-anchor="start" x="960.5" y="-81" font-family="Helvetica,sans-Serif" font-size="10.00">engine.GameManager.addFrames</text>
<text text-anchor="middle" x="1042" y="-70" font-family="Helvetica,sans-Serif" font-size="10.00">ToGroup</text>
</a>
</g>
</g>
<!-- Node11&#45;&gt;Node12 -->
<g id="edge12" class="edge"><title>Node11&#45;&gt;Node12</title>
<path fill="none" stroke="midnightblue" d="M882.253,-61.4639C901.564,-63.4755 922.375,-65.6433 942.369,-67.7259"/>
<polygon fill="midnightblue" stroke="midnightblue" points="942.112,-71.2181 952.421,-68.773 942.838,-64.2557 942.112,-71.2181"/>
</g>
<!-- Node13 -->
<g id="node13" class="node"><title>Node13</title>
<g id="a_node13"><a xlink:href="../../d6/d94/classengine_1_1_game_manager.html#a1264479972233bc22827c6cd1b9ffce8" target="_top" xlink:title="engine.GameManager.setGame\lSpeed">
<polygon fill="white" stroke="black" points="957,-14 957,-44 1127,-44 1127,-14 957,-14"/>
<text text-anchor="start" x="965" y="-32" font-family="Helvetica,sans-Serif" font-size="10.00">engine.GameManager.setGame</text>
<text text-anchor="middle" x="1042" y="-21" font-family="Helvetica,sans-Serif" font-size="10.00">Speed</text>
</a>
</g>
</g>
<!-- Node11&#45;&gt;Node13 -->
<g id="edge13" class="edge"><title>Node11&#45;&gt;Node13</title>
<path fill="none" stroke="midnightblue" d="M882.253,-44.8747C903.032,-42.7968 925.548,-40.5452 946.912,-38.4088"/>
<polygon fill="midnightblue" stroke="midnightblue" points="947.363,-41.8813 956.965,-37.4035 946.666,-34.916 947.363,-41.8813"/>
</g>
<!-- Node15 -->
<g id="node15" class="node"><title>Node15</title>
<g id="a_node15"><a xlink:href="../../d1/d95/classdata_1_1_data_manager.html#aec1d7a9fb10c2bd1ce23e7aff5eba74c" target="_top" xlink:title="data.DataManager.readFile">
<polygon fill="white" stroke="black" points="727,-5.5 727,-24.5 873,-24.5 873,-5.5 727,-5.5"/>
<text text-anchor="middle" x="800" y="-12.5" font-family="Helvetica,sans-Serif" font-size="10.00">data.DataManager.readFile</text>
</a>
</g>
</g>
<!-- Node14&#45;&gt;Node15 -->
<g id="edge15" class="edge"><title>Node14&#45;&gt;Node15</title>
<path fill="none" stroke="midnightblue" d="M617.376,-49.456C641.656,-44.7752 671.358,-39.0677 698,-34 710.99,-31.5292 724.923,-28.8966 738.165,-26.403"/>
<polygon fill="midnightblue" stroke="midnightblue" points="738.949,-29.817 748.129,-24.5282 737.654,-22.9377 738.949,-29.817"/>
</g>
</g>
</svg>
