<?xml version="1.0" encoding="UTF-8" standalone="no"?>
<!DOCTYPE svg PUBLIC "-//W3C//DTD SVG 1.1//EN"
 "http://www.w3.org/Graphics/SVG/1.1/DTD/svg11.dtd">
<!-- Generated by graphviz version 2.36.0 (20140111.2315)
 -->
<!-- Title: engine.actions.PauseBackgroundMusic Pages: 1 -->
<!--zoomable 192 -->
<svg id="main" version="1.1" xmlns="http://www.w3.org/2000/svg" xmlns:xlink="http://www.w3.org/1999/xlink" xml:space="preserve" onload="init(evt)">
<style type="text/css"><![CDATA[
.edge:hover path { stroke: red; }
.edge:hover polygon { stroke: red; fill: red; }
]]></style>
<script type="text/javascript"><![CDATA[
var edges = document.getElementsByTagName('g');
if (edges && edges.length) {
  for (var i=0;i<edges.length;i++) {
    if (edges[i].id.substr(0,4)=='edge') {
      edges[i].setAttribute('class','edge');
    }
  }
}
]]></script>
        <defs>
                <circle id="rim" cx="0" cy="0" r="7"/>
                <circle id="rim2" cx="0" cy="0" r="3.5"/>
                <g id="zoomPlus">
                        <use xlink:href="#rim" fill="#404040">
                                <set attributeName="fill" to="#808080" begin="zoomplus.mouseover" end="zoomplus.mouseout"/>
                        </use>
                        <path d="M-4,0h8M0,-4v8" fill="none" stroke="white" stroke-width="1.5" pointer-events="none"/>
                </g>
                <g id="zoomMin">
                        <use xlink:href="#rim" fill="#404040">
                                <set attributeName="fill" to="#808080" begin="zoomminus.mouseover" end="zoomminus.mouseout"/>
                        </use>
                        <path d="M-4,0h8" fill="none" stroke="white" stroke-width="1.5" pointer-events="none"/>
                </g>
                <g id="dirArrow">
                        <path fill="none" stroke="white" stroke-width="1.5" d="M0,-3.0v7 M-2.5,-0.5L0,-3.0L2.5,-0.5"/>
                </g>
               <g id="resetDef">
                       <use xlink:href="#rim2" fill="#404040">
                               <set attributeName="fill" to="#808080" begin="reset.mouseover" end="reset.mouseout"/>
                       </use>
               </g>
        </defs>

<script type="text/javascript">
var viewWidth = 1102;
var viewHeight = 192;
var sectionId = 'dynsection-1';
</script>
<script xlink:href="../../svgpan.js"/>
<svg id="graph" class="graph">
<g id="viewport">
<title>engine.actions.PauseBackgroundMusic</title>
<polygon fill="white" stroke="none" points="-4,4 -4,-188 1098,-188 1098,4 -4,4"/>
<!-- Node1 -->
<g id="node1" class="node"><title>Node1</title>
<polygon fill="#bfbfbf" stroke="black" points="918.5,-121 918.5,-151 1093.5,-151 1093.5,-121 918.5,-121"/>
<text text-anchor="start" x="926.5" y="-139" font-family="Helvetica,sans-Serif" font-size="10.00">engine.actions.PauseBackground</text>
<text text-anchor="middle" x="1006" y="-128" font-family="Helvetica,sans-Serif" font-size="10.00">Music</text>
</g>
<!-- Node2 -->
<g id="node2" class="node"><title>Node2</title>
<g id="a_node2"><a xlink:href="../../d7/d07/classengine_1_1actions_1_1_sound_action.html" target="_top" xlink:title="engine.actions.SoundAction">
<polygon fill="white" stroke="black" points="730,-126.5 730,-145.5 880,-145.5 880,-126.5 730,-126.5"/>
<text text-anchor="middle" x="805" y="-133.5" font-family="Helvetica,sans-Serif" font-size="10.00">engine.actions.SoundAction</text>
</a>
</g>
</g>
<!-- Node2&#45;&gt;Node1 -->
<g id="edge1" class="edge"><title>Node2&#45;&gt;Node1</title>
<path fill="none" stroke="midnightblue" d="M890.156,-136C899.505,-136 909.038,-136 918.417,-136"/>
<polygon fill="midnightblue" stroke="midnightblue" points="890.1,-132.5 880.1,-136 890.1,-139.5 890.1,-132.5"/>
</g>
<!-- Node3 -->
<g id="node3" class="node"><title>Node3</title>
<g id="a_node3"><a xlink:href="../../d9/dd2/interfaceengine_1_1actions_1_1_action.html" target="_top" xlink:title="engine.actions.Action">
<polygon fill="white" stroke="black" points="487.5,-126.5 487.5,-145.5 606.5,-145.5 606.5,-126.5 487.5,-126.5"/>
<text text-anchor="middle" x="547" y="-133.5" font-family="Helvetica,sans-Serif" font-size="10.00">engine.actions.Action</text>
</a>
</g>
</g>
<!-- Node3&#45;&gt;Node2 -->
<g id="edge2" class="edge"><title>Node3&#45;&gt;Node2</title>
<path fill="none" stroke="midnightblue" d="M616.847,-136C651.796,-136 694.287,-136 729.943,-136"/>
<polygon fill="midnightblue" stroke="midnightblue" points="616.732,-132.5 606.732,-136 616.732,-139.5 616.732,-132.5"/>
</g>
<!-- Node4 -->
<g id="node4" class="node"><title>Node4</title>
<g id="a_node4"><a xlink:href="../../d2/d15/interfaceengine_1_1actions_1_1_initializable.html" target="_top" xlink:title="engine.actions.Initializable">
<polygon fill="white" stroke="black" points="195,-164.5 195,-183.5 337,-183.5 337,-164.5 195,-164.5"/>
<text text-anchor="middle" x="266" y="-171.5" font-family="Helvetica,sans-Serif" font-size="10.00">engine.actions.Initializable</text>
</a>
</g>
</g>
<!-- Node4&#45;&gt;Node2 -->
<g id="edge4" class="edge"><title>Node4&#45;&gt;Node2</title>
<path fill="none" stroke="midnightblue" d="M347.354,-172.014C436.612,-169.262 584.906,-163.066 712,-150 723.411,-148.827 735.569,-147.228 747.182,-145.529"/>
<polygon fill="midnightblue" stroke="midnightblue" points="347.191,-168.517 337.301,-172.317 347.402,-175.514 347.191,-168.517"/>
</g>
<!-- Node4&#45;&gt;Node3 -->
<g id="edge3" class="edge"><title>Node4&#45;&gt;Node3</title>
<path fill="none" stroke="midnightblue" d="M347.008,-163.103C391.734,-157.011 446.499,-149.552 487.246,-144.002"/>
<polygon fill="midnightblue" stroke="midnightblue" points="346.48,-159.642 337.043,-164.46 347.424,-166.578 346.48,-159.642"/>
</g>
<!-- Node5 -->
<g id="node5" class="node"><title>Node5</title>
<g id="a_node5"><a xlink:href="../../da/d90/classengine_1_1sound_1_1_sound_utility.html" target="_top" xlink:title="engine.sound.SoundUtility">
<polygon fill="white" stroke="black" points="476,-76.5 476,-95.5 618,-95.5 618,-76.5 476,-76.5"/>
<text text-anchor="middle" x="547" y="-83.5" font-family="Helvetica,sans-Serif" font-size="10.00">engine.sound.SoundUtility</text>
</a>
</g>
</g>
<!-- Node5&#45;&gt;Node2 -->
<g id="edge5" class="edge"><title>Node5&#45;&gt;Node2</title>
<path fill="none" stroke="#9a32cd" stroke-dasharray="5,2" d="M606.642,-97.4536C651.523,-106.219 712.702,-118.168 754.992,-126.428"/>
<polygon fill="#9a32cd" stroke="#9a32cd" points="607.24,-94.0042 596.754,-95.5223 605.898,-100.874 607.24,-94.0042"/>
<text text-anchor="middle" x="674" y="-120" font-family="Helvetica,sans-Serif" font-size="10.00"> mySoundUtility</text>
</g>
<!-- Node6 -->
<g id="node6" class="node"><title>Node6</title>
<g id="a_node6"><a xlink:href="../../df/de5/classauthoring_1_1model_1_1collections_1_1_levels_collection.html" target="_top" xlink:title="authoring.model.collections.\lLevelsCollection">
<polygon fill="white" stroke="black" points="190,-115 190,-145 342,-145 342,-115 190,-115"/>
<text text-anchor="start" x="198" y="-133" font-family="Helvetica,sans-Serif" font-size="10.00">authoring.model.collections.</text>
<text text-anchor="middle" x="266" y="-122" font-family="Helvetica,sans-Serif" font-size="10.00">LevelsCollection</text>
</a>
</g>
</g>
<!-- Node6&#45;&gt;Node5 -->
<g id="edge6" class="edge"><title>Node6&#45;&gt;Node5</title>
<path fill="none" stroke="#9a32cd" stroke-dasharray="5,2" d="M352.066,-116.585C395.253,-109.774 446.696,-101.661 485.744,-95.5028"/>
<polygon fill="#9a32cd" stroke="#9a32cd" points="351.467,-113.136 342.134,-118.151 352.557,-120.05 351.467,-113.136"/>
<text text-anchor="middle" x="409" y="-118" font-family="Helvetica,sans-Serif" font-size="10.00"> myLevels</text>
</g>
<!-- Node7 -->
<g id="node7" class="node"><title>Node7</title>
<g id="a_node7"><a xlink:href="../../d4/d3b/classauthoring_1_1model_1_1collections_1_1_general_collection.html" target="_top" xlink:title="authoring.model.collections.\lGeneralCollection\&lt; Level \&gt;">
<polygon fill="white" stroke="black" points="0,-115 0,-145 152,-145 152,-115 0,-115"/>
<text text-anchor="start" x="8" y="-133" font-family="Helvetica,sans-Serif" font-size="10.00">authoring.model.collections.</text>
<text text-anchor="middle" x="76" y="-122" font-family="Helvetica,sans-Serif" font-size="10.00">GeneralCollection&lt; Level &gt;</text>
</a>
</g>
</g>
<!-- Node7&#45;&gt;Node6 -->
<g id="edge7" class="edge"><title>Node7&#45;&gt;Node6</title>
<path fill="none" stroke="midnightblue" d="M162.348,-130C171.472,-130 180.705,-130 189.699,-130"/>
<polygon fill="midnightblue" stroke="midnightblue" points="162.113,-126.5 152.113,-130 162.113,-133.5 162.113,-126.5"/>
</g>
<!-- Node8 -->
<g id="node8" class="node"><title>Node8</title>
<polygon fill="white" stroke="#bfbfbf" points="190,-76.5 190,-95.5 342,-95.5 342,-76.5 190,-76.5"/>
<text text-anchor="middle" x="266" y="-83.5" font-family="Helvetica,sans-Serif" font-size="10.00">Map&lt; String, MediaPlayer &gt;</text>
</g>
<!-- Node8&#45;&gt;Node5 -->
<g id="edge8" class="edge"><title>Node8&#45;&gt;Node5</title>
<path fill="none" stroke="#9a32cd" stroke-dasharray="5,2" d="M352.275,-86C391.746,-86 438.077,-86 475.531,-86"/>
<polygon fill="#9a32cd" stroke="#9a32cd" points="352.134,-82.5001 342.134,-86 352.134,-89.5001 352.134,-82.5001"/>
<text text-anchor="middle" x="409" y="-89" font-family="Helvetica,sans-Serif" font-size="10.00"> myMediaPlayerMap</text>
</g>
<!-- Node9 -->
<g id="node9" class="node"><title>Node9</title>
<polygon fill="white" stroke="#bfbfbf" points="197,-38.5 197,-57.5 335,-57.5 335,-38.5 197,-38.5"/>
<text text-anchor="middle" x="266" y="-45.5" font-family="Helvetica,sans-Serif" font-size="10.00">Map&lt; String, AudioClip &gt;</text>
</g>
<!-- Node9&#45;&gt;Node5 -->
<g id="edge9" class="edge"><title>Node9&#45;&gt;Node5</title>
<path fill="none" stroke="#9a32cd" stroke-dasharray="5,2" d="M345.222,-56.5432C379.833,-60.5492 420.999,-65.6219 458,-71 469.196,-72.6273 481.162,-74.5463 492.549,-76.4582"/>
<polygon fill="#9a32cd" stroke="#9a32cd" points="345.508,-53.0531 335.174,-55.3888 344.709,-60.0074 345.508,-53.0531"/>
<text text-anchor="middle" x="409" y="-74" font-family="Helvetica,sans-Serif" font-size="10.00"> myAudioClipMap</text>
</g>
<!-- Node10 -->
<g id="node10" class="node"><title>Node10</title>
<g id="a_node10"><a xlink:href="../../d9/db5/classengine_1_1_file_path_utility.html" target="_top" xlink:title="engine.FilePathUtility">
<polygon fill="white" stroke="black" points="208.5,-0.5 208.5,-19.5 323.5,-19.5 323.5,-0.5 208.5,-0.5"/>
<text text-anchor="middle" x="266" y="-7.5" font-family="Helvetica,sans-Serif" font-size="10.00">engine.FilePathUtility</text>
</a>
</g>
</g>
<!-- Node10&#45;&gt;Node5 -->
<g id="edge10" class="edge"><title>Node10&#45;&gt;Node5</title>
<path fill="none" stroke="#9a32cd" stroke-dasharray="5,2" d="M333.76,-17.3995C370.929,-22.6275 417.696,-31.0569 458,-44 483.95,-52.3334 512.066,-66.7969 529.359,-76.384"/>
<polygon fill="#9a32cd" stroke="#9a32cd" points="333.925,-13.8898 323.544,-16.0088 332.981,-20.8258 333.925,-13.8898"/>
<text text-anchor="middle" x="409" y="-47" font-family="Helvetica,sans-Serif" font-size="10.00"> myFilePathUtility</text>
</g>
</g>
</svg>
        <g id="navigator" transform="translate(0 0)" fill="#404254">
                <rect fill="#f2f5e9" fill-opacity="0.5" stroke="#606060" stroke-width=".5" x="0" y="0" width="60" height="60"/>
                <use id="zoomplus" xlink:href="#zoomPlus" x="17" y="9" onmousedown="handleZoom(evt,'in')"/>
                <use id="zoomminus" xlink:href="#zoomMin" x="42" y="9" onmousedown="handleZoom(evt,'out')"/>
                <use id="reset" xlink:href="#resetDef" x="30" y="36" onmousedown="handleReset()"/>
                <g id="arrowUp" xlink:href="#dirArrow" transform="translate(30 24)" onmousedown="handlePan(0,-1)">
                  <use xlink:href="#rim" fill="#404040">
                        <set attributeName="fill" to="#808080" begin="arrowUp.mouseover" end="arrowUp.mouseout"/>
                  </use>
                  <path fill="none" stroke="white" stroke-width="1.5" d="M0,-3.0v7 M-2.5,-0.5L0,-3.0L2.5,-0.5"/>
                </g>
                <g id="arrowRight" xlink:href="#dirArrow" transform="rotate(90) translate(36 -43)" onmousedown="handlePan(1,0)">
                  <use xlink:href="#rim" fill="#404040">
                        <set attributeName="fill" to="#808080" begin="arrowRight.mouseover" end="arrowRight.mouseout"/>
                  </use>
                  <path fill="none" stroke="white" stroke-width="1.5" d="M0,-3.0v7 M-2.5,-0.5L0,-3.0L2.5,-0.5"/>
                </g>
                <g id="arrowDown" xlink:href="#dirArrow" transform="rotate(180) translate(-30 -48)" onmousedown="handlePan(0,1)">
                  <use xlink:href="#rim" fill="#404040">
                        <set attributeName="fill" to="#808080" begin="arrowDown.mouseover" end="arrowDown.mouseout"/>
                  </use>
                  <path fill="none" stroke="white" stroke-width="1.5" d="M0,-3.0v7 M-2.5,-0.5L0,-3.0L2.5,-0.5"/>
                </g>
                <g id="arrowLeft" xlink:href="#dirArrow" transform="rotate(270) translate(-36 17)" onmousedown="handlePan(-1,0)">
                  <use xlink:href="#rim" fill="#404040">
                        <set attributeName="fill" to="#808080" begin="arrowLeft.mouseover" end="arrowLeft.mouseout"/>
                  </use>
                  <path fill="none" stroke="white" stroke-width="1.5" d="M0,-3.0v7 M-2.5,-0.5L0,-3.0L2.5,-0.5"/>
                </g>
        </g>
        <svg viewBox="0 0 15 15" width="100%" height="30px" preserveAspectRatio="xMaxYMin meet">
         <g id="arrow_out" transform="scale(0.3 0.3)">
          <a xlink:href="classengine_1_1actions_1_1_pause_background_music__coll__graph_org.svg" target="_base">
           <rect id="button" ry="5" rx="5" y="6" x="6" height="38" width="38"
                fill="#f2f5e9" fill-opacity="0.5" stroke="#606060" stroke-width="1.0"/>
           <path id="arrow"
             d="M 11.500037,31.436501 C 11.940474,20.09759 22.043105,11.32322 32.158766,21.979434 L 37.068811,17.246167 C 37.068811,17.246167 37.088388,32 37.088388,32 L 22.160133,31.978069 C 22.160133,31.978069 26.997745,27.140456 26.997745,27.140456 C 18.528582,18.264221 13.291696,25.230495 11.500037,31.436501 z"
             style="fill:#404040;"/>
          </a>
         </g>
        </svg>
</svg>
