<?xml version="1.0" encoding="UTF-8" standalone="no"?>
<!DOCTYPE svg PUBLIC "-//W3C//DTD SVG 1.1//EN"
 "http://www.w3.org/Graphics/SVG/1.1/DTD/svg11.dtd">
<!-- Generated by graphviz version 2.36.0 (20140111.2315)
 -->
<!-- Title: gamePlayer.view.MenuBarController.saveGameProgress Pages: 1 -->
<svg width="1436pt" height="136pt"
 viewBox="0.00 0.00 1436.00 136.00" xmlns="http://www.w3.org/2000/svg" xmlns:xlink="http://www.w3.org/1999/xlink">
<g id="graph0" class="graph" transform="scale(1 1) rotate(0) translate(4 132)">
<title>gamePlayer.view.MenuBarController.saveGameProgress</title>
<polygon fill="white" stroke="none" points="-4,4 -4,-132 1432,-132 1432,4 -4,4"/>
<!-- Node1 -->
<g id="node1" class="node"><title>Node1</title>
<polygon fill="#bfbfbf" stroke="black" points="0,-73 0,-103 212,-103 212,-73 0,-73"/>
<text text-anchor="start" x="8" y="-91" font-family="Helvetica,sans-Serif" font-size="10.00">gamePlayer.view.MenuBarController.save</text>
<text text-anchor="middle" x="106" y="-80" font-family="Helvetica,sans-Serif" font-size="10.00">GameProgress</text>
</g>
<!-- Node2 -->
<g id="node2" class="node"><title>Node2</title>
<g id="a_node2"><a xlink:href="../../d2/dc9/classgame_player_1_1model_1_1_player_model.html#a245d6c46b8a79a80def826b969b195e6" target="_top" xlink:title="gamePlayer.model.PlayerModel.save\lGameProgress">
<polygon fill="white" stroke="black" points="248,-73 248,-103 440,-103 440,-73 248,-73"/>
<text text-anchor="start" x="256" y="-91" font-family="Helvetica,sans-Serif" font-size="10.00">gamePlayer.model.PlayerModel.save</text>
<text text-anchor="middle" x="344" y="-80" font-family="Helvetica,sans-Serif" font-size="10.00">GameProgress</text>
</a>
</g>
</g>
<!-- Node1&#45;&gt;Node2 -->
<g id="edge1" class="edge"><title>Node1&#45;&gt;Node2</title>
<path fill="none" stroke="midnightblue" d="M212.231,-88C220.62,-88 229.096,-88 237.487,-88"/>
<polygon fill="midnightblue" stroke="midnightblue" points="237.669,-91.5001 247.669,-88 237.669,-84.5001 237.669,-91.5001"/>
</g>
<!-- Node3 -->
<g id="node3" class="node"><title>Node3</title>
<g id="a_node3"><a xlink:href="../../d9/dbd/classgame_player_1_1view_1_1_progress_selector.html#ae3ab91c2aa658dfafc8fe6bc02191f43" target="_top" xlink:title="gamePlayer.view.Progress\lSelector.saveProgressState">
<polygon fill="white" stroke="black" points="476.5,-73 476.5,-103 625.5,-103 625.5,-73 476.5,-73"/>
<text text-anchor="start" x="484.5" y="-91" font-family="Helvetica,sans-Serif" font-size="10.00">gamePlayer.view.Progress</text>
<text text-anchor="middle" x="551" y="-80" font-family="Helvetica,sans-Serif" font-size="10.00">Selector.saveProgressState</text>
</a>
</g>
</g>
<!-- Node2&#45;&gt;Node3 -->
<g id="edge2" class="edge"><title>Node2&#45;&gt;Node3</title>
<path fill="none" stroke="midnightblue" d="M440.298,-88C448.921,-88 457.612,-88 466.126,-88"/>
<polygon fill="midnightblue" stroke="midnightblue" points="466.407,-91.5001 476.407,-88 466.407,-84.5001 466.407,-91.5001"/>
</g>
<!-- Node4 -->
<g id="node4" class="node"><title>Node4</title>
<g id="a_node4"><a xlink:href="../../d9/dbd/classgame_player_1_1view_1_1_progress_selector.html#ad47ec1215944a14051a1106be29d45df" target="_top" xlink:title="gamePlayer.view.Progress\lSelector.updateProgressList">
<polygon fill="white" stroke="black" points="662.5,-98 662.5,-128 813.5,-128 813.5,-98 662.5,-98"/>
<text text-anchor="start" x="670.5" y="-116" font-family="Helvetica,sans-Serif" font-size="10.00">gamePlayer.view.Progress</text>
<text text-anchor="middle" x="738" y="-105" font-family="Helvetica,sans-Serif" font-size="10.00">Selector.updateProgressList</text>
</a>
</g>
</g>
<!-- Node3&#45;&gt;Node4 -->
<g id="edge3" class="edge"><title>Node3&#45;&gt;Node4</title>
<path fill="none" stroke="midnightblue" d="M625.648,-97.9525C634.434,-99.1397 643.456,-100.359 652.38,-101.565"/>
<polygon fill="midnightblue" stroke="midnightblue" points="652.016,-105.047 662.395,-102.918 652.954,-98.1105 652.016,-105.047"/>
</g>
<!-- Node5 -->
<g id="node5" class="node"><title>Node5</title>
<g id="a_node5"><a xlink:href="../../d9/dbd/classgame_player_1_1view_1_1_progress_selector.html#abf378d2a28ee207f92264da056c28a13" target="_top" xlink:title="gamePlayer.view.Progress\lSelector.buildSaveWindow">
<polygon fill="white" stroke="black" points="668,-49 668,-79 808,-79 808,-49 668,-49"/>
<text text-anchor="start" x="676" y="-67" font-family="Helvetica,sans-Serif" font-size="10.00">gamePlayer.view.Progress</text>
<text text-anchor="middle" x="738" y="-56" font-family="Helvetica,sans-Serif" font-size="10.00">Selector.buildSaveWindow</text>
</a>
</g>
</g>
<!-- Node3&#45;&gt;Node5 -->
<g id="edge4" class="edge"><title>Node3&#45;&gt;Node5</title>
<path fill="none" stroke="midnightblue" d="M625.648,-78.4456C636.186,-77.0786 647.065,-75.6673 657.705,-74.2869"/>
<polygon fill="midnightblue" stroke="midnightblue" points="658.348,-77.7329 667.815,-72.9754 657.448,-70.7911 658.348,-77.7329"/>
</g>
<!-- Node6 -->
<g id="node6" class="node"><title>Node6</title>
<g id="a_node6"><a xlink:href="../../d9/dbd/classgame_player_1_1view_1_1_progress_selector.html#abdecb9a69426fb294cecf3d8a34a0ec0" target="_top" xlink:title="gamePlayer.view.Progress\lSelector.setupWindow">
<polygon fill="white" stroke="black" points="866,-98 866,-128 1006,-128 1006,-98 866,-98"/>
<text text-anchor="start" x="874" y="-116" font-family="Helvetica,sans-Serif" font-size="10.00">gamePlayer.view.Progress</text>
<text text-anchor="middle" x="936" y="-105" font-family="Helvetica,sans-Serif" font-size="10.00">Selector.setupWindow</text>
</a>
</g>
</g>
<!-- Node5&#45;&gt;Node6 -->
<g id="edge5" class="edge"><title>Node5&#45;&gt;Node6</title>
<path fill="none" stroke="midnightblue" d="M799.138,-79.0346C820.021,-84.2554 843.615,-90.1537 865.21,-95.5526"/>
<polygon fill="midnightblue" stroke="midnightblue" points="864.425,-98.9639 874.975,-97.9938 866.123,-92.1729 864.425,-98.9639"/>
</g>
<!-- Node7 -->
<g id="node7" class="node"><title>Node7</title>
<g id="a_node7"><a xlink:href="../../d9/dbd/classgame_player_1_1view_1_1_progress_selector.html#ad6c70f114f81a6e1739a019d500fab9f" target="_top" xlink:title="gamePlayer.view.Progress\lSelector.saveProgressEvent">
<polygon fill="white" stroke="black" points="861,-49 861,-79 1011,-79 1011,-49 861,-49"/>
<text text-anchor="start" x="869" y="-67" font-family="Helvetica,sans-Serif" font-size="10.00">gamePlayer.view.Progress</text>
<text text-anchor="middle" x="936" y="-56" font-family="Helvetica,sans-Serif" font-size="10.00">Selector.saveProgressEvent</text>
</a>
</g>
</g>
<!-- Node5&#45;&gt;Node7 -->
<g id="edge6" class="edge"><title>Node5&#45;&gt;Node7</title>
<path fill="none" stroke="midnightblue" d="M808.102,-64C821.849,-64 836.429,-64 850.62,-64"/>
<polygon fill="midnightblue" stroke="midnightblue" points="850.867,-67.5001 860.867,-64 850.867,-60.5001 850.867,-67.5001"/>
</g>
<!-- Node10 -->
<g id="node10" class="node"><title>Node10</title>
<g id="a_node10"><a xlink:href="../../d9/dbd/classgame_player_1_1view_1_1_progress_selector.html#a6a664023c1828d7dc03d05507c2049ed" target="_top" xlink:title="gamePlayer.view.Progress\lSelector.overwriteProgressEvent">
<polygon fill="white" stroke="black" points="850.5,-0 850.5,-30 1021.5,-30 1021.5,-0 850.5,-0"/>
<text text-anchor="start" x="858.5" y="-18" font-family="Helvetica,sans-Serif" font-size="10.00">gamePlayer.view.Progress</text>
<text text-anchor="middle" x="936" y="-7" font-family="Helvetica,sans-Serif" font-size="10.00">Selector.overwriteProgressEvent</text>
</a>
</g>
</g>
<!-- Node5&#45;&gt;Node10 -->
<g id="edge9" class="edge"><title>Node5&#45;&gt;Node10</title>
<path fill="none" stroke="midnightblue" d="M799.138,-48.9654C820.021,-43.7446 843.615,-37.8463 865.21,-32.4474"/>
<polygon fill="midnightblue" stroke="midnightblue" points="866.123,-35.8271 874.975,-30.0062 864.425,-29.0361 866.123,-35.8271"/>
</g>
<!-- Node8 -->
<g id="node8" class="node"><title>Node8</title>
<g id="a_node8"><a xlink:href="../../d1/d95/classdata_1_1_data_manager.html#a635a83b3bf3ae9c504c420c3794c47cc" target="_top" xlink:title="data.DataManager.writeProgressFile">
<polygon fill="white" stroke="black" points="1058,-29.5 1058,-48.5 1246,-48.5 1246,-29.5 1058,-29.5"/>
<text text-anchor="middle" x="1152" y="-36.5" font-family="Helvetica,sans-Serif" font-size="10.00">data.DataManager.writeProgressFile</text>
</a>
</g>
</g>
<!-- Node7&#45;&gt;Node8 -->
<g id="edge7" class="edge"><title>Node7&#45;&gt;Node8</title>
<path fill="none" stroke="midnightblue" d="M1011.25,-55.3264C1026.84,-53.5045 1043.46,-51.5626 1059.6,-49.6772"/>
<polygon fill="midnightblue" stroke="midnightblue" points="1060.05,-53.1489 1069.58,-48.5122 1059.24,-46.1962 1060.05,-53.1489"/>
</g>
<!-- Node9 -->
<g id="node9" class="node"><title>Node9</title>
<g id="a_node9"><a xlink:href="../../d1/d95/classdata_1_1_data_manager.html#a1d751c9995395d782f423aed87a6e51e" target="_top" xlink:title="data.DataManager.writeFile">
<polygon fill="white" stroke="black" points="1282,-29.5 1282,-48.5 1428,-48.5 1428,-29.5 1282,-29.5"/>
<text text-anchor="middle" x="1355" y="-36.5" font-family="Helvetica,sans-Serif" font-size="10.00">data.DataManager.writeFile</text>
</a>
</g>
</g>
<!-- Node8&#45;&gt;Node9 -->
<g id="edge8" class="edge"><title>Node8&#45;&gt;Node9</title>
<path fill="none" stroke="midnightblue" d="M1246.15,-39C1254.69,-39 1263.3,-39 1271.74,-39"/>
<polygon fill="midnightblue" stroke="midnightblue" points="1271.92,-42.5001 1281.92,-39 1271.92,-35.5001 1271.92,-42.5001"/>
</g>
<!-- Node10&#45;&gt;Node8 -->
<g id="edge10" class="edge"><title>Node10&#45;&gt;Node8</title>
<path fill="none" stroke="midnightblue" d="M1021.58,-24.4854C1032.87,-25.7522 1044.52,-27.058 1055.98,-28.3431"/>
<polygon fill="midnightblue" stroke="midnightblue" points="1055.66,-31.8291 1065.98,-29.4655 1056.44,-24.8728 1055.66,-31.8291"/>
</g>
</g>
</svg>
