<?xml version="1.0" encoding="UTF-8" standalone="no"?>
<!DOCTYPE svg PUBLIC "-//W3C//DTD SVG 1.1//EN"
 "http://www.w3.org/Graphics/SVG/1.1/DTD/svg11.dtd">
<!-- Generated by graphviz version 2.36.0 (20140111.2315)
 -->
<!-- Title: gamePlayer.view.MenuBarController.saveGameProgress Pages: 1 -->
<!--zoomable 232 -->
<svg id="main" version="1.1" xmlns="http://www.w3.org/2000/svg" xmlns:xlink="http://www.w3.org/1999/xlink" xml:space="preserve" onload="init(evt)">
<style type="text/css"><![CDATA[
.edge:hover path { stroke: red; }
.edge:hover polygon { stroke: red; fill: red; }
]]></style>
<script type="text/javascript"><![CDATA[
var edges = document.getElementsByTagName('g');
if (edges && edges.length) {
  for (var i=0;i<edges.length;i++) {
    if (edges[i].id.substr(0,4)=='edge') {
      edges[i].setAttribute('class','edge');
    }
  }
}
]]></script>
        <defs>
                <circle id="rim" cx="0" cy="0" r="7"/>
                <circle id="rim2" cx="0" cy="0" r="3.5"/>
                <g id="zoomPlus">
                        <use xlink:href="#rim" fill="#404040">
                                <set attributeName="fill" to="#808080" begin="zoomplus.mouseover" end="zoomplus.mouseout"/>
                        </use>
                        <path d="M-4,0h8M0,-4v8" fill="none" stroke="white" stroke-width="1.5" pointer-events="none"/>
                </g>
                <g id="zoomMin">
                        <use xlink:href="#rim" fill="#404040">
                                <set attributeName="fill" to="#808080" begin="zoomminus.mouseover" end="zoomminus.mouseout"/>
                        </use>
                        <path d="M-4,0h8" fill="none" stroke="white" stroke-width="1.5" pointer-events="none"/>
                </g>
                <g id="dirArrow">
                        <path fill="none" stroke="white" stroke-width="1.5" d="M0,-3.0v7 M-2.5,-0.5L0,-3.0L2.5,-0.5"/>
                </g>
               <g id="resetDef">
                       <use xlink:href="#rim2" fill="#404040">
                               <set attributeName="fill" to="#808080" begin="reset.mouseover" end="reset.mouseout"/>
                       </use>
               </g>
        </defs>

<script type="text/javascript">
var viewWidth = 1436;
var viewHeight = 232;
var sectionId = 'dynsection-8';
</script>
<script xlink:href="../../svgpan.js"/>
<svg id="graph" class="graph">
<g id="viewport">
<title>gamePlayer.view.MenuBarController.saveGameProgress</title>
<polygon fill="white" stroke="none" points="-4,4 -4,-228 1432,-228 1432,4 -4,4"/>
<!-- Node1 -->
<g id="node1" class="node"><title>Node1</title>
<polygon fill="#bfbfbf" stroke="black" points="0,-144 0,-174 212,-174 212,-144 0,-144"/>
<text text-anchor="start" x="8" y="-162" font-family="Helvetica,sans-Serif" font-size="10.00">gamePlayer.view.MenuBarController.save</text>
<text text-anchor="middle" x="106" y="-151" font-family="Helvetica,sans-Serif" font-size="10.00">GameProgress</text>
</g>
<!-- Node2 -->
<g id="node2" class="node"><title>Node2</title>
<g id="a_node2"><a xlink:href="../../d2/dc9/classgame_player_1_1model_1_1_player_model.html#a245d6c46b8a79a80def826b969b195e6" target="_top" xlink:title="gamePlayer.model.PlayerModel.save\lGameProgress">
<polygon fill="white" stroke="black" points="248,-144 248,-174 440,-174 440,-144 248,-144"/>
<text text-anchor="start" x="256" y="-162" font-family="Helvetica,sans-Serif" font-size="10.00">gamePlayer.model.PlayerModel.save</text>
<text text-anchor="middle" x="344" y="-151" font-family="Helvetica,sans-Serif" font-size="10.00">GameProgress</text>
</a>
</g>
</g>
<!-- Node1&#45;&gt;Node2 -->
<g id="edge1" class="edge"><title>Node1&#45;&gt;Node2</title>
<path fill="none" stroke="midnightblue" d="M212.231,-159C220.62,-159 229.096,-159 237.487,-159"/>
<polygon fill="midnightblue" stroke="midnightblue" points="237.669,-162.5 247.669,-159 237.669,-155.5 237.669,-162.5"/>
</g>
<!-- Node3 -->
<g id="node3" class="node"><title>Node3</title>
<g id="a_node3"><a xlink:href="../../d9/dbd/classgame_player_1_1view_1_1_progress_selector.html#ae3ab91c2aa658dfafc8fe6bc02191f43" target="_top" xlink:title="gamePlayer.view.Progress\lSelector.saveProgressState">
<polygon fill="white" stroke="black" points="476.5,-144 476.5,-174 625.5,-174 625.5,-144 476.5,-144"/>
<text text-anchor="start" x="484.5" y="-162" font-family="Helvetica,sans-Serif" font-size="10.00">gamePlayer.view.Progress</text>
<text text-anchor="middle" x="551" y="-151" font-family="Helvetica,sans-Serif" font-size="10.00">Selector.saveProgressState</text>
</a>
</g>
</g>
<!-- Node2&#45;&gt;Node3 -->
<g id="edge2" class="edge"><title>Node2&#45;&gt;Node3</title>
<path fill="none" stroke="midnightblue" d="M440.298,-159C448.921,-159 457.612,-159 466.126,-159"/>
<polygon fill="midnightblue" stroke="midnightblue" points="466.407,-162.5 476.407,-159 466.407,-155.5 466.407,-162.5"/>
</g>
<!-- Node4 -->
<g id="node4" class="node"><title>Node4</title>
<g id="a_node4"><a xlink:href="../../d9/dbd/classgame_player_1_1view_1_1_progress_selector.html#ad47ec1215944a14051a1106be29d45df" target="_top" xlink:title="gamePlayer.view.Progress\lSelector.updateProgressList">
<polygon fill="white" stroke="black" points="662.5,-169 662.5,-199 813.5,-199 813.5,-169 662.5,-169"/>
<text text-anchor="start" x="670.5" y="-187" font-family="Helvetica,sans-Serif" font-size="10.00">gamePlayer.view.Progress</text>
<text text-anchor="middle" x="738" y="-176" font-family="Helvetica,sans-Serif" font-size="10.00">Selector.updateProgressList</text>
</a>
</g>
</g>
<!-- Node3&#45;&gt;Node4 -->
<g id="edge3" class="edge"><title>Node3&#45;&gt;Node4</title>
<path fill="none" stroke="midnightblue" d="M625.648,-168.952C634.434,-170.14 643.456,-171.359 652.38,-172.565"/>
<polygon fill="midnightblue" stroke="midnightblue" points="652.016,-176.047 662.395,-173.918 652.954,-169.11 652.016,-176.047"/>
</g>
<!-- Node5 -->
<g id="node5" class="node"><title>Node5</title>
<g id="a_node5"><a xlink:href="../../d9/dbd/classgame_player_1_1view_1_1_progress_selector.html#abf378d2a28ee207f92264da056c28a13" target="_top" xlink:title="gamePlayer.view.Progress\lSelector.buildSaveWindow">
<polygon fill="white" stroke="black" points="668,-120 668,-150 808,-150 808,-120 668,-120"/>
<text text-anchor="start" x="676" y="-138" font-family="Helvetica,sans-Serif" font-size="10.00">gamePlayer.view.Progress</text>
<text text-anchor="middle" x="738" y="-127" font-family="Helvetica,sans-Serif" font-size="10.00">Selector.buildSaveWindow</text>
</a>
</g>
</g>
<!-- Node3&#45;&gt;Node5 -->
<g id="edge4" class="edge"><title>Node3&#45;&gt;Node5</title>
<path fill="none" stroke="midnightblue" d="M625.648,-149.446C636.186,-148.079 647.065,-146.667 657.705,-145.287"/>
<polygon fill="midnightblue" stroke="midnightblue" points="658.348,-148.733 667.815,-143.975 657.448,-141.791 658.348,-148.733"/>
</g>
<!-- Node6 -->
<g id="node6" class="node"><title>Node6</title>
<g id="a_node6"><a xlink:href="../../d9/dbd/classgame_player_1_1view_1_1_progress_selector.html#abdecb9a69426fb294cecf3d8a34a0ec0" target="_top" xlink:title="gamePlayer.view.Progress\lSelector.setupWindow">
<polygon fill="white" stroke="black" points="866,-194 866,-224 1006,-224 1006,-194 866,-194"/>
<text text-anchor="start" x="874" y="-212" font-family="Helvetica,sans-Serif" font-size="10.00">gamePlayer.view.Progress</text>
<text text-anchor="middle" x="936" y="-201" font-family="Helvetica,sans-Serif" font-size="10.00">Selector.setupWindow</text>
</a>
</g>
</g>
<!-- Node5&#45;&gt;Node6 -->
<g id="edge5" class="edge"><title>Node5&#45;&gt;Node6</title>
<path fill="none" stroke="midnightblue" d="M790.163,-150.015C798.284,-152.977 806.479,-156.322 814,-160 831.274,-168.449 832.578,-175.861 850,-184 854.965,-186.319 860.194,-188.477 865.518,-190.474"/>
<polygon fill="midnightblue" stroke="midnightblue" points="864.571,-193.852 875.166,-193.893 866.909,-187.254 864.571,-193.852"/>
</g>
<!-- Node7 -->
<g id="node7" class="node"><title>Node7</title>
<g id="a_node7"><a xlink:href="../../d9/dbd/classgame_player_1_1view_1_1_progress_selector.html#ae8bb8d76db91e1663a7244f10f438db6" target="_top" xlink:title="gamePlayer.view.Progress\lSelector.createButton">
<polygon fill="white" stroke="black" points="866,-145 866,-175 1006,-175 1006,-145 866,-145"/>
<text text-anchor="start" x="874" y="-163" font-family="Helvetica,sans-Serif" font-size="10.00">gamePlayer.view.Progress</text>
<text text-anchor="middle" x="936" y="-152" font-family="Helvetica,sans-Serif" font-size="10.00">Selector.createButton</text>
</a>
</g>
</g>
<!-- Node5&#45;&gt;Node7 -->
<g id="edge6" class="edge"><title>Node5&#45;&gt;Node7</title>
<path fill="none" stroke="midnightblue" d="M808.102,-143.814C823.472,-145.774 839.883,-147.868 855.628,-149.876"/>
<polygon fill="midnightblue" stroke="midnightblue" points="855.499,-153.388 865.861,-151.181 856.384,-146.444 855.499,-153.388"/>
</g>
<!-- Node8 -->
<g id="node8" class="node"><title>Node8</title>
<g id="a_node8"><a xlink:href="../../d9/dbd/classgame_player_1_1view_1_1_progress_selector.html#ad6c70f114f81a6e1739a019d500fab9f" target="_top" xlink:title="gamePlayer.view.Progress\lSelector.saveProgressEvent">
<polygon fill="white" stroke="black" points="861,-96 861,-126 1011,-126 1011,-96 861,-96"/>
<text text-anchor="start" x="869" y="-114" font-family="Helvetica,sans-Serif" font-size="10.00">gamePlayer.view.Progress</text>
<text text-anchor="middle" x="936" y="-103" font-family="Helvetica,sans-Serif" font-size="10.00">Selector.saveProgressEvent</text>
</a>
</g>
</g>
<!-- Node5&#45;&gt;Node8 -->
<g id="edge7" class="edge"><title>Node5&#45;&gt;Node8</title>
<path fill="none" stroke="midnightblue" d="M808.102,-126.538C821.849,-124.855 836.429,-123.07 850.62,-121.332"/>
<polygon fill="midnightblue" stroke="midnightblue" points="851.367,-124.767 860.867,-120.078 850.516,-117.819 851.367,-124.767"/>
</g>
<!-- Node14 -->
<g id="node14" class="node"><title>Node14</title>
<g id="a_node14"><a xlink:href="../../d9/dbd/classgame_player_1_1view_1_1_progress_selector.html#a6a664023c1828d7dc03d05507c2049ed" target="_top" xlink:title="gamePlayer.view.Progress\lSelector.overwriteProgressEvent">
<polygon fill="white" stroke="black" points="850.5,-47 850.5,-77 1021.5,-77 1021.5,-47 850.5,-47"/>
<text text-anchor="start" x="858.5" y="-65" font-family="Helvetica,sans-Serif" font-size="10.00">gamePlayer.view.Progress</text>
<text text-anchor="middle" x="936" y="-54" font-family="Helvetica,sans-Serif" font-size="10.00">Selector.overwriteProgressEvent</text>
</a>
</g>
</g>
<!-- Node5&#45;&gt;Node14 -->
<g id="edge13" class="edge"><title>Node5&#45;&gt;Node14</title>
<path fill="none" stroke="midnightblue" d="M770.099,-119.863C792.093,-109.509 822.449,-95.9149 850,-86 855.776,-83.9214 861.824,-81.9061 867.917,-79.985"/>
<polygon fill="midnightblue" stroke="midnightblue" points="868.963,-83.3252 877.498,-77.0481 866.911,-76.6326 868.963,-83.3252"/>
</g>
<!-- Node9 -->
<g id="node9" class="node"><title>Node9</title>
<g id="a_node9"><a xlink:href="../../d1/d95/classdata_1_1_data_manager.html#a635a83b3bf3ae9c504c420c3794c47cc" target="_top" xlink:title="data.DataManager.writeProgressFile">
<polygon fill="white" stroke="black" points="1058,-99.5 1058,-118.5 1246,-118.5 1246,-99.5 1058,-99.5"/>
<text text-anchor="middle" x="1152" y="-106.5" font-family="Helvetica,sans-Serif" font-size="10.00">data.DataManager.writeProgressFile</text>
</a>
</g>
</g>
<!-- Node8&#45;&gt;Node9 -->
<g id="edge8" class="edge"><title>Node8&#45;&gt;Node9</title>
<path fill="none" stroke="midnightblue" d="M1011.25,-110.306C1022.94,-110.197 1035.21,-110.082 1047.43,-109.968"/>
<polygon fill="midnightblue" stroke="midnightblue" points="1047.69,-113.466 1057.66,-109.872 1047.62,-106.466 1047.69,-113.466"/>
</g>
<!-- Node11 -->
<g id="node11" class="node"><title>Node11</title>
<g id="a_node11"><a xlink:href="../../de/d50/classerrors_and_exceptions_1_1_error_pop_up.html#a879c9fa857c162edfab75ecf1558c944" target="_top" xlink:title="errorsAndExceptions.Error\lPopUp.display">
<polygon fill="white" stroke="black" points="1081,-48 1081,-78 1223,-78 1223,-48 1081,-48"/>
<text text-anchor="start" x="1089" y="-66" font-family="Helvetica,sans-Serif" font-size="10.00">errorsAndExceptions.Error</text>
<text text-anchor="middle" x="1152" y="-55" font-family="Helvetica,sans-Serif" font-size="10.00">PopUp.display</text>
</a>
</g>
</g>
<!-- Node8&#45;&gt;Node11 -->
<g id="edge10" class="edge"><title>Node8&#45;&gt;Node11</title>
<path fill="none" stroke="midnightblue" d="M1004.12,-95.9442C1026.33,-90.9627 1051.22,-85.3812 1074.1,-80.2483"/>
<polygon fill="midnightblue" stroke="midnightblue" points="1075.12,-83.6062 1084.11,-78.0024 1073.59,-76.7759 1075.12,-83.6062"/>
</g>
<!-- Node10 -->
<g id="node10" class="node"><title>Node10</title>
<g id="a_node10"><a xlink:href="../../d1/d95/classdata_1_1_data_manager.html#a1d751c9995395d782f423aed87a6e51e" target="_top" xlink:title="data.DataManager.writeFile">
<polygon fill="white" stroke="black" points="1282,-99.5 1282,-118.5 1428,-118.5 1428,-99.5 1282,-99.5"/>
<text text-anchor="middle" x="1355" y="-106.5" font-family="Helvetica,sans-Serif" font-size="10.00">data.DataManager.writeFile</text>
</a>
</g>
</g>
<!-- Node9&#45;&gt;Node10 -->
<g id="edge9" class="edge"><title>Node9&#45;&gt;Node10</title>
<path fill="none" stroke="midnightblue" d="M1246.15,-109C1254.69,-109 1263.3,-109 1271.74,-109"/>
<polygon fill="midnightblue" stroke="midnightblue" points="1271.92,-112.5 1281.92,-109 1271.92,-105.5 1271.92,-112.5"/>
</g>
<!-- Node12 -->
<g id="node12" class="node"><title>Node12</title>
<g id="a_node12"><a xlink:href="../../de/d50/classerrors_and_exceptions_1_1_error_pop_up.html#a98549e423869b27d7ee3c87270786f60" target="_top" xlink:title="errorsAndExceptions.Error\lPopUp.chooseStageWidth">
<polygon fill="white" stroke="black" points="1284,-0 1284,-30 1426,-30 1426,-0 1284,-0"/>
<text text-anchor="start" x="1292" y="-18" font-family="Helvetica,sans-Serif" font-size="10.00">errorsAndExceptions.Error</text>
<text text-anchor="middle" x="1355" y="-7" font-family="Helvetica,sans-Serif" font-size="10.00">PopUp.chooseStageWidth</text>
</a>
</g>
</g>
<!-- Node11&#45;&gt;Node12 -->
<g id="edge11" class="edge"><title>Node11&#45;&gt;Node12</title>
<path fill="none" stroke="midnightblue" d="M1216.05,-47.9442C1236.72,-43.0073 1259.86,-37.4813 1281.19,-32.3865"/>
<polygon fill="midnightblue" stroke="midnightblue" points="1282.26,-35.7295 1291.18,-30.0024 1280.64,-28.9209 1282.26,-35.7295"/>
</g>
<!-- Node13 -->
<g id="node13" class="node"><title>Node13</title>
<g id="a_node13"><a xlink:href="../../de/d50/classerrors_and_exceptions_1_1_error_pop_up.html#adecc4a2ab81e607673649e10e6d7da52" target="_top" xlink:title="errorsAndExceptions.Error\lPopUp.createButton">
<polygon fill="white" stroke="black" points="1284,-49 1284,-79 1426,-79 1426,-49 1284,-49"/>
<text text-anchor="start" x="1292" y="-67" font-family="Helvetica,sans-Serif" font-size="10.00">errorsAndExceptions.Error</text>
<text text-anchor="middle" x="1355" y="-56" font-family="Helvetica,sans-Serif" font-size="10.00">PopUp.createButton</text>
</a>
</g>
</g>
<!-- Node11&#45;&gt;Node13 -->
<g id="edge12" class="edge"><title>Node11&#45;&gt;Node13</title>
<path fill="none" stroke="midnightblue" d="M1223.02,-63.3483C1239.34,-63.4296 1256.85,-63.5167 1273.59,-63.6"/>
<polygon fill="midnightblue" stroke="midnightblue" points="1273.88,-67.1013 1283.89,-63.6512 1273.91,-60.1014 1273.88,-67.1013"/>
</g>
<!-- Node14&#45;&gt;Node9 -->
<g id="edge14" class="edge"><title>Node14&#45;&gt;Node9</title>
<path fill="none" stroke="midnightblue" d="M1005.3,-77.0003C1035.15,-83.5562 1069.64,-91.1321 1097.57,-97.2663"/>
<polygon fill="midnightblue" stroke="midnightblue" points="1097.03,-100.73 1107.55,-99.4566 1098.53,-93.8928 1097.03,-100.73"/>
</g>
<!-- Node14&#45;&gt;Node11 -->
<g id="edge15" class="edge"><title>Node14&#45;&gt;Node11</title>
<path fill="none" stroke="midnightblue" d="M1021.58,-62.3952C1037.68,-62.4705 1054.49,-62.549 1070.46,-62.6236"/>
<polygon fill="midnightblue" stroke="midnightblue" points="1070.8,-66.1252 1080.82,-62.672 1070.83,-59.1253 1070.8,-66.1252"/>
</g>
</g>
</svg>
        <g id="navigator" transform="translate(0 0)" fill="#404254">
                <rect fill="#f2f5e9" fill-opacity="0.5" stroke="#606060" stroke-width=".5" x="0" y="0" width="60" height="60"/>
                <use id="zoomplus" xlink:href="#zoomPlus" x="17" y="9" onmousedown="handleZoom(evt,'in')"/>
                <use id="zoomminus" xlink:href="#zoomMin" x="42" y="9" onmousedown="handleZoom(evt,'out')"/>
                <use id="reset" xlink:href="#resetDef" x="30" y="36" onmousedown="handleReset()"/>
                <g id="arrowUp" xlink:href="#dirArrow" transform="translate(30 24)" onmousedown="handlePan(0,-1)">
                  <use xlink:href="#rim" fill="#404040">
                        <set attributeName="fill" to="#808080" begin="arrowUp.mouseover" end="arrowUp.mouseout"/>
                  </use>
                  <path fill="none" stroke="white" stroke-width="1.5" d="M0,-3.0v7 M-2.5,-0.5L0,-3.0L2.5,-0.5"/>
                </g>
                <g id="arrowRight" xlink:href="#dirArrow" transform="rotate(90) translate(36 -43)" onmousedown="handlePan(1,0)">
                  <use xlink:href="#rim" fill="#404040">
                        <set attributeName="fill" to="#808080" begin="arrowRight.mouseover" end="arrowRight.mouseout"/>
                  </use>
                  <path fill="none" stroke="white" stroke-width="1.5" d="M0,-3.0v7 M-2.5,-0.5L0,-3.0L2.5,-0.5"/>
                </g>
                <g id="arrowDown" xlink:href="#dirArrow" transform="rotate(180) translate(-30 -48)" onmousedown="handlePan(0,1)">
                  <use xlink:href="#rim" fill="#404040">
                        <set attributeName="fill" to="#808080" begin="arrowDown.mouseover" end="arrowDown.mouseout"/>
                  </use>
                  <path fill="none" stroke="white" stroke-width="1.5" d="M0,-3.0v7 M-2.5,-0.5L0,-3.0L2.5,-0.5"/>
                </g>
                <g id="arrowLeft" xlink:href="#dirArrow" transform="rotate(270) translate(-36 17)" onmousedown="handlePan(-1,0)">
                  <use xlink:href="#rim" fill="#404040">
                        <set attributeName="fill" to="#808080" begin="arrowLeft.mouseover" end="arrowLeft.mouseout"/>
                  </use>
                  <path fill="none" stroke="white" stroke-width="1.5" d="M0,-3.0v7 M-2.5,-0.5L0,-3.0L2.5,-0.5"/>
                </g>
        </g>
        <svg viewBox="0 0 15 15" width="100%" height="30px" preserveAspectRatio="xMaxYMin meet">
         <g id="arrow_out" transform="scale(0.3 0.3)">
          <a xlink:href="classgame_player_1_1view_1_1_menu_bar_controller_a3e80307e5f56598e5c990f40869895e1_cgraph_org.svg" target="_base">
           <rect id="button" ry="5" rx="5" y="6" x="6" height="38" width="38"
                fill="#f2f5e9" fill-opacity="0.5" stroke="#606060" stroke-width="1.0"/>
           <path id="arrow"
             d="M 11.500037,31.436501 C 11.940474,20.09759 22.043105,11.32322 32.158766,21.979434 L 37.068811,17.246167 C 37.068811,17.246167 37.088388,32 37.088388,32 L 22.160133,31.978069 C 22.160133,31.978069 26.997745,27.140456 26.997745,27.140456 C 18.528582,18.264221 13.291696,25.230495 11.500037,31.436501 z"
             style="fill:#404040;"/>
          </a>
         </g>
        </svg>
</svg>
