<?xml version="1.0" encoding="UTF-8" standalone="no"?>
<!DOCTYPE svg PUBLIC "-//W3C//DTD SVG 1.1//EN"
 "http://www.w3.org/Graphics/SVG/1.1/DTD/svg11.dtd">
<!-- Generated by graphviz version 2.36.0 (20140111.2315)
 -->
<!-- Title: gamePlayer.view.MenuBarController.loadGameFile Pages: 1 -->
<svg width="1154pt" height="399pt"
 viewBox="0.00 0.00 1154.00 399.00" xmlns="http://www.w3.org/2000/svg" xmlns:xlink="http://www.w3.org/1999/xlink">
<g id="graph0" class="graph" transform="scale(1 1) rotate(0) translate(4 395)">
<title>gamePlayer.view.MenuBarController.loadGameFile</title>
<polygon fill="white" stroke="none" points="-4,4 -4,-395 1150,-395 1150,4 -4,4"/>
<!-- Node1 -->
<g id="node1" class="node"><title>Node1</title>
<polygon fill="#bfbfbf" stroke="black" points="0,-129 0,-159 210,-159 210,-129 0,-129"/>
<text text-anchor="start" x="8" y="-147" font-family="Helvetica,sans-Serif" font-size="10.00">gamePlayer.view.MenuBarController.load</text>
<text text-anchor="middle" x="105" y="-136" font-family="Helvetica,sans-Serif" font-size="10.00">GameFile</text>
</g>
<!-- Node2 -->
<g id="node2" class="node"><title>Node2</title>
<g id="a_node2"><a xlink:href="../../d2/dc9/classgame_player_1_1model_1_1_player_model.html#a810c0b28ae81f5a27c5df5f83f907088" target="_top" xlink:title="gamePlayer.model.PlayerModel.load\lGameFile">
<polygon fill="white" stroke="black" points="246,-129 246,-159 436,-159 436,-129 246,-129"/>
<text text-anchor="start" x="254" y="-147" font-family="Helvetica,sans-Serif" font-size="10.00">gamePlayer.model.PlayerModel.load</text>
<text text-anchor="middle" x="341" y="-136" font-family="Helvetica,sans-Serif" font-size="10.00">GameFile</text>
</a>
</g>
</g>
<!-- Node1&#45;&gt;Node2 -->
<g id="edge1" class="edge"><title>Node1&#45;&gt;Node2</title>
<path fill="none" stroke="midnightblue" d="M210.339,-144C218.744,-144 227.237,-144 235.642,-144"/>
<polygon fill="midnightblue" stroke="midnightblue" points="235.838,-147.5 245.838,-144 235.838,-140.5 235.838,-147.5"/>
</g>
<!-- Node3 -->
<g id="node3" class="node"><title>Node3</title>
<g id="a_node3"><a xlink:href="../../de/d50/classerrors_and_exceptions_1_1_error_pop_up.html#a879c9fa857c162edfab75ecf1558c944" target="_top" xlink:title="errorsAndExceptions.Error\lPopUp.display">
<polygon fill="white" stroke="black" points="496,-312 496,-342 638,-342 638,-312 496,-312"/>
<text text-anchor="start" x="504" y="-330" font-family="Helvetica,sans-Serif" font-size="10.00">errorsAndExceptions.Error</text>
<text text-anchor="middle" x="567" y="-319" font-family="Helvetica,sans-Serif" font-size="10.00">PopUp.display</text>
</a>
</g>
</g>
<!-- Node2&#45;&gt;Node3 -->
<g id="edge2" class="edge"><title>Node2&#45;&gt;Node3</title>
<path fill="none" stroke="midnightblue" d="M360.713,-159.288C400.506,-191.797 493.63,-267.876 539.505,-305.355"/>
<polygon fill="midnightblue" stroke="midnightblue" points="537.539,-308.268 547.498,-311.884 541.968,-302.847 537.539,-308.268"/>
</g>
<!-- Node6 -->
<g id="node6" class="node"><title>Node6</title>
<g id="a_node6"><a xlink:href="../../d2/dc9/classgame_player_1_1model_1_1_player_model.html#a98f00ab471bdab4f36e313a78fe6ceab" target="_top" xlink:title="gamePlayer.model.PlayerModel.load\lGameData">
<polygon fill="white" stroke="black" points="472,-151 472,-181 662,-181 662,-151 472,-151"/>
<text text-anchor="start" x="480" y="-169" font-family="Helvetica,sans-Serif" font-size="10.00">gamePlayer.model.PlayerModel.load</text>
<text text-anchor="middle" x="567" y="-158" font-family="Helvetica,sans-Serif" font-size="10.00">GameData</text>
</a>
</g>
</g>
<!-- Node2&#45;&gt;Node6 -->
<g id="edge5" class="edge"><title>Node2&#45;&gt;Node6</title>
<path fill="none" stroke="midnightblue" d="M436.023,-153.234C444.542,-154.071 453.204,-154.922 461.804,-155.766"/>
<polygon fill="midnightblue" stroke="midnightblue" points="461.565,-159.26 471.859,-156.754 462.249,-152.293 461.565,-159.26"/>
</g>
<!-- Node17 -->
<g id="node17" class="node"><title>Node17</title>
<g id="a_node17"><a xlink:href="../../d1/d95/classdata_1_1_data_manager.html#adf2d2f38be8e2b2934f3ec7e944e2c3a" target="_top" xlink:title="data.DataManager.readGameFile">
<polygon fill="white" stroke="black" points="479.5,-112.5 479.5,-131.5 654.5,-131.5 654.5,-112.5 479.5,-112.5"/>
<text text-anchor="middle" x="567" y="-119.5" font-family="Helvetica,sans-Serif" font-size="10.00">data.DataManager.readGameFile</text>
</a>
</g>
</g>
<!-- Node2&#45;&gt;Node17 -->
<g id="edge17" class="edge"><title>Node2&#45;&gt;Node17</title>
<path fill="none" stroke="midnightblue" d="M436.023,-134.766C447.022,-133.685 458.26,-132.582 469.295,-131.498"/>
<polygon fill="midnightblue" stroke="midnightblue" points="469.751,-134.97 479.361,-130.509 469.066,-128.004 469.751,-134.97"/>
</g>
<!-- Node19 -->
<g id="node19" class="node"><title>Node19</title>
<g id="a_node19"><a xlink:href="../../d5/d03/classgame_player_1_1view_1_1_file_selection_wizard.html#afa33a926429327d822f1bd5ef47bae5a" target="_top" xlink:title="gamePlayer.view.FileSelection\lWizard.selectFile">
<polygon fill="white" stroke="black" points="488,-63 488,-93 646,-93 646,-63 488,-63"/>
<text text-anchor="start" x="496" y="-81" font-family="Helvetica,sans-Serif" font-size="10.00">gamePlayer.view.FileSelection</text>
<text text-anchor="middle" x="567" y="-70" font-family="Helvetica,sans-Serif" font-size="10.00">Wizard.selectFile</text>
</a>
</g>
</g>
<!-- Node2&#45;&gt;Node19 -->
<g id="edge19" class="edge"><title>Node2&#45;&gt;Node19</title>
<path fill="none" stroke="midnightblue" d="M387.871,-128.972C412.692,-120.982 443.934,-111.153 472,-103 480.365,-100.57 489.176,-98.1039 497.913,-95.7153"/>
<polygon fill="midnightblue" stroke="midnightblue" points="498.983,-99.0518 507.719,-93.0574 497.152,-92.2956 498.983,-99.0518"/>
</g>
<!-- Node4 -->
<g id="node4" class="node"><title>Node4</title>
<g id="a_node4"><a xlink:href="../../de/d50/classerrors_and_exceptions_1_1_error_pop_up.html#a98549e423869b27d7ee3c87270786f60" target="_top" xlink:title="errorsAndExceptions.Error\lPopUp.chooseStageWidth">
<polygon fill="white" stroke="black" points="729,-361 729,-391 871,-391 871,-361 729,-361"/>
<text text-anchor="start" x="737" y="-379" font-family="Helvetica,sans-Serif" font-size="10.00">errorsAndExceptions.Error</text>
<text text-anchor="middle" x="800" y="-368" font-family="Helvetica,sans-Serif" font-size="10.00">PopUp.chooseStageWidth</text>
</a>
</g>
</g>
<!-- Node3&#45;&gt;Node4 -->
<g id="edge3" class="edge"><title>Node3&#45;&gt;Node4</title>
<path fill="none" stroke="midnightblue" d="M638.248,-341.901C663.672,-347.294 692.57,-353.424 718.785,-358.985"/>
<polygon fill="midnightblue" stroke="midnightblue" points="718.179,-362.434 728.688,-361.085 719.632,-355.586 718.179,-362.434"/>
</g>
<!-- Node5 -->
<g id="node5" class="node"><title>Node5</title>
<g id="a_node5"><a xlink:href="../../de/d50/classerrors_and_exceptions_1_1_error_pop_up.html#adecc4a2ab81e607673649e10e6d7da52" target="_top" xlink:title="errorsAndExceptions.Error\lPopUp.createButton">
<polygon fill="white" stroke="black" points="729,-312 729,-342 871,-342 871,-312 729,-312"/>
<text text-anchor="start" x="737" y="-330" font-family="Helvetica,sans-Serif" font-size="10.00">errorsAndExceptions.Error</text>
<text text-anchor="middle" x="800" y="-319" font-family="Helvetica,sans-Serif" font-size="10.00">PopUp.createButton</text>
</a>
</g>
</g>
<!-- Node3&#45;&gt;Node5 -->
<g id="edge4" class="edge"><title>Node3&#45;&gt;Node5</title>
<path fill="none" stroke="midnightblue" d="M638.248,-327C663.56,-327 692.315,-327 718.438,-327"/>
<polygon fill="midnightblue" stroke="midnightblue" points="718.688,-330.5 728.688,-327 718.688,-323.5 718.688,-330.5"/>
</g>
<!-- Node7 -->
<g id="node7" class="node"><title>Node7</title>
<g id="a_node7"><a xlink:href="../../d2/dc9/classgame_player_1_1model_1_1_player_model.html#aca43542fe4bf7439f60a3e173cd56b9f" target="_top" xlink:title="gamePlayer.model.PlayerModel.extract\lButtonConditions">
<polygon fill="white" stroke="black" points="698.5,-263 698.5,-293 901.5,-293 901.5,-263 698.5,-263"/>
<text text-anchor="start" x="706.5" y="-281" font-family="Helvetica,sans-Serif" font-size="10.00">gamePlayer.model.PlayerModel.extract</text>
<text text-anchor="middle" x="800" y="-270" font-family="Helvetica,sans-Serif" font-size="10.00">ButtonConditions</text>
</a>
</g>
</g>
<!-- Node6&#45;&gt;Node7 -->
<g id="edge6" class="edge"><title>Node6&#45;&gt;Node7</title>
<path fill="none" stroke="midnightblue" d="M588.169,-181.202C612.915,-199.252 656.686,-229.266 698,-248 707.757,-252.425 718.337,-256.395 728.851,-259.887"/>
<polygon fill="midnightblue" stroke="midnightblue" points="727.873,-263.249 738.464,-262.959 730.004,-256.581 727.873,-263.249"/>
</g>
<!-- Node9 -->
<g id="node9" class="node"><title>Node9</title>
<g id="a_node9"><a xlink:href="../../d7/dbf/classauthoring_1_1model_1_1_game_data.html#a4a3bfa5ed2418ba59bdf3e73b4ce310a" target="_top" xlink:title="authoring.model.GameData.get\lConditions">
<polygon fill="white" stroke="black" points="957,-219 957,-249 1127,-249 1127,-219 957,-219"/>
<text text-anchor="start" x="965" y="-237" font-family="Helvetica,sans-Serif" font-size="10.00">authoring.model.GameData.get</text>
<text text-anchor="middle" x="1042" y="-226" font-family="Helvetica,sans-Serif" font-size="10.00">Conditions</text>
</a>
</g>
</g>
<!-- Node6&#45;&gt;Node9 -->
<g id="edge9" class="edge"><title>Node6&#45;&gt;Node9</title>
<path fill="none" stroke="midnightblue" d="M600.601,-181.107C626.425,-192.314 663.734,-206.841 698,-214 780.921,-231.325 877.399,-235.583 946.873,-235.94"/>
<polygon fill="midnightblue" stroke="midnightblue" points="946.913,-239.44 956.922,-235.965 946.931,-232.44 946.913,-239.44"/>
</g>
<!-- Node10 -->
<g id="node10" class="node"><title>Node10</title>
<g id="a_node10"><a xlink:href="../../d7/dbf/classauthoring_1_1model_1_1_game_data.html#ab6eab149af02a9649d0e2b162daf3600" target="_top" xlink:title="authoring.model.GameData.get\lGameObjects">
<polygon fill="white" stroke="black" points="715,-175 715,-205 885,-205 885,-175 715,-175"/>
<text text-anchor="start" x="723" y="-193" font-family="Helvetica,sans-Serif" font-size="10.00">authoring.model.GameData.get</text>
<text text-anchor="middle" x="800" y="-182" font-family="Helvetica,sans-Serif" font-size="10.00">GameObjects</text>
</a>
</g>
</g>
<!-- Node6&#45;&gt;Node10 -->
<g id="edge10" class="edge"><title>Node6&#45;&gt;Node10</title>
<path fill="none" stroke="midnightblue" d="M662.29,-175.796C676.244,-177.246 690.625,-178.74 704.582,-180.19"/>
<polygon fill="midnightblue" stroke="midnightblue" points="704.349,-183.685 714.657,-181.237 705.072,-176.722 704.349,-183.685"/>
</g>
<!-- Node11 -->
<g id="node11" class="node"><title>Node11</title>
<g id="a_node11"><a xlink:href="../../d7/d3c/classgame_player_1_1view_1_1_player_view.html#afce0dda0a14523caaf59ad98ab7988ec" target="_top" xlink:title="gamePlayer.view.PlayerView.get\lGroup">
<polygon fill="white" stroke="black" points="716.5,-126 716.5,-156 883.5,-156 883.5,-126 716.5,-126"/>
<text text-anchor="start" x="724.5" y="-144" font-family="Helvetica,sans-Serif" font-size="10.00">gamePlayer.view.PlayerView.get</text>
<text text-anchor="middle" x="800" y="-133" font-family="Helvetica,sans-Serif" font-size="10.00">Group</text>
</a>
</g>
</g>
<!-- Node6&#45;&gt;Node11 -->
<g id="edge11" class="edge"><title>Node6&#45;&gt;Node11</title>
<path fill="none" stroke="midnightblue" d="M662.29,-155.795C676.886,-154.216 691.95,-152.585 706.506,-151.01"/>
<polygon fill="midnightblue" stroke="midnightblue" points="706.925,-154.485 716.49,-149.93 706.172,-147.526 706.925,-154.485"/>
</g>
<!-- Node13 -->
<g id="node13" class="node"><title>Node13</title>
<g id="a_node13"><a xlink:href="../../d7/dbf/classauthoring_1_1model_1_1_game_data.html#a5188274f1af76c8d2e05a7c8dcba3805" target="_top" xlink:title="authoring.model.GameData.get\lLevels">
<polygon fill="white" stroke="black" points="715,-77 715,-107 885,-107 885,-77 715,-77"/>
<text text-anchor="start" x="723" y="-95" font-family="Helvetica,sans-Serif" font-size="10.00">authoring.model.GameData.get</text>
<text text-anchor="middle" x="800" y="-84" font-family="Helvetica,sans-Serif" font-size="10.00">Levels</text>
</a>
</g>
</g>
<!-- Node6&#45;&gt;Node13 -->
<g id="edge13" class="edge"><title>Node6&#45;&gt;Node13</title>
<path fill="none" stroke="midnightblue" d="M636.259,-150.862C645.09,-148.033 653.878,-144.759 662,-141 679.678,-132.818 680.214,-123.946 698,-116 702.663,-113.917 707.531,-112.001 712.501,-110.241"/>
<polygon fill="midnightblue" stroke="midnightblue" points="713.766,-113.509 722.16,-107.044 711.567,-106.863 713.766,-113.509"/>
</g>
<!-- Node14 -->
<g id="node14" class="node"><title>Node14</title>
<g id="a_node14"><a xlink:href="../../d6/d94/classengine_1_1_game_manager.html#a9211b5f8cd80af33e24a2fcc886135e8" target="_top" xlink:title="engine.GameManager.initialize">
<polygon fill="white" stroke="black" points="718,-38.5 718,-57.5 882,-57.5 882,-38.5 718,-38.5"/>
<text text-anchor="middle" x="800" y="-45.5" font-family="Helvetica,sans-Serif" font-size="10.00">engine.GameManager.initialize</text>
</a>
</g>
</g>
<!-- Node6&#45;&gt;Node14 -->
<g id="edge14" class="edge"><title>Node6&#45;&gt;Node14</title>
<path fill="none" stroke="midnightblue" d="M646.549,-150.907C652.076,-148.137 657.307,-144.865 662,-141 690.232,-117.748 668.928,-89.1919 698,-67 701.258,-64.5134 704.744,-62.32 708.391,-60.3873"/>
<polygon fill="midnightblue" stroke="midnightblue" points="710.116,-63.447 717.751,-56.1015 707.202,-57.0824 710.116,-63.447"/>
</g>
<!-- Node8 -->
<g id="node8" class="node"><title>Node8</title>
<g id="a_node8"><a xlink:href="../../db/d2a/classauthoring_1_1model_1_1collections_1_1_conditions_collection.html#af4aa1e8459d542b7f0e78ffe3b004d77" target="_top" xlink:title="authoring.model.collections.\lConditionsCollection.add">
<polygon fill="white" stroke="black" points="966,-268 966,-298 1118,-298 1118,-268 966,-268"/>
<text text-anchor="start" x="974" y="-286" font-family="Helvetica,sans-Serif" font-size="10.00">authoring.model.collections.</text>
<text text-anchor="middle" x="1042" y="-275" font-family="Helvetica,sans-Serif" font-size="10.00">ConditionsCollection.add</text>
</a>
</g>
</g>
<!-- Node7&#45;&gt;Node8 -->
<g id="edge7" class="edge"><title>Node7&#45;&gt;Node8</title>
<path fill="none" stroke="midnightblue" d="M901.738,-280.099C919.646,-280.472 938.142,-280.857 955.573,-281.22"/>
<polygon fill="midnightblue" stroke="midnightblue" points="955.63,-284.722 965.701,-281.431 955.776,-277.724 955.63,-284.722"/>
</g>
<!-- Node7&#45;&gt;Node9 -->
<g id="edge8" class="edge"><title>Node7&#45;&gt;Node9</title>
<path fill="none" stroke="midnightblue" d="M882.923,-262.981C904.237,-259.073 927.34,-254.838 949.13,-250.843"/>
<polygon fill="midnightblue" stroke="midnightblue" points="949.834,-254.272 959.039,-249.026 948.572,-247.387 949.834,-254.272"/>
</g>
<!-- Node12 -->
<g id="node12" class="node"><title>Node12</title>
<g id="a_node12"><a xlink:href="../../db/d19/classgame_player_1_1view_1_1_game_canvas.html#aaf62ddebd656a3ec3174e6845851e2d9" target="_top" xlink:title="gamePlayer.view.GameCanvas.getNode">
<polygon fill="white" stroke="black" points="938.5,-131.5 938.5,-150.5 1145.5,-150.5 1145.5,-131.5 938.5,-131.5"/>
<text text-anchor="middle" x="1042" y="-138.5" font-family="Helvetica,sans-Serif" font-size="10.00">gamePlayer.view.GameCanvas.getNode</text>
</a>
</g>
</g>
<!-- Node11&#45;&gt;Node12 -->
<g id="edge12" class="edge"><title>Node11&#45;&gt;Node12</title>
<path fill="none" stroke="midnightblue" d="M883.594,-141C897.916,-141 913.028,-141 927.994,-141"/>
<polygon fill="midnightblue" stroke="midnightblue" points="928.321,-144.5 938.321,-141 928.321,-137.5 928.321,-144.5"/>
</g>
<!-- Node15 -->
<g id="node15" class="node"><title>Node15</title>
<g id="a_node15"><a xlink:href="../../d6/d94/classengine_1_1_game_manager.html#a5b9c3b1993da4d9a2e7e0397e1f57596" target="_top" xlink:title="engine.GameManager.addFrames\lToGroup">
<polygon fill="white" stroke="black" points="952.5,-58 952.5,-88 1131.5,-88 1131.5,-58 952.5,-58"/>
<text text-anchor="start" x="960.5" y="-76" font-family="Helvetica,sans-Serif" font-size="10.00">engine.GameManager.addFrames</text>
<text text-anchor="middle" x="1042" y="-65" font-family="Helvetica,sans-Serif" font-size="10.00">ToGroup</text>
</a>
</g>
</g>
<!-- Node14&#45;&gt;Node15 -->
<g id="edge15" class="edge"><title>Node14&#45;&gt;Node15</title>
<path fill="none" stroke="midnightblue" d="M882.253,-56.4639C901.564,-58.4755 922.375,-60.6433 942.369,-62.7259"/>
<polygon fill="midnightblue" stroke="midnightblue" points="942.112,-66.2181 952.421,-63.773 942.838,-59.2557 942.112,-66.2181"/>
</g>
<!-- Node16 -->
<g id="node16" class="node"><title>Node16</title>
<g id="a_node16"><a xlink:href="../../d6/d94/classengine_1_1_game_manager.html#a1264479972233bc22827c6cd1b9ffce8" target="_top" xlink:title="engine.GameManager.setGame\lSpeed">
<polygon fill="white" stroke="black" points="957,-9 957,-39 1127,-39 1127,-9 957,-9"/>
<text text-anchor="start" x="965" y="-27" font-family="Helvetica,sans-Serif" font-size="10.00">engine.GameManager.setGame</text>
<text text-anchor="middle" x="1042" y="-16" font-family="Helvetica,sans-Serif" font-size="10.00">Speed</text>
</a>
</g>
</g>
<!-- Node14&#45;&gt;Node16 -->
<g id="edge16" class="edge"><title>Node14&#45;&gt;Node16</title>
<path fill="none" stroke="midnightblue" d="M882.253,-39.8747C903.032,-37.7968 925.548,-35.5452 946.912,-33.4088"/>
<polygon fill="midnightblue" stroke="midnightblue" points="947.363,-36.8813 956.965,-32.4035 946.666,-29.916 947.363,-36.8813"/>
</g>
<!-- Node18 -->
<g id="node18" class="node"><title>Node18</title>
<g id="a_node18"><a xlink:href="../../d1/d95/classdata_1_1_data_manager.html#aec1d7a9fb10c2bd1ce23e7aff5eba74c" target="_top" xlink:title="data.DataManager.readFile">
<polygon fill="white" stroke="black" points="727,-0.5 727,-19.5 873,-19.5 873,-0.5 727,-0.5"/>
<text text-anchor="middle" x="800" y="-7.5" font-family="Helvetica,sans-Serif" font-size="10.00">data.DataManager.readFile</text>
</a>
</g>
</g>
<!-- Node17&#45;&gt;Node18 -->
<g id="edge18" class="edge"><title>Node17&#45;&gt;Node18</title>
<path fill="none" stroke="midnightblue" d="M643.645,-112.459C650.223,-109.732 656.469,-106.303 662,-102 690.553,-79.7878 669.186,-50.8724 698,-29 703.813,-24.5871 710.348,-21.0993 717.224,-18.3537"/>
<polygon fill="midnightblue" stroke="midnightblue" points="718.469,-21.6267 726.778,-15.0526 716.183,-15.0105 718.469,-21.6267"/>
</g>
</g>
</svg>
