<?xml version="1.0" encoding="UTF-8" standalone="no"?>
<!DOCTYPE svg PUBLIC "-//W3C//DTD SVG 1.1//EN"
 "http://www.w3.org/Graphics/SVG/1.1/DTD/svg11.dtd">
<!-- Generated by graphviz version 2.36.0 (20140111.2315)
 -->
<!-- Title: authoring.view.baseclasses.CollectionView.setView Pages: 1 -->
<svg width="412pt" height="294pt"
 viewBox="0.00 0.00 412.00 294.00" xmlns="http://www.w3.org/2000/svg" xmlns:xlink="http://www.w3.org/1999/xlink">
<g id="graph0" class="graph" transform="scale(1 1) rotate(0) translate(4 290)">
<title>authoring.view.baseclasses.CollectionView.setView</title>
<polygon fill="white" stroke="none" points="-4,4 -4,-290 408,-290 408,4 -4,4"/>
<!-- Node1 -->
<g id="node1" class="node"><title>Node1</title>
<polygon fill="#bfbfbf" stroke="black" points="0.5,-122 0.5,-152 149.5,-152 149.5,-122 0.5,-122"/>
<text text-anchor="start" x="8.5" y="-140" font-family="Helvetica,sans-Serif" font-size="10.00">authoring.view.baseclasses.</text>
<text text-anchor="middle" x="75" y="-129" font-family="Helvetica,sans-Serif" font-size="10.00">CollectionView.setView</text>
</g>
<!-- Node2 -->
<g id="node2" class="node"><title>Node2</title>
<g id="a_node2"><a xlink:href="../../d0/db6/classauthoring_1_1view_1_1conditionsview_1_1_conditions_accordion_view.html#a68441fcac2a0f808fca00a6bcd9e9b52" target="_top" xlink:title="authoring.view.conditionsview.\lConditionsAccordionView.Conditions\lAccordionView">
<polygon fill="white" stroke="black" points="201,-244.5 201,-285.5 389,-285.5 389,-244.5 201,-244.5"/>
<text text-anchor="start" x="209" y="-273.5" font-family="Helvetica,sans-Serif" font-size="10.00">authoring.view.conditionsview.</text>
<text text-anchor="start" x="209" y="-262.5" font-family="Helvetica,sans-Serif" font-size="10.00">ConditionsAccordionView.Conditions</text>
<text text-anchor="middle" x="295" y="-251.5" font-family="Helvetica,sans-Serif" font-size="10.00">AccordionView</text>
</a>
</g>
</g>
<!-- Node1&#45;&gt;Node2 -->
<g id="edge1" class="edge"><title>Node1&#45;&gt;Node2</title>
<path fill="none" stroke="midnightblue" d="M95.8705,-159.983C116.332,-182.262 150.204,-215.474 186,-235 192.492,-238.541 199.436,-241.692 206.555,-244.49"/>
<polygon fill="midnightblue" stroke="midnightblue" points="98.2545,-157.4 88.9599,-152.314 93.0546,-162.086 98.2545,-157.4"/>
</g>
<!-- Node3 -->
<g id="node3" class="node"><title>Node3</title>
<g id="a_node3"><a xlink:href="../../df/d83/classauthoring_1_1view_1_1gameobjectsview_1_1_game_objects_view.html#aa96e47a6e9333ecc4465232ffa287a23" target="_top" xlink:title="authoring.view.gameobjectsview.\lGameObjectsView.GameObjectsView">
<polygon fill="white" stroke="black" points="198.5,-196 198.5,-226 391.5,-226 391.5,-196 198.5,-196"/>
<text text-anchor="start" x="206.5" y="-214" font-family="Helvetica,sans-Serif" font-size="10.00">authoring.view.gameobjectsview.</text>
<text text-anchor="middle" x="295" y="-203" font-family="Helvetica,sans-Serif" font-size="10.00">GameObjectsView.GameObjectsView</text>
</a>
</g>
</g>
<!-- Node1&#45;&gt;Node3 -->
<g id="edge2" class="edge"><title>Node1&#45;&gt;Node3</title>
<path fill="none" stroke="midnightblue" d="M114.846,-156.496C135.582,-166.338 161.761,-177.879 186,-186 196.949,-189.668 208.699,-192.99 220.272,-195.927"/>
<polygon fill="midnightblue" stroke="midnightblue" points="116.258,-153.291 105.729,-152.111 113.224,-159.599 116.258,-153.291"/>
</g>
<!-- Node4 -->
<g id="node4" class="node"><title>Node4</title>
<g id="a_node4"><a xlink:href="../../d6/d5f/classauthoring_1_1view_1_1graphicsview_1_1_images_view.html#a57436c82dd2c1c3f08e32b4d0f90245f" target="_top" xlink:title="authoring.view.graphicsview.\lImagesView.ImagesView">
<polygon fill="white" stroke="black" points="219.5,-147 219.5,-177 370.5,-177 370.5,-147 219.5,-147"/>
<text text-anchor="start" x="227.5" y="-165" font-family="Helvetica,sans-Serif" font-size="10.00">authoring.view.graphicsview.</text>
<text text-anchor="middle" x="295" y="-154" font-family="Helvetica,sans-Serif" font-size="10.00">ImagesView.ImagesView</text>
</a>
</g>
</g>
<!-- Node1&#45;&gt;Node4 -->
<g id="edge3" class="edge"><title>Node1&#45;&gt;Node4</title>
<path fill="none" stroke="midnightblue" d="M159.654,-146.593C179.301,-148.846 200.11,-151.233 219.333,-153.437"/>
<polygon fill="midnightblue" stroke="midnightblue" points="159.835,-143.091 149.501,-145.429 159.037,-150.046 159.835,-143.091"/>
</g>
<!-- Node5 -->
<g id="node5" class="node"><title>Node5</title>
<g id="a_node5"><a xlink:href="../../d9/d7c/classauthoring_1_1view_1_1levelview_1_1_levels_accordion_view.html#ac8cafad43dea8bf2561b0c9ddd7d77e7" target="_top" xlink:title="authoring.view.levelview.\lLevelsAccordionView.LevelsAccordionView">
<polygon fill="white" stroke="black" points="186.5,-98 186.5,-128 403.5,-128 403.5,-98 186.5,-98"/>
<text text-anchor="start" x="194.5" y="-116" font-family="Helvetica,sans-Serif" font-size="10.00">authoring.view.levelview.</text>
<text text-anchor="middle" x="295" y="-105" font-family="Helvetica,sans-Serif" font-size="10.00">LevelsAccordionView.LevelsAccordionView</text>
</a>
</g>
</g>
<!-- Node1&#45;&gt;Node5 -->
<g id="edge4" class="edge"><title>Node1&#45;&gt;Node5</title>
<path fill="none" stroke="midnightblue" d="M159.648,-127.791C168.395,-126.828 177.372,-125.84 186.337,-124.853"/>
<polygon fill="midnightblue" stroke="midnightblue" points="159.058,-124.335 149.501,-128.908 159.824,-131.293 159.058,-124.335"/>
</g>
<!-- Node6 -->
<g id="node6" class="node"><title>Node6</title>
<g id="a_node6"><a xlink:href="../../d4/d9e/classauthoring_1_1view_1_1propertiesview_1_1_properties_view.html#a89f03eeb55c7b4affdcdc80fd0496d49" target="_top" xlink:title="authoring.view.propertiesview.\lPropertiesView.PropertiesView">
<polygon fill="white" stroke="black" points="215,-49 215,-79 375,-79 375,-49 215,-49"/>
<text text-anchor="start" x="223" y="-67" font-family="Helvetica,sans-Serif" font-size="10.00">authoring.view.propertiesview.</text>
<text text-anchor="middle" x="295" y="-56" font-family="Helvetica,sans-Serif" font-size="10.00">PropertiesView.PropertiesView</text>
</a>
</g>
</g>
<!-- Node1&#45;&gt;Node6 -->
<g id="edge5" class="edge"><title>Node1&#45;&gt;Node6</title>
<path fill="none" stroke="midnightblue" d="M115.774,-117.53C136.378,-107.989 162.155,-96.8878 186,-89 197.146,-85.313 209.112,-81.9636 220.875,-79.0003"/>
<polygon fill="midnightblue" stroke="midnightblue" points="114.265,-114.371 106.697,-121.786 117.237,-120.709 114.265,-114.371"/>
</g>
<!-- Node7 -->
<g id="node7" class="node"><title>Node7</title>
<g id="a_node7"><a xlink:href="../../d5/da2/classauthoring_1_1view_1_1soundsview_1_1_sounds_view.html#a8bc83f2b6a2b6a085b5dcd8b5c4ad9fd" target="_top" xlink:title="authoring.view.soundsview.\lSoundsView.SoundsView">
<polygon fill="white" stroke="black" points="222.5,-0 222.5,-30 367.5,-30 367.5,-0 222.5,-0"/>
<text text-anchor="start" x="230.5" y="-18" font-family="Helvetica,sans-Serif" font-size="10.00">authoring.view.soundsview.</text>
<text text-anchor="middle" x="295" y="-7" font-family="Helvetica,sans-Serif" font-size="10.00">SoundsView.SoundsView</text>
</a>
</g>
</g>
<!-- Node1&#45;&gt;Node7 -->
<g id="edge6" class="edge"><title>Node1&#45;&gt;Node7</title>
<path fill="none" stroke="midnightblue" d="M95.4023,-114.3C115.728,-91.9961 149.702,-58.6706 186,-40 197.21,-34.2339 209.754,-29.7819 222.215,-26.3489"/>
<polygon fill="midnightblue" stroke="midnightblue" points="92.6022,-112.181 88.5522,-121.972 97.8235,-116.844 92.6022,-112.181"/>
</g>
</g>
</svg>
