<?xml version="1.0" encoding="UTF-8" standalone="no"?>
<!DOCTYPE svg PUBLIC "-//W3C//DTD SVG 1.1//EN"
 "http://www.w3.org/Graphics/SVG/1.1/DTD/svg11.dtd">
<!-- Generated by graphviz version 2.36.0 (20140111.2315)
 -->
<!-- Title: authoring.eventhandlers.AddActionHandler Pages: 1 -->
<svg width="2276pt" height="812pt"
 viewBox="0.00 0.00 2276.00 812.00" xmlns="http://www.w3.org/2000/svg" xmlns:xlink="http://www.w3.org/1999/xlink">
<g id="graph0" class="graph" transform="scale(1 1) rotate(0) translate(4 808)">
<title>authoring.eventhandlers.AddActionHandler</title>
<polygon fill="white" stroke="none" points="-4,4 -4,-808 2272,-808 2272,4 -4,4"/>
<!-- Node1 -->
<g id="node1" class="node"><title>Node1</title>
<polygon fill="#bfbfbf" stroke="black" points="2130.5,-580 2130.5,-610 2267.5,-610 2267.5,-580 2130.5,-580"/>
<text text-anchor="start" x="2138.5" y="-598" font-family="Helvetica,sans-Serif" font-size="10.00">authoring.eventhandlers.</text>
<text text-anchor="middle" x="2199" y="-587" font-family="Helvetica,sans-Serif" font-size="10.00">AddActionHandler</text>
</g>
<!-- Node2 -->
<g id="node2" class="node"><title>Node2</title>
<g id="a_node2"><a xlink:href="../../d3/d6a/interfaceauthoring_1_1eventhandlers_1_1_game_handler.html" target="_top" xlink:title="authoring.eventhandlers.\lGameHandler\&lt; Event \&gt;">
<polygon fill="white" stroke="black" points="1815.5,-723 1815.5,-753 1952.5,-753 1952.5,-723 1815.5,-723"/>
<text text-anchor="start" x="1823.5" y="-741" font-family="Helvetica,sans-Serif" font-size="10.00">authoring.eventhandlers.</text>
<text text-anchor="middle" x="1884" y="-730" font-family="Helvetica,sans-Serif" font-size="10.00">GameHandler&lt; Event &gt;</text>
</a>
</g>
</g>
<!-- Node2&#45;&gt;Node1 -->
<g id="edge1" class="edge"><title>Node2&#45;&gt;Node1</title>
<path fill="none" stroke="midnightblue" d="M1962.89,-733.03C2008.79,-727.311 2066.57,-715.082 2112,-689 2146.34,-669.286 2174.7,-631.183 2188.66,-610.046"/>
<polygon fill="midnightblue" stroke="midnightblue" points="1962.22,-729.585 1952.69,-734.22 1963.03,-736.538 1962.22,-729.585"/>
</g>
<!-- Node3 -->
<g id="node3" class="node"><title>Node3</title>
<g id="a_node3"><a xlink:href="../../d1/d3b/classengine_1_1conditions_1_1_condition.html" target="_top" xlink:title="engine.conditions.Condition">
<polygon fill="white" stroke="black" points="1809.5,-527.5 1809.5,-546.5 1958.5,-546.5 1958.5,-527.5 1809.5,-527.5"/>
<text text-anchor="middle" x="1884" y="-534.5" font-family="Helvetica,sans-Serif" font-size="10.00">engine.conditions.Condition</text>
</a>
</g>
</g>
<!-- Node3&#45;&gt;Node1 -->
<g id="edge2" class="edge"><title>Node3&#45;&gt;Node1</title>
<path fill="none" stroke="#9a32cd" stroke-dasharray="5,2" d="M1968.71,-546.355C2011.78,-551.877 2064.98,-559.8 2112,-570 2124.61,-572.736 2138.09,-576.326 2150.54,-579.928"/>
<polygon fill="#9a32cd" stroke="#9a32cd" points="1968.92,-542.853 1958.56,-545.073 1968.04,-549.797 1968.92,-542.853"/>
<text text-anchor="middle" x="2050" y="-573" font-family="Helvetica,sans-Serif" font-size="10.00"> myCondition</text>
</g>
<!-- Node4 -->
<g id="node4" class="node"><title>Node4</title>
<g id="a_node4"><a xlink:href="../../dc/df6/interfaceengine_1_1game_object_1_1_identifiable.html" target="_top" xlink:title="engine.gameObject.Identifiable">
<polygon fill="white" stroke="black" points="242.5,-229.5 242.5,-248.5 407.5,-248.5 407.5,-229.5 242.5,-229.5"/>
<text text-anchor="middle" x="325" y="-236.5" font-family="Helvetica,sans-Serif" font-size="10.00">engine.gameObject.Identifiable</text>
</a>
</g>
</g>
<!-- Node4&#45;&gt;Node3 -->
<g id="edge3" class="edge"><title>Node4&#45;&gt;Node3</title>
<path fill="none" stroke="midnightblue" d="M365.87,-252.455C380.136,-258.509 395.71,-266.657 408,-277 418.753,-286.05 417.716,-291.646 426,-303 484.475,-383.141 490.003,-411.747 562,-480 594.476,-510.787 600.25,-537 645,-537 645,-537 645,-537 1075,-537 1338.89,-537 1403.9,-449.385 1666,-480 1717.72,-486.041 1731.85,-487.178 1780,-507 1788.67,-510.569 1789.31,-514.486 1798,-518 1807.39,-521.798 1817.69,-524.909 1827.78,-527.433"/>
<polygon fill="midnightblue" stroke="midnightblue" points="366.843,-249.074 356.259,-248.597 364.235,-255.57 366.843,-249.074"/>
</g>
<!-- Node14 -->
<g id="node14" class="node"><title>Node14</title>
<g id="a_node14"><a xlink:href="../../df/d84/classengine_1_1level_1_1_level.html" target="_top" xlink:title="engine.level.Level">
<polygon fill="white" stroke="black" points="595.5,-159.5 595.5,-178.5 696.5,-178.5 696.5,-159.5 595.5,-159.5"/>
<text text-anchor="middle" x="646" y="-166.5" font-family="Helvetica,sans-Serif" font-size="10.00">engine.level.Level</text>
</a>
</g>
</g>
<!-- Node4&#45;&gt;Node14 -->
<g id="edge17" class="edge"><title>Node4&#45;&gt;Node14</title>
<path fill="none" stroke="midnightblue" d="M417.761,-237.887C458.26,-234.245 505.338,-225.533 544,-206 554.098,-200.898 552.1,-193.476 562,-188 572.219,-182.348 584.035,-178.375 595.49,-175.583"/>
<polygon fill="midnightblue" stroke="midnightblue" points="417.301,-234.412 407.616,-238.707 417.865,-241.39 417.301,-234.412"/>
</g>
<!-- Node5 -->
<g id="node5" class="node"><title>Node5</title>
<g id="a_node5"><a xlink:href="../../d2/d15/interfaceengine_1_1actions_1_1_initializable.html" target="_top" xlink:title="engine.actions.Initializable">
<polygon fill="white" stroke="black" points="1516,-413.5 1516,-432.5 1658,-432.5 1658,-413.5 1516,-413.5"/>
<text text-anchor="middle" x="1587" y="-420.5" font-family="Helvetica,sans-Serif" font-size="10.00">engine.actions.Initializable</text>
</a>
</g>
</g>
<!-- Node5&#45;&gt;Node3 -->
<g id="edge4" class="edge"><title>Node5&#45;&gt;Node3</title>
<path fill="none" stroke="midnightblue" d="M1668.48,-413.528C1706.53,-413.506 1750.07,-420.565 1780,-447 1804.4,-468.549 1774.66,-495.31 1798,-518 1801.9,-521.794 1806.39,-524.897 1811.22,-527.428"/>
<polygon fill="midnightblue" stroke="midnightblue" points="1668.37,-410.029 1658.43,-413.695 1668.48,-417.028 1668.37,-410.029"/>
</g>
<!-- Node6 -->
<g id="node6" class="node"><title>Node6</title>
<g id="a_node6"><a xlink:href="../../d4/dac/classengine_1_1game_object_1_1_identifier.html" target="_top" xlink:title="engine.gameObject.Identifier">
<polygon fill="white" stroke="black" points="247.5,-286.5 247.5,-305.5 402.5,-305.5 402.5,-286.5 247.5,-286.5"/>
<text text-anchor="middle" x="325" y="-293.5" font-family="Helvetica,sans-Serif" font-size="10.00">engine.gameObject.Identifier</text>
</a>
</g>
</g>
<!-- Node6&#45;&gt;Node3 -->
<g id="edge5" class="edge"><title>Node6&#45;&gt;Node3</title>
<path fill="none" stroke="#9a32cd" stroke-dasharray="5,2" d="M391.341,-309.939C397.727,-313.596 403.495,-318.201 408,-324 439.043,-363.962 390.76,-514.685 426,-551 494.19,-621.269 547.084,-575 645,-575 645,-575 645,-575 1434,-575 1588.12,-575 1626.74,-568.229 1780,-552 1794.02,-550.516 1809.05,-548.544 1823.19,-546.518"/>
<polygon fill="#9a32cd" stroke="#9a32cd" points="392.832,-306.772 382.311,-305.519 389.754,-313.059 392.832,-306.772"/>
<text text-anchor="middle" x="1074" y="-578" font-family="Helvetica,sans-Serif" font-size="10.00"> myId</text>
</g>
<!-- Node6&#45;&gt;Node14 -->
<g id="edge18" class="edge"><title>Node6&#45;&gt;Node14</title>
<path fill="none" stroke="#9a32cd" stroke-dasharray="5,2" d="M412.85,-290.562C456.895,-283.615 508.443,-268.486 544,-236 560.821,-220.632 544.849,-202.998 562,-188 571.236,-179.923 583.208,-175.087 595.171,-172.238"/>
<polygon fill="#9a32cd" stroke="#9a32cd" points="412.096,-287.135 402.706,-292.041 413.106,-294.062 412.096,-287.135"/>
<text text-anchor="middle" x="485" y="-291" font-family="Helvetica,sans-Serif" font-size="10.00"> myId</text>
</g>
<!-- Node7 -->
<g id="node7" class="node"><title>Node7</title>
<g id="a_node7"><a xlink:href="../../d6/d94/classengine_1_1_game_manager.html" target="_top" xlink:title="engine.GameManager">
<polygon fill="white" stroke="black" points="1525.5,-318.5 1525.5,-337.5 1648.5,-337.5 1648.5,-318.5 1525.5,-318.5"/>
<text text-anchor="middle" x="1587" y="-325.5" font-family="Helvetica,sans-Serif" font-size="10.00">engine.GameManager</text>
</a>
</g>
</g>
<!-- Node7&#45;&gt;Node3 -->
<g id="edge6" class="edge"><title>Node7&#45;&gt;Node3</title>
<path fill="none" stroke="#9a32cd" stroke-dasharray="5,2" d="M1658.72,-336.246C1700.32,-344.902 1750.4,-362.643 1780,-399 1813.77,-440.479 1761.52,-478.88 1798,-518 1801.51,-521.76 1805.58,-524.856 1810.01,-527.399"/>
<polygon fill="#9a32cd" stroke="#9a32cd" points="1659.39,-332.809 1648.9,-334.335 1658.05,-339.68 1659.39,-332.809"/>
<text text-anchor="middle" x="1732" y="-402" font-family="Helvetica,sans-Serif" font-size="10.00"> myGameManager</text>
</g>
<!-- Node8 -->
<g id="node8" class="node"><title>Node8</title>
<g id="a_node8"><a xlink:href="../../df/de5/classauthoring_1_1model_1_1collections_1_1_levels_collection.html" target="_top" xlink:title="authoring.model.collections.\lLevelsCollection">
<polygon fill="white" stroke="black" points="570,-334 570,-364 722,-364 722,-334 570,-334"/>
<text text-anchor="start" x="578" y="-352" font-family="Helvetica,sans-Serif" font-size="10.00">authoring.model.collections.</text>
<text text-anchor="middle" x="646" y="-341" font-family="Helvetica,sans-Serif" font-size="10.00">LevelsCollection</text>
</a>
</g>
</g>
<!-- Node8&#45;&gt;Node7 -->
<g id="edge7" class="edge"><title>Node8&#45;&gt;Node7</title>
<path fill="none" stroke="#9a32cd" stroke-dasharray="5,2" d="M708.982,-366.709C721.848,-370.237 735.341,-373.829 748,-377 799.251,-389.839 811.486,-397.187 864,-403 947.453,-412.238 1271.05,-403.544 1358,-395 1417.27,-389.176 1433.13,-389.663 1490,-372 1518.71,-363.082 1550.04,-347.532 1568.84,-337.508"/>
<polygon fill="#9a32cd" stroke="#9a32cd" points="709.86,-363.32 699.289,-364.031 707.996,-370.068 709.86,-363.32"/>
<text text-anchor="middle" x="1074" y="-410" font-family="Helvetica,sans-Serif" font-size="10.00"> myLevels</text>
</g>
<!-- Node10 -->
<g id="node10" class="node"><title>Node10</title>
<g id="a_node10"><a xlink:href="../../df/d67/classengine_1_1level_1_1_level_manager.html" target="_top" xlink:title="engine.level.LevelManager">
<polygon fill="white" stroke="black" points="1173.5,-272.5 1173.5,-291.5 1316.5,-291.5 1316.5,-272.5 1173.5,-272.5"/>
<text text-anchor="middle" x="1245" y="-279.5" font-family="Helvetica,sans-Serif" font-size="10.00">engine.level.LevelManager</text>
</a>
</g>
</g>
<!-- Node8&#45;&gt;Node10 -->
<g id="edge11" class="edge"><title>Node8&#45;&gt;Node10</title>
<path fill="none" stroke="#9a32cd" stroke-dasharray="5,2" d="M732.397,-358.052C737.673,-358.426 742.906,-358.748 748,-359 791.503,-361.148 805.288,-374.479 846,-359 856.005,-355.196 854.329,-347.587 864,-343 917.503,-317.622 1079.09,-298.143 1173.44,-288.561"/>
<polygon fill="#9a32cd" stroke="#9a32cd" points="732.461,-354.546 722.223,-357.273 731.927,-361.526 732.461,-354.546"/>
<text text-anchor="middle" x="940" y="-346" font-family="Helvetica,sans-Serif" font-size="10.00"> myLevels</text>
</g>
<!-- Node22 -->
<g id="node22" class="node"><title>Node22</title>
<g id="a_node22"><a xlink:href="../../da/d90/classengine_1_1sound_1_1_sound_utility.html" target="_top" xlink:title="engine.sound.SoundUtility">
<polygon fill="white" stroke="black" points="869,-269.5 869,-288.5 1011,-288.5 1011,-269.5 869,-269.5"/>
<text text-anchor="middle" x="940" y="-276.5" font-family="Helvetica,sans-Serif" font-size="10.00">engine.sound.SoundUtility</text>
</a>
</g>
</g>
<!-- Node8&#45;&gt;Node22 -->
<g id="edge27" class="edge"><title>Node8&#45;&gt;Node22</title>
<path fill="none" stroke="#9a32cd" stroke-dasharray="5,2" d="M695.357,-330.565C711.888,-324.713 730.598,-318.581 748,-314 789.077,-303.186 835.989,-294.539 873.04,-288.544"/>
<polygon fill="#9a32cd" stroke="#9a32cd" points="694.129,-327.287 685.903,-333.963 696.497,-333.874 694.129,-327.287"/>
<text text-anchor="middle" x="797" y="-317" font-family="Helvetica,sans-Serif" font-size="10.00"> myLevels</text>
</g>
<!-- Node9 -->
<g id="node9" class="node"><title>Node9</title>
<g id="a_node9"><a xlink:href="../../d4/d3b/classauthoring_1_1model_1_1collections_1_1_general_collection.html" target="_top" xlink:title="authoring.model.collections.\lGeneralCollection\&lt; Level \&gt;">
<polygon fill="white" stroke="black" points="249,-334 249,-364 401,-364 401,-334 249,-334"/>
<text text-anchor="start" x="257" y="-352" font-family="Helvetica,sans-Serif" font-size="10.00">authoring.model.collections.</text>
<text text-anchor="middle" x="325" y="-341" font-family="Helvetica,sans-Serif" font-size="10.00">GeneralCollection&lt; Level &gt;</text>
</a>
</g>
</g>
<!-- Node9&#45;&gt;Node8 -->
<g id="edge8" class="edge"><title>Node9&#45;&gt;Node8</title>
<path fill="none" stroke="midnightblue" d="M411.216,-349C460.588,-349 522.186,-349 569.758,-349"/>
<polygon fill="midnightblue" stroke="midnightblue" points="411.195,-345.5 401.195,-349 411.195,-352.5 411.195,-345.5"/>
</g>
<!-- Node10&#45;&gt;Node7 -->
<g id="edge9" class="edge"><title>Node10&#45;&gt;Node7</title>
<path fill="none" stroke="#9a32cd" stroke-dasharray="5,2" d="M1326.52,-291.022C1374.14,-296.576 1435.58,-304.123 1490,-312 1503.46,-313.948 1517.95,-316.254 1531.49,-318.498"/>
<polygon fill="#9a32cd" stroke="#9a32cd" points="1326.91,-287.545 1316.58,-289.868 1326.11,-294.498 1326.91,-287.545"/>
<text text-anchor="middle" x="1433" y="-315" font-family="Helvetica,sans-Serif" font-size="10.00"> myLevelManager</text>
</g>
<!-- Node11 -->
<g id="node11" class="node"><title>Node11</title>
<polygon fill="white" stroke="#bfbfbf" points="890,-231.5 890,-250.5 990,-250.5 990,-231.5 890,-231.5"/>
<text text-anchor="middle" x="940" y="-238.5" font-family="Helvetica,sans-Serif" font-size="10.00">Iterable&lt; Level &gt;</text>
</g>
<!-- Node11&#45;&gt;Node10 -->
<g id="edge10" class="edge"><title>Node11&#45;&gt;Node10</title>
<path fill="none" stroke="midnightblue" d="M999.97,-248.979C1049.67,-255.704 1120.89,-265.341 1173.57,-272.47"/>
<polygon fill="midnightblue" stroke="midnightblue" points="1000.4,-245.506 990.019,-247.633 999.459,-252.442 1000.4,-245.506"/>
</g>
<!-- Node12 -->
<g id="node12" class="node"><title>Node12</title>
<g id="a_node12"><a xlink:href="../../df/de5/classengine_1_1render_1_1_game_object_renderer.html" target="_top" xlink:title="engine.render.GameObject\lRenderer">
<polygon fill="white" stroke="black" points="867,-107 867,-137 1013,-137 1013,-107 867,-107"/>
<text text-anchor="start" x="875" y="-125" font-family="Helvetica,sans-Serif" font-size="10.00">engine.render.GameObject</text>
<text text-anchor="middle" x="940" y="-114" font-family="Helvetica,sans-Serif" font-size="10.00">Renderer</text>
</a>
</g>
</g>
<!-- Node12&#45;&gt;Node7 -->
<g id="edge34" class="edge"><title>Node12&#45;&gt;Node7</title>
<path fill="none" stroke="#9a32cd" stroke-dasharray="5,2" d="M1023.25,-115.679C1137.28,-110.983 1345.63,-117.472 1490,-210 1534.91,-238.786 1568.72,-295.613 1580.98,-318.306"/>
<polygon fill="#9a32cd" stroke="#9a32cd" points="1023.02,-112.186 1013.18,-116.133 1023.33,-119.179 1023.02,-112.186"/>
<text text-anchor="middle" x="1245" y="-153" font-family="Helvetica,sans-Serif" font-size="10.00"> myGameObjectRenderer</text>
</g>
<!-- Node12&#45;&gt;Node10 -->
<g id="edge12" class="edge"><title>Node12&#45;&gt;Node10</title>
<path fill="none" stroke="#9a32cd" stroke-dasharray="5,2" d="M1023.31,-132.42C1064.55,-138.412 1107.2,-146.097 1114,-153 1148.76,-188.293 1097.07,-227.868 1132,-263 1143.05,-274.119 1158.04,-280.165 1173.46,-283.215"/>
<polygon fill="#9a32cd" stroke="#9a32cd" points="1023.55,-128.919 1013.16,-130.974 1022.56,-135.849 1023.55,-128.919"/>
<text text-anchor="middle" x="1074" y="-156" font-family="Helvetica,sans-Serif" font-size="10.00"> myRenderer</text>
</g>
<!-- Node13 -->
<g id="node13" class="node"><title>Node13</title>
<polygon fill="white" stroke="#bfbfbf" points="570,-69 570,-99 722,-99 722,-69 570,-69"/>
<text text-anchor="start" x="578" y="-87" font-family="Helvetica,sans-Serif" font-size="10.00">Map&lt; String, engine.render.</text>
<text text-anchor="middle" x="646" y="-76" font-family="Helvetica,sans-Serif" font-size="10.00">RenderedNode &gt;</text>
</g>
<!-- Node13&#45;&gt;Node12 -->
<g id="edge13" class="edge"><title>Node13&#45;&gt;Node12</title>
<path fill="none" stroke="#9a32cd" stroke-dasharray="5,2" d="M732.601,-77.4906C767.995,-76.5889 809.267,-77.8654 846,-85 868.005,-89.2739 891.448,-98.6356 909.292,-106.872"/>
<polygon fill="#9a32cd" stroke="#9a32cd" points="732.185,-74.0019 722.301,-77.8177 732.407,-80.9984 732.185,-74.0019"/>
<text text-anchor="middle" x="797" y="-88" font-family="Helvetica,sans-Serif" font-size="10.00"> myRenderedNodes</text>
</g>
<!-- Node14&#45;&gt;Node10 -->
<g id="edge25" class="edge"><title>Node14&#45;&gt;Node10</title>
<path fill="none" stroke="#9a32cd" stroke-dasharray="5,2" d="M706.752,-170.782C780.489,-174.121 909.211,-183.683 1016,-211 1061.58,-222.658 1072.44,-228.953 1114,-251 1122.49,-255.506 1123.06,-259.451 1132,-263 1145.01,-268.168 1159.42,-271.931 1173.46,-274.671"/>
<polygon fill="#9a32cd" stroke="#9a32cd" points="706.862,-167.283 696.721,-170.351 706.561,-174.277 706.862,-167.283"/>
<text text-anchor="middle" x="940" y="-214" font-family="Helvetica,sans-Serif" font-size="10.00"> myCurrentLevel</text>
</g>
<!-- Node14&#45;&gt;Node12 -->
<g id="edge14" class="edge"><title>Node14&#45;&gt;Node12</title>
<path fill="none" stroke="#9a32cd" stroke-dasharray="5,2" d="M669.488,-154.081C689.233,-141.933 719.219,-125.734 748,-119 786.589,-109.971 830.77,-110.025 866.914,-112.65"/>
<polygon fill="#9a32cd" stroke="#9a32cd" points="667.506,-151.193 660.922,-159.494 671.246,-157.11 667.506,-151.193"/>
<text text-anchor="middle" x="797" y="-122" font-family="Helvetica,sans-Serif" font-size="10.00"> myCurrentLevel</text>
</g>
<!-- Node15 -->
<g id="node15" class="node"><title>Node15</title>
<g id="a_node15"><a xlink:href="../../d3/d8d/classdata_1_1_observable.html" target="_top" xlink:title="data.Observable">
<polygon fill="white" stroke="black" points="277.5,-131.5 277.5,-150.5 372.5,-150.5 372.5,-131.5 277.5,-131.5"/>
<text text-anchor="middle" x="325" y="-138.5" font-family="Helvetica,sans-Serif" font-size="10.00">data.Observable</text>
</a>
</g>
</g>
<!-- Node15&#45;&gt;Node14 -->
<g id="edge15" class="edge"><title>Node15&#45;&gt;Node14</title>
<path fill="none" stroke="midnightblue" d="M382.85,-145.99C443.23,-151.29 537.733,-159.585 595.257,-164.634"/>
<polygon fill="midnightblue" stroke="midnightblue" points="382.995,-142.489 372.727,-145.101 382.383,-149.462 382.995,-142.489"/>
</g>
<!-- Node16 -->
<g id="node16" class="node"><title>Node16</title>
<polygon fill="white" stroke="#bfbfbf" points="23,-131.5 23,-150.5 161,-150.5 161,-131.5 23,-131.5"/>
<text text-anchor="middle" x="92" y="-138.5" font-family="Helvetica,sans-Serif" font-size="10.00">Vector&lt; data.Observer &gt;</text>
</g>
<!-- Node16&#45;&gt;Node15 -->
<g id="edge16" class="edge"><title>Node16&#45;&gt;Node15</title>
<path fill="none" stroke="#9a32cd" stroke-dasharray="5,2" d="M171.318,-141C206.521,-141 246.882,-141 277.262,-141"/>
<polygon fill="#9a32cd" stroke="#9a32cd" points="171.058,-137.5 161.058,-141 171.058,-144.5 171.058,-137.5"/>
<text text-anchor="middle" x="213" y="-144" font-family="Helvetica,sans-Serif" font-size="10.00"> obs</text>
</g>
<!-- Node17 -->
<g id="node17" class="node"><title>Node17</title>
<g id="a_node17"><a xlink:href="../../d1/d32/classauthoring_1_1model_1_1collections_1_1_game_objects_collection.html" target="_top" xlink:title="authoring.model.collections.\lGameObjectsCollection">
<polygon fill="white" stroke="black" points="249,-24 249,-54 401,-54 401,-24 249,-24"/>
<text text-anchor="start" x="257" y="-42" font-family="Helvetica,sans-Serif" font-size="10.00">authoring.model.collections.</text>
<text text-anchor="middle" x="325" y="-31" font-family="Helvetica,sans-Serif" font-size="10.00">GameObjectsCollection</text>
</a>
</g>
</g>
<!-- Node17&#45;&gt;Node7 -->
<g id="edge35" class="edge"><title>Node17&#45;&gt;Node7</title>
<path fill="none" stroke="#9a32cd" stroke-dasharray="5,2" d="M411.147,-22.8799C475.207,-12.1448 565.294,-0 645,-0 645,-0 645,-0 1246,-0 1374.24,-0 1402.03,-60.6942 1490,-154 1539.7,-206.716 1572.46,-290.032 1582.63,-318.271"/>
<polygon fill="#9a32cd" stroke="#9a32cd" points="410.366,-19.4622 401.094,-24.5886 411.54,-26.3633 410.366,-19.4622"/>
<text text-anchor="middle" x="940" y="-3" font-family="Helvetica,sans-Serif" font-size="10.00"> myGameObjects</text>
</g>
<!-- Node17&#45;&gt;Node10 -->
<g id="edge24" class="edge"><title>Node17&#45;&gt;Node10</title>
<path fill="none" stroke="#9a32cd" stroke-dasharray="5,2" d="M411.455,-35.0565C514.91,-31.6791 694.162,-30.311 846,-52 968.93,-69.5597 1035.32,-34.9275 1114,-131 1151.51,-176.808 1090.82,-220.457 1132,-263 1142.91,-274.266 1157.84,-280.367 1173.25,-283.424"/>
<polygon fill="#9a32cd" stroke="#9a32cd" points="411.25,-31.5613 401.375,-35.3998 411.489,-38.5573 411.25,-31.5613"/>
<text text-anchor="middle" x="797" y="-66" font-family="Helvetica,sans-Serif" font-size="10.00"> myTemplateObjects</text>
<text text-anchor="middle" x="797" y="-55" font-family="Helvetica,sans-Serif" font-size="10.00">myGameObjects</text>
</g>
<!-- Node17&#45;&gt;Node14 -->
<g id="edge19" class="edge"><title>Node17&#45;&gt;Node14</title>
<path fill="none" stroke="#9a32cd" stroke-dasharray="5,2" d="M374.925,-57.7357C419.237,-74.8389 486.233,-101.031 544,-125 571.559,-136.435 603.036,-150.272 623.422,-159.338"/>
<polygon fill="#9a32cd" stroke="#9a32cd" points="376.139,-54.4529 365.55,-54.1221 373.622,-60.9845 376.139,-54.4529"/>
<text text-anchor="middle" x="485" y="-139" font-family="Helvetica,sans-Serif" font-size="10.00"> myDefaultGameObjects</text>
<text text-anchor="middle" x="485" y="-128" font-family="Helvetica,sans-Serif" font-size="10.00">myWorkingGameObjects</text>
</g>
<!-- Node18 -->
<g id="node18" class="node"><title>Node18</title>
<g id="a_node18"><a xlink:href="../../d4/d3b/classauthoring_1_1model_1_1collections_1_1_general_collection.html" target="_top" xlink:title="authoring.model.collections.\lGeneralCollection\&lt; GameObject \&gt;">
<polygon fill="white" stroke="black" points="0.5,-24 0.5,-54 183.5,-54 183.5,-24 0.5,-24"/>
<text text-anchor="start" x="8.5" y="-42" font-family="Helvetica,sans-Serif" font-size="10.00">authoring.model.collections.</text>
<text text-anchor="middle" x="92" y="-31" font-family="Helvetica,sans-Serif" font-size="10.00">GeneralCollection&lt; GameObject &gt;</text>
</a>
</g>
</g>
<!-- Node18&#45;&gt;Node17 -->
<g id="edge20" class="edge"><title>Node18&#45;&gt;Node17</title>
<path fill="none" stroke="midnightblue" d="M193.843,-39C212.335,-39 231.337,-39 248.91,-39"/>
<polygon fill="midnightblue" stroke="midnightblue" points="193.634,-35.5001 183.634,-39 193.634,-42.5001 193.634,-35.5001"/>
</g>
<!-- Node19 -->
<g id="node19" class="node"><title>Node19</title>
<polygon fill="white" stroke="#bfbfbf" points="254.5,-170 254.5,-200 395.5,-200 395.5,-170 254.5,-170"/>
<text text-anchor="start" x="262.5" y="-188" font-family="Helvetica,sans-Serif" font-size="10.00">List&lt; engine.gameObject.</text>
<text text-anchor="middle" x="325" y="-177" font-family="Helvetica,sans-Serif" font-size="10.00">Identifier &gt;</text>
</g>
<!-- Node19&#45;&gt;Node14 -->
<g id="edge21" class="edge"><title>Node19&#45;&gt;Node14</title>
<path fill="none" stroke="#9a32cd" stroke-dasharray="5,2" d="M405.726,-181.001C465.211,-178.018 544.633,-174.034 595.312,-171.492"/>
<polygon fill="#9a32cd" stroke="#9a32cd" points="405.424,-177.512 395.612,-181.509 405.775,-184.503 405.424,-177.512"/>
<text text-anchor="middle" x="485" y="-194" font-family="Helvetica,sans-Serif" font-size="10.00"> myConditionIdList</text>
<text text-anchor="middle" x="485" y="-183" font-family="Helvetica,sans-Serif" font-size="10.00">myGameObjectIdList</text>
</g>
<!-- Node20 -->
<g id="node20" class="node"><title>Node20</title>
<polygon fill="white" stroke="#bfbfbf" points="623,-451.5 623,-470.5 669,-470.5 669,-451.5 623,-451.5"/>
<text text-anchor="middle" x="646" y="-458.5" font-family="Helvetica,sans-Serif" font-size="10.00">Group</text>
</g>
<!-- Node20&#45;&gt;Node7 -->
<g id="edge37" class="edge"><title>Node20&#45;&gt;Node7</title>
<path fill="none" stroke="#9a32cd" stroke-dasharray="5,2" d="M679.288,-459.728C779.918,-455.588 1096.75,-441.23 1358,-415 1416.91,-409.085 1435,-418.927 1490,-397 1525.27,-382.938 1559.7,-353.166 1576.08,-337.733"/>
<polygon fill="#9a32cd" stroke="#9a32cd" points="679.012,-456.236 669.163,-460.14 679.297,-463.23 679.012,-456.236"/>
<text text-anchor="middle" x="1074" y="-444" font-family="Helvetica,sans-Serif" font-size="10.00"> myRootGroup</text>
</g>
<!-- Node20&#45;&gt;Node12 -->
<g id="edge22" class="edge"><title>Node20&#45;&gt;Node12</title>
<path fill="none" stroke="#9a32cd" stroke-dasharray="5,2" d="M678.893,-450.087C725.435,-432.229 810.298,-391.896 846,-325 881.565,-258.361 819.765,-217.229 864,-156 869.777,-148.004 877.888,-141.848 886.656,-137.122"/>
<polygon fill="#9a32cd" stroke="#9a32cd" points="677.453,-446.888 669.301,-453.656 679.894,-453.449 677.453,-446.888"/>
<text text-anchor="middle" x="797" y="-420" font-family="Helvetica,sans-Serif" font-size="10.00"> myCanvas</text>
</g>
<!-- Node32 -->
<g id="node32" class="node"><title>Node32</title>
<g id="a_node32"><a xlink:href="../../d6/d32/classauthoring_1_1view_1_1wizards_1_1_wizard.html" target="_top" xlink:title="authoring.view.wizards.Wizard">
<polygon fill="white" stroke="black" points="1508,-650.5 1508,-669.5 1666,-669.5 1666,-650.5 1508,-650.5"/>
<text text-anchor="middle" x="1587" y="-657.5" font-family="Helvetica,sans-Serif" font-size="10.00">authoring.view.wizards.Wizard</text>
</a>
</g>
</g>
<!-- Node20&#45;&gt;Node32 -->
<g id="edge47" class="edge"><title>Node20&#45;&gt;Node32</title>
<path fill="none" stroke="#9a32cd" stroke-dasharray="5,2" d="M678.968,-466.095C743.012,-476.363 891.566,-500.487 1016,-523 1228.91,-561.52 1280.48,-580.003 1490,-634 1510.4,-639.257 1533.16,-645.409 1551.39,-650.408"/>
<polygon fill="#9a32cd" stroke="#9a32cd" points="679.505,-462.636 669.077,-464.512 678.398,-469.548 679.505,-462.636"/>
<text text-anchor="middle" x="1074" y="-545" font-family="Helvetica,sans-Serif" font-size="10.00"> myRoot</text>
</g>
<!-- Node21 -->
<g id="node21" class="node"><title>Node21</title>
<g id="a_node21"><a xlink:href="../../d9/db5/classengine_1_1_file_path_utility.html" target="_top" xlink:title="engine.FilePathUtility">
<polygon fill="white" stroke="black" points="588.5,-197.5 588.5,-216.5 703.5,-216.5 703.5,-197.5 588.5,-197.5"/>
<text text-anchor="middle" x="646" y="-204.5" font-family="Helvetica,sans-Serif" font-size="10.00">engine.FilePathUtility</text>
</a>
</g>
</g>
<!-- Node21&#45;&gt;Node12 -->
<g id="edge23" class="edge"><title>Node21&#45;&gt;Node12</title>
<path fill="none" stroke="#9a32cd" stroke-dasharray="5,2" d="M702.001,-195.068C711.375,-192.847 720.991,-190.449 730,-188 787.464,-172.377 852.777,-151.19 894.867,-137.08"/>
<polygon fill="#9a32cd" stroke="#9a32cd" points="700.91,-191.729 691.963,-197.404 702.497,-198.546 700.91,-191.729"/>
<text text-anchor="middle" x="797" y="-185" font-family="Helvetica,sans-Serif" font-size="10.00"> myFilePathUtility</text>
</g>
<!-- Node21&#45;&gt;Node22 -->
<g id="edge30" class="edge"><title>Node21&#45;&gt;Node22</title>
<path fill="none" stroke="#9a32cd" stroke-dasharray="5,2" d="M713.885,-207.133C754.312,-209.789 805.652,-217.897 846,-240 856.488,-245.745 853.762,-253.82 864,-260 870.44,-263.887 877.651,-266.983 884.988,-269.447"/>
<polygon fill="#9a32cd" stroke="#9a32cd" points="714.036,-203.636 703.855,-206.57 713.644,-210.625 714.036,-203.636"/>
<text text-anchor="middle" x="797" y="-243" font-family="Helvetica,sans-Serif" font-size="10.00"> myFilePathUtility</text>
</g>
<!-- Node22&#45;&gt;Node7 -->
<g id="edge38" class="edge"><title>Node22&#45;&gt;Node7</title>
<path fill="none" stroke="#9a32cd" stroke-dasharray="5,2" d="M991.232,-292.375C1000.19,-296.365 1008.91,-301.478 1016,-308 1029.46,-320.378 1018.5,-335.301 1034,-345 1054.52,-357.839 1386.34,-339.832 1525.42,-331.664"/>
<polygon fill="#9a32cd" stroke="#9a32cd" points="992.458,-289.095 981.874,-288.611 989.846,-295.59 992.458,-289.095"/>
<text text-anchor="middle" x="1245" y="-353" font-family="Helvetica,sans-Serif" font-size="10.00"> mySoundUtility</text>
</g>
<!-- Node22&#45;&gt;Node10 -->
<g id="edge26" class="edge"><title>Node22&#45;&gt;Node10</title>
<path fill="none" stroke="#9a32cd" stroke-dasharray="5,2" d="M1021.21,-275.332C1025.53,-275.202 1029.82,-275.09 1034,-275 1069.55,-274.236 1078.46,-274.044 1114,-275 1133.2,-275.517 1153.99,-276.462 1173.18,-277.494"/>
<polygon fill="#9a32cd" stroke="#9a32cd" points="1020.95,-271.839 1011.07,-275.664 1021.18,-278.835 1020.95,-271.839"/>
<text text-anchor="middle" x="1074" y="-278" font-family="Helvetica,sans-Serif" font-size="10.00"> mySoundPlayer</text>
</g>
<!-- Node23 -->
<g id="node23" class="node"><title>Node23</title>
<polygon fill="white" stroke="#bfbfbf" points="570,-273.5 570,-292.5 722,-292.5 722,-273.5 570,-273.5"/>
<text text-anchor="middle" x="646" y="-280.5" font-family="Helvetica,sans-Serif" font-size="10.00">Map&lt; String, MediaPlayer &gt;</text>
</g>
<!-- Node23&#45;&gt;Node22 -->
<g id="edge28" class="edge"><title>Node23&#45;&gt;Node22</title>
<path fill="none" stroke="#9a32cd" stroke-dasharray="5,2" d="M732.271,-280.319C737.593,-280.198 742.87,-280.09 748,-280 787.952,-279.302 832.611,-279.04 868.694,-278.957"/>
<polygon fill="#9a32cd" stroke="#9a32cd" points="731.918,-276.827 722.005,-280.568 732.087,-283.825 731.918,-276.827"/>
<text text-anchor="middle" x="797" y="-283" font-family="Helvetica,sans-Serif" font-size="10.00"> myMediaPlayerMap</text>
</g>
<!-- Node24 -->
<g id="node24" class="node"><title>Node24</title>
<polygon fill="white" stroke="#bfbfbf" points="577,-235.5 577,-254.5 715,-254.5 715,-235.5 577,-235.5"/>
<text text-anchor="middle" x="646" y="-242.5" font-family="Helvetica,sans-Serif" font-size="10.00">Map&lt; String, AudioClip &gt;</text>
</g>
<!-- Node24&#45;&gt;Node22 -->
<g id="edge29" class="edge"><title>Node24&#45;&gt;Node22</title>
<path fill="none" stroke="#9a32cd" stroke-dasharray="5,2" d="M725.384,-251.979C762.066,-255.476 806.32,-260.022 846,-265 856.531,-266.321 867.709,-267.874 878.528,-269.455"/>
<polygon fill="#9a32cd" stroke="#9a32cd" points="725.534,-248.478 715.249,-251.022 724.875,-255.447 725.534,-248.478"/>
<text text-anchor="middle" x="797" y="-268" font-family="Helvetica,sans-Serif" font-size="10.00"> myAudioClipMap</text>
</g>
<!-- Node25 -->
<g id="node25" class="node"><title>Node25</title>
<g id="a_node25"><a xlink:href="../../db/d2a/classauthoring_1_1model_1_1collections_1_1_conditions_collection.html" target="_top" xlink:title="authoring.model.collections.\lConditionsCollection">
<polygon fill="white" stroke="black" points="864,-364 864,-394 1016,-394 1016,-364 864,-364"/>
<text text-anchor="start" x="872" y="-382" font-family="Helvetica,sans-Serif" font-size="10.00">authoring.model.collections.</text>
<text text-anchor="middle" x="940" y="-371" font-family="Helvetica,sans-Serif" font-size="10.00">ConditionsCollection</text>
</a>
</g>
</g>
<!-- Node25&#45;&gt;Node7 -->
<g id="edge39" class="edge"><title>Node25&#45;&gt;Node7</title>
<path fill="none" stroke="#9a32cd" stroke-dasharray="5,2" d="M1026.36,-380.334C1134.83,-380.73 1327.51,-377.08 1490,-351 1510.64,-347.686 1533.41,-342.308 1551.6,-337.584"/>
<polygon fill="#9a32cd" stroke="#9a32cd" points="1026.14,-376.833 1016.13,-380.284 1026.11,-383.833 1026.14,-376.833"/>
<text text-anchor="middle" x="1245" y="-383" font-family="Helvetica,sans-Serif" font-size="10.00"> myGameConditions</text>
</g>
<!-- Node25&#45;&gt;Node10 -->
<g id="edge31" class="edge"><title>Node25&#45;&gt;Node10</title>
<path fill="none" stroke="#9a32cd" stroke-dasharray="5,2" d="M994.351,-360.538C1032.56,-347.459 1085.3,-329.698 1132,-315 1158.1,-306.784 1187.82,-298.056 1210.08,-291.641"/>
<polygon fill="#9a32cd" stroke="#9a32cd" points="992.794,-357.372 984.47,-363.927 995.065,-363.993 992.794,-357.372"/>
<text text-anchor="middle" x="1074" y="-349" font-family="Helvetica,sans-Serif" font-size="10.00"> myConditions</text>
</g>
<!-- Node26 -->
<g id="node26" class="node"><title>Node26</title>
<g id="a_node26"><a xlink:href="../../d4/d3b/classauthoring_1_1model_1_1collections_1_1_general_collection.html" target="_top" xlink:title="authoring.model.collections.\lGeneralCollection\&lt; Condition \&gt;">
<polygon fill="white" stroke="black" points="562,-383 562,-413 730,-413 730,-383 562,-383"/>
<text text-anchor="start" x="570" y="-401" font-family="Helvetica,sans-Serif" font-size="10.00">authoring.model.collections.</text>
<text text-anchor="middle" x="646" y="-390" font-family="Helvetica,sans-Serif" font-size="10.00">GeneralCollection&lt; Condition &gt;</text>
</a>
</g>
</g>
<!-- Node26&#45;&gt;Node25 -->
<g id="edge32" class="edge"><title>Node26&#45;&gt;Node25</title>
<path fill="none" stroke="midnightblue" d="M740.27,-391.931C780.092,-389.34 825.959,-386.355 863.588,-383.907"/>
<polygon fill="midnightblue" stroke="midnightblue" points="740.036,-388.439 730.285,-392.581 740.491,-395.424 740.036,-388.439"/>
</g>
<!-- Node27 -->
<g id="node27" class="node"><title>Node27</title>
<polygon fill="white" stroke="#bfbfbf" points="1217,-234.5 1217,-253.5 1273,-253.5 1273,-234.5 1217,-234.5"/>
<text text-anchor="middle" x="1245" y="-241.5" font-family="Helvetica,sans-Serif" font-size="10.00">Timeline</text>
</g>
<!-- Node27&#45;&gt;Node7 -->
<g id="edge33" class="edge"><title>Node27&#45;&gt;Node7</title>
<path fill="none" stroke="#9a32cd" stroke-dasharray="5,2" d="M1283.31,-246.704C1331.82,-250.953 1418.76,-261.086 1490,-283 1519.03,-291.929 1550.52,-308.042 1569.24,-318.369"/>
<polygon fill="#9a32cd" stroke="#9a32cd" points="1283.54,-243.211 1273.28,-245.862 1282.95,-250.186 1283.54,-243.211"/>
<text text-anchor="middle" x="1433" y="-286" font-family="Helvetica,sans-Serif" font-size="10.00"> myAnimation</text>
</g>
<!-- Node28 -->
<g id="node28" class="node"><title>Node28</title>
<polygon fill="white" stroke="#bfbfbf" points="1164.5,-196.5 1164.5,-215.5 1325.5,-215.5 1325.5,-196.5 1164.5,-196.5"/>
<text text-anchor="middle" x="1245" y="-203.5" font-family="Helvetica,sans-Serif" font-size="10.00">EventHandler&lt; ActionEvent &gt;</text>
</g>
<!-- Node28&#45;&gt;Node7 -->
<g id="edge36" class="edge"><title>Node28&#45;&gt;Node7</title>
<path fill="none" stroke="#9a32cd" stroke-dasharray="5,2" d="M1335.64,-207.987C1383.36,-211.946 1441.94,-221.571 1490,-244 1528.53,-261.983 1563.27,-300.241 1578.22,-318.247"/>
<polygon fill="#9a32cd" stroke="#9a32cd" points="1335.87,-204.494 1325.63,-207.225 1335.34,-211.474 1335.87,-204.494"/>
<text text-anchor="middle" x="1433" y="-247" font-family="Helvetica,sans-Serif" font-size="10.00"> oneFrame</text>
</g>
<!-- Node29 -->
<g id="node29" class="node"><title>Node29</title>
<polygon fill="white" stroke="#bfbfbf" points="1508,-527.5 1508,-546.5 1666,-546.5 1666,-527.5 1508,-527.5"/>
<text text-anchor="middle" x="1587" y="-534.5" font-family="Helvetica,sans-Serif" font-size="10.00">List&lt; engine.actions.Action &gt;</text>
</g>
<!-- Node29&#45;&gt;Node3 -->
<g id="edge40" class="edge"><title>Node29&#45;&gt;Node3</title>
<path fill="none" stroke="#9a32cd" stroke-dasharray="5,2" d="M1676.33,-537C1718.79,-537 1769.09,-537 1809.43,-537"/>
<polygon fill="#9a32cd" stroke="#9a32cd" points="1676.28,-533.5 1666.28,-537 1676.28,-540.5 1676.28,-533.5"/>
<text text-anchor="middle" x="1732" y="-540" font-family="Helvetica,sans-Serif" font-size="10.00"> myActions</text>
</g>
<!-- Node30 -->
<g id="node30" class="node"><title>Node30</title>
<polygon fill="white" stroke="#bfbfbf" points="1526,-489.5 1526,-508.5 1648,-508.5 1648,-489.5 1526,-489.5"/>
<text text-anchor="middle" x="1587" y="-496.5" font-family="Helvetica,sans-Serif" font-size="10.00">Map&lt; String, String &gt;</text>
</g>
<!-- Node30&#45;&gt;Node3 -->
<g id="edge41" class="edge"><title>Node30&#45;&gt;Node3</title>
<path fill="none" stroke="#9a32cd" stroke-dasharray="5,2" d="M1658.17,-506.973C1694.55,-511.216 1739.69,-516.652 1780,-522 1792.72,-523.688 1806.31,-525.593 1819.3,-527.465"/>
<polygon fill="#9a32cd" stroke="#9a32cd" points="1658.49,-503.486 1648.15,-505.809 1657.68,-510.44 1658.49,-503.486"/>
<text text-anchor="middle" x="1732" y="-525" font-family="Helvetica,sans-Serif" font-size="10.00"> myInputs</text>
</g>
<!-- Node31 -->
<g id="node31" class="node"><title>Node31</title>
<g id="a_node31"><a xlink:href="../../d2/d02/classauthoring_1_1view_1_1wizards_1_1_action_choice_wizard.html" target="_top" xlink:title="authoring.view.wizards.Action\lChoiceWizard">
<polygon fill="white" stroke="black" points="1806,-674 1806,-704 1962,-704 1962,-674 1806,-674"/>
<text text-anchor="start" x="1814" y="-692" font-family="Helvetica,sans-Serif" font-size="10.00">authoring.view.wizards.Action</text>
<text text-anchor="middle" x="1884" y="-681" font-family="Helvetica,sans-Serif" font-size="10.00">ChoiceWizard</text>
</a>
</g>
</g>
<!-- Node31&#45;&gt;Node1 -->
<g id="edge42" class="edge"><title>Node31&#45;&gt;Node1</title>
<path fill="none" stroke="#9a32cd" stroke-dasharray="5,2" d="M1972.1,-677.172C2015.06,-669.789 2067.14,-658.485 2112,-642 2134.36,-633.784 2157.98,-620.497 2174.8,-610.144"/>
<polygon fill="#9a32cd" stroke="#9a32cd" points="1971.52,-673.721 1962.24,-678.827 1972.68,-680.624 1971.52,-673.721"/>
<text text-anchor="middle" x="2050" y="-677" font-family="Helvetica,sans-Serif" font-size="10.00"> myActionSelectionWizard</text>
</g>
<!-- Node32&#45;&gt;Node31 -->
<g id="edge43" class="edge"><title>Node32&#45;&gt;Node31</title>
<path fill="none" stroke="midnightblue" d="M1676.32,-668.682C1717.54,-672.735 1766.16,-677.514 1805.89,-681.42"/>
<polygon fill="midnightblue" stroke="midnightblue" points="1676.57,-665.191 1666.28,-667.695 1675.89,-672.157 1676.57,-665.191"/>
</g>
<!-- Node43 -->
<g id="node43" class="node"><title>Node43</title>
<g id="a_node43"><a xlink:href="../../d4/d30/classauthoring_1_1view_1_1wizards_1_1_condition_parameter_wizard.html" target="_top" xlink:title="authoring.view.wizards.Condition\lParameterWizard">
<polygon fill="white" stroke="black" points="1798.5,-625 1798.5,-655 1969.5,-655 1969.5,-625 1798.5,-625"/>
<text text-anchor="start" x="1806.5" y="-643" font-family="Helvetica,sans-Serif" font-size="10.00">authoring.view.wizards.Condition</text>
<text text-anchor="middle" x="1884" y="-632" font-family="Helvetica,sans-Serif" font-size="10.00">ParameterWizard</text>
</a>
</g>
</g>
<!-- Node32&#45;&gt;Node43 -->
<g id="edge57" class="edge"><title>Node32&#45;&gt;Node43</title>
<path fill="none" stroke="midnightblue" d="M1676.47,-654.002C1715.11,-651.383 1760.21,-648.325 1798.4,-645.736"/>
<polygon fill="midnightblue" stroke="midnightblue" points="1676.02,-650.524 1666.28,-654.693 1676.49,-657.508 1676.02,-650.524"/>
</g>
<!-- Node33 -->
<g id="node33" class="node"><title>Node33</title>
<polygon fill="white" stroke="#bfbfbf" points="1222.5,-612.5 1222.5,-631.5 1267.5,-631.5 1267.5,-612.5 1222.5,-612.5"/>
<text text-anchor="middle" x="1245" y="-619.5" font-family="Helvetica,sans-Serif" font-size="10.00">Stage</text>
</g>
<!-- Node33&#45;&gt;Node32 -->
<g id="edge44" class="edge"><title>Node33&#45;&gt;Node32</title>
<path fill="none" stroke="midnightblue" d="M1277.49,-625.519C1329.49,-631.331 1434.82,-643.104 1507.85,-651.265"/>
<polygon fill="midnightblue" stroke="midnightblue" points="1277.85,-622.038 1267.53,-624.406 1277.08,-628.995 1277.85,-622.038"/>
</g>
<!-- Node34 -->
<g id="node34" class="node"><title>Node34</title>
<polygon fill="white" stroke="#bfbfbf" points="1224.5,-704.5 1224.5,-723.5 1265.5,-723.5 1265.5,-704.5 1224.5,-704.5"/>
<text text-anchor="middle" x="1245" y="-711.5" font-family="Helvetica,sans-Serif" font-size="10.00">VBox</text>
</g>
<!-- Node34&#45;&gt;Node32 -->
<g id="edge45" class="edge"><title>Node34&#45;&gt;Node32</title>
<path fill="none" stroke="#9a32cd" stroke-dasharray="5,2" d="M1275.68,-709.287C1331.39,-700.437 1452.65,-681.179 1526.01,-669.528"/>
<polygon fill="#9a32cd" stroke="#9a32cd" points="1275.08,-705.838 1265.75,-710.863 1276.17,-712.751 1275.08,-705.838"/>
<text text-anchor="middle" x="1433" y="-695" font-family="Helvetica,sans-Serif" font-size="10.00"> myWindow</text>
</g>
<!-- Node37 -->
<g id="node37" class="node"><title>Node37</title>
<g id="a_node37"><a xlink:href="../../d4/d31/classauthoring_1_1view_1_1wizards_1_1_action_choices_v_box.html" target="_top" xlink:title="authoring.view.wizards.Action\lChoicesVBox">
<polygon fill="white" stroke="black" points="1509,-741 1509,-771 1665,-771 1665,-741 1509,-741"/>
<text text-anchor="start" x="1517" y="-759" font-family="Helvetica,sans-Serif" font-size="10.00">authoring.view.wizards.Action</text>
<text text-anchor="middle" x="1587" y="-748" font-family="Helvetica,sans-Serif" font-size="10.00">ChoicesVBox</text>
</a>
</g>
</g>
<!-- Node34&#45;&gt;Node37 -->
<g id="edge50" class="edge"><title>Node34&#45;&gt;Node37</title>
<path fill="none" stroke="midnightblue" d="M1275.89,-717.693C1327.57,-724.076 1435.12,-737.362 1508.93,-746.48"/>
<polygon fill="midnightblue" stroke="midnightblue" points="1276.1,-714.192 1265.75,-716.44 1275.24,-721.139 1276.1,-714.192"/>
</g>
<!-- Node35 -->
<g id="node35" class="node"><title>Node35</title>
<polygon fill="white" stroke="#bfbfbf" points="1132.5,-651 1132.5,-681 1357.5,-681 1357.5,-651 1132.5,-651"/>
<text text-anchor="start" x="1140.5" y="-669" font-family="Helvetica,sans-Serif" font-size="10.00">Map&lt; String, authoring.view.propertiesview.</text>
<text text-anchor="middle" x="1245" y="-658" font-family="Helvetica,sans-Serif" font-size="10.00">PropertyTextField &gt;</text>
</g>
<!-- Node35&#45;&gt;Node32 -->
<g id="edge46" class="edge"><title>Node35&#45;&gt;Node32</title>
<path fill="none" stroke="#9a32cd" stroke-dasharray="5,2" d="M1367.96,-663.848C1414.52,-663.026 1466.32,-662.112 1507.75,-661.381"/>
<polygon fill="#9a32cd" stroke="#9a32cd" points="1367.74,-660.351 1357.8,-664.027 1367.86,-667.35 1367.74,-660.351"/>
<text text-anchor="middle" x="1433" y="-667" font-family="Helvetica,sans-Serif" font-size="10.00"> myMap</text>
</g>
<!-- Node36 -->
<g id="node36" class="node"><title>Node36</title>
<polygon fill="white" stroke="#bfbfbf" points="1554,-702.5 1554,-721.5 1620,-721.5 1620,-702.5 1554,-702.5"/>
<text text-anchor="middle" x="1587" y="-709.5" font-family="Helvetica,sans-Serif" font-size="10.00">ScrollPane</text>
</g>
<!-- Node36&#45;&gt;Node31 -->
<g id="edge48" class="edge"><title>Node36&#45;&gt;Node31</title>
<path fill="none" stroke="#9a32cd" stroke-dasharray="5,2" d="M1630.27,-708.704C1675.93,-705.145 1749.65,-699.397 1805.72,-695.025"/>
<polygon fill="#9a32cd" stroke="#9a32cd" points="1629.83,-705.228 1620.13,-709.495 1630.37,-712.207 1629.83,-705.228"/>
<text text-anchor="middle" x="1732" y="-707" font-family="Helvetica,sans-Serif" font-size="10.00"> myScrollPane</text>
</g>
<!-- Node37&#45;&gt;Node31 -->
<g id="edge49" class="edge"><title>Node37&#45;&gt;Node31</title>
<path fill="none" stroke="#9a32cd" stroke-dasharray="5,2" d="M1675.22,-741.694C1708.26,-735.622 1746.07,-727.883 1780,-719 1788.16,-716.864 1789.94,-715.48 1798,-713 1807.67,-710.024 1818.01,-706.987 1828.02,-704.119"/>
<polygon fill="#9a32cd" stroke="#9a32cd" points="1674.35,-738.295 1665.13,-743.524 1675.6,-745.183 1674.35,-738.295"/>
<text text-anchor="middle" x="1732" y="-743" font-family="Helvetica,sans-Serif" font-size="10.00"> myChoices</text>
</g>
<!-- Node38 -->
<g id="node38" class="node"><title>Node38</title>
<polygon fill="white" stroke="#bfbfbf" points="1198.5,-784.5 1198.5,-803.5 1291.5,-803.5 1291.5,-784.5 1198.5,-784.5"/>
<text text-anchor="middle" x="1245" y="-791.5" font-family="Helvetica,sans-Serif" font-size="10.00">ResourceBundle</text>
</g>
<!-- Node38&#45;&gt;Node37 -->
<g id="edge51" class="edge"><title>Node38&#45;&gt;Node37</title>
<path fill="none" stroke="#9a32cd" stroke-dasharray="5,2" d="M1301.69,-789.724C1351.21,-785.689 1425.55,-779.065 1490,-771 1496.11,-770.235 1502.43,-769.384 1508.77,-768.486"/>
<polygon fill="#9a32cd" stroke="#9a32cd" points="1301.2,-786.252 1291.51,-790.545 1301.76,-793.229 1301.2,-786.252"/>
<text text-anchor="middle" x="1433" y="-787" font-family="Helvetica,sans-Serif" font-size="10.00"> ACTIONS_PARAMETERS</text>
</g>
<!-- Node39 -->
<g id="node39" class="node"><title>Node39</title>
<polygon fill="white" stroke="#bfbfbf" points="1207,-746.5 1207,-765.5 1283,-765.5 1283,-746.5 1207,-746.5"/>
<text text-anchor="middle" x="1245" y="-753.5" font-family="Helvetica,sans-Serif" font-size="10.00">ToggleGroup</text>
</g>
<!-- Node39&#45;&gt;Node37 -->
<g id="edge52" class="edge"><title>Node39&#45;&gt;Node37</title>
<path fill="none" stroke="#9a32cd" stroke-dasharray="5,2" d="M1293.32,-756C1349.05,-756 1442.41,-756 1508.69,-756"/>
<polygon fill="#9a32cd" stroke="#9a32cd" points="1293.03,-752.5 1283.03,-756 1293.03,-759.5 1293.03,-752.5"/>
<text text-anchor="middle" x="1433" y="-759" font-family="Helvetica,sans-Serif" font-size="10.00"> myToggleGroup</text>
</g>
<!-- Node40 -->
<g id="node40" class="node"><title>Node40</title>
<polygon fill="white" stroke="#bfbfbf" points="1847.5,-489.5 1847.5,-508.5 1920.5,-508.5 1920.5,-489.5 1847.5,-489.5"/>
<text text-anchor="middle" x="1884" y="-496.5" font-family="Helvetica,sans-Serif" font-size="10.00">Constructor</text>
</g>
<!-- Node40&#45;&gt;Node1 -->
<g id="edge53" class="edge"><title>Node40&#45;&gt;Node1</title>
<path fill="none" stroke="#9a32cd" stroke-dasharray="5,2" d="M1930.7,-500.255C1977.72,-502.903 2052.31,-510.934 2112,-535 2138.51,-545.687 2164.85,-565.833 2181.26,-579.816"/>
<polygon fill="#9a32cd" stroke="#9a32cd" points="1930.69,-496.75 1920.53,-499.741 1930.34,-503.741 1930.69,-496.75"/>
<text text-anchor="middle" x="2050" y="-538" font-family="Helvetica,sans-Serif" font-size="10.00"> myConstructor</text>
</g>
<!-- Node41 -->
<g id="node41" class="node"><title>Node41</title>
<polygon fill="white" stroke="#bfbfbf" points="1842,-451.5 1842,-470.5 1926,-470.5 1926,-451.5 1842,-451.5"/>
<text text-anchor="middle" x="1884" y="-458.5" font-family="Helvetica,sans-Serif" font-size="10.00">List&lt; String &gt;</text>
</g>
<!-- Node41&#45;&gt;Node1 -->
<g id="edge54" class="edge"><title>Node41&#45;&gt;Node1</title>
<path fill="none" stroke="#9a32cd" stroke-dasharray="5,2" d="M1936.54,-457.417C1984.84,-456.364 2057.57,-460.864 2112,-491 2149.72,-511.88 2177.64,-556.472 2190.37,-579.903"/>
<polygon fill="#9a32cd" stroke="#9a32cd" points="1936.2,-453.926 1926.32,-457.731 1936.42,-460.922 1936.2,-453.926"/>
<text text-anchor="middle" x="2050" y="-494" font-family="Helvetica,sans-Serif" font-size="10.00"> myInputParameters</text>
</g>
<!-- Node42 -->
<g id="node42" class="node"><title>Node42</title>
<polygon fill="white" stroke="#bfbfbf" points="1553.5,-605.5 1553.5,-624.5 1620.5,-624.5 1620.5,-605.5 1553.5,-605.5"/>
<text text-anchor="middle" x="1587" y="-612.5" font-family="Helvetica,sans-Serif" font-size="10.00">Parameter</text>
</g>
<!-- Node42&#45;&gt;Node1 -->
<g id="edge55" class="edge"><title>Node42&#45;&gt;Node1</title>
<path fill="none" stroke="#9a32cd" stroke-dasharray="5,2" d="M1630.97,-612.373C1673.4,-609.868 1740.15,-606.165 1798,-604 1914.79,-599.628 2050.84,-597.116 2130.39,-595.906"/>
<polygon fill="#9a32cd" stroke="#9a32cd" points="1630.5,-608.895 1620.72,-612.983 1630.91,-615.883 1630.5,-608.895"/>
<text text-anchor="middle" x="1884" y="-607" font-family="Helvetica,sans-Serif" font-size="10.00"> myParameterTypes</text>
</g>
<!-- Node42&#45;&gt;Node43 -->
<g id="edge58" class="edge"><title>Node42&#45;&gt;Node43</title>
<path fill="none" stroke="#9a32cd" stroke-dasharray="5,2" d="M1630.7,-618.618C1674.39,-622.322 1743.47,-628.176 1798.31,-632.823"/>
<polygon fill="#9a32cd" stroke="#9a32cd" points="1630.96,-615.128 1620.7,-617.771 1630.37,-622.103 1630.96,-615.128"/>
<text text-anchor="middle" x="1732" y="-635" font-family="Helvetica,sans-Serif" font-size="10.00"> myParameterTypes</text>
</g>
<!-- Node43&#45;&gt;Node1 -->
<g id="edge56" class="edge"><title>Node43&#45;&gt;Node1</title>
<path fill="none" stroke="#9a32cd" stroke-dasharray="5,2" d="M1979.62,-627.63C2020.39,-622.158 2068.57,-615.499 2112,-609 2117.98,-608.104 2124.2,-607.147 2130.42,-606.169"/>
<polygon fill="#9a32cd" stroke="#9a32cd" points="1979.14,-624.163 1969.69,-628.958 1980.07,-631.101 1979.14,-624.163"/>
<text text-anchor="middle" x="2050" y="-630" font-family="Helvetica,sans-Serif" font-size="10.00"> myCPW</text>
</g>
</g>
</svg>
